<?xml version='1.0' encoding='utf-8'?>
<svg xmlns="http://www.w3.org/2000/svg" height="100px" version="1.0" viewBox="0 0 100 100" width="100px" x="0px" y="0px">
<line fill="none" stroke="#000000" stroke-width="2" x1="16.5" x2="16.5" y1="94" y2="32.8" /><line fill="none" stroke="#000000" stroke-width="2" x1="93.5" x2="39.5" y1="15" y2="15" /><line fill="none" stroke="#000000" stroke-width="2" x1="26" x2="95.5" y1="54" y2="54" /><line fill="none" stroke="#000000" stroke-width="2" x1="31.5" x2="92.5" y1="81" y2="81" /><path d="M26,6 c-4.703,19.29 -12.908,36.252 -23.5,49.5" fill="none" stroke="#000000" stroke-width="2" /><path d="M26,40 c7.295,-9.923 13.277,-22.526 17,-36" fill="none" stroke="#000000" stroke-width="2" /><path d="M30,88 c3.998,-18.408 7.376,-41.544 9,-60.5 h51.0 c-1.535,19.169 -4.044,41.593 -6.5,58.5 c-0.805,5.54 -2.035,6.5 -7.5,6.5 c-2.273,0 -6.25,-0.177 -11,-0.5" fill="none" stroke="#000000" stroke-width="2" /><path d="M58,81 c2.727,-17.089 5.161,-36.894 6.5,-53.5" fill="none" stroke="#000000" stroke-width="2" /></svg>