<?xml version='1.0' encoding='utf-8'?>
<svg xmlns="http://www.w3.org/2000/svg" height="100px" version="1.0" viewBox="0 0 100 100" width="100px" x="0px" y="0px">
<line fill="none" stroke="#000000" stroke-width="2" x1="16.5" x2="16.5" y1="94" y2="28.8" /><line fill="none" stroke="#000000" stroke-width="2" x1="33" x2="90" y1="66" y2="66" /><line fill="none" stroke="#000000" stroke-width="2" x1="33" x2="90" y1="45.5" y2="45.5" /><line fill="none" stroke="#000000" stroke-width="2" x1="29" x2="92" y1="10" y2="10" /><line fill="none" stroke="#000000" stroke-width="2" x1="61.5" x2="61.5" y1="28" y2="91" /><path d="M23.5,6 c-4.303,19.29 -11.811,36.252 -21.5,49.5" fill="none" stroke="#000000" stroke-width="2" /><path d="M32,93 v-66.0 h59.0 v56.5 c0,7.366 -0.615,8 -6.5,8 c-2.076,0 -5.842,-0.134 -12,-0.5" fill="none" stroke="#000000" stroke-width="2" /><path d="M41.5,15.5 c6.697,3.351 13.79,7.257 21,11.5" fill="none" stroke="#000000" stroke-width="2" /><path d="M91.396,10.201 c-4.504,3.397 -18.282,10.744 -30.396,15.799" fill="none" stroke="#000000" stroke-width="2" /></svg>