<?xml version='1.0' encoding='utf-8'?>
<svg xmlns="http://www.w3.org/2000/svg" height="100px" version="1.0" viewBox="0 0 100 100" width="100px" x="0px" y="0px">
<line fill="none" stroke="#000000" stroke-width="2" x1="16.5" x2="16.5" y1="94" y2="30.8" /><line fill="none" stroke="#000000" stroke-width="2" x1="90.5" x2="38" y1="40" y2="40" /><line fill="none" stroke="#000000" stroke-width="2" x1="95.5" x2="22" y1="61" y2="61" /><path d="M25,5 c-4.616,19.812 -12.729,37.308 -23,51" fill="none" stroke="#000000" stroke-width="2" /><path d="M95,33 c-5.875,-6.85 -14.385,-15.382 -22,-22" fill="none" stroke="#000000" stroke-width="2" /><path d="M25,27.5 c18.885,-0.425 40.445,-1.641 62,-3.5" fill="none" stroke="#000000" stroke-width="2" /><path d="M35,27.5 c5.826,-6.608 12.009,-15.188 17,-23.5" fill="none" stroke="#000000" stroke-width="2" /><path d="M25,55 c7.773,-6.753 14.011,-15.396 18,-24.5" fill="none" stroke="#000000" stroke-width="2" /><path d="M22.5,91 c23.334,-7.106 37,-20.845 37,-33.5 V40.0" fill="none" stroke="#000000" stroke-width="2" /><path d="M94.5,91 c-22.102,-6.816 -35,-20.753 -35,-33.5" fill="none" stroke="#000000" stroke-width="2" /></svg>