<?xml version='1.0' encoding='utf-8'?>
<svg xmlns="http://www.w3.org/2000/svg" height="100px" version="1.0" viewBox="0 0 100 100" width="100px" x="0px" y="0px">
<line fill="none" stroke="#000000" stroke-width="2" x1="60.5" x2="60.5" y1="93.5" y2="19" /><line fill="none" stroke="#000000" stroke-width="2" x1="16.5" x2="16.5" y1="94" y2="31.8" /><path d="M29.5,56.5 h63.5 c0,27.763 -1.193,29.5 -7,29.5 c-2.562,0 -8.394,-0.358 -14.5,-1" fill="none" stroke="#000000" stroke-width="2" /><path d="M29,18 h61.0 v19.5 h-57.0 c-1,9.931 -2.893,19.3 -5.5,27.5" fill="none" stroke="#000000" stroke-width="2" /><path d="M24,90 c17.02,-10.598 28.373,-21.632 35.5,-33.5" fill="none" stroke="#000000" stroke-width="2" /><path d="M50.5,18 c-2.072,-4.796 -4.328,-9.498 -6.5,-13.5" fill="none" stroke="#000000" stroke-width="2" /><path d="M70.5,18 c2.455,-4.448 4.782,-9.305 6.5,-13.5" fill="none" stroke="#000000" stroke-width="2" /><path d="M25,6 c-4.616,19.812 -12.729,37.308 -23,51" fill="none" stroke="#000000" stroke-width="2" /></svg>