<?xml version='1.0' encoding='utf-8'?>
<svg xmlns="http://www.w3.org/2000/svg" height="100px" version="1.0" viewBox="0 0 100 100" width="100px" x="0px" y="0px">
<line fill="none" stroke="#000000" stroke-width="2" x1="13" x2="13" y1="94" y2="34" /><line fill="none" stroke="#000000" stroke-width="2" x1="40.5" x2="40.5" y1="20" y2="4" /><line fill="none" stroke="#000000" stroke-width="2" x1="21.5" x2="59" y1="20" y2="20" /><line fill="none" stroke="#000000" stroke-width="2" x1="65.5" x2="97" y1="21" y2="21" /><path d="M21.5,6 c-4.002,19.29 -10.986,36.252 -20,49.5" fill="none" stroke="#000000" stroke-width="2" /><path d="M19.5,92 c8.334,-14.722 12,-32.36 12,-71" fill="none" stroke="#000000" stroke-width="2" /><path d="M31,39 h21.5 c0,45.847 -2.577,51 -9.5,51 c-2.031,0 -7.113,-0.389 -11.5,-1" fill="none" stroke="#000000" stroke-width="2" /><path d="M53.5,91 c23.854,-14.448 34.527,-32.823 37,-70" fill="none" stroke="#000000" stroke-width="2" /><path d="M96.5,91 c-18.168,-14.536 -26.536,-31.323 -29.5,-63" fill="none" stroke="#000000" stroke-width="2" /><path d="M56,49 c5.365,-11.971 9.967,-28.03 12.5,-44" fill="none" stroke="#000000" stroke-width="2" /></svg>