<?xml version='1.0' encoding='utf-8'?>
<svg xmlns="http://www.w3.org/2000/svg" height="100px" version="1.0" viewBox="0 0 100 100" width="100px" x="0px" y="0px">
<line fill="none" stroke="#000000" stroke-width="2" x1="12.5" x2="12.5" y1="94" y2="35" /><line fill="none" stroke="#000000" stroke-width="2" x1="26.5" x2="96.5" y1="88.5" y2="88.5" /><line fill="none" stroke="#000000" stroke-width="2" x1="94" x2="33" y1="53" y2="53" /><line fill="none" stroke="#000000" stroke-width="2" x1="87" x2="41" y1="30.5" y2="30.5" /><polyline fill="none" points="96,10.5 26.5,10.5 26.5,95" stroke="#000000" stroke-width="2" /><polyline fill="none" points="40,44.5 40,18 87,18 87,43.5 41,43.5" stroke="#000000" stroke-width="2" /><path d="M21.5,6 c-4.002,19.29 -10.986,36.252 -20,49.5" fill="none" stroke="#000000" stroke-width="2" /><path d="M31.5,83.5 c24.166,-3.466 44.079,-15.896 51.5,-30.5" fill="none" stroke="#000000" stroke-width="2" /><path d="M59,43.5 c-5.328,9.53 -12.092,18.226 -21,26.5" fill="none" stroke="#000000" stroke-width="2" /><path d="M42,66 c16.522,3.313 31.383,8.725 50.5,18.5" fill="none" stroke="#000000" stroke-width="2" /></svg>