<?xml version='1.0' encoding='utf-8'?>
<svg xmlns="http://www.w3.org/2000/svg" height="100px" version="1.0" viewBox="0 0 100 100" width="100px" x="0px" y="0px">
<line fill="none" stroke="#000000" stroke-width="2" x1="95" x2="5" y1="77" y2="77" /><line fill="none" stroke="#000000" stroke-width="2" x1="50" x2="50" y1="16" y2="95" /><path d="M94.5,32.5 c-16.906,-8.264 -31.083,-17.121 -44.5,-27.8 c-13.417,10.679 -27.594,19.536 -44.5,27.8" fill="none" stroke="#000000" stroke-width="2" /><path d="M7,51 c11.959,-6.661 19.903,-15.748 23,-26" fill="none" stroke="#000000" stroke-width="2" /><path d="M45,47.5 c-5.725,-5.129 -12.369,-9.601 -19.5,-13" fill="none" stroke="#000000" stroke-width="2" /><path d="M55,47.5 c8.628,-6.212 14.479,-13.937 17,-22.5" fill="none" stroke="#000000" stroke-width="2" /><path d="M93,51 c-7.424,-6.568 -16.207,-12.29 -25.5,-16.5" fill="none" stroke="#000000" stroke-width="2" /><path d="M7,71 c11.959,-6.661 19.903,-15.748 23,-26" fill="none" stroke="#000000" stroke-width="2" /><path d="M45,67.5 c-5.725,-5.129 -12.369,-9.601 -19.5,-13" fill="none" stroke="#000000" stroke-width="2" /><path d="M55,67.5 c8.628,-6.212 14.479,-13.937 17,-22.5" fill="none" stroke="#000000" stroke-width="2" /><path d="M93,71 c-7.424,-6.568 -16.207,-12.29 -25.5,-16.5" fill="none" stroke="#000000" stroke-width="2" /></svg>