<?xml version='1.0' encoding='utf-8'?>
<svg xmlns="http://www.w3.org/2000/svg" height="100px" version="1.0" viewBox="0 0 100 100" width="100px" x="0px" y="0px">
<line fill="none" stroke="#000000" stroke-width="2" x1="13" x2="13" y1="94" y2="30.75" /><line fill="none" stroke="#000000" stroke-width="2" x1="67.5" x2="97" y1="21" y2="21" /><line fill="none" stroke="#000000" stroke-width="2" x1="19.5" x2="58.5" y1="33.5" y2="33.5" /><line fill="none" stroke="#000000" stroke-width="2" x1="57.5" x2="22" y1="16.5" y2="16.5" /><line fill="none" stroke="#000000" stroke-width="2" x1="39" x2="39" y1="33.5" y2="5" /><line fill="none" stroke="#000000" stroke-width="2" x1="19.5" x2="57" y1="50.5" y2="50.5" /><line fill="none" stroke="#000000" stroke-width="2" x1="39" x2="39" y1="50.5" y2="37.5" /><path d="M19.5,6 c-3.602,19.29 -9.888,36.252 -18,49.5" fill="none" stroke="#000000" stroke-width="2" /><path d="M59.5,91 c20.205,-15.312 28.918,-32.429 32,-70" fill="none" stroke="#000000" stroke-width="2" /><path d="M96.5,91 c-16.595,-14.23 -24.184,-30.512 -27,-63" fill="none" stroke="#000000" stroke-width="2" /><path d="M58.5,49 c5.163,-11.971 9.563,-28.03 12,-44" fill="none" stroke="#000000" stroke-width="2" /><path d="M19.5,91.5 c8.503,-8.683 13.5,-22.737 13.5,-41" fill="none" stroke="#000000" stroke-width="2" /><path d="M48,91 c-2.361,0 -6.85,-0.337 -12,-1" fill="none" stroke="#000000" stroke-width="2" /><path d="M32,64 h23.5 c0,20.478 -3.209,27 -7.5,27" fill="none" stroke="#000000" stroke-width="2" /></svg>