<?xml version='1.0' encoding='utf-8'?>
<svg xmlns="http://www.w3.org/2000/svg" height="100px" version="1.0" viewBox="0 0 100 100" width="100px" x="0px" y="0px">
<line fill="none" stroke="#000000" stroke-width="2" x1="22" x2="95" y1="90" y2="90" /><line fill="none" stroke="#000000" stroke-width="2" x1="23" x2="94" y1="49" y2="49" /><line fill="none" stroke="#000000" stroke-width="2" x1="24" x2="93" y1="10" y2="10" /><line fill="none" stroke="#000000" stroke-width="2" x1="13" x2="13" y1="94" y2="34" /><line fill="none" stroke="#000000" stroke-width="2" x1="58.5" x2="58.5" y1="81" y2="58" /><line fill="none" stroke="#000000" stroke-width="2" x1="30.5" x2="87.5" y1="69.5" y2="69.5" /><line fill="none" stroke="#000000" stroke-width="2" x1="58.5" x2="58.5" y1="40" y2="19" /><line fill="none" stroke="#000000" stroke-width="2" x1="31.5" x2="86.5" y1="29.5" y2="29.5" /><polyline fill="none" points="30.5,82 87.5,82 87.5,57 29.5,57 29.5,83" stroke="#000000" stroke-width="2" /><polyline fill="none" points="31.5,41 86.5,41 86.5,18 30.5,18 30.5,42" stroke="#000000" stroke-width="2" /><path d="M21.5,6 c-4.002,19.29 -10.986,36.252 -20,49.5" fill="none" stroke="#000000" stroke-width="2" /></svg>