<?xml version='1.0' encoding='utf-8'?>
<svg xmlns="http://www.w3.org/2000/svg" height="100px" version="1.0" viewBox="0 0 100 100" width="100px" x="0px" y="0px">
<line fill="none" stroke="#000000" stroke-width="2" x1="60.5" x2="60.5" y1="16" y2="5" /><line fill="none" stroke="#000000" stroke-width="2" x1="25" x2="96" y1="16" y2="16" /><polyline fill="none" points="34,55 88,55 88,27 33,27 33,56" stroke="#000000" stroke-width="2" /><path d="M6,89.5 c8.342,-10.068 15.25,-21.444 20,-33" fill="none" stroke="#000000" stroke-width="2" /><path d="M23.5,30 c-4.577,-6.477 -10.034,-12.941 -16.5,-19.5" fill="none" stroke="#000000" stroke-width="2" /><path d="M61.5,56 v28.0 c0,7.291 -0.537,8 -6,8 c-2.564,0 -6.678,-0.164 -12,-0.5" fill="none" stroke="#000000" stroke-width="2" /><path d="M25.5,87 c8.238,-6.313 15.742,-15.513 20.5,-25" fill="none" stroke="#000000" stroke-width="2" /><path d="M95,88.5 c-6.317,-9.339 -13.954,-18.44 -22,-26" fill="none" stroke="#000000" stroke-width="2" /></svg>