<?xml version='1.0' encoding='utf-8'?>
<svg xmlns="http://www.w3.org/2000/svg" height="100px" version="1.0" viewBox="0 0 100 100" width="100px" x="0px" y="0px">
<line fill="none" stroke="#000000" stroke-width="2" x1="68.5" x2="68.5" y1="74" y2="12" /><line fill="none" stroke="#000000" stroke-width="2" x1="7" x2="60" y1="10.5" y2="10.5" /><line fill="none" stroke="#000000" stroke-width="2" x1="33.5" x2="33.5" y1="61.5" y2="88" /><line fill="none" stroke="#000000" stroke-width="2" x1="59" x2="8" y1="61.5" y2="61.5" /><path d="M90,8 v75.0 c0,7.13 -0.866,8 -6.5,8 c-2.75,0 -6.917,-0.144 -12.5,-0.5" fill="none" stroke="#000000" stroke-width="2" /><path d="M7.5,92.5 c22.809,-3.287 42.449,-7.9 54,-12" fill="none" stroke="#000000" stroke-width="2" /><path d="M21,15.5 c-4.097,7.344 -8.053,12.89 -14,19.5 c6.254,7.382 10.142,13.237 14.5,21.5" fill="none" stroke="#000000" stroke-width="2" /><path d="M40,15.5 c-4.097,7.344 -8.053,12.89 -14,19.5 c6.254,7.382 10.142,13.237 14.5,21.5" fill="none" stroke="#000000" stroke-width="2" /><path d="M59,15.5 c-4.097,7.344 -8.053,12.89 -14,19.5 c6.254,7.382 10.142,13.237 14.5,21.5" fill="none" stroke="#000000" stroke-width="2" /></svg>