<?xml version='1.0' encoding='utf-8'?>
<svg xmlns="http://www.w3.org/2000/svg" height="100px" version="1.0" viewBox="0 0 100 100" width="100px" x="0px" y="0px">
<line fill="none" stroke="#000000" stroke-width="2" x1="73.5" x2="73.5" y1="74" y2="12" /><line fill="none" stroke="#000000" stroke-width="2" x1="20" x2="20" y1="45.5" y2="84" /><line fill="none" stroke="#000000" stroke-width="2" x1="51" x2="51" y1="80" y2="45.5" /><line fill="none" stroke="#000000" stroke-width="2" x1="20" x2="51" y1="72" y2="72" /><line fill="none" stroke="#000000" stroke-width="2" x1="35.5" x2="35.5" y1="37.5" y2="72" /><line fill="none" stroke="#000000" stroke-width="2" x1="13.5" x2="57.5" y1="37.5" y2="37.5" /><path d="M91.5,8 v75.0 c0,7.317 -0.645,8 -5,8 c-2.243,0 -5.943,-0.167 -10.5,-0.5" fill="none" stroke="#000000" stroke-width="2" /><path d="M42.5,37.5 c2.769,-6.425 5.21,-14.035 7,-22" fill="none" stroke="#000000" stroke-width="2" /><path d="M28.5,37.5 c-1.956,-7.086 -4.396,-14.581 -7,-21.5" fill="none" stroke="#000000" stroke-width="2" /><path d="M9,92 v-82.0 h53.0 v72.0 c0,7.565 -0.406,8 -5.5,8 c-1.906,0 -5.848,-0.155 -11.5,-0.5" fill="none" stroke="#000000" stroke-width="2" /></svg>