<?xml version='1.0' encoding='utf-8'?>
<svg xmlns="http://www.w3.org/2000/svg" height="100px" version="1.0" viewBox="0 0 100 100" width="100px" x="0px" y="0px">
<line fill="none" stroke="#000000" stroke-width="2" x1="53.5" x2="15.5" y1="27" y2="27" /><line fill="none" stroke="#000000" stroke-width="2" x1="68.5" x2="68.5" y1="74" y2="12" /><polyline fill="none" points="10,61 10,38.5 57,38.5 57,60 11,60" stroke="#000000" stroke-width="2" /><path d="M60.5,28.5 c-9.904,-6.72 -18.285,-13.634 -26.5,-22 c-8.947,9.585 -18.375,17.618 -29.5,25" fill="none" stroke="#000000" stroke-width="2" /><path d="M4.5,92 c17.605,-6.803 29,-21.03 29,-35.5 V28.0" fill="none" stroke="#000000" stroke-width="2" /><path d="M32.5,64 c11.543,8.562 19.063,15.956 26.5,25.5" fill="none" stroke="#000000" stroke-width="2" /><path d="M91,8 v75.0 c0,7.13 -0.866,8 -6.5,8 c-2.75,0 -6.917,-0.144 -12.5,-0.5" fill="none" stroke="#000000" stroke-width="2" /></svg>