<?xml version='1.0' encoding='utf-8'?>
<svg xmlns="http://www.w3.org/2000/svg" height="100px" version="1.0" viewBox="0 0 100 100" width="100px" x="0px" y="0px">
<line fill="none" stroke="#000000" stroke-width="2" x1="6" x2="55" y1="10.5" y2="10.5" /><line fill="none" stroke="#000000" stroke-width="2" x1="30.5" x2="30.5" y1="61.5" y2="88" /><line fill="none" stroke="#000000" stroke-width="2" x1="54" x2="7" y1="61.5" y2="61.5" /><path d="M51,92 c12.58,-16.926 17,-34.719 17,-86" fill="none" stroke="#000000" stroke-width="2" /><path d="M54,28 h38.5 c0,56.077 -2.25,62 -8.5,62 c-2.687,0 -7.361,-0.33 -13,-1" fill="none" stroke="#000000" stroke-width="2" /><path d="M6.5,92.5 c20.274,-3.287 37.732,-7.9 48,-12" fill="none" stroke="#000000" stroke-width="2" /><path d="M20,15.5 c-4.097,7.344 -8.053,12.89 -14,19.5 c6.254,7.382 10.142,13.237 14.5,21.5" fill="none" stroke="#000000" stroke-width="2" /><path d="M37,15.5 c-4.097,7.344 -8.053,12.89 -14,19.5 c6.254,7.382 10.142,13.237 14.5,21.5" fill="none" stroke="#000000" stroke-width="2" /><path d="M54,15.5 c-4.097,7.344 -8.053,12.89 -14,19.5 c6.254,7.382 10.142,13.237 14.5,21.5" fill="none" stroke="#000000" stroke-width="2" /></svg>