<?xml version='1.0' encoding='utf-8'?>
<svg xmlns="http://www.w3.org/2000/svg" height="100px" version="1.0" viewBox="0 0 100 100" width="100px" x="0px" y="0px">
<line fill="none" stroke="#000000" stroke-width="2" x1="56" x2="4.5" y1="16" y2="16" /><line fill="none" stroke="#000000" stroke-width="2" x1="4" x2="57" y1="58" y2="58" /><line fill="none" stroke="#000000" stroke-width="2" x1="15.5" x2="45" y1="44" y2="44" /><line fill="none" stroke="#000000" stroke-width="2" x1="15.5" x2="45" y1="30" y2="30" /><line fill="none" stroke="#000000" stroke-width="2" x1="14.5" x2="14.5" y1="57" y2="5.5" /><line fill="none" stroke="#000000" stroke-width="2" x1="46" x2="46" y1="57" y2="5.5" /><line fill="none" stroke="#000000" stroke-width="2" x1="10" x2="49" y1="87.5" y2="87.5" /><line fill="none" stroke="#000000" stroke-width="2" x1="10" x2="10" y1="59" y2="94.5" /><path d="M50.5,92 c11.84,-16.926 16,-34.719 16,-86" fill="none" stroke="#000000" stroke-width="2" /><path d="M52,28 h40.5 c0,56.077 -2.25,62 -8.5,62 c-2.687,0 -7.361,-0.33 -13,-1" fill="none" stroke="#000000" stroke-width="2" /><path d="M26,58 c0,13.314 -2.832,18.024 -13,23" fill="none" stroke="#000000" stroke-width="2" /><path d="M36.5,58 v14.5 c0,4.023 0.553,4.5 8.5,4.5 c7.928,0 8.166,-0.242 8.5,-12.5" fill="none" stroke="#000000" stroke-width="2" /></svg>