<?xml version='1.0' encoding='utf-8'?>
<svg xmlns="http://www.w3.org/2000/svg" height="100px" version="1.0" viewBox="0 0 100 100" width="100px" x="0px" y="0px">
<line fill="none" stroke="#000000" stroke-width="2" x1="10.5" x2="49.5" y1="47.5" y2="47.5" /><line fill="none" stroke="#000000" stroke-width="2" x1="10.5" x2="49.5" y1="37" y2="37" /><line fill="none" stroke="#000000" stroke-width="2" x1="7" x2="51.5" y1="56" y2="56" /><line fill="none" stroke="#000000" stroke-width="2" x1="30" x2="30" y1="66.5" y2="8.5" /><line fill="none" stroke="#000000" stroke-width="2" x1="6" x2="52" y1="18" y2="18" /><polyline fill="none" points="50.5,48.5 50.5,26.5 9.5,26.5 9.5,48.5" stroke="#000000" stroke-width="2" /><path d="M92.5,92 c-4.201,-6.038 -9.068,-12.229 -15,-19" fill="none" stroke="#000000" stroke-width="2" /><path d="M67,92.25 c-2.518,-5.955 -5.578,-12.132 -9.5,-19" fill="none" stroke="#000000" stroke-width="2" /><path d="M41.5,92.5 c-0.834,-5.872 -2.088,-12.033 -4,-19" fill="none" stroke="#000000" stroke-width="2" /><path d="M7.5,92 c5.269,-5.368 10.214,-11.575 15,-19" fill="none" stroke="#000000" stroke-width="2" /><path d="M8,10 c15.838,-0.441 31.068,-1.913 43,-4" fill="none" stroke="#000000" stroke-width="2" /><path d="M52,69 c11.939,-15.843 16,-29.381 16,-64.5" fill="none" stroke="#000000" stroke-width="2" /><path d="M53.5,21 h39.0 c0,42.058 -2.25,46.5 -8.5,46.5 c-2.687,0 -7.379,-0.33 -13,-1" fill="none" stroke="#000000" stroke-width="2" /><path d="M5,68.5 c15.18,-0.99 30.337,-2.637 46,-5" fill="none" stroke="#000000" stroke-width="2" /></svg>