<?xml version='1.0' encoding='utf-8'?>
<svg xmlns="http://www.w3.org/2000/svg" height="100px" version="1.0" viewBox="0 0 100 100" width="100px" x="0px" y="0px">
<line fill="none" stroke="#000000" stroke-width="2" x1="63" x2="94" y1="27" y2="27" /><line fill="none" stroke="#000000" stroke-width="2" x1="15" x2="55" y1="33" y2="33" /><line fill="none" stroke="#000000" stroke-width="2" x1="19.5" x2="19.5" y1="40" y2="73.5" /><line fill="none" stroke="#000000" stroke-width="2" x1="51" x2="51" y1="70" y2="40" /><line fill="none" stroke="#000000" stroke-width="2" x1="19.5" x2="51" y1="64.5" y2="64.5" /><path d="M48,92 c13.312,-5.907 25,-24.917 25,-43 v-14.5" fill="none" stroke="#000000" stroke-width="2" /><path d="M95,92 c-11.102,-5.749 -22,-24.957 -22,-43" fill="none" stroke="#000000" stroke-width="2" /><path d="M53.5,51.5 c5.395,-10.014 9.496,-22.1 12,-36" fill="none" stroke="#000000" stroke-width="2" /><path d="M86,51 c3.033,-6.686 5.383,-14.339 7.016,-23.182" fill="none" stroke="#000000" stroke-width="2" /><path d="M4,92 c4.68,-14.06 7,-29.832 7,-51 v-30.0 h82.0" fill="none" stroke="#000000" stroke-width="2" /><path d="M30,30 c-2.701,-4.804 -5.645,-9.509 -8.5,-13.5" fill="none" stroke="#000000" stroke-width="2" /><path d="M40,33 c3.211,-5.603 6.254,-11.718 8.5,-17" fill="none" stroke="#000000" stroke-width="2" /><path d="M19.5,92.5 c12.399,-9.915 16,-18.308 16,-41 V33.0" fill="none" stroke="#000000" stroke-width="2" /></svg>