<?xml version='1.0' encoding='utf-8'?>
<svg xmlns="http://www.w3.org/2000/svg" height="100px" version="1.0" viewBox="0 0 100 100" width="100px" x="0px" y="0px">
<line fill="none" stroke="#000000" stroke-width="2" x1="17.5" x2="53" y1="23" y2="23" /><line fill="none" stroke="#000000" stroke-width="2" x1="94" x2="55" y1="32.5" y2="32.5" /><polyline fill="none" points="21,59 21,35.5 50,35.5 50,58 22,58" stroke="#000000" stroke-width="2" /><path d="M4,92 c4.68,-14.06 7,-29.832 7,-51 v-30.0 h82.0" fill="none" stroke="#000000" stroke-width="2" /><path d="M16.5,91 c13.553,-2.116 25.285,-4.593 40,-8.5" fill="none" stroke="#000000" stroke-width="2" /><path d="M39.5,86.5 c3.279,-6.73 6.076,-14.938 8,-24" fill="none" stroke="#000000" stroke-width="2" /><path d="M30,84 c-1.733,-6.748 -3.866,-13.983 -6,-20.5" fill="none" stroke="#000000" stroke-width="2" /><path d="M73,69.5 c-3.523,-8.359 -8.818,-18.161 -14,-26" fill="none" stroke="#000000" stroke-width="2" /><path d="M85,17 v65.5 c0,8.016 -0.451,8.5 -6,8.5 c-2.949,0 -9.187,-0.194 -15,-0.5" fill="none" stroke="#000000" stroke-width="2" /></svg>