<?xml version='1.0' encoding='utf-8'?>
<svg xmlns="http://www.w3.org/2000/svg" height="100px" version="1.0" viewBox="0 0 100 100" width="100px" x="0px" y="0px">
<line fill="none" stroke="#000000" stroke-width="2" x1="20" x2="80" y1="87" y2="87" /><line fill="none" stroke="#000000" stroke-width="2" x1="14" x2="91" y1="31" y2="31" /><line fill="none" stroke="#000000" stroke-width="2" x1="30.5" x2="30.5" y1="57" y2="31" /><line fill="none" stroke="#000000" stroke-width="2" x1="21" x2="85.5" y1="20.5" y2="20.5" /><polyline fill="none" points="81,93 81,64 19,64 19,93" stroke="#000000" stroke-width="2" /><path d="M47.5,31 c6.275,12.87 23.41,24.483 44.5,28" fill="none" stroke="#000000" stroke-width="2" /><path d="M14.5,58.5 c15.51,-1.373 28.98,-3.163 45,-6" fill="none" stroke="#000000" stroke-width="2" /><path d="M63.5,48 c7.555,-3.417 14.569,-7.681 21.5,-13" fill="none" stroke="#000000" stroke-width="2" /><path d="M6,58 c5.376,-9.092 8,-19.303 8,-33 v-14.5 h76.0" fill="none" stroke="#000000" stroke-width="2" /></svg>