<?xml version='1.0' encoding='utf-8'?>
<svg xmlns="http://www.w3.org/2000/svg" height="100px" version="1.0" viewBox="0 0 100 100" width="100px" x="0px" y="0px">
<line fill="none" stroke="#000000" stroke-width="2" x1="80" x2="48" y1="26" y2="26" /><line fill="none" stroke="#000000" stroke-width="2" x1="89" x2="39.5" y1="40" y2="40" /><polyline fill="none" points="10,78 29.5,78 29.5,13 9,13 9,89" stroke="#000000" stroke-width="2" /><path d="M95.5,33 c-12.473,-8.511 -22.086,-16.971 -31.5,-27.8 c-9.414,10.829 -19.01,19.311 -31.5,27.8" fill="none" stroke="#000000" stroke-width="2" /><path d="M72,64.5 c6.197,-7.393 11.682,-15.614 16.117,-23.97" fill="none" stroke="#000000" stroke-width="2" /><path d="M48.5,63.5 v17.0 c0,11.781 0.281,12 15,12 c18.797,0 19.068,-0.227 20,-15.5" fill="none" stroke="#000000" stroke-width="2" /><path d="M29,89.5 c4.49,-6.687 8.309,-15.48 10.5,-24.5" fill="none" stroke="#000000" stroke-width="2" /><path d="M96,90 c-3.073,-8.657 -7.004,-17.674 -11.5,-26" fill="none" stroke="#000000" stroke-width="2" /><path d="M69,72 c-4.16,-5.048 -9.029,-10.138 -14.5,-15" fill="none" stroke="#000000" stroke-width="2" /></svg>