<?xml version='1.0' encoding='utf-8'?>
<svg xmlns="http://www.w3.org/2000/svg" height="100px" version="1.0" viewBox="0 0 100 100" width="100px" x="0px" y="0px">
<line fill="none" stroke="#000000" stroke-width="2" x1="31" x2="95.5" y1="11" y2="11" /><polyline fill="none" points="9,78 28,78 28,14 8,14 8,88" stroke="#000000" stroke-width="2" /><path d="M32.5,37.5 c13.918,-6.753 24.512,-15.986 31,-26.5" fill="none" stroke="#000000" stroke-width="2" /><path d="M48,90.5 c5.359,0.343 9.861,0.5 13,0.5 c6.527,0 8,-1.886 8,-22 c0,-18.896 -5.731,-36.351 -15,-46.5" fill="none" stroke="#000000" stroke-width="2" /><path d="M32,62.5 c13.808,-7.271 24.063,-16.165 31,-26" fill="none" stroke="#000000" stroke-width="2" /><path d="M29,87.5 c16.676,-7.899 30.282,-18.87 39,-30.5" fill="none" stroke="#000000" stroke-width="2" /><path d="M94.5,24.5 c-5.189,8.849 -11.371,16.571 -17.5,22" fill="none" stroke="#000000" stroke-width="2" /><path d="M69,11 c3.678,30.176 15.476,60.294 28,76" fill="none" stroke="#000000" stroke-width="2" /></svg>