<?xml version='1.0' encoding='utf-8'?>
<svg xmlns="http://www.w3.org/2000/svg" height="100px" version="1.0" viewBox="0 0 100 100" width="100px" x="0px" y="0px">
<line fill="none" stroke="#000000" stroke-width="2" x1="64" x2="64" y1="28" y2="4.5" /><line fill="none" stroke="#000000" stroke-width="2" x1="31" x2="97" y1="14" y2="14" /><line fill="none" stroke="#000000" stroke-width="2" x1="40.5" x2="87.5" y1="53.5" y2="53.5" /><line fill="none" stroke="#000000" stroke-width="2" x1="64" x2="64" y1="53.5" y2="92" /><line fill="none" stroke="#000000" stroke-width="2" x1="41.5" x2="86.5" y1="70.5" y2="70.5" /><polyline fill="none" points="8,82 26.5,82 26.5,13 7,13 7,90" stroke="#000000" stroke-width="2" /><path d="M70.5,53.5 c2.967,-5.841 5.583,-12.76 7.5,-20" fill="none" stroke="#000000" stroke-width="2" /><path d="M57,53.5 c-2.096,-6.427 -4.709,-13.225 -7.5,-19.5" fill="none" stroke="#000000" stroke-width="2" /><path d="M75.1,90.5 c5.958,0.36 9.892,0.5 11.9,0.5 c5.471,0 6,-0.634 6,-8 v-55.0 h-58.0 v65.0" fill="none" stroke="#000000" stroke-width="2" /></svg>