<?xml version='1.0' encoding='utf-8'?>
<svg xmlns="http://www.w3.org/2000/svg" height="100px" version="1.0" viewBox="0 0 100 100" width="100px" x="0px" y="0px">
<line fill="none" stroke="#000000" stroke-width="2" x1="64.5" x2="64.5" y1="28" y2="6" /><line fill="none" stroke="#000000" stroke-width="2" x1="95" x2="34" y1="40" y2="40" /><line fill="none" stroke="#000000" stroke-width="2" x1="55" x2="55" y1="53.5" y2="89" /><line fill="none" stroke="#000000" stroke-width="2" x1="73.5" x2="73.5" y1="53.5" y2="89" /><polyline fill="none" points="9.5,82 28.5,82 28.5,13 8.5,13 8.5,90" stroke="#000000" stroke-width="2" /><polyline fill="none" points="90.5,9.5 90.5,28 38.5,28 38.5,9.5" stroke="#000000" stroke-width="2" /><path d="M80.5,90 c3.959,0.349 6.686,0.5 7.5,0.5 c3.62,0 4,-0.406 4,-4.5 v-32.5 h-55.0 v38.5" fill="none" stroke="#000000" stroke-width="2" /><path d="M64,40 c-0.9,5.008 -2.049,9.423 -3.5,13.5" fill="none" stroke="#000000" stroke-width="2" /></svg>