<?xml version='1.0' encoding='utf-8'?>
<svg xmlns="http://www.w3.org/2000/svg" height="100px" version="1.0" viewBox="0 0 100 100" width="100px" x="0px" y="0px">
<line fill="none" stroke="#000000" stroke-width="2" x1="30.5" x2="95" y1="62.5" y2="62.5" /><line fill="none" stroke="#000000" stroke-width="2" x1="62.5" x2="30.5" y1="16" y2="16" /><line fill="none" stroke="#000000" stroke-width="2" x1="61" x2="32.5" y1="31" y2="31" /><line fill="none" stroke="#000000" stroke-width="2" x1="46.5" x2="46.5" y1="48" y2="5.5" /><polyline fill="none" points="9,82 27,82 27,13 8,13 8,90" stroke="#000000" stroke-width="2" /><path d="M28.5,91 c20.37,-5.593 33.5,-19.382 33.5,-32 v-6.0" fill="none" stroke="#000000" stroke-width="2" /><path d="M95.5,91 c-20.371,-5.593 -33.5,-19.382 -33.5,-32" fill="none" stroke="#000000" stroke-width="2" /><path d="M60,50.5 c9.678,-5.522 16.5,-19.621 16.5,-39.5" fill="none" stroke="#000000" stroke-width="2" /><path d="M63.5,11 h30.0 c0,33.241 -2.416,38.5 -7.5,38.5 c-2.287,0 -7.806,-0.46 -11.5,-1" fill="none" stroke="#000000" stroke-width="2" /><path d="M31,51.5 c9.951,-1.958 20.506,-4.532 30.5,-7.5" fill="none" stroke="#000000" stroke-width="2" /></svg>