<?xml version='1.0' encoding='utf-8'?>
<svg xmlns="http://www.w3.org/2000/svg" height="100px" version="1.0" viewBox="0 0 100 100" width="100px" x="0px" y="0px">
<line fill="none" stroke="#000000" stroke-width="2" x1="66" x2="66" y1="3.5" y2="25.5" /><line fill="none" stroke="#000000" stroke-width="2" x1="31.5" x2="96.5" y1="25.5" y2="25.5" /><line fill="none" stroke="#000000" stroke-width="2" x1="92" x2="66" y1="13" y2="13" /><line fill="none" stroke="#000000" stroke-width="2" x1="48" x2="48" y1="25.5" y2="6.5" /><line fill="none" stroke="#000000" stroke-width="2" x1="64" x2="64" y1="85" y2="29" /><line fill="none" stroke="#000000" stroke-width="2" x1="87" x2="41" y1="53" y2="53" /><line fill="none" stroke="#000000" stroke-width="2" x1="36" x2="36" y1="30.5" y2="94.5" /><line fill="none" stroke="#000000" stroke-width="2" x1="92" x2="92" y1="30.5" y2="94.5" /><line fill="none" stroke="#000000" stroke-width="2" x1="36" x2="92" y1="88.5" y2="88.5" /><polyline fill="none" points="9,82 28,82 28,13 8,13 8,90" stroke="#000000" stroke-width="2" /><path d="M88.5,80.5 c-9.274,-12.121 -16.905,-20.819 -24,-27.5" fill="none" stroke="#000000" stroke-width="2" /><path d="M39.5,79.5 c10.725,-7.849 18.493,-16.717 23.5,-26.5" fill="none" stroke="#000000" stroke-width="2" /><path d="M54.5,49.5 c-3.195,-5.657 -6.674,-11.253 -10,-16" fill="none" stroke="#000000" stroke-width="2" /><path d="M73.5,49.5 c4.008,-5.089 7.622,-10.915 10,-16" fill="none" stroke="#000000" stroke-width="2" /></svg>