<?xml version='1.0' encoding='utf-8'?>
<svg xmlns="http://www.w3.org/2000/svg" height="100px" version="1.0" viewBox="0 0 100 100" width="100px" x="0px" y="0px">
<line fill="none" stroke="#000000" stroke-width="2" x1="7.5" x2="23.5" y1="82" y2="82" /><line fill="none" stroke="#000000" stroke-width="2" x1="27.5" x2="61" y1="35" y2="35" /><line fill="none" stroke="#000000" stroke-width="2" x1="60.5" x2="29" y1="16" y2="16" /><line fill="none" stroke="#000000" stroke-width="2" x1="45" x2="45" y1="35" y2="4" /><line fill="none" stroke="#000000" stroke-width="2" x1="63" x2="96.5" y1="35" y2="35" /><line fill="none" stroke="#000000" stroke-width="2" x1="95" x2="63.5" y1="16" y2="16" /><line fill="none" stroke="#000000" stroke-width="2" x1="79" x2="79" y1="35" y2="4" /><polyline fill="none" points="24.5,83 24.5,13 7.5,13 7.5,90" stroke="#000000" stroke-width="2" /><path d="M27,92.5 c9.695,-10.913 14,-23.706 14,-46.5 v-11.0" fill="none" stroke="#000000" stroke-width="2" /><path d="M27.5,75.5 c3.291,-7.877 6.016,-18.229 7.5,-29" fill="none" stroke="#000000" stroke-width="2" /><path d="M61,66 c-1.58,-6.651 -3.514,-13.497 -5.5,-19.5" fill="none" stroke="#000000" stroke-width="2" /><path d="M51.5,35 v48.0 c0,7.445 -0.484,8 -4,8 c-1.354,0 -4.159,-0.137 -8,-0.5" fill="none" stroke="#000000" stroke-width="2" /><path d="M60.5,92.5 c9.695,-10.913 14,-23.706 14,-46.5 v-11.0" fill="none" stroke="#000000" stroke-width="2" /><path d="M61,75.5 c3.291,-7.877 6.016,-18.229 7.5,-29" fill="none" stroke="#000000" stroke-width="2" /><path d="M85,35 v48.0 c0,7.445 -0.484,8 -4,8 c-1.354,0 -4.159,-0.137 -8,-0.5" fill="none" stroke="#000000" stroke-width="2" /><path d="M97,77 c-2.007,-9.925 -4.901,-21.06 -8,-30.5" fill="none" stroke="#000000" stroke-width="2" /></svg>