<?xml version='1.0' encoding='utf-8'?>
<svg xmlns="http://www.w3.org/2000/svg" height="100px" version="1.0" viewBox="0 0 100 100" width="100px" x="0px" y="0px">
<line fill="none" stroke="#000000" stroke-width="2" x1="11" x2="89" y1="88.5" y2="88.5" /><line fill="none" stroke="#000000" stroke-width="2" x1="11" x2="89" y1="88.5" y2="88.5" /><line fill="none" stroke="#000000" stroke-width="2" x1="23" x2="78" y1="63" y2="63" /><line fill="none" stroke="#000000" stroke-width="2" x1="23" x2="78" y1="47" y2="47" /><line fill="none" stroke="#000000" stroke-width="2" x1="50" x2="50" y1="12.5" y2="82" /><line fill="none" stroke="#000000" stroke-width="2" x1="17.5" x2="82.5" y1="20.5" y2="20.5" /><polyline fill="none" points="90,94.5 90,9.5 10,9.5 10,94.5" stroke="#000000" stroke-width="2" /><polyline fill="none" points="90,94.5 90,9.5 10,9.5 10,94.5" stroke="#000000" stroke-width="2" /><path d="M63.5,12.5 c3.922,2.361 8.326,5.31 12,8" fill="none" stroke="#000000" stroke-width="2" /><path d="M22,83 v-51.5 h56.0 v43.5 c0,5.777 -0.622,6.5 -5,6.5 c-1.717,0 -6.627,-0.169 -12,-0.5" fill="none" stroke="#000000" stroke-width="2" /></svg>