<?xml version='1.0' encoding='utf-8'?>
<svg xmlns="http://www.w3.org/2000/svg" height="100px" version="1.0" viewBox="0 0 100 100" width="100px" x="0px" y="0px">
<line fill="none" stroke="#000000" stroke-width="2" x1="3" x2="31" y1="33.5" y2="33.5" /><line fill="none" stroke="#000000" stroke-width="2" x1="17" x2="17" y1="78.5" y2="8" /><line fill="none" stroke="#000000" stroke-width="2" x1="92" x2="41.5" y1="40" y2="40" /><line fill="none" stroke="#000000" stroke-width="2" x1="96.5" x2="27" y1="61" y2="61" /><path d="M3,84 c10.252,-3.637 19.039,-7.762 30,-14" fill="none" stroke="#000000" stroke-width="2" /><path d="M96,33 c-5.475,-6.85 -13.381,-15.407 -20.5,-22" fill="none" stroke="#000000" stroke-width="2" /><path d="M29.5,27.5 c17.837,-0.394 38.643,-1.641 59,-3.5" fill="none" stroke="#000000" stroke-width="2" /><path d="M39,27.5 c5.483,-6.608 11.303,-15.188 16,-23.5" fill="none" stroke="#000000" stroke-width="2" /><path d="M29.5,55 c7.295,-6.804 13.232,-15.396 17,-24.5" fill="none" stroke="#000000" stroke-width="2" /><path d="M27.5,91 c22.038,-7.106 35,-20.845 35,-33.5 V40.0" fill="none" stroke="#000000" stroke-width="2" /><path d="M95.5,91 c-20.874,-6.816 -33,-20.753 -33,-33.5" fill="none" stroke="#000000" stroke-width="2" /></svg>