<?xml version='1.0' encoding='utf-8'?>
<svg xmlns="http://www.w3.org/2000/svg" height="100px" version="1.0" viewBox="0 0 100 100" width="100px" x="0px" y="0px">
<line fill="none" stroke="#000000" stroke-width="2" x1="4" x2="32" y1="31.5" y2="31.5" /><line fill="none" stroke="#000000" stroke-width="2" x1="18" x2="18" y1="79.5" y2="8" /><line fill="none" stroke="#000000" stroke-width="2" x1="39" x2="87" y1="87" y2="87" /><line fill="none" stroke="#000000" stroke-width="2" x1="30" x2="96" y1="41.5" y2="41.5" /><line fill="none" stroke="#000000" stroke-width="2" x1="31" x2="95" y1="15.5" y2="15.5" /><line fill="none" stroke="#000000" stroke-width="2" x1="63" x2="63" y1="15" y2="3.5" /><polyline fill="none" points="88,93 88,55.5 38,55.5 38,93" stroke="#000000" stroke-width="2" /><path d="M4,85 c10.238,-3.671 19.039,-7.762 30,-14" fill="none" stroke="#000000" stroke-width="2" /><path d="M75,41.5 c3.418,-7.409 6.219,-16.329 8,-26" fill="none" stroke="#000000" stroke-width="2" /><path d="M50,41.5 c-2.117,-8.986 -4.596,-17.603 -7.5,-26" fill="none" stroke="#000000" stroke-width="2" /></svg>