<?xml version='1.0' encoding='utf-8'?>
<svg xmlns="http://www.w3.org/2000/svg" height="100px" version="1.0" viewBox="0 0 100 100" width="100px" x="0px" y="0px">
<line fill="none" stroke="#000000" stroke-width="2" x1="4" x2="30" y1="32.5" y2="32.5" /><line fill="none" stroke="#000000" stroke-width="2" x1="16" x2="16" y1="77.5" y2="8" /><line fill="none" stroke="#000000" stroke-width="2" x1="67" x2="90.5" y1="59" y2="59" /><line fill="none" stroke="#000000" stroke-width="2" x1="68" x2="90.5" y1="33.5" y2="33.5" /><line fill="none" stroke="#000000" stroke-width="2" x1="34" x2="56" y1="59" y2="59" /><line fill="none" stroke="#000000" stroke-width="2" x1="35" x2="56" y1="33.5" y2="33.5" /><path d="M4,83 c8.885,-3.637 16.5,-7.762 26,-14" fill="none" stroke="#000000" stroke-width="2" /><path d="M60.5,92.5 c4.441,-10.866 6.5,-23.313 6.5,-46.5 v-36.0 h24.5 v73.0 c0,7.674 -0.391,8 -5,8 c-1.71,0 -4.929,-0.155 -10,-0.5" fill="none" stroke="#000000" stroke-width="2" /><path d="M27.5,92.5 c4.441,-10.866 6.5,-23.313 6.5,-46.5 v-36.0 h23.0 v73.0 c0,7.674 -0.391,8 -5,8 c-1.71,0 -4.929,-0.155 -10,-0.5" fill="none" stroke="#000000" stroke-width="2" /></svg>