<?xml version='1.0' encoding='utf-8'?>
<svg xmlns="http://www.w3.org/2000/svg" height="100px" version="1.0" viewBox="0 0 100 100" width="100px" x="0px" y="0px">
<line fill="none" stroke="#000000" stroke-width="2" x1="3.5" x2="27.5" y1="32.5" y2="32.5" /><line fill="none" stroke="#000000" stroke-width="2" x1="15.5" x2="15.5" y1="77" y2="8" /><line fill="none" stroke="#000000" stroke-width="2" x1="31" x2="97" y1="88.5" y2="88.5" /><line fill="none" stroke="#000000" stroke-width="2" x1="95" x2="37" y1="53" y2="53" /><line fill="none" stroke="#000000" stroke-width="2" x1="88.5" x2="44.5" y1="30.5" y2="30.5" /><polyline fill="none" points="96.5,10.5 31,10.5 31,95" stroke="#000000" stroke-width="2" /><polyline fill="none" points="43.5,44.5 43.5,18 88.5,18 88.5,43.5 44.5,43.5" stroke="#000000" stroke-width="2" /><path d="M3.5,83 c8.201,-3.637 15.242,-7.747 24,-14" fill="none" stroke="#000000" stroke-width="2" /><path d="M35.5,83.5 c22.993,-3.466 41.939,-15.896 49,-30.5" fill="none" stroke="#000000" stroke-width="2" /><path d="M61.5,43.5 c-5.074,9.53 -11.545,18.196 -20,26.5" fill="none" stroke="#000000" stroke-width="2" /><path d="M45.5,66 c15.578,3.313 29.976,8.725 48,18.5" fill="none" stroke="#000000" stroke-width="2" /></svg>