<?xml version='1.0' encoding='utf-8'?>
<svg xmlns="http://www.w3.org/2000/svg" height="100px" version="1.0" viewBox="0 0 100 100" width="100px" x="0px" y="0px">
<line fill="none" stroke="#000000" stroke-width="2" x1="50" x2="50" y1="38.5" y2="10.5" /><line fill="none" stroke="#000000" stroke-width="2" x1="16.5" x2="83.5" y1="24.5" y2="24.5" /><line fill="none" stroke="#000000" stroke-width="2" x1="7" x2="93" y1="90" y2="90" /><line fill="none" stroke="#000000" stroke-width="2" x1="86" x2="14" y1="72" y2="72" /><line fill="none" stroke="#000000" stroke-width="2" x1="50" x2="50" y1="90" y2="59.5" /><polyline fill="none" points="16.5,39.5 84.5,39.5 84.5,9.5 15.5,9.5 15.5,40.5" stroke="#000000" stroke-width="2" /><path d="M7.5,67.5 c14.514,-3.267 29.167,-8.592 37,-13" fill="none" stroke="#000000" stroke-width="2" /><path d="M92.5,67.5 c-9.59,-4.428 -22.6,-9.069 -37,-13" fill="none" stroke="#000000" stroke-width="2" /><path d="M40,51 c-9.104,-3.153 -19.844,-6.204 -30,-8.5" fill="none" stroke="#000000" stroke-width="2" /><path d="M60,51 c11.911,-2.585 23.013,-5.791 30,-8.5" fill="none" stroke="#000000" stroke-width="2" /></svg>