<?xml version='1.0' encoding='utf-8'?>
<svg xmlns="http://www.w3.org/2000/svg" height="100px" version="1.0" viewBox="0 0 100 100" width="100px" x="0px" y="0px">
<line fill="none" stroke="#000000" stroke-width="2" x1="7" x2="93" y1="90.5" y2="90.5" /><line fill="none" stroke="#000000" stroke-width="2" x1="86" x2="14" y1="72.5" y2="72.5" /><line fill="none" stroke="#000000" stroke-width="2" x1="50" x2="50" y1="90.5" y2="63.5" /><line fill="none" stroke="#000000" stroke-width="2" x1="29" x2="29" y1="12" y2="4" /><line fill="none" stroke="#000000" stroke-width="2" x1="6" x2="52" y1="12" y2="12" /><line fill="none" stroke="#000000" stroke-width="2" x1="49" x2="8.5" y1="38" y2="38" /><polyline fill="none" points="12.5,31.5 46.5,31.5 46.5,18.5 11.5,18.5 11.5,32.5" stroke="#000000" stroke-width="2" /><path d="M5,51.5 c20.907,-0.801 37.951,-1.914 48,-3" fill="none" stroke="#000000" stroke-width="2" /><path d="M30,45 v13.5 c0,4.946 -0.535,5.5 -5.5,5.5 c-3.023,0 -6.747,-0.158 -11,-0.5" fill="none" stroke="#000000" stroke-width="2" /><path d="M48.508,38.125 c-6.055,3.434 -10.952,5.527 -18.508,7.875" fill="none" stroke="#000000" stroke-width="2" /><path d="M55.5,28.5 c7.859,5.607 15.1,12.874 24.5,25" fill="none" stroke="#000000" stroke-width="2" /><path d="M44,62 c16.525,-9.202 24,-21.808 24,-41.5 V4.0" fill="none" stroke="#000000" stroke-width="2" /><path d="M52.5,15.5 h33.5 c0,37.597 3.125,48 6.5,48 c2.076,0 4.268,-5.003 4.5,-18" fill="none" stroke="#000000" stroke-width="2" /></svg>