<?xml version='1.0' encoding='utf-8'?>
<svg xmlns="http://www.w3.org/2000/svg" height="100px" version="1.0" viewBox="0 0 100 100" width="100px" x="0px" y="0px">
<line fill="none" stroke="#000000" stroke-width="2" x1="50" x2="50" y1="65.5" y2="90" /><line fill="none" stroke="#000000" stroke-width="2" x1="7" x2="93" y1="90" y2="90" /><line fill="none" stroke="#000000" stroke-width="2" x1="85.5" x2="14.5" y1="77" y2="77" /><line fill="none" stroke="#000000" stroke-width="2" x1="17.5" x2="83.5" y1="22" y2="22" /><line fill="none" stroke="#000000" stroke-width="2" x1="12" x2="88" y1="45" y2="45" /><line fill="none" stroke="#000000" stroke-width="2" x1="7" x2="93" y1="55.5" y2="55.5" /><line fill="none" stroke="#000000" stroke-width="2" x1="50" x2="50" y1="55.5" y2="9" /><polyline fill="none" points="17.5,35 83.5,35 83.5,9 16.5,9 16.5,36" stroke="#000000" stroke-width="2" /><path d="M92.5,73 c-4.201,-4.449 -9.068,-9.012 -15,-14" fill="none" stroke="#000000" stroke-width="2" /><path d="M66,73 c-2.518,-4.311 -5.578,-8.781 -9.5,-13.75" fill="none" stroke="#000000" stroke-width="2" /><path d="M39.5,73 c-0.834,-4.173 -2.088,-8.55 -4,-13.5" fill="none" stroke="#000000" stroke-width="2" /><path d="M7.5,73 c5.269,-3.956 10.214,-8.529 15,-14" fill="none" stroke="#000000" stroke-width="2" /></svg>