<?xml version='1.0' encoding='utf-8'?>
<svg xmlns="http://www.w3.org/2000/svg" height="100px" version="1.0" viewBox="0 0 100 100" width="100px" x="0px" y="0px">
<line fill="none" stroke="#000000" stroke-width="2" x1="7" x2="93" y1="14" y2="14" /><line fill="none" stroke="#000000" stroke-width="2" x1="51" x2="51" y1="61.5" y2="31" /><line fill="none" stroke="#000000" stroke-width="2" x1="81" x2="27" y1="31" y2="31" /><line fill="none" stroke="#000000" stroke-width="2" x1="19" x2="81" y1="41.5" y2="41.5" /><line fill="none" stroke="#000000" stroke-width="2" x1="19" x2="81" y1="52" y2="52" /><line fill="none" stroke="#000000" stroke-width="2" x1="93" x2="7" y1="72.5" y2="72.5" /><polyline fill="none" points="19,38.5 19,62.5 84,62.5" stroke="#000000" stroke-width="2" /><path d="M50,3 c-8.054,12.027 -23.936,23.007 -45,29.5" fill="none" stroke="#000000" stroke-width="2" /><path d="M7.5,46 c10.744,-5.924 19.351,-13.599 28,-25" fill="none" stroke="#000000" stroke-width="2" /><path d="M57,21 c-1.955,3.804 -3.582,6.534 -6,10" fill="none" stroke="#000000" stroke-width="2" /><path d="M57,14 c9.457,8.448 22.354,15.591 38,20.5" fill="none" stroke="#000000" stroke-width="2" /><path d="M44,90 c-5.223,-4.229 -12.498,-9.015 -20,-13" fill="none" stroke="#000000" stroke-width="2" /><path d="M76,63.5 v21.5 c0,6.414 -0.593,7 -8,7 c-2.503,0 -9.157,-0.18 -17,-0.5" fill="none" stroke="#000000" stroke-width="2" /></svg>