<?xml version='1.0' encoding='utf-8'?>
<svg xmlns="http://www.w3.org/2000/svg" height="100px" version="1.0" viewBox="0 0 100 100" width="100px" x="0px" y="0px">
<path d="M72.5,62.5 c-4.463,-8.851 -10.309,-18.39 -16,-26" fill="none" stroke="#000000" stroke-width="2" /><path d="M41,42.5 c7.047,-9.956 13.091,-24.128 16,-38" fill="none" stroke="#000000" stroke-width="2" /><path d="M82.5,90 c-4.824,0 -12.727,-0.34 -21,-1" fill="none" stroke="#000000" stroke-width="2" /><path d="M53.5,18 h38.5 c-1.842,65.929 -4.283,72 -9.5,72" fill="none" stroke="#000000" stroke-width="2" /><path d="M4.5,94 c20.398,-13.474 35,-40.808 35,-70 h-35.0" fill="none" stroke="#000000" stroke-width="2" /><path d="M11.5,55 c12.039,7.175 21.31,15.091 32.5,28" fill="none" stroke="#000000" stroke-width="2" /><path d="M22.5,5 c-2.859,22.511 -7.689,41.909 -14,57.5" fill="none" stroke="#000000" stroke-width="2" /></svg>