<?xml version='1.0' encoding='utf-8'?>
<svg xmlns="http://www.w3.org/2000/svg" height="100px" version="1.0" viewBox="0 0 100 100" width="100px" x="0px" y="0px">
<line fill="none" stroke="#000000" stroke-width="2" x1="41.5" x2="63.5" y1="39" y2="39" /><line fill="none" stroke="#000000" stroke-width="2" x1="41.5" x2="41.5" y1="87.5" y2="6.5" /><path d="M4.5,94 c16.564,-13.677 28,-40.016 28,-70 h-28.0" fill="none" stroke="#000000" stroke-width="2" /><path d="M20.5,5 c-2.479,22.511 -6.868,41.968 -12.5,57.5" fill="none" stroke="#000000" stroke-width="2" /><path d="M10.5,55 c8.402,6.791 14.943,14.458 23.5,28" fill="none" stroke="#000000" stroke-width="2" /><path d="M69,45 c8.938,-5.924 16.824,-13.675 26,-26" fill="none" stroke="#000000" stroke-width="2" /><path d="M28.5,91.5 c12.262,-3.248 23.281,-7.521 36,-14" fill="none" stroke="#000000" stroke-width="2" /><path d="M69,6.5 v79.0 c0,4.583 0.578,5 12.5,5 c12.73,0 12.94,-0.206 14,-29" fill="none" stroke="#000000" stroke-width="2" /></svg>