<?xml version='1.0' encoding='utf-8'?>
<svg xmlns="http://www.w3.org/2000/svg" height="100px" version="1.0" viewBox="0 0 100 100" width="100px" x="0px" y="0px">
<line fill="none" stroke="#000000" stroke-width="2" x1="32.5" x2="97.5" y1="45.5" y2="45.5" /><line fill="none" stroke="#000000" stroke-width="2" x1="35" x2="95.5" y1="79.5" y2="79.5" /><path d="M3.5,94 c16.564,-13.677 28,-40.016 28,-70 h-28.0" fill="none" stroke="#000000" stroke-width="2" /><path d="M19.5,5 c-2.479,22.511 -6.868,41.968 -12.5,57.5" fill="none" stroke="#000000" stroke-width="2" /><path d="M9.5,55 c8.402,6.791 14.943,14.458 23.5,28" fill="none" stroke="#000000" stroke-width="2" /><path d="M73.5,37.5 c-4.896,-5.954 -11.087,-12.22 -18,-18" fill="none" stroke="#000000" stroke-width="2" /><path d="M71.5,71.5 c-5.152,-6.306 -11.704,-12.898 -19,-19" fill="none" stroke="#000000" stroke-width="2" /><path d="M33.5,88.5 c4.105,-23.515 7.804,-52.817 9.5,-77 h48.5 c-1.664,23.957 -4.42,51.859 -7,73 c-0.841,6.888 -2.075,8 -8,8 c-3.202,0 -7.021,-0.151 -11.5,-0.5" fill="none" stroke="#000000" stroke-width="2" /></svg>