<?xml version='1.0' encoding='utf-8'?>
<svg xmlns="http://www.w3.org/2000/svg" height="100px" version="1.0" viewBox="0 0 100 100" width="100px" x="0px" y="0px">
<line fill="none" stroke="#000000" stroke-width="2" x1="50" x2="50" y1="12.5" y2="2" /><line fill="none" stroke="#000000" stroke-width="2" x1="48.5" x2="87.5" y1="28.5" y2="28.5" /><line fill="none" stroke="#000000" stroke-width="2" x1="24.5" x2="24.5" y1="18.5" y2="51" /><line fill="none" stroke="#000000" stroke-width="2" x1="3.5" x2="51.5" y1="51" y2="51" /><line fill="none" stroke="#000000" stroke-width="2" x1="24.5" x2="46.5" y1="32.5" y2="32.5" /><polyline fill="none" points="91,32.5 91,13.5 9,13.5 9,33.5" stroke="#000000" stroke-width="2" /><path d="M41.5,92 c22.339,-9.873 39.666,-32.036 45.016,-62.672" fill="none" stroke="#000000" stroke-width="2" /><path d="M96.5,92 c-23.11,-10.776 -38.696,-31.155 -43,-59.5" fill="none" stroke="#000000" stroke-width="2" /><path d="M4.5,85 c5.139,-7 9.982,-17.063 13,-27.5" fill="none" stroke="#000000" stroke-width="2" /><path d="M50,79 c-3,-7.727 -6.66,-15.248 -10.5,-21.5" fill="none" stroke="#000000" stroke-width="2" /><path d="M28.5,51 v35.5 c0,4.521 -0.5,5 -5,5 c-2.001,0 -5.57,-0.146 -10,-0.5" fill="none" stroke="#000000" stroke-width="2" /></svg>