<?xml version='1.0' encoding='utf-8'?>
<svg xmlns="http://www.w3.org/2000/svg" height="100px" version="1.0" viewBox="0 0 100 100" width="100px" x="0px" y="0px">
<line fill="none" stroke="#000000" stroke-width="2" x1="50" x2="50" y1="12" y2="2.5" /><line fill="none" stroke="#000000" stroke-width="2" x1="14.5" x2="85.5" y1="22" y2="22" /><line fill="none" stroke="#000000" stroke-width="2" x1="73.5" x2="26.5" y1="41" y2="41" /><line fill="none" stroke="#000000" stroke-width="2" x1="27.5" x2="73.5" y1="55" y2="55" /><polyline fill="none" points="90.5,27 90.5,12 9.5,12 9.5,27" stroke="#000000" stroke-width="2" /><polyline fill="none" points="26.5,41 26.5,69.5 73.5,69.5 73.5,41" stroke="#000000" stroke-width="2" /><path d="M4,54.5 c20.859,-8.659 40.261,-27.439 45.5,-42.5" fill="none" stroke="#000000" stroke-width="2" /><path d="M85.5,28.5 c-3.418,4.429 -7.814,9.042 -12,12.5" fill="none" stroke="#000000" stroke-width="2" /><path d="M26.5,41 c-3.737,-4.354 -7.805,-8.64 -12,-12.5" fill="none" stroke="#000000" stroke-width="2" /><path d="M7.5,89.5 c9.65,-3.871 18.412,-9.637 24,-15.5" fill="none" stroke="#000000" stroke-width="2" /><path d="M92.5,90 c-6.893,-5.747 -15.238,-11.343 -24,-16" fill="none" stroke="#000000" stroke-width="2" /><path d="M52.5,69.5 v16.5 c0,4.974 -0.571,5.5 -7.5,5.5 c-3.073,0 -8.113,-0.174 -14.5,-0.5" fill="none" stroke="#000000" stroke-width="2" /><path d="M96,54.5 c-15.896,-6.599 -31.95,-19.69 -40.5,-32.5" fill="none" stroke="#000000" stroke-width="2" /></svg>