<?xml version='1.0' encoding='utf-8'?>
<svg xmlns="http://www.w3.org/2000/svg" height="100px" version="1.0" viewBox="0 0 100 100" width="100px" x="0px" y="0px">
<line fill="none" stroke="#000000" stroke-width="2" x1="52" x2="4.5" y1="16" y2="16" /><line fill="none" stroke="#000000" stroke-width="2" x1="4" x2="53" y1="58" y2="58" /><line fill="none" stroke="#000000" stroke-width="2" x1="14.5" x2="42" y1="44" y2="44" /><line fill="none" stroke="#000000" stroke-width="2" x1="14.5" x2="42" y1="30" y2="30" /><line fill="none" stroke="#000000" stroke-width="2" x1="13.5" x2="13.5" y1="57" y2="5.5" /><line fill="none" stroke="#000000" stroke-width="2" x1="43" x2="43" y1="57" y2="5.5" /><line fill="none" stroke="#000000" stroke-width="2" x1="10" x2="50" y1="87.5" y2="87.5" /><line fill="none" stroke="#000000" stroke-width="2" x1="10" x2="10" y1="59" y2="94.5" /><path d="M97,51 c-3.089,-11.877 -7.013,-24.079 -11.5,-35.5" fill="none" stroke="#000000" stroke-width="2" /><path d="M73.5,6 v46.0 c0,7.429 -0.5,8 -5,8 c-1.335,0 -4.22,-0.14 -9,-0.5" fill="none" stroke="#000000" stroke-width="2" /><path d="M49,53.5 c4.502,-10.377 8.308,-23.916 10.5,-38" fill="none" stroke="#000000" stroke-width="2" /><path d="M91,47.5 c-5.699,23.378 -21.896,40.059 -43,45" fill="none" stroke="#000000" stroke-width="2" /><path d="M25.5,58 c0,13.104 -2.93,18.009 -12.5,23" fill="none" stroke="#000000" stroke-width="2" /><path d="M35,58 v14.5 c0,4.023 0.52,4.5 8,4.5 c7.461,0 7.686,-0.242 8,-12.5" fill="none" stroke="#000000" stroke-width="2" /></svg>