<?xml version='1.0' encoding='utf-8'?>
<svg xmlns="http://www.w3.org/2000/svg" height="100px" version="1.0" viewBox="0 0 100 100" width="100px" x="0px" y="0px">
<line fill="none" stroke="#000000" stroke-width="2" x1="8.5" x2="8.5" y1="20" y2="92" /><line fill="none" stroke="#000000" stroke-width="2" x1="21" x2="21" y1="84" y2="6.5" /><line fill="none" stroke="#000000" stroke-width="2" x1="37.5" x2="95.5" y1="76.5" y2="76.5" /><line fill="none" stroke="#000000" stroke-width="2" x1="93" x2="40" y1="48.5" y2="48.5" /><line fill="none" stroke="#000000" stroke-width="2" x1="91" x2="42" y1="62.5" y2="62.5" /><line fill="none" stroke="#000000" stroke-width="2" x1="67.5" x2="67.5" y1="94" y2="37" /><line fill="none" stroke="#000000" stroke-width="2" x1="54" x2="90.5" y1="12.5" y2="12.5" /><polyline fill="none" points="9.5,84 33.5,84 33.5,20" stroke="#000000" stroke-width="2" /><path d="M37,27.5 c9.662,-6.806 17.082,-14.327 22.5,-22.5" fill="none" stroke="#000000" stroke-width="2" /><path d="M89.689,12.913 c-9.525,13.157 -26.239,23.577 -53.189,30.587" fill="none" stroke="#000000" stroke-width="2" /><path d="M50,16.5 c11.473,11.095 26.433,20.001 46,27" fill="none" stroke="#000000" stroke-width="2" /></svg>