<?xml version='1.0' encoding='utf-8'?>
<svg xmlns="http://www.w3.org/2000/svg" height="100px" version="1.0" viewBox="0 0 100 100" width="100px" x="0px" y="0px">
<line fill="none" stroke="#000000" stroke-width="2" x1="50" x2="50" y1="22" y2="5" /><line fill="none" stroke="#000000" stroke-width="2" x1="93" x2="7" y1="62.5" y2="62.5" /><line fill="none" stroke="#000000" stroke-width="2" x1="78" x2="22" y1="48.5" y2="48.5" /><line fill="none" stroke="#000000" stroke-width="2" x1="50" x2="50" y1="35.5" y2="25.5" /><polyline fill="none" points="13.5,8.5 13.5,22 86.5,22 86.5,8.5" stroke="#000000" stroke-width="2" /><polyline fill="none" points="89,51 89,35.5 11,35.5 11,51" stroke="#000000" stroke-width="2" /><path d="M51,62.5 v25.0 c0,3.546 -0.674,4 -7,4 c-2.85,0 -7.088,-0.153 -13,-0.5" fill="none" stroke="#000000" stroke-width="2" /><path d="M9,89 c9.055,-5.501 16.503,-12.792 21,-20" fill="none" stroke="#000000" stroke-width="2" /><path d="M91,89.5 c-6.143,-6.633 -14.238,-13.928 -23,-20.5" fill="none" stroke="#000000" stroke-width="2" /></svg>