<?xml version='1.0' encoding='utf-8'?>
<svg xmlns="http://www.w3.org/2000/svg" height="100px" version="1.0" viewBox="0 0 100 100" width="100px" x="0px" y="0px">
<line fill="none" stroke="#000000" stroke-width="2" x1="7" x2="93" y1="31.5" y2="31.5" /><line fill="none" stroke="#000000" stroke-width="2" x1="50" x2="50" y1="31.5" y2="24" /><line fill="none" stroke="#000000" stroke-width="2" x1="50" x2="50" y1="20.5" y2="4.5" /><polyline fill="none" points="29,89 29,68.5 71,68.5 71,83 30,83" stroke="#000000" stroke-width="2" /><polyline fill="none" points="23,53.5 23,39.5 77,39.5 77,52.5 24,52.5" stroke="#000000" stroke-width="2" /><polyline fill="none" points="13.5,7.5 13.5,20.5 86.5,20.5 86.5,7.5" stroke="#000000" stroke-width="2" /><path d="M69,90.5 c7.004,0.363 11.129,0.5 13,0.5 c6.354,0 7,-0.636 7,-6.5 v-24.0 h-78.0 v32.0" fill="none" stroke="#000000" stroke-width="2" /></svg>