<?xml version='1.0' encoding='utf-8'?>
<svg xmlns="http://www.w3.org/2000/svg" height="100px" version="1.0" viewBox="0 0 100 100" width="100px" x="0px" y="0px">
<line fill="none" stroke="#000000" stroke-width="2" x1="52" x2="52" y1="13" y2="3" /><line fill="none" stroke="#000000" stroke-width="2" x1="13.5" x2="92" y1="34" y2="34" /><polyline fill="none" points="35.5,18 35.5,60 72.5,60 72.5,18" stroke="#000000" stroke-width="2" /><path d="M92,92 c-3.893,-6.97 -8.463,-14.214 -14,-22" fill="none" stroke="#000000" stroke-width="2" /><path d="M68.25,92.5 c-2.348,-6.864 -5.275,-14.101 -9,-22" fill="none" stroke="#000000" stroke-width="2" /><path d="M44.5,93 c-0.803,-6.759 -2.088,-13.988 -4,-22" fill="none" stroke="#000000" stroke-width="2" /><path d="M13,92.5 c4.892,-6.205 9.533,-13.462 14,-22" fill="none" stroke="#000000" stroke-width="2" /><path d="M4.5,91.5 c6.048,-14.052 9,-29.832 9,-51 V14.0 H92.0" fill="none" stroke="#000000" stroke-width="2" /></svg>