<?xml version='1.0' encoding='utf-8'?>
<svg xmlns="http://www.w3.org/2000/svg" height="100px" version="1.0" viewBox="0 0 100 100" width="100px" x="0px" y="0px">
<line fill="none" stroke="#000000" stroke-width="2" x1="25" x2="25" y1="93" y2="34" /><line fill="none" stroke="#000000" stroke-width="2" x1="42" x2="5.5" y1="49" y2="49" /><line fill="none" stroke="#000000" stroke-width="2" x1="41.5" x2="95.5" y1="21.5" y2="21.5" /><line fill="none" stroke="#000000" stroke-width="2" x1="57" x2="57" y1="39.5" y2="81.5" /><line fill="none" stroke="#000000" stroke-width="2" x1="73.5" x2="42.5" y1="39.5" y2="39.5" /><path d="M4.5,82 c9.415,-10.554 16.018,-21.674 20,-33.5" fill="none" stroke="#000000" stroke-width="2" /><path d="M43,74 c-4.532,-7.195 -10.861,-15.835 -18,-24.5" fill="none" stroke="#000000" stroke-width="2" /><path d="M5,38.5 c15.684,-7.987 28.461,-19.697 35.5,-31.5" fill="none" stroke="#000000" stroke-width="2" /><path d="M9,11 c10.565,6.06 19.795,12.801 32,23.5" fill="none" stroke="#000000" stroke-width="2" /><path d="M76.5,4.5 c0,59.849 9.5,86.5 14,86.5 c1.693,0 3.953,-2.614 5.5,-23" fill="none" stroke="#000000" stroke-width="2" /><path d="M81,6.5 c4.604,3.041 9.17,6.589 13,10" fill="none" stroke="#000000" stroke-width="2" /><path d="M41.5,85.5 c15.205,-3.287 28.305,-7.847 36,-12" fill="none" stroke="#000000" stroke-width="2" /></svg>