<?xml version='1.0' encoding='utf-8'?>
<svg xmlns="http://www.w3.org/2000/svg" height="100px" version="1.0" viewBox="0 0 100 100" width="100px" x="0px" y="0px">
<line fill="none" stroke="#000000" stroke-width="2" x1="68.5" x2="90.5" y1="59" y2="59" /><line fill="none" stroke="#000000" stroke-width="2" x1="69.5" x2="90.5" y1="33.5" y2="33.5" /><line fill="none" stroke="#000000" stroke-width="2" x1="36.5" x2="58" y1="59" y2="59" /><line fill="none" stroke="#000000" stroke-width="2" x1="37.5" x2="58" y1="33.5" y2="33.5" /><path d="M62,92.5 c4.441,-10.866 6.5,-23.313 6.5,-46.5 v-36.0 h23.0 v73.0 c0,7.674 -0.391,8 -5,8 c-1.71,0 -4.929,-0.155 -10,-0.5" fill="none" stroke="#000000" stroke-width="2" /><path d="M30,92.5 c4.441,-10.866 6.5,-23.313 6.5,-46.5 v-36.0 H59.0 v73.0 c0,7.674 -0.391,8 -5,8 c-1.71,0 -4.929,-0.155 -10,-0.5" fill="none" stroke="#000000" stroke-width="2" /><path d="M6.5,11 H28.0 v23.0 h-19.0 c-0.563,11.548 -1.41,22.351 -2.5,32" fill="none" stroke="#000000" stroke-width="2" /><path d="M7.5,56.5 H28.0 c-1.902,33.056 -2.595,34 -6.5,34 c-2.278,0 -9.547,-0.507 -14,-1" fill="none" stroke="#000000" stroke-width="2" /></svg>