<?xml version='1.0' encoding='utf-8'?>
<svg xmlns="http://www.w3.org/2000/svg" height="100px" version="1.0" viewBox="0 0 100 100" width="100px" x="0px" y="0px">
<line fill="none" stroke="#000000" stroke-width="2" x1="29" x2="95" y1="90" y2="90" /><line fill="none" stroke="#000000" stroke-width="2" x1="30" x2="94" y1="49" y2="49" /><line fill="none" stroke="#000000" stroke-width="2" x1="31" x2="93" y1="10" y2="10" /><line fill="none" stroke="#000000" stroke-width="2" x1="62" x2="62" y1="81" y2="58" /><line fill="none" stroke="#000000" stroke-width="2" x1="37" x2="88" y1="69.5" y2="69.5" /><line fill="none" stroke="#000000" stroke-width="2" x1="62" x2="62" y1="40" y2="19" /><line fill="none" stroke="#000000" stroke-width="2" x1="38" x2="87" y1="29.5" y2="29.5" /><polyline fill="none" points="37,82 88,82 88,57 36,57 36,83" stroke="#000000" stroke-width="2" /><polyline fill="none" points="38,41 87,41 87,18 37,18 37,42" stroke="#000000" stroke-width="2" /><path d="M6.5,11 h21.5 v23.0 h-19.0 c-0.563,11.548 -1.41,22.351 -2.5,32" fill="none" stroke="#000000" stroke-width="2" /><path d="M7.5,56.5 h20.5 c-1.902,33.056 -2.595,34 -6.5,34 c-2.278,0 -9.547,-0.507 -14,-1" fill="none" stroke="#000000" stroke-width="2" /></svg>