<?xml version='1.0' encoding='utf-8'?>
<svg xmlns="http://www.w3.org/2000/svg" height="100px" version="1.0" viewBox="0 0 100 100" width="100px" x="0px" y="0px">
<line fill="none" stroke="#000000" stroke-width="2" x1="17.5" x2="17.5" y1="94" y2="41.5" /><line fill="none" stroke="#000000" stroke-width="2" x1="93.5" x2="32.5" y1="50" y2="50" /><line fill="none" stroke="#000000" stroke-width="2" x1="83" x2="41" y1="30" y2="30" /><path d="M27,27.5 c-5.266,10.459 -12.938,19.355 -23.5,27" fill="none" stroke="#000000" stroke-width="2" /><path d="M28,5 c-5.256,8.887 -13.006,16.485 -23.5,23" fill="none" stroke="#000000" stroke-width="2" /><path d="M95,34 c-12.975,-8.265 -22.937,-16.751 -33,-27.8 c-10.063,11.049 -20.025,19.535 -33,27.8" fill="none" stroke="#000000" stroke-width="2" /><path d="M63,30 v53.0 c0,7.555 -0.402,8 -6,8 c-1.542,0 -5.671,-0.143 -12,-0.5" fill="none" stroke="#000000" stroke-width="2" /><path d="M28.5,87 c7.938,-7.657 14.509,-17.639 18.5,-28" fill="none" stroke="#000000" stroke-width="2" /><path d="M95,88 c-4.98,-9.644 -11.357,-19.687 -18.5,-29" fill="none" stroke="#000000" stroke-width="2" /></svg>