<?xml version='1.0' encoding='utf-8'?>
<svg xmlns="http://www.w3.org/2000/svg" height="100px" version="1.0" viewBox="0 0 100 100" width="100px" x="0px" y="0px">
<line fill="none" stroke="#000000" stroke-width="2" x1="15.5" x2="15.5" y1="94" y2="6" /><line fill="none" stroke="#000000" stroke-width="2" x1="25" x2="95.5" y1="37" y2="37" /><line fill="none" stroke="#000000" stroke-width="2" x1="90" x2="30" y1="17" y2="17" /><line fill="none" stroke="#000000" stroke-width="2" x1="59.5" x2="59.5" y1="37" y2="4" /><line fill="none" stroke="#000000" stroke-width="2" x1="95.5" x2="25" y1="54" y2="54" /><path d="M3,58 c2.624,-10.247 4.357,-21.376 5,-32" fill="none" stroke="#000000" stroke-width="2" /><path d="M26,47.5 c-0.573,-6.952 -1.604,-14.611 -3,-22" fill="none" stroke="#000000" stroke-width="2" /><path d="M82,37 v45.5 c0,8.474 -0.459,9 -6,9 c-1.902,0 -7.039,-0.18 -13,-0.5" fill="none" stroke="#000000" stroke-width="2" /><path d="M57.5,80 c-4.961,-6.18 -11.874,-13.175 -19,-19" fill="none" stroke="#000000" stroke-width="2" /></svg>