<?xml version='1.0' encoding='utf-8'?>
<svg xmlns="http://www.w3.org/2000/svg" height="100px" version="1.0" viewBox="0 0 100 100" width="100px" x="0px" y="0px">
<line fill="none" stroke="#000000" stroke-width="2" x1="47" x2="91.5" y1="13" y2="13" /><line fill="none" stroke="#000000" stroke-width="2" x1="8" x2="32" y1="12.5" y2="12.5" /><path d="M27,55 c18.158,-4.072 32.5,-17.272 32.5,-28 v-9.0" fill="none" stroke="#000000" stroke-width="2" /><path d="M92,57 c-18.5,-4.399 -32.5,-18.883 -32.5,-30" fill="none" stroke="#000000" stroke-width="2" /><path d="M33,29 c8.178,-6.813 14.203,-15.024 18,-24.5" fill="none" stroke="#000000" stroke-width="2" /><path d="M75.5,30.5 c6.609,-4.867 11.577,-10.549 15.124,-16.98" fill="none" stroke="#000000" stroke-width="2" /><path d="M8,51 c9.883,-4.521 18.125,-9.749 24,-15" fill="none" stroke="#000000" stroke-width="2" /><path d="M32.5,62 v17.5 c0,10.571 0.292,10.911 7,11.5 c3.618,0.317 8.079,0.5 12.5,0.5 c4.34,0 8.638,-0.161 12.5,-0.5 c11.145,-0.978 11.313,-1.124 13,-18" fill="none" stroke="#000000" stroke-width="2" /><path d="M5.5,88 c6.062,-6.564 11.077,-15.068 14,-24" fill="none" stroke="#000000" stroke-width="2" /><path d="M94.5,88.5 c-4.006,-9.02 -9.154,-18.329 -15,-27" fill="none" stroke="#000000" stroke-width="2" /><path d="M62,78 c-4.591,-6.125 -9.922,-12.167 -16,-18" fill="none" stroke="#000000" stroke-width="2" /></svg>