<?xml version='1.0' encoding='utf-8'?>
<svg xmlns="http://www.w3.org/2000/svg" height="100px" version="1.0" viewBox="0 0 100 100" width="100px" x="0px" y="0px">
<line fill="none" stroke="#000000" stroke-width="2" x1="9.5" x2="9.5" y1="12" y2="77" /><line fill="none" stroke="#000000" stroke-width="2" x1="38" x2="3.5" y1="11" y2="11" /><line fill="none" stroke="#000000" stroke-width="2" x1="32" x2="32" y1="94.5" y2="12" /><line fill="none" stroke="#000000" stroke-width="2" x1="10.5" x2="31" y1="53.5" y2="53.5" /><line fill="none" stroke="#000000" stroke-width="2" x1="10.5" x2="31" y1="31.5" y2="31.5" /><path d="M37,79.5 c4.75,-12.721 8.307,-29.105 10,-46" fill="none" stroke="#000000" stroke-width="2" /><path d="M96,75.5 c-2.031,-14.806 -4.759,-29.974 -8,-44" fill="none" stroke="#000000" stroke-width="2" /><path d="M50.5,7.5 c12.279,3.007 21.561,6.503 32,12" fill="none" stroke="#000000" stroke-width="2" /><path d="M56.5,20.5 v62.5 c0,7.206 1.039,8 13,8 c16.287,0 16.552,-0.341 17.5,-28.5" fill="none" stroke="#000000" stroke-width="2" /><path d="M3,78.5 c9.009,-1.63 19.225,-4.106 29,-7" fill="none" stroke="#000000" stroke-width="2" /></svg>