<?xml version='1.0' encoding='utf-8'?>
<svg xmlns="http://www.w3.org/2000/svg" height="100px" version="1.0" viewBox="0 0 100 100" width="100px" x="0px" y="0px">
<line fill="none" stroke="#000000" stroke-width="2" x1="54.5" x2="95" y1="13" y2="13" /><line fill="none" stroke="#000000" stroke-width="2" x1="18" x2="18" y1="56.5" y2="22.5" /><line fill="none" stroke="#000000" stroke-width="2" x1="34" x2="34" y1="48.5" y2="11.5" /><path d="M32.5,61 v18.5 c0,10.571 0.292,10.911 7,11.5 c3.618,0.317 8.079,0.5 12.5,0.5 c4.34,0 8.638,-0.161 12.5,-0.5 c11.145,-0.978 11.313,-1.124 13,-18" fill="none" stroke="#000000" stroke-width="2" /><path d="M5.5,88 c6.062,-6.564 11.077,-15.068 14,-24" fill="none" stroke="#000000" stroke-width="2" /><path d="M94.5,88.5 c-4.006,-9.02 -9.154,-18.329 -15,-27" fill="none" stroke="#000000" stroke-width="2" /><path d="M62,78 c-4.591,-6.125 -9.922,-12.167 -16,-18" fill="none" stroke="#000000" stroke-width="2" /><path d="M42,55 c22.173,-7.284 38.706,-22.909 45,-42" fill="none" stroke="#000000" stroke-width="2" /><path d="M95.5,55 c-18.832,-7.648 -33.833,-22.237 -42,-40.5" fill="none" stroke="#000000" stroke-width="2" /><path d="M39,32.5 c8.34,-7.691 15.45,-17.917 19.5,-28" fill="none" stroke="#000000" stroke-width="2" /><path d="M26.5,4.5 c-4.616,13.868 -12.729,26.415 -23,36" fill="none" stroke="#000000" stroke-width="2" /></svg>