<?xml version='1.0' encoding='utf-8'?>
<svg xmlns="http://www.w3.org/2000/svg" height="100px" version="1.0" viewBox="0 0 100 100" width="100px" x="0px" y="0px">
<line fill="none" stroke="#000000" stroke-width="2" x1="17" x2="17" y1="94" y2="6" /><line fill="none" stroke="#000000" stroke-width="2" x1="96" x2="26.5" y1="37" y2="37" /><path d="M4,58 c2.624,-10.247 4.357,-21.376 5,-32" fill="none" stroke="#000000" stroke-width="2" /><path d="M27.5,47.5 c-0.573,-6.952 -1.604,-14.611 -3,-22" fill="none" stroke="#000000" stroke-width="2" /><path d="M32.5,61.5 c15.762,-4.112 29.525,-10.513 38,-17" fill="none" stroke="#000000" stroke-width="2" /><path d="M32.595,76.75 c21.763,-3.351 38.039,-9.618 49.155,-17.5" fill="none" stroke="#000000" stroke-width="2" /><path d="M32.689,92 c27.765,-2.589 46.553,-8.724 60.311,-18" fill="none" stroke="#000000" stroke-width="2" /><path d="M94,28.5 c-5.391,-5.776 -12.734,-13.134 -19,-19" fill="none" stroke="#000000" stroke-width="2" /><path d="M28,25 c17.322,-0.472 38.083,-2.064 58.5,-4.5" fill="none" stroke="#000000" stroke-width="2" /><path d="M38.5,24.5 c4.161,-5.7 8.259,-12.331 12,-19.5" fill="none" stroke="#000000" stroke-width="2" /><path d="M23.5,55.5 c17.623,-7.348 31.699,-20.28 37,-32.5" fill="none" stroke="#000000" stroke-width="2" /><path d="M97,56 c-11.365,-4.315 -21.368,-11.054 -28.5,-19" fill="none" stroke="#000000" stroke-width="2" /></svg>