<?xml version='1.0' encoding='utf-8'?>
<svg xmlns="http://www.w3.org/2000/svg" height="100px" version="1.0" viewBox="0 0 100 100" width="100px" x="0px" y="0px">
<line fill="none" stroke="#000000" stroke-width="2" x1="15.5" x2="15.5" y1="94" y2="6" /><line fill="none" stroke="#000000" stroke-width="2" x1="62" x2="62" y1="28" y2="6" /><line fill="none" stroke="#000000" stroke-width="2" x1="95" x2="29" y1="40" y2="40" /><line fill="none" stroke="#000000" stroke-width="2" x1="52" x2="52" y1="53.5" y2="89" /><line fill="none" stroke="#000000" stroke-width="2" x1="72" x2="72" y1="53.5" y2="89" /><polyline fill="none" points="90.5,9.5 90.5,28 33.5,28 33.5,9.5" stroke="#000000" stroke-width="2" /><path d="M3,58 c2.624,-10.247 4.357,-21.376 5,-32" fill="none" stroke="#000000" stroke-width="2" /><path d="M26,47.5 c-0.573,-6.952 -1.604,-14.611 -3,-22" fill="none" stroke="#000000" stroke-width="2" /><path d="M79.5,90 c3.959,0.349 6.686,0.5 7.5,0.5 c4.619,0 5,-0.406 5,-4.5 v-32.5 h-60.0 v38.5" fill="none" stroke="#000000" stroke-width="2" /><path d="M61.5,40 c-0.9,5.008 -2.049,9.423 -3.5,13.5" fill="none" stroke="#000000" stroke-width="2" /></svg>