<?xml version='1.0' encoding='utf-8'?>
<svg xmlns="http://www.w3.org/2000/svg" height="100px" version="1.0" viewBox="0 0 100 100" width="100px" x="0px" y="0px">
<line fill="none" stroke="#000000" stroke-width="2" x1="17" x2="17" y1="94" y2="6" /><line fill="none" stroke="#000000" stroke-width="2" x1="35.5" x2="88" y1="26" y2="26" /><line fill="none" stroke="#000000" stroke-width="2" x1="24.5" x2="96" y1="89" y2="89" /><line fill="none" stroke="#000000" stroke-width="2" x1="92.5" x2="34.5" y1="57" y2="57" /><line fill="none" stroke="#000000" stroke-width="2" x1="90" x2="34.5" y1="71.5" y2="71.5" /><line fill="none" stroke="#000000" stroke-width="2" x1="62" x2="62" y1="89" y2="47" /><polyline fill="none" points="35.5,43 89,43 89,10.5 34.5,10.5 34.5,44" stroke="#000000" stroke-width="2" /><path d="M4,58 c2.624,-10.247 4.357,-21.376 5,-32" fill="none" stroke="#000000" stroke-width="2" /><path d="M27.5,47.5 c-0.573,-6.952 -1.604,-14.611 -3,-22" fill="none" stroke="#000000" stroke-width="2" /><path d="M25,73.5 c5.603,-7.029 10.188,-15.966 13,-25.5" fill="none" stroke="#000000" stroke-width="2" /></svg>