<?xml version='1.0' encoding='utf-8'?>
<svg xmlns="http://www.w3.org/2000/svg" height="100px" version="1.0" viewBox="0 0 100 100" width="100px" x="0px" y="0px">
<line fill="none" stroke="#000000" stroke-width="2" x1="6" x2="94" y1="16" y2="16" /><line fill="none" stroke="#000000" stroke-width="2" x1="46" x2="7.5" y1="55" y2="58" /><line fill="none" stroke="#000000" stroke-width="2" x1="89" x2="50.5" y1="55" y2="58" /><path d="M38,16 c-2.549,-4.268 -5.327,-8.442 -8,-12" fill="none" stroke="#000000" stroke-width="2" /><path d="M62,16 c3.028,-3.949 5.896,-8.267 8,-12" fill="none" stroke="#000000" stroke-width="2" /><path d="M32.5,65 v17.0 c0,8.591 0.26,8.894 7,9.5 c3.613,0.324 8.079,0.5 12.5,0.5 c4.34,0 8.642,-0.174 12.5,-0.5 c11.141,-0.942 11.316,-1.116 13,-15" fill="none" stroke="#000000" stroke-width="2" /><path d="M5.5,89 c6.029,-6.118 11.077,-14.217 14,-22.5" fill="none" stroke="#000000" stroke-width="2" /><path d="M94.5,89.5 c-4.006,-7.985 -9.168,-16.313 -15,-24" fill="none" stroke="#000000" stroke-width="2" /><path d="M62,79.5 c-4.591,-5.048 -9.98,-10.118 -16,-15" fill="none" stroke="#000000" stroke-width="2" /><path d="M27.5,45 c-5.409,-4.606 -12.453,-10.325 -18.5,-15" fill="none" stroke="#000000" stroke-width="2" /><path d="M49,62 c-2.654,-6.355 -6.605,-14.722 -10,-21.001" fill="none" stroke="#000000" stroke-width="2" /><path d="M15,57.5 c10.549,-9.69 20.229,-20.265 28.5,-31" fill="none" stroke="#000000" stroke-width="2" /><path d="M14.5,34.5 c4.986,-5.088 8.898,-9.599 13,-15" fill="none" stroke="#000000" stroke-width="2" /><path d="M70.5,45 c-5.409,-4.606 -12.453,-10.325 -18.5,-15" fill="none" stroke="#000000" stroke-width="2" /><path d="M92,62 c-2.654,-6.355 -6.605,-14.722 -10,-21.001" fill="none" stroke="#000000" stroke-width="2" /><path d="M58,57.5 c10.549,-9.69 20.229,-20.265 28.5,-31" fill="none" stroke="#000000" stroke-width="2" /><path d="M57.5,34.5 c4.986,-5.088 8.898,-9.599 13,-15" fill="none" stroke="#000000" stroke-width="2" /></svg>