<?xml version='1.0' encoding='utf-8'?>
<svg xmlns="http://www.w3.org/2000/svg" height="100px" version="1.0" viewBox="0 0 100 100" width="100px" x="0px" y="0px">
<line fill="none" stroke="#000000" stroke-width="2" x1="14" x2="85" y1="53.5" y2="53.5" /><line fill="none" stroke="#000000" stroke-width="2" x1="27.5" x2="27.5" y1="5" y2="39" /><line fill="none" stroke="#000000" stroke-width="2" x1="48" x2="7" y1="12" y2="12" /><line fill="none" stroke="#000000" stroke-width="2" x1="46" x2="8.5" y1="22.5" y2="22.5" /><line fill="none" stroke="#000000" stroke-width="2" x1="72.5" x2="72.5" y1="5" y2="39" /><line fill="none" stroke="#000000" stroke-width="2" x1="93" x2="52" y1="12" y2="12" /><line fill="none" stroke="#000000" stroke-width="2" x1="91.5" x2="54" y1="22.5" y2="22.5" /><line fill="none" stroke="#000000" stroke-width="2" x1="93.5" x2="52" y1="33" y2="33" /><polyline fill="none" points="12,65 86,65 86,42.5 12,42.5" stroke="#000000" stroke-width="2" /><path d="M6.5,35.5 c16.98,-1.206 32.385,-2.957 41.5,-4.5" fill="none" stroke="#000000" stroke-width="2" /><path d="M31.5,69.5 v11.0 c0,10.571 0.292,10.911 7,11.5 c3.618,0.317 8.079,0.5 12.5,0.5 c4.34,0 8.638,-0.161 12.5,-0.5 c11.35,-0.996 11.514,-1.125 13,-16" fill="none" stroke="#000000" stroke-width="2" /><path d="M5.5,90.5 c6.062,-5.47 11.027,-12.577 14,-20" fill="none" stroke="#000000" stroke-width="2" /><path d="M94.5,91 c-4.006,-7.016 -9.133,-14.279 -15,-21" fill="none" stroke="#000000" stroke-width="2" /><path d="M63,80.5 c-5.825,-4.257 -12.686,-8.422 -20,-12" fill="none" stroke="#000000" stroke-width="2" /></svg>