<?xml version='1.0' encoding='utf-8'?>
<svg xmlns="http://www.w3.org/2000/svg" height="100px" version="1.0" viewBox="0 0 100 100" width="100px" x="0px" y="0px">
<line fill="none" stroke="#000000" stroke-width="2" x1="15.5" x2="15.5" y1="94" y2="6" /><line fill="none" stroke="#000000" stroke-width="2" x1="46.5" x2="46.5" y1="11.5" y2="25" /><line fill="none" stroke="#000000" stroke-width="2" x1="46.5" x2="46.5" y1="40" y2="53.5" /><line fill="none" stroke="#000000" stroke-width="2" x1="30.5" x2="60.5" y1="54.5" y2="54.5" /><line fill="none" stroke="#000000" stroke-width="2" x1="63.5" x2="94" y1="11" y2="11" /><line fill="none" stroke="#000000" stroke-width="2" x1="27" x2="95" y1="89" y2="89" /><line fill="none" stroke="#000000" stroke-width="2" x1="89.5" x2="32.5" y1="69" y2="69" /><line fill="none" stroke="#000000" stroke-width="2" x1="61" x2="61" y1="89" y2="58.5" /><polyline fill="none" points="60.5,10.5 30.5,10.5 30.5,61.5" stroke="#000000" stroke-width="2" /><polyline fill="none" points="31.5,40 59,40 59,25 31.5,25" stroke="#000000" stroke-width="2" /><path d="M3,58 c2.624,-10.247 4.357,-21.376 5,-32" fill="none" stroke="#000000" stroke-width="2" /><path d="M26,47.5 c-0.573,-6.952 -1.604,-14.611 -3,-22" fill="none" stroke="#000000" stroke-width="2" /><path d="M63,55 c14.824,-9.569 24.352,-22.774 30.037,-43.268" fill="none" stroke="#000000" stroke-width="2" /><path d="M96.5,58 c-12.783,-10.423 -23.424,-25.247 -30,-42.5" fill="none" stroke="#000000" stroke-width="2" /></svg>