<?xml version='1.0' encoding='utf-8'?>
<svg xmlns="http://www.w3.org/2000/svg" height="100px" version="1.0" viewBox="0 0 100 100" width="100px" x="0px" y="0px">
<line fill="none" stroke="#000000" stroke-width="2" x1="15.5" x2="15.5" y1="94" y2="6" /><line fill="none" stroke="#000000" stroke-width="2" x1="62.5" x2="62.5" y1="48" y2="4" /><line fill="none" stroke="#000000" stroke-width="2" x1="95.5" x2="28.5" y1="25.5" y2="25.5" /><line fill="none" stroke="#000000" stroke-width="2" x1="38.5" x2="59" y1="50.5" y2="50.5" /><line fill="none" stroke="#000000" stroke-width="2" x1="82" x2="82" y1="94" y2="42.5" /><line fill="none" stroke="#000000" stroke-width="2" x1="63.5" x2="94.5" y1="55.5" y2="55.5" /><line fill="none" stroke="#000000" stroke-width="2" x1="64.5" x2="64.5" y1="77" y2="56.5" /><line fill="none" stroke="#000000" stroke-width="2" x1="96.5" x2="53.5" y1="78" y2="78" /><path d="M3,58 c2.624,-10.247 4.357,-21.376 5,-32" fill="none" stroke="#000000" stroke-width="2" /><path d="M26,43.5 c-0.573,-5.688 -1.604,-11.955 -3,-18" fill="none" stroke="#000000" stroke-width="2" /><path d="M28,47 c16.074,-6.867 26.676,-14.015 33.5,-21.5" fill="none" stroke="#000000" stroke-width="2" /><path d="M96,47 c-15.552,-6.865 -25.893,-14.011 -32.5,-21.5" fill="none" stroke="#000000" stroke-width="2" /><path d="M49.5,21 c-4.764,-4.995 -9.986,-9.863 -15,-14" fill="none" stroke="#000000" stroke-width="2" /><path d="M75.5,21 c6.02,-4.448 11.412,-9.551 15,-14" fill="none" stroke="#000000" stroke-width="2" /><path d="M23.5,69 c8.428,-7.294 14.609,-16.166 18.5,-26.5" fill="none" stroke="#000000" stroke-width="2" /><path d="M58.001,51.443 C56.934,70.218 43.434,86.554 25,93" fill="none" stroke="#000000" stroke-width="2" /><path d="M51,73 c-4.488,-3.849 -10.313,-8.214 -15.5,-11.5" fill="none" stroke="#000000" stroke-width="2" /></svg>