<?xml version='1.0' encoding='utf-8'?>
<svg xmlns="http://www.w3.org/2000/svg" height="100px" version="1.0" viewBox="0 0 100 100" width="100px" x="0px" y="0px">
<line fill="none" stroke="#000000" stroke-width="2" x1="54" x2="88.5" y1="44" y2="44" /><line fill="none" stroke="#000000" stroke-width="2" x1="54" x2="88.5" y1="29.5" y2="29.5" /><line fill="none" stroke="#000000" stroke-width="2" x1="5.5" x2="48" y1="26.5" y2="26.5" /><line fill="none" stroke="#000000" stroke-width="2" x1="27" x2="27" y1="40" y2="11.5" /><polyline fill="none" points="54,59 89.5,59 89.5,15.5 53,15.5 53,60" stroke="#000000" stroke-width="2" /><polyline fill="none" points="11.5,59 43.5,59 43.5,40 10.5,40 10.5,60" stroke="#000000" stroke-width="2" /><path d="M75,3 c-2.188,4.603 -4.801,8.674 -8,12.5" fill="none" stroke="#000000" stroke-width="2" /><path d="M32.5,65.5 v15.0 c0,10.571 0.292,10.911 7,11.5 c3.618,0.317 8.079,0.5 12.5,0.5 c4.34,0 8.638,-0.161 12.5,-0.5 c11.35,-0.996 11.514,-1.125 13,-16" fill="none" stroke="#000000" stroke-width="2" /><path d="M5.5,90.5 c6.062,-6.017 11.077,-13.812 14,-22" fill="none" stroke="#000000" stroke-width="2" /><path d="M94.5,90 c-4.006,-8.018 -9.154,-16.294 -15,-24.001" fill="none" stroke="#000000" stroke-width="2" /><path d="M63,78.5 c-5.825,-4.966 -12.691,-9.811 -20,-14" fill="none" stroke="#000000" stroke-width="2" /><path d="M8,13.5 c15.555,-1.194 27.976,-3.071 38,-5.5" fill="none" stroke="#000000" stroke-width="2" /></svg>