<?xml version='1.0' encoding='utf-8'?>
<svg xmlns="http://www.w3.org/2000/svg" height="100px" version="1.0" viewBox="0 0 100 100" width="100px" x="0px" y="0px">
<line fill="none" stroke="#000000" stroke-width="2" x1="15.5" x2="15.5" y1="94" y2="6" /><line fill="none" stroke="#000000" stroke-width="2" x1="39.5" x2="60.5" y1="54" y2="54" /><line fill="none" stroke="#000000" stroke-width="2" x1="65" x2="35" y1="25" y2="25" /><polyline fill="none" points="61.5,55 61.5,35 38.5,35 38.5,60" stroke="#000000" stroke-width="2" /><path d="M3,58 c2.624,-10.247 4.357,-21.376 5,-32" fill="none" stroke="#000000" stroke-width="2" /><path d="M26,47.5 c-0.573,-6.952 -1.604,-14.611 -3,-22" fill="none" stroke="#000000" stroke-width="2" /><path d="M43,66.5 v18.0 c0,7.742 0.252,8 16.9,8 c20.429,0 20.688,-0.195 22.1,-16.5" fill="none" stroke="#000000" stroke-width="2" /><path d="M21.5,90.5 c5.196,-6.017 9.495,-13.812 12,-22" fill="none" stroke="#000000" stroke-width="2" /><path d="M97,90 c-3.472,-8.018 -7.934,-16.293 -13,-24" fill="none" stroke="#000000" stroke-width="2" /><path d="M69.5,79.5 c-5.097,-4.966 -11.105,-9.811 -17.5,-14" fill="none" stroke="#000000" stroke-width="2" /><path d="M88,22 c-5.208,18.945 -14.241,31.505 -26.5,39" fill="none" stroke="#000000" stroke-width="2" /><path d="M68,4 c0,40.43 17.842,57 21.5,57 c1.982,0 4.691,-1.932 6.5,-17" fill="none" stroke="#000000" stroke-width="2" /><path d="M74.5,4 c5.057,1.701 10.254,3.808 15,6" fill="none" stroke="#000000" stroke-width="2" /><path d="M23.5,65 c4.336,-9.819 6.5,-20.765 6.5,-35.5 V14.0 h63.5" fill="none" stroke="#000000" stroke-width="2" /></svg>