<?xml version='1.0' encoding='utf-8'?>
<svg xmlns="http://www.w3.org/2000/svg" height="100px" version="1.0" viewBox="0 0 100 100" width="100px" x="0px" y="0px">
<line fill="none" stroke="#000000" stroke-width="2" x1="16" x2="16" y1="68" y2="32" /><line fill="none" stroke="#000000" stroke-width="2" x1="62" x2="30" y1="45.5" y2="45.5" /><line fill="none" stroke="#000000" stroke-width="2" x1="64" x2="28" y1="33.5" y2="33.5" /><line fill="none" stroke="#000000" stroke-width="2" x1="46.5" x2="46.5" y1="58.5" y2="33.5" /><line fill="none" stroke="#000000" stroke-width="2" x1="46.5" x2="46.5" y1="25" y2="5" /><line fill="none" stroke="#000000" stroke-width="2" x1="71" x2="97" y1="16" y2="16" /><polyline fill="none" points="32,9.5 32,25 61,25 61,9.5" stroke="#000000" stroke-width="2" /><path d="M27,21.5 c-6.209,7.704 -14.33,14.177 -24,19" fill="none" stroke="#000000" stroke-width="2" /><path d="M28,5.5 c-6.061,6.581 -13.919,12.104 -24,16.5" fill="none" stroke="#000000" stroke-width="2" /><path d="M65,56 c-9.92,1.732 -22.91,3.271 -39.5,4.5" fill="none" stroke="#000000" stroke-width="2" /><path d="M60,66 c20.207,-10.871 28.916,-23.325 32,-50" fill="none" stroke="#000000" stroke-width="2" /><path d="M96.5,66 c-14.58,-9.986 -21.107,-21.261 -24,-44.5" fill="none" stroke="#000000" stroke-width="2" /><path d="M63.5,30.5 c4.709,-6.97 8.766,-16.224 11,-25.5" fill="none" stroke="#000000" stroke-width="2" /><path d="M32.5,66 v14.0 c0,10.571 0.292,10.911 7,11.5 c3.618,0.317 8.079,0.5 12.5,0.5 c4.34,0 8.638,-0.161 12.5,-0.5 c11.35,-0.996 11.514,-1.125 13,-16" fill="none" stroke="#000000" stroke-width="2" /><path d="M5.5,90 c6.062,-5.469 11.077,-12.556 14,-20" fill="none" stroke="#000000" stroke-width="2" /><path d="M94.5,89.5 c-4.006,-8.018 -9.154,-16.294 -15,-24.001" fill="none" stroke="#000000" stroke-width="2" /><path d="M63,79 c-5.825,-4.966 -12.691,-9.811 -20,-14" fill="none" stroke="#000000" stroke-width="2" /></svg>