<?xml version='1.0' encoding='utf-8'?>
<svg xmlns="http://www.w3.org/2000/svg" height="100px" version="1.0" viewBox="0 0 100 100" width="100px" x="0px" y="0px">
<line fill="none" stroke="#000000" stroke-width="2" x1="7.5" x2="93" y1="62" y2="57.5" /><line fill="none" stroke="#000000" stroke-width="2" x1="9" x2="91.5" y1="19" y2="16" /><path d="M82,62.5 c-11.867,12.823 -35.426,23.602 -69.5,29" fill="none" stroke="#000000" stroke-width="2" /><path d="M37.5,45.5 c5.18,28.63 36.649,46 47.5,46 c4.079,0 6.314,-2.312 9,-12.5" fill="none" stroke="#000000" stroke-width="2" /><path d="M50,47 c7.061,1.966 14.342,4.407 21,7" fill="none" stroke="#000000" stroke-width="2" /><path d="M80.5,20.5 c-11.102,11.352 -32.775,20.944 -66.5,26" fill="none" stroke="#000000" stroke-width="2" /><path d="M38,5 c4.708,26.026 35.075,41.5 45.5,41.5 c3.801,0 5.82,-1.939 8.5,-11.5" fill="none" stroke="#000000" stroke-width="2" /><path d="M54.5,5.5 c6.73,1.844 13.666,4.108 20,6.5" fill="none" stroke="#000000" stroke-width="2" /></svg>