<?xml version='1.0' encoding='utf-8'?>
<svg xmlns="http://www.w3.org/2000/svg" height="100px" version="1.0" viewBox="0 0 100 100" width="100px" x="0px" y="0px">
<line fill="none" stroke="#000000" stroke-width="2" x1="34" x2="34" y1="22" y2="49.5" /><line fill="none" stroke="#000000" stroke-width="2" x1="13.5" x2="59.5" y1="49.5" y2="49.5" /><line fill="none" stroke="#000000" stroke-width="2" x1="34" x2="55.5" y1="34" y2="34" /><path d="M60.5,3.5 c0,60.849 21.559,87.5 26,87.5 c2.407,0 5.804,-2.614 8,-23" fill="none" stroke="#000000" stroke-width="2" /><path d="M84.5,31 c-5.617,30.089 -20.932,51.168 -40.5,60" fill="none" stroke="#000000" stroke-width="2" /><path d="M66.5,4 c6.063,2.864 12.305,6.347 18,10" fill="none" stroke="#000000" stroke-width="2" /><path d="M5.5,91.5 c5.376,-14.052 8,-29.832 8,-51 V18.0 h78.0" fill="none" stroke="#000000" stroke-width="2" /><path d="M16,83.5 c4.131,-6.634 8.063,-16.132 10.5,-26" fill="none" stroke="#000000" stroke-width="2" /><path d="M56.5,77.5 c-2.857,-7.188 -6.344,-14.185 -10,-20" fill="none" stroke="#000000" stroke-width="2" /><path d="M37.5,49.5 v34.0 c0,5.579 -0.359,6 -4.5,6 c-1.735,0 -4.656,-0.154 -8.5,-0.5" fill="none" stroke="#000000" stroke-width="2" /></svg>