<?xml version='1.0' encoding='utf-8'?>
<svg xmlns="http://www.w3.org/2000/svg" height="100px" version="1.0" viewBox="0 0 100 100" width="100px" x="0px" y="0px">
<line fill="none" stroke="#000000" stroke-width="2" x1="57.5" x2="4.5" y1="16" y2="16" /><line fill="none" stroke="#000000" stroke-width="2" x1="4" x2="58.5" y1="58" y2="58" /><line fill="none" stroke="#000000" stroke-width="2" x1="15.5" x2="46.5" y1="44" y2="44" /><line fill="none" stroke="#000000" stroke-width="2" x1="15.5" x2="46.5" y1="30" y2="30" /><line fill="none" stroke="#000000" stroke-width="2" x1="14.5" x2="14.5" y1="57" y2="5.5" /><line fill="none" stroke="#000000" stroke-width="2" x1="47.5" x2="47.5" y1="57" y2="5.5" /><line fill="none" stroke="#000000" stroke-width="2" x1="10" x2="48.5" y1="87.5" y2="87.5" /><line fill="none" stroke="#000000" stroke-width="2" x1="10" x2="10" y1="59" y2="94.5" /><line fill="none" stroke="#000000" stroke-width="2" x1="52" x2="94.5" y1="34" y2="29.5" /><path d="M27,58 c0,13.314 -3.473,18.837 -14,23" fill="none" stroke="#000000" stroke-width="2" /><path d="M38,58 v14.5 c0,4.023 0.553,4.5 9,4.5 c8.428,0 8.666,-0.242 9,-12.5" fill="none" stroke="#000000" stroke-width="2" /><path d="M90.5,40 c-8.234,24.984 -20.039,39.421 -40.5,51" fill="none" stroke="#000000" stroke-width="2" /><path d="M69.5,5.5 c0,59.849 16.012,85.5 19.5,85.5 c2.427,0 4.971,-4.921 6.5,-23" fill="none" stroke="#000000" stroke-width="2" /><path d="M80,9 c4.063,4.796 7.923,10.097 11,15" fill="none" stroke="#000000" stroke-width="2" /></svg>