<?xml version='1.0' encoding='utf-8'?>
<svg xmlns="http://www.w3.org/2000/svg" height="100px" version="1.0" viewBox="0 0 100 100" width="100px" x="0px" y="0px">
<line fill="none" stroke="#000000" stroke-width="2" x1="7.5" x2="92.5" y1="10.5" y2="10.5" /><line fill="none" stroke="#000000" stroke-width="2" x1="19.5" x2="46.5" y1="52" y2="52" /><line fill="none" stroke="#000000" stroke-width="2" x1="64" x2="92.5" y1="52" y2="52" /><line fill="none" stroke="#000000" stroke-width="2" x1="64" x2="93.5" y1="81" y2="81" /><line fill="none" stroke="#000000" stroke-width="2" x1="20.5" x2="46.5" y1="65" y2="65" /><line fill="none" stroke="#000000" stroke-width="2" x1="64" x2="91.5" y1="66.5" y2="66.5" /><line fill="none" stroke="#000000" stroke-width="2" x1="64" x2="64" y1="94" y2="43" /><path d="M5,90.5 c6.951,-9.461 11.5,-24.541 11.5,-41 v-27.0 h71.0 v17.0 h-70.0" fill="none" stroke="#000000" stroke-width="2" /><path d="M17.5,82 c9.624,-1.548 18.4,-3.428 28,-6" fill="none" stroke="#000000" stroke-width="2" /><path d="M22.5,94 c18.25,-4.816 24,-11.725 24,-27.5 V43.0" fill="none" stroke="#000000" stroke-width="2" /></svg>