<?xml version='1.0' encoding='utf-8'?>
<svg xmlns="http://www.w3.org/2000/svg" height="100px" version="1.0" viewBox="0 0 100 100" width="100px" x="0px" y="0px">
<line fill="none" stroke="#000000" stroke-width="2" x1="36" x2="6" y1="26" y2="26" /><line fill="none" stroke="#000000" stroke-width="2" x1="46.5" x2="95" y1="36" y2="36" /><line fill="none" stroke="#000000" stroke-width="2" x1="75" x2="75" y1="93" y2="36" /><path d="M21.5,6 v77.0 c0,7.683 -0.373,8 -5,8 c-2.246,0 -5.661,-0.149 -10,-0.5" fill="none" stroke="#000000" stroke-width="2" /><path d="M36,50 c-10.381,5.009 -20.047,8.534 -30,11" fill="none" stroke="#000000" stroke-width="2" /><path d="M46.564,14.997 c17.588,-1.143 31.798,-3.553 42.936,-6.998" fill="none" stroke="#000000" stroke-width="2" /><path d="M28.5,90.5 c13.951,-14.778 19,-30.675 19,-76.5" fill="none" stroke="#000000" stroke-width="2" /><path d="M92.5,76 c-12.051,-11.141 -26.432,-21.739 -39.5,-29" fill="none" stroke="#000000" stroke-width="2" /></svg>