<?xml version='1.0' encoding='utf-8'?>
<svg xmlns="http://www.w3.org/2000/svg" height="100px" version="1.0" viewBox="0 0 100 100" width="100px" x="0px" y="0px">
<line fill="none" stroke="#000000" stroke-width="2" x1="31" x2="4" y1="26" y2="26" /><line fill="none" stroke="#000000" stroke-width="2" x1="27.5" x2="96.5" y1="45.5" y2="45.5" /><line fill="none" stroke="#000000" stroke-width="2" x1="31.5" x2="94.5" y1="79.5" y2="79.5" /><path d="M18,6 v78.0 c0,7.575 -0.404,8 -4.5,8 c-1.832,0 -4.633,-0.139 -8.5,-0.5" fill="none" stroke="#000000" stroke-width="2" /><path d="M31,51 c-9.343,5.009 -18.042,8.534 -27,11" fill="none" stroke="#000000" stroke-width="2" /><path d="M71.5,37.5 c-4.896,-5.954 -11.087,-12.22 -18,-18" fill="none" stroke="#000000" stroke-width="2" /><path d="M69.5,71.5 c-5.152,-6.306 -11.704,-12.898 -19,-19" fill="none" stroke="#000000" stroke-width="2" /><path d="M30,88.5 c4.105,-23.515 7.804,-52.817 9.5,-77 h51.0 c-1.664,23.957 -4.42,51.859 -7,73 c-0.841,6.888 -2.075,8 -8,8 c-3.202,0 -7.021,-0.151 -11.5,-0.5" fill="none" stroke="#000000" stroke-width="2" /></svg>