<?xml version='1.0' encoding='utf-8'?>
<svg xmlns="http://www.w3.org/2000/svg" height="100px" version="1.0" viewBox="0 0 100 100" width="100px" x="0px" y="0px">
<line fill="none" stroke="#000000" stroke-width="2" x1="34" x2="5" y1="26.5" y2="26.5" /><line fill="none" stroke="#000000" stroke-width="2" x1="33.5" x2="95" y1="21.5" y2="21.5" /><line fill="none" stroke="#000000" stroke-width="2" x1="52.5" x2="52.5" y1="39.5" y2="81" /><line fill="none" stroke="#000000" stroke-width="2" x1="71" x2="34.5" y1="39.5" y2="39.5" /><path d="M20,6 v77.0 c0,7.683 -0.373,8 -5,8 c-2.246,0 -4.663,-0.119 -9,-0.5" fill="none" stroke="#000000" stroke-width="2" /><path d="M34,53 c-10.035,5.009 -19.379,8.534 -29,11" fill="none" stroke="#000000" stroke-width="2" /><path d="M75.5,4.5 c0,59.849 10.5,86.5 14.5,86.5 c1.781,0 4.375,-2.614 6,-23" fill="none" stroke="#000000" stroke-width="2" /><path d="M80.5,6.5 c4.775,3.049 9.523,6.589 13.5,10" fill="none" stroke="#000000" stroke-width="2" /><path d="M33,85.5 c17.316,-3.287 32.235,-7.847 41,-12" fill="none" stroke="#000000" stroke-width="2" /></svg>