<?xml version='1.0' encoding='utf-8'?>
<svg xmlns="http://www.w3.org/2000/svg" height="100px" version="1.0" viewBox="0 0 100 100" width="100px" x="0px" y="0px">
<line fill="none" stroke="#000000" stroke-width="2" x1="33" x2="4.5" y1="26" y2="26" /><line fill="none" stroke="#000000" stroke-width="2" x1="54" x2="94.5" y1="51.5" y2="51.5" /><path d="M19.5,6 v77.0 c0,7.683 -0.373,8 -5,8 c-2.246,0 -4.663,-0.119 -9,-0.5" fill="none" stroke="#000000" stroke-width="2" /><path d="M34.5,51 c-10.297,4.969 -19.956,8.512 -30,11" fill="none" stroke="#000000" stroke-width="2" /><path d="M92.5,7.5 c-4.135,6.608 -8.053,11.534 -14,17.5 c6.254,6.661 10.199,12.017 14.5,19.5" fill="none" stroke="#000000" stroke-width="2" /><path d="M72,7.5 c-4.135,6.608 -8.053,11.534 -14,17.5 c6.254,6.661 10.199,12.017 14.5,19.5" fill="none" stroke="#000000" stroke-width="2" /><path d="M51.5,7.5 c-4.135,6.608 -8.053,11.534 -14,17.5 c6.254,6.661 10.199,12.017 14.5,19.5" fill="none" stroke="#000000" stroke-width="2" /><path d="M28.5,68.5 c14.906,-6.845 25.628,-15.339 32.5,-25" fill="none" stroke="#000000" stroke-width="2" /><path d="M93.539,52.224 c-5.208,18.138 -26.783,34.491 -60.039,40.776" fill="none" stroke="#000000" stroke-width="2" /><path d="M75.5,76 c-6.969,-4.692 -16.387,-10.072 -24.5,-14" fill="none" stroke="#000000" stroke-width="2" /></svg>