<?xml version='1.0' encoding='utf-8'?>
<svg xmlns="http://www.w3.org/2000/svg" height="100px" version="1.0" viewBox="0 0 100 100" width="100px" x="0px" y="0px">
<line fill="none" stroke="#000000" stroke-width="2" x1="29.5" x2="3.5" y1="26" y2="26" /><line fill="none" stroke="#000000" stroke-width="2" x1="61" x2="61" y1="16" y2="4" /><line fill="none" stroke="#000000" stroke-width="2" x1="95.5" x2="26.5" y1="38" y2="38" /><polyline fill="none" points="92.5,32 92.5,16 29.5,16 29.5,32" stroke="#000000" stroke-width="2" /><path d="M17.5,6 v78.0 c0,7.575 -0.404,8 -4.5,8 c-1.832,0 -4.633,-0.139 -8.5,-0.5" fill="none" stroke="#000000" stroke-width="2" /><path d="M30.5,53 c-9.343,5.009 -18.042,8.534 -27,11" fill="none" stroke="#000000" stroke-width="2" /><path d="M25,91 c33.876,-6.382 49.888,-21.618 56,-53" fill="none" stroke="#000000" stroke-width="2" /><path d="M57,20 c-5.061,18.363 -13.119,34.217 -24,47" fill="none" stroke="#000000" stroke-width="2" /><path d="M37.5,61 c19.254,6.073 35.86,15.109 56.5,31" fill="none" stroke="#000000" stroke-width="2" /></svg>