<?xml version='1.0' encoding='utf-8'?>
<svg xmlns="http://www.w3.org/2000/svg" height="100px" version="1.0" viewBox="0 0 100 100" width="100px" x="0px" y="0px">
<line fill="none" stroke="#000000" stroke-width="2" x1="29" x2="4" y1="26" y2="26" /><line fill="none" stroke="#000000" stroke-width="2" x1="92" x2="42.5" y1="40" y2="40" /><line fill="none" stroke="#000000" stroke-width="2" x1="96.5" x2="29" y1="61" y2="61" /><path d="M18,6 v78.0 c0,7.575 -0.404,8 -4.5,8 c-1.832,0 -4.633,-0.139 -8.5,-0.5" fill="none" stroke="#000000" stroke-width="2" /><path d="M29,50 c-8.65,5.009 -16.705,8.534 -25,11" fill="none" stroke="#000000" stroke-width="2" /><path d="M96,33 c-5.475,-6.85 -13.381,-15.407 -20.5,-22" fill="none" stroke="#000000" stroke-width="2" /><path d="M31.5,27.5 c17.232,-0.394 37.332,-1.641 57,-3.5" fill="none" stroke="#000000" stroke-width="2" /><path d="M41,27.5 c5.483,-6.608 11.303,-15.188 16,-23.5" fill="none" stroke="#000000" stroke-width="2" /><path d="M30.5,55 c7.295,-6.804 13.232,-15.396 17,-24.5" fill="none" stroke="#000000" stroke-width="2" /><path d="M27.5,91 c22.038,-7.106 35,-20.845 35,-33.5 V40.0" fill="none" stroke="#000000" stroke-width="2" /><path d="M95.5,91 c-20.874,-6.816 -33,-20.753 -33,-33.5" fill="none" stroke="#000000" stroke-width="2" /></svg>