<?xml version='1.0' encoding='utf-8'?>
<svg xmlns="http://www.w3.org/2000/svg" height="100px" version="1.0" viewBox="0 0 100 100" width="100px" x="0px" y="0px">
<line fill="none" stroke="#000000" stroke-width="2" x1="30" x2="4" y1="26" y2="26" /><line fill="none" stroke="#000000" stroke-width="2" x1="72.5" x2="72.5" y1="74" y2="12" /><polyline fill="none" points="35.5,36 62.5,36 62.5,11 34.5,11 34.5,37" stroke="#000000" stroke-width="2" /><path d="M29,92 c8.005,-9.589 13,-27.357 13,-56" fill="none" stroke="#000000" stroke-width="2" /><path d="M41.5,51.5 h20.0 c0,35.044 -2.061,39.5 -6,39.5 c-3.176,0 -7.777,-0.181 -12,-0.5" fill="none" stroke="#000000" stroke-width="2" /><path d="M18.5,6 v77.0 c0,7.683 -0.373,8 -5,8 c-2.246,0 -4.663,-0.119 -9,-0.5" fill="none" stroke="#000000" stroke-width="2" /><path d="M33,52 c-10.13,5.057 -19.486,8.562 -29,11" fill="none" stroke="#000000" stroke-width="2" /><path d="M92,8 v75.0 c0,7.317 -0.645,8 -5,8 c-2.243,0 -5.943,-0.167 -10.5,-0.5" fill="none" stroke="#000000" stroke-width="2" /></svg>