<?xml version='1.0' encoding='utf-8'?>
<svg xmlns="http://www.w3.org/2000/svg" height="100px" version="1.0" viewBox="0 0 100 100" width="100px" x="0px" y="0px">
<line fill="none" stroke="#000000" stroke-width="2" x1="31.5" x2="4.5" y1="26" y2="26" /><line fill="none" stroke="#000000" stroke-width="2" x1="36" x2="95.5" y1="43" y2="43" /><line fill="none" stroke="#000000" stroke-width="2" x1="66.5" x2="66.5" y1="60" y2="27.5" /><line fill="none" stroke="#000000" stroke-width="2" x1="44" x2="90" y1="86.5" y2="86.5" /><polyline fill="none" points="37,10 91,10 91,27.5 36,27.5" stroke="#000000" stroke-width="2" /><polyline fill="none" points="90,93.5 90,60 43,60 43,93.5" stroke="#000000" stroke-width="2" /><path d="M19.5,6 v77.0 c0,7.683 -0.373,8 -5,8 c-2.246,0 -4.663,-0.119 -9,-0.5" fill="none" stroke="#000000" stroke-width="2" /><path d="M31.5,52 c-9.432,5.057 -18.143,8.562 -27,11" fill="none" stroke="#000000" stroke-width="2" /><path d="M27,91 c6.048,-14.052 9,-29.832 9,-51 v-31.0" fill="none" stroke="#000000" stroke-width="2" /></svg>