<?xml version='1.0' encoding='utf-8'?>
<svg xmlns="http://www.w3.org/2000/svg" height="100px" version="1.0" viewBox="0 0 100 100" width="100px" x="0px" y="0px">
<line fill="none" stroke="#000000" stroke-width="2" x1="50" x2="50" y1="15" y2="3" /><line fill="none" stroke="#000000" stroke-width="2" x1="95" x2="5" y1="77.5" y2="77.5" /><line fill="none" stroke="#000000" stroke-width="2" x1="89.5" x2="10.5" y1="63" y2="63" /><polyline fill="none" points="90.5,32 90.5,15 9.5,15 9.5,32" stroke="#000000" stroke-width="2" /><polyline fill="none" points="23.5,40 77.5,40 77.5,24.5 22.5,24.5 22.5,41" stroke="#000000" stroke-width="2" /><path d="M30,15 c-2.568,-3.562 -5.295,-6.981 -8,-10" fill="none" stroke="#000000" stroke-width="2" /><path d="M70.5,15 c2.842,-3.768 5.379,-7.477 7.5,-11" fill="none" stroke="#000000" stroke-width="2" /><path d="M51,49 v38.0 c0,5.177 -0.977,6 -7.5,6 c-3.409,0 -9.286,-0.18 -15.5,-0.5" fill="none" stroke="#000000" stroke-width="2" /><path d="M14,50.5 c29.972,-0.48 53.944,-1.92 72,-4" fill="none" stroke="#000000" stroke-width="2" /></svg>