<?xml version='1.0' encoding='utf-8'?>
<svg xmlns="http://www.w3.org/2000/svg" height="100px" version="1.0" viewBox="0 0 100 100" width="100px" x="0px" y="0px">
<line fill="none" stroke="#000000" stroke-width="2" x1="28.5" x2="4" y1="25" y2="25" /><line fill="none" stroke="#000000" stroke-width="2" x1="38.667" x2="38.667" y1="54.833" y2="83.833" /><line fill="none" stroke="#000000" stroke-width="2" x1="57.667" x2="57.667" y1="27.833" y2="74.333" /><line fill="none" stroke="#000000" stroke-width="2" x1="78.167" x2="43.667" y1="27.833" y2="27.833" /><line fill="none" stroke="#000000" stroke-width="2" x1="82.167" x2="33.167" y1="47.833" y2="47.833" /><polyline fill="none" points="38.667,74.333 76.667,74.333 76.667,54.833" stroke="#000000" stroke-width="2" /><path d="M17.5,6 v78.0 c0,7.575 -0.404,8 -4.5,8 c-1.832,0 -4.633,-0.139 -8.5,-0.5" fill="none" stroke="#000000" stroke-width="2" /><path d="M30,53.5 c-8.997,5.009 -17.374,8.534 -26,11" fill="none" stroke="#000000" stroke-width="2" /><path d="M24.5,38.5 c7.912,-8.975 14.637,-21.538 18,-34" fill="none" stroke="#000000" stroke-width="2" /><path d="M39,15 h54.0 c-1.854,69.393 -4.388,75 -11.5,75 c-4.824,0 -12.727,-0.34 -21,-1" fill="none" stroke="#000000" stroke-width="2" /><path d="M36,42 c4.75,-6.478 8.643,-14.69 11,-23.5" fill="none" stroke="#000000" stroke-width="2" /></svg>