<?xml version='1.0' encoding='utf-8'?>
<svg xmlns="http://www.w3.org/2000/svg" height="100px" version="1.0" viewBox="0 0 100 100" width="100px" x="0px" y="0px">
<line fill="none" stroke="#000000" stroke-width="2" x1="62.5" x2="62.5" y1="16" y2="5" /><line fill="none" stroke="#000000" stroke-width="2" x1="29" x2="96" y1="16" y2="16" /><line fill="none" stroke="#000000" stroke-width="2" x1="30.5" x2="4.5" y1="26" y2="26" /><polyline fill="none" points="38,55 88,55 88,27 37,27 37,56" stroke="#000000" stroke-width="2" /><path d="M63.5,56 v28.0 c0,7.291 -0.537,8 -6,8 c-2.564,0 -6.678,-0.164 -12,-0.5" fill="none" stroke="#000000" stroke-width="2" /><path d="M29.5,87 c7.836,-6.313 14.975,-15.513 19.5,-25" fill="none" stroke="#000000" stroke-width="2" /><path d="M95,88.5 c-6.03,-9.339 -13.32,-18.44 -21,-26" fill="none" stroke="#000000" stroke-width="2" /><path d="M18.5,6 v78.0 c0,7.575 -0.404,8 -4.5,8 c-1.832,0 -4.633,-0.139 -8.5,-0.5" fill="none" stroke="#000000" stroke-width="2" /><path d="M30.5,52 c-8.997,5.009 -17.374,8.534 -26,11" fill="none" stroke="#000000" stroke-width="2" /></svg>