<?xml version='1.0' encoding='utf-8'?>
<svg xmlns="http://www.w3.org/2000/svg" height="100px" version="1.0" viewBox="0 0 100 100" width="100px" x="0px" y="0px">
<line fill="none" stroke="#000000" stroke-width="2" x1="32.5" x2="4.5" y1="26" y2="26" /><line fill="none" stroke="#000000" stroke-width="2" x1="32.5" x2="92" y1="11" y2="11" /><line fill="none" stroke="#000000" stroke-width="2" x1="64" x2="64" y1="88" y2="40" /><polyline fill="none" points="39,69 90,69 90,49 38,49 38,75" stroke="#000000" stroke-width="2" /><path d="M19,6 v77.0 c0,7.683 -0.373,8 -5,8 c-2.246,0 -4.663,-0.119 -9,-0.5" fill="none" stroke="#000000" stroke-width="2" /><path d="M32,52 c-9.605,5.057 -18.479,8.562 -27.5,11" fill="none" stroke="#000000" stroke-width="2" /><path d="M30.5,44.5 c31.082,-7.19 48.739,-17.563 60.708,-33.11" fill="none" stroke="#000000" stroke-width="2" /><path d="M95,44.5 c-21.333,-6.72 -39.664,-17.007 -53,-29.5" fill="none" stroke="#000000" stroke-width="2" /><path d="M94.5,93 c-3.967,-6.06 -9.405,-13.824 -14,-20" fill="none" stroke="#000000" stroke-width="2" /><path d="M29.5,90 c18.002,-0.534 39.077,-2.274 59.5,-5" fill="none" stroke="#000000" stroke-width="2" /></svg>