<?xml version='1.0' encoding='utf-8'?>
<svg xmlns="http://www.w3.org/2000/svg" height="100px" version="1.0" viewBox="0 0 100 100" width="100px" x="0px" y="0px">
<line fill="none" stroke="#000000" stroke-width="2" x1="31.5" x2="4" y1="26" y2="26" /><line fill="none" stroke="#000000" stroke-width="2" x1="63.5" x2="63.5" y1="28" y2="6" /><line fill="none" stroke="#000000" stroke-width="2" x1="95" x2="32" y1="40" y2="40" /><line fill="none" stroke="#000000" stroke-width="2" x1="54" x2="54" y1="53.5" y2="89" /><line fill="none" stroke="#000000" stroke-width="2" x1="73" x2="73" y1="53.5" y2="89" /><polyline fill="none" points="90.5,9.5 90.5,28 36.5,28 36.5,9.5" stroke="#000000" stroke-width="2" /><path d="M18.5,6 v77.0 c0,7.683 -0.373,8 -5,8 c-2.246,0 -4.663,-0.119 -9,-0.5" fill="none" stroke="#000000" stroke-width="2" /><path d="M31.5,51 c-9.605,5.057 -18.479,8.562 -27.5,11" fill="none" stroke="#000000" stroke-width="2" /><path d="M80.5,90 c3.959,0.349 6.686,0.5 7.5,0.5 c3.619,0 4,-0.406 4,-4.5 v-32.5 h-57.0 v38.5" fill="none" stroke="#000000" stroke-width="2" /><path d="M63,40 c-0.9,5.008 -2.049,9.423 -3.5,13.5" fill="none" stroke="#000000" stroke-width="2" /></svg>