<?xml version='1.0' encoding='utf-8'?>
<svg xmlns="http://www.w3.org/2000/svg" height="100px" version="1.0" viewBox="0 0 100 100" width="100px" x="0px" y="0px">
<line fill="none" stroke="#000000" stroke-width="2" x1="32.5" x2="4.5" y1="26" y2="26" /><line fill="none" stroke="#000000" stroke-width="2" x1="94" x2="33" y1="40.5" y2="40.5" /><line fill="none" stroke="#000000" stroke-width="2" x1="95" x2="32" y1="58" y2="58" /><line fill="none" stroke="#000000" stroke-width="2" x1="37.5" x2="37.5" y1="64.5" y2="93.5" /><line fill="none" stroke="#000000" stroke-width="2" x1="63.5" x2="63.5" y1="40.5" y2="86.5" /><line fill="none" stroke="#000000" stroke-width="2" x1="37.5" x2="89.5" y1="86.5" y2="86.5" /><line fill="none" stroke="#000000" stroke-width="2" x1="89.5" x2="89.5" y1="93.5" y2="64.5" /><path d="M19.5,6 v77.0 c0,7.683 -0.373,8 -5,8 c-2.246,0 -4.663,-0.119 -9,-0.5" fill="none" stroke="#000000" stroke-width="2" /><path d="M33.5,50 c-10.13,5.057 -19.486,8.562 -29,11" fill="none" stroke="#000000" stroke-width="2" /><path d="M32,15 c21.213,0 41.389,-2.286 60,-6.5" fill="none" stroke="#000000" stroke-width="2" /><path d="M43,36 c-2.021,-6.128 -4.256,-11.988 -6.5,-17" fill="none" stroke="#000000" stroke-width="2" /><path d="M64.5,35.5 c-2.013,-6.495 -4.258,-12.694 -6.5,-18" fill="none" stroke="#000000" stroke-width="2" /><path d="M79.5,40.5 c3.528,-8.416 6.46,-17.265 8.5,-25.5" fill="none" stroke="#000000" stroke-width="2" /></svg>