<?xml version='1.0' encoding='utf-8'?>
<svg xmlns="http://www.w3.org/2000/svg" height="100px" version="1.0" viewBox="0 0 100 100" width="100px" x="0px" y="0px">
<line fill="none" stroke="#000000" stroke-width="2" x1="29" x2="4" y1="24" y2="24" /><line fill="none" stroke="#000000" stroke-width="2" x1="39.5" x2="89.5" y1="41" y2="41" /><line fill="none" stroke="#000000" stroke-width="2" x1="50.5" x2="77.5" y1="18.5" y2="18.5" /><line fill="none" stroke="#000000" stroke-width="2" x1="91.5" x2="91.5" y1="94" y2="66" /><line fill="none" stroke="#000000" stroke-width="2" x1="40" x2="91.5" y1="88" y2="88" /><polyline fill="none" points="90.5,67 40,67 40,94" stroke="#000000" stroke-width="2" /><path d="M18,6 v78.0 c0,7.575 -0.404,8 -4.5,8 c-1.832,0 -4.633,-0.139 -8.5,-0.5" fill="none" stroke="#000000" stroke-width="2" /><path d="M30,53 c-8.998,5.009 -17.373,8.534 -26,11" fill="none" stroke="#000000" stroke-width="2" /><path d="M98,28 c-12.945,-6.879 -23.748,-14.302 -34,-23.3 c-10.251,8.998 -21.055,16.421 -34,23.3" fill="none" stroke="#000000" stroke-width="2" /><path d="M24.5,91 c9.015,-10.277 14,-25.306 14,-47 v-17.0 h51.0 v29.0 H38.0" fill="none" stroke="#000000" stroke-width="2" /></svg>