<?xml version='1.0' encoding='utf-8'?>
<svg xmlns="http://www.w3.org/2000/svg" height="100px" version="1.0" viewBox="0 0 100 100" width="100px" x="0px" y="0px">
<line fill="none" stroke="#000000" stroke-width="2" x1="63.5" x2="63.5" y1="14" y2="4" /><line fill="none" stroke="#000000" stroke-width="2" x1="32" x2="5" y1="26" y2="26" /><line fill="none" stroke="#000000" stroke-width="2" x1="60" x2="92" y1="65" y2="65" /><line fill="none" stroke="#000000" stroke-width="2" x1="92" x2="60" y1="79" y2="79" /><line fill="none" stroke="#000000" stroke-width="2" x1="49" x2="95" y1="51" y2="51" /><line fill="none" stroke="#000000" stroke-width="2" x1="60" x2="60" y1="94" y2="51" /><polyline fill="none" points="92.5,26 92.5,14 36,14 36,29" stroke="#000000" stroke-width="2" /><path d="M69.5,14 v20.5 c0,3.883 0.586,4.5 10,4.5 c10.913,0 11.213,-0.236 12,-8.5" fill="none" stroke="#000000" stroke-width="2" /><path d="M32,45 c16.926,-5.999 26.019,-16.972 27,-31" fill="none" stroke="#000000" stroke-width="2" /><path d="M19,6 v78.0 c0,7.575 -0.404,8 -4.5,8 c-1.832,0 -4.633,-0.139 -8.5,-0.5" fill="none" stroke="#000000" stroke-width="2" /><path d="M32,52 c-9.343,5.009 -18.042,8.534 -27,11" fill="none" stroke="#000000" stroke-width="2" /><path d="M29,75 c10.865,-8.838 20.172,-21.536 26,-36" fill="none" stroke="#000000" stroke-width="2" /></svg>