<?xml version='1.0' encoding='utf-8'?>
<svg xmlns="http://www.w3.org/2000/svg" height="100px" version="1.0" viewBox="0 0 100 100" width="100px" x="0px" y="0px">
<line fill="none" stroke="#000000" stroke-width="2" x1="51.5" x2="51.5" y1="13.5" y2="3" /><line fill="none" stroke="#000000" stroke-width="2" x1="72" x2="72" y1="46.5" y2="16.5" /><line fill="none" stroke="#000000" stroke-width="2" x1="91.5" x2="54" y1="25" y2="25" /><line fill="none" stroke="#000000" stroke-width="2" x1="34" x2="34" y1="46.5" y2="16.5" /><line fill="none" stroke="#000000" stroke-width="2" x1="50" x2="18" y1="25" y2="25" /><line fill="none" stroke="#000000" stroke-width="2" x1="95" x2="14" y1="78" y2="78" /><line fill="none" stroke="#000000" stroke-width="2" x1="90.5" x2="18.5" y1="65" y2="65" /><path d="M4.5,92 c4.898,-10.415 9,-30.94 9,-47 v-31.5 h80.0" fill="none" stroke="#000000" stroke-width="2" /><path d="M48,46 c11.242,-6.752 18.537,-13.464 23.5,-21" fill="none" stroke="#000000" stroke-width="2" /><path d="M93.5,45 c-9.33,-5.919 -16.757,-13.077 -21,-20" fill="none" stroke="#000000" stroke-width="2" /><path d="M16.5,45 c7.733,-6.017 13.51,-12.915 17,-20" fill="none" stroke="#000000" stroke-width="2" /><path d="M48.5,40 c-4.154,-4.659 -9.449,-9.979 -14.5,-14.563" fill="none" stroke="#000000" stroke-width="2" /><path d="M56,51.5 V87.0 c0,5.177 -0.73,6 -7,6 c-3.112,0 -8.326,-0.18 -14,-0.5" fill="none" stroke="#000000" stroke-width="2" /><path d="M22,53 c27.058,-0.48 48.7,-1.92 65,-4" fill="none" stroke="#000000" stroke-width="2" /></svg>