<?xml version='1.0' encoding='utf-8'?>
<svg xmlns="http://www.w3.org/2000/svg" height="100px" version="1.0" viewBox="0 0 100 100" width="100px" x="0px" y="0px">
<line fill="none" stroke="#000000" stroke-width="2" x1="95" x2="5" y1="79" y2="79" /><line fill="none" stroke="#000000" stroke-width="2" x1="89.5" x2="10.5" y1="67" y2="67" /><line fill="none" stroke="#000000" stroke-width="2" x1="7" x2="50" y1="34" y2="34" /><line fill="none" stroke="#000000" stroke-width="2" x1="28.5" x2="28.5" y1="34" y2="51.5" /><line fill="none" stroke="#000000" stroke-width="2" x1="8" x2="49" y1="43.5" y2="43.5" /><line fill="none" stroke="#000000" stroke-width="2" x1="6.5" x2="50.5" y1="20.5" y2="20.5" /><line fill="none" stroke="#000000" stroke-width="2" x1="9" x2="48" y1="11.5" y2="11.5" /><line fill="none" stroke="#000000" stroke-width="2" x1="28.5" x2="28.5" y1="20.5" y2="4.5" /><path d="M51,54.5 v32.5 c0,5.177 -0.977,6 -7.5,6 c-3.409,0 -9.286,-0.18 -15.5,-0.5" fill="none" stroke="#000000" stroke-width="2" /><path d="M14,56 c29.972,-0.48 53.944,-1.92 72,-4" fill="none" stroke="#000000" stroke-width="2" /><path d="M54.5,23.5 c8.657,4.243 16.641,9.812 27,19" fill="none" stroke="#000000" stroke-width="2" /><path d="M50.5,50.5 c12.129,-7.121 18,-16.945 18,-33 v-13.0" fill="none" stroke="#000000" stroke-width="2" /><path d="M51,13.5 h35.0 c0,30.052 3.063,37 6.5,37 c1.752,0 3.137,-2.419 4.5,-14.5" fill="none" stroke="#000000" stroke-width="2" /><path d="M35,34 c3.315,-4.214 6.091,-8.614 8.5,-13.5" fill="none" stroke="#000000" stroke-width="2" /><path d="M20.5,34 c-1.959,-4.451 -4.396,-9.156 -7,-13.5" fill="none" stroke="#000000" stroke-width="2" /></svg>