<?xml version='1.0' encoding='utf-8'?>
<svg xmlns="http://www.w3.org/2000/svg" height="100px" version="1.0" viewBox="0 0 100 100" width="100px" x="0px" y="0px">
<line fill="none" stroke="#000000" stroke-width="2" x1="31" x2="4" y1="26" y2="26" /><line fill="none" stroke="#000000" stroke-width="2" x1="61" x2="61" y1="42" y2="90" /><line fill="none" stroke="#000000" stroke-width="2" x1="36" x2="86" y1="53.5" y2="53.5" /><line fill="none" stroke="#000000" stroke-width="2" x1="27" x2="95" y1="90" y2="90" /><line fill="none" stroke="#000000" stroke-width="2" x1="91" x2="31" y1="77.5" y2="77.5" /><line fill="none" stroke="#000000" stroke-width="2" x1="26" x2="96" y1="32.5" y2="32.5" /><line fill="none" stroke="#000000" stroke-width="2" x1="29.5" x2="92.5" y1="14.5" y2="14.5" /><line fill="none" stroke="#000000" stroke-width="2" x1="61" x2="61" y1="14.5" y2="3.5" /><polyline fill="none" points="36,66.5 87,66.5 87,41 35,41 35,67.5" stroke="#000000" stroke-width="2" /><path d="M18,6 v78.0 c0,7.575 -0.404,8 -4.5,8 c-1.832,0 -4.633,-0.139 -8.5,-0.5" fill="none" stroke="#000000" stroke-width="2" /><path d="M31,52 c-9.343,5.009 -18.042,8.534 -27,11" fill="none" stroke="#000000" stroke-width="2" /><path d="M70.5,32.5 c3.828,-5.082 6.887,-11.177 9,-18" fill="none" stroke="#000000" stroke-width="2" /><path d="M51,32.5 c-2.586,-6.099 -5.532,-12.048 -9,-18" fill="none" stroke="#000000" stroke-width="2" /></svg>