<?xml version='1.0' encoding='utf-8'?>
<svg xmlns="http://www.w3.org/2000/svg" height="100px" version="1.0" viewBox="0 0 100 100" width="100px" x="0px" y="0px">
<line fill="none" stroke="#000000" stroke-width="2" x1="28" x2="3.5" y1="26" y2="26" /><line fill="none" stroke="#000000" stroke-width="2" x1="72" x2="98" y1="21" y2="21" /><line fill="none" stroke="#000000" stroke-width="2" x1="47" x2="47" y1="15" y2="4" /><line fill="none" stroke="#000000" stroke-width="2" x1="26.5" x2="67.5" y1="15" y2="15" /><line fill="none" stroke="#000000" stroke-width="2" x1="32" x2="61" y1="74" y2="74" /><line fill="none" stroke="#000000" stroke-width="2" x1="32" x2="61" y1="58" y2="58" /><path d="M15.5,6 v78.0 c0,7.672 -0.32,8 -3.5,8 c-1.691,0 -4.43,-0.151 -8,-0.5" fill="none" stroke="#000000" stroke-width="2" /><path d="M27.5,51 c-8.683,5.009 -15.775,8.271 -24,11" fill="none" stroke="#000000" stroke-width="2" /><path d="M64.5,91 c17.89,-15.437 25.753,-32.429 28.5,-70" fill="none" stroke="#000000" stroke-width="2" /><path d="M97.5,91 c-14.58,-14.065 -21.473,-30.208 -24,-63" fill="none" stroke="#000000" stroke-width="2" /><path d="M64.5,41 c4.733,-9.815 8.766,-22.903 11,-36" fill="none" stroke="#000000" stroke-width="2" /><path d="M64,35.5 c-2.559,-4.828 -6.046,-11.062 -9,-16.001" fill="none" stroke="#000000" stroke-width="2" /><path d="M27,35 c10.299,-0.481 22.328,-2.046 34,-4.5" fill="none" stroke="#000000" stroke-width="2" /><path d="M35,34.5 c2.449,-5.665 4.836,-12.331 7,-19.5" fill="none" stroke="#000000" stroke-width="2" /><path d="M31,92 v-49.0 h31.0 v42.96 c0,4.177 -0.422,4.54 -4.5,4.54 c-1.486,0 -4.196,-0.159 -8.5,-0.5" fill="none" stroke="#000000" stroke-width="2" /></svg>