<?xml version='1.0' encoding='utf-8'?>
<svg xmlns="http://www.w3.org/2000/svg" height="100px" version="1.0" viewBox="0 0 100 100" width="100px" x="0px" y="0px">
<line fill="none" stroke="#000000" stroke-width="2" x1="27" x2="4" y1="25.5" y2="25.5" /><line fill="none" stroke="#000000" stroke-width="2" x1="29.5" x2="59.5" y1="25.5" y2="25.5" /><line fill="none" stroke="#000000" stroke-width="2" x1="62" x2="96.5" y1="25.5" y2="25.5" /><line fill="none" stroke="#000000" stroke-width="2" x1="58.5" x2="30" y1="13.5" y2="13.5" /><line fill="none" stroke="#000000" stroke-width="2" x1="94" x2="63" y1="13.5" y2="13.5" /><line fill="none" stroke="#000000" stroke-width="2" x1="36" x2="86.5" y1="64" y2="64" /><line fill="none" stroke="#000000" stroke-width="2" x1="36" x2="86.5" y1="52.5" y2="52.5" /><polyline fill="none" points="36,75.5 86.5,75.5 86.5,41 35,41 35,76.5" stroke="#000000" stroke-width="2" /><path d="M17.5,6 v78.0 c0,7.575 -0.404,8 -4.5,8 c-1.832,0 -4.633,-0.139 -8.5,-0.5" fill="none" stroke="#000000" stroke-width="2" /><path d="M31,52 c-9.343,5.009 -18.042,8.534 -27,11" fill="none" stroke="#000000" stroke-width="2" /><path d="M27,92 c10.561,-3.245 19.652,-7.771 25,-12" fill="none" stroke="#000000" stroke-width="2" /><path d="M94.5,93 c-6.438,-4.208 -15.324,-8.712 -25,-12.5" fill="none" stroke="#000000" stroke-width="2" /><path d="M24.5,45.5 c12.925,-7.583 19.5,-19.757 19.5,-40" fill="none" stroke="#000000" stroke-width="2" /><path d="M63,38 c11.789,-6.748 14.5,-11.742 14.5,-32.5" fill="none" stroke="#000000" stroke-width="2" /><path d="M57.5,38 c-4.723,-4.573 -10.596,-8.658 -16.5,-11.5" fill="none" stroke="#000000" stroke-width="2" /><path d="M97,44.5 c-9.332,-5.047 -16.411,-11.708 -20.5,-19" fill="none" stroke="#000000" stroke-width="2" /></svg>