<?xml version='1.0' encoding='utf-8'?>
<svg xmlns="http://www.w3.org/2000/svg" height="100px" version="1.0" viewBox="0 0 100 100" width="100px" x="0px" y="0px">
<line fill="none" stroke="#000000" stroke-width="2" x1="61.5" x2="96.5" y1="21" y2="21" /><line fill="none" stroke="#000000" stroke-width="2" x1="4.5" x2="50.5" y1="33.5" y2="33.5" /><line fill="none" stroke="#000000" stroke-width="2" x1="49.5" x2="7.5" y1="16.5" y2="16.5" /><line fill="none" stroke="#000000" stroke-width="2" x1="27.5" x2="27.5" y1="33.5" y2="5" /><line fill="none" stroke="#000000" stroke-width="2" x1="4.5" x2="48.5" y1="50.5" y2="50.5" /><line fill="none" stroke="#000000" stroke-width="2" x1="27.5" x2="27.5" y1="50.5" y2="37.5" /><path d="M51.5,91 c23.994,-15.312 34.34,-32.429 38,-70" fill="none" stroke="#000000" stroke-width="2" /><path d="M95.5,91 c-19.668,-14.23 -28.662,-30.512 -32,-63" fill="none" stroke="#000000" stroke-width="2" /><path d="M51,49 c6.023,-11.971 11.155,-28.03 14,-44" fill="none" stroke="#000000" stroke-width="2" /><path d="M4.5,91.5 c10.077,-8.683 16,-22.737 16,-41" fill="none" stroke="#000000" stroke-width="2" /><path d="M38,91 c-2.786,0 -7.925,-0.337 -14,-1" fill="none" stroke="#000000" stroke-width="2" /><path d="M19.5,64 h27.5 c0,20.478 -3.744,27 -9,27" fill="none" stroke="#000000" stroke-width="2" /></svg>