<?xml version='1.0' encoding='utf-8'?>
<svg xmlns="http://www.w3.org/2000/svg" height="100px" version="1.0" viewBox="0 0 100 100" width="100px" x="0px" y="0px">
<line fill="none" stroke="#000000" stroke-width="2" x1="33.5" x2="4" y1="12.5" y2="12.5" /><line fill="none" stroke="#000000" stroke-width="2" x1="32.5" x2="5" y1="43.5" y2="43.5" /><line fill="none" stroke="#000000" stroke-width="2" x1="19.5" x2="19.5" y1="78" y2="12.5" /><line fill="none" stroke="#000000" stroke-width="2" x1="56" x2="96" y1="88.5" y2="88.5" /><line fill="none" stroke="#000000" stroke-width="2" x1="58.5" x2="95" y1="12.5" y2="12.5" /><line fill="none" stroke="#000000" stroke-width="2" x1="93" x2="61.5" y1="46.5" y2="46.5" /><line fill="none" stroke="#000000" stroke-width="2" x1="77" x2="77" y1="88.5" y2="12.5" /><line fill="none" stroke="#000000" stroke-width="2" x1="29.5" x2="66.5" y1="21" y2="21" /><line fill="none" stroke="#000000" stroke-width="2" x1="48" x2="48" y1="21" y2="5" /><path d="M4,83 c11.047,-3.375 20.656,-6.873 33,-12" fill="none" stroke="#000000" stroke-width="2" /><path d="M28.5,90 c19.107,-14.995 28.503,-34.566 30,-69" fill="none" stroke="#000000" stroke-width="2" /><path d="M33.5,30 c11.72,14.536 21.838,30.333 32,50" fill="none" stroke="#000000" stroke-width="2" /></svg>