<?xml version='1.0' encoding='utf-8'?>
<svg xmlns="http://www.w3.org/2000/svg" height="100px" version="1.0" viewBox="0 0 100 100" width="100px" x="0px" y="0px">
<line fill="none" stroke="#000000" stroke-width="2" x1="54.5" x2="97.5" y1="69" y2="59" /><line fill="none" stroke="#000000" stroke-width="2" x1="87.5" x2="87.5" y1="93" y2="7" /><line fill="none" stroke="#000000" stroke-width="2" x1="54" x2="4.5" y1="16" y2="16" /><line fill="none" stroke="#000000" stroke-width="2" x1="4" x2="55" y1="58" y2="58" /><line fill="none" stroke="#000000" stroke-width="2" x1="14.5" x2="44" y1="44" y2="44" /><line fill="none" stroke="#000000" stroke-width="2" x1="14.5" x2="44" y1="30" y2="30" /><line fill="none" stroke="#000000" stroke-width="2" x1="13.5" x2="13.5" y1="57" y2="5.5" /><line fill="none" stroke="#000000" stroke-width="2" x1="45" x2="45" y1="57" y2="5.5" /><line fill="none" stroke="#000000" stroke-width="2" x1="10" x2="54" y1="87.5" y2="87.5" /><line fill="none" stroke="#000000" stroke-width="2" x1="10" x2="10" y1="59" y2="94.5" /><path d="M78,33.5 c-4.43,-6.39 -9.678,-12.833 -16,-19.5" fill="none" stroke="#000000" stroke-width="2" /><path d="M70,54 c-4.346,-6.475 -10.039,-13.433 -16.5,-20" fill="none" stroke="#000000" stroke-width="2" /><path d="M25.5,58 c0,13.104 -2.93,18.009 -12.5,23" fill="none" stroke="#000000" stroke-width="2" /><path d="M35,58 v14.5 c0,4.023 0.52,4.5 8,4.5 c7.461,0 7.686,-0.242 8,-12.5" fill="none" stroke="#000000" stroke-width="2" /></svg>