<?xml version='1.0' encoding='utf-8'?>
<svg xmlns="http://www.w3.org/2000/svg" height="100px" version="1.0" viewBox="0 0 100 100" width="100px" x="0px" y="0px">
<line fill="none" stroke="#000000" stroke-width="2" x1="20" x2="91" y1="61" y2="61" /><line fill="none" stroke="#000000" stroke-width="2" x1="58" x2="58" y1="93" y2="61" /><path d="M8,41 c32.35,-4.401 48.225,-11.142 62,-23.5" fill="none" stroke="#000000" stroke-width="2" /><path d="M41,7.5 c-7.707,5.145 -18.886,9.96 -34,14" fill="none" stroke="#000000" stroke-width="2" /><path d="M93,21.5 c-9.726,-4.663 -22.15,-9.577 -36,-14" fill="none" stroke="#000000" stroke-width="2" /><path d="M20,46 c20.859,0 41.529,-1.569 60,-4.5" fill="none" stroke="#000000" stroke-width="2" /><path d="M5,91.5 c10.813,-9.12 16,-21.767 16,-46.5" fill="none" stroke="#000000" stroke-width="2" /><path d="M92,41 c-32.35,-4.401 -48.225,-11.142 -62,-23.5" fill="none" stroke="#000000" stroke-width="2" /></svg>