<?xml version='1.0' encoding='utf-8'?>
<svg xmlns="http://www.w3.org/2000/svg" height="100px" version="1.0" viewBox="0 0 100 100" width="100px" x="0px" y="0px">
<line fill="none" stroke="#000000" stroke-width="2" x1="25" x2="25" y1="20" y2="4" /><line fill="none" stroke="#000000" stroke-width="2" x1="3.5" x2="46" y1="20" y2="20" /><path d="M3.5,92 c8.386,-14.692 12,-32.36 12,-71" fill="none" stroke="#000000" stroke-width="2" /><path d="M15.5,39 h24.5 c0,45.17 -3.016,51 -9,51 c-2.35,0 -7.867,-0.386 -13,-1" fill="none" stroke="#000000" stroke-width="2" /><path d="M97,43 c-9.553,-10.76 -19.594,-24.636 -27.5,-37.8 c-7.787,14.447 -15.241,25.1 -25.5,36.3" fill="none" stroke="#000000" stroke-width="2" /><path d="M90,92.5 c-12.864,-11.905 -25.822,-20.435 -39,-26" fill="none" stroke="#000000" stroke-width="2" /><path d="M87,61.5 c-8.952,-9.393 -18.153,-17.175 -27,-23" fill="none" stroke="#000000" stroke-width="2" /></svg>