<?xml version='1.0' encoding='utf-8'?>
<svg xmlns="http://www.w3.org/2000/svg" height="100px" version="1.0" viewBox="0 0 100 100" width="100px" x="0px" y="0px">
<line fill="none" stroke="#000000" stroke-width="2" x1="9" x2="26.5" y1="45" y2="45" /><line fill="none" stroke="#000000" stroke-width="2" x1="69" x2="69" y1="94" y2="42.5" /><line fill="none" stroke="#000000" stroke-width="2" x1="96" x2="32.5" y1="38" y2="38" /><polyline fill="none" points="9,83 27.5,83 27.5,12 8,12 8,91" stroke="#000000" stroke-width="2" /><path d="M47,89 v-34.0 h44.5 v26.96 c0,4.303 -0.297,4.54 -5.5,4.54 c-1.743,0 -4.457,-0.133 -9.5,-0.5" fill="none" stroke="#000000" stroke-width="2" /><path d="M31,74 c12.987,-12.584 21.969,-27.751 27.5,-46.5" fill="none" stroke="#000000" stroke-width="2" /><path d="M35.5,31.5 c20.975,-6.026 39.664,-15.64 53,-26.5" fill="none" stroke="#000000" stroke-width="2" /><path d="M42,9 c17.418,5.519 32.451,11.992 52,22.5" fill="none" stroke="#000000" stroke-width="2" /></svg>