<?xml version='1.0' encoding='utf-8'?>
<svg xmlns="http://www.w3.org/2000/svg" height="100px" version="1.0" viewBox="0 0 100 100" width="100px" x="0px" y="0px">
<line fill="none" stroke="#000000" stroke-width="2" x1="10" x2="27.5" y1="45" y2="45" /><line fill="none" stroke="#000000" stroke-width="2" x1="41.5" x2="87" y1="23" y2="23" /><line fill="none" stroke="#000000" stroke-width="2" x1="34" x2="94.5" y1="46.5" y2="46.5" /><polyline fill="none" points="10,83 28.5,83 28.5,12 9,12 9,91" stroke="#000000" stroke-width="2" /><polyline fill="none" points="41.5,37 88,37 88,10 40.5,10 40.5,38" stroke="#000000" stroke-width="2" /><path d="M53,93 c11.66,-7.219 24.551,-23.232 29,-36" fill="none" stroke="#000000" stroke-width="2" /><path d="M35,87.5 c11.627,-6.923 24.864,-20.239 30.5,-30.5" fill="none" stroke="#000000" stroke-width="2" /><path d="M31.5,71.5 c9.609,-6.464 19.149,-16.538 24,-25" fill="none" stroke="#000000" stroke-width="2" /><path d="M48,57 h42.5 c0,26.927 -3.691,34 -8.5,34 c-3.276,0 -7.634,-0.163 -12,-0.5" fill="none" stroke="#000000" stroke-width="2" /></svg>