<?xml version='1.0' encoding='utf-8'?>
<svg xmlns="http://www.w3.org/2000/svg" height="100px" version="1.0" viewBox="0 0 100 100" width="100px" x="0px" y="0px">
<line fill="none" stroke="#000000" stroke-width="2" x1="20" x2="20" y1="6" y2="94" /><line fill="none" stroke="#000000" stroke-width="2" x1="7.5" x2="32.5" y1="45" y2="45" /><line fill="none" stroke="#000000" stroke-width="2" x1="44" x2="88" y1="23" y2="23" /><line fill="none" stroke="#000000" stroke-width="2" x1="37" x2="95" y1="46.5" y2="46.5" /><polyline fill="none" points="7.5,68 33.5,68 33.5,23 6.5,23 6.5,69" stroke="#000000" stroke-width="2" /><polyline fill="none" points="44,37 89,37 89,10 43,10 43,38" stroke="#000000" stroke-width="2" /><path d="M54,93 c11.66,-7.219 24.551,-23.232 29,-36" fill="none" stroke="#000000" stroke-width="2" /><path d="M36.5,87.5 c11.627,-6.923 24.864,-20.239 30.5,-30.5" fill="none" stroke="#000000" stroke-width="2" /><path d="M30.5,74.5 c10.238,-6.465 21.836,-18.537 27,-28" fill="none" stroke="#000000" stroke-width="2" /><path d="M50,57 h41.0 c0,26.927 -3.691,34 -8.5,34 c-3.276,0 -7.634,-0.163 -12,-0.5" fill="none" stroke="#000000" stroke-width="2" /></svg>