<?xml version='1.0' encoding='utf-8'?>
<svg xmlns="http://www.w3.org/2000/svg" height="100px" version="1.0" viewBox="0 0 100 100" width="100px" x="0px" y="0px">
<line fill="none" stroke="#000000" stroke-width="2" x1="5.5" x2="51" y1="25" y2="25" /><line fill="none" stroke="#000000" stroke-width="2" x1="10.5" x2="10.5" y1="33" y2="71" /><line fill="none" stroke="#000000" stroke-width="2" x1="46.5" x2="46.5" y1="67" y2="33" /><line fill="none" stroke="#000000" stroke-width="2" x1="10.5" x2="46.5" y1="61" y2="61" /><line fill="none" stroke="#000000" stroke-width="2" x1="56" x2="89.5" y1="59" y2="59" /><line fill="none" stroke="#000000" stroke-width="2" x1="57.5" x2="89.5" y1="33.5" y2="33.5" /><path d="M22.5,21.5 c-3.177,-5.515 -6.658,-10.905 -10,-15.5" fill="none" stroke="#000000" stroke-width="2" /><path d="M33.5,25 c3.777,-6.426 7.357,-13.44 10,-19.5" fill="none" stroke="#000000" stroke-width="2" /><path d="M11,92.5 c13.949,-11.276 18,-20.692 18,-46.5 v-21.0" fill="none" stroke="#000000" stroke-width="2" /><path d="M44.5,92.5 c9.223,-11.128 12,-20.517 12,-46.5 v-36.0 h33.0 v73.0 c0,7.674 -0.266,8 -6,8 c-2.166,0 -6.576,-0.155 -13,-0.5" fill="none" stroke="#000000" stroke-width="2" /></svg>