<?xml version='1.0' encoding='utf-8'?>
<svg xmlns="http://www.w3.org/2000/svg" height="100px" version="1.0" viewBox="0 0 100 100" width="100px" x="0px" y="0px">
<line fill="none" stroke="#000000" stroke-width="2" x1="19.5" x2="19.5" y1="94" y2="6" /><line fill="none" stroke="#000000" stroke-width="2" x1="33" x2="4.5" y1="26" y2="26" /><line fill="none" stroke="#000000" stroke-width="2" x1="39" x2="61.5" y1="39" y2="39" /><line fill="none" stroke="#000000" stroke-width="2" x1="39" x2="39" y1="87.5" y2="6.5" /><path d="M3.5,70 c7.473,-14.471 12.377,-28.562 15.5,-44.5" fill="none" stroke="#000000" stroke-width="2" /><path d="M31.5,59 c-3.664,-10.331 -7.621,-21.329 -11.5,-32" fill="none" stroke="#000000" stroke-width="2" /><path d="M67.5,45 c9.281,-5.924 17.471,-13.675 27,-26" fill="none" stroke="#000000" stroke-width="2" /><path d="M26,91.5 c12.432,-3.248 23.605,-7.521 36.5,-14" fill="none" stroke="#000000" stroke-width="2" /><path d="M67.5,6.5 v79.0 c0,4.583 0.577,5 13,5 c13.231,0 13.44,-0.206 14.5,-29" fill="none" stroke="#000000" stroke-width="2" /></svg>