<?xml version='1.0' encoding='utf-8'?>
<svg xmlns="http://www.w3.org/2000/svg" height="100px" version="1.0" viewBox="0 0 100 100" width="100px" x="0px" y="0px">
<line fill="none" stroke="#000000" stroke-width="2" x1="22.5" x2="22.5" y1="94" y2="6" /><line fill="none" stroke="#000000" stroke-width="2" x1="39.5" x2="5.5" y1="26" y2="26" /><line fill="none" stroke="#000000" stroke-width="2" x1="47" x2="95.5" y1="36" y2="36" /><line fill="none" stroke="#000000" stroke-width="2" x1="75.5" x2="75.5" y1="93" y2="36" /><path d="M4,73 c8.646,-15.363 14.409,-30.544 18,-47.5" fill="none" stroke="#000000" stroke-width="2" /><path d="M38,61 c-4.717,-11.049 -10.063,-22.734 -15.5,-34" fill="none" stroke="#000000" stroke-width="2" /><path d="M47.064,14.997 c17.588,-1.143 31.798,-3.553 42.936,-6.998" fill="none" stroke="#000000" stroke-width="2" /><path d="M29,90.5 c13.951,-14.778 19,-30.675 19,-76.5" fill="none" stroke="#000000" stroke-width="2" /><path d="M93,76 c-12.051,-11.141 -26.432,-21.739 -39.5,-29" fill="none" stroke="#000000" stroke-width="2" /></svg>