<?xml version='1.0' encoding='utf-8'?>
<svg xmlns="http://www.w3.org/2000/svg" height="100px" version="1.0" viewBox="0 0 100 100" width="100px" x="0px" y="0px">
<line fill="none" stroke="#000000" stroke-width="2" x1="20" x2="20" y1="94" y2="6" /><line fill="none" stroke="#000000" stroke-width="2" x1="34" x2="4" y1="25.5" y2="25.5" /><line fill="none" stroke="#000000" stroke-width="2" x1="31.5" x2="97.5" y1="45.5" y2="45.5" /><line fill="none" stroke="#000000" stroke-width="2" x1="34" x2="95.5" y1="79.5" y2="79.5" /><path d="M3,69.5 c7.954,-14.471 13.176,-28.562 16.5,-44.5" fill="none" stroke="#000000" stroke-width="2" /><path d="M33,58.5 c-3.983,-10.331 -8.283,-21.329 -12.5,-32" fill="none" stroke="#000000" stroke-width="2" /><path d="M73,37.5 c-4.896,-5.954 -11.087,-12.22 -18,-18" fill="none" stroke="#000000" stroke-width="2" /><path d="M71,71.5 c-5.152,-6.306 -11.704,-12.898 -19,-19" fill="none" stroke="#000000" stroke-width="2" /><path d="M32.5,88.5 c4.105,-23.515 7.804,-52.817 9.5,-77 h49.5 c-1.664,23.957 -4.42,51.859 -7,73 c-0.841,6.888 -2.075,8 -8,8 c-3.202,0 -7.021,-0.151 -11.5,-0.5" fill="none" stroke="#000000" stroke-width="2" /></svg>