<?xml version='1.0' encoding='utf-8'?>
<svg xmlns="http://www.w3.org/2000/svg" height="100px" version="1.0" viewBox="0 0 100 100" width="100px" x="0px" y="0px">
<line fill="none" stroke="#000000" stroke-width="2" x1="19.5" x2="19.5" y1="94" y2="6" /><line fill="none" stroke="#000000" stroke-width="2" x1="32.5" x2="4.5" y1="26" y2="26" /><line fill="none" stroke="#000000" stroke-width="2" x1="37.5" x2="91.5" y1="66" y2="66" /><line fill="none" stroke="#000000" stroke-width="2" x1="37.5" x2="91.5" y1="45.5" y2="45.5" /><line fill="none" stroke="#000000" stroke-width="2" x1="33.5" x2="93.5" y1="10" y2="10" /><line fill="none" stroke="#000000" stroke-width="2" x1="64.5" x2="64.5" y1="28" y2="91" /><path d="M3.5,70 c7.473,-14.471 12.377,-28.562 15.5,-44.5" fill="none" stroke="#000000" stroke-width="2" /><path d="M32.5,59 c-3.982,-10.331 -8.284,-21.329 -12.5,-32" fill="none" stroke="#000000" stroke-width="2" /><path d="M36.5,93 v-66.0 h56.0 v56.5 c0,7.367 -0.615,8 -5.5,8 c-2.076,0 -5.842,-0.134 -12,-0.5" fill="none" stroke="#000000" stroke-width="2" /><path d="M46.5,15.5 c6.219,3.351 12.805,7.257 19.5,11.5" fill="none" stroke="#000000" stroke-width="2" /><path d="M92.872,10.222 c-4.203,3.393 -17.064,10.729 -28.372,15.778" fill="none" stroke="#000000" stroke-width="2" /></svg>