<?xml version='1.0' encoding='utf-8'?>
<svg xmlns="http://www.w3.org/2000/svg" height="100px" version="1.0" viewBox="0 0 100 100" width="100px" x="0px" y="0px">
<line fill="none" stroke="#000000" stroke-width="2" x1="50" x2="50" y1="93.5" y2="52" /><line fill="none" stroke="#000000" stroke-width="2" x1="92" x2="8" y1="62.5" y2="62.5" /><path d="M33.87,36.949 c4.636,-5.205 8.641,-12.306 11,-19" fill="none" stroke="#000000" stroke-width="2" /><path d="M95,43 c-2.802,-7.422 -6.729,-15.338 -11,-22" fill="none" stroke="#000000" stroke-width="2" /><path d="M6,91.5 c18.07,-6.784 33.259,-17.337 43,-29" fill="none" stroke="#000000" stroke-width="2" /><path d="M94,91.5 c-18.07,-6.784 -33.259,-17.337 -43,-29" fill="none" stroke="#000000" stroke-width="2" /><path d="M9,55.5 c8.296,-5.681 15.275,-12.447 20,-19" fill="none" stroke="#000000" stroke-width="2" /><path d="M27.5,16.5 c-4.485,-2.769 -9.92,-5.665 -16,-8.5" fill="none" stroke="#000000" stroke-width="2" /><path d="M22,32 c-4.656,-3.19 -10.094,-6.316 -16.5,-9.5" fill="none" stroke="#000000" stroke-width="2" /><path d="M31,52.5 c15.49,-5.989 27.716,-21.724 30.5,-41.5" fill="none" stroke="#000000" stroke-width="2" /><path d="M33,11 H82.5 c-4.081,33.241 -7.709,38.5 -14,38.5 c-3.05,0 -10.64,-0.46 -15.5,-1" fill="none" stroke="#000000" stroke-width="2" /></svg>