<?xml version='1.0' encoding='utf-8'?>
<svg xmlns="http://www.w3.org/2000/svg" height="100px" version="1.0" viewBox="0 0 100 100" width="100px" x="0px" y="0px">
<line fill="none" stroke="#000000" stroke-width="2" x1="32" x2="96" y1="46" y2="46" /><line fill="none" stroke="#000000" stroke-width="2" x1="64" x2="64" y1="46" y2="94.5" /><line fill="none" stroke="#000000" stroke-width="2" x1="33.5" x2="94.5" y1="68" y2="68" /><line fill="none" stroke="#000000" stroke-width="2" x1="33.5" x2="94.5" y1="16.5" y2="16.5" /><line fill="none" stroke="#000000" stroke-width="2" x1="64" x2="64" y1="16.5" y2="4.5" /><line fill="none" stroke="#000000" stroke-width="2" x1="19.5" x2="19.5" y1="94" y2="6" /><line fill="none" stroke="#000000" stroke-width="2" x1="32.5" x2="4.5" y1="26" y2="26" /><path d="M75.5,46 c3.605,-8.768 6.694,-18.712 9,-29.5" fill="none" stroke="#000000" stroke-width="2" /><path d="M52,46 c-2.146,-9.821 -4.903,-19.985 -8,-29.5" fill="none" stroke="#000000" stroke-width="2" /><path d="M3.5,70 c7.473,-14.471 12.377,-28.562 15.5,-44.5" fill="none" stroke="#000000" stroke-width="2" /><path d="M31.5,59 c-3.664,-10.331 -7.621,-21.329 -11.5,-32" fill="none" stroke="#000000" stroke-width="2" /></svg>