<?xml version='1.0' encoding='utf-8'?>
<svg xmlns="http://www.w3.org/2000/svg" height="100px" version="1.0" viewBox="0 0 100 100" width="100px" x="0px" y="0px">
<line fill="none" stroke="#000000" stroke-width="2" x1="19" x2="19" y1="94" y2="6" /><line fill="none" stroke="#000000" stroke-width="2" x1="31" x2="4" y1="26" y2="26" /><line fill="none" stroke="#000000" stroke-width="2" x1="85" x2="42" y1="30.5" y2="30.5" /><line fill="none" stroke="#000000" stroke-width="2" x1="63.5" x2="63.5" y1="15.5" y2="2.5" /><line fill="none" stroke="#000000" stroke-width="2" x1="95" x2="32" y1="49.5" y2="49.5" /><polyline fill="none" points="92,32.5 92,15.5 35,15.5 35,32.5" stroke="#000000" stroke-width="2" /><path d="M3,70 c7.473,-14.471 12.377,-28.562 15.5,-44.5" fill="none" stroke="#000000" stroke-width="2" /><path d="M31,59 c-3.664,-10.331 -7.621,-21.329 -11.5,-32" fill="none" stroke="#000000" stroke-width="2" /><path d="M65.5,49.5 v37.0 c0,4.344 -0.623,5 -6,5 c-2.422,0 -5.975,-0.136 -11,-0.5" fill="none" stroke="#000000" stroke-width="2" /><path d="M32.5,86.5 c7.301,-6.786 13.416,-15.609 17,-24.5" fill="none" stroke="#000000" stroke-width="2" /><path d="M94.5,87 c-4.914,-8.13 -11.432,-17.015 -18.5,-25" fill="none" stroke="#000000" stroke-width="2" /></svg>