<?xml version='1.0' encoding='utf-8'?>
<svg xmlns="http://www.w3.org/2000/svg" height="100px" version="1.0" viewBox="0 0 100 100" width="100px" x="0px" y="0px">
<line fill="none" stroke="#000000" stroke-width="2" x1="46.5" x2="46.5" y1="45.5" y2="84" /><line fill="none" stroke="#000000" stroke-width="2" x1="79.5" x2="79.5" y1="80" y2="45.5" /><line fill="none" stroke="#000000" stroke-width="2" x1="46.5" x2="79.5" y1="72" y2="72" /><line fill="none" stroke="#000000" stroke-width="2" x1="63" x2="63" y1="37.5" y2="72" /><line fill="none" stroke="#000000" stroke-width="2" x1="39" x2="87" y1="37.5" y2="37.5" /><line fill="none" stroke="#000000" stroke-width="2" x1="17.5" x2="17.5" y1="94" y2="6" /><line fill="none" stroke="#000000" stroke-width="2" x1="30" x2="3.5" y1="26" y2="26" /><path d="M70,37.5 c3.164,-6.425 5.955,-14.035 8,-22" fill="none" stroke="#000000" stroke-width="2" /><path d="M55.5,37.5 c-2.235,-7.086 -5.023,-14.581 -8,-21.5" fill="none" stroke="#000000" stroke-width="2" /><path d="M34,92 v-82.0 h58.0 v72.0 c0,7.565 -0.453,8 -6.135,8 c-2.126,0 -6.521,-0.155 -12.826,-0.5" fill="none" stroke="#000000" stroke-width="2" /><path d="M2.5,70 c6.99,-14.471 11.578,-28.562 14.5,-44.5" fill="none" stroke="#000000" stroke-width="2" /><path d="M30,61 c-3.734,-11.179 -7.831,-22.807 -12,-34" fill="none" stroke="#000000" stroke-width="2" /></svg>