<?xml version='1.0' encoding='utf-8'?>
<svg xmlns="http://www.w3.org/2000/svg" height="100px" version="1.0" viewBox="0 0 100 100" width="100px" x="0px" y="0px">
<line fill="none" stroke="#000000" stroke-width="2" x1="19" x2="19" y1="94" y2="6" /><line fill="none" stroke="#000000" stroke-width="2" x1="31" x2="4" y1="26" y2="26" /><line fill="none" stroke="#000000" stroke-width="2" x1="79" x2="46" y1="26" y2="26" /><line fill="none" stroke="#000000" stroke-width="2" x1="88" x2="37.5" y1="40" y2="40" /><path d="M3,70 c7.473,-14.471 12.377,-28.562 15.5,-44.5" fill="none" stroke="#000000" stroke-width="2" /><path d="M31,59 c-3.664,-10.331 -7.621,-21.329 -11.5,-32" fill="none" stroke="#000000" stroke-width="2" /><path d="M95.5,33 c-13.098,-8.468 -23.138,-16.971 -33,-27.8 c-9.863,10.829 -19.885,19.354 -33,27.8" fill="none" stroke="#000000" stroke-width="2" /><path d="M71,64.5 c6.197,-7.393 11.682,-15.614 16.117,-23.97" fill="none" stroke="#000000" stroke-width="2" /><path d="M47,63.5 v17.0 c0,11.781 0.219,12 15.5,12 c19.219,0 19.541,-0.227 20.5,-15.5" fill="none" stroke="#000000" stroke-width="2" /><path d="M26.5,89.5 c4.703,-6.687 8.704,-15.48 11,-24.5" fill="none" stroke="#000000" stroke-width="2" /><path d="M96,90 c-3.207,-8.657 -7.31,-17.674 -12,-26" fill="none" stroke="#000000" stroke-width="2" /><path d="M68,72 c-4.304,-5.048 -9.357,-10.118 -15,-15" fill="none" stroke="#000000" stroke-width="2" /></svg>