<?xml version='1.0' encoding='utf-8'?>
<svg xmlns="http://www.w3.org/2000/svg" height="100px" version="1.0" viewBox="0 0 100 100" width="100px" x="0px" y="0px">
<line fill="none" stroke="#000000" stroke-width="2" x1="21.5" x2="21.5" y1="94" y2="6" /><line fill="none" stroke="#000000" stroke-width="2" x1="34.5" x2="5" y1="26" y2="26" /><line fill="none" stroke="#000000" stroke-width="2" x1="64.5" x2="64.5" y1="16" y2="5" /><line fill="none" stroke="#000000" stroke-width="2" x1="32" x2="96" y1="16" y2="16" /><polyline fill="none" points="40.5,55 90,55 90,27 39.5,27 39.5,56" stroke="#000000" stroke-width="2" /><path d="M3.5,73 c8.406,-15.363 14.009,-30.544 17.5,-47.5" fill="none" stroke="#000000" stroke-width="2" /><path d="M35.5,59 c-4.276,-10.391 -9.089,-21.397 -14,-32" fill="none" stroke="#000000" stroke-width="2" /><path d="M65.5,56 v28.0 c0,7.291 -0.625,8 -6,8 c-2.492,0 -6.326,-0.155 -11.5,-0.5" fill="none" stroke="#000000" stroke-width="2" /><path d="M31.5,87 c7.579,-6.38 14.591,-15.513 19,-25" fill="none" stroke="#000000" stroke-width="2" /><path d="M95.5,88.5 c-5.742,-9.339 -12.687,-18.44 -20,-26" fill="none" stroke="#000000" stroke-width="2" /></svg>