<?xml version='1.0' encoding='utf-8'?>
<svg xmlns="http://www.w3.org/2000/svg" height="100px" version="1.0" viewBox="0 0 100 100" width="100px" x="0px" y="0px">
<line fill="none" stroke="#000000" stroke-width="2" x1="19" x2="19" y1="94" y2="6" /><line fill="none" stroke="#000000" stroke-width="2" x1="30.5" x2="4" y1="25.5" y2="25.5" /><line fill="none" stroke="#000000" stroke-width="2" x1="33.5" x2="64" y1="25.5" y2="25.5" /><line fill="none" stroke="#000000" stroke-width="2" x1="48" x2="48" y1="49" y2="6" /><line fill="none" stroke="#000000" stroke-width="2" x1="36" x2="59" y1="81" y2="81" /><line fill="none" stroke="#000000" stroke-width="2" x1="69.5" x2="91" y1="59" y2="59" /><line fill="none" stroke="#000000" stroke-width="2" x1="70.5" x2="91" y1="33.5" y2="33.5" /><polyline fill="none" points="60,82 60,49 36,49 36,90" stroke="#000000" stroke-width="2" /><path d="M3,69.5 c7.18,-14.333 11.977,-28.24 15,-44" fill="none" stroke="#000000" stroke-width="2" /><path d="M31.5,52.5 c-3.734,-8.549 -7.849,-17.435 -12,-26" fill="none" stroke="#000000" stroke-width="2" /><path d="M60.5,92.5 c6.149,-10.866 9,-23.313 9,-46.5 v-36.0 H92.0 v73.0 c0,7.724 -0.25,8 -5,8 c-1.819,0 -5.604,-0.155 -11,-0.5" fill="none" stroke="#000000" stroke-width="2" /></svg>