<?xml version='1.0' encoding='utf-8'?>
<svg xmlns="http://www.w3.org/2000/svg" height="100px" version="1.0" viewBox="0 0 100 100" width="100px" x="0px" y="0px">
<line fill="none" stroke="#000000" stroke-width="2" x1="17" x2="17" y1="94" y2="6" /><line fill="none" stroke="#000000" stroke-width="2" x1="28.5" x2="3" y1="25.5" y2="25.5" /><line fill="none" stroke="#000000" stroke-width="2" x1="62.5" x2="62.5" y1="28" y2="4.5" /><line fill="none" stroke="#000000" stroke-width="2" x1="28.5" x2="96.5" y1="14" y2="14" /><line fill="none" stroke="#000000" stroke-width="2" x1="38" x2="87" y1="53.5" y2="53.5" /><line fill="none" stroke="#000000" stroke-width="2" x1="62.5" x2="62.5" y1="53.5" y2="92" /><line fill="none" stroke="#000000" stroke-width="2" x1="39" x2="86" y1="70.5" y2="70.5" /><path d="M2,69.5 c6.99,-14.471 11.578,-28.562 14.5,-44.5" fill="none" stroke="#000000" stroke-width="2" /><path d="M27.5,52.5 c-3.111,-8.549 -6.541,-17.435 -10,-26" fill="none" stroke="#000000" stroke-width="2" /><path d="M69.5,53.5 c2.967,-5.841 5.583,-12.76 7.5,-20" fill="none" stroke="#000000" stroke-width="2" /><path d="M55,53.5 c-2.096,-6.427 -4.709,-13.225 -7.5,-19.5" fill="none" stroke="#000000" stroke-width="2" /><path d="M74.6,90.5 c5.958,0.36 9.892,0.5 11.9,0.5 c5.471,0 6,-0.634 6,-8 v-55.0 h-60.0 v65.0" fill="none" stroke="#000000" stroke-width="2" /></svg>