<?xml version='1.0' encoding='utf-8'?>
<svg xmlns="http://www.w3.org/2000/svg" height="100px" version="1.0" viewBox="0 0 100 100" width="100px" x="0px" y="0px">
<line fill="none" stroke="#000000" stroke-width="2" x1="19.5" x2="19.5" y1="94" y2="6" /><line fill="none" stroke="#000000" stroke-width="2" x1="31.5" x2="4.5" y1="25" y2="25" /><line fill="none" stroke="#000000" stroke-width="2" x1="41" x2="90" y1="41" y2="41" /><line fill="none" stroke="#000000" stroke-width="2" x1="52" x2="78" y1="18.5" y2="18.5" /><line fill="none" stroke="#000000" stroke-width="2" x1="92" x2="92" y1="94" y2="66" /><line fill="none" stroke="#000000" stroke-width="2" x1="41.5" x2="92" y1="88" y2="88" /><polyline fill="none" points="91,67 41.5,67 41.5,94" stroke="#000000" stroke-width="2" /><path d="M3.5,69 c7.473,-14.471 12.377,-28.562 15.5,-44.5" fill="none" stroke="#000000" stroke-width="2" /><path d="M31.5,58 c-3.664,-10.331 -7.621,-21.329 -11.5,-32" fill="none" stroke="#000000" stroke-width="2" /><path d="M98,28 c-12.564,-6.879 -23.05,-14.302 -33,-23.3 c-9.949,8.998 -20.436,16.421 -33,23.3" fill="none" stroke="#000000" stroke-width="2" /><path d="M26,91 c9.015,-10.277 14,-25.306 14,-47 v-17.0 h50.0 v29.0 h-50.5" fill="none" stroke="#000000" stroke-width="2" /></svg>