<?xml version='1.0' encoding='utf-8'?>
<svg xmlns="http://www.w3.org/2000/svg" height="100px" version="1.0" viewBox="0 0 100 100" width="100px" x="0px" y="0px">
<line fill="none" stroke="#000000" stroke-width="2" x1="19" x2="19" y1="94" y2="6" /><line fill="none" stroke="#000000" stroke-width="2" x1="31" x2="4" y1="26" y2="26" /><line fill="none" stroke="#000000" stroke-width="2" x1="30.5" x2="95" y1="14.5" y2="14.5" /><line fill="none" stroke="#000000" stroke-width="2" x1="53" x2="53" y1="49" y2="3.5" /><line fill="none" stroke="#000000" stroke-width="2" x1="72.5" x2="72.5" y1="49" y2="3.5" /><line fill="none" stroke="#000000" stroke-width="2" x1="35" x2="90.5" y1="37" y2="37" /><line fill="none" stroke="#000000" stroke-width="2" x1="38.5" x2="87" y1="87" y2="87" /><line fill="none" stroke="#000000" stroke-width="2" x1="38.5" x2="87" y1="73" y2="73" /><polyline fill="none" points="35,50 91.5,50 91.5,24 34,24 34,51" stroke="#000000" stroke-width="2" /><polyline fill="none" points="88,93 88,59 37.5,59 37.5,93" stroke="#000000" stroke-width="2" /><path d="M3,70 c7.473,-14.471 12.377,-28.562 15.5,-44.5" fill="none" stroke="#000000" stroke-width="2" /><path d="M31,59 c-3.664,-10.331 -7.621,-21.329 -11.5,-32" fill="none" stroke="#000000" stroke-width="2" /></svg>