<?xml version='1.0' encoding='utf-8'?>
<svg xmlns="http://www.w3.org/2000/svg" height="100px" version="1.0" viewBox="0 0 100 100" width="100px" x="0px" y="0px">
<line fill="none" stroke="#000000" stroke-width="2" x1="18" x2="18" y1="94" y2="6" /><line fill="none" stroke="#000000" stroke-width="2" x1="29.5" x2="4" y1="26" y2="26" /><line fill="none" stroke="#000000" stroke-width="2" x1="48" x2="48" y1="11.5" y2="25" /><line fill="none" stroke="#000000" stroke-width="2" x1="48" x2="48" y1="40" y2="53.5" /><line fill="none" stroke="#000000" stroke-width="2" x1="32.5" x2="61.5" y1="54.5" y2="54.5" /><line fill="none" stroke="#000000" stroke-width="2" x1="64.5" x2="94" y1="11" y2="11" /><line fill="none" stroke="#000000" stroke-width="2" x1="29" x2="95" y1="89" y2="89" /><line fill="none" stroke="#000000" stroke-width="2" x1="90" x2="34" y1="69" y2="69" /><line fill="none" stroke="#000000" stroke-width="2" x1="62" x2="62" y1="89" y2="58.5" /><polyline fill="none" points="61.5,10.5 32.5,10.5 32.5,61.5" stroke="#000000" stroke-width="2" /><polyline fill="none" points="33.5,40 60,40 60,25 33.5,25" stroke="#000000" stroke-width="2" /><path d="M29,57 c-3.176,-9.562 -6.975,-20.302 -10.5,-30" fill="none" stroke="#000000" stroke-width="2" /><path d="M3,70 c6.99,-14.471 11.578,-28.562 14.5,-44.5" fill="none" stroke="#000000" stroke-width="2" /><path d="M64,55 c14.33,-9.567 23.539,-22.771 29.035,-43.26" fill="none" stroke="#000000" stroke-width="2" /><path d="M96.5,58 c-12.57,-10.423 -23.033,-25.247 -29.5,-42.5" fill="none" stroke="#000000" stroke-width="2" /></svg>