<?xml version='1.0' encoding='utf-8'?>
<svg xmlns="http://www.w3.org/2000/svg" height="100px" version="1.0" viewBox="0 0 100 100" width="100px" x="0px" y="0px">
<line fill="none" stroke="#000000" stroke-width="2" x1="17.5" x2="17.5" y1="94" y2="6" /><line fill="none" stroke="#000000" stroke-width="2" x1="28.5" x2="3.5" y1="26" y2="26" /><line fill="none" stroke="#000000" stroke-width="2" x1="25.5" x2="95.5" y1="16.5" y2="16.5" /><line fill="none" stroke="#000000" stroke-width="2" x1="44.5" x2="44.5" y1="29.5" y2="4.5" /><line fill="none" stroke="#000000" stroke-width="2" x1="76.5" x2="76.5" y1="29.5" y2="4.5" /><line fill="none" stroke="#000000" stroke-width="2" x1="38" x2="38" y1="30.5" y2="64.5" /><line fill="none" stroke="#000000" stroke-width="2" x1="93" x2="28" y1="29.5" y2="29.5" /><line fill="none" stroke="#000000" stroke-width="2" x1="83" x2="83" y1="64.5" y2="30.5" /><line fill="none" stroke="#000000" stroke-width="2" x1="28" x2="93" y1="65.5" y2="65.5" /><line fill="none" stroke="#000000" stroke-width="2" x1="25" x2="96.5" y1="47" y2="47" /><line fill="none" stroke="#000000" stroke-width="2" x1="25.5" x2="95.5" y1="80" y2="80" /><line fill="none" stroke="#000000" stroke-width="2" x1="60.5" x2="60.5" y1="95.5" y2="30.5" /><path d="M2.5,70 c6.99,-14.471 11.578,-28.562 14.5,-44.5" fill="none" stroke="#000000" stroke-width="2" /><path d="M27,53 c-2.801,-8.549 -5.887,-17.435 -9,-26" fill="none" stroke="#000000" stroke-width="2" /></svg>