<?xml version='1.0' encoding='utf-8'?>
<svg xmlns="http://www.w3.org/2000/svg" height="100px" version="1.0" viewBox="0 0 100 100" width="100px" x="0px" y="0px">
<line fill="none" stroke="#000000" stroke-width="2" x1="17.5" x2="17.5" y1="94" y2="6" /><line fill="none" stroke="#000000" stroke-width="2" x1="28.5" x2="3.5" y1="26" y2="26" /><line fill="none" stroke="#000000" stroke-width="2" x1="25" x2="95" y1="90" y2="90" /><line fill="none" stroke="#000000" stroke-width="2" x1="26" x2="94" y1="49" y2="49" /><line fill="none" stroke="#000000" stroke-width="2" x1="27" x2="93" y1="10" y2="10" /><line fill="none" stroke="#000000" stroke-width="2" x1="60" x2="60" y1="81" y2="58" /><line fill="none" stroke="#000000" stroke-width="2" x1="33" x2="88" y1="69.5" y2="69.5" /><line fill="none" stroke="#000000" stroke-width="2" x1="60" x2="60" y1="40" y2="19" /><line fill="none" stroke="#000000" stroke-width="2" x1="34" x2="87" y1="29.5" y2="29.5" /><polyline fill="none" points="33,82 88,82 88,57 32,57 32,83" stroke="#000000" stroke-width="2" /><polyline fill="none" points="34,41 87,41 87,18 33,18 33,42" stroke="#000000" stroke-width="2" /><path d="M2.5,70 c6.99,-14.471 11.578,-28.562 14.5,-44.5" fill="none" stroke="#000000" stroke-width="2" /><path d="M28.5,57 c-3.268,-9.864 -6.852,-20.124 -10.5,-30" fill="none" stroke="#000000" stroke-width="2" /></svg>