<?xml version='1.0' encoding='utf-8'?>
<svg xmlns="http://www.w3.org/2000/svg" height="100px" version="1.0" viewBox="0 0 100 100" width="100px" x="0px" y="0px">
<line fill="none" stroke="#000000" stroke-width="2" x1="4.5" x2="38.5" y1="11.5" y2="11.5" /><line fill="none" stroke="#000000" stroke-width="2" x1="16.5" x2="36" y1="29" y2="29" /><line fill="none" stroke="#000000" stroke-width="2" x1="45.5" x2="88.5" y1="87" y2="87" /><line fill="none" stroke="#000000" stroke-width="2" x1="37.5" x2="96.5" y1="41.5" y2="41.5" /><line fill="none" stroke="#000000" stroke-width="2" x1="38.5" x2="95.5" y1="15.5" y2="15.5" /><line fill="none" stroke="#000000" stroke-width="2" x1="67" x2="67" y1="15" y2="3.5" /><polyline fill="none" points="89.5,93 89.5,55.5 44.5,55.5 44.5,93" stroke="#000000" stroke-width="2" /><path d="M3.5,59.5 c7.936,-12.451 13.933,-29.251 16.5,-48" fill="none" stroke="#000000" stroke-width="2" /><path d="M35,29.965 c-0.98,27.903 -13.546,51.281 -30,61.035" fill="none" stroke="#000000" stroke-width="2" /><path d="M29.5,58.5 c-4.643,-3.688 -10.316,-7.72 -15.5,-11" fill="none" stroke="#000000" stroke-width="2" /><path d="M77.5,41.5 c3.418,-7.409 6.219,-16.329 8,-26" fill="none" stroke="#000000" stroke-width="2" /><path d="M55.5,41.5 c-2.117,-8.986 -4.596,-17.603 -7.5,-26" fill="none" stroke="#000000" stroke-width="2" /></svg>