<?xml version='1.0' encoding='utf-8'?>
<svg xmlns="http://www.w3.org/2000/svg" height="100px" version="1.0" viewBox="0 0 100 100" width="100px" x="0px" y="0px">
<line fill="none" stroke="#000000" stroke-width="2" x1="50.5" x2="92" y1="48" y2="48" /><line fill="none" stroke="#000000" stroke-width="2" x1="7.5" x2="45.5" y1="34" y2="34" /><line fill="none" stroke="#000000" stroke-width="2" x1="48" x2="5" y1="17" y2="17" /><line fill="none" stroke="#000000" stroke-width="2" x1="26.5" x2="26.5" y1="34" y2="6" /><polyline fill="none" points="46,57 46,45 6.5,45 6.5,57" stroke="#000000" stroke-width="2" /><path d="M49,42.5 c6.089,-5.153 9,-12.41 9,-26 v-6.5 h26.0 v26.5 c0,2.521 0.612,3 4.5,3 c7.141,0 7.572,-0.359 8,-13.5" fill="none" stroke="#000000" stroke-width="2" /><path d="M5.5,91.5 c6.582,-5.387 9.5,-12.41 9.5,-26 v-9.5 h23.5 v22.0 c0,2.521 0.611,3 7.5,3 c7.141,0 7.572,-0.359 8,-13.5" fill="none" stroke="#000000" stroke-width="2" /><path d="M44.5,91 c24.025,-9.29 37.761,-21.89 46.58,-42.396" fill="none" stroke="#000000" stroke-width="2" /><path d="M96,91 c-16.346,-8.014 -31.134,-21.82 -40,-37.5" fill="none" stroke="#000000" stroke-width="2" /></svg>