<?xml version='1.0' encoding='utf-8'?>
<svg xmlns="http://www.w3.org/2000/svg" height="100px" version="1.0" viewBox="0 0 100 100" width="100px" x="0px" y="0px">
<line fill="none" stroke="#000000" stroke-width="2" x1="51" x2="9.5" y1="66.5" y2="66.5" /><line fill="none" stroke="#000000" stroke-width="2" x1="11" x2="49" y1="45.5" y2="45.5" /><line fill="none" stroke="#000000" stroke-width="2" x1="23" x2="23" y1="66.5" y2="33" /><line fill="none" stroke="#000000" stroke-width="2" x1="40" x2="40" y1="66.5" y2="33" /><line fill="none" stroke="#000000" stroke-width="2" x1="51" x2="92" y1="48" y2="48" /><polyline fill="none" points="12,10 49,10 49,29 11,29" stroke="#000000" stroke-width="2" /><path d="M4.5,90 c4.315,-11.968 6.5,-27.663 6.5,-51 v-30.0" fill="none" stroke="#000000" stroke-width="2" /><path d="M10,92 c6.54,-5.471 12.277,-12.91 15.5,-20" fill="none" stroke="#000000" stroke-width="2" /><path d="M47.5,86 c-2.452,-4.765 -5.986,-9.783 -10,-14" fill="none" stroke="#000000" stroke-width="2" /><path d="M50,42.5 c6.656,-5.471 9,-11.316 9,-26 V10.0 h22.5 v26.5 c0,2.755 0.328,3 4,3 c9.676,0 9.928,-0.274 11,-13.5" fill="none" stroke="#000000" stroke-width="2" /><path d="M46.5,91 c23.002,-8.812 35.948,-20.947 44.572,-42.373" fill="none" stroke="#000000" stroke-width="2" /><path d="M95.5,91 c-17.729,-9.464 -31.564,-22.547 -40,-37.5" fill="none" stroke="#000000" stroke-width="2" /></svg>