<?xml version='1.0' encoding='utf-8'?>
<svg xmlns="http://www.w3.org/2000/svg" height="100px" version="1.0" viewBox="0 0 100 100" width="100px" x="0px" y="0px">
<line fill="none" stroke="#000000" stroke-width="2" x1="20" x2="80" y1="87" y2="87" /><line fill="none" stroke="#000000" stroke-width="2" x1="20" x2="80" y1="69.5" y2="69.5" /><line fill="none" stroke="#000000" stroke-width="2" x1="7" x2="43" y1="14" y2="14" /><polyline fill="none" points="81,93 81,52.5 19,52.5 19,93" stroke="#000000" stroke-width="2" /><path d="M51,5 v33.0 c0,7.011 -0.977,8 -7.5,8 c-3.369,0 -8.216,-0.152 -14.5,-0.5" fill="none" stroke="#000000" stroke-width="2" /><path d="M51,11 c7.255,14.257 24.232,29.706 44,39" fill="none" stroke="#000000" stroke-width="2" /><path d="M90,10 c-8.131,7.106 -17.207,13.026 -27,17.5" fill="none" stroke="#000000" stroke-width="2" /><path d="M42.098,14.569 c-6.144,12.87 -20.206,26.401 -37.098,34.931" fill="none" stroke="#000000" stroke-width="2" /></svg>