<?xml version='1.0' encoding='utf-8'?>
<svg xmlns="http://www.w3.org/2000/svg" height="100px" version="1.0" viewBox="0 0 100 100" width="100px" x="0px" y="0px">
<line fill="none" stroke="#000000" stroke-width="2" x1="42" x2="95" y1="36" y2="36" /><line fill="none" stroke="#000000" stroke-width="2" x1="73" x2="73" y1="93" y2="36" /><path d="M10.5,91.5 c7.488,-9.315 13.692,-19.837 18,-30.5" fill="none" stroke="#000000" stroke-width="2" /><path d="M29.5,22.5 c-5.097,-4.456 -11.205,-9.245 -18,-14" fill="none" stroke="#000000" stroke-width="2" /><path d="M26,45.5 c-5.598,-4.911 -11.94,-9.858 -19.5,-15" fill="none" stroke="#000000" stroke-width="2" /><path d="M41.558,14.999 c19.639,-1.143 35.506,-3.553 47.942,-7" fill="none" stroke="#000000" stroke-width="2" /><path d="M26.5,90.5 c11.709,-14.81 16,-30.675 16,-76.5" fill="none" stroke="#000000" stroke-width="2" /><path d="M92.5,76 c-13.419,-11.235 -29.363,-21.739 -44,-29" fill="none" stroke="#000000" stroke-width="2" /></svg>