<?xml version='1.0' encoding='utf-8'?>
<svg xmlns="http://www.w3.org/2000/svg" height="100px" version="1.0" viewBox="0 0 100 100" width="100px" x="0px" y="0px">
<line fill="none" stroke="#000000" stroke-width="2" x1="34.5" x2="90" y1="86" y2="86" /><line fill="none" stroke="#000000" stroke-width="2" x1="30" x2="95" y1="11" y2="11" /><polyline fill="none" points="91,93 91,29 33.5,29 33.5,93" stroke="#000000" stroke-width="2" /><path d="M54.5,12 v17.0 v9.0 c0,19.897 -3.437,25.774 -17,33" fill="none" stroke="#000000" stroke-width="2" /><path d="M69,12 v42.0 c0,8.434 0.777,9 7.5,9 h13.5" fill="none" stroke="#000000" stroke-width="2" /><path d="M9,91.5 c7.072,-9.315 12.963,-19.819 17,-30.5" fill="none" stroke="#000000" stroke-width="2" /><path d="M26,22.5 c-4.551,-4.456 -9.955,-9.209 -16,-14" fill="none" stroke="#000000" stroke-width="2" /><path d="M22.5,45.5 c-5.014,-4.892 -10.751,-9.858 -17.5,-15" fill="none" stroke="#000000" stroke-width="2" /></svg>