<?xml version='1.0' encoding='utf-8'?>
<svg xmlns="http://www.w3.org/2000/svg" height="100px" version="1.0" viewBox="0 0 100 100" width="100px" x="0px" y="0px">
<line fill="none" stroke="#000000" stroke-width="2" x1="90.5" x2="90.5" y1="9" y2="92" /><line fill="none" stroke="#000000" stroke-width="2" x1="67" x2="67" y1="11" y2="87" /><path d="M8,91.5 c5.156,-9.315 9.464,-19.845 12.5,-30.5" fill="none" stroke="#000000" stroke-width="2" /><path d="M23.5,22.5 c-4.127,-4.427 -9.06,-9.209 -14.5,-14" fill="none" stroke="#000000" stroke-width="2" /><path d="M20.5,45.5 c-4.589,-4.819 -9.926,-9.858 -16,-15" fill="none" stroke="#000000" stroke-width="2" /><path d="M27.5,92.5 c10.219,-8.89 16,-23.648 16,-46.5 v-37.0" fill="none" stroke="#000000" stroke-width="2" /><path d="M27,59.5 c4.188,-9.286 6.974,-19.372 8,-29" fill="none" stroke="#000000" stroke-width="2" /><path d="M58.5,56.5 c-1.391,-7.636 -4.5,-17.88 -8,-26" fill="none" stroke="#000000" stroke-width="2" /><path d="M82,56.5 c-1.391,-7.636 -4.5,-17.88 -8,-26" fill="none" stroke="#000000" stroke-width="2" /></svg>