<?xml version='1.0' encoding='utf-8'?>
<svg xmlns="http://www.w3.org/2000/svg" height="100px" version="1.0" viewBox="0 0 100 100" width="100px" x="0px" y="0px">
<line fill="none" stroke="#000000" stroke-width="2" x1="49" x2="81" y1="12.5" y2="12.5" /><line fill="none" stroke="#000000" stroke-width="2" x1="33" x2="89" y1="65" y2="65" /><line fill="none" stroke="#000000" stroke-width="2" x1="29" x2="97" y1="46.5" y2="46.5" /><polyline fill="none" points="90,71 90,28.5 38.5,28.5" stroke="#000000" stroke-width="2" /><path d="M9,91.5 c7.072,-9.315 12.963,-19.819 17,-30.5" fill="none" stroke="#000000" stroke-width="2" /><path d="M26,22.5 c-4.551,-4.456 -9.955,-9.209 -16,-14" fill="none" stroke="#000000" stroke-width="2" /><path d="M22.5,45.5 c-5.014,-4.892 -10.751,-9.858 -17.5,-15" fill="none" stroke="#000000" stroke-width="2" /><path d="M64.5,28.5 c5.432,-4.579 11.461,-10.559 15.734,-15.644" fill="none" stroke="#000000" stroke-width="2" /><path d="M27.5,33.5 c11.534,-8.23 20.754,-18.38 27,-29.5" fill="none" stroke="#000000" stroke-width="2" /><path d="M65,29.5 v53.5 c0,7.13 -0.623,8 -7.5,8 c-3.408,0 -7.607,-0.146 -13.5,-0.5" fill="none" stroke="#000000" stroke-width="2" /></svg>