<?xml version='1.0' encoding='utf-8'?>
<svg xmlns="http://www.w3.org/2000/svg" height="100px" version="1.0" viewBox="0 0 100 100" width="100px" x="0px" y="0px">
<line fill="none" stroke="#000000" stroke-width="2" x1="35" x2="90" y1="66" y2="66" /><line fill="none" stroke="#000000" stroke-width="2" x1="35" x2="90" y1="45.5" y2="45.5" /><line fill="none" stroke="#000000" stroke-width="2" x1="31" x2="92" y1="10" y2="10" /><line fill="none" stroke="#000000" stroke-width="2" x1="62.5" x2="62.5" y1="28" y2="91" /><path d="M9.5,91.5 c7.072,-9.315 12.963,-19.819 17,-30.5" fill="none" stroke="#000000" stroke-width="2" /><path d="M26.5,22.5 c-4.551,-4.456 -9.955,-9.209 -16,-14" fill="none" stroke="#000000" stroke-width="2" /><path d="M23,45.5 c-5.014,-4.892 -10.751,-9.858 -17.5,-15" fill="none" stroke="#000000" stroke-width="2" /><path d="M34,93 v-66.0 h57.0 v56.5 c0,7.366 -0.615,8 -6.5,8 c-2.076,0 -5.842,-0.134 -12,-0.5" fill="none" stroke="#000000" stroke-width="2" /><path d="M43.5,15.5 c6.378,3.351 13.133,7.257 20,11.5" fill="none" stroke="#000000" stroke-width="2" /><path d="M91.385,10.211 c-4.354,3.396 -17.674,10.737 -29.385,15.789" fill="none" stroke="#000000" stroke-width="2" /></svg>