<?xml version='1.0' encoding='utf-8'?>
<svg xmlns="http://www.w3.org/2000/svg" height="100px" version="1.0" viewBox="0 0 100 100" width="100px" x="0px" y="0px">
<line fill="none" stroke="#000000" stroke-width="2" x1="61.5" x2="61.5" y1="16" y2="5" /><line fill="none" stroke="#000000" stroke-width="2" x1="27" x2="96" y1="16" y2="16" /><polyline fill="none" points="36,55 88,55 88,27 35,27 35,56" stroke="#000000" stroke-width="2" /><path d="M8,91.5 c7.072,-9.315 12.963,-19.819 17,-30.5" fill="none" stroke="#000000" stroke-width="2" /><path d="M25,22.5 c-4.551,-4.456 -9.955,-9.209 -16,-14" fill="none" stroke="#000000" stroke-width="2" /><path d="M21.5,45.5 c-5.014,-4.892 -10.751,-9.858 -17.5,-15" fill="none" stroke="#000000" stroke-width="2" /><path d="M62.5,56 v28.0 c0,7.291 -0.537,8 -6,8 c-2.564,0 -6.678,-0.164 -12,-0.5" fill="none" stroke="#000000" stroke-width="2" /><path d="M27.5,87 c8.238,-6.313 15.742,-15.513 20.5,-25" fill="none" stroke="#000000" stroke-width="2" /><path d="M95,88.5 c-6.317,-9.339 -13.954,-18.44 -22,-26" fill="none" stroke="#000000" stroke-width="2" /></svg>