<?xml version='1.0' encoding='utf-8'?>
<svg xmlns="http://www.w3.org/2000/svg" height="100px" version="1.0" viewBox="0 0 100 100" width="100px" x="0px" y="0px">
<line fill="none" stroke="#000000" stroke-width="2" x1="38.167" x2="38.167" y1="54.833" y2="83.833" /><line fill="none" stroke="#000000" stroke-width="2" x1="57.167" x2="57.167" y1="27.833" y2="74.333" /><line fill="none" stroke="#000000" stroke-width="2" x1="77.667" x2="43.167" y1="27.833" y2="27.833" /><line fill="none" stroke="#000000" stroke-width="2" x1="81.667" x2="32.667" y1="47.833" y2="47.833" /><polyline fill="none" points="38.167,74.333 76.167,74.333 76.167,54.833" stroke="#000000" stroke-width="2" /><path d="M8.5,91.5 c5.156,-9.315 9.464,-19.845 12.5,-30.5" fill="none" stroke="#000000" stroke-width="2" /><path d="M24,22.5 c-4.127,-4.427 -9.06,-9.209 -14.5,-14" fill="none" stroke="#000000" stroke-width="2" /><path d="M21,45.5 c-4.589,-4.819 -9.926,-9.858 -16,-15" fill="none" stroke="#000000" stroke-width="2" /><path d="M23.5,38.5 c7.912,-8.975 14.637,-21.538 18,-34" fill="none" stroke="#000000" stroke-width="2" /><path d="M38,15 h55.0 c-1.854,69.393 -4.388,75 -11.5,75 c-4.824,0 -12.727,-0.34 -21,-1" fill="none" stroke="#000000" stroke-width="2" /><path d="M35.5,42 c4.75,-6.478 8.643,-14.69 11,-23.5" fill="none" stroke="#000000" stroke-width="2" /></svg>