<?xml version='1.0' encoding='utf-8'?>
<svg xmlns="http://www.w3.org/2000/svg" height="100px" version="1.0" viewBox="0 0 100 100" width="100px" x="0px" y="0px">
<line fill="none" stroke="#000000" stroke-width="2" x1="84" x2="40" y1="30.5" y2="30.5" /><line fill="none" stroke="#000000" stroke-width="2" x1="62" x2="62" y1="15.5" y2="2.5" /><line fill="none" stroke="#000000" stroke-width="2" x1="94.5" x2="29.5" y1="49.5" y2="49.5" /><polyline fill="none" points="91.5,32.5 91.5,15.5 32.5,15.5 32.5,32.5" stroke="#000000" stroke-width="2" /><path d="M8,91.5 c7.072,-9.315 12.963,-19.819 17,-30.5" fill="none" stroke="#000000" stroke-width="2" /><path d="M26,22.5 c-4.551,-4.456 -9.955,-9.209 -16,-14" fill="none" stroke="#000000" stroke-width="2" /><path d="M21.5,45.5 c-5.014,-4.892 -10.751,-9.858 -17.5,-15" fill="none" stroke="#000000" stroke-width="2" /><path d="M63.5,49.5 v37.0 c0,4.344 -0.623,5 -6,5 c-2.422,0 -5.975,-0.145 -11,-0.5" fill="none" stroke="#000000" stroke-width="2" /><path d="M30,86.5 c7.516,-6.786 13.811,-15.609 17.5,-24.5" fill="none" stroke="#000000" stroke-width="2" /><path d="M94,87 c-5.047,-8.13 -11.74,-17.015 -19,-25" fill="none" stroke="#000000" stroke-width="2" /></svg>