<?xml version='1.0' encoding='utf-8'?>
<svg xmlns="http://www.w3.org/2000/svg" height="100px" version="1.0" viewBox="0 0 100 100" width="100px" x="0px" y="0px">
<line fill="none" stroke="#000000" stroke-width="2" x1="40" x2="40" y1="53" y2="93.5" /><line fill="none" stroke="#000000" stroke-width="2" x1="40" x2="88.5" y1="87.5" y2="87.5" /><line fill="none" stroke="#000000" stroke-width="2" x1="41" x2="88.5" y1="69.5" y2="69.5" /><line fill="none" stroke="#000000" stroke-width="2" x1="27" x2="96" y1="37.5" y2="37.5" /><line fill="none" stroke="#000000" stroke-width="2" x1="87.5" x2="33" y1="17" y2="17" /><line fill="none" stroke="#000000" stroke-width="2" x1="60" x2="60" y1="37.5" y2="4" /><polyline fill="none" points="88.5,93.5 88.5,52.5 40.5,52.5" stroke="#000000" stroke-width="2" /><path d="M8.5,91.5 c7.072,-9.315 12.963,-19.819 17,-30.5" fill="none" stroke="#000000" stroke-width="2" /><path d="M26.5,22.5 c-4.551,-4.456 -9.955,-9.209 -16,-14" fill="none" stroke="#000000" stroke-width="2" /><path d="M22,45.5 c-5.014,-4.892 -10.751,-9.858 -17.5,-15" fill="none" stroke="#000000" stroke-width="2" /><path d="M28,58.5 c28.266,-12.399 50.461,-29.403 65.5,-49" fill="none" stroke="#000000" stroke-width="2" /></svg>