<?xml version='1.0' encoding='utf-8'?>
<svg xmlns="http://www.w3.org/2000/svg" height="100px" version="1.0" viewBox="0 0 100 100" width="100px" x="0px" y="0px">
<line fill="none" stroke="#000000" stroke-width="2" x1="89" x2="89" y1="93.5" y2="51" /><line fill="none" stroke="#000000" stroke-width="2" x1="61.5" x2="61.5" y1="87.5" y2="53" /><line fill="none" stroke="#000000" stroke-width="2" x1="34" x2="89" y1="87.5" y2="87.5" /><line fill="none" stroke="#000000" stroke-width="2" x1="35" x2="88" y1="69.5" y2="69.5" /><polyline fill="none" points="88,52 34,52 34,93.5" stroke="#000000" stroke-width="2" /><path d="M9,91.5 c7.072,-9.315 12.963,-19.819 17,-30.5" fill="none" stroke="#000000" stroke-width="2" /><path d="M26,22.5 c-4.551,-4.456 -9.955,-9.209 -16,-14" fill="none" stroke="#000000" stroke-width="2" /><path d="M22.5,45.5 c-5.014,-4.892 -10.751,-9.858 -17.5,-15" fill="none" stroke="#000000" stroke-width="2" /><path d="M60.5,47 c8.43,-7.396 14.082,-20.725 14.5,-36" fill="none" stroke="#000000" stroke-width="2" /><path d="M61,11 h32.0 c-0.652,30.143 -2.248,33 -6,33 c-2.031,0 -7.225,-0.463 -10.5,-1" fill="none" stroke="#000000" stroke-width="2" /><path d="M25.5,46 c10.996,-3.615 20.411,-8.279 30.5,-15" fill="none" stroke="#000000" stroke-width="2" /><path d="M58.5,6 c-9.109,3.315 -17.48,5.604 -27.5,7.5 l1,30" fill="none" stroke="#000000" stroke-width="2" /><path d="M61,40 c-3.441,-6.639 -8.587,-15.183 -13,-21.5" fill="none" stroke="#000000" stroke-width="2" /></svg>