<?xml version='1.0' encoding='utf-8'?>
<svg xmlns="http://www.w3.org/2000/svg" height="100px" version="1.0" viewBox="0 0 100 100" width="100px" x="0px" y="0px">
<line fill="none" stroke="#000000" stroke-width="2" x1="38" x2="89" y1="41" y2="41" /><line fill="none" stroke="#000000" stroke-width="2" x1="49" x2="77" y1="18.5" y2="18.5" /><line fill="none" stroke="#000000" stroke-width="2" x1="91" x2="91" y1="94" y2="66" /><line fill="none" stroke="#000000" stroke-width="2" x1="38.5" x2="91" y1="88" y2="88" /><polyline fill="none" points="90,67 38.5,67 38.5,94" stroke="#000000" stroke-width="2" /><path d="M8,91.5 c7.072,-9.315 12.963,-19.819 17,-30.5" fill="none" stroke="#000000" stroke-width="2" /><path d="M25,22.5 c-4.551,-4.456 -9.955,-9.209 -16,-14" fill="none" stroke="#000000" stroke-width="2" /><path d="M21.5,45.5 c-5.014,-4.892 -10.751,-9.858 -17.5,-15" fill="none" stroke="#000000" stroke-width="2" /><path d="M98,28 c-13.326,-6.879 -24.447,-14.302 -35,-23.3 c-10.553,8.998 -21.674,16.421 -35,23.3" fill="none" stroke="#000000" stroke-width="2" /><path d="M23,91 c9.015,-10.277 14,-25.306 14,-47 v-17.0 h52.0 v29.0 h-52.5" fill="none" stroke="#000000" stroke-width="2" /></svg>