<?xml version='1.0' encoding='utf-8'?>
<svg xmlns="http://www.w3.org/2000/svg" height="100px" version="1.0" viewBox="0 0 100 100" width="100px" x="0px" y="0px">
<line fill="none" stroke="#000000" stroke-width="2" x1="61.5" x2="61.5" y1="35" y2="2" /><line fill="none" stroke="#000000" stroke-width="2" x1="94.5" x2="28.5" y1="14.5" y2="14.5" /><path d="M96,58 c-13.677,-5.854 -23.979,-11.956 -34.5,-20.3 c-10.521,8.344 -20.74,14.464 -34.5,20.3" fill="none" stroke="#000000" stroke-width="2" /><path d="M8,91.5 c6.24,-9.315 11.438,-19.819 15,-30.5" fill="none" stroke="#000000" stroke-width="2" /><path d="M25,22.5 c-4.551,-4.456 -9.955,-9.209 -16,-14" fill="none" stroke="#000000" stroke-width="2" /><path d="M21.5,45.5 c-5.014,-4.892 -10.751,-9.858 -17.5,-15" fill="none" stroke="#000000" stroke-width="2" /><path d="M61.5,49 v37.5 c0,4.644 -0.428,5 -5,5 c-1.57,0 -5.888,-0.147 -11.5,-0.5" fill="none" stroke="#000000" stroke-width="2" /><path d="M27.5,89 c9.838,-3.5 19.612,-9.118 28,-16" fill="none" stroke="#000000" stroke-width="2" /><path d="M95.5,90 c-9.354,-7.422 -19.229,-13.4 -28,-17" fill="none" stroke="#000000" stroke-width="2" /><path d="M96,38 c-11.764,-9.599 -23.596,-17.342 -34,-22.5" fill="none" stroke="#000000" stroke-width="2" /><path d="M53.5,69.5 c-4.268,-4.473 -9.157,-8.712 -14.5,-12.5" fill="none" stroke="#000000" stroke-width="2" /><path d="M84,57 c-4.225,4.323 -9.116,8.385 -14.5,12" fill="none" stroke="#000000" stroke-width="2" /><path d="M27,38 c17.258,-8.226 26.605,-15.14 33.5,-23.5" fill="none" stroke="#000000" stroke-width="2" /></svg>