<?xml version='1.0' encoding='utf-8'?>
<svg xmlns="http://www.w3.org/2000/svg" height="100px" version="1.0" viewBox="0 0 100 100" width="100px" x="0px" y="0px">
<line fill="none" stroke="#000000" stroke-width="2" x1="29" x2="95" y1="14" y2="14" /><line fill="none" stroke="#000000" stroke-width="2" x1="62" x2="62" y1="14" y2="3" /><polyline fill="none" points="88,18 88,46 36,46 36,18" stroke="#000000" stroke-width="2" /><path d="M9,91.5 c7.072,-9.315 12.963,-19.819 17,-30.5" fill="none" stroke="#000000" stroke-width="2" /><path d="M25,22.5 c-4.551,-4.456 -9.955,-9.209 -16,-14" fill="none" stroke="#000000" stroke-width="2" /><path d="M22.5,45.5 c-5.014,-4.892 -10.751,-9.858 -17.5,-15" fill="none" stroke="#000000" stroke-width="2" /><path d="M45,78 c6.061,-9.988 11.826,-21.204 16.5,-32" fill="none" stroke="#000000" stroke-width="2" /><path d="M86,82 c-4.215,-7.152 -10.297,-16.397 -15.5,-23.5" fill="none" stroke="#000000" stroke-width="2" /><path d="M37.5,78 c14.29,-0.499 29.055,-1.701 44,-3.5" fill="none" stroke="#000000" stroke-width="2" /><path d="M32,93.5 V55.0 h60.0 v32.46 c0,4.282 -0.255,4.54 -7,4.54 c-2.408,0 -6.529,-0.159 -13.5,-0.5" fill="none" stroke="#000000" stroke-width="2" /><path d="M42,42 c15.471,-5.582 28.756,-14.785 36.5,-24.5" fill="none" stroke="#000000" stroke-width="2" /><path d="M43.266,20.5 c12.124,4.855 23.111,10.863 38,21" fill="none" stroke="#000000" stroke-width="2" /></svg>