<?xml version='1.0' encoding='utf-8'?>
<svg xmlns="http://www.w3.org/2000/svg" height="100px" version="1.0" viewBox="0 0 100 100" width="100px" x="0px" y="0px">
<line fill="none" stroke="#000000" stroke-width="2" x1="27" x2="94.5" y1="14.5" y2="14.5" /><line fill="none" stroke="#000000" stroke-width="2" x1="50.5" x2="50.5" y1="49" y2="3.5" /><line fill="none" stroke="#000000" stroke-width="2" x1="71" x2="71" y1="49" y2="3.5" /><line fill="none" stroke="#000000" stroke-width="2" x1="32" x2="89.5" y1="37" y2="37" /><line fill="none" stroke="#000000" stroke-width="2" x1="36" x2="85.5" y1="87" y2="87" /><line fill="none" stroke="#000000" stroke-width="2" x1="36" x2="85.5" y1="73" y2="73" /><polyline fill="none" points="32,50 90.5,50 90.5,24 31,24 31,51" stroke="#000000" stroke-width="2" /><polyline fill="none" points="86.5,93 86.5,59 35,59 35,93" stroke="#000000" stroke-width="2" /><path d="M9,91.5 c7.072,-9.315 12.963,-19.819 17,-30.5" fill="none" stroke="#000000" stroke-width="2" /><path d="M26,22.5 c-4.551,-4.456 -9.955,-9.209 -16,-14" fill="none" stroke="#000000" stroke-width="2" /><path d="M22.5,45.5 c-5.014,-4.892 -10.751,-9.858 -17.5,-15" fill="none" stroke="#000000" stroke-width="2" /></svg>