<?xml version='1.0' encoding='utf-8'?>
<svg xmlns="http://www.w3.org/2000/svg" height="100px" version="1.0" viewBox="0 0 100 100" width="100px" x="0px" y="0px">
<line fill="none" stroke="#000000" stroke-width="2" x1="28" x2="94.5" y1="34" y2="34" /><line fill="none" stroke="#000000" stroke-width="2" x1="61.5" x2="61.5" y1="33" y2="5" /><line fill="none" stroke="#000000" stroke-width="2" x1="36.5" x2="87" y1="64.5" y2="64.5" /><line fill="none" stroke="#000000" stroke-width="2" x1="36.5" x2="87" y1="53.5" y2="53.5" /><polyline fill="none" points="34,26 90,26 90,13 33,13 33,27" stroke="#000000" stroke-width="2" /><polyline fill="none" points="36.5,75.5 88,75.5 88,42.5 35.5,42.5 35.5,76.5" stroke="#000000" stroke-width="2" /><path d="M8.5,91.5 c7.072,-9.315 12.963,-19.819 17,-30.5" fill="none" stroke="#000000" stroke-width="2" /><path d="M25.5,22.5 c-4.551,-4.456 -9.955,-9.209 -16,-14" fill="none" stroke="#000000" stroke-width="2" /><path d="M22,45.5 c-5.014,-4.892 -10.751,-9.858 -17.5,-15" fill="none" stroke="#000000" stroke-width="2" /><path d="M27.5,92.5 c10.76,-3.419 20.014,-8.134 25.5,-12.5" fill="none" stroke="#000000" stroke-width="2" /><path d="M94,93 c-6.573,-4.196 -15.622,-8.728 -25.5,-12.5" fill="none" stroke="#000000" stroke-width="2" /></svg>