<?xml version='1.0' encoding='utf-8'?>
<svg xmlns="http://www.w3.org/2000/svg" height="100px" version="1.0" viewBox="0 0 100 100" width="100px" x="0px" y="0px">
<line fill="none" stroke="#000000" stroke-width="2" x1="60.5" x2="60.5" y1="42" y2="90" /><line fill="none" stroke="#000000" stroke-width="2" x1="35" x2="86" y1="53.5" y2="53.5" /><line fill="none" stroke="#000000" stroke-width="2" x1="26" x2="95" y1="90" y2="90" /><line fill="none" stroke="#000000" stroke-width="2" x1="91" x2="30" y1="77.5" y2="77.5" /><line fill="none" stroke="#000000" stroke-width="2" x1="25" x2="96" y1="32.5" y2="32.5" /><line fill="none" stroke="#000000" stroke-width="2" x1="28.5" x2="92.5" y1="14.5" y2="14.5" /><line fill="none" stroke="#000000" stroke-width="2" x1="60.5" x2="60.5" y1="14.5" y2="3.5" /><polyline fill="none" points="35,66.5 87,66.5 87,41 34,41 34,67.5" stroke="#000000" stroke-width="2" /><path d="M9,91.5 c7.072,-9.315 12.963,-19.819 17,-30.5" fill="none" stroke="#000000" stroke-width="2" /><path d="M26,22.5 c-4.551,-4.456 -9.955,-9.209 -16,-14" fill="none" stroke="#000000" stroke-width="2" /><path d="M22.5,45.5 c-5.014,-4.892 -10.751,-9.858 -17.5,-15" fill="none" stroke="#000000" stroke-width="2" /><path d="M70,32.5 c3.828,-5.082 6.887,-11.177 9,-18" fill="none" stroke="#000000" stroke-width="2" /><path d="M50.5,32.5 c-2.586,-6.099 -5.532,-12.048 -9,-18" fill="none" stroke="#000000" stroke-width="2" /></svg>