<?xml version='1.0' encoding='utf-8'?>
<svg xmlns="http://www.w3.org/2000/svg" height="100px" version="1.0" viewBox="0 0 100 100" width="100px" x="0px" y="0px">
<line fill="none" stroke="#000000" stroke-width="2" x1="65.5" x2="91.5" y1="25" y2="25" /><line fill="none" stroke="#000000" stroke-width="2" x1="56.5" x2="30.5" y1="25" y2="25" /><line fill="none" stroke="#000000" stroke-width="2" x1="76.5" x2="45.5" y1="65.5" y2="65.5" /><polyline fill="none" points="29.5,93 29.5,9.5 57.5,9.5 57.5,42 30.5,42" stroke="#000000" stroke-width="2" /><polyline fill="none" points="44.5,89 44.5,51 77.5,51 77.5,82 45.5,82" stroke="#000000" stroke-width="2" /><path d="M8,91.5 c5.156,-9.315 9.464,-19.845 12.5,-30.5" fill="none" stroke="#000000" stroke-width="2" /><path d="M23,22.5 c-4.127,-4.427 -9.06,-9.209 -14.5,-14" fill="none" stroke="#000000" stroke-width="2" /><path d="M20.5,45.5 c-4.589,-4.819 -9.926,-9.858 -16,-15" fill="none" stroke="#000000" stroke-width="2" /><path d="M74.5,90.5 c6.236,0.36 9.746,0.5 11.5,0.5 c5.719,0 6.5,-0.745 6.5,-8 v-73.5 h-28.0 v32.5 h27.0" fill="none" stroke="#000000" stroke-width="2" /></svg>