<?xml version='1.0' encoding='utf-8'?>
<svg xmlns="http://www.w3.org/2000/svg" height="100px" version="1.0" viewBox="0 0 100 100" width="100px" x="0px" y="0px">
<line fill="none" stroke="#000000" stroke-width="2" x1="21" x2="44.5" y1="31.5" y2="30" /><line fill="none" stroke="#000000" stroke-width="2" x1="34.5" x2="34.5" y1="30.5" y2="53" /><line fill="none" stroke="#000000" stroke-width="2" x1="70" x2="93.5" y1="31.5" y2="30" /><line fill="none" stroke="#000000" stroke-width="2" x1="83.5" x2="83.5" y1="30.5" y2="53" /><line fill="none" stroke="#000000" stroke-width="2" x1="47.5" x2="70.5" y1="15.5" y2="15.5" /><line fill="none" stroke="#000000" stroke-width="2" x1="49.5" x2="68.5" y1="23.5" y2="23.5" /><line fill="none" stroke="#000000" stroke-width="2" x1="49.5" x2="68.5" y1="31.5" y2="31.5" /><line fill="none" stroke="#000000" stroke-width="2" x1="49.5" x2="68.5" y1="8" y2="8" /><polyline fill="none" points="51.5,51.5 67.5,51.5 67.5,39.5 50.5,39.5 50.5,52.5" stroke="#000000" stroke-width="2" /><path d="M7,91.5 c5.156,-9.315 9.464,-19.845 12.5,-30.5" fill="none" stroke="#000000" stroke-width="2" /><path d="M22.5,22.5 c-4.127,-4.427 -9.06,-9.209 -14.5,-14" fill="none" stroke="#000000" stroke-width="2" /><path d="M19.5,45.5 c-4.589,-4.819 -9.926,-9.858 -16,-15" fill="none" stroke="#000000" stroke-width="2" /><path d="M46.5,36.5 c-1.087,-4.708 -2.908,-10.313 -5,-15" fill="none" stroke="#000000" stroke-width="2" /><path d="M22.5,51 c2.346,-4.973 3.922,-10.354 4.5,-15.5" fill="none" stroke="#000000" stroke-width="2" /><path d="M44.5,50.5 c-0.572,-4.737 -1.604,-9.962 -3,-15" fill="none" stroke="#000000" stroke-width="2" /><path d="M26.5,31 c6.466,-6.595 12.193,-13.302 17.5,-20.5" fill="none" stroke="#000000" stroke-width="2" /><path d="M33,24 c-2.787,-3.388 -7.229,-8.263 -10.5,-11.5" fill="none" stroke="#000000" stroke-width="2" /><path d="M26.5,16.5 c3.494,-3.783 6.057,-6.901 9,-11" fill="none" stroke="#000000" stroke-width="2" /><path d="M95.5,36.5 c-1.087,-4.708 -2.908,-10.313 -5,-15" fill="none" stroke="#000000" stroke-width="2" /><path d="M73,50.5 c1.563,-4.812 2.614,-10.021 3,-15" fill="none" stroke="#000000" stroke-width="2" /><path d="M95,51 c-0.858,-4.896 -2.405,-10.295 -4.5,-15.5" fill="none" stroke="#000000" stroke-width="2" /><path d="M75.5,31 c6.466,-6.595 12.193,-13.302 17.5,-20.5" fill="none" stroke="#000000" stroke-width="2" /><path d="M82,24 c-2.787,-3.388 -7.229,-8.263 -10.5,-11.5" fill="none" stroke="#000000" stroke-width="2" /><path d="M75.5,16.5 c3.494,-3.783 6.057,-6.901 9,-11" fill="none" stroke="#000000" stroke-width="2" /><path d="M30,57.5 h57.0 v10.0 h-54.0 c-1.386,5.406 -3.938,11.645 -6.5,16" fill="none" stroke="#000000" stroke-width="2" /><path d="M29.5,77.5 h61.0 c-3.471,13.566 -5.281,15 -14.5,15 c-4.857,0 -12.34,-0.329 -21,-1" fill="none" stroke="#000000" stroke-width="2" /></svg>