<?xml version='1.0' encoding='utf-8'?>
<svg xmlns="http://www.w3.org/2000/svg" height="100px" version="1.0" viewBox="0 0 100 100" width="100px" x="0px" y="0px">
<path d="M40,87.5 c-5.543,-11.133 -13.102,-23.239 -21,-33.5" fill="none" stroke="#000000" stroke-width="2" /><path d="M10.5,20 c0,13.128 -1.636,24.476 -4.5,33.5" fill="none" stroke="#000000" stroke-width="2" /><path d="M36,19.5 c-2.094,12.181 -5.521,22.562 -10,31" fill="none" stroke="#000000" stroke-width="2" /><path d="M5.5,91 c8.744,-10.161 15,-30.425 15,-56 v-28.0" fill="none" stroke="#000000" stroke-width="2" /><path d="M70.5,62.5 c-4.463,-8.851 -10.309,-18.39 -16,-26" fill="none" stroke="#000000" stroke-width="2" /><path d="M38,42.5 c7.047,-9.956 13.091,-24.128 16,-38" fill="none" stroke="#000000" stroke-width="2" /><path d="M50.5,18 h41.5 c-1.842,65.929 -4.283,72 -9.5,72 c-4.824,0 -12.727,-0.34 -21,-1" fill="none" stroke="#000000" stroke-width="2" /></svg>