<?xml version='1.0' encoding='utf-8'?>
<svg xmlns="http://www.w3.org/2000/svg" height="100px" version="1.0" viewBox="0 0 100 100" width="100px" x="0px" y="0px">
<line fill="none" stroke="#000000" stroke-width="2" x1="34.5" x2="95.5" y1="76.5" y2="76.5" /><line fill="none" stroke="#000000" stroke-width="2" x1="93" x2="37" y1="48.5" y2="48.5" /><line fill="none" stroke="#000000" stroke-width="2" x1="90.5" x2="39.5" y1="62.5" y2="62.5" /><line fill="none" stroke="#000000" stroke-width="2" x1="66" x2="66" y1="94" y2="37" /><line fill="none" stroke="#000000" stroke-width="2" x1="52" x2="90" y1="12.5" y2="12.5" /><path d="M34,27.5 c10.344,-6.755 18.221,-14.327 24,-22.5" fill="none" stroke="#000000" stroke-width="2" /><path d="M89.203,12.896 c-9.975,13.164 -27.479,23.591 -55.703,30.604" fill="none" stroke="#000000" stroke-width="2" /><path d="M48,16.5 c11.981,11.194 27.39,20.001 48,27" fill="none" stroke="#000000" stroke-width="2" /><path d="M32.5,82 c-3.909,-9.305 -9.091,-19.382 -14.5,-28" fill="none" stroke="#000000" stroke-width="2" /><path d="M9,20 c0,13.128 -1.636,24.476 -4.5,33.5" fill="none" stroke="#000000" stroke-width="2" /><path d="M32.5,21.5 c-1.885,11.002 -4.969,20.378 -9,28" fill="none" stroke="#000000" stroke-width="2" /><path d="M4,91 c8.744,-10.161 15,-30.425 15,-56 v-28.0" fill="none" stroke="#000000" stroke-width="2" /></svg>