<?xml version='1.0' encoding='utf-8'?>
<svg xmlns="http://www.w3.org/2000/svg" height="100px" version="1.0" viewBox="0 0 100 100" width="100px" x="0px" y="0px">
<line fill="none" stroke="#000000" stroke-width="2" x1="43" x2="88" y1="87" y2="87" /><line fill="none" stroke="#000000" stroke-width="2" x1="34.5" x2="96.5" y1="41.5" y2="41.5" /><line fill="none" stroke="#000000" stroke-width="2" x1="35.5" x2="95.5" y1="15.5" y2="15.5" /><line fill="none" stroke="#000000" stroke-width="2" x1="65.5" x2="65.5" y1="15" y2="3.5" /><polyline fill="none" points="89,93 89,55.5 42,55.5 42,93" stroke="#000000" stroke-width="2" /><path d="M35.77,82.14 c-4.412,-9.352 -10.48,-19.521 -16.77,-28.14" fill="none" stroke="#000000" stroke-width="2" /><path d="M10,20 c0,13.128 -1.636,24.476 -4.5,33.5" fill="none" stroke="#000000" stroke-width="2" /><path d="M35.5,19.5 c-2.094,12.181 -5.521,22.562 -10,31" fill="none" stroke="#000000" stroke-width="2" /><path d="M5,91 c8.744,-10.161 15,-30.425 15,-56 v-28.0" fill="none" stroke="#000000" stroke-width="2" /><path d="M76,41.5 c3.418,-7.409 6.219,-16.329 8,-26" fill="none" stroke="#000000" stroke-width="2" /><path d="M54,41.5 c-2.117,-8.986 -4.596,-17.603 -7.5,-26" fill="none" stroke="#000000" stroke-width="2" /></svg>