<?xml version='1.0' encoding='utf-8'?>
<svg xmlns="http://www.w3.org/2000/svg" height="100px" version="1.0" viewBox="0 0 100 100" width="100px" x="0px" y="0px">
<line fill="none" stroke="#000000" stroke-width="2" x1="40.5" x2="88" y1="23" y2="23" /><line fill="none" stroke="#000000" stroke-width="2" x1="33.5" x2="95" y1="46.5" y2="46.5" /><polyline fill="none" points="40.5,37 89,37 89,10 39.5,10 39.5,38" stroke="#000000" stroke-width="2" /><path d="M32,82 c-3.814,-9.306 -9.061,-19.425 -14.5,-28" fill="none" stroke="#000000" stroke-width="2" /><path d="M8.5,20 c0,13.128 -1.453,24.476 -4,33.5" fill="none" stroke="#000000" stroke-width="2" /><path d="M33.5,17.5 c-2.094,12.181 -5.521,22.562 -10,31" fill="none" stroke="#000000" stroke-width="2" /><path d="M4,91 c8.452,-10.161 14.5,-30.425 14.5,-56 v-28.0" fill="none" stroke="#000000" stroke-width="2" /><path d="M52.5,93 c11.66,-7.219 24.551,-23.232 29,-36" fill="none" stroke="#000000" stroke-width="2" /><path d="M33.5,87.5 c11.627,-6.923 24.864,-20.239 30.5,-30.5" fill="none" stroke="#000000" stroke-width="2" /><path d="M28,73 c9.779,-6.577 20.178,-17.663 25,-26.5" fill="none" stroke="#000000" stroke-width="2" /><path d="M45.5,57 h45.5 c0,26.927 -3.691,34 -8.5,34 c-3.276,0 -7.634,-0.163 -12,-0.5" fill="none" stroke="#000000" stroke-width="2" /></svg>