<?xml version='1.0' encoding='utf-8'?>
<svg xmlns="http://www.w3.org/2000/svg" height="100px" version="1.0" viewBox="0 0 100 100" width="100px" x="0px" y="0px">
<line fill="none" stroke="#000000" stroke-width="2" x1="25" x2="83" y1="54.5" y2="54.5" /><line fill="none" stroke="#000000" stroke-width="2" x1="5" x2="95" y1="29.5" y2="29.5" /><line fill="none" stroke="#000000" stroke-width="2" x1="79.5" x2="14" y1="13.5" y2="13.5" /><line fill="none" stroke="#000000" stroke-width="2" x1="47" x2="47" y1="29.5" y2="3" /><polyline fill="none" points="24,41 24,68.5 84,68.5 84,41 24.5,41" stroke="#000000" stroke-width="2" /><path d="M92.5,92.5 c-4.201,-6.038 -9.068,-12.229 -15,-19" fill="none" stroke="#000000" stroke-width="2" /><path d="M67,92.75 c-2.518,-5.955 -5.578,-12.132 -9.5,-19" fill="none" stroke="#000000" stroke-width="2" /><path d="M41.5,93 c-0.834,-5.872 -2.088,-12.033 -4,-19" fill="none" stroke="#000000" stroke-width="2" /><path d="M7.5,92.5 c5.269,-5.368 10.214,-11.575 15,-19" fill="none" stroke="#000000" stroke-width="2" /><path d="M5,46.5 c36.845,-9.503 66.113,-24.42 83,-40" fill="none" stroke="#000000" stroke-width="2" /></svg>