<?xml version='1.0' encoding='utf-8'?>
<svg xmlns="http://www.w3.org/2000/svg" height="100px" version="1.0" viewBox="0 0 100 100" width="100px" x="0px" y="0px">
<line fill="none" stroke="#000000" stroke-width="2" x1="63.5" x2="63.5" y1="48" y2="4" /><line fill="none" stroke="#000000" stroke-width="2" x1="95.5" x2="34" y1="25.5" y2="25.5" /><line fill="none" stroke="#000000" stroke-width="2" x1="42" x2="61.5" y1="50.5" y2="50.5" /><line fill="none" stroke="#000000" stroke-width="2" x1="83" x2="83" y1="94" y2="42.5" /><line fill="none" stroke="#000000" stroke-width="2" x1="66" x2="95" y1="55.5" y2="55.5" /><line fill="none" stroke="#000000" stroke-width="2" x1="67" x2="67" y1="77" y2="56.5" /><line fill="none" stroke="#000000" stroke-width="2" x1="96.5" x2="56" y1="78" y2="78" /><path d="M29.5,82 c-3.42,-9.306 -8.124,-19.425 -13,-28" fill="none" stroke="#000000" stroke-width="2" /><path d="M8.5,20 c0,13.128 -1.453,24.476 -4,33.5" fill="none" stroke="#000000" stroke-width="2" /><path d="M31.5,17.5 c-2.094,12.181 -5.521,22.562 -10,31" fill="none" stroke="#000000" stroke-width="2" /><path d="M4,91 c7.869,-10.161 13.5,-30.425 13.5,-56 v-28.0" fill="none" stroke="#000000" stroke-width="2" /><path d="M51,21 c-4.764,-4.995 -9.986,-9.863 -15,-14" fill="none" stroke="#000000" stroke-width="2" /><path d="M76,21 c6.02,-4.448 11.412,-9.551 15,-14" fill="none" stroke="#000000" stroke-width="2" /><path d="M30,47 c15.594,-6.866 25.879,-14.015 32.5,-21.5" fill="none" stroke="#000000" stroke-width="2" /><path d="M96,47 c-15.088,-6.864 -25.09,-14.011 -31.5,-21.5" fill="none" stroke="#000000" stroke-width="2" /><path d="M27.5,69 c8.199,-7.294 14.214,-16.166 18,-26.5" fill="none" stroke="#000000" stroke-width="2" /><path d="M60.501,51.446 C59.482,70.219 46.596,86.554 29,93" fill="none" stroke="#000000" stroke-width="2" /><path d="M53.5,73 c-4.344,-3.849 -9.979,-8.214 -15,-11.5" fill="none" stroke="#000000" stroke-width="2" /></svg>