<?xml version='1.0' encoding='utf-8'?>
<svg xmlns="http://www.w3.org/2000/svg" height="100px" version="1.0" viewBox="0 0 100 100" width="100px" x="0px" y="0px">
<path d="M12,8 c9.348,15.786 14,33.95 14,56.5 c0,19.396 -4.178,26.5 -8.5,26.5 c-2.443,0 -6.626,-0.706 -11,-2" fill="none" stroke="#000000" stroke-width="2" /><path d="M33,6 c-7.71,10.59 -17.906,19.975 -29,26.5" fill="none" stroke="#000000" stroke-width="2" /><path d="M24.5,44 c-5.32,7.003 -12.523,13.385 -20.5,18" fill="none" stroke="#000000" stroke-width="2" /><path d="M43.5,20.5 c-1.329,12.496 -4.734,23.63 -10,33" fill="none" stroke="#000000" stroke-width="2" /><path d="M27.5,91 c21.525,-10.56 35,-31.124 35,-56 v-28.0" fill="none" stroke="#000000" stroke-width="2" /><path d="M96.5,91 c-21.431,-10.747 -34,-31.124 -34,-56" fill="none" stroke="#000000" stroke-width="2" /><path d="M92.5,19 c-2.369,12.026 -6.805,22.612 -13,31.5" fill="none" stroke="#000000" stroke-width="2" /></svg>