<?xml version='1.0' encoding='utf-8'?>
<svg xmlns="http://www.w3.org/2000/svg" height="100px" version="1.0" viewBox="0 0 100 100" width="100px" x="0px" y="0px">
<line fill="none" stroke="#000000" stroke-width="2" x1="43" x2="43" y1="53" y2="93.5" /><line fill="none" stroke="#000000" stroke-width="2" x1="43" x2="88.5" y1="87.5" y2="87.5" /><line fill="none" stroke="#000000" stroke-width="2" x1="44" x2="88.5" y1="69.5" y2="69.5" /><line fill="none" stroke="#000000" stroke-width="2" x1="30" x2="96" y1="37.5" y2="37.5" /><line fill="none" stroke="#000000" stroke-width="2" x1="87.5" x2="36" y1="17" y2="17" /><line fill="none" stroke="#000000" stroke-width="2" x1="61.5" x2="61.5" y1="37.5" y2="4" /><polyline fill="none" points="88.5,93.5 88.5,52.5 43.5,52.5" stroke="#000000" stroke-width="2" /><path d="M12.5,8 c9.348,15.786 14,33.95 14,56.5 c0,19.396 -4.178,26.5 -8.5,26.5 c-2.443,0 -6.626,-0.706 -11,-2" fill="none" stroke="#000000" stroke-width="2" /><path d="M33.5,6 c-7.71,10.59 -17.906,19.975 -29,26.5" fill="none" stroke="#000000" stroke-width="2" /><path d="M25,44 c-5.32,7.003 -12.523,13.385 -20.5,18" fill="none" stroke="#000000" stroke-width="2" /><path d="M30,59.5 c27.402,-12.652 48.92,-30.004 63.5,-50" fill="none" stroke="#000000" stroke-width="2" /></svg>