<?xml version='1.0' encoding='utf-8'?>
<svg xmlns="http://www.w3.org/2000/svg" height="100px" version="1.0" viewBox="0 0 100 100" width="100px" x="0px" y="0px">
<line fill="none" stroke="#000000" stroke-width="2" x1="29.5" x2="66" y1="23.5" y2="23.5" /><line fill="none" stroke="#000000" stroke-width="2" x1="32.5" x2="63" y1="37.5" y2="37.5" /><line fill="none" stroke="#000000" stroke-width="2" x1="32.5" x2="63" y1="51.5" y2="51.5" /><line fill="none" stroke="#000000" stroke-width="2" x1="32.5" x2="63" y1="10" y2="10" /><line fill="none" stroke="#000000" stroke-width="2" x1="97" x2="66" y1="29" y2="29" /><polyline fill="none" points="33.5,88 63,88 63,65.5 32.5,65.5 32.5,94" stroke="#000000" stroke-width="2" /><path d="M9.5,8 c9.348,15.786 14,33.95 14,56.5 c0,19.396 -4.178,26.5 -7.5,26.5 c-2.443,0 -6.149,-0.629 -10.5,-2" fill="none" stroke="#000000" stroke-width="2" /><path d="M29,6 c-6.912,10.59 -16.088,19.923 -26,26.5" fill="none" stroke="#000000" stroke-width="2" /><path d="M22.5,44.5 c-5.061,6.809 -11.912,13.013 -19.5,17.5" fill="none" stroke="#000000" stroke-width="2" /><path d="M86,5 c3.227,5.938 5.963,11.407 9,18" fill="none" stroke="#000000" stroke-width="2" /><path d="M66,92 c9.057,-13.087 15.5,-36.876 15.5,-62 v-23.0" fill="none" stroke="#000000" stroke-width="2" /><path d="M97,92 c-9.057,-13.087 -15.5,-36.876 -15.5,-62" fill="none" stroke="#000000" stroke-width="2" /></svg>