<?xml version='1.0' encoding='utf-8'?>
<svg xmlns="http://www.w3.org/2000/svg" height="100px" version="1.0" viewBox="0 0 100 100" width="100px" x="0px" y="0px">
<line fill="none" stroke="#000000" stroke-width="2" x1="53.5" x2="4.5" y1="57" y2="57" /><line fill="none" stroke="#000000" stroke-width="2" x1="29" x2="29" y1="21" y2="48" /><line fill="none" stroke="#000000" stroke-width="2" x1="10" x2="49" y1="34" y2="34" /><line fill="none" stroke="#000000" stroke-width="2" x1="96.5" x2="52.5" y1="29" y2="29" /><polyline fill="none" points="12,88.5 47,88.5 47,66 11,66 11,94.5" stroke="#000000" stroke-width="2" /><polyline fill="none" points="10,48 49,48 49,20 9,20 9,49" stroke="#000000" stroke-width="2" /><path d="M15.5,20 c-2.477,-5.07 -5.081,-9.46 -8,-13.5" fill="none" stroke="#000000" stroke-width="2" /><path d="M31.5,20 c-2.468,-5.363 -5.125,-10.188 -8,-14.5" fill="none" stroke="#000000" stroke-width="2" /><path d="M41,20 c3.826,-4.901 6.963,-9.729 9.5,-14.5" fill="none" stroke="#000000" stroke-width="2" /><path d="M82,5 c4.123,5.938 7.605,11.413 11.5,18" fill="none" stroke="#000000" stroke-width="2" /><path d="M52.5,91 c13.178,-12.927 22,-36.344 22,-62 v-22.0" fill="none" stroke="#000000" stroke-width="2" /><path d="M96.5,91 c-13.178,-12.927 -22,-36.343 -22,-62" fill="none" stroke="#000000" stroke-width="2" /></svg>