<?xml version='1.0' encoding='utf-8'?>
<svg xmlns="http://www.w3.org/2000/svg" height="100px" version="1.0" viewBox="0 0 100 100" width="100px" x="0px" y="0px">
<line fill="none" stroke="#000000" stroke-width="2" x1="32" x2="4" y1="12.5" y2="12.5" /><line fill="none" stroke="#000000" stroke-width="2" x1="31" x2="5" y1="44.5" y2="44.5" /><line fill="none" stroke="#000000" stroke-width="2" x1="18" x2="18" y1="79" y2="13.5" /><line fill="none" stroke="#000000" stroke-width="2" x1="35" x2="95" y1="11" y2="11" /><path d="M4,85 c10.043,-4.078 18.778,-8.305 30,-14.5" fill="none" stroke="#000000" stroke-width="2" /><path d="M32,37.5 c13.918,-6.753 24.512,-15.986 31,-26.5" fill="none" stroke="#000000" stroke-width="2" /><path d="M47.5,90.5 c5.359,0.343 9.861,0.5 13,0.5 c6.527,0 8,-1.886 8,-22 c0,-18.896 -5.731,-36.351 -15,-46.5" fill="none" stroke="#000000" stroke-width="2" /><path d="M31.5,62.5 c13.808,-7.271 24.063,-16.165 31,-26" fill="none" stroke="#000000" stroke-width="2" /><path d="M28.5,87.5 c16.676,-7.899 30.282,-18.87 39,-30.5" fill="none" stroke="#000000" stroke-width="2" /><path d="M94,24.5 c-5.189,8.849 -11.371,16.571 -17.5,22" fill="none" stroke="#000000" stroke-width="2" /><path d="M68.5,11 c3.678,30.176 15.476,60.294 28,76" fill="none" stroke="#000000" stroke-width="2" /></svg>