<?xml version='1.0' encoding='utf-8'?>
<svg xmlns="http://www.w3.org/2000/svg" height="100px" version="1.0" viewBox="0 0 100 100" width="100px" x="0px" y="0px">
<line fill="none" stroke="#000000" stroke-width="2" x1="29" x2="4" y1="12.5" y2="12.5" /><line fill="none" stroke="#000000" stroke-width="2" x1="29" x2="5" y1="45" y2="45" /><line fill="none" stroke="#000000" stroke-width="2" x1="17.5" x2="17.5" y1="81.5" y2="12.5" /><line fill="none" stroke="#000000" stroke-width="2" x1="29.5" x2="62.5" y1="25.5" y2="25.5" /><line fill="none" stroke="#000000" stroke-width="2" x1="46" x2="46" y1="49" y2="6" /><line fill="none" stroke="#000000" stroke-width="2" x1="34" x2="57" y1="81" y2="81" /><line fill="none" stroke="#000000" stroke-width="2" x1="68" x2="90.5" y1="59" y2="59" /><line fill="none" stroke="#000000" stroke-width="2" x1="69" x2="90.5" y1="33.5" y2="33.5" /><polyline fill="none" points="58,82 58,49 34,49 34,90" stroke="#000000" stroke-width="2" /><path d="M4,86 c8.536,-2.672 15.968,-5.423 25.5,-9.5" fill="none" stroke="#000000" stroke-width="2" /><path d="M59,92.5 c6.149,-10.866 9,-23.313 9,-46.5 v-36.0 h23.5 v73.0 c0,7.724 -0.25,8 -5,8 c-1.819,0 -5.604,-0.155 -11,-0.5" fill="none" stroke="#000000" stroke-width="2" /></svg>