<?xml version='1.0' encoding='utf-8'?>
<svg xmlns="http://www.w3.org/2000/svg" height="100px" version="1.0" viewBox="0 0 100 100" width="100px" x="0px" y="0px">
<line fill="none" stroke="#000000" stroke-width="2" x1="32" x2="4" y1="12.5" y2="12.5" /><line fill="none" stroke="#000000" stroke-width="2" x1="30" x2="5" y1="42.5" y2="42.5" /><line fill="none" stroke="#000000" stroke-width="2" x1="18.5" x2="18.5" y1="80.5" y2="12.5" /><line fill="none" stroke="#000000" stroke-width="2" x1="90" x2="90" y1="93.5" y2="51" /><line fill="none" stroke="#000000" stroke-width="2" x1="64" x2="64" y1="87.5" y2="53" /><line fill="none" stroke="#000000" stroke-width="2" x1="38" x2="90" y1="87.5" y2="87.5" /><line fill="none" stroke="#000000" stroke-width="2" x1="39" x2="89" y1="69.5" y2="69.5" /><polyline fill="none" points="89,52 38,52 38,93.5" stroke="#000000" stroke-width="2" /><path d="M4,85 c9.708,-2.672 18.159,-5.423 29,-9.5" fill="none" stroke="#000000" stroke-width="2" /><path d="M63,47 c7.849,-7.396 13.111,-20.725 13.5,-36" fill="none" stroke="#000000" stroke-width="2" /><path d="M63.5,11 h30.0 c-0.607,30.143 -2.011,33 -5.5,33 c-1.889,0 -6.953,-0.463 -10,-1" fill="none" stroke="#000000" stroke-width="2" /><path d="M30.5,46 c10.455,-3.615 19.408,-8.279 29,-15" fill="none" stroke="#000000" stroke-width="2" /><path d="M61.5,6 c-8.512,3.212 -16.682,5.604 -26,7.5 l1.5,30" fill="none" stroke="#000000" stroke-width="2" /><path d="M64,40 c-3.153,-6.661 -7.896,-15.183 -12,-21.5" fill="none" stroke="#000000" stroke-width="2" /></svg>