<?xml version='1.0' encoding='utf-8'?>
<svg xmlns="http://www.w3.org/2000/svg" height="100px" version="1.0" viewBox="0 0 100 100" width="100px" x="0px" y="0px">
<line fill="none" stroke="#000000" stroke-width="2" x1="31.5" x2="4" y1="12.5" y2="12.5" /><line fill="none" stroke="#000000" stroke-width="2" x1="31" x2="5" y1="43.5" y2="43.5" /><line fill="none" stroke="#000000" stroke-width="2" x1="18.5" x2="18.5" y1="79.5" y2="12.5" /><line fill="none" stroke="#000000" stroke-width="2" x1="94" x2="34" y1="40.5" y2="40.5" /><line fill="none" stroke="#000000" stroke-width="2" x1="95" x2="33" y1="58" y2="58" /><line fill="none" stroke="#000000" stroke-width="2" x1="38.5" x2="38.5" y1="64.5" y2="93.5" /><line fill="none" stroke="#000000" stroke-width="2" x1="64" x2="64" y1="40.5" y2="86.5" /><line fill="none" stroke="#000000" stroke-width="2" x1="38.5" x2="89.5" y1="86.5" y2="86.5" /><line fill="none" stroke="#000000" stroke-width="2" x1="89.5" x2="89.5" y1="93.5" y2="64.5" /><path d="M4,84 c9.708,-2.672 18.159,-5.423 29,-9.5" fill="none" stroke="#000000" stroke-width="2" /><path d="M34,15 c20.506,0 40.01,-2.286 58,-6.5" fill="none" stroke="#000000" stroke-width="2" /><path d="M44,36 c-2.021,-6.128 -4.256,-11.988 -6.5,-17" fill="none" stroke="#000000" stroke-width="2" /><path d="M65,35.5 c-2.013,-6.495 -4.258,-12.694 -6.5,-18" fill="none" stroke="#000000" stroke-width="2" /><path d="M79.5,40.5 c3.528,-8.416 6.46,-17.265 8.5,-25.5" fill="none" stroke="#000000" stroke-width="2" /></svg>