<?xml version='1.0' encoding='utf-8'?>
<svg xmlns="http://www.w3.org/2000/svg" height="100px" version="1.0" viewBox="0 0 100 100" width="100px" x="0px" y="0px">
<line fill="none" stroke="#000000" stroke-width="2" x1="31.5" x2="4" y1="12.5" y2="12.5" /><line fill="none" stroke="#000000" stroke-width="2" x1="31" x2="5" y1="43.5" y2="43.5" /><line fill="none" stroke="#000000" stroke-width="2" x1="18.5" x2="18.5" y1="79.5" y2="12.5" /><line fill="none" stroke="#000000" stroke-width="2" x1="34" x2="95" y1="14" y2="14" /><line fill="none" stroke="#000000" stroke-width="2" x1="64.5" x2="64.5" y1="14" y2="3" /><polyline fill="none" points="88.5,18 88.5,46 40.5,46 40.5,18" stroke="#000000" stroke-width="2" /><path d="M4,84 c9.708,-2.672 18.159,-5.423 29,-9.5" fill="none" stroke="#000000" stroke-width="2" /><path d="M49,78 c5.51,-9.988 10.734,-21.213 15,-32" fill="none" stroke="#000000" stroke-width="2" /><path d="M86.5,82 c-3.807,-7.152 -9.3,-16.397 -14,-23.5" fill="none" stroke="#000000" stroke-width="2" /><path d="M42,78 c13.153,-0.499 26.744,-1.701 40.5,-3.5" fill="none" stroke="#000000" stroke-width="2" /><path d="M37,93.5 V55.0 h55.0 v32.46 c0,4.282 -0.316,4.54 -6.5,4.54 c-2.207,0 -6.109,-0.159 -12.5,-0.5" fill="none" stroke="#000000" stroke-width="2" /><path d="M46,42 c14.41,-5.582 26.786,-14.785 34,-24.5" fill="none" stroke="#000000" stroke-width="2" /><path d="M47,20.5 c11.326,4.855 21.59,10.863 35.5,21" fill="none" stroke="#000000" stroke-width="2" /></svg>