<?xml version='1.0' encoding='utf-8'?>
<svg xmlns="http://www.w3.org/2000/svg" height="100px" version="1.0" viewBox="0 0 100 100" width="100px" x="0px" y="0px">
<line fill="none" stroke="#000000" stroke-width="2" x1="30" x2="30" y1="19.5" y2="5" /><line fill="none" stroke="#000000" stroke-width="2" x1="4" x2="56" y1="19.5" y2="19.5" /><line fill="none" stroke="#000000" stroke-width="2" x1="30" x2="30" y1="85" y2="32.5" /><line fill="none" stroke="#000000" stroke-width="2" x1="11" x2="49" y1="86" y2="86" /><line fill="none" stroke="#000000" stroke-width="2" x1="11" x2="49" y1="58" y2="58" /><line fill="none" stroke="#000000" stroke-width="2" x1="70" x2="92" y1="17" y2="17" /><polyline fill="none" points="50,87 50,31.5 10,31.5 10,94.5" stroke="#000000" stroke-width="2" /><path d="M54,51 c8.798,-13.045 15.451,-28.854 19.5,-47" fill="none" stroke="#000000" stroke-width="2" /><path d="M91.01,17.856 c-5.289,36.502 -18.303,58.587 -39.01,73.144" fill="none" stroke="#000000" stroke-width="2" /><path d="M80,57 c5.741,14.8 12.119,25.901 19,34" fill="none" stroke="#000000" stroke-width="2" /></svg>