<?xml version='1.0' encoding='utf-8'?>
<svg xmlns="http://www.w3.org/2000/svg" height="100px" version="1.0" viewBox="0 0 100 100" width="100px" x="0px" y="0px">
<line fill="none" stroke="#000000" stroke-width="2" x1="20" x2="20" y1="82.5" y2="12.5" /><line fill="none" stroke="#000000" stroke-width="2" x1="8.5" x2="31.5" y1="46" y2="46" /><line fill="none" stroke="#000000" stroke-width="2" x1="94.5" x2="38" y1="50" y2="50" /><line fill="none" stroke="#000000" stroke-width="2" x1="85.5" x2="47" y1="30" y2="30" /><polyline fill="none" points="8.5,83.5 32.5,83.5 32.5,11.5 7.5,11.5 7.5,91.5" stroke="#000000" stroke-width="2" /><path d="M96.5,34 c-11.948,-8.327 -21.199,-16.751 -30.5,-27.8 c-9.301,11.049 -18.566,19.451 -30.5,27.8" fill="none" stroke="#000000" stroke-width="2" /><path d="M67,30 v53.0 c0,7.558 -0.402,8 -5.5,8 c-1.414,0 -5.199,-0.143 -11,-0.5" fill="none" stroke="#000000" stroke-width="2" /><path d="M35.5,87 c7.294,-7.657 13.332,-17.639 17,-28" fill="none" stroke="#000000" stroke-width="2" /><path d="M96,88 c-4.576,-9.644 -10.437,-19.687 -17,-29" fill="none" stroke="#000000" stroke-width="2" /></svg>