<?xml version='1.0' encoding='utf-8'?>
<svg xmlns="http://www.w3.org/2000/svg" height="100px" version="1.0" viewBox="0 0 100 100" width="100px" x="0px" y="0px">
<line fill="none" stroke="#000000" stroke-width="2" x1="56.5" x2="56.5" y1="13" y2="3" /><line fill="none" stroke="#000000" stroke-width="2" x1="59.5" x2="32.5" y1="29" y2="29" /><line fill="none" stroke="#000000" stroke-width="2" x1="61" x2="23.5" y1="52.5" y2="52.5" /><line fill="none" stroke="#000000" stroke-width="2" x1="66" x2="92" y1="85.5" y2="85.5" /><polyline fill="none" points="92,92 92,27 65,27 65,92" stroke="#000000" stroke-width="2" /><path d="M7,91 c8.727,-9.241 12.5,-20.743 12.5,-47 v-30.0 h75.0" fill="none" stroke="#000000" stroke-width="2" /><path d="M2.5,67 c6.793,-3.015 12.445,-6.519 16.5,-10" fill="none" stroke="#000000" stroke-width="2" /><path d="M15.5,41 c-2.875,-5.722 -6.672,-12.311 -11,-19" fill="none" stroke="#000000" stroke-width="2" /><path d="M24.5,46.5 c4.624,-7.091 8.395,-16.665 11,-28.5" fill="none" stroke="#000000" stroke-width="2" /><path d="M21.5,91 c12.727,-7.243 22,-23.167 22,-40.5 V29.0" fill="none" stroke="#000000" stroke-width="2" /><path d="M60,86.5 c-5.135,-9.281 -10.982,-19.1 -17,-28.5" fill="none" stroke="#000000" stroke-width="2" /></svg>