<?xml version='1.0' encoding='utf-8'?>
<svg xmlns="http://www.w3.org/2000/svg" height="100px" version="1.0" viewBox="0 0 100 100" width="100px" x="0px" y="0px">
<line fill="none" stroke="#000000" stroke-width="2" x1="56.5" x2="56.5" y1="12.5" y2="3" /><line fill="none" stroke="#000000" stroke-width="2" x1="34" x2="85" y1="33" y2="33" /><line fill="none" stroke="#000000" stroke-width="2" x1="24" x2="95" y1="53" y2="53" /><polyline fill="none" points="34,45 86,45 86,21.5 33,21.5 33,46" stroke="#000000" stroke-width="2" /><path d="M7,91 c8.727,-9.241 12.5,-20.743 12.5,-47 v-30.5 h75.0" fill="none" stroke="#000000" stroke-width="2" /><path d="M2.5,67 c6.793,-3.015 12.445,-6.519 16.5,-10" fill="none" stroke="#000000" stroke-width="2" /><path d="M15.5,41 c-2.875,-5.722 -6.672,-12.311 -11,-19" fill="none" stroke="#000000" stroke-width="2" /><path d="M50.5,93.5 c11.66,-6.316 24.551,-20.328 29,-31.5" fill="none" stroke="#000000" stroke-width="2" /><path d="M30.5,88 c11.627,-5.901 24.864,-17.253 30.5,-26" fill="none" stroke="#000000" stroke-width="2" /><path d="M41,62 h50.0 c0,23.362 -3.691,29.5 -8.5,29.5 c-3.276,0 -7.634,-0.163 -12,-0.5" fill="none" stroke="#000000" stroke-width="2" /><path d="M21.5,77 c10.238,-5.542 21.836,-15.89 27,-24" fill="none" stroke="#000000" stroke-width="2" /></svg>