<?xml version='1.0' encoding='utf-8'?>
<svg xmlns="http://www.w3.org/2000/svg" height="100px" version="1.0" viewBox="0 0 100 100" width="100px" x="0px" y="0px">
<line fill="none" stroke="#000000" stroke-width="2" x1="80.5" x2="38.5" y1="26" y2="26" /><line fill="none" stroke="#000000" stroke-width="2" x1="30" x2="54" y1="43.5" y2="43.5" /><line fill="none" stroke="#000000" stroke-width="2" x1="30" x2="54" y1="54.5" y2="54.5" /><line fill="none" stroke="#000000" stroke-width="2" x1="67.5" x2="67.5" y1="59.5" y2="34" /><line fill="none" stroke="#000000" stroke-width="2" x1="57" x2="57" y1="11.5" y2="3" /><path d="M96.5,29.5 c-13.873,-5.112 -25.588,-10.451 -37,-16.8 c-11.428,6.318 -23.127,11.688 -37,16.8" fill="none" stroke="#000000" stroke-width="2" /><path d="M29,67.5 V33.0 h26.0 v28.5 c0,4.692 -0.366,5 -6,5 c-1.691,0 -4.535,-0.129 -10,-0.5" fill="none" stroke="#000000" stroke-width="2" /><path d="M42,72.5 v10.0 c0,8.844 0.293,9.153 6,9.601 c3.113,0.242 7.198,0.399 11,0.399 c3.732,0 7.678,-0.138 11,-0.399 c9.469,-0.753 9.703,-0.93 11,-13.601" fill="none" stroke="#000000" stroke-width="2" /><path d="M19.5,91 c5.058,-5.263 9.24,-11.75 12,-18.5" fill="none" stroke="#000000" stroke-width="2" /><path d="M97,91 c-3.486,-6.149 -7.973,-12.565 -13,-18.5" fill="none" stroke="#000000" stroke-width="2" /><path d="M69.5,83.5 c-5.09,-4.073 -11.27,-8.354 -17.5,-12" fill="none" stroke="#000000" stroke-width="2" /><path d="M7,91 c8.727,-9.241 12.5,-20.743 12.5,-47 v-31.5 h76.0" fill="none" stroke="#000000" stroke-width="2" /><path d="M2.5,67 c6.793,-3.015 12.445,-6.519 16.5,-10" fill="none" stroke="#000000" stroke-width="2" /><path d="M15.5,41 c-2.875,-5.722 -6.672,-12.311 -11,-19" fill="none" stroke="#000000" stroke-width="2" /><path d="M88.5,32 v29.5 c0,4.692 -0.366,5 -6,5 c-2.299,0 -6.033,-0.135 -11,-0.5" fill="none" stroke="#000000" stroke-width="2" /></svg>