<?xml version='1.0' encoding='utf-8'?>
<svg xmlns="http://www.w3.org/2000/svg" height="100px" version="1.0" viewBox="0 0 100 100" width="100px" x="0px" y="0px">
<line fill="none" stroke="#000000" stroke-width="2" x1="39" x2="39" y1="66" y2="89" /><line fill="none" stroke="#000000" stroke-width="2" x1="61" x2="61" y1="66" y2="89" /><line fill="none" stroke="#000000" stroke-width="2" x1="6" x2="94" y1="90" y2="90" /><line fill="none" stroke="#000000" stroke-width="2" x1="7" x2="93" y1="31.5" y2="31.5" /><line fill="none" stroke="#000000" stroke-width="2" x1="86" x2="14" y1="14" y2="14" /><line fill="none" stroke="#000000" stroke-width="2" x1="50" x2="50" y1="31.5" y2="5" /><polyline fill="none" points="83,89 83,65 17,65 17,89" stroke="#000000" stroke-width="2" /><path d="M92,60.5 c-6.53,-7.777 -16.02,-17.498 -24.5,-25" fill="none" stroke="#000000" stroke-width="2" /><path d="M10,56 c22.287,-0.508 48.225,-2.286 73.5,-5" fill="none" stroke="#000000" stroke-width="2" /><path d="M25.5,55.5 c6.706,-6.879 13.34,-15.22 19,-24" fill="none" stroke="#000000" stroke-width="2" /></svg>