<?xml version='1.0' encoding='utf-8'?>
<svg xmlns="http://www.w3.org/2000/svg" height="100px" version="1.0" viewBox="0 0 100 100" width="100px" x="0px" y="0px">
<line fill="none" stroke="#000000" stroke-width="2" x1="8.5" x2="26" y1="57" y2="57" /><line fill="none" stroke="#000000" stroke-width="2" x1="8.5" x2="26" y1="34" y2="34" /><line fill="none" stroke="#000000" stroke-width="2" x1="62.5" x2="62.5" y1="93.5" y2="19" /><polyline fill="none" points="8.5,80.5 27,80.5 27,11.5 7.5,11.5 7.5,88.5" stroke="#000000" stroke-width="2" /><path d="M33.5,56.5 h60.5 c0,27.763 -1.193,29.5 -7,29.5 c-2.562,0 -8.394,-0.358 -14.5,-1" fill="none" stroke="#000000" stroke-width="2" /><path d="M32,18 h59.5 v19.5 H37.0 c-1,9.931 -2.893,19.3 -5.5,27.5" fill="none" stroke="#000000" stroke-width="2" /><path d="M26,90 c17.02,-10.598 28.373,-21.632 35.5,-33.5" fill="none" stroke="#000000" stroke-width="2" /><path d="M52.5,18 c-2.072,-4.796 -4.328,-9.498 -6.5,-13.5" fill="none" stroke="#000000" stroke-width="2" /><path d="M72.5,18 c2.455,-4.448 4.782,-9.305 6.5,-13.5" fill="none" stroke="#000000" stroke-width="2" /></svg>