<?xml version='1.0' encoding='utf-8'?>
<svg xmlns="http://www.w3.org/2000/svg" height="100px" version="1.0" viewBox="0 0 100 100" width="100px" x="0px" y="0px">
<line fill="none" stroke="#000000" stroke-width="2" x1="8.5" x2="26" y1="57" y2="57" /><line fill="none" stroke="#000000" stroke-width="2" x1="8.5" x2="26" y1="34" y2="34" /><line fill="none" stroke="#000000" stroke-width="2" x1="62.5" x2="62.5" y1="42" y2="90" /><line fill="none" stroke="#000000" stroke-width="2" x1="38.5" x2="86.5" y1="53.5" y2="53.5" /><line fill="none" stroke="#000000" stroke-width="2" x1="29.5" x2="95.5" y1="90" y2="90" /><line fill="none" stroke="#000000" stroke-width="2" x1="91.5" x2="33.5" y1="77.5" y2="77.5" /><line fill="none" stroke="#000000" stroke-width="2" x1="30" x2="96.5" y1="32.5" y2="32.5" /><line fill="none" stroke="#000000" stroke-width="2" x1="32" x2="93" y1="14.5" y2="14.5" /><line fill="none" stroke="#000000" stroke-width="2" x1="62.5" x2="62.5" y1="14.5" y2="3.5" /><polyline fill="none" points="8.5,80.5 27,80.5 27,11.5 7.5,11.5 7.5,88.5" stroke="#000000" stroke-width="2" /><polyline fill="none" points="38.5,66.5 87.5,66.5 87.5,41 37.5,41 37.5,67.5" stroke="#000000" stroke-width="2" /><path d="M72,32.5 c3.828,-5.082 6.887,-11.177 9,-18" fill="none" stroke="#000000" stroke-width="2" /><path d="M52.5,32.5 c-2.586,-6.099 -5.532,-12.048 -9,-18" fill="none" stroke="#000000" stroke-width="2" /></svg>