<?xml version='1.0' encoding='utf-8'?>
<svg xmlns="http://www.w3.org/2000/svg" height="100px" version="1.0" viewBox="0 0 100 100" width="100px" x="0px" y="0px">
<line fill="none" stroke="#000000" stroke-width="2" x1="8.5" x2="26" y1="57" y2="57" /><line fill="none" stroke="#000000" stroke-width="2" x1="8.5" x2="26" y1="34" y2="34" /><line fill="none" stroke="#000000" stroke-width="2" x1="38.5" x2="88.5" y1="64.5" y2="64.5" /><line fill="none" stroke="#000000" stroke-width="2" x1="38.5" x2="88.5" y1="53.5" y2="53.5" /><line fill="none" stroke="#000000" stroke-width="2" x1="31" x2="96" y1="34" y2="34" /><line fill="none" stroke="#000000" stroke-width="2" x1="63" x2="63" y1="33" y2="5" /><polyline fill="none" points="8.5,80.5 27,80.5 27,11.5 7.5,11.5 7.5,88.5" stroke="#000000" stroke-width="2" /><polyline fill="none" points="38.5,75.5 89.5,75.5 89.5,42.5 37.5,42.5 37.5,76.5" stroke="#000000" stroke-width="2" /><polyline fill="none" points="36,26 91.5,26 91.5,13 35,13 35,27" stroke="#000000" stroke-width="2" /><path d="M30.5,92.5 c10.549,-3.419 19.629,-8.124 25,-12.5" fill="none" stroke="#000000" stroke-width="2" /><path d="M95.5,93 c-6.438,-4.208 -15.315,-8.728 -25,-12.5" fill="none" stroke="#000000" stroke-width="2" /></svg>