<?xml version='1.0' encoding='utf-8'?>
<svg xmlns="http://www.w3.org/2000/svg" height="100px" version="1.0" viewBox="0 0 100 100" width="100px" x="0px" y="0px">
<line fill="none" stroke="#000000" stroke-width="2" x1="8.5" x2="26" y1="59" y2="59" /><line fill="none" stroke="#000000" stroke-width="2" x1="8.5" x2="26" y1="35" y2="35" /><line fill="none" stroke="#000000" stroke-width="2" x1="47.5" x2="85.5" y1="60" y2="60" /><polyline fill="none" points="8.5,83.5 27,83.5 27,11.5 7.5,11.5 7.5,91.5" stroke="#000000" stroke-width="2" /><polyline fill="none" points="94,44.5 94,27.5 33,27.5 33,45.5" stroke="#000000" stroke-width="2" /><path d="M34,13 c20.14,0 39.509,-1.905 58,-5.5" fill="none" stroke="#000000" stroke-width="2" /><path d="M47,27.5 c-2.161,-5.238 -4.584,-10.218 -7,-14.5" fill="none" stroke="#000000" stroke-width="2" /><path d="M65.5,27.5 c-2.156,-5.55 -4.592,-10.958 -7,-15.5" fill="none" stroke="#000000" stroke-width="2" /><path d="M79,27.5 c2.715,-5.151 5.154,-10.565 7,-15.5" fill="none" stroke="#000000" stroke-width="2" /><path d="M29.5,91.5 c24.232,-4.688 44.251,-16.559 55.201,-31.102" fill="none" stroke="#000000" stroke-width="2" /><path d="M95.5,91.5 c-19.476,-4.131 -37.334,-14.464 -48,-27" fill="none" stroke="#000000" stroke-width="2" /><path d="M49,33.5 v9.5 c0,8.269 0.252,8.5 13.176,8.5 c16.49,0 16.688,-0.175 17.824,-11.5" fill="none" stroke="#000000" stroke-width="2" /><path d="M32.5,54 c4.321,-4.69 7.827,-10.667 10,-17" fill="none" stroke="#000000" stroke-width="2" /><path d="M93,54 c-2.885,-6.246 -6.494,-12.78 -10.5,-19" fill="none" stroke="#000000" stroke-width="2" /><path d="M70,42.5 c-4.096,-3.313 -8.926,-6.62 -14,-9.5" fill="none" stroke="#000000" stroke-width="2" /><path d="M31,74 c9.949,-6.183 18.018,-14.281 23,-22.5" fill="none" stroke="#000000" stroke-width="2" /></svg>