<?xml version='1.0' encoding='utf-8'?>
<svg xmlns="http://www.w3.org/2000/svg" height="100px" version="1.0" viewBox="0 0 100 100" width="100px" x="0px" y="0px">
<line fill="none" stroke="#000000" stroke-width="2" x1="87.5" x2="26" y1="40" y2="40" /><line fill="none" stroke="#000000" stroke-width="2" x1="93.5" x2="6.5" y1="61" y2="61" /><path d="M93,33 c-7.211,-6.85 -17.654,-15.382 -27,-22" fill="none" stroke="#000000" stroke-width="2" /><path d="M7,27.5 c23.223,-0.425 49.494,-1.641 76,-3.5" fill="none" stroke="#000000" stroke-width="2" /><path d="M22,27 c7.296,-6.536 14.764,-14.724 21,-23" fill="none" stroke="#000000" stroke-width="2" /><path d="M10.5,55 c9.285,-6.753 16.734,-15.396 21.5,-24.5" fill="none" stroke="#000000" stroke-width="2" /><path d="M7.5,91 c27.717,-6.616 43.5,-20.845 43.5,-33.5 V40.0" fill="none" stroke="#000000" stroke-width="2" /><path d="M92.5,91 c-26.281,-6.274 -41.5,-20.753 -41.5,-33.5" fill="none" stroke="#000000" stroke-width="2" /></svg>