<?xml version='1.0' encoding='utf-8'?>
<svg xmlns="http://www.w3.org/2000/svg" height="100px" version="1.0" viewBox="0 0 100 100" width="100px" x="0px" y="0px">
<line fill="none" stroke="#000000" stroke-width="2" x1="35.5" x2="6" y1="11" y2="11" /><line fill="none" stroke="#000000" stroke-width="2" x1="43.5" x2="65.5" y1="39" y2="39" /><line fill="none" stroke="#000000" stroke-width="2" x1="43.5" x2="43.5" y1="87.5" y2="6.5" /><polyline fill="none" points="15,81 32.5,81 32.5,42.5 14,42.5 14,91" stroke="#000000" stroke-width="2" /><path d="M3,63 c8.673,-11.171 14.006,-26.27 16.5,-52" fill="none" stroke="#000000" stroke-width="2" /><path d="M71,45 c8.25,-5.924 15.531,-13.675 24,-26" fill="none" stroke="#000000" stroke-width="2" /><path d="M30.5,91.5 c12.262,-3.248 23.281,-7.521 36,-14" fill="none" stroke="#000000" stroke-width="2" /><path d="M71,6.5 v79.0 c0,4.583 0.578,5 11.5,5 c11.73,0 11.94,-0.206 13,-29" fill="none" stroke="#000000" stroke-width="2" /></svg>