<?xml version='1.0' encoding='utf-8'?>
<svg xmlns="http://www.w3.org/2000/svg" height="100px" version="1.0" viewBox="0 0 100 100" width="100px" x="0px" y="0px">
<line fill="none" stroke="#000000" stroke-width="2" x1="69.5" x2="91.5" y1="59" y2="59" /><line fill="none" stroke="#000000" stroke-width="2" x1="70.5" x2="91.5" y1="33.5" y2="33.5" /><line fill="none" stroke="#000000" stroke-width="2" x1="37.5" x2="59" y1="59" y2="59" /><line fill="none" stroke="#000000" stroke-width="2" x1="38.5" x2="59" y1="33.5" y2="33.5" /><line fill="none" stroke="#000000" stroke-width="2" x1="31.5" x2="4.5" y1="11" y2="11" /><line fill="none" stroke="#000000" stroke-width="2" x1="11.5" x2="11.5" y1="42.5" y2="93" /><polyline fill="none" points="12.5,83 29.5,83 29.5,42.5 11.5,42.5" stroke="#000000" stroke-width="2" /><path d="M63,92.5 c4.441,-10.866 6.5,-23.313 6.5,-46.5 v-36.0 h23.0 v73.0 c0,7.674 -0.391,8 -5,8 c-1.71,0 -4.929,-0.155 -10,-0.5" fill="none" stroke="#000000" stroke-width="2" /><path d="M31,92.5 c4.441,-10.866 6.5,-23.313 6.5,-46.5 v-36.0 h22.5 v73.0 c0,7.674 -0.391,8 -5,8 c-1.71,0 -4.929,-0.155 -10,-0.5" fill="none" stroke="#000000" stroke-width="2" /><path d="M2,63 c7.358,-11.171 11.884,-26.27 14,-52" fill="none" stroke="#000000" stroke-width="2" /></svg>