<?xml version='1.0' encoding='utf-8'?>
<svg xmlns="http://www.w3.org/2000/svg" height="100px" version="1.0" viewBox="0 0 100 100" width="100px" x="0px" y="0px">
<line fill="none" stroke="#000000" stroke-width="2" x1="36.5" x2="6" y1="11" y2="11" /><line fill="none" stroke="#000000" stroke-width="2" x1="45.5" x2="88.5" y1="87" y2="87" /><line fill="none" stroke="#000000" stroke-width="2" x1="37.5" x2="96.5" y1="41.5" y2="41.5" /><line fill="none" stroke="#000000" stroke-width="2" x1="38.5" x2="95.5" y1="15.5" y2="15.5" /><line fill="none" stroke="#000000" stroke-width="2" x1="67" x2="67" y1="15" y2="3.5" /><polyline fill="none" points="15,81 34,81 34,42.5 14,42.5 14,91" stroke="#000000" stroke-width="2" /><polyline fill="none" points="89.5,93 89.5,55.5 44.5,55.5 44.5,93" stroke="#000000" stroke-width="2" /><path d="M3,63 c8.673,-11.171 14.006,-26.27 16.5,-52" fill="none" stroke="#000000" stroke-width="2" /><path d="M77.5,41.5 c3.418,-7.409 6.219,-16.329 8,-26" fill="none" stroke="#000000" stroke-width="2" /><path d="M55.5,41.5 c-2.117,-8.986 -4.596,-17.603 -7.5,-26" fill="none" stroke="#000000" stroke-width="2" /></svg>