<?xml version='1.0' encoding='utf-8'?>
<svg xmlns="http://www.w3.org/2000/svg" height="100px" version="1.0" viewBox="0 0 100 100" width="100px" x="0px" y="0px">
<line fill="none" stroke="#000000" stroke-width="2" x1="21" x2="21" y1="94" y2="11.5" /><line fill="none" stroke="#000000" stroke-width="2" x1="35.5" x2="5" y1="33" y2="33" /><line fill="none" stroke="#000000" stroke-width="2" x1="41.5" x2="63.5" y1="39" y2="39" /><line fill="none" stroke="#000000" stroke-width="2" x1="41.5" x2="41.5" y1="87.5" y2="6.5" /><path d="M36,8 c-10.381,2.732 -20.033,4.682 -30,6" fill="none" stroke="#000000" stroke-width="2" /><path d="M4,72.5 c7.954,-13.023 13.176,-25.655 16.5,-40" fill="none" stroke="#000000" stroke-width="2" /><path d="M36.5,60 c-4.745,-8.381 -9.939,-17.356 -15,-26" fill="none" stroke="#000000" stroke-width="2" /><path d="M69,45 c8.938,-5.924 16.824,-13.675 26,-26" fill="none" stroke="#000000" stroke-width="2" /><path d="M28.5,91.5 c12.262,-3.248 23.281,-7.521 36,-14" fill="none" stroke="#000000" stroke-width="2" /><path d="M69,6.5 v79.0 c0,4.583 0.578,5 12.5,5 c12.73,0 12.94,-0.206 14,-29" fill="none" stroke="#000000" stroke-width="2" /></svg>