<?xml version='1.0' encoding='utf-8'?>
<svg xmlns="http://www.w3.org/2000/svg" height="100px" version="1.0" viewBox="0 0 100 100" width="100px" x="0px" y="0px">
<line fill="none" stroke="#000000" stroke-width="2" x1="92" x2="45.5" y1="19" y2="19" /><line fill="none" stroke="#000000" stroke-width="2" x1="94.5" x2="34" y1="46" y2="46" /><line fill="none" stroke="#000000" stroke-width="2" x1="21" x2="21" y1="94" y2="11.5" /><line fill="none" stroke="#000000" stroke-width="2" x1="36" x2="5" y1="33" y2="33" /><path d="M36.5,40 c5.201,-9.067 9.465,-20.618 12,-33" fill="none" stroke="#000000" stroke-width="2" /><path d="M33,90 c19.949,-8.535 33,-27.166 33,-48.5 V5.0" fill="none" stroke="#000000" stroke-width="2" /><path d="M95,90 c-18.162,-8.825 -29,-26.903 -29,-48.5" fill="none" stroke="#000000" stroke-width="2" /><path d="M36,8 c-10.381,2.732 -20.033,4.682 -30,6" fill="none" stroke="#000000" stroke-width="2" /><path d="M4,72.5 c7.954,-13.023 13.176,-25.655 16.5,-40" fill="none" stroke="#000000" stroke-width="2" /><path d="M35.5,63 c-4.429,-9.348 -9.277,-19.358 -14,-29" fill="none" stroke="#000000" stroke-width="2" /></svg>