<?xml version='1.0' encoding='utf-8'?>
<svg xmlns="http://www.w3.org/2000/svg" height="100px" version="1.0" viewBox="0 0 100 100" width="100px" x="0px" y="0px">
<line fill="none" stroke="#000000" stroke-width="2" x1="20" x2="20" y1="94" y2="11.5" /><line fill="none" stroke="#000000" stroke-width="2" x1="33.5" x2="5" y1="33.5" y2="33.5" /><line fill="none" stroke="#000000" stroke-width="2" x1="68.5" x2="68.5" y1="94" y2="42.5" /><line fill="none" stroke="#000000" stroke-width="2" x1="95.5" x2="33.5" y1="38" y2="38" /><path d="M34,8 c-9.688,2.732 -18.697,4.682 -28,6" fill="none" stroke="#000000" stroke-width="2" /><path d="M4,73 c7.473,-13.023 12.377,-25.655 15.5,-40" fill="none" stroke="#000000" stroke-width="2" /><path d="M33.5,63.5 c-4.037,-9.303 -8.594,-19.45 -13,-29" fill="none" stroke="#000000" stroke-width="2" /><path d="M46,89 v-34.0 h45.0 v26.96 c0,4.303 -0.297,4.54 -5.5,4.54 c-1.743,0 -4.457,-0.133 -9.5,-0.5" fill="none" stroke="#000000" stroke-width="2" /><path d="M29,74 c13.695,-12.584 23.168,-27.751 29,-46.5" fill="none" stroke="#000000" stroke-width="2" /><path d="M37,31.5 c20.184,-6.026 38.168,-15.64 51,-26.5" fill="none" stroke="#000000" stroke-width="2" /><path d="M43.5,9 c16.748,5.519 31.203,11.992 50,22.5" fill="none" stroke="#000000" stroke-width="2" /></svg>