<?xml version='1.0' encoding='utf-8'?>
<svg xmlns="http://www.w3.org/2000/svg" height="100px" version="1.0" viewBox="0 0 100 100" width="100px" x="0px" y="0px">
<line fill="none" stroke="#000000" stroke-width="2" x1="20" x2="20" y1="94" y2="11.5" /><line fill="none" stroke="#000000" stroke-width="2" x1="33" x2="5" y1="35.5" y2="35.5" /><line fill="none" stroke="#000000" stroke-width="2" x1="39.5" x2="89.5" y1="41" y2="41" /><line fill="none" stroke="#000000" stroke-width="2" x1="64" x2="64" y1="56.5" y2="4.5" /><line fill="none" stroke="#000000" stroke-width="2" x1="34" x2="94" y1="14.5" y2="14.5" /><polyline fill="none" points="39.5,57.5 89.5,57.5 89.5,25.5 38.5,25.5 38.5,58.5" stroke="#000000" stroke-width="2" /><path d="M34,8 c-9.688,2.732 -18.697,4.682 -28,6" fill="none" stroke="#000000" stroke-width="2" /><path d="M4,75 c7.473,-13.023 12.377,-25.655 15.5,-40" fill="none" stroke="#000000" stroke-width="2" /><path d="M33.5,65.5 c-4.037,-9.303 -8.594,-19.45 -13,-29" fill="none" stroke="#000000" stroke-width="2" /><path d="M48.5,65 v15.5 c0,11.769 0.281,12 15,12 c18.797,0 19.068,-0.227 20,-15.5" fill="none" stroke="#000000" stroke-width="2" /><path d="M29,89.5 c4.49,-6.277 8.309,-14.532 10.5,-23" fill="none" stroke="#000000" stroke-width="2" /><path d="M96,90 c-3.073,-8.157 -7.004,-16.654 -11.5,-24.5" fill="none" stroke="#000000" stroke-width="2" /><path d="M71.5,79 c-3.586,-5.216 -7.797,-10.455 -12.5,-15.5" fill="none" stroke="#000000" stroke-width="2" /></svg>