<?xml version='1.0' encoding='utf-8'?>
<svg xmlns="http://www.w3.org/2000/svg" height="100px" version="1.0" viewBox="0 0 100 100" width="100px" x="0px" y="0px">
<line fill="none" stroke="#000000" stroke-width="2" x1="4.5" x2="34.5" y1="25" y2="25" /><line fill="none" stroke="#000000" stroke-width="2" x1="19.5" x2="19.5" y1="25" y2="7" /><line fill="none" stroke="#000000" stroke-width="2" x1="92.5" x2="46.5" y1="40" y2="40" /><line fill="none" stroke="#000000" stroke-width="2" x1="96.5" x2="33" y1="61" y2="61" /><path d="M4.5,87 c10.165,-2.489 18.964,-5.403 30,-10" fill="none" stroke="#000000" stroke-width="2" /><path d="M24,81 c2.68,-13.673 4.975,-30.976 6.5,-49.5" fill="none" stroke="#000000" stroke-width="2" /><path d="M13.5,73.5 c-1.303,-13.792 -2.887,-28.188 -4.5,-41.5" fill="none" stroke="#000000" stroke-width="2" /><path d="M96,33 c-4.94,-6.85 -12.076,-15.407 -18.5,-22" fill="none" stroke="#000000" stroke-width="2" /><path d="M36,27.5 c15.965,-0.394 34.777,-1.641 53,-3.5" fill="none" stroke="#000000" stroke-width="2" /><path d="M45,27.5 c4.97,-6.608 10.243,-15.188 14.5,-23.5" fill="none" stroke="#000000" stroke-width="2" /><path d="M35.5,55 c6.65,-6.804 12.065,-15.396 15.5,-24.5" fill="none" stroke="#000000" stroke-width="2" /><path d="M32.5,91 c20.418,-7.106 32.5,-20.845 32.5,-33.5 V40.0" fill="none" stroke="#000000" stroke-width="2" /><path d="M95.5,91 c-19.291,-6.95 -30.5,-20.753 -30.5,-33.5" fill="none" stroke="#000000" stroke-width="2" /></svg>