<?xml version='1.0' encoding='utf-8'?>
<svg xmlns="http://www.w3.org/2000/svg" height="100px" version="1.0" viewBox="0 0 100 100" width="100px" x="0px" y="0px">
<line fill="none" stroke="#000000" stroke-width="2" x1="94" x2="57" y1="13" y2="13" /><line fill="none" stroke="#000000" stroke-width="2" x1="51" x2="17.5" y1="13" y2="13" /><line fill="none" stroke="#000000" stroke-width="2" x1="7.5" x2="93" y1="68.5" y2="64" /><line fill="none" stroke="#000000" stroke-width="2" x1="9" x2="91.5" y1="33" y2="30" /><path d="M33.5,25 c-1.65,-3.896 -3.557,-8.048 -5.5,-12" fill="none" stroke="#000000" stroke-width="2" /><path d="M73.5,23.5 c-1.498,-3.436 -3.211,-7.021 -5,-10.5" fill="none" stroke="#000000" stroke-width="2" /><path d="M23,3 c-3.148,7.932 -9.355,16.47 -17,23" fill="none" stroke="#000000" stroke-width="2" /><path d="M63,3 c-3.197,7.269 -9.836,15.362 -18,21.5" fill="none" stroke="#000000" stroke-width="2" /><path d="M82,68 c-11.558,10.335 -35.107,19.491 -69.5,24" fill="none" stroke="#000000" stroke-width="2" /><path d="M37.5,54.5 c5.991,23.145 36.649,37.5 47.5,37.5 c3.811,0 6.156,-2.205 9,-11" fill="none" stroke="#000000" stroke-width="2" /><path d="M54,54.999 c5.795,3.072 11.682,6.56 17,10.001" fill="none" stroke="#000000" stroke-width="2" /><path d="M80.5,33.5 c-10.889,9.206 -32.801,17.322 -66.5,21.5" fill="none" stroke="#000000" stroke-width="2" /><path d="M38,21.5 c5.449,21.164 35.075,34 45.5,34 c3.438,0 5.59,-1.985 8.5,-10.5" fill="none" stroke="#000000" stroke-width="2" /><path d="M58,21 c5.619,2.946 11.34,6.249 16.5,9.5" fill="none" stroke="#000000" stroke-width="2" /></svg>