<?xml version='1.0' encoding='utf-8'?>
<svg xmlns="http://www.w3.org/2000/svg" height="100px" version="1.0" viewBox="0 0 100 100" width="100px" x="0px" y="0px">
<line fill="none" stroke="#000000" stroke-width="2" x1="95" x2="55" y1="13" y2="13" /><line fill="none" stroke="#000000" stroke-width="2" x1="49" x2="16.5" y1="13" y2="13" /><line fill="none" stroke="#000000" stroke-width="2" x1="14.5" x2="14.5" y1="94" y2="42.5" /><line fill="none" stroke="#000000" stroke-width="2" x1="30" x2="30" y1="84.5" y2="34" /><line fill="none" stroke="#000000" stroke-width="2" x1="50.5" x2="94" y1="28" y2="28" /><line fill="none" stroke="#000000" stroke-width="2" x1="95" x2="36" y1="63.5" y2="63.5" /><line fill="none" stroke="#000000" stroke-width="2" x1="65.5" x2="65.5" y1="94" y2="53" /><path d="M34,28 c-1.833,-4.87 -3.895,-10.03 -6,-15" fill="none" stroke="#000000" stroke-width="2" /><path d="M74,28 c-1.833,-4.87 -3.895,-10.03 -6,-15" fill="none" stroke="#000000" stroke-width="2" /><path d="M22,3 c-3.148,7.932 -9.355,16.47 -17,23" fill="none" stroke="#000000" stroke-width="2" /><path d="M61,3 c-3.717,8.452 -11.482,17.896 -21,25" fill="none" stroke="#000000" stroke-width="2" /><path d="M22,21.5 c-4.001,15.978 -11.025,29.996 -20,41" fill="none" stroke="#000000" stroke-width="2" /><path d="M36.5,57 c25.091,-5.441 41.911,-16.81 48,-29" fill="none" stroke="#000000" stroke-width="2" /><path d="M94,57 c-20.746,-5.567 -36.246,-15.753 -44,-28" fill="none" stroke="#000000" stroke-width="2" /><path d="M38,44 c6.484,-6.307 12.465,-14.888 16,-23" fill="none" stroke="#000000" stroke-width="2" /><path d="M35,89 c14.037,-8.208 23.393,-16.592 29.5,-25.5" fill="none" stroke="#000000" stroke-width="2" /><path d="M96,89 c-14.037,-8.208 -23.393,-16.592 -29.5,-25.5" fill="none" stroke="#000000" stroke-width="2" /></svg>