<?xml version='1.0' encoding='utf-8'?>
<svg xmlns="http://www.w3.org/2000/svg" height="100px" version="1.0" viewBox="0 0 100 100" width="100px" x="0px" y="0px">
<line fill="none" stroke="#000000" stroke-width="2" x1="94" x2="56" y1="13" y2="13" /><line fill="none" stroke="#000000" stroke-width="2" x1="50" x2="17.5" y1="13" y2="13" /><line fill="none" stroke="#000000" stroke-width="2" x1="6" x2="94" y1="47" y2="47" /><line fill="none" stroke="#000000" stroke-width="2" x1="11" x2="89" y1="31" y2="31" /><line fill="none" stroke="#000000" stroke-width="2" x1="50" x2="50" y1="31" y2="22.5" /><line fill="none" stroke="#000000" stroke-width="2" x1="17.5" x2="83.5" y1="68" y2="68" /><polyline fill="none" points="16.5,88.5 16.5,55 83.5,55 83.5,81.5 17.5,81.5" stroke="#000000" stroke-width="2" /><path d="M34,28 c-1.832,-4.87 -3.895,-10.029 -6,-15" fill="none" stroke="#000000" stroke-width="2" /><path d="M75,28 c-1.832,-4.87 -3.895,-10.029 -6,-15" fill="none" stroke="#000000" stroke-width="2" /><path d="M23,3 c-3.148,7.932 -9.355,16.47 -17,23" fill="none" stroke="#000000" stroke-width="2" /><path d="M63,3 c-3.717,7.438 -11.482,15.749 -21,22" fill="none" stroke="#000000" stroke-width="2" /><path d="M61,47 c5.064,-4.525 9.145,-9.998 12,-16" fill="none" stroke="#000000" stroke-width="2" /><path d="M38,47 c-3.4,-5.406 -7.391,-10.747 -12,-16" fill="none" stroke="#000000" stroke-width="2" /><path d="M93.5,75 c-1.533,17.278 -1.842,17.5 -25,17.5 c-18.108,0 -18.5,-0.401 -18.5,-7.5 v-30.0" fill="none" stroke="#000000" stroke-width="2" /></svg>