<?xml version='1.0' encoding='utf-8'?>
<svg xmlns="http://www.w3.org/2000/svg" height="100px" version="1.0" viewBox="0 0 100 100" width="100px" x="0px" y="0px">
<line fill="none" stroke="#000000" stroke-width="2" x1="50" x2="50" y1="94" y2="59" /><line fill="none" stroke="#000000" stroke-width="2" x1="93.5" x2="6.5" y1="67" y2="67" /><line fill="none" stroke="#000000" stroke-width="2" x1="94" x2="56.5" y1="11.5" y2="11.5" /><line fill="none" stroke="#000000" stroke-width="2" x1="50" x2="18" y1="11.5" y2="11.5" /><path d="M6,89.5 c20.602,-7.228 34.025,-14.442 43,-22" fill="none" stroke="#000000" stroke-width="2" /><path d="M94,89.5 c-20.602,-7.228 -34.025,-14.442 -43,-22" fill="none" stroke="#000000" stroke-width="2" /><path d="M34.5,48 c4.426,-4.521 8.328,-10.657 10.5,-16.5" fill="none" stroke="#000000" stroke-width="2" /><path d="M93.5,53.5 c-2.676,-5.735 -6.424,-11.853 -10.5,-17" fill="none" stroke="#000000" stroke-width="2" /><path d="M10,62.5 c8.296,-4.784 15.274,-10.481 20,-16" fill="none" stroke="#000000" stroke-width="2" /><path d="M30,31 c-4.766,-2.279 -10.535,-4.677 -17,-7" fill="none" stroke="#000000" stroke-width="2" /><path d="M24,43 c-4.938,-2.553 -10.68,-5.024 -17.5,-7.5" fill="none" stroke="#000000" stroke-width="2" /><path d="M31.5,60 c15.148,-4.849 26.872,-18.05 29.5,-33.5" fill="none" stroke="#000000" stroke-width="2" /><path d="M33.5,26.5 h48.0 c-3.594,25.769 -7.117,31 -13,31 c-2.771,0 -9.596,-0.468 -14,-1" fill="none" stroke="#000000" stroke-width="2" /><path d="M34,22.5 c-1.833,-3.571 -3.895,-7.356 -6,-11" fill="none" stroke="#000000" stroke-width="2" /><path d="M74,22.5 c-1.833,-3.571 -3.895,-7.356 -6,-11" fill="none" stroke="#000000" stroke-width="2" /><path d="M23,3 c-3.148,7.242 -9.377,15.011 -17,21" fill="none" stroke="#000000" stroke-width="2" /><path d="M63,3 c-3.74,6.749 -11.482,14.317 -21,20" fill="none" stroke="#000000" stroke-width="2" /></svg>