<?xml version='1.0' encoding='utf-8'?>
<svg xmlns="http://www.w3.org/2000/svg" height="100px" version="1.0" viewBox="0 0 100 100" width="100px" x="0px" y="0px">
<line fill="none" stroke="#000000" stroke-width="2" x1="20.5" x2="20.5" y1="94" y2="6" /><line fill="none" stroke="#000000" stroke-width="2" x1="35.5" x2="4" y1="39" y2="39" /><line fill="none" stroke="#000000" stroke-width="2" x1="41.5" x2="63.5" y1="39" y2="39" /><line fill="none" stroke="#000000" stroke-width="2" x1="41.5" x2="41.5" y1="87.5" y2="6.5" /><path d="M3,79.5 c8.184,-13.373 13.541,-26.336 17,-41" fill="none" stroke="#000000" stroke-width="2" /><path d="M34,70.5 c-3.813,-9.873 -8.363,-20.558 -13,-30.5" fill="none" stroke="#000000" stroke-width="2" /><path d="M15,34 c-2.652,-7.823 -5.872,-15.646 -9,-22" fill="none" stroke="#000000" stroke-width="2" /><path d="M26,34 c3.673,-7.122 7.027,-15.65 9,-23" fill="none" stroke="#000000" stroke-width="2" /><path d="M69,45 c8.938,-5.924 16.824,-13.675 26,-26" fill="none" stroke="#000000" stroke-width="2" /><path d="M28.5,91.5 c12.262,-3.248 23.281,-7.521 36,-14" fill="none" stroke="#000000" stroke-width="2" /><path d="M69,6.5 v79.0 c0,4.583 0.578,5 12.5,5 c12.73,0 12.94,-0.206 14,-29" fill="none" stroke="#000000" stroke-width="2" /></svg>