<?xml version='1.0' encoding='utf-8'?>
<svg xmlns="http://www.w3.org/2000/svg" height="100px" version="1.0" viewBox="0 0 100 100" width="100px" x="0px" y="0px">
<line fill="none" stroke="#000000" stroke-width="2" x1="92" x2="8" y1="11" y2="11" /><line fill="none" stroke="#000000" stroke-width="2" x1="62" x2="62" y1="11" y2="43" /><line fill="none" stroke="#000000" stroke-width="2" x1="38" x2="38" y1="12" y2="43" /><line fill="none" stroke="#000000" stroke-width="2" x1="92" x2="8" y1="63.5" y2="63.5" /><line fill="none" stroke="#000000" stroke-width="2" x1="50" x2="50" y1="94" y2="45" /><polyline fill="none" points="15,45 15,23 85,23 85,44 16,44" stroke="#000000" stroke-width="2" /><path d="M94,90.5 c-20.882,-8.638 -34.489,-17.453 -43,-27" fill="none" stroke="#000000" stroke-width="2" /><path d="M38.5,63.5 c-5.387,-5.718 -11.32,-11.257 -17,-16" fill="none" stroke="#000000" stroke-width="2" /><path d="M61.5,63.5 c6.869,-5.063 12.97,-10.887 17,-16" fill="none" stroke="#000000" stroke-width="2" /><path d="M6,90.5 c20.882,-8.638 34.489,-17.453 43,-27" fill="none" stroke="#000000" stroke-width="2" /></svg>