<?xml version='1.0' encoding='utf-8'?>
<svg xmlns="http://www.w3.org/2000/svg" height="100px" version="1.0" viewBox="0 0 100 100" width="100px" x="0px" y="0px">
<line fill="none" stroke="#000000" stroke-width="2" x1="42.5" x2="96.5" y1="89.5" y2="89.5" /><line fill="none" stroke="#000000" stroke-width="2" x1="92.5" x2="48" y1="48.5" y2="48.5" /><line fill="none" stroke="#000000" stroke-width="2" x1="70.5" x2="70.5" y1="89.5" y2="22.5" /><line fill="none" stroke="#000000" stroke-width="2" x1="69.5" x2="69.5" y1="17.5" y2="4.5" /><line fill="none" stroke="#000000" stroke-width="2" x1="20.5" x2="20.5" y1="94" y2="6" /><line fill="none" stroke="#000000" stroke-width="2" x1="35.5" x2="4" y1="39" y2="39" /><path d="M37,92.5 c3.977,-13.724 6,-29.487 6,-51 v-24.0 h52.0" fill="none" stroke="#000000" stroke-width="2" /><path d="M3,79.5 c8.184,-13.373 13.541,-26.336 17,-41" fill="none" stroke="#000000" stroke-width="2" /><path d="M37,71 c-4.798,-10.039 -10.362,-20.818 -16,-31" fill="none" stroke="#000000" stroke-width="2" /><path d="M15,34 c-2.652,-7.823 -5.872,-15.646 -9,-22" fill="none" stroke="#000000" stroke-width="2" /><path d="M26,34 c3.673,-7.122 7.027,-15.65 9,-23" fill="none" stroke="#000000" stroke-width="2" /></svg>