<?xml version='1.0' encoding='utf-8'?>
<svg xmlns="http://www.w3.org/2000/svg" height="100px" version="1.0" viewBox="0 0 100 100" width="100px" x="0px" y="0px">
<line fill="none" stroke="#000000" stroke-width="2" x1="20.5" x2="20.5" y1="94" y2="6" /><line fill="none" stroke="#000000" stroke-width="2" x1="35.5" x2="4" y1="39" y2="39" /><line fill="none" stroke="#000000" stroke-width="2" x1="86.5" x2="45.5" y1="30.5" y2="30.5" /><line fill="none" stroke="#000000" stroke-width="2" x1="66" x2="66" y1="15.5" y2="2.5" /><line fill="none" stroke="#000000" stroke-width="2" x1="95" x2="35" y1="49.5" y2="49.5" /><polyline fill="none" points="93,32.5 93,15.5 39,15.5 39,32.5" stroke="#000000" stroke-width="2" /><path d="M3,79.5 c8.184,-13.373 13.541,-26.336 17,-41" fill="none" stroke="#000000" stroke-width="2" /><path d="M34,70.5 c-3.819,-9.834 -8.391,-20.581 -13,-30.5" fill="none" stroke="#000000" stroke-width="2" /><path d="M15,34 c-2.652,-7.823 -5.872,-15.646 -9,-22" fill="none" stroke="#000000" stroke-width="2" /><path d="M26,34 c3.673,-7.122 7.027,-15.65 9,-23" fill="none" stroke="#000000" stroke-width="2" /><path d="M66.5,49.5 v37.0 c0,4.269 -0.705,5 -6,5 c-2.352,0 -5.623,-0.132 -10.5,-0.5" fill="none" stroke="#000000" stroke-width="2" /><path d="M34.5,86.5 c7.086,-6.786 13.021,-15.609 16.5,-24.5" fill="none" stroke="#000000" stroke-width="2" /><path d="M94.5,87 c-4.768,-8.138 -11.123,-17.015 -18,-25" fill="none" stroke="#000000" stroke-width="2" /></svg>