<?xml version='1.0' encoding='utf-8'?>
<svg xmlns="http://www.w3.org/2000/svg" height="100px" version="1.0" viewBox="0 0 100 100" width="100px" x="0px" y="0px">
<line fill="none" stroke="#000000" stroke-width="2" x1="20.5" x2="20.5" y1="94" y2="6" /><line fill="none" stroke="#000000" stroke-width="2" x1="34" x2="4" y1="39" y2="39" /><line fill="none" stroke="#000000" stroke-width="2" x1="36.5" x2="96" y1="14.5" y2="14.5" /><line fill="none" stroke="#000000" stroke-width="2" x1="56" x2="56" y1="49" y2="3.5" /><line fill="none" stroke="#000000" stroke-width="2" x1="74.5" x2="74.5" y1="49" y2="3.5" /><line fill="none" stroke="#000000" stroke-width="2" x1="39" x2="91.5" y1="37" y2="37" /><line fill="none" stroke="#000000" stroke-width="2" x1="41.5" x2="89" y1="87" y2="87" /><line fill="none" stroke="#000000" stroke-width="2" x1="41.5" x2="89" y1="73" y2="73" /><polyline fill="none" points="39,50 92.5,50 92.5,24 38,24 38,51" stroke="#000000" stroke-width="2" /><polyline fill="none" points="90,93 90,59 40.5,59 40.5,93" stroke="#000000" stroke-width="2" /><path d="M3,79.5 c8.184,-13.373 13.541,-26.336 17,-41" fill="none" stroke="#000000" stroke-width="2" /><path d="M33,69 c-3.521,-9.388 -7.753,-19.532 -12,-29" fill="none" stroke="#000000" stroke-width="2" /><path d="M15,34 c-2.652,-7.823 -5.872,-15.646 -9,-22" fill="none" stroke="#000000" stroke-width="2" /><path d="M26,34 c3.673,-7.122 7.027,-15.65 9,-23" fill="none" stroke="#000000" stroke-width="2" /></svg>