<?xml version='1.0' encoding='utf-8'?>
<svg xmlns="http://www.w3.org/2000/svg" height="100px" version="1.0" viewBox="0 0 100 100" width="100px" x="0px" y="0px">
<line fill="none" stroke="#000000" stroke-width="2" x1="3.5" x2="34.5" y1="52" y2="50" /><line fill="none" stroke="#000000" stroke-width="2" x1="21" x2="21" y1="51" y2="94" /><line fill="none" stroke="#000000" stroke-width="2" x1="42.5" x2="64.5" y1="39" y2="39" /><line fill="none" stroke="#000000" stroke-width="2" x1="42.5" x2="42.5" y1="87.5" y2="6.5" /><path d="M36,57.5 c-1.403,-7.545 -3.801,-16.481 -6.5,-24" fill="none" stroke="#000000" stroke-width="2" /><path d="M5.5,87.5 c2.879,-9.126 4.795,-19.038 5.5,-28.5" fill="none" stroke="#000000" stroke-width="2" /><path d="M34,81.5 c-0.596,-6.759 -1.969,-15.816 -3.5,-23" fill="none" stroke="#000000" stroke-width="2" /><path d="M9.5,51.5 c8.773,-11.431 16.518,-23.412 23.5,-36.5" fill="none" stroke="#000000" stroke-width="2" /><path d="M17,41 c-3.258,-6.554 -7.862,-15.377 -11.5,-22" fill="none" stroke="#000000" stroke-width="2" /><path d="M10,27.5 c4.367,-7.057 8.246,-14.042 12,-21.5" fill="none" stroke="#000000" stroke-width="2" /><path d="M70,45 c8.594,-5.924 16.178,-13.675 25,-26" fill="none" stroke="#000000" stroke-width="2" /><path d="M29.5,91.5 c12.262,-3.248 23.281,-7.521 36,-14" fill="none" stroke="#000000" stroke-width="2" /><path d="M70,6.5 v79.0 c0,4.583 0.578,5 12,5 c12.23,0 12.44,-0.206 13.5,-29" fill="none" stroke="#000000" stroke-width="2" /></svg>