<?xml version='1.0' encoding='utf-8'?>
<svg xmlns="http://www.w3.org/2000/svg" height="100px" version="1.0" viewBox="0 0 100 100" width="100px" x="0px" y="0px">
<line fill="none" stroke="#000000" stroke-width="2" x1="4" x2="39.5" y1="52" y2="50" /><line fill="none" stroke="#000000" stroke-width="2" x1="24" x2="24" y1="51" y2="94" /><line fill="none" stroke="#000000" stroke-width="2" x1="95.5" x2="40" y1="22" y2="22" /><path d="M41,56.5 c-1.619,-7.545 -4.385,-16.48 -7.5,-24" fill="none" stroke="#000000" stroke-width="2" /><path d="M6,87.5 c3.402,-9.126 5.666,-19.038 6.5,-28.5" fill="none" stroke="#000000" stroke-width="2" /><path d="M38,83 c-0.682,-6.329 -2.549,-17.711 -4,-24.5" fill="none" stroke="#000000" stroke-width="2" /><path d="M11,51.5 c10.08,-11.431 18.977,-23.412 27,-36.5" fill="none" stroke="#000000" stroke-width="2" /><path d="M19.5,41 c-3.684,-6.554 -8.887,-15.377 -13,-22" fill="none" stroke="#000000" stroke-width="2" /><path d="M11.5,27.5 c5.096,-7.057 9.62,-14.042 14,-21.5" fill="none" stroke="#000000" stroke-width="2" /><path d="M37.5,92.5 c12.178,-18.191 19.854,-45.067 22,-88" fill="none" stroke="#000000" stroke-width="2" /><path d="M95.5,92.5 c-3.077,-11.451 -7.545,-25.868 -11.5,-37" fill="none" stroke="#000000" stroke-width="2" /><path d="M47,89.5 c14.127,-0.872 30.008,-3.663 45.5,-8" fill="none" stroke="#000000" stroke-width="2" /><path d="M58,88.5 c4.89,-15.696 9.777,-34.926 14,-55" fill="none" stroke="#000000" stroke-width="2" /></svg>