<?xml version='1.0' encoding='utf-8'?>
<svg xmlns="http://www.w3.org/2000/svg" height="100px" version="1.0" viewBox="0 0 100 100" width="100px" x="0px" y="0px">
<line fill="none" stroke="#000000" stroke-width="2" x1="38.5" x2="94.5" y1="31.5" y2="31.5" /><line fill="none" stroke="#000000" stroke-width="2" x1="91" x2="42" y1="15" y2="15" /><line fill="none" stroke="#000000" stroke-width="2" x1="66.5" x2="66.5" y1="31.5" y2="5" /><line fill="none" stroke="#000000" stroke-width="2" x1="4.5" x2="37" y1="52" y2="50" /><line fill="none" stroke="#000000" stroke-width="2" x1="22" x2="22" y1="51" y2="94" /><line fill="none" stroke="#000000" stroke-width="2" x1="53" x2="90.5" y1="57.5" y2="57.5" /><path d="M38.5,57.5 c-1.403,-7.545 -3.801,-16.481 -6.5,-24" fill="none" stroke="#000000" stroke-width="2" /><path d="M6.5,87.5 c2.879,-9.126 4.795,-19.038 5.5,-28.5" fill="none" stroke="#000000" stroke-width="2" /><path d="M35,84.5 c-0.596,-7.641 -1.969,-17.879 -3.5,-26" fill="none" stroke="#000000" stroke-width="2" /><path d="M10.5,51.5 c8.773,-11.431 16.518,-23.412 23.5,-36.5" fill="none" stroke="#000000" stroke-width="2" /><path d="M18,41 c-3.258,-6.554 -7.862,-15.377 -11.5,-22" fill="none" stroke="#000000" stroke-width="2" /><path d="M11,27.5 c4.367,-7.057 8.246,-14.042 12,-21.5" fill="none" stroke="#000000" stroke-width="2" /><path d="M38,71 c9.027,-5.814 18.4,-16.278 21.5,-23.5" fill="none" stroke="#000000" stroke-width="2" /><path d="M89.629,58.009 c-9.076,16.088 -28.48,29.074 -53.629,33.991" fill="none" stroke="#000000" stroke-width="2" /><path d="M96.5,92 c-18.844,-6.753 -35.684,-19.237 -45,-33" fill="none" stroke="#000000" stroke-width="2" /><path d="M74.5,31.5 v13.5 c0,4.209 0.441,4.5 10.5,4.5 c9.244,0 9.465,-0.183 10.5,-11.5" fill="none" stroke="#000000" stroke-width="2" /><path d="M37.5,52.5 c12.016,-3.692 20.135,-11.44 22.5,-21" fill="none" stroke="#000000" stroke-width="2" /></svg>