<?xml version='1.0' encoding='utf-8'?>
<svg xmlns="http://www.w3.org/2000/svg" height="100px" version="1.0" viewBox="0 0 100 100" width="100px" x="0px" y="0px">
<line fill="none" stroke="#000000" stroke-width="2" x1="64.5" x2="93" y1="48" y2="48" /><line fill="none" stroke="#000000" stroke-width="2" x1="61.5" x2="41" y1="50" y2="50" /><line fill="none" stroke="#000000" stroke-width="2" x1="61.5" x2="41" y1="30.5" y2="30.5" /><line fill="none" stroke="#000000" stroke-width="2" x1="3.5" x2="33" y1="52" y2="50" /><line fill="none" stroke="#000000" stroke-width="2" x1="19.5" x2="19.5" y1="51" y2="94" /><path d="M62.5,42.5 c5.474,-5.487 7.5,-11.468 7.5,-26 v-6.5 h16.5 v26.5 c0,2.646 0.426,3 3,3 c6.129,0 6.252,-0.124 7,-13.5" fill="none" stroke="#000000" stroke-width="2" /><path d="M56.5,91 c18.346,-8.799 28.67,-20.915 35.548,-42.307" fill="none" stroke="#000000" stroke-width="2" /><path d="M97,91 c-13.271,-9.575 -23.652,-22.547 -30,-37.5" fill="none" stroke="#000000" stroke-width="2" /><path d="M63,7 c-7.521,3.985 -14.853,6.982 -22,9 v78.0" fill="none" stroke="#000000" stroke-width="2" /><path d="M64,64.5 c-10.396,4.06 -20.049,6.983 -30,9" fill="none" stroke="#000000" stroke-width="2" /><path d="M34,56.5 c-1.279,-7.545 -3.49,-16.5 -6,-24" fill="none" stroke="#000000" stroke-width="2" /><path d="M5.5,87.5 c2.624,-9.126 4.357,-19.038 5,-28.5" fill="none" stroke="#000000" stroke-width="2" /><path d="M31,82.5 c-0.547,-7.585 -1.604,-15.938 -3,-24" fill="none" stroke="#000000" stroke-width="2" /><path d="M9,51.5 c8.018,-11.415 15.133,-23.412 21.5,-36.5" fill="none" stroke="#000000" stroke-width="2" /><path d="M16,41 c-2.955,-6.562 -7.184,-15.377 -10.5,-22" fill="none" stroke="#000000" stroke-width="2" /><path d="M9.5,27.5 c3.982,-7.057 7.565,-14.049 11,-21.5" fill="none" stroke="#000000" stroke-width="2" /></svg>