<?xml version='1.0' encoding='utf-8'?>
<svg xmlns="http://www.w3.org/2000/svg" height="100px" version="1.0" viewBox="0 0 100 100" width="100px" x="0px" y="0px">
<line fill="none" stroke="#000000" stroke-width="2" x1="3.5" x2="35.5" y1="52" y2="50" /><line fill="none" stroke="#000000" stroke-width="2" x1="21" x2="21" y1="51" y2="94" /><line fill="none" stroke="#000000" stroke-width="2" x1="43" x2="90" y1="39.5" y2="39.5" /><line fill="none" stroke="#000000" stroke-width="2" x1="66.5" x2="66.5" y1="54" y2="5" /><line fill="none" stroke="#000000" stroke-width="2" x1="37" x2="97" y1="15" y2="15" /><line fill="none" stroke="#000000" stroke-width="2" x1="97" x2="37" y1="65" y2="65" /><polyline fill="none" points="43,55 91,55 91,25 42,25 42,56" stroke="#000000" stroke-width="2" /><path d="M37,57.5 c-1.403,-7.545 -3.801,-16.481 -6.5,-24" fill="none" stroke="#000000" stroke-width="2" /><path d="M5.5,87.5 c2.879,-9.126 4.795,-19.038 5.5,-28.5" fill="none" stroke="#000000" stroke-width="2" /><path d="M9.5,51.5 c8.773,-11.431 16.518,-23.412 23.5,-36.5" fill="none" stroke="#000000" stroke-width="2" /><path d="M17,41 c-3.258,-6.554 -7.862,-15.377 -11.5,-22" fill="none" stroke="#000000" stroke-width="2" /><path d="M10,27.5 c4.367,-7.057 8.246,-14.042 12,-21.5" fill="none" stroke="#000000" stroke-width="2" /><path d="M34.5,84.5 c-0.682,-6.759 -2.527,-18.755 -4,-26" fill="none" stroke="#000000" stroke-width="2" /><path d="M76.5,4.5 c4.248,2.214 9.021,4.978 13,7.5" fill="none" stroke="#000000" stroke-width="2" /><path d="M63.5,85 c-4.571,-4.554 -10.935,-9.708 -17.5,-14" fill="none" stroke="#000000" stroke-width="2" /><path d="M83.5,56 v28.5 c0,6.626 -0.361,7 -5.5,7 c-1.802,0 -6.854,-0.18 -12.5,-0.5" fill="none" stroke="#000000" stroke-width="2" /></svg>