<?xml version='1.0' encoding='utf-8'?>
<svg xmlns="http://www.w3.org/2000/svg" height="100px" version="1.0" viewBox="0 0 100 100" width="100px" x="0px" y="0px">
<line fill="none" stroke="#000000" stroke-width="2" x1="3.5" x2="33" y1="52" y2="50" /><line fill="none" stroke="#000000" stroke-width="2" x1="20.5" x2="20.5" y1="51" y2="94" /><line fill="none" stroke="#000000" stroke-width="2" x1="33.5" x2="63" y1="25.5" y2="25.5" /><line fill="none" stroke="#000000" stroke-width="2" x1="65" x2="96.5" y1="25.5" y2="25.5" /><line fill="none" stroke="#000000" stroke-width="2" x1="62" x2="35" y1="13.5" y2="13.5" /><line fill="none" stroke="#000000" stroke-width="2" x1="94.5" x2="66" y1="13.5" y2="13.5" /><line fill="none" stroke="#000000" stroke-width="2" x1="41.5" x2="87.5" y1="64" y2="64" /><line fill="none" stroke="#000000" stroke-width="2" x1="41.5" x2="87.5" y1="52.5" y2="52.5" /><polyline fill="none" points="41.5,75.5 87.5,75.5 87.5,41 40.5,41 40.5,76.5" stroke="#000000" stroke-width="2" /><path d="M34,56.5 c-1.279,-7.545 -3.49,-16.5 -6,-24" fill="none" stroke="#000000" stroke-width="2" /><path d="M5.5,87.5 c2.624,-9.126 4.357,-19.038 5,-28.5" fill="none" stroke="#000000" stroke-width="2" /><path d="M33,82.5 c-0.547,-7.585 -1.604,-15.938 -3,-24" fill="none" stroke="#000000" stroke-width="2" /><path d="M9,51.5 c8.018,-11.415 15.133,-23.412 21.5,-36.5" fill="none" stroke="#000000" stroke-width="2" /><path d="M16,41 c-2.955,-6.562 -7.184,-15.377 -10.5,-22" fill="none" stroke="#000000" stroke-width="2" /><path d="M9.5,27.5 c3.982,-7.057 7.565,-14.049 11,-21.5" fill="none" stroke="#000000" stroke-width="2" /><path d="M33,92 c9.715,-3.245 18.08,-7.771 23,-12" fill="none" stroke="#000000" stroke-width="2" /><path d="M95,93 c-5.922,-4.208 -14.098,-8.712 -23,-12.5" fill="none" stroke="#000000" stroke-width="2" /><path d="M66,38 c10.908,-6.862 13.5,-12.041 13.5,-32.5" fill="none" stroke="#000000" stroke-width="2" /><path d="M62,38 c-3.754,-3.995 -9.377,-8.262 -15.5,-11.5" fill="none" stroke="#000000" stroke-width="2" /><path d="M97,44.5 c-8.491,-5.047 -15.178,-11.761 -19,-19" fill="none" stroke="#000000" stroke-width="2" /><path d="M31.5,45 c11.82,-7.62 18,-20.482 18,-39.5" fill="none" stroke="#000000" stroke-width="2" /></svg>