<?xml version='1.0' encoding='utf-8'?>
<svg xmlns="http://www.w3.org/2000/svg" height="100px" version="1.0" viewBox="0 0 100 100" width="100px" x="0px" y="0px">
<line fill="none" stroke="#000000" stroke-width="2" x1="63" x2="63" y1="24.5" y2="10.5" /><line fill="none" stroke="#000000" stroke-width="2" x1="37" x2="37" y1="24.5" y2="10.5" /><line fill="none" stroke="#000000" stroke-width="2" x1="13" x2="49.5" y1="88.5" y2="88.5" /><line fill="none" stroke="#000000" stroke-width="2" x1="6" x2="54.5" y1="43.5" y2="43.5" /><line fill="none" stroke="#000000" stroke-width="2" x1="12" x2="50.5" y1="53" y2="53" /><line fill="none" stroke="#000000" stroke-width="2" x1="12" x2="50.5" y1="62.5" y2="62.5" /><line fill="none" stroke="#000000" stroke-width="2" x1="11.5" x2="51" y1="34" y2="34" /><line fill="none" stroke="#000000" stroke-width="2" x1="61.5" x2="61.5" y1="79" y2="36" /><polyline fill="none" points="13,25.5 88,25.5 88,9.5 12,9.5 12,26.5" stroke="#000000" stroke-width="2" /><polyline fill="none" points="50.5,94 50.5,72 12,72 12,94" stroke="#000000" stroke-width="2" /><path d="M87.5,32 v51.0 c0,7.13 -0.867,8 -6.5,8 c-2.75,0 -6.917,-0.144 -12.5,-0.5" fill="none" stroke="#000000" stroke-width="2" /></svg>