<?xml version='1.0' encoding='utf-8'?>
<svg xmlns="http://www.w3.org/2000/svg" height="100px" version="1.0" viewBox="0 0 100 100" width="100px" x="0px" y="0px">
<line fill="none" stroke="#000000" stroke-width="2" x1="64" x2="64" y1="94" y2="50" /><line fill="none" stroke="#000000" stroke-width="2" x1="85.5" x2="51.5" y1="31.5" y2="31.5" /><line fill="none" stroke="#000000" stroke-width="2" x1="42" x2="5" y1="23" y2="23" /><line fill="none" stroke="#000000" stroke-width="2" x1="38.5" x2="6" y1="43" y2="43" /><path d="M41,50 h50.0 v26.0 c0,7.636 -0.4,8 -5,8 c-1.319,0 -6.446,-0.208 -11,-0.5" fill="none" stroke="#000000" stroke-width="2" /><path d="M97,36 c-10.797,-9.185 -20.742,-19.487 -29.5,-30.8 c-8.412,12.623 -16.436,21.945 -27.5,31.8" fill="none" stroke="#000000" stroke-width="2" /><path d="M17,20 c-1.911,-4.979 -3.995,-9.85 -6,-14" fill="none" stroke="#000000" stroke-width="2" /><path d="M27,23 c2.645,-5.603 5.16,-11.711 7,-17" fill="none" stroke="#000000" stroke-width="2" /><path d="M9,92 c10.771,-11.352 14,-20.692 14,-46.5 V23.0" fill="none" stroke="#000000" stroke-width="2" /><path d="M4.5,67.5 c13.583,-2.397 24.684,-5.427 37,-10" fill="none" stroke="#000000" stroke-width="2" /></svg>