<?xml version='1.0' encoding='utf-8'?>
<svg xmlns="http://www.w3.org/2000/svg" height="100px" version="1.0" viewBox="0 0 100 100" width="100px" x="0px" y="0px">
<line fill="none" stroke="#000000" stroke-width="2" x1="35.5" x2="82.5" y1="88" y2="88" /><line fill="none" stroke="#000000" stroke-width="2" x1="44.422" x2="93" y1="39" y2="39" /><line fill="none" stroke="#000000" stroke-width="2" x1="43.5" x2="43.5" y1="75.5" y2="13.5" /><line fill="none" stroke="#000000" stroke-width="2" x1="39" x2="5" y1="23" y2="23" /><line fill="none" stroke="#000000" stroke-width="2" x1="38.5" x2="6" y1="43" y2="43" /><path d="M42.5,14.5 c15.975,0 32.349,-2.302 46.5,-6.5" fill="none" stroke="#000000" stroke-width="2" /><path d="M34,78 c12.469,-2.812 23.11,-6.347 36,-12" fill="none" stroke="#000000" stroke-width="2" /><path d="M70,12.5 c0,43.784 13.5,73.5 21.5,73.5 c2.104,0 4.108,-3.888 5.5,-20.5" fill="none" stroke="#000000" stroke-width="2" /><path d="M17,20 c-1.911,-4.979 -3.995,-9.85 -6,-14" fill="none" stroke="#000000" stroke-width="2" /><path d="M27,23 c2.645,-5.603 5.16,-11.711 7,-17" fill="none" stroke="#000000" stroke-width="2" /><path d="M9,92 c10.771,-11.352 14,-20.692 14,-46.5 V23.0" fill="none" stroke="#000000" stroke-width="2" /><path d="M4.5,67.5 c12.849,-2.397 23.35,-5.427 35,-10" fill="none" stroke="#000000" stroke-width="2" /></svg>