<?xml version='1.0' encoding='utf-8'?>
<svg xmlns="http://www.w3.org/2000/svg" height="100px" version="1.0" viewBox="0 0 100 100" width="100px" x="0px" y="0px">
<line fill="none" stroke="#000000" stroke-width="2" x1="50" x2="50" y1="50.5" y2="42" /><line fill="none" stroke="#000000" stroke-width="2" x1="6.5" x2="93.5" y1="50.5" y2="50.5" /><line fill="none" stroke="#000000" stroke-width="2" x1="95" x2="5" y1="80" y2="80" /><line fill="none" stroke="#000000" stroke-width="2" x1="50" x2="50" y1="73" y2="95" /><path d="M9,37.5 c12.818,-3.163 23.42,-7.052 31,-11" fill="none" stroke="#000000" stroke-width="2" /><path d="M31,24 c-4.646,-2.726 -10.335,-5.78 -17,-9" fill="none" stroke="#000000" stroke-width="2" /><path d="M8,10 h37.0 v28.0 c0,3.255 -0.258,3.5 -5.5,3.5 c-2.32,0 -8.625,-0.165 -15.5,-0.5" fill="none" stroke="#000000" stroke-width="2" /><path d="M51.5,37.5 c12.818,-3.163 23.42,-7.052 31,-11" fill="none" stroke="#000000" stroke-width="2" /><path d="M73.5,24 c-4.646,-2.726 -10.335,-5.78 -17,-9" fill="none" stroke="#000000" stroke-width="2" /><path d="M50.5,10 h37.0 v28.0 c0,3.255 -0.258,3.5 -5.5,3.5 c-2.32,0 -8.625,-0.165 -15.5,-0.5" fill="none" stroke="#000000" stroke-width="2" /><path d="M7,75 c12.432,-5.647 20.524,-13.406 24,-22" fill="none" stroke="#000000" stroke-width="2" /><path d="M46.5,72 c-6.043,-4.265 -12.98,-7.854 -20.5,-10.5" fill="none" stroke="#000000" stroke-width="2" /><path d="M53.5,72 c9.135,-5.23 15.167,-11.852 18,-19" fill="none" stroke="#000000" stroke-width="2" /><path d="M93,75 c-7.812,-5.48 -16.792,-10.064 -26.5,-13.5" fill="none" stroke="#000000" stroke-width="2" /></svg>