<?xml version='1.0' encoding='utf-8'?>
<svg xmlns="http://www.w3.org/2000/svg" height="100px" version="1.0" viewBox="0 0 100 100" width="100px" x="0px" y="0px">
<line fill="none" stroke="#000000" stroke-width="2" x1="7.5" x2="43" y1="13.5" y2="13.5" /><line fill="none" stroke="#000000" stroke-width="2" x1="57.5" x2="92.5" y1="13.5" y2="13.5" /><line fill="none" stroke="#000000" stroke-width="2" x1="57.5" x2="94" y1="40.5" y2="40.5" /><line fill="none" stroke="#000000" stroke-width="2" x1="9.5" x2="43" y1="27" y2="27" /><line fill="none" stroke="#000000" stroke-width="2" x1="57.5" x2="90.5" y1="27" y2="27" /><line fill="none" stroke="#000000" stroke-width="2" x1="57.5" x2="57.5" y1="49" y2="5.5" /><path d="M6,43 c12.02,-1.464 23.47,-3.405 35.5,-6" fill="none" stroke="#000000" stroke-width="2" /><path d="M28,49.5 c11.922,-6.506 15,-11.556 15,-23.5 v-20.5" fill="none" stroke="#000000" stroke-width="2" /><path d="M6.5,53.5 h39.0 v33.0 c0,3.202 -0.258,3.5 -5.5,3.5 c-2.32,0 -8.623,-0.177 -15.5,-0.5" fill="none" stroke="#000000" stroke-width="2" /><path d="M7.5,86 c15.713,-5.75 28.725,-12.772 38,-20" fill="none" stroke="#000000" stroke-width="2" /><path d="M7.5,69.5 c12.793,-4.682 23.847,-10.208 32.5,-16" fill="none" stroke="#000000" stroke-width="2" /><path d="M51,53.5 h39.0 v33.0 c0,3.202 -0.258,3.5 -5.5,3.5 c-2.32,0 -8.623,-0.177 -15.5,-0.5" fill="none" stroke="#000000" stroke-width="2" /><path d="M52,85.5 c15.713,-5.75 28.725,-12.772 38,-20" fill="none" stroke="#000000" stroke-width="2" /><path d="M52,69.5 c12.793,-4.682 23.847,-10.208 32.5,-16" fill="none" stroke="#000000" stroke-width="2" /></svg>