<?xml version='1.0' encoding='utf-8'?>
<svg xmlns="http://www.w3.org/2000/svg" height="100px" version="1.0" viewBox="0 0 100 100" width="100px" x="0px" y="0px">
<line fill="none" stroke="#000000" stroke-width="2" x1="45.5" x2="15" y1="46.5" y2="46.5" /><line fill="none" stroke="#000000" stroke-width="2" x1="46.5" x2="6" y1="64" y2="64" /><line fill="none" stroke="#000000" stroke-width="2" x1="47.5" x2="96.5" y1="30.5" y2="30.5" /><line fill="none" stroke="#000000" stroke-width="2" x1="46" x2="96" y1="78" y2="78" /><line fill="none" stroke="#000000" stroke-width="2" x1="48.5" x2="93" y1="62" y2="62" /><line fill="none" stroke="#000000" stroke-width="2" x1="72" x2="72" y1="15" y2="5" /><line fill="none" stroke="#000000" stroke-width="2" x1="72" x2="72" y1="46" y2="16" /><line fill="none" stroke="#000000" stroke-width="2" x1="72" x2="72" y1="95" y2="47" /><polyline fill="none" points="49.5,47 90.5,47 90.5,15 49.5,15" stroke="#000000" stroke-width="2" /><path d="M11,7.5 v24.5 c0,3.828 0.203,4 15,4 c16.668,0 16.909,-0.153 18.5,-14" fill="none" stroke="#000000" stroke-width="2" /><path d="M11,20.5 c11.496,-2.057 21.437,-4.798 33,-9" fill="none" stroke="#000000" stroke-width="2" /><path d="M7,60 c4.751,-5.814 8.615,-13.101 11,-21" fill="none" stroke="#000000" stroke-width="2" /><path d="M6.5,92.5 c12.926,-5.605 21.5,-17.442 21.5,-30 v-16.0" fill="none" stroke="#000000" stroke-width="2" /><path d="M45.5,91.5 c-5.226,-8.128 -11.408,-16.657 -18,-24.5" fill="none" stroke="#000000" stroke-width="2" /></svg>