<?xml version='1.0' encoding='utf-8'?>
<svg xmlns="http://www.w3.org/2000/svg" height="100px" version="1.0" viewBox="0 0 100 100" width="100px" x="0px" y="0px">
<line fill="none" stroke="#000000" stroke-width="2" x1="3.5" x2="45.5" y1="55" y2="55" /><line fill="none" stroke="#000000" stroke-width="2" x1="11.5" x2="41" y1="24.5" y2="24.5" /><line fill="none" stroke="#000000" stroke-width="2" x1="11.5" x2="41" y1="39.5" y2="39.5" /><line fill="none" stroke="#000000" stroke-width="2" x1="44.5" x2="96.5" y1="30.5" y2="30.5" /><line fill="none" stroke="#000000" stroke-width="2" x1="43.5" x2="96" y1="78" y2="78" /><line fill="none" stroke="#000000" stroke-width="2" x1="46" x2="93" y1="62" y2="62" /><line fill="none" stroke="#000000" stroke-width="2" x1="70.5" x2="70.5" y1="15" y2="5" /><line fill="none" stroke="#000000" stroke-width="2" x1="70.5" x2="70.5" y1="46" y2="16" /><line fill="none" stroke="#000000" stroke-width="2" x1="70.5" x2="70.5" y1="95" y2="47" /><polyline fill="none" points="11.5,55 11.5,10 43,10" stroke="#000000" stroke-width="2" /><polyline fill="none" points="47,47 90.5,47 90.5,15 47,15" stroke="#000000" stroke-width="2" /><path d="M43.5,89 c-3.184,-8.421 -7.822,-18.897 -12,-27" fill="none" stroke="#000000" stroke-width="2" /><path d="M3.5,90 c11.203,-0.996 24.307,-4.165 37,-9" fill="none" stroke="#000000" stroke-width="2" /><path d="M9.5,89.5 c2.824,-9.843 5.629,-21.903 8,-34.5" fill="none" stroke="#000000" stroke-width="2" /></svg>