<?xml version='1.0' encoding='utf-8'?>
<svg xmlns="http://www.w3.org/2000/svg" height="100px" version="1.0" viewBox="0 0 100 100" width="100px" x="0px" y="0px">
<line fill="none" stroke="#000000" stroke-width="2" x1="10.5" x2="31" y1="59" y2="59" /><line fill="none" stroke="#000000" stroke-width="2" x1="11.5" x2="31" y1="33.5" y2="33.5" /><line fill="none" stroke="#000000" stroke-width="2" x1="95" x2="38" y1="22" y2="22" /><path d="M4.5,92.5 c4.1,-10.866 6,-23.313 6,-46.5 v-36.0 h21.5 v73.0 c0,7.724 -0.25,8 -5,8 c-1.819,0 -5.604,-0.155 -11,-0.5" fill="none" stroke="#000000" stroke-width="2" /><path d="M35.5,92.5 c12.178,-18.19 19.854,-45.067 22,-88" fill="none" stroke="#000000" stroke-width="2" /><path d="M95,92.5 c-3.211,-11.451 -7.873,-25.868 -12,-37" fill="none" stroke="#000000" stroke-width="2" /><path d="M45,89.5 c14.594,-0.872 30.997,-3.663 47,-8" fill="none" stroke="#000000" stroke-width="2" /><path d="M56,88.5 c5.064,-15.696 10.162,-34.918 14.5,-55" fill="none" stroke="#000000" stroke-width="2" /></svg>