<?xml version='1.0' encoding='utf-8'?>
<svg xmlns="http://www.w3.org/2000/svg" height="100px" version="1.0" viewBox="0 0 100 100" width="100px" x="0px" y="0px">
<line fill="none" stroke="#000000" stroke-width="2" x1="9" x2="27.5" y1="59" y2="59" /><line fill="none" stroke="#000000" stroke-width="2" x1="10" x2="27.5" y1="33.5" y2="33.5" /><line fill="none" stroke="#000000" stroke-width="2" x1="50" x2="78.5" y1="11" y2="11" /><path d="M4.5,92.5 c3.238,-8.584 4.5,-17.869 4.5,-46.5 v-36.0 h19.5 v73.0 c0,7.724 -0.25,8 -5,8 c-1.488,0 -4.585,-0.155 -9,-0.5" fill="none" stroke="#000000" stroke-width="2" /><path d="M68.5,27.5 c3.197,-4.817 6.619,-10.8 9.104,-15.936" fill="none" stroke="#000000" stroke-width="2" /><path d="M32.5,36.5 c9.256,-9.177 16.193,-20.289 20.5,-33" fill="none" stroke="#000000" stroke-width="2" /><path d="M95,72.5 c-1.285,18.778 -1.551,19 -21.5,19 c-19.002,0 -19.5,-0.364 -19.5,-7 v-42.0 h31.5 c-1.435,25.036 -2.67,27 -6,27 c-2.775,0 -7.117,-0.307 -12.5,-1" fill="none" stroke="#000000" stroke-width="2" /><path d="M33,92 c5.301,-14.052 8,-29.832 8,-51 v-13.5 h54.0" fill="none" stroke="#000000" stroke-width="2" /></svg>