<?xml version='1.0' encoding='utf-8'?>
<svg xmlns="http://www.w3.org/2000/svg" height="100px" version="1.0" viewBox="0 0 100 100" width="100px" x="0px" y="0px">
<line fill="none" stroke="#000000" stroke-width="2" x1="37" x2="9" y1="12.5" y2="12.5" /><line fill="none" stroke="#000000" stroke-width="2" x1="91" x2="63" y1="12.5" y2="12.5" /><line fill="none" stroke="#000000" stroke-width="2" x1="33" x2="9" y1="27" y2="27" /><line fill="none" stroke="#000000" stroke-width="2" x1="91" x2="67" y1="27" y2="27" /><line fill="none" stroke="#000000" stroke-width="2" x1="20.5" x2="79.5" y1="41.5" y2="41.5" /><line fill="none" stroke="#000000" stroke-width="2" x1="20" x2="20" y1="92" y2="42" /><line fill="none" stroke="#000000" stroke-width="2" x1="21" x2="79" y1="73.5" y2="73.5" /><line fill="none" stroke="#000000" stroke-width="2" x1="21" x2="79" y1="57" y2="57" /><path d="M5,47.5 c23.646,-6.655 43.157,-25.873 46.5,-43" fill="none" stroke="#000000" stroke-width="2" /><path d="M95,47.5 c-23.387,-7.53 -38.267,-21.029 -44.75,-38.5" fill="none" stroke="#000000" stroke-width="2" /><path d="M80,42 v43.96 c0,4.177 -0.335,4.54 -8,4.54 c-2.518,0 -6.712,-0.159 -14,-0.5" fill="none" stroke="#000000" stroke-width="2" /></svg>