<?xml version='1.0' encoding='utf-8'?>
<svg xmlns="http://www.w3.org/2000/svg" height="100px" version="1.0" viewBox="0 0 100 100" width="100px" x="0px" y="0px">
<line fill="none" stroke="#000000" stroke-width="2" x1="8.5" x2="27" y1="59" y2="59" /><line fill="none" stroke="#000000" stroke-width="2" x1="9.5" x2="27" y1="33.5" y2="33.5" /><line fill="none" stroke="#000000" stroke-width="2" x1="32" x2="70.5" y1="46" y2="46" /><line fill="none" stroke="#000000" stroke-width="2" x1="69" x2="33.5" y1="20" y2="20" /><line fill="none" stroke="#000000" stroke-width="2" x1="50.5" x2="50.5" y1="46" y2="6" /><path d="M4,92.5 c3.238,-8.584 4.5,-17.869 4.5,-46.5 v-36.0 h19.5 v73.0 c0,7.724 -0.25,8 -6,8 c-1.488,0 -4.585,-0.155 -9,-0.5" fill="none" stroke="#000000" stroke-width="2" /><path d="M74.5,94 v-82.5 h19.5 v59.5 c0,7.578 -0.438,8 -5.5,8 c-1.146,0 -5.543,-0.208 -9.5,-0.5" fill="none" stroke="#000000" stroke-width="2" /><path d="M70.5,89.5 c-3.184,-9.668 -7.823,-21.697 -12,-31" fill="none" stroke="#000000" stroke-width="2" /><path d="M31.5,86.5 c10.623,-1.003 22.418,-4.254 34.5,-9.5" fill="none" stroke="#000000" stroke-width="2" /><path d="M38.5,85.5 c4.235,-11.319 8.443,-25.014 12,-39.5" fill="none" stroke="#000000" stroke-width="2" /></svg>