<?xml version='1.0' encoding='utf-8'?>
<svg xmlns="http://www.w3.org/2000/svg" height="100px" version="1.0" viewBox="0 0 100 100" width="100px" x="0px" y="0px">
<line fill="none" stroke="#000000" stroke-width="2" x1="9" x2="27.5" y1="59" y2="59" /><line fill="none" stroke="#000000" stroke-width="2" x1="10" x2="27.5" y1="33.5" y2="33.5" /><line fill="none" stroke="#000000" stroke-width="2" x1="38.5" x2="88.5" y1="64" y2="64" /><line fill="none" stroke="#000000" stroke-width="2" x1="38.5" x2="88.5" y1="50" y2="50" /><line fill="none" stroke="#000000" stroke-width="2" x1="35" x2="92.5" y1="75.5" y2="75.5" /><line fill="none" stroke="#000000" stroke-width="2" x1="32.5" x2="95.5" y1="89" y2="89" /><line fill="none" stroke="#000000" stroke-width="2" x1="64" x2="64" y1="89" y2="12" /><line fill="none" stroke="#000000" stroke-width="2" x1="34" x2="93.5" y1="25.5" y2="25.5" /><polyline fill="none" points="89.5,65 89.5,36 37.5,36 37.5,65" stroke="#000000" stroke-width="2" /><path d="M4.5,92.5 c3.238,-8.584 4.5,-17.869 4.5,-46.5 v-36.0 h19.5 v73.0 c0,7.724 -0.25,8 -5,8 c-1.488,0 -4.585,-0.155 -9,-0.5" fill="none" stroke="#000000" stroke-width="2" /><path d="M35.5,14 c22.773,-0.794 40.792,-2.943 54,-6" fill="none" stroke="#000000" stroke-width="2" /></svg>