<?xml version='1.0' encoding='utf-8'?>
<svg xmlns="http://www.w3.org/2000/svg" height="100px" version="1.0" viewBox="0 0 100 100" width="100px" x="0px" y="0px">
<line fill="none" stroke="#000000" stroke-width="2" x1="9" x2="27.5" y1="59" y2="59" /><line fill="none" stroke="#000000" stroke-width="2" x1="10" x2="27.5" y1="33.5" y2="33.5" /><line fill="none" stroke="#000000" stroke-width="2" x1="95" x2="34" y1="11" y2="11" /><line fill="none" stroke="#000000" stroke-width="2" x1="73.5" x2="73.5" y1="12" y2="43" /><line fill="none" stroke="#000000" stroke-width="2" x1="55.5" x2="55.5" y1="12" y2="43" /><line fill="none" stroke="#000000" stroke-width="2" x1="95" x2="34" y1="55.5" y2="55.5" /><polyline fill="none" points="37.5,45 37.5,23 91.5,23 91.5,44 38.5,44" stroke="#000000" stroke-width="2" /><path d="M4.5,92.5 c3.238,-8.584 4.5,-17.869 4.5,-46.5 v-36.0 h19.5 v73.0 c0,7.724 -0.25,8 -5,8 c-1.488,0 -4.585,-0.155 -9,-0.5" fill="none" stroke="#000000" stroke-width="2" /><path d="M32.5,91.5 c24.365,-4.132 44.019,-18.591 51.5,-36" fill="none" stroke="#000000" stroke-width="2" /><path d="M60,44 c-5.271,11.427 -12.019,21.636 -21,31.5" fill="none" stroke="#000000" stroke-width="2" /><path d="M43,71 c16.692,3.744 31.227,9.847 50.5,21.5" fill="none" stroke="#000000" stroke-width="2" /></svg>