<?xml version='1.0' encoding='utf-8'?>
<svg xmlns="http://www.w3.org/2000/svg" height="100px" version="1.0" viewBox="0 0 100 100" width="100px" x="0px" y="0px">
<line fill="none" stroke="#000000" stroke-width="2" x1="9.5" x2="32" y1="59" y2="59" /><line fill="none" stroke="#000000" stroke-width="2" x1="10.5" x2="32" y1="33.5" y2="33.5" /><line fill="none" stroke="#000000" stroke-width="2" x1="45.5" x2="89.5" y1="31" y2="31" /><line fill="none" stroke="#000000" stroke-width="2" x1="37.5" x2="63.5" y1="58.5" y2="58.5" /><polyline fill="none" points="45.5,47.5 89.5,47.5 89.5,14.5 44.5,14.5 44.5,48.5" stroke="#000000" stroke-width="2" /><path d="M4.5,92.5 c3.624,-8.429 5,-17.869 5,-46.5 v-36.0 h22.5 v73.0 c0,7.724 -0.25,8 -6,8 c-1.488,0 -4.585,-0.155 -9,-0.5" fill="none" stroke="#000000" stroke-width="2" /><path d="M68,4 c-1.749,3.778 -3.401,7.271 -5,10.5" fill="none" stroke="#000000" stroke-width="2" /><path d="M67.5,48.5 v34.5 c0,7.521 -0.5,8 -5,8 c-2.299,0 -6.709,-0.187 -11,-0.5" fill="none" stroke="#000000" stroke-width="2" /><path d="M68,48.5 c5.141,15.776 16.283,31.333 29.5,41.5" fill="none" stroke="#000000" stroke-width="2" /><path d="M95,51.5 c-5.401,6.996 -11.072,12.501 -17.5,17" fill="none" stroke="#000000" stroke-width="2" /><path d="M62.557,59.167 c-3.928,11.094 -15.102,23.007 -27.057,28.833" fill="none" stroke="#000000" stroke-width="2" /><path d="M62.557,59.167 c-3.928,11.094 -15.102,23.007 -27.057,28.833" fill="none" stroke="#000000" stroke-width="2" /></svg>