<?xml version='1.0' encoding='utf-8'?>
<svg xmlns="http://www.w3.org/2000/svg" height="100px" version="1.0" viewBox="0 0 100 100" width="100px" x="0px" y="0px">
<line fill="none" stroke="#000000" stroke-width="2" x1="9" x2="26.5" y1="59" y2="59" /><line fill="none" stroke="#000000" stroke-width="2" x1="10" x2="26.5" y1="33.5" y2="33.5" /><line fill="none" stroke="#000000" stroke-width="2" x1="63.5" x2="63.5" y1="35" y2="2" /><line fill="none" stroke="#000000" stroke-width="2" x1="94.5" x2="32.5" y1="14.5" y2="14.5" /><path d="M4.5,92.5 c3.238,-8.584 4.5,-17.869 4.5,-46.5 v-36.0 h18.5 v73.0 c0,7.724 -0.25,8 -5,8 c-1.488,0 -4.585,-0.155 -9,-0.5" fill="none" stroke="#000000" stroke-width="2" /><path d="M96,58 c-12.885,-5.854 -22.588,-11.956 -32.5,-20.3 c-9.912,8.344 -19.538,14.464 -32.5,20.3" fill="none" stroke="#000000" stroke-width="2" /><path d="M63.5,49 v37.5 c0,4.644 -0.391,5 -5,5 c-1.479,0 -5.213,-0.147 -10.5,-0.5" fill="none" stroke="#000000" stroke-width="2" /><path d="M31.5,89 c9.311,-3.5 18.562,-9.118 26.5,-16" fill="none" stroke="#000000" stroke-width="2" /><path d="M95.5,90 c-8.853,-7.422 -18.199,-13.4 -26.5,-17" fill="none" stroke="#000000" stroke-width="2" /><path d="M96,38 c-11.082,-9.599 -22.199,-17.342 -32,-22.5" fill="none" stroke="#000000" stroke-width="2" /><path d="M56,69.5 c-4.12,-4.473 -8.829,-8.729 -14,-12.5" fill="none" stroke="#000000" stroke-width="2" /><path d="M85.5,57 c-4.078,4.323 -8.801,8.385 -14,12" fill="none" stroke="#000000" stroke-width="2" /><path d="M31,38 c16.258,-8.226 25.005,-15.14 31.5,-23.5" fill="none" stroke="#000000" stroke-width="2" /></svg>