<?xml version='1.0' encoding='utf-8'?>
<svg xmlns="http://www.w3.org/2000/svg" height="100px" version="1.0" viewBox="0 0 100 100" width="100px" x="0px" y="0px">
<line fill="none" stroke="#000000" stroke-width="2" x1="7" x2="93" y1="10.5" y2="10.5" /><line fill="none" stroke="#000000" stroke-width="2" x1="13" x2="87" y1="21" y2="21" /><line fill="none" stroke="#000000" stroke-width="2" x1="50" x2="50" y1="21" y2="3" /><line fill="none" stroke="#000000" stroke-width="2" x1="15" x2="85" y1="54" y2="54" /><line fill="none" stroke="#000000" stroke-width="2" x1="7" x2="93" y1="90.5" y2="90.5" /><line fill="none" stroke="#000000" stroke-width="2" x1="86" x2="14" y1="77.5" y2="77.5" /><line fill="none" stroke="#000000" stroke-width="2" x1="50" x2="50" y1="90.5" y2="66" /><polyline fill="none" points="20,39.5 20,28 80,28 80,38.5 21,38.5" stroke="#000000" stroke-width="2" /><polyline fill="none" points="91,56.5 91,45.5 9,45.5 9,56.5" stroke="#000000" stroke-width="2" /><path d="M88,71 c-6.141,-4.185 -14.539,-9.649 -21.5,-14" fill="none" stroke="#000000" stroke-width="2" /><path d="M12,67.5 c19.615,-0.357 43.178,-1.651 65.5,-3.5" fill="none" stroke="#000000" stroke-width="2" /><path d="M28,67 c4.192,-3.853 8.187,-8.192 12,-13" fill="none" stroke="#000000" stroke-width="2" /></svg>