<?xml version='1.0' encoding='utf-8'?>
<svg xmlns="http://www.w3.org/2000/svg" height="100px" version="1.0" viewBox="0 0 100 100" width="100px" x="0px" y="0px">
<line fill="none" stroke="#000000" stroke-width="2" x1="47.5" x2="91.5" y1="66.5" y2="66.5" /><line fill="none" stroke="#000000" stroke-width="2" x1="47.5" x2="91.5" y1="46.5" y2="46.5" /><line fill="none" stroke="#000000" stroke-width="2" x1="70" x2="70" y1="5" y2="91" /><line fill="none" stroke="#000000" stroke-width="2" x1="45.5" x2="96" y1="15" y2="15" /><line fill="none" stroke="#000000" stroke-width="2" x1="40" x2="40" y1="93.5" y2="63" /><line fill="none" stroke="#000000" stroke-width="2" x1="24.5" x2="24.5" y1="48.5" y2="18" /><line fill="none" stroke="#000000" stroke-width="2" x1="43" x2="5" y1="48.5" y2="48.5" /><line fill="none" stroke="#000000" stroke-width="2" x1="40" x2="9.5" y1="30" y2="30" /><line fill="none" stroke="#000000" stroke-width="2" x1="8" x2="40" y1="86.5" y2="86.5" /><polyline fill="none" points="41,62 8,62 8,93.5" stroke="#000000" stroke-width="2" /><path d="M77,4.5 c4.902,2.214 10.408,4.978 15,7.5" fill="none" stroke="#000000" stroke-width="2" /><path d="M47.5,93 v-64.5 h45.0 v55.0 c0,7.224 -0.578,8 -4,8 c-1.789,0 -5.652,-0.212 -9.5,-0.5" fill="none" stroke="#000000" stroke-width="2" /><path d="M44,22 c-7.029,-5.139 -13.002,-10.329 -19,-16.5 c-6.363,8.238 -13.077,15.094 -21,21.5" fill="none" stroke="#000000" stroke-width="2" /></svg>