<?xml version='1.0' encoding='utf-8'?>
<svg xmlns="http://www.w3.org/2000/svg" height="100px" version="1.0" viewBox="0 0 100 100" width="100px" x="0px" y="0px">
<line fill="none" stroke="#000000" stroke-width="2" x1="4" x2="40.5" y1="51" y2="47" /><line fill="none" stroke="#000000" stroke-width="2" x1="22" x2="22" y1="49" y2="81" /><line fill="none" stroke="#000000" stroke-width="2" x1="48" x2="91" y1="41" y2="41" /><line fill="none" stroke="#000000" stroke-width="2" x1="57.5" x2="80.5" y1="18.5" y2="18.5" /><line fill="none" stroke="#000000" stroke-width="2" x1="93" x2="93" y1="94" y2="66" /><line fill="none" stroke="#000000" stroke-width="2" x1="48.5" x2="93" y1="88" y2="88" /><polyline fill="none" points="92,67 48.5,67 48.5,94" stroke="#000000" stroke-width="2" /><path d="M27.5,40.5 c-3.236,-6.144 -6.822,-12.263 -10,-17" fill="none" stroke="#000000" stroke-width="2" /><path d="M23,4 c-0.75,4.216 -1.556,7.964 -2.5,11.5" fill="none" stroke="#000000" stroke-width="2" /><path d="M2.5,92.5 c5.147,-10.481 7.5,-22.791 7.5,-46.5 v-30.5 h25.0 v67.5 c0,7.636 -0.323,8 -4,8 c-1.688,0 -5.006,-0.132 -10,-0.5" fill="none" stroke="#000000" stroke-width="2" /><path d="M98,28 c-11.041,-6.879 -20.256,-14.302 -29,-23.3 c-8.743,8.998 -17.959,16.421 -29,23.3" fill="none" stroke="#000000" stroke-width="2" /><path d="M37.5,91 c6.338,-10.277 9.5,-23.917 9.5,-47 v-17.0 h44.0 v29.0 h-44.5" fill="none" stroke="#000000" stroke-width="2" /></svg>