<?xml version='1.0' encoding='utf-8'?>
<svg xmlns="http://www.w3.org/2000/svg" height="100px" version="1.0" viewBox="0 0 100 100" width="100px" x="0px" y="0px">
<line fill="none" stroke="#000000" stroke-width="2" x1="3.5" x2="35.5" y1="51" y2="47" /><line fill="none" stroke="#000000" stroke-width="2" x1="19.5" x2="19.5" y1="49" y2="81" /><line fill="none" stroke="#000000" stroke-width="2" x1="36" x2="96" y1="14.5" y2="14.5" /><line fill="none" stroke="#000000" stroke-width="2" x1="57" x2="57" y1="49" y2="3.5" /><line fill="none" stroke="#000000" stroke-width="2" x1="75" x2="75" y1="49" y2="3.5" /><line fill="none" stroke="#000000" stroke-width="2" x1="40.5" x2="91.5" y1="37" y2="37" /><line fill="none" stroke="#000000" stroke-width="2" x1="43" x2="89" y1="87" y2="87" /><line fill="none" stroke="#000000" stroke-width="2" x1="43" x2="89" y1="73" y2="73" /><polyline fill="none" points="40.5,50 92.5,50 92.5,24 39.5,24 39.5,51" stroke="#000000" stroke-width="2" /><polyline fill="none" points="90,93 90,59 42,59 42,93" stroke="#000000" stroke-width="2" /><path d="M24.5,40.5 c-3.076,-6.144 -6.496,-12.252 -9.5,-17" fill="none" stroke="#000000" stroke-width="2" /><path d="M20,4 c-0.601,4.216 -1.245,7.964 -2,11.5" fill="none" stroke="#000000" stroke-width="2" /><path d="M2,92.5 c4.469,-10.463 6.5,-22.791 6.5,-46.5 v-30.5 h22.5 V83.0 c0,7.636 -0.33,8 -3.5,8 c-1.455,0 -4.193,-0.149 -8.5,-0.5" fill="none" stroke="#000000" stroke-width="2" /></svg>