<?xml version='1.0' encoding='utf-8'?>
<svg xmlns="http://www.w3.org/2000/svg" height="100px" version="1.0" viewBox="0 0 100 100" width="100px" x="0px" y="0px">
<line fill="none" stroke="#000000" stroke-width="2" x1="3.5" x2="36.5" y1="51" y2="47" /><line fill="none" stroke="#000000" stroke-width="2" x1="20" x2="20" y1="49" y2="81" /><line fill="none" stroke="#000000" stroke-width="2" x1="66" x2="66" y1="42" y2="90" /><line fill="none" stroke="#000000" stroke-width="2" x1="44" x2="88" y1="53.5" y2="53.5" /><line fill="none" stroke="#000000" stroke-width="2" x1="36" x2="96" y1="90" y2="90" /><line fill="none" stroke="#000000" stroke-width="2" x1="92.5" x2="40.5" y1="77.5" y2="77.5" /><line fill="none" stroke="#000000" stroke-width="2" x1="36.5" x2="97" y1="32.5" y2="32.5" /><line fill="none" stroke="#000000" stroke-width="2" x1="38" x2="94" y1="14.5" y2="14.5" /><line fill="none" stroke="#000000" stroke-width="2" x1="66" x2="66" y1="14.5" y2="3.5" /><polyline fill="none" points="44,66.5 89,66.5 89,41 43,41 43,67.5" stroke="#000000" stroke-width="2" /><path d="M25,40.5 c-3.076,-6.144 -6.496,-12.252 -9.5,-17" fill="none" stroke="#000000" stroke-width="2" /><path d="M20.5,4 c-0.601,4.216 -1.245,7.964 -2,11.5" fill="none" stroke="#000000" stroke-width="2" /><path d="M2,92.5 c4.469,-10.463 6.5,-22.791 6.5,-46.5 v-30.5 H32.0 v67.5 c0,7.636 -0.33,8 -3.5,8 c-1.455,0 -4.193,-0.149 -8.5,-0.5" fill="none" stroke="#000000" stroke-width="2" /><path d="M75,32.5 c3.375,-5.101 6.121,-11.177 8,-18" fill="none" stroke="#000000" stroke-width="2" /><path d="M56.5,32.5 c-2.299,-6.099 -4.918,-12.048 -8,-18" fill="none" stroke="#000000" stroke-width="2" /></svg>