<?xml version='1.0' encoding='utf-8'?>
<svg xmlns="http://www.w3.org/2000/svg" height="100px" version="1.0" viewBox="0 0 100 100" width="100px" x="0px" y="0px">
<line fill="none" stroke="#000000" stroke-width="2" x1="6" x2="94" y1="14.5" y2="14.5" /><line fill="none" stroke="#000000" stroke-width="2" x1="32" x2="32" y1="24.5" y2="4" /><line fill="none" stroke="#000000" stroke-width="2" x1="68" x2="68" y1="24.5" y2="4" /><path d="M14.5,26.5 c11.551,12.744 17,26.965 17,44 c0,14.265 -4.807,21 -10.5,21 c-2.933,0 -7.751,-0.485 -13,-1.5" fill="none" stroke="#000000" stroke-width="2" /><path d="M40,24.5 c-9.15,8.415 -21.732,16.269 -35,21.5" fill="none" stroke="#000000" stroke-width="2" /><path d="M30,55.5 c-6.374,5.501 -15.428,10.881 -25,14.5" fill="none" stroke="#000000" stroke-width="2" /><path d="M46.5,36 c-1.216,9.8 -4.615,19.153 -9.5,26.5" fill="none" stroke="#000000" stroke-width="2" /><path d="M31.5,91.5 c20.023,-8.139 32.5,-24.498 32.5,-44 v-22.0" fill="none" stroke="#000000" stroke-width="2" /><path d="M95.5,91.5 c-19.877,-8.425 -31.5,-24.498 -31.5,-44" fill="none" stroke="#000000" stroke-width="2" /><path d="M92,35 c-2.099,9.451 -6.754,19.031 -12.5,26" fill="none" stroke="#000000" stroke-width="2" /></svg>