<?xml version='1.0' encoding='utf-8'?>
<svg xmlns="http://www.w3.org/2000/svg" height="100px" version="1.0" viewBox="0 0 100 100" width="100px" x="0px" y="0px">
<line fill="none" stroke="#000000" stroke-width="2" x1="7" x2="93" y1="14" y2="14" /><line fill="none" stroke="#000000" stroke-width="2" x1="33" x2="33" y1="22.5" y2="3.5" /><line fill="none" stroke="#000000" stroke-width="2" x1="67" x2="67" y1="22.5" y2="3.5" /><line fill="none" stroke="#000000" stroke-width="2" x1="51" x2="90" y1="57" y2="57" /><line fill="none" stroke="#000000" stroke-width="2" x1="12" x2="47.5" y1="62" y2="62" /><line fill="none" stroke="#000000" stroke-width="2" x1="12" x2="47.5" y1="78.5" y2="78.5" /><polyline fill="none" points="13,47 45.5,47 45.5,26 12,26 12,94.5" stroke="#000000" stroke-width="2" /><polyline fill="none" points="54,47 88,47 88,26 54,26" stroke="#000000" stroke-width="2" /><path d="M44.5,92 c22.996,-7.338 36.164,-17.787 44.607,-34.452" fill="none" stroke="#000000" stroke-width="2" /><path d="M94,92 c-15.486,-6.614 -29.568,-18.144 -38,-31" fill="none" stroke="#000000" stroke-width="2" /></svg>