<?xml version='1.0' encoding='utf-8'?>
<svg xmlns="http://www.w3.org/2000/svg" height="100px" version="1.0" viewBox="0 0 100 100" width="100px" x="0px" y="0px">
<line fill="none" stroke="#000000" stroke-width="2" x1="6.5" x2="93.5" y1="14" y2="14" /><line fill="none" stroke="#000000" stroke-width="2" x1="33" x2="33" y1="21.5" y2="3.5" /><line fill="none" stroke="#000000" stroke-width="2" x1="67" x2="67" y1="21.5" y2="3.5" /><line fill="none" stroke="#000000" stroke-width="2" x1="34.5" x2="90" y1="73" y2="73" /><line fill="none" stroke="#000000" stroke-width="2" x1="34.5" x2="90" y1="57" y2="57" /><line fill="none" stroke="#000000" stroke-width="2" x1="62" x2="62" y1="21" y2="92" /><line fill="none" stroke="#000000" stroke-width="2" x1="29.5" x2="93.5" y1="29.5" y2="29.5" /><path d="M74,20 c3.922,2.805 8.326,6.306 12,9.5" fill="none" stroke="#000000" stroke-width="2" /><path d="M9,92 c7.111,-7.595 12.963,-16.249 17,-25" fill="none" stroke="#000000" stroke-width="2" /><path d="M26,35.5 c-4.551,-3.661 -9.941,-7.585 -16,-11.5" fill="none" stroke="#000000" stroke-width="2" /><path d="M22.5,56 c-5.014,-3.913 -10.751,-7.887 -17.5,-12" fill="none" stroke="#000000" stroke-width="2" /><path d="M33.5,93.5 v-52.0 h56.5 v42.5 c0,7.31 -0.66,8 -5,8 c-1.716,0 -6.623,-0.18 -12,-0.5" fill="none" stroke="#000000" stroke-width="2" /></svg>