<?xml version='1.0' encoding='utf-8'?>
<svg xmlns="http://www.w3.org/2000/svg" height="100px" version="1.0" viewBox="0 0 100 100" width="100px" x="0px" y="0px">
<line fill="none" stroke="#000000" stroke-width="2" x1="7" x2="93" y1="14.5" y2="14.5" /><line fill="none" stroke="#000000" stroke-width="2" x1="32" x2="32" y1="22.5" y2="3.5" /><line fill="none" stroke="#000000" stroke-width="2" x1="68" x2="68" y1="22.5" y2="3.5" /><line fill="none" stroke="#000000" stroke-width="2" x1="39" x2="39" y1="68.5" y2="89.5" /><line fill="none" stroke="#000000" stroke-width="2" x1="61" x2="61" y1="68.5" y2="89.5" /><line fill="none" stroke="#000000" stroke-width="2" x1="6" x2="94" y1="90.5" y2="90.5" /><line fill="none" stroke="#000000" stroke-width="2" x1="7" x2="93" y1="41.5" y2="41.5" /><line fill="none" stroke="#000000" stroke-width="2" x1="86" x2="14" y1="27.5" y2="27.5" /><line fill="none" stroke="#000000" stroke-width="2" x1="50" x2="50" y1="41.5" y2="19" /><polyline fill="none" points="83,89.5 83,67.5 17,67.5 17,89.5" stroke="#000000" stroke-width="2" /><path d="M92,64 c-6.53,-6.066 -16.02,-13.648 -24.5,-19.5" fill="none" stroke="#000000" stroke-width="2" /><path d="M10,60.5 c22.287,-0.396 48.229,-1.839 73.5,-4" fill="none" stroke="#000000" stroke-width="2" /><path d="M25.5,60 c6.706,-5.323 13.27,-11.765 19,-18.5" fill="none" stroke="#000000" stroke-width="2" /></svg>