<?xml version='1.0' encoding='utf-8'?>
<svg xmlns="http://www.w3.org/2000/svg" height="100px" version="1.0" viewBox="0 0 100 100" width="100px" x="0px" y="0px">
<line fill="none" stroke="#000000" stroke-width="2" x1="6.5" x2="93.5" y1="13.5" y2="13.5" /><line fill="none" stroke="#000000" stroke-width="2" x1="33" x2="33" y1="21" y2="4.5" /><line fill="none" stroke="#000000" stroke-width="2" x1="67" x2="67" y1="21" y2="4.5" /><line fill="none" stroke="#000000" stroke-width="2" x1="62.5" x2="94" y1="36" y2="36" /><line fill="none" stroke="#000000" stroke-width="2" x1="30.5" x2="30.5" y1="93" y2="23" /><path d="M53.5,93 c21.525,-11.823 30.419,-25.102 34,-57" fill="none" stroke="#000000" stroke-width="2" /><path d="M53.5,58.5 c5.163,-9.659 9.562,-22.616 12,-35.5" fill="none" stroke="#000000" stroke-width="2" /><path d="M95.5,93 c-19.807,-11.217 -28.881,-25.448 -31,-51.5" fill="none" stroke="#000000" stroke-width="2" /><path d="M37.5,92 c4.027,0.339 6.424,0.5 7.5,0.5 c4.531,0 5,-0.672 5,-8 v-39.0 h-39.0 v48.5" fill="none" stroke="#000000" stroke-width="2" /><path d="M21,41 c-2.863,-5.706 -6.208,-11.331 -9.5,-16" fill="none" stroke="#000000" stroke-width="2" /><path d="M40,41 c3.852,-5.176 7.332,-11.228 9.5,-16.5" fill="none" stroke="#000000" stroke-width="2" /><path d="M16,80.5 c3.267,-7.417 5.925,-16.907 7.5,-27" fill="none" stroke="#000000" stroke-width="2" /><path d="M45,78.5 c-2.265,-8.306 -5.197,-17.015 -8.5,-25" fill="none" stroke="#000000" stroke-width="2" /></svg>