<?xml version='1.0' encoding='utf-8'?>
<svg xmlns="http://www.w3.org/2000/svg" height="100px" version="1.0" viewBox="0 0 100 100" width="100px" x="0px" y="0px">
<line fill="none" stroke="#000000" stroke-width="2" x1="63" x2="94" y1="39" y2="39" /><line fill="none" stroke="#000000" stroke-width="2" x1="15" x2="55" y1="44" y2="44" /><line fill="none" stroke="#000000" stroke-width="2" x1="19.5" x2="19.5" y1="50" y2="77.5" /><line fill="none" stroke="#000000" stroke-width="2" x1="51" x2="51" y1="75" y2="50" /><line fill="none" stroke="#000000" stroke-width="2" x1="19.5" x2="51" y1="69.923" y2="69.923" /><line fill="none" stroke="#000000" stroke-width="2" x1="7" x2="93" y1="14" y2="14" /><line fill="none" stroke="#000000" stroke-width="2" x1="33" x2="33" y1="22.5" y2="3.5" /><line fill="none" stroke="#000000" stroke-width="2" x1="67" x2="67" y1="22.5" y2="3.5" /><path d="M48,92.5 c13.41,-4.885 25,-20.968 25,-35.5 v-11.5" fill="none" stroke="#000000" stroke-width="2" /><path d="M95,92.5 c-11.277,-4.794 -22,-21.081 -22,-35.5" fill="none" stroke="#000000" stroke-width="2" /><path d="M53.5,59.5 c5.338,-8.259 9.496,-18.588 12,-30" fill="none" stroke="#000000" stroke-width="2" /><path d="M86,59 c3.037,-5.543 5.39,-11.887 7.023,-19.218" fill="none" stroke="#000000" stroke-width="2" /><path d="M4,92.5 c4.68,-11.542 7,-24.621 7,-42 V26.0 h82.0" fill="none" stroke="#000000" stroke-width="2" /><path d="M30,41.5 c-2.701,-3.944 -5.645,-7.723 -8.5,-11" fill="none" stroke="#000000" stroke-width="2" /><path d="M40,44 c3.211,-4.6 6.27,-9.655 8.5,-14" fill="none" stroke="#000000" stroke-width="2" /><path d="M19.5,93 c12.442,-8.075 16,-15.37 16,-34 v-15.0" fill="none" stroke="#000000" stroke-width="2" /></svg>