<?xml version='1.0' encoding='utf-8'?>
<svg xmlns="http://www.w3.org/2000/svg" height="100px" version="1.0" viewBox="0 0 100 100" width="100px" x="0px" y="0px">
<line fill="none" stroke="#000000" stroke-width="2" x1="7" x2="93" y1="14" y2="14" /><line fill="none" stroke="#000000" stroke-width="2" x1="33" x2="33" y1="22.5" y2="3.5" /><line fill="none" stroke="#000000" stroke-width="2" x1="67" x2="67" y1="22.5" y2="3.5" /><line fill="none" stroke="#000000" stroke-width="2" x1="57" x2="96" y1="48" y2="48" /><line fill="none" stroke="#000000" stroke-width="2" x1="81.5" x2="81.5" y1="94" y2="48" /><line fill="none" stroke="#000000" stroke-width="2" x1="28" x2="28" y1="30" y2="20" /><line fill="none" stroke="#000000" stroke-width="2" x1="28" x2="28" y1="94" y2="50" /><line fill="none" stroke="#000000" stroke-width="2" x1="50.5" x2="6" y1="62" y2="62" /><line fill="none" stroke="#000000" stroke-width="2" x1="51.5" x2="7" y1="30" y2="30" /><line fill="none" stroke="#000000" stroke-width="2" x1="51.5" x2="6" y1="50" y2="50" /><path d="M57.07,28.987 c14.514,-0.995 26.205,-3.111 35.43,-5.987" fill="none" stroke="#000000" stroke-width="2" /><path d="M46,92 c8.725,-12.266 12,-25.531 12,-64" fill="none" stroke="#000000" stroke-width="2" /><path d="M34.5,50 c3.256,-5.725 6.001,-12.56 8,-20" fill="none" stroke="#000000" stroke-width="2" /><path d="M20,50 c-1.63,-6.685 -3.695,-13.555 -6,-20" fill="none" stroke="#000000" stroke-width="2" /><path d="M5,85.5 c10.611,-7.368 18.019,-15.228 22.5,-23.5" fill="none" stroke="#000000" stroke-width="2" /><path d="M47,79.5 c-4.658,-5.055 -11.041,-10.985 -18.5,-17" fill="none" stroke="#000000" stroke-width="2" /></svg>