<?xml version='1.0' encoding='utf-8'?>
<svg xmlns="http://www.w3.org/2000/svg" height="100px" version="1.0" viewBox="0 0 100 100" width="100px" x="0px" y="0px">
<line fill="none" stroke="#000000" stroke-width="2" x1="7" x2="93" y1="14" y2="14" /><line fill="none" stroke="#000000" stroke-width="2" x1="33" x2="33" y1="22.5" y2="3.5" /><line fill="none" stroke="#000000" stroke-width="2" x1="67" x2="67" y1="22.5" y2="3.5" /><line fill="none" stroke="#000000" stroke-width="2" x1="29" x2="29" y1="56.5" y2="20" /><line fill="none" stroke="#000000" stroke-width="2" x1="52" x2="6.5" y1="38" y2="38" /><line fill="none" stroke="#000000" stroke-width="2" x1="53" x2="6" y1="63" y2="63" /><line fill="none" stroke="#000000" stroke-width="2" x1="59" x2="93.5" y1="33" y2="33" /><path d="M49,92 c24.109,-12.703 34.057,-27.359 38,-59" fill="none" stroke="#000000" stroke-width="2" /><path d="M94,92 c-20.407,-11.894 -29.398,-25.63 -33,-53" fill="none" stroke="#000000" stroke-width="2" /><path d="M48.5,57 c5.942,-10.04 11.234,-24.038 14,-37.5" fill="none" stroke="#000000" stroke-width="2" /><path d="M6.5,57 c10.712,-6.185 18.04,-12.681 22.5,-19.5" fill="none" stroke="#000000" stroke-width="2" /><path d="M19.5,34.5 c-2.927,-4.145 -6.402,-8.575 -9.5,-12" fill="none" stroke="#000000" stroke-width="2" /><path d="M38.5,34.5 c3.766,-3.604 7.688,-8.344 10,-12" fill="none" stroke="#000000" stroke-width="2" /><path d="M7,92.5 c17.939,-3.507 32.438,-16.004 36,-29.5" fill="none" stroke="#000000" stroke-width="2" /><path d="M25,55 c-3.402,8.155 -7.862,15.72 -13,22 c13.016,2.024 23.92,4.804 36.5,9.5" fill="none" stroke="#000000" stroke-width="2" /><path d="M46,52 c-6.679,-5.985 -12.574,-10.699 -17.5,-14" fill="none" stroke="#000000" stroke-width="2" /></svg>