<?xml version='1.0' encoding='utf-8'?>
<svg xmlns="http://www.w3.org/2000/svg" height="100px" version="1.0" viewBox="0 0 100 100" width="100px" x="0px" y="0px">
<line fill="none" stroke="#000000" stroke-width="2" x1="7" x2="93" y1="14" y2="14" /><line fill="none" stroke="#000000" stroke-width="2" x1="32" x2="32" y1="21" y2="3" /><line fill="none" stroke="#000000" stroke-width="2" x1="68" x2="68" y1="21" y2="3" /><line fill="none" stroke="#000000" stroke-width="2" x1="39" x2="39" y1="69" y2="90" /><line fill="none" stroke="#000000" stroke-width="2" x1="61" x2="61" y1="69" y2="90" /><line fill="none" stroke="#000000" stroke-width="2" x1="6" x2="94" y1="91" y2="91" /><line fill="none" stroke="#000000" stroke-width="2" x1="30.5" x2="30.5" y1="26.5" y2="35.5" /><line fill="none" stroke="#000000" stroke-width="2" x1="30.5" x2="30.5" y1="48.5" y2="57.5" /><line fill="none" stroke="#000000" stroke-width="2" x1="12.5" x2="51" y1="58.5" y2="58.5" /><line fill="none" stroke="#000000" stroke-width="2" x1="93" x2="60" y1="32" y2="32" /><line fill="none" stroke="#000000" stroke-width="2" x1="90" x2="56.5" y1="51" y2="51" /><polyline fill="none" points="83,90 83,68 17,68 17,90" stroke="#000000" stroke-width="2" /><polyline fill="none" points="50,25.5 11.5,25.5 11.5,63.5" stroke="#000000" stroke-width="2" /><polyline fill="none" points="12.5,47.5 46,47.5 46,36.5 12.5,36.5" stroke="#000000" stroke-width="2" /><path d="M50,47 c6.023,-6.459 11.055,-15.134 14,-24" fill="none" stroke="#000000" stroke-width="2" /></svg>