<?xml version='1.0' encoding='utf-8'?>
<svg xmlns="http://www.w3.org/2000/svg" height="100px" version="1.0" viewBox="0 0 100 100" width="100px" x="0px" y="0px">
<line fill="none" stroke="#000000" stroke-width="2" x1="7" x2="93" y1="14" y2="14" /><line fill="none" stroke="#000000" stroke-width="2" x1="32" x2="32" y1="22.5" y2="3.5" /><line fill="none" stroke="#000000" stroke-width="2" x1="68" x2="68" y1="22.5" y2="3.5" /><line fill="none" stroke="#000000" stroke-width="2" x1="62" x2="62" y1="94" y2="61.5" /><line fill="none" stroke="#000000" stroke-width="2" x1="93.5" x2="30.5" y1="69" y2="69" /><polyline fill="none" points="66.5,60.5 91,60.5 91,44 65.5,44 65.5,61.5" stroke="#000000" stroke-width="2" /><polyline fill="none" points="34,60.5 58.5,60.5 58.5,44 33,44 33,61.5" stroke="#000000" stroke-width="2" /><polyline fill="none" points="39.5,38 85.5,38 85.5,22.5 38.5,22.5 38.5,39" stroke="#000000" stroke-width="2" /><path d="M10,93 c7.514,-7.671 13.688,-16.247 18,-25" fill="none" stroke="#000000" stroke-width="2" /><path d="M28.5,34.5 c-4.842,-3.677 -10.543,-7.573 -17,-11.5" fill="none" stroke="#000000" stroke-width="2" /><path d="M24.5,55 c-5.355,-4.007 -11.389,-8.123 -18.5,-12.5" fill="none" stroke="#000000" stroke-width="2" /><path d="M27.5,90.5 c14.772,-5.942 26.943,-14.066 33.5,-21.5" fill="none" stroke="#000000" stroke-width="2" /><path d="M94.5,90.5 c-14.492,-6.462 -24.578,-13.589 -31.5,-21.5" fill="none" stroke="#000000" stroke-width="2" /></svg>