<?xml version='1.0' encoding='utf-8'?>
<svg xmlns="http://www.w3.org/2000/svg" height="100px" version="1.0" viewBox="0 0 100 100" width="100px" x="0px" y="0px">
<line fill="none" stroke="#000000" stroke-width="2" x1="56" x2="56" y1="64" y2="43.5" /><line fill="none" stroke="#000000" stroke-width="2" x1="26.5" x2="85.5" y1="53.5" y2="53.5" /><line fill="none" stroke="#000000" stroke-width="2" x1="48.5" x2="48.5" y1="18" y2="2" /><line fill="none" stroke="#000000" stroke-width="2" x1="18.5" x2="75.5" y1="31" y2="25" /><line fill="none" stroke="#000000" stroke-width="2" x1="48.5" x2="84.5" y1="9.5" y2="9.5" /><polyline fill="none" points="26.5,65 86.5,65 86.5,42.5 25.5,42.5 25.5,66" stroke="#000000" stroke-width="2" /><path d="M79,29.5 c4.873,-3.441 8.491,-6.866 11.701,-11.104" fill="none" stroke="#000000" stroke-width="2" /><path d="M4.5,91.5 c6.739,-14.092 10,-29.671 10,-51 V18.0 h77.0" fill="none" stroke="#000000" stroke-width="2" /><path d="M41.5,18 v13.5 c0,5.396 0.12,5.5 20,5.5 c25.984,0 26.148,-0.132 27,-10.5" fill="none" stroke="#000000" stroke-width="2" /><path d="M16.5,73.5 h73.0 c-0.984,16.867 -2.295,18 -12.5,18 c-4.762,0 -11.957,-0.33 -20.5,-1" fill="none" stroke="#000000" stroke-width="2" /><path d="M16.5,92.5 c26.801,-5.571 39.5,-16.156 39.5,-27.5" fill="none" stroke="#000000" stroke-width="2" /></svg>