<?xml version='1.0' encoding='utf-8'?>
<svg xmlns="http://www.w3.org/2000/svg" height="100px" version="1.0" viewBox="0 0 100 100" width="100px" x="0px" y="0px">
<line fill="none" stroke="#000000" stroke-width="2" x1="49.5" x2="49.5" y1="88" y2="24.5" /><polyline fill="none" points="19,61.5 82,61.5 82,37 18,37 18,69" stroke="#000000" stroke-width="2" /><polyline fill="none" points="89,38 89,20 11,20 11,38" stroke="#000000" stroke-width="2" /><path d="M94,94 c-5.227,-8.481 -12.395,-19.385 -18.5,-28" fill="none" stroke="#000000" stroke-width="2" /><path d="M8,91 c23.902,-0.856 51.894,-3.598 79,-8" fill="none" stroke="#000000" stroke-width="2" /><path d="M30,20 c-3.082,-5.053 -6.549,-9.873 -10,-14" fill="none" stroke="#000000" stroke-width="2" /><path d="M53,20 c-3.082,-5.414 -6.549,-10.578 -10,-15" fill="none" stroke="#000000" stroke-width="2" /><path d="M70,20 c3.879,-5.025 7.309,-10.208 10,-15" fill="none" stroke="#000000" stroke-width="2" /></svg>