<?xml version='1.0' encoding='utf-8'?>
<svg xmlns="http://www.w3.org/2000/svg" height="100px" version="1.0" viewBox="0 0 100 100" width="100px" x="0px" y="0px">
<line fill="none" stroke="#000000" stroke-width="2" x1="20.5" x2="20.5" y1="84.5" y2="6" /><line fill="none" stroke="#000000" stroke-width="2" x1="44" x2="92" y1="66" y2="66" /><line fill="none" stroke="#000000" stroke-width="2" x1="44" x2="92" y1="45.5" y2="45.5" /><line fill="none" stroke="#000000" stroke-width="2" x1="41" x2="94" y1="10" y2="10" /><line fill="none" stroke="#000000" stroke-width="2" x1="68" x2="68" y1="28" y2="91" /><polyline fill="none" points="7,52 35,52 35,21 6,21 6,60" stroke="#000000" stroke-width="2" /><path d="M38,89 c-1.764,-8.9 -4.873,-20.247 -8,-29" fill="none" stroke="#000000" stroke-width="2" /><path d="M3,90 c9.73,-2.313 21.336,-6.738 32.5,-12.5" fill="none" stroke="#000000" stroke-width="2" /><path d="M43,93 v-66.0 h50.0 v56.5 c0,7.367 -0.531,8 -5.5,8 c-1.993,0 -5.588,-0.134 -11.5,-0.5" fill="none" stroke="#000000" stroke-width="2" /><path d="M49.5,15.5 c6.059,3.351 12.477,7.257 19,11.5" fill="none" stroke="#000000" stroke-width="2" /><path d="M93.346,10.245 c-3.903,3.389 -15.847,10.714 -26.346,15.755" fill="none" stroke="#000000" stroke-width="2" /></svg>