<?xml version='1.0' encoding='utf-8'?>
<svg xmlns="http://www.w3.org/2000/svg" height="100px" version="1.0" viewBox="0 0 100 100" width="100px" x="0px" y="0px">
<line fill="none" stroke="#000000" stroke-width="2" x1="20.5" x2="20.5" y1="84.5" y2="6" /><line fill="none" stroke="#000000" stroke-width="2" x1="38.5" x2="96.5" y1="76.5" y2="76.5" /><line fill="none" stroke="#000000" stroke-width="2" x1="94" x2="41" y1="48.5" y2="48.5" /><line fill="none" stroke="#000000" stroke-width="2" x1="92" x2="43" y1="62.5" y2="62.5" /><line fill="none" stroke="#000000" stroke-width="2" x1="68.5" x2="68.5" y1="94" y2="37" /><line fill="none" stroke="#000000" stroke-width="2" x1="55" x2="91.5" y1="12.5" y2="12.5" /><polyline fill="none" points="7,52 35,52 35,21 6,21 6,60" stroke="#000000" stroke-width="2" /><path d="M38,89 c-1.764,-8.9 -4.873,-20.247 -8,-29" fill="none" stroke="#000000" stroke-width="2" /><path d="M3,90 c9.73,-2.313 21.336,-6.738 32.5,-12.5" fill="none" stroke="#000000" stroke-width="2" /><path d="M38,27.5 c9.662,-6.806 17.082,-14.327 22.5,-22.5" fill="none" stroke="#000000" stroke-width="2" /><path d="M90.689,12.913 c-9.525,13.157 -26.239,23.577 -53.189,30.587" fill="none" stroke="#000000" stroke-width="2" /><path d="M51,16.5 c11.473,11.095 26.433,20.001 46,27" fill="none" stroke="#000000" stroke-width="2" /></svg>