<?xml version='1.0' encoding='utf-8'?>
<svg xmlns="http://www.w3.org/2000/svg" height="100px" version="1.0" viewBox="0 0 100 100" width="100px" x="0px" y="0px">
<line fill="none" stroke="#000000" stroke-width="2" x1="20" x2="20" y1="84.5" y2="6" /><line fill="none" stroke="#000000" stroke-width="2" x1="94.5" x2="40" y1="50" y2="50" /><line fill="none" stroke="#000000" stroke-width="2" x1="86" x2="49.5" y1="30" y2="30" /><polyline fill="none" points="7,52 34,52 34,21 6,21 6,60" stroke="#000000" stroke-width="2" /><path d="M37.5,88 c-1.764,-8.594 -4.873,-19.548 -8,-28" fill="none" stroke="#000000" stroke-width="2" /><path d="M2.5,90 c9.73,-2.313 21.336,-6.738 32.5,-12.5" fill="none" stroke="#000000" stroke-width="2" /><path d="M96.5,34 c-11.332,-8.366 -20.156,-16.751 -29,-27.8 c-8.844,11.049 -17.653,19.451 -29,27.8" fill="none" stroke="#000000" stroke-width="2" /><path d="M69,30 v53.0 c0,7.558 -0.552,8 -5.5,8 c-1.373,0 -4.869,-0.143 -10.5,-0.5" fill="none" stroke="#000000" stroke-width="2" /><path d="M41,87 c6.61,-7.692 12.156,-17.639 15.5,-28" fill="none" stroke="#000000" stroke-width="2" /><path d="M96,88 c-4.189,-9.637 -9.516,-19.687 -15.5,-29" fill="none" stroke="#000000" stroke-width="2" /></svg>