<?xml version='1.0' encoding='utf-8'?>
<svg xmlns="http://www.w3.org/2000/svg" height="100px" version="1.0" viewBox="0 0 100 100" width="100px" x="0px" y="0px">
<line fill="none" stroke="#000000" stroke-width="2" x1="20.5" x2="20.5" y1="84.5" y2="6" /><line fill="none" stroke="#000000" stroke-width="2" x1="44" x2="88.5" y1="25.5" y2="25.5" /><polyline fill="none" points="7.5,52 34.5,52 34.5,21 6.5,21 6.5,60" stroke="#000000" stroke-width="2" /><polyline fill="none" points="44,42 89.5,42 89.5,10 43,10 43,43" stroke="#000000" stroke-width="2" /><path d="M3,90 c9.73,-2.313 21.336,-6.738 32.5,-12.5" fill="none" stroke="#000000" stroke-width="2" /><path d="M54.5,93 c11.66,-7.62 24.551,-24.523 29,-38" fill="none" stroke="#000000" stroke-width="2" /><path d="M41,84.5 c10.448,-7.481 21.67,-20.066 26.5,-29.5" fill="none" stroke="#000000" stroke-width="2" /><path d="M38,67 c8.756,-6.55 16.955,-16.421 21,-25" fill="none" stroke="#000000" stroke-width="2" /><path d="M50.5,55 h41.0 c0,28.927 -3.691,36 -8.5,36 c-3.276,0 -7.634,-0.163 -12,-0.5" fill="none" stroke="#000000" stroke-width="2" /><path d="M38,89 c-1.764,-8.9 -4.873,-20.247 -8,-29" fill="none" stroke="#000000" stroke-width="2" /></svg>