<?xml version='1.0' encoding='utf-8'?>
<svg xmlns="http://www.w3.org/2000/svg" height="100px" version="1.0" viewBox="0 0 100 100" width="100px" x="0px" y="0px">
<line fill="none" stroke="#000000" stroke-width="2" x1="20.5" x2="20.5" y1="84.5" y2="6" /><line fill="none" stroke="#000000" stroke-width="2" x1="44.5" x2="88" y1="23" y2="23" /><line fill="none" stroke="#000000" stroke-width="2" x1="38" x2="95.5" y1="46.5" y2="46.5" /><polyline fill="none" points="7.5,52 34.5,52 34.5,21 6.5,21 6.5,60" stroke="#000000" stroke-width="2" /><polyline fill="none" points="44.5,37 89,37 89,10 43.5,10 43.5,38" stroke="#000000" stroke-width="2" /><path d="M3,90 c9.73,-2.313 21.336,-6.738 32.5,-12.5" fill="none" stroke="#000000" stroke-width="2" /><path d="M54.5,93 c11.66,-7.219 24.551,-23.232 29,-36" fill="none" stroke="#000000" stroke-width="2" /><path d="M41,84.5 c10.448,-6.974 21.67,-18.706 26.5,-27.5" fill="none" stroke="#000000" stroke-width="2" /><path d="M37,68 c8.641,-5.764 16.806,-14.184 21,-21.5" fill="none" stroke="#000000" stroke-width="2" /><path d="M50,57 h41.5 c0,26.927 -3.691,34 -8.5,34 c-3.276,0 -7.634,-0.163 -12,-0.5" fill="none" stroke="#000000" stroke-width="2" /><path d="M38,89 c-1.764,-8.9 -4.873,-20.247 -8,-29" fill="none" stroke="#000000" stroke-width="2" /></svg>