<?xml version='1.0' encoding='utf-8'?>
<svg xmlns="http://www.w3.org/2000/svg" height="100px" version="1.0" viewBox="0 0 100 100" width="100px" x="0px" y="0px">
<line fill="none" stroke="#000000" stroke-width="2" x1="18" x2="18" y1="84.5" y2="6" /><line fill="none" stroke="#000000" stroke-width="2" x1="5.5" x2="5.5" y1="20" y2="60" /><line fill="none" stroke="#000000" stroke-width="2" x1="29.5" x2="6.5" y1="21" y2="21" /><line fill="none" stroke="#000000" stroke-width="2" x1="35.5" x2="65.5" y1="25.5" y2="25.5" /><line fill="none" stroke="#000000" stroke-width="2" x1="50" x2="50" y1="49" y2="6" /><line fill="none" stroke="#000000" stroke-width="2" x1="38.5" x2="60.5" y1="81" y2="81" /><line fill="none" stroke="#000000" stroke-width="2" x1="71" x2="91.5" y1="59" y2="59" /><line fill="none" stroke="#000000" stroke-width="2" x1="72" x2="91.5" y1="33.5" y2="33.5" /><polyline fill="none" points="5.5,52 30.5,52 30.5,20" stroke="#000000" stroke-width="2" /><polyline fill="none" points="61.5,82 61.5,49 38.5,49 38.5,90" stroke="#000000" stroke-width="2" /><path d="M34.5,86.5 c-1.764,-8.134 -4.873,-18.501 -8,-26.5" fill="none" stroke="#000000" stroke-width="2" /><path d="M2.5,90 c8.832,-2.313 19.792,-6.871 30,-12.5" fill="none" stroke="#000000" stroke-width="2" /><path d="M62,92.5 c6.149,-10.866 9,-23.313 9,-46.5 v-36.0 h21.5 v73.0 c0,7.724 -0.25,8 -5,8 c-1.819,0 -5.604,-0.155 -11,-0.5" fill="none" stroke="#000000" stroke-width="2" /></svg>