<?xml version='1.0' encoding='utf-8'?>
<svg xmlns="http://www.w3.org/2000/svg" height="100px" version="1.0" viewBox="0 0 100 100" width="100px" x="0px" y="0px">
<line fill="none" stroke="#000000" stroke-width="2" x1="20" x2="93.5" y1="38.5" y2="38.5" /><line fill="none" stroke="#000000" stroke-width="2" x1="6.5" x2="19" y1="38.5" y2="38.5" /><line fill="none" stroke="#000000" stroke-width="2" x1="30.5" x2="30.5" y1="89" y2="64.5" /><line fill="none" stroke="#000000" stroke-width="2" x1="6.5" x2="93.5" y1="15" y2="15" /><line fill="none" stroke="#000000" stroke-width="2" x1="50" x2="50" y1="14" y2="4" /><polyline fill="none" points="19,54 19,25.5 81,25.5 81,53 20,53" stroke="#000000" stroke-width="2" /><path d="M49,53 c-9.934,8.225 -24.082,15.519 -44,21.5" fill="none" stroke="#000000" stroke-width="2" /><path d="M51,53 c7.448,17.7 23.893,32.38 44,39" fill="none" stroke="#000000" stroke-width="2" /><path d="M11,92 c17.236,-2.379 32.201,-5.524 50,-10.5" fill="none" stroke="#000000" stroke-width="2" /><path d="M65.5,74 c8.107,-4.575 15.371,-10.011 21.5,-16" fill="none" stroke="#000000" stroke-width="2" /></svg>