<?xml version='1.0' encoding='utf-8'?>
<svg xmlns="http://www.w3.org/2000/svg" height="100px" version="1.0" viewBox="0 0 100 100" width="100px" x="0px" y="0px">
<line fill="none" stroke="#000000" stroke-width="2" x1="34.5" x2="4.5" y1="24" y2="24" /><line fill="none" stroke="#000000" stroke-width="2" x1="19.5" x2="19.5" y1="24" y2="6" /><line fill="none" stroke="#000000" stroke-width="2" x1="19.5" x2="19.5" y1="94" y2="50" /><line fill="none" stroke="#000000" stroke-width="2" x1="62.5" x2="62.5" y1="39" y2="5.5" /><line fill="none" stroke="#000000" stroke-width="2" x1="62.5" x2="62.5" y1="94.5" y2="52.5" /><line fill="none" stroke="#000000" stroke-width="2" x1="95" x2="38" y1="39" y2="39" /><line fill="none" stroke="#000000" stroke-width="2" x1="89.5" x2="62.5" y1="19" y2="19" /><line fill="none" stroke="#000000" stroke-width="2" x1="95" x2="38" y1="52.5" y2="52.5" /><path d="M36.5,66 c-4.111,-4.961 -10.709,-12.209 -16,-17.5" fill="none" stroke="#000000" stroke-width="2" /><path d="M2.5,65.5 c14.835,-10.144 24.258,-22.283 31.061,-40.844" fill="none" stroke="#000000" stroke-width="2" /><path d="M27.5,55.5 c3.204,-3.921 6.245,-8.603 9,-14" fill="none" stroke="#000000" stroke-width="2" /><path d="M91,78.5 c-8.906,-6.815 -18.198,-12.933 -28.5,-18.5" fill="none" stroke="#000000" stroke-width="2" /></svg>