<?xml version='1.0' encoding='utf-8'?>
<svg xmlns="http://www.w3.org/2000/svg" height="100px" version="1.0" viewBox="0 0 100 100" width="100px" x="0px" y="0px">
<line fill="none" stroke="#000000" stroke-width="2" x1="33.5" x2="4" y1="24" y2="24" /><line fill="none" stroke="#000000" stroke-width="2" x1="18.5" x2="18.5" y1="24" y2="6" /><line fill="none" stroke="#000000" stroke-width="2" x1="18.5" x2="18.5" y1="94" y2="50.5" /><line fill="none" stroke="#000000" stroke-width="2" x1="95" x2="35" y1="56.5" y2="56.5" /><line fill="none" stroke="#000000" stroke-width="2" x1="65" x2="65" y1="11" y2="93.5" /><line fill="none" stroke="#000000" stroke-width="2" x1="41.5" x2="88.5" y1="27" y2="27" /><polyline fill="none" points="41.5,45.5 89.5,45.5 89.5,10 40.5,10 40.5,46.5" stroke="#000000" stroke-width="2" /><path d="M34,66.5 c-3.641,-5.128 -9.679,-12.612 -14.5,-18" fill="none" stroke="#000000" stroke-width="2" /><path d="M2.5,65.5 c14.356,-10.141 23.476,-22.278 30.059,-40.834" fill="none" stroke="#000000" stroke-width="2" /><path d="M26,56 c3.371,-3.937 6.654,-8.925 9.5,-14.5" fill="none" stroke="#000000" stroke-width="2" /><path d="M34,88.5 c13.728,-9.507 23.618,-20.193 30,-32" fill="none" stroke="#000000" stroke-width="2" /><path d="M96,88.5 c-13.728,-9.507 -23.619,-20.193 -30,-32" fill="none" stroke="#000000" stroke-width="2" /></svg>