<?xml version='1.0' encoding='utf-8'?>
<svg xmlns="http://www.w3.org/2000/svg" height="100px" version="1.0" viewBox="0 0 100 100" width="100px" x="0px" y="0px">
<line fill="none" stroke="#000000" stroke-width="2" x1="33.5" x2="4" y1="24" y2="24" /><line fill="none" stroke="#000000" stroke-width="2" x1="18.5" x2="18.5" y1="24" y2="6" /><line fill="none" stroke="#000000" stroke-width="2" x1="18.5" x2="18.5" y1="94" y2="50.5" /><line fill="none" stroke="#000000" stroke-width="2" x1="41" x2="88.5" y1="50" y2="50" /><line fill="none" stroke="#000000" stroke-width="2" x1="32.5" x2="95.5" y1="79.5" y2="79.5" /><line fill="none" stroke="#000000" stroke-width="2" x1="65" x2="65" y1="94.5" y2="14.5" /><line fill="none" stroke="#000000" stroke-width="2" x1="42" x2="87.5" y1="23" y2="23" /><polyline fill="none" points="41,66.5 89.5,66.5 89.5,35 40,35 40,67.5" stroke="#000000" stroke-width="2" /><polyline fill="none" points="92.5,29.5 92.5,10.5 37,10.5 37,29.5" stroke="#000000" stroke-width="2" /><path d="M33,65 c-3.469,-4.677 -9.035,-11.511 -13.5,-16.5" fill="none" stroke="#000000" stroke-width="2" /><path d="M2.5,65.5 c14.356,-10.141 23.476,-22.278 30.059,-40.834" fill="none" stroke="#000000" stroke-width="2" /><path d="M26,56 c3.371,-3.937 6.654,-8.925 9.5,-14.5" fill="none" stroke="#000000" stroke-width="2" /></svg>