<?xml version='1.0' encoding='utf-8'?>
<svg xmlns="http://www.w3.org/2000/svg" height="100px" version="1.0" viewBox="0 0 100 100" width="100px" x="0px" y="0px">
<line fill="none" stroke="#000000" stroke-width="2" x1="5.5" x2="49.5" y1="23" y2="23" /><line fill="none" stroke="#000000" stroke-width="2" x1="7" x2="49" y1="12" y2="12" /><line fill="none" stroke="#000000" stroke-width="2" x1="28" x2="28" y1="12" y2="4.5" /><line fill="none" stroke="#000000" stroke-width="2" x1="55" x2="91" y1="33.5" y2="33.5" /><line fill="none" stroke="#000000" stroke-width="2" x1="55" x2="91" y1="41" y2="41" /><line fill="none" stroke="#000000" stroke-width="2" x1="55" x2="91" y1="48.5" y2="48.5" /><line fill="none" stroke="#000000" stroke-width="2" x1="93" x2="55" y1="11" y2="11" /><line fill="none" stroke="#000000" stroke-width="2" x1="11.5" x2="44" y1="46.5" y2="46.5" /><line fill="none" stroke="#000000" stroke-width="2" x1="11.5" x2="44" y1="38" y2="38" /><line fill="none" stroke="#000000" stroke-width="2" x1="50" x2="50" y1="64" y2="55.5" /><line fill="none" stroke="#000000" stroke-width="2" x1="7" x2="93" y1="64" y2="64" /><line fill="none" stroke="#000000" stroke-width="2" x1="30.5" x2="30.5" y1="89.5" y2="72.5" /><path d="M35,23 c2.904,-3.116 5.314,-6.854 7,-11" fill="none" stroke="#000000" stroke-width="2" /><path d="M21,23 c-2.053,-3.69 -4.367,-7.356 -7,-11" fill="none" stroke="#000000" stroke-width="2" /><path d="M95.5,44.92 c-1.684,11.45 -1.852,11.58 -22,11.58 c-18.232,0 -18.5,-0.241 -18.5,-5 V26.0 h36.0 v-7.5 h-36.0 v-14.0" fill="none" stroke="#000000" stroke-width="2" /><path d="M10.5,57.5 v-28.0 h34.5 v24.0 c0,2.677 -0.359,3 -6.5,3 c-1.868,0 -4.811,-0.117 -10.5,-0.5" fill="none" stroke="#000000" stroke-width="2" /><path d="M49,64 c-9.954,5.876 -24.104,11.152 -44,15.5" fill="none" stroke="#000000" stroke-width="2" /><path d="M51,64 c7.494,12.394 23.418,22.843 44,28" fill="none" stroke="#000000" stroke-width="2" /><path d="M11,92 c17.238,-1.671 32.201,-3.925 50,-7.5" fill="none" stroke="#000000" stroke-width="2" /><path d="M65.5,79 c8.092,-3.29 15.356,-7.242 21.5,-11.5" fill="none" stroke="#000000" stroke-width="2" /></svg>