<?xml version='1.0' encoding='utf-8'?>
<svg xmlns="http://www.w3.org/2000/svg" height="100px" version="1.0" viewBox="0 0 100 100" width="100px" x="0px" y="0px">
<line fill="none" stroke="#000000" stroke-width="2" x1="7" x2="43" y1="24" y2="24" /><line fill="none" stroke="#000000" stroke-width="2" x1="10.5" x2="39.5" y1="38" y2="38" /><line fill="none" stroke="#000000" stroke-width="2" x1="10.5" x2="39.5" y1="52" y2="52" /><line fill="none" stroke="#000000" stroke-width="2" x1="10" x2="40" y1="10.5" y2="10.5" /><line fill="none" stroke="#000000" stroke-width="2" x1="50" x2="95" y1="36" y2="36" /><line fill="none" stroke="#000000" stroke-width="2" x1="77" x2="77" y1="93" y2="36" /><polyline fill="none" points="12,88.5 39,88.5 39,66 11,66 11,94.5" stroke="#000000" stroke-width="2" /><path d="M49.067,14.997 c17.063,-1.147 30.779,-3.582 41.433,-6.997" fill="none" stroke="#000000" stroke-width="2" /><path d="M42,90.5 c5.813,-14.925 8,-30.675 8,-76.5" fill="none" stroke="#000000" stroke-width="2" /><path d="M93,75 c-11.284,-11.235 -24.691,-21.739 -37,-29" fill="none" stroke="#000000" stroke-width="2" /></svg>