<?xml version='1.0' encoding='utf-8'?>
<svg xmlns="http://www.w3.org/2000/svg" height="100px" version="1.0" viewBox="0 0 100 100" width="100px" x="0px" y="0px">
<line fill="none" stroke="#000000" stroke-width="2" x1="6" x2="43" y1="24" y2="24" /><line fill="none" stroke="#000000" stroke-width="2" x1="9.5" x2="39.5" y1="38" y2="38" /><line fill="none" stroke="#000000" stroke-width="2" x1="9.5" x2="39.5" y1="52" y2="52" /><line fill="none" stroke="#000000" stroke-width="2" x1="9" x2="40" y1="10.5" y2="10.5" /><line fill="none" stroke="#000000" stroke-width="2" x1="49.5" x2="90" y1="87" y2="87" /><line fill="none" stroke="#000000" stroke-width="2" x1="49.5" x2="90" y1="67.5" y2="67.5" /><polyline fill="none" points="11,88.5 39,88.5 39,66 10,66 10,94.5" stroke="#000000" stroke-width="2" /><polyline fill="none" points="91,93 91,49 48.5,49 48.5,93" stroke="#000000" stroke-width="2" /><path d="M47.5,7 v25.0 c0,5.036 0.652,5.5 20.5,5.5 c24.771,0 24.975,-0.185 26,-15.5" fill="none" stroke="#000000" stroke-width="2" /><path d="M47.5,21 c15.406,-2.271 29.752,-5.435 45.5,-10" fill="none" stroke="#000000" stroke-width="2" /></svg>