<?xml version='1.0' encoding='utf-8'?>
<svg xmlns="http://www.w3.org/2000/svg" height="100px" version="1.0" viewBox="0 0 100 100" width="100px" x="0px" y="0px">
<line fill="none" stroke="#000000" stroke-width="2" x1="6" x2="37.5" y1="24" y2="24" /><line fill="none" stroke="#000000" stroke-width="2" x1="9.5" x2="34" y1="38" y2="38" /><line fill="none" stroke="#000000" stroke-width="2" x1="9.5" x2="34" y1="52" y2="52" /><line fill="none" stroke="#000000" stroke-width="2" x1="9" x2="34.5" y1="10.5" y2="10.5" /><line fill="none" stroke="#000000" stroke-width="2" x1="54" x2="80.5" y1="11" y2="11" /><polyline fill="none" points="11,88.5 33.5,88.5 33.5,66 10,66 10,94.5" stroke="#000000" stroke-width="2" /><path d="M70.5,27.5 c3.197,-4.817 6.619,-10.8 9.104,-15.936" fill="none" stroke="#000000" stroke-width="2" /><path d="M36.5,36.5 c9.256,-9.177 16.193,-20.289 20.5,-33" fill="none" stroke="#000000" stroke-width="2" /><path d="M95,72.5 c-1.285,18.778 -1.551,19 -20,19 c-18.002,0 -18.5,-0.364 -18.5,-7 v-42.0 h30.0 c-1.435,25.036 -2.67,27 -6,27 c-2.775,0 -7.117,-0.307 -12.5,-1" fill="none" stroke="#000000" stroke-width="2" /><path d="M37,92 c5.301,-14.052 8,-29.832 8,-51 v-13.5 h50.0" fill="none" stroke="#000000" stroke-width="2" /></svg>