<?xml version='1.0' encoding='utf-8'?>
<svg xmlns="http://www.w3.org/2000/svg" height="100px" version="1.0" viewBox="0 0 100 100" width="100px" x="0px" y="0px">
<line fill="none" stroke="#000000" stroke-width="2" x1="5.5" x2="36.5" y1="24" y2="24" /><line fill="none" stroke="#000000" stroke-width="2" x1="8" x2="34" y1="38" y2="38" /><line fill="none" stroke="#000000" stroke-width="2" x1="8" x2="34" y1="52" y2="52" /><line fill="none" stroke="#000000" stroke-width="2" x1="7.5" x2="34.5" y1="10.5" y2="10.5" /><line fill="none" stroke="#000000" stroke-width="2" x1="43.5" x2="91.5" y1="66" y2="66" /><line fill="none" stroke="#000000" stroke-width="2" x1="43.5" x2="91.5" y1="45.5" y2="45.5" /><line fill="none" stroke="#000000" stroke-width="2" x1="40.5" x2="93.5" y1="10" y2="10" /><line fill="none" stroke="#000000" stroke-width="2" x1="67.5" x2="67.5" y1="28" y2="91" /><polyline fill="none" points="9.5,88.5 33.5,88.5 33.5,66 8.5,66 8.5,94.5" stroke="#000000" stroke-width="2" /><path d="M42.5,93 v-66.0 h50.0 v56.5 c0,7.367 -0.531,8 -5.5,8 c-1.993,0 -5.588,-0.134 -11.5,-0.5" fill="none" stroke="#000000" stroke-width="2" /><path d="M49,15.5 c6.059,3.351 12.477,7.257 19,11.5" fill="none" stroke="#000000" stroke-width="2" /><path d="M92.846,10.245 c-3.903,3.389 -15.847,10.714 -26.346,15.755" fill="none" stroke="#000000" stroke-width="2" /></svg>