<?xml version='1.0' encoding='utf-8'?>
<svg xmlns="http://www.w3.org/2000/svg" height="100px" version="1.0" viewBox="0 0 100 100" width="100px" x="0px" y="0px">
<line fill="none" stroke="#000000" stroke-width="2" x1="6" x2="38" y1="24" y2="24" /><line fill="none" stroke="#000000" stroke-width="2" x1="9.5" x2="34.5" y1="38" y2="38" /><line fill="none" stroke="#000000" stroke-width="2" x1="9.5" x2="34.5" y1="52" y2="52" /><line fill="none" stroke="#000000" stroke-width="2" x1="9" x2="35" y1="10.5" y2="10.5" /><line fill="none" stroke="#000000" stroke-width="2" x1="67.5" x2="67.5" y1="16" y2="5" /><line fill="none" stroke="#000000" stroke-width="2" x1="38" x2="96" y1="16" y2="16" /><polyline fill="none" points="11,88.5 34,88.5 34,66 10,66 10,94.5" stroke="#000000" stroke-width="2" /><polyline fill="none" points="45.5,55 91,55 91,27 44.5,27 44.5,56" stroke="#000000" stroke-width="2" /><path d="M68.5,56 v28.0 c0,7.291 -0.473,8 -5.5,8 c-2.391,0 -6.163,-0.158 -11,-0.5" fill="none" stroke="#000000" stroke-width="2" /><path d="M38,87 c6.98,-6.38 13.439,-15.513 17.5,-25" fill="none" stroke="#000000" stroke-width="2" /><path d="M95.5,88.5 c-5.312,-9.339 -11.762,-18.417 -18.5,-26" fill="none" stroke="#000000" stroke-width="2" /></svg>