<?xml version='1.0' encoding='utf-8'?>
<svg xmlns="http://www.w3.org/2000/svg" height="100px" version="1.0" viewBox="0 0 100 100" width="100px" x="0px" y="0px">
<line fill="none" stroke="#000000" stroke-width="2" x1="5" x2="35" y1="24" y2="24" /><line fill="none" stroke="#000000" stroke-width="2" x1="8.5" x2="31.5" y1="38" y2="38" /><line fill="none" stroke="#000000" stroke-width="2" x1="8.5" x2="31.5" y1="52" y2="52" /><line fill="none" stroke="#000000" stroke-width="2" x1="8" x2="32" y1="10.5" y2="10.5" /><line fill="none" stroke="#000000" stroke-width="2" x1="43" x2="88.5" y1="49.5" y2="49.5" /><line fill="none" stroke="#000000" stroke-width="2" x1="35.5" x2="95.5" y1="79" y2="79" /><line fill="none" stroke="#000000" stroke-width="2" x1="66" x2="66" y1="94" y2="14" /><line fill="none" stroke="#000000" stroke-width="2" x1="44" x2="87.5" y1="22.5" y2="22.5" /><polyline fill="none" points="10,88.5 31,88.5 31,66 9,66 9,94.5" stroke="#000000" stroke-width="2" /><polyline fill="none" points="43,66 89.5,66 89.5,34.5 42,34.5 42,67" stroke="#000000" stroke-width="2" /><polyline fill="none" points="92.5,29 92.5,10 39,10 39,29" stroke="#000000" stroke-width="2" /></svg>