<?xml version='1.0' encoding='utf-8'?>
<svg xmlns="http://www.w3.org/2000/svg" height="100px" version="1.0" viewBox="0 0 100 100" width="100px" x="0px" y="0px">
<line fill="none" stroke="#000000" stroke-width="2" x1="6" x2="39" y1="24" y2="24" /><line fill="none" stroke="#000000" stroke-width="2" x1="9.5" x2="35.5" y1="38" y2="38" /><line fill="none" stroke="#000000" stroke-width="2" x1="9.5" x2="35.5" y1="52" y2="52" /><line fill="none" stroke="#000000" stroke-width="2" x1="9" x2="36" y1="10.5" y2="10.5" /><line fill="none" stroke="#000000" stroke-width="2" x1="40" x2="96" y1="15.5" y2="15.5" /><line fill="none" stroke="#000000" stroke-width="2" x1="55.5" x2="55.5" y1="27.5" y2="4.5" /><line fill="none" stroke="#000000" stroke-width="2" x1="80.5" x2="80.5" y1="27.5" y2="4.5" /><line fill="none" stroke="#000000" stroke-width="2" x1="96" x2="40" y1="38" y2="38" /><line fill="none" stroke="#000000" stroke-width="2" x1="53" x2="89" y1="86.5" y2="86.5" /><polyline fill="none" points="11,88.5 35,88.5 35,66 10,66 10,94.5" stroke="#000000" stroke-width="2" /><polyline fill="none" points="52,93.5 52,57.5 90,57.5 90,93.5" stroke="#000000" stroke-width="2" /><path d="M38.5,70.5 c13.746,-10.315 23.949,-26.933 27.5,-46" fill="none" stroke="#000000" stroke-width="2" /></svg>