<?xml version='1.0' encoding='utf-8'?>
<svg xmlns="http://www.w3.org/2000/svg" height="100px" version="1.0" viewBox="0 0 100 100" width="100px" x="0px" y="0px">
<line fill="none" stroke="#000000" stroke-width="2" x1="5" x2="35.5" y1="24" y2="24" /><line fill="none" stroke="#000000" stroke-width="2" x1="8.5" x2="33" y1="38" y2="38" /><line fill="none" stroke="#000000" stroke-width="2" x1="8.5" x2="33" y1="52" y2="52" /><line fill="none" stroke="#000000" stroke-width="2" x1="8" x2="33.5" y1="10.5" y2="10.5" /><line fill="none" stroke="#000000" stroke-width="2" x1="94" x2="37" y1="40.5" y2="40.5" /><line fill="none" stroke="#000000" stroke-width="2" x1="95" x2="36" y1="58" y2="58" /><line fill="none" stroke="#000000" stroke-width="2" x1="41" x2="41" y1="64.5" y2="93.5" /><line fill="none" stroke="#000000" stroke-width="2" x1="65.5" x2="65.5" y1="40.5" y2="86.5" /><line fill="none" stroke="#000000" stroke-width="2" x1="41" x2="90" y1="86.5" y2="86.5" /><line fill="none" stroke="#000000" stroke-width="2" x1="90" x2="90" y1="93.5" y2="64.5" /><polyline fill="none" points="10,88.5 32.5,88.5 32.5,66 9,66 9,94.5" stroke="#000000" stroke-width="2" /><path d="M37,15 c19.445,0 37.94,-2.286 55,-6.5" fill="none" stroke="#000000" stroke-width="2" /><path d="M47,36 c-2.021,-6.128 -4.256,-11.988 -6.5,-17" fill="none" stroke="#000000" stroke-width="2" /><path d="M67,35.5 c-2.013,-6.495 -4.258,-12.694 -6.5,-18" fill="none" stroke="#000000" stroke-width="2" /><path d="M80.5,40.5 c3.528,-8.416 6.46,-17.265 8.5,-25.5" fill="none" stroke="#000000" stroke-width="2" /></svg>