<?xml version='1.0' encoding='utf-8'?>
<svg xmlns="http://www.w3.org/2000/svg" height="100px" version="1.0" viewBox="0 0 100 100" width="100px" x="0px" y="0px">
<line fill="none" stroke="#000000" stroke-width="2" x1="4.5" x2="33" y1="24" y2="24" /><line fill="none" stroke="#000000" stroke-width="2" x1="7.5" x2="30.5" y1="38" y2="38" /><line fill="none" stroke="#000000" stroke-width="2" x1="7.5" x2="30.5" y1="52" y2="52" /><line fill="none" stroke="#000000" stroke-width="2" x1="7" x2="31" y1="10.5" y2="10.5" /><line fill="none" stroke="#000000" stroke-width="2" x1="33.5" x2="96" y1="16.5" y2="16.5" /><line fill="none" stroke="#000000" stroke-width="2" x1="50" x2="50" y1="29.5" y2="4.5" /><line fill="none" stroke="#000000" stroke-width="2" x1="79" x2="79" y1="29.5" y2="4.5" /><line fill="none" stroke="#000000" stroke-width="2" x1="43.5" x2="43.5" y1="30.5" y2="64.5" /><line fill="none" stroke="#000000" stroke-width="2" x1="94" x2="35.5" y1="29.5" y2="29.5" /><line fill="none" stroke="#000000" stroke-width="2" x1="85.5" x2="85.5" y1="64.5" y2="30.5" /><line fill="none" stroke="#000000" stroke-width="2" x1="35.5" x2="94" y1="65.5" y2="65.5" /><line fill="none" stroke="#000000" stroke-width="2" x1="33" x2="96.5" y1="47" y2="47" /><line fill="none" stroke="#000000" stroke-width="2" x1="33.5" x2="96" y1="80" y2="80" /><line fill="none" stroke="#000000" stroke-width="2" x1="64.5" x2="64.5" y1="95.5" y2="30.5" /><polyline fill="none" points="9,88.5 30,88.5 30,66 8,66 8,94.5" stroke="#000000" stroke-width="2" /></svg>