<?xml version='1.0' encoding='utf-8'?>
<svg xmlns="http://www.w3.org/2000/svg" height="100px" version="1.0" viewBox="0 0 100 100" width="100px" x="0px" y="0px">
<line fill="none" stroke="#000000" stroke-width="2" x1="6" x2="37.5" y1="24" y2="24" /><line fill="none" stroke="#000000" stroke-width="2" x1="9.5" x2="34" y1="38" y2="38" /><line fill="none" stroke="#000000" stroke-width="2" x1="9.5" x2="34" y1="52" y2="52" /><line fill="none" stroke="#000000" stroke-width="2" x1="9" x2="34.5" y1="10.5" y2="10.5" /><line fill="none" stroke="#000000" stroke-width="2" x1="44.5" x2="86.5" y1="88" y2="88" /><line fill="none" stroke="#000000" stroke-width="2" x1="44.5" x2="86.5" y1="71.5" y2="71.5" /><line fill="none" stroke="#000000" stroke-width="2" x1="58.5" x2="58.5" y1="44" y2="16" /><line fill="none" stroke="#000000" stroke-width="2" x1="72.5" x2="72.5" y1="44" y2="16" /><line fill="none" stroke="#000000" stroke-width="2" x1="36" x2="95" y1="45" y2="45" /><line fill="none" stroke="#000000" stroke-width="2" x1="38" x2="93" y1="15" y2="15" /><polyline fill="none" points="11,88.5 33.5,88.5 33.5,66 10,66 10,94.5" stroke="#000000" stroke-width="2" /><polyline fill="none" points="87.5,94 87.5,55 43.5,55 43.5,94" stroke="#000000" stroke-width="2" /><path d="M56.5,15 c-2.401,-4.083 -4.995,-8.091 -7.5,-11.5" fill="none" stroke="#000000" stroke-width="2" /><path d="M74.5,15 c2.833,-3.789 5.519,-7.926 7.5,-11.5" fill="none" stroke="#000000" stroke-width="2" /><path d="M79.5,40 c3.829,-5.593 6.946,-12.452 9,-20" fill="none" stroke="#000000" stroke-width="2" /><path d="M51,40 c-2.539,-6.751 -5.544,-13.442 -9,-20" fill="none" stroke="#000000" stroke-width="2" /></svg>