<?xml version='1.0' encoding='utf-8'?>
<svg xmlns="http://www.w3.org/2000/svg" height="100px" version="1.0" viewBox="0 0 100 100" width="100px" x="0px" y="0px">
<line fill="none" stroke="#000000" stroke-width="2" x1="5.5" x2="33.5" y1="24" y2="24" /><line fill="none" stroke="#000000" stroke-width="2" x1="8.5" x2="32" y1="38" y2="38" /><line fill="none" stroke="#000000" stroke-width="2" x1="8.5" x2="32" y1="52" y2="52" /><line fill="none" stroke="#000000" stroke-width="2" x1="8" x2="32.5" y1="10.5" y2="10.5" /><line fill="none" stroke="#000000" stroke-width="2" x1="35.5" x2="63" y1="25.5" y2="25.5" /><line fill="none" stroke="#000000" stroke-width="2" x1="65" x2="96.5" y1="25.5" y2="25.5" /><line fill="none" stroke="#000000" stroke-width="2" x1="62" x2="36" y1="13.5" y2="13.5" /><line fill="none" stroke="#000000" stroke-width="2" x1="94.5" x2="66" y1="13.5" y2="13.5" /><line fill="none" stroke="#000000" stroke-width="2" x1="41.5" x2="87.5" y1="64" y2="64" /><line fill="none" stroke="#000000" stroke-width="2" x1="41.5" x2="87.5" y1="52.5" y2="52.5" /><polyline fill="none" points="10,88.5 31.5,88.5 31.5,66 9,66 9,94.5" stroke="#000000" stroke-width="2" /><polyline fill="none" points="41.5,75.5 87.5,75.5 87.5,41 40.5,41 40.5,76.5" stroke="#000000" stroke-width="2" /><path d="M33,92 c9.715,-3.245 18.08,-7.771 23,-12" fill="none" stroke="#000000" stroke-width="2" /><path d="M95,93 c-5.922,-4.208 -14.098,-8.712 -23,-12.5" fill="none" stroke="#000000" stroke-width="2" /><path d="M31,45.5 c11.842,-7.635 18,-20.128 18,-40" fill="none" stroke="#000000" stroke-width="2" /><path d="M66,38 c10.908,-6.862 13.5,-12.041 13.5,-32.5" fill="none" stroke="#000000" stroke-width="2" /><path d="M61.5,38 c-3.754,-3.995 -9.377,-8.262 -15.5,-11.5" fill="none" stroke="#000000" stroke-width="2" /><path d="M97,44.5 c-8.491,-5.047 -15.178,-11.761 -19,-19" fill="none" stroke="#000000" stroke-width="2" /></svg>