<?xml version='1.0' encoding='utf-8'?>
<svg xmlns="http://www.w3.org/2000/svg" height="100px" version="1.0" viewBox="0 0 100 100" width="100px" x="0px" y="0px">
<line fill="none" stroke="#000000" stroke-width="2" x1="6.5" x2="93.5" y1="12" y2="12" /><line fill="none" stroke="#000000" stroke-width="2" x1="50" x2="50" y1="12" y2="3.5" /><line fill="none" stroke="#000000" stroke-width="2" x1="16" x2="84" y1="50.5" y2="50.5" /><polyline fill="none" points="21,35 21,20 79,20 79,34 22,34" stroke="#000000" stroke-width="2" /><polyline fill="none" points="91.5,57.5 91.5,42 8.5,42 8.5,57.5" stroke="#000000" stroke-width="2" /><path d="M11,64 c19.244,-3.621 32.135,-8.188 41,-13.5" fill="none" stroke="#000000" stroke-width="2" /><path d="M10,76.5 c19.652,-3.813 32.922,-8.563 42,-14" fill="none" stroke="#000000" stroke-width="2" /><path d="M9,89 c22.804,-4.653 37.966,-10.364 48.5,-17" fill="none" stroke="#000000" stroke-width="2" /><path d="M87,57.5 c-6.698,4.982 -13.91,8.955 -22,12" fill="none" stroke="#000000" stroke-width="2" /><path d="M54,50.5 c4.807,15.139 19.438,30.564 38,39.5" fill="none" stroke="#000000" stroke-width="2" /><path d="M37,91 c6.283,0.357 11.131,0.5 14.5,0.5 c6.15,0 7.5,-1.617 7.5,-11.5 c0,-10.081 -6.213,-19.317 -16.5,-24.5" fill="none" stroke="#000000" stroke-width="2" /></svg>