<?xml version='1.0' encoding='utf-8'?>
<svg xmlns="http://www.w3.org/2000/svg" height="100px" version="1.0" viewBox="0 0 100 100" width="100px" x="0px" y="0px">
<line fill="none" stroke="#000000" stroke-width="2" x1="11" x2="34.5" y1="48" y2="48" /><line fill="none" stroke="#000000" stroke-width="2" x1="11" x2="34.5" y1="29" y2="29" /><line fill="none" stroke="#000000" stroke-width="2" x1="44.5" x2="96.5" y1="89.5" y2="89.5" /><line fill="none" stroke="#000000" stroke-width="2" x1="92.5" x2="51.5" y1="48.5" y2="48.5" /><line fill="none" stroke="#000000" stroke-width="2" x1="71.5" x2="71.5" y1="89.5" y2="22.5" /><line fill="none" stroke="#000000" stroke-width="2" x1="70.5" x2="70.5" y1="17.5" y2="4.5" /><polyline fill="none" points="11,67.5 35.5,67.5 35.5,10.5 10,10.5 10,68.5" stroke="#000000" stroke-width="2" /><path d="M3.5,92 c6.299,-4.847 12.094,-11.837 15.5,-18.5" fill="none" stroke="#000000" stroke-width="2" /><path d="M36,87 c-2.21,-4.45 -5.234,-9.063 -8.5,-13" fill="none" stroke="#000000" stroke-width="2" /><path d="M39,92.5 c3.977,-13.724 6,-29.487 6,-51 v-24.0 h50.0" fill="none" stroke="#000000" stroke-width="2" /></svg>