<?xml version='1.0' encoding='utf-8'?>
<svg xmlns="http://www.w3.org/2000/svg" height="100px" version="1.0" viewBox="0 0 100 100" width="100px" x="0px" y="0px">
<line fill="none" stroke="#000000" stroke-width="2" x1="11" x2="34.5" y1="48" y2="48" /><line fill="none" stroke="#000000" stroke-width="2" x1="11" x2="34.5" y1="29" y2="29" /><line fill="none" stroke="#000000" stroke-width="2" x1="47.5" x2="88.5" y1="87" y2="87" /><line fill="none" stroke="#000000" stroke-width="2" x1="39.5" x2="96.5" y1="41.5" y2="41.5" /><line fill="none" stroke="#000000" stroke-width="2" x1="40.5" x2="95.5" y1="15.5" y2="15.5" /><line fill="none" stroke="#000000" stroke-width="2" x1="68" x2="68" y1="15" y2="3.5" /><polyline fill="none" points="11,67.5 35.5,67.5 35.5,10.5 10,10.5 10,68.5" stroke="#000000" stroke-width="2" /><polyline fill="none" points="89.5,93 89.5,55.5 46.5,55.5 46.5,93" stroke="#000000" stroke-width="2" /><path d="M3.5,92 c6.299,-4.847 12.094,-11.837 15.5,-18.5" fill="none" stroke="#000000" stroke-width="2" /><path d="M39.5,91.5 c-3.175,-6.021 -7.396,-12.218 -12,-17.5" fill="none" stroke="#000000" stroke-width="2" /><path d="M77.5,41.5 c3.418,-7.409 6.219,-16.329 8,-26" fill="none" stroke="#000000" stroke-width="2" /><path d="M57.5,41.5 c-2.117,-8.986 -4.596,-17.603 -7.5,-26" fill="none" stroke="#000000" stroke-width="2" /></svg>