<?xml version='1.0' encoding='utf-8'?>
<svg xmlns="http://www.w3.org/2000/svg" height="100px" version="1.0" viewBox="0 0 100 100" width="100px" x="0px" y="0px">
<line fill="none" stroke="#000000" stroke-width="2" x1="30.5" x2="30.5" y1="10" y2="17" /><line fill="none" stroke="#000000" stroke-width="2" x1="30.5" x2="30.5" y1="28" y2="35" /><line fill="none" stroke="#000000" stroke-width="2" x1="11.5" x2="48" y1="36" y2="36" /><line fill="none" stroke="#000000" stroke-width="2" x1="18.5" x2="81.5" y1="65.5" y2="65.5" /><line fill="none" stroke="#000000" stroke-width="2" x1="18.5" x2="81.5" y1="54.5" y2="54.5" /><line fill="none" stroke="#000000" stroke-width="2" x1="52.5" x2="93.5" y1="9" y2="9" /><polyline fill="none" points="49,9 10.5,9 10.5,41" stroke="#000000" stroke-width="2" /><polyline fill="none" points="11.5,27 46,27 46,18 11.5,18" stroke="#000000" stroke-width="2" /><polyline fill="none" points="18.5,76.5 82.5,76.5 82.5,43.5 17.5,43.5 17.5,77.5" stroke="#000000" stroke-width="2" /><path d="M8,93 c13.08,-3.282 24.369,-7.771 31,-12" fill="none" stroke="#000000" stroke-width="2" /><path d="M92,94 c-7.982,-4.208 -19.018,-8.679 -31,-12.5" fill="none" stroke="#000000" stroke-width="2" /><path d="M51,36 c20.65,-4.169 35.096,-14.01 41.614,-26.464" fill="none" stroke="#000000" stroke-width="2" /><path d="M95.5,40.5 c-19.634,-5.839 -31.239,-15.185 -37,-28.5" fill="none" stroke="#000000" stroke-width="2" /></svg>