<?xml version='1.0' encoding='utf-8'?>
<svg xmlns="http://www.w3.org/2000/svg" height="100px" version="1.0" viewBox="0 0 100 100" width="100px" x="0px" y="0px">
<line fill="none" stroke="#000000" stroke-width="2" x1="5" x2="53" y1="35" y2="35" /><line fill="none" stroke="#000000" stroke-width="2" x1="49.5" x2="8.5" y1="16" y2="16" /><line fill="none" stroke="#000000" stroke-width="2" x1="29" x2="29" y1="35" y2="4" /><line fill="none" stroke="#000000" stroke-width="2" x1="62" x2="96" y1="21" y2="21" /><path d="M8.5,92.5 c10.341,-10.913 15,-23.706 15,-46.5 v-10.0" fill="none" stroke="#000000" stroke-width="2" /><path d="M4.5,75.5 c4.388,-7.877 8.021,-18.229 10,-29" fill="none" stroke="#000000" stroke-width="2" /><path d="M53,77 c-2.76,-9.925 -6.739,-21.06 -11,-30.5" fill="none" stroke="#000000" stroke-width="2" /><path d="M51,91 c23.994,-15.312 34.34,-32.429 38,-70" fill="none" stroke="#000000" stroke-width="2" /><path d="M95,91 c-19.668,-14.23 -28.662,-30.512 -32,-63" fill="none" stroke="#000000" stroke-width="2" /><path d="M51.5,49 c6.023,-11.971 11.155,-28.03 14,-44" fill="none" stroke="#000000" stroke-width="2" /><path d="M36.5,36 v47.0 c0,7.445 -0.457,8 -4.5,8 c-1.505,0 -4.232,-0.137 -8.5,-0.5" fill="none" stroke="#000000" stroke-width="2" /></svg>