<?xml version='1.0' encoding='utf-8'?>
<svg xmlns="http://www.w3.org/2000/svg" height="100px" version="1.0" viewBox="0 0 100 100" width="100px" x="0px" y="0px">
<line fill="none" stroke="#000000" stroke-width="2" x1="4.5" x2="48.5" y1="35" y2="35" /><line fill="none" stroke="#000000" stroke-width="2" x1="48" x2="6.5" y1="16" y2="16" /><line fill="none" stroke="#000000" stroke-width="2" x1="28" x2="28" y1="35" y2="4" /><line fill="none" stroke="#000000" stroke-width="2" x1="51.5" x2="95.5" y1="35" y2="35" /><line fill="none" stroke="#000000" stroke-width="2" x1="93.5" x2="52" y1="16" y2="16" /><line fill="none" stroke="#000000" stroke-width="2" x1="73.5" x2="73.5" y1="35" y2="4" /><path d="M8,92.5 c10.341,-10.913 15,-23.706 15,-46.5 v-11.0" fill="none" stroke="#000000" stroke-width="2" /><path d="M4.5,75.5 c4.388,-7.877 8.021,-18.229 10,-29" fill="none" stroke="#000000" stroke-width="2" /><path d="M49.5,66 c-2.171,-6.649 -4.791,-13.497 -7.5,-19.5" fill="none" stroke="#000000" stroke-width="2" /><path d="M36,35 v48.0 c0,7.445 -0.457,8 -4.5,8 c-1.505,0 -4.232,-0.137 -8.5,-0.5" fill="none" stroke="#000000" stroke-width="2" /><path d="M51.5,92.5 c10.341,-10.913 15,-23.706 15,-46.5 v-11.0" fill="none" stroke="#000000" stroke-width="2" /><path d="M48,75.5 c4.388,-7.877 8.021,-18.229 10,-29" fill="none" stroke="#000000" stroke-width="2" /><path d="M96.5,77 c-2.76,-9.925 -6.739,-21.06 -11,-30.5" fill="none" stroke="#000000" stroke-width="2" /><path d="M79.5,35 v48.0 c0,7.445 -0.457,8 -4.5,8 c-1.505,0 -4.232,-0.137 -8.5,-0.5" fill="none" stroke="#000000" stroke-width="2" /></svg>