<?xml version='1.0' encoding='utf-8'?>
<svg xmlns="http://www.w3.org/2000/svg" height="100px" version="1.0" viewBox="0 0 100 100" width="100px" x="0px" y="0px">
<line fill="none" stroke="#000000" stroke-width="2" x1="37.5" x2="7.5" y1="16" y2="16" /><line fill="none" stroke="#000000" stroke-width="2" x1="23.5" x2="39" y1="59" y2="59" /><line fill="none" stroke="#000000" stroke-width="2" x1="23.5" x2="23.5" y1="85" y2="4" /><line fill="none" stroke="#000000" stroke-width="2" x1="5.5" x2="38.5" y1="37" y2="37" /><line fill="none" stroke="#000000" stroke-width="2" x1="43" x2="43" y1="11.5" y2="73.5" /><line fill="none" stroke="#000000" stroke-width="2" x1="63" x2="63" y1="86" y2="11.5" /><line fill="none" stroke="#000000" stroke-width="2" x1="93" x2="37" y1="10.5" y2="10.5" /><line fill="none" stroke="#000000" stroke-width="2" x1="44" x2="62" y1="51.5" y2="51.5" /><line fill="none" stroke="#000000" stroke-width="2" x1="44" x2="62" y1="30.5" y2="30.5" /><line fill="none" stroke="#000000" stroke-width="2" x1="63" x2="92" y1="24" y2="24" /><path d="M5.5,92 c3.825,-11.728 6.592,-27.343 7.5,-44" fill="none" stroke="#000000" stroke-width="2" /><path d="M93.5,90 h-45.0 c-23.913,0 -32.155,-5.626 -37,-26" fill="none" stroke="#000000" stroke-width="2" /><path d="M37,74.5 c8.127,-1.307 17.256,-3.407 26,-6" fill="none" stroke="#000000" stroke-width="2" /><path d="M66,82.5 c11.829,-10.304 20.82,-29.25 25.011,-57.646" fill="none" stroke="#000000" stroke-width="2" /><path d="M93,82.5 c-12.807,-11.028 -21.268,-27.916 -25,-54" fill="none" stroke="#000000" stroke-width="2" /></svg>