<?xml version='1.0' encoding='utf-8'?>
<svg xmlns="http://www.w3.org/2000/svg" height="100px" version="1.0" viewBox="0 0 100 100" width="100px" x="0px" y="0px">
<line fill="none" stroke="#000000" stroke-width="2" x1="55" x2="81" y1="11" y2="11" /><line fill="none" stroke="#000000" stroke-width="2" x1="22.5" x2="38" y1="54" y2="54" /><line fill="none" stroke="#000000" stroke-width="2" x1="22.5" x2="22.5" y1="84.5" y2="36" /><line fill="none" stroke="#000000" stroke-width="2" x1="10.5" x2="10.5" y1="89.5" y2="45" /><polyline fill="none" points="8,35 34.5,35 34.5,10 7,10 7,36" stroke="#000000" stroke-width="2" /><path d="M71,27.5 c3.197,-4.817 6.619,-10.8 9.104,-15.936" fill="none" stroke="#000000" stroke-width="2" /><path d="M37.5,36.5 c9.256,-9.177 16.193,-20.289 20.5,-33" fill="none" stroke="#000000" stroke-width="2" /><path d="M95,72.5 c-1.285,18.778 -1.551,19 -19.5,19 c-18.002,0 -18.5,-0.364 -18.5,-7 v-42.0 h30.0 c-1.435,25.036 -2.67,27 -6,27 c-2.775,0 -7.117,-0.307 -12.5,-1" fill="none" stroke="#000000" stroke-width="2" /><path d="M38,92 c5.301,-14.052 8,-29.832 8,-51 v-13.5 h49.0" fill="none" stroke="#000000" stroke-width="2" /><path d="M4.5,92 c10.586,-3.853 22.176,-8.979 34,-15" fill="none" stroke="#000000" stroke-width="2" /></svg>