<?xml version='1.0' encoding='utf-8'?>
<svg xmlns="http://www.w3.org/2000/svg" height="100px" version="1.0" viewBox="0 0 100 100" width="100px" x="0px" y="0px">
<line fill="none" stroke="#000000" stroke-width="2" x1="22" x2="35.5" y1="54" y2="54" /><line fill="none" stroke="#000000" stroke-width="2" x1="22" x2="22" y1="85" y2="36" /><line fill="none" stroke="#000000" stroke-width="2" x1="11" x2="11" y1="90" y2="45" /><line fill="none" stroke="#000000" stroke-width="2" x1="42.5" x2="91.5" y1="66" y2="66" /><line fill="none" stroke="#000000" stroke-width="2" x1="42.5" x2="91.5" y1="45.5" y2="45.5" /><line fill="none" stroke="#000000" stroke-width="2" x1="39.5" x2="93.5" y1="10" y2="10" /><line fill="none" stroke="#000000" stroke-width="2" x1="67" x2="67" y1="28" y2="91" /><polyline fill="none" points="8.5,35 34,35 34,10 7.5,10 7.5,36" stroke="#000000" stroke-width="2" /><path d="M5,92.006 c9.652,-3.597 20.219,-8.384 31,-14.006" fill="none" stroke="#000000" stroke-width="2" /><path d="M41.5,93 v-66.0 h51.0 v56.5 c0,7.367 -0.531,8 -5.5,8 c-1.993,0 -5.588,-0.134 -11.5,-0.5" fill="none" stroke="#000000" stroke-width="2" /><path d="M48,15.5 c6.059,3.351 12.477,7.257 19,11.5" fill="none" stroke="#000000" stroke-width="2" /><path d="M92.858,10.233 c-4.053,3.391 -16.455,10.721 -27.358,15.767" fill="none" stroke="#000000" stroke-width="2" /></svg>