<?xml version='1.0' encoding='utf-8'?>
<svg xmlns="http://www.w3.org/2000/svg" height="100px" version="1.0" viewBox="0 0 100 100" width="100px" x="0px" y="0px">
<line fill="none" stroke="#000000" stroke-width="2" x1="95.5" x2="39.5" y1="56.5" y2="56.5" /><line fill="none" stroke="#000000" stroke-width="2" x1="67.5" x2="67.5" y1="11" y2="93.5" /><line fill="none" stroke="#000000" stroke-width="2" x1="46" x2="89" y1="27" y2="27" /><line fill="none" stroke="#000000" stroke-width="2" x1="22.5" x2="36.5" y1="54" y2="54" /><line fill="none" stroke="#000000" stroke-width="2" x1="22.5" x2="22.5" y1="84.5" y2="36" /><line fill="none" stroke="#000000" stroke-width="2" x1="11" x2="11" y1="89.5" y2="45" /><polyline fill="none" points="46,45.5 90,45.5 90,10 45,10 45,46.5" stroke="#000000" stroke-width="2" /><polyline fill="none" points="8.5,35 36.5,35 36.5,10 7.5,10 7.5,36" stroke="#000000" stroke-width="2" /><path d="M37,88.5 c13.499,-9.507 23.226,-20.193 29.5,-32" fill="none" stroke="#000000" stroke-width="2" /><path d="M96.5,88.5 c-12.813,-9.507 -22.044,-20.193 -28,-32" fill="none" stroke="#000000" stroke-width="2" /><path d="M5,92 c10.431,-3.853 21.85,-8.979 33.5,-15" fill="none" stroke="#000000" stroke-width="2" /></svg>