<?xml version='1.0' encoding='utf-8'?>
<svg xmlns="http://www.w3.org/2000/svg" height="100px" version="1.0" viewBox="0 0 100 100" width="100px" x="0px" y="0px">
<line fill="none" stroke="#000000" stroke-width="2" x1="22.5" x2="36.5" y1="54" y2="54" /><line fill="none" stroke="#000000" stroke-width="2" x1="22.5" x2="22.5" y1="84.5" y2="36" /><line fill="none" stroke="#000000" stroke-width="2" x1="10.5" x2="10.5" y1="89.5" y2="45" /><line fill="none" stroke="#000000" stroke-width="2" x1="43" x2="96" y1="43" y2="43" /><line fill="none" stroke="#000000" stroke-width="2" x1="70" x2="70" y1="60" y2="27.5" /><line fill="none" stroke="#000000" stroke-width="2" x1="50" x2="91" y1="86.5" y2="86.5" /><polyline fill="none" points="8.5,35 35.5,35 35.5,10 7.5,10 7.5,36" stroke="#000000" stroke-width="2" /><polyline fill="none" points="44,10 92,10 92,27.5 43,27.5" stroke="#000000" stroke-width="2" /><polyline fill="none" points="91,93.5 91,60 49,60 49,93.5" stroke="#000000" stroke-width="2" /><path d="M5,92 c9.341,-3.596 19.566,-8.381 30,-14" fill="none" stroke="#000000" stroke-width="2" /><path d="M34,91 c6.048,-14.052 9,-29.832 9,-51 v-31.0" fill="none" stroke="#000000" stroke-width="2" /></svg>