<?xml version='1.0' encoding='utf-8'?>
<svg xmlns="http://www.w3.org/2000/svg" height="100px" version="1.0" viewBox="0 0 100 100" width="100px" x="0px" y="0px">
<line fill="none" stroke="#000000" stroke-width="2" x1="22.5" x2="38.5" y1="54" y2="54" /><line fill="none" stroke="#000000" stroke-width="2" x1="22.5" x2="22.5" y1="84.5" y2="36" /><line fill="none" stroke="#000000" stroke-width="2" x1="11" x2="11" y1="89.5" y2="45" /><line fill="none" stroke="#000000" stroke-width="2" x1="87" x2="49" y1="30.5" y2="30.5" /><line fill="none" stroke="#000000" stroke-width="2" x1="68" x2="68" y1="15.5" y2="2.5" /><line fill="none" stroke="#000000" stroke-width="2" x1="95.5" x2="40.5" y1="49.5" y2="49.5" /><polyline fill="none" points="8.5,35 35.5,35 35.5,10 7.5,10 7.5,36" stroke="#000000" stroke-width="2" /><polyline fill="none" points="93.5,32.5 93.5,15.5 42.5,15.5 42.5,32.5" stroke="#000000" stroke-width="2" /><path d="M5,92 c10.119,-3.853 21.197,-8.979 32.5,-15" fill="none" stroke="#000000" stroke-width="2" /><path d="M68,49.5 v37.0 c0,4.269 -0.705,5 -6,5 c-2.352,0 -5.623,-0.132 -10.5,-0.5" fill="none" stroke="#000000" stroke-width="2" /><path d="M37,86.5 c6.441,-6.786 11.838,-15.609 15,-24.5" fill="none" stroke="#000000" stroke-width="2" /><path d="M95,87 c-4.37,-8.138 -10.196,-17.015 -16.5,-25" fill="none" stroke="#000000" stroke-width="2" /></svg>