<?xml version='1.0' encoding='utf-8'?>
<svg xmlns="http://www.w3.org/2000/svg" height="100px" version="1.0" viewBox="0 0 100 100" width="100px" x="0px" y="0px">
<line fill="none" stroke="#000000" stroke-width="2" x1="23" x2="39" y1="54" y2="54" /><line fill="none" stroke="#000000" stroke-width="2" x1="23" x2="23" y1="84.5" y2="36" /><line fill="none" stroke="#000000" stroke-width="2" x1="10.5" x2="10.5" y1="89.5" y2="45" /><line fill="none" stroke="#000000" stroke-width="2" x1="48" x2="91" y1="41" y2="41" /><line fill="none" stroke="#000000" stroke-width="2" x1="57.5" x2="80.5" y1="18.5" y2="18.5" /><line fill="none" stroke="#000000" stroke-width="2" x1="93" x2="93" y1="94" y2="66" /><line fill="none" stroke="#000000" stroke-width="2" x1="48.5" x2="93" y1="88" y2="88" /><polyline fill="none" points="8,35 36.5,35 36.5,10 7,10 7,36" stroke="#000000" stroke-width="2" /><polyline fill="none" points="92,67 48.5,67 48.5,94" stroke="#000000" stroke-width="2" /><path d="M4.5,92 c10.586,-3.853 22.176,-8.979 34,-15" fill="none" stroke="#000000" stroke-width="2" /><path d="M98,28 c-11.041,-6.879 -20.256,-14.302 -29,-23.3 c-8.743,8.998 -17.959,16.421 -29,23.3" fill="none" stroke="#000000" stroke-width="2" /><path d="M35,91 c7.922,-10.277 12,-23.917 12,-47 v-17.0 h44.0 v29.0 h-44.5" fill="none" stroke="#000000" stroke-width="2" /></svg>