<?xml version='1.0' encoding='utf-8'?>
<svg xmlns="http://www.w3.org/2000/svg" height="100px" version="1.0" viewBox="0 0 100 100" width="100px" x="0px" y="0px">
<line fill="none" stroke="#000000" stroke-width="2" x1="9" x2="38" y1="47" y2="47" /><line fill="none" stroke="#000000" stroke-width="2" x1="4" x2="42.5" y1="78" y2="78" /><line fill="none" stroke="#000000" stroke-width="2" x1="23.5" x2="23.5" y1="95" y2="5" /><line fill="none" stroke="#000000" stroke-width="2" x1="4" x2="42.5" y1="17" y2="17" /><line fill="none" stroke="#000000" stroke-width="2" x1="43.5" x2="95.5" y1="21.5" y2="21.5" /><line fill="none" stroke="#000000" stroke-width="2" x1="58" x2="58" y1="39.5" y2="81.5" /><line fill="none" stroke="#000000" stroke-width="2" x1="73.5" x2="44.5" y1="39.5" y2="39.5" /><polyline fill="none" points="9,65 39,65 39,30 8,30 8,66" stroke="#000000" stroke-width="2" /><path d="M76.5,4.5 c0,59.849 9.5,86.5 14,86.5 c1.693,0 3.953,-2.614 5.5,-23" fill="none" stroke="#000000" stroke-width="2" /><path d="M81,6.5 c4.604,3.041 9.17,6.589 13,10" fill="none" stroke="#000000" stroke-width="2" /><path d="M41.5,85.5 c15.205,-3.287 28.305,-7.847 36,-12" fill="none" stroke="#000000" stroke-width="2" /></svg>