<?xml version='1.0' encoding='utf-8'?>
<svg xmlns="http://www.w3.org/2000/svg" height="100px" version="1.0" viewBox="0 0 100 100" width="100px" x="0px" y="0px">
<line fill="none" stroke="#000000" stroke-width="2" x1="9" x2="38" y1="47" y2="47" /><line fill="none" stroke="#000000" stroke-width="2" x1="4" x2="42.5" y1="78" y2="78" /><line fill="none" stroke="#000000" stroke-width="2" x1="23.5" x2="23.5" y1="95" y2="5" /><line fill="none" stroke="#000000" stroke-width="2" x1="4" x2="42.5" y1="17" y2="17" /><line fill="none" stroke="#000000" stroke-width="2" x1="46.5" x2="91.5" y1="66.5" y2="66.5" /><line fill="none" stroke="#000000" stroke-width="2" x1="46.5" x2="91.5" y1="46.5" y2="46.5" /><line fill="none" stroke="#000000" stroke-width="2" x1="69.5" x2="69.5" y1="5" y2="91" /><line fill="none" stroke="#000000" stroke-width="2" x1="44.5" x2="96" y1="15" y2="15" /><polyline fill="none" points="9,65 39,65 39,30 8,30 8,66" stroke="#000000" stroke-width="2" /><path d="M77,4.5 c4.902,2.214 10.408,4.978 15,7.5" fill="none" stroke="#000000" stroke-width="2" /><path d="M46.5,93 v-64.5 h46.0 v55.0 c0,7.224 -0.578,8 -4,8 c-1.79,0 -5.652,-0.212 -9.5,-0.5" fill="none" stroke="#000000" stroke-width="2" /></svg>