<?xml version='1.0' encoding='utf-8'?>
<svg xmlns="http://www.w3.org/2000/svg" height="100px" version="1.0" viewBox="0 0 100 100" width="100px" x="0px" y="0px">
<line fill="none" stroke="#000000" stroke-width="2" x1="20.5" x2="20.5" y1="43.5" y2="6" /><line fill="none" stroke="#000000" stroke-width="2" x1="26" x2="26" y1="80.5" y2="43.5" /><line fill="none" stroke="#000000" stroke-width="2" x1="37" x2="4" y1="43.5" y2="43.5" /><line fill="none" stroke="#000000" stroke-width="2" x1="43" x2="88.5" y1="50" y2="50" /><line fill="none" stroke="#000000" stroke-width="2" x1="35.5" x2="95.5" y1="79.5" y2="79.5" /><line fill="none" stroke="#000000" stroke-width="2" x1="66" x2="66" y1="94.5" y2="14.5" /><line fill="none" stroke="#000000" stroke-width="2" x1="44" x2="87.5" y1="23" y2="23" /><polyline fill="none" points="43,66.5 89.5,66.5 89.5,35 42,35 42,67.5" stroke="#000000" stroke-width="2" /><polyline fill="none" points="92.5,29.5 92.5,10.5 39,10.5 39,29.5" stroke="#000000" stroke-width="2" /><path d="M14,38 c-2.357,-9.246 -5.193,-18.5 -8,-26" fill="none" stroke="#000000" stroke-width="2" /><path d="M27,38 c2.887,-8.351 5.466,-18.372 7,-27" fill="none" stroke="#000000" stroke-width="2" /><path d="M4,93.5 c6.945,-7.28 11,-21.916 11,-50" fill="none" stroke="#000000" stroke-width="2" /><path d="M15.5,85 c7.965,-2.965 14.507,-6.228 22,-11" fill="none" stroke="#000000" stroke-width="2" /></svg>