<?xml version='1.0' encoding='utf-8'?>
<svg xmlns="http://www.w3.org/2000/svg" height="100px" version="1.0" viewBox="0 0 100 100" width="100px" x="0px" y="0px">
<line fill="none" stroke="#000000" stroke-width="2" x1="7.5" x2="43" y1="12.5" y2="12.5" /><line fill="none" stroke="#000000" stroke-width="2" x1="57.5" x2="92.5" y1="12.5" y2="12.5" /><line fill="none" stroke="#000000" stroke-width="2" x1="57.5" x2="94" y1="35.5" y2="35.5" /><line fill="none" stroke="#000000" stroke-width="2" x1="9.5" x2="43" y1="24" y2="24" /><line fill="none" stroke="#000000" stroke-width="2" x1="57.5" x2="90.5" y1="24" y2="24" /><line fill="none" stroke="#000000" stroke-width="2" x1="57.5" x2="57.5" y1="43" y2="5.5" /><line fill="none" stroke="#000000" stroke-width="2" x1="18" x2="82" y1="66" y2="66" /><line fill="none" stroke="#000000" stroke-width="2" x1="5" x2="95" y1="85.5" y2="85.5" /><line fill="none" stroke="#000000" stroke-width="2" x1="50" x2="50" y1="95.5" y2="39.5" /><line fill="none" stroke="#000000" stroke-width="2" x1="6" x2="94" y1="47" y2="47" /><polyline fill="none" points="18,77 83,77 83,55 17,55 17,78" stroke="#000000" stroke-width="2" /><path d="M6,37.5 c12.02,-1.219 23.47,-2.837 35.5,-5" fill="none" stroke="#000000" stroke-width="2" /><path d="M28,43.5 c11.922,-5.608 15,-9.801 15,-20.5 v-17.5" fill="none" stroke="#000000" stroke-width="2" /></svg>