<?xml version='1.0' encoding='utf-8'?>
<svg xmlns="http://www.w3.org/2000/svg" height="100px" version="1.0" viewBox="0 0 100 100" width="100px" x="0px" y="0px">
<line fill="none" stroke="#000000" stroke-width="2" x1="8.5" x2="35.5" y1="47" y2="47" /><line fill="none" stroke="#000000" stroke-width="2" x1="3.5" x2="39.5" y1="78" y2="78" /><line fill="none" stroke="#000000" stroke-width="2" x1="22" x2="22" y1="95" y2="5" /><line fill="none" stroke="#000000" stroke-width="2" x1="3.5" x2="39.5" y1="17" y2="17" /><line fill="none" stroke="#000000" stroke-width="2" x1="40" x2="97" y1="44.5" y2="44.5" /><line fill="none" stroke="#000000" stroke-width="2" x1="95" x2="42.5" y1="14.5" y2="14.5" /><line fill="none" stroke="#000000" stroke-width="2" x1="92.5" x2="45" y1="29" y2="29" /><line fill="none" stroke="#000000" stroke-width="2" x1="93" x2="43" y1="69.5" y2="69.5" /><line fill="none" stroke="#000000" stroke-width="2" x1="82.5" x2="54.5" y1="56" y2="56" /><polyline fill="none" points="8.5,65 36.5,65 36.5,30 7.5,30 7.5,66" stroke="#000000" stroke-width="2" /><path d="M39,68.5 c15.436,-11.787 28.078,-37.2 30,-64" fill="none" stroke="#000000" stroke-width="2" /><path d="M97,68.5 c-9.706,-7.599 -18.721,-21.879 -24,-39.5" fill="none" stroke="#000000" stroke-width="2" /><path d="M38.5,92 c18.703,-4.669 30,-18.118 30,-35" fill="none" stroke="#000000" stroke-width="2" /><path d="M97,93 c-10.85,-7.782 -22.127,-13.995 -33.5,-18.5" fill="none" stroke="#000000" stroke-width="2" /></svg>