<?xml version='1.0' encoding='utf-8'?>
<svg xmlns="http://www.w3.org/2000/svg" height="100px" version="1.0" viewBox="0 0 100 100" width="100px" x="0px" y="0px">
<line fill="none" stroke="#000000" stroke-width="2" x1="8.5" x2="35.5" y1="47" y2="47" /><line fill="none" stroke="#000000" stroke-width="2" x1="3.5" x2="39.5" y1="78" y2="78" /><line fill="none" stroke="#000000" stroke-width="2" x1="22" x2="22" y1="95" y2="5" /><line fill="none" stroke="#000000" stroke-width="2" x1="3.5" x2="39.5" y1="17" y2="17" /><line fill="none" stroke="#000000" stroke-width="2" x1="41" x2="94.5" y1="10.5" y2="10.5" /><line fill="none" stroke="#000000" stroke-width="2" x1="67.5" x2="67.5" y1="86.5" y2="53" /><line fill="none" stroke="#000000" stroke-width="2" x1="44" x2="91.5" y1="87.5" y2="87.5" /><line fill="none" stroke="#000000" stroke-width="2" x1="44" x2="91.5" y1="69.5" y2="69.5" /><polyline fill="none" points="8.5,65 36.5,65 36.5,30 7.5,30 7.5,66" stroke="#000000" stroke-width="2" /><polyline fill="none" points="47.5,41 89,41 89,21.5 46.5,21.5 46.5,42" stroke="#000000" stroke-width="2" /><polyline fill="none" points="92.5,93.5 92.5,52 43,52 43,93.5" stroke="#000000" stroke-width="2" /></svg>