<?xml version='1.0' encoding='utf-8'?>
<svg xmlns="http://www.w3.org/2000/svg" height="100px" version="1.0" viewBox="0 0 100 100" width="100px" x="0px" y="0px">
<polyline fill="none" points="23,75 23,45 6,45" stroke="#000000" stroke-width="2" /><path d="M9,10 c5.725,5.621 10.574,10.782 16,17" fill="none" stroke="#000000" stroke-width="2" /><path d="M6,92 c8.029,-5.713 13.36,-11.114 17,-17" fill="none" stroke="#000000" stroke-width="2" /><path d="M93,90 h-34.0 c-21.543,0 -30.148,-3.961 -36,-15" fill="none" stroke="#000000" stroke-width="2" /><path d="M90.5,12.5 c-5.212,8.172 -10.834,14.7 -17,20" fill="none" stroke="#000000" stroke-width="2" /><path d="M66.5,5.5 v65.0 c0,6.673 0.396,7 11,7 c12.902,0 13.391,-0.397 14,-16.5" fill="none" stroke="#000000" stroke-width="2" /><path d="M44.5,33 c-3.766,-6.172 -8.52,-13.035 -14,-20" fill="none" stroke="#000000" stroke-width="2" /><path d="M91.5,55 c-6.941,-4.978 -15.566,-10.37 -25,-15.5" fill="none" stroke="#000000" stroke-width="2" /><path d="M34,79 c13.063,-7.495 18.5,-17.925 18.5,-41.012 V5.5" fill="none" stroke="#000000" stroke-width="2" /><path d="M28.5,55.5 c9.829,-4.653 18.131,-10.106 24,-15.5" fill="none" stroke="#000000" stroke-width="2" /></svg>