<?xml version='1.0' encoding='utf-8'?>
<svg xmlns="http://www.w3.org/2000/svg" height="100px" version="1.0" viewBox="0 0 100 100" width="100px" x="0px" y="0px">
<line fill="none" stroke="#000000" stroke-width="2" x1="28" x2="93" y1="10.5" y2="10.5" /><polyline fill="none" points="23,75 23,45 6,45" stroke="#000000" stroke-width="2" /><path d="M9,10 c5.725,5.621 10.574,10.782 16,17" fill="none" stroke="#000000" stroke-width="2" /><path d="M6,92 c8.029,-5.713 13.36,-11.114 17,-17" fill="none" stroke="#000000" stroke-width="2" /><path d="M93,90 h-34.0 c-21.543,0 -30.148,-3.961 -36,-15" fill="none" stroke="#000000" stroke-width="2" /><path d="M28.5,33.5 c17.107,-6.491 28.106,-13.776 36,-23" fill="none" stroke="#000000" stroke-width="2" /><path d="M67,36 c9.945,-5.659 16.709,-11.458 22.5,-19" fill="none" stroke="#000000" stroke-width="2" /><path d="M29,53 c16.174,-6.292 27.939,-14.21 35.5,-23" fill="none" stroke="#000000" stroke-width="2" /><path d="M29.5,72.5 c18.932,-7.499 31.611,-16.239 40,-26.5" fill="none" stroke="#000000" stroke-width="2" /><path d="M92,74 c-6.688,-14.813 -14.31,-25.312 -23.5,-32.5" fill="none" stroke="#000000" stroke-width="2" /><path d="M50,76.5 c5.33,0.312 11.144,0.5 14,0.5 c5.109,0 6.5,-1.635 6.5,-18.5 c0,-17.019 -5.609,-31.819 -14,-40" fill="none" stroke="#000000" stroke-width="2" /></svg>