<?xml version='1.0' encoding='utf-8'?>
<svg xmlns="http://www.w3.org/2000/svg" height="100px" version="1.0" viewBox="0 0 100 100" width="100px" x="0px" y="0px">
<line fill="none" stroke="#000000" stroke-width="2" x1="36" x2="91.5" y1="24" y2="24" /><line fill="none" stroke="#000000" stroke-width="2" x1="36" x2="91.5" y1="37" y2="37" /><line fill="none" stroke="#000000" stroke-width="2" x1="65.5" x2="65.5" y1="81.5" y2="11" /><polyline fill="none" points="23,75 23,45 6,45" stroke="#000000" stroke-width="2" /><path d="M42.5,78.5 V50.0 h47.0 v18.5 c0,6.833 -0.588,7.5 -5,7.5 c-1.606,0 -4.736,-0.138 -9.5,-0.5" fill="none" stroke="#000000" stroke-width="2" /><path d="M9,10 c5.725,5.621 10.574,10.782 16,17" fill="none" stroke="#000000" stroke-width="2" /><path d="M6,92 c8.029,-5.713 13.36,-11.114 17,-17" fill="none" stroke="#000000" stroke-width="2" /><path d="M93,90 h-34.0 c-21.543,0 -30.148,-3.961 -36,-15" fill="none" stroke="#000000" stroke-width="2" /><path d="M35,13 c18.822,0 37.539,-2.104 54,-6" fill="none" stroke="#000000" stroke-width="2" /><path d="M28,75 c5.781,-11.767 8,-24.918 8,-63" fill="none" stroke="#000000" stroke-width="2" /></svg>