<?xml version='1.0' encoding='utf-8'?>
<svg xmlns="http://www.w3.org/2000/svg" height="100px" version="1.0" viewBox="0 0 100 100" width="100px" x="0px" y="0px">
<line fill="none" stroke="#000000" stroke-width="2" x1="30" x2="93" y1="21.5" y2="21.5" /><line fill="none" stroke="#000000" stroke-width="2" x1="35.5" x2="88" y1="33.5" y2="33.5" /><line fill="none" stroke="#000000" stroke-width="2" x1="35.5" x2="88" y1="45.5" y2="45.5" /><line fill="none" stroke="#000000" stroke-width="2" x1="35.5" x2="88" y1="10" y2="10" /><polyline fill="none" points="23,75 23,45 6,45" stroke="#000000" stroke-width="2" /><polyline fill="none" points="36.5,78 88,78 88,57.5 35.5,57.5 35.5,79" stroke="#000000" stroke-width="2" /><path d="M9,10 c5.725,5.621 10.574,10.782 16,17" fill="none" stroke="#000000" stroke-width="2" /><path d="M6,92 c8.029,-5.713 13.36,-11.114 17,-17" fill="none" stroke="#000000" stroke-width="2" /><path d="M93,90 h-34.0 c-21.543,0 -30.148,-3.961 -36,-15" fill="none" stroke="#000000" stroke-width="2" /></svg>