<?xml version='1.0' encoding='utf-8'?>
<svg xmlns="http://www.w3.org/2000/svg" height="100px" version="1.0" viewBox="0 0 100 100" width="100px" x="0px" y="0px">
<line fill="none" stroke="#000000" stroke-width="2" x1="29" x2="94" y1="27.5" y2="27.5" /><polyline fill="none" points="34.5,42 87,42 87,13.5 34.5,13.5" stroke="#000000" stroke-width="2" /><polyline fill="none" points="23,75 23,45 6,45" stroke="#000000" stroke-width="2" /><path d="M62,4.5 v68.5 c0,6.687 -1.102,8 -6,8 c-2.223,0 -6.363,-0.169 -11,-0.5" fill="none" stroke="#000000" stroke-width="2" /><path d="M62,44.5 c5.073,12.377 16.885,25.552 30.5,33.5" fill="none" stroke="#000000" stroke-width="2" /><path d="M89,46.5 c-4.651,5.628 -10.107,10.799 -16,15" fill="none" stroke="#000000" stroke-width="2" /><path d="M30,76.5 c12.396,-5.852 23.612,-13.349 32,-21" fill="none" stroke="#000000" stroke-width="2" /><path d="M48.5,61 c-3.287,-4.096 -7.908,-9.134 -13,-14" fill="none" stroke="#000000" stroke-width="2" /><path d="M9,10 c5.725,5.621 10.574,10.782 16,17" fill="none" stroke="#000000" stroke-width="2" /><path d="M6,92 c8.029,-5.713 13.36,-11.114 17,-17" fill="none" stroke="#000000" stroke-width="2" /><path d="M93,90 h-34.0 c-21.543,0 -30.148,-3.961 -36,-15" fill="none" stroke="#000000" stroke-width="2" /></svg>