<?xml version='1.0' encoding='utf-8'?>
<svg xmlns="http://www.w3.org/2000/svg" height="100px" version="1.0" viewBox="0 0 100 100" width="100px" x="0px" y="0px">
<line fill="none" stroke="#000000" stroke-width="2" x1="62" x2="62" y1="66.5" y2="10.5" /><line fill="none" stroke="#000000" stroke-width="2" x1="85.5" x2="38.5" y1="37.5" y2="37.5" /><line fill="none" stroke="#000000" stroke-width="2" x1="85.5" x2="38.5" y1="23.5" y2="23.5" /><polyline fill="none" points="22,75 22,45 6,45" stroke="#000000" stroke-width="2" /><polyline fill="none" points="37.5,38.5 37.5,9.5 86.5,9.5 86.5,38.5" stroke="#000000" stroke-width="2" /><path d="M8,10 c5.725,5.621 10.574,10.782 16,17" fill="none" stroke="#000000" stroke-width="2" /><path d="M6,92 c7.74,-6.099 12.36,-11.114 16,-17" fill="none" stroke="#000000" stroke-width="2" /><path d="M93,90 h-35.0 c-21.543,0 -30.148,-3.961 -36,-15" fill="none" stroke="#000000" stroke-width="2" /><path d="M86,72.5 c-3.012,-5.856 -7.488,-13.27 -11.5,-19" fill="none" stroke="#000000" stroke-width="2" /><path d="M39,69.5 c13.201,-0.908 27.875,-3.364 41.5,-7" fill="none" stroke="#000000" stroke-width="2" /><path d="M75,80 c5.624,0.363 8.998,0.5 10.5,0.5 c4.484,0 5,-0.51 5,-7 v-26.0 h-57.0 V82.0" fill="none" stroke="#000000" stroke-width="2" /></svg>