<?xml version='1.0' encoding='utf-8'?>
<svg xmlns="http://www.w3.org/2000/svg" height="100px" version="1.0" viewBox="0 0 100 100" width="100px" x="0px" y="0px">
<line fill="none" stroke="#000000" stroke-width="2" x1="25.5" x2="93.5" y1="34" y2="34" /><line fill="none" stroke="#000000" stroke-width="2" x1="60.5" x2="60.5" y1="33" y2="5" /><polyline fill="none" points="22,75 22,45 5,45" stroke="#000000" stroke-width="2" /><polyline fill="none" points="34,25.5 87,25.5 87,12 33,12 33,26.5" stroke="#000000" stroke-width="2" /><polyline fill="none" points="36,54.5 85,54.5 85,42.5 35,42.5 35,76.5 87.5,76.5 87.5,63 36,63" stroke="#000000" stroke-width="2" /><path d="M7.5,10 c5.725,5.621 10.574,10.782 16,17" fill="none" stroke="#000000" stroke-width="2" /><path d="M5,92 c8.029,-5.713 13.36,-11.114 17,-17" fill="none" stroke="#000000" stroke-width="2" /><path d="M93.5,90 H58.0 c-21.543,0 -30.148,-3.961 -36,-15" fill="none" stroke="#000000" stroke-width="2" /></svg>