<?xml version='1.0' encoding='utf-8'?>
<svg xmlns="http://www.w3.org/2000/svg" height="100px" version="1.0" viewBox="0 0 100 100" width="100px" x="0px" y="0px">
<line fill="none" stroke="#000000" stroke-width="2" x1="27.5" x2="93.5" y1="13" y2="13" /><line fill="none" stroke="#000000" stroke-width="2" x1="50.5" x2="50.5" y1="44.5" y2="3.5" /><line fill="none" stroke="#000000" stroke-width="2" x1="70.5" x2="70.5" y1="44.5" y2="3.5" /><line fill="none" stroke="#000000" stroke-width="2" x1="32.5" x2="88.5" y1="33.5" y2="33.5" /><line fill="none" stroke="#000000" stroke-width="2" x1="36.5" x2="84.5" y1="65.5" y2="65.5" /><polyline fill="none" points="22,75 22,45 5,45" stroke="#000000" stroke-width="2" /><polyline fill="none" points="32.5,45.5 89.5,45.5 89.5,21.5 31.5,21.5 31.5,46.5" stroke="#000000" stroke-width="2" /><polyline fill="none" points="36.5,78 85.5,78 85.5,53 35.5,53 35.5,79" stroke="#000000" stroke-width="2" /><path d="M7.5,10 c5.725,5.621 10.574,10.782 16,17" fill="none" stroke="#000000" stroke-width="2" /><path d="M5,92 c8.029,-5.713 13.36,-11.114 17,-17" fill="none" stroke="#000000" stroke-width="2" /><path d="M93.5,90 H58.0 c-21.543,0 -30.148,-3.961 -36,-15" fill="none" stroke="#000000" stroke-width="2" /></svg>