<?xml version='1.0' encoding='utf-8'?>
<svg xmlns="http://www.w3.org/2000/svg" height="100px" version="1.0" viewBox="0 0 100 100" width="100px" x="0px" y="0px">
<line fill="none" stroke="#000000" stroke-width="2" x1="64" x2="64" y1="13" y2="3.5" /><line fill="none" stroke="#000000" stroke-width="2" x1="35" x2="93" y1="30.5" y2="30.5" /><polyline fill="none" points="22,75 22,45 6,45" stroke="#000000" stroke-width="2" /><polyline fill="none" points="51.5,17 51.5,53 79,53 79,17" stroke="#000000" stroke-width="2" /><path d="M8,10 c5.725,5.621 10.574,10.782 16,17" fill="none" stroke="#000000" stroke-width="2" /><path d="M6,92 c7.74,-6.099 12.36,-11.114 16,-17" fill="none" stroke="#000000" stroke-width="2" /><path d="M93,90 h-35.0 c-21.543,0 -30.148,-3.961 -36,-15" fill="none" stroke="#000000" stroke-width="2" /><path d="M93,80.5 c-2.781,-6.019 -6.045,-12.276 -10,-19" fill="none" stroke="#000000" stroke-width="2" /><path d="M76,81 c-1.691,-5.928 -3.806,-12.179 -6.5,-19" fill="none" stroke="#000000" stroke-width="2" /><path d="M59,81.5 c-0.602,-5.837 -1.566,-12.08 -3,-19" fill="none" stroke="#000000" stroke-width="2" /><path d="M29.5,79.5 c3.785,-9.137 5.5,-19.895 5.5,-40 V13.0 h58.0" fill="none" stroke="#000000" stroke-width="2" /><path d="M37,80.5 c3.494,-5.358 6.822,-11.621 10,-19" fill="none" stroke="#000000" stroke-width="2" /></svg>