<?xml version='1.0' encoding='utf-8'?>
<svg xmlns="http://www.w3.org/2000/svg" height="100px" version="1.0" viewBox="0 0 100 100" width="100px" x="0px" y="0px">
<line fill="none" stroke="#000000" stroke-width="2" x1="58" x2="93.5" y1="39.5" y2="39.5" /><line fill="none" stroke="#000000" stroke-width="2" x1="76" x2="76" y1="39.5" y2="81.5" /><line fill="none" stroke="#000000" stroke-width="2" x1="59" x2="93" y1="58" y2="58" /><line fill="none" stroke="#000000" stroke-width="2" x1="59" x2="93" y1="14.5" y2="14.5" /><line fill="none" stroke="#000000" stroke-width="2" x1="76" x2="76" y1="14.5" y2="5" /><polyline fill="none" points="22,75 22,45 5,45" stroke="#000000" stroke-width="2" /><polyline fill="none" points="35,79.5 55.5,79.5 55.5,50 34,50 34,80.5" stroke="#000000" stroke-width="2" /><path d="M7.5,10 c5.725,5.621 10.574,10.782 16,17" fill="none" stroke="#000000" stroke-width="2" /><path d="M5,92 c8.029,-5.713 13.36,-11.114 17,-17" fill="none" stroke="#000000" stroke-width="2" /><path d="M93.5,90 H58.0 c-21.543,0 -30.148,-3.961 -36,-15" fill="none" stroke="#000000" stroke-width="2" /><path d="M80.5,39.5 c2.805,-7.43 5.206,-15.857 7,-25" fill="none" stroke="#000000" stroke-width="2" /><path d="M70,39.5 c-1.34,-8.319 -3.064,-16.937 -5,-25" fill="none" stroke="#000000" stroke-width="2" /><path d="M25.5,75.5 c5.072,-11.894 7.5,-24.45 7.5,-40.5 v-24.5 h22.0 V36.0 h-21.0" fill="none" stroke="#000000" stroke-width="2" /></svg>