<?xml version='1.0' encoding='utf-8'?>
<svg xmlns="http://www.w3.org/2000/svg" height="100px" version="1.0" viewBox="0 0 100 100" width="100px" x="0px" y="0px">
<line fill="none" stroke="#000000" stroke-width="2" x1="7" x2="54.5" y1="11.5" y2="11.5" /><line fill="none" stroke="#000000" stroke-width="2" x1="17" x2="17" y1="43.5" y2="11.5" /><line fill="none" stroke="#000000" stroke-width="2" x1="55.5" x2="5" y1="43.5" y2="43.5" /><polyline fill="none" points="93,10 60.5,10 60.5,93" stroke="#000000" stroke-width="2" /><path d="M44,12.5 V81.0 c0,8.327 -0.701,9 -7,9 c-2.325,0 -8.225,-0.177 -15,-0.5" fill="none" stroke="#000000" stroke-width="2" /><path d="M5,80.5 c13.779,-9.195 26.6,-21.586 38,-37" fill="none" stroke="#000000" stroke-width="2" /><path d="M68,81 h9.0 c10.607,0 15.5,-4.166 15.5,-13 c0,-10.241 -5.379,-20.147 -16,-27.5 c6.075,-9.587 11.531,-20.068 15.576,-29.881" fill="none" stroke="#000000" stroke-width="2" /></svg>