<?xml version='1.0' encoding='utf-8'?>
<svg xmlns="http://www.w3.org/2000/svg" height="100px" version="1.0" viewBox="0 0 100 100" width="100px" x="0px" y="0px">
<line fill="none" stroke="#000000" stroke-width="2" x1="32.5" x2="32.5" y1="15" y2="4.5" /><line fill="none" stroke="#000000" stroke-width="2" x1="5" x2="60" y1="15" y2="15" /><line fill="none" stroke="#000000" stroke-width="2" x1="55.5" x2="8" y1="52" y2="52" /><polyline fill="none" points="95.5,10 66,10 66,93" stroke="#000000" stroke-width="2" /><polyline fill="none" points="13.5,42 52.5,42 52.5,24.5 12.5,24.5 12.5,43" stroke="#000000" stroke-width="2" /><path d="M73.5,81 h6.0 c10.607,0 15.5,-4.166 15.5,-13 c0,-10.241 -5.379,-20.147 -16,-27.5 c6.075,-9.587 11.531,-20.068 15.576,-29.881" fill="none" stroke="#000000" stroke-width="2" /><path d="M4,71.5 c24.835,-0.576 45.068,-1.733 57,-3" fill="none" stroke="#000000" stroke-width="2" /><path d="M33,64 v19.5 c0,7.493 -0.563,8 -6.5,8 c-3.48,0 -7.595,-0.135 -12.5,-0.5" fill="none" stroke="#000000" stroke-width="2" /><path d="M54.887,52.21 c-6.976,5.406 -12.717,8.873 -21.387,12.79" fill="none" stroke="#000000" stroke-width="2" /></svg>