<?xml version='1.0' encoding='utf-8'?>
<svg xmlns="http://www.w3.org/2000/svg" height="100px" version="1.0" viewBox="0 0 100 100" width="100px" x="0px" y="0px">
<line fill="none" stroke="#000000" stroke-width="2" x1="10.5" x2="45" y1="86" y2="86" /><line fill="none" stroke="#000000" stroke-width="2" x1="10.5" x2="45" y1="70" y2="70" /><line fill="none" stroke="#000000" stroke-width="2" x1="6" x2="48.5" y1="11" y2="11" /><polyline fill="none" points="46,93 46,28 9.5,28 9.5,93" stroke="#000000" stroke-width="2" /><path d="M22.5,11 v17.0 c0,21.968 -1.558,25.633 -10,34" fill="none" stroke="#000000" stroke-width="2" /><path d="M33,11 v37.0 c0,5.49 0.593,6 4.5,6 h8.5" fill="none" stroke="#000000" stroke-width="2" /><path d="M76,63 c-4.463,-8.851 -10.309,-18.39 -16,-26" fill="none" stroke="#000000" stroke-width="2" /><path d="M49,43 c6.244,-10.258 11.622,-24.816 14,-38" fill="none" stroke="#000000" stroke-width="2" /><path d="M59.5,18 h33.0 c-1.842,65.929 -4.283,72 -9.5,72 c-4.136,0 -10.908,-0.34 -18,-1" fill="none" stroke="#000000" stroke-width="2" /></svg>