<?xml version='1.0' encoding='utf-8'?>
<svg xmlns="http://www.w3.org/2000/svg" height="100px" version="1.0" viewBox="0 0 100 100" width="100px" x="0px" y="0px">
<line fill="none" stroke="#000000" stroke-width="2" x1="10" x2="41" y1="86" y2="86" /><line fill="none" stroke="#000000" stroke-width="2" x1="10" x2="41" y1="70" y2="70" /><line fill="none" stroke="#000000" stroke-width="2" x1="5.5" x2="44.5" y1="11" y2="11" /><line fill="none" stroke="#000000" stroke-width="2" x1="64.5" x2="92.5" y1="14" y2="14" /><line fill="none" stroke="#000000" stroke-width="2" x1="58" x2="58" y1="55" y2="93" /><polyline fill="none" points="42,93 42,28 9,28 9,93" stroke="#000000" stroke-width="2" /><polyline fill="none" points="92,93 92,55 58,55" stroke="#000000" stroke-width="2" /><path d="M20.5,12 v17.0 c0,20.538 -1.387,24.464 -10,33" fill="none" stroke="#000000" stroke-width="2" /><path d="M30,12 v36.0 c0,5.49 0.593,6 4.5,6 h6.5" fill="none" stroke="#000000" stroke-width="2" /><path d="M75.5,41.5 c-4.456,-5.155 -10.178,-11.064 -15.5,-16" fill="none" stroke="#000000" stroke-width="2" /><path d="M47,30.5 c11.486,-8.076 18.395,-16.178 23.5,-26.5" fill="none" stroke="#000000" stroke-width="2" /><path d="M59,86 h32.0 H59.0 z" fill="none" stroke="#000000" stroke-width="2" /><path d="M91.528,14.764 C87.107,32.982 68.203,52.465 45.5,61" fill="none" stroke="#000000" stroke-width="2" /></svg>