<?xml version='1.0' encoding='utf-8'?>
<svg xmlns="http://www.w3.org/2000/svg" height="100px" version="1.0" viewBox="0 0 100 100" width="100px" x="0px" y="0px">
<line fill="none" stroke="#000000" stroke-width="2" x1="91.5" x2="91.5" y1="9" y2="92" /><line fill="none" stroke="#000000" stroke-width="2" x1="74" x2="74" y1="11" y2="87" /><line fill="none" stroke="#000000" stroke-width="2" x1="9.5" x2="38.5" y1="86" y2="86" /><line fill="none" stroke="#000000" stroke-width="2" x1="9.5" x2="38.5" y1="70" y2="70" /><line fill="none" stroke="#000000" stroke-width="2" x1="5" x2="42.5" y1="11" y2="11" /><polyline fill="none" points="39.5,93 39.5,28 8.5,28 8.5,93" stroke="#000000" stroke-width="2" /><path d="M44.5,92.5 c7.421,-8.653 12,-23.456 12,-46.5 v-37.0" fill="none" stroke="#000000" stroke-width="2" /><path d="M43.5,59.5 c3.402,-9.286 5.666,-19.372 6.5,-29" fill="none" stroke="#000000" stroke-width="2" /><path d="M86,56.5 c-1.129,-7.636 -3.655,-17.88 -6.5,-26" fill="none" stroke="#000000" stroke-width="2" /><path d="M68.5,56.5 c-1.129,-7.636 -3.655,-17.88 -6.5,-26" fill="none" stroke="#000000" stroke-width="2" /><path d="M19,12 v17.0 c0,21.329 -1.225,24.875 -9,33" fill="none" stroke="#000000" stroke-width="2" /><path d="M28.5,12 v34.0 c0,5.49 0.633,6 5,6 h5.0" fill="none" stroke="#000000" stroke-width="2" /></svg>