<?xml version='1.0' encoding='utf-8'?>
<svg xmlns="http://www.w3.org/2000/svg" height="100px" version="1.0" viewBox="0 0 100 100" width="100px" x="0px" y="0px">
<line fill="none" stroke="#000000" stroke-width="2" x1="10" x2="41" y1="70" y2="70" /><line fill="none" stroke="#000000" stroke-width="2" x1="5.5" x2="45" y1="11" y2="11" /><line fill="none" stroke="#000000" stroke-width="2" x1="52.5" x2="89" y1="86" y2="86" /><line fill="none" stroke="#000000" stroke-width="2" x1="95" x2="45.5" y1="45" y2="45" /><line fill="none" stroke="#000000" stroke-width="2" x1="55.5" x2="93" y1="18.5" y2="18.5" /><line fill="none" stroke="#000000" stroke-width="2" x1="72.5" x2="72.5" y1="45" y2="5.5" /><polyline fill="none" points="10,86 42,86 42,28 9,28 9,93" stroke="#000000" stroke-width="2" /><polyline fill="none" points="51.5,93 51.5,57 90,57 90,93" stroke="#000000" stroke-width="2" /><path d="M20.5,12 v17.0 c0,20.538 -1.387,24.464 -10,33" fill="none" stroke="#000000" stroke-width="2" /><path d="M30,12 v36.0 c0,5.49 0.593,6 4.5,6 h6.5" fill="none" stroke="#000000" stroke-width="2" /><path d="M47,37.5 c5.184,-8.544 9.47,-19.37 12,-31" fill="none" stroke="#000000" stroke-width="2" /></svg>