<?xml version='1.0' encoding='utf-8'?>
<svg xmlns="http://www.w3.org/2000/svg" height="100px" version="1.0" viewBox="0 0 100 100" width="100px" x="0px" y="0px">
<line fill="none" stroke="#000000" stroke-width="2" x1="10" x2="41" y1="70" y2="70" /><line fill="none" stroke="#000000" stroke-width="2" x1="5.5" x2="44.5" y1="11" y2="11" /><line fill="none" stroke="#000000" stroke-width="2" x1="50.5" x2="90.5" y1="26" y2="26" /><line fill="none" stroke="#000000" stroke-width="2" x1="45" x2="96" y1="89" y2="89" /><line fill="none" stroke="#000000" stroke-width="2" x1="94" x2="52" y1="57" y2="57" /><line fill="none" stroke="#000000" stroke-width="2" x1="92" x2="52" y1="71.5" y2="71.5" /><line fill="none" stroke="#000000" stroke-width="2" x1="71.5" x2="71.5" y1="89" y2="47" /><polyline fill="none" points="10,86 42,86 42,28 9,28 9,93" stroke="#000000" stroke-width="2" /><polyline fill="none" points="50.5,43 91.5,43 91.5,10.5 49.5,10.5 49.5,44" stroke="#000000" stroke-width="2" /><path d="M20.5,12 v17.0 c0,20.538 -1.387,24.464 -10,33" fill="none" stroke="#000000" stroke-width="2" /><path d="M30,12 v36.0 c0,5.49 0.593,6 4.5,6 h6.5" fill="none" stroke="#000000" stroke-width="2" /><path d="M45,73.5 c4.094,-7.029 7.445,-15.966 9.5,-25.5" fill="none" stroke="#000000" stroke-width="2" /></svg>