<?xml version='1.0' encoding='utf-8'?>
<svg xmlns="http://www.w3.org/2000/svg" height="100px" version="1.0" viewBox="0 0 100 100" width="100px" x="0px" y="0px">
<line fill="none" stroke="#000000" stroke-width="2" x1="7.5" x2="92.5" y1="89.5" y2="89.5" /><line fill="none" stroke="#000000" stroke-width="2" x1="89.5" x2="10.5" y1="64.5" y2="64.5" /><line fill="none" stroke="#000000" stroke-width="2" x1="79" x2="21" y1="48.5" y2="48.5" /><line fill="none" stroke="#000000" stroke-width="2" x1="50" x2="50" y1="89.5" y2="48.5" /><path d="M34.5,89.5 c-3.699,-6.86 -7.859,-13.401 -12,-19" fill="none" stroke="#000000" stroke-width="2" /><path d="M65,89.5 c4.654,-6.366 8.771,-12.929 12,-19" fill="none" stroke="#000000" stroke-width="2" /><path d="M5.5,45.5 c33.916,-4.87 50.558,-12.326 65,-26" fill="none" stroke="#000000" stroke-width="2" /><path d="M41,7.5 c-7.707,5.88 -18.886,11.383 -34,16" fill="none" stroke="#000000" stroke-width="2" /><path d="M93,23.5 c-9.726,-5.33 -22.142,-10.97 -36,-16" fill="none" stroke="#000000" stroke-width="2" /><path d="M94.5,45.5 c-33.916,-4.87 -50.559,-12.326 -65,-26" fill="none" stroke="#000000" stroke-width="2" /></svg>