<?xml version='1.0' encoding='utf-8'?>
<svg xmlns="http://www.w3.org/2000/svg" height="100px" version="1.0" viewBox="0 0 100 100" width="100px" x="0px" y="0px">
<line fill="none" stroke="#000000" stroke-width="2" x1="45.5" x2="6.5" y1="47" y2="47" /><line fill="none" stroke="#000000" stroke-width="2" x1="43.5" x2="11.5" y1="28" y2="28" /><line fill="none" stroke="#000000" stroke-width="2" x1="27" x2="27" y1="84.5" y2="28" /><line fill="none" stroke="#000000" stroke-width="2" x1="64.5" x2="92.5" y1="14" y2="14" /><line fill="none" stroke="#000000" stroke-width="2" x1="58" x2="58" y1="55" y2="93" /><polyline fill="none" points="92,93 92,55 58,55" stroke="#000000" stroke-width="2" /><path d="M5.5,89.5 c15.053,-2.877 27.354,-6.513 41,-12" fill="none" stroke="#000000" stroke-width="2" /><path d="M47,23 c-7.589,-4.952 -13.869,-10.14 -20,-16.5 c-6.849,8.159 -14.079,15.12 -22.5,21.5" fill="none" stroke="#000000" stroke-width="2" /><path d="M17.5,76 c-2.387,-7.582 -4.948,-14.762 -7.5,-21" fill="none" stroke="#000000" stroke-width="2" /><path d="M36.5,73 c2.857,-6.433 5.416,-12.93 7.5,-19" fill="none" stroke="#000000" stroke-width="2" /><path d="M75.5,41.5 c-4.456,-5.155 -10.178,-11.064 -15.5,-16" fill="none" stroke="#000000" stroke-width="2" /><path d="M47,30.5 c11.486,-8.076 18.395,-16.178 23.5,-26.5" fill="none" stroke="#000000" stroke-width="2" /><path d="M59,86 h32.0 H59.0 z" fill="none" stroke="#000000" stroke-width="2" /><path d="M91.528,14.764 C87.107,32.982 68.203,52.465 45.5,61" fill="none" stroke="#000000" stroke-width="2" /></svg>