<?xml version='1.0' encoding='utf-8'?>
<svg xmlns="http://www.w3.org/2000/svg" height="100px" version="1.0" viewBox="0 0 100 100" width="100px" x="0px" y="0px">
<line fill="none" stroke="#000000" stroke-width="2" x1="38.5" x2="5" y1="47" y2="47" /><line fill="none" stroke="#000000" stroke-width="2" x1="36.5" x2="9.5" y1="28" y2="28" /><line fill="none" stroke="#000000" stroke-width="2" x1="23" x2="23" y1="84.5" y2="28" /><line fill="none" stroke="#000000" stroke-width="2" x1="41" x2="97" y1="76.5" y2="76.5" /><line fill="none" stroke="#000000" stroke-width="2" x1="94.5" x2="43.5" y1="48.5" y2="48.5" /><line fill="none" stroke="#000000" stroke-width="2" x1="92.5" x2="45.5" y1="62.5" y2="62.5" /><line fill="none" stroke="#000000" stroke-width="2" x1="70" x2="70" y1="94" y2="37" /><line fill="none" stroke="#000000" stroke-width="2" x1="56.5" x2="92.5" y1="12.5" y2="12.5" /><path d="M4,89.5 c12.85,-2.638 23.35,-5.97 35,-11" fill="none" stroke="#000000" stroke-width="2" /><path d="M41,23 c-6.785,-4.952 -12.493,-10.167 -18,-16.5 c-6.123,8.159 -12.523,15.052 -20,21.5" fill="none" stroke="#000000" stroke-width="2" /><path d="M16,76 c-2.387,-7.582 -4.948,-14.762 -7.5,-21" fill="none" stroke="#000000" stroke-width="2" /><path d="M29.5,73 c2.857,-6.433 5.416,-12.93 7.5,-19" fill="none" stroke="#000000" stroke-width="2" /><path d="M40.5,27.5 c9.232,-6.806 16.323,-14.327 21.5,-22.5" fill="none" stroke="#000000" stroke-width="2" /><path d="M91.682,12.924 c-9.255,13.152 -25.496,23.568 -51.682,30.576" fill="none" stroke="#000000" stroke-width="2" /><path d="M53,16.5 c11.087,11.095 25.59,20.001 44.5,27" fill="none" stroke="#000000" stroke-width="2" /></svg>