<?xml version='1.0' encoding='utf-8'?>
<svg xmlns="http://www.w3.org/2000/svg" height="100px" version="1.0" viewBox="0 0 100 100" width="100px" x="0px" y="0px">
<line fill="none" stroke="#000000" stroke-width="2" x1="38.5" x2="5" y1="47" y2="47" /><line fill="none" stroke="#000000" stroke-width="2" x1="36.5" x2="9.5" y1="28" y2="28" /><line fill="none" stroke="#000000" stroke-width="2" x1="23" x2="23" y1="84.5" y2="28" /><line fill="none" stroke="#000000" stroke-width="2" x1="43" x2="91" y1="66.5" y2="66.5" /><line fill="none" stroke="#000000" stroke-width="2" x1="43" x2="91" y1="46.5" y2="46.5" /><line fill="none" stroke="#000000" stroke-width="2" x1="67.5" x2="67.5" y1="5" y2="91" /><line fill="none" stroke="#000000" stroke-width="2" x1="39" x2="96" y1="15" y2="15" /><path d="M4,89.5 c12.85,-2.638 23.35,-5.97 35,-11" fill="none" stroke="#000000" stroke-width="2" /><path d="M41,23 c-6.785,-4.952 -12.493,-10.167 -18,-16.5 c-6.123,8.159 -12.523,15.052 -20,21.5" fill="none" stroke="#000000" stroke-width="2" /><path d="M16,76 c-2.387,-7.582 -4.948,-14.762 -7.5,-21" fill="none" stroke="#000000" stroke-width="2" /><path d="M29.5,73 c2.857,-6.433 5.416,-12.93 7.5,-19" fill="none" stroke="#000000" stroke-width="2" /><path d="M76.5,4.5 c4.902,2.214 10.408,4.978 15,7.5" fill="none" stroke="#000000" stroke-width="2" /><path d="M43,93 v-64.5 h49.0 v55.0 c0,7.222 -0.578,8 -4.5,8 c-1.515,0 -5.755,-0.18 -10.5,-0.5" fill="none" stroke="#000000" stroke-width="2" /></svg>