<?xml version='1.0' encoding='utf-8'?>
<svg xmlns="http://www.w3.org/2000/svg" height="100px" version="1.0" viewBox="0 0 100 100" width="100px" x="0px" y="0px">
<line fill="none" stroke="#000000" stroke-width="2" x1="46" x2="96.5" y1="43" y2="43" /><line fill="none" stroke="#000000" stroke-width="2" x1="71.5" x2="71.5" y1="60" y2="27.5" /><line fill="none" stroke="#000000" stroke-width="2" x1="52.5" x2="91.5" y1="86.5" y2="86.5" /><line fill="none" stroke="#000000" stroke-width="2" x1="40" x2="5" y1="47" y2="47" /><line fill="none" stroke="#000000" stroke-width="2" x1="36.5" x2="9.5" y1="28" y2="28" /><line fill="none" stroke="#000000" stroke-width="2" x1="23" x2="23" y1="84.5" y2="28" /><polyline fill="none" points="47,10 92.5,10 92.5,27.5 46,27.5" stroke="#000000" stroke-width="2" /><polyline fill="none" points="91.5,93.5 91.5,60 51.5,60 51.5,93.5" stroke="#000000" stroke-width="2" /><path d="M37,91 c6.048,-14.052 9,-29.832 9,-51 v-31.0" fill="none" stroke="#000000" stroke-width="2" /><path d="M4,89.5 c12.85,-2.638 23.35,-5.97 35,-11" fill="none" stroke="#000000" stroke-width="2" /><path d="M41,23 c-6.785,-4.952 -12.493,-10.167 -18,-16.5 c-6.123,8.159 -12.523,15.052 -20,21.5" fill="none" stroke="#000000" stroke-width="2" /><path d="M16,76 c-2.387,-7.582 -4.948,-14.762 -7.5,-21" fill="none" stroke="#000000" stroke-width="2" /><path d="M29.5,73 c2.857,-6.433 5.416,-12.93 7.5,-19" fill="none" stroke="#000000" stroke-width="2" /></svg>