<?xml version='1.0' encoding='utf-8'?>
<svg xmlns="http://www.w3.org/2000/svg" height="100px" version="1.0" viewBox="0 0 100 100" width="100px" x="0px" y="0px">
<line fill="none" stroke="#000000" stroke-width="2" x1="49" x2="90" y1="25.5" y2="25.5" /><line fill="none" stroke="#000000" stroke-width="2" x1="41.5" x2="6" y1="47" y2="47" /><line fill="none" stroke="#000000" stroke-width="2" x1="40.5" x2="10.5" y1="28" y2="28" /><line fill="none" stroke="#000000" stroke-width="2" x1="24.5" x2="24.5" y1="84.5" y2="28" /><polyline fill="none" points="49,42 91,42 91,10 48,10 48,43" stroke="#000000" stroke-width="2" /><path d="M57,93 c11.66,-7.62 24.551,-24.523 29,-38" fill="none" stroke="#000000" stroke-width="2" /><path d="M44.5,84.5 c10.448,-7.481 21.67,-20.066 26.5,-29.5" fill="none" stroke="#000000" stroke-width="2" /><path d="M42.5,67 c8.756,-6.55 16.955,-16.421 21,-25" fill="none" stroke="#000000" stroke-width="2" /><path d="M55,55 h38.0 c0,28.927 -3.691,36 -8.5,36 c-3.276,0 -7.634,-0.163 -12,-0.5" fill="none" stroke="#000000" stroke-width="2" /><path d="M5,89.5 c13.584,-2.877 24.686,-6.513 37,-12" fill="none" stroke="#000000" stroke-width="2" /><path d="M44,23 c-7.143,-4.952 -13.203,-10.167 -19,-16.5 c-6.445,8.159 -13.143,15.038 -21,21.5" fill="none" stroke="#000000" stroke-width="2" /><path d="M17,76 c-2.387,-7.582 -4.948,-14.762 -7.5,-21" fill="none" stroke="#000000" stroke-width="2" /><path d="M32.5,73 c2.857,-6.433 5.416,-12.93 7.5,-19" fill="none" stroke="#000000" stroke-width="2" /></svg>