<?xml version='1.0' encoding='utf-8'?>
<svg xmlns="http://www.w3.org/2000/svg" height="100px" version="1.0" viewBox="0 0 100 100" width="100px" x="0px" y="0px">
<line fill="none" stroke="#000000" stroke-width="2" x1="38.5" x2="5" y1="47" y2="47" /><line fill="none" stroke="#000000" stroke-width="2" x1="36.5" x2="9.5" y1="28" y2="28" /><line fill="none" stroke="#000000" stroke-width="2" x1="23" x2="23" y1="84.5" y2="28" /><line fill="none" stroke="#000000" stroke-width="2" x1="66.5" x2="93.5" y1="48" y2="48" /><line fill="none" stroke="#000000" stroke-width="2" x1="64" x2="44.5" y1="50" y2="50" /><line fill="none" stroke="#000000" stroke-width="2" x1="64" x2="44.5" y1="30.5" y2="30.5" /><path d="M4,89.5 c12.85,-2.638 23.35,-5.97 35,-11" fill="none" stroke="#000000" stroke-width="2" /><path d="M41,23 c-6.785,-4.952 -12.493,-10.167 -18,-16.5 c-6.123,8.159 -12.523,15.052 -20,21.5" fill="none" stroke="#000000" stroke-width="2" /><path d="M16,76 c-2.387,-7.582 -4.948,-14.762 -7.5,-21" fill="none" stroke="#000000" stroke-width="2" /><path d="M29.5,73 c2.857,-6.433 5.416,-12.93 7.5,-19" fill="none" stroke="#000000" stroke-width="2" /><path d="M63,42.5 c5.474,-5.487 7.5,-11.468 7.5,-26 v-6.5 h16.5 v26.5 c0,2.646 0.426,3 3,3 c6.129,0 6.252,-0.124 7,-13.5" fill="none" stroke="#000000" stroke-width="2" /><path d="M57,91 c18.346,-8.799 28.67,-20.915 35.548,-42.307" fill="none" stroke="#000000" stroke-width="2" /><path d="M97.5,91 c-13.271,-9.575 -23.652,-22.547 -30,-37.5" fill="none" stroke="#000000" stroke-width="2" /><path d="M65.5,7 c-7.173,3.999 -14.178,6.982 -21,9 v78.0" fill="none" stroke="#000000" stroke-width="2" /><path d="M65.5,64.5 c-10.042,4.077 -19.38,6.983 -29,9" fill="none" stroke="#000000" stroke-width="2" /></svg>