<?xml version='1.0' encoding='utf-8'?>
<svg xmlns="http://www.w3.org/2000/svg" height="100px" version="1.0" viewBox="0 0 100 100" width="100px" x="0px" y="0px">
<line fill="none" stroke="#000000" stroke-width="2" x1="69" x2="69" y1="29" y2="5" /><line fill="none" stroke="#000000" stroke-width="2" x1="48" x2="90" y1="57.5" y2="57.5" /><line fill="none" stroke="#000000" stroke-width="2" x1="48" x2="90" y1="43" y2="43" /><line fill="none" stroke="#000000" stroke-width="2" x1="42" x2="5.5" y1="47" y2="47" /><line fill="none" stroke="#000000" stroke-width="2" x1="40" x2="10" y1="28" y2="28" /><line fill="none" stroke="#000000" stroke-width="2" x1="24" x2="24" y1="84.5" y2="28" /><polyline fill="none" points="48,72.5 91,72.5 91,29 47,29 47,73.5" stroke="#000000" stroke-width="2" /><path d="M39.5,92 c10.112,-4.104 18.848,-9.762 24,-15" fill="none" stroke="#000000" stroke-width="2" /><path d="M96.5,93 c-6.191,-5.194 -14.742,-10.763 -24,-15.5" fill="none" stroke="#000000" stroke-width="2" /><path d="M4.5,89.5 c14.318,-2.877 26.02,-6.513 39,-12" fill="none" stroke="#000000" stroke-width="2" /><path d="M43.5,23 c-7.143,-4.952 -13.203,-10.167 -19,-16.5 c-6.445,8.159 -13.143,15.038 -21,21.5" fill="none" stroke="#000000" stroke-width="2" /><path d="M16.5,76 c-2.387,-7.582 -4.948,-14.762 -7.5,-21" fill="none" stroke="#000000" stroke-width="2" /><path d="M32,73 c2.857,-6.433 5.416,-12.93 7.5,-19" fill="none" stroke="#000000" stroke-width="2" /><path d="M55,25 c-3.004,-6.067 -6.523,-12.044 -10,-17" fill="none" stroke="#000000" stroke-width="2" /><path d="M83,25 c4.066,-5.327 7.727,-11.564 10,-17" fill="none" stroke="#000000" stroke-width="2" /></svg>