<?xml version='1.0' encoding='utf-8'?>
<svg xmlns="http://www.w3.org/2000/svg" height="100px" version="1.0" viewBox="0 0 100 100" width="100px" x="0px" y="0px">
<line fill="none" stroke="#000000" stroke-width="2" x1="38.5" x2="5" y1="47" y2="47" /><line fill="none" stroke="#000000" stroke-width="2" x1="36.5" x2="9.5" y1="28" y2="28" /><line fill="none" stroke="#000000" stroke-width="2" x1="23" x2="23" y1="84.5" y2="28" /><line fill="none" stroke="#000000" stroke-width="2" x1="48" x2="91" y1="41" y2="41" /><line fill="none" stroke="#000000" stroke-width="2" x1="57.5" x2="80.5" y1="18.5" y2="18.5" /><line fill="none" stroke="#000000" stroke-width="2" x1="93" x2="93" y1="94" y2="66" /><line fill="none" stroke="#000000" stroke-width="2" x1="48.5" x2="93" y1="88" y2="88" /><polyline fill="none" points="92,67 48.5,67 48.5,94" stroke="#000000" stroke-width="2" /><path d="M4,89.5 c12.85,-2.638 23.35,-5.97 35,-11" fill="none" stroke="#000000" stroke-width="2" /><path d="M41,23 c-6.785,-4.952 -12.493,-10.167 -18,-16.5 c-6.123,8.159 -12.523,15.052 -20,21.5" fill="none" stroke="#000000" stroke-width="2" /><path d="M16,76 c-2.387,-7.582 -4.948,-14.762 -7.5,-21" fill="none" stroke="#000000" stroke-width="2" /><path d="M29.5,73 c2.857,-6.433 5.416,-12.93 7.5,-19" fill="none" stroke="#000000" stroke-width="2" /><path d="M98,28 c-11.041,-6.879 -20.256,-14.302 -29,-23.3 c-8.743,8.998 -17.959,16.421 -29,23.3" fill="none" stroke="#000000" stroke-width="2" /><path d="M35,91 c7.922,-10.277 12,-23.917 12,-47 v-17.0 h44.0 v29.0 h-44.5" fill="none" stroke="#000000" stroke-width="2" /></svg>