<?xml version='1.0' encoding='utf-8'?>
<svg xmlns="http://www.w3.org/2000/svg" height="100px" version="1.0" viewBox="0 0 100 100" width="100px" x="0px" y="0px">
<line fill="none" stroke="#000000" stroke-width="2" x1="34" x2="5" y1="47" y2="47" /><line fill="none" stroke="#000000" stroke-width="2" x1="33" x2="9" y1="28" y2="28" /><line fill="none" stroke="#000000" stroke-width="2" x1="21" x2="21" y1="84.5" y2="28" /><line fill="none" stroke="#000000" stroke-width="2" x1="52" x2="52" y1="11.5" y2="25" /><line fill="none" stroke="#000000" stroke-width="2" x1="52" x2="52" y1="40" y2="53.5" /><line fill="none" stroke="#000000" stroke-width="2" x1="37.5" x2="64.5" y1="54.5" y2="54.5" /><line fill="none" stroke="#000000" stroke-width="2" x1="67" x2="95" y1="11" y2="11" /><line fill="none" stroke="#000000" stroke-width="2" x1="34" x2="96" y1="89" y2="89" /><line fill="none" stroke="#000000" stroke-width="2" x1="91.5" x2="38.5" y1="69" y2="69" /><line fill="none" stroke="#000000" stroke-width="2" x1="65" x2="65" y1="89" y2="58.5" /><polyline fill="none" points="64.5,10.5 37.5,10.5 37.5,61.5" stroke="#000000" stroke-width="2" /><polyline fill="none" points="38.5,40 63.5,40 63.5,25 38.5,25" stroke="#000000" stroke-width="2" /><path d="M4.5,89.5 c11.376,-2.657 20.682,-5.97 31,-11" fill="none" stroke="#000000" stroke-width="2" /><path d="M36.5,23 c-5.84,-5.014 -10.718,-10.167 -15.5,-16.5 c-5.318,8.159 -10.951,15.108 -17.5,21.5" fill="none" stroke="#000000" stroke-width="2" /><path d="M14.5,76 c-2.068,-7.582 -4.289,-14.762 -6.5,-21" fill="none" stroke="#000000" stroke-width="2" /><path d="M26.5,73 c2.477,-6.433 4.693,-12.93 6.5,-19" fill="none" stroke="#000000" stroke-width="2" /><path d="M66.5,55 c13.588,-9.565 22.246,-22.784 27.531,-43.25" fill="none" stroke="#000000" stroke-width="2" /><path d="M97,58 c-11.719,-10.423 -21.472,-25.247 -27.5,-42.5" fill="none" stroke="#000000" stroke-width="2" /></svg>