<?xml version='1.0' encoding='utf-8'?>
<svg xmlns="http://www.w3.org/2000/svg" height="100px" version="1.0" viewBox="0 0 100 100" width="100px" x="0px" y="0px">
<line fill="none" stroke="#000000" stroke-width="2" x1="38.5" x2="5" y1="47" y2="47" /><line fill="none" stroke="#000000" stroke-width="2" x1="36.5" x2="9.5" y1="28" y2="28" /><line fill="none" stroke="#000000" stroke-width="2" x1="23" x2="23" y1="84.5" y2="28" /><line fill="none" stroke="#000000" stroke-width="2" x1="66.5" x2="66.5" y1="42" y2="90" /><line fill="none" stroke="#000000" stroke-width="2" x1="45" x2="88" y1="53.5" y2="53.5" /><line fill="none" stroke="#000000" stroke-width="2" x1="37" x2="96" y1="90" y2="90" /><line fill="none" stroke="#000000" stroke-width="2" x1="92.5" x2="41.5" y1="77.5" y2="77.5" /><line fill="none" stroke="#000000" stroke-width="2" x1="37.5" x2="97" y1="32.5" y2="32.5" /><line fill="none" stroke="#000000" stroke-width="2" x1="39" x2="94" y1="14.5" y2="14.5" /><line fill="none" stroke="#000000" stroke-width="2" x1="66.5" x2="66.5" y1="14.5" y2="3.5" /><polyline fill="none" points="45,66.5 89,66.5 89,41 44,41 44,67.5" stroke="#000000" stroke-width="2" /><path d="M4,89.5 c12.85,-2.638 23.35,-5.97 35,-11" fill="none" stroke="#000000" stroke-width="2" /><path d="M41,23 c-6.785,-4.952 -12.493,-10.167 -18,-16.5 c-6.123,8.159 -12.523,15.052 -20,21.5" fill="none" stroke="#000000" stroke-width="2" /><path d="M16,76 c-2.387,-7.582 -4.948,-14.762 -7.5,-21" fill="none" stroke="#000000" stroke-width="2" /><path d="M29.5,73 c2.857,-6.433 5.416,-12.93 7.5,-19" fill="none" stroke="#000000" stroke-width="2" /><path d="M75.5,32.5 c3.375,-5.101 6.121,-11.177 8,-18" fill="none" stroke="#000000" stroke-width="2" /><path d="M57,32.5 c-2.299,-6.099 -4.918,-12.048 -8,-18" fill="none" stroke="#000000" stroke-width="2" /></svg>