<?xml version='1.0' encoding='utf-8'?>
<svg xmlns="http://www.w3.org/2000/svg" height="100px" version="1.0" viewBox="0 0 100 100" width="100px" x="0px" y="0px">
<line fill="none" stroke="#000000" stroke-width="2" x1="34" x2="5" y1="47" y2="47" /><line fill="none" stroke="#000000" stroke-width="2" x1="33" x2="9" y1="28" y2="28" /><line fill="none" stroke="#000000" stroke-width="2" x1="21" x2="21" y1="84.5" y2="28" /><line fill="none" stroke="#000000" stroke-width="2" x1="36" x2="63" y1="25.5" y2="25.5" /><line fill="none" stroke="#000000" stroke-width="2" x1="65" x2="96.5" y1="25.5" y2="25.5" /><line fill="none" stroke="#000000" stroke-width="2" x1="62" x2="36.5" y1="13.5" y2="13.5" /><line fill="none" stroke="#000000" stroke-width="2" x1="94.5" x2="66" y1="13.5" y2="13.5" /><line fill="none" stroke="#000000" stroke-width="2" x1="41.5" x2="87.5" y1="64" y2="64" /><line fill="none" stroke="#000000" stroke-width="2" x1="41.5" x2="87.5" y1="52.5" y2="52.5" /><polyline fill="none" points="41.5,75.5 87.5,75.5 87.5,41 40.5,41 40.5,76.5" stroke="#000000" stroke-width="2" /><path d="M4.5,89.5 c11.376,-2.657 20.682,-5.97 31,-11" fill="none" stroke="#000000" stroke-width="2" /><path d="M36.5,23 c-5.84,-5.014 -10.718,-10.167 -15.5,-16.5 c-5.318,8.159 -10.951,15.108 -17.5,21.5" fill="none" stroke="#000000" stroke-width="2" /><path d="M14.5,76 c-2.068,-7.582 -4.289,-14.762 -6.5,-21" fill="none" stroke="#000000" stroke-width="2" /><path d="M26.5,73 c2.477,-6.433 4.693,-12.93 6.5,-19" fill="none" stroke="#000000" stroke-width="2" /><path d="M33,92 c9.715,-3.245 18.08,-7.771 23,-12" fill="none" stroke="#000000" stroke-width="2" /><path d="M95,93 c-5.922,-4.208 -14.098,-8.712 -23,-12.5" fill="none" stroke="#000000" stroke-width="2" /><path d="M33,43.5 c10.82,-7.56 16.5,-19.401 16.5,-38" fill="none" stroke="#000000" stroke-width="2" /><path d="M66,38 c10.908,-6.862 13.5,-12.041 13.5,-32.5" fill="none" stroke="#000000" stroke-width="2" /><path d="M62,38 c-3.754,-3.995 -9.377,-8.262 -15.5,-11.5" fill="none" stroke="#000000" stroke-width="2" /><path d="M97,44.5 c-8.491,-5.047 -15.178,-11.761 -19,-19" fill="none" stroke="#000000" stroke-width="2" /></svg>