<?xml version='1.0' encoding='utf-8'?>
<svg xmlns="http://www.w3.org/2000/svg" height="100px" version="1.0" viewBox="0 0 100 100" width="100px" x="0px" y="0px">
<line fill="none" stroke="#000000" stroke-width="2" x1="56" x2="89" y1="25" y2="25" /><line fill="none" stroke="#000000" stroke-width="2" x1="43" x2="11" y1="25" y2="25" /><line fill="none" stroke="#000000" stroke-width="2" x1="77" x2="23" y1="55" y2="55" /><line fill="none" stroke="#000000" stroke-width="2" x1="50" x2="50" y1="88.5" y2="45.5" /><polyline fill="none" points="10,92.5 10,10 44,10 44,41.5 11,41.5" stroke="#000000" stroke-width="2" /><path d="M69,90 c6.262,0.361 10.217,0.5 13,0.5 c7.188,0 8,-0.666 8,-8 V10.0 h-35.0 v31.5 h34.0" fill="none" stroke="#000000" stroke-width="2" /><path d="M22,83 c13.208,-9.167 21.574,-18.149 27,-28" fill="none" stroke="#000000" stroke-width="2" /><path d="M78,83 c-13.208,-9.167 -21.574,-18.149 -27,-28" fill="none" stroke="#000000" stroke-width="2" /></svg>