<?xml version='1.0' encoding='utf-8'?>
<svg xmlns="http://www.w3.org/2000/svg" height="100px" version="1.0" viewBox="0 0 100 100" width="100px" x="0px" y="0px">
<line fill="none" stroke="#000000" stroke-width="2" x1="56" x2="89" y1="24" y2="24" /><line fill="none" stroke="#000000" stroke-width="2" x1="43" x2="11" y1="24" y2="24" /><line fill="none" stroke="#000000" stroke-width="2" x1="19.5" x2="49.5" y1="47" y2="47" /><line fill="none" stroke="#000000" stroke-width="2" x1="83.5" x2="51" y1="52" y2="52" /><polyline fill="none" points="10,92.5 10,10 44,10 44,39.5 11,39.5" stroke="#000000" stroke-width="2" /><polyline fill="none" points="22,68.5 22,54.5 47,54.5 47,67.5 23,67.5" stroke="#000000" stroke-width="2" /><path d="M72,90 c5.387,0.343 9.107,0.5 11.5,0.5 c6.027,0 6.5,-0.449 6.5,-8 V10.0 h-35.0 v29.5 h34.0" fill="none" stroke="#000000" stroke-width="2" /><path d="M18.5,87.5 c11.181,-1.245 20.859,-2.702 33,-5" fill="none" stroke="#000000" stroke-width="2" /><path d="M37.5,85 c2.884,-4.197 5.316,-9.337 7,-15" fill="none" stroke="#000000" stroke-width="2" /><path d="M30,83 c-1.444,-4.114 -3.201,-8.537 -5,-12.5" fill="none" stroke="#000000" stroke-width="2" /><path d="M66.5,74 c-3.02,-4.822 -7.527,-10.508 -12,-15" fill="none" stroke="#000000" stroke-width="2" /><path d="M76,43.5 V80.0 c0,4.646 -0.344,5 -5,5 c-2.441,0 -7.692,-0.199 -12.5,-0.5" fill="none" stroke="#000000" stroke-width="2" /></svg>