<?xml version='1.0' encoding='utf-8'?>
<svg xmlns="http://www.w3.org/2000/svg" height="100px" version="1.0" viewBox="0 0 100 100" width="100px" x="0px" y="0px">
<line fill="none" stroke="#000000" stroke-width="2" x1="41" x2="87" y1="87" y2="87" /><line fill="none" stroke="#000000" stroke-width="2" x1="32" x2="96" y1="41.5" y2="41.5" /><line fill="none" stroke="#000000" stroke-width="2" x1="33" x2="95" y1="15.5" y2="15.5" /><line fill="none" stroke="#000000" stroke-width="2" x1="64" x2="64" y1="15" y2="3.5" /><polyline fill="none" points="33,10 10,10 10,93" stroke="#000000" stroke-width="2" /><polyline fill="none" points="88,93 88,55.5 40,55.5 40,93" stroke="#000000" stroke-width="2" /><path d="M14,71 h4.0 c7.789,0 11,-2.928 11,-10.5 c0,-8.302 -2.023,-13.576 -10,-23.5 c5.083,-8.09 9.91,-17.88 13.063,-26.349" fill="none" stroke="#000000" stroke-width="2" /><path d="M75.5,41.5 c3.418,-7.409 6.219,-16.329 8,-26" fill="none" stroke="#000000" stroke-width="2" /><path d="M51.5,41.5 c-2.117,-8.986 -4.596,-17.603 -7.5,-26" fill="none" stroke="#000000" stroke-width="2" /></svg>