<?xml version='1.0' encoding='utf-8'?>
<svg xmlns="http://www.w3.org/2000/svg" height="100px" version="1.0" viewBox="0 0 100 100" width="100px" x="0px" y="0px">
<line fill="none" stroke="#000000" stroke-width="2" x1="39.667" x2="39.667" y1="54.833" y2="83.833" /><line fill="none" stroke="#000000" stroke-width="2" x1="58.167" x2="58.167" y1="27.833" y2="74.333" /><line fill="none" stroke="#000000" stroke-width="2" x1="78.167" x2="44.167" y1="27.833" y2="27.833" /><line fill="none" stroke="#000000" stroke-width="2" x1="82.167" x2="34.167" y1="47.833" y2="47.833" /><polyline fill="none" points="31.5,10 8.5,10 8.5,94" stroke="#000000" stroke-width="2" /><polyline fill="none" points="39.667,74.333 76.667,74.333 76.667,54.833" stroke="#000000" stroke-width="2" /><path d="M12.5,71 h4.0 c7.789,0 11,-2.928 11,-10.5 c0,-8.302 -2.023,-13.576 -10,-23.5 c5.083,-8.09 9.91,-17.88 13.063,-26.349" fill="none" stroke="#000000" stroke-width="2" /><path d="M25,38.5 c7.912,-8.975 14.637,-21.538 18,-34" fill="none" stroke="#000000" stroke-width="2" /><path d="M39.5,15 h53.5 c-1.854,69.393 -4.388,75 -11.5,75 c-4.824,0 -12.727,-0.34 -21,-1" fill="none" stroke="#000000" stroke-width="2" /><path d="M36.5,42 c4.75,-6.478 8.643,-14.69 11,-23.5" fill="none" stroke="#000000" stroke-width="2" /></svg>