<?xml version='1.0' encoding='utf-8'?>
<svg xmlns="http://www.w3.org/2000/svg" height="100px" version="1.0" viewBox="0 0 100 100" width="100px" x="0px" y="0px">
<line fill="none" stroke="#000000" stroke-width="2" x1="95" x2="43.5" y1="14" y2="14" /><line fill="none" stroke="#000000" stroke-width="2" x1="56" x2="56" y1="83.5" y2="30" /><line fill="none" stroke="#000000" stroke-width="2" x1="56" x2="90.5" y1="63" y2="63" /><line fill="none" stroke="#000000" stroke-width="2" x1="57" x2="90.5" y1="46.5" y2="46.5" /><polyline fill="none" points="31,10 8.5,10 8.5,93" stroke="#000000" stroke-width="2" /><polyline fill="none" points="39.5,76 39.5,45 26.5,45" stroke="#000000" stroke-width="2" /><path d="M12.5,71 h3.5 c7.789,0 11,-2.928 11,-10.5 c0,-8.302 -2.023,-13.576 -10,-23.5 c5.083,-8.09 9.91,-17.88 13.063,-26.349" fill="none" stroke="#000000" stroke-width="2" /><path d="M43,50 c11.053,-12.992 16.618,-24.85 21,-46" fill="none" stroke="#000000" stroke-width="2" /><path d="M34,10 c3.578,5.621 6.631,10.771 10,17" fill="none" stroke="#000000" stroke-width="2" /><path d="M23,92 c7.718,-5.621 12.982,-11.157 16.5,-17" fill="none" stroke="#000000" stroke-width="2" /><path d="M95,90 h-27.0 c-16.574,0 -23.794,-3.743 -28.5,-15" fill="none" stroke="#000000" stroke-width="2" /><path d="M56.095,30 h34.405 v47.5 c0,3.927 -0.687,4.5 -6,4.5 c-1.906,0 -4.987,-0.129 -10.5,-0.5" fill="none" stroke="#000000" stroke-width="2" /></svg>