<?xml version='1.0' encoding='utf-8'?>
<svg xmlns="http://www.w3.org/2000/svg" height="100px" version="1.0" viewBox="0 0 100 100" width="100px" x="0px" y="0px">
<line fill="none" stroke="#000000" stroke-width="2" x1="48.5" x2="48.5" y1="20.5" y2="94" /><line fill="none" stroke="#000000" stroke-width="2" x1="94" x2="49" y1="20" y2="20" /><line fill="none" stroke="#000000" stroke-width="2" x1="72.5" x2="72.5" y1="87" y2="20" /><line fill="none" stroke="#000000" stroke-width="2" x1="49.5" x2="95.5" y1="87" y2="87" /><line fill="none" stroke="#000000" stroke-width="2" x1="48.5" x2="92" y1="64" y2="64" /><line fill="none" stroke="#000000" stroke-width="2" x1="48.5" x2="92" y1="41.5" y2="41.5" /><line fill="none" stroke="#000000" stroke-width="2" x1="43" x2="4.5" y1="21" y2="21" /><path d="M39,33.5 c7.322,-7.635 12.523,-17.039 16,-29.5" fill="none" stroke="#000000" stroke-width="2" /><path d="M80,4 c-2.172,5.901 -4.801,11.103 -8,16" fill="none" stroke="#000000" stroke-width="2" /><path d="M4.5,89.5 c8.258,-17.592 13.537,-43.531 15,-85" fill="none" stroke="#000000" stroke-width="2" /><path d="M44,89.5 c-2.395,-11.299 -5.904,-25.517 -9,-36.5" fill="none" stroke="#000000" stroke-width="2" /><path d="M11,86.5 c9.469,-0.889 20.115,-3.663 30.5,-8" fill="none" stroke="#000000" stroke-width="2" /><path d="M18,85.5 c3.668,-15.126 7.333,-33.655 10.5,-53" fill="none" stroke="#000000" stroke-width="2" /></svg>