<?xml version='1.0' encoding='utf-8'?>
<svg xmlns="http://www.w3.org/2000/svg" height="100px" version="1.0" viewBox="0 0 100 100" width="100px" x="0px" y="0px">
<line fill="none" stroke="#000000" stroke-width="2" x1="17" x2="28" y1="40" y2="40" /><line fill="none" stroke="#000000" stroke-width="2" x1="17" x2="17" y1="85.5" y2="6.5" /><line fill="none" stroke="#000000" stroke-width="2" x1="7.5" x2="7.5" y1="90" y2="24.5" /><line fill="none" stroke="#000000" stroke-width="2" x1="53.5" x2="53.5" y1="20.5" y2="94" /><line fill="none" stroke="#000000" stroke-width="2" x1="96" x2="54" y1="20" y2="20" /><line fill="none" stroke="#000000" stroke-width="2" x1="76" x2="76" y1="87" y2="20" /><line fill="none" stroke="#000000" stroke-width="2" x1="54.5" x2="97.5" y1="87" y2="87" /><line fill="none" stroke="#000000" stroke-width="2" x1="53.5" x2="94.5" y1="64" y2="64" /><line fill="none" stroke="#000000" stroke-width="2" x1="53.5" x2="94.5" y1="41.5" y2="41.5" /><path d="M31.5,6.5 v73.0 c0,7.742 0.328,8 6,8 c7.133,0 7.44,-0.271 8,-29" fill="none" stroke="#000000" stroke-width="2" /><path d="M31.5,44 c5.102,-5.51 9.706,-12.623 15,-24" fill="none" stroke="#000000" stroke-width="2" /><path d="M1.5,92.5 c8.863,-3.204 16.499,-6.995 26,-13" fill="none" stroke="#000000" stroke-width="2" /><path d="M42,44.5 c6.809,-10.517 11.74,-23.392 15,-40.5" fill="none" stroke="#000000" stroke-width="2" /><path d="M81,4 c-1.357,5.901 -3,11.103 -5,16" fill="none" stroke="#000000" stroke-width="2" /></svg>