<?xml version='1.0' encoding='utf-8'?>
<svg xmlns="http://www.w3.org/2000/svg" height="100px" version="1.0" viewBox="0 0 100 100" width="100px" x="0px" y="0px">
<line fill="none" stroke="#000000" stroke-width="2" x1="50.5" x2="16" y1="16" y2="16" /><line fill="none" stroke="#000000" stroke-width="2" x1="33.5" x2="33.5" y1="49.5" y2="16" /><line fill="none" stroke="#000000" stroke-width="2" x1="15.5" x2="48" y1="39" y2="39" /><line fill="none" stroke="#000000" stroke-width="2" x1="15.5" x2="48" y1="27.5" y2="27.5" /><line fill="none" stroke="#000000" stroke-width="2" x1="12" x2="85" y1="60" y2="60" /><line fill="none" stroke="#000000" stroke-width="2" x1="91" x2="56.5" y1="16" y2="16" /><line fill="none" stroke="#000000" stroke-width="2" x1="74" x2="74" y1="49.5" y2="16" /><line fill="none" stroke="#000000" stroke-width="2" x1="56" x2="88.5" y1="39" y2="39" /><line fill="none" stroke="#000000" stroke-width="2" x1="56" x2="88.5" y1="27.5" y2="27.5" /><polyline fill="none" points="15.5,16.5 15.5,50.5 51.5,50.5" stroke="#000000" stroke-width="2" /><polyline fill="none" points="56,16.5 56,50.5 92,50.5" stroke="#000000" stroke-width="2" /><path d="M7,33.5 c4.982,-7.514 8.592,-16.597 11,-28.5" fill="none" stroke="#000000" stroke-width="2" /><path d="M37.5,5 c-1.058,3.983 -2.375,7.581 -4,11" fill="none" stroke="#000000" stroke-width="2" /><path d="M8,91.5 c40.449,-5.293 63.839,-16.102 76.229,-31.136" fill="none" stroke="#000000" stroke-width="2" /><path d="M92,91.5 c-30.762,-5.733 -54.805,-15.981 -68,-27.5" fill="none" stroke="#000000" stroke-width="2" /><path d="M47.5,33.5 c4.982,-7.514 8.592,-16.597 11,-28.5" fill="none" stroke="#000000" stroke-width="2" /><path d="M78,5 c-1.058,3.983 -2.375,7.581 -4,11" fill="none" stroke="#000000" stroke-width="2" /></svg>