<?xml version='1.0' encoding='utf-8'?>
<svg xmlns="http://www.w3.org/2000/svg" height="100px" version="1.0" viewBox="0 0 100 100" width="100px" x="0px" y="0px">
<line fill="none" stroke="#000000" stroke-width="2" x1="41" x2="41" y1="88.5" y2="63" /><line fill="none" stroke="#000000" stroke-width="2" x1="59" x2="59" y1="89.5" y2="63" /><line fill="none" stroke="#000000" stroke-width="2" x1="6" x2="94" y1="89.5" y2="89.5" /><line fill="none" stroke="#000000" stroke-width="2" x1="9" x2="91" y1="63" y2="63" /><line fill="none" stroke="#000000" stroke-width="2" x1="14" x2="86" y1="51.5" y2="51.5" /><line fill="none" stroke="#000000" stroke-width="2" x1="50" x2="50" y1="46.5" y2="10" /><line fill="none" stroke="#000000" stroke-width="2" x1="12" x2="88" y1="10" y2="10" /><line fill="none" stroke="#000000" stroke-width="2" x1="18" x2="42" y1="30" y2="30" /><line fill="none" stroke="#000000" stroke-width="2" x1="18" x2="42" y1="40.5" y2="40.5" /><line fill="none" stroke="#000000" stroke-width="2" x1="58" x2="82" y1="30" y2="30" /><line fill="none" stroke="#000000" stroke-width="2" x1="58" x2="82" y1="40.5" y2="40.5" /><polyline fill="none" points="90,40.5 90,21 10,21 10,40.5" stroke="#000000" stroke-width="2" /><path d="M70,89.5 c5.104,-6.151 9.261,-13.697 12,-22" fill="none" stroke="#000000" stroke-width="2" /><path d="M29,89.5 c-3.384,-7.426 -7.391,-14.786 -12,-22" fill="none" stroke="#000000" stroke-width="2" /></svg>