<?xml version='1.0' encoding='utf-8'?>
<svg xmlns="http://www.w3.org/2000/svg" height="100px" version="1.0" viewBox="0 0 100 100" width="100px" x="0px" y="0px">
<line fill="none" stroke="#000000" stroke-width="2" x1="50" x2="50" y1="42.5" y2="9.5" /><line fill="none" stroke="#000000" stroke-width="2" x1="12" x2="88" y1="9.5" y2="9.5" /><line fill="none" stroke="#000000" stroke-width="2" x1="18" x2="42" y1="28" y2="28" /><line fill="none" stroke="#000000" stroke-width="2" x1="18" x2="42" y1="37.5" y2="37.5" /><line fill="none" stroke="#000000" stroke-width="2" x1="58" x2="82" y1="28" y2="28" /><line fill="none" stroke="#000000" stroke-width="2" x1="58" x2="82" y1="37.5" y2="37.5" /><line fill="none" stroke="#000000" stroke-width="2" x1="29" x2="45" y1="72" y2="72" /><line fill="none" stroke="#000000" stroke-width="2" x1="28" x2="28" y1="87.5" y2="62.5" /><line fill="none" stroke="#000000" stroke-width="2" x1="13.5" x2="13.5" y1="90.5" y2="67" /><line fill="none" stroke="#000000" stroke-width="2" x1="54" x2="87" y1="88.5" y2="88.5" /><line fill="none" stroke="#000000" stroke-width="2" x1="59" x2="91" y1="47.5" y2="47.5" /><polyline fill="none" points="90,37.5 90,19.5 10,19.5 10,37.5" stroke="#000000" stroke-width="2" /><polyline fill="none" points="12,61.5 44,61.5 44,46 11,46 11,62.5" stroke="#000000" stroke-width="2" /><polyline fill="none" points="53,93 53,71 88,71 88,93" stroke="#000000" stroke-width="2" /><path d="M47.5,56 c7.381,-4.382 12.888,-9.134 17,-14.5" fill="none" stroke="#000000" stroke-width="2" /><path d="M90.211,47.886 C82.451,57.856 69.084,65.656 47,71" fill="none" stroke="#000000" stroke-width="2" /><path d="M55.5,50.5 c9.891,8.767 23.125,15.966 40,21.5" fill="none" stroke="#000000" stroke-width="2" /><path d="M6,92 c12.768,-2.312 26.744,-5.374 41,-9" fill="none" stroke="#000000" stroke-width="2" /></svg>