<?xml version='1.0' encoding='utf-8'?>
<svg xmlns="http://www.w3.org/2000/svg" height="100px" version="1.0" viewBox="0 0 100 100" width="100px" x="0px" y="0px">
<line fill="none" stroke="#000000" stroke-width="2" x1="4.5" x2="48.5" y1="18" y2="18" /><line fill="none" stroke="#000000" stroke-width="2" x1="10" x2="43" y1="63" y2="63" /><line fill="none" stroke="#000000" stroke-width="2" x1="4" x2="48" y1="75.5" y2="75.5" /><line fill="none" stroke="#000000" stroke-width="2" x1="26.5" x2="26.5" y1="94" y2="30.5" /><line fill="none" stroke="#000000" stroke-width="2" x1="57" x2="57" y1="94" y2="28" /><polyline fill="none" points="38.5,6.5 38.5,30.5 14.5,30.5 14.5,6.5" stroke="#000000" stroke-width="2" /><polyline fill="none" points="44,64 44,41 9,41 9,64" stroke="#000000" stroke-width="2" /><path d="M73,45 c7.428,-5.924 14.191,-13.79 22,-26" fill="none" stroke="#000000" stroke-width="2" /><path d="M73,6.5 v80.0 c0,4.737 0.391,5 10.5,5 c10.578,0 10.664,-0.086 11.5,-29" fill="none" stroke="#000000" stroke-width="2" /><path d="M64,6 c-3.713,16.704 -10.263,31.442 -18.5,43" fill="none" stroke="#000000" stroke-width="2" /></svg>