<?xml version='1.0' encoding='utf-8'?>
<svg xmlns="http://www.w3.org/2000/svg" height="100px" version="1.0" viewBox="0 0 100 100" width="100px" x="0px" y="0px">
<line fill="none" stroke="#000000" stroke-width="2" x1="70.5" x2="70.5" y1="16" y2="4" /><line fill="none" stroke="#000000" stroke-width="2" x1="96" x2="45" y1="38" y2="38" /><line fill="none" stroke="#000000" stroke-width="2" x1="4" x2="43.5" y1="18" y2="18" /><line fill="none" stroke="#000000" stroke-width="2" x1="9.5" x2="40.5" y1="63" y2="63" /><line fill="none" stroke="#000000" stroke-width="2" x1="3.5" x2="45" y1="75.5" y2="75.5" /><line fill="none" stroke="#000000" stroke-width="2" x1="25" x2="25" y1="94" y2="30.5" /><polyline fill="none" points="94,32 94,16 47,16 47,32" stroke="#000000" stroke-width="2" /><polyline fill="none" points="36,6.5 36,30.5 14,30.5 14,6.5" stroke="#000000" stroke-width="2" /><polyline fill="none" points="41.5,64 41.5,41 8.5,41 8.5,64" stroke="#000000" stroke-width="2" /><path d="M40,91 c27.028,-6.198 40.856,-20.854 46,-53" fill="none" stroke="#000000" stroke-width="2" /><path d="M67,20 c-3.584,18.363 -9.372,34.157 -17,47" fill="none" stroke="#000000" stroke-width="2" /><path d="M53,61 c13.734,5.864 25.971,14.815 41.5,31" fill="none" stroke="#000000" stroke-width="2" /></svg>