<?xml version='1.0' encoding='utf-8'?>
<svg xmlns="http://www.w3.org/2000/svg" height="100px" version="1.0" viewBox="0 0 100 100" width="100px" x="0px" y="0px">
<line fill="none" stroke="#000000" stroke-width="2" x1="4" x2="46.5" y1="18" y2="18" /><line fill="none" stroke="#000000" stroke-width="2" x1="9.5" x2="40.5" y1="63" y2="63" /><line fill="none" stroke="#000000" stroke-width="2" x1="3.5" x2="47" y1="75.5" y2="75.5" /><line fill="none" stroke="#000000" stroke-width="2" x1="25" x2="25" y1="94" y2="30.5" /><line fill="none" stroke="#000000" stroke-width="2" x1="66.5" x2="66.5" y1="39" y2="5.5" /><line fill="none" stroke="#000000" stroke-width="2" x1="66.5" x2="66.5" y1="94.5" y2="52.5" /><line fill="none" stroke="#000000" stroke-width="2" x1="95.5" x2="45" y1="39" y2="39" /><line fill="none" stroke="#000000" stroke-width="2" x1="91.5" x2="66.5" y1="19" y2="19" /><line fill="none" stroke="#000000" stroke-width="2" x1="95.5" x2="45" y1="52.5" y2="52.5" /><polyline fill="none" points="36,6.5 36,30.5 14,30.5 14,6.5" stroke="#000000" stroke-width="2" /><polyline fill="none" points="41.5,64 41.5,41 8.5,41 8.5,64" stroke="#000000" stroke-width="2" /><path d="M92.5,78.5 c-8.125,-6.815 -16.602,-12.933 -26,-18.5" fill="none" stroke="#000000" stroke-width="2" /></svg>