<?xml version='1.0' encoding='utf-8'?>
<svg xmlns="http://www.w3.org/2000/svg" height="100px" version="1.0" viewBox="0 0 100 100" width="100px" x="0px" y="0px">
<line fill="none" stroke="#000000" stroke-width="2" x1="31.5" x2="31.5" y1="76" y2="34.5" /><line fill="none" stroke="#000000" stroke-width="2" x1="43.5" x2="4" y1="34.5" y2="34.5" /><line fill="none" stroke="#000000" stroke-width="2" x1="41" x2="6.5" y1="13.5" y2="13.5" /><line fill="none" stroke="#000000" stroke-width="2" x1="43.5" x2="96" y1="10.5" y2="10.5" /><line fill="none" stroke="#000000" stroke-width="2" x1="49.5" x2="90" y1="57" y2="57" /><line fill="none" stroke="#000000" stroke-width="2" x1="49.5" x2="90" y1="41" y2="41" /><polyline fill="none" points="49.5,73.5 91,73.5 91,25.5 48.5,25.5 48.5,74.5" stroke="#000000" stroke-width="2" /><path d="M4,91.5 c8.135,-8.226 13,-24.654 13,-57" fill="none" stroke="#000000" stroke-width="2" /><path d="M18,81.5 c9.594,-3.37 17.445,-7.125 26.5,-12.5" fill="none" stroke="#000000" stroke-width="2" /><path d="M41,92.5 c8.43,-3.835 15.711,-9.067 20,-14" fill="none" stroke="#000000" stroke-width="2" /><path d="M95.5,93 c-5.166,-4.882 -12.236,-10.108 -20,-14.5" fill="none" stroke="#000000" stroke-width="2" /><path d="M69,10.5 c-0.98,5.553 -2.142,10.448 -3.5,15" fill="none" stroke="#000000" stroke-width="2" /></svg>