<?xml version='1.0' encoding='utf-8'?>
<svg xmlns="http://www.w3.org/2000/svg" height="100px" version="1.0" viewBox="0 0 100 100" width="100px" x="0px" y="0px">
<line fill="none" stroke="#000000" stroke-width="2" x1="45.5" x2="96" y1="10.5" y2="10.5" /><line fill="none" stroke="#000000" stroke-width="2" x1="52.5" x2="90" y1="57" y2="57" /><line fill="none" stroke="#000000" stroke-width="2" x1="52.5" x2="90" y1="41" y2="41" /><polyline fill="none" points="52.5,73.5 91,73.5 91,25.5 51.5,25.5 51.5,74.5" stroke="#000000" stroke-width="2" /><path d="M19.5,9 c-3.429,13.801 -8.745,26.29 -15.5,37" fill="none" stroke="#000000" stroke-width="2" /><path d="M4,91.5 c10.912,-9.628 17.453,-25.054 18.5,-50.5" fill="none" stroke="#000000" stroke-width="2" /><path d="M11,41 h28.5 c0,43.915 -2.031,49 -7.5,49 c-2.813,0 -6.496,-0.168 -10,-0.5" fill="none" stroke="#000000" stroke-width="2" /><path d="M44,92.5 c7.587,-3.835 14.14,-9.067 18,-14" fill="none" stroke="#000000" stroke-width="2" /><path d="M95.5,93 c-4.65,-4.882 -11.013,-10.108 -18,-14.5" fill="none" stroke="#000000" stroke-width="2" /><path d="M70,10.5 c-0.84,5.553 -1.835,10.448 -3,15" fill="none" stroke="#000000" stroke-width="2" /><path d="M31.5,9 c3.429,13.801 8.745,26.29 15.5,37" fill="none" stroke="#000000" stroke-width="2" /></svg>