<?xml version='1.0' encoding='utf-8'?>
<svg xmlns="http://www.w3.org/2000/svg" height="100px" version="1.0" viewBox="0 0 100 100" width="100px" x="0px" y="0px">
<line fill="none" stroke="#000000" stroke-width="2" x1="45" x2="96" y1="10.5" y2="10.5" /><line fill="none" stroke="#000000" stroke-width="2" x1="51" x2="91" y1="57" y2="57" /><line fill="none" stroke="#000000" stroke-width="2" x1="51" x2="91" y1="41" y2="41" /><line fill="none" stroke="#000000" stroke-width="2" x1="5.5" x2="43.5" y1="20" y2="20" /><line fill="none" stroke="#000000" stroke-width="2" x1="3.5" x2="45.5" y1="51" y2="51" /><polyline fill="none" points="51,73.5 92,73.5 92,25.5 50,25.5 50,74.5" stroke="#000000" stroke-width="2" /><path d="M70,10.5 c-0.84,5.553 -1.835,10.448 -3,15" fill="none" stroke="#000000" stroke-width="2" /><path d="M43,92.5 c8.577,-3.901 15.798,-9.151 20,-14" fill="none" stroke="#000000" stroke-width="2" /><path d="M96.5,93 c-4.77,-4.89 -11.318,-10.108 -18.5,-14.5" fill="none" stroke="#000000" stroke-width="2" /><path d="M3.5,89 c13.224,-10.446 21,-28.368 21,-55 v-29.0" fill="none" stroke="#000000" stroke-width="2" /><path d="M43,82 c-4.832,-9.857 -11.976,-21.397 -19,-30.5" fill="none" stroke="#000000" stroke-width="2" /><path d="M16,45.5 c-2.439,-7.106 -5.258,-14.165 -8,-20" fill="none" stroke="#000000" stroke-width="2" /><path d="M32,45.5 c3.655,-6.248 6.966,-13.608 9,-20" fill="none" stroke="#000000" stroke-width="2" /></svg>