<?xml version='1.0' encoding='utf-8'?>
<svg xmlns="http://www.w3.org/2000/svg" height="100px" version="1.0" viewBox="0 0 100 100" width="100px" x="0px" y="0px">
<line fill="none" stroke="#000000" stroke-width="2" x1="29" x2="29" y1="15" y2="24" /><line fill="none" stroke="#000000" stroke-width="2" x1="14" x2="44" y1="41" y2="41" /><line fill="none" stroke="#000000" stroke-width="2" x1="57" x2="57" y1="12" y2="77" /><line fill="none" stroke="#000000" stroke-width="2" x1="96" x2="49" y1="11" y2="11" /><line fill="none" stroke="#000000" stroke-width="2" x1="89" x2="89" y1="94.5" y2="12" /><line fill="none" stroke="#000000" stroke-width="2" x1="58" x2="88" y1="53.5" y2="53.5" /><line fill="none" stroke="#000000" stroke-width="2" x1="58" x2="88" y1="31.5" y2="31.5" /><polyline fill="none" points="14,58 45,58 45,25 13,25 13,88.5" stroke="#000000" stroke-width="2" /><path d="M5.5,90.5 c13.217,-3.477 24.018,-7.87 36,-14.5" fill="none" stroke="#000000" stroke-width="2" /><path d="M50.5,22 c-8.234,-4.952 -14.957,-10.044 -21.5,-16.5 c-7.432,8.159 -15.351,15.136 -24.5,21.5" fill="none" stroke="#000000" stroke-width="2" /><path d="M46.5,83 c-4.311,-6.401 -10.398,-14.629 -15.5,-21" fill="none" stroke="#000000" stroke-width="2" /><path d="M48,78.5 c15.004,-1.877 31.858,-4.825 48,-8.5" fill="none" stroke="#000000" stroke-width="2" /></svg>