<?xml version='1.0' encoding='utf-8'?>
<svg xmlns="http://www.w3.org/2000/svg" height="100px" version="1.0" viewBox="0 0 100 100" width="100px" x="0px" y="0px">
<line fill="none" stroke="#000000" stroke-width="2" x1="25.5" x2="25.5" y1="11.5" y2="56" /><line fill="none" stroke="#000000" stroke-width="2" x1="10.5" x2="40.5" y1="41" y2="41" /><line fill="none" stroke="#000000" stroke-width="2" x1="10.5" x2="40.5" y1="25.5" y2="25.5" /><line fill="none" stroke="#000000" stroke-width="2" x1="91.5" x2="91.5" y1="9" y2="92" /><line fill="none" stroke="#000000" stroke-width="2" x1="74" x2="74" y1="11" y2="87" /><path d="M35.5,78 c-1.045,-4.762 -2.381,-9.932 -4,-15.5" fill="none" stroke="#000000" stroke-width="2" /><path d="M26.75,82.25 c-0.666,-5.847 -1.643,-12.114 -3,-19" fill="none" stroke="#000000" stroke-width="2" /><path d="M18,86.5 c-0.287,-6.932 -0.904,-14.298 -2,-22.5" fill="none" stroke="#000000" stroke-width="2" /><path d="M5,89.5 c2.229,-7.541 3.926,-16.133 5,-26" fill="none" stroke="#000000" stroke-width="2" /><path d="M43,10.5 h-33.5 v46.5 h31.0 c0,30.181 -2.043,34.5 -5,34.5 c-2.813,0 -6.941,-0.3 -12,-1" fill="none" stroke="#000000" stroke-width="2" /><path d="M44.5,92.5 c7.421,-8.653 12,-23.456 12,-46.5 v-37.0" fill="none" stroke="#000000" stroke-width="2" /><path d="M43.5,59.5 c3.402,-9.286 5.666,-19.372 6.5,-29" fill="none" stroke="#000000" stroke-width="2" /><path d="M86,56.5 c-1.129,-7.636 -3.655,-17.88 -6.5,-26" fill="none" stroke="#000000" stroke-width="2" /><path d="M68.5,56.5 c-1.129,-7.636 -3.655,-17.88 -6.5,-26" fill="none" stroke="#000000" stroke-width="2" /></svg>