<?xml version='1.0' encoding='utf-8'?>
<svg xmlns="http://www.w3.org/2000/svg" height="100px" version="1.0" viewBox="0 0 100 100" width="100px" x="0px" y="0px">
<line fill="none" stroke="#000000" stroke-width="2" x1="26" x2="26" y1="11.5" y2="56" /><line fill="none" stroke="#000000" stroke-width="2" x1="11" x2="41" y1="41" y2="41" /><line fill="none" stroke="#000000" stroke-width="2" x1="11" x2="41" y1="25.5" y2="25.5" /><line fill="none" stroke="#000000" stroke-width="2" x1="47" x2="92.5" y1="11" y2="11" /><line fill="none" stroke="#000000" stroke-width="2" x1="70.5" x2="70.5" y1="88" y2="40" /><polyline fill="none" points="51,69 91,69 91,49 50,49 50,75" stroke="#000000" stroke-width="2" /><path d="M36,78 c-1.045,-4.762 -2.381,-9.932 -4,-15.5" fill="none" stroke="#000000" stroke-width="2" /><path d="M27.25,82.25 c-0.666,-5.847 -1.643,-12.114 -3,-19" fill="none" stroke="#000000" stroke-width="2" /><path d="M18.5,86.5 c-0.287,-6.932 -0.904,-14.298 -2,-22.5" fill="none" stroke="#000000" stroke-width="2" /><path d="M5.5,89.5 c2.229,-7.541 3.926,-16.133 5,-26" fill="none" stroke="#000000" stroke-width="2" /><path d="M43.5,10.5 H10.0 V57.0 h31.0 c0,30.181 -2.043,34.5 -5,34.5 c-2.813,0 -6.941,-0.3 -12,-1" fill="none" stroke="#000000" stroke-width="2" /><path d="M44,44.5 c24.344,-7.341 38.251,-17.514 47.645,-33.019" fill="none" stroke="#000000" stroke-width="2" /><path d="M95,44.5 c-17.297,-6.75 -32.181,-17.007 -43,-29.5" fill="none" stroke="#000000" stroke-width="2" /><path d="M94.5,93 c-3.117,-6.06 -7.39,-13.824 -11,-20" fill="none" stroke="#000000" stroke-width="2" /><path d="M43.5,90 c14.221,-0.534 30.866,-2.274 47,-5" fill="none" stroke="#000000" stroke-width="2" /></svg>