<?xml version='1.0' encoding='utf-8'?>
<svg xmlns="http://www.w3.org/2000/svg" height="100px" version="1.0" viewBox="0 0 100 100" width="100px" x="0px" y="0px">
<line fill="none" stroke="#000000" stroke-width="2" x1="33.5" x2="96" y1="32.5" y2="32.5" /><line fill="none" stroke="#000000" stroke-width="2" x1="93.5" x2="36" y1="20" y2="20" /><line fill="none" stroke="#000000" stroke-width="2" x1="10.5" x2="28.5" y1="59" y2="59" /><line fill="none" stroke="#000000" stroke-width="2" x1="11.5" x2="28.5" y1="33.5" y2="33.5" /><line fill="none" stroke="#000000" stroke-width="2" x1="88" x2="42" y1="44" y2="44" /><line fill="none" stroke="#000000" stroke-width="2" x1="65.5" x2="65.5" y1="44" y2="71.5" /><line fill="none" stroke="#000000" stroke-width="2" x1="41.5" x2="89.5" y1="63" y2="63" /><line fill="none" stroke="#000000" stroke-width="2" x1="41.5" x2="89.5" y1="53.5" y2="53.5" /><path d="M33,49.5 c16.365,-8.17 29.502,-26.673 31.5,-45.5" fill="none" stroke="#000000" stroke-width="2" /><path d="M50.5,20 c-2.745,-4.634 -5.693,-9.107 -8.5,-13" fill="none" stroke="#000000" stroke-width="2" /><path d="M79,20 c3.191,-4.317 6.234,-8.945 8.5,-13" fill="none" stroke="#000000" stroke-width="2" /><path d="M4.5,92.5 c4.1,-10.866 6,-23.313 6,-46.5 v-36.0 h19.0 v73.0 c0,7.817 -0.205,8 -4,8 c-1.479,0 -4.615,-0.159 -9,-0.5" fill="none" stroke="#000000" stroke-width="2" /><path d="M84.5,86.5 c-1.585,-3.093 -3.363,-6.352 -5.5,-10" fill="none" stroke="#000000" stroke-width="2" /><path d="M69.5,89.25 c-1.105,-3.782 -2.475,-7.771 -4.25,-12.25" fill="none" stroke="#000000" stroke-width="2" /><path d="M54.5,92 c-0.626,-4.473 -1.586,-9.189 -3,-14.5" fill="none" stroke="#000000" stroke-width="2" /><path d="M34.5,93 c2.67,-4.754 4.932,-9.892 7,-16" fill="none" stroke="#000000" stroke-width="2" /><path d="M41.5,44.5 v28.0 h52.0 c0,14.87 -2.789,19.5 -7.5,19.5 c-2.257,0 -5.941,-0.149 -10,-0.5" fill="none" stroke="#000000" stroke-width="2" /><path d="M96.5,49.5 c-11.635,-5.808 -21.972,-16.843 -27.5,-29.5" fill="none" stroke="#000000" stroke-width="2" /></svg>