<?xml version='1.0' encoding='utf-8'?>
<svg xmlns="http://www.w3.org/2000/svg" height="100px" version="1.0" viewBox="0 0 100 100" width="100px" x="0px" y="0px">
<line fill="none" stroke="#000000" stroke-width="2" x1="12" x2="34" y1="72.5" y2="72.5" /><line fill="none" stroke="#000000" stroke-width="2" x1="12" x2="34" y1="59" y2="59" /><line fill="none" stroke="#000000" stroke-width="2" x1="95" x2="52" y1="14" y2="14" /><line fill="none" stroke="#000000" stroke-width="2" x1="62" x2="62" y1="83.5" y2="30.5" /><line fill="none" stroke="#000000" stroke-width="2" x1="63" x2="89.5" y1="63" y2="63" /><line fill="none" stroke="#000000" stroke-width="2" x1="63" x2="89.5" y1="46.5" y2="46.5" /><polyline fill="none" points="35,35 35,9.5 10,9.5 10,34" stroke="#000000" stroke-width="2" /><polyline fill="none" points="6,53.5 6,35 39,35 39,53.5" stroke="#000000" stroke-width="2" /><polyline fill="none" points="35,21 20,21 20,34" stroke="#000000" stroke-width="2" /><polyline fill="none" points="49,76 49,45 39,45" stroke="#000000" stroke-width="2" /><path d="M11,92 v-46.5 h23.0 v40.5 c0,4.177 -0.281,4.5 -3.5,4.5 c-1.143,0 -3.195,-0.142 -6.5,-0.5" fill="none" stroke="#000000" stroke-width="2" /><path d="M51.5,50 c8.947,-12.992 13.453,-24.85 17,-46" fill="none" stroke="#000000" stroke-width="2" /><path d="M41,10 c3.936,5.621 7.281,10.776 11,17" fill="none" stroke="#000000" stroke-width="2" /><path d="M37.5,92 c5.404,-5.621 9.087,-11.114 11.5,-17" fill="none" stroke="#000000" stroke-width="2" /><path d="M95,90 h-22.0 c-13.928,0 -20.045,-3.743 -24,-15" fill="none" stroke="#000000" stroke-width="2" /><path d="M62.5,30 h28.0 v47.5 c0,3.968 -0.504,4.5 -5,4.5 c-1.602,0 -4.367,-0.129 -9,-0.5" fill="none" stroke="#000000" stroke-width="2" /></svg>