<?xml version='1.0' encoding='utf-8'?>
<svg xmlns="http://www.w3.org/2000/svg" height="100px" version="1.0" viewBox="0 0 100 100" width="100px" x="0px" y="0px">
<line fill="none" stroke="#000000" stroke-width="2" x1="12.5" x2="34.5" y1="72.5" y2="72.5" /><line fill="none" stroke="#000000" stroke-width="2" x1="12.5" x2="34.5" y1="59" y2="59" /><line fill="none" stroke="#000000" stroke-width="2" x1="61" x2="61" y1="3" y2="38" /><line fill="none" stroke="#000000" stroke-width="2" x1="75.5" x2="75.5" y1="3" y2="38" /><line fill="none" stroke="#000000" stroke-width="2" x1="47.5" x2="89" y1="25.5" y2="25.5" /><line fill="none" stroke="#000000" stroke-width="2" x1="42.5" x2="94" y1="47.5" y2="47.5" /><line fill="none" stroke="#000000" stroke-width="2" x1="41" x2="94.5" y1="90" y2="90" /><polyline fill="none" points="35.5,35 35.5,9.5 10.5,9.5 10.5,34" stroke="#000000" stroke-width="2" /><polyline fill="none" points="6.5,53.5 6.5,35 39.5,35 39.5,53.5" stroke="#000000" stroke-width="2" /><polyline fill="none" points="35.5,21 20.5,21 20.5,34" stroke="#000000" stroke-width="2" /><polyline fill="none" points="47.5,39 90,39 90,12.5 46.5,12.5 46.5,40" stroke="#000000" stroke-width="2" /><polyline fill="none" points="48.5,71.5 48.5,56 88,56 88,70.5 49.5,70.5" stroke="#000000" stroke-width="2" /><path d="M11.5,92 v-46.5 h23.0 v40.5 c0,4.177 -0.281,4.5 -3.5,4.5 c-1.143,0 -3.195,-0.142 -6.5,-0.5" fill="none" stroke="#000000" stroke-width="2" /><path d="M74,90 c3.011,-5.683 5.648,-12.499 7.5,-19.5" fill="none" stroke="#000000" stroke-width="2" /><path d="M60.5,90 c-1.609,-6.335 -3.773,-13.364 -6,-19.5" fill="none" stroke="#000000" stroke-width="2" /></svg>