<?xml version='1.0' encoding='utf-8'?>
<svg xmlns="http://www.w3.org/2000/svg" height="100px" version="1.0" viewBox="0 0 100 100" width="100px" x="0px" y="0px">
<line fill="none" stroke="#000000" stroke-width="2" x1="4" x2="54.5" y1="55" y2="55" /><line fill="none" stroke="#000000" stroke-width="2" x1="14" x2="49" y1="24.5" y2="24.5" /><line fill="none" stroke="#000000" stroke-width="2" x1="14" x2="49" y1="39.5" y2="39.5" /><polyline fill="none" points="14,55 14,10 51,10" stroke="#000000" stroke-width="2" /><path d="M59,27 c13.784,-4.769 24.571,-11.101 32,-18" fill="none" stroke="#000000" stroke-width="2" /><path d="M59,57.5 c14.998,-5.64 25.56,-12.606 34,-22" fill="none" stroke="#000000" stroke-width="2" /><path d="M55,90 c17.383,-5.866 29.432,-13.968 40,-26" fill="none" stroke="#000000" stroke-width="2" /><path d="M52,89 c-3.714,-8.421 -9.125,-18.897 -14,-27" fill="none" stroke="#000000" stroke-width="2" /><path d="M4,90 c13.532,-0.951 29.154,-4.116 44.5,-9" fill="none" stroke="#000000" stroke-width="2" /><path d="M11.5,89.5 c3,-9.843 5.981,-21.903 8.5,-34.5" fill="none" stroke="#000000" stroke-width="2" /></svg>