<?xml version='1.0' encoding='utf-8'?>
<svg xmlns="http://www.w3.org/2000/svg" height="100px" version="1.0" viewBox="0 0 100 100" width="100px" x="0px" y="0px">
<line fill="none" stroke="#000000" stroke-width="2" x1="94" x2="6" y1="55" y2="55" /><line fill="none" stroke="#000000" stroke-width="2" x1="28.5" x2="83.5" y1="64.5" y2="64.5" /><line fill="none" stroke="#000000" stroke-width="2" x1="6" x2="53" y1="33" y2="33" /><line fill="none" stroke="#000000" stroke-width="2" x1="15.5" x2="49" y1="16" y2="16" /><line fill="none" stroke="#000000" stroke-width="2" x1="15.5" x2="49" y1="24.5" y2="24.5" /><polyline fill="none" points="15.5,33 15.5,7.5 51,7.5" stroke="#000000" stroke-width="2" /><path d="M5,92 c16.824,-11.823 26.374,-27.176 28,-44" fill="none" stroke="#000000" stroke-width="2" /><path d="M16.5,92 c32.92,-4.275 54.896,-14.479 66.256,-27.167" fill="none" stroke="#000000" stroke-width="2" /><path d="M94,92 c-31.764,-4.447 -50.763,-12.902 -61.5,-24.5" fill="none" stroke="#000000" stroke-width="2" /><path d="M56,15.5 c14.216,-2.384 25.34,-5.55 33,-9" fill="none" stroke="#000000" stroke-width="2" /><path d="M56,31 c15.823,-2.891 26.667,-6.495 35,-11" fill="none" stroke="#000000" stroke-width="2" /><path d="M55,47.5 c16.514,-2.933 27.96,-6.983 38,-13" fill="none" stroke="#000000" stroke-width="2" /><path d="M52,50 c-3.581,-4.366 -8.791,-9.806 -13.5,-14" fill="none" stroke="#000000" stroke-width="2" /><path d="M6.5,47.5 c12.012,-0.476 25.878,-2.059 39.5,-4.5" fill="none" stroke="#000000" stroke-width="2" /><path d="M13.5,47 c2.876,-4.054 5.607,-8.797 8,-14" fill="none" stroke="#000000" stroke-width="2" /></svg>