<?xml version='1.0' encoding='utf-8'?>
<svg xmlns="http://www.w3.org/2000/svg" height="100px" version="1.0" viewBox="0 0 100 100" width="100px" x="0px" y="0px">
<line fill="none" stroke="#000000" stroke-width="2" x1="54.5" x2="54.5" y1="48.5" y2="69.5" /><line fill="none" stroke="#000000" stroke-width="2" x1="24" x2="85" y1="59" y2="59" /><line fill="none" stroke="#000000" stroke-width="2" x1="51.5" x2="51.5" y1="13.5" y2="3" /><line fill="none" stroke="#000000" stroke-width="2" x1="72" x2="72" y1="44.5" y2="16" /><line fill="none" stroke="#000000" stroke-width="2" x1="91.5" x2="54" y1="24.5" y2="24.5" /><line fill="none" stroke="#000000" stroke-width="2" x1="34" x2="34" y1="44.5" y2="16" /><line fill="none" stroke="#000000" stroke-width="2" x1="50" x2="18" y1="24.5" y2="24.5" /><polyline fill="none" points="24,70.5 86,70.5 86,47.5 23,47.5 23,71.5" stroke="#000000" stroke-width="2" /><path d="M42,47.5 c3.4,-2.635 6.621,-5.513 9,-8" fill="none" stroke="#000000" stroke-width="2" /><path d="M59,71.5 v15.0 c0,4.472 0.82,5 14.5,5 c19.193,0 19.393,-0.153 20.5,-13" fill="none" stroke="#000000" stroke-width="2" /><path d="M13.5,92.5 c18.4,-4.013 28.473,-11.861 31,-22" fill="none" stroke="#000000" stroke-width="2" /><path d="M89.5,85 c-2.387,-3.273 -5.865,-7.349 -9,-10.5" fill="none" stroke="#000000" stroke-width="2" /><path d="M62.5,84 c7.5,-0.434 15.971,-1.3 24.5,-2.5" fill="none" stroke="#000000" stroke-width="2" /><path d="M66.5,83.5 c3.043,-3.622 6.109,-8.269 8.5,-13" fill="none" stroke="#000000" stroke-width="2" /><path d="M4.5,92 c4.898,-10.415 9,-30.94 9,-47 v-31.5 h80.0" fill="none" stroke="#000000" stroke-width="2" /><path d="M54,41.5 c7.645,-5.164 13.285,-10.729 17.5,-17" fill="none" stroke="#000000" stroke-width="2" /><path d="M93.5,44.5 c-9.33,-5.919 -16.757,-13.077 -21,-20" fill="none" stroke="#000000" stroke-width="2" /><path d="M16.5,44.5 c7.733,-6.017 13.51,-12.915 17,-20" fill="none" stroke="#000000" stroke-width="2" /><path d="M48.5,37 c-4.154,-3.867 -9.402,-8.258 -14.5,-12" fill="none" stroke="#000000" stroke-width="2" /></svg>