<?xml version='1.0' encoding='utf-8'?>
<svg xmlns="http://www.w3.org/2000/svg" height="100px" version="1.0" viewBox="0 0 100 100" width="100px" x="0px" y="0px">
<line fill="none" stroke="#000000" stroke-width="2" x1="14.5" x2="29" y1="11" y2="11" /><line fill="none" stroke="#000000" stroke-width="2" x1="9" x2="35" y1="45" y2="45" /><line fill="none" stroke="#000000" stroke-width="2" x1="22" x2="22" y1="27" y2="64" /><line fill="none" stroke="#000000" stroke-width="2" x1="56" x2="82" y1="11" y2="11" /><polyline fill="none" points="8,66 8,26 36,26 36,65 9,65" stroke="#000000" stroke-width="2" /><path d="M21.5,26 c2.311,-4.407 4.655,-9.57 6.57,-14.37" fill="none" stroke="#000000" stroke-width="2" /><path d="M3.5,32.5 c5.917,-9.088 10.051,-18.157 13.5,-30" fill="none" stroke="#000000" stroke-width="2" /><path d="M38.5,85 c-0.941,-4.839 -2.322,-10.412 -4,-16" fill="none" stroke="#000000" stroke-width="2" /><path d="M28,90.5 c-0.521,-6.352 -1.447,-13.318 -2.75,-20.75" fill="none" stroke="#000000" stroke-width="2" /><path d="M17.5,93.5 c-0.103,-7.107 -0.572,-14.597 -1.5,-23" fill="none" stroke="#000000" stroke-width="2" /><path d="M4,94.5 c2.512,-7.089 4.387,-15.212 5.5,-24.5" fill="none" stroke="#000000" stroke-width="2" /><path d="M72,27.5 c3.197,-4.817 6.619,-10.8 9.104,-15.936" fill="none" stroke="#000000" stroke-width="2" /><path d="M38.5,36.5 c9.256,-9.177 16.193,-20.289 20.5,-33" fill="none" stroke="#000000" stroke-width="2" /><path d="M96,72.5 c-1.285,18.778 -1.551,19 -19.5,19 c-18.002,0 -18.5,-0.364 -18.5,-7 v-42.0 h30.0 c-1.435,25.036 -2.67,27 -6,27 c-2.775,0 -7.117,-0.307 -12.5,-1" fill="none" stroke="#000000" stroke-width="2" /><path d="M39,92 c5.301,-14.052 8,-29.832 8,-51 v-13.5 h49.0" fill="none" stroke="#000000" stroke-width="2" /></svg>