<?xml version='1.0' encoding='utf-8'?>
<svg xmlns="http://www.w3.org/2000/svg" height="100px" version="1.0" viewBox="0 0 100 100" width="100px" x="0px" y="0px">
<line fill="none" stroke="#000000" stroke-width="2" x1="15.5" x2="32.5" y1="11" y2="11" /><line fill="none" stroke="#000000" stroke-width="2" x1="10" x2="40" y1="45" y2="45" /><line fill="none" stroke="#000000" stroke-width="2" x1="25" x2="25" y1="27" y2="64" /><line fill="none" stroke="#000000" stroke-width="2" x1="50" x2="90.5" y1="87" y2="87" /><line fill="none" stroke="#000000" stroke-width="2" x1="50" x2="90.5" y1="67.5" y2="67.5" /><polyline fill="none" points="9,66 9,26 41,26 41,65 10,65" stroke="#000000" stroke-width="2" /><polyline fill="none" points="91.5,93 91.5,49 49,49 49,93" stroke="#000000" stroke-width="2" /><path d="M25,26 c2.311,-4.407 4.655,-9.57 6.57,-14.37" fill="none" stroke="#000000" stroke-width="2" /><path d="M3.5,33.5 c6.199,-8.898 11.051,-19.157 14.5,-31" fill="none" stroke="#000000" stroke-width="2" /><path d="M44,87.5 c-1.178,-5.596 -2.902,-12.039 -5,-18.5" fill="none" stroke="#000000" stroke-width="2" /><path d="M32,90.5 c-0.657,-6.352 -1.833,-13.317 -3.5,-20.75" fill="none" stroke="#000000" stroke-width="2" /><path d="M20,93.5 c-0.137,-7.107 -0.764,-14.597 -2,-23" fill="none" stroke="#000000" stroke-width="2" /><path d="M4,94.5 c2.512,-7.089 4.387,-15.212 5.5,-24.5" fill="none" stroke="#000000" stroke-width="2" /><path d="M48,7 v25.0 c0,5.036 0.652,5.5 20.5,5.5 c24.771,0 24.975,-0.185 26,-15.5" fill="none" stroke="#000000" stroke-width="2" /><path d="M48,21 c15.406,-2.271 29.752,-5.435 45.5,-10" fill="none" stroke="#000000" stroke-width="2" /></svg>