<?xml version='1.0' encoding='utf-8'?>
<svg xmlns="http://www.w3.org/2000/svg" height="100px" version="1.0" viewBox="0 0 100 100" width="100px" x="0px" y="0px">
<line fill="none" stroke="#000000" stroke-width="2" x1="14.5" x2="29.5" y1="11" y2="11" /><line fill="none" stroke="#000000" stroke-width="2" x1="9" x2="35" y1="45" y2="45" /><line fill="none" stroke="#000000" stroke-width="2" x1="22" x2="22" y1="27" y2="64" /><line fill="none" stroke="#000000" stroke-width="2" x1="70.5" x2="70.5" y1="94" y2="42.5" /><line fill="none" stroke="#000000" stroke-width="2" x1="97" x2="40" y1="38" y2="38" /><polyline fill="none" points="8,66 8,26 36,26 36,65 9,65" stroke="#000000" stroke-width="2" /><path d="M22,26 c2.311,-4.407 4.655,-9.57 6.57,-14.37" fill="none" stroke="#000000" stroke-width="2" /><path d="M3.5,32.5 c5.917,-9.088 10.051,-18.157 13.5,-30" fill="none" stroke="#000000" stroke-width="2" /><path d="M39,87.5 c-0.941,-5.596 -2.322,-12.039 -4,-18.5" fill="none" stroke="#000000" stroke-width="2" /><path d="M28.5,90.5 c-0.522,-6.352 -1.447,-13.318 -2.75,-20.75" fill="none" stroke="#000000" stroke-width="2" /><path d="M18,93.5 c-0.103,-7.107 -0.572,-14.597 -1.5,-23" fill="none" stroke="#000000" stroke-width="2" /><path d="M4,94.5 c2.512,-7.089 4.387,-15.212 5.5,-24.5" fill="none" stroke="#000000" stroke-width="2" /><path d="M49,89 v-34.0 h43.5 v26.96 c0,4.303 -0.297,4.54 -5.5,4.54 c-1.743,0 -4.457,-0.133 -9.5,-0.5" fill="none" stroke="#000000" stroke-width="2" /><path d="M39,67.5 c9.846,-11.287 17.078,-24.333 22,-40" fill="none" stroke="#000000" stroke-width="2" /><path d="M41,31.5 c19.59,-6.026 37.045,-15.64 49.5,-26.5" fill="none" stroke="#000000" stroke-width="2" /><path d="M47,9 c16.246,5.519 30.267,11.992 48.5,22.5" fill="none" stroke="#000000" stroke-width="2" /></svg>