<?xml version='1.0' encoding='utf-8'?>
<svg xmlns="http://www.w3.org/2000/svg" height="100px" version="1.0" viewBox="0 0 100 100" width="100px" x="0px" y="0px">
<line fill="none" stroke="#000000" stroke-width="2" x1="14.5" x2="29.5" y1="11" y2="11" /><line fill="none" stroke="#000000" stroke-width="2" x1="9" x2="35" y1="45" y2="45" /><line fill="none" stroke="#000000" stroke-width="2" x1="22" x2="22" y1="27" y2="64" /><line fill="none" stroke="#000000" stroke-width="2" x1="45" x2="92" y1="66" y2="66" /><line fill="none" stroke="#000000" stroke-width="2" x1="45" x2="92" y1="45.5" y2="45.5" /><line fill="none" stroke="#000000" stroke-width="2" x1="42" x2="94" y1="10" y2="10" /><line fill="none" stroke="#000000" stroke-width="2" x1="68.5" x2="68.5" y1="28" y2="91" /><polyline fill="none" points="8,66 8,26 36,26 36,65 9,65" stroke="#000000" stroke-width="2" /><path d="M22,26 c2.311,-4.407 4.655,-9.57 6.57,-14.37" fill="none" stroke="#000000" stroke-width="2" /><path d="M3.5,32.5 c5.917,-9.088 10.051,-18.157 13.5,-30" fill="none" stroke="#000000" stroke-width="2" /><path d="M39,87.5 c-0.941,-5.596 -2.322,-12.039 -4,-18.5" fill="none" stroke="#000000" stroke-width="2" /><path d="M28.5,90.5 c-0.521,-6.352 -1.447,-13.317 -2.75,-20.75" fill="none" stroke="#000000" stroke-width="2" /><path d="M18,93.5 c-0.103,-7.107 -0.572,-14.597 -1.5,-23" fill="none" stroke="#000000" stroke-width="2" /><path d="M4,94.5 c2.512,-7.089 4.387,-15.212 5.5,-24.5" fill="none" stroke="#000000" stroke-width="2" /><path d="M44,93 v-66.0 h49.0 v56.5 c0,7.367 -0.531,8 -5.5,8 c-1.993,0 -5.588,-0.134 -11.5,-0.5" fill="none" stroke="#000000" stroke-width="2" /><path d="M49.5,15.5 c6.059,3.351 12.477,7.257 19,11.5" fill="none" stroke="#000000" stroke-width="2" /><path d="M93.346,10.245 c-3.903,3.389 -15.847,10.714 -26.346,15.755" fill="none" stroke="#000000" stroke-width="2" /></svg>