<?xml version='1.0' encoding='utf-8'?>
<svg xmlns="http://www.w3.org/2000/svg" height="100px" version="1.0" viewBox="0 0 100 100" width="100px" x="0px" y="0px">
<line fill="none" stroke="#000000" stroke-width="2" x1="15.5" x2="32" y1="11" y2="11" /><line fill="none" stroke="#000000" stroke-width="2" x1="10" x2="39" y1="45" y2="45" /><line fill="none" stroke="#000000" stroke-width="2" x1="24.5" x2="24.5" y1="27" y2="64" /><line fill="none" stroke="#000000" stroke-width="2" x1="70" x2="70" y1="16" y2="5" /><line fill="none" stroke="#000000" stroke-width="2" x1="42" x2="96" y1="16" y2="16" /><polyline fill="none" points="9,66 9,26 40,26 40,65 10,65" stroke="#000000" stroke-width="2" /><polyline fill="none" points="49.5,55 91.5,55 91.5,27 48.5,27 48.5,56" stroke="#000000" stroke-width="2" /><path d="M24.5,26 c2.311,-4.407 4.655,-9.57 6.57,-14.37" fill="none" stroke="#000000" stroke-width="2" /><path d="M3.5,33.5 c6.199,-8.898 11.051,-19.157 14.5,-31" fill="none" stroke="#000000" stroke-width="2" /><path d="M42.5,81.5 c-1.178,-3.86 -2.817,-8.083 -5,-12.5" fill="none" stroke="#000000" stroke-width="2" /><path d="M19.5,93.5 c-0.137,-7.107 -0.764,-14.597 -2,-23" fill="none" stroke="#000000" stroke-width="2" /><path d="M4,94.5 c2.512,-7.089 4.387,-15.212 5.5,-24.5" fill="none" stroke="#000000" stroke-width="2" /><path d="M71,56 v28.0 c0,7.291 -0.625,8 -5.5,8 c-2.317,0 -5.809,-0.158 -10.5,-0.5" fill="none" stroke="#000000" stroke-width="2" /><path d="M42.5,87 c6.582,-6.38 12.672,-15.513 16.5,-25" fill="none" stroke="#000000" stroke-width="2" /><path d="M95.5,88.5 c-5.024,-9.339 -11.1,-18.439 -17.5,-26" fill="none" stroke="#000000" stroke-width="2" /><path d="M32.5,90.5 c-0.982,-6.345 -2.618,-13.317 -5,-20.75" fill="none" stroke="#000000" stroke-width="2" /></svg>