<?xml version='1.0' encoding='utf-8'?>
<svg xmlns="http://www.w3.org/2000/svg" height="100px" version="1.0" viewBox="0 0 100 100" width="100px" x="0px" y="0px">
<line fill="none" stroke="#000000" stroke-width="2" x1="14.5" x2="28.5" y1="11" y2="11" /><line fill="none" stroke="#000000" stroke-width="2" x1="9" x2="34" y1="45" y2="45" /><line fill="none" stroke="#000000" stroke-width="2" x1="21.5" x2="21.5" y1="27" y2="64" /><line fill="none" stroke="#000000" stroke-width="2" x1="82" x2="52" y1="26" y2="26" /><line fill="none" stroke="#000000" stroke-width="2" x1="90.5" x2="44" y1="40" y2="40" /><polyline fill="none" points="8,66 8,26 35,26 35,65 9,65" stroke="#000000" stroke-width="2" /><path d="M28,90.5 c-0.521,-6.352 -1.447,-13.317 -2.75,-20.75" fill="none" stroke="#000000" stroke-width="2" /><path d="M21,26 c2.311,-4.407 4.655,-9.57 6.57,-14.37" fill="none" stroke="#000000" stroke-width="2" /><path d="M3.5,32.5 c5.917,-9.088 10.051,-18.157 13.5,-30" fill="none" stroke="#000000" stroke-width="2" /><path d="M37,81 c-0.691,-3.929 -1.504,-7.838 -2.5,-12" fill="none" stroke="#000000" stroke-width="2" /><path d="M17.5,93.5 c-0.103,-7.107 -0.572,-14.597 -1.5,-23" fill="none" stroke="#000000" stroke-width="2" /><path d="M4,94.5 c2.512,-7.089 4.387,-15.212 5.5,-24.5" fill="none" stroke="#000000" stroke-width="2" /><path d="M96.5,33 c-11.682,-8.511 -20.684,-16.971 -29.5,-27.8 c-8.818,10.829 -17.803,19.311 -29.5,27.8" fill="none" stroke="#000000" stroke-width="2" /><path d="M74.5,64.5 c5.808,-7.384 10.977,-15.582 15.104,-23.943" fill="none" stroke="#000000" stroke-width="2" /><path d="M52.5,63.5 v17.0 c0,11.781 0.297,12 14,12 c17.828,0 18.122,-0.227 19,-15.5" fill="none" stroke="#000000" stroke-width="2" /><path d="M36,89.5 c3.849,-6.687 7.135,-15.477 9,-24.5" fill="none" stroke="#000000" stroke-width="2" /><path d="M97,90 c-2.939,-8.657 -6.699,-17.674 -11,-26" fill="none" stroke="#000000" stroke-width="2" /><path d="M71.5,72 c-4.018,-5.048 -8.718,-10.138 -14,-15" fill="none" stroke="#000000" stroke-width="2" /></svg>