<?xml version='1.0' encoding='utf-8'?>
<svg xmlns="http://www.w3.org/2000/svg" height="100px" version="1.0" viewBox="0 0 100 100" width="100px" x="0px" y="0px">
<line fill="none" stroke="#000000" stroke-width="2" x1="96.5" x2="43.5" y1="37" y2="37" /><line fill="none" stroke="#000000" stroke-width="2" x1="15.5" x2="32" y1="11" y2="11" /><line fill="none" stroke="#000000" stroke-width="2" x1="10" x2="39" y1="45" y2="45" /><line fill="none" stroke="#000000" stroke-width="2" x1="24.5" x2="24.5" y1="27" y2="64" /><polyline fill="none" points="9,66 9,26 40,26 40,65 10,65" stroke="#000000" stroke-width="2" /><path d="M48,61.5 c12.029,-4.112 22.533,-10.513 29,-17" fill="none" stroke="#000000" stroke-width="2" /><path d="M48.25,76.75 c16.604,-3.351 29.027,-9.609 37.5,-17.5" fill="none" stroke="#000000" stroke-width="2" /><path d="M48.5,92 c21.177,-2.589 35.522,-8.706 46,-18" fill="none" stroke="#000000" stroke-width="2" /><path d="M95.5,28.5 c-4.256,-5.776 -10.053,-13.134 -15,-19" fill="none" stroke="#000000" stroke-width="2" /><path d="M43.5,25 c13.559,-0.472 30.018,-2.064 46,-4.5" fill="none" stroke="#000000" stroke-width="2" /><path d="M51.5,24.5 c3.467,-5.7 6.882,-12.331 10,-19.5" fill="none" stroke="#000000" stroke-width="2" /><path d="M42.5,54 c12.234,-7.267 22.275,-19.345 26,-31" fill="none" stroke="#000000" stroke-width="2" /><path d="M97,56 c-8.574,-4.315 -16.119,-11.054 -21.5,-19" fill="none" stroke="#000000" stroke-width="2" /><path d="M24.5,26 c2.311,-4.407 4.655,-9.57 6.57,-14.37" fill="none" stroke="#000000" stroke-width="2" /><path d="M3.5,33.5 c6.199,-8.898 11.051,-19.157 14.5,-31" fill="none" stroke="#000000" stroke-width="2" /><path d="M46,88 c-1.662,-5.851 -4.031,-12.286 -7,-19" fill="none" stroke="#000000" stroke-width="2" /><path d="M33,90.75 c-0.899,-6.479 -2.397,-13.441 -4.5,-21" fill="none" stroke="#000000" stroke-width="2" /><path d="M20,93.5 c-0.137,-7.107 -0.764,-14.597 -2,-23" fill="none" stroke="#000000" stroke-width="2" /><path d="M4,94.5 c2.512,-7.089 4.387,-15.212 5.5,-24.5" fill="none" stroke="#000000" stroke-width="2" /></svg>