<?xml version='1.0' encoding='utf-8'?>
<svg xmlns="http://www.w3.org/2000/svg" height="100px" version="1.0" viewBox="0 0 100 100" width="100px" x="0px" y="0px">
<line fill="none" stroke="#000000" stroke-width="2" x1="14.5" x2="28.5" y1="11" y2="11" /><line fill="none" stroke="#000000" stroke-width="2" x1="9" x2="34" y1="45" y2="45" /><line fill="none" stroke="#000000" stroke-width="2" x1="21.5" x2="21.5" y1="27" y2="64" /><line fill="none" stroke="#000000" stroke-width="2" x1="92" x2="92" y1="93.5" y2="51" /><line fill="none" stroke="#000000" stroke-width="2" x1="68" x2="68" y1="87.5" y2="53" /><line fill="none" stroke="#000000" stroke-width="2" x1="44" x2="92" y1="87.5" y2="87.5" /><line fill="none" stroke="#000000" stroke-width="2" x1="45" x2="91" y1="69.5" y2="69.5" /><polyline fill="none" points="8,66 8,26 35,26 35,65 9,65" stroke="#000000" stroke-width="2" /><polyline fill="none" points="91,52 44,52 44,93.5" stroke="#000000" stroke-width="2" /><path d="M21,26 c2.311,-4.407 4.655,-9.57 6.57,-14.37" fill="none" stroke="#000000" stroke-width="2" /><path d="M3.5,32.5 c5.917,-9.088 10.051,-18.157 13.5,-30" fill="none" stroke="#000000" stroke-width="2" /><path d="M38.5,87.5 c-0.941,-5.596 -2.322,-12.039 -4,-18.5" fill="none" stroke="#000000" stroke-width="2" /><path d="M28,90.5 c-0.521,-6.352 -1.447,-13.317 -2.75,-20.75" fill="none" stroke="#000000" stroke-width="2" /><path d="M17.5,93.5 c-0.103,-7.107 -0.572,-14.597 -1.5,-23" fill="none" stroke="#000000" stroke-width="2" /><path d="M4,94.5 c2.512,-7.089 4.387,-15.212 5.5,-24.5" fill="none" stroke="#000000" stroke-width="2" /><path d="M66.5,47 c7.494,-7.462 12.625,-20.725 13,-36" fill="none" stroke="#000000" stroke-width="2" /><path d="M67,11 h28.0 c-0.622,29.918 -2.301,33 -6,33 c-1.949,0 -6.854,-0.463 -10,-1" fill="none" stroke="#000000" stroke-width="2" /><path d="M37.5,46 c9.609,-3.615 17.32,-8.104 26,-15" fill="none" stroke="#000000" stroke-width="2" /><path d="M65.5,6 c-7.857,3.212 -15.405,5.574 -24,7.5 l1.5,30" fill="none" stroke="#000000" stroke-width="2" /><path d="M68,40 c-3.021,-6.661 -7.567,-15.183 -11.5,-21.5" fill="none" stroke="#000000" stroke-width="2" /></svg>