<?xml version='1.0' encoding='utf-8'?>
<svg xmlns="http://www.w3.org/2000/svg" height="100px" version="1.0" viewBox="0 0 100 100" width="100px" x="0px" y="0px">
<line fill="none" stroke="#000000" stroke-width="2" x1="14.5" x2="28.5" y1="11" y2="11" /><line fill="none" stroke="#000000" stroke-width="2" x1="9" x2="34" y1="45" y2="45" /><line fill="none" stroke="#000000" stroke-width="2" x1="21.5" x2="21.5" y1="27" y2="64" /><line fill="none" stroke="#000000" stroke-width="2" x1="55.5" x2="55.5" y1="11.5" y2="25" /><line fill="none" stroke="#000000" stroke-width="2" x1="55.5" x2="55.5" y1="40" y2="53.5" /><line fill="none" stroke="#000000" stroke-width="2" x1="41.5" x2="66.5" y1="54.5" y2="54.5" /><line fill="none" stroke="#000000" stroke-width="2" x1="69" x2="95.5" y1="11" y2="11" /><line fill="none" stroke="#000000" stroke-width="2" x1="38" x2="96.5" y1="89" y2="89" /><line fill="none" stroke="#000000" stroke-width="2" x1="92.5" x2="42" y1="69" y2="69" /><line fill="none" stroke="#000000" stroke-width="2" x1="67.5" x2="67.5" y1="89" y2="58.5" /><polyline fill="none" points="8,66 8,26 35,26 35,65 9,65" stroke="#000000" stroke-width="2" /><polyline fill="none" points="66.5,10.5 41.5,10.5 41.5,61.5" stroke="#000000" stroke-width="2" /><polyline fill="none" points="42.5,40 65.5,40 65.5,25 42.5,25" stroke="#000000" stroke-width="2" /><path d="M21,26 c2.311,-4.407 4.655,-9.57 6.57,-14.37" fill="none" stroke="#000000" stroke-width="2" /><path d="M3.5,32.5 c5.917,-9.088 10.051,-18.157 13.5,-30" fill="none" stroke="#000000" stroke-width="2" /><path d="M38.5,85 c-0.941,-4.839 -2.322,-10.412 -4,-16" fill="none" stroke="#000000" stroke-width="2" /><path d="M28,90.5 c-0.521,-6.352 -1.447,-13.318 -2.75,-20.75" fill="none" stroke="#000000" stroke-width="2" /><path d="M17.5,93.5 c-0.103,-7.107 -0.572,-14.597 -1.5,-23" fill="none" stroke="#000000" stroke-width="2" /><path d="M4,94.5 c2.512,-7.089 4.387,-15.212 5.5,-24.5" fill="none" stroke="#000000" stroke-width="2" /><path d="M68.5,55 c12.846,-9.563 21.031,-22.778 26.028,-43.237" fill="none" stroke="#000000" stroke-width="2" /><path d="M97,58 c-11.08,-10.423 -20.33,-25.237 -26,-42.5" fill="none" stroke="#000000" stroke-width="2" /></svg>