<?xml version='1.0' encoding='utf-8'?>
<svg xmlns="http://www.w3.org/2000/svg" height="100px" version="1.0" viewBox="0 0 100 100" width="100px" x="0px" y="0px">
<line fill="none" stroke="#000000" stroke-width="2" x1="14.5" x2="28.5" y1="11" y2="11" /><line fill="none" stroke="#000000" stroke-width="2" x1="9" x2="34" y1="45" y2="45" /><line fill="none" stroke="#000000" stroke-width="2" x1="21.5" x2="21.5" y1="27" y2="64" /><line fill="none" stroke="#000000" stroke-width="2" x1="67.5" x2="67.5" y1="48" y2="4" /><line fill="none" stroke="#000000" stroke-width="2" x1="95.5" x2="39.5" y1="25.5" y2="25.5" /><line fill="none" stroke="#000000" stroke-width="2" x1="50" x2="67" y1="50.5" y2="50.5" /><line fill="none" stroke="#000000" stroke-width="2" x1="85" x2="85" y1="94" y2="42.5" /><line fill="none" stroke="#000000" stroke-width="2" x1="70" x2="95.5" y1="55.5" y2="55.5" /><line fill="none" stroke="#000000" stroke-width="2" x1="71" x2="71" y1="77" y2="56.5" /><line fill="none" stroke="#000000" stroke-width="2" x1="96.5" x2="62" y1="78" y2="78" /><polyline fill="none" points="8,66 8,26 35,26 35,65 9,65" stroke="#000000" stroke-width="2" /><path d="M21,26 c2.311,-4.407 4.655,-9.57 6.57,-14.37" fill="none" stroke="#000000" stroke-width="2" /><path d="M3.5,32.5 c5.917,-9.088 10.051,-18.157 13.5,-30" fill="none" stroke="#000000" stroke-width="2" /><path d="M38.5,87.5 c-0.941,-5.596 -2.322,-12.039 -4,-18.5" fill="none" stroke="#000000" stroke-width="2" /><path d="M28,90.5 c-0.521,-6.352 -1.447,-13.318 -2.75,-20.75" fill="none" stroke="#000000" stroke-width="2" /><path d="M17.5,93.5 c-0.103,-7.107 -0.572,-14.597 -1.5,-23" fill="none" stroke="#000000" stroke-width="2" /><path d="M4,94.5 c2.512,-7.089 4.387,-15.212 5.5,-24.5" fill="none" stroke="#000000" stroke-width="2" /><path d="M57,21 c-4.445,-4.995 -9.32,-9.863 -14,-14" fill="none" stroke="#000000" stroke-width="2" /><path d="M78,21 c5.618,-4.448 10.652,-9.551 14,-14" fill="none" stroke="#000000" stroke-width="2" /><path d="M96,47 c-13.23,-6.864 -21.879,-14.011 -27.5,-21.5" fill="none" stroke="#000000" stroke-width="2" /><path d="M38,69 c6.832,-7.294 11.845,-16.166 15,-26.5" fill="none" stroke="#000000" stroke-width="2" /><path d="M66.001,51.454 C65.127,70.223 54.082,86.555 39,93" fill="none" stroke="#000000" stroke-width="2" /><path d="M60,73 c-3.766,-3.682 -8.65,-7.856 -13,-11" fill="none" stroke="#000000" stroke-width="2" /><path d="M39,47 c13.23,-6.864 21.879,-14.011 27.5,-21.5" fill="none" stroke="#000000" stroke-width="2" /></svg>