<?xml version='1.0' encoding='utf-8'?>
<svg xmlns="http://www.w3.org/2000/svg" height="100px" version="1.0" viewBox="0 0 100 100" width="100px" x="0px" y="0px">
<line fill="none" stroke="#000000" stroke-width="2" x1="9.5" x2="40" y1="84" y2="84" /><line fill="none" stroke="#000000" stroke-width="2" x1="49.5" x2="89" y1="27" y2="27" /><line fill="none" stroke="#000000" stroke-width="2" x1="49.5" x2="96" y1="51" y2="51" /><polyline fill="none" points="42,13 9.5,13 9.5,92" stroke="#000000" stroke-width="2" /><path d="M13,77 c10.329,-12.276 20.126,-33.981 25,-57" fill="none" stroke="#000000" stroke-width="2" /><path d="M14.5,26 c10.57,14.829 17.737,28.581 25,47.5" fill="none" stroke="#000000" stroke-width="2" /><path d="M85.5,81.5 c-1.595,-4.006 -3.402,-8.252 -5.5,-13" fill="none" stroke="#000000" stroke-width="2" /><path d="M72,85.5 c-1.111,-4.938 -2.499,-10.142 -4.25,-16" fill="none" stroke="#000000" stroke-width="2" /><path d="M58.5,89.5 c-0.627,-5.871 -1.596,-12.03 -3,-19" fill="none" stroke="#000000" stroke-width="2" /><path d="M40.5,92 c2.445,-6.483 4.594,-13.668 6.5,-22" fill="none" stroke="#000000" stroke-width="2" /><path d="M49.5,40.5 H90.0 V14.0 h-41.5 v49.0 h45.0 c0,22.796 -3.273,28.5 -8.5,28.5 c-2.529,0 -6.451,-0.328 -11,-1" fill="none" stroke="#000000" stroke-width="2" /><path d="M66,2.5 c-0.889,4.216 -1.853,7.964 -3,11.5" fill="none" stroke="#000000" stroke-width="2" /></svg>