<?xml version='1.0' encoding='utf-8'?>
<svg xmlns="http://www.w3.org/2000/svg" height="100px" version="1.0" viewBox="0 0 100 100" width="100px" x="0px" y="0px">
<line fill="none" stroke="#000000" stroke-width="2" x1="28" x2="45" y1="27.5" y2="27.5" /><line fill="none" stroke="#000000" stroke-width="2" x1="28" x2="28" y1="38" y2="20" /><line fill="none" stroke="#000000" stroke-width="2" x1="13.5" x2="13.5" y1="40.5" y2="24" /><line fill="none" stroke="#000000" stroke-width="2" x1="58.5" x2="91" y1="10" y2="10" /><line fill="none" stroke="#000000" stroke-width="2" x1="19" x2="79.5" y1="53" y2="53" /><line fill="none" stroke="#000000" stroke-width="2" x1="18" x2="93" y1="68" y2="68" /><polyline fill="none" points="12,20 44,20 44,9 11,9 11,21" stroke="#000000" stroke-width="2" /><polyline fill="none" points="54,39 88,39 88,27.5 53,27.5 53,40" stroke="#000000" stroke-width="2" /><path d="M47.5,16.5 c7.282,-3.416 13.027,-7.441 17,-11.5" fill="none" stroke="#000000" stroke-width="2" /><path d="M90.318,10.27 c-7.879,7.321 -21.18,13.247 -43.318,17.23" fill="none" stroke="#000000" stroke-width="2" /><path d="M55.5,12 c9.846,6.468 23.125,11.96 40,16" fill="none" stroke="#000000" stroke-width="2" /><path d="M6,41.5 c12.768,-1.798 26.744,-4.18 41,-7" fill="none" stroke="#000000" stroke-width="2" /><path d="M76,87.5 c-2.305,-2.783 -4.887,-5.723 -8,-9" fill="none" stroke="#000000" stroke-width="2" /><path d="M55,89.75 c-1.569,-3.323 -3.487,-6.819 -6,-10.75" fill="none" stroke="#000000" stroke-width="2" /><path d="M34,92 c-0.834,-3.863 -2.088,-7.917 -4,-12.5" fill="none" stroke="#000000" stroke-width="2" /><path d="M6,93 c3.813,-4.272 7.107,-8.999 10,-14.5" fill="none" stroke="#000000" stroke-width="2" /><path d="M19,61 h60.5 v-16.0 H18.0 v30.0 h71.0 c0,11.852 -4.155,17.5 -10.5,17.5 c-3.191,0 -7.793,-0.141 -13.5,-0.5" fill="none" stroke="#000000" stroke-width="2" /><path d="M46,37.5 c-1.16,2.753 -2.449,5.194 -4,7.5" fill="none" stroke="#000000" stroke-width="2" /></svg>