<?xml version='1.0' encoding='utf-8'?>
<svg xmlns="http://www.w3.org/2000/svg" height="100px" version="1.0" viewBox="0 0 100 100" width="100px" x="0px" y="0px">
<line fill="none" stroke="#000000" stroke-width="2" x1="67.5" x2="67.5" y1="34" y2="4.5" /><line fill="none" stroke="#000000" stroke-width="2" x1="93" x2="48" y1="12.5" y2="12.5" /><line fill="none" stroke="#000000" stroke-width="2" x1="27.5" x2="27.5" y1="34" y2="4.5" /><line fill="none" stroke="#000000" stroke-width="2" x1="44" x2="7" y1="12.5" y2="12.5" /><line fill="none" stroke="#000000" stroke-width="2" x1="62.5" x2="62.5" y1="38.5" y2="61" /><line fill="none" stroke="#000000" stroke-width="2" x1="38" x2="38" y1="38.5" y2="61" /><line fill="none" stroke="#000000" stroke-width="2" x1="51.5" x2="51.5" y1="37.5" y2="30" /><line fill="none" stroke="#000000" stroke-width="2" x1="28" x2="55.5" y1="74" y2="74" /><line fill="none" stroke="#000000" stroke-width="2" x1="28" x2="28" y1="90.5" y2="65.5" /><polyline fill="none" points="13.5,62 87,62 87,48 13.5,48" stroke="#000000" stroke-width="2" /><path d="M94.5,32.5 c-12.642,-6.456 -21.102,-12.997 -26.5,-20" fill="none" stroke="#000000" stroke-width="2" /><path d="M5.5,32.5 c10.328,-6.454 17.112,-12.937 21.5,-20" fill="none" stroke="#000000" stroke-width="2" /><path d="M40.5,32.5 c12.582,-6.337 20.916,-12.877 26.5,-20" fill="none" stroke="#000000" stroke-width="2" /><path d="M44.5,26 c-4.701,-4.371 -10.299,-8.829 -16.5,-13" fill="none" stroke="#000000" stroke-width="2" /><path d="M4.5,92.5 c4.898,-7.182 9,-21.003 9,-32.5 v-22.5 h78.5" fill="none" stroke="#000000" stroke-width="2" /><path d="M62.5,65.5 v21.0 c0,4.794 0.182,5 13.5,5 c15.89,0 16.105,-0.177 18,-13.5" fill="none" stroke="#000000" stroke-width="2" /><path d="M62.5,76 c10.826,-1.844 20.304,-4.302 31,-8" fill="none" stroke="#000000" stroke-width="2" /><path d="M13,92 c14.828,-1.322 28.18,-3.166 43.5,-6" fill="none" stroke="#000000" stroke-width="2" /></svg>