<?xml version='1.0' encoding='utf-8'?>
<svg xmlns="http://www.w3.org/2000/svg" height="100px" version="1.0" viewBox="0 0 100 100" width="100px" x="0px" y="0px">
<line fill="none" stroke="#000000" stroke-width="2" x1="41" x2="7" y1="14.5" y2="14.5" /><line fill="none" stroke="#000000" stroke-width="2" x1="40" x2="8" y1="28" y2="28" /><line fill="none" stroke="#000000" stroke-width="2" x1="25" x2="25" y1="41.5" y2="4" /><line fill="none" stroke="#000000" stroke-width="2" x1="5.5" x2="42.5" y1="41.5" y2="41.5" /><line fill="none" stroke="#000000" stroke-width="2" x1="43.5" x2="93.5" y1="10.5" y2="10.5" /><line fill="none" stroke="#000000" stroke-width="2" x1="16.5" x2="40.5" y1="54" y2="54" /><line fill="none" stroke="#000000" stroke-width="2" x1="59.5" x2="59.5" y1="26" y2="78" /><line fill="none" stroke="#000000" stroke-width="2" x1="77.5" x2="77.5" y1="78" y2="26" /><line fill="none" stroke="#000000" stroke-width="2" x1="76.5" x2="60.5" y1="42" y2="42" /><line fill="none" stroke="#000000" stroke-width="2" x1="76.5" x2="60.5" y1="60" y2="60" /><polyline fill="none" points="47.5,79 90.5,79 90.5,25 46.5,25 46.5,80" stroke="#000000" stroke-width="2" /><path d="M93.5,90 h-25.0 c-32.764,0 -47.165,-8.966 -53,-33.5" fill="none" stroke="#000000" stroke-width="2" /><path d="M68.5,10.5 c-0.771,5.379 -1.764,10.119 -3,14.5" fill="none" stroke="#000000" stroke-width="2" /><path d="M5,71.5 c7.21,-7.873 13.199,-18.665 16.5,-30" fill="none" stroke="#000000" stroke-width="2" /><path d="M5,92.5 c14.721,-6.661 28.086,-21.127 34.567,-37.862" fill="none" stroke="#000000" stroke-width="2" /></svg>