<?xml version='1.0' encoding='utf-8'?>
<svg xmlns="http://www.w3.org/2000/svg" height="100px" version="1.0" viewBox="0 0 100 100" width="100px" x="0px" y="0px">
<line fill="none" stroke="#000000" stroke-width="2" x1="72.5" x2="72.5" y1="94" y2="18.5" /><line fill="none" stroke="#000000" stroke-width="2" x1="92" x2="53.5" y1="35.5" y2="35.5" /><line fill="none" stroke="#000000" stroke-width="2" x1="33.5" x2="33.5" y1="94" y2="18.5" /><line fill="none" stroke="#000000" stroke-width="2" x1="49" x2="17" y1="35.5" y2="35.5" /><line fill="none" stroke="#000000" stroke-width="2" x1="52" x2="52" y1="13" y2="3" /><path d="M48,82.5 c11.271,-15.669 18.851,-30.554 24,-47.5" fill="none" stroke="#000000" stroke-width="2" /><path d="M95,79.5 c-10.224,-14.123 -17.656,-29.143 -22,-44.5" fill="none" stroke="#000000" stroke-width="2" /><path d="M13.5,77 c9.336,-13.542 15.584,-27.128 19.5,-42" fill="none" stroke="#000000" stroke-width="2" /><path d="M50.5,66 c-5.09,-9.691 -11.026,-20.181 -17,-30" fill="none" stroke="#000000" stroke-width="2" /><path d="M4,92 c6.048,-14.052 9,-29.832 9,-51 v-27.0 h79.5" fill="none" stroke="#000000" stroke-width="2" /></svg>