<?xml version='1.0' encoding='utf-8'?>
<svg xmlns="http://www.w3.org/2000/svg" height="100px" version="1.0" viewBox="0 0 100 100" width="100px" x="0px" y="0px">
<line fill="none" stroke="#000000" stroke-width="2" x1="25" x2="85" y1="89" y2="89" /><line fill="none" stroke="#000000" stroke-width="2" x1="51.5" x2="51.5" y1="13.5" y2="3" /><line fill="none" stroke="#000000" stroke-width="2" x1="72" x2="72" y1="43" y2="16" /><line fill="none" stroke="#000000" stroke-width="2" x1="91.5" x2="54" y1="24.5" y2="24.5" /><line fill="none" stroke="#000000" stroke-width="2" x1="34" x2="34" y1="43" y2="16" /><line fill="none" stroke="#000000" stroke-width="2" x1="50" x2="18" y1="24.5" y2="24.5" /><polyline fill="none" points="29,62 82,62 82,46 28,46 28,63" stroke="#000000" stroke-width="2" /><polyline fill="none" points="86,94 86,71 24,71 24,94" stroke="#000000" stroke-width="2" /><path d="M53,62 c-1.357,3.32 -3.014,6.246 -5,9" fill="none" stroke="#000000" stroke-width="2" /><path d="M4.5,92 c4.898,-10.415 9,-30.94 9,-47 v-31.5 h80.0" fill="none" stroke="#000000" stroke-width="2" /><path d="M93.5,44.5 c-9.33,-5.919 -16.757,-13.077 -21,-20" fill="none" stroke="#000000" stroke-width="2" /><path d="M16.5,44.5 c7.733,-6.017 13.51,-12.915 17,-20" fill="none" stroke="#000000" stroke-width="2" /><path d="M48.5,37 c-4.154,-3.867 -9.402,-8.258 -14.5,-12" fill="none" stroke="#000000" stroke-width="2" /><path d="M48,41.5 c11.242,-5.466 18.484,-10.943 23.5,-17" fill="none" stroke="#000000" stroke-width="2" /></svg>