<?xml version='1.0' encoding='utf-8'?>
<svg xmlns="http://www.w3.org/2000/svg" height="100px" version="1.0" viewBox="0 0 100 100" width="100px" x="0px" y="0px">
<line fill="none" stroke="#000000" stroke-width="2" x1="29.5" x2="29.5" y1="10.5" y2="64" /><line fill="none" stroke="#000000" stroke-width="2" x1="11.5" x2="47.5" y1="24" y2="24" /><line fill="none" stroke="#000000" stroke-width="2" x1="50" x2="8.5" y1="50" y2="50" /><line fill="none" stroke="#000000" stroke-width="2" x1="93.5" x2="52.5" y1="24.5" y2="24.5" /><polyline fill="none" points="11.5,39 48.5,39 48.5,9.5 10.5,9.5 10.5,40" stroke="#000000" stroke-width="2" /><path d="M92.5,92 c-4.201,-6.038 -9.068,-12.229 -15,-19" fill="none" stroke="#000000" stroke-width="2" /><path d="M67,92.25 c-2.518,-5.955 -5.578,-12.132 -9.5,-19" fill="none" stroke="#000000" stroke-width="2" /><path d="M41.5,92.5 c-0.834,-5.872 -2.088,-12.033 -4,-19" fill="none" stroke="#000000" stroke-width="2" /><path d="M7.5,92 c5.269,-5.368 10.214,-11.575 15,-19" fill="none" stroke="#000000" stroke-width="2" /><path d="M6.5,67.5 c14.908,-1.866 27.813,-4.052 44,-7.5" fill="none" stroke="#000000" stroke-width="2" /><path d="M80.5,6.5 c3.617,4.323 6.59,8.192 10,13" fill="none" stroke="#000000" stroke-width="2" /><path d="M49,67.5 c14.566,-11.907 23,-28.766 23,-45.751 V6.5" fill="none" stroke="#000000" stroke-width="2" /><path d="M94,67.5 c-14.229,-12.802 -22,-29.361 -22,-45.751" fill="none" stroke="#000000" stroke-width="2" /></svg>