<?xml version='1.0' encoding='utf-8'?>
<svg xmlns="http://www.w3.org/2000/svg" height="100px" version="1.0" viewBox="0 0 100 100" width="100px" x="0px" y="0px">
<line fill="none" stroke="#000000" stroke-width="2" x1="6.5" x2="47.5" y1="33" y2="33" /><line fill="none" stroke="#000000" stroke-width="2" x1="48.5" x2="5" y1="17" y2="17" /><line fill="none" stroke="#000000" stroke-width="2" x1="27" x2="27" y1="33" y2="6" /><line fill="none" stroke="#000000" stroke-width="2" x1="50" x2="93.5" y1="41" y2="41" /><line fill="none" stroke="#000000" stroke-width="2" x1="49" x2="96" y1="20" y2="20" /><line fill="none" stroke="#000000" stroke-width="2" x1="72" x2="72" y1="41" y2="5" /><polyline fill="none" points="9.5,62.5 9.5,42 45,42 45,61.5 10.5,61.5" stroke="#000000" stroke-width="2" /><path d="M4.5,90.5 c15.295,-1.931 28.447,-4.567 45,-9" fill="none" stroke="#000000" stroke-width="2" /><path d="M32.5,85.5 c3.688,-5.621 6.826,-12.448 9,-20" fill="none" stroke="#000000" stroke-width="2" /><path d="M20.5,84.5 c-2.183,-6.086 -4.832,-12.618 -7.5,-18.5" fill="none" stroke="#000000" stroke-width="2" /><path d="M45,91 c24.02,-8.351 39.322,-23.961 47.549,-49.309" fill="none" stroke="#000000" stroke-width="2" /><path d="M96,91 c-18.781,-9.64 -33.92,-25.635 -42,-44.5" fill="none" stroke="#000000" stroke-width="2" /></svg>