<?xml version='1.0' encoding='utf-8'?>
<svg xmlns="http://www.w3.org/2000/svg" height="100px" version="1.0" viewBox="0 0 100 100" width="100px" x="0px" y="0px">
<line fill="none" stroke="#000000" stroke-width="2" x1="56" x2="87" y1="25.5" y2="25.5" /><line fill="none" stroke="#000000" stroke-width="2" x1="13" x2="44" y1="25.5" y2="25.5" /><line fill="none" stroke="#000000" stroke-width="2" x1="16" x2="16" y1="44.5" y2="90" /><line fill="none" stroke="#000000" stroke-width="2" x1="50" x2="50" y1="44.5" y2="89.5" /><path d="M53.5,11.5 h33.5 v28.5 h-74.0 v-26.5 c11.141,-1.345 21.311,-3.591 30,-6.5" fill="none" stroke="#000000" stroke-width="2" /><path d="M84,44.5 c0,37.987 3.207,47.5 6.5,47.5 c2.172,0 4.832,-5.958 5.5,-22" fill="none" stroke="#000000" stroke-width="2" /><path d="M7,92 c15.376,-3.53 28.613,-7.618 36.5,-11" fill="none" stroke="#000000" stroke-width="2" /><path d="M39,92 c16.871,-3.53 31.347,-7.618 40,-11" fill="none" stroke="#000000" stroke-width="2" /><path d="M42.5,57 c-5.941,-3.016 -12.155,-5.784 -18,-8" fill="none" stroke="#000000" stroke-width="2" /><path d="M42.5,73.5 c-5.941,-3.016 -12.155,-5.784 -18,-8" fill="none" stroke="#000000" stroke-width="2" /><path d="M76.5,57 c-5.941,-3.016 -12.155,-5.784 -18,-8" fill="none" stroke="#000000" stroke-width="2" /><path d="M76.5,73.5 c-5.941,-3.016 -12.155,-5.784 -18,-8" fill="none" stroke="#000000" stroke-width="2" /></svg>