<?xml version='1.0' encoding='utf-8'?>
<svg xmlns="http://www.w3.org/2000/svg" height="100px" version="1.0" viewBox="0 0 100 100" width="100px" x="0px" y="0px">
<line fill="none" stroke="#000000" stroke-width="2" x1="54" x2="93" y1="52" y2="52" /><line fill="none" stroke="#000000" stroke-width="2" x1="20.5" x2="48.5" y1="53" y2="53" /><line fill="none" stroke="#000000" stroke-width="2" x1="20.5" x2="51.5" y1="66.5" y2="66.5" /><line fill="none" stroke="#000000" stroke-width="2" x1="20.5" x2="51.5" y1="81" y2="81" /><line fill="none" stroke="#000000" stroke-width="2" x1="20.5" x2="48.5" y1="37.5" y2="37.5" /><polyline fill="none" points="63,51 63,21 92,21" stroke="#000000" stroke-width="2" /><polyline fill="none" points="49.5,54 49.5,22.5 20.5,22.5 20.5,93.5" stroke="#000000" stroke-width="2" /><path d="M4,92 c4.68,-14.06 7,-29.832 7,-51 v-30.5 h82.0" fill="none" stroke="#000000" stroke-width="2" /><path d="M76,61 v25.5 c0,4.144 0.459,4.5 7.5,4.5 c8.61,0 8.768,-0.147 9.5,-21" fill="none" stroke="#000000" stroke-width="2" /><path d="M37.5,93 C65.846,81.089 84,55.253 84,22" fill="none" stroke="#000000" stroke-width="2" /><path d="M38,13 c-1.455,3.474 -3.085,6.552 -5,9.5" fill="none" stroke="#000000" stroke-width="2" /></svg>