<?xml version='1.0' encoding='utf-8'?>
<svg xmlns="http://www.w3.org/2000/svg" height="100px" version="1.0" viewBox="0 0 100 100" width="100px" x="0px" y="0px">
<line fill="none" stroke="#000000" stroke-width="2" x1="36" x2="90.5" y1="51" y2="51" /><line fill="none" stroke="#000000" stroke-width="2" x1="44.5" x2="81" y1="18" y2="18" /><line fill="none" stroke="#000000" stroke-width="2" x1="96" x2="31" y1="71.5" y2="71.5" /><polyline fill="none" points="36,61.5 90.5,61.5 90.5,28 35,28 35,62.5" stroke="#000000" stroke-width="2" /><polyline fill="none" points="9,82 28,82 28,13 8,13 8,90" stroke="#000000" stroke-width="2" /><path d="M54,19 v10.0 c0,9.005 -5.211,15.005 -15.5,18" fill="none" stroke="#000000" stroke-width="2" /><path d="M68,18 v18.5 c0,5.381 0.79,6 8.5,6 h13.0" fill="none" stroke="#000000" stroke-width="2" /><path d="M58,89.5 c-4.113,-4.628 -9.736,-9.775 -15.5,-14" fill="none" stroke="#000000" stroke-width="2" /><path d="M83,61.5 V84.0 c0,7.005 -0.5,7.5 -6.5,7.5 c-1.952,0 -6.883,-0.169 -13,-0.5" fill="none" stroke="#000000" stroke-width="2" /><path d="M50,9 c-4.781,5.314 -11.439,10.446 -20,15" fill="none" stroke="#000000" stroke-width="2" /><path d="M54,7.5 h18.5 c6.06,5.785 14.11,11.378 24,16.5" fill="none" stroke="#000000" stroke-width="2" /></svg>