<?xml version='1.0' encoding='utf-8'?>
<svg xmlns="http://www.w3.org/2000/svg" height="100px" version="1.0" viewBox="0 0 100 100" width="100px" x="0px" y="0px">
<line fill="none" stroke="#000000" stroke-width="2" x1="31" x2="8" y1="42" y2="42" /><line fill="none" stroke="#000000" stroke-width="2" x1="29" x2="7" y1="12" y2="12" /><polyline fill="none" points="38.5,77 89.5,77 89.5,11 37.5,11 37.5,78" stroke="#000000" stroke-width="2" /><polyline fill="none" points="54,61 74,61 74,26.5 53,26.5 53,62" stroke="#000000" stroke-width="2" /><path d="M5.5,92 c12.871,-12.497 21.553,-29.515 24.512,-49.149" fill="none" stroke="#000000" stroke-width="2" /><path d="M8.757,41.651 c8.062,-9.375 14.274,-18.751 19.345,-29.092" fill="none" stroke="#000000" stroke-width="2" /><path d="M5.5,72 c3.918,-6.38 6.764,-13.641 8.5,-22 c5.162,30.037 19.867,40 54,40 h25.0" fill="none" stroke="#000000" stroke-width="2" /></svg>