<?xml version='1.0' encoding='utf-8'?>
<svg xmlns="http://www.w3.org/2000/svg" height="100px" version="1.0" viewBox="0 0 100 100" width="100px" x="0px" y="0px">
<line fill="none" stroke="#000000" stroke-width="2" x1="16.5" x2="16.5" y1="94" y2="6" /><line fill="none" stroke="#000000" stroke-width="2" x1="27.5" x2="94" y1="14" y2="14" /><path d="M4,58 c2.624,-10.247 4.357,-21.376 5,-32" fill="none" stroke="#000000" stroke-width="2" /><path d="M26.5,47.5 c-0.573,-6.952 -1.604,-14.611 -3,-22" fill="none" stroke="#000000" stroke-width="2" /><path d="M24.5,64 c9.787,-11.337 16.406,-31.153 17.5,-59" fill="none" stroke="#000000" stroke-width="2" /><path d="M49.5,29.5 c-1.124,10.666 -4.41,20.796 -9,28.5" fill="none" stroke="#000000" stroke-width="2" /><path d="M90,28.5 c-2.01,10.708 -5.799,20.02 -11,27.5" fill="none" stroke="#000000" stroke-width="2" /><path d="M33,92 c19.887,-9.973 32,-28.657 32,-51.5 V20.0" fill="none" stroke="#000000" stroke-width="2" /><path d="M94.5,92 c-18.332,-9.973 -29.5,-28.657 -29.5,-51.5" fill="none" stroke="#000000" stroke-width="2" /></svg>