<?xml version='1.0' encoding='utf-8'?>
<svg xmlns="http://www.w3.org/2000/svg" height="100px" version="1.0" viewBox="0 0 100 100" width="100px" x="0px" y="0px">
<line fill="none" stroke="#000000" stroke-width="2" x1="93.5" x2="46" y1="15" y2="15" /><line fill="none" stroke="#000000" stroke-width="2" x1="33" x2="95.5" y1="54" y2="54" /><line fill="none" stroke="#000000" stroke-width="2" x1="36.5" x2="92.5" y1="81" y2="81" /><line fill="none" stroke="#000000" stroke-width="2" x1="9.5" x2="27" y1="45" y2="45" /><polyline fill="none" points="9.5,83 28,83 28,12 8.5,12 8.5,91" stroke="#000000" stroke-width="2" /><path d="M32.5,40 c7.295,-9.923 13.277,-22.526 17,-36" fill="none" stroke="#000000" stroke-width="2" /><path d="M35,88 c3.998,-18.408 7.376,-41.544 9,-60.5 h46.0 c-1.535,19.169 -4.044,41.593 -6.5,58.5 c-0.805,5.54 -2.035,6.5 -7.5,6.5 c-2.273,0 -6.25,-0.177 -11,-0.5" fill="none" stroke="#000000" stroke-width="2" /><path d="M76.5,48 c-5.985,-4.796 -13.551,-9.843 -22,-14.5" fill="none" stroke="#000000" stroke-width="2" /><path d="M73,74.5 c-5.985,-4.796 -13.551,-9.843 -22,-14.5" fill="none" stroke="#000000" stroke-width="2" /></svg>