<?xml version='1.0' encoding='utf-8'?>
<svg xmlns="http://www.w3.org/2000/svg" height="100px" version="1.0" viewBox="0 0 100 100" width="100px" x="0px" y="0px">
<line fill="none" stroke="#000000" stroke-width="2" x1="82.5" x2="40.5" y1="30" y2="30" /><line fill="none" stroke="#000000" stroke-width="2" x1="53" x2="53" y1="60.5" y2="89" /><line fill="none" stroke="#000000" stroke-width="2" x1="69" x2="69" y1="60.5" y2="89" /><line fill="none" stroke="#000000" stroke-width="2" x1="25" x2="95" y1="90" y2="90" /><polyline fill="none" points="85,90 85,60.5 37,60.5 37,89" stroke="#000000" stroke-width="2" /><path d="M8,91.5 c6.24,-9.315 11.438,-19.819 15,-30.5" fill="none" stroke="#000000" stroke-width="2" /><path d="M26,22.5 c-4.551,-4.456 -9.955,-9.209 -16,-14" fill="none" stroke="#000000" stroke-width="2" /><path d="M21.5,45.5 c-5.014,-4.892 -10.751,-9.858 -17.5,-15" fill="none" stroke="#000000" stroke-width="2" /><path d="M47.5,11.5 c-4.974,7.151 -11.989,13.928 -21,20" fill="none" stroke="#000000" stroke-width="2" /><path d="M51.5,9.5 h20.0 c6.314,7.796 14.59,15.17 25,22" fill="none" stroke="#000000" stroke-width="2" /><path d="M47.5,46.5 c-4.974,7.151 -11.989,13.928 -21,20" fill="none" stroke="#000000" stroke-width="2" /><path d="M51.5,44.5 h20.0 c6.314,7.796 14.59,15.17 25,22" fill="none" stroke="#000000" stroke-width="2" /></svg>