<?xml version='1.0' encoding='utf-8'?>
<svg xmlns="http://www.w3.org/2000/svg" height="100px" version="1.0" viewBox="0 0 100 100" width="100px" x="0px" y="0px">
<line fill="none" stroke="#000000" stroke-width="2" x1="7" x2="93" y1="14.5" y2="14.5" /><line fill="none" stroke="#000000" stroke-width="2" x1="32" x2="32" y1="23" y2="3.5" /><line fill="none" stroke="#000000" stroke-width="2" x1="68" x2="68" y1="23" y2="3.5" /><line fill="none" stroke="#000000" stroke-width="2" x1="19" x2="81" y1="36" y2="36" /><line fill="none" stroke="#000000" stroke-width="2" x1="18" x2="18" y1="65" y2="89" /><line fill="none" stroke="#000000" stroke-width="2" x1="18" x2="77" y1="83" y2="83" /><polyline fill="none" points="19,48 82,48 82,24 18,24 18,49" stroke="#000000" stroke-width="2" /><path d="M76,92 c-4.406,0 -11.446,-0.175 -19,-0.5" fill="none" stroke="#000000" stroke-width="2" /><path d="M22,58 h68.5 c0,27.142 -5.124,34 -14.5,34" fill="none" stroke="#000000" stroke-width="2" /><path d="M2.5,71 c11.441,-5.501 24.168,-15.556 29.5,-23" fill="none" stroke="#000000" stroke-width="2" /><path d="M26,78.5 c12.691,-5.263 20.952,-12.492 24.5,-20.5" fill="none" stroke="#000000" stroke-width="2" /><path d="M69.5,79 c-7.492,-4.955 -15.977,-9.025 -25,-12" fill="none" stroke="#000000" stroke-width="2" /></svg>