<?xml version='1.0' encoding='utf-8'?>
<svg xmlns="http://www.w3.org/2000/svg" height="100px" version="1.0" viewBox="0 0 100 100" width="100px" x="0px" y="0px">
<line fill="none" stroke="#000000" stroke-width="2" x1="18.5" x2="38" y1="9.5" y2="9.5" /><line fill="none" stroke="#000000" stroke-width="2" x1="11.5" x2="45" y1="42" y2="42" /><line fill="none" stroke="#000000" stroke-width="2" x1="12.5" x2="45" y1="30" y2="30" /><line fill="none" stroke="#000000" stroke-width="2" x1="28.5" x2="28.5" y1="19.5" y2="41" /><line fill="none" stroke="#000000" stroke-width="2" x1="94" x2="49" y1="43.5" y2="43.5" /><line fill="none" stroke="#000000" stroke-width="2" x1="56.5" x2="92" y1="31.5" y2="31.5" /><line fill="none" stroke="#000000" stroke-width="2" x1="73.5" x2="73.5" y1="55.5" y2="26" /><line fill="none" stroke="#000000" stroke-width="2" x1="50" x2="50" y1="89" y2="52" /><polyline fill="none" points="17,75.5 84,75.5 84,60.5 16,60.5 16,82" stroke="#000000" stroke-width="2" /><path d="M30,18.5 c2.529,-2.635 5.102,-5.719 7.189,-8.59" fill="none" stroke="#000000" stroke-width="2" /><path d="M7,21 c7.038,-5.298 12.346,-11.633 15.5,-18.5" fill="none" stroke="#000000" stroke-width="2" /><path d="M7,55.5 c3.811,-5.676 5.5,-12.77 5.5,-28 v-9.0 h32.5 v30.0 c0,5.079 -0.436,5.5 -6,5.5 c-1.975,0 -5.652,-0.131 -11.5,-0.5" fill="none" stroke="#000000" stroke-width="2" /><path d="M49,40 c4.58,-4.005 8.039,-8.747 10,-13.5" fill="none" stroke="#000000" stroke-width="2" /><path d="M49,26 c13.767,-3.732 20.904,-10.209 21.5,-17" fill="none" stroke="#000000" stroke-width="2" /><path d="M49,9 h42.0 c-0.732,12.327 -2.361,14.5 -7.5,14.5 c-2.524,0 -8.918,-0.216 -13,-0.5" fill="none" stroke="#000000" stroke-width="2" /><path d="M94,93.5 c-5.668,-4.544 -13.432,-10.374 -20,-15" fill="none" stroke="#000000" stroke-width="2" /><path d="M8,91.5 c23.123,-0.733 49.219,-2.792 75.5,-6" fill="none" stroke="#000000" stroke-width="2" /></svg>