<?xml version='1.0' encoding='utf-8'?>
<svg xmlns="http://www.w3.org/2000/svg" height="100px" version="1.0" viewBox="0 0 100 100" width="100px" x="0px" y="0px">
<line fill="none" stroke="#000000" stroke-width="2" x1="43.5" x2="86.5" y1="41" y2="41" /><line fill="none" stroke="#000000" stroke-width="2" x1="65" x2="65" y1="57.5" y2="21.5" /><line fill="none" stroke="#000000" stroke-width="2" x1="33.5" x2="4" y1="24" y2="24" /><line fill="none" stroke="#000000" stroke-width="2" x1="18.5" x2="18.5" y1="24" y2="6" /><line fill="none" stroke="#000000" stroke-width="2" x1="18.5" x2="18.5" y1="94" y2="50.5" /><line fill="none" stroke="#000000" stroke-width="2" x1="35" x2="95" y1="68.5" y2="68.5" /><polyline fill="none" points="39.5,63 39.5,14 90.5,14 90.5,63" stroke="#000000" stroke-width="2" /><path d="M45.5,22.5 c13.542,0 26.589,-1.53 39,-4.5" fill="none" stroke="#000000" stroke-width="2" /><path d="M43,60 c10.398,-5.976 17.211,-12.239 21.5,-19" fill="none" stroke="#000000" stroke-width="2" /><path d="M56,41 c-1.834,-5.161 -3.959,-10.522 -6,-15" fill="none" stroke="#000000" stroke-width="2" /><path d="M74,41 c2.482,-5.527 4.658,-11.511 6,-16.5" fill="none" stroke="#000000" stroke-width="2" /><path d="M34,66.5 c-3.641,-5.128 -9.679,-12.612 -14.5,-18" fill="none" stroke="#000000" stroke-width="2" /><path d="M2.5,65.5 c14.356,-10.141 23.476,-22.278 30.059,-40.834" fill="none" stroke="#000000" stroke-width="2" /><path d="M26,56 c3.371,-3.937 6.654,-8.925 9.5,-14.5" fill="none" stroke="#000000" stroke-width="2" /><path d="M32,92.5 c19.383,-3.551 33,-15.249 33,-25 v-7.0" fill="none" stroke="#000000" stroke-width="2" /><path d="M95,92.5 c-17.512,-3.528 -30,-15.192 -30,-25" fill="none" stroke="#000000" stroke-width="2" /><path d="M58.5,14 c2.063,-3.499 4.018,-7.231 5.5,-10.5" fill="none" stroke="#000000" stroke-width="2" /><path d="M87,60 c-10.398,-5.976 -17.211,-12.239 -21.5,-19" fill="none" stroke="#000000" stroke-width="2" /></svg>