<?xml version='1.0' encoding='utf-8'?>
<svg xmlns="http://www.w3.org/2000/svg" height="100px" version="1.0" viewBox="0 0 100 100" width="100px" x="0px" y="0px">
<line fill="none" stroke="#000000" stroke-width="2" x1="29" x2="93" y1="37" y2="37" /><line fill="none" stroke="#000000" stroke-width="2" x1="90" x2="32" y1="10.5" y2="10.5" /><polyline fill="none" points="23,75 23,56.5 6,56.5" stroke="#000000" stroke-width="2" /><path d="M66,10.5 V69.0 c0,7.551 -0.438,8 -6.5,8 c-3.26,0 -8.193,-0.201 -13.5,-0.5" fill="none" stroke="#000000" stroke-width="2" /><path d="M9,8 c5.725,4.463 10.574,8.562 16,13.5" fill="none" stroke="#000000" stroke-width="2" /><path d="M9,31 c5.725,4.464 10.574,8.562 16,13.5" fill="none" stroke="#000000" stroke-width="2" /><path d="M6,92 c8.029,-5.713 13.36,-11.114 17,-17" fill="none" stroke="#000000" stroke-width="2" /><path d="M93,90 h-34.0 c-21.543,0 -30.148,-3.961 -36,-15" fill="none" stroke="#000000" stroke-width="2" /></svg>