<?xml version='1.0' encoding='utf-8'?>
<svg xmlns="http://www.w3.org/2000/svg" height="100px" version="1.0" viewBox="0 0 100 100" width="100px" x="0px" y="0px">
<line fill="none" stroke="#000000" stroke-width="2" x1="54.5" x2="89.5" y1="87" y2="87" /><line fill="none" stroke="#000000" stroke-width="2" x1="11.5" x2="43.5" y1="43" y2="43" /><line fill="none" stroke="#000000" stroke-width="2" x1="10.5" x2="46.5" y1="68" y2="68" /><line fill="none" stroke="#000000" stroke-width="2" x1="10.5" x2="46.5" y1="81" y2="81" /><line fill="none" stroke="#000000" stroke-width="2" x1="17" x2="41" y1="22" y2="22" /><polyline fill="none" points="90.5,94 90.5,53 53.5,53 53.5,94" stroke="#000000" stroke-width="2" /><polyline fill="none" points="11.5,56 43.5,56 43.5,31 10.5,31 10.5,94" stroke="#000000" stroke-width="2" /><path d="M96,47.5 c-3.676,-9.48 -9.003,-20.903 -14,-30" fill="none" stroke="#000000" stroke-width="2" /><path d="M49,41 c12.41,-0.586 27.826,-2.407 42,-5" fill="none" stroke="#000000" stroke-width="2" /><path d="M55,40.5 c4.089,-10.245 8.329,-22.664 12,-35.5" fill="none" stroke="#000000" stroke-width="2" /><path d="M50.5,22 c-8.234,-4.952 -14.957,-10.044 -21.5,-16.5 c-7.432,8.159 -15.351,15.136 -24.5,21.5" fill="none" stroke="#000000" stroke-width="2" /></svg>