<?xml version='1.0' encoding='utf-8'?>
<svg xmlns="http://www.w3.org/2000/svg" height="100px" version="1.0" viewBox="0 0 100 100" width="100px" x="0px" y="0px">
<line fill="none" stroke="#000000" stroke-width="2" x1="11.5" x2="44.5" y1="43" y2="43" /><line fill="none" stroke="#000000" stroke-width="2" x1="10.5" x2="46" y1="68" y2="68" /><line fill="none" stroke="#000000" stroke-width="2" x1="10.5" x2="46" y1="81" y2="81" /><line fill="none" stroke="#000000" stroke-width="2" x1="17" x2="41" y1="22" y2="22" /><line fill="none" stroke="#000000" stroke-width="2" x1="56.5" x2="56.5" y1="12" y2="77.5" /><line fill="none" stroke="#000000" stroke-width="2" x1="96" x2="49" y1="11" y2="11" /><line fill="none" stroke="#000000" stroke-width="2" x1="89" x2="89" y1="94.5" y2="12" /><line fill="none" stroke="#000000" stroke-width="2" x1="57.5" x2="88" y1="53.5" y2="53.5" /><line fill="none" stroke="#000000" stroke-width="2" x1="57.5" x2="88" y1="31.5" y2="31.5" /><polyline fill="none" points="11.5,56 44.5,56 44.5,31 10.5,31 10.5,94" stroke="#000000" stroke-width="2" /><path d="M50.5,22 c-8.234,-4.952 -14.957,-10.044 -21.5,-16.5 c-7.432,8.159 -15.351,15.136 -24.5,21.5" fill="none" stroke="#000000" stroke-width="2" /><path d="M48,78.5 c15.004,-1.876 31.858,-4.825 48,-8.5" fill="none" stroke="#000000" stroke-width="2" /></svg>