<?xml version='1.0' encoding='utf-8'?>
<svg xmlns="http://www.w3.org/2000/svg" height="100px" version="1.0" viewBox="0 0 100 100" width="100px" x="0px" y="0px">
<line fill="none" stroke="#000000" stroke-width="2" x1="14.5" x2="28.5" y1="11" y2="11" /><line fill="none" stroke="#000000" stroke-width="2" x1="9" x2="34" y1="45" y2="45" /><line fill="none" stroke="#000000" stroke-width="2" x1="21.5" x2="21.5" y1="27" y2="64" /><polyline fill="none" points="8,66 8,26 35,26 35,65 9,65" stroke="#000000" stroke-width="2" /><path d="M21,26 c2.311,-4.407 4.655,-9.57 6.57,-14.37" fill="none" stroke="#000000" stroke-width="2" /><path d="M3.5,32.5 c5.917,-9.088 10.051,-18.157 13.5,-30" fill="none" stroke="#000000" stroke-width="2" /><path d="M38.5,87.5 c-0.941,-5.596 -2.322,-12.039 -4,-18.5" fill="none" stroke="#000000" stroke-width="2" /><path d="M28,90.5 c-0.521,-6.352 -1.447,-13.318 -2.75,-20.75" fill="none" stroke="#000000" stroke-width="2" /><path d="M17.5,93.5 c-0.103,-7.107 -0.572,-14.597 -1.5,-23" fill="none" stroke="#000000" stroke-width="2" /><path d="M4,94.5 c2.512,-7.089 4.387,-15.212 5.5,-24.5" fill="none" stroke="#000000" stroke-width="2" /><path d="M68.08,11 H93.0 v18.0 h-21.5 c-0.803,9.283 -2.033,18.24 -3.5,26" fill="none" stroke="#000000" stroke-width="2" /><path d="M39.58,11 h23.92 v18.0 h-21.0 c-0.803,9.283 -2.033,18.24 -3.5,26" fill="none" stroke="#000000" stroke-width="2" /><path d="M69.5,46.5 h24.0 c-2.045,42.262 -3.088,44 -7.5,44 c-2.209,0 -7.742,-0.411 -12,-1" fill="none" stroke="#000000" stroke-width="2" /><path d="M68,65 c9.309,-4.656 17.647,-11.006 24.5,-18.5" fill="none" stroke="#000000" stroke-width="2" /><path d="M41,65 c8.387,-4.656 15.826,-11.006 22,-18.5" fill="none" stroke="#000000" stroke-width="2" /><path d="M68,82.5 c9.309,-4.656 17.647,-11.006 24.5,-18.5" fill="none" stroke="#000000" stroke-width="2" /><path d="M41,82.5 c8.387,-4.656 15.826,-11.006 22,-18.5" fill="none" stroke="#000000" stroke-width="2" /><path d="M40.5,46.5 H64.0 c-2.045,42.262 -3.088,44 -7,44 c-2.209,0 -7.243,-0.403 -11.5,-1" fill="none" stroke="#000000" stroke-width="2" /></svg>