<?xml version='1.0' encoding='utf-8'?>
<svg xmlns="http://www.w3.org/2000/svg" height="100px" version="1.0" viewBox="0 0 100 100" width="100px" x="0px" y="0px">
<line fill="none" stroke="#000000" stroke-width="2" x1="82" x2="18" y1="11" y2="11" /><line fill="none" stroke="#000000" stroke-width="2" x1="92.5" x2="7.5" y1="89" y2="89" /><line fill="none" stroke="#000000" stroke-width="2" x1="7.5" x2="43.5" y1="36" y2="36" /><path d="M51,28 v42.0 c0,7.276 -0.683,8 -7.5,8 c-4,0 -8.863,-0.168 -14.5,-0.5" fill="none" stroke="#000000" stroke-width="2" /><path d="M81.385,11.211 c-9.078,7.059 -18.451,12.591 -30.385,17.789" fill="none" stroke="#000000" stroke-width="2" /><path d="M51,28.5 c7.681,18.444 24.045,36.213 43.5,47.5" fill="none" stroke="#000000" stroke-width="2" /><path d="M90.5,31 c-8.307,7.39 -17.488,13.431 -27.5,18" fill="none" stroke="#000000" stroke-width="2" /><path d="M42.59,36.586 c-6.697,14.722 -20.268,29.07 -37.09,38.414" fill="none" stroke="#000000" stroke-width="2" /></svg>