<?xml version='1.0' encoding='utf-8'?>
<svg xmlns="http://www.w3.org/2000/svg" height="100px" version="1.0" viewBox="0 0 100 100" width="100px" x="0px" y="0px">
<line fill="none" stroke="#000000" stroke-width="2" x1="57.5" x2="9" y1="44.5" y2="44.5" /><path d="M19,38 c-2.666,-6.61 -5.619,-12.517 -8.5,-17" fill="none" stroke="#000000" stroke-width="2" /><path d="M35.5,35.5 c-2.467,-6.588 -5.192,-12.361 -8,-17" fill="none" stroke="#000000" stroke-width="2" /><path d="M44,39.5 c4.704,-6.483 9.27,-15.204 13,-25" fill="none" stroke="#000000" stroke-width="2" /><path d="M7,14 c19.536,-0.573 36.925,-2.485 52,-5.5" fill="none" stroke="#000000" stroke-width="2" /><path d="M5,69.5 c18.461,-1.28 37.244,-3.599 56.5,-7" fill="none" stroke="#000000" stroke-width="2" /><path d="M33,57 v26.0 c0,7.036 -1.006,8 -6.5,8 c-3.636,0 -7.875,-0.169 -13,-0.5" fill="none" stroke="#000000" stroke-width="2" /><path d="M56.871,44.722 c-7.15,5.792 -14.294,9.814 -23.871,13.278" fill="none" stroke="#000000" stroke-width="2" /><path d="M67,8 v76.0 c0,5.99 1.334,7 12.5,7 c15.19,0 15.403,-0.214 16.5,-29" fill="none" stroke="#000000" stroke-width="2" /></svg>