<?xml version='1.0' encoding='utf-8'?>
<svg xmlns="http://www.w3.org/2000/svg" height="100px" version="1.0" viewBox="0 0 100 100" width="100px" x="0px" y="0px">
<line fill="none" stroke="#000000" stroke-width="2" x1="22.5" x2="95.5" y1="47" y2="47" /><line fill="none" stroke="#000000" stroke-width="2" x1="29" x2="89" y1="31" y2="31" /><line fill="none" stroke="#000000" stroke-width="2" x1="26" x2="92" y1="16" y2="16" /><line fill="none" stroke="#000000" stroke-width="2" x1="59" x2="59" y1="47" y2="4" /><line fill="none" stroke="#000000" stroke-width="2" x1="42" x2="42" y1="89" y2="60.5" /><line fill="none" stroke="#000000" stroke-width="2" x1="15.5" x2="15.5" y1="94" y2="31.3" /><path d="M58,47 c-8.397,9.31 -20.684,17.653 -37.5,24.5" fill="none" stroke="#000000" stroke-width="2" /><path d="M59.5,47 c6.109,20.021 20.225,36.312 38,44.5" fill="none" stroke="#000000" stroke-width="2" /><path d="M25,91.5 c14.82,-1.945 27.693,-4.481 43,-8.5" fill="none" stroke="#000000" stroke-width="2" /><path d="M72,71 c7.084,-5.032 13.793,-11.59 19,-18.5" fill="none" stroke="#000000" stroke-width="2" /><path d="M23.5,6 c-4.303,19.29 -11.811,36.252 -21.5,49.5" fill="none" stroke="#000000" stroke-width="2" /></svg>