<?xml version='1.0' encoding='utf-8'?>
<svg xmlns="http://www.w3.org/2000/svg" height="100px" version="1.0" viewBox="0 0 100 100" width="100px" x="0px" y="0px">
<line fill="none" stroke="#000000" stroke-width="2" x1="16.5" x2="16.5" y1="94" y2="28.8" /><line fill="none" stroke="#000000" stroke-width="2" x1="61" x2="61" y1="74.5" y2="11" /><line fill="none" stroke="#000000" stroke-width="2" x1="86.5" x2="35.5" y1="42" y2="42" /><line fill="none" stroke="#000000" stroke-width="2" x1="86.5" x2="35.5" y1="26" y2="26" /><polyline fill="none" points="34.5,43 34.5,10 87.5,10 87.5,43" stroke="#000000" stroke-width="2" /><path d="M23.5,6 c-4.303,19.29 -11.811,36.252 -21.5,49.5" fill="none" stroke="#000000" stroke-width="2" /><path d="M76,90.5 c5.624,0.363 8.998,0.5 10.5,0.5 c4.994,0 5.5,-0.614 5.5,-8 v-28.5 h-62.0 v38.0" fill="none" stroke="#000000" stroke-width="2" /><path d="M86.5,80.5 c-3.147,-6.317 -7.813,-14.318 -12,-20.5" fill="none" stroke="#000000" stroke-width="2" /><path d="M36,77.5 c14.154,-0.974 29.883,-3.63 44.5,-7.5" fill="none" stroke="#000000" stroke-width="2" /></svg>