<?xml version='1.0' encoding='utf-8'?>
<svg xmlns="http://www.w3.org/2000/svg" height="100px" version="1.0" viewBox="0 0 100 100" width="100px" x="0px" y="0px">
<line fill="none" stroke="#000000" stroke-width="2" x1="26.5" x2="94" y1="16" y2="16" /><line fill="none" stroke="#000000" stroke-width="2" x1="46" x2="46" y1="27" y2="4.5" /><line fill="none" stroke="#000000" stroke-width="2" x1="76" x2="76" y1="27" y2="4.5" /><line fill="none" stroke="#000000" stroke-width="2" x1="38" x2="90" y1="73" y2="73" /><line fill="none" stroke="#000000" stroke-width="2" x1="38" x2="90" y1="57" y2="57" /><line fill="none" stroke="#000000" stroke-width="2" x1="64" x2="64" y1="43" y2="92.5" /><line fill="none" stroke="#000000" stroke-width="2" x1="14" x2="14" y1="94" y2="33" /><path d="M37,93.5 V42.0 h54.0 v42.5 c0,6.833 -0.657,7.5 -5.5,7.5 c-1.764,0 -5.271,-0.155 -10.5,-0.5" fill="none" stroke="#000000" stroke-width="2" /><path d="M19.5,91 c5.317,-10.972 8,-23.576 8,-40 v-20.0 h67.5" fill="none" stroke="#000000" stroke-width="2" /><path d="M22,6 c-4.002,19.29 -10.986,36.252 -20,49.5" fill="none" stroke="#000000" stroke-width="2" /></svg>