<?xml version='1.0' encoding='utf-8'?>
<svg xmlns="http://www.w3.org/2000/svg" height="100px" version="1.0" viewBox="0 0 100 100" width="100px" x="0px" y="0px">
<line fill="none" stroke="#000000" stroke-width="2" x1="26" x2="94" y1="34.5" y2="34.5" /><line fill="none" stroke="#000000" stroke-width="2" x1="92" x2="28" y1="13.5" y2="13.5" /><line fill="none" stroke="#000000" stroke-width="2" x1="89" x2="31" y1="24" y2="24" /><line fill="none" stroke="#000000" stroke-width="2" x1="60.5" x2="60.5" y1="34.5" y2="5" /><line fill="none" stroke="#000000" stroke-width="2" x1="34" x2="86.5" y1="64.5" y2="64.5" /><line fill="none" stroke="#000000" stroke-width="2" x1="34" x2="86.5" y1="53.5" y2="53.5" /><line fill="none" stroke="#000000" stroke-width="2" x1="16" x2="16" y1="94" y2="31.3" /><polyline fill="none" points="34,75.5 87.5,75.5 87.5,42.5 33,42.5 33,76.5" stroke="#000000" stroke-width="2" /><path d="M25.5,92.5 c10.975,-3.419 20.404,-8.134 26,-12.5" fill="none" stroke="#000000" stroke-width="2" /><path d="M94,93 c-6.705,-4.196 -15.931,-8.71 -26,-12.5" fill="none" stroke="#000000" stroke-width="2" /><path d="M24,6 c-4.303,19.29 -11.811,36.252 -21.5,49.5" fill="none" stroke="#000000" stroke-width="2" /></svg>