<?xml version='1.0' encoding='utf-8'?>
<svg xmlns="http://www.w3.org/2000/svg" height="100px" version="1.0" viewBox="0 0 100 100" width="100px" x="0px" y="0px">
<line fill="none" stroke="#000000" stroke-width="2" x1="16" x2="16" y1="94" y2="31.3" /><line fill="none" stroke="#000000" stroke-width="2" x1="38" x2="85" y1="33" y2="33" /><line fill="none" stroke="#000000" stroke-width="2" x1="25.5" x2="95" y1="53" y2="53" /><line fill="none" stroke="#000000" stroke-width="2" x1="94" x2="39" y1="14" y2="14" /><polyline fill="none" points="38,45 86,45 86,21.5 37,21.5 37,46" stroke="#000000" stroke-width="2" /><path d="M24,6 c-4.303,19.29 -11.811,36.252 -21.5,49.5" fill="none" stroke="#000000" stroke-width="2" /><path d="M51,93.5 c11.66,-6.316 24.551,-20.328 29,-31.5" fill="none" stroke="#000000" stroke-width="2" /><path d="M31.5,88 c11.627,-5.901 24.864,-17.253 30.5,-26" fill="none" stroke="#000000" stroke-width="2" /><path d="M42.5,62 h48.5 c0,23.362 -3.691,29.5 -8.5,29.5 c-3.276,0 -7.634,-0.163 -12,-0.5" fill="none" stroke="#000000" stroke-width="2" /><path d="M23,77 c10.238,-5.542 21.836,-15.89 27,-24" fill="none" stroke="#000000" stroke-width="2" /><path d="M25.5,35 c7.559,-8.317 13.897,-19.521 17.5,-31" fill="none" stroke="#000000" stroke-width="2" /></svg>