<?xml version='1.0' encoding='utf-8'?>
<svg xmlns="http://www.w3.org/2000/svg" height="100px" version="1.0" viewBox="0 0 100 100" width="100px" x="0px" y="0px">
<line fill="none" stroke="#000000" stroke-width="2" x1="47" x2="96" y1="10.5" y2="10.5" /><line fill="none" stroke="#000000" stroke-width="2" x1="54" x2="90" y1="57" y2="57" /><line fill="none" stroke="#000000" stroke-width="2" x1="54" x2="90" y1="41" y2="41" /><line fill="none" stroke="#000000" stroke-width="2" x1="13.5" x2="13.5" y1="94" y2="34" /><polyline fill="none" points="54,73.5 91,73.5 91,25.5 53,25.5 53,74.5" stroke="#000000" stroke-width="2" /><path d="M44,92.5 c8.43,-3.835 15.711,-9.067 20,-14" fill="none" stroke="#000000" stroke-width="2" /><path d="M95.5,93 c-5.168,-4.882 -12.237,-10.108 -20,-14.5" fill="none" stroke="#000000" stroke-width="2" /><path d="M72,10.5 c-0.84,5.553 -1.836,10.448 -3,15" fill="none" stroke="#000000" stroke-width="2" /><path d="M26.5,47.5 c7.652,-4.842 14.314,-11.147 22,-21" fill="none" stroke="#000000" stroke-width="2" /><path d="M26.5,14.5 v59.5 c0,4.056 0.627,4.5 9,4.5 c8.908,0 9.283,-0.304 10,-24" fill="none" stroke="#000000" stroke-width="2" /><path d="M22,6 c-4.002,19.29 -10.986,36.252 -20,49.5" fill="none" stroke="#000000" stroke-width="2" /></svg>