<?xml version='1.0' encoding='utf-8'?>
<svg xmlns="http://www.w3.org/2000/svg" height="100px" version="1.0" viewBox="0 0 100 100" width="100px" x="0px" y="0px">
<line fill="none" stroke="#000000" stroke-width="2" x1="60" x2="60" y1="24" y2="40" /><line fill="none" stroke="#000000" stroke-width="2" x1="40" x2="73" y1="12.5" y2="12.5" /><line fill="none" stroke="#000000" stroke-width="2" x1="14" x2="14" y1="94" y2="33" /><polyline fill="none" points="30,23.5 30,41 91,41 91,23 31,23" stroke="#000000" stroke-width="2" /><path d="M64.5,23 c2.793,-3.225 5.563,-6.858 7.661,-10.053" fill="none" stroke="#000000" stroke-width="2" /><path d="M20,30.5 c11.356,-7.206 19.553,-15.691 25,-25.5" fill="none" stroke="#000000" stroke-width="2" /><path d="M22.5,56.5 c16.43,-4.415 28.393,-9.869 36,-15.5" fill="none" stroke="#000000" stroke-width="2" /><path d="M46.5,90.5 c5.842,0.349 10.367,0.5 13.5,0.5 c5.59,0 7.5,-2.4 7.5,-14.5 c0,-12.778 -5.931,-24.358 -15.5,-31" fill="none" stroke="#000000" stroke-width="2" /><path d="M21.5,72.5 c18.296,-4.765 30.965,-10.7 39.5,-17.5" fill="none" stroke="#000000" stroke-width="2" /><path d="M20.5,89 c21.292,-5.636 36.207,-13.001 46,-21.5" fill="none" stroke="#000000" stroke-width="2" /><path d="M93.5,47.5 c-6.311,6.253 -13.313,11.3 -21,15" fill="none" stroke="#000000" stroke-width="2" /><path d="M62.5,41 c4.951,18.344 18.746,37.037 35,47.5" fill="none" stroke="#000000" stroke-width="2" /><path d="M22,6 c-4.002,19.29 -10.986,36.252 -20,49.5" fill="none" stroke="#000000" stroke-width="2" /></svg>