<?xml version='1.0' encoding='utf-8'?>
<svg xmlns="http://www.w3.org/2000/svg" height="100px" version="1.0" viewBox="0 0 100 100" width="100px" x="0px" y="0px">
<line fill="none" stroke="#000000" stroke-width="2" x1="60" x2="60" y1="19" y2="47" /><line fill="none" stroke="#000000" stroke-width="2" x1="34" x2="86" y1="88" y2="88" /><line fill="none" stroke="#000000" stroke-width="2" x1="34" x2="86" y1="72" y2="72" /><line fill="none" stroke="#000000" stroke-width="2" x1="29" x2="91" y1="32.5" y2="32.5" /><line fill="none" stroke="#000000" stroke-width="2" x1="16.5" x2="16.5" y1="94" y2="31.3" /><polyline fill="none" points="87,94 87,57 33,57 33,94" stroke="#000000" stroke-width="2" /><polyline fill="none" points="29,48 92,48 92,18 28,18 28,49" stroke="#000000" stroke-width="2" /><path d="M49,18 c-3.202,-4.438 -6.659,-8.795 -10,-12.5" fill="none" stroke="#000000" stroke-width="2" /><path d="M71,18 c3.777,-4.119 7.357,-8.616 10,-12.5" fill="none" stroke="#000000" stroke-width="2" /><path d="M24.5,6 c-4.303,19.29 -11.811,36.252 -21.5,49.5" fill="none" stroke="#000000" stroke-width="2" /></svg>