<?xml version='1.0' encoding='utf-8'?>
<svg xmlns="http://www.w3.org/2000/svg" height="100px" version="1.0" viewBox="0 0 100 100" width="100px" x="0px" y="0px">
<line fill="none" stroke="#000000" stroke-width="2" x1="40.5" x2="82.5" y1="69" y2="69" /><line fill="none" stroke="#000000" stroke-width="2" x1="24.5" x2="93.5" y1="10.5" y2="10.5" /><line fill="none" stroke="#000000" stroke-width="2" x1="34" x2="84" y1="27.5" y2="27.5" /><line fill="none" stroke="#000000" stroke-width="2" x1="34" x2="84" y1="36.5" y2="36.5" /><line fill="none" stroke="#000000" stroke-width="2" x1="13" x2="13" y1="94" y2="34" /><polyline fill="none" points="93.5,58.5 93.5,45.5 24.5,45.5 24.5,58.5" stroke="#000000" stroke-width="2" /><polyline fill="none" points="85,44.5 85,18.5 33,18.5 33,44.5" stroke="#000000" stroke-width="2" /><path d="M22.5,91.5 c26.511,-3.411 47.93,-12.164 59.338,-22.249" fill="none" stroke="#000000" stroke-width="2" /><path d="M95.5,91.5 c-22.305,-2.956 -42.975,-10.589 -55,-19.5" fill="none" stroke="#000000" stroke-width="2" /><path d="M43,49 v8.5 c0,4.863 0.17,5 15,5 c18.344,0 18.531,-0.146 19.5,-10.5" fill="none" stroke="#000000" stroke-width="2" /><path d="M24.5,65 c4.545,-3.687 8.737,-9.063 11,-14" fill="none" stroke="#000000" stroke-width="2" /><path d="M92.5,65 c-2.97,-4.325 -6.902,-9.177 -11.5,-14" fill="none" stroke="#000000" stroke-width="2" /><path d="M66.5,56 c-4.681,-2.441 -10.206,-4.872 -16,-7" fill="none" stroke="#000000" stroke-width="2" /><path d="M22.5,79 c10.811,-4.425 20.175,-10.689 25.5,-16.5" fill="none" stroke="#000000" stroke-width="2" /><path d="M59,10.5 c-1.156,2.968 -2.633,5.585 -4.5,8" fill="none" stroke="#000000" stroke-width="2" /><path d="M21.5,6 c-4.002,19.29 -10.986,36.252 -20,49.5" fill="none" stroke="#000000" stroke-width="2" /></svg>