<?xml version='1.0' encoding='utf-8'?>
<svg xmlns="http://www.w3.org/2000/svg" height="100px" version="1.0" viewBox="0 0 100 100" width="100px" x="0px" y="0px">
<line fill="none" stroke="#000000" stroke-width="2" x1="38" x2="38" y1="20.5" y2="94" /><line fill="none" stroke="#000000" stroke-width="2" x1="93" x2="38.5" y1="20" y2="20" /><line fill="none" stroke="#000000" stroke-width="2" x1="67" x2="67" y1="87" y2="20" /><line fill="none" stroke="#000000" stroke-width="2" x1="39" x2="95" y1="87" y2="87" /><line fill="none" stroke="#000000" stroke-width="2" x1="38" x2="90.5" y1="64" y2="64" /><line fill="none" stroke="#000000" stroke-width="2" x1="38" x2="90.5" y1="41.5" y2="41.5" /><path d="M6,89.5 c8.342,-10.068 15.25,-21.444 20,-33" fill="none" stroke="#000000" stroke-width="2" /><path d="M23,30 c-4.577,-6.477 -10.034,-12.941 -16.5,-19.5" fill="none" stroke="#000000" stroke-width="2" /><path d="M75,4 c-2.308,5.901 -5.102,11.103 -8.501,16" fill="none" stroke="#000000" stroke-width="2" /><path d="M24,40 c9.281,-9.49 15.979,-20.97 20.5,-36" fill="none" stroke="#000000" stroke-width="2" /></svg>