<?xml version='1.0' encoding='utf-8'?>
<svg xmlns="http://www.w3.org/2000/svg" height="100px" version="1.0" viewBox="0 0 100 100" width="100px" x="0px" y="0px">
<line fill="none" stroke="#000000" stroke-width="2" x1="6.5" x2="60.5" y1="17.5" y2="17.5" /><line fill="none" stroke="#000000" stroke-width="2" x1="33.5" x2="33.5" y1="17.5" y2="5" /><line fill="none" stroke="#000000" stroke-width="2" x1="67.5" x2="67.5" y1="74" y2="12" /><path d="M6.5,69.5 c18.713,-8.581 34.49,-24.179 44,-44" fill="none" stroke="#000000" stroke-width="2" /><path d="M6.5,90 c21.004,-7.435 39.506,-22.948 51,-42" fill="none" stroke="#000000" stroke-width="2" /><path d="M33,51 c-6.516,-6.759 -15.012,-14.535 -22.5,-20.5" fill="none" stroke="#000000" stroke-width="2" /><path d="M20,38.5 c4.697,-5.478 9.189,-12.38 13.5,-21" fill="none" stroke="#000000" stroke-width="2" /><path d="M90.5,8 v75.0 c0,7.13 -0.867,8 -6.5,8 c-2.75,0 -6.917,-0.144 -12.5,-0.5" fill="none" stroke="#000000" stroke-width="2" /><path d="M60.5,90.5 c-4.623,-8.011 -10.664,-14.918 -19.5,-22" fill="none" stroke="#000000" stroke-width="2" /></svg>