<?xml version='1.0' encoding='utf-8'?>
<svg xmlns="http://www.w3.org/2000/svg" height="100px" version="1.0" viewBox="0 0 100 100" width="100px" x="0px" y="0px">
<line fill="none" stroke="#000000" stroke-width="2" x1="68.5" x2="68.5" y1="74" y2="12" /><line fill="none" stroke="#000000" stroke-width="2" x1="14" x2="53" y1="86.5" y2="86.5" /><line fill="none" stroke="#000000" stroke-width="2" x1="33.5" x2="33.5" y1="52.5" y2="17.5" /><line fill="none" stroke="#000000" stroke-width="2" x1="6" x2="61" y1="52.5" y2="52.5" /><line fill="none" stroke="#000000" stroke-width="2" x1="11" x2="56" y1="39" y2="39" /><line fill="none" stroke="#000000" stroke-width="2" x1="13" x2="54" y1="26" y2="26" /><line fill="none" stroke="#000000" stroke-width="2" x1="33.5" x2="33.5" y1="14" y2="3.5" /><polyline fill="none" points="54,93.5 54,63 13,63 13,93.5" stroke="#000000" stroke-width="2" /><polyline fill="none" points="59,29.5 59,14 8,14 8,29.5" stroke="#000000" stroke-width="2" /><path d="M89.5,8 v75.0 c0,7.13 -0.866,8 -6.5,8 c-2.75,0 -6.917,-0.144 -12.5,-0.5" fill="none" stroke="#000000" stroke-width="2" /></svg>