<?xml version='1.0' encoding='utf-8'?>
<svg xmlns="http://www.w3.org/2000/svg" height="100px" version="1.0" viewBox="0 0 100 100" width="100px" x="0px" y="0px">
<line fill="none" stroke="#000000" stroke-width="2" x1="30" x2="30" y1="20.5" y2="3" /><line fill="none" stroke="#000000" stroke-width="2" x1="14" x2="50.5" y1="35" y2="27" /><line fill="none" stroke="#000000" stroke-width="2" x1="30" x2="56" y1="11.5" y2="11.5" /><line fill="none" stroke="#000000" stroke-width="2" x1="67.5" x2="67.5" y1="74" y2="12" /><line fill="none" stroke="#000000" stroke-width="2" x1="14.5" x2="59" y1="49" y2="49" /><path d="M52.5,32 c2.594,-3.291 4.628,-6.657 6.584,-10.914" fill="none" stroke="#000000" stroke-width="2" /><path d="M4,91 c4.313,-14.092 6.5,-29.671 6.5,-51 v-19.5 h49.5" fill="none" stroke="#000000" stroke-width="2" /><path d="M27,20.5 v15.5 c0,6.292 0.229,6.5 13.5,6.5 c16.848,0 17.059,-0.203 17.5,-9.5" fill="none" stroke="#000000" stroke-width="2" /><path d="M90.5,8 v75.0 c0,7.13 -0.866,8 -6.5,8 c-2.75,0 -6.917,-0.144 -12.5,-0.5" fill="none" stroke="#000000" stroke-width="2" /><path d="M13.5,63 c11.83,-3.787 19.885,-8.436 25.5,-14" fill="none" stroke="#000000" stroke-width="2" /><path d="M12.5,76 c12.359,-4.07 20.779,-8.911 26.5,-14.5" fill="none" stroke="#000000" stroke-width="2" /><path d="M12,89 c14.356,-4.938 23.861,-10.634 30.5,-17.5" fill="none" stroke="#000000" stroke-width="2" /><path d="M57.5,54.5 c-4.543,4.719 -10.102,9.052 -15.5,12" fill="none" stroke="#000000" stroke-width="2" /><path d="M40.5,64.5 c4.947,7.513 13.33,15.22 23,21" fill="none" stroke="#000000" stroke-width="2" /><path d="M26,90.5 c5.545,0.347 10.027,0.5 13,0.5 c3.592,0 4.5,-1.119 4.5,-11.5 c0,-10.664 -4.141,-20.24 -10.5,-25.5" fill="none" stroke="#000000" stroke-width="2" /></svg>