<?xml version='1.0' encoding='utf-8'?>
<svg xmlns="http://www.w3.org/2000/svg" height="100px" version="1.0" viewBox="0 0 100 100" width="100px" x="0px" y="0px">
<line fill="none" stroke="#000000" stroke-width="2" x1="6.5" x2="52.5" y1="18" y2="18" /><line fill="none" stroke="#000000" stroke-width="2" x1="30" x2="30" y1="18" y2="5" /><path d="M6.5,69.5 c17.012,-8.581 31.355,-24.179 40,-44" fill="none" stroke="#000000" stroke-width="2" /><path d="M6.5,89.5 c18.173,-7.203 34.785,-22.54 45,-41.5" fill="none" stroke="#000000" stroke-width="2" /><path d="M30.5,51 c-5.848,-7.088 -13.619,-15.069 -20.5,-21" fill="none" stroke="#000000" stroke-width="2" /><path d="M18.5,38 c4.018,-5.246 7.858,-11.839 11.5,-20" fill="none" stroke="#000000" stroke-width="2" /><path d="M50,84 c-3.256,-5.815 -7.168,-10.761 -13,-16" fill="none" stroke="#000000" stroke-width="2" /><path d="M43,92 c17.021,-16.926 23,-34.719 23,-86" fill="none" stroke="#000000" stroke-width="2" /><path d="M51,26 h40.5 c0,58.538 -2.684,64 -10,64 c-3.222,0 -9.236,-0.354 -16,-1" fill="none" stroke="#000000" stroke-width="2" /></svg>