<?xml version='1.0' encoding='utf-8'?>
<svg xmlns="http://www.w3.org/2000/svg" height="100px" version="1.0" viewBox="0 0 100 100" width="100px" x="0px" y="0px">
<line fill="none" stroke="#000000" stroke-width="2" x1="46.5" x2="6" y1="39" y2="39" /><line fill="none" stroke="#000000" stroke-width="2" x1="8" x2="46" y1="11" y2="11" /><line fill="none" stroke="#000000" stroke-width="2" x1="56.5" x2="94.5" y1="13.5" y2="13.5" /><path d="M28.5,39 v43.0 c0,8.442 -0.49,9 -5,9 c-1.602,0 -5.98,-0.18 -11,-0.5" fill="none" stroke="#000000" stroke-width="2" /><path d="M5,79 c8.881,-10.218 16.807,-23.728 23,-40" fill="none" stroke="#000000" stroke-width="2" /><path d="M13.5,18.5 c6.162,5.865 12.607,12.823 19,20.5" fill="none" stroke="#000000" stroke-width="2" /><path d="M45.2,11.4 c-4.967,6.632 -11.653,13.693 -19.2,20.1" fill="none" stroke="#000000" stroke-width="2" /><path d="M45.581,39.603 c-3.213,7.396 -6.991,13.756 -11.581,19.397" fill="none" stroke="#000000" stroke-width="2" /><path d="M45,51.5 c20.695,-6.591 36.126,-20.728 42,-38" fill="none" stroke="#000000" stroke-width="2" /><path d="M95,51.5 c-17.443,-7.132 -31.334,-20.751 -38.5,-38" fill="none" stroke="#000000" stroke-width="2" /><path d="M42,33 c7.912,-7.691 14.691,-17.902 18.5,-28" fill="none" stroke="#000000" stroke-width="2" /><path d="M36,91.5 c19.113,-8.852 29.209,-23.074 30,-45.5" fill="none" stroke="#000000" stroke-width="2" /><path d="M41,58.5 h48.5 c0,27.108 -3.008,31.5 -10,31.5 c-2.741,0 -8.389,-0.382 -13.5,-1" fill="none" stroke="#000000" stroke-width="2" /></svg>