<?xml version='1.0' encoding='utf-8'?>
<svg xmlns="http://www.w3.org/2000/svg" height="100px" version="1.0" viewBox="0 0 100 100" width="100px" x="0px" y="0px">
<line fill="none" stroke="#000000" stroke-width="2" x1="48.5" x2="9.5" y1="43.5" y2="43.5" /><line fill="none" stroke="#000000" stroke-width="2" x1="28.5" x2="28.5" y1="55.5" y2="35" /><line fill="none" stroke="#000000" stroke-width="2" x1="49.5" x2="6" y1="23.5" y2="23.5" /><line fill="none" stroke="#000000" stroke-width="2" x1="47" x2="10.5" y1="13" y2="13" /><line fill="none" stroke="#000000" stroke-width="2" x1="28.5" x2="28.5" y1="23.5" y2="4.5" /><path d="M10.5,65.5 h77.0 c-0.98,21.865 -3.904,25 -13.5,25 c-5.066,0 -12.398,-0.321 -21.5,-1" fill="none" stroke="#000000" stroke-width="2" /><path d="M10,92.5 c25.502,-6.618 38,-19.442 38,-35" fill="none" stroke="#000000" stroke-width="2" /><path d="M6,40.5 c10.857,-3.56 16.399,-9.439 17,-17" fill="none" stroke="#000000" stroke-width="2" /><path d="M35,24.5 v8.0 c0,3.157 0.418,3.5 7.5,3.5 c6.77,0 7.664,-0.912 8,-9" fill="none" stroke="#000000" stroke-width="2" /><path d="M55.5,28 c7.842,5.06 15.1,11.619 24.5,22.5" fill="none" stroke="#000000" stroke-width="2" /><path d="M52,59 c10.781,-8.437 16,-19.979 16,-39 v-15.5" fill="none" stroke="#000000" stroke-width="2" /><path d="M50,52.5 c-11.075,1.995 -25.043,3.847 -43.5,5.5" fill="none" stroke="#000000" stroke-width="2" /><path d="M51,15.5 h35.0 C86,50.34 89.407,59 92.5,59 c1.304,0 3.363,-4.5 4.5,-16.5" fill="none" stroke="#000000" stroke-width="2" /></svg>