<?xml version='1.0' encoding='utf-8'?>
<svg xmlns="http://www.w3.org/2000/svg" height="100px" version="1.0" viewBox="0 0 100 100" width="100px" x="0px" y="0px">
<line fill="none" stroke="#000000" stroke-width="2" x1="9" x2="49.5" y1="73" y2="73" /><line fill="none" stroke="#000000" stroke-width="2" x1="7" x2="51.5" y1="59.5" y2="59.5" /><line fill="none" stroke="#000000" stroke-width="2" x1="30" x2="30" y1="88.5" y2="30" /><line fill="none" stroke="#000000" stroke-width="2" x1="5" x2="55" y1="16" y2="16" /><line fill="none" stroke="#000000" stroke-width="2" x1="19" x2="19" y1="25" y2="5" /><line fill="none" stroke="#000000" stroke-width="2" x1="41" x2="41" y1="25" y2="5" /><polyline fill="none" points="10.5,47.5 50.5,47.5 50.5,29 9.5,29 9.5,48.5" stroke="#000000" stroke-width="2" /><path d="M52,92 c11.84,-16.926 16,-34.719 16,-86" fill="none" stroke="#000000" stroke-width="2" /><path d="M53.5,28 h39.0 c0,56.077 -2.25,62 -8.5,62 c-2.687,0 -7.361,-0.33 -13,-1" fill="none" stroke="#000000" stroke-width="2" /><path d="M5,91 c15.18,-1.188 30.337,-3.164 46,-6" fill="none" stroke="#000000" stroke-width="2" /></svg>