<?xml version='1.0' encoding='utf-8'?>
<svg xmlns="http://www.w3.org/2000/svg" height="100px" version="1.0" viewBox="0 0 100 100" width="100px" x="0px" y="0px">
<line fill="none" stroke="#000000" stroke-width="2" x1="30" x2="68.5" y1="11" y2="11" /><path d="M54.5,27.5 c4.627,-4.856 9.578,-10.887 13.173,-16.064" fill="none" stroke="#000000" stroke-width="2" /><path d="M5.5,36.5 c13.139,-9.145 22.908,-20.289 29,-33" fill="none" stroke="#000000" stroke-width="2" /><path d="M70.5,69.5 c-3.871,0 -9.994,-0.307 -17.5,-1" fill="none" stroke="#000000" stroke-width="2" /><path d="M70.5,69.5 c4.537,0 5.971,-1.618 8,-27 H35.0 v41.0 c0,6.626 0.377,7.006 8.5,7.5 c5.627,0.344 10.459,0.5 16,0.5 c5.438,0 12.03,-0.192 18,-0.5 c11.802,-0.609 11.933,-0.734 14.5,-18.5" fill="none" stroke="#000000" stroke-width="2" /><path d="M6.5,92 c7.392,-14.052 11,-29.832 11,-51 v-13.5 h74.0" fill="none" stroke="#000000" stroke-width="2" /></svg>