<?xml version='1.0' encoding='utf-8'?>
<svg xmlns="http://www.w3.org/2000/svg" height="100px" version="1.0" viewBox="0 0 100 100" width="100px" x="0px" y="0px">
<line fill="none" stroke="#000000" stroke-width="2" x1="12" x2="12" y1="15" y2="71" /><path d="M11.162,15.986 c12.117,-1.986 22.799,-4.545 35.338,-8.486" fill="none" stroke="#000000" stroke-width="2" /><path d="M58,93.5 v-82.0 h32.0 v59.5 c0,7.578 -0.471,8 -6.5,8 c-1.828,0 -9.691,-0.225 -16,-0.5" fill="none" stroke="#000000" stroke-width="2" /><path d="M4.5,73 c12.92,-3.496 23.972,-7.547 38,-14" fill="none" stroke="#000000" stroke-width="2" /><path d="M10,94.5 c25.005,-8.243 33,-19.214 33,-47.5 v-28.5" fill="none" stroke="#000000" stroke-width="2" /><path d="M83,59.5 c-4.139,-9.925 -10.109,-21.06 -16.5,-30.5" fill="none" stroke="#000000" stroke-width="2" /><path d="M35.5,52.5 c-4.013,-8.461 -9.803,-17.952 -16,-26" fill="none" stroke="#000000" stroke-width="2" /></svg>