<?xml version='1.0' encoding='utf-8'?>
<svg xmlns="http://www.w3.org/2000/svg" height="100px" version="1.0" viewBox="0 0 100 100" width="100px" x="0px" y="0px">
<line fill="none" stroke="#000000" stroke-width="2" x1="63.5" x2="94" y1="36" y2="36" /><line fill="none" stroke="#000000" stroke-width="2" x1="23" x2="23" y1="43" y2="84" /><line fill="none" stroke="#000000" stroke-width="2" x1="36.5" x2="36.5" y1="28" y2="42" /><line fill="none" stroke="#000000" stroke-width="2" x1="57" x2="16" y1="42" y2="42" /><line fill="none" stroke="#000000" stroke-width="2" x1="54" x2="19" y1="28" y2="28" /><line fill="none" stroke="#000000" stroke-width="2" x1="50" x2="50" y1="94.5" y2="42" /><line fill="none" stroke="#000000" stroke-width="2" x1="24" x2="50" y1="68.5" y2="68.5" /><line fill="none" stroke="#000000" stroke-width="2" x1="24" x2="50" y1="55" y2="55" /><path d="M4,92 c5.376,-14.052 8,-29.832 8,-51 v-23.0 h81.0" fill="none" stroke="#000000" stroke-width="2" /><path d="M32.5,18 c-3.115,-4.695 -6.549,-9.147 -10,-13" fill="none" stroke="#000000" stroke-width="2" /><path d="M55.5,18 c-3.117,-5.032 -6.549,-9.873 -10,-14" fill="none" stroke="#000000" stroke-width="2" /><path d="M71.5,18 c3.871,-4.696 7.309,-9.527 10,-14" fill="none" stroke="#000000" stroke-width="2" /><path d="M54.5,92 c20.893,-11.616 29.524,-24.661 33,-56" fill="none" stroke="#000000" stroke-width="2" /><path d="M54.5,58.5 c5.163,-9.659 9.562,-22.616 12,-35.5" fill="none" stroke="#000000" stroke-width="2" /><path d="M95.5,92 c-19.168,-10.999 -27.949,-24.954 -30,-50.5" fill="none" stroke="#000000" stroke-width="2" /><path d="M14,85 c11.16,-1.198 23.984,-3.167 36,-5.5" fill="none" stroke="#000000" stroke-width="2" /></svg>