<?xml version='1.0' encoding='utf-8'?>
<svg xmlns="http://www.w3.org/2000/svg" height="100px" version="1.0" viewBox="0 0 100 100" width="100px" x="0px" y="0px">
<line fill="none" stroke="#000000" stroke-width="2" x1="37" x2="95.5" y1="16.5" y2="16.5" /><line fill="none" stroke="#000000" stroke-width="2" x1="66.5" x2="66.5" y1="16.5" y2="4" /><polyline fill="none" points="9.5,82 31.5,82 31.5,13 8.5,13 8.5,90" stroke="#000000" stroke-width="2" /><path d="M36,70.5 c21.263,-8.681 38.956,-24.435 49.5,-44" fill="none" stroke="#000000" stroke-width="2" /><path d="M35,91 c23.223,-7.318 44.076,-22.928 57,-42" fill="none" stroke="#000000" stroke-width="2" /><path d="M66,51.5 c-7.603,-7.021 -17.637,-14.939 -26.5,-21" fill="none" stroke="#000000" stroke-width="2" /><path d="M50.5,38.5 c5.287,-5.829 10.466,-13.121 15.5,-22" fill="none" stroke="#000000" stroke-width="2" /><path d="M95.5,91.5 c-5.413,-7.862 -12.17,-14.807 -22,-22" fill="none" stroke="#000000" stroke-width="2" /></svg>