<?xml version='1.0' encoding='utf-8'?>
<svg xmlns="http://www.w3.org/2000/svg" height="100px" version="1.0" viewBox="0 0 100 100" width="100px" x="0px" y="0px">
<line fill="none" stroke="#000000" stroke-width="2" x1="6.5" x2="93.5" y1="59.5" y2="59.5" /><line fill="none" stroke="#000000" stroke-width="2" x1="93.5" x2="6.5" y1="41.5" y2="41.5" /><line fill="none" stroke="#000000" stroke-width="2" x1="10.5" x2="89.5" y1="14.5" y2="14.5" /><line fill="none" stroke="#000000" stroke-width="2" x1="16.5" x2="83.5" y1="28" y2="28" /><line fill="none" stroke="#000000" stroke-width="2" x1="50" x2="50" y1="59.5" y2="14.5" /><line fill="none" stroke="#000000" stroke-width="2" x1="19" x2="81" y1="88" y2="88" /><polyline fill="none" points="82,94 82,68 18,68 18,94" stroke="#000000" stroke-width="2" /><path d="M66,59.5 c3.615,-3.571 6.631,-7.628 9,-12" fill="none" stroke="#000000" stroke-width="2" /><path d="M34,59.5 c-2.515,-3.986 -5.613,-8.124 -9,-12" fill="none" stroke="#000000" stroke-width="2" /><path d="M37,14.5 c-2.562,-3.905 -5.327,-7.739 -8,-11" fill="none" stroke="#000000" stroke-width="2" /><path d="M63,14.5 c3.021,-3.625 5.886,-7.582 8,-11" fill="none" stroke="#000000" stroke-width="2" /></svg>