<?xml version='1.0' encoding='utf-8'?>
<svg xmlns="http://www.w3.org/2000/svg" height="100px" version="1.0" viewBox="0 0 100 100" width="100px" x="0px" y="0px">
<line fill="none" stroke="#000000" stroke-width="2" x1="47.5" x2="78.5" y1="11" y2="11" /><line fill="none" stroke="#000000" stroke-width="2" x1="30.5" x2="96.5" y1="65" y2="65" /><polyline fill="none" points="9.5,82 27.5,82 27.5,13 8.5,13 8.5,90" stroke="#000000" stroke-width="2" /><polyline fill="none" points="38,64 38,25 90.5,25 90.5,64" stroke="#000000" stroke-width="2" /><path d="M67.5,25 c3.576,-4.155 7.203,-9.023 10.167,-13.549" fill="none" stroke="#000000" stroke-width="2" /><path d="M30,31.5 c9.967,-8.036 17.379,-17.829 22,-29" fill="none" stroke="#000000" stroke-width="2" /><path d="M25.5,92 c22.299,-3.902 38,-16.933 38,-27 v-11.0" fill="none" stroke="#000000" stroke-width="2" /><path d="M95.5,92 c-18.779,-3.902 -32,-16.933 -32,-27" fill="none" stroke="#000000" stroke-width="2" /><path d="M57,26 c0,18.897 -3.313,24.878 -16.5,32" fill="none" stroke="#000000" stroke-width="2" /><path d="M70,26 v15.0 c0,9.211 0.764,10 10,10 h9.5" fill="none" stroke="#000000" stroke-width="2" /></svg>