<?xml version='1.0' encoding='utf-8'?>
<svg xmlns="http://www.w3.org/2000/svg" height="100px" version="1.0" viewBox="0 0 100 100" width="100px" x="0px" y="0px">
<line fill="none" stroke="#000000" stroke-width="2" x1="32" x2="95.5" y1="34.5" y2="34.5" /><line fill="none" stroke="#000000" stroke-width="2" x1="93.5" x2="34" y1="13.5" y2="13.5" /><line fill="none" stroke="#000000" stroke-width="2" x1="90.5" x2="37" y1="24" y2="24" /><line fill="none" stroke="#000000" stroke-width="2" x1="64" x2="64" y1="34.5" y2="5" /><line fill="none" stroke="#000000" stroke-width="2" x1="38.5" x2="88.5" y1="64.5" y2="64.5" /><line fill="none" stroke="#000000" stroke-width="2" x1="38.5" x2="88.5" y1="53.5" y2="53.5" /><polyline fill="none" points="38.5,75.5 89.5,75.5 89.5,42.5 37.5,42.5 37.5,76.5" stroke="#000000" stroke-width="2" /><polyline fill="none" points="10,82 28,82 28,13 9,13 9,90" stroke="#000000" stroke-width="2" /><path d="M30.5,92.5 c10.549,-3.419 19.629,-8.124 25,-12.5" fill="none" stroke="#000000" stroke-width="2" /><path d="M95.5,93 c-6.438,-4.208 -15.315,-8.728 -25,-12.5" fill="none" stroke="#000000" stroke-width="2" /></svg>