<?xml version='1.0' encoding='utf-8'?>
<svg xmlns="http://www.w3.org/2000/svg" height="100px" version="1.0" viewBox="0 0 100 100" width="100px" x="0px" y="0px">
<line fill="none" stroke="#000000" stroke-width="2" x1="64" x2="64" y1="19" y2="47" /><line fill="none" stroke="#000000" stroke-width="2" x1="39.5" x2="88.5" y1="88" y2="88" /><line fill="none" stroke="#000000" stroke-width="2" x1="39.5" x2="88.5" y1="72" y2="72" /><line fill="none" stroke="#000000" stroke-width="2" x1="35.5" x2="92.5" y1="32.5" y2="32.5" /><polyline fill="none" points="89.5,94 89.5,57 38.5,57 38.5,94" stroke="#000000" stroke-width="2" /><polyline fill="none" points="35.5,48 93.5,48 93.5,18 34.5,18 34.5,49" stroke="#000000" stroke-width="2" /><polyline fill="none" points="9.5,82 28,82 28,13 8.5,13 8.5,90" stroke="#000000" stroke-width="2" /><path d="M53.5,18 c-2.882,-4.438 -5.993,-8.795 -9,-12.5" fill="none" stroke="#000000" stroke-width="2" /><path d="M74.5,18 c3.398,-4.119 6.621,-8.616 9,-12.5" fill="none" stroke="#000000" stroke-width="2" /></svg>