<?xml version='1.0' encoding='utf-8'?>
<svg xmlns="http://www.w3.org/2000/svg" height="100px" version="1.0" viewBox="0 0 100 100" width="100px" x="0px" y="0px">
<line fill="none" stroke="#000000" stroke-width="2" x1="62.5" x2="62.5" y1="93.5" y2="54.5" /><line fill="none" stroke="#000000" stroke-width="2" x1="94.5" x2="30.5" y1="63" y2="63" /><polyline fill="none" points="35.5,52.5 59.5,52.5 59.5,34 34.5,34 34.5,53.5" stroke="#000000" stroke-width="2" /><polyline fill="none" points="67.5,52.5 91.5,52.5 91.5,34 66.5,34 66.5,53.5" stroke="#000000" stroke-width="2" /><polyline fill="none" points="41,27 86,27 86,9 40,9 40,28" stroke="#000000" stroke-width="2" /><polyline fill="none" points="9.5,82 27.5,82 27.5,13 8.5,13 8.5,90" stroke="#000000" stroke-width="2" /><path d="M27.5,89 c15.098,-7.159 27.379,-16.962 34,-26" fill="none" stroke="#000000" stroke-width="2" /><path d="M96,89 c-14.791,-7.785 -25.434,-16.469 -32.5,-26" fill="none" stroke="#000000" stroke-width="2" /></svg>