<?xml version='1.0' encoding='utf-8'?>
<svg xmlns="http://www.w3.org/2000/svg" height="100px" version="1.0" viewBox="0 0 100 100" width="100px" x="0px" y="0px">
<line fill="none" stroke="#000000" stroke-width="2" x1="34.5" x2="95" y1="16.5" y2="16.5" /><line fill="none" stroke="#000000" stroke-width="2" x1="65" x2="65" y1="16.5" y2="4" /><line fill="none" stroke="#000000" stroke-width="2" x1="5" x2="36" y1="29.5" y2="29.5" /><line fill="none" stroke="#000000" stroke-width="2" x1="19" x2="19" y1="74" y2="8" /><path d="M35.5,70.5 c21.263,-8.681 38.956,-24.435 49.5,-44" fill="none" stroke="#000000" stroke-width="2" /><path d="M31,91 c24.615,-7.318 46.801,-22.928 60.5,-42" fill="none" stroke="#000000" stroke-width="2" /><path d="M65.5,51.5 c-7.603,-7.021 -17.637,-14.939 -26.5,-21" fill="none" stroke="#000000" stroke-width="2" /><path d="M50,38.5 c5.287,-5.829 10.466,-13.121 15.5,-22" fill="none" stroke="#000000" stroke-width="2" /><path d="M95,91.5 c-5.413,-7.862 -12.17,-14.807 -22,-22" fill="none" stroke="#000000" stroke-width="2" /><path d="M5,80 c10.593,-4.156 19.674,-8.87 31,-16" fill="none" stroke="#000000" stroke-width="2" /></svg>