<?xml version='1.0' encoding='utf-8'?>
<svg xmlns="http://www.w3.org/2000/svg" height="100px" version="1.0" viewBox="0 0 100 100" width="100px" x="0px" y="0px">
<line fill="none" stroke="#000000" stroke-width="2" x1="4" x2="32" y1="32.5" y2="32.5" /><line fill="none" stroke="#000000" stroke-width="2" x1="18" x2="18" y1="77.5" y2="8" /><path d="M91,31 c-6.896,30.089 -19.534,47.376 -42,60" fill="none" stroke="#000000" stroke-width="2" /><path d="M69,4.5 c0,59.849 16.547,86.5 20.5,86.5 c1.781,0 4.375,-2.614 6,-23" fill="none" stroke="#000000" stroke-width="2" /><path d="M76,4.5 c4.775,3.049 9.523,6.589 13.5,10" fill="none" stroke="#000000" stroke-width="2" /><path d="M4,83 c10.252,-3.637 19.039,-7.762 30,-14" fill="none" stroke="#000000" stroke-width="2" /><path d="M26.5,91.5 c6.137,-11.226 10,-29.095 10,-51 v-22.0 h58.5" fill="none" stroke="#000000" stroke-width="2" /><path d="M36.5,35 h24.5 c0,35.906 -0.088,36 -9,36 c-1.759,0 -7.344,-0.399 -13,-1" fill="none" stroke="#000000" stroke-width="2" /></svg>