<?xml version='1.0' encoding='utf-8'?>
<svg xmlns="http://www.w3.org/2000/svg" height="100px" version="1.0" viewBox="0 0 100 100" width="100px" x="0px" y="0px">
<line fill="none" stroke="#000000" stroke-width="2" x1="36.5" x2="90" y1="66.5" y2="66.5" /><line fill="none" stroke="#000000" stroke-width="2" x1="36.5" x2="90" y1="46.5" y2="46.5" /><line fill="none" stroke="#000000" stroke-width="2" x1="63.5" x2="63.5" y1="5" y2="91" /><line fill="none" stroke="#000000" stroke-width="2" x1="31" x2="95" y1="15" y2="15" /><line fill="none" stroke="#000000" stroke-width="2" x1="4.5" x2="30.5" y1="31.5" y2="31.5" /><line fill="none" stroke="#000000" stroke-width="2" x1="18" x2="18" y1="78.5" y2="8" /><path d="M74,4.5 c4.902,2.214 10.408,4.978 15,7.5" fill="none" stroke="#000000" stroke-width="2" /><path d="M35.5,93 v-64.5 h55.5 v55.0 c0,7.222 -0.622,8 -5,8 c-1.717,0 -6.623,-0.18 -12,-0.5" fill="none" stroke="#000000" stroke-width="2" /><path d="M4.5,85 c9.056,-3.637 16.817,-7.762 26.5,-14" fill="none" stroke="#000000" stroke-width="2" /></svg>