<?xml version='1.0' encoding='utf-8'?>
<svg xmlns="http://www.w3.org/2000/svg" height="100px" version="1.0" viewBox="0 0 100 100" width="100px" x="0px" y="0px">
<line fill="none" stroke="#000000" stroke-width="2" x1="31" x2="95" y1="18.5" y2="18.5" /><line fill="none" stroke="#000000" stroke-width="2" x1="4" x2="32" y1="32.5" y2="32.5" /><line fill="none" stroke="#000000" stroke-width="2" x1="18" x2="18" y1="77.5" y2="8" /><polyline fill="none" points="37.5,57.5 62.5,57.5 62.5,31.5 36.5,31.5 36.5,58.5" stroke="#000000" stroke-width="2" /><path d="M31.5,78.5 c15.106,-4.147 28.122,-9.378 36,-14" fill="none" stroke="#000000" stroke-width="2" /><path d="M91,31 c-6.403,30.089 -18.139,47.376 -39,60" fill="none" stroke="#000000" stroke-width="2" /><path d="M71,4.5 c0,59.849 15.213,86.5 18.5,86.5 c1.781,0 4.375,-2.614 6,-23" fill="none" stroke="#000000" stroke-width="2" /><path d="M77,4.5 c4.775,3.049 9.523,6.589 13.5,10" fill="none" stroke="#000000" stroke-width="2" /><path d="M4,83 c10.252,-3.637 19.039,-7.762 30,-14" fill="none" stroke="#000000" stroke-width="2" /></svg>