<?xml version='1.0' encoding='utf-8'?>
<svg xmlns="http://www.w3.org/2000/svg" height="100px" version="1.0" viewBox="0 0 100 100" width="100px" x="0px" y="0px">
<line fill="none" stroke="#000000" stroke-width="2" x1="5" x2="50" y1="56" y2="56" /><line fill="none" stroke="#000000" stroke-width="2" x1="27" x2="27" y1="56" y2="94.5" /><line fill="none" stroke="#000000" stroke-width="2" x1="6.5" x2="48" y1="73.5" y2="73.5" /><line fill="none" stroke="#000000" stroke-width="2" x1="4.5" x2="50" y1="30" y2="30" /><line fill="none" stroke="#000000" stroke-width="2" x1="7.5" x2="47" y1="14" y2="14" /><line fill="none" stroke="#000000" stroke-width="2" x1="27" x2="27" y1="30" y2="4.5" /><path d="M33,56 c2.892,-7.695 5.455,-16.588 7.5,-26" fill="none" stroke="#000000" stroke-width="2" /><path d="M19.5,56 c-1.692,-8.566 -3.768,-17.633 -6,-26" fill="none" stroke="#000000" stroke-width="2" /><path d="M51.5,42 c9.744,7.79 18.461,17.821 30,35" fill="none" stroke="#000000" stroke-width="2" /><path d="M42,92 c16.266,-11.302 27,-32.907 27,-63 v-25.0" fill="none" stroke="#000000" stroke-width="2" /><path d="M51,24 h35.0 v60.0 c0,6.527 0.451,7 4.5,7 c5.291,0 5.695,-0.542 6.5,-31" fill="none" stroke="#000000" stroke-width="2" /></svg>