<?xml version='1.0' encoding='utf-8'?>
<svg xmlns="http://www.w3.org/2000/svg" height="100px" version="1.0" viewBox="0 0 100 100" width="100px" x="0px" y="0px">
<line fill="none" stroke="#000000" stroke-width="2" x1="41" x2="41" y1="20.5" y2="94" /><line fill="none" stroke="#000000" stroke-width="2" x1="93" x2="41.5" y1="20" y2="20" /><line fill="none" stroke="#000000" stroke-width="2" x1="68.5" x2="68.5" y1="87" y2="20" /><line fill="none" stroke="#000000" stroke-width="2" x1="42" x2="95" y1="87" y2="87" /><line fill="none" stroke="#000000" stroke-width="2" x1="41" x2="91" y1="64" y2="64" /><line fill="none" stroke="#000000" stroke-width="2" x1="41" x2="91" y1="41.5" y2="41.5" /><line fill="none" stroke="#000000" stroke-width="2" x1="3.5" x2="32.5" y1="26.5" y2="26.5" /><line fill="none" stroke="#000000" stroke-width="2" x1="17.5" x2="17.5" y1="81.5" y2="8" /><path d="M76,4 c-2.172,5.901 -4.801,11.103 -8,16" fill="none" stroke="#000000" stroke-width="2" /><path d="M28,40 c8.602,-9.49 14.809,-20.97 19,-36" fill="none" stroke="#000000" stroke-width="2" /><path d="M3.5,87 c10.593,-3.637 19.674,-7.762 31,-14" fill="none" stroke="#000000" stroke-width="2" /></svg>