<?xml version='1.0' encoding='utf-8'?>
<svg xmlns="http://www.w3.org/2000/svg" height="100px" version="1.0" viewBox="0 0 100 100" width="100px" x="0px" y="0px">
<line fill="none" stroke="#000000" stroke-width="2" x1="7" x2="93" y1="14.5" y2="14.5" /><line fill="none" stroke="#000000" stroke-width="2" x1="32" x2="32" y1="23" y2="3.5" /><line fill="none" stroke="#000000" stroke-width="2" x1="68" x2="68" y1="23" y2="3.5" /><line fill="none" stroke="#000000" stroke-width="2" x1="19" x2="81" y1="37" y2="37" /><line fill="none" stroke="#000000" stroke-width="2" x1="7" x2="93" y1="59.5" y2="59.5" /><line fill="none" stroke="#000000" stroke-width="2" x1="8" x2="92" y1="89.5" y2="89.5" /><line fill="none" stroke="#000000" stroke-width="2" x1="77.5" x2="22.5" y1="74" y2="74" /><line fill="none" stroke="#000000" stroke-width="2" x1="50" x2="50" y1="89.5" y2="63.5" /><polyline fill="none" points="19,50 82,50 82,24 18,24 18,51" stroke="#000000" stroke-width="2" /><path d="M46.5,50 c-9.677,11.469 -22.938,20.653 -41.5,28" fill="none" stroke="#000000" stroke-width="2" /><path d="M63,59.5 c8.423,7.191 18.887,13.305 32,18.5" fill="none" stroke="#000000" stroke-width="2" /></svg>