<?xml version='1.0' encoding='utf-8'?>
<svg xmlns="http://www.w3.org/2000/svg" height="100px" version="1.0" viewBox="0 0 100 100" width="100px" x="0px" y="0px">
<line fill="none" stroke="#000000" stroke-width="2" x1="4.5" x2="30.5" y1="31.5" y2="31.5" /><line fill="none" stroke="#000000" stroke-width="2" x1="18" x2="18" y1="79" y2="8" /><line fill="none" stroke="#000000" stroke-width="2" x1="63.5" x2="63.5" y1="19" y2="47" /><line fill="none" stroke="#000000" stroke-width="2" x1="38.5" x2="88.5" y1="88" y2="88" /><line fill="none" stroke="#000000" stroke-width="2" x1="38.5" x2="88.5" y1="72" y2="72" /><line fill="none" stroke="#000000" stroke-width="2" x1="34.5" x2="92.5" y1="32.5" y2="32.5" /><polyline fill="none" points="89.5,94 89.5,57 37.5,57 37.5,94" stroke="#000000" stroke-width="2" /><polyline fill="none" points="34.5,48 93.5,48 93.5,18 33.5,18 33.5,49" stroke="#000000" stroke-width="2" /><path d="M4.5,85 c9.568,-3.637 17.77,-7.762 28,-14" fill="none" stroke="#000000" stroke-width="2" /><path d="M53,18 c-3.202,-4.438 -6.659,-8.795 -10,-12.5" fill="none" stroke="#000000" stroke-width="2" /><path d="M74,18 c3.777,-4.119 7.357,-8.616 10,-12.5" fill="none" stroke="#000000" stroke-width="2" /></svg>