<?xml version='1.0' encoding='utf-8'?>
<svg xmlns="http://www.w3.org/2000/svg" height="100px" version="1.0" viewBox="0 0 100 100" width="100px" x="0px" y="0px">
<line fill="none" stroke="#000000" stroke-width="2" x1="3" x2="28.5" y1="30.5" y2="30.5" /><line fill="none" stroke="#000000" stroke-width="2" x1="16" x2="16" y1="74.5" y2="8" /><line fill="none" stroke="#000000" stroke-width="2" x1="71" x2="71" y1="45" y2="26.5" /><line fill="none" stroke="#000000" stroke-width="2" x1="51.5" x2="51.5" y1="45" y2="26.5" /><line fill="none" stroke="#000000" stroke-width="2" x1="27.5" x2="94.5" y1="15" y2="15" /><line fill="none" stroke="#000000" stroke-width="2" x1="61" x2="61" y1="24.5" y2="4" /><line fill="none" stroke="#000000" stroke-width="2" x1="61" x2="61" y1="56.5" y2="47" /><line fill="none" stroke="#000000" stroke-width="2" x1="27" x2="95" y1="56.5" y2="56.5" /><line fill="none" stroke="#000000" stroke-width="2" x1="45.5" x2="45.5" y1="89" y2="68.5" /><polyline fill="none" points="33,46 90.5,46 90.5,25.5 32,25.5 32,47" stroke="#000000" stroke-width="2" /><path d="M3,80.5 c9.322,-3.637 17.533,-7.762 27.5,-14" fill="none" stroke="#000000" stroke-width="2" /><path d="M59.88,56.5 c-8.696,9.282 -20.74,17.06 -37.38,23.5" fill="none" stroke="#000000" stroke-width="2" /><path d="M61.5,56.5 c5.89,16.339 19.102,29.89 35,36" fill="none" stroke="#000000" stroke-width="2" /><path d="M28.5,92.5 c13.629,-2.266 25.426,-5.261 39.5,-10" fill="none" stroke="#000000" stroke-width="2" /><path d="M73.5,76 c6.41,-4.224 12.216,-9.387 17,-15" fill="none" stroke="#000000" stroke-width="2" /></svg>