<?xml version='1.0' encoding='utf-8'?>
<svg xmlns="http://www.w3.org/2000/svg" height="100px" version="1.0" viewBox="0 0 100 100" width="100px" x="0px" y="0px">
<line fill="none" stroke="#000000" stroke-width="2" x1="7" x2="93" y1="14.5" y2="14.5" /><line fill="none" stroke="#000000" stroke-width="2" x1="32" x2="32" y1="22.5" y2="4.5" /><line fill="none" stroke="#000000" stroke-width="2" x1="68" x2="68" y1="22.5" y2="4.5" /><line fill="none" stroke="#000000" stroke-width="2" x1="34.5" x2="81.5" y1="60" y2="60" /><line fill="none" stroke="#000000" stroke-width="2" x1="62" x2="62" y1="27" y2="41" /><line fill="none" stroke="#000000" stroke-width="2" x1="38" x2="38" y1="27" y2="41" /><polyline fill="none" points="15,43 15,26 85,26 85,42 16,42" stroke="#000000" stroke-width="2" /><polyline fill="none" points="91.5,65 91.5,50 8.5,50 8.5,65" stroke="#000000" stroke-width="2" /><path d="M8.5,74 c17.529,-6.92 29.726,-15.251 37,-24" fill="none" stroke="#000000" stroke-width="2" /><path d="M59,80 c-8.12,-4.874 -17.873,-9.961 -27,-14" fill="none" stroke="#000000" stroke-width="2" /><path d="M80.637,60.495 c-9.295,15.942 -31.263,27.985 -66.637,32.005" fill="none" stroke="#000000" stroke-width="2" /></svg>