<?xml version='1.0' encoding='utf-8'?>
<svg xmlns="http://www.w3.org/2000/svg" height="100px" version="1.0" viewBox="0 0 100 100" width="100px" x="0px" y="0px">
<line fill="none" stroke="#000000" stroke-width="2" x1="28" x2="65.5" y1="11" y2="11" /><line fill="none" stroke="#000000" stroke-width="2" x1="5" x2="95" y1="66" y2="66" /><polyline fill="none" points="16.5,61 16.5,25 84.5,25 84.5,61" stroke="#000000" stroke-width="2" /><path d="M51.5,25 c4.656,-4.187 9.379,-9.093 13.236,-13.652" fill="none" stroke="#000000" stroke-width="2" /><path d="M6,31.5 c12.232,-8.036 21.328,-17.829 27,-29" fill="none" stroke="#000000" stroke-width="2" /><path d="M7,92 c26.38,-3.709 43,-15.687 43,-25 v-13.0" fill="none" stroke="#000000" stroke-width="2" /><path d="M93,92 c-26.38,-3.709 -43,-15.687 -43,-25" fill="none" stroke="#000000" stroke-width="2" /><path d="M40.5,26 c0,18.897 -3.988,24.878 -20,32" fill="none" stroke="#000000" stroke-width="2" /><path d="M56.5,26 v15.0 c0,9.212 0.998,10 11,10 h16.0" fill="none" stroke="#000000" stroke-width="2" /></svg>