<?xml version='1.0' encoding='utf-8'?>
<svg xmlns="http://www.w3.org/2000/svg" height="100px" version="1.0" viewBox="0 0 100 100" width="100px" x="0px" y="0px">
<line fill="none" stroke="#000000" stroke-width="2" x1="5" x2="95" y1="68" y2="68" /><line fill="none" stroke="#000000" stroke-width="2" x1="50" x2="50" y1="57" y2="17" /><line fill="none" stroke="#000000" stroke-width="2" x1="81" x2="19" y1="37.5" y2="37.5" /><polyline fill="none" points="14,62.5 14,13.5 86,13.5 86,62.5" stroke="#000000" stroke-width="2" /><path d="M7,92 c26.38,-3.709 43,-15.687 43,-25 v-7.0" fill="none" stroke="#000000" stroke-width="2" /><path d="M93,92 c-26.38,-3.709 -43,-15.687 -43,-25" fill="none" stroke="#000000" stroke-width="2" /><path d="M81,59.5 c-11.91,-9.697 -21.201,-16.466 -30,-22" fill="none" stroke="#000000" stroke-width="2" /><path d="M19,59 c13.807,-6.337 23.57,-13.563 30,-21.5" fill="none" stroke="#000000" stroke-width="2" /><path d="M38,34 c-3.992,-5.304 -8.355,-10.546 -12.5,-15" fill="none" stroke="#000000" stroke-width="2" /><path d="M62,34 c5.018,-4.763 9.528,-10.233 12.5,-15" fill="none" stroke="#000000" stroke-width="2" /><path d="M40.5,13.5 c3,-3.499 5.844,-7.231 8,-10.5" fill="none" stroke="#000000" stroke-width="2" /></svg>