<?xml version='1.0' encoding='utf-8'?>
<svg xmlns="http://www.w3.org/2000/svg" height="100px" version="1.0" viewBox="0 0 100 100" width="100px" x="0px" y="0px">
<line fill="none" stroke="#000000" stroke-width="2" x1="7" x2="93" y1="13" y2="13" /><line fill="none" stroke="#000000" stroke-width="2" x1="50" x2="50" y1="87" y2="66.5" /><line fill="none" stroke="#000000" stroke-width="2" x1="15.5" x2="84.5" y1="88" y2="88" /><line fill="none" stroke="#000000" stroke-width="2" x1="15.5" x2="84.5" y1="76.5" y2="76.5" /><line fill="none" stroke="#000000" stroke-width="2" x1="51" x2="51" y1="57" y2="28" /><line fill="none" stroke="#000000" stroke-width="2" x1="81" x2="27" y1="28" y2="28" /><line fill="none" stroke="#000000" stroke-width="2" x1="19" x2="81" y1="38" y2="38" /><line fill="none" stroke="#000000" stroke-width="2" x1="19" x2="81" y1="48" y2="48" /><polyline fill="none" points="85.5,93.5 85.5,65.5 14.5,65.5 14.5,93.5" stroke="#000000" stroke-width="2" /><polyline fill="none" points="19,35.5 19,58 84,58" stroke="#000000" stroke-width="2" /><path d="M50,2 c-8.054,11.347 -23.936,21.874 -45,28" fill="none" stroke="#000000" stroke-width="2" /><path d="M7.5,43 c10.744,-5.924 19.351,-13.599 28,-25" fill="none" stroke="#000000" stroke-width="2" /><path d="M57,18 c-1.955,3.804 -3.582,6.534 -6,10" fill="none" stroke="#000000" stroke-width="2" /><path d="M57,13 c9.457,7.624 22.354,14.07 38,18.5" fill="none" stroke="#000000" stroke-width="2" /></svg>