<?xml version='1.0' encoding='utf-8'?>
<svg xmlns="http://www.w3.org/2000/svg" height="100px" version="1.0" viewBox="0 0 100 100" width="100px" x="0px" y="0px">
<line fill="none" stroke="#000000" stroke-width="2" x1="63.5" x2="63.5" y1="21" y2="4" /><line fill="none" stroke="#000000" stroke-width="2" x1="39" x2="96.5" y1="21" y2="21" /><path d="M29.5,91 c19.109,-13.831 27,-30.635 27,-69" fill="none" stroke="#000000" stroke-width="2" /><path d="M55.5,41 h34.0 c0,39.336 -5.385,48 -13.5,48 c-3.299,0 -9.311,-0.322 -16.5,-1" fill="none" stroke="#000000" stroke-width="2" /><path d="M5.5,94 c18.932,-13.677 32,-41.349 32,-70 h-32.0" fill="none" stroke="#000000" stroke-width="2" /><path d="M23.5,5 c-2.859,22.511 -7.689,41.909 -14,57.5" fill="none" stroke="#000000" stroke-width="2" /><path d="M12,55 c8.755,5.896 15.584,12.53 24,23.5" fill="none" stroke="#000000" stroke-width="2" /></svg>