<?xml version='1.0' encoding='utf-8'?>
<svg xmlns="http://www.w3.org/2000/svg" height="100px" version="1.0" viewBox="0 0 100 100" width="100px" x="0px" y="0px">
<line fill="none" stroke="#000000" stroke-width="2" x1="6.5" x2="93.5" y1="39" y2="39" /><line fill="none" stroke="#000000" stroke-width="2" x1="9.5" x2="90.5" y1="15" y2="15" /><line fill="none" stroke="#000000" stroke-width="2" x1="50" x2="50" y1="15" y2="3" /><line fill="none" stroke="#000000" stroke-width="2" x1="93" x2="7" y1="54" y2="54" /><path d="M60,39 c5.104,-6.712 9.261,-14.943 12,-24" fill="none" stroke="#000000" stroke-width="2" /><path d="M39,39 c-3.384,-8.102 -7.391,-16.132 -12,-24" fill="none" stroke="#000000" stroke-width="2" /><path d="M10,91 c32.094,-4.397 56.097,-19.313 65.5,-37" fill="none" stroke="#000000" stroke-width="2" /><path d="M44.5,42.5 c-7.234,11.608 -16.57,22.067 -29,32" fill="none" stroke="#000000" stroke-width="2" /><path d="M21,70 c22.954,3.97 42.44,10.107 69,22" fill="none" stroke="#000000" stroke-width="2" /></svg>