<?xml version='1.0' encoding='utf-8'?>
<svg xmlns="http://www.w3.org/2000/svg" height="100px" version="1.0" viewBox="0 0 100 100" width="100px" x="0px" y="0px">
<line fill="none" stroke="#000000" stroke-width="2" x1="65.5" x2="65.5" y1="3" y2="14" /><line fill="none" stroke="#000000" stroke-width="2" x1="45" x2="87" y1="33" y2="33" /><polyline fill="none" points="45,52.5 88,52.5 88,15 44,15 44,89.5" stroke="#000000" stroke-width="2" /><path d="M4.5,94 c18.932,-13.677 32,-41.349 32,-70 h-32.0" fill="none" stroke="#000000" stroke-width="2" /><path d="M22.5,5 c-2.859,22.511 -7.689,41.909 -14,57.5" fill="none" stroke="#000000" stroke-width="2" /><path d="M11,55 c9.428,6.397 17.021,14 26.5,27" fill="none" stroke="#000000" stroke-width="2" /><path d="M60.5,52.5 c6.041,17.854 19.88,32.362 36.5,39" fill="none" stroke="#000000" stroke-width="2" /><path d="M32.5,91.5 c12.063,-1.945 22.541,-4.481 35,-8.5" fill="none" stroke="#000000" stroke-width="2" /><path d="M71.5,72.5 c7.678,-4.665 14.986,-11.103 21,-18.5" fill="none" stroke="#000000" stroke-width="2" /></svg>