<?xml version='1.0' encoding='utf-8'?>
<svg xmlns="http://www.w3.org/2000/svg" height="100px" version="1.0" viewBox="0 0 100 100" width="100px" x="0px" y="0px">
<line fill="none" stroke="#000000" stroke-width="2" x1="96.5" x2="32" y1="67" y2="67" /><polyline fill="none" points="54,39 89,39 89,10 53,10 53,40" stroke="#000000" stroke-width="2" /><polyline fill="none" points="85,67 85,52 42,52 42,14" stroke="#000000" stroke-width="2" /><path d="M32.5,92 c10.117,-5.215 18.867,-12.305 24,-19" fill="none" stroke="#000000" stroke-width="2" /><path d="M94.5,93 c-6.191,-6.555 -14.708,-13.579 -24,-19.5" fill="none" stroke="#000000" stroke-width="2" /><path d="M4.5,94 c16.564,-13.677 28,-40.016 28,-70 h-28.0" fill="none" stroke="#000000" stroke-width="2" /><path d="M20.5,5 c-2.479,22.511 -6.868,41.968 -12.5,57.5" fill="none" stroke="#000000" stroke-width="2" /><path d="M10.5,55 c8.402,6.791 14.943,14.458 23.5,28" fill="none" stroke="#000000" stroke-width="2" /></svg>