<?xml version='1.0' encoding='utf-8'?>
<svg xmlns="http://www.w3.org/2000/svg" height="100px" version="1.0" viewBox="0 0 100 100" width="100px" x="0px" y="0px">
<line fill="none" stroke="#000000" stroke-width="2" x1="93.5" x2="35.5" y1="34.5" y2="34.5" /><line fill="none" stroke="#000000" stroke-width="2" x1="94.5" x2="34.5" y1="46" y2="46" /><line fill="none" stroke="#000000" stroke-width="2" x1="47" x2="88.5" y1="56.5" y2="56.5" /><path d="M4.5,94 c16.564,-13.677 28,-40.016 28,-70 h-28.0" fill="none" stroke="#000000" stroke-width="2" /><path d="M20.5,5 c-2.479,22.511 -6.868,41.968 -12.5,57.5" fill="none" stroke="#000000" stroke-width="2" /><path d="M10.5,55 c8.402,6.791 14.943,14.458 23.5,28" fill="none" stroke="#000000" stroke-width="2" /><path d="M34.5,14 c20.33,0 39.844,-1.901 58,-5.5" fill="none" stroke="#000000" stroke-width="2" /><path d="M45.5,31 c-2.021,-4.866 -4.256,-9.521 -6.5,-13.5" fill="none" stroke="#000000" stroke-width="2" /><path d="M65.5,31 c-2.013,-5.231 -4.258,-10.226 -6.5,-14.5" fill="none" stroke="#000000" stroke-width="2" /><path d="M79,34.5 c3.528,-6.766 6.46,-13.88 8.5,-20.5" fill="none" stroke="#000000" stroke-width="2" /><path d="M27,90 c14.624,-14.525 23,-34.439 23,-55.5" fill="none" stroke="#000000" stroke-width="2" /><path d="M36.5,90.5 c25.318,-6.181 42.216,-18.045 51.133,-33.5" fill="none" stroke="#000000" stroke-width="2" /><path d="M95.5,90.5 c-20.834,-6.2 -34.983,-15.612 -46,-30" fill="none" stroke="#000000" stroke-width="2" /></svg>