<?xml version='1.0' encoding='utf-8'?>
<svg xmlns="http://www.w3.org/2000/svg" height="100px" version="1.0" viewBox="0 0 100 100" width="100px" x="0px" y="0px">
<line fill="none" stroke="#000000" stroke-width="2" x1="43" x2="86" y1="43.5" y2="43.5" /><line fill="none" stroke="#000000" stroke-width="2" x1="64.5" x2="64.5" y1="13.5" y2="3.5" /><line fill="none" stroke="#000000" stroke-width="2" x1="32.5" x2="96" y1="13.5" y2="13.5" /><line fill="none" stroke="#000000" stroke-width="2" x1="64.5" x2="64.5" y1="55.5" y2="33.5" /><polyline fill="none" points="50,86.5 50,56.5 79,56.5 79,79.5 51,79.5" stroke="#000000" stroke-width="2" /><path d="M4,94 c16.564,-13.677 28,-40.016 28,-70 h-28.0" fill="none" stroke="#000000" stroke-width="2" /><path d="M20,5 c-2.479,22.511 -6.868,41.968 -12.5,57.5" fill="none" stroke="#000000" stroke-width="2" /><path d="M10,55 c8.402,6.791 14.943,14.458 23.5,28" fill="none" stroke="#000000" stroke-width="2" /><path d="M74,29.5 c2.813,-4.761 5.188,-10.157 7,-16" fill="none" stroke="#000000" stroke-width="2" /><path d="M54,29.5 c-1.956,-5.314 -4.36,-10.839 -7,-16" fill="none" stroke="#000000" stroke-width="2" /><path d="M75.5,90.5 c5.457,0.345 9.16,0.5 11,0.5 c5.008,0 5.5,-0.526 5.5,-7 v-54.5 h-55.0 V93.0" fill="none" stroke="#000000" stroke-width="2" /></svg>