<?xml version='1.0' encoding='utf-8'?>
<svg xmlns="http://www.w3.org/2000/svg" height="100px" version="1.0" viewBox="0 0 100 100" width="100px" x="0px" y="0px">
<line fill="none" stroke="#000000" stroke-width="2" x1="4" x2="33.5" y1="52.5" y2="44.5" /><line fill="none" stroke="#000000" stroke-width="2" x1="33" x2="4.5" y1="11" y2="11" /><line fill="none" stroke="#000000" stroke-width="2" x1="34.5" x2="95" y1="16.5" y2="16.5" /><line fill="none" stroke="#000000" stroke-width="2" x1="65" x2="65" y1="16.5" y2="4" /><path d="M18,30 v52.5 c0,7.552 -0.416,8 -4.5,8 c-2.109,0 -5.392,-0.172 -9,-0.5" fill="none" stroke="#000000" stroke-width="2" /><path d="M32.115,11.532 c-4.23,7.985 -8.572,14.096 -14.115,19.968" fill="none" stroke="#000000" stroke-width="2" /><path d="M32,70.5 c22.637,-8.718 41.537,-24.81 52.5,-44" fill="none" stroke="#000000" stroke-width="2" /><path d="M27,91 c26.093,-7.318 49.979,-22.928 64.5,-42" fill="none" stroke="#000000" stroke-width="2" /><path d="M64,51.5 c-8.059,-7.021 -18.979,-15.138 -28.5,-21" fill="none" stroke="#000000" stroke-width="2" /><path d="M47.5,38.5 c5.98,-5.788 11.845,-13.121 17.5,-22" fill="none" stroke="#000000" stroke-width="2" /><path d="M95,91.5 c-5.674,-7.772 -13.479,-15.237 -24,-22.5" fill="none" stroke="#000000" stroke-width="2" /></svg>