<?xml version='1.0' encoding='utf-8'?>
<svg xmlns="http://www.w3.org/2000/svg" height="100px" version="1.0" viewBox="0 0 100 100" width="100px" x="0px" y="0px">
<line fill="none" stroke="#000000" stroke-width="2" x1="27.5" x2="27.5" y1="15" y2="4.5" /><line fill="none" stroke="#000000" stroke-width="2" x1="4.5" x2="50.5" y1="15" y2="15" /><line fill="none" stroke="#000000" stroke-width="2" x1="47.5" x2="7" y1="52" y2="52" /><polyline fill="none" points="11,42 45,42 45,24.5 10,24.5 10,43" stroke="#000000" stroke-width="2" /><path d="M51.5,42 c9.744,7.79 18.461,17.821 30,35" fill="none" stroke="#000000" stroke-width="2" /><path d="M42,92 c16.266,-11.302 27,-32.907 27,-63 v-25.0" fill="none" stroke="#000000" stroke-width="2" /><path d="M50.5,24 h35.5 v60.0 c0,6.527 0.451,7 4.5,7 c5.291,0 5.695,-0.542 6.5,-31" fill="none" stroke="#000000" stroke-width="2" /><path d="M3.5,71.5 c20.914,-0.576 37.951,-1.733 48,-3" fill="none" stroke="#000000" stroke-width="2" /><path d="M28.5,64 v19.5 c0,7.493 -0.55,8 -5.5,8 c-3.023,0 -6.738,-0.169 -11,-0.5" fill="none" stroke="#000000" stroke-width="2" /><path d="M46.832,52.255 c-5.996,5.362 -10.9,8.841 -18.332,12.745" fill="none" stroke="#000000" stroke-width="2" /></svg>