<?xml version='1.0' encoding='utf-8'?>
<svg xmlns="http://www.w3.org/2000/svg" height="100px" version="1.0" viewBox="0 0 100 100" width="100px" x="0px" y="0px">
<line fill="none" stroke="#000000" stroke-width="2" x1="50" x2="50" y1="14" y2="2.5" /><line fill="none" stroke="#000000" stroke-width="2" x1="16" x2="16" y1="65.5" y2="94" /><line fill="none" stroke="#000000" stroke-width="2" x1="84" x2="84" y1="94" y2="64.5" /><line fill="none" stroke="#000000" stroke-width="2" x1="50" x2="50" y1="60" y2="86.5" /><line fill="none" stroke="#000000" stroke-width="2" x1="16" x2="84" y1="86.5" y2="86.5" /><polyline fill="none" points="91,31 91,14 9,14 9,31" stroke="#000000" stroke-width="2" /><path d="M29.5,23.5 v23.589 c0,7.746 0.169,7.911 20.5,7.911 c25.945,0 26.287,-0.285 27.5,-16.5" fill="none" stroke="#000000" stroke-width="2" /><path d="M8,51 c4.992,-5.142 9.554,-12.409 13,-21" fill="none" stroke="#000000" stroke-width="2" /><path d="M93.5,52.5 c-3.654,-7.125 -8.289,-14.687 -13.5,-22" fill="none" stroke="#000000" stroke-width="2" /><path d="M56.5,30.5 c-5.871,-3.806 -12.759,-7.655 -20,-11" fill="none" stroke="#000000" stroke-width="2" /><path d="M77,19 c-12.58,17.795 -35.256,32.873 -70,43.5" fill="none" stroke="#000000" stroke-width="2" /></svg>