<?xml version='1.0' encoding='utf-8'?>
<svg xmlns="http://www.w3.org/2000/svg" height="100px" version="1.0" viewBox="0 0 100 100" width="100px" x="0px" y="0px">
<line fill="none" stroke="#000000" stroke-width="2" x1="22.5" x2="22.5" y1="94" y2="6" /><line fill="none" stroke="#000000" stroke-width="2" x1="96.5" x2="28.5" y1="55" y2="55" /><path d="M5,20.5 c4.8,7.289 9.001,14.61 13,22.5" fill="none" stroke="#000000" stroke-width="2" /><path d="M22.5,59 c-6.69,3.858 -12.758,7.052 -20,10.5" fill="none" stroke="#000000" stroke-width="2" /><path d="M84,43.5 v39.0 c0,8.474 -0.531,9 -6.5,9 c-2.103,0 -7.911,-0.18 -14.5,-0.5" fill="none" stroke="#000000" stroke-width="2" /><path d="M61,81 c-4.961,-6.18 -11.874,-13.175 -19,-19" fill="none" stroke="#000000" stroke-width="2" /><path d="M45,44 c-3.354,-8.718 -7.031,-16.345 -10.5,-22" fill="none" stroke="#000000" stroke-width="2" /><path d="M66.5,41.5 c-3.238,-8.72 -6.795,-16.373 -10.5,-22.5" fill="none" stroke="#000000" stroke-width="2" /><path d="M76.5,45 c5.77,-7.442 11.383,-17.569 16,-29" fill="none" stroke="#000000" stroke-width="2" /><path d="M33.5,14.5 c22.26,-0.388 41.973,-2.467 59,-6" fill="none" stroke="#000000" stroke-width="2" /></svg>