<?xml version='1.0' encoding='utf-8'?>
<svg xmlns="http://www.w3.org/2000/svg" height="100px" version="1.0" viewBox="0 0 100 100" width="100px" x="0px" y="0px">
<line fill="none" stroke="#000000" stroke-width="2" x1="15" x2="85" y1="49" y2="49" /><line fill="none" stroke="#000000" stroke-width="2" x1="6" x2="94" y1="14" y2="14" /><line fill="none" stroke="#000000" stroke-width="2" x1="94" x2="6" y1="70.5" y2="70.5" /><polyline fill="none" points="15,60 86,60 86,24.5 14,24.5 14,61" stroke="#000000" stroke-width="2" /><path d="M39,15 v10.5 c0,9.422 -5.941,15.593 -20,19" fill="none" stroke="#000000" stroke-width="2" /><path d="M56.5,14 v19.5 c0,5.782 0.998,6.5 11,6.5 h17.5" fill="none" stroke="#000000" stroke-width="2" /><path d="M38,14 c-2.558,-3.372 -5.327,-6.685 -8,-9.5" fill="none" stroke="#000000" stroke-width="2" /><path d="M62,14 c3.021,-3.13 5.896,-6.544 8,-9.5" fill="none" stroke="#000000" stroke-width="2" /><path d="M44,90 c-5.309,-4.959 -12.584,-10.453 -20,-15" fill="none" stroke="#000000" stroke-width="2" /><path d="M76,61 v23.0 c0,7.005 -0.52,7.5 -8,7.5 c-2.503,0 -9.157,-0.18 -17,-0.5" fill="none" stroke="#000000" stroke-width="2" /></svg>