<?xml version='1.0' encoding='utf-8'?>
<svg xmlns="http://www.w3.org/2000/svg" height="100px" version="1.0" viewBox="0 0 100 100" width="100px" x="0px" y="0px">
<line fill="none" stroke="#000000" stroke-width="2" x1="38.5" x2="85.5" y1="43.5" y2="43.5" /><line fill="none" stroke="#000000" stroke-width="2" x1="38.5" x2="85.5" y1="33" y2="33" /><line fill="none" stroke="#000000" stroke-width="2" x1="28.5" x2="93.5" y1="13.5" y2="13.5" /><line fill="none" stroke="#000000" stroke-width="2" x1="93" x2="7" y1="73" y2="73" /><polyline fill="none" points="23.5,53 23.5,32.5 6.5,32.5" stroke="#000000" stroke-width="2" /><polyline fill="none" points="38.5,54 86.5,54 86.5,22.5 37.5,22.5 37.5,55" stroke="#000000" stroke-width="2" /><path d="M9.5,8 c5.725,3.968 10.574,7.61 16,12" fill="none" stroke="#000000" stroke-width="2" /><path d="M6.5,64.5 c8.029,-3.999 13.36,-7.88 17,-12" fill="none" stroke="#000000" stroke-width="2" /><path d="M93.5,63 h-34.0 c-22.043,0 -30.307,-2.98 -36,-10.5" fill="none" stroke="#000000" stroke-width="2" /><path d="M62.5,13.5 c-1.766,3.759 -2.941,5.859 -5,9" fill="none" stroke="#000000" stroke-width="2" /><path d="M51.5,13.5 c-2.566,-3.433 -5.064,-6.251 -8,-9" fill="none" stroke="#000000" stroke-width="2" /><path d="M70.5,13.5 c3.213,-3.086 5.792,-6.007 8,-9" fill="none" stroke="#000000" stroke-width="2" /><path d="M44,90.5 c-5.223,-4.229 -12.498,-9.015 -20,-13" fill="none" stroke="#000000" stroke-width="2" /><path d="M76,63 v22.0 c0,6.414 -0.593,7 -8,7 c-2.503,0 -9.157,-0.18 -17,-0.5" fill="none" stroke="#000000" stroke-width="2" /></svg>