<?xml version='1.0' encoding='utf-8'?>
<svg xmlns="http://www.w3.org/2000/svg" height="100px" version="1.0" viewBox="0 0 100 100" width="100px" x="0px" y="0px">
<line fill="none" stroke="#000000" stroke-width="2" x1="95" x2="47" y1="26" y2="26" /><line fill="none" stroke="#000000" stroke-width="2" x1="27" x2="27" y1="17" y2="5" /><line fill="none" stroke="#000000" stroke-width="2" x1="5" x2="48" y1="17" y2="17" /><polyline fill="none" points="12.5,52 42.5,52 42.5,28 11.5,28 11.5,53" stroke="#000000" stroke-width="2" /><path d="M79.4,4 c3.871,5.278 7.137,10.148 10.799,16" fill="none" stroke="#000000" stroke-width="2" /><path d="M38.5,91 c17.727,-12.196 29,-34.262 29,-62 v-23.0" fill="none" stroke="#000000" stroke-width="2" /><path d="M73,35 v49.0 c0,5.442 0.66,6 9.5,6 c11.776,0 11.967,-0.198 12.5,-29" fill="none" stroke="#000000" stroke-width="2" /><path d="M27.5,53 v30.5 c0,6.974 -0.512,7.5 -4.5,7.5 c-1.734,0 -4.658,-0.144 -8.5,-0.5" fill="none" stroke="#000000" stroke-width="2" /><path d="M6,84 c4.762,-6.359 9.215,-15.513 12,-25" fill="none" stroke="#000000" stroke-width="2" /><path d="M44.5,77.5 c-2.729,-6.824 -6.025,-13.476 -9.5,-19" fill="none" stroke="#000000" stroke-width="2" /></svg>