<?xml version='1.0' encoding='utf-8'?>
<svg xmlns="http://www.w3.org/2000/svg" height="100px" version="1.0" viewBox="0 0 100 100" width="100px" x="0px" y="0px">
<line fill="none" stroke="#000000" stroke-width="2" x1="13.5" x2="91.5" y1="59" y2="59" /><line fill="none" stroke="#000000" stroke-width="2" x1="31" x2="31" y1="90.5" y2="59" /><line fill="none" stroke="#000000" stroke-width="2" x1="69.5" x2="69.5" y1="59" y2="26" /><line fill="none" stroke="#000000" stroke-width="2" x1="36.5" x2="36.5" y1="58" y2="26" /><line fill="none" stroke="#000000" stroke-width="2" x1="19.5" x2="86.5" y1="40" y2="40" /><path d="M51.5,59 c7.588,15.091 21.947,27.299 40,34" fill="none" stroke="#000000" stroke-width="2" /><path d="M15,92.5 c17.232,-1.945 32.201,-4.481 50,-8.5" fill="none" stroke="#000000" stroke-width="2" /><path d="M65,77 c7.613,-3.822 14.701,-8.716 21,-14.5" fill="none" stroke="#000000" stroke-width="2" /><path d="M5.5,91 c6.048,-14.052 9,-29.832 9,-51 v-30.0 H86.0 v16.0 h-70.5" fill="none" stroke="#000000" stroke-width="2" /></svg>