<?xml version='1.0' encoding='utf-8'?>
<svg xmlns="http://www.w3.org/2000/svg" height="100px" version="1.0" viewBox="0 0 100 100" width="100px" x="0px" y="0px">
<line fill="none" stroke="#000000" stroke-width="2" x1="54" x2="54" y1="78.5" y2="29" /><line fill="none" stroke="#000000" stroke-width="2" x1="82.5" x2="25.5" y1="55" y2="55" /><polyline fill="none" points="24.5,56 24.5,38 83.5,38 83.5,56" stroke="#000000" stroke-width="2" /><path d="M22,30 c22.282,0 43.506,-1.374 64,-4" fill="none" stroke="#000000" stroke-width="2" /><path d="M71,90.5 c6.375,0.363 10.296,0.5 12,0.5 c6.003,0 6.5,-0.524 6.5,-6 v-22.5 H19.0 v30.0" fill="none" stroke="#000000" stroke-width="2" /><path d="M83.5,84.5 c-3.608,-5.457 -8.668,-12.529 -13,-18" fill="none" stroke="#000000" stroke-width="2" /><path d="M25.5,80.5 c16.375,-0.679 34.588,-2.617 51.5,-5.5" fill="none" stroke="#000000" stroke-width="2" /><path d="M5.5,91 c6.048,-14.052 9,-29.832 9,-51 v-30.5 H87.0 V22.0 h-71.5" fill="none" stroke="#000000" stroke-width="2" /></svg>