<?xml version='1.0' encoding='utf-8'?>
<svg xmlns="http://www.w3.org/2000/svg" height="100px" version="1.0" viewBox="0 0 100 100" width="100px" x="0px" y="0px">
<line fill="none" stroke="#000000" stroke-width="2" x1="56.5" x2="56.5" y1="31" y2="53.5" /><line fill="none" stroke="#000000" stroke-width="2" x1="29" x2="83" y1="88" y2="88" /><line fill="none" stroke="#000000" stroke-width="2" x1="29" x2="83" y1="75" y2="75" /><line fill="none" stroke="#000000" stroke-width="2" x1="24" x2="88" y1="42" y2="42" /><polyline fill="none" points="84,94 84,62.5 28,62.5 28,94" stroke="#000000" stroke-width="2" /><polyline fill="none" points="24,54.5 89,54.5 89,30 23,30 23,55.5" stroke="#000000" stroke-width="2" /><path d="M5,91 c5.376,-14.052 8,-29.832 8,-51 v-31.0 h77.0 v11.5 h-76.0" fill="none" stroke="#000000" stroke-width="2" /><path d="M44.5,30 c-3.189,-3.385 -6.659,-6.685 -10,-9.5" fill="none" stroke="#000000" stroke-width="2" /><path d="M67.5,30 c3.777,-3.131 7.357,-6.549 10,-9.5" fill="none" stroke="#000000" stroke-width="2" /></svg>