<?xml version='1.0' encoding='utf-8'?>
<svg xmlns="http://www.w3.org/2000/svg" height="100px" version="1.0" viewBox="0 0 100 100" width="100px" x="0px" y="0px">
<line fill="none" stroke="#000000" stroke-width="2" x1="66.5" x2="66.5" y1="74.5" y2="11" /><line fill="none" stroke="#000000" stroke-width="2" x1="89.5" x2="43.5" y1="42" y2="42" /><line fill="none" stroke="#000000" stroke-width="2" x1="89.5" x2="43.5" y1="26" y2="26" /><line fill="none" stroke="#000000" stroke-width="2" x1="7" x2="7" y1="20" y2="92" /><line fill="none" stroke="#000000" stroke-width="2" x1="19" x2="19" y1="84" y2="6.5" /><polyline fill="none" points="42.5,43 42.5,10 90.5,10 90.5,43" stroke="#000000" stroke-width="2" /><polyline fill="none" points="8,84 31,84 31,20" stroke="#000000" stroke-width="2" /><path d="M78.5,90.5 c5.624,0.363 8.998,0.5 10.5,0.5 c4.994,0 5.5,-0.614 5.5,-8 v-28.5 h-56.0 v38.0" fill="none" stroke="#000000" stroke-width="2" /><path d="M90,80.5 c-2.898,-6.317 -7.165,-14.304 -11,-20.5" fill="none" stroke="#000000" stroke-width="2" /><path d="M43.5,77.5 c13.033,-0.974 27.541,-3.63 41,-7.5" fill="none" stroke="#000000" stroke-width="2" /></svg>