<?xml version='1.0' encoding='utf-8'?>
<svg xmlns="http://www.w3.org/2000/svg" height="100px" version="1.0" viewBox="0 0 100 100" width="100px" x="0px" y="0px">
<polyline fill="none" points="23,75 23,45 6,45" stroke="#000000" stroke-width="2" /><path d="M9,10 c5.725,5.621 10.574,10.782 16,17" fill="none" stroke="#000000" stroke-width="2" /><path d="M6,92 c8.029,-5.713 13.36,-11.114 17,-17" fill="none" stroke="#000000" stroke-width="2" /><path d="M93,90 h-34.0 c-21.543,0 -30.148,-3.961 -36,-15" fill="none" stroke="#000000" stroke-width="2" /><path d="M46.5,8.5 c-3.977,13.231 -7.9,22.412 -14,33 c6.712,12.164 11.068,23.548 15,39" fill="none" stroke="#000000" stroke-width="2" /><path d="M68.5,8.5 c-3.978,13.181 -7.919,22.413 -14,33 c6.752,11.649 11.094,22.382 15,37" fill="none" stroke="#000000" stroke-width="2" /><path d="M90.5,8.5 c-3.978,13.181 -7.919,22.413 -14,33 c6.752,11.649 11.094,22.382 15,37" fill="none" stroke="#000000" stroke-width="2" /></svg>