<?xml version='1.0' encoding='utf-8'?>
<svg xmlns="http://www.w3.org/2000/svg" height="100px" version="1.0" viewBox="0 0 100 100" width="100px" x="0px" y="0px">
<line fill="none" stroke="#000000" stroke-width="2" x1="6.5" x2="93.5" y1="43.5" y2="43.5" /><line fill="none" stroke="#000000" stroke-width="2" x1="89.5" x2="10.5" y1="26" y2="26" /><polyline fill="none" points="71,77 71,54.5 29,54.5" stroke="#000000" stroke-width="2" /><path d="M6,66 c22.896,-11.183 41.184,-36.038 44,-62" fill="none" stroke="#000000" stroke-width="2" /><path d="M94,66 c-15.004,-7.564 -28.863,-21.879 -37,-39.5" fill="none" stroke="#000000" stroke-width="2" /><path d="M31,26 c-3.823,-6.224 -8,-12.306 -12,-17.5" fill="none" stroke="#000000" stroke-width="2" /><path d="M69,26 c4.532,-5.767 8.845,-12.054 12,-17.5" fill="none" stroke="#000000" stroke-width="2" /><path d="M71,70 h-48.0 v13.5 c0,7.414 0.303,7.704 9,8.1 c5.96,0.273 10.64,0.4 16.5,0.4 c5.753,0 11.683,-0.146 18,-0.4 c14.315,-0.578 14.771,-0.953 17,-17.1" fill="none" stroke="#000000" stroke-width="2" /></svg>