<?xml version='1.0' encoding='utf-8'?>
<svg xmlns="http://www.w3.org/2000/svg" height="100px" version="1.0" viewBox="0 0 100 100" width="100px" x="0px" y="0px">
<line fill="none" stroke="#000000" stroke-width="2" x1="20.5" x2="20.5" y1="94" y2="6" /><line fill="none" stroke="#000000" stroke-width="2" x1="43.5" x2="43.5" y1="20.5" y2="94" /><line fill="none" stroke="#000000" stroke-width="2" x1="93.5" x2="44" y1="20" y2="20" /><line fill="none" stroke="#000000" stroke-width="2" x1="70" x2="70" y1="87" y2="20" /><line fill="none" stroke="#000000" stroke-width="2" x1="44.5" x2="95.5" y1="87" y2="87" /><line fill="none" stroke="#000000" stroke-width="2" x1="43.5" x2="91.5" y1="64" y2="64" /><line fill="none" stroke="#000000" stroke-width="2" x1="43.5" x2="91.5" y1="41.5" y2="41.5" /><path d="M25.5,75 h3.0 c4.664,0 5,-0.355 5,-7 v-46.0 h-26.0 v55.0" fill="none" stroke="#000000" stroke-width="2" /><path d="M77.5,4 c-2.172,5.901 -4.801,11.103 -8,16" fill="none" stroke="#000000" stroke-width="2" /><path d="M33.5,36.5 c7.086,-8.8 12.306,-19.251 16,-32.5" fill="none" stroke="#000000" stroke-width="2" /></svg>