<?xml version='1.0' encoding='utf-8'?>
<svg xmlns="http://www.w3.org/2000/svg" height="100px" version="1.0" viewBox="0 0 100 100" width="100px" x="0px" y="0px">
<line fill="none" stroke="#000000" stroke-width="2" x1="7" x2="93" y1="14" y2="14" /><line fill="none" stroke="#000000" stroke-width="2" x1="32" x2="32" y1="22" y2="3.5" /><line fill="none" stroke="#000000" stroke-width="2" x1="68" x2="68" y1="22" y2="3.5" /><line fill="none" stroke="#000000" stroke-width="2" x1="19" x2="81" y1="35" y2="35" /><line fill="none" stroke="#000000" stroke-width="2" x1="7" x2="93" y1="56.5" y2="56.5" /><line fill="none" stroke="#000000" stroke-width="2" x1="49.5" x2="49.5" y1="95" y2="59.5" /><polyline fill="none" points="19,47 82,47 82,23 18,23 18,48" stroke="#000000" stroke-width="2" /><path d="M46.5,47 c-9.677,11.469 -22.938,20.653 -41.5,28" fill="none" stroke="#000000" stroke-width="2" /><path d="M63,56.5 c8.423,7.191 18.887,13.305 32,18.5" fill="none" stroke="#000000" stroke-width="2" /><path d="M19.5,92 v-23.0 h61.0 v16.96 c0,4.303 -0.299,4.54 -7,4.54 c-2.265,0 -5.941,-0.159 -12.5,-0.5" fill="none" stroke="#000000" stroke-width="2" /></svg>