<?xml version='1.0' encoding='utf-8'?>
<svg xmlns="http://www.w3.org/2000/svg" height="100px" version="1.0" viewBox="0 0 100 100" width="100px" x="0px" y="0px">
<path d="M42,92 c17.021,-16.926 23,-34.719 23,-86" fill="none" stroke="#000000" stroke-width="2" /><path d="M46.5,28 h45.5 c0,56.537 -2.684,62 -10,62 c-3.222,0 -9.236,-0.354 -16,-1" fill="none" stroke="#000000" stroke-width="2" /><path d="M26.5,58 c-6.365,-9.465 -14.373,-20.13 -21.5,-28.5" fill="none" stroke="#000000" stroke-width="2" /><path d="M9.5,87.5 c11.967,-18.874 22.51,-38.699 32,-60" fill="none" stroke="#000000" stroke-width="2" /><path d="M12.5,38.5 c5.183,-9.15 9.939,-19.29 14.5,-31" fill="none" stroke="#000000" stroke-width="2" /><path d="M46.5,83.5 c-2.629,-6.729 -7.325,-16.456 -12,-24.5" fill="none" stroke="#000000" stroke-width="2" /><path d="M3.5,88.5 c12.308,-1.887 26.92,-5.443 41,-10" fill="none" stroke="#000000" stroke-width="2" /></svg>