<?xml version='1.0' encoding='utf-8'?>
<svg xmlns="http://www.w3.org/2000/svg" height="100px" version="1.0" viewBox="0 0 100 100" width="100px" x="0px" y="0px">
<line fill="none" stroke="#000000" stroke-width="2" x1="14" x2="94" y1="88" y2="88" /><line fill="none" stroke="#000000" stroke-width="2" x1="88" x2="22" y1="66" y2="66" /><line fill="none" stroke="#000000" stroke-width="2" x1="54" x2="54" y1="88" y2="17.5" /><line fill="none" stroke="#000000" stroke-width="2" x1="52" x2="52" y1="12.5" y2="3" /><path d="M17,58 c9.482,-10.224 16.047,-23.763 18.5,-39" fill="none" stroke="#000000" stroke-width="2" /><path d="M47.5,58 c-4.656,-9.729 -10.063,-18.372 -15.5,-25" fill="none" stroke="#000000" stroke-width="2" /><path d="M91,58 c-5.212,-9.624 -11.193,-18.205 -17.5,-25" fill="none" stroke="#000000" stroke-width="2" /><path d="M60.5,58 c8.25,-10.566 13.771,-23.966 15.5,-39" fill="none" stroke="#000000" stroke-width="2" /><path d="M4.5,91.5 c6.048,-14.052 9,-29.832 9,-51 v-27.0 h78.5" fill="none" stroke="#000000" stroke-width="2" /></svg>