<?xml version='1.0' encoding='utf-8'?>
<svg xmlns="http://www.w3.org/2000/svg" height="100px" version="1.0" viewBox="0 0 100 100" width="100px" x="0px" y="0px">
<line fill="none" stroke="#000000" stroke-width="2" x1="33" x2="8" y1="42" y2="42" /><line fill="none" stroke="#000000" stroke-width="2" x1="31" x2="7" y1="12" y2="12" /><line fill="none" stroke="#000000" stroke-width="2" x1="66" x2="90" y1="42" y2="42" /><line fill="none" stroke="#000000" stroke-width="2" x1="34" x2="93" y1="74.5" y2="74.5" /><line fill="none" stroke="#000000" stroke-width="2" x1="66" x2="66" y1="74.5" y2="14" /><line fill="none" stroke="#000000" stroke-width="2" x1="45" x2="45" y1="74.5" y2="32" /><path d="M5.5,92 c13.922,-12.5 23.313,-29.521 26.513,-49.16" fill="none" stroke="#000000" stroke-width="2" /><path d="M8.725,41.688 c8.915,-9.398 15.787,-18.797 21.396,-29.164" fill="none" stroke="#000000" stroke-width="2" /><path d="M93,90 h-25.0 c-33.441,0 -45.078,-7.534 -57,-39" fill="none" stroke="#000000" stroke-width="2" /><path d="M40,16.5 c16.49,-0.575 33.654,-3.22 49,-7.5" fill="none" stroke="#000000" stroke-width="2" /><path d="M39,16.5 c16.827,-0.575 34.342,-3.22 50,-7.5" fill="none" stroke="#000000" stroke-width="2" /></svg>