<?xml version='1.0' encoding='utf-8'?>
<svg xmlns="http://www.w3.org/2000/svg" height="100px" version="1.0" viewBox="0 0 100 100" width="100px" x="0px" y="0px">
<line fill="none" stroke="#000000" stroke-width="2" x1="34.5" x2="95" y1="52" y2="52" /><line fill="none" stroke="#000000" stroke-width="2" x1="44" x2="88" y1="23.5" y2="23.5" /><line fill="none" stroke="#000000" stroke-width="2" x1="44" x2="88" y1="37.5" y2="37.5" /><polyline fill="none" points="44,89.5 44,10 91,10" stroke="#000000" stroke-width="2" /><path d="M8.5,11 h24.5 v23.0 h-21.5 c-0.637,11.548 -1.652,22.362 -3,32" fill="none" stroke="#000000" stroke-width="2" /><path d="M10,56.5 h23.0 c-2.152,33.056 -3.082,34 -7.5,34 c-2.577,0 -10.963,-0.507 -16,-1" fill="none" stroke="#000000" stroke-width="2" /><path d="M53,52 c8.239,16.393 22.844,30.573 42,40" fill="none" stroke="#000000" stroke-width="2" /><path d="M33,91.5 c13.277,-1.945 24.794,-4.458 38.5,-8.5" fill="none" stroke="#000000" stroke-width="2" /><path d="M72,76.5 c6.272,-5.035 12.062,-11.488 17,-19" fill="none" stroke="#000000" stroke-width="2" /></svg>