<?xml version='1.0' encoding='utf-8'?>
<svg xmlns="http://www.w3.org/2000/svg" height="100px" version="1.0" viewBox="0 0 100 100" width="100px" x="0px" y="0px">
<line fill="none" stroke="#000000" stroke-width="2" x1="17.5" x2="17.5" y1="94" y2="43" /><line fill="none" stroke="#000000" stroke-width="2" x1="36" x2="87" y1="39" y2="39" /><line fill="none" stroke="#000000" stroke-width="2" x1="63.5" x2="63.5" y1="39" y2="5" /><path d="M27,29 c-5.266,10.459 -12.938,19.355 -23.5,27" fill="none" stroke="#000000" stroke-width="2" /><path d="M28,7 c-5.256,8.887 -13.006,16.485 -23.5,23" fill="none" stroke="#000000" stroke-width="2" /><path d="M35.5,91 c21.447,-6.523 39.112,-23.589 50.575,-51.381" fill="none" stroke="#000000" stroke-width="2" /><path d="M95.5,91 c-22.088,-6.802 -38.547,-21.919 -48.5,-47" fill="none" stroke="#000000" stroke-width="2" /><path d="M86,33 c3.389,-4.989 5.912,-10.032 8.056,-16.323" fill="none" stroke="#000000" stroke-width="2" /><path d="M26,91.5 c6.739,-14.092 10,-29.671 10,-51 V16.0 h59.0" fill="none" stroke="#000000" stroke-width="2" /></svg>