<?xml version='1.0' encoding='utf-8'?>
<svg xmlns="http://www.w3.org/2000/svg" height="100px" version="1.0" viewBox="0 0 100 100" width="100px" x="0px" y="0px">
<line fill="none" stroke="#000000" stroke-width="2" x1="17" x2="17" y1="94" y2="42" /><line fill="none" stroke="#000000" stroke-width="2" x1="61" x2="89" y1="53" y2="53" /><line fill="none" stroke="#000000" stroke-width="2" x1="61" x2="61" y1="87" y2="25" /><line fill="none" stroke="#000000" stroke-width="2" x1="30" x2="94" y1="25" y2="25" /><path d="M26.5,28 c-5.266,10.459 -12.938,19.355 -23.5,27" fill="none" stroke="#000000" stroke-width="2" /><path d="M27.5,6 c-5.256,8.887 -13.006,16.485 -23.5,23" fill="none" stroke="#000000" stroke-width="2" /><path d="M24.5,92 c6.762,-14.311 11.958,-32.98 14.5,-53" fill="none" stroke="#000000" stroke-width="2" /><path d="M95,90 h-5.0 c-33.7,0 -46.551,-6.907 -55,-28.5" fill="none" stroke="#000000" stroke-width="2" /><path d="M68.5,25 c5.146,-5.556 9.526,-11.974 13,-19" fill="none" stroke="#000000" stroke-width="2" /><path d="M53.5,25 c-2.856,-6.283 -6.136,-12.364 -10,-18.5" fill="none" stroke="#000000" stroke-width="2" /></svg>