<?xml version='1.0' encoding='utf-8'?>
<svg xmlns="http://www.w3.org/2000/svg" height="100px" version="1.0" viewBox="0 0 100 100" width="100px" x="0px" y="0px">
<line fill="none" stroke="#000000" stroke-width="2" x1="17" x2="17" y1="94" y2="42" /><line fill="none" stroke="#000000" stroke-width="2" x1="29.5" x2="54.5" y1="22" y2="22" /><line fill="none" stroke="#000000" stroke-width="2" x1="71" x2="96" y1="22" y2="22" /><line fill="none" stroke="#000000" stroke-width="2" x1="71" x2="96.5" y1="68" y2="68" /><line fill="none" stroke="#000000" stroke-width="2" x1="30.5" x2="54.5" y1="44" y2="44" /><line fill="none" stroke="#000000" stroke-width="2" x1="71" x2="94.5" y1="44" y2="44" /><line fill="none" stroke="#000000" stroke-width="2" x1="71" x2="71" y1="94" y2="6" /><path d="M26.5,28 c-5.266,10.459 -12.938,19.355 -23.5,27" fill="none" stroke="#000000" stroke-width="2" /><path d="M27.5,6 c-5.256,8.887 -13.006,16.485 -23.5,23" fill="none" stroke="#000000" stroke-width="2" /><path d="M32.5,94.5 c16.23,-8.743 22,-19.019 22,-47.5 v-41.0" fill="none" stroke="#000000" stroke-width="2" /><path d="M27.5,72 c9.139,-2.486 17.098,-5.247 26,-9" fill="none" stroke="#000000" stroke-width="2" /></svg>