<?xml version='1.0' encoding='utf-8'?>
<svg xmlns="http://www.w3.org/2000/svg" height="100px" version="1.0" viewBox="0 0 100 100" width="100px" x="0px" y="0px">
<line fill="none" stroke="#000000" stroke-width="2" x1="48.5" x2="48.5" y1="17" y2="83" /><line fill="none" stroke="#000000" stroke-width="2" x1="32.5" x2="32.5" y1="49" y2="86.5" /><line fill="none" stroke="#000000" stroke-width="2" x1="68" x2="48.5" y1="57" y2="57" /><line fill="none" stroke="#000000" stroke-width="2" x1="70" x2="24.5" y1="37.5" y2="37.5" /><line fill="none" stroke="#000000" stroke-width="2" x1="68" x2="36.5" y1="17" y2="17" /><line fill="none" stroke="#000000" stroke-width="2" x1="14" x2="14" y1="94" y2="43.5" /><path d="M21.5,88.5 c20.424,-3.644 38.037,-8.143 48.5,-12" fill="none" stroke="#000000" stroke-width="2" /><path d="M41.5,5 c-2.629,9.021 -7.832,18.774 -14,26" fill="none" stroke="#000000" stroke-width="2" /><path d="M75,94 v-83.0 h19.0 v62.0 c0,6.659 -1.053,8 -5,8 h-8.5" fill="none" stroke="#000000" stroke-width="2" /><path d="M24,28 c-5.643,11.01 -13.136,20.146 -22,27" fill="none" stroke="#000000" stroke-width="2" /><path d="M25,6 c-5.519,9.226 -12.759,16.872 -22,23" fill="none" stroke="#000000" stroke-width="2" /></svg>