<?xml version='1.0' encoding='utf-8'?>
<svg xmlns="http://www.w3.org/2000/svg" height="100px" version="1.0" viewBox="0 0 100 100" width="100px" x="0px" y="0px">
<line fill="none" stroke="#000000" stroke-width="2" x1="17" x2="17" y1="94" y2="42" /><line fill="none" stroke="#000000" stroke-width="2" x1="71" x2="71" y1="52" y2="30" /><line fill="none" stroke="#000000" stroke-width="2" x1="51.5" x2="51.5" y1="52" y2="30" /><line fill="none" stroke="#000000" stroke-width="2" x1="27.5" x2="94.5" y1="16" y2="16" /><line fill="none" stroke="#000000" stroke-width="2" x1="61" x2="61" y1="28" y2="4" /><polyline fill="none" points="33,53 90.5,53 90.5,29 32,29 32,54" stroke="#000000" stroke-width="2" /><path d="M26.5,28 c-5.266,10.459 -12.938,19.355 -23.5,27" fill="none" stroke="#000000" stroke-width="2" /><path d="M27.5,6 c-5.256,8.887 -13.006,16.485 -23.5,23" fill="none" stroke="#000000" stroke-width="2" /><path d="M45.5,63 v17.0 c0,11.781 0.219,12 16,12 c19.752,0 20.014,-0.227 21,-15.5" fill="none" stroke="#000000" stroke-width="2" /><path d="M24,89 c4.953,-6.662 9.1,-15.48 11.5,-24.5" fill="none" stroke="#000000" stroke-width="2" /><path d="M96,89.5 c-3.322,-8.657 -7.641,-17.674 -12.5,-26" fill="none" stroke="#000000" stroke-width="2" /><path d="M70,74.5 c-4.447,-5.048 -9.67,-10.118 -15.5,-15" fill="none" stroke="#000000" stroke-width="2" /></svg>