<?xml version='1.0' encoding='utf-8'?>
<svg xmlns="http://www.w3.org/2000/svg" height="100px" version="1.0" viewBox="0 0 100 100" width="100px" x="0px" y="0px">
<line fill="none" stroke="#000000" stroke-width="2" x1="7.5" x2="92.5" y1="18" y2="18" /><line fill="none" stroke="#000000" stroke-width="2" x1="50" x2="50" y1="18" y2="5" /><path d="M32.5,55.5 v23.0 c0,10.571 0.292,10.911 7,11.5 c3.618,0.317 8.079,0.5 12.5,0.5 c4.34,0 8.638,-0.161 12.5,-0.5 c11.145,-0.978 11.313,-1.124 13,-18" fill="none" stroke="#000000" stroke-width="2" /><path d="M6,86.5 c6.062,-7.658 11.077,-17.579 14,-28" fill="none" stroke="#000000" stroke-width="2" /><path d="M63,73.5 c-4.878,-6.465 -10.542,-12.843 -17,-19" fill="none" stroke="#000000" stroke-width="2" /><path d="M94,87 c-4.006,-10.022 -9.154,-20.366 -15,-30" fill="none" stroke="#000000" stroke-width="2" /><path d="M87.5,45.5 c-12.309,1.002 -23.787,1.5 -35,1.5 c-6.91,0 -12.473,-0.132 -19.5,-0.5 c-10.219,-0.535 -10.5,-0.816 -10.5,-11.5 v-17.0" fill="none" stroke="#000000" stroke-width="2" /></svg>