<?xml version='1.0' encoding='utf-8'?>
<svg xmlns="http://www.w3.org/2000/svg" height="100px" version="1.0" viewBox="0 0 100 100" width="100px" x="0px" y="0px">
<line fill="none" stroke="#000000" stroke-width="2" x1="50" x2="50" y1="59" y2="5" /><line fill="none" stroke="#000000" stroke-width="2" x1="16.5" x2="84.5" y1="46.5" y2="46.5" /><polyline fill="none" points="84.5,53.5 84.5,17 15.5,17 15.5,53.5" stroke="#000000" stroke-width="2" /><path d="M63,75.5 c-5.825,-4.966 -12.691,-9.811 -20,-14" fill="none" stroke="#000000" stroke-width="2" /><path d="M32.5,62.5 v17.5 c0,10.571 0.292,10.911 7,11.5 c3.618,0.317 8.079,0.5 12.5,0.5 c4.34,0 8.638,-0.161 12.5,-0.5 c11.145,-0.978 11.313,-1.124 13,-18" fill="none" stroke="#000000" stroke-width="2" /><path d="M5.5,89.5 c6.062,-6.838 11.077,-15.696 14,-25" fill="none" stroke="#000000" stroke-width="2" /><path d="M94.5,90 c-4.006,-9.021 -9.154,-18.33 -15,-27" fill="none" stroke="#000000" stroke-width="2" /></svg>