<?xml version='1.0' encoding='utf-8'?>
<svg xmlns="http://www.w3.org/2000/svg" height="100px" version="1.0" viewBox="0 0 100 100" width="100px" x="0px" y="0px">
<line fill="none" stroke="#000000" stroke-width="2" x1="25.5" x2="25.5" y1="12.5" y2="44.5" /><line fill="none" stroke="#000000" stroke-width="2" x1="44.5" x2="8" y1="12.5" y2="12.5" /><path d="M38.5,54 c8.838,-7.626 12.5,-16.571 12.5,-35.5 V10.0 h30.0 v35.0 c0,6.755 0.245,7 6,7 c7.613,0 8.733,-1.212 9,-24" fill="none" stroke="#000000" stroke-width="2" /><path d="M6.5,49.5 c15.549,-3.218 29.663,-7.843 38,-12" fill="none" stroke="#000000" stroke-width="2" /><path d="M74,41.5 c-4.463,-6.979 -10.309,-14.499 -16,-20.5" fill="none" stroke="#000000" stroke-width="2" /><path d="M32.5,58.5 v21.0 c0,10.571 0.292,10.911 7,11.5 c3.618,0.317 8.079,0.5 12.5,0.5 c4.34,0 8.638,-0.161 12.5,-0.5 c11.145,-0.978 11.313,-1.124 13,-18" fill="none" stroke="#000000" stroke-width="2" /><path d="M5.5,87.5 c6.062,-7.385 11.077,-16.951 14,-27" fill="none" stroke="#000000" stroke-width="2" /><path d="M62,76.5 c-4.591,-6.125 -9.922,-12.167 -16,-18" fill="none" stroke="#000000" stroke-width="2" /><path d="M94.5,88 c-4.006,-9.688 -9.154,-19.688 -15,-29" fill="none" stroke="#000000" stroke-width="2" /></svg>