<?xml version='1.0' encoding='utf-8'?>
<svg xmlns="http://www.w3.org/2000/svg" height="100px" version="1.0" viewBox="0 0 100 100" width="100px" x="0px" y="0px">
<line fill="none" stroke="#000000" stroke-width="2" x1="92.5" x2="7.5" y1="40" y2="40" /><line fill="none" stroke="#000000" stroke-width="2" x1="11.5" x2="88.5" y1="19.5" y2="19.5" /><line fill="none" stroke="#000000" stroke-width="2" x1="33.5" x2="33.5" y1="39" y2="5" /><line fill="none" stroke="#000000" stroke-width="2" x1="66.5" x2="66.5" y1="39" y2="5" /><path d="M46,47.5 v40.5 c0,4.221 -0.269,4.5 -5.5,4.5 c-1.527,0 -5.535,-0.147 -11,-0.5" fill="none" stroke="#000000" stroke-width="2" /><path d="M12.5,88.5 c7.133,-7.56 13.036,-17.28 16.5,-27.5" fill="none" stroke="#000000" stroke-width="2" /><path d="M71,89.5 c-3.783,-9.036 -8.66,-18.171 -14.5,-27" fill="none" stroke="#000000" stroke-width="2" /><path d="M91,87.5 c-5.227,-8.526 -11.783,-17.396 -19,-25.5" fill="none" stroke="#000000" stroke-width="2" /><path d="M4.5,70 c11.637,-7.233 23.199,-19.258 29,-30" fill="none" stroke="#000000" stroke-width="2" /><path d="M95.5,70 c-11.637,-7.233 -23.199,-19.258 -29,-30" fill="none" stroke="#000000" stroke-width="2" /></svg>