<?xml version='1.0' encoding='utf-8'?>
<svg xmlns="http://www.w3.org/2000/svg" height="100px" version="1.0" viewBox="0 0 100 100" width="100px" x="0px" y="0px">
<line fill="none" stroke="#000000" stroke-width="2" x1="17" x2="17" y1="94" y2="6" /><line fill="none" stroke="#000000" stroke-width="2" x1="91" x2="33" y1="86.5" y2="86.5" /><line fill="none" stroke="#000000" stroke-width="2" x1="91" x2="91" y1="39.5" y2="93.5" /><line fill="none" stroke="#000000" stroke-width="2" x1="33" x2="33" y1="93.5" y2="39.5" /><path d="M4,58 c2.624,-10.247 4.357,-21.376 5,-32" fill="none" stroke="#000000" stroke-width="2" /><path d="M27,46 c-0.573,-6.952 -1.604,-14.611 -3,-22" fill="none" stroke="#000000" stroke-width="2" /><path d="M41,81.5 c15.972,-8.956 30.006,-24.778 37,-42" fill="none" stroke="#000000" stroke-width="2" /><path d="M41.5,44.5 c13.221,8.157 25.238,18.105 41.5,35" fill="none" stroke="#000000" stroke-width="2" /><path d="M43,33.5 c-3.674,-9.509 -7.696,-17.821 -11.5,-24" fill="none" stroke="#000000" stroke-width="2" /><path d="M65,31.5 c-3.529,-9.694 -7.442,-18.192 -11.5,-25" fill="none" stroke="#000000" stroke-width="2" /><path d="M74.5,35.5 c6.491,-7.185 12.806,-16.963 18,-28" fill="none" stroke="#000000" stroke-width="2" /></svg>