<?xml version='1.0' encoding='utf-8'?>
<svg xmlns="http://www.w3.org/2000/svg" height="100px" version="1.0" viewBox="0 0 100 100" width="100px" x="0px" y="0px">
<line fill="none" stroke="#000000" stroke-width="2" x1="27.5" x2="95.5" y1="52" y2="52" /><line fill="none" stroke="#000000" stroke-width="2" x1="38" x2="88.5" y1="23.5" y2="23.5" /><line fill="none" stroke="#000000" stroke-width="2" x1="38" x2="88.5" y1="37.5" y2="37.5" /><line fill="none" stroke="#000000" stroke-width="2" x1="17" x2="17" y1="94" y2="6" /><polyline fill="none" points="38,89.5 38,10 91.5,10" stroke="#000000" stroke-width="2" /><path d="M49.5,52 c9.023,16.393 25.019,30.573 46,40" fill="none" stroke="#000000" stroke-width="2" /><path d="M25,91.5 c13.277,-1.945 24.794,-4.458 38.5,-8.5" fill="none" stroke="#000000" stroke-width="2" /><path d="M70.5,76.5 c6.853,-5.059 13.092,-11.488 18.5,-19" fill="none" stroke="#000000" stroke-width="2" /><path d="M4,58 c2.624,-10.247 4.357,-21.376 5,-32" fill="none" stroke="#000000" stroke-width="2" /><path d="M27.5,47.5 c-0.573,-6.952 -1.604,-14.611 -3,-22" fill="none" stroke="#000000" stroke-width="2" /></svg>