<?xml version='1.0' encoding='utf-8'?>
<svg xmlns="http://www.w3.org/2000/svg" height="100px" version="1.0" viewBox="0 0 100 100" width="100px" x="0px" y="0px">
<line fill="none" stroke="#000000" stroke-width="2" x1="17" x2="17" y1="94" y2="6" /><line fill="none" stroke="#000000" stroke-width="2" x1="38" x2="38" y1="20.5" y2="94" /><line fill="none" stroke="#000000" stroke-width="2" x1="93" x2="38.5" y1="20" y2="20" /><line fill="none" stroke="#000000" stroke-width="2" x1="67" x2="67" y1="87" y2="20" /><line fill="none" stroke="#000000" stroke-width="2" x1="39" x2="95" y1="87" y2="87" /><line fill="none" stroke="#000000" stroke-width="2" x1="38" x2="90.5" y1="64" y2="64" /><line fill="none" stroke="#000000" stroke-width="2" x1="38" x2="90.5" y1="41.5" y2="41.5" /><path d="M4,58 c2.624,-10.247 4.357,-21.376 5,-32" fill="none" stroke="#000000" stroke-width="2" /><path d="M27,46 c-0.573,-6.952 -1.604,-14.611 -3,-22" fill="none" stroke="#000000" stroke-width="2" /><path d="M75,4 c-2.308,5.901 -5.102,11.103 -8.501,16" fill="none" stroke="#000000" stroke-width="2" /><path d="M26,37.5 c8.41,-9.297 14.461,-20.075 18.5,-33.5" fill="none" stroke="#000000" stroke-width="2" /></svg>