<?xml version='1.0' encoding='utf-8'?>
<svg xmlns="http://www.w3.org/2000/svg" height="100px" version="1.0" viewBox="0 0 100 100" width="100px" x="0px" y="0px">
<line fill="none" stroke="#000000" stroke-width="2" x1="82" x2="43" y1="27" y2="27" /><line fill="none" stroke="#000000" stroke-width="2" x1="35" x2="57.5" y1="53.5" y2="53.5" /><line fill="none" stroke="#000000" stroke-width="2" x1="35" x2="57.5" y1="70" y2="70" /><line fill="none" stroke="#000000" stroke-width="2" x1="70.5" x2="70.5" y1="79" y2="39" /><line fill="none" stroke="#000000" stroke-width="2" x1="17" x2="17" y1="94" y2="6" /><path d="M96,33 c-12.561,-8.155 -23.168,-16.672 -33.5,-26.8 c-10.332,10.128 -20.939,18.645 -33.5,26.8" fill="none" stroke="#000000" stroke-width="2" /><path d="M34,92 v-54.0 h24.5 v44.5 c0,7.331 -0.547,8 -5.5,8 c-1.598,0 -4.329,-0.142 -9.5,-0.5" fill="none" stroke="#000000" stroke-width="2" /><path d="M90,36 v47.0 c0,7.06 -0.885,8 -5.5,8 c-2.172,0 -5.799,-0.173 -10.5,-0.5" fill="none" stroke="#000000" stroke-width="2" /><path d="M4,58 c2.624,-10.247 4.357,-21.376 5,-32" fill="none" stroke="#000000" stroke-width="2" /><path d="M27.5,47.5 c-0.573,-6.952 -1.604,-14.611 -3,-22" fill="none" stroke="#000000" stroke-width="2" /></svg>