<?xml version='1.0' encoding='utf-8'?>
<svg xmlns="http://www.w3.org/2000/svg" height="100px" version="1.0" viewBox="0 0 100 100" width="100px" x="0px" y="0px">
<line fill="none" stroke="#000000" stroke-width="2" x1="17" x2="17" y1="94" y2="6" /><line fill="none" stroke="#000000" stroke-width="2" x1="94" x2="42.5" y1="14" y2="14" /><line fill="none" stroke="#000000" stroke-width="2" x1="39.5" x2="87.5" y1="37.5" y2="37.5" /><line fill="none" stroke="#000000" stroke-width="2" x1="45.5" x2="87.5" y1="61" y2="61" /><polyline fill="none" points="39.5,52 88.5,52 88.5,24 38.5,24 38.5,53" stroke="#000000" stroke-width="2" /><path d="M4,58 c2.624,-10.247 4.357,-21.376 5,-32" fill="none" stroke="#000000" stroke-width="2" /><path d="M27.5,47.5 c-0.573,-6.952 -1.604,-14.611 -3,-22" fill="none" stroke="#000000" stroke-width="2" /><path d="M29,35 c7.559,-8.317 13.897,-19.521 17.5,-31" fill="none" stroke="#000000" stroke-width="2" /><path d="M29,73 c9.915,-4.911 19.99,-14.234 23.5,-21" fill="none" stroke="#000000" stroke-width="2" /><path d="M86.677,61.434 c-9.962,14.512 -30.242,25.998 -58.677,30.566" fill="none" stroke="#000000" stroke-width="2" /><path d="M95,92 c-21.379,-6.163 -40.028,-17.306 -51,-30" fill="none" stroke="#000000" stroke-width="2" /></svg>