<?xml version='1.0' encoding='utf-8'?>
<svg xmlns="http://www.w3.org/2000/svg" height="100px" version="1.0" viewBox="0 0 100 100" width="100px" x="0px" y="0px">
<line fill="none" stroke="#000000" stroke-width="2" x1="12" x2="43.5" y1="51" y2="51" /><line fill="none" stroke="#000000" stroke-width="2" x1="12" x2="43.5" y1="39.5" y2="39.5" /><path d="M31.5,69.5 v11.0 c0,10.571 0.292,10.911 7,11.5 c3.618,0.317 8.079,0.5 12.5,0.5 c4.34,0 8.638,-0.161 12.5,-0.5 c11.35,-0.996 11.514,-1.125 13,-16" fill="none" stroke="#000000" stroke-width="2" /><path d="M11.5,22 c4.609,-5.177 8.946,-10.892 12.5,-16.5" fill="none" stroke="#000000" stroke-width="2" /><path d="M51,25 c-4.072,-4.862 -9.965,-11.177 -15,-16" fill="none" stroke="#000000" stroke-width="2" /><path d="M4,22.5 c13.721,-0.355 28.156,-1.204 42.5,-2.5" fill="none" stroke="#000000" stroke-width="2" /><path d="M11,64.5 V28.0 h33.5 v31.5 c0,3.755 -0.245,4 -5.5,4 c-1.858,0 -5.125,-0.157 -10.5,-0.5" fill="none" stroke="#000000" stroke-width="2" /><path d="M5.5,90.5 c6.062,-5.47 11.027,-12.577 14,-20" fill="none" stroke="#000000" stroke-width="2" /><path d="M94.5,91 c-4.006,-7.016 -9.133,-14.279 -15,-21" fill="none" stroke="#000000" stroke-width="2" /><path d="M63,80.5 c-5.825,-4.257 -12.686,-8.422 -20,-12" fill="none" stroke="#000000" stroke-width="2" /><path d="M56,6.5 V28.0 c0,4.037 0.513,4.5 15.5,4.5 c18.401,0 18.554,-0.12 20.5,-12" fill="none" stroke="#000000" stroke-width="2" /><path d="M56,19.5 c12.077,-2.118 22.641,-4.992 35,-9.5" fill="none" stroke="#000000" stroke-width="2" /><path d="M56,36.5 v23.0 c0,4.037 0.513,4.5 15.5,4.5 c18.851,0 19.006,-0.128 21,-13" fill="none" stroke="#000000" stroke-width="2" /><path d="M56,48 c12.077,-2.118 22.641,-4.992 35,-9.5" fill="none" stroke="#000000" stroke-width="2" /></svg>