<?xml version='1.0' encoding='utf-8'?>
<svg xmlns="http://www.w3.org/2000/svg" height="100px" version="1.0" viewBox="0 0 100 100" width="100px" x="0px" y="0px">
<line fill="none" stroke="#000000" stroke-width="2" x1="29" x2="77" y1="69" y2="69" /><line fill="none" stroke="#000000" stroke-width="2" x1="8" x2="92" y1="10.5" y2="10.5" /><line fill="none" stroke="#000000" stroke-width="2" x1="21" x2="79" y1="27.5" y2="27.5" /><line fill="none" stroke="#000000" stroke-width="2" x1="21" x2="79" y1="36.5" y2="36.5" /><polyline fill="none" points="90,58.5 90,45.5 10,45.5 10,58.5" stroke="#000000" stroke-width="2" /><polyline fill="none" points="80,44.5 80,18.5 20,18.5 20,44.5" stroke="#000000" stroke-width="2" /><path d="M8,91.5 c30.556,-3.417 55.242,-12.188 68.391,-22.293" fill="none" stroke="#000000" stroke-width="2" /><path d="M92,91.5 c-25.549,-2.956 -49.226,-10.589 -63,-19.5" fill="none" stroke="#000000" stroke-width="2" /><path d="M31.5,49 v8.5 c0,4.912 0.11,5 17,5 c21.692,0 21.876,-0.146 23,-10.5" fill="none" stroke="#000000" stroke-width="2" /><path d="M10,65 c5.425,-3.872 9.893,-8.993 12.5,-14" fill="none" stroke="#000000" stroke-width="2" /><path d="M88.5,65 c-3.357,-4.325 -7.802,-9.177 -13,-14" fill="none" stroke="#000000" stroke-width="2" /><path d="M58.5,56 c-5.266,-2.441 -11.482,-4.872 -18,-7" fill="none" stroke="#000000" stroke-width="2" /><path d="M8,79 c12.744,-4.509 23.357,-10.706 29.5,-16.5" fill="none" stroke="#000000" stroke-width="2" /><path d="M50,10.5 c-1.285,2.968 -2.926,5.585 -5,8" fill="none" stroke="#000000" stroke-width="2" /></svg>