<?xml version='1.0' encoding='utf-8'?>
<svg xmlns="http://www.w3.org/2000/svg" height="100px" version="1.0" viewBox="0 0 100 100" width="100px" x="0px" y="0px">
<line fill="none" stroke="#000000" stroke-width="2" x1="16.5" x2="16.5" y1="94" y2="6" /><line fill="none" stroke="#000000" stroke-width="2" x1="62" x2="62" y1="19" y2="47" /><line fill="none" stroke="#000000" stroke-width="2" x1="36.5" x2="87.5" y1="88" y2="88" /><line fill="none" stroke="#000000" stroke-width="2" x1="36.5" x2="87.5" y1="72" y2="72" /><line fill="none" stroke="#000000" stroke-width="2" x1="32.5" x2="91.5" y1="32.5" y2="32.5" /><polyline fill="none" points="88.5,94 88.5,57 35.5,57 35.5,94" stroke="#000000" stroke-width="2" /><polyline fill="none" points="32.5,48 92.5,48 92.5,18 31.5,18 31.5,49" stroke="#000000" stroke-width="2" /><path d="M4,58 c2.624,-10.247 4.357,-21.376 5,-32" fill="none" stroke="#000000" stroke-width="2" /><path d="M26.5,47.5 c-0.573,-6.952 -1.604,-14.611 -3,-22" fill="none" stroke="#000000" stroke-width="2" /><path d="M51.5,18 c-3.202,-4.438 -6.659,-8.795 -10,-12.5" fill="none" stroke="#000000" stroke-width="2" /><path d="M72.5,18 c3.777,-4.119 7.357,-8.616 10,-12.5" fill="none" stroke="#000000" stroke-width="2" /></svg>