<?xml version='1.0' encoding='utf-8'?>
<svg xmlns="http://www.w3.org/2000/svg" height="100px" version="1.0" viewBox="0 0 100 100" width="100px" x="0px" y="0px">
<line fill="none" stroke="#000000" stroke-width="2" x1="50" x2="50" y1="44.5" y2="3" /><line fill="none" stroke="#000000" stroke-width="2" x1="7.5" x2="92.5" y1="44.5" y2="44.5" /><line fill="none" stroke="#000000" stroke-width="2" x1="18.5" x2="81.5" y1="33.5" y2="33.5" /><line fill="none" stroke="#000000" stroke-width="2" x1="16.5" x2="83.5" y1="23" y2="23" /><line fill="none" stroke="#000000" stroke-width="2" x1="62" x2="62" y1="64" y2="52.5" /><line fill="none" stroke="#000000" stroke-width="2" x1="38" x2="38" y1="64" y2="52.5" /><polyline fill="none" points="89.5,28.5 89.5,13 10.5,13 10.5,28.5" stroke="#000000" stroke-width="2" /><polyline fill="none" points="15.5,65 85.5,65 85.5,51.5 14.5,51.5 14.5,66" stroke="#000000" stroke-width="2" /><path d="M31.5,69.5 v14.5 c0,6.58 1.377,7.5 19.5,7.5 c24.33,0 24.572,-0.185 25.5,-14.5" fill="none" stroke="#000000" stroke-width="2" /><path d="M5.5,90.5 c6.062,-5.196 11.027,-11.948 14,-19" fill="none" stroke="#000000" stroke-width="2" /><path d="M94.5,91 c-4.006,-6.682 -9.133,-13.599 -15,-20" fill="none" stroke="#000000" stroke-width="2" /><path d="M63,81.5 c-5.825,-4.257 -12.686,-8.422 -20,-12" fill="none" stroke="#000000" stroke-width="2" /></svg>