<?xml version='1.0' encoding='utf-8'?>
<svg xmlns="http://www.w3.org/2000/svg" height="100px" version="1.0" viewBox="0 0 100 100" width="100px" x="0px" y="0px">
<line fill="none" stroke="#000000" stroke-width="2" x1="61.5" x2="61.5" y1="93.5" y2="54.5" /><line fill="none" stroke="#000000" stroke-width="2" x1="95" x2="27" y1="63" y2="63" /><line fill="none" stroke="#000000" stroke-width="2" x1="15.5" x2="15.5" y1="94" y2="6" /><polyline fill="none" points="32,52.5 58,52.5 58,34 31,34 31,53.5" stroke="#000000" stroke-width="2" /><polyline fill="none" points="66,52.5 92,52.5 92,34 65,34 65,53.5" stroke="#000000" stroke-width="2" /><polyline fill="none" points="37.5,27 86.5,27 86.5,9 36.5,9 36.5,28" stroke="#000000" stroke-width="2" /><path d="M25,89 c15.764,-7.159 28.587,-16.962 35.5,-26" fill="none" stroke="#000000" stroke-width="2" /><path d="M96.5,89 c-15.474,-7.785 -26.607,-16.469 -34,-26" fill="none" stroke="#000000" stroke-width="2" /><path d="M3,58 c2.624,-10.247 4.357,-21.376 5,-32" fill="none" stroke="#000000" stroke-width="2" /><path d="M26,47.5 c-0.573,-6.952 -1.604,-14.611 -3,-22" fill="none" stroke="#000000" stroke-width="2" /></svg>