<?xml version='1.0' encoding='utf-8'?>
<svg xmlns="http://www.w3.org/2000/svg" height="100px" version="1.0" viewBox="0 0 100 100" width="100px" x="0px" y="0px">
<line fill="none" stroke="#000000" stroke-width="2" x1="34" x2="81" y1="11" y2="11" /><line fill="none" stroke="#000000" stroke-width="2" x1="72.5" x2="94" y1="36" y2="36" /><line fill="none" stroke="#000000" stroke-width="2" x1="36" x2="5" y1="26" y2="26" /><path d="M70,42 c4.47,-9.429 7.832,-19.425 10.018,-30.198" fill="none" stroke="#000000" stroke-width="2" /><path d="M27.5,91.5 c13.75,-16.169 21,-40.948 21,-80.5" fill="none" stroke="#000000" stroke-width="2" /><path d="M97,91.5 c-25.098,-14.808 -42.128,-41.073 -48.5,-80.5" fill="none" stroke="#000000" stroke-width="2" /><path d="M41,91.5 c24.756,-9.923 43.082,-28.235 52.051,-54.819" fill="none" stroke="#000000" stroke-width="2" /><path d="M21,6 v77.0 c0,7.683 -0.373,8 -5,8 c-2.246,0 -5.661,-0.149 -10,-0.5" fill="none" stroke="#000000" stroke-width="2" /><path d="M36,50 c-10.727,5.009 -20.715,8.534 -31,11" fill="none" stroke="#000000" stroke-width="2" /></svg>