<?xml version='1.0' encoding='utf-8'?>
<svg xmlns="http://www.w3.org/2000/svg" height="100px" version="1.0" viewBox="0 0 100 100" width="100px" x="0px" y="0px">
<line fill="none" stroke="#000000" stroke-width="2" x1="30.5" x2="4.5" y1="26" y2="26" /><line fill="none" stroke="#000000" stroke-width="2" x1="38" x2="61" y1="39" y2="39" /><line fill="none" stroke="#000000" stroke-width="2" x1="38" x2="38" y1="87.5" y2="6.5" /><path d="M19,6 v77.0 c0,7.683 -0.373,8 -5,8 c-2.246,0 -4.663,-0.119 -9,-0.5" fill="none" stroke="#000000" stroke-width="2" /><path d="M31,52 c-9.273,5.024 -17.811,8.546 -26.5,11" fill="none" stroke="#000000" stroke-width="2" /><path d="M67,45 c9.453,-5.924 17.794,-13.675 27.5,-26" fill="none" stroke="#000000" stroke-width="2" /><path d="M25,91.5 c12.602,-3.248 23.929,-7.521 37,-14" fill="none" stroke="#000000" stroke-width="2" /><path d="M67,6.5 v79.0 c0,4.583 0.577,5 13,5 c13.731,0 13.94,-0.206 15,-29" fill="none" stroke="#000000" stroke-width="2" /></svg>