<?xml version='1.0' encoding='utf-8'?>
<svg xmlns="http://www.w3.org/2000/svg" height="100px" version="1.0" viewBox="0 0 100 100" width="100px" x="0px" y="0px">
<line fill="none" stroke="#000000" stroke-width="2" x1="64" x2="64" y1="46" y2="13" /><line fill="none" stroke="#000000" stroke-width="2" x1="89" x2="39" y1="47" y2="47" /><line fill="none" stroke="#000000" stroke-width="2" x1="33" x2="5" y1="26" y2="26" /><path d="M90,55 v-43.0 h-52.0 v66.5 c0,10.675 0.301,10.984 8.5,11.5 c5.691,0.358 10.404,0.5 16,0.5 c5.494,0 10.967,-0.171 17,-0.5 c13.584,-0.74 13.829,-0.983 16,-24.5" fill="none" stroke="#000000" stroke-width="2" /><path d="M20,6 v77.0 c0,7.683 -0.373,8 -5,8 c-2.246,0 -4.663,-0.119 -9,-0.5" fill="none" stroke="#000000" stroke-width="2" /><path d="M33,49 c-9.689,5.009 -18.711,8.534 -28,11" fill="none" stroke="#000000" stroke-width="2" /></svg>