<?xml version='1.0' encoding='utf-8'?>
<svg xmlns="http://www.w3.org/2000/svg" height="100px" version="1.0" viewBox="0 0 100 100" width="100px" x="0px" y="0px">
<line fill="none" stroke="#000000" stroke-width="2" x1="30.5" x2="4.5" y1="26" y2="26" /><line fill="none" stroke="#000000" stroke-width="2" x1="96" x2="29" y1="57" y2="57" /><line fill="none" stroke="#000000" stroke-width="2" x1="32.5" x2="92" y1="24" y2="24" /><line fill="none" stroke="#000000" stroke-width="2" x1="47" x2="47" y1="56" y2="6" /><line fill="none" stroke="#000000" stroke-width="2" x1="77.5" x2="77.5" y1="56" y2="6" /><path d="M18.5,6 v78.0 c0,7.575 -0.404,8 -4.5,8 c-1.832,0 -4.633,-0.139 -8.5,-0.5" fill="none" stroke="#000000" stroke-width="2" /><path d="M30.5,51 c-8.997,5.009 -17.374,8.534 -26,11" fill="none" stroke="#000000" stroke-width="2" /><path d="M26,92 c10.668,-6.408 20.579,-15.758 26,-24" fill="none" stroke="#000000" stroke-width="2" /><path d="M93.5,93 c-6.723,-8.226 -15.95,-17.009 -26,-24.5" fill="none" stroke="#000000" stroke-width="2" /></svg>