<?xml version='1.0' encoding='utf-8'?>
<svg xmlns="http://www.w3.org/2000/svg" height="100px" version="1.0" viewBox="0 0 100 100" width="100px" x="0px" y="0px">
<line fill="none" stroke="#000000" stroke-width="2" x1="23.5" x2="97" y1="44.5" y2="44.5" /><line fill="none" stroke="#000000" stroke-width="2" x1="94.5" x2="28" y1="14.5" y2="14.5" /><line fill="none" stroke="#000000" stroke-width="2" x1="91" x2="31" y1="29" y2="29" /><line fill="none" stroke="#000000" stroke-width="2" x1="92.5" x2="28" y1="77.5" y2="77.5" /><line fill="none" stroke="#000000" stroke-width="2" x1="82" x2="40" y1="61" y2="61" /><line fill="none" stroke="#000000" stroke-width="2" x1="61" x2="61" y1="48.5" y2="94.5" /><line fill="none" stroke="#000000" stroke-width="2" x1="27.5" x2="3.5" y1="26" y2="26" /><path d="M23,68.5 c20.034,-11.543 36.035,-37.2 38.5,-64" fill="none" stroke="#000000" stroke-width="2" /><path d="M97,68.5 c-12.57,-7.564 -24.183,-21.879 -31,-39.5" fill="none" stroke="#000000" stroke-width="2" /><path d="M17,6 v78.0 c0,7.575 -0.404,8 -4.5,8 c-1.832,0 -4.633,-0.139 -8.5,-0.5" fill="none" stroke="#000000" stroke-width="2" /><path d="M27.5,51 c-8.305,5.009 -16.037,8.534 -24,11" fill="none" stroke="#000000" stroke-width="2" /></svg>