<?xml version='1.0' encoding='utf-8'?>
<svg xmlns="http://www.w3.org/2000/svg" height="100px" version="1.0" viewBox="0 0 100 100" width="100px" x="0px" y="0px">
<line fill="none" stroke="#000000" stroke-width="2" x1="30.5" x2="4.5" y1="26" y2="26" /><line fill="none" stroke="#000000" stroke-width="2" x1="31" x2="94" y1="48.5" y2="48.5" /><line fill="none" stroke="#000000" stroke-width="2" x1="41" x2="84" y1="30.5" y2="30.5" /><line fill="none" stroke="#000000" stroke-width="2" x1="37" x2="88" y1="86.5" y2="86.5" /><line fill="none" stroke="#000000" stroke-width="2" x1="62.5" x2="62.5" y1="48.5" y2="16.5" /><polyline fill="none" points="89,93.5 89,60.5 36,60.5 36,93.5" stroke="#000000" stroke-width="2" /><path d="M18.5,6 v78.0 c0,7.575 -0.404,8 -4.5,8 c-1.832,0 -4.633,-0.139 -8.5,-0.5" fill="none" stroke="#000000" stroke-width="2" /><path d="M29.5,51 c-8.65,5.009 -16.706,8.534 -25,11" fill="none" stroke="#000000" stroke-width="2" /><path d="M95,33.5 c-12.9,-8.468 -22.787,-16.971 -32.5,-27.8 c-9.714,10.829 -19.584,19.354 -32.5,27.8" fill="none" stroke="#000000" stroke-width="2" /></svg>