<?xml version='1.0' encoding='utf-8'?>
<svg xmlns="http://www.w3.org/2000/svg" height="100px" version="1.0" viewBox="0 0 100 100" width="100px" x="0px" y="0px">
<line fill="none" stroke="#000000" stroke-width="2" x1="38.5" x2="88" y1="22.5" y2="22.5" /><line fill="none" stroke="#000000" stroke-width="2" x1="63" x2="63" y1="95" y2="47" /><line fill="none" stroke="#000000" stroke-width="2" x1="30.5" x2="4.5" y1="26" y2="26" /><polyline fill="none" points="36.5,36 89,36 89,10 36.5,10" stroke="#000000" stroke-width="2" /><polyline fill="none" points="94,62 94,46 33,46 33,62" stroke="#000000" stroke-width="2" /><path d="M38.5,87.5 V61.0 h50.0 v20.46 c0,4.303 -0.281,4.54 -6,4.54 c-1.902,0 -4.99,-0.159 -10.5,-0.5" fill="none" stroke="#000000" stroke-width="2" /><path d="M18.5,6 v78.0 c0,7.575 -0.404,8 -4.5,8 c-1.832,0 -4.633,-0.139 -8.5,-0.5" fill="none" stroke="#000000" stroke-width="2" /><path d="M29.5,51 c-8.65,5.009 -16.706,8.534 -25,11" fill="none" stroke="#000000" stroke-width="2" /></svg>