<?xml version='1.0' encoding='utf-8'?>
<svg xmlns="http://www.w3.org/2000/svg" height="100px" version="1.0" viewBox="0 0 100 100" width="100px" x="0px" y="0px">
<line fill="none" stroke="#000000" stroke-width="2" x1="30" x2="4.5" y1="26" y2="26" /><line fill="none" stroke="#000000" stroke-width="2" x1="93.5" x2="31" y1="53.5" y2="53.5" /><line fill="none" stroke="#000000" stroke-width="2" x1="62" x2="62" y1="93.5" y2="40" /><polyline fill="none" points="91,24.5 91,10.5 33.5,10.5 33.5,26.5" stroke="#000000" stroke-width="2" /><path d="M18.5,6 v78.0 c0,7.575 -0.404,8 -4.5,8 c-1.832,0 -4.633,-0.139 -8.5,-0.5" fill="none" stroke="#000000" stroke-width="2" /><path d="M29.5,50 c-8.65,5.009 -16.706,8.534 -25,11" fill="none" stroke="#000000" stroke-width="2" /><path d="M69,11.5 v23.0 c0,3.714 0.619,4.255 4.5,4.399 c2.017,0.074 3.803,0.101 6,0.101 c2.079,0 3.647,-0.029 5.5,-0.101 c5.742,-0.219 6.106,-0.53 7,-9.899" fill="none" stroke="#000000" stroke-width="2" /><path d="M27.5,88.5 c16.221,-11.186 26.915,-22.603 33.5,-35" fill="none" stroke="#000000" stroke-width="2" /><path d="M94.5,88.5 c-15.437,-11.239 -25.425,-22.49 -31.5,-35" fill="none" stroke="#000000" stroke-width="2" /><path d="M31,42.5 c15.129,-5.896 24,-17.394 24,-31" fill="none" stroke="#000000" stroke-width="2" /></svg>