<?xml version='1.0' encoding='utf-8'?>
<svg xmlns="http://www.w3.org/2000/svg" height="100px" version="1.0" viewBox="0 0 100 100" width="100px" x="0px" y="0px">
<line fill="none" stroke="#000000" stroke-width="2" x1="34" x2="5" y1="26" y2="26" /><line fill="none" stroke="#000000" stroke-width="2" x1="42" x2="42" y1="20.5" y2="94" /><line fill="none" stroke="#000000" stroke-width="2" x1="93" x2="42.5" y1="20" y2="20" /><line fill="none" stroke="#000000" stroke-width="2" x1="69" x2="69" y1="87" y2="20" /><line fill="none" stroke="#000000" stroke-width="2" x1="43" x2="95" y1="87" y2="87" /><line fill="none" stroke="#000000" stroke-width="2" x1="42" x2="91" y1="64" y2="64" /><line fill="none" stroke="#000000" stroke-width="2" x1="42" x2="91" y1="41.5" y2="41.5" /><path d="M20,6 v77.0 c0,7.683 -0.373,8 -5,8 c-2.246,0 -4.663,-0.119 -9,-0.5" fill="none" stroke="#000000" stroke-width="2" /><path d="M34,49 c-10.035,5.009 -19.379,8.534 -29,11" fill="none" stroke="#000000" stroke-width="2" /><path d="M76.5,4 c-2.172,5.901 -4.801,11.103 -8,16" fill="none" stroke="#000000" stroke-width="2" /><path d="M29,40 c8.602,-9.49 14.809,-20.97 19,-36" fill="none" stroke="#000000" stroke-width="2" /></svg>