<?xml version='1.0' encoding='utf-8'?>
<svg xmlns="http://www.w3.org/2000/svg" height="100px" version="1.0" viewBox="0 0 100 100" width="100px" x="0px" y="0px">
<line fill="none" stroke="#000000" stroke-width="2" x1="28" x2="4" y1="26" y2="26" /><line fill="none" stroke="#000000" stroke-width="2" x1="33.5" x2="58.5" y1="47.5" y2="47.5" /><line fill="none" stroke="#000000" stroke-width="2" x1="33.5" x2="58.5" y1="67" y2="67" /><line fill="none" stroke="#000000" stroke-width="2" x1="71" x2="71" y1="76" y2="30" /><line fill="none" stroke="#000000" stroke-width="2" x1="27.5" x2="95.5" y1="18" y2="18" /><path d="M17.5,6 v78.0 c0,7.575 -0.404,8 -4.5,8 c-1.832,0 -4.633,-0.139 -8.5,-0.5" fill="none" stroke="#000000" stroke-width="2" /><path d="M28,51 c-8.305,5.009 -16.037,8.534 -24,11" fill="none" stroke="#000000" stroke-width="2" /><path d="M32.5,92 v-63.0 h26.0 v53.5 c0,7.605 -0.402,8 -5.5,8 c-1.696,0 -5.012,-0.159 -10.5,-0.5" fill="none" stroke="#000000" stroke-width="2" /><path d="M90.5,26 v57.0 c0,7.224 -0.75,8 -6,8 c-2.605,0 -6.712,-0.144 -12,-0.5" fill="none" stroke="#000000" stroke-width="2" /><path d="M52,18 c-2.23,-4.979 -4.661,-9.85 -7,-14" fill="none" stroke="#000000" stroke-width="2" /><path d="M70,18 c2.644,-4.613 5.159,-9.644 7,-14" fill="none" stroke="#000000" stroke-width="2" /></svg>