<?xml version='1.0' encoding='utf-8'?>
<svg xmlns="http://www.w3.org/2000/svg" height="100px" version="1.0" viewBox="0 0 100 100" width="100px" x="0px" y="0px">
<line fill="none" stroke="#000000" stroke-width="2" x1="33.5" x2="4.5" y1="26" y2="26" /><line fill="none" stroke="#000000" stroke-width="2" x1="63.5" x2="91.5" y1="68.5" y2="68.5" /><line fill="none" stroke="#000000" stroke-width="2" x1="63.5" x2="63.5" y1="87.5" y2="52" /><line fill="none" stroke="#000000" stroke-width="2" x1="34.5" x2="94.5" y1="52" y2="52" /><line fill="none" stroke="#000000" stroke-width="2" x1="39.5" x2="88.5" y1="25" y2="25" /><polyline fill="none" points="39.5,41 89.5,41 89.5,10.5 38.5,10.5 38.5,42" stroke="#000000" stroke-width="2" /><path d="M19.5,6 v77.0 c0,7.683 -0.373,8 -5,8 c-2.246,0 -4.663,-0.119 -9,-0.5" fill="none" stroke="#000000" stroke-width="2" /><path d="M33.5,49 c-10.035,5.009 -19.379,8.534 -29,11" fill="none" stroke="#000000" stroke-width="2" /><path d="M26.5,92 c8.592,-8.688 14.881,-21.052 17,-33.5" fill="none" stroke="#000000" stroke-width="2" /><path d="M94.5,90 h-5.0 c-28.348,0 -40.623,-4.971 -50,-18" fill="none" stroke="#000000" stroke-width="2" /></svg>