<?xml version='1.0' encoding='utf-8'?>
<svg xmlns="http://www.w3.org/2000/svg" height="100px" version="1.0" viewBox="0 0 100 100" width="100px" x="0px" y="0px">
<line fill="none" stroke="#000000" stroke-width="2" x1="44" x2="77" y1="11" y2="11" /><line fill="none" stroke="#000000" stroke-width="2" x1="24.5" x2="96.5" y1="65" y2="65" /><line fill="none" stroke="#000000" stroke-width="2" x1="29" x2="4" y1="25" y2="25" /><polyline fill="none" points="34.5,64 34.5,25 90,25 90,64" stroke="#000000" stroke-width="2" /><path d="M66,25 c3.576,-4.155 7.203,-9.023 10.167,-13.549" fill="none" stroke="#000000" stroke-width="2" /><path d="M26.5,31.5 c9.967,-8.036 17.379,-17.829 22,-29" fill="none" stroke="#000000" stroke-width="2" /><path d="M25.5,92 c20.539,-3.902 35,-16.933 35,-27 v-11.0" fill="none" stroke="#000000" stroke-width="2" /><path d="M95.5,92 c-20.539,-3.902 -35,-16.933 -35,-27" fill="none" stroke="#000000" stroke-width="2" /><path d="M54.5,26 c0,18.897 -3.313,24.878 -16.5,32" fill="none" stroke="#000000" stroke-width="2" /><path d="M67.5,26 v15.0 c0,9.211 0.764,10 10,10 h11.5" fill="none" stroke="#000000" stroke-width="2" /><path d="M18,6 v78.0 c0,7.575 -0.404,8 -4.5,8 c-1.832,0 -4.633,-0.139 -8.5,-0.5" fill="none" stroke="#000000" stroke-width="2" /><path d="M30,51 c-8.997,5.009 -17.374,8.534 -26,11" fill="none" stroke="#000000" stroke-width="2" /></svg>