<?xml version='1.0' encoding='utf-8'?>
<svg xmlns="http://www.w3.org/2000/svg" height="100px" version="1.0" viewBox="0 0 100 100" width="100px" x="0px" y="0px">
<line fill="none" stroke="#000000" stroke-width="2" x1="31.5" x2="4.5" y1="26" y2="26" /><line fill="none" stroke="#000000" stroke-width="2" x1="38" x2="86.5" y1="50" y2="50" /><line fill="none" stroke="#000000" stroke-width="2" x1="27.5" x2="95.5" y1="79.5" y2="79.5" /><line fill="none" stroke="#000000" stroke-width="2" x1="62.5" x2="62.5" y1="94.5" y2="14.5" /><line fill="none" stroke="#000000" stroke-width="2" x1="36.5" x2="87.5" y1="23" y2="23" /><polyline fill="none" points="38,66.5 87.5,66.5 87.5,35 37,35 37,67.5" stroke="#000000" stroke-width="2" /><polyline fill="none" points="92.5,29.5 92.5,10.5 31.5,10.5 31.5,29.5" stroke="#000000" stroke-width="2" /><path d="M18.5,6 v78.0 c0,7.575 -0.404,8 -4.5,8 c-1.832,0 -4.633,-0.139 -8.5,-0.5" fill="none" stroke="#000000" stroke-width="2" /><path d="M30.5,51 c-8.997,5.009 -17.374,8.534 -26,11" fill="none" stroke="#000000" stroke-width="2" /></svg>