<?xml version='1.0' encoding='utf-8'?>
<svg xmlns="http://www.w3.org/2000/svg" height="100px" version="1.0" viewBox="0 0 100 100" width="100px" x="0px" y="0px">
<line fill="none" stroke="#000000" stroke-width="2" x1="31.5" x2="4.5" y1="26" y2="26" /><line fill="none" stroke="#000000" stroke-width="2" x1="94" x2="33" y1="34.5" y2="34.5" /><line fill="none" stroke="#000000" stroke-width="2" x1="95" x2="32" y1="46" y2="46" /><line fill="none" stroke="#000000" stroke-width="2" x1="46.5" x2="88" y1="56.5" y2="56.5" /><path d="M19.5,6 v77.0 c0,7.683 -0.373,8 -5,8 c-2.246,0 -4.663,-0.119 -9,-0.5" fill="none" stroke="#000000" stroke-width="2" /><path d="M33.5,52 c-10.13,5.057 -19.486,8.562 -29,11" fill="none" stroke="#000000" stroke-width="2" /><path d="M32,14 c21.029,0 41.217,-1.901 60,-5.5" fill="none" stroke="#000000" stroke-width="2" /><path d="M43,31 c-2.021,-4.866 -4.256,-9.521 -6.5,-13.5" fill="none" stroke="#000000" stroke-width="2" /><path d="M64.5,31 c-2.013,-5.231 -4.258,-10.226 -6.5,-14.5" fill="none" stroke="#000000" stroke-width="2" /><path d="M79.5,34.5 c3.528,-6.766 6.46,-13.88 8.5,-20.5" fill="none" stroke="#000000" stroke-width="2" /><path d="M25.5,90 c15.26,-14.525 24,-34.439 24,-55.5" fill="none" stroke="#000000" stroke-width="2" /><path d="M36,90.5 c25.318,-6.181 42.216,-18.045 51.133,-33.5" fill="none" stroke="#000000" stroke-width="2" /><path d="M96,90.5 c-21.287,-6.2 -35.744,-15.612 -47,-30" fill="none" stroke="#000000" stroke-width="2" /></svg>