<?xml version='1.0' encoding='utf-8'?>
<svg xmlns="http://www.w3.org/2000/svg" height="100px" version="1.0" viewBox="0 0 100 100" width="100px" x="0px" y="0px">
<line fill="none" stroke="#000000" stroke-width="2" x1="31" x2="4" y1="26" y2="26" /><line fill="none" stroke="#000000" stroke-width="2" x1="35" x2="89" y1="61.5" y2="61.5" /><line fill="none" stroke="#000000" stroke-width="2" x1="35" x2="89" y1="47.5" y2="47.5" /><polyline fill="none" points="38,25 87,25 87,10 37,10 37,26" stroke="#000000" stroke-width="2" /><polyline fill="none" points="35,75.5 90,75.5 90,33.5 34,33.5 34,76.5" stroke="#000000" stroke-width="2" /><path d="M18,6 v78.0 c0,7.575 -0.404,8 -4.5,8 c-1.832,0 -4.633,-0.139 -8.5,-0.5" fill="none" stroke="#000000" stroke-width="2" /><path d="M31,51 c-9.343,5.009 -18.042,8.534 -27,11" fill="none" stroke="#000000" stroke-width="2" /><path d="M27,92 c10.97,-3.282 20.417,-7.801 26,-12" fill="none" stroke="#000000" stroke-width="2" /><path d="M96,93 c-6.695,-4.208 -15.931,-8.731 -26,-12.5" fill="none" stroke="#000000" stroke-width="2" /></svg>