<?xml version='1.0' encoding='utf-8'?>
<svg xmlns="http://www.w3.org/2000/svg" height="100px" version="1.0" viewBox="0 0 100 100" width="100px" x="0px" y="0px">
<line fill="none" stroke="#000000" stroke-width="2" x1="30" x2="4" y1="26" y2="26" /><line fill="none" stroke="#000000" stroke-width="2" x1="93" x2="42.5" y1="15" y2="15" /><line fill="none" stroke="#000000" stroke-width="2" x1="69" x2="69" y1="50" y2="15" /><line fill="none" stroke="#000000" stroke-width="2" x1="42" x2="91" y1="39" y2="39" /><line fill="none" stroke="#000000" stroke-width="2" x1="42" x2="91" y1="27" y2="27" /><polyline fill="none" points="42,15.5 42,51 95,51" stroke="#000000" stroke-width="2" /><path d="M30,32.5 c7.247,-7.514 12.468,-16.601 16,-28.5" fill="none" stroke="#000000" stroke-width="2" /><path d="M74.5,4 c-1.598,3.981 -3.563,7.581 -6,11" fill="none" stroke="#000000" stroke-width="2" /><path d="M19,6 v77.0 c0,7.683 -0.373,8 -5,8 c-2.246,0 -4.663,-0.119 -9,-0.5" fill="none" stroke="#000000" stroke-width="2" /><path d="M33,49 c-10.035,5.009 -19.379,8.534 -29,11" fill="none" stroke="#000000" stroke-width="2" /><path d="M29,92 c17.453,-5.356 26.453,-15.267 28,-32" fill="none" stroke="#000000" stroke-width="2" /><path d="M33.5,60 h45.5 l-3.5,10.5 h18.5 c-1.295,14.797 -6.167,20.5 -12.699,20.5 c-3.932,0 -9.6,-0.408 -14.801,-1" fill="none" stroke="#000000" stroke-width="2" /></svg>