<?xml version='1.0' encoding='utf-8'?>
<svg xmlns="http://www.w3.org/2000/svg" height="100px" version="1.0" viewBox="0 0 100 100" width="100px" x="0px" y="0px">
<line fill="none" stroke="#000000" stroke-width="2" x1="40" x2="85" y1="43.5" y2="43.5" /><line fill="none" stroke="#000000" stroke-width="2" x1="62.5" x2="62.5" y1="13.5" y2="3.5" /><line fill="none" stroke="#000000" stroke-width="2" x1="29" x2="95.5" y1="13.5" y2="13.5" /><line fill="none" stroke="#000000" stroke-width="2" x1="62.5" x2="62.5" y1="55.5" y2="33.5" /><line fill="none" stroke="#000000" stroke-width="2" x1="30.5" x2="4.5" y1="26" y2="26" /><polyline fill="none" points="47.5,86.5 47.5,56.5 77.5,56.5 77.5,79.5 48.5,79.5" stroke="#000000" stroke-width="2" /><path d="M72,29.5 c2.813,-4.761 5.188,-10.157 7,-16" fill="none" stroke="#000000" stroke-width="2" /><path d="M52,29.5 c-1.956,-5.314 -4.36,-10.839 -7,-16" fill="none" stroke="#000000" stroke-width="2" /><path d="M73.5,90.5 c5.787,0.345 9.549,0.5 11.5,0.5 c5.408,0 6,-0.571 6,-7 v-54.5 h-57.0 V93.0" fill="none" stroke="#000000" stroke-width="2" /><path d="M18.5,6 v78.0 c0,7.575 -0.404,8 -4.5,8 c-1.832,0 -4.633,-0.139 -8.5,-0.5" fill="none" stroke="#000000" stroke-width="2" /><path d="M30.5,51 c-8.997,5.009 -17.374,8.534 -26,11" fill="none" stroke="#000000" stroke-width="2" /></svg>