<?xml version='1.0' encoding='utf-8'?>
<svg xmlns="http://www.w3.org/2000/svg" height="100px" version="1.0" viewBox="0 0 100 100" width="100px" x="0px" y="0px">
<line fill="none" stroke="#000000" stroke-width="2" x1="94.5" x2="59.5" y1="25" y2="25" /><line fill="none" stroke="#000000" stroke-width="2" x1="63" x2="40.5" y1="17" y2="17" /><line fill="none" stroke="#000000" stroke-width="2" x1="30.5" x2="4.5" y1="26" y2="26" /><path d="M80.5,7 c4.161,4.157 7.578,7.877 11.5,12.5" fill="none" stroke="#000000" stroke-width="2" /><path d="M49.5,65.5 c15.076,-11.081 24,-27.351 24,-43.5 v-14.5" fill="none" stroke="#000000" stroke-width="2" /><path d="M95.5,65.5 c-14.258,-12.507 -22,-27.917 -22,-43.5" fill="none" stroke="#000000" stroke-width="2" /><path d="M94,92 c-3.197,-7.286 -6.952,-14.859 -11.5,-23" fill="none" stroke="#000000" stroke-width="2" /><path d="M73.5,92.5 c-1.899,-7.176 -4.259,-14.742 -7.25,-23" fill="none" stroke="#000000" stroke-width="2" /><path d="M53,93 c-0.602,-7.066 -1.566,-14.624 -3,-23" fill="none" stroke="#000000" stroke-width="2" /><path d="M26,92.5 c4.017,-6.487 7.831,-14.074 11.5,-23" fill="none" stroke="#000000" stroke-width="2" /><path d="M27.5,35 c8.279,-9.067 14.082,-18.515 18,-29" fill="none" stroke="#000000" stroke-width="2" /><path d="M28,67 c15.991,-11.647 29.032,-30.52 34.033,-49.257" fill="none" stroke="#000000" stroke-width="2" /><path d="M46,49.5 c-4.473,-3.563 -9.303,-7.202 -14,-10.5" fill="none" stroke="#000000" stroke-width="2" /><path d="M54.5,36 c-4.562,-3.461 -9.225,-6.802 -14,-10" fill="none" stroke="#000000" stroke-width="2" /><path d="M18.5,6 v78.0 c0,7.575 -0.404,8 -4.5,8 c-1.832,0 -4.633,-0.139 -8.5,-0.5" fill="none" stroke="#000000" stroke-width="2" /><path d="M30.5,51 c-8.997,5.009 -17.374,8.534 -26,11" fill="none" stroke="#000000" stroke-width="2" /></svg>