<?xml version='1.0' encoding='utf-8'?>
<svg xmlns="http://www.w3.org/2000/svg" height="100px" version="1.0" viewBox="0 0 100 100" width="100px" x="0px" y="0px">
<line fill="none" stroke="#000000" stroke-width="2" x1="63" x2="63" y1="93.5" y2="54.5" /><line fill="none" stroke="#000000" stroke-width="2" x1="95" x2="30" y1="63" y2="63" /><line fill="none" stroke="#000000" stroke-width="2" x1="31" x2="4" y1="26" y2="26" /><polyline fill="none" points="35,52.5 59.5,52.5 59.5,34 34,34 34,53.5" stroke="#000000" stroke-width="2" /><polyline fill="none" points="67.5,52.5 92,52.5 92,34 66.5,34 66.5,53.5" stroke="#000000" stroke-width="2" /><polyline fill="none" points="40.5,27 86.5,27 86.5,9 39.5,9 39.5,28" stroke="#000000" stroke-width="2" /><path d="M28,89 c15.098,-7.159 27.379,-16.962 34,-26" fill="none" stroke="#000000" stroke-width="2" /><path d="M96.5,89 c-14.791,-7.785 -25.434,-16.469 -32.5,-26" fill="none" stroke="#000000" stroke-width="2" /><path d="M18,6 v78.0 c0,7.575 -0.404,8 -4.5,8 c-1.832,0 -4.633,-0.139 -8.5,-0.5" fill="none" stroke="#000000" stroke-width="2" /><path d="M31,51 c-9.343,5.009 -18.042,8.534 -27,11" fill="none" stroke="#000000" stroke-width="2" /></svg>