<?xml version='1.0' encoding='utf-8'?>
<svg xmlns="http://www.w3.org/2000/svg" height="100px" version="1.0" viewBox="0 0 100 100" width="100px" x="0px" y="0px">
<line fill="none" stroke="#000000" stroke-width="2" x1="60.5" x2="96.5" y1="21" y2="21" /><line fill="none" stroke="#000000" stroke-width="2" x1="12.5" x2="12.5" y1="29" y2="81" /><line fill="none" stroke="#000000" stroke-width="2" x1="28.5" x2="28.5" y1="10.5" y2="28" /><line fill="none" stroke="#000000" stroke-width="2" x1="53" x2="4.5" y1="28" y2="28" /><line fill="none" stroke="#000000" stroke-width="2" x1="49.5" x2="8" y1="10.5" y2="10.5" /><line fill="none" stroke="#000000" stroke-width="2" x1="45" x2="45" y1="94.5" y2="28" /><line fill="none" stroke="#000000" stroke-width="2" x1="13.5" x2="45" y1="61.5" y2="61.5" /><line fill="none" stroke="#000000" stroke-width="2" x1="13.5" x2="45" y1="44" y2="44" /><path d="M49.5,91 c25.957,-14.519 36.682,-30.825 41,-70" fill="none" stroke="#000000" stroke-width="2" /><path d="M50,49 c6.023,-11.971 11.155,-28.03 14,-44" fill="none" stroke="#000000" stroke-width="2" /><path d="M95.5,91 c-21.085,-13.722 -30.744,-31.13 -33,-63" fill="none" stroke="#000000" stroke-width="2" /><path d="M3.5,82 c12.977,-1.514 27.544,-3.974 41.5,-7" fill="none" stroke="#000000" stroke-width="2" /></svg>