<?xml version='1.0' encoding='utf-8'?>
<svg xmlns="http://www.w3.org/2000/svg" height="100px" version="1.0" viewBox="0 0 100 100" width="100px" x="0px" y="0px">
<line fill="none" stroke="#000000" stroke-width="2" x1="67" x2="97" y1="21" y2="21" /><line fill="none" stroke="#000000" stroke-width="2" x1="12" x2="49" y1="43.5" y2="43.5" /><line fill="none" stroke="#000000" stroke-width="2" x1="30.5" x2="30.5" y1="13.5" y2="3.5" /><line fill="none" stroke="#000000" stroke-width="2" x1="5" x2="56.5" y1="13.5" y2="13.5" /><line fill="none" stroke="#000000" stroke-width="2" x1="30.5" x2="30.5" y1="55.5" y2="33.5" /><polyline fill="none" points="17.5,86.5 17.5,56.5 43.5,56.5 43.5,79.5 18.5,79.5" stroke="#000000" stroke-width="2" /><path d="M56.5,91 c22.101,-15.312 31.628,-32.429 35,-70" fill="none" stroke="#000000" stroke-width="2" /><path d="M96,91 c-17.208,-14.23 -25.079,-30.512 -28,-63" fill="none" stroke="#000000" stroke-width="2" /><path d="M56.5,49 c6.023,-11.971 11.155,-28.03 14,-44" fill="none" stroke="#000000" stroke-width="2" /><path d="M39,90.5 c4.652,0.366 7.431,0.5 9,0.5 c4.445,0 5,-0.634 5,-8 v-53.5 h-45.0 V93.0" fill="none" stroke="#000000" stroke-width="2" /><path d="M38,29.5 c2.813,-4.761 5.188,-10.157 7,-16" fill="none" stroke="#000000" stroke-width="2" /><path d="M22,29.5 c-1.956,-5.314 -4.36,-10.839 -7,-16" fill="none" stroke="#000000" stroke-width="2" /></svg>