<?xml version='1.0' encoding='utf-8'?>
<svg xmlns="http://www.w3.org/2000/svg" height="100px" version="1.0" viewBox="0 0 100 100" width="100px" x="0px" y="0px">
<line fill="none" stroke="#000000" stroke-width="2" x1="32" x2="32" y1="78" y2="6" /><line fill="none" stroke="#000000" stroke-width="2" x1="50.5" x2="13.5" y1="38" y2="38" /><line fill="none" stroke="#000000" stroke-width="2" x1="57" x2="96" y1="38" y2="38" /><line fill="none" stroke="#000000" stroke-width="2" x1="81.5" x2="81.5" y1="92" y2="38" /><line fill="none" stroke="#000000" stroke-width="2" x1="11" x2="46" y1="82" y2="82" /><line fill="none" stroke="#000000" stroke-width="2" x1="10" x2="10" y1="8" y2="91" /><path d="M13.5,70.5 c8.455,-10.752 13.936,-21.197 17.5,-33" fill="none" stroke="#000000" stroke-width="2" /><path d="M49,65.5 c-4.939,-8.488 -10.58,-17.792 -16,-26.5" fill="none" stroke="#000000" stroke-width="2" /><path d="M25.5,33 c-2.863,-7.488 -6.208,-14.873 -9.5,-21" fill="none" stroke="#000000" stroke-width="2" /><path d="M38.5,33 c3.852,-6.9 7.332,-14.97 9.5,-22" fill="none" stroke="#000000" stroke-width="2" /><path d="M57.078,14.997 c14.511,-1.145 26.233,-3.555 35.422,-6.997" fill="none" stroke="#000000" stroke-width="2" /><path d="M46,90.5 c8.725,-14.665 12,-30.507 12,-76.5" fill="none" stroke="#000000" stroke-width="2" /></svg>