<?xml version='1.0' encoding='utf-8'?>
<svg xmlns="http://www.w3.org/2000/svg" height="100px" version="1.0" viewBox="0 0 100 100" width="100px" x="0px" y="0px">
<line fill="none" stroke="#000000" stroke-width="2" x1="91.5" x2="48" y1="11" y2="11" /><line fill="none" stroke="#000000" stroke-width="2" x1="46.5" x2="93" y1="46" y2="46" /><line fill="none" stroke="#000000" stroke-width="2" x1="57" x2="57" y1="46" y2="11" /><line fill="none" stroke="#000000" stroke-width="2" x1="13" x2="41.5" y1="30.5" y2="30.5" /><polyline fill="none" points="13,51.5 42.5,51.5 42.5,11 12,11 12,84.5" stroke="#000000" stroke-width="2" /><path d="M4.5,87.5 c12.746,-4.725 24.076,-10.368 37,-18.5" fill="none" stroke="#000000" stroke-width="2" /><path d="M48,79.5 c-4.245,-7.557 -10.607,-16.62 -16.5,-23.5" fill="none" stroke="#000000" stroke-width="2" /><path d="M73.5,53 v32.5 c0,4.38 0.781,5 9,5 c9.979,0 10.151,-0.177 11,-23.5" fill="none" stroke="#000000" stroke-width="2" /><path d="M34,93 c27.889,-13.536 46,-43.212 46,-81" fill="none" stroke="#000000" stroke-width="2" /></svg>