<?xml version='1.0' encoding='utf-8'?>
<svg xmlns="http://www.w3.org/2000/svg" height="100px" version="1.0" viewBox="0 0 100 100" width="100px" x="0px" y="0px">
<line fill="none" stroke="#000000" stroke-width="2" x1="10.5" x2="28.5" y1="45" y2="45" /><line fill="none" stroke="#000000" stroke-width="2" x1="48" x2="76.5" y1="12" y2="12" /><line fill="none" stroke="#000000" stroke-width="2" x1="64.5" x2="64.5" y1="29" y2="52.5" /><polyline fill="none" points="10.5,83 29.5,83 29.5,12 9.5,12 9.5,91" stroke="#000000" stroke-width="2" /><polyline fill="none" points="37.5,61.5 37.5,28 91.5,28 91.5,53.5 38.5,53.5" stroke="#000000" stroke-width="2" /><path d="M64.98,28 c3.684,-4.53 7.756,-10.46 10.649,-15.498" fill="none" stroke="#000000" stroke-width="2" /><path d="M29.5,34.5 c10.193,-8.591 17.773,-19.06 22.5,-31" fill="none" stroke="#000000" stroke-width="2" /><path d="M69,54.5 v32.0 c0,4.583 0.555,5 12.5,5 c11.753,0 11.966,-0.183 13,-22.5" fill="none" stroke="#000000" stroke-width="2" /><path d="M25.5,93 c19.025,-7.339 30,-21.492 30,-39.5" fill="none" stroke="#000000" stroke-width="2" /></svg>