<?xml version='1.0' encoding='utf-8'?>
<svg xmlns="http://www.w3.org/2000/svg" height="100px" version="1.0" viewBox="0 0 100 100" width="100px" x="0px" y="0px">
<line fill="none" stroke="#000000" stroke-width="2" x1="10" x2="27.5" y1="45" y2="45" /><line fill="none" stroke="#000000" stroke-width="2" x1="93.5" x2="33.5" y1="34.5" y2="34.5" /><line fill="none" stroke="#000000" stroke-width="2" x1="94.5" x2="32.5" y1="46" y2="46" /><line fill="none" stroke="#000000" stroke-width="2" x1="47" x2="88.5" y1="56.5" y2="56.5" /><polyline fill="none" points="10,83 28.5,83 28.5,12 9,12 9,91" stroke="#000000" stroke-width="2" /><path d="M33,14 c20.68,0 40.53,-1.901 59,-5.5" fill="none" stroke="#000000" stroke-width="2" /><path d="M43.5,31 c-2.021,-4.866 -4.256,-9.521 -6.5,-13.5" fill="none" stroke="#000000" stroke-width="2" /><path d="M64.5,31 c-2.013,-5.231 -4.258,-10.226 -6.5,-14.5" fill="none" stroke="#000000" stroke-width="2" /><path d="M79,34.5 c3.528,-6.766 6.46,-13.88 8.5,-20.5" fill="none" stroke="#000000" stroke-width="2" /><path d="M27,90 c14.624,-14.525 23,-34.439 23,-55.5" fill="none" stroke="#000000" stroke-width="2" /><path d="M36.5,90.5 c25.318,-6.181 42.216,-18.045 51.133,-33.5" fill="none" stroke="#000000" stroke-width="2" /><path d="M95.5,90.5 c-20.834,-6.2 -34.983,-15.612 -46,-30" fill="none" stroke="#000000" stroke-width="2" /></svg>