<?xml version='1.0' encoding='utf-8'?>
<svg xmlns="http://www.w3.org/2000/svg" height="100px" version="1.0" viewBox="0 0 100 100" width="100px" x="0px" y="0px">
<line fill="none" stroke="#000000" stroke-width="2" x1="7" x2="93" y1="13.5" y2="13.5" /><line fill="none" stroke="#000000" stroke-width="2" x1="32" x2="32" y1="21.5" y2="3.5" /><line fill="none" stroke="#000000" stroke-width="2" x1="68" x2="68" y1="21.5" y2="3.5" /><line fill="none" stroke="#000000" stroke-width="2" x1="18.5" x2="81.5" y1="34" y2="34" /><line fill="none" stroke="#000000" stroke-width="2" x1="7" x2="93" y1="54" y2="54" /><line fill="none" stroke="#000000" stroke-width="2" x1="20" x2="20" y1="64.5" y2="94" /><line fill="none" stroke="#000000" stroke-width="2" x1="79" x2="20.5" y1="64" y2="64" /><line fill="none" stroke="#000000" stroke-width="2" x1="80" x2="80" y1="94" y2="64.5" /><line fill="none" stroke="#000000" stroke-width="2" x1="21" x2="79" y1="89" y2="89" /><line fill="none" stroke="#000000" stroke-width="2" x1="21" x2="79" y1="76.5" y2="76.5" /><polyline fill="none" points="18.5,45.5 82.5,45.5 82.5,22.5 17.5,22.5 17.5,46.5" stroke="#000000" stroke-width="2" /><path d="M44,45.5 c-9.094,10.239 -21.556,18.44 -39,25" fill="none" stroke="#000000" stroke-width="2" /><path d="M61,54 c6.694,4.786 17.67,10.246 34,16.5" fill="none" stroke="#000000" stroke-width="2" /></svg>