<?xml version='1.0' encoding='utf-8'?>
<svg xmlns="http://www.w3.org/2000/svg" height="100px" version="1.0" viewBox="0 0 100 100" width="100px" x="0px" y="0px">
<line fill="none" stroke="#000000" stroke-width="2" x1="94.5" x2="5.5" y1="55" y2="55" /><line fill="none" stroke="#000000" stroke-width="2" x1="9.5" x2="90.5" y1="43.5" y2="43.5" /><line fill="none" stroke="#000000" stroke-width="2" x1="33.5" x2="33.5" y1="54" y2="34" /><line fill="none" stroke="#000000" stroke-width="2" x1="66.5" x2="66.5" y1="54" y2="34" /><line fill="none" stroke="#000000" stroke-width="2" x1="16" x2="84" y1="21" y2="21" /><polyline fill="none" points="16,33 85,33 85,9.5 15,9.5 15,34" stroke="#000000" stroke-width="2" /><path d="M50,58.5 v29.5 c0,4.221 -0.269,4.5 -5.5,4.5 c-1.527,0 -5.535,-0.147 -11,-0.5" fill="none" stroke="#000000" stroke-width="2" /><path d="M10.5,91 c11.293,-3.306 22.463,-8.612 32,-15" fill="none" stroke="#000000" stroke-width="2" /><path d="M89.5,92 c-10.73,-6.807 -21.883,-12.228 -32,-15.5" fill="none" stroke="#000000" stroke-width="2" /><path d="M39.5,73 c-4.268,-3.758 -9.158,-7.317 -14.5,-10.5" fill="none" stroke="#000000" stroke-width="2" /><path d="M75,62.5 c-4.69,3.564 -10.08,6.956 -16,10" fill="none" stroke="#000000" stroke-width="2" /><path d="M4.5,73 c11.985,-4.47 23.461,-11.845 29,-18" fill="none" stroke="#000000" stroke-width="2" /><path d="M95.5,73 c-11.985,-4.47 -23.461,-11.845 -29,-18" fill="none" stroke="#000000" stroke-width="2" /></svg>