<?xml version='1.0' encoding='utf-8'?>
<svg xmlns="http://www.w3.org/2000/svg" height="100px" version="1.0" viewBox="0 0 100 100" width="100px" x="0px" y="0px">
<line fill="none" stroke="#000000" stroke-width="2" x1="12" x2="33.5" y1="59" y2="59" /><line fill="none" stroke="#000000" stroke-width="2" x1="13" x2="33.5" y1="33.5" y2="33.5" /><line fill="none" stroke="#000000" stroke-width="2" x1="67" x2="67" y1="3" y2="14" /><line fill="none" stroke="#000000" stroke-width="2" x1="47" x2="88.5" y1="33" y2="33" /><polyline fill="none" points="47,52.5 89.5,52.5 89.5,15 46,15 46,90" stroke="#000000" stroke-width="2" /><path d="M4.5,92.5 c5.182,-10.79 7.5,-23.128 7.5,-46.5 v-36.0 h22.5 v73.0 c0,7.677 -0.295,8 -4.5,8 c-1.769,0 -5.755,-0.169 -11,-0.5" fill="none" stroke="#000000" stroke-width="2" /><path d="M61,52.5 c6.041,17.854 19.88,32.362 36.5,39" fill="none" stroke="#000000" stroke-width="2" /><path d="M37,91.5 c12.063,-1.945 22.541,-4.481 35,-8.5" fill="none" stroke="#000000" stroke-width="2" /><path d="M72,72.5 c7.678,-4.665 14.986,-11.103 21,-18.5" fill="none" stroke="#000000" stroke-width="2" /></svg>