<?xml version='1.0' encoding='utf-8'?>
<svg xmlns="http://www.w3.org/2000/svg" height="100px" version="1.0" viewBox="0 0 100 100" width="100px" x="0px" y="0px">
<line fill="none" stroke="#000000" stroke-width="2" x1="12" x2="45" y1="35" y2="35" /><line fill="none" stroke="#000000" stroke-width="2" x1="29" x2="29" y1="5" y2="16" /><line fill="none" stroke="#000000" stroke-width="2" x1="57" x2="89" y1="59" y2="59" /><line fill="none" stroke="#000000" stroke-width="2" x1="58" x2="89" y1="33.5" y2="33.5" /><polyline fill="none" points="12,54.5 46,54.5 46,17 11,17 11,88" stroke="#000000" stroke-width="2" /><path d="M3.5,89.5 c13.535,-2.735 25.33,-6.388 39,-12" fill="none" stroke="#000000" stroke-width="2" /><path d="M47.5,85.5 c-4.063,-7.346 -10.127,-16.503 -16,-24" fill="none" stroke="#000000" stroke-width="2" /><path d="M48,92.5 c6.149,-10.866 9,-23.313 9,-46.5 v-36.0 h33.0 v73.0 c0,7.674 -0.266,8 -6,8 c-2.166,0 -6.576,-0.155 -13,-0.5" fill="none" stroke="#000000" stroke-width="2" /></svg>