<?xml version='1.0' encoding='utf-8'?>
<svg xmlns="http://www.w3.org/2000/svg" height="100px" version="1.0" viewBox="0 0 100 100" width="100px" x="0px" y="0px">
<line fill="none" stroke="#000000" stroke-width="2" x1="65.5" x2="65.5" y1="46" y2="13" /><line fill="none" stroke="#000000" stroke-width="2" x1="89.5" x2="41.5" y1="47" y2="47" /><line fill="none" stroke="#000000" stroke-width="2" x1="21.5" x2="21.5" y1="94" y2="6" /><line fill="none" stroke="#000000" stroke-width="2" x1="36.5" x2="5" y1="26" y2="26" /><path d="M90.5,55 v-43.0 h-50.0 v66.5 c0,10.51 0.537,10.977 8.5,11.5 c5.443,0.358 10.147,0.5 15.5,0.5 c5.255,0 10.229,-0.171 16,-0.5 c12.768,-0.728 12.913,-0.864 15,-24.5" fill="none" stroke="#000000" stroke-width="2" /><path d="M3.5,73 c8.406,-15.363 14.009,-30.544 17.5,-47.5" fill="none" stroke="#000000" stroke-width="2" /><path d="M36.5,61 c-4.582,-11.04 -9.738,-22.734 -15,-34" fill="none" stroke="#000000" stroke-width="2" /></svg>