<?xml version='1.0' encoding='utf-8'?>
<svg xmlns="http://www.w3.org/2000/svg" height="100px" version="1.0" viewBox="0 0 100 100" width="100px" x="0px" y="0px">
<line fill="none" stroke="#000000" stroke-width="2" x1="20.5" x2="20.5" y1="94" y2="6" /><line fill="none" stroke="#000000" stroke-width="2" x1="34.5" x2="4.5" y1="25.5" y2="25.5" /><polyline fill="none" points="91,41.5 91,18.5 34.5,18.5 34.5,41.5" stroke="#000000" stroke-width="2" /><path d="M26,90 c20.613,-11.651 34,-35.104 34,-62 v-23.5" fill="none" stroke="#000000" stroke-width="2" /><path d="M64.5,35 v48.0 c0,6.33 0.634,7 12.5,7 c15.539,0 15.799,-0.222 16.5,-29" fill="none" stroke="#000000" stroke-width="2" /><path d="M3.5,69.5 c7.954,-14.471 13.176,-28.562 16.5,-44.5" fill="none" stroke="#000000" stroke-width="2" /><path d="M33.5,62.5 c-3.983,-11.623 -8.262,-24.003 -12.5,-36" fill="none" stroke="#000000" stroke-width="2" /></svg>