<?xml version='1.0' encoding='utf-8'?>
<svg xmlns="http://www.w3.org/2000/svg" height="100px" version="1.0" viewBox="0 0 100 100" width="100px" x="0px" y="0px">
<line fill="none" stroke="#000000" stroke-width="2" x1="92" x2="8" y1="58.5" y2="58.5" /><line fill="none" stroke="#000000" stroke-width="2" x1="50" x2="50" y1="94" y2="48" /><path d="M6,90 c21.834,-10.667 35.053,-20.897 43,-31.5" fill="none" stroke="#000000" stroke-width="2" /><path d="M94,90 c-21.834,-10.667 -35.053,-20.897 -43,-31.5" fill="none" stroke="#000000" stroke-width="2" /><path d="M9,52.5 c9.955,-5.681 18.33,-12.447 24,-19" fill="none" stroke="#000000" stroke-width="2" /><path d="M27.5,16.5 c-4.485,-2.769 -9.92,-5.665 -16,-8.5" fill="none" stroke="#000000" stroke-width="2" /><path d="M22,31.5 c-4.656,-3.19 -10.094,-6.316 -16.5,-9.5" fill="none" stroke="#000000" stroke-width="2" /><path d="M30,51 c19.617,-8.905 28,-21.388 28,-46" fill="none" stroke="#000000" stroke-width="2" /><path d="M33,17.5 h44.0 v26.5 c0,3.559 0.501,4 7.5,4 c7.593,0 8.264,-0.643 9.5,-17" fill="none" stroke="#000000" stroke-width="2" /></svg>