<?xml version='1.0' encoding='utf-8'?>
<svg xmlns="http://www.w3.org/2000/svg" height="100px" version="1.0" viewBox="0 0 100 100" width="100px" x="0px" y="0px">
<line fill="none" stroke="#000000" stroke-width="2" x1="20.5" x2="20.5" y1="94" y2="6" /><line fill="none" stroke="#000000" stroke-width="2" x1="34.5" x2="4.5" y1="25.5" y2="25.5" /><line fill="none" stroke="#000000" stroke-width="2" x1="65" x2="65" y1="94" y2="6" /><line fill="none" stroke="#000000" stroke-width="2" x1="92" x2="44" y1="19" y2="19" /><line fill="none" stroke="#000000" stroke-width="2" x1="95.5" x2="32.5" y1="46" y2="46" /><path d="M3.5,69.5 c7.954,-14.471 13.176,-28.562 16.5,-44.5" fill="none" stroke="#000000" stroke-width="2" /><path d="M33.5,58.5 c-3.983,-10.331 -8.283,-21.329 -12.5,-32" fill="none" stroke="#000000" stroke-width="2" /><path d="M33,40 c6.502,-9.067 11.786,-20.628 15,-33" fill="none" stroke="#000000" stroke-width="2" /><path d="M30.5,86 c16.26,-11.501 29.491,-27.489 34,-40" fill="none" stroke="#000000" stroke-width="2" /><path d="M95.5,86 c-14.299,-11.54 -26.021,-27.489 -30,-40" fill="none" stroke="#000000" stroke-width="2" /></svg>