<?xml version='1.0' encoding='utf-8'?>
<svg xmlns="http://www.w3.org/2000/svg" height="100px" version="1.0" viewBox="0 0 100 100" width="100px" x="0px" y="0px">
<line fill="none" stroke="#000000" stroke-width="2" x1="32" x2="95" y1="16.5" y2="16.5" /><line fill="none" stroke="#000000" stroke-width="2" x1="63.5" x2="63.5" y1="16.5" y2="4" /><line fill="none" stroke="#000000" stroke-width="2" x1="20.5" x2="20.5" y1="94" y2="6" /><line fill="none" stroke="#000000" stroke-width="2" x1="34.5" x2="4.5" y1="25.5" y2="25.5" /><path d="M33,70.5 c22.334,-8.768 40.665,-24.669 51.5,-44" fill="none" stroke="#000000" stroke-width="2" /><path d="M28.5,91 c25.701,-7.347 49.076,-23.361 63,-42" fill="none" stroke="#000000" stroke-width="2" /><path d="M64,51.5 c-7.906,-7.021 -18.282,-14.939 -27.5,-21" fill="none" stroke="#000000" stroke-width="2" /><path d="M48,38.5 c5.427,-5.896 10.765,-13.121 16,-22" fill="none" stroke="#000000" stroke-width="2" /><path d="M95,91.5 c-5.63,-7.862 -13.277,-15.307 -23.5,-22.5" fill="none" stroke="#000000" stroke-width="2" /><path d="M3.5,69.5 c7.954,-14.471 13.176,-28.562 16.5,-44.5" fill="none" stroke="#000000" stroke-width="2" /><path d="M33.5,62.5 c-3.983,-11.623 -8.262,-24.003 -12.5,-36" fill="none" stroke="#000000" stroke-width="2" /></svg>