<?xml version='1.0' encoding='utf-8'?>
<svg xmlns="http://www.w3.org/2000/svg" height="100px" version="1.0" viewBox="0 0 100 100" width="100px" x="0px" y="0px">
<line fill="none" stroke="#000000" stroke-width="2" x1="6" x2="94" y1="37.5" y2="37.5" /><line fill="none" stroke="#000000" stroke-width="2" x1="31.5" x2="31.5" y1="93" y2="41.5" /><line fill="none" stroke="#000000" stroke-width="2" x1="31.5" x2="31.5" y1="37.5" y2="6" /><line fill="none" stroke="#000000" stroke-width="2" x1="56" x2="7" y1="53" y2="53" /><line fill="none" stroke="#000000" stroke-width="2" x1="54" x2="9" y1="18.5" y2="18.5" /><path d="M88,46 c-7.574,21.302 -21.754,36.165 -42,45" fill="none" stroke="#000000" stroke-width="2" /><path d="M64,5.5 c0,59.849 18.559,85.5 23,85.5 c2.407,0 5.804,-2.614 8,-23" fill="none" stroke="#000000" stroke-width="2" /><path d="M75,9.5 c4.715,5.156 9.57,11.425 14,18" fill="none" stroke="#000000" stroke-width="2" /><path d="M4.5,84.5 c12.291,-10.146 20.777,-20.704 26,-32" fill="none" stroke="#000000" stroke-width="2" /><path d="M54.5,77 c-5.487,-7.028 -13.551,-15.724 -22.5,-24" fill="none" stroke="#000000" stroke-width="2" /></svg>