<?xml version='1.0' encoding='utf-8'?>
<svg xmlns="http://www.w3.org/2000/svg" height="100px" version="1.0" viewBox="0 0 100 100" width="100px" x="0px" y="0px">
<line fill="none" stroke="#000000" stroke-width="2" x1="20" x2="20" y1="94" y2="6" /><line fill="none" stroke="#000000" stroke-width="2" x1="33.5" x2="5" y1="26" y2="26" /><line fill="none" stroke="#000000" stroke-width="2" x1="38" x2="90.5" y1="37.5" y2="34.5" /><line fill="none" stroke="#000000" stroke-width="2" x1="33.5" x2="93" y1="20" y2="17" /><line fill="none" stroke="#000000" stroke-width="2" x1="36" x2="95" y1="56.5" y2="52.5" /><path d="M4,70 c7.473,-14.471 12.377,-28.562 15.5,-44.5" fill="none" stroke="#000000" stroke-width="2" /><path d="M32,59 c-3.664,-10.331 -7.621,-21.329 -11.5,-32" fill="none" stroke="#000000" stroke-width="2" /><path d="M88,57.5 c-12.91,14.272 -32.79,25.84 -60,33" fill="none" stroke="#000000" stroke-width="2" /><path d="M61,6 c0,72.198 17.219,85.5 27.5,85.5 c2.732,0 5.273,-3.568 7,-17" fill="none" stroke="#000000" stroke-width="2" /><path d="M72,6 c4.88,2.171 10.448,4.978 15,7.5" fill="none" stroke="#000000" stroke-width="2" /></svg>