<?xml version='1.0' encoding='utf-8'?>
<svg xmlns="http://www.w3.org/2000/svg" height="100px" version="1.0" viewBox="0 0 100 100" width="100px" x="0px" y="0px">
<line fill="none" stroke="#000000" stroke-width="2" x1="21.5" x2="21.5" y1="94" y2="6" /><line fill="none" stroke="#000000" stroke-width="2" x1="36.5" x2="5" y1="26" y2="26" /><line fill="none" stroke="#000000" stroke-width="2" x1="65.5" x2="65.5" y1="94" y2="47" /><line fill="none" stroke="#000000" stroke-width="2" x1="42.5" x2="89" y1="30" y2="30" /><polyline fill="none" points="42.5,46 90,46 90,14.5 41.5,14.5 41.5,47" stroke="#000000" stroke-width="2" /><path d="M3.5,73 c8.406,-15.363 14.009,-30.544 17.5,-47.5" fill="none" stroke="#000000" stroke-width="2" /><path d="M35.5,59 c-4.276,-10.391 -9.089,-21.397 -14,-32" fill="none" stroke="#000000" stroke-width="2" /><path d="M76.5,86 c5.954,0.349 9.908,0.5 11.5,0.5 c5.083,0 5.5,-0.376 5.5,-8 V57.0 H39.0 v31.5" fill="none" stroke="#000000" stroke-width="2" /><path d="M66,4 c-1.05,3.778 -2.041,7.271 -3,10.5" fill="none" stroke="#000000" stroke-width="2" /></svg>