<?xml version='1.0' encoding='utf-8'?>
<svg xmlns="http://www.w3.org/2000/svg" height="100px" version="1.0" viewBox="0 0 100 100" width="100px" x="0px" y="0px">
<line fill="none" stroke="#000000" stroke-width="2" x1="28.5" x2="95.5" y1="39.5" y2="39.5" /><line fill="none" stroke="#000000" stroke-width="2" x1="30.5" x2="94.5" y1="15.5" y2="15.5" /><line fill="none" stroke="#000000" stroke-width="2" x1="61" x2="61" y1="15.5" y2="4.5" /><line fill="none" stroke="#000000" stroke-width="2" x1="95.5" x2="29.5" y1="54.5" y2="54.5" /><line fill="none" stroke="#000000" stroke-width="2" x1="19" x2="19" y1="94" y2="6" /><line fill="none" stroke="#000000" stroke-width="2" x1="32.5" x2="4" y1="26" y2="26" /><path d="M25,91.5 c28.159,-4.357 49.667,-19.303 58,-37" fill="none" stroke="#000000" stroke-width="2" /><path d="M56,43 c-5.898,11.608 -13.449,21.979 -23.5,32" fill="none" stroke="#000000" stroke-width="2" /><path d="M37,70.5 c18.718,3.97 34.844,10.106 56.5,22" fill="none" stroke="#000000" stroke-width="2" /><path d="M70.5,39.5 c4.023,-6.755 7.303,-14.943 9.5,-24" fill="none" stroke="#000000" stroke-width="2" /><path d="M51.5,39.5 c-2.658,-8.12 -5.803,-16.132 -9.5,-24" fill="none" stroke="#000000" stroke-width="2" /><path d="M3,70 c7.473,-14.471 12.377,-28.562 15.5,-44.5" fill="none" stroke="#000000" stroke-width="2" /><path d="M31,59 c-3.664,-10.331 -7.621,-21.329 -11.5,-32" fill="none" stroke="#000000" stroke-width="2" /></svg>