<?xml version='1.0' encoding='utf-8'?>
<svg xmlns="http://www.w3.org/2000/svg" height="100px" version="1.0" viewBox="0 0 100 100" width="100px" x="0px" y="0px">
<line fill="none" stroke="#000000" stroke-width="2" x1="42.5" x2="42.5" y1="20.5" y2="94" /><line fill="none" stroke="#000000" stroke-width="2" x1="93.5" x2="43" y1="20" y2="20" /><line fill="none" stroke="#000000" stroke-width="2" x1="69.5" x2="69.5" y1="87" y2="20" /><line fill="none" stroke="#000000" stroke-width="2" x1="43.5" x2="95.5" y1="87" y2="87" /><line fill="none" stroke="#000000" stroke-width="2" x1="42.5" x2="91.5" y1="64" y2="64" /><line fill="none" stroke="#000000" stroke-width="2" x1="42.5" x2="91.5" y1="41.5" y2="41.5" /><line fill="none" stroke="#000000" stroke-width="2" x1="20" x2="20" y1="94" y2="6" /><line fill="none" stroke="#000000" stroke-width="2" x1="33.5" x2="5" y1="26" y2="26" /><path d="M77,4 c-2.172,5.901 -4.801,11.103 -8,16" fill="none" stroke="#000000" stroke-width="2" /><path d="M29.5,40 c8.602,-9.49 14.809,-20.97 19,-36" fill="none" stroke="#000000" stroke-width="2" /><path d="M4,70 c7.473,-14.471 12.377,-28.562 15.5,-44.5" fill="none" stroke="#000000" stroke-width="2" /><path d="M32,59 c-3.664,-10.331 -7.621,-21.329 -11.5,-32" fill="none" stroke="#000000" stroke-width="2" /></svg>