<?xml version='1.0' encoding='utf-8'?>
<svg xmlns="http://www.w3.org/2000/svg" height="100px" version="1.0" viewBox="0 0 100 100" width="100px" x="0px" y="0px">
<line fill="none" stroke="#000000" stroke-width="2" x1="28" x2="96" y1="68.5" y2="68.5" /><line fill="none" stroke="#000000" stroke-width="2" x1="29" x2="94.5" y1="15.5" y2="15.5" /><line fill="none" stroke="#000000" stroke-width="2" x1="48" x2="48" y1="25.5" y2="4.5" /><line fill="none" stroke="#000000" stroke-width="2" x1="76" x2="76" y1="25.5" y2="4.5" /><line fill="none" stroke="#000000" stroke-width="2" x1="38" x2="88" y1="41.5" y2="41.5" /><line fill="none" stroke="#000000" stroke-width="2" x1="19.5" x2="19.5" y1="94" y2="6" /><line fill="none" stroke="#000000" stroke-width="2" x1="31.5" x2="4.5" y1="26" y2="26" /><polyline fill="none" points="38,57.5 89,57.5 89,26.5 37,26.5 37,58.5" stroke="#000000" stroke-width="2" /><path d="M27,92.5 c20.766,-3.587 35,-15.383 35,-25 v-9.0" fill="none" stroke="#000000" stroke-width="2" /><path d="M95,92.5 c-19.456,-3.564 -33,-15.256 -33,-25" fill="none" stroke="#000000" stroke-width="2" /><path d="M3.5,70 c7.473,-14.471 12.377,-28.562 15.5,-44.5" fill="none" stroke="#000000" stroke-width="2" /><path d="M31.5,59 c-3.664,-10.331 -7.621,-21.329 -11.5,-32" fill="none" stroke="#000000" stroke-width="2" /></svg>