<?xml version='1.0' encoding='utf-8'?>
<svg xmlns="http://www.w3.org/2000/svg" height="100px" version="1.0" viewBox="0 0 100 100" width="100px" x="0px" y="0px">
<line fill="none" stroke="#000000" stroke-width="2" x1="19" x2="19" y1="94" y2="6" /><line fill="none" stroke="#000000" stroke-width="2" x1="31.5" x2="4" y1="26" y2="26" /><line fill="none" stroke="#000000" stroke-width="2" x1="41" x2="41" y1="46.5" y2="94" /><line fill="none" stroke="#000000" stroke-width="2" x1="41" x2="96" y1="88" y2="88" /><line fill="none" stroke="#000000" stroke-width="2" x1="93" x2="41.5" y1="46" y2="46" /><line fill="none" stroke="#000000" stroke-width="2" x1="68" x2="68" y1="87" y2="46" /><line fill="none" stroke="#000000" stroke-width="2" x1="41" x2="91.5" y1="73.5" y2="73.5" /><line fill="none" stroke="#000000" stroke-width="2" x1="41" x2="91.5" y1="59.5" y2="59.5" /><line fill="none" stroke="#000000" stroke-width="2" x1="91.5" x2="44" y1="14.5" y2="14.5" /><line fill="none" stroke="#000000" stroke-width="2" x1="94.5" x2="35" y1="30.5" y2="30.5" /><path d="M3,70 c7.231,-14.471 11.978,-28.562 15,-44.5" fill="none" stroke="#000000" stroke-width="2" /><path d="M31,49.5 c-3.664,-7.264 -7.621,-14.997 -11.5,-22.5" fill="none" stroke="#000000" stroke-width="2" /><path d="M74,34.5 c-1.648,4.142 -3.749,8.141 -6,11.5" fill="none" stroke="#000000" stroke-width="2" /><path d="M26.5,59 c18.05,-13.415 28.525,-27.764 33.5,-44.5" fill="none" stroke="#000000" stroke-width="2" /><path d="M35,25 c6.389,-5.819 11.496,-12.945 15,-21" fill="none" stroke="#000000" stroke-width="2" /></svg>