<?xml version='1.0' encoding='utf-8'?>
<svg xmlns="http://www.w3.org/2000/svg" height="100px" version="1.0" viewBox="0 0 100 100" width="100px" x="0px" y="0px">
<line fill="none" stroke="#000000" stroke-width="2" x1="57" x2="94.5" y1="18" y2="18" /><line fill="none" stroke="#000000" stroke-width="2" x1="10.5" x2="41.5" y1="84" y2="84" /><polyline fill="none" points="47.5,13 9.5,13 9.5,92" stroke="#000000" stroke-width="2" /><path d="M41.5,90 c15.279,-6.563 29,-28.181 29,-48 v-16.0" fill="none" stroke="#000000" stroke-width="2" /><path d="M95.5,90 c-12.744,-6.388 -25,-27.952 -25,-48" fill="none" stroke="#000000" stroke-width="2" /><path d="M46,45 c6.293,-11.127 11.08,-24.556 14,-40" fill="none" stroke="#000000" stroke-width="2" /><path d="M85.5,44.5 c3.469,-7.408 6.155,-15.891 8.022,-25.688" fill="none" stroke="#000000" stroke-width="2" /><path d="M13.5,77 c11.982,-12.276 23.346,-33.981 29,-57" fill="none" stroke="#000000" stroke-width="2" /><path d="M15.5,26 c12.473,14.829 20.93,28.581 29.5,47.5" fill="none" stroke="#000000" stroke-width="2" /></svg>