<?xml version='1.0' encoding='utf-8'?>
<svg xmlns="http://www.w3.org/2000/svg" height="100px" version="1.0" viewBox="0 0 100 100" width="100px" x="0px" y="0px">
<line fill="none" stroke="#000000" stroke-width="2" x1="61.5" x2="95" y1="18" y2="18" /><polyline fill="none" points="12.5,84.5 43.5,84.5 43.5,52.5 11.5,52.5 11.5,91.5" stroke="#000000" stroke-width="2" /><path d="M44,90 c14.713,-6.563 28,-28.181 28,-48 v-16.0" fill="none" stroke="#000000" stroke-width="2" /><path d="M96,90 c-12.271,-6.388 -24,-27.952 -24,-48" fill="none" stroke="#000000" stroke-width="2" /><path d="M50.5,45 c6.293,-11.127 11.08,-24.556 14,-40" fill="none" stroke="#000000" stroke-width="2" /><path d="M86,44.5 c3.469,-7.408 6.155,-15.891 8.022,-25.688" fill="none" stroke="#000000" stroke-width="2" /><path d="M50.5,54 c-8.936,-8.321 -15.977,-16.647 -23,-27.5 c-7.472,11.669 -14.909,20.646 -24.5,29.5" fill="none" stroke="#000000" stroke-width="2" /><path d="M20,9.5 c-3.598,8.654 -9.008,16.86 -16,24" fill="none" stroke="#000000" stroke-width="2" /><path d="M49.5,33 c-4.465,-8.163 -9.961,-16.46 -16,-24" fill="none" stroke="#000000" stroke-width="2" /></svg>