<?xml version='1.0' encoding='utf-8'?>
<svg xmlns="http://www.w3.org/2000/svg" height="100px" version="1.0" viewBox="0 0 100 100" width="100px" x="0px" y="0px">
<line fill="none" stroke="#000000" stroke-width="2" x1="5" x2="43" y1="11.5" y2="11.5" /><line fill="none" stroke="#000000" stroke-width="2" x1="17" x2="37" y1="29" y2="29" /><line fill="none" stroke="#000000" stroke-width="2" x1="68" x2="68" y1="94" y2="6" /><line fill="none" stroke="#000000" stroke-width="2" x1="92.5" x2="49.5" y1="19" y2="19" /><line fill="none" stroke="#000000" stroke-width="2" x1="95.5" x2="38.5" y1="46" y2="46" /><path d="M4,59.5 c7.936,-12.451 13.933,-29.251 16.5,-48" fill="none" stroke="#000000" stroke-width="2" /><path d="M36,29.965 c-0.98,27.903 -13.546,51.281 -30,61.035" fill="none" stroke="#000000" stroke-width="2" /><path d="M30.5,58.5 c-4.643,-3.688 -10.316,-7.72 -15.5,-11" fill="none" stroke="#000000" stroke-width="2" /><path d="M40,40 c5.418,-9.067 9.822,-20.628 12.5,-33" fill="none" stroke="#000000" stroke-width="2" /><path d="M30.5,86 c17.893,-11.19 32.593,-27.489 37.5,-40" fill="none" stroke="#000000" stroke-width="2" /><path d="M95.5,86 c-12.869,-11.54 -23.42,-27.489 -27,-40" fill="none" stroke="#000000" stroke-width="2" /></svg>