<?xml version='1.0' encoding='utf-8'?>
<svg xmlns="http://www.w3.org/2000/svg" height="100px" version="1.0" viewBox="0 0 100 100" width="100px" x="0px" y="0px">
<line fill="none" stroke="#000000" stroke-width="2" x1="40.5" x2="90" y1="61.5" y2="61.5" /><line fill="none" stroke="#000000" stroke-width="2" x1="40.5" x2="90" y1="47.5" y2="47.5" /><line fill="none" stroke="#000000" stroke-width="2" x1="4.5" x2="38.5" y1="11.5" y2="11.5" /><line fill="none" stroke="#000000" stroke-width="2" x1="16.5" x2="36" y1="29" y2="29" /><polyline fill="none" points="44,25 88,25 88,10 43,10 43,26" stroke="#000000" stroke-width="2" /><polyline fill="none" points="40.5,75.5 91,75.5 91,33.5 39.5,33.5 39.5,76.5" stroke="#000000" stroke-width="2" /><path d="M32.5,92 c10.548,-3.282 19.632,-7.801 25,-12" fill="none" stroke="#000000" stroke-width="2" /><path d="M95.5,93 c-6.438,-4.208 -15.318,-8.731 -25,-12.5" fill="none" stroke="#000000" stroke-width="2" /><path d="M3.5,59.5 c7.936,-12.451 13.933,-29.251 16.5,-48" fill="none" stroke="#000000" stroke-width="2" /><path d="M35,29.965 c-0.98,27.903 -13.546,51.281 -30,61.035" fill="none" stroke="#000000" stroke-width="2" /><path d="M29.5,58.5 c-4.643,-3.688 -10.316,-7.72 -15.5,-11" fill="none" stroke="#000000" stroke-width="2" /></svg>