<?xml version='1.0' encoding='utf-8'?>
<svg xmlns="http://www.w3.org/2000/svg" height="100px" version="1.0" viewBox="0 0 100 100" width="100px" x="0px" y="0px">
<line fill="none" stroke="#000000" stroke-width="2" x1="10.5" x2="45.5" y1="84" y2="84" /><line fill="none" stroke="#000000" stroke-width="2" x1="46.5" x2="90" y1="48" y2="48" /><polyline fill="none" points="47.5,13 9.5,13 9.5,92" stroke="#000000" stroke-width="2" /><path d="M13.5,77 c11.982,-12.276 23.346,-33.981 29,-57" fill="none" stroke="#000000" stroke-width="2" /><path d="M15.5,26 c12.473,14.829 20.93,28.581 29.5,47.5" fill="none" stroke="#000000" stroke-width="2" /><path d="M44,42.5 c9.341,-4.243 14,-11.468 14,-26 v-6.5 h22.0 v26.5 c0,2.755 0.262,3 4,3 c10.421,0 10.865,-0.383 12,-13.5" fill="none" stroke="#000000" stroke-width="2" /><path d="M41,91 c24.829,-8.329 39.488,-21.514 48.074,-42.38" fill="none" stroke="#000000" stroke-width="2" /><path d="M95,91 c-18.662,-9.464 -33.121,-22.547 -42,-37.5" fill="none" stroke="#000000" stroke-width="2" /></svg>