<?xml version='1.0' encoding='utf-8'?>
<svg xmlns="http://www.w3.org/2000/svg" height="100px" version="1.0" viewBox="0 0 100 100" width="100px" x="0px" y="0px">
<line fill="none" stroke="#000000" stroke-width="2" x1="42.5" x2="12.5" y1="53" y2="53" /><line fill="none" stroke="#000000" stroke-width="2" x1="42.5" x2="12.5" y1="32.5" y2="32.5" /><line fill="none" stroke="#000000" stroke-width="2" x1="45" x2="90" y1="48" y2="48" /><path d="M44.5,7 c-11.073,4.099 -21.383,6.982 -32,9 v78.0" fill="none" stroke="#000000" stroke-width="2" /><path d="M45,68.5 c-14.543,4.077 -28.066,6.983 -42,9" fill="none" stroke="#000000" stroke-width="2" /><path d="M43,42.5 c9.341,-4.243 14,-11.468 14,-26 v-6.5 h23.0 v26.5 c0,2.755 0.262,3 4,3 c10.421,0 10.865,-0.383 12,-13.5" fill="none" stroke="#000000" stroke-width="2" /><path d="M37,91 c26.871,-9.301 42.063,-21.969 52.102,-42.44" fill="none" stroke="#000000" stroke-width="2" /><path d="M95,91 c-18.467,-9.364 -32.851,-22.091 -42,-37.5" fill="none" stroke="#000000" stroke-width="2" /></svg>