<?xml version='1.0' encoding='utf-8'?>
<svg xmlns="http://www.w3.org/2000/svg" height="100px" version="1.0" viewBox="0 0 100 100" width="100px" x="0px" y="0px">
<path d="M79.5,55 c-4.007,0 -10.207,-0.303 -18,-1" fill="none" stroke="#000000" stroke-width="2" /><path d="M79.5,55 c4.627,0 5.875,-1.873 8,-42.5 H41.0 v65.5 c0,10.562 0.394,10.966 8,11.5 c5.141,0.361 9.445,0.5 14.5,0.5 c4.961,0 10.55,-0.179 16,-0.5 c11.362,-0.675 11.527,-0.835 13.5,-24.5" fill="none" stroke="#000000" stroke-width="2" /><path d="M11,91.5 c8.32,-9.315 15.214,-19.837 20,-30.5" fill="none" stroke="#000000" stroke-width="2" /><path d="M28,22.5 c-4.551,-4.456 -9.955,-9.209 -16,-14" fill="none" stroke="#000000" stroke-width="2" /><path d="M24.5,45.5 c-5.014,-4.892 -10.751,-9.858 -17.5,-15" fill="none" stroke="#000000" stroke-width="2" /></svg>