<?xml version='1.0' encoding='utf-8'?>
<svg xmlns="http://www.w3.org/2000/svg" height="100px" version="1.0" viewBox="0 0 100 100" width="100px" x="0px" y="0px">
<line fill="none" stroke="#000000" stroke-width="2" x1="32.5" x2="80.5" y1="11" y2="11" /><line fill="none" stroke="#000000" stroke-width="2" x1="72" x2="94" y1="36" y2="36" /><path d="M69.5,42 c4.469,-9.429 7.832,-19.425 10.018,-30.198" fill="none" stroke="#000000" stroke-width="2" /><path d="M26,91.5 c13.872,-15.968 21.5,-40.83 21.5,-80.5" fill="none" stroke="#000000" stroke-width="2" /><path d="M97,91.5 c-25.64,-14.808 -42.99,-41.073 -49.5,-80.5" fill="none" stroke="#000000" stroke-width="2" /><path d="M41,91.5 c24.756,-9.923 43.082,-28.235 52.051,-54.819" fill="none" stroke="#000000" stroke-width="2" /><path d="M10.5,91.5 c7.072,-9.315 12.932,-19.837 17,-30.5" fill="none" stroke="#000000" stroke-width="2" /><path d="M29.5,22.5 c-5.119,-4.456 -11.199,-9.209 -18,-14" fill="none" stroke="#000000" stroke-width="2" /><path d="M25.5,45.5 c-5.443,-4.892 -11.673,-9.858 -19,-15" fill="none" stroke="#000000" stroke-width="2" /></svg>