<?xml version='1.0' encoding='utf-8'?>
<svg xmlns="http://www.w3.org/2000/svg" height="100px" version="1.0" viewBox="0 0 100 100" width="100px" x="0px" y="0px">
<polyline fill="none" points="91,41.5 91,18.5 33.5,18.5 33.5,41.5" stroke="#000000" stroke-width="2" /><path d="M10.5,91.5 c6.273,-9.294 11.438,-19.819 15,-30.5" fill="none" stroke="#000000" stroke-width="2" /><path d="M27.5,22.5 c-4.551,-4.456 -9.955,-9.209 -16,-14" fill="none" stroke="#000000" stroke-width="2" /><path d="M24,45.5 c-5.014,-4.892 -10.751,-9.858 -17.5,-15" fill="none" stroke="#000000" stroke-width="2" /><path d="M22,90 c22.432,-11.651 37,-35.104 37,-62 v-23.5" fill="none" stroke="#000000" stroke-width="2" /><path d="M63.5,35 v48.0 c0,6.33 0.725,7 13,7 c16.075,0 16.274,-0.222 17,-29" fill="none" stroke="#000000" stroke-width="2" /></svg>