<?xml version='1.0' encoding='utf-8'?>
<svg xmlns="http://www.w3.org/2000/svg" height="100px" version="1.0" viewBox="0 0 100 100" width="100px" x="0px" y="0px">
<line fill="none" stroke="#000000" stroke-width="2" x1="37.5" x2="37.5" y1="31" y2="75.5" /><polyline fill="none" points="37.5,61.5 87.5,61.5 87.5,30" stroke="#000000" stroke-width="2" /><path d="M60.5,6 v77.5 c0,6.415 0.785,7 17,7 c15.43,0 15.684,-0.183 17,-25" fill="none" stroke="#000000" stroke-width="2" /><path d="M32,23 c24.072,-1.146 43.273,-4.71 58,-10" fill="none" stroke="#000000" stroke-width="2" /><path d="M9,91.5 c7.072,-9.315 12.963,-19.819 17,-30.5" fill="none" stroke="#000000" stroke-width="2" /><path d="M26,22.5 c-4.551,-4.456 -9.955,-9.209 -16,-14" fill="none" stroke="#000000" stroke-width="2" /><path d="M22.5,45.5 c-5.014,-4.892 -10.751,-9.858 -17.5,-15" fill="none" stroke="#000000" stroke-width="2" /></svg>