<?xml version='1.0' encoding='utf-8'?>
<svg xmlns="http://www.w3.org/2000/svg" height="100px" version="1.0" viewBox="0 0 100 100" width="100px" x="0px" y="0px">
<polyline fill="none" points="39,45.5 89,45.5 89,11 38,11 38,46.5" stroke="#000000" stroke-width="2" /><path d="M9,91.5 c7.904,-9.315 14.488,-19.819 19,-30.5" fill="none" stroke="#000000" stroke-width="2" /><path d="M28,22.5 c-5.119,-4.456 -11.199,-9.209 -18,-14" fill="none" stroke="#000000" stroke-width="2" /><path d="M24,45.5 c-5.443,-4.892 -11.672,-9.858 -19,-15" fill="none" stroke="#000000" stroke-width="2" /><path d="M72,46.5 v36.0 c0,6.597 0.501,7 11,7 c11.256,0 11.506,-0.271 12,-28" fill="none" stroke="#000000" stroke-width="2" /><path d="M24.5,91 c21.891,-7.728 30,-19.11 30,-45.5" fill="none" stroke="#000000" stroke-width="2" /></svg>