<?xml version='1.0' encoding='utf-8'?>
<svg xmlns="http://www.w3.org/2000/svg" height="100px" version="1.0" viewBox="0 0 100 100" width="100px" x="0px" y="0px">
<line fill="none" stroke="#000000" stroke-width="2" x1="6" x2="94" y1="44.5" y2="44.5" /><line fill="none" stroke="#000000" stroke-width="2" x1="90" x2="10" y1="13.5" y2="13.5" /><line fill="none" stroke="#000000" stroke-width="2" x1="86" x2="14" y1="28.5" y2="28.5" /><path d="M6,68 c22.896,-11.633 41.184,-37.491 44,-64.5" fill="none" stroke="#000000" stroke-width="2" /><path d="M94,68 c-15.004,-7.564 -28.863,-21.879 -37,-39.5" fill="none" stroke="#000000" stroke-width="2" /><path d="M50,49.5 v38.5 c0,4.221 -0.269,4.5 -5.5,4.5 c-1.527,0 -5.535,-0.147 -11,-0.5" fill="none" stroke="#000000" stroke-width="2" /><path d="M10.5,90 c11.293,-3.637 22.463,-9.474 32,-16.5" fill="none" stroke="#000000" stroke-width="2" /><path d="M89.5,91 c-10.719,-7.266 -21.883,-13.016 -32,-16.5" fill="none" stroke="#000000" stroke-width="2" /><path d="M39.5,71 c-4.268,-4.115 -9.158,-8.014 -14.5,-11.5" fill="none" stroke="#000000" stroke-width="2" /><path d="M75,59.5 c-4.69,3.921 -10.08,7.651 -16,11" fill="none" stroke="#000000" stroke-width="2" /></svg>