<?xml version='1.0' encoding='utf-8'?>
<svg xmlns="http://www.w3.org/2000/svg" height="100px" version="1.0" viewBox="0 0 100 100" width="100px" x="0px" y="0px">
<line fill="none" stroke="#000000" stroke-width="2" x1="91" x2="39.5" y1="21" y2="21" /><line fill="none" stroke="#000000" stroke-width="2" x1="94.5" x2="28.5" y1="46" y2="46" /><line fill="none" stroke="#000000" stroke-width="2" x1="63" x2="63" y1="46" y2="5" /><path d="M9,91.5 c7.072,-9.315 12.963,-19.819 17,-30.5" fill="none" stroke="#000000" stroke-width="2" /><path d="M26,22.5 c-4.551,-4.456 -9.955,-9.209 -16,-14" fill="none" stroke="#000000" stroke-width="2" /><path d="M22.5,45.5 c-5.014,-4.892 -10.751,-9.858 -17.5,-15" fill="none" stroke="#000000" stroke-width="2" /><path d="M29.5,39.5 c6.313,-8.575 11.368,-19.892 14,-32" fill="none" stroke="#000000" stroke-width="2" /><path d="M26.5,91 c16.21,-6.724 26.224,-21.105 27.5,-45" fill="none" stroke="#000000" stroke-width="2" /><path d="M69.5,46 v36.0 c0,7.391 0.768,8 12,8 c10.853,0 11.648,-0.724 13,-23" fill="none" stroke="#000000" stroke-width="2" /></svg>