<?xml version='1.0' encoding='utf-8'?>
<svg xmlns="http://www.w3.org/2000/svg" height="100px" version="1.0" viewBox="0 0 100 100" width="100px" x="0px" y="0px">
<line fill="none" stroke="#000000" stroke-width="2" x1="96" x2="27" y1="57" y2="57" /><line fill="none" stroke="#000000" stroke-width="2" x1="30.5" x2="92" y1="24" y2="24" /><line fill="none" stroke="#000000" stroke-width="2" x1="46" x2="46" y1="56" y2="6" /><line fill="none" stroke="#000000" stroke-width="2" x1="76.5" x2="76.5" y1="56" y2="6" /><path d="M25,92 c10.668,-6.408 20.579,-15.758 26,-24" fill="none" stroke="#000000" stroke-width="2" /><path d="M93.5,93 c-6.723,-8.226 -15.951,-17.009 -26,-24.5" fill="none" stroke="#000000" stroke-width="2" /><path d="M9.5,91.5 c6.273,-9.294 11.438,-19.819 15,-30.5" fill="none" stroke="#000000" stroke-width="2" /><path d="M26.5,22.5 c-4.551,-4.456 -9.955,-9.209 -16,-14" fill="none" stroke="#000000" stroke-width="2" /><path d="M23,45.5 c-5.014,-4.892 -10.751,-9.858 -17.5,-15" fill="none" stroke="#000000" stroke-width="2" /></svg>