<?xml version='1.0' encoding='utf-8'?>
<svg xmlns="http://www.w3.org/2000/svg" height="100px" version="1.0" viewBox="0 0 100 100" width="100px" x="0px" y="0px">
<line fill="none" stroke="#000000" stroke-width="2" x1="55" x2="55" y1="92" y2="30.5" /><path d="M9,91.5 c7.072,-9.315 12.963,-19.819 17,-30.5" fill="none" stroke="#000000" stroke-width="2" /><path d="M26,22.5 c-4.551,-4.456 -9.955,-9.209 -16,-14" fill="none" stroke="#000000" stroke-width="2" /><path d="M22.5,45.5 c-5.014,-4.892 -10.751,-9.858 -17.5,-15" fill="none" stroke="#000000" stroke-width="2" /><path d="M35.5,15 c16.846,0 38.648,-2.456 54.5,-6" fill="none" stroke="#000000" stroke-width="2" /><path d="M25.5,91.5 c7.057,-12.57 11,-31.435 11,-60.5 v-17.0" fill="none" stroke="#000000" stroke-width="2" /><path d="M36.5,31 c18.531,0 40.258,-2.349 56,-6" fill="none" stroke="#000000" stroke-width="2" /><path d="M94,91 c-13.115,-14.071 -22.5,-38.687 -22.5,-62" fill="none" stroke="#000000" stroke-width="2" /><path d="M93,41 c-4.885,5.596 -10.694,10.577 -17.5,15" fill="none" stroke="#000000" stroke-width="2" /></svg>