<?xml version='1.0' encoding='utf-8'?>
<svg xmlns="http://www.w3.org/2000/svg" height="100px" version="1.0" viewBox="0 0 100 100" width="100px" x="0px" y="0px">
<line fill="none" stroke="#000000" stroke-width="2" x1="34.5" x2="90" y1="66.5" y2="66.5" /><line fill="none" stroke="#000000" stroke-width="2" x1="34.5" x2="90" y1="46.5" y2="46.5" /><line fill="none" stroke="#000000" stroke-width="2" x1="62.5" x2="62.5" y1="5" y2="91" /><line fill="none" stroke="#000000" stroke-width="2" x1="29" x2="95" y1="15" y2="15" /><path d="M73,4.5 c4.902,2.214 10.408,4.978 15,7.5" fill="none" stroke="#000000" stroke-width="2" /><path d="M9,91.5 c7.072,-9.315 12.963,-19.819 17,-30.5" fill="none" stroke="#000000" stroke-width="2" /><path d="M26,22.5 c-4.551,-4.456 -9.955,-9.209 -16,-14" fill="none" stroke="#000000" stroke-width="2" /><path d="M22.5,45.5 c-5.014,-4.892 -10.751,-9.858 -17.5,-15" fill="none" stroke="#000000" stroke-width="2" /><path d="M33.5,93 v-64.5 h57.5 v55.0 c0,7.31 -0.66,8 -6,8 c-1.716,0 -6.623,-0.18 -12,-0.5" fill="none" stroke="#000000" stroke-width="2" /></svg>