<?xml version='1.0' encoding='utf-8'?>
<svg xmlns="http://www.w3.org/2000/svg" height="100px" version="1.0" viewBox="0 0 100 100" width="100px" x="0px" y="0px">
<line fill="none" stroke="#000000" stroke-width="2" x1="63" x2="63" y1="3" y2="14" /><line fill="none" stroke="#000000" stroke-width="2" x1="39.5" x2="87" y1="33" y2="33" /><polyline fill="none" points="39.5,52.5 88,52.5 88,15 38.5,15 38.5,89.5" stroke="#000000" stroke-width="2" /><path d="M56,52.5 c6.791,17.854 22.318,32.362 41,39" fill="none" stroke="#000000" stroke-width="2" /><path d="M25.5,91.5 c13.613,-1.945 25.439,-4.481 39.5,-8.5" fill="none" stroke="#000000" stroke-width="2" /><path d="M68.5,72.5 c8.605,-4.71 16.74,-11.103 23.5,-18.5" fill="none" stroke="#000000" stroke-width="2" /><path d="M9,91.5 c8.32,-9.315 15.214,-19.837 20,-30.5" fill="none" stroke="#000000" stroke-width="2" /><path d="M29,22.5 c-5.318,-4.56 -11.738,-9.335 -19,-14" fill="none" stroke="#000000" stroke-width="2" /><path d="M25.5,45.5 c-5.787,-4.994 -12.506,-9.997 -20.5,-15" fill="none" stroke="#000000" stroke-width="2" /></svg>