<?xml version='1.0' encoding='utf-8'?>
<svg xmlns="http://www.w3.org/2000/svg" height="100px" version="1.0" viewBox="0 0 100 100" width="100px" x="0px" y="0px">
<line fill="none" stroke="#000000" stroke-width="2" x1="30" x2="96" y1="65.5" y2="65.5" /><line fill="none" stroke="#000000" stroke-width="2" x1="90.5" x2="37" y1="44.5" y2="44.5" /><path d="M9,91.5 c7.072,-9.315 12.963,-19.819 17,-30.5" fill="none" stroke="#000000" stroke-width="2" /><path d="M26,22.5 c-4.551,-4.456 -9.955,-9.209 -16,-14" fill="none" stroke="#000000" stroke-width="2" /><path d="M22.5,45.5 c-5.014,-4.892 -10.751,-9.858 -17.5,-15" fill="none" stroke="#000000" stroke-width="2" /><path d="M44.5,39 c-3.137,-7.39 -6.611,-13.989 -10,-19" fill="none" stroke="#000000" stroke-width="2" /><path d="M64,36.5 c-2.93,-7.363 -6.166,-13.815 -9.5,-19" fill="none" stroke="#000000" stroke-width="2" /><path d="M74.5,39.5 c5.387,-6.435 10.671,-15.146 15,-25" fill="none" stroke="#000000" stroke-width="2" /><path d="M30,14 c23.387,-0.575 44.107,-2.499 62,-5.5" fill="none" stroke="#000000" stroke-width="2" /><path d="M66,58 v25.0 c0,7.036 -1.006,8 -7,8 c-3.636,0 -7.875,-0.169 -13,-0.5" fill="none" stroke="#000000" stroke-width="2" /><path d="M89.844,44.745 c-7.143,6.218 -14.266,10.572 -23.844,14.255" fill="none" stroke="#000000" stroke-width="2" /></svg>