<?xml version='1.0' encoding='utf-8'?>
<svg xmlns="http://www.w3.org/2000/svg" height="100px" version="1.0" viewBox="0 0 100 100" width="100px" x="0px" y="0px">
<line fill="none" stroke="#000000" stroke-width="2" x1="61" x2="61" y1="15" y2="3" /><line fill="none" stroke="#000000" stroke-width="2" x1="94.5" x2="27.5" y1="15" y2="15" /><line fill="none" stroke="#000000" stroke-width="2" x1="84.5" x2="84.5" y1="44" y2="92.5" /><line fill="none" stroke="#000000" stroke-width="2" x1="39" x2="84.5" y1="52.5" y2="52.5" /><line fill="none" stroke="#000000" stroke-width="2" x1="38" x2="84.5" y1="70.5" y2="70.5" /><path d="M8,91.5 c7.072,-9.315 12.963,-19.819 17,-30.5" fill="none" stroke="#000000" stroke-width="2" /><path d="M26,22.5 c-4.551,-4.456 -9.955,-9.209 -16,-14" fill="none" stroke="#000000" stroke-width="2" /><path d="M21.5,45.5 c-5.014,-4.892 -10.751,-9.858 -17.5,-15" fill="none" stroke="#000000" stroke-width="2" /><path d="M83.5,15 c-10.129,14.092 -28.128,25.073 -58,32" fill="none" stroke="#000000" stroke-width="2" /><path d="M38.5,18 c15.355,14.61 33.286,23.806 58,29" fill="none" stroke="#000000" stroke-width="2" /><path d="M25,92.5 c8.838,-6.287 14,-16.95 14,-33 v-16.0" fill="none" stroke="#000000" stroke-width="2" /></svg>