<?xml version='1.0' encoding='utf-8'?>
<svg xmlns="http://www.w3.org/2000/svg" height="100px" version="1.0" viewBox="0 0 100 100" width="100px" x="0px" y="0px">
<line fill="none" stroke="#000000" stroke-width="2" x1="44" x2="77" y1="11" y2="11" /><line fill="none" stroke="#000000" stroke-width="2" x1="26" x2="96.5" y1="65" y2="65" /><polyline fill="none" points="34.5,64 34.5,25 90,25 90,64" stroke="#000000" stroke-width="2" /><path d="M66,25 c3.576,-4.155 7.203,-9.023 10.167,-13.549" fill="none" stroke="#000000" stroke-width="2" /><path d="M26.5,31.5 c9.967,-8.036 17.379,-17.829 22,-29" fill="none" stroke="#000000" stroke-width="2" /><path d="M25.5,92 c20.539,-3.902 35,-16.933 35,-27 v-11.0" fill="none" stroke="#000000" stroke-width="2" /><path d="M95.5,92 c-20.539,-3.902 -35,-16.933 -35,-27" fill="none" stroke="#000000" stroke-width="2" /><path d="M54.5,26 c0,18.897 -3.313,24.878 -16.5,32" fill="none" stroke="#000000" stroke-width="2" /><path d="M67.5,26 v15.0 c0,9.211 0.764,10 10,10 h11.5" fill="none" stroke="#000000" stroke-width="2" /><path d="M8,91.5 c6.656,-9.315 12.201,-19.819 16,-30.5" fill="none" stroke="#000000" stroke-width="2" /><path d="M25.5,22.5 c-4.551,-4.456 -9.955,-9.209 -16,-14" fill="none" stroke="#000000" stroke-width="2" /><path d="M22,45.5 c-5.014,-4.892 -10.751,-9.858 -17.5,-15" fill="none" stroke="#000000" stroke-width="2" /></svg>