<?xml version='1.0' encoding='utf-8'?>
<svg xmlns="http://www.w3.org/2000/svg" height="100px" version="1.0" viewBox="0 0 100 100" width="100px" x="0px" y="0px">
<line fill="none" stroke="#000000" stroke-width="2" x1="73" x2="73" y1="74" y2="12" /><line fill="none" stroke="#000000" stroke-width="2" x1="32" x2="60" y1="48" y2="48" /><line fill="none" stroke="#000000" stroke-width="2" x1="32" x2="60" y1="29" y2="29" /><polyline fill="none" points="32,67.5 61,67.5 61,10.5 31,10.5 31,68.5" stroke="#000000" stroke-width="2" /><path d="M8.5,91.5 c5.156,-9.315 9.464,-19.845 12.5,-30.5" fill="none" stroke="#000000" stroke-width="2" /><path d="M24,22.5 c-4.127,-4.427 -9.06,-9.209 -14.5,-14" fill="none" stroke="#000000" stroke-width="2" /><path d="M21,45.5 c-4.589,-4.819 -9.926,-9.858 -16,-15" fill="none" stroke="#000000" stroke-width="2" /><path d="M91,8 v75.0 c0,7.317 -0.645,8 -5,8 c-2.243,0 -5.943,-0.167 -10.5,-0.5" fill="none" stroke="#000000" stroke-width="2" /><path d="M26.5,92 c6.299,-4.847 12.094,-11.837 15.5,-18.5" fill="none" stroke="#000000" stroke-width="2" /><path d="M65,91.5 c-4.093,-6.009 -9.578,-12.239 -15.5,-17.5" fill="none" stroke="#000000" stroke-width="2" /></svg>