<?xml version='1.0' encoding='utf-8'?>
<svg xmlns="http://www.w3.org/2000/svg" height="100px" version="1.0" viewBox="0 0 100 100" width="100px" x="0px" y="0px">
<line fill="none" stroke="#000000" stroke-width="2" x1="47.5" x2="87.5" y1="41" y2="41" /><polyline fill="none" points="47.25,58 88.5,58 88.5,25 46.5,25 46.5,59" stroke="#000000" stroke-width="2" /><path d="M7.5,91.5 c7.072,-9.315 12.963,-19.819 17,-30.5" fill="none" stroke="#000000" stroke-width="2" /><path d="M24.5,22.5 c-4.551,-4.456 -9.955,-9.209 -16,-14" fill="none" stroke="#000000" stroke-width="2" /><path d="M21,45.5 c-5.014,-4.892 -10.751,-9.858 -17.5,-15" fill="none" stroke="#000000" stroke-width="2" /><path d="M26,91 c6.739,-14.092 10,-29.671 10,-51 v-29.0 h59.0" fill="none" stroke="#000000" stroke-width="2" /><path d="M67.5,59 v24.0 c0,7.423 -0.594,8 -5.5,8 c-2.235,0 -5.855,-0.174 -10.5,-0.5" fill="none" stroke="#000000" stroke-width="2" /><path d="M37.5,87 c6.605,-5.851 12.672,-14.271 16.5,-23" fill="none" stroke="#000000" stroke-width="2" /><path d="M94.5,88.5 c-5.026,-8.62 -11.117,-16.993 -17.5,-24" fill="none" stroke="#000000" stroke-width="2" /><path d="M67.5,11 c-0.771,5.192 -1.766,9.768 -3,14" fill="none" stroke="#000000" stroke-width="2" /></svg>