<?xml version='1.0' encoding='utf-8'?>
<svg xmlns="http://www.w3.org/2000/svg" height="100px" version="1.0" viewBox="0 0 100 100" width="100px" x="0px" y="0px">
<line fill="none" stroke="#000000" stroke-width="2" x1="37.5" x2="84.5" y1="43.5" y2="43.5" /><line fill="none" stroke="#000000" stroke-width="2" x1="61" x2="61" y1="13.5" y2="3.5" /><line fill="none" stroke="#000000" stroke-width="2" x1="26.5" x2="95" y1="13.5" y2="13.5" /><line fill="none" stroke="#000000" stroke-width="2" x1="61" x2="61" y1="55.5" y2="33.5" /><polyline fill="none" points="45,86.5 45,56.5 77,56.5 77,79.5 46,79.5" stroke="#000000" stroke-width="2" /><path d="M9,91.5 c7.072,-9.315 12.963,-19.819 17,-30.5" fill="none" stroke="#000000" stroke-width="2" /><path d="M25,22.5 c-4.551,-4.456 -9.955,-9.209 -16,-14" fill="none" stroke="#000000" stroke-width="2" /><path d="M22.5,45.5 c-5.014,-4.892 -10.751,-9.858 -17.5,-15" fill="none" stroke="#000000" stroke-width="2" /><path d="M70.5,29.5 c2.813,-4.761 5.188,-10.157 7,-16" fill="none" stroke="#000000" stroke-width="2" /><path d="M50.5,29.5 c-1.956,-5.314 -4.36,-10.839 -7,-16" fill="none" stroke="#000000" stroke-width="2" /><path d="M72,90.5 c6.117,0.345 9.938,0.5 12,0.5 c5.844,0 6.5,-0.634 6.5,-7 v-54.5 h-59.0 V93.0" fill="none" stroke="#000000" stroke-width="2" /></svg>