<?xml version='1.0' encoding='utf-8'?>
<svg xmlns="http://www.w3.org/2000/svg" height="100px" version="1.0" viewBox="0 0 100 100" width="100px" x="0px" y="0px">
<line fill="none" stroke="#000000" stroke-width="2" x1="68" x2="91" y1="59" y2="59" /><line fill="none" stroke="#000000" stroke-width="2" x1="69" x2="91" y1="33.5" y2="33.5" /><line fill="none" stroke="#000000" stroke-width="2" x1="30.5" x2="57.5" y1="46.5" y2="46.5" /><line fill="none" stroke="#000000" stroke-width="2" x1="23.5" x2="61" y1="76.5" y2="76.5" /><line fill="none" stroke="#000000" stroke-width="2" x1="43.5" x2="43.5" y1="29.5" y2="5.5" /><line fill="none" stroke="#000000" stroke-width="2" x1="43.5" x2="43.5" y1="94.5" y2="64.5" /><line fill="none" stroke="#000000" stroke-width="2" x1="25" x2="63" y1="17.5" y2="17.5" /><polyline fill="none" points="30.5,63.5 58.5,63.5 58.5,30.5 29.5,30.5 29.5,64.5" stroke="#000000" stroke-width="2" /><path d="M59,92.5 c6.149,-10.866 9,-23.313 9,-46.5 v-36.0 h24.0 v73.0 c0,7.724 -0.25,8 -5,8 c-1.819,0 -5.604,-0.155 -11,-0.5" fill="none" stroke="#000000" stroke-width="2" /><path d="M7.5,91.5 c5.156,-9.315 9.464,-19.845 12.5,-30.5" fill="none" stroke="#000000" stroke-width="2" /><path d="M22.5,22.5 c-4.127,-4.427 -9.06,-9.209 -14.5,-14" fill="none" stroke="#000000" stroke-width="2" /><path d="M20,45.5 c-4.589,-4.819 -9.926,-9.858 -16,-15" fill="none" stroke="#000000" stroke-width="2" /></svg>