<?xml version='1.0' encoding='utf-8'?>
<svg xmlns="http://www.w3.org/2000/svg" height="100px" version="1.0" viewBox="0 0 100 100" width="100px" x="0px" y="0px">
<line fill="none" stroke="#000000" stroke-width="2" x1="61.5" x2="61.5" y1="93.5" y2="54.5" /><line fill="none" stroke="#000000" stroke-width="2" x1="94.5" x2="29.5" y1="63" y2="63" /><polyline fill="none" points="32.5,52.5 58,52.5 58,34 31.5,34 31.5,53.5" stroke="#000000" stroke-width="2" /><polyline fill="none" points="66,52.5 91.5,52.5 91.5,34 65,34 65,53.5" stroke="#000000" stroke-width="2" /><polyline fill="none" points="38,27 86,27 86,9 37,9 37,28" stroke="#000000" stroke-width="2" /><path d="M25.5,89 c15.542,-7.159 28.185,-16.962 35,-26" fill="none" stroke="#000000" stroke-width="2" /><path d="M96,89 c-15.246,-7.785 -26.217,-16.469 -33.5,-26" fill="none" stroke="#000000" stroke-width="2" /><path d="M8,91.5 c7.072,-9.315 12.963,-19.819 17,-30.5" fill="none" stroke="#000000" stroke-width="2" /><path d="M25,22.5 c-4.551,-4.456 -9.955,-9.209 -16,-14" fill="none" stroke="#000000" stroke-width="2" /><path d="M21.5,45.5 c-5.014,-4.892 -10.751,-9.858 -17.5,-15" fill="none" stroke="#000000" stroke-width="2" /></svg>