<?xml version='1.0' encoding='utf-8'?>
<svg xmlns="http://www.w3.org/2000/svg" height="100px" version="1.0" viewBox="0 0 100 100" width="100px" x="0px" y="0px">
<line fill="none" stroke="#000000" stroke-width="2" x1="68.5" x2="97" y1="21" y2="21" /><line fill="none" stroke="#000000" stroke-width="2" x1="30" x2="57" y1="27" y2="27" /><line fill="none" stroke="#000000" stroke-width="2" x1="43.5" x2="43.5" y1="51.5" y2="41.5" /><line fill="none" stroke="#000000" stroke-width="2" x1="24" x2="63" y1="51.5" y2="51.5" /><polyline fill="none" points="30,40.5 58,40.5 58,14 29,14 29,41.5" stroke="#000000" stroke-width="2" /><path d="M7.5,91.5 c5.76,-9.325 10.6,-19.845 14,-30.5" fill="none" stroke="#000000" stroke-width="2" /><path d="M24.5,22.5 c-4.555,-4.427 -9.997,-9.209 -16,-14" fill="none" stroke="#000000" stroke-width="2" /><path d="M21,45.5 c-5.163,-4.819 -11.166,-9.858 -18,-15" fill="none" stroke="#000000" stroke-width="2" /><path d="M59,91 c20.838,-15.312 29.82,-32.429 33,-70" fill="none" stroke="#000000" stroke-width="2" /><path d="M96,91 c-15.795,-14.065 -23.263,-30.208 -26,-63" fill="none" stroke="#000000" stroke-width="2" /><path d="M60,46 c5.164,-11.154 9.563,-26.118 12,-41" fill="none" stroke="#000000" stroke-width="2" /><path d="M43.5,3 c-0.686,4.057 -1.497,7.636 -2.5,11" fill="none" stroke="#000000" stroke-width="2" /><path d="M22,91.5 c9.073,-7.507 14,-19.251 14,-39" fill="none" stroke="#000000" stroke-width="2" /><path d="M51.5,90 c-2.423,0 -6.721,-0.305 -12,-1" fill="none" stroke="#000000" stroke-width="2" /><path d="M35.5,62.5 h24.0 c0,22.034 -3.173,27.5 -8,27.5" fill="none" stroke="#000000" stroke-width="2" /></svg>