<?xml version='1.0' encoding='utf-8'?>
<svg xmlns="http://www.w3.org/2000/svg" height="100px" version="1.0" viewBox="0 0 100 100" width="100px" x="0px" y="0px">
<path d="M83.5,78.5 c-2.141,-4.718 -4.731,-9.62 -8,-15" fill="none" stroke="#000000" stroke-width="2" /><path d="M63.25,83.5 c-1.487,-5.906 -3.422,-12.098 -6,-19" fill="none" stroke="#000000" stroke-width="2" /><path d="M43,88.5 c-0.834,-7.094 -2.112,-14.576 -4,-23" fill="none" stroke="#000000" stroke-width="2" /><path d="M16,91 c3.603,-7.585 6.693,-15.767 9.5,-25.5" fill="none" stroke="#000000" stroke-width="2" /><path d="M24,56.5 h70.0 c-1.024,29.343 -4.73,35 -11.5,35 c-3.191,0 -7.766,-0.321 -13.5,-1" fill="none" stroke="#000000" stroke-width="2" /><path d="M4,74 c26.041,-18.35 42.688,-43.02 48,-71" fill="none" stroke="#000000" stroke-width="2" /><path d="M32,20.5 c-3.19,-5.507 -6.658,-10.905 -10,-15.5" fill="none" stroke="#000000" stroke-width="2" /><path d="M10,20.5 h70.0 c-1.069,5.63 -2.463,11.792 -4,17.5" fill="none" stroke="#000000" stroke-width="2" /><path d="M38.5,38 h47.5 c-1.069,5.951 -2.463,12.466 -4,18.5" fill="none" stroke="#000000" stroke-width="2" /></svg>