<?xml version='1.0' encoding='utf-8'?>
<svg xmlns="http://www.w3.org/2000/svg" height="100px" version="1.0" viewBox="0 0 100 100" width="100px" x="0px" y="0px">
<line fill="none" stroke="#000000" stroke-width="2" x1="82" x2="18" y1="11" y2="11" /><line fill="none" stroke="#000000" stroke-width="2" x1="92.5" x2="7.5" y1="68" y2="68" /><line fill="none" stroke="#000000" stroke-width="2" x1="7.5" x2="43.5" y1="29" y2="29" /><path d="M51,23.5 v28.5 c0,7.276 -0.683,8 -7.5,8 c-4,0 -8.863,-0.168 -14.5,-0.5" fill="none" stroke="#000000" stroke-width="2" /><path d="M81.496,11.138 c-9.111,5.303 -18.52,9.458 -30.496,13.362" fill="none" stroke="#000000" stroke-width="2" /><path d="M51,24 c7.844,13.302 24.045,26.302 43.5,34.5" fill="none" stroke="#000000" stroke-width="2" /><path d="M90.5,25 c-8.229,5.646 -17.164,10.304 -27,14" fill="none" stroke="#000000" stroke-width="2" /><path d="M42.676,29.434 c-7.733,11.251 -21.621,22.156 -37.176,28.566" fill="none" stroke="#000000" stroke-width="2" /><path d="M92.5,92 c-4.201,-6.038 -9.068,-12.229 -15,-19" fill="none" stroke="#000000" stroke-width="2" /><path d="M67,92.25 c-2.518,-5.955 -5.578,-12.131 -9.5,-19" fill="none" stroke="#000000" stroke-width="2" /><path d="M41.5,92.5 c-0.834,-5.872 -2.088,-12.033 -4,-19" fill="none" stroke="#000000" stroke-width="2" /><path d="M7.5,92 c5.269,-5.368 10.214,-11.575 15,-19" fill="none" stroke="#000000" stroke-width="2" /></svg>