<?xml version='1.0' encoding='utf-8'?>
<svg xmlns="http://www.w3.org/2000/svg" height="100px" version="1.0" viewBox="0 0 100 100" width="100px" x="0px" y="0px">
<line fill="none" stroke="#000000" stroke-width="2" x1="46.5" x2="78.5" y1="11" y2="11" /><line fill="none" stroke="#000000" stroke-width="2" x1="29.5" x2="96.5" y1="65" y2="65" /><polyline fill="none" points="37,64 37,25 90.5,25 90.5,64" stroke="#000000" stroke-width="2" /><path d="M30.5,82 c-3.42,-9.306 -8.124,-19.425 -13,-28" fill="none" stroke="#000000" stroke-width="2" /><path d="M9.5,20 c0,13.128 -1.453,24.476 -4,33.5" fill="none" stroke="#000000" stroke-width="2" /><path d="M32.5,17.5 c-2.094,12.181 -5.521,22.562 -10,31" fill="none" stroke="#000000" stroke-width="2" /><path d="M5,91 c7.869,-10.161 13.5,-30.425 13.5,-56 v-28.0" fill="none" stroke="#000000" stroke-width="2" /><path d="M67.5,25 c3.576,-4.155 7.203,-9.023 10.167,-13.549" fill="none" stroke="#000000" stroke-width="2" /><path d="M29,31.5 c9.967,-8.036 17.379,-17.829 22,-29" fill="none" stroke="#000000" stroke-width="2" /><path d="M25.5,92 c22.299,-3.902 38,-16.933 38,-27 v-11.0" fill="none" stroke="#000000" stroke-width="2" /><path d="M95.5,92 c-18.779,-3.902 -32,-16.933 -32,-27" fill="none" stroke="#000000" stroke-width="2" /><path d="M56,26 c0,18.897 -3.313,24.878 -16.5,32" fill="none" stroke="#000000" stroke-width="2" /><path d="M70,26 v15.0 c0,9.211 0.764,10 10,10 h9.5" fill="none" stroke="#000000" stroke-width="2" /></svg>