<?xml version='1.0' encoding='utf-8'?>
<svg xmlns="http://www.w3.org/2000/svg" height="100px" version="1.0" viewBox="0 0 100 100" width="100px" x="0px" y="0px">
<line fill="none" stroke="#000000" stroke-width="2" x1="36.5" x2="96" y1="10.5" y2="10.5" /><line fill="none" stroke="#000000" stroke-width="2" x1="41.5" x2="90" y1="57" y2="57" /><line fill="none" stroke="#000000" stroke-width="2" x1="41.5" x2="90" y1="41" y2="41" /><polyline fill="none" points="41.5,73.5 91,73.5 91,25.5 40.5,25.5 40.5,74.5" stroke="#000000" stroke-width="2" /><path d="M32,92.5 c10.537,-3.835 19.639,-9.067 25,-14" fill="none" stroke="#000000" stroke-width="2" /><path d="M95.5,93 c-6.459,-4.882 -15.296,-10.108 -25,-14.5" fill="none" stroke="#000000" stroke-width="2" /><path d="M65,10.5 c-0.98,5.553 -2.142,10.448 -3.5,15" fill="none" stroke="#000000" stroke-width="2" /><path d="M35.77,82.14 c-4.412,-9.352 -10.48,-19.521 -16.77,-28.14" fill="none" stroke="#000000" stroke-width="2" /><path d="M10,20 c0,13.128 -1.636,24.476 -4.5,33.5" fill="none" stroke="#000000" stroke-width="2" /><path d="M35.5,19.5 c-2.094,12.181 -5.521,22.562 -10,31" fill="none" stroke="#000000" stroke-width="2" /><path d="M5,91 c8.744,-10.161 15,-30.425 15,-56 v-28.0" fill="none" stroke="#000000" stroke-width="2" /></svg>