<?xml version='1.0' encoding='utf-8'?>
<svg xmlns="http://www.w3.org/2000/svg" height="100px" version="1.0" viewBox="0 0 100 100" width="100px" x="0px" y="0px">
<line fill="none" stroke="#000000" stroke-width="2" x1="12" x2="43.5" y1="52" y2="52" /><line fill="none" stroke="#000000" stroke-width="2" x1="12" x2="43.5" y1="40.5" y2="40.5" /><path d="M11.5,23 c4.609,-5.334 8.946,-11.222 12.5,-17" fill="none" stroke="#000000" stroke-width="2" /><path d="M51,26 c-4.072,-4.862 -9.965,-11.177 -15,-16" fill="none" stroke="#000000" stroke-width="2" /><path d="M4,23.5 c13.721,-0.355 28.156,-1.204 42.5,-2.5" fill="none" stroke="#000000" stroke-width="2" /><path d="M11,66.5 V29.0 h33.5 v32.5 c0,3.755 -0.245,4 -5.5,4 c-1.858,0 -5.125,-0.157 -10.5,-0.5" fill="none" stroke="#000000" stroke-width="2" /><path d="M56,7 v22.5 c0,4.037 0.513,4.5 15.5,4.5 c18.401,0 18.554,-0.12 20.5,-12" fill="none" stroke="#000000" stroke-width="2" /><path d="M56,20 c12.077,-2.118 22.641,-4.992 35,-9.5" fill="none" stroke="#000000" stroke-width="2" /><path d="M56,38 v23.5 c0,4.037 0.513,4.5 15.5,4.5 c18.851,0 19.006,-0.128 21,-13" fill="none" stroke="#000000" stroke-width="2" /><path d="M56,50 c12.077,-2.118 22.641,-4.992 35,-9.5" fill="none" stroke="#000000" stroke-width="2" /><path d="M92.5,92 c-4.201,-6.038 -9.068,-12.229 -15,-19" fill="none" stroke="#000000" stroke-width="2" /><path d="M67,92.25 c-2.518,-5.955 -5.578,-12.131 -9.5,-19" fill="none" stroke="#000000" stroke-width="2" /><path d="M41.5,92.5 c-0.834,-5.872 -2.088,-12.033 -4,-19" fill="none" stroke="#000000" stroke-width="2" /><path d="M7.5,92 c5.269,-5.368 10.214,-11.575 15,-19" fill="none" stroke="#000000" stroke-width="2" /></svg>