<?xml version='1.0' encoding='utf-8'?>
<svg xmlns="http://www.w3.org/2000/svg" height="100px" version="1.0" viewBox="0 0 100 100" width="100px" x="0px" y="0px">
<line fill="none" stroke="#000000" stroke-width="2" x1="29" x2="29" y1="13" y2="4.5" /><line fill="none" stroke="#000000" stroke-width="2" x1="6" x2="52" y1="13" y2="13" /><line fill="none" stroke="#000000" stroke-width="2" x1="49" x2="8.5" y1="40" y2="40" /><polyline fill="none" points="12.5,33 46.5,33 46.5,19.5 11.5,19.5 11.5,34" stroke="#000000" stroke-width="2" /><path d="M5,54 c20.907,-0.667 37.951,-1.595 48,-2.5" fill="none" stroke="#000000" stroke-width="2" /><path d="M30,48 v14.0 c0,5.138 -0.377,5.5 -5.5,5.5 c-3.023,0 -6.745,-0.163 -11,-0.5" fill="none" stroke="#000000" stroke-width="2" /><path d="M48.477,40.144 c-6.045,3.726 -10.986,6.143 -18.477,8.856" fill="none" stroke="#000000" stroke-width="2" /><path d="M92.5,92 c-4.201,-6.038 -9.068,-12.229 -15,-19" fill="none" stroke="#000000" stroke-width="2" /><path d="M67,92.25 c-2.518,-5.955 -5.578,-12.131 -9.5,-19" fill="none" stroke="#000000" stroke-width="2" /><path d="M41.5,92.5 c-0.834,-5.872 -2.088,-12.033 -4,-19" fill="none" stroke="#000000" stroke-width="2" /><path d="M7.5,92 c5.269,-5.368 10.214,-11.575 15,-19" fill="none" stroke="#000000" stroke-width="2" /><path d="M55.5,31 c7.859,5.72 15.1,13.132 24.5,25.5" fill="none" stroke="#000000" stroke-width="2" /><path d="M44,69 c16.173,-9.985 24,-23.803 24,-46 v-18.5" fill="none" stroke="#000000" stroke-width="2" /><path d="M52.5,17 h33.5 c0,39.601 3.407,49.5 6.5,49.5 c1.304,0 3.363,-4.86 4.5,-18.5" fill="none" stroke="#000000" stroke-width="2" /></svg>