<?xml version='1.0' encoding='utf-8'?>
<svg xmlns="http://www.w3.org/2000/svg" height="100px" version="1.0" viewBox="0 0 100 100" width="100px" x="0px" y="0px">
<line fill="none" stroke="#000000" stroke-width="2" x1="94.5" x2="61.5" y1="25" y2="25" /><line fill="none" stroke="#000000" stroke-width="2" x1="65" x2="44.5" y1="17" y2="17" /><path d="M30.5,82 c-3.42,-9.306 -8.124,-19.425 -13,-28" fill="none" stroke="#000000" stroke-width="2" /><path d="M9.5,20 c0,13.128 -1.454,24.476 -4,33.5" fill="none" stroke="#000000" stroke-width="2" /><path d="M31.5,17.5 c-2.094,12.181 -5.521,22.562 -10,31" fill="none" stroke="#000000" stroke-width="2" /><path d="M5,91 c7.87,-10.161 13.5,-30.425 13.5,-56 v-28.0" fill="none" stroke="#000000" stroke-width="2" /><path d="M82,7 c3.618,4.157 6.59,7.877 10,12.5" fill="none" stroke="#000000" stroke-width="2" /><path d="M51.5,65.5 c14.447,-11.081 23,-27.351 23,-43.5 v-14.5" fill="none" stroke="#000000" stroke-width="2" /><path d="M95.5,65.5 c-13.61,-12.507 -21,-27.917 -21,-43.5" fill="none" stroke="#000000" stroke-width="2" /><path d="M94,92 c-3.197,-7.286 -6.952,-14.859 -11.5,-23" fill="none" stroke="#000000" stroke-width="2" /><path d="M74.75,92.5 c-1.899,-7.176 -4.259,-14.742 -7.25,-23" fill="none" stroke="#000000" stroke-width="2" /><path d="M55.5,93 c-0.602,-7.066 -1.566,-14.624 -3,-23" fill="none" stroke="#000000" stroke-width="2" /><path d="M30,92.5 c4.017,-6.487 7.831,-14.074 11.5,-23" fill="none" stroke="#000000" stroke-width="2" /><path d="M31.5,35 c8.279,-9.067 14.082,-18.515 18,-29" fill="none" stroke="#000000" stroke-width="2" /><path d="M30,67 c15.991,-11.647 29.032,-30.52 34.033,-49.257" fill="none" stroke="#000000" stroke-width="2" /><path d="M48,49.5 c-3.834,-3.563 -7.974,-7.202 -12,-10.5" fill="none" stroke="#000000" stroke-width="2" /><path d="M56.5,36 c-3.911,-3.461 -7.907,-6.802 -12,-10" fill="none" stroke="#000000" stroke-width="2" /></svg>