<?xml version='1.0' encoding='utf-8'?>
<svg xmlns="http://www.w3.org/2000/svg" height="100px" version="1.0" viewBox="0 0 100 100" width="100px" x="0px" y="0px">
<line fill="none" stroke="#000000" stroke-width="2" x1="63" x2="63" y1="93.5" y2="54.5" /><line fill="none" stroke="#000000" stroke-width="2" x1="95" x2="30" y1="63" y2="63" /><polyline fill="none" points="35,52.5 59.5,52.5 59.5,34 34,34 34,53.5" stroke="#000000" stroke-width="2" /><polyline fill="none" points="67.5,52.5 92,52.5 92,34 66.5,34 66.5,53.5" stroke="#000000" stroke-width="2" /><polyline fill="none" points="40.5,27 86.5,27 86.5,9 39.5,9 39.5,28" stroke="#000000" stroke-width="2" /><path d="M28,89 c15.098,-7.159 27.379,-16.962 34,-26" fill="none" stroke="#000000" stroke-width="2" /><path d="M96.5,89 c-14.791,-7.785 -25.434,-16.469 -32.5,-26" fill="none" stroke="#000000" stroke-width="2" /><path d="M30.5,82 c-3.42,-9.306 -8.124,-19.425 -13,-28" fill="none" stroke="#000000" stroke-width="2" /><path d="M9.5,20 c0,13.128 -1.453,24.476 -4,33.5" fill="none" stroke="#000000" stroke-width="2" /><path d="M32.5,17.5 c-2.094,12.181 -5.521,22.562 -10,31" fill="none" stroke="#000000" stroke-width="2" /><path d="M5,91 c7.869,-10.161 13.5,-30.425 13.5,-56 v-28.0" fill="none" stroke="#000000" stroke-width="2" /></svg>