<?xml version='1.0' encoding='utf-8'?>
<svg xmlns="http://www.w3.org/2000/svg" height="100px" version="1.0" viewBox="0 0 100 100" width="100px" x="0px" y="0px">
<path d="M15.5,8 c11.066,15.94 16.5,34.505 16.5,56.5 c0,18.948 -4.779,26.5 -10,26.5 c-2.864,0 -7.87,-0.715 -13,-2" fill="none" stroke="#000000" stroke-width="2" /><path d="M40,6 c-9.039,10.59 -20.994,19.975 -34,26.5" fill="none" stroke="#000000" stroke-width="2" /><path d="M30,44 c-6.237,7.003 -14.648,13.385 -24,18" fill="none" stroke="#000000" stroke-width="2" /><path d="M81,55 c-3.562,0 -9.073,-0.303 -16,-1" fill="none" stroke="#000000" stroke-width="2" /><path d="M81,55 c4.093,0 5.12,-1.873 7,-42.5 h-41.0 v65.5 c0,10.665 0.34,10.972 7,11.5 c4.547,0.361 8.529,0.5 13,0.5 c4.389,0 9.18,-0.169 14,-0.5 c10.105,-0.698 10.256,-0.843 12,-24.5" fill="none" stroke="#000000" stroke-width="2" /></svg>