<?xml version='1.0' encoding='utf-8'?>
<svg xmlns="http://www.w3.org/2000/svg" height="100px" version="1.0" viewBox="0 0 100 100" width="100px" x="0px" y="0px">
<line fill="none" stroke="#000000" stroke-width="2" x1="64" x2="64" y1="12" y2="94" /><line fill="none" stroke="#000000" stroke-width="2" x1="36" x2="92" y1="62" y2="62" /><line fill="none" stroke="#000000" stroke-width="2" x1="36" x2="92" y1="36" y2="36" /><polyline fill="none" points="93,70 93,11 35,11 35,70" stroke="#000000" stroke-width="2" /><path d="M13.5,8 c9.348,15.786 14,33.95 14,56.5 c0,19.396 -4.178,26.5 -8.5,26.5 c-2.443,0 -6.626,-0.706 -11,-2" fill="none" stroke="#000000" stroke-width="2" /><path d="M34.5,6 c-7.71,10.59 -17.906,19.975 -29,26.5" fill="none" stroke="#000000" stroke-width="2" /><path d="M26,44 c-5.32,7.003 -12.523,13.385 -20.5,18" fill="none" stroke="#000000" stroke-width="2" /></svg>