<?xml version='1.0' encoding='utf-8'?>
<svg xmlns="http://www.w3.org/2000/svg" height="100px" version="1.0" viewBox="0 0 100 100" width="100px" x="0px" y="0px">
<line fill="none" stroke="#000000" stroke-width="2" x1="62" x2="62" y1="16" y2="4" /><line fill="none" stroke="#000000" stroke-width="2" x1="95" x2="31.5" y1="41.5" y2="41.5" /><polyline fill="none" points="90.5,34 90.5,16 34.5,16 34.5,34" stroke="#000000" stroke-width="2" /><path d="M83,23.5 v58.5 c0,8.474 -0.459,9 -6,9 c-1.902,0 -7.039,-0.18 -13,-0.5" fill="none" stroke="#000000" stroke-width="2" /><path d="M62,74 c-4.961,-6.18 -11.874,-13.175 -19,-19" fill="none" stroke="#000000" stroke-width="2" /><path d="M13.5,8 c9.348,15.786 14,33.95 14,56.5 c0,19.396 -4.178,26.5 -8.5,26.5 c-2.443,0 -6.626,-0.706 -11,-2" fill="none" stroke="#000000" stroke-width="2" /><path d="M34.5,6 c-7.71,10.59 -17.906,19.975 -29,26.5" fill="none" stroke="#000000" stroke-width="2" /><path d="M26,44 c-5.32,7.003 -12.523,13.385 -20.5,18" fill="none" stroke="#000000" stroke-width="2" /></svg>