<?xml version='1.0' encoding='utf-8'?>
<svg xmlns="http://www.w3.org/2000/svg" height="100px" version="1.0" viewBox="0 0 100 100" width="100px" x="0px" y="0px">
<line fill="none" stroke="#000000" stroke-width="2" x1="50" x2="50" y1="15.5" y2="5" /><line fill="none" stroke="#000000" stroke-width="2" x1="6.5" x2="93.5" y1="15.5" y2="15.5" /><line fill="none" stroke="#000000" stroke-width="2" x1="95" x2="5" y1="67.5" y2="67.5" /><line fill="none" stroke="#000000" stroke-width="2" x1="50" x2="50" y1="59" y2="94" /><line fill="none" stroke="#000000" stroke-width="2" x1="26" x2="69" y1="57" y2="54.5" /><path d="M25.5,34.5 c-4.181,-4.183 -9.392,-8.423 -15.5,-12.5" fill="none" stroke="#000000" stroke-width="2" /><path d="M6.5,59 c8.057,-3.798 15.05,-8.229 20,-12.5" fill="none" stroke="#000000" stroke-width="2" /><path d="M90.1,22 c-4.196,4.171 -9.391,8.425 -15.5,12.5" fill="none" stroke="#000000" stroke-width="2" /><path d="M73.5,46.5 c7.975,3.965 14.933,8.368 20,12.5" fill="none" stroke="#000000" stroke-width="2" /><path d="M72,60.5 c-2.841,-6.72 -7.626,-14.784 -13,-21.5" fill="none" stroke="#000000" stroke-width="2" /><path d="M34,56.5 c11.664,-10.129 22.273,-21.31 31.5,-33" fill="none" stroke="#000000" stroke-width="2" /><path d="M44,47 c-4.164,-5.905 -10.27,-14.084 -15,-20" fill="none" stroke="#000000" stroke-width="2" /><path d="M35,34.5 c5.882,-6.282 10.963,-12.339 16,-19" fill="none" stroke="#000000" stroke-width="2" /></svg>