<?xml version='1.0' encoding='utf-8'?>
<svg xmlns="http://www.w3.org/2000/svg" height="100px" version="1.0" viewBox="0 0 100 100" width="100px" x="0px" y="0px">
<line fill="none" stroke="#000000" stroke-width="2" x1="33" x2="4.5" y1="12.5" y2="12.5" /><line fill="none" stroke="#000000" stroke-width="2" x1="32" x2="5.5" y1="43.5" y2="43.5" /><line fill="none" stroke="#000000" stroke-width="2" x1="18.5" x2="18.5" y1="77.5" y2="13.5" /><line fill="none" stroke="#000000" stroke-width="2" x1="37" x2="88" y1="39" y2="39" /><line fill="none" stroke="#000000" stroke-width="2" x1="64" x2="64" y1="39" y2="5" /><path d="M4.5,83 c9.039,-3.375 16.9,-6.873 27,-12" fill="none" stroke="#000000" stroke-width="2" /><path d="M86,33 c3.389,-4.989 5.912,-10.032 8.056,-16.323" fill="none" stroke="#000000" stroke-width="2" /><path d="M36.5,91 c21.447,-6.523 39.112,-23.589 50.575,-51.381" fill="none" stroke="#000000" stroke-width="2" /><path d="M95.5,91 c-22.088,-6.802 -38.547,-21.919 -48.5,-47" fill="none" stroke="#000000" stroke-width="2" /><path d="M27,91.5 c6.739,-14.092 10,-29.671 10,-51 V16.0 h58.0" fill="none" stroke="#000000" stroke-width="2" /></svg>