<?xml version='1.0' encoding='utf-8'?>
<svg xmlns="http://www.w3.org/2000/svg" height="100px" version="1.0" viewBox="0 0 100 100" width="100px" x="0px" y="0px">
<line fill="none" stroke="#000000" stroke-width="2" x1="65" x2="65" y1="3" y2="14" /><line fill="none" stroke="#000000" stroke-width="2" x1="44" x2="87" y1="33" y2="33" /><line fill="none" stroke="#000000" stroke-width="2" x1="36.5" x2="4" y1="12.5" y2="12.5" /><line fill="none" stroke="#000000" stroke-width="2" x1="35.5" x2="5" y1="43.5" y2="43.5" /><line fill="none" stroke="#000000" stroke-width="2" x1="20.5" x2="20.5" y1="77.5" y2="13.5" /><polyline fill="none" points="44,52.5 88,52.5 88,15 43,15 43,89.5" stroke="#000000" stroke-width="2" /><path d="M60.5,52.5 c6.041,17.854 19.88,32.362 36.5,39" fill="none" stroke="#000000" stroke-width="2" /><path d="M31.5,91.5 c12.063,-1.945 22.541,-4.481 35,-8.5" fill="none" stroke="#000000" stroke-width="2" /><path d="M71.5,72.5 c7.678,-4.665 14.986,-11.103 21,-18.5" fill="none" stroke="#000000" stroke-width="2" /><path d="M4,83 c11.047,-3.375 20.656,-6.873 33,-12" fill="none" stroke="#000000" stroke-width="2" /></svg>