<?xml version='1.0' encoding='utf-8'?>
<svg xmlns="http://www.w3.org/2000/svg" height="100px" version="1.0" viewBox="0 0 100 100" width="100px" x="0px" y="0px">
<line fill="none" stroke="#000000" stroke-width="2" x1="31" x2="55.5" y1="22" y2="22" /><line fill="none" stroke="#000000" stroke-width="2" x1="71.5" x2="96" y1="22" y2="22" /><line fill="none" stroke="#000000" stroke-width="2" x1="71.5" x2="96.5" y1="68" y2="68" /><line fill="none" stroke="#000000" stroke-width="2" x1="33" x2="55.5" y1="44" y2="44" /><line fill="none" stroke="#000000" stroke-width="2" x1="71.5" x2="94.5" y1="44" y2="44" /><line fill="none" stroke="#000000" stroke-width="2" x1="71.5" x2="71.5" y1="94" y2="6" /><line fill="none" stroke="#000000" stroke-width="2" x1="32" x2="4" y1="12.5" y2="12.5" /><line fill="none" stroke="#000000" stroke-width="2" x1="30" x2="5" y1="43.5" y2="43.5" /><line fill="none" stroke="#000000" stroke-width="2" x1="18.5" x2="18.5" y1="80.5" y2="12.5" /><path d="M33.5,94.5 c16.23,-8.743 22,-19.019 22,-47.5 v-41.0" fill="none" stroke="#000000" stroke-width="2" /><path d="M29.5,70.5 c8.787,-2.486 16.44,-5.247 25,-9" fill="none" stroke="#000000" stroke-width="2" /><path d="M4,85 c9.708,-2.672 18.159,-5.423 29,-9.5" fill="none" stroke="#000000" stroke-width="2" /></svg>