<?xml version='1.0' encoding='utf-8'?>
<svg xmlns="http://www.w3.org/2000/svg" height="100px" version="1.0" viewBox="0 0 100 100" width="100px" x="0px" y="0px">
<line fill="none" stroke="#000000" stroke-width="2" x1="29" x2="4" y1="12.5" y2="12.5" /><line fill="none" stroke="#000000" stroke-width="2" x1="29" x2="5" y1="43.5" y2="43.5" /><line fill="none" stroke="#000000" stroke-width="2" x1="18" x2="18" y1="76.5" y2="12.5" /><line fill="none" stroke="#000000" stroke-width="2" x1="71" x2="71" y1="26" y2="10.5" /><line fill="none" stroke="#000000" stroke-width="2" x1="52" x2="52" y1="26" y2="10.5" /><line fill="none" stroke="#000000" stroke-width="2" x1="29" x2="94" y1="36.5" y2="36.5" /><line fill="none" stroke="#000000" stroke-width="2" x1="60" x2="60" y1="94.5" y2="63.5" /><polyline fill="none" points="34,27 90,27 90,9.5 33,9.5 33,28" stroke="#000000" stroke-width="2" /><polyline fill="none" points="37.5,62.5 87.5,62.5 87.5,46 36.5,46 36.5,63.5" stroke="#000000" stroke-width="2" /><path d="M4,81 c9.708,-2.672 18.159,-5.423 29,-9.5" fill="none" stroke="#000000" stroke-width="2" /><path d="M24,90 c16.073,-7.481 27.873,-16.727 35.5,-27" fill="none" stroke="#000000" stroke-width="2" /><path d="M96,90 c-16.073,-7.481 -27.873,-16.727 -35.5,-27" fill="none" stroke="#000000" stroke-width="2" /><path d="M75,77.5 c5.568,-3.606 10.799,-7.32 15.5,-11" fill="none" stroke="#000000" stroke-width="2" /></svg>