<?xml version='1.0' encoding='utf-8'?>
<svg xmlns="http://www.w3.org/2000/svg" height="100px" version="1.0" viewBox="0 0 100 100" width="100px" x="0px" y="0px">
<line fill="none" stroke="#000000" stroke-width="2" x1="50" x2="50" y1="87" y2="53.5" /><line fill="none" stroke="#000000" stroke-width="2" x1="18" x2="82" y1="88" y2="88" /><line fill="none" stroke="#000000" stroke-width="2" x1="18" x2="82" y1="70" y2="70" /><polyline fill="none" points="83,94 83,52.5 17,52.5 17,94" stroke="#000000" stroke-width="2" /><path d="M49.5,47.5 c10.496,-7.365 17.481,-20.725 18,-36" fill="none" stroke="#000000" stroke-width="2" /><path d="M50.5,11.5 H90.0 c-0.8,29.755 -2.712,33 -7.5,33 c-2.524,0 -8.932,-0.463 -13,-1" fill="none" stroke="#000000" stroke-width="2" /><path d="M5.5,46.5 c13.217,-3.477 24.018,-7.87 36,-14.5" fill="none" stroke="#000000" stroke-width="2" /><path d="M47,6.5 c-11.263,3.315 -21.576,5.762 -34,7.5 l1,30" fill="none" stroke="#000000" stroke-width="2" /><path d="M49,42.5 c-4.25,-6.633 -10.568,-15.183 -16,-21.5" fill="none" stroke="#000000" stroke-width="2" /></svg>