<?xml version='1.0' encoding='utf-8'?>
<svg xmlns="http://www.w3.org/2000/svg" height="100px" version="1.0" viewBox="0 0 100 100" width="100px" x="0px" y="0px">
<line fill="none" stroke="#000000" stroke-width="2" x1="22.5" x2="22.5" y1="82.5" y2="12.5" /><line fill="none" stroke="#000000" stroke-width="2" x1="9" x2="36" y1="46" y2="46" /><line fill="none" stroke="#000000" stroke-width="2" x1="50" x2="88" y1="86" y2="86" /><line fill="none" stroke="#000000" stroke-width="2" x1="56" x2="91" y1="15" y2="15" /><polyline fill="none" points="9,83.5 37,83.5 37,11.5 8,11.5 8,91.5" stroke="#000000" stroke-width="2" /><polyline fill="none" points="49,93 49,56 89,56 89,93" stroke="#000000" stroke-width="2" /><path d="M41,32 c9.117,-8.159 15.92,-17.007 21,-27" fill="none" stroke="#000000" stroke-width="2" /><path d="M90.119,15.526 c-9.625,17.877 -25.498,31 -50.619,39.974" fill="none" stroke="#000000" stroke-width="2" /><path d="M52.5,20 c10.86,14.728 25.215,26.347 44,35.5" fill="none" stroke="#000000" stroke-width="2" /></svg>