<?xml version='1.0' encoding='utf-8'?>
<svg xmlns="http://www.w3.org/2000/svg" height="100px" version="1.0" viewBox="0 0 100 100" width="100px" x="0px" y="0px">
<line fill="none" stroke="#000000" stroke-width="2" x1="72.5" x2="92" y1="62.5" y2="62.5" /><line fill="none" stroke="#000000" stroke-width="2" x1="72.5" x2="72.5" y1="88" y2="40" /><line fill="none" stroke="#000000" stroke-width="2" x1="94" x2="48" y1="40" y2="40" /><line fill="none" stroke="#000000" stroke-width="2" x1="50.5" x2="93.5" y1="11" y2="11" /><line fill="none" stroke="#000000" stroke-width="2" x1="47" x2="15" y1="46.5" y2="46.5" /><line fill="none" stroke="#000000" stroke-width="2" x1="49" x2="6" y1="64" y2="64" /><path d="M46.5,92.5 c5.916,-9.314 9.91,-26.154 10,-46" fill="none" stroke="#000000" stroke-width="2" /><path d="M95.5,90.5 h-5.5 c-20.616,0 -29.355,-5.883 -35,-24.5" fill="none" stroke="#000000" stroke-width="2" /><path d="M58.5,18.5 c6.58,6.156 13.596,13.549 20.5,21.5" fill="none" stroke="#000000" stroke-width="2" /><path d="M92.715,11.38 c-5.359,6.804 -12.573,14.048 -20.715,20.62" fill="none" stroke="#000000" stroke-width="2" /><path d="M93.08,40.61 c-2.242,5.296 -4.879,9.85 -8.08,13.89" fill="none" stroke="#000000" stroke-width="2" /><path d="M11,7.5 v24.5 c0,3.88 0.125,4 15,4 c18.194,0 18.409,-0.153 20,-14" fill="none" stroke="#000000" stroke-width="2" /><path d="M11,20.5 c11.844,-2.057 22.086,-4.798 34,-9" fill="none" stroke="#000000" stroke-width="2" /><path d="M7,60 c4.751,-5.814 8.615,-13.101 11,-21" fill="none" stroke="#000000" stroke-width="2" /><path d="M6.5,92.5 c12.926,-5.605 21.5,-17.442 21.5,-30 v-16.0" fill="none" stroke="#000000" stroke-width="2" /><path d="M45,85.5 c-5.285,-6.032 -11.334,-12.424 -17.5,-18.5" fill="none" stroke="#000000" stroke-width="2" /></svg>