<?xml version='1.0' encoding='utf-8'?>
<svg xmlns="http://www.w3.org/2000/svg" height="100px" version="1.0" viewBox="0 0 100 100" width="100px" x="0px" y="0px">
<line fill="none" stroke="#000000" stroke-width="2" x1="56.5" x2="56.5" y1="12.5" y2="3" /><line fill="none" stroke="#000000" stroke-width="2" x1="31.5" x2="88.5" y1="70" y2="70" /><line fill="none" stroke="#000000" stroke-width="2" x1="31.5" x2="88.5" y1="53.5" y2="53.5" /><line fill="none" stroke="#000000" stroke-width="2" x1="28.5" x2="88" y1="23" y2="23" /><line fill="none" stroke="#000000" stroke-width="2" x1="60" x2="60" y1="39" y2="91" /><path d="M7,91 c8.727,-9.241 12.5,-20.743 12.5,-47 v-30.5 h75.0" fill="none" stroke="#000000" stroke-width="2" /><path d="M2.5,67 c6.793,-3.015 12.445,-6.519 16.5,-10" fill="none" stroke="#000000" stroke-width="2" /><path d="M15.5,41 c-2.875,-5.722 -6.672,-12.311 -11,-19" fill="none" stroke="#000000" stroke-width="2" /><path d="M30.5,92 v-54.0 h59.0 v45.0 c0,6.833 -0.619,7.5 -6,7.5 c-1.959,0 -5.691,-0.138 -11.5,-0.5" fill="none" stroke="#000000" stroke-width="2" /><path d="M42.5,28 c5.938,3.012 12.041,6.298 18.5,10" fill="none" stroke="#000000" stroke-width="2" /><path d="M87.4,23.199 c-4.773,3.572 -16.765,10.108 -26.9,14.301" fill="none" stroke="#000000" stroke-width="2" /></svg>