<?xml version='1.0' encoding='utf-8'?>
<svg xmlns="http://www.w3.org/2000/svg" height="100px" version="1.0" viewBox="0 0 100 100" width="100px" x="0px" y="0px">
<line fill="none" stroke="#000000" stroke-width="2" x1="39" x2="39" y1="63.5" y2="89" /><line fill="none" stroke="#000000" stroke-width="2" x1="61" x2="61" y1="63.5" y2="89" /><line fill="none" stroke="#000000" stroke-width="2" x1="6" x2="94" y1="90" y2="90" /><polyline fill="none" points="83,89 83,62.5 17,62.5 17,89" stroke="#000000" stroke-width="2" /><path d="M83.5,21 c-8.854,16.048 -22.018,27.578 -40,35" fill="none" stroke="#000000" stroke-width="2" /><path d="M54.5,4 c0,35.763 26.559,54 31,54 c2.407,0 5.804,-1.932 8,-17" fill="none" stroke="#000000" stroke-width="2" /><path d="M64.5,4 c6.063,1.719 12.305,3.808 18,6" fill="none" stroke="#000000" stroke-width="2" /><path d="M5.5,63 c5.746,-9.567 8,-18.765 8,-33.5 V14.0 h77.0" fill="none" stroke="#000000" stroke-width="2" /><path d="M13.5,25 h30.0 c0,24.437 -0.099,24.5 -10,24.5 c-1.999,0 -8.572,-0.4 -15,-1" fill="none" stroke="#000000" stroke-width="2" /></svg>