<?xml version='1.0' encoding='utf-8'?>
<svg xmlns="http://www.w3.org/2000/svg" height="100px" version="1.0" viewBox="0 0 100 100" width="100px" x="0px" y="0px">
<line fill="none" stroke="#000000" stroke-width="2" x1="12.5" x2="39" y1="29" y2="29" /><line fill="none" stroke="#000000" stroke-width="2" x1="51.5" x2="87.5" y1="40" y2="40" /><line fill="none" stroke="#000000" stroke-width="2" x1="54.5" x2="87.5" y1="25" y2="25" /><line fill="none" stroke="#000000" stroke-width="2" x1="39" x2="39" y1="63.5" y2="89" /><line fill="none" stroke="#000000" stroke-width="2" x1="61" x2="61" y1="63.5" y2="89" /><line fill="none" stroke="#000000" stroke-width="2" x1="6" x2="94" y1="90" y2="90" /><polyline fill="none" points="12.5,48.5 40,48.5 40,11.5 11.5,11.5 11.5,56.5" stroke="#000000" stroke-width="2" /><polyline fill="none" points="83,89 83,62.5 17,62.5 17,89" stroke="#000000" stroke-width="2" /><path d="M37.5,56.5 c10.451,-6.287 16,-15.774 16,-29 v-17.0 h35.0 v40.5 c0,4.306 -0.266,4.5 -6,4.5 c-2.166,0 -6.576,-0.155 -13,-0.5" fill="none" stroke="#000000" stroke-width="2" /></svg>