<?xml version='1.0' encoding='utf-8'?>
<svg xmlns="http://www.w3.org/2000/svg" height="100px" version="1.0" viewBox="0 0 100 100" width="100px" x="0px" y="0px">
<line fill="none" stroke="#000000" stroke-width="2" x1="30.5" x2="30.5" y1="11.5" y2="23" /><line fill="none" stroke="#000000" stroke-width="2" x1="30.5" x2="30.5" y1="38.5" y2="50.5" /><line fill="none" stroke="#000000" stroke-width="2" x1="12.5" x2="51" y1="51.5" y2="51.5" /><line fill="none" stroke="#000000" stroke-width="2" x1="39" x2="39" y1="64.5" y2="89" /><line fill="none" stroke="#000000" stroke-width="2" x1="61" x2="61" y1="64.5" y2="89" /><line fill="none" stroke="#000000" stroke-width="2" x1="6" x2="94" y1="90" y2="90" /><line fill="none" stroke="#000000" stroke-width="2" x1="93" x2="59.5" y1="18" y2="18" /><line fill="none" stroke="#000000" stroke-width="2" x1="90" x2="56.5" y1="42" y2="42" /><polyline fill="none" points="50,10.5 11.5,10.5 11.5,58.5" stroke="#000000" stroke-width="2" /><polyline fill="none" points="12.5,37.5 46,37.5 46,24 12.5,24" stroke="#000000" stroke-width="2" /><polyline fill="none" points="83,89 83,63.5 17,63.5 17,89" stroke="#000000" stroke-width="2" /><path d="M50,34 c6.023,-7.536 11.117,-17.632 14,-28" fill="none" stroke="#000000" stroke-width="2" /></svg>