<?xml version='1.0' encoding='utf-8'?>
<svg xmlns="http://www.w3.org/2000/svg" height="100px" version="1.0" viewBox="0 0 100 100" width="100px" x="0px" y="0px">
<line fill="none" stroke="#000000" stroke-width="2" x1="39" x2="6" y1="11" y2="11" /><polyline fill="none" points="15,81 35,81 35,42.5 14,42.5 14,91" stroke="#000000" stroke-width="2" /><path d="M3,63 c8.673,-11.171 14.006,-26.27 16.5,-52" fill="none" stroke="#000000" stroke-width="2" /><path d="M97,51 c-3.492,-11.877 -7.934,-24.076 -13,-35.5" fill="none" stroke="#000000" stroke-width="2" /><path d="M69.16,6 v46.0 c0,7.429 -0.467,8 -5.66,8 c-1.541,0 -4.982,-0.14 -10.5,-0.5" fill="none" stroke="#000000" stroke-width="2" /><path d="M39,50.5 c5.146,-9.558 9.494,-22.027 12,-35" fill="none" stroke="#000000" stroke-width="2" /><path d="M90,47.5 c-7.334,22.907 -26.938,39.954 -54,45" fill="none" stroke="#000000" stroke-width="2" /></svg>