<?xml version='1.0' encoding='utf-8'?>
<svg xmlns="http://www.w3.org/2000/svg" height="100px" version="1.0" viewBox="0 0 100 100" width="100px" x="0px" y="0px">
<line fill="none" stroke="#000000" stroke-width="2" x1="42.5" x2="90.5" y1="39" y2="39" /><line fill="none" stroke="#000000" stroke-width="2" x1="67" x2="67" y1="39" y2="5" /><line fill="none" stroke="#000000" stroke-width="2" x1="38" x2="6" y1="11" y2="11" /><polyline fill="none" points="15,81 34,81 34,42.5 14,42.5 14,91" stroke="#000000" stroke-width="2" /><path d="M86.5,33 c3.389,-4.989 5.912,-10.032 8.056,-16.323" fill="none" stroke="#000000" stroke-width="2" /><path d="M41,91 c20.598,-6.521 37.563,-23.583 48.571,-51.368" fill="none" stroke="#000000" stroke-width="2" /><path d="M96,91 c-20.494,-6.802 -35.765,-21.919 -45,-47" fill="none" stroke="#000000" stroke-width="2" /><path d="M33,91.5 c6.433,-13.929 9.5,-29.671 9.5,-51 V16.0 h53.0" fill="none" stroke="#000000" stroke-width="2" /><path d="M3,63 c8.673,-11.171 14.006,-26.27 16.5,-52" fill="none" stroke="#000000" stroke-width="2" /></svg>