<?xml version='1.0' encoding='utf-8'?>
<svg xmlns="http://www.w3.org/2000/svg" height="100px" version="1.0" viewBox="0 0 100 100" width="100px" x="0px" y="0px">
<line fill="none" stroke="#000000" stroke-width="2" x1="43.5" x2="43.5" y1="20.5" y2="94" /><line fill="none" stroke="#000000" stroke-width="2" x1="92.5" x2="44" y1="20" y2="20" /><line fill="none" stroke="#000000" stroke-width="2" x1="69.5" x2="69.5" y1="87" y2="20" /><line fill="none" stroke="#000000" stroke-width="2" x1="44.5" x2="94.5" y1="87" y2="87" /><line fill="none" stroke="#000000" stroke-width="2" x1="43.5" x2="90.5" y1="64" y2="64" /><line fill="none" stroke="#000000" stroke-width="2" x1="43.5" x2="90.5" y1="41.5" y2="41.5" /><line fill="none" stroke="#000000" stroke-width="2" x1="38" x2="6" y1="11" y2="11" /><polyline fill="none" points="15,81 34,81 34,42.5 14,42.5 14,91" stroke="#000000" stroke-width="2" /><path d="M77,4 c-2.172,5.901 -4.801,11.103 -8,16" fill="none" stroke="#000000" stroke-width="2" /><path d="M31.5,38 c8.036,-9.095 13.931,-20.007 18,-34" fill="none" stroke="#000000" stroke-width="2" /><path d="M3,63 c8.673,-11.171 14.006,-26.27 16.5,-52" fill="none" stroke="#000000" stroke-width="2" /></svg>