<?xml version='1.0' encoding='utf-8'?>
<svg xmlns="http://www.w3.org/2000/svg" height="100px" version="1.0" viewBox="0 0 100 100" width="100px" x="0px" y="0px">
<line fill="none" stroke="#000000" stroke-width="2" x1="39.5" x2="96" y1="10.5" y2="10.5" /><line fill="none" stroke="#000000" stroke-width="2" x1="44.5" x2="90" y1="57" y2="57" /><line fill="none" stroke="#000000" stroke-width="2" x1="44.5" x2="90" y1="41" y2="41" /><line fill="none" stroke="#000000" stroke-width="2" x1="36.5" x2="5.5" y1="11" y2="11" /><polyline fill="none" points="44.5,73.5 91,73.5 91,25.5 43.5,25.5 43.5,74.5" stroke="#000000" stroke-width="2" /><polyline fill="none" points="14.5,81 34.5,81 34.5,42.5 13.5,42.5 13.5,91" stroke="#000000" stroke-width="2" /><path d="M33.5,92.5 c10.537,-3.835 19.639,-9.067 25,-14" fill="none" stroke="#000000" stroke-width="2" /><path d="M95.5,93 c-6.459,-4.882 -15.296,-10.108 -25,-14.5" fill="none" stroke="#000000" stroke-width="2" /><path d="M66.5,10.5 c-0.98,5.553 -2.142,10.448 -3.5,15" fill="none" stroke="#000000" stroke-width="2" /><path d="M2.5,63 c8.673,-11.171 14.006,-26.27 16.5,-52" fill="none" stroke="#000000" stroke-width="2" /></svg>