<?xml version='1.0' encoding='utf-8'?>
<svg xmlns="http://www.w3.org/2000/svg" height="100px" version="1.0" viewBox="0 0 100 100" width="100px" x="0px" y="0px">
<line fill="none" stroke="#000000" stroke-width="2" x1="33" x2="5.5" y1="11" y2="11" /><line fill="none" stroke="#000000" stroke-width="2" x1="31.5" x2="95.5" y1="18.5" y2="18.5" /><line fill="none" stroke="#000000" stroke-width="2" x1="94.5" x2="66" y1="85.5" y2="89" /><line fill="none" stroke="#000000" stroke-width="2" x1="65" x2="30.5" y1="85.5" y2="89.5" /><polyline fill="none" points="14.5,83 32,83 32,42.5 13.5,42.5 13.5,93" stroke="#000000" stroke-width="2" /><path d="M2.5,63 c8.673,-11.171 14.006,-26.27 16.5,-52" fill="none" stroke="#000000" stroke-width="2" /><path d="M54.5,18.5 c-2.23,-4.979 -4.661,-9.85 -7,-14" fill="none" stroke="#000000" stroke-width="2" /><path d="M71.5,18.5 c2.644,-4.613 5.159,-9.644 7,-14" fill="none" stroke="#000000" stroke-width="2" /><path d="M79.5,66.5 c-4.707,-8.446 -10.287,-17.97 -15.5,-26.5" fill="none" stroke="#000000" stroke-width="2" /><path d="M96.5,93.5 c-2.358,-10.005 -5.925,-23.115 -9,-33" fill="none" stroke="#000000" stroke-width="2" /><path d="M69.5,88.5 c8.412,-17.369 15.848,-35.305 22.5,-54.5" fill="none" stroke="#000000" stroke-width="2" /><path d="M69,48 c4.154,-8.951 7.727,-17.894 11,-27.5" fill="none" stroke="#000000" stroke-width="2" /><path d="M50,66.5 c-4.707,-8.446 -10.287,-17.97 -15.5,-26.5" fill="none" stroke="#000000" stroke-width="2" /><path d="M67,93.5 c-2.358,-10.005 -5.925,-23.115 -9,-33" fill="none" stroke="#000000" stroke-width="2" /><path d="M40,88.5 c8.412,-17.369 15.848,-35.305 22.5,-54.5" fill="none" stroke="#000000" stroke-width="2" /><path d="M39.5,48 c4.154,-8.951 7.727,-17.894 11,-27.5" fill="none" stroke="#000000" stroke-width="2" /></svg>