<?xml version='1.0' encoding='utf-8'?>
<svg xmlns="http://www.w3.org/2000/svg" height="100px" version="1.0" viewBox="0 0 100 100" width="100px" x="0px" y="0px">
<line fill="none" stroke="#000000" stroke-width="2" x1="33.5" x2="96" y1="34.5" y2="34.5" /><line fill="none" stroke="#000000" stroke-width="2" x1="94" x2="36.5" y1="13.5" y2="13.5" /><line fill="none" stroke="#000000" stroke-width="2" x1="91" x2="38.5" y1="24" y2="24" /><line fill="none" stroke="#000000" stroke-width="2" x1="65.5" x2="65.5" y1="34.5" y2="5" /><line fill="none" stroke="#000000" stroke-width="2" x1="41" x2="89" y1="64.5" y2="64.5" /><line fill="none" stroke="#000000" stroke-width="2" x1="41" x2="89" y1="53.5" y2="53.5" /><line fill="none" stroke="#000000" stroke-width="2" x1="33.5" x2="6" y1="11" y2="11" /><polyline fill="none" points="41,75.5 90,75.5 90,42.5 40,42.5 40,76.5" stroke="#000000" stroke-width="2" /><polyline fill="none" points="15,81 32.5,81 32.5,42.5 14,42.5 14,91" stroke="#000000" stroke-width="2" /><path d="M33,92.5 c10.127,-3.419 18.866,-8.096 24,-12.5" fill="none" stroke="#000000" stroke-width="2" /><path d="M96,93 c-6.18,-4.208 -14.703,-8.728 -24,-12.5" fill="none" stroke="#000000" stroke-width="2" /><path d="M3,63 c8.673,-11.171 14.006,-26.27 16.5,-52" fill="none" stroke="#000000" stroke-width="2" /></svg>