<?xml version='1.0' encoding='utf-8'?>
<svg xmlns="http://www.w3.org/2000/svg" height="100px" version="1.0" viewBox="0 0 100 100" width="100px" x="0px" y="0px">
<line fill="none" stroke="#000000" stroke-width="2" x1="50" x2="50" y1="74.5" y2="12.5" /><line fill="none" stroke="#000000" stroke-width="2" x1="81.5" x2="18.5" y1="45.5" y2="45.5" /><polyline fill="none" points="17.5,46.5 17.5,24 82.5,24 82.5,46.5" stroke="#000000" stroke-width="2" /><path d="M12.5,14 c26.042,0 51.113,-2.147 75,-6" fill="none" stroke="#000000" stroke-width="2" /><path d="M69,90 c7.004,0.363 11.129,0.5 13,0.5 c6.354,0 7,-0.673 7,-8 V55.0 h-78.0 v37.0" fill="none" stroke="#000000" stroke-width="2" /><path d="M82.5,80.5 c-4.109,-6.212 -9.74,-14.17 -14.5,-20.5" fill="none" stroke="#000000" stroke-width="2" /><path d="M18.5,77.5 c18.109,-0.872 38.354,-3.542 57,-7.5" fill="none" stroke="#000000" stroke-width="2" /></svg>