<?xml version='1.0' encoding='utf-8'?>
<svg xmlns="http://www.w3.org/2000/svg" height="100px" version="1.0" viewBox="0 0 100 100" width="100px" x="0px" y="0px">
<line fill="none" stroke="#000000" stroke-width="2" x1="26.5" x2="26.5" y1="94" y2="11.5" /><line fill="none" stroke="#000000" stroke-width="2" x1="48.5" x2="4.5" y1="36" y2="36" /><path d="M96.5,92.5 c-4.625,-14.111 -11.615,-32.017 -18,-46" fill="none" stroke="#000000" stroke-width="2" /><path d="M35,88.5 c17.429,-1.083 36.499,-4.057 57,-9" fill="none" stroke="#000000" stroke-width="2" /><path d="M67.5,7 c-6.787,28.478 -15.865,57.649 -25,81" fill="none" stroke="#000000" stroke-width="2" /><path d="M4,75.5 c10.387,-12.987 17.179,-25.655 21.5,-40" fill="none" stroke="#000000" stroke-width="2" /><path d="M47,8 c-14.071,2.732 -26.989,4.682 -40.5,6" fill="none" stroke="#000000" stroke-width="2" /><path d="M43.5,67 c-5.117,-9.663 -11.016,-20.56 -16.5,-30.5" fill="none" stroke="#000000" stroke-width="2" /></svg>