<?xml version='1.0' encoding='utf-8'?>
<svg xmlns="http://www.w3.org/2000/svg" height="100px" version="1.0" viewBox="0 0 100 100" width="100px" x="0px" y="0px">
<line fill="none" stroke="#000000" stroke-width="2" x1="20" x2="20" y1="94" y2="11.5" /><line fill="none" stroke="#000000" stroke-width="2" x1="34.5" x2="5" y1="33" y2="33" /><path d="M32,75.5 c4.75,-11.062 8.307,-25.31 10,-40" fill="none" stroke="#000000" stroke-width="2" /><path d="M96,75.5 c-2.031,-13.46 -4.783,-27.244 -8,-40" fill="none" stroke="#000000" stroke-width="2" /><path d="M46,7.5 c10.36,3.007 18.191,6.503 27,12" fill="none" stroke="#000000" stroke-width="2" /><path d="M89,11.5 c-12.568,34.561 -34.322,62.032 -61.5,79" fill="none" stroke="#000000" stroke-width="2" /><path d="M34,8 c-9.688,2.732 -18.697,4.682 -28,6" fill="none" stroke="#000000" stroke-width="2" /><path d="M4,72.5 c7.473,-13.023 12.377,-25.655 15.5,-40" fill="none" stroke="#000000" stroke-width="2" /><path d="M32,60 c-3.638,-8.381 -7.621,-17.356 -11.5,-26" fill="none" stroke="#000000" stroke-width="2" /><path d="M51.5,20.5 v62.5 c0,7.206 1.039,8 15.5,8 c18.717,0 19.121,-0.395 20,-26.5" fill="none" stroke="#000000" stroke-width="2" /></svg>