<?xml version='1.0' encoding='utf-8'?>
<svg xmlns="http://www.w3.org/2000/svg" height="100px" version="1.0" viewBox="0 0 100 100" width="100px" x="0px" y="0px">
<line fill="none" stroke="#000000" stroke-width="2" x1="67.5" x2="67.5" y1="95" y2="12" /><line fill="none" stroke="#000000" stroke-width="2" x1="96" x2="36" y1="56.5" y2="56.5" /><line fill="none" stroke="#000000" stroke-width="2" x1="94" x2="38" y1="11" y2="11" /><line fill="none" stroke="#000000" stroke-width="2" x1="21" x2="21" y1="94" y2="11.5" /><line fill="none" stroke="#000000" stroke-width="2" x1="36" x2="5" y1="33" y2="33" /><path d="M55.5,46 c-4.301,-9.246 -8.982,-18.298 -13.5,-26" fill="none" stroke="#000000" stroke-width="2" /><path d="M78.5,46 c5.455,-8.229 10.328,-17.681 13.5,-26" fill="none" stroke="#000000" stroke-width="2" /><path d="M36,8 c-10.381,2.732 -20.033,4.682 -30,6" fill="none" stroke="#000000" stroke-width="2" /><path d="M4,72.5 c7.954,-13.023 13.176,-25.655 16.5,-40" fill="none" stroke="#000000" stroke-width="2" /><path d="M34,60 c-3.954,-8.381 -8.283,-17.356 -12.5,-26" fill="none" stroke="#000000" stroke-width="2" /></svg>