<?xml version='1.0' encoding='utf-8'?>
<svg xmlns="http://www.w3.org/2000/svg" height="100px" version="1.0" viewBox="0 0 100 100" width="100px" x="0px" y="0px">
<line fill="none" stroke="#000000" stroke-width="2" x1="96" x2="32" y1="89" y2="89" /><line fill="none" stroke="#000000" stroke-width="2" x1="94" x2="36" y1="50.5" y2="50.5" /><line fill="none" stroke="#000000" stroke-width="2" x1="91.5" x2="38.5" y1="69" y2="69" /><line fill="none" stroke="#000000" stroke-width="2" x1="65" x2="65" y1="88" y2="51.5" /><line fill="none" stroke="#000000" stroke-width="2" x1="21" x2="21" y1="94" y2="11.5" /><line fill="none" stroke="#000000" stroke-width="2" x1="36" x2="5" y1="33" y2="33" /><polyline fill="none" points="41.5,39 89.5,39 89.5,11 40.5,11 40.5,40" stroke="#000000" stroke-width="2" /><path d="M36,8 c-10.381,2.732 -20.033,4.682 -30,6" fill="none" stroke="#000000" stroke-width="2" /><path d="M4,72.5 c7.954,-13.023 13.176,-25.655 16.5,-40" fill="none" stroke="#000000" stroke-width="2" /><path d="M36.5,60 c-4.745,-8.381 -9.939,-17.356 -15,-26" fill="none" stroke="#000000" stroke-width="2" /></svg>