<?xml version='1.0' encoding='utf-8'?>
<svg xmlns="http://www.w3.org/2000/svg" height="100px" version="1.0" viewBox="0 0 100 100" width="100px" x="0px" y="0px">
<line fill="none" stroke="#000000" stroke-width="2" x1="23" x2="23" y1="94" y2="11.5" /><line fill="none" stroke="#000000" stroke-width="2" x1="40" x2="5" y1="33" y2="33" /><polyline fill="none" points="45,51 90,51 90,22.5 44,22.5 44,52" stroke="#000000" stroke-width="2" /><path d="M74,52 v32.0 c0,6.122 0.437,6.5 10,6.5 c10.381,0 10.557,-0.179 11,-25" fill="none" stroke="#000000" stroke-width="2" /><path d="M32,92 c17.989,-7.011 27,-20.062 27,-41" fill="none" stroke="#000000" stroke-width="2" /><path d="M73.5,22.5 c4.363,-4.816 8.061,-10.397 11,-16.5" fill="none" stroke="#000000" stroke-width="2" /><path d="M58,22.5 c-2.428,-5.434 -5.215,-10.693 -8.5,-16" fill="none" stroke="#000000" stroke-width="2" /><path d="M40,8 c-11.626,2.732 -22.837,4.682 -34,6" fill="none" stroke="#000000" stroke-width="2" /><path d="M4,72.5 c8.909,-13.023 14.701,-25.675 18.5,-40" fill="none" stroke="#000000" stroke-width="2" /><path d="M38,63 c-4.429,-9.387 -9.489,-19.466 -14.5,-29" fill="none" stroke="#000000" stroke-width="2" /></svg>