<?xml version='1.0' encoding='utf-8'?>
<svg xmlns="http://www.w3.org/2000/svg" height="100px" version="1.0" viewBox="0 0 100 100" width="100px" x="0px" y="0px">
<line fill="none" stroke="#000000" stroke-width="2" x1="43" x2="43" y1="20.5" y2="94" /><line fill="none" stroke="#000000" stroke-width="2" x1="94" x2="43.5" y1="20" y2="20" /><line fill="none" stroke="#000000" stroke-width="2" x1="70" x2="70" y1="87" y2="20" /><line fill="none" stroke="#000000" stroke-width="2" x1="44" x2="96" y1="87" y2="87" /><line fill="none" stroke="#000000" stroke-width="2" x1="43" x2="92" y1="64" y2="64" /><line fill="none" stroke="#000000" stroke-width="2" x1="43" x2="92" y1="41.5" y2="41.5" /><line fill="none" stroke="#000000" stroke-width="2" x1="21" x2="21" y1="94" y2="11.5" /><line fill="none" stroke="#000000" stroke-width="2" x1="35.5" x2="5" y1="33" y2="33" /><path d="M77.5,4 c-2.172,5.901 -4.801,11.103 -8,16" fill="none" stroke="#000000" stroke-width="2" /><path d="M30,40 c8.602,-9.49 14.809,-20.97 19,-36" fill="none" stroke="#000000" stroke-width="2" /><path d="M36,8 c-10.381,2.732 -20.033,4.682 -30,6" fill="none" stroke="#000000" stroke-width="2" /><path d="M4,72.5 c7.954,-13.023 13.176,-25.655 16.5,-40" fill="none" stroke="#000000" stroke-width="2" /><path d="M36.5,60 c-4.745,-8.381 -9.939,-17.356 -15,-26" fill="none" stroke="#000000" stroke-width="2" /></svg>