<?xml version='1.0' encoding='utf-8'?>
<svg xmlns="http://www.w3.org/2000/svg" height="100px" version="1.0" viewBox="0 0 100 100" width="100px" x="0px" y="0px">
<line fill="none" stroke="#000000" stroke-width="2" x1="53.5" x2="91.5" y1="48" y2="48" /><line fill="none" stroke="#000000" stroke-width="2" x1="28" x2="28" y1="94" y2="49.5" /><line fill="none" stroke="#000000" stroke-width="2" x1="50.5" x2="5.5" y1="62.5" y2="62.5" /><line fill="none" stroke="#000000" stroke-width="2" x1="7.5" x2="48.5" y1="30.5" y2="30.5" /><line fill="none" stroke="#000000" stroke-width="2" x1="51" x2="5" y1="16" y2="16" /><line fill="none" stroke="#000000" stroke-width="2" x1="28" x2="28" y1="30.5" y2="6" /><polyline fill="none" points="49,52 49,40 6.5,40 6.5,52" stroke="#000000" stroke-width="2" /><path d="M53,42.5 c5.412,-5.153 8,-12.41 8,-26 v-6.5 h22.5 v26.5 c0,2.521 0.612,3 4.5,3 c7.141,0 7.572,-0.359 8,-13.5" fill="none" stroke="#000000" stroke-width="2" /><path d="M48,91 c21.956,-9.284 34.51,-21.875 42.568,-42.367" fill="none" stroke="#000000" stroke-width="2" /><path d="M95.5,91 c-15.119,-8.014 -28.799,-21.82 -37,-37.5" fill="none" stroke="#000000" stroke-width="2" /><path d="M4.5,86.5 c10.941,-7.827 17.92,-15.394 22.5,-24" fill="none" stroke="#000000" stroke-width="2" /><path d="M45,46 c-12.141,2.732 -23.344,4.683 -35,6" fill="none" stroke="#000000" stroke-width="2" /><path d="M51,81.5 c-6.914,-5.875 -14.994,-12.512 -22.5,-18.5" fill="none" stroke="#000000" stroke-width="2" /></svg>