<?xml version='1.0' encoding='utf-8'?>
<svg xmlns="http://www.w3.org/2000/svg" height="100px" version="1.0" viewBox="0 0 100 100" width="100px" x="0px" y="0px">
<line fill="none" stroke="#000000" stroke-width="2" x1="36.5" x2="90" y1="48.5" y2="48.5" /><line fill="none" stroke="#000000" stroke-width="2" x1="19.5" x2="19.5" y1="94" y2="11.5" /><line fill="none" stroke="#000000" stroke-width="2" x1="31.5" x2="4.5" y1="33" y2="33" /><polyline fill="none" points="33.5,63.5 91,63.5 91,34.5 33.5,34.5" stroke="#000000" stroke-width="2" /><path d="M33.5,14 c20.68,0 40.53,-1.901 59,-5.5" fill="none" stroke="#000000" stroke-width="2" /><path d="M43.5,31 c-2.021,-4.866 -4.256,-9.521 -6.5,-13.5" fill="none" stroke="#000000" stroke-width="2" /><path d="M64.5,31 c-2.013,-5.231 -4.258,-10.226 -6.5,-14.5" fill="none" stroke="#000000" stroke-width="2" /><path d="M79,34.5 c3.528,-6.766 6.46,-13.88 8.5,-20.5" fill="none" stroke="#000000" stroke-width="2" /><path d="M43.5,70 v12.0 c0,8.844 0.293,9.153 6,9.601 c3.113,0.242 7.198,0.399 11,0.399 c3.732,0 7.678,-0.138 11,-0.399 c9.469,-0.753 9.703,-0.93 11,-13.601" fill="none" stroke="#000000" stroke-width="2" /><path d="M23.5,90.5 c5.058,-5.263 9.24,-11.75 12,-18.5" fill="none" stroke="#000000" stroke-width="2" /><path d="M97,90.5 c-3.486,-6.149 -7.973,-12.565 -13,-18.5" fill="none" stroke="#000000" stroke-width="2" /><path d="M70.5,81 c-5.09,-4.073 -11.27,-8.354 -17.5,-12" fill="none" stroke="#000000" stroke-width="2" /><path d="M33.5,8 c-9.688,2.732 -18.697,4.682 -28,6" fill="none" stroke="#000000" stroke-width="2" /><path d="M3.5,72.5 c7.473,-13.023 12.377,-25.655 15.5,-40" fill="none" stroke="#000000" stroke-width="2" /><path d="M31.5,60 c-3.638,-8.381 -7.621,-17.356 -11.5,-26" fill="none" stroke="#000000" stroke-width="2" /></svg>