<?xml version='1.0' encoding='utf-8'?>
<svg xmlns="http://www.w3.org/2000/svg" height="100px" version="1.0" viewBox="0 0 100 100" width="100px" x="0px" y="0px">
<line fill="none" stroke="#000000" stroke-width="2" x1="50" x2="50" y1="14" y2="3" /><polyline fill="none" points="89.5,30 89.5,14 10.5,14 10.5,30" stroke="#000000" stroke-width="2" /><path d="M56.5,14 v18.38 c0,3.319 0.416,3.62 12,3.62 c13.594,0 13.783,-0.138 15.5,-13.5" fill="none" stroke="#000000" stroke-width="2" /><path d="M12,40 c19.094,-4.975 29.202,-14.595 30,-26" fill="none" stroke="#000000" stroke-width="2" /><path d="M32.5,65 v17.0 c0,8.591 0.26,8.894 7,9.5 c3.613,0.324 8.079,0.5 12.5,0.5 c4.34,0 8.642,-0.174 12.5,-0.5 c11.141,-0.942 11.316,-1.116 13,-15" fill="none" stroke="#000000" stroke-width="2" /><path d="M5.5,89 c6.029,-6.118 11.077,-14.217 14,-22.5" fill="none" stroke="#000000" stroke-width="2" /><path d="M94.5,89.5 c-4.006,-7.985 -9.168,-16.313 -15,-24" fill="none" stroke="#000000" stroke-width="2" /><path d="M62,79.5 c-4.591,-5.048 -9.98,-10.118 -16,-15" fill="none" stroke="#000000" stroke-width="2" /><path d="M88,62.5 c-6.41,-6.833 -15.691,-15.396 -24,-22" fill="none" stroke="#000000" stroke-width="2" /><path d="M12,58 c19.998,-0.428 45.17,-1.719 68,-3.5" fill="none" stroke="#000000" stroke-width="2" /><path d="M24.5,57.5 c6.466,-7.133 12.995,-15.94 18.5,-25" fill="none" stroke="#000000" stroke-width="2" /></svg>