<?xml version='1.0' encoding='utf-8'?>
<svg xmlns="http://www.w3.org/2000/svg" height="100px" version="1.0" viewBox="0 0 100 100" width="100px" x="0px" y="0px">
<line fill="none" stroke="#000000" stroke-width="2" x1="94" x2="58.5" y1="16" y2="16" /><line fill="none" stroke="#000000" stroke-width="2" x1="51" x2="18.5" y1="16" y2="16" /><line fill="none" stroke="#000000" stroke-width="2" x1="12.5" x2="39.5" y1="69.5" y2="69.5" /><line fill="none" stroke="#000000" stroke-width="2" x1="13.5" x2="39.5" y1="51.5" y2="51.5" /><path d="M34,31 c-1.833,-4.87 -3.895,-10.029 -6,-15" fill="none" stroke="#000000" stroke-width="2" /><path d="M75,31 c-1.833,-4.87 -3.895,-10.029 -6,-15" fill="none" stroke="#000000" stroke-width="2" /><path d="M23,5 c-2.729,9.845 -9.133,20.379 -17,28" fill="none" stroke="#000000" stroke-width="2" /><path d="M63,5 c-2.654,9.375 -9.12,19.735 -17,27" fill="none" stroke="#000000" stroke-width="2" /><path d="M44.5,92.5 c14.785,-11.754 21.5,-27.563 21.5,-62.5" fill="none" stroke="#000000" stroke-width="2" /><path d="M81,90.5 c-3.09,0 -9.013,-0.354 -15.5,-1" fill="none" stroke="#000000" stroke-width="2" /><path d="M46,45.5 h44.5 c0,40.735 -2.697,45 -9.5,45" fill="none" stroke="#000000" stroke-width="2" /><path d="M5.5,92.5 c4.826,-7.612 7,-16.198 7,-32.5 v-25.5 h28.0 v51.5 c0,5.271 -0.25,5.5 -5.5,5.5 c-2.021,0 -6.503,-0.155 -12.5,-0.5" fill="none" stroke="#000000" stroke-width="2" /></svg>