<?xml version='1.0' encoding='utf-8'?>
<svg xmlns="http://www.w3.org/2000/svg" height="100px" version="1.0" viewBox="0 0 100 100" width="100px" x="0px" y="0px">
<line fill="none" stroke="#000000" stroke-width="2" x1="26" x2="26" y1="38.5" y2="78.5" /><line fill="none" stroke="#000000" stroke-width="2" x1="45" x2="7.5" y1="38.5" y2="38.5" /><line fill="none" stroke="#000000" stroke-width="2" x1="94" x2="58" y1="15.5" y2="15.5" /><line fill="none" stroke="#000000" stroke-width="2" x1="51" x2="18.5" y1="15.5" y2="15.5" /><path d="M32,91.5 c13.604,-6.991 19.5,-18.185 19.5,-44.5 v-11.5 h30.0 V83.0 c0,6.755 0.245,7 6,7 c7.613,0 8.733,-1.212 9,-24" fill="none" stroke="#000000" stroke-width="2" /><path d="M6,83.5 c15.549,-3.218 29.663,-7.843 38,-12" fill="none" stroke="#000000" stroke-width="2" /><path d="M34,32.5 c-2.138,-5.52 -4.543,-11.366 -7,-17" fill="none" stroke="#000000" stroke-width="2" /><path d="M76,32.5 c-2.139,-5.52 -4.544,-11.366 -7,-17" fill="none" stroke="#000000" stroke-width="2" /><path d="M23,4.5 c-2.729,9.845 -9.133,20.379 -17,28" fill="none" stroke="#000000" stroke-width="2" /><path d="M66,4.5 c-3.717,7.438 -11.482,15.749 -21,22" fill="none" stroke="#000000" stroke-width="2" /><path d="M74.5,73 c-4.463,-8.851 -10.309,-18.39 -16,-26" fill="none" stroke="#000000" stroke-width="2" /></svg>