<?xml version='1.0' encoding='utf-8'?>
<svg xmlns="http://www.w3.org/2000/svg" height="100px" version="1.0" viewBox="0 0 100 100" width="100px" x="0px" y="0px">
<line fill="none" stroke="#000000" stroke-width="2" x1="50" x2="50" y1="94.5" y2="26.5" /><line fill="none" stroke="#000000" stroke-width="2" x1="6" x2="94" y1="35.5" y2="35.5" /><line fill="none" stroke="#000000" stroke-width="2" x1="94" x2="56" y1="14.5" y2="14.5" /><line fill="none" stroke="#000000" stroke-width="2" x1="50" x2="17.5" y1="14.5" y2="14.5" /><path d="M6,89 c21.291,-8.993 35.209,-18.232 44,-28" fill="none" stroke="#000000" stroke-width="2" /><path d="M94,89 c-21.291,-8.993 -35.209,-18.232 -44,-28" fill="none" stroke="#000000" stroke-width="2" /><path d="M65,66 c7,0.371 11.129,0.5 13,0.5 c4.354,0 5,-0.547 5,-6.5 v-14.0 h-66.0 v22.5" fill="none" stroke="#000000" stroke-width="2" /><path d="M34,30.5 c-1.833,-5.195 -3.895,-10.698 -6,-16" fill="none" stroke="#000000" stroke-width="2" /><path d="M74,30.5 c-1.833,-5.195 -3.895,-10.698 -6,-16" fill="none" stroke="#000000" stroke-width="2" /><path d="M23,4.5 c-3.148,7.932 -9.355,16.47 -17,23" fill="none" stroke="#000000" stroke-width="2" /><path d="M63,4.5 c-3.717,7.438 -11.482,15.749 -21,22" fill="none" stroke="#000000" stroke-width="2" /></svg>