<?xml version='1.0' encoding='utf-8'?>
<svg xmlns="http://www.w3.org/2000/svg" height="100px" version="1.0" viewBox="0 0 100 100" width="100px" x="0px" y="0px">
<line fill="none" stroke="#000000" stroke-width="2" x1="94" x2="56" y1="13" y2="13" /><line fill="none" stroke="#000000" stroke-width="2" x1="50" x2="17.5" y1="13" y2="13" /><line fill="none" stroke="#000000" stroke-width="2" x1="24" x2="24" y1="60" y2="93.5" /><line fill="none" stroke="#000000" stroke-width="2" x1="25" x2="83" y1="88.5" y2="88.5" /><line fill="none" stroke="#000000" stroke-width="2" x1="25" x2="83" y1="74" y2="74" /><line fill="none" stroke="#000000" stroke-width="2" x1="5" x2="95" y1="47.5" y2="47.5" /><line fill="none" stroke="#000000" stroke-width="2" x1="77" x2="14" y1="34.5" y2="34.5" /><line fill="none" stroke="#000000" stroke-width="2" x1="47" x2="47" y1="47.5" y2="25.5" /><polyline fill="none" points="84,93.5 84,60 24.5,60" stroke="#000000" stroke-width="2" /><path d="M34,28 c-1.833,-4.87 -3.895,-10.029 -6,-15" fill="none" stroke="#000000" stroke-width="2" /><path d="M75,28 c-1.833,-4.87 -3.895,-10.029 -6,-15" fill="none" stroke="#000000" stroke-width="2" /><path d="M23,3 c-3.148,7.932 -9.355,16.47 -17,23" fill="none" stroke="#000000" stroke-width="2" /><path d="M63,3 c-3.717,7.438 -11.482,15.749 -21,22" fill="none" stroke="#000000" stroke-width="2" /><path d="M5,65.5 c36.845,-9.503 66.113,-24.42 83,-40" fill="none" stroke="#000000" stroke-width="2" /></svg>