<?xml version='1.0' encoding='utf-8'?>
<svg xmlns="http://www.w3.org/2000/svg" height="100px" version="1.0" viewBox="0 0 100 100" width="100px" x="0px" y="0px">
<line fill="none" stroke="#000000" stroke-width="2" x1="25.5" x2="25.5" y1="29.5" y2="53.5" /><line fill="none" stroke="#000000" stroke-width="2" x1="44.5" x2="8" y1="29.5" y2="29.5" /><line fill="none" stroke="#000000" stroke-width="2" x1="50" x2="50" y1="94" y2="56" /><line fill="none" stroke="#000000" stroke-width="2" x1="93.5" x2="6.5" y1="66" y2="66" /><line fill="none" stroke="#000000" stroke-width="2" x1="94" x2="56" y1="13" y2="13" /><line fill="none" stroke="#000000" stroke-width="2" x1="50" x2="17.5" y1="13" y2="13" /><path d="M38.5,59 c8.857,-5.536 12.5,-12.183 12.5,-26 v-6.0 h30.0 v25.5 c0,4.761 0.245,5 6,5 c7.674,0 8.736,-1.004 9,-17.5" fill="none" stroke="#000000" stroke-width="2" /><path d="M6.5,58.5 c15.549,-3.218 29.663,-7.843 38,-12" fill="none" stroke="#000000" stroke-width="2" /><path d="M74,50 c-4.463,-5.106 -10.309,-10.609 -16,-15" fill="none" stroke="#000000" stroke-width="2" /><path d="M6,89.5 c20.602,-7.556 34.025,-15.1 43,-23" fill="none" stroke="#000000" stroke-width="2" /><path d="M94,89.5 c-20.602,-7.556 -34.025,-15.1 -43,-23" fill="none" stroke="#000000" stroke-width="2" /><path d="M34,29.5 c-1.833,-5.357 -3.895,-11.032 -6,-16.5" fill="none" stroke="#000000" stroke-width="2" /><path d="M73,27 c-1.501,-4.639 -3.165,-9.38 -5,-14" fill="none" stroke="#000000" stroke-width="2" /><path d="M23,3 c-3.148,7.932 -9.355,16.47 -17,23" fill="none" stroke="#000000" stroke-width="2" /><path d="M63,3 c-3.717,7.438 -11.482,15.749 -21,22" fill="none" stroke="#000000" stroke-width="2" /></svg>