<?xml version='1.0' encoding='utf-8'?>
<svg xmlns="http://www.w3.org/2000/svg" height="100px" version="1.0" viewBox="0 0 100 100" width="100px" x="0px" y="0px">
<line fill="none" stroke="#000000" stroke-width="2" x1="94" x2="56" y1="13" y2="13" /><line fill="none" stroke="#000000" stroke-width="2" x1="50" x2="17.5" y1="13" y2="13" /><line fill="none" stroke="#000000" stroke-width="2" x1="55.5" x2="88" y1="40" y2="40" /><line fill="none" stroke="#000000" stroke-width="2" x1="43.5" x2="12" y1="40" y2="40" /><line fill="none" stroke="#000000" stroke-width="2" x1="67.5" x2="32.5" y1="71.5" y2="71.5" /><polyline fill="none" points="11,93 11,28 44.5,28 44.5,52.5 12,52.5" stroke="#000000" stroke-width="2" /><polyline fill="none" points="31.5,90 31.5,59.5 68.5,59.5 68.5,84 32.5,84" stroke="#000000" stroke-width="2" /><path d="M34,28 c-1.833,-4.87 -3.895,-10.03 -6,-15" fill="none" stroke="#000000" stroke-width="2" /><path d="M74,28 c-1.833,-4.87 -3.895,-10.03 -6,-15" fill="none" stroke="#000000" stroke-width="2" /><path d="M23,3 c-3.148,7.932 -9.355,16.47 -17,23" fill="none" stroke="#000000" stroke-width="2" /><path d="M63,3 c-3.717,7.438 -11.482,15.749 -21,22" fill="none" stroke="#000000" stroke-width="2" /><path d="M67,90.5 c7.97,0.349 12.759,0.5 15,0.5 c6.188,0 7,-0.759 7,-6.5 V28.0 h-34.5 v24.5 h33.5" fill="none" stroke="#000000" stroke-width="2" /></svg>