<?xml version='1.0' encoding='utf-8'?>
<svg xmlns="http://www.w3.org/2000/svg" height="100px" version="1.0" viewBox="0 0 100 100" width="100px" x="0px" y="0px">
<line fill="none" stroke="#000000" stroke-width="2" x1="34" x2="97" y1="91" y2="91" /><line fill="none" stroke="#000000" stroke-width="2" x1="46.5" x2="87.5" y1="63" y2="63" /><line fill="none" stroke="#000000" stroke-width="2" x1="46.5" x2="87.5" y1="36" y2="36" /><line fill="none" stroke="#000000" stroke-width="2" x1="22.5" x2="22.5" y1="94" y2="6" /><line fill="none" stroke="#000000" stroke-width="2" x1="39.5" x2="4.5" y1="39" y2="39" /><polyline fill="none" points="88.5,90 88.5,10 45.5,10 45.5,90" stroke="#000000" stroke-width="2" /><path d="M3.5,79.5 c8.893,-13.389 14.733,-26.336 18.5,-41" fill="none" stroke="#000000" stroke-width="2" /><path d="M38.5,71 c-4.819,-9.969 -10.215,-20.774 -15.5,-31" fill="none" stroke="#000000" stroke-width="2" /><path d="M16,34 c-2.897,-7.818 -6.243,-15.581 -9.5,-22" fill="none" stroke="#000000" stroke-width="2" /><path d="M29,34 c3.858,-7.186 7.354,-15.65 9.5,-23" fill="none" stroke="#000000" stroke-width="2" /></svg>