<?xml version='1.0' encoding='utf-8'?>
<svg xmlns="http://www.w3.org/2000/svg" height="100px" version="1.0" viewBox="0 0 100 100" width="100px" x="0px" y="0px">
<line fill="none" stroke="#000000" stroke-width="2" x1="21" x2="21" y1="94" y2="6" /><line fill="none" stroke="#000000" stroke-width="2" x1="36" x2="4.5" y1="39" y2="39" /><line fill="none" stroke="#000000" stroke-width="2" x1="85" x2="47.5" y1="26" y2="26" /><polyline fill="none" points="52.5,82 52.5,42 80,42 80,73 53.5,73" stroke="#000000" stroke-width="2" /><path d="M3.5,79.5 c8.184,-13.372 13.541,-26.336 17,-41" fill="none" stroke="#000000" stroke-width="2" /><path d="M34.5,71 c-3.898,-10.039 -8.42,-20.819 -13,-31" fill="none" stroke="#000000" stroke-width="2" /><path d="M15.5,34 c-2.652,-7.823 -5.872,-15.646 -9,-22" fill="none" stroke="#000000" stroke-width="2" /><path d="M26.5,34 c3.673,-7.122 7.027,-15.65 9,-23" fill="none" stroke="#000000" stroke-width="2" /><path d="M40.5,92 v-82.0 h51.5 v72.0 c0,7.565 -0.406,8 -5.5,8 c-1.906,0 -5.848,-0.155 -11.5,-0.5" fill="none" stroke="#000000" stroke-width="2" /></svg>