<?xml version='1.0' encoding='utf-8'?>
<svg xmlns="http://www.w3.org/2000/svg" height="100px" version="1.0" viewBox="0 0 100 100" width="100px" x="0px" y="0px">
<line fill="none" stroke="#000000" stroke-width="2" x1="37.5" x2="95" y1="38.5" y2="38.5" /><line fill="none" stroke="#000000" stroke-width="2" x1="93.5" x2="39" y1="13.5" y2="13.5" /><line fill="none" stroke="#000000" stroke-width="2" x1="91" x2="41" y1="26" y2="26" /><line fill="none" stroke="#000000" stroke-width="2" x1="66" x2="66" y1="38.5" y2="5" /><line fill="none" stroke="#000000" stroke-width="2" x1="43" x2="88" y1="75" y2="75" /><line fill="none" stroke="#000000" stroke-width="2" x1="43" x2="88" y1="62" y2="62" /><line fill="none" stroke="#000000" stroke-width="2" x1="21" x2="21" y1="94" y2="6" /><line fill="none" stroke="#000000" stroke-width="2" x1="35" x2="4.5" y1="39" y2="39" /><path d="M42,92 V49.0 h47.0 v36.96 c0,4.177 -0.469,4.54 -7.5,4.54 c-2.172,0 -5.876,-0.137 -12.5,-0.5" fill="none" stroke="#000000" stroke-width="2" /><path d="M3.5,79.5 c8.184,-13.373 13.541,-26.336 17,-41" fill="none" stroke="#000000" stroke-width="2" /><path d="M34.5,71 c-3.898,-10.039 -8.42,-20.819 -13,-31" fill="none" stroke="#000000" stroke-width="2" /><path d="M15.5,34 c-2.652,-7.823 -5.872,-15.646 -9,-22" fill="none" stroke="#000000" stroke-width="2" /><path d="M26.5,34 c3.673,-7.122 7.027,-15.65 9,-23" fill="none" stroke="#000000" stroke-width="2" /></svg>