<?xml version='1.0' encoding='utf-8'?>
<svg xmlns="http://www.w3.org/2000/svg" height="100px" version="1.0" viewBox="0 0 100 100" width="100px" x="0px" y="0px">
<line fill="none" stroke="#000000" stroke-width="2" x1="20.5" x2="20.5" y1="94" y2="6" /><line fill="none" stroke="#000000" stroke-width="2" x1="35.5" x2="4" y1="39" y2="39" /><line fill="none" stroke="#000000" stroke-width="2" x1="69.5" x2="69.5" y1="14" y2="52.5" /><line fill="none" stroke="#000000" stroke-width="2" x1="40" x2="96" y1="39" y2="39" /><line fill="none" stroke="#000000" stroke-width="2" x1="67" x2="67" y1="14" y2="4" /><line fill="none" stroke="#000000" stroke-width="2" x1="48.189" x2="90.311" y1="87" y2="87" /><polyline fill="none" points="45.5,53.5 90.5,53.5 90.5,25 45.5,25" stroke="#000000" stroke-width="2" /><polyline fill="none" points="91,94 91,64 47.5,64 47.5,94" stroke="#000000" stroke-width="2" /><path d="M3,79.5 c8.184,-13.373 13.541,-26.336 17,-41" fill="none" stroke="#000000" stroke-width="2" /><path d="M34,71 c-3.898,-10.039 -8.42,-20.818 -13,-31" fill="none" stroke="#000000" stroke-width="2" /><path d="M15,34 c-2.652,-7.823 -5.872,-15.646 -9,-22" fill="none" stroke="#000000" stroke-width="2" /><path d="M26,34 c3.673,-7.122 7.027,-15.65 9,-23" fill="none" stroke="#000000" stroke-width="2" /><path d="M32,91.5 c4.398,-10.385 8,-30.94 8,-47 V14.0 h55.5" fill="none" stroke="#000000" stroke-width="2" /></svg>