<?xml version='1.0' encoding='utf-8'?>
<svg xmlns="http://www.w3.org/2000/svg" height="100px" version="1.0" viewBox="0 0 100 100" width="100px" x="0px" y="0px">
<line fill="none" stroke="#000000" stroke-width="2" x1="4.5" x2="42" y1="52" y2="50" /><line fill="none" stroke="#000000" stroke-width="2" x1="24.5" x2="24.5" y1="51" y2="94" /><path d="M43.5,57.5 c-1.619,-7.545 -4.385,-16.581 -7.5,-24.101" fill="none" stroke="#000000" stroke-width="2" /><path d="M6.5,87.5 c3.402,-9.126 5.666,-19.038 6.5,-28.5" fill="none" stroke="#000000" stroke-width="2" /><path d="M39.5,84.5 c-0.682,-6.759 -2.527,-18.755 -4,-26" fill="none" stroke="#000000" stroke-width="2" /><path d="M11.5,51.5 c10.08,-11.431 18.977,-23.412 27,-36.5" fill="none" stroke="#000000" stroke-width="2" /><path d="M20,41 c-3.684,-6.554 -8.887,-15.377 -13,-22" fill="none" stroke="#000000" stroke-width="2" /><path d="M12,27.5 c5.096,-7.057 9.62,-14.042 14,-21.5" fill="none" stroke="#000000" stroke-width="2" /><path d="M52,63 c12.014,-11.364 18,-26.864 18,-51 v-7.0" fill="none" stroke="#000000" stroke-width="2" /><path d="M75.5,90 c5.779,0.339 8.956,0.5 10.5,0.5 c5.391,0 6,-0.673 6,-8 V18.0 h-44.0 v74.0" fill="none" stroke="#000000" stroke-width="2" /><path d="M88,64 c-5.303,-11.325 -12.66,-21.421 -20.5,-28" fill="none" stroke="#000000" stroke-width="2" /></svg>