<?xml version='1.0' encoding='utf-8'?>
<svg xmlns="http://www.w3.org/2000/svg" height="100px" version="1.0" viewBox="0 0 100 100" width="100px" x="0px" y="0px">
<line fill="none" stroke="#000000" stroke-width="2" x1="63.5" x2="63.5" y1="21" y2="4" /><line fill="none" stroke="#000000" stroke-width="2" x1="40.5" x2="96.5" y1="21" y2="21" /><line fill="none" stroke="#000000" stroke-width="2" x1="5" x2="40.5" y1="52" y2="50" /><line fill="none" stroke="#000000" stroke-width="2" x1="25" x2="25" y1="51" y2="94" /><path d="M36.5,91 c14.002,-12.759 20,-29.259 20,-69" fill="none" stroke="#000000" stroke-width="2" /><path d="M56,41 h34.0 c0,39.336 -5.385,48 -13.5,48 c-3.299,0 -9.311,-0.322 -16.5,-1" fill="none" stroke="#000000" stroke-width="2" /><path d="M42,56.5 c-1.619,-7.545 -4.385,-16.48 -7.5,-24" fill="none" stroke="#000000" stroke-width="2" /><path d="M7,87.5 c3.402,-9.126 5.666,-19.038 6.5,-28.5" fill="none" stroke="#000000" stroke-width="2" /><path d="M39,82.5 c-0.682,-6.329 -2.549,-17.711 -4,-24.5" fill="none" stroke="#000000" stroke-width="2" /><path d="M12,51.5 c10.08,-11.431 18.977,-23.412 27,-36.5" fill="none" stroke="#000000" stroke-width="2" /><path d="M20.5,41 c-3.684,-6.554 -8.887,-15.377 -13,-22" fill="none" stroke="#000000" stroke-width="2" /><path d="M12.5,27.5 c5.096,-7.057 9.62,-14.042 14,-21.5" fill="none" stroke="#000000" stroke-width="2" /></svg>