<?xml version='1.0' encoding='utf-8'?>
<svg xmlns="http://www.w3.org/2000/svg" height="100px" version="1.0" viewBox="0 0 100 100" width="100px" x="0px" y="0px">
<line fill="none" stroke="#000000" stroke-width="2" x1="5" x2="40.5" y1="52" y2="50" /><line fill="none" stroke="#000000" stroke-width="2" x1="25" x2="25" y1="51" y2="94" /><line fill="none" stroke="#000000" stroke-width="2" x1="41.5" x2="96" y1="18" y2="18" /><line fill="none" stroke="#000000" stroke-width="2" x1="69" x2="69" y1="17" y2="4" /><path d="M42,56.5 c-1.619,-7.545 -4.385,-16.48 -7.5,-24" fill="none" stroke="#000000" stroke-width="2" /><path d="M7,87.5 c3.402,-9.126 5.666,-19.038 6.5,-28.5" fill="none" stroke="#000000" stroke-width="2" /><path d="M39,83 c-0.682,-6.329 -2.549,-17.711 -4,-24.5" fill="none" stroke="#000000" stroke-width="2" /><path d="M12,51.5 c10.08,-11.431 18.977,-23.412 27,-36.5" fill="none" stroke="#000000" stroke-width="2" /><path d="M20.5,41 c-3.684,-6.554 -8.887,-15.377 -13,-22" fill="none" stroke="#000000" stroke-width="2" /><path d="M12.5,27.5 c5.096,-7.057 9.62,-14.042 14,-21.5" fill="none" stroke="#000000" stroke-width="2" /><path d="M38,92 c26.012,-9.501 38.56,-22.096 47,-47" fill="none" stroke="#000000" stroke-width="2" /><path d="M96.5,92 c-23.877,-9.674 -34.835,-21.624 -43,-47" fill="none" stroke="#000000" stroke-width="2" /><path d="M60,23 c-3.776,8.976 -9.803,17.659 -17.5,25" fill="none" stroke="#000000" stroke-width="2" /><path d="M95.5,48.5 c-5.111,-8.679 -11.301,-17.298 -18,-25" fill="none" stroke="#000000" stroke-width="2" /></svg>