<?xml version='1.0' encoding='utf-8'?>
<svg xmlns="http://www.w3.org/2000/svg" height="100px" version="1.0" viewBox="0 0 100 100" width="100px" x="0px" y="0px">
<line fill="none" stroke="#000000" stroke-width="2" x1="5" x2="40.5" y1="52" y2="50" /><line fill="none" stroke="#000000" stroke-width="2" x1="25" x2="25" y1="51" y2="94" /><line fill="none" stroke="#000000" stroke-width="2" x1="68.5" x2="68.5" y1="16" y2="4" /><line fill="none" stroke="#000000" stroke-width="2" x1="42.5" x2="94.5" y1="16" y2="16" /><path d="M42,56.5 c-1.619,-7.545 -4.385,-16.48 -7.5,-24" fill="none" stroke="#000000" stroke-width="2" /><path d="M7,87.5 c3.402,-9.126 5.666,-19.038 6.5,-28.5" fill="none" stroke="#000000" stroke-width="2" /><path d="M39,83 c-0.682,-6.329 -2.549,-17.711 -4,-24.5" fill="none" stroke="#000000" stroke-width="2" /><path d="M12,51.5 c10.08,-11.431 18.977,-23.412 27,-36.5" fill="none" stroke="#000000" stroke-width="2" /><path d="M20.5,41 c-3.684,-6.554 -8.887,-15.377 -13,-22" fill="none" stroke="#000000" stroke-width="2" /><path d="M12.5,27.5 c5.096,-7.057 9.62,-14.042 14,-21.5" fill="none" stroke="#000000" stroke-width="2" /><path d="M95,49 c-4.67,-7.688 -11.033,-17.379 -16.5,-25" fill="none" stroke="#000000" stroke-width="2" /><path d="M42.5,45.5 c13.752,-0.517 30.588,-2.284 47,-5" fill="none" stroke="#000000" stroke-width="2" /><path d="M53,45 c4.183,-7.901 8.924,-18.891 12.5,-29" fill="none" stroke="#000000" stroke-width="2" /><path d="M75,50 v36.5 c0,4.62 0.499,5 8,5 c10.505,0 10.707,-0.205 11.5,-22.5" fill="none" stroke="#000000" stroke-width="2" /><path d="M36,93 c13.429,-6.386 22,-21.143 22,-43" fill="none" stroke="#000000" stroke-width="2" /></svg>