<?xml version='1.0' encoding='utf-8'?>
<svg xmlns="http://www.w3.org/2000/svg" height="100px" version="1.0" viewBox="0 0 100 100" width="100px" x="0px" y="0px">
<line fill="none" stroke="#000000" stroke-width="2" x1="53.5" x2="80" y1="12.5" y2="12.5" /><line fill="none" stroke="#000000" stroke-width="2" x1="46" x2="91" y1="55.5" y2="55.5" /><line fill="none" stroke="#000000" stroke-width="2" x1="69" x2="69" y1="29.5" y2="54.5" /><line fill="none" stroke="#000000" stroke-width="2" x1="5" x2="37" y1="52" y2="50" /><line fill="none" stroke="#000000" stroke-width="2" x1="22.5" x2="22.5" y1="51" y2="94" /><path d="M69.5,28.5 c3.316,-4.525 6.997,-10.436 9.608,-15.461" fill="none" stroke="#000000" stroke-width="2" /><path d="M36.5,37 c9.019,-9.304 16.15,-20.504 21,-33" fill="none" stroke="#000000" stroke-width="2" /><path d="M95.5,69 c-1.847,21.036 -2.033,21.205 -14.5,22 c-5.152,0.328 -9.807,0.5 -14.5,0.5 c-4.781,0 -8.638,-0.14 -13.5,-0.5 c-7.278,-0.538 -8,-1.163 -8,-11.5 v-51.0 h47.0 v33.0" fill="none" stroke="#000000" stroke-width="2" /><path d="M38.5,57.5 c-1.403,-7.545 -3.801,-16.481 -6.5,-24" fill="none" stroke="#000000" stroke-width="2" /><path d="M7,87.5 c2.879,-9.126 4.795,-19.038 5.5,-28.5" fill="none" stroke="#000000" stroke-width="2" /><path d="M11,51.5 c8.773,-11.431 16.518,-23.412 23.5,-36.5" fill="none" stroke="#000000" stroke-width="2" /><path d="M18.5,41 c-3.258,-6.554 -7.862,-15.377 -11.5,-22" fill="none" stroke="#000000" stroke-width="2" /><path d="M11.5,27.5 c4.367,-7.057 8.246,-14.042 12,-21.5" fill="none" stroke="#000000" stroke-width="2" /><path d="M37.5,84.5 c-0.682,-6.759 -2.527,-18.755 -4,-26" fill="none" stroke="#000000" stroke-width="2" /></svg>