<?xml version='1.0' encoding='utf-8'?>
<svg xmlns="http://www.w3.org/2000/svg" height="100px" version="1.0" viewBox="0 0 100 100" width="100px" x="0px" y="0px">
<line fill="none" stroke="#000000" stroke-width="2" x1="4.5" x2="41" y1="52" y2="50" /><line fill="none" stroke="#000000" stroke-width="2" x1="24.5" x2="24.5" y1="51" y2="94" /><line fill="none" stroke="#000000" stroke-width="2" x1="48" x2="90.5" y1="71" y2="71" /><line fill="none" stroke="#000000" stroke-width="2" x1="48" x2="90.5" y1="55" y2="55" /><polyline fill="none" points="50,29 89.5,29 89.5,10 49,10 49,30" stroke="#000000" stroke-width="2" /><path d="M42.5,55.5 c-1.619,-7.545 -4.385,-16.48 -7.5,-24" fill="none" stroke="#000000" stroke-width="2" /><path d="M6.5,87.5 c3.402,-9.126 5.666,-19.038 6.5,-28.5" fill="none" stroke="#000000" stroke-width="2" /><path d="M11.5,51.5 c10.08,-11.431 18.977,-23.412 27,-36.5" fill="none" stroke="#000000" stroke-width="2" /><path d="M20,41 c-3.684,-6.554 -8.887,-15.377 -13,-22" fill="none" stroke="#000000" stroke-width="2" /><path d="M12,27.5 c5.096,-7.057 9.62,-14.042 14,-21.5" fill="none" stroke="#000000" stroke-width="2" /><path d="M38.5,84.5 c-0.682,-6.759 -2.527,-18.755 -4,-26" fill="none" stroke="#000000" stroke-width="2" /><path d="M47,92 v-53.0 h44.5 v46.96 c0,4.177 -0.469,4.54 -7.5,4.54 c-2.172,0 -5.876,-0.137 -12.5,-0.5" fill="none" stroke="#000000" stroke-width="2" /></svg>