<?xml version='1.0' encoding='utf-8'?>
<svg xmlns="http://www.w3.org/2000/svg" height="100px" version="1.0" viewBox="0 0 100 100" width="100px" x="0px" y="0px">
<line fill="none" stroke="#000000" stroke-width="2" x1="35.5" x2="58" y1="22" y2="22" /><line fill="none" stroke="#000000" stroke-width="2" x1="73" x2="96.5" y1="22" y2="22" /><line fill="none" stroke="#000000" stroke-width="2" x1="73" x2="97" y1="68" y2="68" /><line fill="none" stroke="#000000" stroke-width="2" x1="37.5" x2="58" y1="44" y2="44" /><line fill="none" stroke="#000000" stroke-width="2" x1="73" x2="95" y1="44" y2="44" /><line fill="none" stroke="#000000" stroke-width="2" x1="73" x2="73" y1="94" y2="6" /><line fill="none" stroke="#000000" stroke-width="2" x1="4" x2="35.5" y1="52" y2="50" /><line fill="none" stroke="#000000" stroke-width="2" x1="21.5" x2="21.5" y1="51" y2="94" /><path d="M36,94.5 c16.23,-8.743 22,-19.019 22,-47.5 v-41.0" fill="none" stroke="#000000" stroke-width="2" /><path d="M36.5,72 c7.205,-2.486 13.481,-5.247 20.5,-9" fill="none" stroke="#000000" stroke-width="2" /><path d="M37,57.5 c-1.403,-7.545 -3.801,-16.481 -6.5,-24" fill="none" stroke="#000000" stroke-width="2" /><path d="M6,87.5 c2.879,-9.126 4.795,-19.038 5.5,-28.5" fill="none" stroke="#000000" stroke-width="2" /><path d="M34.5,81.5 c-0.596,-6.759 -1.969,-15.816 -3.5,-23" fill="none" stroke="#000000" stroke-width="2" /><path d="M10,51.5 c8.773,-11.431 16.518,-23.412 23.5,-36.5" fill="none" stroke="#000000" stroke-width="2" /><path d="M17.5,41 c-3.258,-6.554 -7.862,-15.377 -11.5,-22" fill="none" stroke="#000000" stroke-width="2" /><path d="M10.5,27.5 c4.367,-7.057 8.246,-14.042 12,-21.5" fill="none" stroke="#000000" stroke-width="2" /></svg>