<?xml version='1.0' encoding='utf-8'?>
<svg xmlns="http://www.w3.org/2000/svg" height="100px" version="1.0" viewBox="0 0 100 100" width="100px" x="0px" y="0px">
<line fill="none" stroke="#000000" stroke-width="2" x1="93.5" x2="35.5" y1="34.5" y2="34.5" /><line fill="none" stroke="#000000" stroke-width="2" x1="94.5" x2="35.5" y1="46" y2="46" /><line fill="none" stroke="#000000" stroke-width="2" x1="47" x2="88.5" y1="56.5" y2="56.5" /><line fill="none" stroke="#000000" stroke-width="2" x1="4.5" x2="34" y1="52" y2="50" /><line fill="none" stroke="#000000" stroke-width="2" x1="20.5" x2="20.5" y1="51" y2="94" /><path d="M34.5,14 c20.33,0 39.844,-1.901 58,-5.5" fill="none" stroke="#000000" stroke-width="2" /><path d="M45.5,31 c-2.021,-4.866 -4.256,-9.521 -6.5,-13.5" fill="none" stroke="#000000" stroke-width="2" /><path d="M65.5,31 c-2.013,-5.231 -4.258,-10.226 -6.5,-14.5" fill="none" stroke="#000000" stroke-width="2" /><path d="M79,34.5 c3.528,-6.766 6.46,-13.88 8.5,-20.5" fill="none" stroke="#000000" stroke-width="2" /><path d="M27,90 c14.624,-14.525 23,-34.439 23,-55.5" fill="none" stroke="#000000" stroke-width="2" /><path d="M36.5,90.5 c25.318,-6.181 42.216,-18.045 51.133,-33.5" fill="none" stroke="#000000" stroke-width="2" /><path d="M95.5,90.5 c-20.834,-6.2 -34.983,-15.612 -46,-30" fill="none" stroke="#000000" stroke-width="2" /><path d="M35.5,56.5 c-1.279,-7.545 -3.49,-16.5 -6,-24" fill="none" stroke="#000000" stroke-width="2" /><path d="M6.5,87.5 c2.624,-9.126 4.357,-19.038 5,-28.5" fill="none" stroke="#000000" stroke-width="2" /><path d="M32,80.5 c-0.57,-6.951 -1.604,-14.61 -3,-22" fill="none" stroke="#000000" stroke-width="2" /><path d="M10,51.5 c8.018,-11.415 15.133,-23.412 21.5,-36.5" fill="none" stroke="#000000" stroke-width="2" /><path d="M17,41 c-2.955,-6.562 -7.184,-15.377 -10.5,-22" fill="none" stroke="#000000" stroke-width="2" /><path d="M10.5,27.5 c3.982,-7.057 7.565,-14.049 11,-21.5" fill="none" stroke="#000000" stroke-width="2" /></svg>