<?xml version='1.0' encoding='utf-8'?>
<svg xmlns="http://www.w3.org/2000/svg" height="100px" version="1.0" viewBox="0 0 100 100" width="100px" x="0px" y="0px">
<line fill="none" stroke="#000000" stroke-width="2" x1="3.5" x2="33" y1="52" y2="50" /><line fill="none" stroke="#000000" stroke-width="2" x1="19.5" x2="19.5" y1="51" y2="94" /><line fill="none" stroke="#000000" stroke-width="2" x1="41" x2="41" y1="94" y2="42.5" /><line fill="none" stroke="#000000" stroke-width="2" x1="72.5" x2="93" y1="53" y2="53" /><line fill="none" stroke="#000000" stroke-width="2" x1="72.5" x2="72.5" y1="87" y2="25" /><line fill="none" stroke="#000000" stroke-width="2" x1="50" x2="96.5" y1="25" y2="25" /><path d="M34,56.5 c-1.279,-7.545 -3.49,-16.5 -6,-24" fill="none" stroke="#000000" stroke-width="2" /><path d="M5.5,87.5 c2.624,-9.126 4.357,-19.038 5,-28.5" fill="none" stroke="#000000" stroke-width="2" /><path d="M31,82.5 c-0.547,-7.585 -1.604,-15.938 -3,-24" fill="none" stroke="#000000" stroke-width="2" /><path d="M9,51.5 c8.018,-11.415 15.133,-23.412 21.5,-36.5" fill="none" stroke="#000000" stroke-width="2" /><path d="M16,41 c-2.955,-6.562 -7.184,-15.377 -10.5,-22" fill="none" stroke="#000000" stroke-width="2" /><path d="M9.5,27.5 c3.982,-7.057 7.565,-14.049 11,-21.5" fill="none" stroke="#000000" stroke-width="2" /><path d="M48,28 c-3.414,9.419 -8.223,17.71 -14.5,25" fill="none" stroke="#000000" stroke-width="2" /><path d="M49.5,6 c-4.307,8.654 -9.76,16.097 -17,23" fill="none" stroke="#000000" stroke-width="2" /><path d="M46,92 c4.621,-11.036 8.758,-29.708 11,-53" fill="none" stroke="#000000" stroke-width="2" /><path d="M97,90 h-3.5 c-23.821,0 -33.248,-6.308 -39.5,-28.5" fill="none" stroke="#000000" stroke-width="2" /><path d="M78,25 c3.761,-5.556 6.962,-11.974 9.5,-19" fill="none" stroke="#000000" stroke-width="2" /><path d="M67,25 c-2.142,-6.283 -4.602,-12.364 -7.5,-18.5" fill="none" stroke="#000000" stroke-width="2" /></svg>