<?xml version='1.0' encoding='utf-8'?>
<svg xmlns="http://www.w3.org/2000/svg" height="100px" version="1.0" viewBox="0 0 100 100" width="100px" x="0px" y="0px">
<line fill="none" stroke="#000000" stroke-width="2" x1="35.5" x2="96" y1="34.5" y2="34.5" /><line fill="none" stroke="#000000" stroke-width="2" x1="94" x2="38" y1="13.5" y2="13.5" /><line fill="none" stroke="#000000" stroke-width="2" x1="91" x2="40" y1="24" y2="24" /><line fill="none" stroke="#000000" stroke-width="2" x1="65.5" x2="65.5" y1="34.5" y2="5" /><line fill="none" stroke="#000000" stroke-width="2" x1="42.5" x2="89.5" y1="64.5" y2="64.5" /><line fill="none" stroke="#000000" stroke-width="2" x1="42.5" x2="89.5" y1="53.5" y2="53.5" /><line fill="none" stroke="#000000" stroke-width="2" x1="4" x2="35.5" y1="52" y2="50" /><line fill="none" stroke="#000000" stroke-width="2" x1="21.5" x2="21.5" y1="51" y2="94" /><polyline fill="none" points="42.5,75.5 90.5,75.5 90.5,42.5 41.5,42.5 41.5,76.5" stroke="#000000" stroke-width="2" /><path d="M33.5,92.5 c10.127,-3.419 18.866,-8.096 24,-12.5" fill="none" stroke="#000000" stroke-width="2" /><path d="M96,93 c-6.18,-4.208 -14.703,-8.728 -24,-12.5" fill="none" stroke="#000000" stroke-width="2" /><path d="M37,57.5 c-1.403,-7.545 -3.801,-16.481 -6.5,-24" fill="none" stroke="#000000" stroke-width="2" /><path d="M6,87.5 c2.879,-9.126 4.795,-19.038 5.5,-28.5" fill="none" stroke="#000000" stroke-width="2" /><path d="M34.5,81.5 c-0.596,-6.759 -1.969,-15.816 -3.5,-23" fill="none" stroke="#000000" stroke-width="2" /><path d="M10,51.5 c8.773,-11.431 16.518,-23.412 23.5,-36.5" fill="none" stroke="#000000" stroke-width="2" /><path d="M17.5,41 c-3.258,-6.554 -7.862,-15.377 -11.5,-22" fill="none" stroke="#000000" stroke-width="2" /><path d="M10.5,27.5 c4.367,-7.057 8.246,-14.042 12,-21.5" fill="none" stroke="#000000" stroke-width="2" /></svg>