<?xml version='1.0' encoding='utf-8'?>
<svg xmlns="http://www.w3.org/2000/svg" height="100px" version="1.0" viewBox="0 0 100 100" width="100px" x="0px" y="0px">
<line fill="none" stroke="#000000" stroke-width="2" x1="66" x2="66" y1="93.5" y2="54.5" /><line fill="none" stroke="#000000" stroke-width="2" x1="95.5" x2="36" y1="63" y2="63" /><line fill="none" stroke="#000000" stroke-width="2" x1="4" x2="35" y1="52" y2="50" /><line fill="none" stroke="#000000" stroke-width="2" x1="21.5" x2="21.5" y1="51" y2="94" /><polyline fill="none" points="41,52.5 62.5,52.5 62.5,34 40,34 40,53.5" stroke="#000000" stroke-width="2" /><polyline fill="none" points="70.5,52.5 92.5,52.5 92.5,34 69.5,34 69.5,53.5" stroke="#000000" stroke-width="2" /><polyline fill="none" points="45,27 87.5,27 87.5,9 44,9 44,28" stroke="#000000" stroke-width="2" /><path d="M33.5,89 c13.498,-6.905 25.4,-17.017 31.5,-26" fill="none" stroke="#000000" stroke-width="2" /><path d="M97,89 c-13.381,-7.598 -23.369,-16.352 -30,-26" fill="none" stroke="#000000" stroke-width="2" /><path d="M36.5,57.5 c-1.403,-7.545 -3.801,-16.481 -6.5,-24" fill="none" stroke="#000000" stroke-width="2" /><path d="M6,87.5 c2.879,-9.126 4.795,-19.038 5.5,-28.5" fill="none" stroke="#000000" stroke-width="2" /><path d="M34.5,81.5 c-0.596,-6.759 -1.969,-15.816 -3.5,-23" fill="none" stroke="#000000" stroke-width="2" /><path d="M10,51.5 c8.773,-11.431 16.518,-23.412 23.5,-36.5" fill="none" stroke="#000000" stroke-width="2" /><path d="M17.5,41 c-3.258,-6.554 -7.862,-15.377 -11.5,-22" fill="none" stroke="#000000" stroke-width="2" /><path d="M10.5,27.5 c4.367,-7.057 8.246,-14.042 12,-21.5" fill="none" stroke="#000000" stroke-width="2" /></svg>