<?xml version='1.0' encoding='utf-8'?>
<svg xmlns="http://www.w3.org/2000/svg" height="100px" version="1.0" viewBox="0 0 100 100" width="100px" x="0px" y="0px">
<line fill="none" stroke="#000000" stroke-width="2" x1="24" x2="24" y1="61" y2="93.5" /><line fill="none" stroke="#000000" stroke-width="2" x1="25" x2="83" y1="88.5" y2="88.5" /><line fill="none" stroke="#000000" stroke-width="2" x1="25" x2="83" y1="74.5" y2="74.5" /><line fill="none" stroke="#000000" stroke-width="2" x1="5" x2="95" y1="49" y2="49" /><line fill="none" stroke="#000000" stroke-width="2" x1="77.5" x2="14" y1="36.5" y2="36.5" /><line fill="none" stroke="#000000" stroke-width="2" x1="47" x2="47" y1="49" y2="25.5" /><line fill="none" stroke="#000000" stroke-width="2" x1="62.5" x2="62.5" y1="24.5" y2="10.5" /><line fill="none" stroke="#000000" stroke-width="2" x1="37.5" x2="37.5" y1="24.5" y2="10.5" /><polyline fill="none" points="84,93.5 84,61 24.5,61" stroke="#000000" stroke-width="2" /><polyline fill="none" points="14.5,25.5 86.5,25.5 86.5,9.5 13.5,9.5 13.5,26.5" stroke="#000000" stroke-width="2" /><path d="M5,66.5 c37.08,-9.086 66.109,-23.195 83,-38" fill="none" stroke="#000000" stroke-width="2" /></svg>