<?xml version='1.0' encoding='utf-8'?>
<svg xmlns="http://www.w3.org/2000/svg" height="100px" version="1.0" viewBox="0 0 100 100" width="100px" x="0px" y="0px">
<line fill="none" stroke="#000000" stroke-width="2" x1="7.5" x2="92.5" y1="89.5" y2="89.5" /><line fill="none" stroke="#000000" stroke-width="2" x1="12" x2="88" y1="60" y2="60" /><line fill="none" stroke="#000000" stroke-width="2" x1="50" x2="50" y1="59.5" y2="48" /><path d="M9,40.5 c12.818,-2.875 23.434,-6.386 31,-10" fill="none" stroke="#000000" stroke-width="2" /><path d="M31,26.5 c-4.646,-3.028 -10.341,-6.409 -17,-10" fill="none" stroke="#000000" stroke-width="2" /><path d="M8,10.5 h37.0 v32.0 c0,3.202 -0.258,3.5 -5.5,3.5 c-2.32,0 -8.623,-0.177 -15.5,-0.5" fill="none" stroke="#000000" stroke-width="2" /><path d="M51.5,40 c12.818,-2.875 23.434,-6.386 31,-10" fill="none" stroke="#000000" stroke-width="2" /><path d="M73.5,26 c-4.646,-3.028 -10.341,-6.409 -17,-10" fill="none" stroke="#000000" stroke-width="2" /><path d="M50.5,10.5 h37.0 v32.0 c0,3.202 -0.258,3.5 -5.5,3.5 c-2.32,0 -8.623,-0.177 -15.5,-0.5" fill="none" stroke="#000000" stroke-width="2" /><path d="M59,89.5 c5.104,-8.251 9.261,-18.368 12,-29.5" fill="none" stroke="#000000" stroke-width="2" /><path d="M40,89.5 c-3.384,-9.958 -7.391,-19.829 -12,-29.5" fill="none" stroke="#000000" stroke-width="2" /></svg>