<?xml version='1.0' encoding='utf-8'?>
<svg xmlns="http://www.w3.org/2000/svg" height="100px" version="1.0" viewBox="0 0 100 100" width="100px" x="0px" y="0px">
<line fill="none" stroke="#000000" stroke-width="2" x1="45" x2="88" y1="86" y2="86" /><line fill="none" stroke="#000000" stroke-width="2" x1="37.5" x2="95" y1="35.5" y2="35.5" /><line fill="none" stroke="#000000" stroke-width="2" x1="66.5" x2="66.5" y1="54" y2="15" /><line fill="none" stroke="#000000" stroke-width="2" x1="9.5" x2="9.5" y1="12" y2="77" /><line fill="none" stroke="#000000" stroke-width="2" x1="38" x2="3.5" y1="11" y2="11" /><line fill="none" stroke="#000000" stroke-width="2" x1="32" x2="32" y1="94.5" y2="12" /><line fill="none" stroke="#000000" stroke-width="2" x1="10.5" x2="31" y1="53.5" y2="53.5" /><line fill="none" stroke="#000000" stroke-width="2" x1="10.5" x2="31" y1="31.5" y2="31.5" /><polyline fill="none" points="44,93 44,55 89,55 89,93" stroke="#000000" stroke-width="2" /><path d="M41,17 c16.539,0 33.535,-2.7 50.5,-8" fill="none" stroke="#000000" stroke-width="2" /><path d="M3,78.5 c9.004,-1.661 19.22,-4.124 29,-7" fill="none" stroke="#000000" stroke-width="2" /></svg>