<?xml version='1.0' encoding='utf-8'?>
<svg xmlns="http://www.w3.org/2000/svg" height="100px" version="1.0" viewBox="0 0 100 100" width="100px" x="0px" y="0px">
<line fill="none" stroke="#000000" stroke-width="2" x1="73" x2="73" y1="52" y2="30" /><line fill="none" stroke="#000000" stroke-width="2" x1="54.5" x2="54.5" y1="52" y2="30" /><line fill="none" stroke="#000000" stroke-width="2" x1="33" x2="95" y1="16" y2="16" /><line fill="none" stroke="#000000" stroke-width="2" x1="63.5" x2="63.5" y1="28" y2="4" /><line fill="none" stroke="#000000" stroke-width="2" x1="8.5" x2="8.5" y1="12" y2="77" /><line fill="none" stroke="#000000" stroke-width="2" x1="33.5" x2="3.5" y1="11" y2="11" /><line fill="none" stroke="#000000" stroke-width="2" x1="28.5" x2="28.5" y1="94.5" y2="12" /><line fill="none" stroke="#000000" stroke-width="2" x1="9.5" x2="27.5" y1="53.5" y2="53.5" /><line fill="none" stroke="#000000" stroke-width="2" x1="9.5" x2="27.5" y1="31.5" y2="31.5" /><polyline fill="none" points="37,53 91.5,53 91.5,29 36,29 36,54" stroke="#000000" stroke-width="2" /><path d="M51.5,63 v17.0 c0,11.78 0.287,12 14.5,12 c17.4,0 17.618,-0.19 18.5,-15.5" fill="none" stroke="#000000" stroke-width="2" /><path d="M32.5,89 c4.487,-6.687 8.309,-15.48 10.5,-24.5" fill="none" stroke="#000000" stroke-width="2" /><path d="M96.5,89.5 c-3.057,-8.657 -7.015,-17.682 -11.5,-26" fill="none" stroke="#000000" stroke-width="2" /><path d="M73.5,74.5 c-4.018,-5.048 -8.726,-10.128 -14,-15" fill="none" stroke="#000000" stroke-width="2" /><path d="M3,78.5 c7.922,-1.63 16.9,-4.124 25.5,-7" fill="none" stroke="#000000" stroke-width="2" /></svg>