<?xml version='1.0' encoding='utf-8'?>
<svg xmlns="http://www.w3.org/2000/svg" height="100px" version="1.0" viewBox="0 0 100 100" width="100px" x="0px" y="0px">
<line fill="none" stroke="#000000" stroke-width="2" x1="66" x2="66" y1="46" y2="13" /><line fill="none" stroke="#000000" stroke-width="2" x1="89.5" x2="42.5" y1="47" y2="47" /><line fill="none" stroke="#000000" stroke-width="2" x1="10.5" x2="31" y1="59" y2="59" /><line fill="none" stroke="#000000" stroke-width="2" x1="11.5" x2="31" y1="33.5" y2="33.5" /><path d="M90.5,55 v-43.0 h-49.0 v66.5 c0,10.414 0.635,10.987 8.5,11.5 c5.346,0.349 9.744,0.5 15,0.5 c5.159,0 9.834,-0.171 15.5,-0.5 c12.656,-0.734 12.965,-1.035 15,-24.5" fill="none" stroke="#000000" stroke-width="2" /><path d="M4.5,92.5 c4.1,-10.866 6,-23.313 6,-46.5 v-36.0 h21.5 v73.0 c0,7.724 -0.25,8 -5,8 c-1.819,0 -5.604,-0.155 -11,-0.5" fill="none" stroke="#000000" stroke-width="2" /></svg>