<?xml version='1.0' encoding='utf-8'?>
<svg xmlns="http://www.w3.org/2000/svg" height="100px" version="1.0" viewBox="0 0 100 100" width="100px" x="0px" y="0px">
<line fill="none" stroke="#000000" stroke-width="2" x1="63.5" x2="63.5" y1="21" y2="4" /><line fill="none" stroke="#000000" stroke-width="2" x1="38.5" x2="96.5" y1="21" y2="21" /><line fill="none" stroke="#000000" stroke-width="2" x1="12" x2="33.5" y1="59" y2="59" /><line fill="none" stroke="#000000" stroke-width="2" x1="13" x2="33.5" y1="33.5" y2="33.5" /><path d="M38.5,91 c12.603,-12.759 18,-29.259 18,-69" fill="none" stroke="#000000" stroke-width="2" /><path d="M56,41 h34.0 c0,39.336 -5.385,48 -13.5,48 c-3.299,0 -9.311,-0.322 -16.5,-1" fill="none" stroke="#000000" stroke-width="2" /><path d="M5,92.5 c4.782,-10.866 7,-23.313 7,-46.5 v-36.0 h22.5 v73.0 c0,7.724 -0.25,8 -5,8 c-1.819,0 -5.604,-0.155 -11,-0.5" fill="none" stroke="#000000" stroke-width="2" /></svg>