<?xml version='1.0' encoding='utf-8'?>
<svg xmlns="http://www.w3.org/2000/svg" height="100px" version="1.0" viewBox="0 0 100 100" width="100px" x="0px" y="0px">
<line fill="none" stroke="#000000" stroke-width="2" x1="18.5" x2="82.5" y1="73.5" y2="73.5" /><line fill="none" stroke="#000000" stroke-width="2" x1="18.5" x2="82.5" y1="59" y2="59" /><line fill="none" stroke="#000000" stroke-width="2" x1="38" x2="38" y1="39" y2="5" /><line fill="none" stroke="#000000" stroke-width="2" x1="7" x2="38" y1="15" y2="15" /><path d="M17.5,92 v-47.5 h65.0 v41.46 c0,4.177 -0.334,4.54 -8,4.54 c-2.518,0 -6.713,-0.159 -14,-0.5" fill="none" stroke="#000000" stroke-width="2" /><path d="M56.5,5 v26.5 c0,4.25 0.313,4.5 18.5,4.5 c16.018,0 16.256,-0.191 17.5,-13" fill="none" stroke="#000000" stroke-width="2" /><path d="M56.5,20 c12.301,-2.3 22.859,-5.317 35,-10" fill="none" stroke="#000000" stroke-width="2" /><path d="M6,35 c10.89,-1.499 20.272,-3.253 32,-6" fill="none" stroke="#000000" stroke-width="2" /></svg>