<?xml version='1.0' encoding='utf-8'?>
<svg xmlns="http://www.w3.org/2000/svg" height="100px" version="1.0" viewBox="0 0 100 100" width="100px" x="0px" y="0px">
<line fill="none" stroke="#000000" stroke-width="2" x1="41.5" x2="41.5" y1="80.5" y2="33" /><line fill="none" stroke="#000000" stroke-width="2" x1="11" x2="30.5" y1="59" y2="59" /><line fill="none" stroke="#000000" stroke-width="2" x1="12" x2="30.5" y1="33.5" y2="33.5" /><polyline fill="none" points="79.5,33 79.5,72.5 41.5,72.5" stroke="#000000" stroke-width="2" /><path d="M45.5,67.5 c11.223,-8.956 21.085,-24.778 26,-42" fill="none" stroke="#000000" stroke-width="2" /><path d="M46,30.5 c9.238,8.157 17.637,18.105 29,35" fill="none" stroke="#000000" stroke-width="2" /><path d="M5,92.5 c4.1,-10.866 6,-23.313 6,-46.5 v-36.0 h20.5 v73.0 c0,7.724 -0.25,8 -5,8 c-1.819,0 -5.604,-0.155 -11,-0.5" fill="none" stroke="#000000" stroke-width="2" /><path d="M31.5,42.5 c7.928,-9.956 14.68,-24.14 18,-38" fill="none" stroke="#000000" stroke-width="2" /><path d="M81,90 c-4.365,0 -11.515,-0.34 -19,-1" fill="none" stroke="#000000" stroke-width="2" /><path d="M45,18 h47.5 c-1.854,66.393 -4.388,72 -11.5,72" fill="none" stroke="#000000" stroke-width="2" /></svg>