<?xml version='1.0' encoding='utf-8'?>
<svg xmlns="http://www.w3.org/2000/svg" height="100px" version="1.0" viewBox="0 0 100 100" width="100px" x="0px" y="0px">
<line fill="none" stroke="#000000" stroke-width="2" x1="12" x2="43.5" y1="72.5" y2="72.5" /><line fill="none" stroke="#000000" stroke-width="2" x1="12" x2="43.5" y1="56" y2="56" /><path d="M11,30.5 c4.592,-7.647 8.946,-16.241 12.5,-24.5" fill="none" stroke="#000000" stroke-width="2" /><path d="M50.5,35 c-4.08,-7.152 -9.965,-16.397 -15,-23.5" fill="none" stroke="#000000" stroke-width="2" /><path d="M3.5,31 c13.721,-0.522 28.15,-1.701 42.5,-3.5" fill="none" stroke="#000000" stroke-width="2" /><path d="M11,93 v-53.5 h33.5 v47.46 c0,4.282 -0.293,4.54 -5.5,4.54 c-1.858,0 -5.118,-0.159 -10.5,-0.5" fill="none" stroke="#000000" stroke-width="2" /><path d="M56.5,51.5 v35.0 c0,4.278 0.281,4.527 6,4.8 c3.008,0.143 6.219,0.2 9.5,0.2 c3.397,0 6.478,-0.058 9.5,-0.2 c9.538,-0.453 9.686,-0.575 11.5,-16.8" fill="none" stroke="#000000" stroke-width="2" /><path d="M56.5,7.5 v33.0 c0,4.278 0.281,4.527 6,4.8 c3.008,0.143 6.22,0.2 9.5,0.2 c3.397,0 6.478,-0.058 9.5,-0.2 c9.041,-0.43 9.183,-0.546 11,-16.8" fill="none" stroke="#000000" stroke-width="2" /><path d="M56.5,26.5 c12.069,-3.163 22.641,-7.395 35,-14" fill="none" stroke="#000000" stroke-width="2" /><path d="M56.5,68.5 c12.069,-3.163 22.641,-7.395 35,-14" fill="none" stroke="#000000" stroke-width="2" /></svg>