<?xml version='1.0' encoding='utf-8'?>
<svg xmlns="http://www.w3.org/2000/svg" height="100px" version="1.0" viewBox="0 0 100 100" width="100px" x="0px" y="0px">
<line fill="none" stroke="#000000" stroke-width="2" x1="38.5" x2="90.5" y1="66.5" y2="66.5" /><line fill="none" stroke="#000000" stroke-width="2" x1="38.5" x2="90.5" y1="46.5" y2="46.5" /><line fill="none" stroke="#000000" stroke-width="2" x1="64.5" x2="64.5" y1="5" y2="91" /><line fill="none" stroke="#000000" stroke-width="2" x1="33.5" x2="95.5" y1="15" y2="15" /><line fill="none" stroke="#000000" stroke-width="2" x1="9" x2="27" y1="59" y2="59" /><line fill="none" stroke="#000000" stroke-width="2" x1="10" x2="27" y1="33.5" y2="33.5" /><path d="M75,4.5 c4.902,2.214 10.408,4.978 15,7.5" fill="none" stroke="#000000" stroke-width="2" /><path d="M37.5,93 v-64.5 h54.0 v55.0 c0,7.222 -0.622,8 -5,8 c-1.717,0 -6.623,-0.18 -12,-0.5" fill="none" stroke="#000000" stroke-width="2" /><path d="M4.5,92.5 c3.238,-8.584 4.5,-17.869 4.5,-46.5 v-36.0 h19.0 v73.0 c0,7.724 -0.25,8 -5,8 c-1.488,0 -4.585,-0.155 -9,-0.5" fill="none" stroke="#000000" stroke-width="2" /></svg>