<?xml version='1.0' encoding='utf-8'?>
<svg xmlns="http://www.w3.org/2000/svg" height="100px" version="1.0" viewBox="0 0 100 100" width="100px" x="0px" y="0px">
<line fill="none" stroke="#000000" stroke-width="2" x1="12" x2="33.5" y1="59" y2="59" /><line fill="none" stroke="#000000" stroke-width="2" x1="13" x2="33.5" y1="33.5" y2="33.5" /><polyline fill="none" points="46,51 90,51 90,22.5 45,22.5 45,52" stroke="#000000" stroke-width="2" /><path d="M74.5,52 v32.0 c0,6.103 0.529,6.5 10,6.5 c9.87,0 10.06,-0.156 10.5,-25" fill="none" stroke="#000000" stroke-width="2" /><path d="M37.5,92 c15.961,-7.607 22,-17.777 22,-41" fill="none" stroke="#000000" stroke-width="2" /><path d="M74,22.5 c4.203,-4.868 7.681,-10.373 10.5,-16.5" fill="none" stroke="#000000" stroke-width="2" /><path d="M59,22.5 c-2.491,-5.377 -5.29,-10.693 -8.5,-16" fill="none" stroke="#000000" stroke-width="2" /><path d="M5,92.5 c4.782,-10.866 7,-23.313 7,-46.5 v-36.0 h22.5 v73.0 c0,7.724 -0.25,8 -5,8 c-1.819,0 -5.604,-0.155 -11,-0.5" fill="none" stroke="#000000" stroke-width="2" /></svg>