<?xml version='1.0' encoding='utf-8'?>
<svg xmlns="http://www.w3.org/2000/svg" height="100px" version="1.0" viewBox="0 0 100 100" width="100px" x="0px" y="0px">
<line fill="none" stroke="#000000" stroke-width="2" x1="11" x2="30.5" y1="59" y2="59" /><line fill="none" stroke="#000000" stroke-width="2" x1="12" x2="30.5" y1="33.5" y2="33.5" /><line fill="none" stroke="#000000" stroke-width="2" x1="91" x2="41" y1="86.5" y2="86.5" /><line fill="none" stroke="#000000" stroke-width="2" x1="91" x2="91" y1="39.5" y2="93.5" /><line fill="none" stroke="#000000" stroke-width="2" x1="41" x2="41" y1="93.5" y2="39.5" /><path d="M5,92.5 c4.1,-10.866 6,-23.313 6,-46.5 v-36.0 h20.5 v73.0 c0,7.724 -0.25,8 -5,8 c-1.819,0 -5.604,-0.155 -11,-0.5" fill="none" stroke="#000000" stroke-width="2" /><path d="M46.5,81.5 c14.677,-8.956 27.572,-24.778 34,-42" fill="none" stroke="#000000" stroke-width="2" /><path d="M47,44.5 c12.105,8.157 23.109,18.105 38,35" fill="none" stroke="#000000" stroke-width="2" /><path d="M48,33.5 c-3.354,-9.511 -7.031,-17.83 -10.5,-24" fill="none" stroke="#000000" stroke-width="2" /><path d="M68,31.5 c-3.223,-9.694 -6.795,-18.192 -10.5,-25" fill="none" stroke="#000000" stroke-width="2" /><path d="M76.5,35.5 c5.77,-7.185 11.383,-16.963 16,-28" fill="none" stroke="#000000" stroke-width="2" /></svg>