<?xml version='1.0' encoding='utf-8'?>
<svg xmlns="http://www.w3.org/2000/svg" height="100px" version="1.0" viewBox="0 0 100 100" width="100px" x="0px" y="0px">
<line fill="none" stroke="#000000" stroke-width="2" x1="34.5" x2="95" y1="52" y2="52" /><line fill="none" stroke="#000000" stroke-width="2" x1="44" x2="88" y1="23.5" y2="23.5" /><line fill="none" stroke="#000000" stroke-width="2" x1="44" x2="88" y1="37.5" y2="37.5" /><line fill="none" stroke="#000000" stroke-width="2" x1="11" x2="30.5" y1="59" y2="59" /><line fill="none" stroke="#000000" stroke-width="2" x1="12" x2="30.5" y1="33.5" y2="33.5" /><polyline fill="none" points="44,90 44,10 91,10" stroke="#000000" stroke-width="2" /><path d="M53,52 c8.239,16.393 22.844,30.573 42,40" fill="none" stroke="#000000" stroke-width="2" /><path d="M34,91.5 c12.764,-1.923 23.828,-4.458 37,-8.5" fill="none" stroke="#000000" stroke-width="2" /><path d="M72,76.5 c6.272,-5.035 12.062,-11.488 17,-19" fill="none" stroke="#000000" stroke-width="2" /><path d="M5,92.5 c4.1,-10.866 6,-23.313 6,-46.5 v-36.0 h20.5 v73.0 c0,7.724 -0.25,8 -5,8 c-1.819,0 -5.604,-0.155 -11,-0.5" fill="none" stroke="#000000" stroke-width="2" /></svg>