<?xml version='1.0' encoding='utf-8'?>
<svg xmlns="http://www.w3.org/2000/svg" height="100px" version="1.0" viewBox="0 0 100 100" width="100px" x="0px" y="0px">
<line fill="none" stroke="#000000" stroke-width="2" x1="33" x2="56.5" y1="22" y2="22" /><line fill="none" stroke="#000000" stroke-width="2" x1="71.5" x2="96" y1="22" y2="22" /><line fill="none" stroke="#000000" stroke-width="2" x1="71.5" x2="96.5" y1="68" y2="68" /><line fill="none" stroke="#000000" stroke-width="2" x1="34" x2="56.5" y1="44" y2="44" /><line fill="none" stroke="#000000" stroke-width="2" x1="71.5" x2="94.5" y1="44" y2="44" /><line fill="none" stroke="#000000" stroke-width="2" x1="71.5" x2="71.5" y1="94" y2="6" /><line fill="none" stroke="#000000" stroke-width="2" x1="10.5" x2="28" y1="59" y2="59" /><line fill="none" stroke="#000000" stroke-width="2" x1="11.5" x2="28" y1="33.5" y2="33.5" /><path d="M34.5,94.5 c16.23,-8.743 22,-19.019 22,-47.5 v-41.0" fill="none" stroke="#000000" stroke-width="2" /><path d="M32,72 c8.26,-2.486 15.454,-5.247 23.5,-9" fill="none" stroke="#000000" stroke-width="2" /><path d="M4.5,92.5 c4.1,-10.866 6,-23.313 6,-46.5 v-36.0 h18.5 v73.0 c0,7.798 -0.24,8 -4.5,8 c-1.705,0 -5.44,-0.164 -10.5,-0.5" fill="none" stroke="#000000" stroke-width="2" /></svg>