<?xml version='1.0' encoding='utf-8'?>
<svg xmlns="http://www.w3.org/2000/svg" height="100px" version="1.0" viewBox="0 0 100 100" width="100px" x="0px" y="0px">
<line fill="none" stroke="#000000" stroke-width="2" x1="95" x2="45" y1="14" y2="14" /><line fill="none" stroke="#000000" stroke-width="2" x1="43" x2="89.5" y1="37.5" y2="37.5" /><line fill="none" stroke="#000000" stroke-width="2" x1="50" x2="89" y1="61" y2="61" /><line fill="none" stroke="#000000" stroke-width="2" x1="10.5" x2="29" y1="59" y2="59" /><line fill="none" stroke="#000000" stroke-width="2" x1="11" x2="29" y1="33.5" y2="33.5" /><polyline fill="none" points="43,52 90.5,52 90.5,24 42,24 42,53" stroke="#000000" stroke-width="2" /><path d="M33.5,35 c6.263,-8.317 11.515,-19.521 14.5,-31" fill="none" stroke="#000000" stroke-width="2" /><path d="M33.5,73 c9.915,-4.911 19.99,-14.234 23.5,-21" fill="none" stroke="#000000" stroke-width="2" /><path d="M88.158,61.462 c-9.279,14.498 -28.171,25.974 -54.658,30.538" fill="none" stroke="#000000" stroke-width="2" /><path d="M96,92 c-19.701,-6.163 -36.5,-17.218 -46.5,-30" fill="none" stroke="#000000" stroke-width="2" /><path d="M4.5,92.5 c4.1,-10.866 6,-23.313 6,-46.5 v-36.0 h19.5 v73.0 c0,7.798 -0.24,8 -4.5,8 c-1.705,0 -5.44,-0.164 -10.5,-0.5" fill="none" stroke="#000000" stroke-width="2" /></svg>