<?xml version='1.0' encoding='utf-8'?>
<svg xmlns="http://www.w3.org/2000/svg" height="100px" version="1.0" viewBox="0 0 100 100" width="100px" x="0px" y="0px">
<line fill="none" stroke="#000000" stroke-width="2" x1="9" x2="26.5" y1="59" y2="59" /><line fill="none" stroke="#000000" stroke-width="2" x1="10" x2="26.5" y1="33.5" y2="33.5" /><line fill="none" stroke="#000000" stroke-width="2" x1="71.5" x2="44.5" y1="78" y2="78" /><line fill="none" stroke="#000000" stroke-width="2" x1="31.5" x2="95.5" y1="13.5" y2="13.5" /><line fill="none" stroke="#000000" stroke-width="2" x1="50" x2="50" y1="24" y2="4.5" /><line fill="none" stroke="#000000" stroke-width="2" x1="77" x2="77" y1="22" y2="4.5" /><line fill="none" stroke="#000000" stroke-width="2" x1="58.5" x2="58.5" y1="50.5" y2="39" /><line fill="none" stroke="#000000" stroke-width="2" x1="58.5" x2="58.5" y1="78" y2="64.5" /><polyline fill="none" points="44.5,64.5 69,64.5 69,50.5 44.5,50.5" stroke="#000000" stroke-width="2" /><polyline fill="none" points="71,38 43.5,38 43.5,86" stroke="#000000" stroke-width="2" /><path d="M4.5,92.5 c3.238,-8.584 4.5,-17.869 4.5,-46.5 v-36.0 h18.5 v73.0 c0,7.724 -0.25,8 -5,8 c-1.488,0 -4.585,-0.155 -9,-0.5" fill="none" stroke="#000000" stroke-width="2" /><path d="M74,21.5 c0,43.867 12.428,70.5 17,70.5 c1.942,0 4.086,-3.526 5.5,-19" fill="none" stroke="#000000" stroke-width="2" /><path d="M90.5,37 c-4.441,26.394 -14.889,44.8 -28.5,55" fill="none" stroke="#000000" stroke-width="2" /><path d="M81.5,17.5 c3.537,1.863 7.173,4.131 10.5,6.5" fill="none" stroke="#000000" stroke-width="2" /><path d="M30.5,92.5 c3.811,-9.655 5.5,-20.824 5.5,-45.5 v-18.5 h58.5" fill="none" stroke="#000000" stroke-width="2" /></svg>