<?xml version='1.0' encoding='utf-8'?>
<svg xmlns="http://www.w3.org/2000/svg" height="100px" version="1.0" viewBox="0 0 100 100" width="100px" x="0px" y="0px">
<line fill="none" stroke="#000000" stroke-width="2" x1="94" x2="47.5" y1="13.5" y2="13.5" /><line fill="none" stroke="#000000" stroke-width="2" x1="44" x2="62" y1="87.5" y2="87.5" /><line fill="none" stroke="#000000" stroke-width="2" x1="73" x2="91" y1="87.5" y2="87.5" /><line fill="none" stroke="#000000" stroke-width="2" x1="10.5" x2="38.5" y1="87.5" y2="87.5" /><line fill="none" stroke="#000000" stroke-width="2" x1="25" x2="25" y1="34.5" y2="11.5" /><line fill="none" stroke="#000000" stroke-width="2" x1="25" x2="25" y1="86.5" y2="61.5" /><polyline fill="none" points="63,93 63,55.5 43,55.5 43,93" stroke="#000000" stroke-width="2" /><polyline fill="none" points="92,93 92,55.5 72,55.5 72,93" stroke="#000000" stroke-width="2" /><polyline fill="none" points="50.5,47 85.5,47 85.5,23 49.5,23 49.5,48" stroke="#000000" stroke-width="2" /><polyline fill="none" points="38.5,10.5 9.5,10.5 9.5,94" stroke="#000000" stroke-width="2" /><polyline fill="none" points="10.5,60.5 36,60.5 36,35.5 10.5,35.5" stroke="#000000" stroke-width="2" /><path d="M36,29 c6.91,-6.708 12.707,-15.743 16,-25" fill="none" stroke="#000000" stroke-width="2" /></svg>