<?xml version='1.0' encoding='utf-8'?>
<svg xmlns="http://www.w3.org/2000/svg" height="100px" version="1.0" viewBox="0 0 100 100" width="100px" x="0px" y="0px">
<line fill="none" stroke="#000000" stroke-width="2" x1="82" x2="18" y1="25" y2="25" /><line fill="none" stroke="#000000" stroke-width="2" x1="88.5" x2="11.5" y1="68.5" y2="68.5" /><line fill="none" stroke="#000000" stroke-width="2" x1="7.5" x2="43.5" y1="36" y2="36" /><line fill="none" stroke="#000000" stroke-width="2" x1="7" x2="93" y1="14.5" y2="14.5" /><line fill="none" stroke="#000000" stroke-width="2" x1="32" x2="32" y1="25" y2="3.5" /><line fill="none" stroke="#000000" stroke-width="2" x1="68" x2="68" y1="25" y2="3.5" /><path d="M51,37.5 v16.5 c0,7.276 -0.683,8 -7.5,8 c-4,0 -8.863,-0.168 -14.5,-0.5" fill="none" stroke="#000000" stroke-width="2" /><path d="M81.496,25.138 c-9.111,5.303 -18.52,9.458 -30.496,13.362" fill="none" stroke="#000000" stroke-width="2" /><path d="M57,36.5 c8.406,10.963 22.014,21.692 37.5,29" fill="none" stroke="#000000" stroke-width="2" /><path d="M90.5,36 c-7.02,4.64 -14.441,8.628 -22.5,12" fill="none" stroke="#000000" stroke-width="2" /><path d="M42.676,36.434 c-7.733,11.251 -21.621,22.156 -37.176,28.566" fill="none" stroke="#000000" stroke-width="2" /><path d="M92.5,92.5 c-4.201,-6.038 -9.068,-12.229 -15,-19" fill="none" stroke="#000000" stroke-width="2" /><path d="M67,92.75 c-2.518,-5.955 -5.578,-12.131 -9.5,-19" fill="none" stroke="#000000" stroke-width="2" /><path d="M41.5,93 c-0.834,-5.872 -2.088,-12.033 -4,-19" fill="none" stroke="#000000" stroke-width="2" /><path d="M7.5,92.5 c5.269,-5.368 10.214,-11.575 15,-19" fill="none" stroke="#000000" stroke-width="2" /></svg>