<?xml version='1.0' encoding='utf-8'?>
<svg xmlns="http://www.w3.org/2000/svg" height="100px" version="1.0" viewBox="0 0 100 100" width="100px" x="0px" y="0px">
<line fill="none" stroke="#000000" stroke-width="2" x1="59.5" x2="23.5" y1="78" y2="78" /><line fill="none" stroke="#000000" stroke-width="2" x1="7" x2="93" y1="13.5" y2="13.5" /><line fill="none" stroke="#000000" stroke-width="2" x1="32" x2="32" y1="24" y2="4.5" /><line fill="none" stroke="#000000" stroke-width="2" x1="68" x2="68" y1="22" y2="4.5" /><line fill="none" stroke="#000000" stroke-width="2" x1="42" x2="42" y1="50.5" y2="39" /><line fill="none" stroke="#000000" stroke-width="2" x1="42" x2="42" y1="78" y2="64.5" /><polyline fill="none" points="23.5,64.5 56.5,64.5 56.5,50.5 23.5,50.5" stroke="#000000" stroke-width="2" /><polyline fill="none" points="59,38 22.5,38 22.5,86" stroke="#000000" stroke-width="2" /><path d="M64.5,21.5 c0,43.867 16.334,70.5 22.5,70.5 c2.619,0 5.594,-3.526 7.5,-19" fill="none" stroke="#000000" stroke-width="2" /><path d="M86.5,37 c-6.598,26.608 -21.775,45.444 -42,55" fill="none" stroke="#000000" stroke-width="2" /><path d="M73.5,17.499 c4.884,1.863 9.912,4.126 14.5,6.501" fill="none" stroke="#000000" stroke-width="2" /><path d="M5.5,92.5 c5.376,-12.618 8,-26.491 8,-45.5 v-18.5 h78.5" fill="none" stroke="#000000" stroke-width="2" /></svg>