<?xml version='1.0' encoding='utf-8'?>
<svg xmlns="http://www.w3.org/2000/svg" height="100px" version="1.0" viewBox="0 0 100 100" width="100px" x="0px" y="0px">
<line fill="none" stroke="#000000" stroke-width="2" x1="48.5" x2="48.5" y1="21.5" y2="3" /><line fill="none" stroke="#000000" stroke-width="2" x1="24.5" x2="89.5" y1="88" y2="88" /><line fill="none" stroke="#000000" stroke-width="2" x1="24.5" x2="85.5" y1="72.5" y2="72.5" /><line fill="none" stroke="#000000" stroke-width="2" x1="18.5" x2="75.5" y1="38.5" y2="32.5" /><line fill="none" stroke="#000000" stroke-width="2" x1="48.5" x2="84.5" y1="11.5" y2="11.5" /><polyline fill="none" points="87.5,57.5 24.5,57.5 24.5,94" stroke="#000000" stroke-width="2" /><path d="M80,35 c4.43,-4.031 7.719,-8.043 10.637,-13.007" fill="none" stroke="#000000" stroke-width="2" /><path d="M4.5,91 c6.739,-14.092 10,-29.671 10,-51 v-18.5 h77.0" fill="none" stroke="#000000" stroke-width="2" /><path d="M41.5,25.5 v17.5 c0,5.396 0.12,5.5 20,5.5 c25.704,0 25.905,-0.167 27,-13.5" fill="none" stroke="#000000" stroke-width="2" /></svg>