<?xml version='1.0' encoding='utf-8'?>
<svg xmlns="http://www.w3.org/2000/svg" height="100px" version="1.0" viewBox="0 0 100 100" width="100px" x="0px" y="0px">
<line fill="none" stroke="#000000" stroke-width="2" x1="46.5" x2="88.5" y1="86" y2="86" /><line fill="none" stroke="#000000" stroke-width="2" x1="40.5" x2="95.5" y1="35.5" y2="35.5" /><line fill="none" stroke="#000000" stroke-width="2" x1="67.5" x2="67.5" y1="54" y2="15" /><line fill="none" stroke="#000000" stroke-width="2" x1="21.5" x2="21.5" y1="84.5" y2="6" /><polyline fill="none" points="45.5,93 45.5,55 89.5,55 89.5,93" stroke="#000000" stroke-width="2" /><polyline fill="none" points="7.5,52 36.5,52 36.5,21 6.5,21 6.5,60" stroke="#000000" stroke-width="2" /><path d="M42.5,17 c16.211,0 32.871,-2.7 49.5,-8" fill="none" stroke="#000000" stroke-width="2" /><path d="M40.5,88 c-1.764,-8.9 -4.873,-20.247 -8,-29" fill="none" stroke="#000000" stroke-width="2" /><path d="M3.5,90 c10.329,-2.313 22.648,-6.738 34.5,-12.5" fill="none" stroke="#000000" stroke-width="2" /></svg>