<?xml version='1.0' encoding='utf-8'?>
<svg xmlns="http://www.w3.org/2000/svg" height="100px" version="1.0" viewBox="0 0 100 100" width="100px" x="0px" y="0px">
<line fill="none" stroke="#000000" stroke-width="2" x1="28.5" x2="28.5" y1="15" y2="24" /><line fill="none" stroke="#000000" stroke-width="2" x1="13.5" x2="44" y1="41" y2="41" /><line fill="none" stroke="#000000" stroke-width="2" x1="72" x2="72" y1="86.5" y2="5.5" /><line fill="none" stroke="#000000" stroke-width="2" x1="52.5" x2="52.5" y1="23" y2="61" /><polyline fill="none" points="13.5,58 45,58 45,25 12.5,25 12.5,89.5" stroke="#000000" stroke-width="2" /><polyline fill="none" points="53.5,53 91.5,53 91.5,22 51.5,22" stroke="#000000" stroke-width="2" /><path d="M5,91.5 c13.584,-3.477 24.686,-7.87 37,-14.5" fill="none" stroke="#000000" stroke-width="2" /><path d="M48.5,22 c-7.789,-5.089 -14.078,-10.183 -20.5,-16.5 c-7.109,8.159 -15.088,15.369 -24,21.5" fill="none" stroke="#000000" stroke-width="2" /><path d="M48.5,86 c-5,-6.971 -12.082,-16.062 -18,-23" fill="none" stroke="#000000" stroke-width="2" /><path d="M96.5,93 c-3.098,-9.197 -7.741,-20.88 -12,-30" fill="none" stroke="#000000" stroke-width="2" /><path d="M47,90 c13.787,-0.902 29.799,-3.683 45.5,-8" fill="none" stroke="#000000" stroke-width="2" /></svg>