<?xml version='1.0' encoding='utf-8'?>
<svg xmlns="http://www.w3.org/2000/svg" height="100px" version="1.0" viewBox="0 0 100 100" width="100px" x="0px" y="0px">
<line fill="none" stroke="#000000" stroke-width="2" x1="50" x2="50" y1="51" y2="94" /><line fill="none" stroke="#000000" stroke-width="2" x1="38.5" x2="38.5" y1="15.5" y2="35.5" /><line fill="none" stroke="#000000" stroke-width="2" x1="61.5" x2="61.5" y1="15.5" y2="35.5" /><line fill="none" stroke="#000000" stroke-width="2" x1="5" x2="95" y1="36.5" y2="36.5" /><polyline fill="none" points="84.5,35.5 84.5,14.5 15.5,14.5 15.5,35.5" stroke="#000000" stroke-width="2" /><path d="M89.5,46 c-7.013,7.585 -15.053,14.098 -23.5,19" fill="none" stroke="#000000" stroke-width="2" /><path d="M67,39.5 c-10.399,9.268 -24.689,16.902 -40,21" fill="none" stroke="#000000" stroke-width="2" /><path d="M37.5,65.5 c-8.632,11.046 -19.944,20.128 -32,25.5" fill="none" stroke="#000000" stroke-width="2" /><path d="M34,41.5 c-7.533,9.542 -17.45,17.363 -28,22" fill="none" stroke="#000000" stroke-width="2" /><path d="M55.5,48 c7.218,16.224 21.767,32.312 39,43" fill="none" stroke="#000000" stroke-width="2" /><path d="M42,14.5 c2.625,-3.665 5.113,-7.575 7,-11" fill="none" stroke="#000000" stroke-width="2" /></svg>