<?xml version='1.0' encoding='utf-8'?>
<svg xmlns="http://www.w3.org/2000/svg" height="100px" version="1.0" viewBox="0 0 100 100" width="100px" x="0px" y="0px">
<line fill="none" stroke="#000000" stroke-width="2" x1="39" x2="95.5" y1="49.5" y2="49.5" /><line fill="none" stroke="#000000" stroke-width="2" x1="40" x2="92" y1="88" y2="88" /><line fill="none" stroke="#000000" stroke-width="2" x1="66.5" x2="66.5" y1="88" y2="16.5" /><line fill="none" stroke="#000000" stroke-width="2" x1="37" x2="5" y1="24" y2="24" /><line fill="none" stroke="#000000" stroke-width="2" x1="21" x2="21" y1="24" y2="6" /><line fill="none" stroke="#000000" stroke-width="2" x1="21" x2="21" y1="94" y2="50" /><path d="M41,19 c20.309,-0.852 36.834,-4 50,-9" fill="none" stroke="#000000" stroke-width="2" /><path d="M37,65 c-3.734,-4.671 -9.705,-11.511 -14.5,-16.5" fill="none" stroke="#000000" stroke-width="2" /><path d="M3,65.5 c15.794,-10.147 25.825,-22.294 33.068,-40.863" fill="none" stroke="#000000" stroke-width="2" /><path d="M29,55.5 c3.727,-3.937 7.364,-8.92 10.5,-14.5" fill="none" stroke="#000000" stroke-width="2" /></svg>