<?xml version='1.0' encoding='utf-8'?>
<svg xmlns="http://www.w3.org/2000/svg" height="100px" version="1.0" viewBox="0 0 100 100" width="100px" x="0px" y="0px">
<line fill="none" stroke="#000000" stroke-width="2" x1="28.5" x2="92.5" y1="25" y2="20" /><line fill="none" stroke="#000000" stroke-width="2" x1="21.5" x2="21.5" y1="47.5" y2="21" /><line fill="none" stroke="#000000" stroke-width="2" x1="50" x2="50" y1="53" y2="42" /><line fill="none" stroke="#000000" stroke-width="2" x1="7" x2="93" y1="53" y2="53" /><line fill="none" stroke="#000000" stroke-width="2" x1="30.5" x2="30.5" y1="89" y2="64.5" /><path d="M52,6.5 c3.561,23.036 21.813,41 32.5,41 c3.153,0 6.221,-3.089 9,-12" fill="none" stroke="#000000" stroke-width="2" /><path d="M68.5,7 c6.027,2.11 12.662,4.894 18,7.5" fill="none" stroke="#000000" stroke-width="2" /><path d="M33,7 c-5.637,9.533 -15.189,18.372 -27.5,25" fill="none" stroke="#000000" stroke-width="2" /><path d="M49,53 c-9.934,8.225 -24.082,15.519 -44,21.5" fill="none" stroke="#000000" stroke-width="2" /><path d="M51,53 c7.448,17.7 23.893,32.38 44,39" fill="none" stroke="#000000" stroke-width="2" /><path d="M11,92 c17.236,-2.379 32.201,-5.524 50,-10.5" fill="none" stroke="#000000" stroke-width="2" /><path d="M65.5,74 c8.107,-4.575 15.371,-10.011 21.5,-16" fill="none" stroke="#000000" stroke-width="2" /></svg>