<?xml version='1.0' encoding='utf-8'?>
<svg xmlns="http://www.w3.org/2000/svg" height="100px" version="1.0" viewBox="0 0 100 100" width="100px" x="0px" y="0px">
<line fill="none" stroke="#000000" stroke-width="2" x1="41.5" x2="90.5" y1="39" y2="39" /><line fill="none" stroke="#000000" stroke-width="2" x1="67" x2="67" y1="39" y2="5" /><line fill="none" stroke="#000000" stroke-width="2" x1="34.5" x2="4.5" y1="24" y2="24" /><line fill="none" stroke="#000000" stroke-width="2" x1="19.5" x2="19.5" y1="24" y2="6" /><line fill="none" stroke="#000000" stroke-width="2" x1="19.5" x2="19.5" y1="94" y2="50" /><path d="M87,33 c3.389,-4.989 5.912,-10.032 8.056,-16.323" fill="none" stroke="#000000" stroke-width="2" /><path d="M39,91 c21.447,-6.523 39.112,-23.589 50.575,-51.381" fill="none" stroke="#000000" stroke-width="2" /><path d="M96.5,91 c-20.949,-6.802 -36.56,-21.919 -46,-47" fill="none" stroke="#000000" stroke-width="2" /><path d="M29.5,91.5 c8.088,-14.092 12,-29.671 12,-51 V16.0 H96.0" fill="none" stroke="#000000" stroke-width="2" /><path d="M34,65 c-3.469,-4.677 -9.035,-11.511 -13.5,-16.5" fill="none" stroke="#000000" stroke-width="2" /><path d="M2.5,65.5 c14.835,-10.144 24.258,-22.283 31.061,-40.844" fill="none" stroke="#000000" stroke-width="2" /><path d="M27,56 c3.371,-3.937 6.654,-8.925 9.5,-14.5" fill="none" stroke="#000000" stroke-width="2" /></svg>