<?xml version='1.0' encoding='utf-8'?>
<svg xmlns="http://www.w3.org/2000/svg" height="100px" version="1.0" viewBox="0 0 100 100" width="100px" x="0px" y="0px">
<line fill="none" stroke="#000000" stroke-width="2" x1="31.5" x2="31.5" y1="52.5" y2="41.5" /><line fill="none" stroke="#000000" stroke-width="2" x1="7" x2="59" y1="52.5" y2="52.5" /><line fill="none" stroke="#000000" stroke-width="2" x1="19.5" x2="19.5" y1="88" y2="64.5" /><line fill="none" stroke="#000000" stroke-width="2" x1="6" x2="94" y1="37.5" y2="37.5" /><line fill="none" stroke="#000000" stroke-width="2" x1="31.5" x2="31.5" y1="37.5" y2="6" /><line fill="none" stroke="#000000" stroke-width="2" x1="54" x2="9" y1="18.5" y2="18.5" /><path d="M31,52.5 c-5.983,8.225 -14.567,15.394 -26.5,21.5" fill="none" stroke="#000000" stroke-width="2" /><path d="M32,52.5 c3.662,11.2 12.667,21.539 25,28.5" fill="none" stroke="#000000" stroke-width="2" /><path d="M8.5,91 c11.673,-2.665 21.86,-6.116 34,-11.5" fill="none" stroke="#000000" stroke-width="2" /><path d="M43.5,70.5 c4.09,-2.892 8.64,-7.367 13,-13" fill="none" stroke="#000000" stroke-width="2" /><path d="M88,46 c-7.574,22.249 -21.754,37.772 -42,47" fill="none" stroke="#000000" stroke-width="2" /><path d="M64,5.5 c0,59.849 18.559,85.5 23,85.5 c2.407,0 5.804,-2.614 8,-23" fill="none" stroke="#000000" stroke-width="2" /><path d="M75,9.5 c4.715,5.156 9.57,11.425 14,18" fill="none" stroke="#000000" stroke-width="2" /></svg>