<?xml version='1.0' encoding='utf-8'?>
<svg xmlns="http://www.w3.org/2000/svg" height="100px" version="1.0" viewBox="0 0 100 100" width="100px" x="0px" y="0px">
<line fill="none" stroke="#000000" stroke-width="2" x1="30.5" x2="30.5" y1="50.5" y2="6" /><line fill="none" stroke="#000000" stroke-width="2" x1="38" x2="91" y1="41.5" y2="41.5" /><line fill="none" stroke="#000000" stroke-width="2" x1="93" x2="36" y1="18" y2="18" /><line fill="none" stroke="#000000" stroke-width="2" x1="65" x2="65" y1="41.5" y2="6" /><line fill="none" stroke="#000000" stroke-width="2" x1="50" x2="50" y1="56" y2="45.5" /><line fill="none" stroke="#000000" stroke-width="2" x1="7" x2="93" y1="56" y2="56" /><line fill="none" stroke="#000000" stroke-width="2" x1="30.5" x2="30.5" y1="89" y2="67" /><path d="M7.5,13 c5.908,4.212 11.078,8.442 16,13" fill="none" stroke="#000000" stroke-width="2" /><path d="M30.5,32.5 c-8.697,3.308 -16.58,6.062 -26,9" fill="none" stroke="#000000" stroke-width="2" /><path d="M49,56 c-9.934,7.651 -24.082,14.437 -44,20" fill="none" stroke="#000000" stroke-width="2" /><path d="M51,56 c7.448,16.339 23.893,29.89 44,36" fill="none" stroke="#000000" stroke-width="2" /><path d="M11,92 c17.236,-2.266 32.201,-5.261 50,-10" fill="none" stroke="#000000" stroke-width="2" /><path d="M65.5,75.5 c8.107,-4.224 15.449,-9.387 21.5,-15" fill="none" stroke="#000000" stroke-width="2" /></svg>