<?xml version='1.0' encoding='utf-8'?>
<svg xmlns="http://www.w3.org/2000/svg" height="100px" version="1.0" viewBox="0 0 100 100" width="100px" x="0px" y="0px">
<line fill="none" stroke="#000000" stroke-width="2" x1="39" x2="91" y1="66.5" y2="66.5" /><line fill="none" stroke="#000000" stroke-width="2" x1="39" x2="91" y1="46.5" y2="46.5" /><line fill="none" stroke="#000000" stroke-width="2" x1="65" x2="65" y1="5" y2="91" /><line fill="none" stroke="#000000" stroke-width="2" x1="34" x2="96" y1="15" y2="15" /><line fill="none" stroke="#000000" stroke-width="2" x1="33.5" x2="4" y1="24" y2="24" /><line fill="none" stroke="#000000" stroke-width="2" x1="18.5" x2="18.5" y1="24" y2="6" /><line fill="none" stroke="#000000" stroke-width="2" x1="18.5" x2="18.5" y1="94" y2="50.5" /><path d="M75.5,4.5 c4.902,2.214 10.408,4.978 15,7.5" fill="none" stroke="#000000" stroke-width="2" /><path d="M38,93 v-64.5 h54.0 v55.0 c0,7.222 -0.622,8 -5,8 c-1.717,0 -6.623,-0.18 -12,-0.5" fill="none" stroke="#000000" stroke-width="2" /><path d="M33,65 c-3.469,-4.677 -9.035,-11.511 -13.5,-16.5" fill="none" stroke="#000000" stroke-width="2" /><path d="M2.5,65.5 c14.356,-10.141 23.476,-22.278 30.059,-40.834" fill="none" stroke="#000000" stroke-width="2" /><path d="M26,56 c3.371,-3.937 6.654,-8.925 9.5,-14.5" fill="none" stroke="#000000" stroke-width="2" /></svg>