<?xml version='1.0' encoding='utf-8'?>
<svg xmlns="http://www.w3.org/2000/svg" height="100px" version="1.0" viewBox="0 0 100 100" width="100px" x="0px" y="0px">
<line fill="none" stroke="#000000" stroke-width="2" x1="50" x2="50" y1="60.5" y2="52" /><line fill="none" stroke="#000000" stroke-width="2" x1="7" x2="93" y1="60.5" y2="60.5" /><line fill="none" stroke="#000000" stroke-width="2" x1="30.5" x2="30.5" y1="89.5" y2="70" /><line fill="none" stroke="#000000" stroke-width="2" x1="15.5" x2="56" y1="14" y2="14" /><line fill="none" stroke="#000000" stroke-width="2" x1="8" x2="59" y1="24.5" y2="24.5" /><line fill="none" stroke="#000000" stroke-width="2" x1="33" x2="33" y1="55.5" y2="5.5" /><line fill="none" stroke="#000000" stroke-width="2" x1="66.5" x2="66.5" y1="44" y2="8.5" /><path d="M49,60.5 c-9.934,6.644 -24.104,12.613 -44,17.5" fill="none" stroke="#000000" stroke-width="2" /><path d="M51,60.5 c7.319,14.047 23.418,25.703 44,31.5" fill="none" stroke="#000000" stroke-width="2" /><path d="M11,92 c17.232,-1.945 32.201,-4.481 50,-8.5" fill="none" stroke="#000000" stroke-width="2" /><path d="M65.5,77.5 c8.092,-3.718 15.371,-8.162 21.5,-13" fill="none" stroke="#000000" stroke-width="2" /><path d="M13,51.5 V34.0 h41.0 v7.5 c0,7.567 -0.348,8 -5,8 c-1.537,0 -4.525,-0.159 -9.5,-0.5" fill="none" stroke="#000000" stroke-width="2" /><path d="M88,6.5 v39.0 c0,7.13 -0.867,8 -6.5,8 c-2.75,0 -6.917,-0.144 -12.5,-0.5" fill="none" stroke="#000000" stroke-width="2" /><path d="M9.5,22 c4.291,-4.304 7.387,-9.688 9,-15.5" fill="none" stroke="#000000" stroke-width="2" /></svg>