<?xml version='1.0' encoding='utf-8'?>
<svg xmlns="http://www.w3.org/2000/svg" height="100px" version="1.0" viewBox="0 0 100 100" width="100px" x="0px" y="0px">
<line fill="none" stroke="#000000" stroke-width="2" x1="95" x2="45" y1="14" y2="14" /><line fill="none" stroke="#000000" stroke-width="2" x1="43" x2="89" y1="37.5" y2="37.5" /><line fill="none" stroke="#000000" stroke-width="2" x1="47.5" x2="88.5" y1="61" y2="61" /><line fill="none" stroke="#000000" stroke-width="2" x1="34.5" x2="4.5" y1="24" y2="24" /><line fill="none" stroke="#000000" stroke-width="2" x1="19.5" x2="19.5" y1="24" y2="6" /><line fill="none" stroke="#000000" stroke-width="2" x1="19.5" x2="19.5" y1="94" y2="50" /><polyline fill="none" points="43,52 90,52 90,24 42,24 42,53" stroke="#000000" stroke-width="2" /><path d="M33.5,35 c6.263,-8.317 11.515,-19.521 14.5,-31" fill="none" stroke="#000000" stroke-width="2" /><path d="M31,73 c9.915,-4.911 19.99,-14.234 23.5,-21" fill="none" stroke="#000000" stroke-width="2" /><path d="M87.677,61.434 c-9.962,14.512 -30.242,25.998 -58.677,30.566" fill="none" stroke="#000000" stroke-width="2" /><path d="M96,92 c-20.959,-6.163 -39.243,-17.306 -50,-30" fill="none" stroke="#000000" stroke-width="2" /><path d="M34,65 c-3.469,-4.677 -9.035,-11.511 -13.5,-16.5" fill="none" stroke="#000000" stroke-width="2" /><path d="M2.5,65.5 c14.835,-10.144 24.258,-22.283 31.061,-40.844" fill="none" stroke="#000000" stroke-width="2" /><path d="M27,56 c3.371,-3.937 6.654,-8.925 9.5,-14.5" fill="none" stroke="#000000" stroke-width="2" /></svg>