<?xml version='1.0' encoding='utf-8'?>
<svg xmlns="http://www.w3.org/2000/svg" height="100px" version="1.0" viewBox="0 0 100 100" width="100px" x="0px" y="0px">
<line fill="none" stroke="#000000" stroke-width="2" x1="38.5" x2="4.5" y1="24" y2="24" /><line fill="none" stroke="#000000" stroke-width="2" x1="21.5" x2="21.5" y1="24" y2="6" /><line fill="none" stroke="#000000" stroke-width="2" x1="21.5" x2="21.5" y1="94" y2="50" /><line fill="none" stroke="#000000" stroke-width="2" x1="46" x2="87" y1="44" y2="44" /><line fill="none" stroke="#000000" stroke-width="2" x1="46" x2="87" y1="27" y2="27" /><polyline fill="none" points="46,62 88,62 88,10.5 45,10.5 45,63" stroke="#000000" stroke-width="2" /><path d="M40,67 c-4.434,-5.175 -11.332,-12.456 -17,-18" fill="none" stroke="#000000" stroke-width="2" /><path d="M2.5,65.5 c16.756,-10.153 27.396,-22.303 35.077,-40.882" fill="none" stroke="#000000" stroke-width="2" /><path d="M73,63 v22.5 c0,3.702 0.772,4.548 4,4.8 c1.561,0.123 3.299,0.2 5,0.2 c1.922,0 3.783,-0.064 5.5,-0.2 c5.238,-0.408 6.208,-1.758 7,-22.3" fill="none" stroke="#000000" stroke-width="2" /><path d="M32.5,92 c17.416,-5.879 27,-17.066 27,-30" fill="none" stroke="#000000" stroke-width="2" /></svg>