<?xml version='1.0' encoding='utf-8'?>
<svg xmlns="http://www.w3.org/2000/svg" height="100px" version="1.0" viewBox="0 0 100 100" width="100px" x="0px" y="0px">
<line fill="none" stroke="#000000" stroke-width="2" x1="30.5" x2="30.5" y1="9.5" y2="16.5" /><line fill="none" stroke="#000000" stroke-width="2" x1="30.5" x2="30.5" y1="27.5" y2="34.5" /><line fill="none" stroke="#000000" stroke-width="2" x1="12.5" x2="51" y1="35.5" y2="35.5" /><line fill="none" stroke="#000000" stroke-width="2" x1="93" x2="60" y1="12" y2="12" /><line fill="none" stroke="#000000" stroke-width="2" x1="90" x2="56.5" y1="28" y2="28" /><line fill="none" stroke="#000000" stroke-width="2" x1="19" x2="81" y1="64.5" y2="64.5" /><line fill="none" stroke="#000000" stroke-width="2" x1="19" x2="81" y1="53.5" y2="53.5" /><polyline fill="none" points="50,8.5 11.5,8.5 11.5,40.5" stroke="#000000" stroke-width="2" /><polyline fill="none" points="12.5,26.5 46,26.5 46,17.5 12.5,17.5" stroke="#000000" stroke-width="2" /><polyline fill="none" points="19,75.5 82,75.5 82,42.5 18,42.5 18,76.5" stroke="#000000" stroke-width="2" /><path d="M50,24 c6.023,-5.383 11.117,-12.594 14,-20" fill="none" stroke="#000000" stroke-width="2" /><path d="M58,76.5 v11.0 c0,4.659 0.434,5 16,5 c14.483,0 14.707,-0.156 16,-17.5" fill="none" stroke="#000000" stroke-width="2" /><path d="M9,93.5 c19.295,-2.267 30.236,-9.81 31,-18" fill="none" stroke="#000000" stroke-width="2" /></svg>