<?xml version='1.0' encoding='utf-8'?>
<svg xmlns="http://www.w3.org/2000/svg" height="100px" version="1.0" viewBox="0 0 100 100" width="100px" x="0px" y="0px">
<line fill="none" stroke="#000000" stroke-width="2" x1="52.5" x2="52.5" y1="23" y2="61" /><line fill="none" stroke="#000000" stroke-width="2" x1="72" x2="72" y1="87" y2="5.5" /><line fill="none" stroke="#000000" stroke-width="2" x1="18.5" x2="37" y1="11" y2="11" /><line fill="none" stroke="#000000" stroke-width="2" x1="11" x2="43" y1="66" y2="66" /><line fill="none" stroke="#000000" stroke-width="2" x1="11.5" x2="43" y1="45.5" y2="45.5" /><line fill="none" stroke="#000000" stroke-width="2" x1="27.5" x2="27.5" y1="27" y2="65" /><polyline fill="none" points="53.5,53 91.5,53 91.5,22 51.5,22" stroke="#000000" stroke-width="2" /><path d="M96.5,93 c-3.098,-9.197 -7.741,-20.88 -12,-30" fill="none" stroke="#000000" stroke-width="2" /><path d="M48.5,90 c13.332,-0.902 28.816,-3.683 44,-8" fill="none" stroke="#000000" stroke-width="2" /><path d="M29,26 c2.492,-4.415 5.027,-9.584 7.086,-14.395" fill="none" stroke="#000000" stroke-width="2" /><path d="M6,33 c7.038,-8.735 12.346,-19.179 15.5,-30.5" fill="none" stroke="#000000" stroke-width="2" /><path d="M6,92.5 c3.793,-9.42 5.5,-20.622 5.5,-46.5 v-20.0 h32.5 v57.0 c0,7.533 -0.553,8 -6,8 c-1.975,0 -5.645,-0.166 -11.5,-0.5" fill="none" stroke="#000000" stroke-width="2" /></svg>