<?xml version='1.0' encoding='utf-8'?>
<svg xmlns="http://www.w3.org/2000/svg" height="100px" version="1.0" viewBox="0 0 100 100" width="100px" x="0px" y="0px">
<line fill="none" stroke="#000000" stroke-width="2" x1="63.5" x2="63.5" y1="21" y2="4" /><line fill="none" stroke="#000000" stroke-width="2" x1="39.5" x2="96.5" y1="21" y2="21" /><line fill="none" stroke="#000000" stroke-width="2" x1="6" x2="38" y1="24" y2="24" /><line fill="none" stroke="#000000" stroke-width="2" x1="9.5" x2="35.5" y1="38" y2="38" /><line fill="none" stroke="#000000" stroke-width="2" x1="9.5" x2="35.5" y1="52" y2="52" /><line fill="none" stroke="#000000" stroke-width="2" x1="9" x2="36" y1="10.5" y2="10.5" /><polyline fill="none" points="11,88.5 35,88.5 35,66 10,66 10,94.5" stroke="#000000" stroke-width="2" /><path d="M38.5,91 c12.603,-12.759 18,-29.259 18,-69" fill="none" stroke="#000000" stroke-width="2" /><path d="M56,41 h34.0 c0,39.336 -5.385,48 -13.5,48 c-3.299,0 -9.311,-0.322 -16.5,-1" fill="none" stroke="#000000" stroke-width="2" /></svg>