<?xml version='1.0' encoding='utf-8'?>
<svg xmlns="http://www.w3.org/2000/svg" height="100px" version="1.0" viewBox="0 0 100 100" width="100px" x="0px" y="0px">
<line fill="none" stroke="#000000" stroke-width="2" x1="6" x2="39" y1="24" y2="24" /><line fill="none" stroke="#000000" stroke-width="2" x1="9.5" x2="35.5" y1="38" y2="38" /><line fill="none" stroke="#000000" stroke-width="2" x1="9.5" x2="35.5" y1="52" y2="52" /><line fill="none" stroke="#000000" stroke-width="2" x1="9" x2="36" y1="10.5" y2="10.5" /><line fill="none" stroke="#000000" stroke-width="2" x1="81.5" x2="46" y1="27.5" y2="27.5" /><polyline fill="none" points="11,88.5 35,88.5 35,66 10,66 10,94.5" stroke="#000000" stroke-width="2" /><polyline fill="none" points="49,81.5 49,43.5 77.5,43.5 77.5,72.5 50,72.5" stroke="#000000" stroke-width="2" /><path d="M43,11 h47.5 v71.0 c0,7.472 -0.477,8 -6.5,8 c-2.166,0 -6.078,-0.144 -12.5,-0.5" fill="none" stroke="#000000" stroke-width="2" /></svg>