<?xml version='1.0' encoding='utf-8'?>
<svg xmlns="http://www.w3.org/2000/svg" height="100px" version="1.0" viewBox="0 0 100 100" width="100px" x="0px" y="0px">
<line fill="none" stroke="#000000" stroke-width="2" x1="5.5" x2="38.5" y1="24" y2="24" /><line fill="none" stroke="#000000" stroke-width="2" x1="9" x2="35" y1="38" y2="38" /><line fill="none" stroke="#000000" stroke-width="2" x1="9" x2="35" y1="52" y2="52" /><line fill="none" stroke="#000000" stroke-width="2" x1="8.5" x2="35.5" y1="10.5" y2="10.5" /><line fill="none" stroke="#000000" stroke-width="2" x1="39.5" x2="95.5" y1="16.5" y2="16.5" /><line fill="none" stroke="#000000" stroke-width="2" x1="67.5" x2="67.5" y1="16.5" y2="4" /><polyline fill="none" points="10.5,88.5 34.5,88.5 34.5,66 9.5,66 9.5,94.5" stroke="#000000" stroke-width="2" /><path d="M40.5,70.5 c19.688,-8.681 36.237,-24.435 46,-44" fill="none" stroke="#000000" stroke-width="2" /><path d="M39.5,91 c21.503,-7.318 41.034,-22.928 53,-42" fill="none" stroke="#000000" stroke-width="2" /><path d="M68,52 c-6.924,-7.151 -16.293,-15.439 -24.5,-21.5" fill="none" stroke="#000000" stroke-width="2" /><path d="M53,38 c5.081,-5.642 9.839,-12.621 14.5,-21.5" fill="none" stroke="#000000" stroke-width="2" /><path d="M95.5,91.5 c-4.808,-8.011 -10.898,-14.807 -20,-22" fill="none" stroke="#000000" stroke-width="2" /></svg>