<?xml version='1.0' encoding='utf-8'?>
<svg xmlns="http://www.w3.org/2000/svg" height="100px" version="1.0" viewBox="0 0 100 100" width="100px" x="0px" y="0px">
<line fill="none" stroke="#000000" stroke-width="2" x1="6" x2="39" y1="24" y2="24" /><line fill="none" stroke="#000000" stroke-width="2" x1="9.5" x2="35.5" y1="38" y2="38" /><line fill="none" stroke="#000000" stroke-width="2" x1="9.5" x2="35.5" y1="52" y2="52" /><line fill="none" stroke="#000000" stroke-width="2" x1="9" x2="36" y1="10.5" y2="10.5" /><line fill="none" stroke="#000000" stroke-width="2" x1="43.5" x2="91" y1="44.5" y2="44.5" /><line fill="none" stroke="#000000" stroke-width="2" x1="93" x2="42" y1="19.5" y2="19.5" /><line fill="none" stroke="#000000" stroke-width="2" x1="67" x2="67" y1="44.5" y2="5" /><polyline fill="none" points="11,88.5 35,88.5 35,66 10,66 10,94.5" stroke="#000000" stroke-width="2" /><path d="M56.5,56.5 v27.5 c0,5.956 0.515,6.431 4.5,6.75 c2.245,0.18 4.9,0.25 7.5,0.25 c2.844,0 5.401,-0.082 7.5,-0.25 c6.59,-0.528 7.428,-1.442 8.5,-16.25" fill="none" stroke="#000000" stroke-width="2" /><path d="M39,86 c3.637,-7.165 6.688,-16.34 8.5,-26" fill="none" stroke="#000000" stroke-width="2" /><path d="M95,85.5 c-2.732,-8.726 -6.135,-17.583 -10,-26" fill="none" stroke="#000000" stroke-width="2" /><path d="M60.5,50.5 c6.145,4.754 11.142,9.436 17,16" fill="none" stroke="#000000" stroke-width="2" /></svg>