<?xml version='1.0' encoding='utf-8'?>
<svg xmlns="http://www.w3.org/2000/svg" height="100px" version="1.0" viewBox="0 0 100 100" width="100px" x="0px" y="0px">
<line fill="none" stroke="#000000" stroke-width="2" x1="6.5" x2="39.5" y1="24" y2="24" /><line fill="none" stroke="#000000" stroke-width="2" x1="10" x2="36" y1="38" y2="38" /><line fill="none" stroke="#000000" stroke-width="2" x1="10" x2="36" y1="52" y2="52" /><line fill="none" stroke="#000000" stroke-width="2" x1="9.5" x2="36.5" y1="10.5" y2="10.5" /><polyline fill="none" points="11.5,88.5 35.5,88.5 35.5,66 10.5,66 10.5,94.5" stroke="#000000" stroke-width="2" /><path d="M57,56.5 v27.5 c0,5.956 0.515,6.431 4.5,6.75 c2.245,0.18 4.9,0.25 7.5,0.25 c2.844,0 5.401,-0.082 7.5,-0.25 c6.59,-0.528 7.428,-1.442 8.5,-16.25" fill="none" stroke="#000000" stroke-width="2" /><path d="M39.5,86 c3.637,-7.165 6.688,-16.34 8.5,-26" fill="none" stroke="#000000" stroke-width="2" /><path d="M95.5,85.5 c-2.732,-8.726 -6.135,-17.583 -10,-26" fill="none" stroke="#000000" stroke-width="2" /><path d="M61,48.5 c6.145,4.754 11.142,9.436 17,16" fill="none" stroke="#000000" stroke-width="2" /><path d="M39,51 c15.033,-7.313 25.311,-21.905 27,-40" fill="none" stroke="#000000" stroke-width="2" /><path d="M47.5,18 c10.061,4.749 19.016,10.474 31,20" fill="none" stroke="#000000" stroke-width="2" /><path d="M43,11 h48.0 c0,27.856 -4.212,36 -9.5,36 c-2.34,0 -5.985,-0.304 -10.5,-1" fill="none" stroke="#000000" stroke-width="2" /></svg>