<?xml version='1.0' encoding='utf-8'?>
<svg xmlns="http://www.w3.org/2000/svg" height="100px" version="1.0" viewBox="0 0 100 100" width="100px" x="0px" y="0px">
<line fill="none" stroke="#000000" stroke-width="2" x1="6" x2="32" y1="24" y2="24" /><line fill="none" stroke="#000000" stroke-width="2" x1="8" x2="30" y1="38" y2="38" /><line fill="none" stroke="#000000" stroke-width="2" x1="8" x2="30" y1="52" y2="52" /><line fill="none" stroke="#000000" stroke-width="2" x1="7.5" x2="30.5" y1="10.5" y2="10.5" /><line fill="none" stroke="#000000" stroke-width="2" x1="53.5" x2="34" y1="42" y2="42" /><line fill="none" stroke="#000000" stroke-width="2" x1="53" x2="34" y1="12" y2="12" /><line fill="none" stroke="#000000" stroke-width="2" x1="76" x2="93" y1="42" y2="42" /><line fill="none" stroke="#000000" stroke-width="2" x1="51.5" x2="94.5" y1="76" y2="76" /><line fill="none" stroke="#000000" stroke-width="2" x1="76" x2="76" y1="76" y2="13.5" /><line fill="none" stroke="#000000" stroke-width="2" x1="60" x2="60" y1="76" y2="32" /><polyline fill="none" points="9.5,88.5 29.5,88.5 29.5,66 8.5,66 8.5,94.5" stroke="#000000" stroke-width="2" /><path d="M32,92 c10.768,-12.49 18.032,-29.5 20.508,-49.125" fill="none" stroke="#000000" stroke-width="2" /><path d="M34.793,41.611 c7.205,-9.351 12.759,-18.699 17.292,-29.014" fill="none" stroke="#000000" stroke-width="2" /><path d="M94.5,90 h-5.5 c-32.465,0 -44.473,-7.802 -54.5,-39" fill="none" stroke="#000000" stroke-width="2" /><path d="M55.5,16.5 c14.504,-1.179 27.369,-3.942 37,-7.5" fill="none" stroke="#000000" stroke-width="2" /></svg>