<?xml version='1.0' encoding='utf-8'?>
<svg xmlns="http://www.w3.org/2000/svg" height="100px" version="1.0" viewBox="0 0 100 100" width="100px" x="0px" y="0px">
<line fill="none" stroke="#000000" stroke-width="2" x1="5" x2="35.5" y1="24" y2="24" /><line fill="none" stroke="#000000" stroke-width="2" x1="8.5" x2="33" y1="38" y2="38" /><line fill="none" stroke="#000000" stroke-width="2" x1="8.5" x2="33" y1="52" y2="52" /><line fill="none" stroke="#000000" stroke-width="2" x1="8" x2="33.5" y1="10.5" y2="10.5" /><polyline fill="none" points="10,88.5 32.5,88.5 32.5,66 9,66 9,94.5" stroke="#000000" stroke-width="2" /><path d="M91,31 c-6.896,30.089 -19.534,47.376 -42,60" fill="none" stroke="#000000" stroke-width="2" /><path d="M71,4.5 c0,59.849 14.547,86.5 18.5,86.5 c1.781,0 4.375,-2.614 6,-23" fill="none" stroke="#000000" stroke-width="2" /><path d="M77,4.5 c4.775,3.049 9.523,6.589 13.5,10" fill="none" stroke="#000000" stroke-width="2" /><path d="M36.5,91.5 c4.15,-10.845 7,-29.421 7,-51 v-22.0 h51.5" fill="none" stroke="#000000" stroke-width="2" /><path d="M43.5,35 h21.0 c0,35.96 -0.031,36 -7.5,36 c-1.495,0 -6.192,-0.399 -11,-1" fill="none" stroke="#000000" stroke-width="2" /></svg>