<?xml version='1.0' encoding='utf-8'?>
<svg xmlns="http://www.w3.org/2000/svg" height="100px" version="1.0" viewBox="0 0 100 100" width="100px" x="0px" y="0px">
<line fill="none" stroke="#000000" stroke-width="2" x1="96" x2="37.5" y1="64" y2="64" /><line fill="none" stroke="#000000" stroke-width="2" x1="6" x2="37.5" y1="24" y2="24" /><line fill="none" stroke="#000000" stroke-width="2" x1="9.5" x2="34" y1="38" y2="38" /><line fill="none" stroke="#000000" stroke-width="2" x1="9.5" x2="34" y1="52" y2="52" /><line fill="none" stroke="#000000" stroke-width="2" x1="9" x2="34.5" y1="10.5" y2="10.5" /><polyline fill="none" points="57,37 89.5,37 89.5,10 56,10 56,38" stroke="#000000" stroke-width="2" /><polyline fill="none" points="85.5,64 85.5,49.5 45,49.5 45,14" stroke="#000000" stroke-width="2" /><polyline fill="none" points="11,88.5 33.5,88.5 33.5,66 10,66 10,94.5" stroke="#000000" stroke-width="2" /><path d="M37,92 c9.484,-6.039 17.688,-14.248 22.5,-22" fill="none" stroke="#000000" stroke-width="2" /><path d="M94.5,93 c-5.804,-7.563 -13.789,-15.668 -22.5,-22.5" fill="none" stroke="#000000" stroke-width="2" /></svg>