<?xml version='1.0' encoding='utf-8'?>
<svg xmlns="http://www.w3.org/2000/svg" height="100px" version="1.0" viewBox="0 0 100 100" width="100px" x="0px" y="0px">
<line fill="none" stroke="#000000" stroke-width="2" x1="48" x2="48" y1="20.5" y2="94" /><line fill="none" stroke="#000000" stroke-width="2" x1="93.5" x2="48.5" y1="20" y2="20" /><line fill="none" stroke="#000000" stroke-width="2" x1="72" x2="72" y1="87" y2="20" /><line fill="none" stroke="#000000" stroke-width="2" x1="49" x2="95" y1="87" y2="87" /><line fill="none" stroke="#000000" stroke-width="2" x1="48" x2="91.5" y1="64" y2="64" /><line fill="none" stroke="#000000" stroke-width="2" x1="48" x2="91.5" y1="41.5" y2="41.5" /><line fill="none" stroke="#000000" stroke-width="2" x1="6.5" x2="41.5" y1="24" y2="24" /><line fill="none" stroke="#000000" stroke-width="2" x1="10" x2="39" y1="38" y2="38" /><line fill="none" stroke="#000000" stroke-width="2" x1="10" x2="39" y1="52" y2="52" /><line fill="none" stroke="#000000" stroke-width="2" x1="9.5" x2="39.5" y1="10.5" y2="10.5" /><polyline fill="none" points="11.5,88.5 38.5,88.5 38.5,66 10.5,66 10.5,94.5" stroke="#000000" stroke-width="2" /><path d="M38.5,33.5 c7.322,-7.635 12.523,-17.039 16,-29.5" fill="none" stroke="#000000" stroke-width="2" /><path d="M79.5,4 c-2.172,5.901 -4.801,11.103 -8,16" fill="none" stroke="#000000" stroke-width="2" /></svg>