<?xml version='1.0' encoding='utf-8'?>
<svg xmlns="http://www.w3.org/2000/svg" height="100px" version="1.0" viewBox="0 0 100 100" width="100px" x="0px" y="0px">
<line fill="none" stroke="#000000" stroke-width="2" x1="38" x2="95" y1="38.5" y2="38.5" /><line fill="none" stroke="#000000" stroke-width="2" x1="93" x2="39" y1="13.5" y2="13.5" /><line fill="none" stroke="#000000" stroke-width="2" x1="90" x2="42" y1="26" y2="26" /><line fill="none" stroke="#000000" stroke-width="2" x1="66.5" x2="66.5" y1="38.5" y2="5" /><line fill="none" stroke="#000000" stroke-width="2" x1="44.5" x2="87.5" y1="75" y2="75" /><line fill="none" stroke="#000000" stroke-width="2" x1="44.5" x2="87.5" y1="62" y2="62" /><line fill="none" stroke="#000000" stroke-width="2" x1="6" x2="38" y1="24" y2="24" /><line fill="none" stroke="#000000" stroke-width="2" x1="9.5" x2="34.5" y1="38" y2="38" /><line fill="none" stroke="#000000" stroke-width="2" x1="9.5" x2="34.5" y1="52" y2="52" /><line fill="none" stroke="#000000" stroke-width="2" x1="9" x2="35" y1="10.5" y2="10.5" /><polyline fill="none" points="11,88.5 34,88.5 34,66 10,66 10,94.5" stroke="#000000" stroke-width="2" /><path d="M43.5,92 V49.0 h45.0 v36.96 c0,4.177 -0.469,4.54 -7.5,4.54 c-2.172,0 -5.876,-0.137 -12.5,-0.5" fill="none" stroke="#000000" stroke-width="2" /></svg>