<?xml version='1.0' encoding='utf-8'?>
<svg xmlns="http://www.w3.org/2000/svg" height="100px" version="1.0" viewBox="0 0 100 100" width="100px" x="0px" y="0px">
<line fill="none" stroke="#000000" stroke-width="2" x1="84" x2="48" y1="28" y2="28" /><line fill="none" stroke="#000000" stroke-width="2" x1="5.5" x2="35" y1="24" y2="24" /><line fill="none" stroke="#000000" stroke-width="2" x1="8.5" x2="32" y1="38" y2="38" /><line fill="none" stroke="#000000" stroke-width="2" x1="8.5" x2="32" y1="52" y2="52" /><line fill="none" stroke="#000000" stroke-width="2" x1="8" x2="32.5" y1="10.5" y2="10.5" /><line fill="none" stroke="#000000" stroke-width="2" x1="58" x2="58" y1="42" y2="91" /><line fill="none" stroke="#000000" stroke-width="2" x1="75" x2="75" y1="42" y2="91" /><line fill="none" stroke="#000000" stroke-width="2" x1="42" x2="91" y1="63.5" y2="63.5" /><polyline fill="none" points="10,88.5 31.5,88.5 31.5,66 9,66 9,94.5" stroke="#000000" stroke-width="2" /><path d="M97,33 c-11.623,-8.155 -21.439,-16.672 -31,-26.8 c-9.561,10.128 -19.377,18.645 -31,26.8" fill="none" stroke="#000000" stroke-width="2" /><path d="M81,90.5 c3.77,0.359 6.493,0.5 7.5,0.5 c2.975,0 3.5,-0.672 3.5,-8 v-42.0 h-51.0 v52.0" fill="none" stroke="#000000" stroke-width="2" /></svg>