<?xml version='1.0' encoding='utf-8'?>
<svg xmlns="http://www.w3.org/2000/svg" height="100px" version="1.0" viewBox="0 0 100 100" width="100px" x="0px" y="0px">
<line fill="none" stroke="#000000" stroke-width="2" x1="84" x2="48" y1="27" y2="27" /><line fill="none" stroke="#000000" stroke-width="2" x1="40.5" x2="61.5" y1="53.5" y2="53.5" /><line fill="none" stroke="#000000" stroke-width="2" x1="40.5" x2="61.5" y1="70" y2="70" /><line fill="none" stroke="#000000" stroke-width="2" x1="73.5" x2="73.5" y1="79" y2="39" /><line fill="none" stroke="#000000" stroke-width="2" x1="5.5" x2="35" y1="24" y2="24" /><line fill="none" stroke="#000000" stroke-width="2" x1="8.5" x2="32" y1="38" y2="38" /><line fill="none" stroke="#000000" stroke-width="2" x1="8.5" x2="32" y1="52" y2="52" /><line fill="none" stroke="#000000" stroke-width="2" x1="8" x2="32.5" y1="10.5" y2="10.5" /><polyline fill="none" points="10,88.5 31.5,88.5 31.5,66 9,66 9,94.5" stroke="#000000" stroke-width="2" /><path d="M97,33 c-11.623,-8.155 -21.439,-16.672 -31,-26.8 c-9.561,10.128 -19.377,18.645 -31,26.8" fill="none" stroke="#000000" stroke-width="2" /><path d="M39.5,92 v-54.0 h23.0 v44.5 c0,7.455 -0.46,8 -5,8 c-1.484,0 -4.197,-0.159 -9,-0.5" fill="none" stroke="#000000" stroke-width="2" /><path d="M91.5,36 v47.0 c0,7.182 -0.729,8 -5,8 c-2.172,0 -5.592,-0.173 -10,-0.5" fill="none" stroke="#000000" stroke-width="2" /></svg>