<?xml version='1.0' encoding='utf-8'?>
<svg xmlns="http://www.w3.org/2000/svg" height="100px" version="1.0" viewBox="0 0 100 100" width="100px" x="0px" y="0px">
<line fill="none" stroke="#000000" stroke-width="2" x1="6" x2="39" y1="24" y2="24" /><line fill="none" stroke="#000000" stroke-width="2" x1="9.5" x2="35.5" y1="38" y2="38" /><line fill="none" stroke="#000000" stroke-width="2" x1="9.5" x2="35.5" y1="52" y2="52" /><line fill="none" stroke="#000000" stroke-width="2" x1="9" x2="36" y1="10.5" y2="10.5" /><line fill="none" stroke="#000000" stroke-width="2" x1="50" x2="50" y1="53" y2="93.5" /><line fill="none" stroke="#000000" stroke-width="2" x1="51" x2="88.5" y1="87.5" y2="87.5" /><line fill="none" stroke="#000000" stroke-width="2" x1="51" x2="88.5" y1="69.5" y2="69.5" /><line fill="none" stroke="#000000" stroke-width="2" x1="39" x2="96" y1="37.5" y2="37.5" /><line fill="none" stroke="#000000" stroke-width="2" x1="88.5" x2="44" y1="17" y2="17" /><line fill="none" stroke="#000000" stroke-width="2" x1="66" x2="66" y1="37.5" y2="4" /><polyline fill="none" points="11,88.5 35,88.5 35,66 10,66 10,94.5" stroke="#000000" stroke-width="2" /><polyline fill="none" points="89.5,93.5 89.5,52.5 50.5,52.5" stroke="#000000" stroke-width="2" /><path d="M35.5,61.5 c24.986,-13.254 44.683,-31.204 58,-52" fill="none" stroke="#000000" stroke-width="2" /></svg>