<?xml version='1.0' encoding='utf-8'?>
<svg xmlns="http://www.w3.org/2000/svg" height="100px" version="1.0" viewBox="0 0 100 100" width="100px" x="0px" y="0px">
<line fill="none" stroke="#000000" stroke-width="2" x1="46" x2="85" y1="43.5" y2="43.5" /><line fill="none" stroke="#000000" stroke-width="2" x1="65.5" x2="65.5" y1="13.5" y2="3.5" /><line fill="none" stroke="#000000" stroke-width="2" x1="36.5" x2="94.5" y1="13.5" y2="13.5" /><line fill="none" stroke="#000000" stroke-width="2" x1="65.5" x2="65.5" y1="55.5" y2="33.5" /><line fill="none" stroke="#000000" stroke-width="2" x1="5" x2="36.5" y1="24" y2="24" /><line fill="none" stroke="#000000" stroke-width="2" x1="8.5" x2="33" y1="38" y2="38" /><line fill="none" stroke="#000000" stroke-width="2" x1="8.5" x2="33" y1="52" y2="52" /><line fill="none" stroke="#000000" stroke-width="2" x1="8" x2="33.5" y1="10.5" y2="10.5" /><polyline fill="none" points="52,86.5 52,56.5 79,56.5 79,79.5 53,79.5" stroke="#000000" stroke-width="2" /><polyline fill="none" points="10,88.5 32.5,88.5 32.5,66 9,66 9,94.5" stroke="#000000" stroke-width="2" /><path d="M74.5,29.5 c2.813,-4.761 5.188,-10.157 7,-16" fill="none" stroke="#000000" stroke-width="2" /><path d="M55.5,29.5 c-1.956,-5.314 -4.36,-10.839 -7,-16" fill="none" stroke="#000000" stroke-width="2" /><path d="M76,90.5 c4.961,0.345 8.328,0.5 10,0.5 c4.553,0 5,-0.526 5,-7 v-54.5 h-51.0 V93.0" fill="none" stroke="#000000" stroke-width="2" /></svg>