<?xml version='1.0' encoding='utf-8'?>
<svg xmlns="http://www.w3.org/2000/svg" height="100px" version="1.0" viewBox="0 0 100 100" width="100px" x="0px" y="0px">
<line fill="none" stroke="#000000" stroke-width="2" x1="66" x2="66" y1="93.5" y2="54.5" /><line fill="none" stroke="#000000" stroke-width="2" x1="95.5" x2="35.5" y1="63" y2="63" /><line fill="none" stroke="#000000" stroke-width="2" x1="6" x2="35.5" y1="24" y2="24" /><line fill="none" stroke="#000000" stroke-width="2" x1="9.5" x2="32" y1="38" y2="38" /><line fill="none" stroke="#000000" stroke-width="2" x1="9.5" x2="32" y1="52" y2="52" /><line fill="none" stroke="#000000" stroke-width="2" x1="9" x2="32.5" y1="10.5" y2="10.5" /><polyline fill="none" points="40.5,52.5 62.5,52.5 62.5,34 39.5,34 39.5,53.5" stroke="#000000" stroke-width="2" /><polyline fill="none" points="70.5,52.5 92.5,52.5 92.5,34 69.5,34 69.5,53.5" stroke="#000000" stroke-width="2" /><polyline fill="none" points="45.5,27 87.5,27 87.5,9 44.5,9 44.5,28" stroke="#000000" stroke-width="2" /><polyline fill="none" points="11,88.5 31.5,88.5 31.5,66 10,66 10,94.5" stroke="#000000" stroke-width="2" /><path d="M97,89 c-13.381,-7.598 -23.369,-16.352 -30,-26" fill="none" stroke="#000000" stroke-width="2" /><path d="M35,89 c13.381,-7.598 23.369,-16.352 30,-26" fill="none" stroke="#000000" stroke-width="2" /></svg>