<?xml version='1.0' encoding='utf-8'?>
<svg xmlns="http://www.w3.org/2000/svg" height="100px" version="1.0" viewBox="0 0 100 100" width="100px" x="0px" y="0px">
<line fill="none" stroke="#000000" stroke-width="2" x1="17.5" x2="82.5" y1="62.5" y2="62.5" /><line fill="none" stroke="#000000" stroke-width="2" x1="17.5" x2="82.5" y1="49.5" y2="49.5" /><polyline fill="none" points="17.5,75.5 83.5,75.5 83.5,36.5 16.5,36.5 16.5,76.5" stroke="#000000" stroke-width="2" /><path d="M39,7.5 c-7.633,4.531 -19.015,8.907 -34,12.5" fill="none" stroke="#000000" stroke-width="2" /><path d="M61,7.5 c7.612,4.563 19.015,8.907 34,12.5" fill="none" stroke="#000000" stroke-width="2" /><path d="M20.5,17.5 h59.0 c-1.09,12.45 -1.141,12.5 -12,12.5 c-4.032,0 -9.643,-0.16 -15,-0.5" fill="none" stroke="#000000" stroke-width="2" /><path d="M6.5,36.5 c22.355,-3.565 33.746,-10.042 38.5,-19" fill="none" stroke="#000000" stroke-width="2" /><path d="M8,92 c13.08,-3.282 24.369,-7.771 31,-12" fill="none" stroke="#000000" stroke-width="2" /><path d="M92,93 c-7.982,-4.208 -19.018,-8.679 -31,-12.5" fill="none" stroke="#000000" stroke-width="2" /></svg>