<?xml version='1.0' encoding='utf-8'?>
<svg xmlns="http://www.w3.org/2000/svg" height="100px" version="1.0" viewBox="0 0 100 100" width="100px" x="0px" y="0px">
<line fill="none" stroke="#000000" stroke-width="2" x1="10.5" x2="33.5" y1="48" y2="48" /><line fill="none" stroke="#000000" stroke-width="2" x1="10.5" x2="33.5" y1="29" y2="29" /><line fill="none" stroke="#000000" stroke-width="2" x1="45" x2="91.5" y1="34" y2="34" /><polyline fill="none" points="10.5,67.5 34.5,67.5 34.5,10.5 9.5,10.5 9.5,68.5" stroke="#000000" stroke-width="2" /><path d="M4,92 c5.544,-4.975 10.519,-11.845 13.5,-18.5" fill="none" stroke="#000000" stroke-width="2" /><path d="M33,85.5 c-2.117,-3.977 -4.941,-8.229 -8,-12" fill="none" stroke="#000000" stroke-width="2" /><path d="M41.5,91 c23.064,-9.233 40.478,-28.575 49.045,-56.296" fill="none" stroke="#000000" stroke-width="2" /><path d="M96.5,91 c-21.454,-9.931 -35.543,-25.981 -44,-52" fill="none" stroke="#000000" stroke-width="2" /><path d="M35,91 c6.72,-14.052 10,-29.832 10,-51 v-29.0 h49.0" fill="none" stroke="#000000" stroke-width="2" /></svg>