<?xml version='1.0' encoding='utf-8'?>
<svg xmlns="http://www.w3.org/2000/svg" height="100px" version="1.0" viewBox="0 0 100 100" width="100px" x="0px" y="0px">
<line fill="none" stroke="#000000" stroke-width="2" x1="19" x2="81" y1="63.5" y2="63.5" /><line fill="none" stroke="#000000" stroke-width="2" x1="19" x2="81" y1="51.5" y2="51.5" /><polyline fill="none" points="19,75.5 82,75.5 82,39.5 18,39.5 18,76.5" stroke="#000000" stroke-width="2" /><path d="M49.5,35.5 c10.656,-4.985 17.493,-14.048 18,-24" fill="none" stroke="#000000" stroke-width="2" /><path d="M50.5,11.5 H90.0 c-0.787,19.534 -2.627,22 -7.5,22 c-2.524,0 -8.95,-0.472 -13,-1" fill="none" stroke="#000000" stroke-width="2" /><path d="M5.5,37.5 c14.08,-2.782 25.465,-6.288 38,-11.499" fill="none" stroke="#000000" stroke-width="2" /><path d="M47,6.5 c-11.264,3.063 -21.598,5.231 -34,7 l1,22" fill="none" stroke="#000000" stroke-width="2" /><path d="M49,31.5 c-4.25,-4.628 -10.568,-10.593 -16,-15" fill="none" stroke="#000000" stroke-width="2" /><path d="M8,92 c13.08,-3.282 24.369,-7.771 31,-12" fill="none" stroke="#000000" stroke-width="2" /><path d="M92,93 c-7.982,-4.208 -19.018,-8.679 -31,-12.5" fill="none" stroke="#000000" stroke-width="2" /></svg>