<?xml version='1.0' encoding='utf-8'?>
<svg xmlns="http://www.w3.org/2000/svg" height="100px" version="1.0" viewBox="0 0 100 100" width="100px" x="0px" y="0px">
<line fill="none" stroke="#000000" stroke-width="2" x1="20" x2="20" y1="36.5" y2="18" /><line fill="none" stroke="#000000" stroke-width="2" x1="17.5" x2="82.5" y1="64.5" y2="64.5" /><line fill="none" stroke="#000000" stroke-width="2" x1="17.5" x2="82.5" y1="53.5" y2="53.5" /><line fill="none" stroke="#000000" stroke-width="2" x1="28" x2="94" y1="22" y2="22" /><line fill="none" stroke="#000000" stroke-width="2" x1="32" x2="92" y1="33" y2="33" /><line fill="none" stroke="#000000" stroke-width="2" x1="60.5" x2="60.5" y1="33" y2="11.5" /><polyline fill="none" points="17.5,75.5 83.5,75.5 83.5,42.5 16.5,42.5 16.5,76.5" stroke="#000000" stroke-width="2" /><path d="M32.5,7 c-7.222,7.929 -16.679,14.528 -27.5,19" fill="none" stroke="#000000" stroke-width="2" /><path d="M8,92 c13.08,-3.282 24.369,-7.771 31,-12" fill="none" stroke="#000000" stroke-width="2" /><path d="M92,93 c-7.982,-4.208 -19.018,-8.679 -31,-12.5" fill="none" stroke="#000000" stroke-width="2" /><path d="M34.5,12.5 c21.932,-0.426 39.807,-2.036 54,-4.5" fill="none" stroke="#000000" stroke-width="2" /></svg>