<?xml version='1.0' encoding='utf-8'?>
<svg xmlns="http://www.w3.org/2000/svg" height="100px" version="1.0" viewBox="0 0 100 100" width="100px" x="0px" y="0px">
<line fill="none" stroke="#000000" stroke-width="2" x1="40" x2="94.5" y1="57" y2="52.5" /><line fill="none" stroke="#000000" stroke-width="2" x1="43" x2="90.5" y1="38" y2="34.5" /><line fill="none" stroke="#000000" stroke-width="2" x1="41" x2="92.5" y1="20" y2="17" /><line fill="none" stroke="#000000" stroke-width="2" x1="11" x2="34.5" y1="48" y2="48" /><line fill="none" stroke="#000000" stroke-width="2" x1="11" x2="34.5" y1="29" y2="29" /><polyline fill="none" points="11,67.5 35.5,67.5 35.5,10.5 10,10.5 10,68.5" stroke="#000000" stroke-width="2" /><path d="M89.5,57.5 c-10.229,14.7 -25.133,25.862 -46,33" fill="none" stroke="#000000" stroke-width="2" /><path d="M65,6 c0,72.198 14.508,85.5 23,85.5 c2.634,0 5.039,-3.232 6.5,-17" fill="none" stroke="#000000" stroke-width="2" /><path d="M73.5,6 c4.412,2.214 9.367,4.978 13.5,7.5" fill="none" stroke="#000000" stroke-width="2" /><path d="M3.5,92 c6.299,-4.847 12.094,-11.837 15.5,-18.5" fill="none" stroke="#000000" stroke-width="2" /><path d="M39.5,91.5 c-3.175,-6.021 -7.396,-12.218 -12,-17.5" fill="none" stroke="#000000" stroke-width="2" /></svg>