<?xml version='1.0' encoding='utf-8'?>
<svg xmlns="http://www.w3.org/2000/svg" height="100px" version="1.0" viewBox="0 0 100 100" width="100px" x="0px" y="0px">
<line fill="none" stroke="#000000" stroke-width="2" x1="65.5" x2="65.5" y1="19" y2="47" /><line fill="none" stroke="#000000" stroke-width="2" x1="42.5" x2="88.5" y1="88" y2="88" /><line fill="none" stroke="#000000" stroke-width="2" x1="42.5" x2="88.5" y1="72" y2="72" /><line fill="none" stroke="#000000" stroke-width="2" x1="38.5" x2="92.5" y1="32.5" y2="32.5" /><line fill="none" stroke="#000000" stroke-width="2" x1="9.5" x2="30" y1="48" y2="48" /><line fill="none" stroke="#000000" stroke-width="2" x1="9.5" x2="30" y1="29" y2="29" /><polyline fill="none" points="89.5,94 89.5,57 41.5,57 41.5,94" stroke="#000000" stroke-width="2" /><polyline fill="none" points="38.5,48 93.5,48 93.5,18 37.5,18 37.5,49" stroke="#000000" stroke-width="2" /><polyline fill="none" points="9.5,67.5 31,67.5 31,10.5 8.5,10.5 8.5,68.5" stroke="#000000" stroke-width="2" /><path d="M55.5,18 c-2.882,-4.438 -5.993,-8.795 -9,-12.5" fill="none" stroke="#000000" stroke-width="2" /><path d="M75.5,18 c3.398,-4.119 6.621,-8.616 9,-12.5" fill="none" stroke="#000000" stroke-width="2" /><path d="M4.5,92 c4.852,-4.872 9.363,-11.837 12,-18.5" fill="none" stroke="#000000" stroke-width="2" /><path d="M35,91.5 c-3.182,-6.033 -7.387,-12.206 -12,-17.5" fill="none" stroke="#000000" stroke-width="2" /></svg>