<?xml version='1.0' encoding='utf-8'?>
<svg xmlns="http://www.w3.org/2000/svg" height="100px" version="1.0" viewBox="0 0 100 100" width="100px" x="0px" y="0px">
<line fill="none" stroke="#000000" stroke-width="2" x1="38.5" x2="94" y1="57" y2="52.5" /><line fill="none" stroke="#000000" stroke-width="2" x1="42.5" x2="90" y1="37.5" y2="34.5" /><line fill="none" stroke="#000000" stroke-width="2" x1="38.5" x2="92" y1="20" y2="17" /><line fill="none" stroke="#000000" stroke-width="2" x1="23" x2="36.5" y1="54" y2="54" /><line fill="none" stroke="#000000" stroke-width="2" x1="23" x2="23" y1="84.5" y2="36" /><line fill="none" stroke="#000000" stroke-width="2" x1="11.5" x2="11.5" y1="89.5" y2="45" /><polyline fill="none" points="9.5,35 35,35 35,10 8.5,10 8.5,36" stroke="#000000" stroke-width="2" /><path d="M87.5,57.5 c-12.675,14.7 -31.143,25.862 -57,33" fill="none" stroke="#000000" stroke-width="2" /><path d="M63,6 c0,72.198 15.667,85.5 25,85.5 c2.48,0 4.934,-3.568 6.5,-17" fill="none" stroke="#000000" stroke-width="2" /><path d="M73,6 c4.412,2.214 9.367,4.978 13.5,7.5" fill="none" stroke="#000000" stroke-width="2" /><path d="M5.5,92 c10.587,-3.853 22.182,-8.969 34,-15" fill="none" stroke="#000000" stroke-width="2" /></svg>