<?xml version='1.0' encoding='utf-8'?>
<svg xmlns="http://www.w3.org/2000/svg" height="100px" version="1.0" viewBox="0 0 100 100" width="100px" x="0px" y="0px">
<line fill="none" stroke="#000000" stroke-width="2" x1="66" x2="66" y1="3" y2="14" /><line fill="none" stroke="#000000" stroke-width="2" x1="45.5" x2="87.5" y1="33" y2="33" /><line fill="none" stroke="#000000" stroke-width="2" x1="23" x2="37.5" y1="54" y2="54" /><line fill="none" stroke="#000000" stroke-width="2" x1="23" x2="23" y1="84.5" y2="36" /><line fill="none" stroke="#000000" stroke-width="2" x1="11.5" x2="11.5" y1="89.5" y2="45" /><polyline fill="none" points="45.5,52.5 88.5,52.5 88.5,15 44.5,15 44.5,89.5" stroke="#000000" stroke-width="2" /><polyline fill="none" points="9.5,35 36,35 36,10 8.5,10 8.5,36" stroke="#000000" stroke-width="2" /><path d="M61,52.5 c6.041,17.854 19.88,32.362 36.5,39" fill="none" stroke="#000000" stroke-width="2" /><path d="M33,91.5 c12.063,-1.945 22.541,-4.481 35,-8.5" fill="none" stroke="#000000" stroke-width="2" /><path d="M72,72.5 c7.678,-4.665 14.986,-11.103 21,-18.5" fill="none" stroke="#000000" stroke-width="2" /><path d="M5.5,92 c10.587,-3.853 22.182,-8.97 34,-15" fill="none" stroke="#000000" stroke-width="2" /></svg>