<?xml version='1.0' encoding='utf-8'?>
<svg xmlns="http://www.w3.org/2000/svg" height="100px" version="1.0" viewBox="0 0 100 100" width="100px" x="0px" y="0px">
<line fill="none" stroke="#000000" stroke-width="2" x1="35.5" x2="96" y1="34.5" y2="34.5" /><line fill="none" stroke="#000000" stroke-width="2" x1="94" x2="38" y1="13.5" y2="13.5" /><line fill="none" stroke="#000000" stroke-width="2" x1="91" x2="40" y1="24" y2="24" /><line fill="none" stroke="#000000" stroke-width="2" x1="66" x2="66" y1="34.5" y2="5" /><line fill="none" stroke="#000000" stroke-width="2" x1="42.5" x2="89" y1="64.5" y2="64.5" /><line fill="none" stroke="#000000" stroke-width="2" x1="42.5" x2="89" y1="53.5" y2="53.5" /><line fill="none" stroke="#000000" stroke-width="2" x1="22" x2="35.5" y1="54" y2="54" /><line fill="none" stroke="#000000" stroke-width="2" x1="22" x2="22" y1="84.5" y2="36" /><line fill="none" stroke="#000000" stroke-width="2" x1="11" x2="11" y1="89.5" y2="45" /><polyline fill="none" points="42.5,75.5 90,75.5 90,42.5 41.5,42.5 41.5,76.5" stroke="#000000" stroke-width="2" /><polyline fill="none" points="8.5,35 32.5,35 32.5,10 7.5,10 7.5,36" stroke="#000000" stroke-width="2" /><path d="M34.5,92.5 c10.127,-3.419 18.866,-8.096 24,-12.5" fill="none" stroke="#000000" stroke-width="2" /><path d="M96,93 c-6.18,-4.208 -14.703,-8.728 -24,-12.5" fill="none" stroke="#000000" stroke-width="2" /><path d="M5,92 c10.119,-3.853 21.197,-8.979 32.5,-15" fill="none" stroke="#000000" stroke-width="2" /></svg>