<?xml version='1.0' encoding='utf-8'?>
<svg xmlns="http://www.w3.org/2000/svg" height="100px" version="1.0" viewBox="0 0 100 100" width="100px" x="0px" y="0px">
<line fill="none" stroke="#000000" stroke-width="2" x1="66" x2="66" y1="93.5" y2="54.5" /><line fill="none" stroke="#000000" stroke-width="2" x1="95.5" x2="35.5" y1="63" y2="63" /><line fill="none" stroke="#000000" stroke-width="2" x1="22" x2="35.5" y1="54" y2="54" /><line fill="none" stroke="#000000" stroke-width="2" x1="22" x2="22" y1="84.5" y2="36" /><line fill="none" stroke="#000000" stroke-width="2" x1="11" x2="11" y1="89.5" y2="45" /><polyline fill="none" points="40.5,52.5 62.5,52.5 62.5,34 39.5,34 39.5,53.5" stroke="#000000" stroke-width="2" /><polyline fill="none" points="70.5,52.5 92.5,52.5 92.5,34 69.5,34 69.5,53.5" stroke="#000000" stroke-width="2" /><polyline fill="none" points="44.5,27 87.5,27 87.5,9 43.5,9 43.5,28" stroke="#000000" stroke-width="2" /><polyline fill="none" points="8.5,35 32.5,35 32.5,10 7.5,10 7.5,36" stroke="#000000" stroke-width="2" /><path d="M33.5,89 c13.498,-6.905 25.4,-17.017 31.5,-26" fill="none" stroke="#000000" stroke-width="2" /><path d="M97,89 c-13.381,-7.598 -23.369,-16.352 -30,-26" fill="none" stroke="#000000" stroke-width="2" /><path d="M5,92 c10.119,-3.853 21.197,-8.979 32.5,-15" fill="none" stroke="#000000" stroke-width="2" /></svg>