<?xml version='1.0' encoding='utf-8'?>
<svg xmlns="http://www.w3.org/2000/svg" height="100px" version="1.0" viewBox="0 0 100 100" width="100px" x="0px" y="0px">
<line fill="none" stroke="#000000" stroke-width="2" x1="10.5" x2="42.5" y1="47" y2="47" /><line fill="none" stroke="#000000" stroke-width="2" x1="5" x2="47" y1="78" y2="78" /><line fill="none" stroke="#000000" stroke-width="2" x1="26.5" x2="26.5" y1="95" y2="5" /><line fill="none" stroke="#000000" stroke-width="2" x1="5" x2="47" y1="17" y2="17" /><line fill="none" stroke="#000000" stroke-width="2" x1="49" x2="96" y1="18" y2="18" /><line fill="none" stroke="#000000" stroke-width="2" x1="72" x2="72" y1="17" y2="4" /><polyline fill="none" points="10.5,65 43.5,65 43.5,30 9.5,30 9.5,66" stroke="#000000" stroke-width="2" /><path d="M42,92 c23.615,-8.771 35.908,-21.444 44,-47" fill="none" stroke="#000000" stroke-width="2" /><path d="M96.5,92 c-21.768,-9.854 -31.76,-21.858 -39,-47" fill="none" stroke="#000000" stroke-width="2" /><path d="M63.5,23 c-3.432,8.748 -8.928,17.254 -16.5,25" fill="none" stroke="#000000" stroke-width="2" /><path d="M95.5,48.5 c-4.791,-9.048 -10.283,-17.623 -16,-25" fill="none" stroke="#000000" stroke-width="2" /></svg>