<?xml version='1.0' encoding='utf-8'?>
<svg xmlns="http://www.w3.org/2000/svg" height="100px" version="1.0" viewBox="0 0 100 100" width="100px" x="0px" y="0px">
<line fill="none" stroke="#000000" stroke-width="2" x1="9" x2="36" y1="47" y2="47" /><line fill="none" stroke="#000000" stroke-width="2" x1="4" x2="40" y1="78" y2="78" /><line fill="none" stroke="#000000" stroke-width="2" x1="22.5" x2="22.5" y1="95" y2="5" /><line fill="none" stroke="#000000" stroke-width="2" x1="4" x2="40" y1="17" y2="17" /><line fill="none" stroke="#000000" stroke-width="2" x1="85" x2="52" y1="27" y2="27" /><line fill="none" stroke="#000000" stroke-width="2" x1="45" x2="64" y1="53.5" y2="53.5" /><line fill="none" stroke="#000000" stroke-width="2" x1="45" x2="64" y1="70" y2="70" /><line fill="none" stroke="#000000" stroke-width="2" x1="75.5" x2="75.5" y1="79" y2="39" /><polyline fill="none" points="9,65 37,65 37,30 8,30 8,66" stroke="#000000" stroke-width="2" /><path d="M97,33 c-10.687,-8.155 -19.71,-16.672 -28.5,-26.8 c-8.79,10.128 -17.813,18.645 -28.5,26.8" fill="none" stroke="#000000" stroke-width="2" /><path d="M44,92 v-54.0 h21.0 v44.5 c0,7.612 -0.369,8 -4.5,8 c-1.378,0 -4.041,-0.159 -8.5,-0.5" fill="none" stroke="#000000" stroke-width="2" /><path d="M92,36 v47.0 c0,7.386 -0.582,8 -4.5,8 c-2.026,0 -5.385,-0.173 -9.5,-0.5" fill="none" stroke="#000000" stroke-width="2" /></svg>