<?xml version='1.0' encoding='utf-8'?>
<svg xmlns="http://www.w3.org/2000/svg" height="100px" version="1.0" viewBox="0 0 100 100" width="100px" x="0px" y="0px">
<line fill="none" stroke="#000000" stroke-width="2" x1="39.5" x2="84.5" y1="27" y2="27" /><polyline fill="none" points="23,75 23,45 6,45" stroke="#000000" stroke-width="2" /><polyline fill="none" points="39.5,44 85.5,44 85.5,10.5 38.5,10.5 38.5,77.5" stroke="#000000" stroke-width="2" /><path d="M9,10 c5.725,5.621 10.574,10.782 16,17" fill="none" stroke="#000000" stroke-width="2" /><path d="M6,92 c8.029,-5.713 13.36,-11.114 17,-17" fill="none" stroke="#000000" stroke-width="2" /><path d="M93,90 h-34.0 c-21.543,0 -30.148,-3.961 -36,-15" fill="none" stroke="#000000" stroke-width="2" /><path d="M56,44 c6.041,15.987 19.88,29.057 36.5,35" fill="none" stroke="#000000" stroke-width="2" /><path d="M30,79 c12.063,-1.945 22.541,-4.481 35,-8.5" fill="none" stroke="#000000" stroke-width="2" /><path d="M67,62 c8.043,-4.035 15.7,-9.603 22,-16" fill="none" stroke="#000000" stroke-width="2" /></svg>