<?xml version='1.0' encoding='utf-8'?>
<svg xmlns="http://www.w3.org/2000/svg" height="100px" version="1.0" viewBox="0 0 100 100" width="100px" x="0px" y="0px">
<line fill="none" stroke="#000000" stroke-width="2" x1="92" x2="29.5" y1="38" y2="38" /><line fill="none" stroke="#000000" stroke-width="2" x1="41" x2="89" y1="17.5" y2="17.5" /><line fill="none" stroke="#000000" stroke-width="2" x1="63" x2="63" y1="38" y2="5.5" /><polyline fill="none" points="41,73.5 85.5,73.5 85.5,49.5 40,49.5 40,74.5" stroke="#000000" stroke-width="2" /><polyline fill="none" points="23,75 23,45 6,45" stroke="#000000" stroke-width="2" /><path d="M32,33.5 c5.615,-7.441 10.215,-16.878 13,-27" fill="none" stroke="#000000" stroke-width="2" /><path d="M9,10 c5.725,5.621 10.574,10.782 16,17" fill="none" stroke="#000000" stroke-width="2" /><path d="M6,92 c8.029,-5.713 13.36,-11.114 17,-17" fill="none" stroke="#000000" stroke-width="2" /><path d="M93,90 h-34.0 c-21.543,0 -30.148,-3.961 -36,-15" fill="none" stroke="#000000" stroke-width="2" /></svg>