<?xml version='1.0' encoding='utf-8'?>
<svg xmlns="http://www.w3.org/2000/svg" height="100px" version="1.0" viewBox="0 0 100 100" width="100px" x="0px" y="0px">
<line fill="none" stroke="#000000" stroke-width="2" x1="69.5" x2="69.5" y1="86" y2="52" /><line fill="none" stroke="#000000" stroke-width="2" x1="28.5" x2="91" y1="60.5" y2="60.5" /><line fill="none" stroke="#000000" stroke-width="2" x1="39.5" x2="39.5" y1="74.5" y2="61.5" /><line fill="none" stroke="#000000" stroke-width="2" x1="93" x2="25.5" y1="75.5" y2="75.5" /><line fill="none" stroke="#000000" stroke-width="2" x1="26" x2="94" y1="28" y2="28" /><polyline fill="none" points="21.5,75 21.5,45 4.5,45" stroke="#000000" stroke-width="2" /><polyline fill="none" points="34.5,52 34.5,36.5 88,36.5 88,51 35.5,51" stroke="#000000" stroke-width="2" /><polyline fill="none" points="85.5,28 85.5,12.5 32.5,12.5" stroke="#000000" stroke-width="2" /><path d="M7,10 c5.725,5.621 10.574,10.782 16,17" fill="none" stroke="#000000" stroke-width="2" /><path d="M4.5,92 c8.029,-5.713 13.36,-11.114 17,-17" fill="none" stroke="#000000" stroke-width="2" /><path d="M94,90 h-36.5 c-21.543,0 -30.148,-3.961 -36,-15" fill="none" stroke="#000000" stroke-width="2" /><path d="M51,28 c2.563,-7.197 4.852,-14.841 7,-23.5" fill="none" stroke="#000000" stroke-width="2" /></svg>