<?xml version='1.0' encoding='utf-8'?>
<svg xmlns="http://www.w3.org/2000/svg" height="100px" version="1.0" viewBox="0 0 100 100" width="100px" x="0px" y="0px">
<line fill="none" stroke="#000000" stroke-width="2" x1="38.5" x2="83.5" y1="40.5" y2="40.5" /><line fill="none" stroke="#000000" stroke-width="2" x1="61" x2="61" y1="12.5" y2="3.5" /><line fill="none" stroke="#000000" stroke-width="2" x1="27.5" x2="93.5" y1="12.5" y2="12.5" /><line fill="none" stroke="#000000" stroke-width="2" x1="61" x2="61" y1="52.5" y2="30.5" /><polyline fill="none" points="46,80.5 46,53.5 76,53.5 76,73.5 47,73.5" stroke="#000000" stroke-width="2" /><polyline fill="none" points="22,75 22,45 5,45" stroke="#000000" stroke-width="2" /><path d="M70.5,27.5 c2.813,-4.463 5.188,-9.521 7,-15" fill="none" stroke="#000000" stroke-width="2" /><path d="M50.5,27.5 c-1.956,-4.981 -4.36,-10.161 -7,-15" fill="none" stroke="#000000" stroke-width="2" /><path d="M72,80.5 c5.787,0.345 9.549,0.5 11.5,0.5 c5.408,0 6,-0.571 6,-7 v-46.5 h-57.0 V82.0" fill="none" stroke="#000000" stroke-width="2" /><path d="M7.5,10 c5.725,5.621 10.574,10.782 16,17" fill="none" stroke="#000000" stroke-width="2" /><path d="M5,92 c8.029,-5.713 13.36,-11.114 17,-17" fill="none" stroke="#000000" stroke-width="2" /><path d="M93.5,90 H58.0 c-21.543,0 -30.148,-3.961 -36,-15" fill="none" stroke="#000000" stroke-width="2" /></svg>