<?xml version='1.0' encoding='utf-8'?>
<svg xmlns="http://www.w3.org/2000/svg" height="100px" version="1.0" viewBox="0 0 100 100" width="100px" x="0px" y="0px">
<line fill="none" stroke="#000000" stroke-width="2" x1="25.5" x2="93.5" y1="31" y2="31" /><line fill="none" stroke="#000000" stroke-width="2" x1="60.5" x2="60.5" y1="30" y2="4.5" /><line fill="none" stroke="#000000" stroke-width="2" x1="35" x2="85" y1="59.5" y2="59.5" /><line fill="none" stroke="#000000" stroke-width="2" x1="35" x2="85" y1="49" y2="49" /><polyline fill="none" points="22,75 22,45 5,45" stroke="#000000" stroke-width="2" /><polyline fill="none" points="33.5,23.5 87.5,23.5 87.5,11.5 32.5,11.5 32.5,24.5" stroke="#000000" stroke-width="2" /><polyline fill="none" points="35,70 86,70 86,38.5 34,38.5 34,71" stroke="#000000" stroke-width="2" /><path d="M7.5,10 c5.725,5.621 10.574,10.782 16,17" fill="none" stroke="#000000" stroke-width="2" /><path d="M5,92 c8.029,-5.713 13.36,-11.114 17,-17" fill="none" stroke="#000000" stroke-width="2" /><path d="M93.5,90 H58.0 c-21.543,0 -30.148,-3.961 -36,-15" fill="none" stroke="#000000" stroke-width="2" /><path d="M29.5,84 c8.637,-2.638 16.236,-6.263 21.5,-10" fill="none" stroke="#000000" stroke-width="2" /><path d="M92,85.5 c-6.027,-3.776 -14.561,-7.922 -24,-11.5" fill="none" stroke="#000000" stroke-width="2" /></svg>