<?xml version='1.0' encoding='utf-8'?>
<svg xmlns="http://www.w3.org/2000/svg" height="100px" version="1.0" viewBox="0 0 100 100" width="100px" x="0px" y="0px">
<line fill="none" stroke="#000000" stroke-width="2" x1="12.5" x2="46.5" y1="35" y2="35" /><line fill="none" stroke="#000000" stroke-width="2" x1="30" x2="30" y1="5" y2="16" /><polyline fill="none" points="12.5,54.5 47.5,54.5 47.5,17 11.5,17 11.5,88" stroke="#000000" stroke-width="2" /><polyline fill="none" points="94,10 59.5,10 59.5,93" stroke="#000000" stroke-width="2" /><path d="M4,89.5 c13.904,-2.706 26.151,-6.327 40.5,-12" fill="none" stroke="#000000" stroke-width="2" /><path d="M52,89.5 c-4.98,-8.849 -12.229,-19.51 -19,-28" fill="none" stroke="#000000" stroke-width="2" /><path d="M69,81 h9.0 c10.607,0 15.5,-4.166 15.5,-13 c0,-10.241 -5.379,-20.147 -16,-27.5 c6.075,-9.587 11.531,-20.068 15.576,-29.881" fill="none" stroke="#000000" stroke-width="2" /></svg>