<?xml version='1.0' encoding='utf-8'?>
<svg xmlns="http://www.w3.org/2000/svg" height="100px" version="1.0" viewBox="0 0 100 100" width="100px" x="0px" y="0px">
<line fill="none" stroke="#000000" stroke-width="2" x1="50.5" x2="50.5" y1="67.5" y2="29.5" /><line fill="none" stroke="#000000" stroke-width="2" x1="15" x2="15" y1="67.5" y2="29.5" /><line fill="none" stroke="#000000" stroke-width="2" x1="60" x2="5.5" y1="28.5" y2="28.5" /><line fill="none" stroke="#000000" stroke-width="2" x1="6" x2="59.5" y1="68.5" y2="68.5" /><line fill="none" stroke="#000000" stroke-width="2" x1="4" x2="61.5" y1="48" y2="48" /><line fill="none" stroke="#000000" stroke-width="2" x1="32.5" x2="32.5" y1="86" y2="13" /><polyline fill="none" points="96,10 66.5,10 66.5,93" stroke="#000000" stroke-width="2" /><path d="M5,90 c18.897,-2.491 39.244,-6.251 55,-10" fill="none" stroke="#000000" stroke-width="2" /><path d="M8.5,15 c18.464,-0.618 34.743,-2.747 48,-6" fill="none" stroke="#000000" stroke-width="2" /><path d="M74,81 h6.0 c10.607,0 15.5,-4.166 15.5,-13 c0,-10.241 -5.379,-20.147 -16,-27.5 c6.075,-9.587 11.531,-20.068 15.576,-29.881" fill="none" stroke="#000000" stroke-width="2" /></svg>