<?xml version='1.0' encoding='utf-8'?>
<svg xmlns="http://www.w3.org/2000/svg" height="100px" version="1.0" viewBox="0 0 100 100" width="100px" x="0px" y="0px">
<line fill="none" stroke="#000000" stroke-width="2" x1="38.5" x2="62" y1="30.5" y2="30.5" /><line fill="none" stroke="#000000" stroke-width="2" x1="3" x2="30" y1="63.5" y2="57.5" /><polyline fill="none" points="38.5,51.5 63,51.5 63,11 37.5,11 37.5,84.5" stroke="#000000" stroke-width="2" /><polyline fill="none" points="96,10 70.5,10 70.5,93" stroke="#000000" stroke-width="2" /><path d="M26,87.5 c12.012,-2.728 22.601,-6.327 35,-12" fill="none" stroke="#000000" stroke-width="2" /><path d="M66.5,87.5 c-3.671,-8.849 -9.011,-19.51 -14,-28" fill="none" stroke="#000000" stroke-width="2" /><path d="M8,62.5 c9.264,-11.634 17.752,-24.511 25,-38" fill="none" stroke="#000000" stroke-width="2" /><path d="M21,44.5 c-4.566,-6.929 -10.9,-15.79 -16,-22.5" fill="none" stroke="#000000" stroke-width="2" /><path d="M10.5,29.5 c4.532,-7.667 8.563,-15.241 12.5,-23.5" fill="none" stroke="#000000" stroke-width="2" /><path d="M5,93 c12.963,-9.563 23.807,-26.753 28,-45" fill="none" stroke="#000000" stroke-width="2" /><path d="M77,81 h5.0 c9.122,0 13.5,-4.097 13.5,-13 c0,-10.243 -4.936,-20.204 -14,-27.5 c5.289,-9.574 10.037,-20.04 13.559,-29.838" fill="none" stroke="#000000" stroke-width="2" /></svg>