<?xml version='1.0' encoding='utf-8'?>
<svg xmlns="http://www.w3.org/2000/svg" height="100px" version="1.0" viewBox="0 0 100 100" width="100px" x="0px" y="0px">
<line fill="none" stroke="#000000" stroke-width="2" x1="70.5" x2="93.5" y1="68" y2="68" /><line fill="none" stroke="#000000" stroke-width="2" x1="70.5" x2="70.5" y1="87.5" y2="51" /><line fill="none" stroke="#000000" stroke-width="2" x1="45" x2="95.5" y1="51" y2="51" /><line fill="none" stroke="#000000" stroke-width="2" x1="50" x2="90.5" y1="25" y2="25" /><line fill="none" stroke="#000000" stroke-width="2" x1="10" x2="41" y1="70" y2="70" /><line fill="none" stroke="#000000" stroke-width="2" x1="5.5" x2="44.5" y1="11" y2="11" /><polyline fill="none" points="50,41 91.5,41 91.5,10.5 49,10.5 49,42" stroke="#000000" stroke-width="2" /><polyline fill="none" points="10,86 42,86 42,28 9,28 9,93" stroke="#000000" stroke-width="2" /><path d="M43,92 c6.443,-8.688 11.41,-21.052 13,-33.5" fill="none" stroke="#000000" stroke-width="2" /><path d="M95.5,90 h-5.0 c-20.576,0 -30.363,-4.933 -37.5,-18" fill="none" stroke="#000000" stroke-width="2" /><path d="M20.5,12 v17.0 c0,20.538 -1.387,24.464 -10,33" fill="none" stroke="#000000" stroke-width="2" /><path d="M30,12 v36.0 c0,5.49 0.593,6 4.5,6 h6.5" fill="none" stroke="#000000" stroke-width="2" /></svg>