<?xml version='1.0' encoding='utf-8'?>
<svg xmlns="http://www.w3.org/2000/svg" height="100px" version="1.0" viewBox="0 0 100 100" width="100px" x="0px" y="0px">
<line fill="none" stroke="#000000" stroke-width="2" x1="43.5" x2="7" y1="47" y2="47" /><line fill="none" stroke="#000000" stroke-width="2" x1="41.5" x2="11.5" y1="28" y2="28" /><line fill="none" stroke="#000000" stroke-width="2" x1="25.5" x2="25.5" y1="84.5" y2="28" /><line fill="none" stroke="#000000" stroke-width="2" x1="50" x2="92" y1="34" y2="34" /><path d="M41,91 c6.048,-14.052 9,-29.832 9,-51 v-29.0 h45.5" fill="none" stroke="#000000" stroke-width="2" /><path d="M6,89.5 c13.584,-2.877 24.686,-6.513 37,-12" fill="none" stroke="#000000" stroke-width="2" /><path d="M45,23 c-7.143,-4.952 -13.203,-10.167 -19,-16.5 c-6.445,8.159 -13.143,15.038 -21,21.5" fill="none" stroke="#000000" stroke-width="2" /><path d="M18,76 c-2.387,-7.582 -4.948,-14.762 -7.5,-21" fill="none" stroke="#000000" stroke-width="2" /><path d="M33.5,73 c2.857,-6.433 5.416,-12.93 7.5,-19" fill="none" stroke="#000000" stroke-width="2" /><path d="M47,91 c20.709,-9.229 36.346,-28.561 44.037,-56.268" fill="none" stroke="#000000" stroke-width="2" /><path d="M97,91 c-19.991,-9.931 -33.119,-25.981 -41,-52" fill="none" stroke="#000000" stroke-width="2" /></svg>