<?xml version='1.0' encoding='utf-8'?>
<svg xmlns="http://www.w3.org/2000/svg" height="100px" version="1.0" viewBox="0 0 100 100" width="100px" x="0px" y="0px">
<line fill="none" stroke="#000000" stroke-width="2" x1="41.5" x2="6" y1="47" y2="47" /><line fill="none" stroke="#000000" stroke-width="2" x1="40.5" x2="10.5" y1="28" y2="28" /><line fill="none" stroke="#000000" stroke-width="2" x1="24.5" x2="24.5" y1="84.5" y2="28" /><line fill="none" stroke="#000000" stroke-width="2" x1="69" x2="69" y1="16" y2="4" /><line fill="none" stroke="#000000" stroke-width="2" x1="43.5" x2="94.5" y1="16" y2="16" /><path d="M5,89.5 c14.318,-2.877 26.02,-6.513 39,-12" fill="none" stroke="#000000" stroke-width="2" /><path d="M44,23 c-7.143,-4.952 -13.203,-10.167 -19,-16.5 c-6.445,8.159 -13.143,15.038 -21,21.5" fill="none" stroke="#000000" stroke-width="2" /><path d="M17,76 c-2.387,-7.582 -4.948,-14.762 -7.5,-21" fill="none" stroke="#000000" stroke-width="2" /><path d="M32.5,73 c2.857,-6.433 5.416,-12.93 7.5,-19" fill="none" stroke="#000000" stroke-width="2" /><path d="M95,49 c-4.67,-7.688 -11.033,-17.379 -16.5,-25" fill="none" stroke="#000000" stroke-width="2" /><path d="M43.5,45.5 c13.459,-0.517 29.938,-2.284 46,-5" fill="none" stroke="#000000" stroke-width="2" /><path d="M53.5,45 c4.183,-7.901 8.924,-18.891 12.5,-29" fill="none" stroke="#000000" stroke-width="2" /><path d="M75,50 v36.5 c0,4.62 0.499,5 8,5 c10.505,0 10.707,-0.205 11.5,-22.5" fill="none" stroke="#000000" stroke-width="2" /><path d="M36,93 c13.429,-6.386 22,-21.143 22,-43" fill="none" stroke="#000000" stroke-width="2" /></svg>