<?xml version='1.0' encoding='utf-8'?>
<svg xmlns="http://www.w3.org/2000/svg" height="100px" version="1.0" viewBox="0 0 100 100" width="100px" x="0px" y="0px">
<line fill="none" stroke="#000000" stroke-width="2" x1="45.5" x2="88.5" y1="86" y2="86" /><line fill="none" stroke="#000000" stroke-width="2" x1="38" x2="95.5" y1="35.5" y2="35.5" /><line fill="none" stroke="#000000" stroke-width="2" x1="67" x2="67" y1="54" y2="15" /><line fill="none" stroke="#000000" stroke-width="2" x1="39" x2="5.5" y1="47" y2="47" /><line fill="none" stroke="#000000" stroke-width="2" x1="37" x2="10" y1="28" y2="28" /><line fill="none" stroke="#000000" stroke-width="2" x1="23.5" x2="23.5" y1="84.5" y2="28" /><polyline fill="none" points="44.5,93 44.5,55 89.5,55 89.5,93" stroke="#000000" stroke-width="2" /><path d="M41.5,17 c16.539,0 33.535,-2.7 50.5,-8" fill="none" stroke="#000000" stroke-width="2" /><path d="M4.5,89.5 c12.85,-2.638 23.35,-5.97 35,-11" fill="none" stroke="#000000" stroke-width="2" /><path d="M41.5,23 c-6.785,-4.952 -12.493,-10.167 -18,-16.5 c-6.123,8.159 -12.523,15.052 -20,21.5" fill="none" stroke="#000000" stroke-width="2" /><path d="M16.5,76 c-2.387,-7.582 -4.948,-14.762 -7.5,-21" fill="none" stroke="#000000" stroke-width="2" /><path d="M30,73 c2.857,-6.433 5.416,-12.93 7.5,-19" fill="none" stroke="#000000" stroke-width="2" /></svg>