<?xml version='1.0' encoding='utf-8'?>
<svg xmlns="http://www.w3.org/2000/svg" height="100px" version="1.0" viewBox="0 0 100 100" width="100px" x="0px" y="0px">
<line fill="none" stroke="#000000" stroke-width="2" x1="43.5" x2="94.5" y1="57" y2="52.5" /><line fill="none" stroke="#000000" stroke-width="2" x1="46.5" x2="90.5" y1="38" y2="34.5" /><line fill="none" stroke="#000000" stroke-width="2" x1="44.5" x2="92.5" y1="20" y2="17" /><line fill="none" stroke="#000000" stroke-width="2" x1="42" x2="6.5" y1="47" y2="47" /><line fill="none" stroke="#000000" stroke-width="2" x1="41" x2="11" y1="28" y2="28" /><line fill="none" stroke="#000000" stroke-width="2" x1="25" x2="25" y1="84.5" y2="28" /><path d="M88.5,57.5 c-11.563,14.7 -28.41,25.862 -52,33" fill="none" stroke="#000000" stroke-width="2" /><path d="M65,6 c0,72.198 14.508,85.5 23,85.5 c2.634,0 5.039,-3.232 6.5,-17" fill="none" stroke="#000000" stroke-width="2" /><path d="M73.5,6 c4.412,2.214 9.367,4.978 13.5,7.5" fill="none" stroke="#000000" stroke-width="2" /><path d="M5.5,89.5 c14.318,-2.877 26.02,-6.513 39,-12" fill="none" stroke="#000000" stroke-width="2" /><path d="M43,23 c-6.578,-4.952 -12.16,-10.167 -17.5,-16.5 c-6.445,8.159 -13.143,15.038 -21,21.5" fill="none" stroke="#000000" stroke-width="2" /><path d="M17.5,76 c-2.387,-7.582 -4.948,-14.762 -7.5,-21" fill="none" stroke="#000000" stroke-width="2" /><path d="M33,73 c2.857,-6.433 5.416,-12.93 7.5,-19" fill="none" stroke="#000000" stroke-width="2" /></svg>