<?xml version='1.0' encoding='utf-8'?>
<svg xmlns="http://www.w3.org/2000/svg" height="100px" version="1.0" viewBox="0 0 100 100" width="100px" x="0px" y="0px">
<line fill="none" stroke="#000000" stroke-width="2" x1="42" x2="5.5" y1="47" y2="47" /><line fill="none" stroke="#000000" stroke-width="2" x1="40" x2="10" y1="28" y2="28" /><line fill="none" stroke="#000000" stroke-width="2" x1="24" x2="24" y1="84.5" y2="28" /><polyline fill="none" points="49,51 90.5,51 90.5,22.5 48,22.5 48,52" stroke="#000000" stroke-width="2" /><path d="M75,52 v32.0 c0,6.229 0.399,6.5 9.5,6.5 c9.906,0 10.072,-0.182 10.5,-25" fill="none" stroke="#000000" stroke-width="2" /><path d="M38,92 c16.715,-7.62 23,-17.855 23,-41" fill="none" stroke="#000000" stroke-width="2" /><path d="M75,22.5 c3.983,-4.816 7.365,-10.373 10,-16.5" fill="none" stroke="#000000" stroke-width="2" /><path d="M61,22.5 c-2.346,-5.368 -5,-10.693 -8,-16" fill="none" stroke="#000000" stroke-width="2" /><path d="M4.5,89.5 c14.318,-2.877 26.02,-6.513 39,-12" fill="none" stroke="#000000" stroke-width="2" /><path d="M43.5,23 c-7.143,-4.952 -13.203,-10.167 -19,-16.5 c-6.445,8.159 -13.143,15.038 -21,21.5" fill="none" stroke="#000000" stroke-width="2" /><path d="M16.5,76 c-2.387,-7.582 -4.948,-14.762 -7.5,-21" fill="none" stroke="#000000" stroke-width="2" /><path d="M32,73 c2.857,-6.433 5.416,-12.93 7.5,-19" fill="none" stroke="#000000" stroke-width="2" /></svg>