<?xml version='1.0' encoding='utf-8'?>
<svg xmlns="http://www.w3.org/2000/svg" height="100px" version="1.0" viewBox="0 0 100 100" width="100px" x="0px" y="0px">
<line fill="none" stroke="#000000" stroke-width="2" x1="54" x2="54" y1="45.5" y2="84" /><line fill="none" stroke="#000000" stroke-width="2" x1="83" x2="83" y1="80" y2="45.5" /><line fill="none" stroke="#000000" stroke-width="2" x1="54" x2="83" y1="72" y2="72" /><line fill="none" stroke="#000000" stroke-width="2" x1="68.5" x2="68.5" y1="37.5" y2="72" /><line fill="none" stroke="#000000" stroke-width="2" x1="48" x2="89" y1="37.5" y2="37.5" /><line fill="none" stroke="#000000" stroke-width="2" x1="38" x2="4.5" y1="47" y2="47" /><line fill="none" stroke="#000000" stroke-width="2" x1="36" x2="9" y1="28" y2="28" /><line fill="none" stroke="#000000" stroke-width="2" x1="22.5" x2="22.5" y1="84.5" y2="28" /><path d="M74.5,37.5 c2.769,-6.425 5.21,-14.035 7,-22" fill="none" stroke="#000000" stroke-width="2" /><path d="M62.5,37.5 c-1.956,-7.086 -4.396,-14.581 -7,-21.5" fill="none" stroke="#000000" stroke-width="2" /><path d="M43.5,92 v-82.0 h50.0 v72.0 c0,7.565 -0.406,8 -5.5,8 c-1.906,0 -5.848,-0.155 -11.5,-0.5" fill="none" stroke="#000000" stroke-width="2" /><path d="M3.5,89.5 c12.85,-2.638 23.35,-5.97 35,-11" fill="none" stroke="#000000" stroke-width="2" /><path d="M40.5,23 c-6.785,-4.952 -12.493,-10.167 -18,-16.5 c-6.123,8.159 -12.523,15.052 -20,21.5" fill="none" stroke="#000000" stroke-width="2" /><path d="M15.5,76 c-2.387,-7.582 -4.948,-14.762 -7.5,-21" fill="none" stroke="#000000" stroke-width="2" /><path d="M29,73 c2.857,-6.433 5.416,-12.93 7.5,-19" fill="none" stroke="#000000" stroke-width="2" /></svg>