<?xml version='1.0' encoding='utf-8'?>
<svg xmlns="http://www.w3.org/2000/svg" height="100px" version="1.0" viewBox="0 0 100 100" width="100px" x="0px" y="0px">
<line fill="none" stroke="#000000" stroke-width="2" x1="48.5" x2="86.5" y1="43.5" y2="43.5" /><line fill="none" stroke="#000000" stroke-width="2" x1="67.5" x2="67.5" y1="13.5" y2="3.5" /><line fill="none" stroke="#000000" stroke-width="2" x1="39" x2="96" y1="13.5" y2="13.5" /><line fill="none" stroke="#000000" stroke-width="2" x1="67.5" x2="67.5" y1="55.5" y2="33.5" /><line fill="none" stroke="#000000" stroke-width="2" x1="38.5" x2="5" y1="47" y2="47" /><line fill="none" stroke="#000000" stroke-width="2" x1="36.5" x2="9.5" y1="28" y2="28" /><line fill="none" stroke="#000000" stroke-width="2" x1="23" x2="23" y1="84.5" y2="28" /><polyline fill="none" points="54,86.5 54,56.5 81,56.5 81,79.5 55,79.5" stroke="#000000" stroke-width="2" /><path d="M76,29.5 c2.813,-4.761 5.188,-10.157 7,-16" fill="none" stroke="#000000" stroke-width="2" /><path d="M58,29.5 c-1.956,-5.314 -4.36,-10.839 -7,-16" fill="none" stroke="#000000" stroke-width="2" /><path d="M77.5,90.5 c4.961,0.345 8.328,0.5 10,0.5 c4.553,0 5,-0.526 5,-7 v-54.5 h-50.0 V93.0" fill="none" stroke="#000000" stroke-width="2" /><path d="M4,89.5 c12.85,-2.638 23.35,-5.97 35,-11" fill="none" stroke="#000000" stroke-width="2" /><path d="M41,23 c-6.785,-4.952 -12.493,-10.167 -18,-16.5 c-6.123,8.159 -12.523,15.052 -20,21.5" fill="none" stroke="#000000" stroke-width="2" /><path d="M16,76 c-2.387,-7.582 -4.948,-14.762 -7.5,-21" fill="none" stroke="#000000" stroke-width="2" /><path d="M29.5,73 c2.857,-6.433 5.416,-12.93 7.5,-19" fill="none" stroke="#000000" stroke-width="2" /></svg>