<?xml version='1.0' encoding='utf-8'?>
<svg xmlns="http://www.w3.org/2000/svg" height="100px" version="1.0" viewBox="0 0 100 100" width="100px" x="0px" y="0px">
<line fill="none" stroke="#000000" stroke-width="2" x1="56" x2="89" y1="24.5" y2="24.5" /><line fill="none" stroke="#000000" stroke-width="2" x1="43" x2="11" y1="24.5" y2="24.5" /><line fill="none" stroke="#000000" stroke-width="2" x1="37.5" x2="69.5" y1="46" y2="46" /><polyline fill="none" points="10,92.5 10,10 44,10 44,40.5 11,40.5" stroke="#000000" stroke-width="2" /><polyline fill="none" points="33,86 68,86 68,68 32,68 32,90" stroke="#000000" stroke-width="2" /><path d="M72,90 c5.387,0.343 9.107,0.5 11.5,0.5 c6.027,0 6.5,-0.449 6.5,-8 V10.0 h-35.0 v30.5 h34.0" fill="none" stroke="#000000" stroke-width="2" /><path d="M22,58 c9.02,-4.936 15.592,-10.815 20,-17.5" fill="none" stroke="#000000" stroke-width="2" /><path d="M68.736,46.354 c-8.793,10.392 -22.311,17.688 -48.236,23.646" fill="none" stroke="#000000" stroke-width="2" /><path d="M34,49.5 c10.455,8.581 24.496,15.116 45.5,20.5" fill="none" stroke="#000000" stroke-width="2" /></svg>