<?xml version='1.0' encoding='utf-8'?>
<svg xmlns="http://www.w3.org/2000/svg" height="100px" version="1.0" viewBox="0 0 100 100" width="100px" x="0px" y="0px">
<line fill="none" stroke="#000000" stroke-width="2" x1="56" x2="89" y1="24.5" y2="24.5" /><line fill="none" stroke="#000000" stroke-width="2" x1="43" x2="11" y1="24.5" y2="24.5" /><polyline fill="none" points="10,92.5 10,10 44,10 44,40.5 11,40.5" stroke="#000000" stroke-width="2" /><polyline fill="none" points="31,69 70,69 70,53.5 30,53.5 30,70" stroke="#000000" stroke-width="2" /><path d="M73,90 c5.385,0.371 8.107,0.5 10.5,0.5 c6.027,0 6.5,-0.449 6.5,-8 V10.0 h-35.0 v30.5 h34.0" fill="none" stroke="#000000" stroke-width="2" /><path d="M43.5,53.5 c-2.549,-3.556 -5.327,-7.036 -8,-10" fill="none" stroke="#000000" stroke-width="2" /><path d="M56,53.5 c3.248,-3.265 6.291,-6.86 8.5,-10" fill="none" stroke="#000000" stroke-width="2" /><path d="M57,70 v11.0 c0,3.666 0.999,4.5 9,4.5 c9.958,0 10.172,-0.216 11,-12" fill="none" stroke="#000000" stroke-width="2" /><path d="M18.5,90 c15.74,-4.14 24,-12.198 24,-21" fill="none" stroke="#000000" stroke-width="2" /></svg>