<?xml version='1.0' encoding='utf-8'?>
<svg xmlns="http://www.w3.org/2000/svg" height="100px" version="1.0" viewBox="0 0 100 100" width="100px" x="0px" y="0px">
<line fill="none" stroke="#000000" stroke-width="2" x1="42.5" x2="91.041" y1="34" y2="34" /><polyline fill="none" points="37,10 11,10 11,93" stroke="#000000" stroke-width="2" /><path d="M17,71 h5.0 c7.789,0 11,-2.928 11,-10.5 c0,-8.302 -2.023,-13.576 -10,-23.5 c5.083,-8.09 9.91,-17.88 13.063,-26.349" fill="none" stroke="#000000" stroke-width="2" /><path d="M38.5,91 c24.262,-9.236 42.579,-28.585 51.59,-56.311" fill="none" stroke="#000000" stroke-width="2" /><path d="M96,91 c-22.029,-9.743 -36.352,-25.981 -45,-52" fill="none" stroke="#000000" stroke-width="2" /><path d="M31,91 c7.728,-14.052 11.5,-29.832 11.5,-51 v-29.0 h51.0" fill="none" stroke="#000000" stroke-width="2" /></svg>