<?xml version='1.0' encoding='utf-8'?>
<svg xmlns="http://www.w3.org/2000/svg" height="100px" version="1.0" viewBox="0 0 100 100" width="100px" x="0px" y="0px">
<line fill="none" stroke="#000000" stroke-width="2" x1="63" x2="63" y1="21" y2="4" /><line fill="none" stroke="#000000" stroke-width="2" x1="35.5" x2="96" y1="21" y2="21" /><polyline fill="none" points="37,10 11,10 11,93" stroke="#000000" stroke-width="2" /><path d="M17,71 h5.0 c7.789,0 11,-2.928 11,-10.5 c0,-8.302 -2.023,-13.576 -10,-23.5 c5.083,-8.09 9.91,-17.88 13.063,-26.349" fill="none" stroke="#000000" stroke-width="2" /><path d="M27,91 c19.109,-13.831 27,-30.635 27,-69" fill="none" stroke="#000000" stroke-width="2" /><path d="M53,41 h35.0 c0,39.336 -5.385,48 -13.5,48 c-3.299,0 -9.311,-0.322 -16.5,-1" fill="none" stroke="#000000" stroke-width="2" /></svg>