<?xml version='1.0' encoding='utf-8'?>
<svg xmlns="http://www.w3.org/2000/svg" height="100px" version="1.0" viewBox="0 0 100 100" width="100px" x="0px" y="0px">
<line fill="none" stroke="#000000" stroke-width="2" x1="37.5" x2="88.5" y1="39" y2="39" /><line fill="none" stroke="#000000" stroke-width="2" x1="64" x2="64" y1="39" y2="5" /><polyline fill="none" points="33,10 10,10 10,93" stroke="#000000" stroke-width="2" /><path d="M14,71 h4.0 c7.789,0 11,-2.928 11,-10.5 c0,-8.302 -2.023,-13.576 -10,-23.5 c5.083,-8.09 9.91,-17.88 13.063,-26.349" fill="none" stroke="#000000" stroke-width="2" /><path d="M86,33 c3.389,-4.989 5.912,-10.032 8.056,-16.323" fill="none" stroke="#000000" stroke-width="2" /><path d="M37,91 c21.447,-6.523 39.112,-23.589 50.575,-51.381" fill="none" stroke="#000000" stroke-width="2" /><path d="M95.5,91 c-21.86,-6.802 -38.149,-21.919 -48,-47" fill="none" stroke="#000000" stroke-width="2" /><path d="M27.5,91.5 c6.739,-14.092 10,-29.671 10,-51 V16.0 H95.0" fill="none" stroke="#000000" stroke-width="2" /></svg>