<?xml version='1.0' encoding='utf-8'?>
<svg xmlns="http://www.w3.org/2000/svg" height="100px" version="1.0" viewBox="0 0 100 100" width="100px" x="0px" y="0px">
<line fill="none" stroke="#000000" stroke-width="2" x1="37.5" x2="61" y1="23" y2="23" /><line fill="none" stroke="#000000" stroke-width="2" x1="37.5" x2="37.5" y1="49" y2="7.5" /><line fill="none" stroke="#000000" stroke-width="2" x1="95" x2="27" y1="89" y2="89" /><line fill="none" stroke="#000000" stroke-width="2" x1="91" x2="34" y1="65" y2="65" /><line fill="none" stroke="#000000" stroke-width="2" x1="62.5" x2="62.5" y1="89" y2="49.5" /><polyline fill="none" points="32,10 10,10 10,93" stroke="#000000" stroke-width="2" /><path d="M66.5,7.5 v36.143 c0,4.349 0.625,4.857 13,4.857 c12.391,0 12.584,-0.168 14,-20" fill="none" stroke="#000000" stroke-width="2" /><path d="M66.5,26.5 c10.487,-3.747 18.611,-7.794 26.5,-13" fill="none" stroke="#000000" stroke-width="2" /><path d="M30,50.5 c10.666,-2.148 20.883,-5.207 32,-9.5" fill="none" stroke="#000000" stroke-width="2" /><path d="M14,71 h4.0 c7.789,0 11,-2.928 11,-10.5 c0,-8.302 -2.023,-13.576 -10,-23.5 c5.074,-8.07 9.492,-17.637 12.041,-26.283" fill="none" stroke="#000000" stroke-width="2" /></svg>