<?xml version='1.0' encoding='utf-8'?>
<svg xmlns="http://www.w3.org/2000/svg" height="100px" version="1.0" viewBox="0 0 100 100" width="100px" x="0px" y="0px">
<line fill="none" stroke="#000000" stroke-width="2" x1="63.5" x2="63.5" y1="74.5" y2="11" /><line fill="none" stroke="#000000" stroke-width="2" x1="87" x2="40" y1="42" y2="42" /><line fill="none" stroke="#000000" stroke-width="2" x1="87" x2="40" y1="26" y2="26" /><polyline fill="none" points="39,43 39,10 88,10 88,43" stroke="#000000" stroke-width="2" /><polyline fill="none" points="34.5,10 10.5,10 10.5,93" stroke="#000000" stroke-width="2" /><path d="M76,90.5 c5.624,0.363 8.998,0.5 10.5,0.5 c4.994,0 5.5,-0.614 5.5,-8 v-28.5 h-57.0 v38.0" fill="none" stroke="#000000" stroke-width="2" /><path d="M87,80.5 c-2.898,-6.317 -7.165,-14.304 -11,-20.5" fill="none" stroke="#000000" stroke-width="2" /><path d="M40.5,77.5 c13.033,-0.974 27.541,-3.63 41,-7.5" fill="none" stroke="#000000" stroke-width="2" /><path d="M14.5,71 h5.0 c7.789,0 11,-2.928 11,-10.5 c0,-8.302 -2.023,-13.576 -10,-23.5 c5.083,-8.09 9.91,-17.88 13.063,-26.349" fill="none" stroke="#000000" stroke-width="2" /></svg>