<?xml version='1.0' encoding='utf-8'?>
<svg xmlns="http://www.w3.org/2000/svg" height="100px" version="1.0" viewBox="0 0 100 100" width="100px" x="0px" y="0px">
<line fill="none" stroke="#000000" stroke-width="2" x1="35.5" x2="89.5" y1="61.5" y2="61.5" /><line fill="none" stroke="#000000" stroke-width="2" x1="35.5" x2="89.5" y1="47.5" y2="47.5" /><polyline fill="none" points="38.5,25 87.5,25 87.5,10 37.5,10 37.5,26" stroke="#000000" stroke-width="2" /><polyline fill="none" points="35.5,75.5 90.5,75.5 90.5,33.5 34.5,33.5 34.5,76.5" stroke="#000000" stroke-width="2" /><polyline fill="none" points="32.5,10 9.5,10 9.5,93" stroke="#000000" stroke-width="2" /><path d="M27.5,92 c10.97,-3.282 20.417,-7.801 26,-12" fill="none" stroke="#000000" stroke-width="2" /><path d="M95.5,93 c-6.695,-4.208 -15.932,-8.731 -26,-12.5" fill="none" stroke="#000000" stroke-width="2" /><path d="M13.5,71 h4.0 c7.789,0 11,-2.928 11,-10.5 c0,-8.302 -2.023,-13.576 -10,-23.5 c5.083,-8.09 9.91,-17.88 13.063,-26.349" fill="none" stroke="#000000" stroke-width="2" /></svg>