<?xml version='1.0' encoding='utf-8'?>
<svg xmlns="http://www.w3.org/2000/svg" height="100px" version="1.0" viewBox="0 0 100 100" width="100px" x="0px" y="0px">
<line fill="none" stroke="#000000" stroke-width="2" x1="37" x2="86" y1="53.5" y2="53.5" /><line fill="none" stroke="#000000" stroke-width="2" x1="25" x2="95" y1="77.5" y2="77.5" /><line fill="none" stroke="#000000" stroke-width="2" x1="62" x2="62" y1="94" y2="68" /><line fill="none" stroke="#000000" stroke-width="2" x1="28" x2="95" y1="32.5" y2="32.5" /><line fill="none" stroke="#000000" stroke-width="2" x1="30" x2="94" y1="15" y2="15" /><line fill="none" stroke="#000000" stroke-width="2" x1="62" x2="62" y1="15" y2="4.5" /><polyline fill="none" points="32.5,10 9.5,10 9.5,94" stroke="#000000" stroke-width="2" /><polyline fill="none" points="37,67 87,67 87,41 36,41 36,68" stroke="#000000" stroke-width="2" /><path d="M13.5,71 h4.0 c7.789,0 11,-2.928 11,-10.5 c0,-8.302 -2.023,-13.576 -10,-23.5 c5.083,-8.09 9.91,-17.88 13.063,-26.349" fill="none" stroke="#000000" stroke-width="2" /><path d="M70.5,32.5 c4.041,-4.94 7.256,-10.87 9.5,-17.5" fill="none" stroke="#000000" stroke-width="2" /><path d="M51.5,32.5 c-2.729,-5.93 -5.852,-11.708 -9.5,-17.5" fill="none" stroke="#000000" stroke-width="2" /></svg>