<?xml version='1.0' encoding='utf-8'?>
<svg xmlns="http://www.w3.org/2000/svg" height="100px" version="1.0" viewBox="0 0 100 100" width="100px" x="0px" y="0px">
<line fill="none" stroke="#000000" stroke-width="2" x1="35" x2="90" y1="48.5" y2="48.5" /><polyline fill="none" points="31.5,10 8.5,10 8.5,93" stroke="#000000" stroke-width="2" /><polyline fill="none" points="32,63.5 91,63.5 91,34.5 32,34.5" stroke="#000000" stroke-width="2" /><path d="M12.5,71 h4.0 c7.789,0 11,-2.928 11,-10.5 c0,-8.302 -2.023,-13.576 -10,-23.5 c5.083,-8.09 9.91,-17.88 13.063,-26.349" fill="none" stroke="#000000" stroke-width="2" /><path d="M33.5,14 c20.68,0 40.53,-1.901 59,-5.5" fill="none" stroke="#000000" stroke-width="2" /><path d="M43.5,31 c-2.021,-4.866 -4.256,-9.521 -6.5,-13.5" fill="none" stroke="#000000" stroke-width="2" /><path d="M64.5,31 c-2.013,-5.231 -4.258,-10.226 -6.5,-14.5" fill="none" stroke="#000000" stroke-width="2" /><path d="M79,34.5 c3.528,-6.766 6.46,-13.88 8.5,-20.5" fill="none" stroke="#000000" stroke-width="2" /><path d="M42.5,70 v12.0 c0,8.844 0.293,9.153 6,9.601 c3.113,0.242 7.198,0.399 11,0.399 c3.732,0 7.678,-0.138 11,-0.399 c9.469,-0.753 9.703,-0.93 11,-13.601" fill="none" stroke="#000000" stroke-width="2" /><path d="M20.5,90.5 c5.058,-5.263 9.24,-11.75 12,-18.5" fill="none" stroke="#000000" stroke-width="2" /><path d="M97,90.5 c-3.486,-6.149 -7.973,-12.565 -13,-18.5" fill="none" stroke="#000000" stroke-width="2" /><path d="M69.5,81 c-5.09,-4.073 -11.27,-8.354 -17.5,-12" fill="none" stroke="#000000" stroke-width="2" /></svg>