<?xml version='1.0' encoding='utf-8'?>
<svg xmlns="http://www.w3.org/2000/svg" height="100px" version="1.0" viewBox="0 0 100 100" width="100px" x="0px" y="0px">
<line fill="none" stroke="#000000" stroke-width="2" x1="49" x2="49" y1="20.5" y2="94" /><line fill="none" stroke="#000000" stroke-width="2" x1="94.5" x2="49.5" y1="20" y2="20" /><line fill="none" stroke="#000000" stroke-width="2" x1="73" x2="73" y1="87" y2="20" /><line fill="none" stroke="#000000" stroke-width="2" x1="50" x2="96" y1="87" y2="87" /><line fill="none" stroke="#000000" stroke-width="2" x1="49" x2="92.5" y1="64" y2="64" /><line fill="none" stroke="#000000" stroke-width="2" x1="49" x2="92.5" y1="41.5" y2="41.5" /><line fill="none" stroke="#000000" stroke-width="2" x1="42" x2="16" y1="16" y2="16" /><line fill="none" stroke="#000000" stroke-width="2" x1="43" x2="6" y1="44" y2="44" /><path d="M80,4 c-1.911,5.901 -4.193,11.098 -7,16" fill="none" stroke="#000000" stroke-width="2" /><path d="M37.5,33.5 c8.467,-7.635 14.479,-17.039 18.5,-29.5" fill="none" stroke="#000000" stroke-width="2" /><path d="M7,38 c5.183,-9.372 9.429,-21.253 12,-34" fill="none" stroke="#000000" stroke-width="2" /><path d="M6.5,90 c11.652,-8.756 20,-27.479 20,-48.5 V16.0" fill="none" stroke="#000000" stroke-width="2" /><path d="M43.5,79 c-5.318,-9.28 -11.369,-19.036 -17.5,-28.5" fill="none" stroke="#000000" stroke-width="2" /></svg>