<?xml version='1.0' encoding='utf-8'?>
<svg xmlns="http://www.w3.org/2000/svg" height="100px" version="1.0" viewBox="0 0 100 100" width="100px" x="0px" y="0px">
<line fill="none" stroke="#000000" stroke-width="2" x1="46" x2="46" y1="20" y2="94" /><line fill="none" stroke="#000000" stroke-width="2" x1="93" x2="46" y1="20" y2="20" /><line fill="none" stroke="#000000" stroke-width="2" x1="71" x2="71" y1="87" y2="20" /><line fill="none" stroke="#000000" stroke-width="2" x1="47" x2="95" y1="87" y2="87" /><line fill="none" stroke="#000000" stroke-width="2" x1="46" x2="91" y1="64" y2="64" /><line fill="none" stroke="#000000" stroke-width="2" x1="46" x2="91" y1="41.5" y2="41.5" /><line fill="none" stroke="#000000" stroke-width="2" x1="11.5" x2="34.5" y1="60" y2="60" /><line fill="none" stroke="#000000" stroke-width="2" x1="11.5" x2="34.5" y1="36" y2="36" /><polyline fill="none" points="35.5,77.5 35.5,13 10.5,13 10.5,86.5" stroke="#000000" stroke-width="2" /><path d="M78.5,4 c-2.172,5.901 -4.801,11.103 -8,16" fill="none" stroke="#000000" stroke-width="2" /><path d="M35.5,36 c7.191,-8.991 12.481,-19.565 16,-32" fill="none" stroke="#000000" stroke-width="2" /><path d="M4,88.5 c13.201,-3.521 24.795,-7.715 38.5,-14" fill="none" stroke="#000000" stroke-width="2" /></svg>