<?xml version='1.0' encoding='utf-8'?>
<svg xmlns="http://www.w3.org/2000/svg" height="100px" version="1.0" viewBox="0 0 100 100" width="100px" x="0px" y="0px">
<line fill="none" stroke="#000000" stroke-width="2" x1="57" x2="57" y1="20.5" y2="94" /><line fill="none" stroke="#000000" stroke-width="2" x1="94.5" x2="57.5" y1="20" y2="20" /><line fill="none" stroke="#000000" stroke-width="2" x1="77" x2="77" y1="87" y2="20" /><line fill="none" stroke="#000000" stroke-width="2" x1="58" x2="96" y1="87" y2="87" /><line fill="none" stroke="#000000" stroke-width="2" x1="57" x2="93" y1="64" y2="64" /><line fill="none" stroke="#000000" stroke-width="2" x1="57" x2="93" y1="41.5" y2="41.5" /><line fill="none" stroke="#000000" stroke-width="2" x1="6" x2="52.5" y1="14.5" y2="14.5" /><line fill="none" stroke="#000000" stroke-width="2" x1="19" x2="19" y1="22.5" y2="4.5" /><line fill="none" stroke="#000000" stroke-width="2" x1="39" x2="39" y1="22.5" y2="4.5" /><line fill="none" stroke="#000000" stroke-width="2" x1="6" x2="52" y1="67.5" y2="67.5" /><line fill="none" stroke="#000000" stroke-width="2" x1="8" x2="50" y1="54.5" y2="54.5" /><polyline fill="none" points="10.5,44 48.5,44 48.5,26.5 9.5,26.5 9.5,45" stroke="#000000" stroke-width="2" /><path d="M83,4 c-1.638,5.899 -3.596,11.101 -6,16" fill="none" stroke="#000000" stroke-width="2" /><path d="M48.5,34 c6.116,-7.41 11.057,-17.736 14,-30" fill="none" stroke="#000000" stroke-width="2" /><path d="M6,91.5 c14.961,-6.008 22.5,-15.589 22.5,-27.5 v-36.5" fill="none" stroke="#000000" stroke-width="2" /><path d="M49,90.5 c-8.791,-5.251 -15.887,-13.131 -20.5,-23" fill="none" stroke="#000000" stroke-width="2" /></svg>