<?xml version='1.0' encoding='utf-8'?>
<svg xmlns="http://www.w3.org/2000/svg" height="100px" version="1.0" viewBox="0 0 100 100" width="100px" x="0px" y="0px">
<line fill="none" stroke="#000000" stroke-width="2" x1="36" x2="95" y1="38.5" y2="38.5" /><line fill="none" stroke="#000000" stroke-width="2" x1="93" x2="38" y1="13.5" y2="13.5" /><line fill="none" stroke="#000000" stroke-width="2" x1="90" x2="41" y1="26" y2="26" /><line fill="none" stroke="#000000" stroke-width="2" x1="66" x2="66" y1="38.5" y2="5" /><line fill="none" stroke="#000000" stroke-width="2" x1="43" x2="88" y1="75" y2="75" /><line fill="none" stroke="#000000" stroke-width="2" x1="43" x2="88" y1="62" y2="62" /><line fill="none" stroke="#000000" stroke-width="2" x1="6" x2="36" y1="25" y2="25" /><line fill="none" stroke="#000000" stroke-width="2" x1="21" x2="21" y1="25" y2="7" /><path d="M42,92 V49.0 h47.0 v36.96 c0,4.177 -0.469,4.54 -7.5,4.54 c-2.172,0 -5.876,-0.137 -12.5,-0.5" fill="none" stroke="#000000" stroke-width="2" /><path d="M6,87 c10.165,-2.489 18.964,-5.403 30,-10" fill="none" stroke="#000000" stroke-width="2" /><path d="M25.5,81 c2.68,-13.673 4.975,-30.976 6.5,-49.5" fill="none" stroke="#000000" stroke-width="2" /><path d="M15,73.5 c-1.303,-13.792 -2.887,-28.188 -4.5,-41.5" fill="none" stroke="#000000" stroke-width="2" /></svg>