<?xml version='1.0' encoding='utf-8'?>
<svg xmlns="http://www.w3.org/2000/svg" height="100px" version="1.0" viewBox="0 0 100 100" width="100px" x="0px" y="0px">
<line fill="none" stroke="#000000" stroke-width="2" x1="36" x2="95.5" y1="10.5" y2="10.5" /><line fill="none" stroke="#000000" stroke-width="2" x1="41" x2="89.5" y1="57" y2="57" /><line fill="none" stroke="#000000" stroke-width="2" x1="41" x2="89.5" y1="41" y2="41" /><polyline fill="none" points="41,73.5 90.5,73.5 90.5,25.5 40,25.5 40,74.5" stroke="#000000" stroke-width="2" /><path d="M31.5,92.5 c10.537,-3.835 19.639,-9.067 25,-14" fill="none" stroke="#000000" stroke-width="2" /><path d="M95,93 c-6.459,-4.882 -15.296,-10.108 -25,-14.5" fill="none" stroke="#000000" stroke-width="2" /><path d="M64.5,10.5 c-0.98,5.553 -2.142,10.448 -3.5,15" fill="none" stroke="#000000" stroke-width="2" /><path d="M9,43.5 c8.695,-4.842 16.267,-11.147 25,-21" fill="none" stroke="#000000" stroke-width="2" /><path d="M9,8.5 v65.5 c0,3.989 0.621,4.5 10.5,4.5 c10.458,0 10.663,-0.165 11.5,-24" fill="none" stroke="#000000" stroke-width="2" /></svg>