<?xml version='1.0' encoding='utf-8'?>
<svg xmlns="http://www.w3.org/2000/svg" height="100px" version="1.0" viewBox="0 0 100 100" width="100px" x="0px" y="0px">
<line fill="none" stroke="#000000" stroke-width="2" x1="36.5" x2="96" y1="10.5" y2="10.5" /><line fill="none" stroke="#000000" stroke-width="2" x1="41.5" x2="90" y1="57" y2="57" /><line fill="none" stroke="#000000" stroke-width="2" x1="41.5" x2="90" y1="41" y2="41" /><line fill="none" stroke="#000000" stroke-width="2" x1="19.5" x2="19.5" y1="16.5" y2="73.5" /><line fill="none" stroke="#000000" stroke-width="2" x1="35.5" x2="3.5" y1="16.5" y2="16.5" /><polyline fill="none" points="41.5,73.5 91,73.5 91,25.5 40.5,25.5 40.5,74.5" stroke="#000000" stroke-width="2" /><path d="M32,92.5 c10.537,-3.835 19.639,-9.067 25,-14" fill="none" stroke="#000000" stroke-width="2" /><path d="M95.5,93 c-6.459,-4.882 -15.296,-10.108 -25,-14.5" fill="none" stroke="#000000" stroke-width="2" /><path d="M65,10.5 c-0.98,5.553 -2.142,10.448 -3.5,15" fill="none" stroke="#000000" stroke-width="2" /><path d="M3,78.5 c13.504,-3.218 25.76,-7.843 33,-12" fill="none" stroke="#000000" stroke-width="2" /></svg>