<?xml version='1.0' encoding='utf-8'?>
<svg xmlns="http://www.w3.org/2000/svg" height="100px" version="1.0" viewBox="0 0 100 100" width="100px" x="0px" y="0px">
<line fill="none" stroke="#000000" stroke-width="2" x1="4" x2="44" y1="43.5" y2="43.5" /><line fill="none" stroke="#000000" stroke-width="2" x1="41" x2="6" y1="11" y2="11" /><line fill="none" stroke="#000000" stroke-width="2" x1="44.5" x2="96" y1="10.5" y2="10.5" /><line fill="none" stroke="#000000" stroke-width="2" x1="49.5" x2="90" y1="57" y2="57" /><line fill="none" stroke="#000000" stroke-width="2" x1="49.5" x2="90" y1="41" y2="41" /><polyline fill="none" points="49.5,73.5 91,73.5 91,25.5 48.5,25.5 48.5,74.5" stroke="#000000" stroke-width="2" /><path d="M40.117,11.532 c-4.901,9.247 -9.893,16.476 -16.117,23.468" fill="none" stroke="#000000" stroke-width="2" /><path d="M31,43.5 c-5.66,-6.938 -12.452,-14.099 -20,-21" fill="none" stroke="#000000" stroke-width="2" /><path d="M23.5,43.5 v40.0 c0,7.478 -0.514,8 -5,8 c-2.5,0 -6.127,-0.168 -10,-0.5" fill="none" stroke="#000000" stroke-width="2" /><path d="M41,92.5 c8.43,-3.835 15.711,-9.067 20,-14" fill="none" stroke="#000000" stroke-width="2" /><path d="M95.5,93 c-5.166,-4.882 -12.236,-10.108 -20,-14.5" fill="none" stroke="#000000" stroke-width="2" /><path d="M69,10.5 c-0.98,5.553 -2.142,10.448 -3.5,15" fill="none" stroke="#000000" stroke-width="2" /><path d="M31.5,64.5 c4.613,-6.146 8.198,-12.427 11.578,-20.391" fill="none" stroke="#000000" stroke-width="2" /></svg>