<?xml version='1.0' encoding='utf-8'?>
<svg xmlns="http://www.w3.org/2000/svg" height="100px" version="1.0" viewBox="0 0 100 100" width="100px" x="0px" y="0px">
<line fill="none" stroke="#000000" stroke-width="2" x1="8" x2="8" y1="31" y2="71.5" /><line fill="none" stroke="#000000" stroke-width="2" x1="48.5" x2="96" y1="10.5" y2="10.5" /><line fill="none" stroke="#000000" stroke-width="2" x1="53.5" x2="90" y1="57" y2="57" /><line fill="none" stroke="#000000" stroke-width="2" x1="53.5" x2="90" y1="41" y2="41" /><polyline fill="none" points="8,58.5 42,58.5 42,30" stroke="#000000" stroke-width="2" /><polyline fill="none" points="53.5,73.5 91,73.5 91,25.5 52.5,25.5 52.5,74.5" stroke="#000000" stroke-width="2" /><path d="M25,6 v74.0 c0,6.626 0.484,7 10.5,7 c9.457,0 9.759,-0.317 10.5,-22" fill="none" stroke="#000000" stroke-width="2" /><path d="M4.5,23 c18.896,-2.085 31.258,-5.429 40,-10" fill="none" stroke="#000000" stroke-width="2" /><path d="M45,92.5 c7.587,-3.835 14.14,-9.067 18,-14" fill="none" stroke="#000000" stroke-width="2" /><path d="M95.5,93 c-4.649,-4.882 -11.013,-10.108 -18,-14.5" fill="none" stroke="#000000" stroke-width="2" /><path d="M70.5,10.5 c-0.84,5.553 -1.835,10.448 -3,15" fill="none" stroke="#000000" stroke-width="2" /></svg>