<?xml version='1.0' encoding='utf-8'?>
<svg xmlns="http://www.w3.org/2000/svg" height="100px" version="1.0" viewBox="0 0 100 100" width="100px" x="0px" y="0px">
<line fill="none" stroke="#000000" stroke-width="2" x1="44.5" x2="96" y1="10.5" y2="10.5" /><line fill="none" stroke="#000000" stroke-width="2" x1="50.5" x2="90" y1="57" y2="57" /><line fill="none" stroke="#000000" stroke-width="2" x1="50.5" x2="90" y1="41" y2="41" /><line fill="none" stroke="#000000" stroke-width="2" x1="39.5" x2="11.5" y1="32" y2="32" /><line fill="none" stroke="#000000" stroke-width="2" x1="19.5" x2="19.5" y1="94" y2="47" /><polyline fill="none" points="50.5,73.5 91,73.5 91,25.5 49.5,25.5 49.5,74.5" stroke="#000000" stroke-width="2" /><path d="M40.5,92.5 c8.851,-3.835 16.495,-9.067 21,-14" fill="none" stroke="#000000" stroke-width="2" /><path d="M95.5,93 c-5.425,-4.882 -12.849,-10.108 -21,-14.5" fill="none" stroke="#000000" stroke-width="2" /><path d="M69.5,10.5 c-1,5.549 -2.141,10.448 -3.5,15" fill="none" stroke="#000000" stroke-width="2" /><path d="M45,34 c-7.906,-9.292 -13.469,-16.901 -20.5,-28.2 c-6.391,12.147 -13.34,22.572 -21.5,32.2" fill="none" stroke="#000000" stroke-width="2" /><path d="M4,47 h37.0 v26.0 c0,7.596 -0.4,8 -4,8 c-1.15,0 -6.029,-0.218 -10,-0.5" fill="none" stroke="#000000" stroke-width="2" /></svg>