<?xml version='1.0' encoding='utf-8'?>
<svg xmlns="http://www.w3.org/2000/svg" height="100px" version="1.0" viewBox="0 0 100 100" width="100px" x="0px" y="0px">
<line fill="none" stroke="#000000" stroke-width="2" x1="27" x2="27" y1="94" y2="5" /><line fill="none" stroke="#000000" stroke-width="2" x1="3.5" x2="48.5" y1="16" y2="16" /><line fill="none" stroke="#000000" stroke-width="2" x1="49.5" x2="96" y1="10.5" y2="10.5" /><line fill="none" stroke="#000000" stroke-width="2" x1="53.5" x2="91" y1="57" y2="57" /><line fill="none" stroke="#000000" stroke-width="2" x1="53.5" x2="91" y1="41" y2="41" /><polyline fill="none" points="10,54 45,54 45,30 9,30 9,55" stroke="#000000" stroke-width="2" /><polyline fill="none" points="53.5,73.5 92,73.5 92,25.5 52.5,25.5 52.5,74.5" stroke="#000000" stroke-width="2" /><path d="M3.5,85 c10.875,-9.87 18.318,-20.021 23,-31" fill="none" stroke="#000000" stroke-width="2" /><path d="M50,78 c-10.514,-7.505 -17.982,-15.585 -22.5,-24" fill="none" stroke="#000000" stroke-width="2" /><path d="M46,92.5 c8.147,-3.901 15,-9.159 19,-14" fill="none" stroke="#000000" stroke-width="2" /><path d="M96.5,93 c-4.391,-4.882 -10.4,-10.108 -17,-14.5" fill="none" stroke="#000000" stroke-width="2" /><path d="M71,10.5 c-0.84,5.553 -1.835,10.448 -3,15" fill="none" stroke="#000000" stroke-width="2" /></svg>