<?xml version='1.0' encoding='utf-8'?>
<svg xmlns="http://www.w3.org/2000/svg" height="100px" version="1.0" viewBox="0 0 100 100" width="100px" x="0px" y="0px">
<line fill="none" stroke="#000000" stroke-width="2" x1="6.5" x2="93.5" y1="16" y2="16" /><line fill="none" stroke="#000000" stroke-width="2" x1="50" x2="50" y1="93.5" y2="5" /><path d="M7,60 c11.645,-10.012 19.485,-23.592 22.5,-39" fill="none" stroke="#000000" stroke-width="2" /><path d="M44,54.5 c-5.66,-7.558 -12.475,-14.116 -19.5,-19" fill="none" stroke="#000000" stroke-width="2" /><path d="M56,54.5 c8.557,-9.272 14.499,-20.718 17,-33.5" fill="none" stroke="#000000" stroke-width="2" /><path d="M93,60 c-7.318,-9.715 -15.952,-18.173 -25,-24.5" fill="none" stroke="#000000" stroke-width="2" /><path d="M6,89.5 c21.367,-11.505 35.326,-23.248 44,-36" fill="none" stroke="#000000" stroke-width="2" /><path d="M94,89.5 c-21.367,-11.505 -35.326,-23.248 -44,-36" fill="none" stroke="#000000" stroke-width="2" /></svg>