<?xml version='1.0' encoding='utf-8'?>
<svg xmlns="http://www.w3.org/2000/svg" height="100px" version="1.0" viewBox="0 0 100 100" width="100px" x="0px" y="0px">
<line fill="none" stroke="#000000" stroke-width="2" x1="17" x2="17" y1="94" y2="31.3" /><line fill="none" stroke="#000000" stroke-width="2" x1="43" x2="74" y1="12" y2="12" /><polyline fill="none" points="32.5,61.5 32.5,28 91.5,28 91.5,53.5 33.5,53.5" stroke="#000000" stroke-width="2" /><path d="M25,6 c-4.303,19.29 -11.811,36.252 -21.5,49.5" fill="none" stroke="#000000" stroke-width="2" /><path d="M62.48,28 c3.684,-4.53 7.756,-10.46 10.649,-15.498" fill="none" stroke="#000000" stroke-width="2" /><path d="M24.5,34.5 c10.193,-8.591 17.773,-19.06 22.5,-31" fill="none" stroke="#000000" stroke-width="2" /><path d="M69,54.5 v32.0 c0,4.583 0.555,5 12.5,5 c11.753,0 11.966,-0.183 13,-22.5" fill="none" stroke="#000000" stroke-width="2" /><path d="M25.5,93 c25.128,-9.242 36.5,-27.664 36.5,-64" fill="none" stroke="#000000" stroke-width="2" /></svg>