<?xml version='1.0' encoding='utf-8'?>
<svg xmlns="http://www.w3.org/2000/svg" height="100px" version="1.0" viewBox="0 0 100 100" width="100px" x="0px" y="0px">
<line fill="none" stroke="#000000" stroke-width="2" x1="16.5" x2="16.5" y1="94" y2="28.8" /><line fill="none" stroke="#000000" stroke-width="2" x1="60.5" x2="60.5" y1="15" y2="4" /><line fill="none" stroke="#000000" stroke-width="2" x1="26" x2="94" y1="90" y2="90" /><line fill="none" stroke="#000000" stroke-width="2" x1="89.5" x2="30.5" y1="57" y2="57" /><line fill="none" stroke="#000000" stroke-width="2" x1="60.5" x2="60.5" y1="90" y2="57" /><polyline fill="none" points="91.5,30 91.5,15 29.5,15 29.5,33" stroke="#000000" stroke-width="2" /><path d="M23.5,6 c-4.303,19.29 -11.811,36.252 -21.5,49.5" fill="none" stroke="#000000" stroke-width="2" /><path d="M66.5,15 v26.5 c0,4.844 0.166,5 11,5 c11.854,0 12.081,-0.195 13,-11" fill="none" stroke="#000000" stroke-width="2" /><path d="M29,50 c15.936,-6.36 25.5,-18.868 25.5,-34" fill="none" stroke="#000000" stroke-width="2" /></svg>