<?xml version='1.0' encoding='utf-8'?>
<svg xmlns="http://www.w3.org/2000/svg" height="100px" version="1.0" viewBox="0 0 100 100" width="100px" x="0px" y="0px">
<line fill="none" stroke="#000000" stroke-width="2" x1="16.5" x2="16.5" y1="94" y2="31.8" /><line fill="none" stroke="#000000" stroke-width="2" x1="22.5" x2="96" y1="43.5" y2="43.5" /><line fill="none" stroke="#000000" stroke-width="2" x1="93.5" x2="27" y1="26" y2="26" /><polyline fill="none" points="77.5,77 77.5,54.5 40.5,54.5" stroke="#000000" stroke-width="2" /><path d="M25,6 c-4.616,19.812 -12.729,37.308 -23,51" fill="none" stroke="#000000" stroke-width="2" /><path d="M22,66 c19.186,-10.963 35.139,-36.526 37.5,-62" fill="none" stroke="#000000" stroke-width="2" /><path d="M96.5,66 c-12.811,-7.808 -24.986,-22.948 -31.5,-40" fill="none" stroke="#000000" stroke-width="2" /><path d="M42,26 c-3.229,-6.224 -6.68,-12.282 -10,-17.5" fill="none" stroke="#000000" stroke-width="2" /><path d="M76.5,26 c3.756,-5.8 7.336,-12.054 10,-17.5" fill="none" stroke="#000000" stroke-width="2" /><path d="M77.5,70 H35.0 v13.5 c0,8.401 0.115,8.5 26,8.5 c25.569,0 25.782,-0.153 27.5,-17.5" fill="none" stroke="#000000" stroke-width="2" /></svg>