<?xml version='1.0' encoding='utf-8'?>
<svg xmlns="http://www.w3.org/2000/svg" height="100px" version="1.0" viewBox="0 0 100 100" width="100px" x="0px" y="0px">
<line fill="none" stroke="#000000" stroke-width="2" x1="13" x2="13" y1="94" y2="34" /><line fill="none" stroke="#000000" stroke-width="2" x1="27" x2="95" y1="34.5" y2="34.5" /><line fill="none" stroke="#000000" stroke-width="2" x1="59.5" x2="59.5" y1="13" y2="2.5" /><line fill="none" stroke="#000000" stroke-width="2" x1="63" x2="63" y1="24" y2="92.5" /><line fill="none" stroke="#000000" stroke-width="2" x1="91" x2="36" y1="67" y2="67" /><line fill="none" stroke="#000000" stroke-width="2" x1="91" x2="36" y1="78.5" y2="78.5" /><line fill="none" stroke="#000000" stroke-width="2" x1="63" x2="63" y1="23" y2="13" /><polyline fill="none" points="34.5,46 88.5,46 88.5,23 34.5,23" stroke="#000000" stroke-width="2" /><path d="M21.5,6 c-4.002,19.29 -10.986,36.252 -20,49.5" fill="none" stroke="#000000" stroke-width="2" /><path d="M20,92 c4.889,-14.019 7,-27.525 7,-47 v-32.0 h67.0" fill="none" stroke="#000000" stroke-width="2" /><path d="M72,91.5 c6.685,0.362 10.713,0.5 12.5,0.5 c5.953,0 6.5,-0.673 6.5,-8 v-28.5 h-56.0 v37.5" fill="none" stroke="#000000" stroke-width="2" /></svg>