<?xml version='1.0' encoding='utf-8'?>
<svg xmlns="http://www.w3.org/2000/svg" height="100px" version="1.0" viewBox="0 0 100 100" width="100px" x="0px" y="0px">
<line fill="none" stroke="#000000" stroke-width="2" x1="69" x2="31" y1="23.5" y2="23.5" /><polyline fill="none" points="16.5,59 45.5,59 45.5,34 15.5,34 15.5,60" stroke="#000000" stroke-width="2" /><polyline fill="none" points="55.5,59 84.5,59 84.5,34 54.5,34 54.5,60" stroke="#000000" stroke-width="2" /><path d="M94.5,32.5 c-16.906,-8.264 -31.083,-17.121 -44.5,-27.8 c-13.417,10.679 -27.594,19.536 -44.5,27.8" fill="none" stroke="#000000" stroke-width="2" /><path d="M7,91.5 c12.432,-7.444 20.781,-17.542 24,-29" fill="none" stroke="#000000" stroke-width="2" /><path d="M47,91.5 c-5.748,-8.39 -12.307,-15.147 -19.5,-20.5" fill="none" stroke="#000000" stroke-width="2" /><path d="M51,91.5 c9.135,-8.007 15.33,-17.962 18,-29" fill="none" stroke="#000000" stroke-width="2" /><path d="M93,91.5 c-7.812,-8.39 -16.841,-15.536 -26.5,-21" fill="none" stroke="#000000" stroke-width="2" /></svg>