<?xml version='1.0' encoding='utf-8'?>
<svg xmlns="http://www.w3.org/2000/svg" height="100px" version="1.0" viewBox="0 0 100 100" width="100px" x="0px" y="0px">
<line fill="none" stroke="#000000" stroke-width="2" x1="13" x2="13" y1="94" y2="34" /><line fill="none" stroke="#000000" stroke-width="2" x1="25" x2="93" y1="10.5" y2="10.5" /><line fill="none" stroke="#000000" stroke-width="2" x1="29" x2="88" y1="21.5" y2="21.5" /><line fill="none" stroke="#000000" stroke-width="2" x1="58.5" x2="58.5" y1="21.5" y2="3" /><line fill="none" stroke="#000000" stroke-width="2" x1="29" x2="84" y1="39" y2="39" /><line fill="none" stroke="#000000" stroke-width="2" x1="24" x2="93" y1="50" y2="50" /><line fill="none" stroke="#000000" stroke-width="2" x1="58.5" x2="58.5" y1="50" y2="39" /><line fill="none" stroke="#000000" stroke-width="2" x1="95" x2="55" y1="69" y2="69" /><line fill="none" stroke="#000000" stroke-width="2" x1="95.5" x2="21.5" y1="59" y2="59" /><line fill="none" stroke="#000000" stroke-width="2" x1="51" x2="27.5" y1="87" y2="87" /><line fill="none" stroke="#000000" stroke-width="2" x1="21.5" x2="95.5" y1="30.5" y2="30.5" /><polyline fill="none" points="26.5,92.5 26.5,68 51,68 51,91" stroke="#000000" stroke-width="2" /><path d="M21.5,6 c-4.002,19.29 -10.986,36.252 -20,49.5" fill="none" stroke="#000000" stroke-width="2" /><path d="M71.5,88 c-3.134,-4.554 -7.498,-9.708 -12,-14" fill="none" stroke="#000000" stroke-width="2" /><path d="M86.5,59 v25.5 c0,6.398 -0.428,7 -4,7 c-1.225,0 -4.16,-0.158 -8,-0.5" fill="none" stroke="#000000" stroke-width="2" /><path d="M88,41 c2.852,-3.354 4.895,-6.422 6.601,-9.937" fill="none" stroke="#000000" stroke-width="2" /></svg>