<?xml version='1.0' encoding='utf-8'?>
<svg xmlns="http://www.w3.org/2000/svg" height="100px" version="1.0" viewBox="0 0 100 100" width="100px" x="0px" y="0px">
<line fill="none" stroke="#000000" stroke-width="2" x1="13" x2="13" y1="94" y2="34" /><line fill="none" stroke="#000000" stroke-width="2" x1="23" x2="95.5" y1="14.5" y2="14.5" /><line fill="none" stroke="#000000" stroke-width="2" x1="43" x2="43" y1="22.5" y2="4.5" /><line fill="none" stroke="#000000" stroke-width="2" x1="74" x2="74" y1="22.5" y2="4.5" /><line fill="none" stroke="#000000" stroke-width="2" x1="45" x2="87.5" y1="60" y2="60" /><line fill="none" stroke="#000000" stroke-width="2" x1="68.5" x2="68.5" y1="26" y2="41" /><line fill="none" stroke="#000000" stroke-width="2" x1="48.5" x2="48.5" y1="26" y2="41" /><polyline fill="none" points="28.5,43 28.5,26 88.5,26 88.5,42 29.5,42" stroke="#000000" stroke-width="2" /><polyline fill="none" points="94,65 94,50 23,50 23,65" stroke="#000000" stroke-width="2" /><path d="M21.5,6 c-4.002,19.29 -10.986,36.252 -20,49.5" fill="none" stroke="#000000" stroke-width="2" /><path d="M22.5,74 c15.16,-6.92 25.708,-15.251 32,-24" fill="none" stroke="#000000" stroke-width="2" /><path d="M68,80 c-6.9,-4.897 -15.225,-9.961 -23,-14" fill="none" stroke="#000000" stroke-width="2" /><path d="M86.607,60.55 c-8.268,16.374 -27.951,28.059 -57.607,31.95" fill="none" stroke="#000000" stroke-width="2" /></svg>