<?xml version='1.0' encoding='utf-8'?>
<svg xmlns="http://www.w3.org/2000/svg" height="100px" version="1.0" viewBox="0 0 100 100" width="100px" x="0px" y="0px">
<line fill="none" stroke="#000000" stroke-width="2" x1="33" x2="68" y1="34.5" y2="34.5" /><polyline fill="none" points="33,55.5 68,55.5 68,15.5 32,15.5 32,56.5" stroke="#000000" stroke-width="2" /><polyline fill="none" points="72.5,55.5 90,55.5 90,13.5 72.5,13.5" stroke="#000000" stroke-width="2" /><path d="M50,4 c-1.16,4.222 -2.449,7.964 -4,11.5" fill="none" stroke="#000000" stroke-width="2" /><path d="M59,60 v23.8 c0,6.572 0.848,7.2 16,7.2 c15.564,0 15.813,-0.227 16.5,-19" fill="none" stroke="#000000" stroke-width="2" /><path d="M8.5,92 c20.755,-5.56 30.5,-16.24 30.5,-32" fill="none" stroke="#000000" stroke-width="2" /><path d="M27.5,55.5 H10.0 v-38.0 c6.829,-2.03 12.445,-4.546 19,-8.5" fill="none" stroke="#000000" stroke-width="2" /></svg>