<?xml version='1.0' encoding='utf-8'?>
<svg xmlns="http://www.w3.org/2000/svg" height="100px" version="1.0" viewBox="0 0 100 100" width="100px" x="0px" y="0px">
<line fill="none" stroke="#000000" stroke-width="2" x1="41.5" x2="83.5" y1="23" y2="23" /><line fill="none" stroke="#000000" stroke-width="2" x1="39" x2="86" y1="42" y2="42" /><line fill="none" stroke="#000000" stroke-width="2" x1="62.5" x2="62.5" y1="42" y2="10" /><polyline fill="none" points="46.5,79 79,79 79,53 45.5,53 45.5,86" stroke="#000000" stroke-width="2" /><path d="M6,89.5 c8.342,-10.068 15.25,-21.444 20,-33" fill="none" stroke="#000000" stroke-width="2" /><path d="M23.5,30 c-4.577,-6.477 -10.035,-12.941 -16.5,-19.5" fill="none" stroke="#000000" stroke-width="2" /><path d="M26.5,92.5 c4.8,-10.753 7,-23.189 7,-46.5 v-36.0 h58.0 v73.0 c0,7.491 -0.523,8 -6.041,8 c-2.003,0 -6.75,-0.166 -12.688,-0.5" fill="none" stroke="#000000" stroke-width="2" /></svg>