<?xml version='1.0' encoding='utf-8'?>
<svg xmlns="http://www.w3.org/2000/svg" height="100px" version="1.0" viewBox="0 0 100 100" width="100px" x="0px" y="0px">
<line fill="none" stroke="#000000" stroke-width="2" x1="26.5" x2="95.5" y1="12" y2="12" /><line fill="none" stroke="#000000" stroke-width="2" x1="61.5" x2="61.5" y1="12" y2="3.5" /><line fill="none" stroke="#000000" stroke-width="2" x1="94.5" x2="28" y1="66" y2="66" /><line fill="none" stroke="#000000" stroke-width="2" x1="89.5" x2="33.5" y1="55" y2="55" /><polyline fill="none" points="32.5,47.5 32.5,20 90.5,20 90.5,46.5 33.5,46.5" stroke="#000000" stroke-width="2" /><polyline fill="none" points="43.5,39.5 43.5,28 79.5,28 79.5,38.5 44.5,38.5" stroke="#000000" stroke-width="2" /><path d="M5.5,89.5 c8.342,-10.068 15.25,-21.444 20,-33" fill="none" stroke="#000000" stroke-width="2" /><path d="M23,30 c-4.577,-6.477 -10.034,-12.941 -16.5,-19.5" fill="none" stroke="#000000" stroke-width="2" /><path d="M62,66 v21.5 c0,3.546 -0.484,4 -6,4 c-2.423,0 -5.976,-0.136 -11,-0.5" fill="none" stroke="#000000" stroke-width="2" /><path d="M27,89.5 c7.925,-4.813 14.564,-11.192 18.5,-17.5" fill="none" stroke="#000000" stroke-width="2" /><path d="M93.5,90 c-4.887,-5.824 -11.477,-12.287 -18.5,-18" fill="none" stroke="#000000" stroke-width="2" /></svg>