<?xml version='1.0' encoding='utf-8'?>
<svg xmlns="http://www.w3.org/2000/svg" height="100px" version="1.0" viewBox="0 0 100 100" width="100px" x="0px" y="0px">
<line fill="none" stroke="#000000" stroke-width="2" x1="30.5" x2="30.5" y1="24" y2="5" /><line fill="none" stroke="#000000" stroke-width="2" x1="4" x2="55" y1="35.5" y2="35.5" /><polyline fill="none" points="9.5,8.5 9.5,24 51.5,24 51.5,8.5" stroke="#000000" stroke-width="2" /><polyline fill="none" points="10.5,66 10.5,47 48.5,47 48.5,65 11.5,65" stroke="#000000" stroke-width="2" /><path d="M5.5,90.5 c16.598,-2.305 30.42,-5.248 45.5,-9.5" fill="none" stroke="#000000" stroke-width="2" /><path d="M48.5,92.5 c9.336,-10.695 13,-23.095 13,-63 v-19.0 h24.0 v73.0 c0,6.778 0.266,7 5,7 c6.365,0 6.699,-0.363 7,-31" fill="none" stroke="#000000" stroke-width="2" /><path d="M37,84.5 c2.502,-5.95 4.74,-12.554 6.5,-19.5" fill="none" stroke="#000000" stroke-width="2" /><path d="M21.5,88 c-1.482,-7.325 -3.736,-15.931 -6,-23" fill="none" stroke="#000000" stroke-width="2" /></svg>