<?xml version='1.0' encoding='utf-8'?>
<svg xmlns="http://www.w3.org/2000/svg" height="100px" version="1.0" viewBox="0 0 100 100" width="100px" x="0px" y="0px">
<line fill="none" stroke="#000000" stroke-width="2" x1="45.5" x2="14" y1="27" y2="27" /><polyline fill="none" points="9,61 9,38.5 49,38.5 49,60 10,60" stroke="#000000" stroke-width="2" /><path d="M48.5,26 c-7.11,-5.849 -13.454,-12.169 -19.5,-19.5 c-7.408,9.667 -15.152,17.612 -24.5,25" fill="none" stroke="#000000" stroke-width="2" /><path d="M4.5,92 c14.802,-6.958 24.5,-21.03 24.5,-35.5 V27.0" fill="none" stroke="#000000" stroke-width="2" /><path d="M28,64 c7.361,6.319 12.633,11.993 17.5,18.5" fill="none" stroke="#000000" stroke-width="2" /><path d="M47,12 h44.0 c0,71.537 -2.684,77 -10,77 c-3.222,0 -9.236,-0.354 -16,-1" fill="none" stroke="#000000" stroke-width="2" /><path d="M43.5,91 c17.39,-15.548 23.5,-31.894 23.5,-79" fill="none" stroke="#000000" stroke-width="2" /><path d="M98,74 c-20.378,-7.16 -36.372,-23.759 -45.5,-49" fill="none" stroke="#000000" stroke-width="2" /></svg>