<?xml version='1.0' encoding='utf-8'?>
<svg xmlns="http://www.w3.org/2000/svg" height="100px" version="1.0" viewBox="0 0 100 100" width="100px" x="0px" y="0px">
<line fill="none" stroke="#000000" stroke-width="2" x1="40.5" x2="18.5" y1="22.5" y2="22.5" /><polyline fill="none" points="10,58 26,58 26,33 9,33 9,59" stroke="#000000" stroke-width="2" /><polyline fill="none" points="33,58 49,58 49,33 32,33 32,59" stroke="#000000" stroke-width="2" /><path d="M4.5,90.5 c7.771,-7.444 12.989,-17.542 15,-29" fill="none" stroke="#000000" stroke-width="2" /><path d="M27.5,82 c-3.107,-4.616 -6.452,-8.597 -10,-12" fill="none" stroke="#000000" stroke-width="2" /><path d="M24.5,90.5 c7.771,-7.444 12.989,-17.542 15,-29" fill="none" stroke="#000000" stroke-width="2" /><path d="M47.5,82 c-3.107,-4.616 -6.452,-8.597 -10,-12" fill="none" stroke="#000000" stroke-width="2" /><path d="M48.5,25.5 c-7.11,-5.849 -13.453,-12.169 -19.5,-19.5 c-7.408,9.667 -15.152,17.612 -24.5,25" fill="none" stroke="#000000" stroke-width="2" /><path d="M47,12 h44.0 c0,71.537 -2.684,77 -10,77 c-3.222,0 -9.236,-0.354 -16,-1" fill="none" stroke="#000000" stroke-width="2" /><path d="M43.5,91 c17.39,-15.548 23.5,-31.894 23.5,-79" fill="none" stroke="#000000" stroke-width="2" /><path d="M98,74 c-20.378,-7.16 -36.372,-23.759 -45.5,-49" fill="none" stroke="#000000" stroke-width="2" /></svg>