<?xml version='1.0' encoding='utf-8'?>
<svg xmlns="http://www.w3.org/2000/svg" height="100px" version="1.0" viewBox="0 0 100 100" width="100px" x="0px" y="0px">
<polyline fill="none" points="91,58 91,43 9,43 9,58" stroke="#000000" stroke-width="2" /><path d="M15.5,10 c-0.993,5.871 -2.971,11.147 -6,16" fill="none" stroke="#000000" stroke-width="2" /><path d="M7,38 c13.27,-4.247 21,-14.679 21,-29 v-3.0" fill="none" stroke="#000000" stroke-width="2" /><path d="M48,38 c-9.016,-3.964 -16.781,-10.819 -21.5,-19" fill="none" stroke="#000000" stroke-width="2" /><path d="M45.5,9.5 c-1.704,6.016 -4.326,11.261 -8,16" fill="none" stroke="#000000" stroke-width="2" /><path d="M60.5,10 c-0.993,5.871 -2.971,11.147 -6,16" fill="none" stroke="#000000" stroke-width="2" /><path d="M52,38 c13.27,-4.247 21,-14.679 21,-29 v-3.0" fill="none" stroke="#000000" stroke-width="2" /><path d="M93,38 c-9.016,-3.964 -16.781,-10.819 -21.5,-19" fill="none" stroke="#000000" stroke-width="2" /><path d="M90.5,9.5 c-1.704,6.016 -4.326,11.261 -8,16" fill="none" stroke="#000000" stroke-width="2" /><path d="M14,59.5 h71.0 c-1.008,27.472 -4.224,31 -13.5,31 c-5.065,0 -12.398,-0.321 -21.5,-1" fill="none" stroke="#000000" stroke-width="2" /><path d="M10,92 c25.986,-9.514 40,-26.112 40,-45.5" fill="none" stroke="#000000" stroke-width="2" /></svg>