<?xml version='1.0' encoding='utf-8'?>
<svg xmlns="http://www.w3.org/2000/svg" height="100px" version="1.0" viewBox="0 0 100 100" width="100px" x="0px" y="0px">
<line fill="none" stroke="#000000" stroke-width="2" x1="39" x2="62.5" y1="30.5" y2="30.5" /><line fill="none" stroke="#000000" stroke-width="2" x1="8.5" x2="8.5" y1="15" y2="70.5" /><polyline fill="none" points="39,51.5 63.5,51.5 63.5,11 38,11 38,84.5" stroke="#000000" stroke-width="2" /><path d="M26.5,87.5 c12.012,-2.728 22.601,-6.327 35,-12" fill="none" stroke="#000000" stroke-width="2" /><path d="M67,87.5 c-3.671,-8.849 -9.011,-19.51 -14,-28" fill="none" stroke="#000000" stroke-width="2" /><path d="M7.723,15.975 c8.667,-1.982 16.307,-4.538 25.277,-8.475" fill="none" stroke="#000000" stroke-width="2" /><path d="M2,73.5 c9.182,-3.751 17.033,-8.086 27,-15" fill="none" stroke="#000000" stroke-width="2" /><path d="M2.5,93.5 c20.068,-8.087 27,-18.806 27,-47.5 v-27.5" fill="none" stroke="#000000" stroke-width="2" /><path d="M71.5,94 v-83.0 H94.0 v60.0 c0,7.578 -0.438,8 -5,8 c-1.364,0 -6.795,-0.208 -11.5,-0.5" fill="none" stroke="#000000" stroke-width="2" /></svg>