<?xml version='1.0' encoding='utf-8'?>
<svg xmlns="http://www.w3.org/2000/svg" height="100px" version="1.0" viewBox="0 0 100 100" width="100px" x="0px" y="0px">
<line fill="none" stroke="#000000" stroke-width="2" x1="54" x2="93" y1="52" y2="52" /><line fill="none" stroke="#000000" stroke-width="2" x1="22.5" x2="50.5" y1="38" y2="38" /><polyline fill="none" points="22.5,56 50.5,56 50.5,21 21.5,21 21.5,83" stroke="#000000" stroke-width="2" /><polyline fill="none" points="63,51 63,21 92,21" stroke="#000000" stroke-width="2" /><path d="M4,92 c4.68,-14.06 7,-29.832 7,-51 v-30.5 h82.0" fill="none" stroke="#000000" stroke-width="2" /><path d="M12,86 c11.739,-3.579 22.769,-8.396 34.5,-15" fill="none" stroke="#000000" stroke-width="2" /><path d="M52.5,79.5 c-3.846,-6.159 -9.964,-13.983 -15.5,-19.5" fill="none" stroke="#000000" stroke-width="2" /><path d="M76,61 v25.5 c0,4.144 0.459,4.5 7.5,4.5 c8.61,0 8.768,-0.147 9.5,-21" fill="none" stroke="#000000" stroke-width="2" /><path d="M37.5,93 c28.346,-11.911 46.5,-37.747 46.5,-71" fill="none" stroke="#000000" stroke-width="2" /></svg>