<?xml version='1.0' encoding='utf-8'?>
<svg xmlns="http://www.w3.org/2000/svg" height="100px" version="1.0" viewBox="0 0 100 100" width="100px" x="0px" y="0px">
<line fill="none" stroke="#000000" stroke-width="2" x1="20.5" x2="52.5" y1="75.5" y2="75.5" /><line fill="none" stroke="#000000" stroke-width="2" x1="20.5" x2="52.5" y1="63" y2="63" /><line fill="none" stroke="#000000" stroke-width="2" x1="22" x2="51" y1="31" y2="31" /><line fill="none" stroke="#000000" stroke-width="2" x1="95" x2="56" y1="37" y2="37" /><polyline fill="none" points="22,42.5 51,42.5 51,19.5 21,19.5 21,43.5" stroke="#000000" stroke-width="2" /><path d="M4,92 c4.68,-14.06 7,-29.832 7,-51 v-30.0 h82.0" fill="none" stroke="#000000" stroke-width="2" /><path d="M19.5,92 v-41.5 h33.0 v36.0 c0,3.652 -0.406,4 -6.5,4 c-2.037,0 -5.1,-0.131 -11,-0.5" fill="none" stroke="#000000" stroke-width="2" /><path d="M81,16 c4.313,5.271 7.95,10.14 12,16" fill="none" stroke="#000000" stroke-width="2" /><path d="M56,92 c11.393,-11.647 19.5,-32.64 19.5,-55 v-20.5" fill="none" stroke="#000000" stroke-width="2" /><path d="M95,92 c-11.394,-11.647 -19.5,-32.64 -19.5,-55" fill="none" stroke="#000000" stroke-width="2" /></svg>