<?xml version='1.0' encoding='utf-8'?>
<svg xmlns="http://www.w3.org/2000/svg" height="100px" version="1.0" viewBox="0 0 100 100" width="100px" x="0px" y="0px">
<path d="M94.5,60 c-16.906,-6.304 -31.083,-13.058 -44.5,-21.2 c-13.417,8.143 -27.594,14.896 -44.5,21.2" fill="none" stroke="#000000" stroke-width="2" /><path d="M19.5,62 c18.793,-1.723 35.678,-5.767 46.5,-10.5" fill="none" stroke="#000000" stroke-width="2" /><path d="M19.5,77 c24.785,-1.993 44.11,-6.79 57.25,-13.25" fill="none" stroke="#000000" stroke-width="2" /><path d="M19.5,92 c30.776,-2.263 52.543,-7.814 68,-16" fill="none" stroke="#000000" stroke-width="2" /><path d="M88,23.5 c-6.1,-4.864 -14.41,-11.06 -21.5,-16" fill="none" stroke="#000000" stroke-width="2" /><path d="M12.5,20 c19.742,-0.366 43.23,-1.605 66.5,-3.5" fill="none" stroke="#000000" stroke-width="2" /><path d="M25.5,19.5 c4.342,-4.231 8.604,-9.17 12.5,-14.5" fill="none" stroke="#000000" stroke-width="2" /><path d="M60.5,39 c3.688,-5.177 7.162,-10.89 10,-16.5" fill="none" stroke="#000000" stroke-width="2" /><path d="M91.5,42 c-3.258,-4.71 -7.973,-10.827 -12,-15.5" fill="none" stroke="#000000" stroke-width="2" /><path d="M54.5,39.5 c10.814,-0.355 22.193,-1.205 33.5,-2.5" fill="none" stroke="#000000" stroke-width="2" /><path d="M13.5,39 c3.688,-5.177 7.162,-10.89 10,-16.5" fill="none" stroke="#000000" stroke-width="2" /><path d="M44.5,42 c-3.258,-4.71 -7.973,-10.827 -12,-15.5" fill="none" stroke="#000000" stroke-width="2" /><path d="M7.5,39.5 c10.814,-0.355 22.193,-1.205 33.5,-2.5" fill="none" stroke="#000000" stroke-width="2" /></svg>