<?xml version='1.0' encoding='utf-8'?>
<svg xmlns="http://www.w3.org/2000/svg" height="100px" version="1.0" viewBox="0 0 100 100" width="100px" x="0px" y="0px">
<line fill="none" stroke="#000000" stroke-width="2" x1="53.5" x2="96" y1="13.5" y2="13.5" /><line fill="none" stroke="#000000" stroke-width="2" x1="11" x2="11" y1="57" y2="94" /><line fill="none" stroke="#000000" stroke-width="2" x1="47" x2="11" y1="57" y2="57" /><line fill="none" stroke="#000000" stroke-width="2" x1="47" x2="47" y1="94" y2="57" /><line fill="none" stroke="#000000" stroke-width="2" x1="11" x2="47" y1="88.5" y2="88.5" /><line fill="none" stroke="#000000" stroke-width="2" x1="12" x2="47" y1="78" y2="78" /><line fill="none" stroke="#000000" stroke-width="2" x1="12" x2="47" y1="67.5" y2="67.5" /><line fill="none" stroke="#000000" stroke-width="2" x1="27.5" x2="27.5" y1="19" y2="3" /><line fill="none" stroke="#000000" stroke-width="2" x1="27.5" x2="48.5" y1="10.5" y2="10.5" /><line fill="none" stroke="#000000" stroke-width="2" x1="47.5" x2="10.5" y1="27.5" y2="27.5" /><polyline fill="none" points="52.5,34.5 52.5,19 5.5,19 5.5,34.5" stroke="#000000" stroke-width="2" /><path d="M51,91.5 c21.773,-12.264 38.778,-39.432 44.01,-77.138" fill="none" stroke="#000000" stroke-width="2" /><path d="M97.5,91.5 c-19.723,-13.449 -33.297,-37.763 -37,-72.5" fill="none" stroke="#000000" stroke-width="2" /><path d="M54.5,62.5 c-9.709,-6.879 -17.812,-14.302 -25.5,-23.3 c-7.688,8.998 -15.791,16.421 -25.5,23.3" fill="none" stroke="#000000" stroke-width="2" /><path d="M22,32 c-3.635,5.559 -8.913,10.597 -16,15" fill="none" stroke="#000000" stroke-width="2" /><path d="M51.5,47.5 c-4.475,-4.979 -10.154,-10.222 -16.5,-15" fill="none" stroke="#000000" stroke-width="2" /></svg>