<?xml version='1.0' encoding='utf-8'?>
<svg xmlns="http://www.w3.org/2000/svg" height="100px" version="1.0" viewBox="0 0 100 100" width="100px" x="0px" y="0px">
<line fill="none" stroke="#000000" stroke-width="2" x1="14.5" x2="14.5" y1="53.5" y2="88.5" /><line fill="none" stroke="#000000" stroke-width="2" x1="45" x2="45" y1="95" y2="53.5" /><line fill="none" stroke="#000000" stroke-width="2" x1="15.5" x2="45" y1="75.5" y2="75.5" /><line fill="none" stroke="#000000" stroke-width="2" x1="15.5" x2="45" y1="64" y2="64" /><line fill="none" stroke="#000000" stroke-width="2" x1="50" x2="90" y1="62" y2="62" /><line fill="none" stroke="#000000" stroke-width="2" x1="5" x2="95" y1="53.5" y2="53.5" /><line fill="none" stroke="#000000" stroke-width="2" x1="92" x2="8" y1="17" y2="17" /><line fill="none" stroke="#000000" stroke-width="2" x1="41" x2="41" y1="17" y2="4.5" /><line fill="none" stroke="#000000" stroke-width="2" x1="59" x2="59" y1="17" y2="4.5" /><line fill="none" stroke="#000000" stroke-width="2" x1="50" x2="50" y1="53.5" y2="32.5" /><line fill="none" stroke="#000000" stroke-width="2" x1="90" x2="10" y1="32.5" y2="32.5" /><line fill="none" stroke="#000000" stroke-width="2" x1="86" x2="14" y1="43" y2="43" /><path d="M4,89.5 c12.822,-1.173 27.212,-3.122 41,-5.5" fill="none" stroke="#000000" stroke-width="2" /><path d="M50,92 c20.427,-5.387 33.248,-15.403 39.077,-29.385" fill="none" stroke="#000000" stroke-width="2" /><path d="M94,92 c-17.01,-4.905 -28.561,-13.331 -37,-27" fill="none" stroke="#000000" stroke-width="2" /><path d="M27.5,17 c-2.782,-3.958 -5.877,-7.78 -9,-11" fill="none" stroke="#000000" stroke-width="2" /><path d="M72.5,17 c3.482,-3.682 6.578,-7.494 9,-11" fill="none" stroke="#000000" stroke-width="2" /><path d="M59.5,32.5 c3.941,-4.591 7.348,-9.869 10,-15.5" fill="none" stroke="#000000" stroke-width="2" /><path d="M39.5,32.5 c-2.525,-5.163 -5.6,-10.488 -9,-15.5" fill="none" stroke="#000000" stroke-width="2" /></svg>