<?xml version='1.0' encoding='utf-8'?>
<svg xmlns="http://www.w3.org/2000/svg" height="100px" version="1.0" viewBox="0 0 100 100" width="100px" x="0px" y="0px">
<line fill="none" stroke="#000000" stroke-width="2" x1="45" x2="45" y1="94" y2="11.5" /><line fill="none" stroke="#000000" stroke-width="2" x1="60" x2="29.5" y1="33" y2="33" /><line fill="none" stroke="#000000" stroke-width="2" x1="7" x2="25" y1="82" y2="82" /><polyline fill="none" points="26,83 26,13 7,13 7,90" stroke="#000000" stroke-width="2" /><path d="M60,8 c-10.088,2.732 -19.809,4.719 -29.5,6" fill="none" stroke="#000000" stroke-width="2" /><path d="M27.5,72.5 c8.166,-13.023 13.519,-25.675 17,-40" fill="none" stroke="#000000" stroke-width="2" /><path d="M59.5,63 c-4.282,-9.394 -9.12,-19.475 -14,-29" fill="none" stroke="#000000" stroke-width="2" /><path d="M67,20.5 c-0.861,12.496 -3.096,23.604 -6.5,33" fill="none" stroke="#000000" stroke-width="2" /><path d="M56.5,91 c12.262,-10.436 20.5,-30.592 20.5,-56 v-28.0" fill="none" stroke="#000000" stroke-width="2" /><path d="M97.5,91 c-12.281,-10.276 -20.5,-30.294 -20.5,-56" fill="none" stroke="#000000" stroke-width="2" /><path d="M95,19 c-1.527,12.022 -4.42,22.626 -8.5,31.5" fill="none" stroke="#000000" stroke-width="2" /></svg>