<?xml version='1.0' encoding='utf-8'?>
<svg xmlns="http://www.w3.org/2000/svg" height="100px" version="1.0" viewBox="0 0 100 100" width="100px" x="0px" y="0px">
<line fill="none" stroke="#000000" stroke-width="2" x1="32.5" x2="96.5" y1="40" y2="40" /><line fill="none" stroke="#000000" stroke-width="2" x1="85" x2="41" y1="27" y2="27" /><polyline fill="none" points="10,78 28.5,78 28.5,13 9,13 9,89" stroke="#000000" stroke-width="2" /><path d="M33,57 c15.117,-4.72 25.117,-10.345 32,-17" fill="none" stroke="#000000" stroke-width="2" /><path d="M52.5,90.5 c5.033,0.347 9.302,0.5 12,0.5 c4.712,0 6,-1.768 6,-14 c0,-12.576 -5.307,-24.511 -13.5,-31" fill="none" stroke="#000000" stroke-width="2" /><path d="M32.5,73 c15.221,-4.903 25.623,-10.847 32.5,-17.5" fill="none" stroke="#000000" stroke-width="2" /><path d="M30.5,89 c18.495,-5.951 30.683,-12.951 39,-21" fill="none" stroke="#000000" stroke-width="2" /><path d="M93.5,48 c-5.48,6.229 -11.39,11.158 -18,15" fill="none" stroke="#000000" stroke-width="2" /><path d="M67,40 c3.692,18.39 15.482,37.435 29.5,48.5" fill="none" stroke="#000000" stroke-width="2" /><path d="M81.5,40 c3.098,-11.168 4.516,-17.425 6.5,-28 h-43.0" fill="none" stroke="#000000" stroke-width="2" /><path d="M39,33.5 c3.748,-11.994 5.542,-18.665 8,-30" fill="none" stroke="#000000" stroke-width="2" /></svg>