<?xml version='1.0' encoding='utf-8'?>
<svg xmlns="http://www.w3.org/2000/svg" height="100px" version="1.0" viewBox="0 0 100 100" width="100px" x="0px" y="0px">
<line fill="none" stroke="#000000" stroke-width="2" x1="7" x2="26.5" y1="82" y2="82" /><line fill="none" stroke="#000000" stroke-width="2" x1="35.5" x2="64.5" y1="65" y2="65" /><line fill="none" stroke="#000000" stroke-width="2" x1="35.5" x2="64.5" y1="82" y2="82" /><line fill="none" stroke="#000000" stroke-width="2" x1="36.5" x2="63" y1="30.5" y2="30.5" /><polyline fill="none" points="27.5,83 27.5,13 7,13 7,90" stroke="#000000" stroke-width="2" /><polyline fill="none" points="36.5,49 63,49 63,13 35.5,13 35.5,94" stroke="#000000" stroke-width="2" /><path d="M71,94 v-82.5 h23.0 v59.5 c0,7.578 -0.438,8 -5,8 c-1.364,0 -6.795,-0.208 -11.5,-0.5" fill="none" stroke="#000000" stroke-width="2" /><path d="M52,3 c-1.455,3.656 -3.085,6.897 -5,10" fill="none" stroke="#000000" stroke-width="2" /></svg>