<?xml version='1.0' encoding='utf-8'?>
<svg xmlns="http://www.w3.org/2000/svg" height="100px" version="1.0" viewBox="0 0 100 100" width="100px" x="0px" y="0px">
<line fill="none" stroke="#000000" stroke-width="2" x1="64" x2="64" y1="12" y2="23.5" /><line fill="none" stroke="#000000" stroke-width="2" x1="43" x2="87" y1="39.5" y2="39.5" /><polyline fill="none" points="9.5,79 29.5,79 29.5,13 8.5,13 8.5,87" stroke="#000000" stroke-width="2" /><polyline fill="none" points="43,56.5 87,56.5 87,23.5 42,23.5 42,89.5" stroke="#000000" stroke-width="2" /><path d="M59.5,56.5 c6.041,16.023 19.88,29.043 36.5,35" fill="none" stroke="#000000" stroke-width="2" /><path d="M30.5,91.5 c12.063,-1.945 22.541,-4.481 35,-8.5" fill="none" stroke="#000000" stroke-width="2" /><path d="M70.5,74.5 c7.678,-4.161 14.986,-9.903 21,-16.5" fill="none" stroke="#000000" stroke-width="2" /><path d="M97,28.5 c-12.899,-7.097 -22.787,-14.224 -32.5,-23.3 c-9.714,9.076 -19.584,16.221 -32.5,23.3" fill="none" stroke="#000000" stroke-width="2" /></svg>