<?xml version='1.0' encoding='utf-8'?>
<svg xmlns="http://www.w3.org/2000/svg" height="100px" version="1.0" viewBox="0 0 100 100" width="100px" x="0px" y="0px">
<line fill="none" stroke="#000000" stroke-width="2" x1="32.5" x2="96" y1="10.5" y2="10.5" /><line fill="none" stroke="#000000" stroke-width="2" x1="40" x2="89.5" y1="32" y2="32" /><line fill="none" stroke="#000000" stroke-width="2" x1="40" x2="89.5" y1="43.5" y2="43.5" /><line fill="none" stroke="#000000" stroke-width="2" x1="48" x2="88" y1="65" y2="65" /><polyline fill="none" points="9.5,79 29.5,79 29.5,13 8.5,13 8.5,87" stroke="#000000" stroke-width="2" /><polyline fill="none" points="40,55 89.5,55 89.5,20.5 39,20.5 39,56" stroke="#000000" stroke-width="2" /><path d="M64,10.5 c-1.028,3.709 -2.341,6.98 -4,10" fill="none" stroke="#000000" stroke-width="2" /><path d="M32.5,76.5 c10.392,-5.89 18.827,-13.628 24,-21.5" fill="none" stroke="#000000" stroke-width="2" /><path d="M31,91.5 c24.966,-4.147 45.799,-14.699 56.262,-26.174" fill="none" stroke="#000000" stroke-width="2" /><path d="M96,91.5 c-20.205,-3.867 -38.918,-13.321 -50,-24.5" fill="none" stroke="#000000" stroke-width="2" /></svg>