<?xml version='1.0' encoding='utf-8'?>
<svg xmlns="http://www.w3.org/2000/svg" height="100px" version="1.0" viewBox="0 0 100 100" width="100px" x="0px" y="0px">
<line fill="none" stroke="#000000" stroke-width="2" x1="95" x2="30.5" y1="58.5" y2="58.5" /><line fill="none" stroke="#000000" stroke-width="2" x1="34.5" x2="59.5" y1="31" y2="31" /><line fill="none" stroke="#000000" stroke-width="2" x1="34.5" x2="59.5" y1="20.5" y2="20.5" /><line fill="none" stroke="#000000" stroke-width="2" x1="67" x2="92" y1="31" y2="31" /><line fill="none" stroke="#000000" stroke-width="2" x1="67" x2="92" y1="20.5" y2="20.5" /><polyline fill="none" points="9,82 27,82 27,13 8,13 8,90" stroke="#000000" stroke-width="2" /><polyline fill="none" points="34.5,41.5 59.5,41.5 59.5,10 33.5,10 33.5,42.5" stroke="#000000" stroke-width="2" /><polyline fill="none" points="67,41.5 92,41.5 92,10 66,10 66,42.5" stroke="#000000" stroke-width="2" /><path d="M29,92 c26.451,-3.979 46.045,-17.075 54,-33.5" fill="none" stroke="#000000" stroke-width="2" /><path d="M56,49.5 c-5.563,9.745 -12.539,18.701 -21.5,27.5" fill="none" stroke="#000000" stroke-width="2" /><path d="M38.5,73 c18.468,3.728 33.769,9.226 54,19.5" fill="none" stroke="#000000" stroke-width="2" /><path d="M30.5,54.5 c5.021,-2.638 9.453,-6.252 12.5,-10" fill="none" stroke="#000000" stroke-width="2" /><path d="M64.5,54 c4.619,-2.506 8.686,-5.95 11.5,-9.5" fill="none" stroke="#000000" stroke-width="2" /><path d="M95,54.5 c-3.139,-3.284 -7.578,-6.897 -12.5,-10" fill="none" stroke="#000000" stroke-width="2" /><path d="M61,54 c-2.889,-3.12 -6.977,-6.544 -11.5,-9.5" fill="none" stroke="#000000" stroke-width="2" /></svg>