<?xml version='1.0' encoding='utf-8'?>
<svg xmlns="http://www.w3.org/2000/svg" height="100px" version="1.0" viewBox="0 0 100 100" width="100px" x="0px" y="0px">
<line fill="none" stroke="#000000" stroke-width="2" x1="4.5" x2="31.5" y1="31.5" y2="31.5" /><line fill="none" stroke="#000000" stroke-width="2" x1="18" x2="18" y1="78.5" y2="8" /><line fill="none" stroke="#000000" stroke-width="2" x1="32.5" x2="94.5" y1="15" y2="15" /><line fill="none" stroke="#000000" stroke-width="2" x1="63.5" x2="63.5" y1="15" y2="5" /><polyline fill="none" points="48,86 48,62 79,62 79,80 49,80" stroke="#000000" stroke-width="2" /><polyline fill="none" points="43.5,43 43.5,25 83.5,25 83.5,42 44.5,42" stroke="#000000" stroke-width="2" /><path d="M4.5,85 c9.056,-3.637 16.817,-7.762 26.5,-14" fill="none" stroke="#000000" stroke-width="2" /><path d="M78.5,91 c4.902,0.363 7.691,0.5 9,0.5 c4.684,0 5,-0.383 5,-8 V52.0 h-58.0 v41.0" fill="none" stroke="#000000" stroke-width="2" /></svg>