<?xml version='1.0' encoding='utf-8'?>
<svg xmlns="http://www.w3.org/2000/svg" height="100px" version="1.0" viewBox="0 0 100 100" width="100px" x="0px" y="0px">
<line fill="none" stroke="#000000" stroke-width="2" x1="51.5" x2="51.5" y1="13.5" y2="3" /><line fill="none" stroke="#000000" stroke-width="2" x1="63.5" x2="63.5" y1="14.5" y2="38" /><line fill="none" stroke="#000000" stroke-width="2" x1="38.5" x2="38.5" y1="14.5" y2="38" /><line fill="none" stroke="#000000" stroke-width="2" x1="28" x2="55.5" y1="49.5" y2="49.5" /><line fill="none" stroke="#000000" stroke-width="2" x1="28" x2="28" y1="64.5" y2="42.5" /><line fill="none" stroke="#000000" stroke-width="2" x1="14" x2="95" y1="90" y2="90" /><line fill="none" stroke="#000000" stroke-width="2" x1="89" x2="21" y1="74" y2="74" /><line fill="none" stroke="#000000" stroke-width="2" x1="55" x2="55" y1="90" y2="66" /><polyline fill="none" points="13.5,39 88.5,39 88.5,24 13.5,24" stroke="#000000" stroke-width="2" /><path d="M4.5,92 c4.898,-10.415 9,-30.94 9,-47 v-31.5 h80.0" fill="none" stroke="#000000" stroke-width="2" /><path d="M62.5,42.5 v18.0 c0,4.794 0.182,5 13.5,5 c15.89,0 16.105,-0.177 18,-13.5" fill="none" stroke="#000000" stroke-width="2" /><path d="M62.5,52 c10.826,-1.844 20.304,-4.302 31,-8" fill="none" stroke="#000000" stroke-width="2" /><path d="M15,66 c14.146,-1.322 26.884,-3.166 41.5,-6" fill="none" stroke="#000000" stroke-width="2" /></svg>