<?xml version='1.0' encoding='utf-8'?>
<svg xmlns="http://www.w3.org/2000/svg" height="100px" version="1.0" viewBox="0 0 100 100" width="100px" x="0px" y="0px">
<line fill="none" stroke="#000000" stroke-width="2" x1="4.5" x2="32" y1="32.5" y2="32.5" /><line fill="none" stroke="#000000" stroke-width="2" x1="18.5" x2="18.5" y1="76.5" y2="8" /><line fill="none" stroke="#000000" stroke-width="2" x1="60.5" x2="60.5" y1="21.5" y2="3" /><line fill="none" stroke="#000000" stroke-width="2" x1="36" x2="82" y1="38.5" y2="32.5" /><line fill="none" stroke="#000000" stroke-width="2" x1="60.5" x2="90" y1="11.5" y2="11.5" /><line fill="none" stroke="#000000" stroke-width="2" x1="60" x2="60" y1="55" y2="89.5" /><line fill="none" stroke="#000000" stroke-width="2" x1="73.5" x2="73.5" y1="89.5" y2="55" /><line fill="none" stroke="#000000" stroke-width="2" x1="37" x2="94" y1="89.5" y2="89.5" /><polyline fill="none" points="73.5,75.5 89,75.5 89,57" stroke="#000000" stroke-width="2" /><polyline fill="none" points="60,75.5 44.5,75.5 44.5,57" stroke="#000000" stroke-width="2" /><path d="M4.5,82.5 c9.91,-3.637 18.404,-7.762 29,-14" fill="none" stroke="#000000" stroke-width="2" /><path d="M85,35 c3.369,-4.001 5.869,-7.983 8.089,-12.91" fill="none" stroke="#000000" stroke-width="2" /><path d="M26,91 c6.74,-14.092 10,-29.671 10,-51 v-18.5 h58.0" fill="none" stroke="#000000" stroke-width="2" /><path d="M55.5,25.5 V45.0 c0,5.396 0.086,5.5 15.5,5.5 c19.928,0 20.018,-0.085 21,-15.5" fill="none" stroke="#000000" stroke-width="2" /></svg>