<?xml version='1.0' encoding='utf-8'?>
<svg xmlns="http://www.w3.org/2000/svg" height="100px" version="1.0" viewBox="0 0 100 100" width="100px" x="0px" y="0px">
<line fill="none" stroke="#000000" stroke-width="2" x1="4" x2="30" y1="34" y2="34" /><line fill="none" stroke="#000000" stroke-width="2" x1="17" x2="17" y1="81" y2="8" /><line fill="none" stroke="#000000" stroke-width="2" x1="41.5" x2="41.5" y1="60" y2="93.5" /><line fill="none" stroke="#000000" stroke-width="2" x1="42.5" x2="90.5" y1="88.5" y2="88.5" /><line fill="none" stroke="#000000" stroke-width="2" x1="42.5" x2="90.5" y1="74" y2="74" /><line fill="none" stroke="#000000" stroke-width="2" x1="30" x2="96" y1="44.5" y2="44.5" /><line fill="none" stroke="#000000" stroke-width="2" x1="84" x2="35.5" y1="30" y2="30" /><line fill="none" stroke="#000000" stroke-width="2" x1="61" x2="61" y1="44.5" y2="20.5" /><line fill="none" stroke="#000000" stroke-width="2" x1="30" x2="96" y1="14.5" y2="14.5" /><line fill="none" stroke="#000000" stroke-width="2" x1="49" x2="49" y1="23.5" y2="5" /><line fill="none" stroke="#000000" stroke-width="2" x1="77" x2="77" y1="23.5" y2="5" /><polyline fill="none" points="90.5,93.5 90.5,60 41.5,60" stroke="#000000" stroke-width="2" /><path d="M4,87 c8.885,-3.637 16.5,-7.762 26,-14" fill="none" stroke="#000000" stroke-width="2" /><path d="M29,65.5 c27.837,-11.04 50.183,-27.473 63,-45" fill="none" stroke="#000000" stroke-width="2" /><path d="M93,57.5 c-4.233,-3.701 -9.055,-7.35 -14,-10.5" fill="none" stroke="#000000" stroke-width="2" /></svg>