<?xml version='1.0' encoding='utf-8'?>
<svg xmlns="http://www.w3.org/2000/svg" height="100px" version="1.0" viewBox="0 0 100 100" width="100px" x="0px" y="0px">
<line fill="none" stroke="#000000" stroke-width="2" x1="7" x2="93" y1="90.5" y2="90.5" /><line fill="none" stroke="#000000" stroke-width="2" x1="86" x2="14" y1="75.5" y2="75.5" /><line fill="none" stroke="#000000" stroke-width="2" x1="50" x2="50" y1="90.5" y2="65.5" /><line fill="none" stroke="#000000" stroke-width="2" x1="21" x2="52" y1="52.5" y2="52.5" /><line fill="none" stroke="#000000" stroke-width="2" x1="21" x2="52" y1="44.5" y2="44.5" /><line fill="none" stroke="#000000" stroke-width="2" x1="22.5" x2="50.5" y1="23" y2="23" /><line fill="none" stroke="#000000" stroke-width="2" x1="93.5" x2="55.5" y1="27.5" y2="27.5" /><polyline fill="none" points="22.5,30.5 50.5,30.5 50.5,15.5 21.5,15.5 21.5,31.5" stroke="#000000" stroke-width="2" /><path d="M5,68.5 c4.645,-10.329 7,-21.974 7,-37.5 v-22.0 h80.0" fill="none" stroke="#000000" stroke-width="2" /><path d="M20,65.5 v-29.0 h32.0 v21.5 c0,3.522 -0.537,4 -6.5,4 c-2.115,0 -5.186,-0.123 -11,-0.5" fill="none" stroke="#000000" stroke-width="2" /><path d="M80,13 c4.133,3.458 7.626,6.647 11.5,10.5" fill="none" stroke="#000000" stroke-width="2" /><path d="M55.5,65 c11.102,-7.767 19,-22.657 19,-36.5 V13.0" fill="none" stroke="#000000" stroke-width="2" /><path d="M93.5,65 c-11.102,-7.767 -19,-22.657 -19,-36.5" fill="none" stroke="#000000" stroke-width="2" /></svg>