<?xml version='1.0' encoding='utf-8'?>
<svg xmlns="http://www.w3.org/2000/svg" height="100px" version="1.0" viewBox="0 0 100 100" width="100px" x="0px" y="0px">
<line fill="none" stroke="#000000" stroke-width="2" x1="3" x2="27.5" y1="32.5" y2="32.5" /><line fill="none" stroke="#000000" stroke-width="2" x1="16" x2="16" y1="76" y2="8" /><line fill="none" stroke="#000000" stroke-width="2" x1="26" x2="96" y1="12" y2="12" /><line fill="none" stroke="#000000" stroke-width="2" x1="61" x2="61" y1="12" y2="3.5" /><line fill="none" stroke="#000000" stroke-width="2" x1="33.5" x2="88.5" y1="50.5" y2="50.5" /><polyline fill="none" points="37.5,35 37.5,20 84.5,20 84.5,34 38.5,34" stroke="#000000" stroke-width="2" /><polyline fill="none" points="94.5,57.5 94.5,42 27.5,42 27.5,57.5" stroke="#000000" stroke-width="2" /><path d="M3,82 c8.983,-3.507 16.896,-7.485 26.5,-13.5" fill="none" stroke="#000000" stroke-width="2" /><path d="M29,64 c15.537,-3.578 26.109,-8.081 33.5,-13.5" fill="none" stroke="#000000" stroke-width="2" /><path d="M28,76.5 c15.902,-3.841 26.651,-8.563 34,-14" fill="none" stroke="#000000" stroke-width="2" /><path d="M27,89 c18.383,-4.548 31.443,-10.465 40,-17" fill="none" stroke="#000000" stroke-width="2" /><path d="M91,57.5 c-5.467,4.982 -11.397,8.955 -18,12" fill="none" stroke="#000000" stroke-width="2" /><path d="M64,50.5 c3.923,15.139 15.852,30.564 31,39.5" fill="none" stroke="#000000" stroke-width="2" /><path d="M50,91 c5.127,0.357 9.25,0.5 12,0.5 c4.822,0 6,-1.344 6,-11.5 c0,-10.081 -5.105,-19.317 -13.5,-24.5" fill="none" stroke="#000000" stroke-width="2" /></svg>