<?xml version='1.0' encoding='utf-8'?>
<svg xmlns="http://www.w3.org/2000/svg" height="100px" version="1.0" viewBox="0 0 100 100" width="100px" x="0px" y="0px">
<line fill="none" stroke="#000000" stroke-width="2" x1="9.5" x2="90.5" y1="10.5" y2="10.5" /><line fill="none" stroke="#000000" stroke-width="2" x1="15.5" x2="84.5" y1="21.5" y2="21.5" /><line fill="none" stroke="#000000" stroke-width="2" x1="50" x2="50" y1="21.5" y2="3" /><line fill="none" stroke="#000000" stroke-width="2" x1="15.5" x2="80" y1="39" y2="39" /><line fill="none" stroke="#000000" stroke-width="2" x1="9.5" x2="90.5" y1="50" y2="50" /><line fill="none" stroke="#000000" stroke-width="2" x1="50" x2="50" y1="50" y2="39" /><line fill="none" stroke="#000000" stroke-width="2" x1="92.5" x2="46" y1="69" y2="69" /><line fill="none" stroke="#000000" stroke-width="2" x1="93.5" x2="6.5" y1="59" y2="59" /><line fill="none" stroke="#000000" stroke-width="2" x1="41" x2="13.5" y1="87" y2="87" /><line fill="none" stroke="#000000" stroke-width="2" x1="6.5" x2="93.5" y1="30.5" y2="30.5" /><polyline fill="none" points="12.5,92.5 12.5,68 41,68 41,91" stroke="#000000" stroke-width="2" /><path d="M66,88 c-3.656,-4.554 -8.748,-9.708 -14,-14" fill="none" stroke="#000000" stroke-width="2" /><path d="M82.5,59 v25.5 c0,6.562 -0.418,7 -4.5,7 c-1.43,0 -5.02,-0.164 -9.5,-0.5" fill="none" stroke="#000000" stroke-width="2" /><path d="M84.5,41 c3.518,-3.379 6.036,-6.47 8.141,-10.011" fill="none" stroke="#000000" stroke-width="2" /></svg>