<?xml version='1.0' encoding='utf-8'?>
<svg xmlns="http://www.w3.org/2000/svg" height="100px" version="1.0" viewBox="0 0 100 100" width="100px" x="0px" y="0px">
<line fill="none" stroke="#000000" stroke-width="2" x1="92.5" x2="7.5" y1="14" y2="14" /><line fill="none" stroke="#000000" stroke-width="2" x1="7.5" x2="92.5" y1="67" y2="67" /><line fill="none" stroke="#000000" stroke-width="2" x1="76" x2="27" y1="43" y2="43" /><line fill="none" stroke="#000000" stroke-width="2" x1="76" x2="27" y1="55" y2="55" /><polyline fill="none" points="74.5,31 27,31 27,67" stroke="#000000" stroke-width="2" /><path d="M89,93 c-5.229,-6.326 -12.994,-14.506 -20,-21" fill="none" stroke="#000000" stroke-width="2" /><path d="M25,89.5 c6.35,-6.422 12.645,-14.304 18,-22.5" fill="none" stroke="#000000" stroke-width="2" /><path d="M11,90 c21.783,-0.375 47.295,-1.574 72,-3.5" fill="none" stroke="#000000" stroke-width="2" /><path d="M6,41 c22.035,-8.622 37.688,-22.327 43,-36.5" fill="none" stroke="#000000" stroke-width="2" /><path d="M94,41 c-17.054,-6.673 -30.428,-16.378 -38,-27" fill="none" stroke="#000000" stroke-width="2" /></svg>