<?xml version='1.0' encoding='utf-8'?>
<svg xmlns="http://www.w3.org/2000/svg" height="100px" version="1.0" viewBox="0 0 100 100" width="100px" x="0px" y="0px">
<line fill="none" stroke="#000000" stroke-width="2" x1="95.5" x2="33" y1="54" y2="54" /><line fill="none" stroke="#000000" stroke-width="2" x1="65" x2="65" y1="5" y2="43" /><line fill="none" stroke="#000000" stroke-width="2" x1="40.5" x2="90.5" y1="28" y2="28" /><polyline fill="none" points="40.5,44 90.5,44 90.5,13 39.5,13 39.5,45" stroke="#000000" stroke-width="2" /><path d="M3.5,94 c16.564,-13.677 28,-40.016 28,-70 h-28.0" fill="none" stroke="#000000" stroke-width="2" /><path d="M19.5,5 c-2.479,22.511 -6.868,41.968 -12.5,57.5" fill="none" stroke="#000000" stroke-width="2" /><path d="M9.5,55 c8.402,6.791 14.943,14.458 23.5,28" fill="none" stroke="#000000" stroke-width="2" /><path d="M48.5,54 c-2.052,9.31 -5.5,20.015 -9,28" fill="none" stroke="#000000" stroke-width="2" /><path d="M45,66 h44.5 c-2.41,24.298 -3.871,26 -9.5,26 c-3.021,0 -10.614,-0.451 -16.5,-1" fill="none" stroke="#000000" stroke-width="2" /></svg>