<?xml version='1.0' encoding='utf-8'?>
<svg xmlns="http://www.w3.org/2000/svg" height="100px" version="1.0" viewBox="0 0 100 100" width="100px" x="0px" y="0px">
<line fill="none" stroke="#000000" stroke-width="2" x1="49" x2="77" y1="12" y2="12" /><line fill="none" stroke="#000000" stroke-width="2" x1="65.5" x2="65.5" y1="29" y2="53.5" /><polyline fill="none" points="39.5,61.5 39.5,28 91.5,28 91.5,53.5 40.5,53.5" stroke="#000000" stroke-width="2" /><path d="M4.5,94 c16.564,-13.677 28,-40.016 28,-70 h-28.0" fill="none" stroke="#000000" stroke-width="2" /><path d="M20.5,5 c-2.479,22.511 -6.868,41.968 -12.5,57.5" fill="none" stroke="#000000" stroke-width="2" /><path d="M10.5,55 c8.402,6.791 14.943,14.458 23.5,28" fill="none" stroke="#000000" stroke-width="2" /><path d="M66,28 c3.5,-4.525 7.37,-10.448 10.12,-15.479" fill="none" stroke="#000000" stroke-width="2" /><path d="M32,34.5 c9.514,-8.591 16.588,-19.06 21,-31" fill="none" stroke="#000000" stroke-width="2" /><path d="M70.5,53.5 v33.0 c0,4.583 0.514,5 12,5 c10.811,0 11.026,-0.183 12,-22.5" fill="none" stroke="#000000" stroke-width="2" /><path d="M29.5,93 c18.391,-7.339 29,-21.492 29,-39.5" fill="none" stroke="#000000" stroke-width="2" /></svg>