<?xml version='1.0' encoding='utf-8'?>
<svg xmlns="http://www.w3.org/2000/svg" height="100px" version="1.0" viewBox="0 0 100 100" width="100px" x="0px" y="0px">
<line fill="none" stroke="#000000" stroke-width="2" x1="50" x2="50" y1="4.5" y2="53" /><line fill="none" stroke="#000000" stroke-width="2" x1="17" x2="83" y1="33" y2="33" /><line fill="none" stroke="#000000" stroke-width="2" x1="6" x2="94" y1="22.5" y2="22.5" /><line fill="none" stroke="#000000" stroke-width="2" x1="93" x2="7" y1="62.5" y2="62.5" /><line fill="none" stroke="#000000" stroke-width="2" x1="84" x2="84" y1="11" y2="34" /><line fill="none" stroke="#000000" stroke-width="2" x1="17" x2="83" y1="12" y2="12" /><line fill="none" stroke="#000000" stroke-width="2" x1="16" x2="16" y1="34" y2="11" /><line fill="none" stroke="#000000" stroke-width="2" x1="13" x2="87" y1="53" y2="53" /><polyline fill="none" points="12,54 12,41.5 88,41.5 88,54" stroke="#000000" stroke-width="2" /><path d="M10,91.5 c31.96,-3.423 55.713,-15.252 65.5,-29" fill="none" stroke="#000000" stroke-width="2" /><path d="M44.5,53 c-7.234,9.357 -16.488,17.588 -29,25.5" fill="none" stroke="#000000" stroke-width="2" /><path d="M20.5,75 c23.878,3.238 43.711,8.247 69.5,17.5" fill="none" stroke="#000000" stroke-width="2" /></svg>