<?xml version='1.0' encoding='utf-8'?>
<svg xmlns="http://www.w3.org/2000/svg" height="100px" version="1.0" viewBox="0 0 100 100" width="100px" x="0px" y="0px">
<line fill="none" stroke="#000000" stroke-width="2" x1="40.5" x2="92.5" y1="34" y2="34" /><line fill="none" stroke="#000000" stroke-width="2" x1="95.5" x2="33" y1="72.5" y2="72.5" /><line fill="none" stroke="#000000" stroke-width="2" x1="74" x2="74" y1="56.5" y2="94" /><polyline fill="none" points="40.5,53 92.5,53 92.5,16 39.5,16 39.5,54" stroke="#000000" stroke-width="2" /><path d="M3.5,94 c16.564,-13.677 28,-40.016 28,-70 h-28.0" fill="none" stroke="#000000" stroke-width="2" /><path d="M19.5,5 c-2.479,22.511 -6.868,41.968 -12.5,57.5" fill="none" stroke="#000000" stroke-width="2" /><path d="M9.5,55 c8.402,6.791 14.943,14.458 23.5,28" fill="none" stroke="#000000" stroke-width="2" /><path d="M55,16 c2.645,-3.953 5.15,-8.271 7,-12" fill="none" stroke="#000000" stroke-width="2" /><path d="M66,16 v18.0 c0,19.096 -8.212,29.376 -28,34.5" fill="none" stroke="#000000" stroke-width="2" /></svg>