<?xml version='1.0' encoding='utf-8'?>
<svg xmlns="http://www.w3.org/2000/svg" height="100px" version="1.0" viewBox="0 0 100 100" width="100px" x="0px" y="0px">
<line fill="none" stroke="#000000" stroke-width="2" x1="64.5" x2="64.5" y1="56" y2="5.5" /><line fill="none" stroke="#000000" stroke-width="2" x1="34" x2="92" y1="56" y2="56" /><line fill="none" stroke="#000000" stroke-width="2" x1="70.5" x2="91.5" y1="27.5" y2="27.5" /><line fill="none" stroke="#000000" stroke-width="2" x1="37.5" x2="58.5" y1="27.5" y2="27.5" /><path d="M31,91 c29.108,-5.799 50.42,-19.043 60.153,-34.532" fill="none" stroke="#000000" stroke-width="2" /><path d="M96,91 c-27.51,-5.894 -44.486,-16.067 -54.5,-30.5" fill="none" stroke="#000000" stroke-width="2" /><path d="M70,12 h21.5 v31.5 h-54.0 v-29.0 c7.857,-1.474 14.842,-3.841 21,-7" fill="none" stroke="#000000" stroke-width="2" /><path d="M4,94 c16.564,-13.677 28,-40.016 28,-70 h-28.0" fill="none" stroke="#000000" stroke-width="2" /><path d="M20,5 c-2.479,22.511 -6.868,41.968 -12.5,57.5" fill="none" stroke="#000000" stroke-width="2" /><path d="M10,55 c8.402,6.791 14.943,14.458 23.5,28" fill="none" stroke="#000000" stroke-width="2" /></svg>