<?xml version='1.0' encoding='utf-8'?>
<svg xmlns="http://www.w3.org/2000/svg" height="100px" version="1.0" viewBox="0 0 100 100" width="100px" x="0px" y="0px">
<line fill="none" stroke="#000000" stroke-width="2" x1="38" x2="96.5" y1="88.5" y2="88.5" /><polyline fill="none" points="96,10.5 38,10.5 38,95" stroke="#000000" stroke-width="2" /><polyline fill="none" points="47.5,77.5 66,77.5 66,50 46.5,50 46.5,78.5" stroke="#000000" stroke-width="2" /><polyline fill="none" points="74.5,77.5 93,77.5 93,50 73.5,50 73.5,78.5" stroke="#000000" stroke-width="2" /><polyline fill="none" points="53.5,41 87,41 87,20.5 52.5,20.5 52.5,42" stroke="#000000" stroke-width="2" /><path d="M4,94 c16.564,-13.677 28,-40.016 28,-70 h-28.0" fill="none" stroke="#000000" stroke-width="2" /><path d="M20,5 c-2.479,22.511 -6.868,41.968 -12.5,57.5" fill="none" stroke="#000000" stroke-width="2" /><path d="M10,55 c8.402,6.791 14.943,14.458 23.5,28" fill="none" stroke="#000000" stroke-width="2" /></svg>