<?xml version='1.0' encoding='utf-8'?>
<svg xmlns="http://www.w3.org/2000/svg" height="100px" version="1.0" viewBox="0 0 100 100" width="100px" x="0px" y="0px">
<line fill="none" stroke="#000000" stroke-width="2" x1="93" x2="7" y1="58.5" y2="58.5" /><line fill="none" stroke="#000000" stroke-width="2" x1="12.5" x2="45" y1="31" y2="31" /><line fill="none" stroke="#000000" stroke-width="2" x1="12.5" x2="45" y1="20.5" y2="20.5" /><line fill="none" stroke="#000000" stroke-width="2" x1="56" x2="88.5" y1="31" y2="31" /><line fill="none" stroke="#000000" stroke-width="2" x1="56" x2="88.5" y1="20.5" y2="20.5" /><polyline fill="none" points="12.5,41.5 45,41.5 45,10 11.5,10 11.5,42.5" stroke="#000000" stroke-width="2" /><polyline fill="none" points="56,41.5 88.5,41.5 88.5,10 55,10 55,42.5" stroke="#000000" stroke-width="2" /><path d="M10,92 c32.564,-4.039 55.957,-17.257 65.5,-33.5" fill="none" stroke="#000000" stroke-width="2" /><path d="M42.5,50.5 c-6.986,9.392 -15.746,18.021 -27,26.5" fill="none" stroke="#000000" stroke-width="2" /><path d="M20.5,73 c23.854,3.755 43.711,9.284 69.5,19.5" fill="none" stroke="#000000" stroke-width="2" /><path d="M7,54.5 c6.829,-2.638 12.838,-6.263 17,-10" fill="none" stroke="#000000" stroke-width="2" /><path d="M52.5,54 c6.025,-2.506 11.328,-5.95 15,-9.5" fill="none" stroke="#000000" stroke-width="2" /><path d="M93,54.5 c-4.27,-3.284 -10.313,-6.889 -17,-10" fill="none" stroke="#000000" stroke-width="2" /><path d="M47.5,54 c-3.768,-3.12 -9.1,-6.544 -15,-9.5" fill="none" stroke="#000000" stroke-width="2" /></svg>