<?xml version='1.0' encoding='utf-8'?>
<svg xmlns="http://www.w3.org/2000/svg" height="100px" version="1.0" viewBox="0 0 100 100" width="100px" x="0px" y="0px">
<line fill="none" stroke="#000000" stroke-width="2" x1="12.5" x2="14" y1="11.5" y2="44.5" /><line fill="none" stroke="#000000" stroke-width="2" x1="13.5" x2="33" y1="32.5" y2="32.5" /><line fill="none" stroke="#000000" stroke-width="2" x1="13" x2="33" y1="21" y2="21" /><line fill="none" stroke="#000000" stroke-width="2" x1="67" x2="86.5" y1="32.5" y2="32.5" /><line fill="none" stroke="#000000" stroke-width="2" x1="67" x2="87" y1="21" y2="21" /><line fill="none" stroke="#000000" stroke-width="2" x1="5" x2="95" y1="74" y2="74" /><line fill="none" stroke="#000000" stroke-width="2" x1="78" x2="22" y1="55" y2="55" /><polyline fill="none" points="66,10 87.5,10 86,44.5" stroke="#000000" stroke-width="2" /><polyline fill="none" points="93.5,56 93.5,44.5 6.5,44.5 6.5,56" stroke="#000000" stroke-width="2" /><path d="M11.607,12.541 c7.679,-0.829 14.438,-1.922 22.393,-3.541" fill="none" stroke="#000000" stroke-width="2" /><path d="M51,67 v20.5 c0,4.657 -0.361,5 -7.5,5 c-3.182,0 -8.553,-0.178 -15,-0.5" fill="none" stroke="#000000" stroke-width="2" /><path d="M77.463,55.16 c-8.063,5.124 -15.994,8.988 -26.463,12.84" fill="none" stroke="#000000" stroke-width="2" /><path d="M36.5,21.5 c10.588,-3.892 19.662,-10.309 25,-17" fill="none" stroke="#000000" stroke-width="2" /><path d="M38.5,6.5 c7.656,3.236 14.623,7.216 24,14" fill="none" stroke="#000000" stroke-width="2" /><path d="M36.5,40.5 c10.588,-3.892 19.662,-10.309 25,-17" fill="none" stroke="#000000" stroke-width="2" /><path d="M38.5,25.5 c7.656,3.236 14.623,7.216 24,14" fill="none" stroke="#000000" stroke-width="2" /></svg>