<?xml version='1.0' encoding='utf-8'?>
<svg xmlns="http://www.w3.org/2000/svg" height="100px" version="1.0" viewBox="0 0 100 100" width="100px" x="0px" y="0px">
<line fill="none" stroke="#000000" stroke-width="2" x1="50" x2="50" y1="13" y2="2" /><line fill="none" stroke="#000000" stroke-width="2" x1="50" x2="50" y1="77" y2="23" /><line fill="none" stroke="#000000" stroke-width="2" x1="79.5" x2="20.5" y1="50" y2="50" /><line fill="none" stroke="#000000" stroke-width="2" x1="79.5" x2="20.5" y1="36.5" y2="36.5" /><polyline fill="none" points="89.5,33 89.5,13 10.5,13 10.5,33" stroke="#000000" stroke-width="2" /><polyline fill="none" points="19.5,51 19.5,23 80.5,23 80.5,51" stroke="#000000" stroke-width="2" /><path d="M69,90.5 c7.004,0.363 11.129,0.5 13,0.5 c6.354,0 7,-0.673 7,-8 v-23.0 h-78.0 v32.5" fill="none" stroke="#000000" stroke-width="2" /><path d="M82.5,82 c-4.109,-5.151 -9.73,-11.759 -14.5,-17" fill="none" stroke="#000000" stroke-width="2" /><path d="M18.5,79.5 c18.109,-0.698 38.354,-2.833 57,-6" fill="none" stroke="#000000" stroke-width="2" /></svg>