<?xml version='1.0' encoding='utf-8'?>
<svg xmlns="http://www.w3.org/2000/svg" height="100px" version="1.0" viewBox="0 0 100 100" width="100px" x="0px" y="0px">
<line fill="none" stroke="#000000" stroke-width="2" x1="50" x2="50" y1="13" y2="3" /><line fill="none" stroke="#000000" stroke-width="2" x1="5.5" x2="49.5" y1="42.5" y2="42.5" /><line fill="none" stroke="#000000" stroke-width="2" x1="7" x2="49" y1="26" y2="26" /><line fill="none" stroke="#000000" stroke-width="2" x1="28" x2="28" y1="26" y2="17" /><line fill="none" stroke="#000000" stroke-width="2" x1="55" x2="91" y1="57.5" y2="57.5" /><line fill="none" stroke="#000000" stroke-width="2" x1="55" x2="91" y1="68.5" y2="68.5" /><line fill="none" stroke="#000000" stroke-width="2" x1="55" x2="91" y1="79.5" y2="79.5" /><line fill="none" stroke="#000000" stroke-width="2" x1="88" x2="55" y1="24.5" y2="24.5" /><line fill="none" stroke="#000000" stroke-width="2" x1="11.5" x2="45" y1="75.5" y2="75.5" /><line fill="none" stroke="#000000" stroke-width="2" x1="11.5" x2="45" y1="63.5" y2="63.5" /><polyline fill="none" points="92,25.5 92,13 8,13 8,22" stroke="#000000" stroke-width="2" /><path d="M35,42.5 c2.904,-4.676 5.314,-10.281 7,-16.5" fill="none" stroke="#000000" stroke-width="2" /><path d="M21,42.5 c-2.053,-5.535 -4.374,-11.026 -7,-16.5" fill="none" stroke="#000000" stroke-width="2" /><path d="M95.5,79.5 c-1.217,11.703 -1.613,12 -22,12 c-18.258,0 -18.5,-0.233 -18.5,-7 v-38.0 h36.0 v-11.0 h-36.0 V17.0" fill="none" stroke="#000000" stroke-width="2" /><path d="M10.5,92 v-40.5 h34.5 v35.0 c0,3.652 -0.359,4 -6.5,4 c-1.868,0 -4.805,-0.126 -10.5,-0.5" fill="none" stroke="#000000" stroke-width="2" /></svg>