<?xml version='1.0' encoding='utf-8'?>
<svg xmlns="http://www.w3.org/2000/svg" height="100px" version="1.0" viewBox="0 0 100 100" width="100px" x="0px" y="0px">
<line fill="none" stroke="#000000" stroke-width="2" x1="96.5" x2="34" y1="55" y2="55" /><line fill="none" stroke="#000000" stroke-width="2" x1="58" x2="94.5" y1="12.5" y2="12.5" /><line fill="none" stroke="#000000" stroke-width="2" x1="29" x2="29" y1="94" y2="6" /><line fill="none" stroke="#000000" stroke-width="2" x1="29" x2="5" y1="53" y2="53" /><polyline fill="none" points="9.5,8.5 9.5,34 29,34" stroke="#000000" stroke-width="2" /><path d="M85.5,41.5 v41.0 c0,8.474 -0.457,9 -6,9 c-1.952,0 -7.382,-0.18 -13.5,-0.5" fill="none" stroke="#000000" stroke-width="2" /><path d="M64,81 c-4.699,-6.18 -11.249,-13.175 -18,-19" fill="none" stroke="#000000" stroke-width="2" /><path d="M34,25 c14.341,-5.269 25.129,-12.272 32,-20" fill="none" stroke="#000000" stroke-width="2" /><path d="M93.547,13.199 c-5.166,16.37 -26.563,31.129 -59.547,36.801" fill="none" stroke="#000000" stroke-width="2" /><path d="M78.5,32.5 c-5.205,-4.765 -12.815,-10.611 -19,-14.5" fill="none" stroke="#000000" stroke-width="2" /><path d="M61.5,42 c-5.205,-4.765 -12.815,-10.611 -19,-14.5" fill="none" stroke="#000000" stroke-width="2" /><path d="M5.5,92.5 c4.434,-5.339 7,-15.479 7,-38.5" fill="none" stroke="#000000" stroke-width="2" /></svg>