<?xml version='1.0' encoding='utf-8'?>
<svg xmlns="http://www.w3.org/2000/svg" height="100px" version="1.0" viewBox="0 0 100 100" width="100px" x="0px" y="0px">
<line fill="none" stroke="#000000" stroke-width="2" x1="97.5" x2="57.5" y1="23.5" y2="23.5" /><line fill="none" stroke="#000000" stroke-width="2" x1="30" x2="30" y1="86.5" y2="50.5" /><line fill="none" stroke="#000000" stroke-width="2" x1="55" x2="5" y1="28.5" y2="28.5" /><line fill="none" stroke="#000000" stroke-width="2" x1="54" x2="6" y1="50.5" y2="50.5" /><line fill="none" stroke="#000000" stroke-width="2" x1="52" x2="8" y1="67.5" y2="67.5" /><line fill="none" stroke="#000000" stroke-width="2" x1="23" x2="23" y1="28.5" y2="6" /><line fill="none" stroke="#000000" stroke-width="2" x1="37" x2="37" y1="28.5" y2="6" /><path d="M87.5,6 v75.0 c0,9.353 -0.566,10 -6.5,10 c-2.949,0 -9.187,-0.194 -15,-0.5" fill="none" stroke="#000000" stroke-width="2" /><path d="M74.5,66.5 c-3.807,-9.632 -9.448,-20.955 -15,-30" fill="none" stroke="#000000" stroke-width="2" /><path d="M5,91 c16.19,-2.568 33.914,-5.986 52,-10" fill="none" stroke="#000000" stroke-width="2" /><path d="M45,24.5 c2.728,-5.358 5.116,-10.89 7,-16" fill="none" stroke="#000000" stroke-width="2" /><path d="M15,24.5 c-2.164,-5.771 -4.566,-11.292 -7,-16" fill="none" stroke="#000000" stroke-width="2" /><path d="M37,50.5 c2.956,-6.442 5.584,-14.036 7.5,-22" fill="none" stroke="#000000" stroke-width="2" /><path d="M22.5,50.5 c-1.965,-7.245 -4.371,-14.929 -7,-22" fill="none" stroke="#000000" stroke-width="2" /></svg>