<?xml version='1.0' encoding='utf-8'?>
<svg xmlns="http://www.w3.org/2000/svg" height="100px" version="1.0" viewBox="0 0 100 100" width="100px" x="0px" y="0px">
<line fill="none" stroke="#000000" stroke-width="2" x1="50" x2="50" y1="20.5" y2="4.5" /><line fill="none" stroke="#000000" stroke-width="2" x1="50" x2="50" y1="94.5" y2="50.5" /><line fill="none" stroke="#000000" stroke-width="2" x1="4.5" x2="95.5" y1="82.5" y2="82.5" /><line fill="none" stroke="#000000" stroke-width="2" x1="89" x2="11" y1="71" y2="71" /><line fill="none" stroke="#000000" stroke-width="2" x1="82.5" x2="17.5" y1="59.5" y2="59.5" /><line fill="none" stroke="#000000" stroke-width="2" x1="36" x2="80" y1="29.5" y2="29.5" /><polyline fill="none" points="11.5,7.5 11.5,20.5 88.5,20.5 88.5,7.5" stroke="#000000" stroke-width="2" /><path d="M8,42.5 c15.96,-4.319 30.031,-12.876 38,-22" fill="none" stroke="#000000" stroke-width="2" /><path d="M4,56.5 c33.438,-4.243 61.346,-15.034 75.357,-26.767" fill="none" stroke="#000000" stroke-width="2" /><path d="M96,56.5 c-28.027,-3.558 -53.531,-12.042 -69,-22" fill="none" stroke="#000000" stroke-width="2" /></svg>