<?xml version='1.0' encoding='utf-8'?>
<svg xmlns="http://www.w3.org/2000/svg" height="100px" version="1.0" viewBox="0 0 100 100" width="100px" x="0px" y="0px">
<line fill="none" stroke="#000000" stroke-width="2" x1="7" x2="7" y1="20" y2="92" /><line fill="none" stroke="#000000" stroke-width="2" x1="19" x2="19" y1="84" y2="6.5" /><line fill="none" stroke="#000000" stroke-width="2" x1="42" x2="87" y1="53.5" y2="53.5" /><line fill="none" stroke="#000000" stroke-width="2" x1="34.5" x2="95" y1="77.5" y2="77.5" /><line fill="none" stroke="#000000" stroke-width="2" x1="65" x2="65" y1="94" y2="68" /><line fill="none" stroke="#000000" stroke-width="2" x1="34.5" x2="95" y1="32.5" y2="32.5" /><line fill="none" stroke="#000000" stroke-width="2" x1="35" x2="94" y1="15" y2="15" /><line fill="none" stroke="#000000" stroke-width="2" x1="65" x2="65" y1="15" y2="4.5" /><polyline fill="none" points="8,84 31,84 31,20" stroke="#000000" stroke-width="2" /><polyline fill="none" points="42,67 88,67 88,41 41,41 41,68" stroke="#000000" stroke-width="2" /><path d="M73.5,32.5 c4.041,-4.94 7.256,-10.87 9.5,-17.5" fill="none" stroke="#000000" stroke-width="2" /><path d="M54.5,32.5 c-2.729,-5.93 -5.852,-11.708 -9.5,-17.5" fill="none" stroke="#000000" stroke-width="2" /></svg>