<?xml version='1.0' encoding='utf-8'?>
<svg xmlns="http://www.w3.org/2000/svg" height="100px" version="1.0" viewBox="0 0 100 100" width="100px" x="0px" y="0px">
<line fill="none" stroke="#000000" stroke-width="2" x1="50" x2="50" y1="20" y2="4" /><line fill="none" stroke="#000000" stroke-width="2" x1="97" x2="66" y1="43.5" y2="43.5" /><line fill="none" stroke="#000000" stroke-width="2" x1="29.5" x2="66" y1="40" y2="40" /><line fill="none" stroke="#000000" stroke-width="2" x1="32.5" x2="63" y1="50.5" y2="50.5" /><line fill="none" stroke="#000000" stroke-width="2" x1="32.5" x2="63" y1="61" y2="61" /><line fill="none" stroke="#000000" stroke-width="2" x1="32.5" x2="63" y1="29.5" y2="29.5" /><polyline fill="none" points="12,7 12,20 88,20 88,7" stroke="#000000" stroke-width="2" /><polyline fill="none" points="33.5,89.5 63,89.5 63,71.5 32.5,71.5 32.5,94.5" stroke="#000000" stroke-width="2" /><path d="M9.5,27 c9.518,12.587 14,26.725 14,44 c0,14.591 -3.76,21.5 -7.5,21.5 c-2.443,0 -6.143,-0.456 -10.5,-1.5" fill="none" stroke="#000000" stroke-width="2" /><path d="M29,25 c-6.912,8.392 -16.088,15.788 -26,21" fill="none" stroke="#000000" stroke-width="2" /><path d="M22.5,56 c-5.061,5.836 -11.912,11.153 -19.5,15" fill="none" stroke="#000000" stroke-width="2" /><path d="M86,25 c3.227,4.619 5.963,8.872 9,14" fill="none" stroke="#000000" stroke-width="2" /><path d="M66,93 c9.057,-10.237 15.5,-28.847 15.5,-48.5 v-20.0" fill="none" stroke="#000000" stroke-width="2" /><path d="M97,93 c-9.057,-10.237 -15.5,-28.847 -15.5,-48.5" fill="none" stroke="#000000" stroke-width="2" /></svg>