<?xml version='1.0' encoding='utf-8'?>
<svg xmlns="http://www.w3.org/2000/svg" height="100px" version="1.0" viewBox="0 0 100 100" width="100px" x="0px" y="0px">
<line fill="none" stroke="#000000" stroke-width="2" x1="38" x2="92" y1="88.5" y2="88.5" /><line fill="none" stroke="#000000" stroke-width="2" x1="41" x2="88" y1="25.5" y2="25.5" /><line fill="none" stroke="#000000" stroke-width="2" x1="18.5" x2="18.5" y1="94" y2="6" /><polyline fill="none" points="92,94.5 92,9.5 37,9.5 37,94.5" stroke="#000000" stroke-width="2" /><polyline fill="none" points="47,59.5 64.5,59.5 64.5,35.5 46,35.5 46,60.5" stroke="#000000" stroke-width="2" /><path d="M85,33.5 c-4.814,24.286 -13.282,40.122 -24,49" fill="none" stroke="#000000" stroke-width="2" /><path d="M69.5,14.5 c0,47.527 10.834,67.5 14.5,67.5 c1.938,0 3.272,-2.337 4.5,-20.5" fill="none" stroke="#000000" stroke-width="2" /><path d="M74,15 c3.705,2.005 7.52,4.442 11,7" fill="none" stroke="#000000" stroke-width="2" /><path d="M41.5,75.5 c11.393,-2.735 21.21,-6.543 27,-10" fill="none" stroke="#000000" stroke-width="2" /><path d="M22,75 h3.0 c4.664,0 5,-0.355 5,-7 v-46.0 h-23.0 v55.0" fill="none" stroke="#000000" stroke-width="2" /></svg>