<?xml version='1.0' encoding='utf-8'?>
<svg xmlns="http://www.w3.org/2000/svg" height="100px" version="1.0" viewBox="0 0 100 100" width="100px" x="0px" y="0px">
<line fill="none" stroke="#000000" stroke-width="2" x1="28.5" x2="82.5" y1="61.5" y2="61.5" /><line fill="none" stroke="#000000" stroke-width="2" x1="28" x2="83" y1="46" y2="46" /><line fill="none" stroke="#000000" stroke-width="2" x1="27.5" x2="27.5" y1="85" y2="46.5" /><line fill="none" stroke="#000000" stroke-width="2" x1="91.5" x2="19.5" y1="25.5" y2="25.5" /><line fill="none" stroke="#000000" stroke-width="2" x1="51.5" x2="51.5" y1="13.5" y2="3" /><polyline fill="none" points="83.5,46.5 83.5,77.5 27.5,77.5" stroke="#000000" stroke-width="2" /><path d="M93.5,74 c-1.183,17.294 -1.43,17.5 -21.5,17.5 c-16.313,0 -16.5,-0.164 -16.5,-8 V34.0" fill="none" stroke="#000000" stroke-width="2" /><path d="M17,52 c19.107,-8.669 32.503,-22.147 37.5,-36" fill="none" stroke="#000000" stroke-width="2" /><path d="M4.5,92 c4.898,-10.415 9,-30.94 9,-47 v-31.5 h78.5" fill="none" stroke="#000000" stroke-width="2" /><path d="M94,52 c-14.704,-6.671 -25.967,-16.038 -32.5,-26.5" fill="none" stroke="#000000" stroke-width="2" /></svg>