<?xml version='1.0' encoding='utf-8'?>
<svg xmlns="http://www.w3.org/2000/svg" height="100px" version="1.0" viewBox="0 0 100 100" width="100px" x="0px" y="0px">
<line fill="none" stroke="#000000" stroke-width="2" x1="51.5" x2="51.5" y1="13.5" y2="3" /><line fill="none" stroke="#000000" stroke-width="2" x1="23" x2="52.5" y1="52.5" y2="52.5" /><line fill="none" stroke="#000000" stroke-width="2" x1="16" x2="55" y1="79" y2="79" /><line fill="none" stroke="#000000" stroke-width="2" x1="37" x2="37" y1="38.5" y2="17" /><line fill="none" stroke="#000000" stroke-width="2" x1="37" x2="37" y1="94" y2="67.5" /><line fill="none" stroke="#000000" stroke-width="2" x1="17.5" x2="57" y1="27" y2="27" /><line fill="none" stroke="#000000" stroke-width="2" x1="62" x2="89.5" y1="65.5" y2="65.5" /><line fill="none" stroke="#000000" stroke-width="2" x1="63.5" x2="89.5" y1="43.5" y2="43.5" /><polyline fill="none" points="23,67.5 52.5,67.5 52.5,38.5 22,38.5 22,68.5" stroke="#000000" stroke-width="2" /><path d="M3.5,92 c4.898,-10.415 9,-30.94 9,-47 v-31.5 H93.0" fill="none" stroke="#000000" stroke-width="2" /><path d="M53.5,93.5 c6.149,-9.371 9,-20.503 9,-40.5 v-30.0 h27.0 v62.0 c0,6.687 -0.275,7 -5,7 c-1.819,0 -5.607,-0.137 -11,-0.5" fill="none" stroke="#000000" stroke-width="2" /></svg>