<?xml version='1.0' encoding='utf-8'?>
<svg xmlns="http://www.w3.org/2000/svg" height="100px" version="1.0" viewBox="0 0 100 100" width="100px" x="0px" y="0px">
<line fill="none" stroke="#000000" stroke-width="2" x1="51.5" x2="51.5" y1="13.5" y2="3" /><line fill="none" stroke="#000000" stroke-width="2" x1="36" x2="36" y1="43" y2="17.5" /><line fill="none" stroke="#000000" stroke-width="2" x1="64" x2="93.5" y1="31.5" y2="31.5" /><line fill="none" stroke="#000000" stroke-width="2" x1="27.5" x2="27.5" y1="86.5" y2="52.5" /><polyline fill="none" points="28.5,53.5 44.5,53.5 44.5,79 27.5,79" stroke="#000000" stroke-width="2" /><path d="M3.5,92 c4.898,-10.415 9,-30.94 9,-47 v-31.5 h80.5" fill="none" stroke="#000000" stroke-width="2" /><path d="M40,92 c3.861,0.345 6.551,0.5 8,0.5 c4.41,0 5,-0.768 5,-9 V43.0 h-34.0 v51.0" fill="none" stroke="#000000" stroke-width="2" /><path d="M27.5,38 c-2.563,-6.421 -5.555,-12.749 -8.5,-18" fill="none" stroke="#000000" stroke-width="2" /><path d="M44.5,38 c3.446,-5.804 6.561,-12.589 8.5,-18.5" fill="none" stroke="#000000" stroke-width="2" /><path d="M56,93 c19.942,-12.757 28.182,-27.083 31.5,-61.5" fill="none" stroke="#000000" stroke-width="2" /><path d="M56,55.5 c4.732,-10.476 8.766,-24.528 11,-38.5" fill="none" stroke="#000000" stroke-width="2" /><path d="M95,93 c-18.529,-12.089 -27.018,-27.425 -29,-55.5" fill="none" stroke="#000000" stroke-width="2" /></svg>