<?xml version='1.0' encoding='utf-8'?>
<svg xmlns="http://www.w3.org/2000/svg" height="100px" version="1.0" viewBox="0 0 100 100" width="100px" x="0px" y="0px">
<line fill="none" stroke="#000000" stroke-width="2" x1="48" x2="6" y1="13.5" y2="13.5" /><line fill="none" stroke="#000000" stroke-width="2" x1="50" x2="91.5" y1="11" y2="11" /><path d="M17.5,45 h64.0 v13.0 h-61.0 c-1.299,7.198 -4.06,15.275 -7,21" fill="none" stroke="#000000" stroke-width="2" /><path d="M17,71 h68.5 c-4.14,18.534 -6.003,20 -16,20 c-5.572,0 -13.555,-0.334 -23.5,-1" fill="none" stroke="#000000" stroke-width="2" /><path d="M6,45 c21.841,-5.412 36.75,-16.945 41.045,-30.796" fill="none" stroke="#000000" stroke-width="2" /><path d="M14,27 c12.536,3.437 22.373,7.403 33.5,13.5" fill="none" stroke="#000000" stroke-width="2" /><path d="M26,4.5 c-3.683,10.667 -9.283,19.929 -16.5,27.5" fill="none" stroke="#000000" stroke-width="2" /><path d="M52.5,40.5 c19.132,-5.923 30.901,-15.246 38.115,-28.965" fill="none" stroke="#000000" stroke-width="2" /><path d="M95,45 c-17.23,-7.349 -31.163,-17.782 -40,-30" fill="none" stroke="#000000" stroke-width="2" /></svg>