<?xml version='1.0' encoding='utf-8'?>
<svg xmlns="http://www.w3.org/2000/svg" height="100px" version="1.0" viewBox="0 0 100 100" width="100px" x="0px" y="0px">
<line fill="none" stroke="#000000" stroke-width="2" x1="6" x2="94" y1="39.5" y2="39.5" /><line fill="none" stroke="#000000" stroke-width="2" x1="76.5" x2="21" y1="26.5" y2="26.5" /><path d="M11,56.5 c19.369,-4.72 32.18,-10.345 41,-17" fill="none" stroke="#000000" stroke-width="2" /><path d="M37,90 c6.284,0.347 11.131,0.5 14.5,0.5 c5.971,0 7.5,-1.804 7.5,-14 c0,-12.576 -6.27,-24.511 -16.5,-31" fill="none" stroke="#000000" stroke-width="2" /><path d="M10,72.5 c19.67,-4.903 33.113,-10.847 42,-17.5" fill="none" stroke="#000000" stroke-width="2" /><path d="M9,88.5 c23.001,-5.951 38.156,-12.951 48.5,-21" fill="none" stroke="#000000" stroke-width="2" /><path d="M87,47.5 c-6.698,6.229 -13.921,11.158 -22,15" fill="none" stroke="#000000" stroke-width="2" /><path d="M54,39.5 c4.756,18.39 19.701,37.685 38,48.5" fill="none" stroke="#000000" stroke-width="2" /><path d="M72.5,39.5 c3.746,-11.194 5.521,-17.425 8,-28 H26.0" fill="none" stroke="#000000" stroke-width="2" /><path d="M18.5,33 c4.684,-11.994 6.902,-18.669 10,-30" fill="none" stroke="#000000" stroke-width="2" /></svg>