<?xml version='1.0' encoding='utf-8'?>
<svg xmlns="http://www.w3.org/2000/svg" height="100px" version="1.0" viewBox="0 0 100 100" width="100px" x="0px" y="0px">
<line fill="none" stroke="#000000" stroke-width="2" x1="17" x2="17" y1="94" y2="6" /><line fill="none" stroke="#000000" stroke-width="2" x1="46" x2="75.5" y1="12" y2="12" /><polyline fill="none" points="35.5,61.5 35.5,28 91.5,28 91.5,53.5 36.5,53.5" stroke="#000000" stroke-width="2" /><path d="M4,58 c2.624,-10.247 4.357,-21.376 5,-32" fill="none" stroke="#000000" stroke-width="2" /><path d="M27.5,47.5 c-0.573,-6.952 -1.604,-14.611 -3,-22" fill="none" stroke="#000000" stroke-width="2" /><path d="M63.98,28 c3.684,-4.53 7.756,-10.46 10.649,-15.498" fill="none" stroke="#000000" stroke-width="2" /><path d="M26,35.5 c10.872,-8.867 18.958,-19.674 24,-32" fill="none" stroke="#000000" stroke-width="2" /><path d="M69,54.5 v32.0 c0,4.583 0.555,5 12.5,5 c11.753,0 11.966,-0.183 13,-22.5" fill="none" stroke="#000000" stroke-width="2" /><path d="M25.5,93 c26.16,-9.242 38,-27.664 38,-64" fill="none" stroke="#000000" stroke-width="2" /></svg>