<?xml version='1.0' encoding='utf-8'?>
<svg xmlns="http://www.w3.org/2000/svg" height="100px" version="1.0" viewBox="0 0 100 100" width="100px" x="0px" y="0px">
<line fill="none" stroke="#000000" stroke-width="2" x1="17.5" x2="82.5" y1="37" y2="37" /><line fill="none" stroke="#000000" stroke-width="2" x1="50" x2="50" y1="63" y2="4.5" /><line fill="none" stroke="#000000" stroke-width="2" x1="6" x2="94" y1="13.5" y2="13.5" /><polyline fill="none" points="17.5,51.5 83.5,51.5 83.5,23.5 16.5,23.5 16.5,52.5" stroke="#000000" stroke-width="2" /><path d="M32.5,72 v10.0 c0,8.819 0.27,9.127 7,9.601 c3.619,0.254 8.079,0.399 12.5,0.399 c4.34,0 8.635,-0.144 12.5,-0.399 c11.255,-0.752 11.504,-1.02 13,-13.601" fill="none" stroke="#000000" stroke-width="2" /><path d="M5.5,90.5 c5.881,-5.263 10.793,-11.75 14,-18.5" fill="none" stroke="#000000" stroke-width="2" /><path d="M94.5,90.5 c-4.018,-6.167 -9.154,-12.565 -15,-18.5" fill="none" stroke="#000000" stroke-width="2" /><path d="M63,81.5 c-5.825,-4.171 -12.754,-8.354 -20,-12" fill="none" stroke="#000000" stroke-width="2" /><path d="M94,67.5 c-6.093,-4.848 -14.439,-11.066 -21.5,-16" fill="none" stroke="#000000" stroke-width="2" /><path d="M8,65.5 c23.123,-0.733 49.219,-2.792 75.5,-6" fill="none" stroke="#000000" stroke-width="2" /></svg>