<?xml version='1.0' encoding='utf-8'?>
<svg xmlns="http://www.w3.org/2000/svg" height="100px" version="1.0" viewBox="0 0 100 100" width="100px" x="0px" y="0px">
<line fill="none" stroke="#000000" stroke-width="2" x1="12" x2="39" y1="16" y2="16" /><line fill="none" stroke="#000000" stroke-width="2" x1="24" x2="24" y1="60" y2="5.5" /><path d="M94.5,89 c-4.006,-8.018 -9.154,-16.294 -15,-24.001" fill="none" stroke="#000000" stroke-width="2" /><path d="M32.5,64.5 v15.0 c0,10.571 0.292,10.911 7,11.5 c3.618,0.317 8.079,0.5 12.5,0.5 c4.34,0 8.638,-0.161 12.5,-0.5 c11.35,-0.996 11.514,-1.125 13,-16" fill="none" stroke="#000000" stroke-width="2" /><path d="M5.5,89.5 c6.062,-6.017 11.077,-13.812 14,-22" fill="none" stroke="#000000" stroke-width="2" /><path d="M63,76.5 c-5.825,-4.966 -12.691,-9.811 -20,-14" fill="none" stroke="#000000" stroke-width="2" /><path d="M48,12.5 h44.0 c-1.811,40.512 -4.148,45 -9.5,45 c-3.906,0 -10.299,-0.165 -17,-0.5" fill="none" stroke="#000000" stroke-width="2" /><path d="M31,29.5 c9.563,-6.394 17.744,-16.106 21.5,-25" fill="none" stroke="#000000" stroke-width="2" /><path d="M47,58.5 c18.137,-9.691 30.596,-26.632 34,-46" fill="none" stroke="#000000" stroke-width="2" /><path d="M37.5,44.5 c12.477,-6.791 23.006,-19.44 27,-32" fill="none" stroke="#000000" stroke-width="2" /><path d="M5,41 c11.527,-1.549 23.914,-3.689 35,-6" fill="none" stroke="#000000" stroke-width="2" /><path d="M5,32 c4.318,-6.753 7.482,-15.269 9,-24.5" fill="none" stroke="#000000" stroke-width="2" /></svg>