<?xml version='1.0' encoding='utf-8'?>
<svg xmlns="http://www.w3.org/2000/svg" height="100px" version="1.0" viewBox="0 0 100 100" width="100px" x="0px" y="0px">
<line fill="none" stroke="#000000" stroke-width="2" x1="15.5" x2="15.5" y1="94" y2="6" /><line fill="none" stroke="#000000" stroke-width="2" x1="42" x2="42" y1="94" y2="11.5" /><line fill="none" stroke="#000000" stroke-width="2" x1="57.5" x2="24.5" y1="33" y2="33" /><path d="M3,58 c2.624,-10.247 4.357,-21.376 5,-32" fill="none" stroke="#000000" stroke-width="2" /><path d="M26,47.5 c-0.573,-6.952 -1.604,-14.611 -3,-22" fill="none" stroke="#000000" stroke-width="2" /><path d="M57.5,8 c-10.942,2.732 -21.488,4.719 -32,6" fill="none" stroke="#000000" stroke-width="2" /><path d="M23.5,72.5 c8.646,-13.023 14.313,-25.675 18,-40" fill="none" stroke="#000000" stroke-width="2" /><path d="M56.5,63 c-4.282,-9.394 -9.12,-19.475 -14,-29" fill="none" stroke="#000000" stroke-width="2" /><path d="M65,20.5 c-0.861,12.496 -3.096,23.604 -6.5,33" fill="none" stroke="#000000" stroke-width="2" /><path d="M54.5,91 c12.859,-10.436 21.5,-30.592 21.5,-56 v-28.0" fill="none" stroke="#000000" stroke-width="2" /><path d="M97.5,91 c-12.881,-10.276 -21.5,-30.294 -21.5,-56" fill="none" stroke="#000000" stroke-width="2" /><path d="M95,19 c-1.527,12.022 -4.42,22.626 -8.5,31.5" fill="none" stroke="#000000" stroke-width="2" /></svg>