<?xml version='1.0' encoding='utf-8'?>
<svg xmlns="http://www.w3.org/2000/svg" height="100px" version="1.0" viewBox="0 0 100 100" width="100px" x="0px" y="0px">
<line fill="none" stroke="#000000" stroke-width="2" x1="15.5" x2="15.5" y1="94" y2="6" /><line fill="none" stroke="#000000" stroke-width="2" x1="30.5" x2="96" y1="34.5" y2="34.5" /><line fill="none" stroke="#000000" stroke-width="2" x1="61.5" x2="61.5" y1="13" y2="2.5" /><line fill="none" stroke="#000000" stroke-width="2" x1="65" x2="65" y1="24" y2="92.5" /><line fill="none" stroke="#000000" stroke-width="2" x1="92.5" x2="39" y1="67" y2="67" /><line fill="none" stroke="#000000" stroke-width="2" x1="92.5" x2="39" y1="78.5" y2="78.5" /><line fill="none" stroke="#000000" stroke-width="2" x1="65" x2="65" y1="23" y2="13" /><polyline fill="none" points="37.5,46 90,46 90,23 37.5,23" stroke="#000000" stroke-width="2" /><path d="M3,58 c2.624,-10.247 4.357,-21.376 5,-32" fill="none" stroke="#000000" stroke-width="2" /><path d="M26,47.5 c-0.573,-6.952 -1.604,-14.611 -3,-22" fill="none" stroke="#000000" stroke-width="2" /><path d="M23.5,92 c4.889,-14.019 7,-27.525 7,-47 v-32.0 h64.5" fill="none" stroke="#000000" stroke-width="2" /><path d="M73.5,91.5 c6.685,0.362 10.713,0.5 12.5,0.5 c5.953,0 6.5,-0.673 6.5,-8 v-28.5 H38.0 v37.5" fill="none" stroke="#000000" stroke-width="2" /></svg>