<?xml version='1.0' encoding='utf-8'?>
<svg xmlns="http://www.w3.org/2000/svg" height="100px" version="1.0" viewBox="0 0 100 100" width="100px" x="0px" y="0px">
<line fill="none" stroke="#000000" stroke-width="2" x1="15.5" x2="15.5" y1="94" y2="6" /><line fill="none" stroke="#000000" stroke-width="2" x1="97" x2="25" y1="77.5" y2="77.5" /><line fill="none" stroke="#000000" stroke-width="2" x1="34" x2="88" y1="66.5" y2="66.5" /><line fill="none" stroke="#000000" stroke-width="2" x1="61" x2="61" y1="35" y2="94.5" /><line fill="none" stroke="#000000" stroke-width="2" x1="34" x2="88" y1="50.5" y2="50.5" /><polyline fill="none" points="32,26 57,26 57,9.5 31,9.5 31,27" stroke="#000000" stroke-width="2" /><polyline fill="none" points="66,26 91,26 91,9.5 65,9.5 65,27" stroke="#000000" stroke-width="2" /><polyline fill="none" points="89,67.5 89,35 33,35 33,67.5" stroke="#000000" stroke-width="2" /><path d="M3,57.5 c2.624,-10.247 4.357,-21.376 5,-32" fill="none" stroke="#000000" stroke-width="2" /><path d="M26,48 c-0.573,-6.952 -1.604,-14.611 -3,-22" fill="none" stroke="#000000" stroke-width="2" /></svg>