<?xml version='1.0' encoding='utf-8'?>
<svg xmlns="http://www.w3.org/2000/svg" height="100px" version="1.0" viewBox="0 0 100 100" width="100px" x="0px" y="0px">
<line fill="none" stroke="#000000" stroke-width="2" x1="15.5" x2="15.5" y1="94" y2="6" /><line fill="none" stroke="#000000" stroke-width="2" x1="33.5" x2="33.5" y1="52.5" y2="94" /><line fill="none" stroke="#000000" stroke-width="2" x1="91.5" x2="34" y1="52" y2="52" /><line fill="none" stroke="#000000" stroke-width="2" x1="64" x2="64" y1="88" y2="52" /><line fill="none" stroke="#000000" stroke-width="2" x1="34.5" x2="93.5" y1="88" y2="88" /><line fill="none" stroke="#000000" stroke-width="2" x1="33.5" x2="89.5" y1="75.5" y2="75.5" /><line fill="none" stroke="#000000" stroke-width="2" x1="33.5" x2="89.5" y1="63.5" y2="63.5" /><line fill="none" stroke="#000000" stroke-width="2" x1="25.5" x2="93.5" y1="12" y2="12" /><line fill="none" stroke="#000000" stroke-width="2" x1="46.5" x2="46.5" y1="18.5" y2="4" /><line fill="none" stroke="#000000" stroke-width="2" x1="73" x2="73" y1="18.5" y2="4" /><polyline fill="none" points="32,41 58,41 58,21.5 31,21.5 31,42" stroke="#000000" stroke-width="2" /><polyline fill="none" points="66,41 92,41 92,21.5 65,21.5 65,42" stroke="#000000" stroke-width="2" /><path d="M3,58 c2.624,-10.247 4.357,-21.376 5,-32" fill="none" stroke="#000000" stroke-width="2" /><path d="M26,47.5 c-0.573,-6.952 -1.604,-14.611 -3,-22" fill="none" stroke="#000000" stroke-width="2" /><path d="M69.5,41 c-1.629,4.057 -3.602,7.633 -6,11" fill="none" stroke="#000000" stroke-width="2" /><path d="M21.5,66.5 c7.671,-7.288 13.295,-15.172 18,-25.5" fill="none" stroke="#000000" stroke-width="2" /></svg>