<?xml version='1.0' encoding='utf-8'?>
<svg xmlns="http://www.w3.org/2000/svg" height="100px" version="1.0" viewBox="0 0 100 100" width="100px" x="0px" y="0px">
<line fill="none" stroke="#000000" stroke-width="2" x1="11.5" x2="45.5" y1="47" y2="47" /><line fill="none" stroke="#000000" stroke-width="2" x1="6.5" x2="48.5" y1="77" y2="77" /><line fill="none" stroke="#000000" stroke-width="2" x1="28" x2="28" y1="30" y2="5" /><line fill="none" stroke="#000000" stroke-width="2" x1="28" x2="28" y1="95" y2="65" /><line fill="none" stroke="#000000" stroke-width="2" x1="6.5" x2="49.5" y1="18" y2="18" /><line fill="none" stroke="#000000" stroke-width="2" x1="51" x2="94.5" y1="34" y2="29.5" /><polyline fill="none" points="11.5,64 46.5,64 46.5,31 10.5,31 10.5,65" stroke="#000000" stroke-width="2" /><path d="M90.5,40 c-9.76,24.984 -23.751,39.421 -48,51" fill="none" stroke="#000000" stroke-width="2" /><path d="M65.5,5.5 c0,60.516 18.474,85.5 22.5,85.5 c2.801,0 5.736,-4.921 7.5,-23" fill="none" stroke="#000000" stroke-width="2" /><path d="M76,9 c5.17,4.796 10.083,10.097 14,15" fill="none" stroke="#000000" stroke-width="2" /></svg>