<?xml version='1.0' encoding='utf-8'?>
<svg xmlns="http://www.w3.org/2000/svg" height="100px" version="1.0" viewBox="0 0 100 100" width="100px" x="0px" y="0px">
<line fill="none" stroke="#000000" stroke-width="2" x1="31.5" x2="31.5" y1="29.5" y2="5.5" /><line fill="none" stroke="#000000" stroke-width="2" x1="6" x2="94" y1="29.5" y2="29.5" /><line fill="none" stroke="#000000" stroke-width="2" x1="54" x2="9" y1="16.5" y2="16.5" /><line fill="none" stroke="#000000" stroke-width="2" x1="14" x2="14" y1="45.5" y2="93" /><line fill="none" stroke="#000000" stroke-width="2" x1="60" x2="14.5" y1="45" y2="45" /><line fill="none" stroke="#000000" stroke-width="2" x1="38.5" x2="38.5" y1="87" y2="45" /><line fill="none" stroke="#000000" stroke-width="2" x1="15" x2="59" y1="87" y2="87" /><line fill="none" stroke="#000000" stroke-width="2" x1="14" x2="58" y1="72.5" y2="72.5" /><line fill="none" stroke="#000000" stroke-width="2" x1="14" x2="58" y1="58.5" y2="58.5" /><path d="M88,37 c-5.074,25.864 -15.19,43.583 -29,54.5" fill="none" stroke="#000000" stroke-width="2" /><path d="M64,5 c0,59.849 18.559,86.5 23,86.5 c2.407,0 5.804,-2.614 8,-23" fill="none" stroke="#000000" stroke-width="2" /><path d="M75,8 c4.715,4.44 9.57,9.838 14,15.5" fill="none" stroke="#000000" stroke-width="2" /><path d="M44,33.5 c-1.629,4.241 -3.602,7.979 -6,11.5" fill="none" stroke="#000000" stroke-width="2" /><path d="M4,58.5 c6.818,-7.146 11.817,-14.874 16,-25" fill="none" stroke="#000000" stroke-width="2" /></svg>