<?xml version='1.0' encoding='utf-8'?>
<svg xmlns="http://www.w3.org/2000/svg" height="100px" version="1.0" viewBox="0 0 100 100" width="100px" x="0px" y="0px">
<line fill="none" stroke="#000000" stroke-width="2" x1="55" x2="94.5" y1="34" y2="29.5" /><polyline fill="none" points="5.5,10 28,10 28,42" stroke="#000000" stroke-width="2" /><polyline fill="none" points="32.5,10 55,10 55,45" stroke="#000000" stroke-width="2" /><path d="M90.5,40 c-8.234,24.984 -20.039,39.421 -40.5,51" fill="none" stroke="#000000" stroke-width="2" /><path d="M69.5,5.5 c0,59.849 16.012,85.5 19.5,85.5 c2.427,0 4.971,-4.921 6.5,-23" fill="none" stroke="#000000" stroke-width="2" /><path d="M80,9 c4.063,4.796 7.923,10.097 11,15" fill="none" stroke="#000000" stroke-width="2" /><path d="M59,59.5 c-10.268,-6.282 -18.859,-13.058 -27,-21.2 c-8.141,8.143 -16.734,14.918 -27,21.2" fill="none" stroke="#000000" stroke-width="2" /><path d="M11,61.5 c12.025,-1.752 22.896,-5.685 30,-10.5" fill="none" stroke="#000000" stroke-width="2" /><path d="M11,76.5 c16.225,-2.047 28.923,-6.821 37.5,-13.25" fill="none" stroke="#000000" stroke-width="2" /><path d="M11,91.5 c20.423,-2.342 34.949,-7.958 45,-16" fill="none" stroke="#000000" stroke-width="2" /><path d="M6,42 c9.051,-5.75 16.672,-12.766 22,-20" fill="none" stroke="#000000" stroke-width="2" /><path d="M6,26 c7.371,-4.578 13.639,-10.095 18.5,-16" fill="none" stroke="#000000" stroke-width="2" /><path d="M37.5,39 c7.15,-5.16 13.04,-10.943 17.5,-17" fill="none" stroke="#000000" stroke-width="2" /><path d="M33,26 c7.371,-4.578 13.639,-10.095 18.5,-16" fill="none" stroke="#000000" stroke-width="2" /></svg>