<?xml version='1.0' encoding='utf-8'?>
<svg xmlns="http://www.w3.org/2000/svg" height="100px" version="1.0" viewBox="0 0 100 100" width="100px" x="0px" y="0px">
<line fill="none" stroke="#000000" stroke-width="2" x1="31.5" x2="5" y1="26" y2="26" /><path d="M20,6 v77.0 c0,7.683 -0.373,8 -5,8 c-2.246,0 -4.663,-0.119 -9,-0.5" fill="none" stroke="#000000" stroke-width="2" /><path d="M35,51 c-10.297,4.969 -19.956,8.512 -30,11" fill="none" stroke="#000000" stroke-width="2" /><path d="M28,91 c21.461,-15.548 29,-31.894 29,-79" fill="none" stroke="#000000" stroke-width="2" /><path d="M30.5,12 h59.5 c0,71.537 -2.684,77 -10,77 c-3.222,0 -9.236,-0.354 -16,-1" fill="none" stroke="#000000" stroke-width="2" /><path d="M98,74 c-27.902,-6.875 -49.563,-23.759 -62,-49" fill="none" stroke="#000000" stroke-width="2" /></svg>