<?xml version='1.0' encoding='utf-8'?>
<svg xmlns="http://www.w3.org/2000/svg" height="100px" version="1.0" viewBox="0 0 100 100" width="100px" x="0px" y="0px">
<line fill="none" stroke="#000000" stroke-width="2" x1="50" x2="28.5" y1="42" y2="42" /><line fill="none" stroke="#000000" stroke-width="2" x1="49.5" x2="28.5" y1="12" y2="12" /><line fill="none" stroke="#000000" stroke-width="2" x1="54" x2="96" y1="42" y2="42" /><line fill="none" stroke="#000000" stroke-width="2" x1="55.5" x2="94.5" y1="74.5" y2="74.5" /><line fill="none" stroke="#000000" stroke-width="2" x1="75" x2="75" y1="74.5" y2="13.5" /><line fill="none" stroke="#000000" stroke-width="2" x1="27.5" x2="3.5" y1="26" y2="26" /><path d="M26.5,92 c11.818,-12.493 19.793,-29.507 22.51,-49.137" fill="none" stroke="#000000" stroke-width="2" /><path d="M29.259,41.651 c8.06,-9.375 14.273,-18.75 19.343,-29.093" fill="none" stroke="#000000" stroke-width="2" /><path d="M96,90 h-12.5 c-33.801,0 -45.92,-7.303 -54.5,-34" fill="none" stroke="#000000" stroke-width="2" /><path d="M53,16.5 c16.07,-1.208 30.328,-3.942 41,-7.5" fill="none" stroke="#000000" stroke-width="2" /><path d="M16.5,6 v78.0 c0,7.575 -0.404,8 -4.5,8 c-1.832,0 -4.133,-0.132 -8,-0.5" fill="none" stroke="#000000" stroke-width="2" /><path d="M27.5,50 c-8.305,5.009 -16.037,8.534 -24,11" fill="none" stroke="#000000" stroke-width="2" /></svg>