<?xml version='1.0' encoding='utf-8'?>
<svg xmlns="http://www.w3.org/2000/svg" height="100px" version="1.0" viewBox="0 0 100 100" width="100px" x="0px" y="0px">
<line fill="none" stroke="#000000" stroke-width="2" x1="29" x2="4" y1="26" y2="26" /><line fill="none" stroke="#000000" stroke-width="2" x1="46" x2="75.5" y1="12" y2="12" /><line fill="none" stroke="#000000" stroke-width="2" x1="63.5" x2="63.5" y1="29" y2="52.5" /><polyline fill="none" points="35.5,61.5 35.5,28 91.5,28 91.5,53.5 36.5,53.5" stroke="#000000" stroke-width="2" /><path d="M18,6 v78.0 c0,7.575 -0.404,8 -4.5,8 c-1.832,0 -4.633,-0.139 -8.5,-0.5" fill="none" stroke="#000000" stroke-width="2" /><path d="M29,51.5 c-8.65,5.009 -16.705,8.534 -25,11" fill="none" stroke="#000000" stroke-width="2" /><path d="M63.98,28 c3.684,-4.53 7.756,-10.46 10.649,-15.498" fill="none" stroke="#000000" stroke-width="2" /><path d="M27.5,34.5 c10.193,-8.591 17.773,-19.06 22.5,-31" fill="none" stroke="#000000" stroke-width="2" /><path d="M69,54.5 v32.0 c0,4.583 0.555,5 12.5,5 c11.753,0 11.966,-0.183 13,-22.5" fill="none" stroke="#000000" stroke-width="2" /><path d="M25.5,93 c19.025,-7.339 30,-21.492 30,-39.5" fill="none" stroke="#000000" stroke-width="2" /></svg>