<?xml version='1.0' encoding='utf-8'?>
<svg xmlns="http://www.w3.org/2000/svg" height="100px" version="1.0" viewBox="0 0 100 100" width="100px" x="0px" y="0px">
<line fill="none" stroke="#000000" stroke-width="2" x1="28.5" x2="4" y1="25" y2="25" /><line fill="none" stroke="#000000" stroke-width="2" x1="27" x2="96" y1="43.5" y2="43.5" /><line fill="none" stroke="#000000" stroke-width="2" x1="93.5" x2="31.5" y1="26" y2="26" /><polyline fill="none" points="78.5,77 78.5,54.5 44,54.5" stroke="#000000" stroke-width="2" /><path d="M18,6 v78.0 c0,7.575 -0.404,8 -4.5,8 c-1.832,0 -4.633,-0.139 -8.5,-0.5" fill="none" stroke="#000000" stroke-width="2" /><path d="M30,52 c-8.997,5.009 -17.374,8.534 -26,11" fill="none" stroke="#000000" stroke-width="2" /><path d="M26.5,66 c17.906,-10.963 32.795,-36.526 35,-62" fill="none" stroke="#000000" stroke-width="2" /><path d="M96.5,66 c-11.997,-7.808 -23.4,-22.948 -29.5,-40" fill="none" stroke="#000000" stroke-width="2" /><path d="M45.5,26 c-3.068,-6.224 -6.346,-12.282 -9.5,-17.5" fill="none" stroke="#000000" stroke-width="2" /><path d="M77.5,26 c3.566,-5.8 6.969,-12.054 9.5,-17.5" fill="none" stroke="#000000" stroke-width="2" /><path d="M78.5,70 H39.0 v13.5 c0,8.401 0.115,8.5 24,8.5 c24.186,0 24.388,-0.167 26,-17.5" fill="none" stroke="#000000" stroke-width="2" /></svg>