<?xml version='1.0' encoding='utf-8'?>
<svg xmlns="http://www.w3.org/2000/svg" height="100px" version="1.0" viewBox="0 0 100 100" width="100px" x="0px" y="0px">
<line fill="none" stroke="#000000" stroke-width="2" x1="29.5" x2="3.5" y1="25.5" y2="25.5" /><line fill="none" stroke="#000000" stroke-width="2" x1="57.5" x2="93" y1="29" y2="29" /><line fill="none" stroke="#000000" stroke-width="2" x1="36.5" x2="36.5" y1="94" y2="38" /><line fill="none" stroke="#000000" stroke-width="2" x1="62.5" x2="62.5" y1="14.5" y2="3.5" /><line fill="none" stroke="#000000" stroke-width="2" x1="26.5" x2="96" y1="14.5" y2="14.5" /><path d="M17,6 v78.0 c0,7.575 -0.404,8 -4.5,8 c-1.832,0 -4.633,-0.139 -8.5,-0.5" fill="none" stroke="#000000" stroke-width="2" /><path d="M27,48 c-8.145,5.438 -15.735,9.288 -23.5,12" fill="none" stroke="#000000" stroke-width="2" /><path d="M40.5,59 c9.357,-11.518 16.52,-25.549 21,-41.5" fill="none" stroke="#000000" stroke-width="2" /><path d="M92.023,29.783 c-6.648,29.904 -23.545,50.118 -51.023,62.217" fill="none" stroke="#000000" stroke-width="2" /><path d="M44,17.5 c-3.652,14.199 -10.742,28.793 -20,41" fill="none" stroke="#000000" stroke-width="2" /><path d="M82,56 c-5.299,-5.608 -11.211,-11.364 -17,-16.5" fill="none" stroke="#000000" stroke-width="2" /><path d="M51,43 c9.018,22.088 23.343,37.698 45,49" fill="none" stroke="#000000" stroke-width="2" /></svg>