<?xml version='1.0' encoding='utf-8'?>
<svg xmlns="http://www.w3.org/2000/svg" height="100px" version="1.0" viewBox="0 0 100 100" width="100px" x="0px" y="0px">
<line fill="none" stroke="#000000" stroke-width="2" x1="31.5" x2="4" y1="26" y2="26" /><line fill="none" stroke="#000000" stroke-width="2" x1="30" x2="96.5" y1="40" y2="40" /><line fill="none" stroke="#000000" stroke-width="2" x1="84.5" x2="39.5" y1="27" y2="27" /><path d="M18.5,6 v77.0 c0,7.683 -0.373,8 -5,8 c-2.246,0 -4.663,-0.119 -9,-0.5" fill="none" stroke="#000000" stroke-width="2" /><path d="M31.5,49 c-9.605,5.057 -18.479,8.562 -27.5,11" fill="none" stroke="#000000" stroke-width="2" /><path d="M31.5,57 c15.59,-4.72 25.901,-10.345 33,-17" fill="none" stroke="#000000" stroke-width="2" /><path d="M52,90.5 c5.033,0.347 9.302,0.5 12,0.5 c4.712,0 6,-1.768 6,-14 c0,-12.576 -5.307,-24.511 -13.5,-31" fill="none" stroke="#000000" stroke-width="2" /><path d="M31,73 c15.689,-4.903 26.412,-10.847 33.5,-17.5" fill="none" stroke="#000000" stroke-width="2" /><path d="M30,89 c18.495,-5.951 30.683,-12.951 39,-21" fill="none" stroke="#000000" stroke-width="2" /><path d="M93,48 c-5.48,6.229 -11.39,11.158 -18,15" fill="none" stroke="#000000" stroke-width="2" /><path d="M66.5,40 c3.755,18.39 15.744,37.435 30,48.5" fill="none" stroke="#000000" stroke-width="2" /><path d="M81,40 c3.098,-11.168 4.516,-17.425 6.5,-28 h-44.0" fill="none" stroke="#000000" stroke-width="2" /><path d="M37.5,33.5 c3.748,-11.994 5.542,-18.665 8,-30" fill="none" stroke="#000000" stroke-width="2" /></svg>