<?xml version='1.0' encoding='utf-8'?>
<svg xmlns="http://www.w3.org/2000/svg" height="100px" version="1.0" viewBox="0 0 100 100" width="100px" x="0px" y="0px">
<line fill="none" stroke="#000000" stroke-width="2" x1="30.5" x2="4.5" y1="26" y2="26" /><line fill="none" stroke="#000000" stroke-width="2" x1="34.5" x2="90.5" y1="57" y2="57" /><line fill="none" stroke="#000000" stroke-width="2" x1="62.5" x2="62.5" y1="94" y2="5" /><line fill="none" stroke="#000000" stroke-width="2" x1="29" x2="96" y1="15.5" y2="15.5" /><polyline fill="none" points="91.5,58 91.5,29 33.5,29 33.5,58" stroke="#000000" stroke-width="2" /><path d="M18.5,6 v78.0 c0,7.575 -0.404,8 -4.5,8 c-1.832,0 -4.633,-0.139 -8.5,-0.5" fill="none" stroke="#000000" stroke-width="2" /><path d="M30.5,52 c-8.997,5.009 -17.374,8.534 -26,11" fill="none" stroke="#000000" stroke-width="2" /><path d="M28.5,89.5 c15.908,-10.279 26.305,-20.663 33,-32" fill="none" stroke="#000000" stroke-width="2" /><path d="M71.5,53 c4.253,-5.592 7.718,-12.452 10,-20" fill="none" stroke="#000000" stroke-width="2" /><path d="M53,53 c-2.819,-6.751 -6.159,-13.442 -10,-20" fill="none" stroke="#000000" stroke-width="2" /><path d="M96.5,89.5 c-15.908,-10.279 -26.305,-20.663 -33,-32" fill="none" stroke="#000000" stroke-width="2" /></svg>