<?xml version='1.0' encoding='utf-8'?>
<svg xmlns="http://www.w3.org/2000/svg" height="100px" version="1.0" viewBox="0 0 100 100" width="100px" x="0px" y="0px">
<line fill="none" stroke="#000000" stroke-width="2" x1="29" x2="4" y1="25" y2="25" /><line fill="none" stroke="#000000" stroke-width="2" x1="61.5" x2="33.5" y1="10" y2="10" /><line fill="none" stroke="#000000" stroke-width="2" x1="38.5" x2="82.5" y1="45" y2="45" /><line fill="none" stroke="#000000" stroke-width="2" x1="27" x2="94" y1="64.5" y2="64.5" /><path d="M18,6 v78.0 c0,7.575 -0.404,8 -4.5,8 c-1.832,0 -4.633,-0.139 -8.5,-0.5" fill="none" stroke="#000000" stroke-width="2" /><path d="M28,55 c-8.305,5.009 -16.239,8.958 -24,12" fill="none" stroke="#000000" stroke-width="2" /><path d="M96.5,50.5 c-16.256,-9.646 -30.152,-25.378 -35.939,-41.155" fill="none" stroke="#000000" stroke-width="2" /><path d="M24.5,50.5 c16.256,-9.646 30.152,-25.378 35.939,-41.155" fill="none" stroke="#000000" stroke-width="2" /><path d="M84,11.5 c-4.191,5.085 -9.545,10.44 -14.5,14.5" fill="none" stroke="#000000" stroke-width="2" /><path d="M95,22.5 c-4.535,5.306 -10.186,10.775 -15.5,15" fill="none" stroke="#000000" stroke-width="2" /><path d="M47,31.5 c-4.803,-4.549 -10.027,-9.089 -15.251,-13.222" fill="none" stroke="#000000" stroke-width="2" /><path d="M28.5,92.5 c18.888,-5.985 32,-23.545 32,-46.5" fill="none" stroke="#000000" stroke-width="2" /><path d="M92.5,94 c-11.925,-10.686 -24.52,-19.313 -37,-25.5" fill="none" stroke="#000000" stroke-width="2" /></svg>