<?xml version='1.0' encoding='utf-8'?>
<svg xmlns="http://www.w3.org/2000/svg" height="100px" version="1.0" viewBox="0 0 100 100" width="100px" x="0px" y="0px">
<line fill="none" stroke="#000000" stroke-width="2" x1="31" x2="4" y1="26" y2="26" /><line fill="none" stroke="#000000" stroke-width="2" x1="39" x2="39" y1="35.5" y2="81.5" /><line fill="none" stroke="#000000" stroke-width="2" x1="96" x2="30" y1="35.5" y2="35.5" /><line fill="none" stroke="#000000" stroke-width="2" x1="86" x2="86" y1="94" y2="35.5" /><line fill="none" stroke="#000000" stroke-width="2" x1="40" x2="86" y1="65" y2="65" /><line fill="none" stroke="#000000" stroke-width="2" x1="40" x2="86" y1="50" y2="50" /><polyline fill="none" points="36,25 90,25 90,10 35,10 35,26" stroke="#000000" stroke-width="2" /><path d="M18,6 v78.0 c0,7.575 -0.404,8 -4.5,8 c-1.832,0 -4.633,-0.139 -8.5,-0.5" fill="none" stroke="#000000" stroke-width="2" /><path d="M31,51 c-9.343,5.009 -18.042,8.534 -27,11" fill="none" stroke="#000000" stroke-width="2" /><path d="M30.5,82 c20.904,-1.366 44.08,-3.438 66,-6" fill="none" stroke="#000000" stroke-width="2" /></svg>