<?xml version='1.0' encoding='utf-8'?>
<svg xmlns="http://www.w3.org/2000/svg" height="100px" version="1.0" viewBox="0 0 100 100" width="100px" x="0px" y="0px">
<line fill="none" stroke="#000000" stroke-width="2" x1="63.5" x2="63.5" y1="56" y2="5.5" /><line fill="none" stroke="#000000" stroke-width="2" x1="30" x2="4" y1="26.5" y2="26.5" /><line fill="none" stroke="#000000" stroke-width="2" x1="32.5" x2="91" y1="56" y2="56" /><line fill="none" stroke="#000000" stroke-width="2" x1="69.5" x2="91" y1="27.5" y2="27.5" /><line fill="none" stroke="#000000" stroke-width="2" x1="36" x2="57.5" y1="27.5" y2="27.5" /><path d="M18,6 v78.0 c0,7.575 -0.404,8 -4.5,8 c-1.832,0 -4.633,-0.139 -8.5,-0.5" fill="none" stroke="#000000" stroke-width="2" /><path d="M31,50 c-9.343,5.009 -18.042,8.534 -27,11" fill="none" stroke="#000000" stroke-width="2" /><path d="M29.5,91 c29.35,-5.799 50.921,-18.992 60.652,-34.531" fill="none" stroke="#000000" stroke-width="2" /><path d="M95.5,91 c-28.02,-5.894 -45.378,-16.016 -55.5,-30.5" fill="none" stroke="#000000" stroke-width="2" /><path d="M69,12 h22.0 v31.5 h-55.0 v-29.0 c8.01,-1.446 15.228,-3.841 21.5,-7" fill="none" stroke="#000000" stroke-width="2" /></svg>