<?xml version='1.0' encoding='utf-8'?>
<svg xmlns="http://www.w3.org/2000/svg" height="100px" version="1.0" viewBox="0 0 100 100" width="100px" x="0px" y="0px">
<line fill="none" stroke="#000000" stroke-width="2" x1="27" x2="3.5" y1="26" y2="26" /><polyline fill="none" points="94,58 94,43 29.5,43 29.5,58" stroke="#000000" stroke-width="2" /><path d="M17,6 v78.0 c0,7.575 -0.404,8 -4.5,8 c-1.832,0 -4.135,-0.126 -8,-0.5" fill="none" stroke="#000000" stroke-width="2" /><path d="M26,53 c-7.786,5.009 -15.035,8.534 -22.5,11" fill="none" stroke="#000000" stroke-width="2" /><path d="M33,59.5 h56.5 c-0.796,27.472 -3.172,31 -10.5,31 c-4.002,0 -9.811,-0.321 -17,-1" fill="none" stroke="#000000" stroke-width="2" /><path d="M30,92 c20.117,-9.353 31.5,-25.94 31.5,-45.5" fill="none" stroke="#000000" stroke-width="2" /><path d="M28.5,38 c10.313,-4.519 16.5,-14.679 16.5,-29 v-3.0" fill="none" stroke="#000000" stroke-width="2" /><path d="M60.5,38 c-6.877,-4.036 -12.879,-10.819 -16.5,-19" fill="none" stroke="#000000" stroke-width="2" /><path d="M35.5,10 c-0.797,5.876 -2.476,11.147 -5,16" fill="none" stroke="#000000" stroke-width="2" /><path d="M59,9.5 c-1.385,6.016 -3.516,11.261 -6.5,16" fill="none" stroke="#000000" stroke-width="2" /><path d="M63,38 c10.313,-4.519 16.5,-14.679 16.5,-29 v-3.0" fill="none" stroke="#000000" stroke-width="2" /><path d="M95,38 c-6.877,-4.036 -12.879,-10.819 -16.5,-19" fill="none" stroke="#000000" stroke-width="2" /><path d="M69.5,10 c-0.797,5.876 -2.476,11.147 -5,16" fill="none" stroke="#000000" stroke-width="2" /><path d="M93.5,9.5 c-1.385,6.016 -3.516,11.261 -6.5,16" fill="none" stroke="#000000" stroke-width="2" /></svg>