<?xml version='1.0' encoding='utf-8'?>
<svg xmlns="http://www.w3.org/2000/svg" height="100px" version="1.0" viewBox="0 0 100 100" width="100px" x="0px" y="0px">
<line fill="none" stroke="#000000" stroke-width="2" x1="26" x2="4" y1="26" y2="26" /><line fill="none" stroke="#000000" stroke-width="2" x1="61" x2="33" y1="9" y2="9" /><line fill="none" stroke="#000000" stroke-width="2" x1="55.5" x2="91" y1="61.5" y2="61.5" /><path d="M16,6 v78.0 c0,7.672 -0.32,8 -3.5,8 c-1.691,0 -4.43,-0.151 -8,-0.5" fill="none" stroke="#000000" stroke-width="2" /><path d="M24.5,51 c-7.417,5.009 -13.474,8.271 -20.5,11" fill="none" stroke="#000000" stroke-width="2" /><path d="M24,36 c16.313,-6.221 29.948,-17.046 35.87,-27.508" fill="none" stroke="#000000" stroke-width="2" /><path d="M96,36 c-16.313,-6.221 -29.948,-17.046 -35.87,-27.508" fill="none" stroke="#000000" stroke-width="2" /><path d="M83.5,10 c-4.191,3.331 -9.545,6.841 -14.5,9.5" fill="none" stroke="#000000" stroke-width="2" /><path d="M94.5,17.5 c-4.535,3.538 -10.186,7.185 -15.5,10" fill="none" stroke="#000000" stroke-width="2" /><path d="M46,23.5 c-4.724,-3.098 -9.862,-6.188 -15,-9" fill="none" stroke="#000000" stroke-width="2" /><path d="M55,57 c6.63,-4.112 9,-8.536 9,-19 v-4.5 h18.5 v19.0 c0,2.173 0.41,2.5 3.5,2.5 c7.376,0 7.585,-0.183 8.5,-10" fill="none" stroke="#000000" stroke-width="2" /><path d="M54.5,92 c18.371,-6.225 28.468,-14.904 35.597,-29.929" fill="none" stroke="#000000" stroke-width="2" /><path d="M94,92 c-14.635,-6.86 -25.943,-16.282 -33,-27" fill="none" stroke="#000000" stroke-width="2" /><path d="M33,33.5 h20.0 v17.0 h-23.0 c-0.708,8.531 -1.789,17.286 -3,24.5" fill="none" stroke="#000000" stroke-width="2" /><path d="M28,67 h25.0 c-2.053,23.244 -3.184,25 -8,25 c-2.724,0 -9.106,-0.417 -14,-1" fill="none" stroke="#000000" stroke-width="2" /></svg>