<?xml version='1.0' encoding='utf-8'?>
<svg xmlns="http://www.w3.org/2000/svg" height="100px" version="1.0" viewBox="0 0 100 100" width="100px" x="0px" y="0px">
<line fill="none" stroke="#000000" stroke-width="2" x1="27.5" x2="4" y1="24" y2="24" /><line fill="none" stroke="#000000" stroke-width="2" x1="44" x2="84" y1="21.5" y2="21.5" /><line fill="none" stroke="#000000" stroke-width="2" x1="64" x2="64" y1="21.5" y2="11.5" /><polyline fill="none" points="91,27.5 91,51.5 37,51.5 37,27.5" stroke="#000000" stroke-width="2" /><path d="M18,6 v78.0 c0,7.575 -0.404,8 -4.5,8 c-1.832,0 -4.633,-0.139 -8.5,-0.5" fill="none" stroke="#000000" stroke-width="2" /><path d="M30,53 c-8.998,5.009 -17.373,8.534 -26,11" fill="none" stroke="#000000" stroke-width="2" /><path d="M98,26.5 c-12.945,-6.583 -23.748,-13.688 -34,-22.3 c-10.251,8.611 -21.055,15.717 -34,22.3" fill="none" stroke="#000000" stroke-width="2" /><path d="M51.5,78.5 c4.408,-8.428 8.601,-17.892 12,-27" fill="none" stroke="#000000" stroke-width="2" /><path d="M44.5,47 c15.256,-5.203 28.83,-14.115 36,-22.5" fill="none" stroke="#000000" stroke-width="2" /><path d="M46,27.5 c11.508,4.272 22.178,9.683 37,19" fill="none" stroke="#000000" stroke-width="2" /><path d="M78,91 c5.515,0.363 9.026,0.5 10.5,0.5 c4.891,0 5.5,-0.673 5.5,-8 V60.0 h-60.0 v33.0" fill="none" stroke="#000000" stroke-width="2" /><path d="M88.5,82.5 c-3.117,-5.454 -7.382,-12.45 -11,-18" fill="none" stroke="#000000" stroke-width="2" /><path d="M40.5,79.5 c13.383,-0.692 28.491,-2.809 42.5,-6" fill="none" stroke="#000000" stroke-width="2" /></svg>