<?xml version='1.0' encoding='utf-8'?>
<svg xmlns="http://www.w3.org/2000/svg" height="100px" version="1.0" viewBox="0 0 100 100" width="100px" x="0px" y="0px">
<line fill="none" stroke="#000000" stroke-width="2" x1="25" x2="3" y1="26" y2="26" /><line fill="none" stroke="#000000" stroke-width="2" x1="28" x2="93" y1="10.5" y2="10.5" /><line fill="none" stroke="#000000" stroke-width="2" x1="33" x2="88" y1="21.5" y2="21.5" /><line fill="none" stroke="#000000" stroke-width="2" x1="60.5" x2="60.5" y1="21.5" y2="3" /><line fill="none" stroke="#000000" stroke-width="2" x1="33" x2="84" y1="39" y2="39" /><line fill="none" stroke="#000000" stroke-width="2" x1="28" x2="93" y1="50" y2="50" /><line fill="none" stroke="#000000" stroke-width="2" x1="60.5" x2="60.5" y1="50" y2="39" /><line fill="none" stroke="#000000" stroke-width="2" x1="95" x2="57.5" y1="69" y2="69" /><line fill="none" stroke="#000000" stroke-width="2" x1="95.5" x2="25.5" y1="59" y2="59" /><line fill="none" stroke="#000000" stroke-width="2" x1="53.5" x2="31" y1="87" y2="87" /><line fill="none" stroke="#000000" stroke-width="2" x1="25.5" x2="95.5" y1="30.5" y2="30.5" /><polyline fill="none" points="30,92.5 30,68 53.5,68 53.5,91" stroke="#000000" stroke-width="2" /><path d="M15,6 v78.0 c0,7.672 -0.32,8 -3.5,8 c-1.691,0 -4.43,-0.151 -8,-0.5" fill="none" stroke="#000000" stroke-width="2" /><path d="M25,49 c-7.959,5.009 -14.46,8.271 -22,11" fill="none" stroke="#000000" stroke-width="2" /><path d="M73.5,88 c-3.134,-4.554 -7.498,-9.708 -12,-14" fill="none" stroke="#000000" stroke-width="2" /><path d="M87,59 v25.5 c0,6.398 -0.428,7 -4,7 c-1.225,0 -4.16,-0.157 -8,-0.5" fill="none" stroke="#000000" stroke-width="2" /><path d="M88,41 c2.852,-3.354 4.895,-6.422 6.601,-9.937" fill="none" stroke="#000000" stroke-width="2" /></svg>