<?xml version='1.0' encoding='utf-8'?>
<svg xmlns="http://www.w3.org/2000/svg" height="100px" version="1.0" viewBox="0 0 100 100" width="100px" x="0px" y="0px">
<line fill="none" stroke="#000000" stroke-width="2" x1="12.5" x2="14" y1="11.5" y2="46" /><line fill="none" stroke="#000000" stroke-width="2" x1="13.5" x2="33" y1="34" y2="34" /><line fill="none" stroke="#000000" stroke-width="2" x1="13" x2="33" y1="22" y2="22" /><line fill="none" stroke="#000000" stroke-width="2" x1="40.5" x2="62" y1="12" y2="12" /><line fill="none" stroke="#000000" stroke-width="2" x1="67" x2="86.5" y1="34" y2="34" /><line fill="none" stroke="#000000" stroke-width="2" x1="67" x2="87" y1="22" y2="22" /><line fill="none" stroke="#000000" stroke-width="2" x1="41.5" x2="41" y1="29" y2="46" /><line fill="none" stroke="#000000" stroke-width="2" x1="93.5" x2="6.5" y1="46" y2="46" /><line fill="none" stroke="#000000" stroke-width="2" x1="93.5" x2="6.5" y1="80" y2="80" /><line fill="none" stroke="#000000" stroke-width="2" x1="84.5" x2="15.5" y1="67.5" y2="67.5" /><polyline fill="none" points="66,10 87.5,10 86,46" stroke="#000000" stroke-width="2" /><polyline fill="none" points="40.5,7.5 40,24 60.5,24 59.5,46" stroke="#000000" stroke-width="2" /><path d="M11.608,12.537 c7.677,-0.828 14.438,-1.921 22.392,-3.537" fill="none" stroke="#000000" stroke-width="2" /><path d="M51,55.5 v32.0 c0,5.177 -0.977,6 -7.5,6 c-3.409,0 -9.286,-0.18 -15.5,-0.5" fill="none" stroke="#000000" stroke-width="2" /><path d="M26.5,57 c18.316,-0.48 32.967,-1.92 44,-4" fill="none" stroke="#000000" stroke-width="2" /><path d="M6,66.5 c9.605,-4.373 19.051,-11.648 26.5,-20.5" fill="none" stroke="#000000" stroke-width="2" /><path d="M94,66.5 c-9.605,-4.373 -19.051,-11.648 -26.5,-20.5" fill="none" stroke="#000000" stroke-width="2" /></svg>