<?xml version='1.0' encoding='utf-8'?>
<svg xmlns="http://www.w3.org/2000/svg" height="100px" version="1.0" viewBox="0 0 100 100" width="100px" x="0px" y="0px">
<line fill="none" stroke="#000000" stroke-width="2" x1="42.5" x2="19.5" y1="22.5" y2="22.5" /><line fill="none" stroke="#000000" stroke-width="2" x1="67" x2="97" y1="21" y2="21" /><polyline fill="none" points="9.5,58 27,58 27,33 8.5,33 8.5,59" stroke="#000000" stroke-width="2" /><polyline fill="none" points="34.5,58 52,58 52,33 33.5,33 33.5,59" stroke="#000000" stroke-width="2" /><path d="M57,30.5 c-9.908,-7.24 -18.148,-15.026 -26,-24.5 c-8.014,9.667 -16.389,17.612 -26.5,25" fill="none" stroke="#000000" stroke-width="2" /><path d="M56.5,91 c22.101,-15.312 31.628,-32.429 35,-70" fill="none" stroke="#000000" stroke-width="2" /><path d="M96,91 c-17.208,-14.23 -25.079,-30.512 -28,-63" fill="none" stroke="#000000" stroke-width="2" /><path d="M56.5,49 c6.023,-11.971 11.155,-28.03 14,-44" fill="none" stroke="#000000" stroke-width="2" /><path d="M4.5,90.5 c7.511,-7.444 12.555,-17.542 14.5,-29" fill="none" stroke="#000000" stroke-width="2" /><path d="M28,87.5 c-3.389,-7.096 -7.088,-12.897 -11,-17.5" fill="none" stroke="#000000" stroke-width="2" /><path d="M31,90.5 c5.582,-8.007 9.369,-17.962 11,-29" fill="none" stroke="#000000" stroke-width="2" /><path d="M54.5,87.5 c-4.144,-7.193 -8.924,-13.302 -14,-18" fill="none" stroke="#000000" stroke-width="2" /></svg>