<?xml version='1.0' encoding='utf-8'?>
<svg xmlns="http://www.w3.org/2000/svg" height="100px" version="1.0" viewBox="0 0 100 100" width="100px" x="0px" y="0px">
<line fill="none" stroke="#000000" stroke-width="2" x1="8.5" x2="43" y1="13.5" y2="13.5" /><line fill="none" stroke="#000000" stroke-width="2" x1="57.5" x2="91.5" y1="13.5" y2="13.5" /><line fill="none" stroke="#000000" stroke-width="2" x1="57.5" x2="93" y1="42.5" y2="42.5" /><line fill="none" stroke="#000000" stroke-width="2" x1="10.5" x2="43" y1="28" y2="28" /><line fill="none" stroke="#000000" stroke-width="2" x1="57.5" x2="89.5" y1="28" y2="28" /><line fill="none" stroke="#000000" stroke-width="2" x1="57.5" x2="57.5" y1="51" y2="5.5" /><line fill="none" stroke="#000000" stroke-width="2" x1="50" x2="50" y1="59" y2="47" /><line fill="none" stroke="#000000" stroke-width="2" x1="90.5" x2="9.5" y1="59" y2="59" /><path d="M7,45 c11.682,-1.464 22.809,-3.405 34.5,-6" fill="none" stroke="#000000" stroke-width="2" /><path d="M28,51.5 c11.922,-6.506 15,-11.556 15,-23.5 v-22.5" fill="none" stroke="#000000" stroke-width="2" /><path d="M78,59 c-12.438,14.337 -33.559,24.998 -70,32" fill="none" stroke="#000000" stroke-width="2" /><path d="M22,62 c18.533,14.61 40.172,23.806 70,29" fill="none" stroke="#000000" stroke-width="2" /></svg>