<?xml version='1.0' encoding='utf-8'?>
<svg xmlns="http://www.w3.org/2000/svg" height="100px" version="1.0" viewBox="0 0 100 100" width="100px" x="0px" y="0px">
<line fill="none" stroke="#000000" stroke-width="2" x1="18.5" x2="82.5" y1="23.5" y2="23.5" /><line fill="none" stroke="#000000" stroke-width="2" x1="12.5" x2="12.5" y1="50" y2="79.5" /><polyline fill="none" points="18.5,38 82.5,38 82.5,10 17.5,10 17.5,39" stroke="#000000" stroke-width="2" /><path d="M11.643,50.993 c12.125,-1.754 22.812,-4.014 35.357,-7.493" fill="none" stroke="#000000" stroke-width="2" /><path d="M57.5,93.5 v-46.0 h32.0 v27.5 c0,7.578 -0.471,8 -7,8 c-1.828,0 -9.691,-0.225 -16,-0.5" fill="none" stroke="#000000" stroke-width="2" /><path d="M4.5,81 c13.067,-2.201 23.869,-4.891 38,-9.5" fill="none" stroke="#000000" stroke-width="2" /><path d="M10.5,93.5 c25.005,-5.554 33,-12.944 33,-32 V51.0" fill="none" stroke="#000000" stroke-width="2" /></svg>