<?xml version='1.0' encoding='utf-8'?>
<svg xmlns="http://www.w3.org/2000/svg" height="100px" version="1.0" viewBox="0 0 100 100" width="100px" x="0px" y="0px">
<line fill="none" stroke="#000000" stroke-width="2" x1="9" x2="26" y1="45" y2="45" /><line fill="none" stroke="#000000" stroke-width="2" x1="42.5" x2="42.5" y1="61" y2="93.5" /><line fill="none" stroke="#000000" stroke-width="2" x1="43.5" x2="90.5" y1="88.5" y2="88.5" /><line fill="none" stroke="#000000" stroke-width="2" x1="43.5" x2="90.5" y1="74.5" y2="74.5" /><line fill="none" stroke="#000000" stroke-width="2" x1="31" x2="96.5" y1="49" y2="49" /><line fill="none" stroke="#000000" stroke-width="2" x1="86.5" x2="35" y1="36.5" y2="36.5" /><line fill="none" stroke="#000000" stroke-width="2" x1="61" x2="61" y1="49" y2="25.5" /><line fill="none" stroke="#000000" stroke-width="2" x1="73" x2="73" y1="24.5" y2="9.5" /><line fill="none" stroke="#000000" stroke-width="2" x1="53.5" x2="53.5" y1="24.5" y2="9.5" /><polyline fill="none" points="9,83 27,83 27,12 8,12 8,91" stroke="#000000" stroke-width="2" /><polyline fill="none" points="90.5,93.5 90.5,61 42.5,61" stroke="#000000" stroke-width="2" /><polyline fill="none" points="35,25.5 92.5,25.5 92.5,9.5 34,9.5 34,26.5" stroke="#000000" stroke-width="2" /><path d="M29.5,65.5 c29.007,-8.946 51.772,-22.585 65,-37" fill="none" stroke="#000000" stroke-width="2" /></svg>