<?xml version='1.0' encoding='utf-8'?>
<svg xmlns="http://www.w3.org/2000/svg" height="100px" version="1.0" viewBox="0 0 100 100" width="100px" x="0px" y="0px">
<line fill="none" stroke="#000000" stroke-width="2" x1="71" x2="29" y1="17.5" y2="17.5" /><line fill="none" stroke="#000000" stroke-width="2" x1="20" x2="81" y1="89" y2="89" /><line fill="none" stroke="#000000" stroke-width="2" x1="50" x2="50" y1="51.5" y2="26.5" /><line fill="none" stroke="#000000" stroke-width="2" x1="20" x2="81" y1="74" y2="74" /><polyline fill="none" points="81,94.5 81,59.5 19,59.5 19,94.5" stroke="#000000" stroke-width="2" /><polyline fill="none" points="15,51.5 86,51.5 86,25.5 14,25.5 14,52.5" stroke="#000000" stroke-width="2" /><path d="M94.5,24 c-16.927,-5.976 -31.083,-12.502 -44.5,-20.3 c-13.417,7.797 -27.573,14.324 -44.5,20.3" fill="none" stroke="#000000" stroke-width="2" /><path d="M62,47.5 c5.104,-5.033 9.261,-11.207 12,-18" fill="none" stroke="#000000" stroke-width="2" /><path d="M37,47.5 c-3.384,-6.076 -7.391,-12.099 -12,-18" fill="none" stroke="#000000" stroke-width="2" /></svg>