<?xml version='1.0' encoding='utf-8'?>
<svg xmlns="http://www.w3.org/2000/svg" height="100px" version="1.0" viewBox="0 0 100 100" width="100px" x="0px" y="0px">
<line fill="none" stroke="#000000" stroke-width="2" x1="9" x2="26.5" y1="59" y2="59" /><line fill="none" stroke="#000000" stroke-width="2" x1="10" x2="26.5" y1="33.5" y2="33.5" /><line fill="none" stroke="#000000" stroke-width="2" x1="31.5" x2="95.5" y1="12" y2="12" /><line fill="none" stroke="#000000" stroke-width="2" x1="50" x2="50" y1="19.5" y2="3.5" /><line fill="none" stroke="#000000" stroke-width="2" x1="77" x2="77" y1="19.5" y2="3.5" /><line fill="none" stroke="#000000" stroke-width="2" x1="32" x2="95" y1="46" y2="46" /><line fill="none" stroke="#000000" stroke-width="2" x1="41" x2="86" y1="34.5" y2="34.5" /><polyline fill="none" points="92,38 92,23.5 35,23.5 35,38" stroke="#000000" stroke-width="2" /><path d="M4.5,92.5 c3.238,-8.584 4.5,-17.869 4.5,-46.5 v-36.0 h18.5 v73.0 c0,7.724 -0.25,8 -5,8 c-1.488,0 -4.585,-0.155 -9,-0.5" fill="none" stroke="#000000" stroke-width="2" /><path d="M33,60.5 c14.501,-3.815 24.551,-8.679 31.5,-14.5" fill="none" stroke="#000000" stroke-width="2" /><path d="M32.5,74.5 c14.869,-3.995 25.401,-9.114 32.5,-15" fill="none" stroke="#000000" stroke-width="2" /><path d="M32,88.5 c16.979,-4.745 29.47,-11.073 37.5,-18" fill="none" stroke="#000000" stroke-width="2" /><path d="M93,53.5 c-5.262,5.548 -11.121,10.12 -17.5,13.5" fill="none" stroke="#000000" stroke-width="2" /><path d="M67,46 c3.79,17.194 15.48,34.626 29,44" fill="none" stroke="#000000" stroke-width="2" /><path d="M53,91 c3.943,0.332 8.158,0.5 11.5,0.5 c4.793,0 6,-1.675 6,-12.5 c0,-11.056 -5.279,-22.402 -13,-28" fill="none" stroke="#000000" stroke-width="2" /></svg>