<?xml version='1.0' encoding='utf-8'?>
<svg xmlns="http://www.w3.org/2000/svg" height="100px" version="1.0" viewBox="0 0 100 100" width="100px" x="0px" y="0px">
<line fill="none" stroke="#000000" stroke-width="2" x1="9" x2="26.5" y1="59" y2="59" /><line fill="none" stroke="#000000" stroke-width="2" x1="10" x2="26.5" y1="33.5" y2="33.5" /><line fill="none" stroke="#000000" stroke-width="2" x1="30.5" x2="64.5" y1="34" y2="34" /><line fill="none" stroke="#000000" stroke-width="2" x1="31.5" x2="63.5" y1="14.5" y2="14.5" /><line fill="none" stroke="#000000" stroke-width="2" x1="47.5" x2="47.5" y1="14.5" y2="3.5" /><line fill="none" stroke="#000000" stroke-width="2" x1="67.5" x2="94" y1="52" y2="52" /><line fill="none" stroke="#000000" stroke-width="2" x1="67.5" x2="94" y1="64.5" y2="64.5" /><line fill="none" stroke="#000000" stroke-width="2" x1="67.5" x2="94" y1="77" y2="77" /><line fill="none" stroke="#000000" stroke-width="2" x1="95" x2="67.5" y1="14.5" y2="14.5" /><line fill="none" stroke="#000000" stroke-width="2" x1="35.5" x2="60.5" y1="72" y2="72" /><line fill="none" stroke="#000000" stroke-width="2" x1="35.5" x2="60.5" y1="58" y2="58" /><path d="M4.5,92.5 c3.238,-8.584 4.5,-17.869 4.5,-46.5 v-36.0 h18.5 v73.0 c0,7.724 -0.25,8 -5,8 c-1.488,0 -4.585,-0.155 -9,-0.5" fill="none" stroke="#000000" stroke-width="2" /><path d="M53,34 c2.291,-5.521 4.176,-12.15 5.5,-19.5" fill="none" stroke="#000000" stroke-width="2" /><path d="M41.5,34 c-1.613,-6.543 -3.437,-13.032 -5.5,-19.5" fill="none" stroke="#000000" stroke-width="2" /><path d="M97,77.5 c-0.891,13.773 -1.141,14 -16,14 c-13.236,0 -13.5,-0.177 -13.5,-8 v-44.0 h26.5 V27.0 h-26.5 v-23.0" fill="none" stroke="#000000" stroke-width="2" /><path d="M34.5,92 v-48.0 h26.0 v41.96 c0,4.177 -0.328,4.54 -5,4.54 c-1.531,0 -4.434,-0.14 -8.5,-0.5" fill="none" stroke="#000000" stroke-width="2" /></svg>