<?xml version='1.0' encoding='utf-8'?>
<svg xmlns="http://www.w3.org/2000/svg" height="100px" version="1.0" viewBox="0 0 100 100" width="100px" x="0px" y="0px">
<line fill="none" stroke="#000000" stroke-width="2" x1="17.5" x2="17.5" y1="94" y2="6" /><line fill="none" stroke="#000000" stroke-width="2" x1="29.5" x2="3.5" y1="26" y2="26" /><line fill="none" stroke="#000000" stroke-width="2" x1="70" x2="93" y1="84" y2="84" /><polyline fill="none" points="93,92 93,14 69,14 69,92" stroke="#000000" stroke-width="2" /><path d="M2.5,70 c6.99,-14.471 11.578,-28.562 14.5,-44.5" fill="none" stroke="#000000" stroke-width="2" /><path d="M28.5,57 c-3.289,-9.809 -6.919,-20.15 -10.5,-30" fill="none" stroke="#000000" stroke-width="2" /><path d="M26,91 c11.021,-16.946 15,-34.719 15,-86" fill="none" stroke="#000000" stroke-width="2" /><path d="M29,21.5 h32.0 c0,61.3 -2.813,67.5 -9.5,67.5 c-3.131,0 -7.69,-0.339 -12,-1" fill="none" stroke="#000000" stroke-width="2" /></svg>