<?xml version='1.0' encoding='utf-8'?>
<svg xmlns="http://www.w3.org/2000/svg" height="100px" version="1.0" viewBox="0 0 100 100" width="100px" x="0px" y="0px">
<line fill="none" stroke="#000000" stroke-width="2" x1="19.5" x2="19.5" y1="94" y2="6" /><line fill="none" stroke="#000000" stroke-width="2" x1="32.5" x2="4.5" y1="26" y2="26" /><line fill="none" stroke="#000000" stroke-width="2" x1="96" x2="39.5" y1="68" y2="75.5" /><line fill="none" stroke="#000000" stroke-width="2" x1="93" x2="42.5" y1="51" y2="58" /><path d="M3.5,70 c7.473,-14.471 12.377,-28.562 15.5,-44.5" fill="none" stroke="#000000" stroke-width="2" /><path d="M32.5,59 c-3.982,-10.331 -8.284,-21.329 -12.5,-32" fill="none" stroke="#000000" stroke-width="2" /><path d="M28.5,91 c6.048,-14.052 9,-29.832 9,-51 v-30.0 h54.0 v17.5 h-53.0" fill="none" stroke="#000000" stroke-width="2" /><path d="M65,38.5 v45.5 c0,6.503 0.541,7 13.5,7 c16.186,0 16.414,-0.216 17.5,-16" fill="none" stroke="#000000" stroke-width="2" /><path d="M43.5,40.5 c18.631,-0.926 33.578,-3.77 45,-8" fill="none" stroke="#000000" stroke-width="2" /></svg>