<?xml version='1.0' encoding='utf-8'?>
<svg xmlns="http://www.w3.org/2000/svg" height="100px" version="1.0" viewBox="0 0 100 100" width="100px" x="0px" y="0px">
<line fill="none" stroke="#000000" stroke-width="2" x1="50" x2="50" y1="18" y2="3.5" /><line fill="none" stroke="#000000" stroke-width="2" x1="50" x2="50" y1="93.5" y2="50.5" /><line fill="none" stroke="#000000" stroke-width="2" x1="92" x2="8" y1="62" y2="62" /><polyline fill="none" points="24,50.5 77,50.5 77,28.5 23,28.5 23,51.5" stroke="#000000" stroke-width="2" /><polyline fill="none" points="90.5,37.5 90.5,18 9.5,18 9.5,37.5" stroke="#000000" stroke-width="2" /><path d="M30,18 c-2.568,-4.273 -5.301,-8.373 -8,-12" fill="none" stroke="#000000" stroke-width="2" /><path d="M70.5,18 c2.842,-4.453 5.379,-8.836 7.5,-13" fill="none" stroke="#000000" stroke-width="2" /><path d="M6,91 c18.07,-6.784 33.259,-17.337 43,-29" fill="none" stroke="#000000" stroke-width="2" /><path d="M94,91 c-18.07,-6.784 -33.259,-17.337 -43,-29" fill="none" stroke="#000000" stroke-width="2" /></svg>