<?xml version='1.0' encoding='utf-8'?>
<svg xmlns="http://www.w3.org/2000/svg" height="100px" version="1.0" viewBox="0 0 100 100" width="100px" x="0px" y="0px">
<line fill="none" stroke="#000000" stroke-width="2" x1="19" x2="19" y1="94" y2="6" /><line fill="none" stroke="#000000" stroke-width="2" x1="31" x2="4" y1="26" y2="26" /><line fill="none" stroke="#000000" stroke-width="2" x1="64" x2="64" y1="15" y2="4" /><line fill="none" stroke="#000000" stroke-width="2" x1="30.5" x2="95" y1="90" y2="90" /><line fill="none" stroke="#000000" stroke-width="2" x1="91.5" x2="35.5" y1="57" y2="57" /><line fill="none" stroke="#000000" stroke-width="2" x1="64" x2="64" y1="90" y2="57" /><polyline fill="none" points="92.5,30 92.5,15 35.5,15 35.5,33" stroke="#000000" stroke-width="2" /><path d="M3,70 c7.473,-14.471 12.377,-28.562 15.5,-44.5" fill="none" stroke="#000000" stroke-width="2" /><path d="M31,59 c-3.664,-10.331 -7.621,-21.329 -11.5,-32" fill="none" stroke="#000000" stroke-width="2" /><path d="M69.5,15 v26.5 c0,4.844 0.234,5 11,5 c11.359,0 11.601,-0.195 12.5,-11" fill="none" stroke="#000000" stroke-width="2" /><path d="M33.5,50 c15.27,-6.343 24.5,-18.938 24.5,-34" fill="none" stroke="#000000" stroke-width="2" /></svg>