<?xml version='1.0' encoding='utf-8'?>
<svg xmlns="http://www.w3.org/2000/svg" height="100px" version="1.0" viewBox="0 0 100 100" width="100px" x="0px" y="0px">
<line fill="none" stroke="#000000" stroke-width="2" x1="19.5" x2="19.5" y1="94" y2="6" /><line fill="none" stroke="#000000" stroke-width="2" x1="32.5" x2="4.5" y1="26" y2="26" /><line fill="none" stroke="#000000" stroke-width="2" x1="95.5" x2="29.5" y1="11" y2="11" /><line fill="none" stroke="#000000" stroke-width="2" x1="29" x2="96" y1="89" y2="89" /><polyline fill="none" points="72,11 72,36 90.5,36 90.5,62 72,62 72,89" stroke="#000000" stroke-width="2" /><polyline fill="none" points="53.5,88 53.5,62 35,62 35,36 53.5,36 53.5,11" stroke="#000000" stroke-width="2" /><path d="M3.5,70 c7.473,-14.471 12.377,-28.562 15.5,-44.5" fill="none" stroke="#000000" stroke-width="2" /><path d="M31.5,59 c-3.664,-10.331 -7.621,-21.329 -11.5,-32" fill="none" stroke="#000000" stroke-width="2" /></svg>