<?xml version='1.0' encoding='utf-8'?>
<svg xmlns="http://www.w3.org/2000/svg" height="100px" version="1.0" viewBox="0 0 100 100" width="100px" x="0px" y="0px">
<line fill="none" stroke="#000000" stroke-width="2" x1="18.5" x2="18.5" y1="94" y2="6" /><line fill="none" stroke="#000000" stroke-width="2" x1="31.5" x2="3.5" y1="26" y2="26" /><line fill="none" stroke="#000000" stroke-width="2" x1="42" x2="42" y1="93.5" y2="47" /><line fill="none" stroke="#000000" stroke-width="2" x1="26" x2="96" y1="16.5" y2="16.5" /><line fill="none" stroke="#000000" stroke-width="2" x1="45.5" x2="45.5" y1="27.5" y2="4.5" /><line fill="none" stroke="#000000" stroke-width="2" x1="76.5" x2="76.5" y1="27.5" y2="4.5" /><path d="M2.5,70 c7.422,-14.497 12.377,-28.562 15.5,-44.5" fill="none" stroke="#000000" stroke-width="2" /><path d="M29,53 c-3.112,-8.549 -6.541,-17.435 -10,-26" fill="none" stroke="#000000" stroke-width="2" /><path d="M50.5,29.5 c-5.568,15.07 -14.242,27.923 -26,38.5" fill="none" stroke="#000000" stroke-width="2" /><path d="M65,29.5 v53.0 c0,9.261 0.26,9.5 14,9.5 c15.451,0 15.656,-0.183 17,-25" fill="none" stroke="#000000" stroke-width="2" /><path d="M52,66.5 c14.822,-6.18 27.695,-14.236 43,-27" fill="none" stroke="#000000" stroke-width="2" /></svg>