<?xml version='1.0' encoding='utf-8'?>
<svg xmlns="http://www.w3.org/2000/svg" height="100px" version="1.0" viewBox="0 0 100 100" width="100px" x="0px" y="0px">
<line fill="none" stroke="#000000" stroke-width="2" x1="17.5" x2="17.5" y1="94" y2="6" /><line fill="none" stroke="#000000" stroke-width="2" x1="29.5" x2="3.5" y1="26" y2="26" /><line fill="none" stroke="#000000" stroke-width="2" x1="63" x2="37" y1="16" y2="16" /><line fill="none" stroke="#000000" stroke-width="2" x1="64.5" x2="29" y1="44" y2="44" /><line fill="none" stroke="#000000" stroke-width="2" x1="69" x2="93" y1="83.5" y2="83.5" /><polyline fill="none" points="93,91.5 93,13.5 68,13.5 68,91.5" stroke="#000000" stroke-width="2" /><path d="M2.5,70 c6.99,-14.471 11.578,-28.562 14.5,-44.5" fill="none" stroke="#000000" stroke-width="2" /><path d="M28.5,57 c-3.289,-9.809 -6.919,-20.15 -10.5,-30" fill="none" stroke="#000000" stroke-width="2" /><path d="M30,38 c4.104,-9.372 7.464,-21.253 9.5,-34" fill="none" stroke="#000000" stroke-width="2" /><path d="M29,90 c10.227,-8.538 18,-27.432 18,-48.5 V16.0" fill="none" stroke="#000000" stroke-width="2" /><path d="M63.5,84.5 c-5.02,-11.049 -10.938,-22.879 -17,-34" fill="none" stroke="#000000" stroke-width="2" /></svg>