<?xml version='1.0' encoding='utf-8'?>
<svg xmlns="http://www.w3.org/2000/svg" height="100px" version="1.0" viewBox="0 0 100 100" width="100px" x="0px" y="0px">
<line fill="none" stroke="#000000" stroke-width="2" x1="17.5" x2="17.5" y1="94" y2="6" /><line fill="none" stroke="#000000" stroke-width="2" x1="29.5" x2="3.5" y1="26" y2="26" /><line fill="none" stroke="#000000" stroke-width="2" x1="36" x2="36" y1="59" y2="94" /><line fill="none" stroke="#000000" stroke-width="2" x1="84.5" x2="36.5" y1="58.5" y2="58.5" /><line fill="none" stroke="#000000" stroke-width="2" x1="85" x2="85" y1="94" y2="59" /><line fill="none" stroke="#000000" stroke-width="2" x1="36" x2="85" y1="88" y2="88" /><line fill="none" stroke="#000000" stroke-width="2" x1="37" x2="85" y1="73" y2="73" /><line fill="none" stroke="#000000" stroke-width="2" x1="27.5" x2="97" y1="44.5" y2="44.5" /><line fill="none" stroke="#000000" stroke-width="2" x1="94.5" x2="30" y1="14.5" y2="14.5" /><line fill="none" stroke="#000000" stroke-width="2" x1="91" x2="33" y1="29" y2="29" /><path d="M2.5,70 c6.99,-14.471 11.578,-28.562 14.5,-44.5" fill="none" stroke="#000000" stroke-width="2" /><path d="M27,53 c-2.801,-8.549 -5.887,-17.435 -9,-26" fill="none" stroke="#000000" stroke-width="2" /><path d="M23,68.5 c20.034,-11.543 36.035,-37.2 38.5,-64" fill="none" stroke="#000000" stroke-width="2" /><path d="M97,68.5 c-12.57,-7.564 -24.183,-21.879 -31,-39.5" fill="none" stroke="#000000" stroke-width="2" /></svg>