<?xml version='1.0' encoding='utf-8'?>
<svg xmlns="http://www.w3.org/2000/svg" height="100px" version="1.0" viewBox="0 0 100 100" width="100px" x="0px" y="0px">
<line fill="none" stroke="#000000" stroke-width="2" x1="17" x2="17" y1="94" y2="6" /><line fill="none" stroke="#000000" stroke-width="2" x1="28.5" x2="3" y1="25.5" y2="25.5" /><line fill="none" stroke="#000000" stroke-width="2" x1="60.5" x2="60.5" y1="85.5" y2="19.5" /><line fill="none" stroke="#000000" stroke-width="2" x1="42.5" x2="42.5" y1="34.5" y2="65.5" /><line fill="none" stroke="#000000" stroke-width="2" x1="77.5" x2="43.5" y1="35.5" y2="35.5" /><polyline fill="none" points="42.5,59.5 78.5,59.5 78.5,34.5" stroke="#000000" stroke-width="2" /><path d="M2,69.5 c6.99,-14.471 11.578,-28.562 14.5,-44.5" fill="none" stroke="#000000" stroke-width="2" /><path d="M27.5,52.5 c-3.111,-8.549 -6.541,-17.435 -10,-26" fill="none" stroke="#000000" stroke-width="2" /><path d="M24,92.5 c5.775,-10.179 9,-25.519 9,-50.5 v-32.0 h55.0 c0,71.495 3.031,82 6.5,82 c1.844,0 3.408,-4.21 4,-22" fill="none" stroke="#000000" stroke-width="2" /><path d="M87,91 c-3.52,-7.272 -8.369,-16.632 -12.5,-24" fill="none" stroke="#000000" stroke-width="2" /><path d="M35.5,88 c13.369,-0.589 31.804,-2.734 47,-5.5" fill="none" stroke="#000000" stroke-width="2" /><path d="M39,20.5 c12.753,-0.44 28.525,-1.697 43,-3.5" fill="none" stroke="#000000" stroke-width="2" /></svg>