<?xml version='1.0' encoding='utf-8'?>
<svg xmlns="http://www.w3.org/2000/svg" height="100px" version="1.0" viewBox="0 0 100 100" width="100px" x="0px" y="0px">
<line fill="none" stroke="#000000" stroke-width="2" x1="19.5" x2="19.5" y1="94" y2="6" /><line fill="none" stroke="#000000" stroke-width="2" x1="32.5" x2="4.5" y1="26" y2="26" /><line fill="none" stroke="#000000" stroke-width="2" x1="36" x2="91" y1="57" y2="57" /><line fill="none" stroke="#000000" stroke-width="2" x1="63.5" x2="63.5" y1="94" y2="5" /><line fill="none" stroke="#000000" stroke-width="2" x1="31" x2="96" y1="15.5" y2="15.5" /><polyline fill="none" points="92,58 92,29 35,29 35,58" stroke="#000000" stroke-width="2" /><path d="M3.5,70 c7.473,-14.471 12.377,-28.562 15.5,-44.5" fill="none" stroke="#000000" stroke-width="2" /><path d="M31.5,59 c-3.664,-10.331 -7.621,-21.329 -11.5,-32" fill="none" stroke="#000000" stroke-width="2" /><path d="M30.5,89.5 c15.426,-10.279 25.508,-20.663 32,-32" fill="none" stroke="#000000" stroke-width="2" /><path d="M72.5,53 c4.041,-5.592 7.332,-12.452 9.5,-20" fill="none" stroke="#000000" stroke-width="2" /><path d="M54,53 c-2.678,-6.751 -5.851,-13.442 -9.5,-20" fill="none" stroke="#000000" stroke-width="2" /><path d="M96.5,89.5 c-15.426,-10.279 -25.508,-20.663 -32,-32" fill="none" stroke="#000000" stroke-width="2" /></svg>