<?xml version='1.0' encoding='utf-8'?>
<svg xmlns="http://www.w3.org/2000/svg" height="100px" version="1.0" viewBox="0 0 100 100" width="100px" x="0px" y="0px">
<line fill="none" stroke="#000000" stroke-width="2" x1="19.5" x2="19.5" y1="94" y2="6" /><line fill="none" stroke="#000000" stroke-width="2" x1="31.5" x2="4.5" y1="26" y2="26" /><line fill="none" stroke="#000000" stroke-width="2" x1="36.5" x2="91.5" y1="86.5" y2="86.5" /><line fill="none" stroke="#000000" stroke-width="2" x1="36.5" x2="91.5" y1="70.5" y2="70.5" /><line fill="none" stroke="#000000" stroke-width="2" x1="31" x2="96" y1="18" y2="18" /><polyline fill="none" points="91.5,93 91.5,33 35.5,33 35.5,93" stroke="#000000" stroke-width="2" /><path d="M3.5,70 c7.473,-14.471 12.377,-28.562 15.5,-44.5" fill="none" stroke="#000000" stroke-width="2" /><path d="M31.5,59 c-3.664,-10.331 -7.621,-21.329 -11.5,-32" fill="none" stroke="#000000" stroke-width="2" /><path d="M55,19 v15.0 c0,17.717 -3.191,23.323 -16,30" fill="none" stroke="#000000" stroke-width="2" /><path d="M69.5,18 v30.5 c0,7.137 1.047,8 9,8 h12.0" fill="none" stroke="#000000" stroke-width="2" /><path d="M55,18 c-2.229,-4.979 -4.66,-9.85 -7,-14" fill="none" stroke="#000000" stroke-width="2" /><path d="M71.5,18 c2.66,-4.604 5.16,-9.644 7,-14" fill="none" stroke="#000000" stroke-width="2" /></svg>