<?xml version='1.0' encoding='utf-8'?>
<svg xmlns="http://www.w3.org/2000/svg" height="100px" version="1.0" viewBox="0 0 100 100" width="100px" x="0px" y="0px">
<line fill="none" stroke="#000000" stroke-width="2" x1="20" x2="20" y1="94" y2="6" /><line fill="none" stroke="#000000" stroke-width="2" x1="31.5" x2="4" y1="25.5" y2="25.5" /><line fill="none" stroke="#000000" stroke-width="2" x1="39.5" x2="39.5" y1="35.5" y2="81.5" /><line fill="none" stroke="#000000" stroke-width="2" x1="96" x2="30.5" y1="35.5" y2="35.5" /><line fill="none" stroke="#000000" stroke-width="2" x1="86.5" x2="86.5" y1="94" y2="35.5" /><line fill="none" stroke="#000000" stroke-width="2" x1="40.5" x2="86.5" y1="65" y2="65" /><line fill="none" stroke="#000000" stroke-width="2" x1="40.5" x2="86.5" y1="50" y2="50" /><polyline fill="none" points="36.5,25 90.5,25 90.5,10 35.5,10 35.5,26" stroke="#000000" stroke-width="2" /><path d="M3,69.5 c7.954,-14.471 13.176,-28.562 16.5,-44.5" fill="none" stroke="#000000" stroke-width="2" /><path d="M31,58.5 c-3.197,-10.43 -6.789,-21.329 -10.5,-32" fill="none" stroke="#000000" stroke-width="2" /><path d="M30.5,82 c20.904,-1.365 44.08,-3.438 66,-6" fill="none" stroke="#000000" stroke-width="2" /></svg>