<?xml version='1.0' encoding='utf-8'?>
<svg xmlns="http://www.w3.org/2000/svg" height="100px" version="1.0" viewBox="0 0 100 100" width="100px" x="0px" y="0px">
<line fill="none" stroke="#000000" stroke-width="2" x1="17.5" x2="17.5" y1="94" y2="6" /><line fill="none" stroke="#000000" stroke-width="2" x1="29.5" x2="3.5" y1="25" y2="25" /><line fill="none" stroke="#000000" stroke-width="2" x1="43.5" x2="43.5" y1="94" y2="11.5" /><line fill="none" stroke="#000000" stroke-width="2" x1="59" x2="27.5" y1="33" y2="33" /><path d="M2.5,69 c6.99,-14.471 11.578,-28.562 14.5,-44.5" fill="none" stroke="#000000" stroke-width="2" /><path d="M27.5,55 c-2.957,-9.536 -6.214,-19.446 -9.5,-29" fill="none" stroke="#000000" stroke-width="2" /><path d="M59,8 c-10.43,2.732 -20.48,4.719 -30.5,6" fill="none" stroke="#000000" stroke-width="2" /><path d="M26,72.5 c8.166,-13.023 13.519,-25.675 17,-40" fill="none" stroke="#000000" stroke-width="2" /><path d="M58,63 c-4.282,-9.394 -9.12,-19.475 -14,-29" fill="none" stroke="#000000" stroke-width="2" /><path d="M66,20.5 c-0.861,12.496 -3.096,23.604 -6.5,33" fill="none" stroke="#000000" stroke-width="2" /><path d="M55.5,91 c12.561,-10.436 21,-30.592 21,-56 v-28.0" fill="none" stroke="#000000" stroke-width="2" /><path d="M97.5,91 c-12.581,-10.276 -21,-30.294 -21,-56" fill="none" stroke="#000000" stroke-width="2" /><path d="M95,19 c-1.527,12.022 -4.42,22.626 -8.5,31.5" fill="none" stroke="#000000" stroke-width="2" /></svg>