<?xml version='1.0' encoding='utf-8'?>
<svg xmlns="http://www.w3.org/2000/svg" height="100px" version="1.0" viewBox="0 0 100 100" width="100px" x="0px" y="0px">
<line fill="none" stroke="#000000" stroke-width="2" x1="79.5" x2="79.5" y1="21" y2="94" /><line fill="none" stroke="#000000" stroke-width="2" x1="79.5" x2="79.5" y1="6" y2="20" /><line fill="none" stroke="#000000" stroke-width="2" x1="64" x2="64" y1="19" y2="75" /><line fill="none" stroke="#000000" stroke-width="2" x1="64" x2="95" y1="67" y2="67" /><line fill="none" stroke="#000000" stroke-width="2" x1="65" x2="95" y1="43" y2="43" /><line fill="none" stroke="#000000" stroke-width="2" x1="59" x2="32" y1="24" y2="24" /><line fill="none" stroke="#000000" stroke-width="2" x1="44.5" x2="44.5" y1="24" y2="6" /><line fill="none" stroke="#000000" stroke-width="2" x1="44.5" x2="44.5" y1="94" y2="50" /><line fill="none" stroke="#000000" stroke-width="2" x1="19" x2="19" y1="94" y2="6" /><line fill="none" stroke="#000000" stroke-width="2" x1="29.5" x2="4" y1="25.5" y2="25.5" /><polyline fill="none" points="95,75 95,20 65,20" stroke="#000000" stroke-width="2" /><path d="M60.5,67 c-3.912,-5.175 -9.988,-12.465 -15,-18" fill="none" stroke="#000000" stroke-width="2" /><path d="M28,65.5 c14.357,-10.141 23.477,-22.276 30.059,-40.835" fill="none" stroke="#000000" stroke-width="2" /><path d="M3,69.5 c7.18,-14.333 11.977,-28.24 15,-44" fill="none" stroke="#000000" stroke-width="2" /><path d="M32,53.5 c-3.89,-8.891 -8.176,-18.092 -12.5,-27" fill="none" stroke="#000000" stroke-width="2" /></svg>