<?xml version='1.0' encoding='utf-8'?>
<svg xmlns="http://www.w3.org/2000/svg" height="100px" version="1.0" viewBox="0 0 100 100" width="100px" x="0px" y="0px">
<line fill="none" stroke="#000000" stroke-width="2" x1="32.5" x2="96" y1="10.5" y2="10.5" /><line fill="none" stroke="#000000" stroke-width="2" x1="40" x2="89.5" y1="32" y2="32" /><line fill="none" stroke="#000000" stroke-width="2" x1="40" x2="89.5" y1="43.5" y2="43.5" /><line fill="none" stroke="#000000" stroke-width="2" x1="45" x2="88" y1="65" y2="65" /><line fill="none" stroke="#000000" stroke-width="2" x1="20.5" x2="20.5" y1="94" y2="6" /><line fill="none" stroke="#000000" stroke-width="2" x1="33.5" x2="4.5" y1="25.5" y2="25.5" /><polyline fill="none" points="40,55 89.5,55 89.5,20.5 39,20.5 39,56" stroke="#000000" stroke-width="2" /><path d="M64,10.5 c-1.027,3.709 -2.341,6.98 -4,10" fill="none" stroke="#000000" stroke-width="2" /><path d="M29.5,76.5 c10.392,-5.89 18.827,-13.628 24,-21.5" fill="none" stroke="#000000" stroke-width="2" /><path d="M29,91.5 c25.859,-4.149 47.437,-14.706 58.273,-26.188" fill="none" stroke="#000000" stroke-width="2" /><path d="M96,91.5 c-21.417,-3.867 -41.253,-13.321 -53,-24.5" fill="none" stroke="#000000" stroke-width="2" /><path d="M3.5,69.5 c7.954,-14.471 13.176,-28.562 16.5,-44.5" fill="none" stroke="#000000" stroke-width="2" /><path d="M33.5,58.5 c-3.983,-10.331 -8.283,-21.329 -12.5,-32" fill="none" stroke="#000000" stroke-width="2" /></svg>