<?xml version='1.0' encoding='utf-8'?>
<svg xmlns="http://www.w3.org/2000/svg" height="100px" version="1.0" viewBox="0 0 100 100" width="100px" x="0px" y="0px">
<line fill="none" stroke="#000000" stroke-width="2" x1="27.5" x2="97" y1="43.5" y2="43.5" /><line fill="none" stroke="#000000" stroke-width="2" x1="94.5" x2="30" y1="13.5" y2="13.5" /><line fill="none" stroke="#000000" stroke-width="2" x1="91" x2="33" y1="28" y2="28" /><line fill="none" stroke="#000000" stroke-width="2" x1="17.5" x2="17.5" y1="94" y2="6" /><line fill="none" stroke="#000000" stroke-width="2" x1="29.5" x2="3.5" y1="26" y2="26" /><line fill="none" stroke="#000000" stroke-width="2" x1="60" x2="60" y1="94.5" y2="53.5" /><line fill="none" stroke="#000000" stroke-width="2" x1="88" x2="32" y1="66.5" y2="66.5" /><path d="M23,67.5 c20.034,-11.362 36.035,-36.619 38.5,-63" fill="none" stroke="#000000" stroke-width="2" /><path d="M97,67.5 c-12.57,-7.564 -24.183,-21.879 -31,-39.5" fill="none" stroke="#000000" stroke-width="2" /><path d="M2.5,70 c6.99,-14.471 11.578,-28.562 14.5,-44.5" fill="none" stroke="#000000" stroke-width="2" /><path d="M27,53 c-2.801,-8.549 -5.887,-17.435 -9,-26" fill="none" stroke="#000000" stroke-width="2" /><path d="M26.5,90.5 c15.391,-7.56 26.117,-15.661 33,-24" fill="none" stroke="#000000" stroke-width="2" /><path d="M75.5,51 c-11.789,2.299 -22.676,3.901 -34,5" fill="none" stroke="#000000" stroke-width="2" /><path d="M93.5,90.5 c-9.574,-7.929 -21.52,-16.464 -33,-23.5" fill="none" stroke="#000000" stroke-width="2" /></svg>