<?xml version='1.0' encoding='utf-8'?>
<svg xmlns="http://www.w3.org/2000/svg" height="100px" version="1.0" viewBox="0 0 100 100" width="100px" x="0px" y="0px">
<line fill="none" stroke="#000000" stroke-width="2" x1="19" x2="19" y1="94" y2="6" /><line fill="none" stroke="#000000" stroke-width="2" x1="32" x2="4" y1="26" y2="26" /><line fill="none" stroke="#000000" stroke-width="2" x1="32.5" x2="94.5" y1="15" y2="15" /><line fill="none" stroke="#000000" stroke-width="2" x1="63.5" x2="63.5" y1="15" y2="5" /><polyline fill="none" points="48,86 48,62 79,62 79,80 49,80" stroke="#000000" stroke-width="2" /><polyline fill="none" points="43.5,43 43.5,25 83.5,25 83.5,42 44.5,42" stroke="#000000" stroke-width="2" /><path d="M3,70 c7.473,-14.471 12.377,-28.562 15.5,-44.5" fill="none" stroke="#000000" stroke-width="2" /><path d="M30,53.5 c-3.405,-8.685 -6.981,-17.702 -10.5,-26.5" fill="none" stroke="#000000" stroke-width="2" /><path d="M78.5,91 c4.902,0.363 7.691,0.5 9,0.5 c4.684,0 5,-0.383 5,-8 V52.0 h-58.0 v41.0" fill="none" stroke="#000000" stroke-width="2" /></svg>