<?xml version='1.0' encoding='utf-8'?>
<svg xmlns="http://www.w3.org/2000/svg" height="100px" version="1.0" viewBox="0 0 100 100" width="100px" x="0px" y="0px">
<line fill="none" stroke="#000000" stroke-width="2" x1="17.5" x2="17.5" y1="94" y2="6" /><line fill="none" stroke="#000000" stroke-width="2" x1="29.5" x2="3.5" y1="26" y2="26" /><polyline fill="none" points="50.5,73.5 88.5,73.5 88.5,49.5 49.5,49.5" stroke="#000000" stroke-width="2" /><polyline fill="none" points="50.5,37.5 86,37.5 86,16 49.5,16 49.5,74.5" stroke="#000000" stroke-width="2" /><polyline fill="none" points="37,75 37,45 24.5,45" stroke="#000000" stroke-width="2" /><path d="M69.5,4 c-1.746,4.388 -3.702,8.276 -6,12" fill="none" stroke="#000000" stroke-width="2" /><path d="M2.5,70 c6.99,-14.471 11.578,-28.562 14.5,-44.5" fill="none" stroke="#000000" stroke-width="2" /><path d="M27,53 c-2.801,-8.549 -5.887,-17.435 -9,-26" fill="none" stroke="#000000" stroke-width="2" /><path d="M27.5,10 c4.854,5.446 8.812,10.632 13,17" fill="none" stroke="#000000" stroke-width="2" /><path d="M24,92 c6.461,-5.942 10.25,-10.983 13,-17" fill="none" stroke="#000000" stroke-width="2" /><path d="M93.5,90 H67.0 c-17.881,0 -25.143,-3.961 -30,-15" fill="none" stroke="#000000" stroke-width="2" /></svg>