<?xml version='1.0' encoding='utf-8'?>
<svg xmlns="http://www.w3.org/2000/svg" height="100px" version="1.0" viewBox="0 0 100 100" width="100px" x="0px" y="0px">
<line fill="none" stroke="#000000" stroke-width="2" x1="17.5" x2="17.5" y1="94" y2="6" /><line fill="none" stroke="#000000" stroke-width="2" x1="28.5" x2="3.5" y1="26" y2="26" /><line fill="none" stroke="#000000" stroke-width="2" x1="48.5" x2="48.5" y1="22" y2="49.5" /><line fill="none" stroke="#000000" stroke-width="2" x1="32" x2="69.5" y1="49.5" y2="49.5" /><line fill="none" stroke="#000000" stroke-width="2" x1="48.5" x2="66" y1="34" y2="34" /><path d="M2.5,70 c6.99,-14.471 11.578,-28.562 14.5,-44.5" fill="none" stroke="#000000" stroke-width="2" /><path d="M27,53 c-2.801,-8.549 -5.887,-17.435 -9,-26" fill="none" stroke="#000000" stroke-width="2" /><path d="M70,3.5 c0,60.849 15.169,87.5 20.5,87.5 c1.912,0 4.756,-2.614 6.5,-23" fill="none" stroke="#000000" stroke-width="2" /><path d="M89,31 c-4.494,30.089 -16.745,51.168 -32.4,60" fill="none" stroke="#000000" stroke-width="2" /><path d="M76,4 c4.884,2.864 9.925,6.331 14.5,10" fill="none" stroke="#000000" stroke-width="2" /><path d="M25.5,91.5 c4.273,-13.964 6.5,-29.742 6.5,-51 V18.0 h63.0" fill="none" stroke="#000000" stroke-width="2" /><path d="M34,83.5 c3.935,-6.634 7.679,-16.132 10,-26" fill="none" stroke="#000000" stroke-width="2" /><path d="M66.5,77.5 c-2.715,-7.188 -6.027,-14.185 -9.5,-20" fill="none" stroke="#000000" stroke-width="2" /><path d="M51.5,49.5 v34.0 c0,5.62 -0.34,6 -4,6 c-1.603,0 -4.451,-0.154 -8,-0.5" fill="none" stroke="#000000" stroke-width="2" /></svg>