<?xml version='1.0' encoding='utf-8'?>
<svg xmlns="http://www.w3.org/2000/svg" height="100px" version="1.0" viewBox="0 0 100 100" width="100px" x="0px" y="0px">
<line fill="none" stroke="#000000" stroke-width="2" x1="17.5" x2="17.5" y1="94" y2="6" /><line fill="none" stroke="#000000" stroke-width="2" x1="28.5" x2="3.5" y1="26" y2="26" /><line fill="none" stroke="#000000" stroke-width="2" x1="56" x2="29" y1="47" y2="47" /><line fill="none" stroke="#000000" stroke-width="2" x1="55" x2="30.5" y1="24" y2="24" /><line fill="none" stroke="#000000" stroke-width="2" x1="60.5" x2="90.5" y1="44" y2="44" /><line fill="none" stroke="#000000" stroke-width="2" x1="60.5" x2="90.5" y1="27" y2="27" /><polyline fill="none" points="60.5,62 90.5,62 90.5,10.5 59.5,10.5 59.5,63" stroke="#000000" stroke-width="2" /><path d="M2.5,70 c6.99,-14.471 11.578,-28.562 14.5,-44.5" fill="none" stroke="#000000" stroke-width="2" /><path d="M27,53 c-2.801,-8.549 -5.887,-17.435 -9,-26" fill="none" stroke="#000000" stroke-width="2" /><path d="M25.5,90 c11.75,-12.774 17,-26.587 17,-49 v-35.0" fill="none" stroke="#000000" stroke-width="2" /><path d="M57.5,77.5 c-4.244,-7.313 -9.779,-15.135 -16,-22.5" fill="none" stroke="#000000" stroke-width="2" /><path d="M79,62 v23.5 c0,4.75 0.25,5 7,5 c8.297,0 8.357,-0.073 9,-22.5" fill="none" stroke="#000000" stroke-width="2" /><path d="M47.5,92 c13.857,-5.741 22,-16.988 22,-30" fill="none" stroke="#000000" stroke-width="2" /></svg>