<?xml version='1.0' encoding='utf-8'?>
<svg xmlns="http://www.w3.org/2000/svg" height="100px" version="1.0" viewBox="0 0 100 100" width="100px" x="0px" y="0px">
<line fill="none" stroke="#000000" stroke-width="2" x1="19" x2="19" y1="94" y2="6" /><line fill="none" stroke="#000000" stroke-width="2" x1="29.5" x2="4" y1="26" y2="26" /><polyline fill="none" points="64.5,10 92,10 92,45" stroke="#000000" stroke-width="2" /><polyline fill="none" points="31.5,10 59,10 59,41.5" stroke="#000000" stroke-width="2" /><path d="M3,70 c7.473,-14.471 12.377,-28.562 15.5,-44.5" fill="none" stroke="#000000" stroke-width="2" /><path d="M30,55 c-3.316,-9.321 -6.797,-18.59 -10.5,-28" fill="none" stroke="#000000" stroke-width="2" /><path d="M96.5,59.5 c-12.738,-6.282 -23.398,-13.058 -33.5,-21.2 c-10.101,8.143 -20.763,14.918 -33.5,21.2" fill="none" stroke="#000000" stroke-width="2" /><path d="M36.5,61.5 c15.439,-1.71 29.385,-5.685 38.5,-10.5" fill="none" stroke="#000000" stroke-width="2" /><path d="M36.25,76.5 c20.659,-1.99 36.827,-6.821 47.75,-13.25" fill="none" stroke="#000000" stroke-width="2" /><path d="M36,91.5 c25.879,-2.271 44.27,-7.958 57,-16" fill="none" stroke="#000000" stroke-width="2" /><path d="M65,26 c9.057,-4.745 16.852,-10.208 23,-16" fill="none" stroke="#000000" stroke-width="2" /><path d="M32,42 c11.164,-5.75 20.435,-12.75 27,-20" fill="none" stroke="#000000" stroke-width="2" /><path d="M32,26 c9.057,-4.745 16.852,-10.208 23,-16" fill="none" stroke="#000000" stroke-width="2" /><path d="M70,39 c8.834,-4.922 16.543,-10.975 22,-17" fill="none" stroke="#000000" stroke-width="2" /></svg>