<?xml version='1.0' encoding='utf-8'?>
<svg xmlns="http://www.w3.org/2000/svg" height="100px" version="1.0" viewBox="0 0 100 100" width="100px" x="0px" y="0px">
<line fill="none" stroke="#000000" stroke-width="2" x1="17.5" x2="17.5" y1="94" y2="6" /><line fill="none" stroke="#000000" stroke-width="2" x1="30" x2="3.5" y1="26" y2="26" /><line fill="none" stroke="#000000" stroke-width="2" x1="34" x2="96.5" y1="88.5" y2="88.5" /><polyline fill="none" points="96,10.5 34,10.5 34,95" stroke="#000000" stroke-width="2" /><polyline fill="none" points="44.5,77.5 64,77.5 64,50 43.5,50 43.5,78.5" stroke="#000000" stroke-width="2" /><polyline fill="none" points="73,77.5 92.5,77.5 92.5,50 72,50 72,78.5" stroke="#000000" stroke-width="2" /><polyline fill="none" points="51,41 86,41 86,20.5 50,20.5 50,42" stroke="#000000" stroke-width="2" /><path d="M2.5,70 c6.99,-14.471 11.578,-28.562 14.5,-44.5" fill="none" stroke="#000000" stroke-width="2" /><path d="M30,61 c-3.734,-11.179 -7.832,-22.807 -12,-34" fill="none" stroke="#000000" stroke-width="2" /></svg>