<?xml version='1.0' encoding='utf-8'?>
<svg xmlns="http://www.w3.org/2000/svg" height="100px" version="1.0" viewBox="0 0 100 100" width="100px" x="0px" y="0px">
<line fill="none" stroke="#000000" stroke-width="2" x1="19.5" x2="19.5" y1="94" y2="6" /><line fill="none" stroke="#000000" stroke-width="2" x1="31.5" x2="4.5" y1="26" y2="26" /><line fill="none" stroke="#000000" stroke-width="2" x1="39" x2="86" y1="53.5" y2="53.5" /><line fill="none" stroke="#000000" stroke-width="2" x1="27" x2="95" y1="77.5" y2="77.5" /><line fill="none" stroke="#000000" stroke-width="2" x1="63" x2="63" y1="94" y2="68" /><line fill="none" stroke="#000000" stroke-width="2" x1="30" x2="95" y1="32.5" y2="32.5" /><line fill="none" stroke="#000000" stroke-width="2" x1="32" x2="94" y1="15" y2="15" /><line fill="none" stroke="#000000" stroke-width="2" x1="63" x2="63" y1="15" y2="4.5" /><polyline fill="none" points="39,67 87,67 87,41 38,41 38,68" stroke="#000000" stroke-width="2" /><path d="M3.5,70 c7.473,-14.471 12.377,-28.562 15.5,-44.5" fill="none" stroke="#000000" stroke-width="2" /><path d="M31.5,59 c-3.664,-10.331 -7.621,-21.329 -11.5,-32" fill="none" stroke="#000000" stroke-width="2" /><path d="M71.5,32.5 c4.041,-4.94 7.256,-10.87 9.5,-17.5" fill="none" stroke="#000000" stroke-width="2" /><path d="M52.5,32.5 c-2.729,-5.93 -5.852,-11.708 -9.5,-17.5" fill="none" stroke="#000000" stroke-width="2" /></svg>