<?xml version='1.0' encoding='utf-8'?>
<svg xmlns="http://www.w3.org/2000/svg" height="100px" version="1.0" viewBox="0 0 100 100" width="100px" x="0px" y="0px">
<line fill="none" stroke="#000000" stroke-width="2" x1="18.5" x2="18.5" y1="94" y2="6" /><line fill="none" stroke="#000000" stroke-width="2" x1="29.5" x2="4.5" y1="26" y2="26" /><line fill="none" stroke="#000000" stroke-width="2" x1="96" x2="32.5" y1="26" y2="26" /><line fill="none" stroke="#000000" stroke-width="2" x1="35.5" x2="91.5" y1="10" y2="10" /><polyline fill="none" points="48.5,88 48.5,68.5 77.5,68.5 77.5,84 49.5,84" stroke="#000000" stroke-width="2" /><path d="M3.5,70 c6.99,-14.471 11.578,-28.562 14.5,-44.5" fill="none" stroke="#000000" stroke-width="2" /><path d="M30.5,59 c-3.664,-10.331 -7.621,-21.329 -11.5,-32" fill="none" stroke="#000000" stroke-width="2" /><path d="M75.5,90 c5.605,0.363 9.002,0.5 10.5,0.5 c5.086,0 5.5,-0.673 5.5,-8 V51.0 h-57.0 v41.0" fill="none" stroke="#000000" stroke-width="2" /><path d="M30.5,44.5 c13.256,-4.505 25.456,-10.74 36.5,-18.5" fill="none" stroke="#000000" stroke-width="2" /><path d="M45,14 c7.423,3.302 15.211,7.378 23,12" fill="none" stroke="#000000" stroke-width="2" /><path d="M95.301,26.287 c-5.355,5.228 -11.65,9.725 -19.301,13.713" fill="none" stroke="#000000" stroke-width="2" /><path d="M68,26 v15.0 c0,3.64 -0.719,4.5 -5.5,4.5 c-2.051,0 -6.937,-0.172 -12.5,-0.5" fill="none" stroke="#000000" stroke-width="2" /><path d="M90.982,10.144 c-8.447,5.096 -17.43,9.293 -27.982,12.856" fill="none" stroke="#000000" stroke-width="2" /><path d="M68,52 v7.0 c0,4.192 0.395,4.5 8,4.5 h14.5" fill="none" stroke="#000000" stroke-width="2" /><path d="M55.5,52 c0,8.169 -4.475,12.729 -17.5,15.5" fill="none" stroke="#000000" stroke-width="2" /></svg>