<?xml version='1.0' encoding='utf-8'?>
<svg xmlns="http://www.w3.org/2000/svg" height="100px" version="1.0" viewBox="0 0 100 100" width="100px" x="0px" y="0px">
<line fill="none" stroke="#000000" stroke-width="2" x1="19.5" x2="19.5" y1="94" y2="6" /><line fill="none" stroke="#000000" stroke-width="2" x1="30.5" x2="4.5" y1="26" y2="26" /><line fill="none" stroke="#000000" stroke-width="2" x1="63.5" x2="63.5" y1="24" y2="41" /><line fill="none" stroke="#000000" stroke-width="2" x1="45" x2="75.5" y1="12.5" y2="12.5" /><polyline fill="none" points="36,23 36,41 92,41 92,23 36.5,23" stroke="#000000" stroke-width="2" /><path d="M3.5,70 c7.473,-14.471 12.377,-28.562 15.5,-44.5" fill="none" stroke="#000000" stroke-width="2" /><path d="M32.5,61.5 c-3.982,-11.138 -8.284,-22.995 -12.5,-34.5" fill="none" stroke="#000000" stroke-width="2" /><path d="M67.5,23 c2.604,-3.215 5.188,-6.838 7.145,-10.023" fill="none" stroke="#000000" stroke-width="2" /><path d="M27,30.5 c9.93,-7.001 17.646,-15.789 22.5,-25.5" fill="none" stroke="#000000" stroke-width="2" /><path d="M30.5,56 c14.311,-4.347 24.771,-9.526 31.5,-15" fill="none" stroke="#000000" stroke-width="2" /><path d="M50.5,90.5 c5.316,0.349 10.149,0.5 13,0.5 c5.087,0 7,-2.4 7,-14.5 c0,-12.31 -5.5,-24.136 -14.5,-31" fill="none" stroke="#000000" stroke-width="2" /><path d="M28.5,72.5 c16.674,-4.765 28.221,-10.7 36,-17.5" fill="none" stroke="#000000" stroke-width="2" /><path d="M27.5,89 c19.44,-5.636 33.059,-13.001 42,-21.5" fill="none" stroke="#000000" stroke-width="2" /><path d="M94,47.5 c-5.859,6.253 -12.363,11.3 -19.5,15" fill="none" stroke="#000000" stroke-width="2" /><path d="M65.5,41 c4.527,18.344 17.194,36.96 32,47.5" fill="none" stroke="#000000" stroke-width="2" /></svg>