<?xml version='1.0' encoding='utf-8'?>
<svg xmlns="http://www.w3.org/2000/svg" height="100px" version="1.0" viewBox="0 0 100 100" width="100px" x="0px" y="0px">
<line fill="none" stroke="#000000" stroke-width="2" x1="19" x2="19" y1="94" y2="6" /><line fill="none" stroke="#000000" stroke-width="2" x1="29.5" x2="4" y1="26" y2="26" /><line fill="none" stroke="#000000" stroke-width="2" x1="79.5" x2="47.5" y1="17.5" y2="17.5" /><line fill="none" stroke="#000000" stroke-width="2" x1="39.5" x2="88.5" y1="89" y2="89" /><line fill="none" stroke="#000000" stroke-width="2" x1="63.5" x2="63.5" y1="51.5" y2="26.5" /><line fill="none" stroke="#000000" stroke-width="2" x1="39.5" x2="88.5" y1="74" y2="74" /><polyline fill="none" points="88.5,94.5 88.5,59.5 38.5,59.5 38.5,94.5" stroke="#000000" stroke-width="2" /><polyline fill="none" points="35.5,51.5 92.5,51.5 92.5,25.5 34.5,25.5 34.5,52.5" stroke="#000000" stroke-width="2" /><path d="M3,70 c7.473,-14.471 12.377,-28.562 15.5,-44.5" fill="none" stroke="#000000" stroke-width="2" /><path d="M31,59 c-3.664,-10.331 -7.621,-21.329 -11.5,-32" fill="none" stroke="#000000" stroke-width="2" /><path d="M98,24 c-13.124,-5.976 -24.099,-12.502 -34.5,-20.3 C53.098,11.498 42.123,18.024 29,24" fill="none" stroke="#000000" stroke-width="2" /><path d="M72.5,47.5 c4.253,-5.033 7.717,-11.207 10,-18" fill="none" stroke="#000000" stroke-width="2" /><path d="M53.5,47.5 c-2.819,-6.076 -6.159,-12.099 -10,-18" fill="none" stroke="#000000" stroke-width="2" /></svg>