<?xml version='1.0' encoding='utf-8'?>
<svg xmlns="http://www.w3.org/2000/svg" height="100px" version="1.0" viewBox="0 0 100 100" width="100px" x="0px" y="0px">
<line fill="none" stroke="#000000" stroke-width="2" x1="19" x2="19" y1="94" y2="6" /><line fill="none" stroke="#000000" stroke-width="2" x1="31" x2="4.5" y1="25.5" y2="25.5" /><line fill="none" stroke="#000000" stroke-width="2" x1="31.5" x2="93.5" y1="10.5" y2="10.5" /><line fill="none" stroke="#000000" stroke-width="2" x1="36.5" x2="88.5" y1="21.5" y2="21.5" /><line fill="none" stroke="#000000" stroke-width="2" x1="62.5" x2="62.5" y1="21.5" y2="3" /><line fill="none" stroke="#000000" stroke-width="2" x1="36.5" x2="85" y1="39" y2="39" /><line fill="none" stroke="#000000" stroke-width="2" x1="31.5" x2="93.5" y1="50" y2="50" /><line fill="none" stroke="#000000" stroke-width="2" x1="62.5" x2="62.5" y1="50" y2="39" /><line fill="none" stroke="#000000" stroke-width="2" x1="95.5" x2="59.5" y1="69" y2="69" /><line fill="none" stroke="#000000" stroke-width="2" x1="96" x2="29" y1="59" y2="59" /><line fill="none" stroke="#000000" stroke-width="2" x1="55.5" x2="33" y1="87" y2="87" /><line fill="none" stroke="#000000" stroke-width="2" x1="29" x2="96" y1="30.5" y2="30.5" /><polyline fill="none" points="32,92.5 32,68 55.5,68 55.5,91" stroke="#000000" stroke-width="2" /><path d="M3.5,69.5 c7.252,-14.471 11.969,-28.562 15,-44.5" fill="none" stroke="#000000" stroke-width="2" /><path d="M29,55.5 c-2.942,-9.558 -6.164,-19.378 -9.5,-29" fill="none" stroke="#000000" stroke-width="2" /><path d="M74.5,88 c-3.134,-4.554 -7.498,-9.708 -12,-14" fill="none" stroke="#000000" stroke-width="2" /><path d="M88,59 v25.5 c0,6.398 -0.428,7 -4,7 c-1.225,0 -4.16,-0.157 -8,-0.5" fill="none" stroke="#000000" stroke-width="2" /><path d="M88.5,41 c2.852,-3.354 4.895,-6.422 6.601,-9.937" fill="none" stroke="#000000" stroke-width="2" /></svg>