<?xml version='1.0' encoding='utf-8'?>
<svg xmlns="http://www.w3.org/2000/svg" height="100px" version="1.0" viewBox="0 0 100 100" width="100px" x="0px" y="0px">
<line fill="none" stroke="#000000" stroke-width="2" x1="38.5" x2="38.5" y1="51" y2="94" /><line fill="none" stroke="#000000" stroke-width="2" x1="93" x2="39" y1="50.5" y2="50.5" /><line fill="none" stroke="#000000" stroke-width="2" x1="67" x2="67" y1="88" y2="50.5" /><line fill="none" stroke="#000000" stroke-width="2" x1="39.5" x2="95" y1="88" y2="88" /><line fill="none" stroke="#000000" stroke-width="2" x1="38.5" x2="91" y1="75.5" y2="75.5" /><line fill="none" stroke="#000000" stroke-width="2" x1="38.5" x2="91" y1="63" y2="63" /><line fill="none" stroke="#000000" stroke-width="2" x1="19" x2="19" y1="94" y2="6" /><line fill="none" stroke="#000000" stroke-width="2" x1="29.5" x2="4" y1="26" y2="26" /><polyline fill="none" points="64.5,10 92,10 92,42" stroke="#000000" stroke-width="2" /><polyline fill="none" points="31.5,10 59,10 59,42" stroke="#000000" stroke-width="2" /><path d="M73.5,39 c-1.9,4.241 -4.202,7.979 -7,11.5" fill="none" stroke="#000000" stroke-width="2" /><path d="M26.5,65 c7.671,-7.431 13.295,-15.469 18,-26" fill="none" stroke="#000000" stroke-width="2" /><path d="M3,70 c7.473,-14.471 12.377,-28.562 15.5,-44.5" fill="none" stroke="#000000" stroke-width="2" /><path d="M30,55 c-3.316,-9.321 -6.797,-18.59 -10.5,-28" fill="none" stroke="#000000" stroke-width="2" /><path d="M32,42 c11.164,-5.75 20.434,-12.75 27,-20" fill="none" stroke="#000000" stroke-width="2" /><path d="M32,26 c9.057,-4.745 16.852,-10.208 23,-16" fill="none" stroke="#000000" stroke-width="2" /><path d="M65,42 c11.164,-5.75 20.434,-12.75 27,-20" fill="none" stroke="#000000" stroke-width="2" /><path d="M65,26 c9.057,-4.745 16.852,-10.208 23,-16" fill="none" stroke="#000000" stroke-width="2" /></svg>