<?xml version='1.0' encoding='utf-8'?>
<svg xmlns="http://www.w3.org/2000/svg" height="100px" version="1.0" viewBox="0 0 100 100" width="100px" x="0px" y="0px">
<line fill="none" stroke="#000000" stroke-width="2" x1="26.5" x2="56" y1="52" y2="50" /><line fill="none" stroke="#000000" stroke-width="2" x1="42.5" x2="42.5" y1="51" y2="94" /><line fill="none" stroke="#000000" stroke-width="2" x1="18" x2="18" y1="94" y2="6" /><line fill="none" stroke="#000000" stroke-width="2" x1="28.5" x2="3.5" y1="26" y2="26" /><line fill="none" stroke="#000000" stroke-width="2" x1="57.5" x2="97.5" y1="40.5" y2="40.5" /><line fill="none" stroke="#000000" stroke-width="2" x1="90" x2="62" y1="27.5" y2="27.5" /><path d="M57,56.5 c-1.279,-7.545 -3.49,-16.5 -6,-24" fill="none" stroke="#000000" stroke-width="2" /><path d="M28.5,87.5 c2.624,-9.126 4.357,-19.038 5,-28.5" fill="none" stroke="#000000" stroke-width="2" /><path d="M54,82.5 c-0.547,-7.585 -1.604,-15.938 -3,-24" fill="none" stroke="#000000" stroke-width="2" /><path d="M32,51.5 c8.018,-11.415 15.133,-23.412 21.5,-36.5" fill="none" stroke="#000000" stroke-width="2" /><path d="M39,41 c-2.955,-6.562 -7.184,-15.377 -10.5,-22" fill="none" stroke="#000000" stroke-width="2" /><path d="M32.5,27.5 c3.982,-7.057 7.565,-14.049 11,-21.5" fill="none" stroke="#000000" stroke-width="2" /><path d="M3,70 c6.99,-14.471 11.578,-28.562 14.5,-44.5" fill="none" stroke="#000000" stroke-width="2" /><path d="M28.5,57 c-3.095,-9.87 -6.541,-20.117 -10,-30" fill="none" stroke="#000000" stroke-width="2" /><path d="M58,57 c8.986,-4.489 15.352,-9.856 20,-16.5" fill="none" stroke="#000000" stroke-width="2" /><path d="M69,91 c3.456,0.358 6.146,0.5 8,0.5 c3.403,0 4.5,-1.768 4.5,-14 c0,-12.576 -3.42,-24.511 -8.5,-31" fill="none" stroke="#000000" stroke-width="2" /><path d="M58,72.5 c9.08,-4.617 15.689,-10.417 20,-17" fill="none" stroke="#000000" stroke-width="2" /><path d="M56,89.5 c11.337,-5.69 19.535,-12.751 25,-21" fill="none" stroke="#000000" stroke-width="2" /><path d="M96.5,48.5 c-3.197,6.229 -6.671,11.132 -10.5,15" fill="none" stroke="#000000" stroke-width="2" /><path d="M81.5,40.5 c2.002,18.39 8.552,37.329 16,48.5" fill="none" stroke="#000000" stroke-width="2" /><path d="M88,40.5 c1.896,-11.175 2.76,-17.425 4,-28 h-27.5" fill="none" stroke="#000000" stroke-width="2" /><path d="M61,34 c2.363,-11.989 3.464,-18.665 5,-30" fill="none" stroke="#000000" stroke-width="2" /></svg>