<?xml version='1.0' encoding='utf-8'?>
<svg xmlns="http://www.w3.org/2000/svg" height="100px" version="1.0" viewBox="0 0 100 100" width="100px" x="0px" y="0px">
<line fill="none" stroke="#000000" stroke-width="2" x1="19" x2="19" y1="94" y2="6" /><line fill="none" stroke="#000000" stroke-width="2" x1="31" x2="4.5" y1="25.5" y2="25.5" /><line fill="none" stroke="#000000" stroke-width="2" x1="95" x2="31.5" y1="58.5" y2="58.5" /><line fill="none" stroke="#000000" stroke-width="2" x1="35.5" x2="60" y1="31" y2="31" /><line fill="none" stroke="#000000" stroke-width="2" x1="35.5" x2="60" y1="20.5" y2="20.5" /><line fill="none" stroke="#000000" stroke-width="2" x1="67.5" x2="92" y1="31" y2="31" /><line fill="none" stroke="#000000" stroke-width="2" x1="67.5" x2="92" y1="20.5" y2="20.5" /><polyline fill="none" points="35.5,41.5 60,41.5 60,10 34.5,10 34.5,42.5" stroke="#000000" stroke-width="2" /><polyline fill="none" points="67.5,41.5 92,41.5 92,10 66.5,10 66.5,42.5" stroke="#000000" stroke-width="2" /><path d="M3.5,69.5 c7.252,-14.471 11.969,-28.562 15,-44.5" fill="none" stroke="#000000" stroke-width="2" /><path d="M29,53.5 c-2.922,-9.185 -5.986,-17.909 -9.5,-27" fill="none" stroke="#000000" stroke-width="2" /><path d="M28,92 c27.529,-4.142 46.967,-16.913 55,-33.5" fill="none" stroke="#000000" stroke-width="2" /><path d="M56,49.5 c-5.563,9.745 -12.539,18.701 -21.5,27.5" fill="none" stroke="#000000" stroke-width="2" /><path d="M38.5,73 c18.468,3.728 33.769,9.226 54,19.5" fill="none" stroke="#000000" stroke-width="2" /><path d="M31.5,54.5 c5.021,-2.638 9.453,-6.252 12.5,-10" fill="none" stroke="#000000" stroke-width="2" /><path d="M65,54 c4.619,-2.506 8.686,-5.95 11.5,-9.5" fill="none" stroke="#000000" stroke-width="2" /><path d="M95,54.5 c-3.139,-3.284 -7.578,-6.897 -12.5,-10" fill="none" stroke="#000000" stroke-width="2" /><path d="M61.5,54 c-2.889,-3.12 -6.977,-6.544 -11.5,-9.5" fill="none" stroke="#000000" stroke-width="2" /></svg>