<?xml version='1.0' encoding='utf-8'?>
<svg xmlns="http://www.w3.org/2000/svg" height="100px" version="1.0" viewBox="0 0 100 100" width="100px" x="0px" y="0px">
<line fill="none" stroke="#000000" stroke-width="2" x1="18.5" x2="18.5" y1="94" y2="6" /><line fill="none" stroke="#000000" stroke-width="2" x1="29" x2="4" y1="25.5" y2="25.5" /><line fill="none" stroke="#000000" stroke-width="2" x1="31.5" x2="32.5" y1="11" y2="45.5" /><line fill="none" stroke="#000000" stroke-width="2" x1="32.5" x2="48" y1="33.5" y2="33.5" /><line fill="none" stroke="#000000" stroke-width="2" x1="32" x2="48" y1="21.5" y2="21.5" /><line fill="none" stroke="#000000" stroke-width="2" x1="54" x2="71" y1="11.5" y2="11.5" /><line fill="none" stroke="#000000" stroke-width="2" x1="74.5" x2="90" y1="33.5" y2="33.5" /><line fill="none" stroke="#000000" stroke-width="2" x1="74.5" x2="90.5" y1="21.5" y2="21.5" /><line fill="none" stroke="#000000" stroke-width="2" x1="54.5" x2="54" y1="28.5" y2="45.5" /><line fill="none" stroke="#000000" stroke-width="2" x1="95.5" x2="28" y1="45.5" y2="45.5" /><line fill="none" stroke="#000000" stroke-width="2" x1="95.5" x2="27" y1="79.5" y2="79.5" /><line fill="none" stroke="#000000" stroke-width="2" x1="88.5" x2="34" y1="67" y2="67" /><polyline fill="none" points="74.5,9.5 91,9.5 90,45.5" stroke="#000000" stroke-width="2" /><polyline fill="none" points="54,7 53.5,23.5 69.5,23.5 69,45.5" stroke="#000000" stroke-width="2" /><path d="M3,69.5 c7.252,-14.471 11.969,-28.562 15,-44.5" fill="none" stroke="#000000" stroke-width="2" /><path d="M28.5,53.5 c-2.922,-9.185 -5.986,-17.909 -9.5,-27" fill="none" stroke="#000000" stroke-width="2" /><path d="M30.64,12.018 c6.119,-0.854 11.517,-1.911 17.86,-3.518" fill="none" stroke="#000000" stroke-width="2" /><path d="M62.5,55 v32.0 c0,5.177 -0.753,6 -6,6 c-2.742,0 -7.502,-0.171 -12.5,-0.5" fill="none" stroke="#000000" stroke-width="2" /><path d="M43,56.5 c14.152,-0.493 25.474,-1.92 34,-4" fill="none" stroke="#000000" stroke-width="2" /><path d="M96,66 c-7.4,-4.425 -14.737,-11.648 -20.5,-20.5" fill="none" stroke="#000000" stroke-width="2" /><path d="M26.5,66 c7.4,-4.425 14.737,-11.648 20.5,-20.5" fill="none" stroke="#000000" stroke-width="2" /></svg>