<?xml version='1.0' encoding='utf-8'?>
<svg xmlns="http://www.w3.org/2000/svg" height="100px" version="1.0" viewBox="0 0 100 100" width="100px" x="0px" y="0px">
<line fill="none" stroke="#000000" stroke-width="2" x1="19.5" x2="19.5" y1="94" y2="6" /><line fill="none" stroke="#000000" stroke-width="2" x1="30.5" x2="4.5" y1="26" y2="26" /><line fill="none" stroke="#000000" stroke-width="2" x1="36" x2="36" y1="52.5" y2="94" /><line fill="none" stroke="#000000" stroke-width="2" x1="93" x2="36.5" y1="52" y2="52" /><line fill="none" stroke="#000000" stroke-width="2" x1="66" x2="66" y1="88" y2="52" /><line fill="none" stroke="#000000" stroke-width="2" x1="37" x2="95" y1="88" y2="88" /><line fill="none" stroke="#000000" stroke-width="2" x1="36" x2="91" y1="75.5" y2="75.5" /><line fill="none" stroke="#000000" stroke-width="2" x1="36" x2="91" y1="63.5" y2="63.5" /><line fill="none" stroke="#000000" stroke-width="2" x1="28" x2="95" y1="12" y2="12" /><line fill="none" stroke="#000000" stroke-width="2" x1="48.5" x2="48.5" y1="18.5" y2="4" /><line fill="none" stroke="#000000" stroke-width="2" x1="75" x2="75" y1="18.5" y2="4" /><polyline fill="none" points="34.5,41 60,41 60,21.5 33.5,21.5 33.5,42" stroke="#000000" stroke-width="2" /><polyline fill="none" points="68,41 93.5,41 93.5,21.5 67,21.5 67,42" stroke="#000000" stroke-width="2" /><path d="M3.5,70 c7.473,-14.471 12.377,-28.562 15.5,-44.5" fill="none" stroke="#000000" stroke-width="2" /><path d="M31,53 c-3.564,-8.917 -7.025,-17.127 -11,-26" fill="none" stroke="#000000" stroke-width="2" /><path d="M71.5,41 c-1.629,4.057 -3.602,7.633 -6,11" fill="none" stroke="#000000" stroke-width="2" /><path d="M24,66.5 c7.671,-7.288 13.295,-15.172 18,-25.5" fill="none" stroke="#000000" stroke-width="2" /></svg>