<?xml version='1.0' encoding='utf-8'?>
<svg xmlns="http://www.w3.org/2000/svg" height="100px" version="1.0" viewBox="0 0 100 100" width="100px" x="0px" y="0px">
<line fill="none" stroke="#000000" stroke-width="2" x1="62.5" x2="96" y1="18" y2="18" /><line fill="none" stroke="#000000" stroke-width="2" x1="9.5" x2="44.5" y1="87.5" y2="87.5" /><polyline fill="none" points="49.5,10.5 9.5,10.5 9.5,93.5" stroke="#000000" stroke-width="2" /><polyline fill="none" points="17.5,76.5 29.5,76.5 29.5,49.5 16.5,49.5 16.5,77.5" stroke="#000000" stroke-width="2" /><polyline fill="none" points="36.5,76.5 48.5,76.5 48.5,49.5 35.5,49.5 35.5,77.5" stroke="#000000" stroke-width="2" /><polyline fill="none" points="21.5,40.5 44.5,40.5 44.5,20.5 20.5,20.5 20.5,41.5" stroke="#000000" stroke-width="2" /><path d="M47,90 c13.207,-6.345 26,-27.731 26,-48 v-16.0" fill="none" stroke="#000000" stroke-width="2" /><path d="M97,90 c-12.271,-6.388 -24,-27.952 -24,-48" fill="none" stroke="#000000" stroke-width="2" /><path d="M51.5,45 c6.293,-11.127 11.08,-24.556 14,-40" fill="none" stroke="#000000" stroke-width="2" /><path d="M87,44.5 c3.469,-7.408 6.155,-15.891 8.022,-25.688" fill="none" stroke="#000000" stroke-width="2" /></svg>