<?xml version='1.0' encoding='utf-8'?>
<svg xmlns="http://www.w3.org/2000/svg" height="100px" version="1.0" viewBox="0 0 100 100" width="100px" x="0px" y="0px">
<line fill="none" stroke="#000000" stroke-width="2" x1="51.5" x2="92" y1="48" y2="48" /><line fill="none" stroke="#000000" stroke-width="2" x1="9.5" x2="44.5" y1="87.5" y2="87.5" /><polyline fill="none" points="49.5,10.5 9.5,10.5 9.5,93.5" stroke="#000000" stroke-width="2" /><polyline fill="none" points="17.5,76.5 29.5,76.5 29.5,49.5 16.5,49.5 16.5,77.5" stroke="#000000" stroke-width="2" /><polyline fill="none" points="36.5,76.5 48.5,76.5 48.5,49.5 35.5,49.5 35.5,77.5" stroke="#000000" stroke-width="2" /><polyline fill="none" points="21.5,40.5 44.5,40.5 44.5,20.5 20.5,20.5 20.5,41.5" stroke="#000000" stroke-width="2" /><path d="M49,42.5 c6.906,-5.247 9.5,-11.316 9.5,-26 V10.0 h22.5 v26.5 c0,2.755 0.313,3 4,3 c9.482,0 9.91,-0.383 11,-13.5" fill="none" stroke="#000000" stroke-width="2" /><path d="M46.5,91 c23.004,-8.812 35.949,-20.947 44.572,-42.373" fill="none" stroke="#000000" stroke-width="2" /><path d="M95,91 c-17.996,-9.464 -31.938,-22.547 -40.5,-37.5" fill="none" stroke="#000000" stroke-width="2" /></svg>