<?xml version='1.0' encoding='utf-8'?>
<svg xmlns="http://www.w3.org/2000/svg" height="100px" version="1.0" viewBox="0 0 100 100" width="100px" x="0px" y="0px">
<line fill="none" stroke="#000000" stroke-width="2" x1="92" x2="31" y1="50" y2="50" /><line fill="none" stroke="#000000" stroke-width="2" x1="83.5" x2="39.5" y1="31" y2="31" /><line fill="none" stroke="#000000" stroke-width="2" x1="61" x2="61" y1="16" y2="4" /><polyline fill="none" points="90.5,34 90.5,16 32.5,16 32.5,34" stroke="#000000" stroke-width="2" /><path d="M8.5,91.5 c7.072,-9.315 12.963,-19.819 17,-30.5" fill="none" stroke="#000000" stroke-width="2" /><path d="M25.5,22.5 c-4.551,-4.456 -9.955,-9.209 -16,-14" fill="none" stroke="#000000" stroke-width="2" /><path d="M22,45.5 c-5.014,-4.892 -10.751,-9.858 -17.5,-15" fill="none" stroke="#000000" stroke-width="2" /><path d="M23.5,91.5 c21.745,-6.462 29,-15.771 29,-41.5" fill="none" stroke="#000000" stroke-width="2" /><path d="M69.5,50 v34.5 c0,5.396 0.592,6 11.5,6 c11.795,0 12.02,-0.242 12.5,-22.5" fill="none" stroke="#000000" stroke-width="2" /></svg>