<?xml version='1.0' encoding='utf-8'?>
<svg xmlns="http://www.w3.org/2000/svg" height="100px" version="1.0" viewBox="0 0 100 100" width="100px" x="0px" y="0px">
<line fill="none" stroke="#000000" stroke-width="2" x1="26.5" x2="26.5" y1="10" y2="93" /><line fill="none" stroke="#000000" stroke-width="2" x1="27.5" x2="50" y1="60" y2="60" /><line fill="none" stroke="#000000" stroke-width="2" x1="27.5" x2="50" y1="35" y2="35" /><polyline fill="none" points="26.5,86 50,86 50,11 27.5,11" stroke="#000000" stroke-width="2" /><path d="M7,91.5 c5.156,-9.315 9.464,-19.845 12.5,-30.5" fill="none" stroke="#000000" stroke-width="2" /><path d="M22,22.5 c-4.127,-4.427 -9.06,-9.209 -14.5,-14" fill="none" stroke="#000000" stroke-width="2" /><path d="M19.5,45.5 c-4.589,-4.819 -9.926,-9.858 -16,-15" fill="none" stroke="#000000" stroke-width="2" /><path d="M97.5,51 c-2.82,-11.877 -6.403,-24.079 -10.5,-35.5" fill="none" stroke="#000000" stroke-width="2" /><path d="M76.5,6 v46.0 c0,7.604 -0.321,8 -4.5,8 c-1.24,0 -4.062,-0.14 -8.5,-0.5" fill="none" stroke="#000000" stroke-width="2" /><path d="M54,53.5 c4.287,-10.377 7.912,-23.916 10,-38" fill="none" stroke="#000000" stroke-width="2" /><path d="M92,47.5 c-5.301,23.976 -20.529,40.231 -39,45" fill="none" stroke="#000000" stroke-width="2" /></svg>