<?xml version='1.0' encoding='utf-8'?>
<svg xmlns="http://www.w3.org/2000/svg" height="100px" version="1.0" viewBox="0 0 100 100" width="100px" x="0px" y="0px">
<line fill="none" stroke="#000000" stroke-width="2" x1="40.5" x2="40.5" y1="94" y2="11.5" /><line fill="none" stroke="#000000" stroke-width="2" x1="56.5" x2="23" y1="33" y2="33" /><path d="M7,91.5 c5.156,-9.315 9.464,-19.845 12.5,-30.5" fill="none" stroke="#000000" stroke-width="2" /><path d="M22,22.5 c-4.127,-4.427 -9.06,-9.209 -14.5,-14" fill="none" stroke="#000000" stroke-width="2" /><path d="M19.5,45.5 c-4.589,-4.819 -9.926,-9.858 -16,-15" fill="none" stroke="#000000" stroke-width="2" /><path d="M56.5,8 c-11.113,2.732 -21.826,4.7 -32.5,6" fill="none" stroke="#000000" stroke-width="2" /><path d="M22,72.5 c8.646,-13.023 14.313,-25.675 18,-40" fill="none" stroke="#000000" stroke-width="2" /><path d="M55,63 c-4.282,-9.394 -9.137,-19.466 -14,-29" fill="none" stroke="#000000" stroke-width="2" /><path d="M64,20.5 c-0.861,12.496 -3.129,23.593 -6.5,33" fill="none" stroke="#000000" stroke-width="2" /><path d="M53.5,91 c13.158,-10.436 22,-30.592 22,-56 v-28.0" fill="none" stroke="#000000" stroke-width="2" /><path d="M97.5,91 c-13.181,-10.276 -22,-30.294 -22,-56" fill="none" stroke="#000000" stroke-width="2" /><path d="M95,19 c-1.527,12.022 -4.45,22.612 -8.5,31.5" fill="none" stroke="#000000" stroke-width="2" /></svg>