<?xml version='1.0' encoding='utf-8'?>
<svg xmlns="http://www.w3.org/2000/svg" height="100px" version="1.0" viewBox="0 0 100 100" width="100px" x="0px" y="0px">
<line fill="none" stroke="#000000" stroke-width="2" x1="61.5" x2="61.5" y1="56" y2="5.5" /><line fill="none" stroke="#000000" stroke-width="2" x1="29" x2="91" y1="56" y2="56" /><line fill="none" stroke="#000000" stroke-width="2" x1="68.5" x2="90.5" y1="27.5" y2="27.5" /><line fill="none" stroke="#000000" stroke-width="2" x1="32.5" x2="54.5" y1="27.5" y2="27.5" /><path d="M8,91.5 c7.072,-9.315 12.963,-19.819 17,-30.5" fill="none" stroke="#000000" stroke-width="2" /><path d="M25,22.5 c-4.551,-4.456 -9.955,-9.209 -16,-14" fill="none" stroke="#000000" stroke-width="2" /><path d="M21.5,45.5 c-5.014,-4.892 -10.751,-9.858 -17.5,-15" fill="none" stroke="#000000" stroke-width="2" /><path d="M26,91 c31.051,-5.803 53.818,-19.041 64.168,-34.555" fill="none" stroke="#000000" stroke-width="2" /><path d="M95.5,91 c-29.534,-5.894 -47.781,-16.053 -58.5,-30.5" fill="none" stroke="#000000" stroke-width="2" /><path d="M67.5,12 h23.0 v31.5 h-58.0 v-29.0 c8.422,-1.593 15.385,-3.841 22,-7" fill="none" stroke="#000000" stroke-width="2" /></svg>