<?xml version='1.0' encoding='utf-8'?>
<svg xmlns="http://www.w3.org/2000/svg" height="100px" version="1.0" viewBox="0 0 100 100" width="100px" x="0px" y="0px">
<path d="M8,91.5 c6.24,-9.315 11.438,-19.819 15,-30.5" fill="none" stroke="#000000" stroke-width="2" /><path d="M25,22.5 c-4.551,-4.456 -9.955,-9.209 -16,-14" fill="none" stroke="#000000" stroke-width="2" /><path d="M21.5,45.5 c-5.014,-4.892 -10.751,-9.858 -17.5,-15" fill="none" stroke="#000000" stroke-width="2" /><path d="M96.5,60 c-13.107,-6.304 -24.098,-13.058 -34.5,-21.2 c-10.402,8.143 -21.394,14.896 -34.5,21.2" fill="none" stroke="#000000" stroke-width="2" /><path d="M35,62 c15.841,-1.71 30.148,-5.685 39.5,-10.5" fill="none" stroke="#000000" stroke-width="2" /><path d="M34.75,77 c21.087,-1.99 37.598,-6.821 48.75,-13.25" fill="none" stroke="#000000" stroke-width="2" /><path d="M34.5,92 c26.333,-2.271 45.047,-7.958 58,-16" fill="none" stroke="#000000" stroke-width="2" /><path d="M93,23.5 c-4.963,-4.864 -11.729,-11.06 -17.5,-16" fill="none" stroke="#000000" stroke-width="2" /><path d="M31,20 c16.18,-0.366 35.432,-1.589 54.5,-3.5" fill="none" stroke="#000000" stroke-width="2" /><path d="M41.5,19.5 c3.646,-4.231 7.227,-9.17 10.5,-14.5" fill="none" stroke="#000000" stroke-width="2" /><path d="M31.5,39 c3.135,-5.177 6.088,-10.89 8.5,-16.5" fill="none" stroke="#000000" stroke-width="2" /><path d="M57.5,42 c-2.715,-4.71 -6.645,-10.827 -10,-15.5" fill="none" stroke="#000000" stroke-width="2" /><path d="M27,39.5 c8.877,-0.355 18.219,-1.205 27.5,-2.5" fill="none" stroke="#000000" stroke-width="2" /><path d="M70,39 c3.135,-5.177 6.088,-10.89 8.5,-16.5" fill="none" stroke="#000000" stroke-width="2" /><path d="M96,42 c-2.715,-4.71 -6.645,-10.827 -10,-15.5" fill="none" stroke="#000000" stroke-width="2" /><path d="M65.5,39.5 c8.877,-0.355 18.219,-1.205 27.5,-2.5" fill="none" stroke="#000000" stroke-width="2" /></svg>