<?xml version='1.0' encoding='utf-8'?>
<svg xmlns="http://www.w3.org/2000/svg" height="100px" version="1.0" viewBox="0 0 100 100" width="100px" x="0px" y="0px">
<line fill="none" stroke="#000000" stroke-width="2" x1="96.5" x2="34" y1="38" y2="38" /><line fill="none" stroke="#000000" stroke-width="2" x1="57.5" x2="94.5" y1="10" y2="10" /><line fill="none" stroke="#000000" stroke-width="2" x1="29" x2="29" y1="58.5" y2="5.5" /><line fill="none" stroke="#000000" stroke-width="2" x1="29" x2="5" y1="35" y2="35" /><line fill="none" stroke="#000000" stroke-width="2" x1="7" x2="43" y1="64" y2="64" /><polyline fill="none" points="9.5,7 9.5,24 29,24" stroke="#000000" stroke-width="2" /><path d="M85.5,26.5 v26.0 c0,4.587 -0.457,5 -6,5 c-1.952,0 -7.389,-0.166 -13.5,-0.5" fill="none" stroke="#000000" stroke-width="2" /><path d="M64,54 c-4.699,-3.903 -11.249,-8.32 -18,-12" fill="none" stroke="#000000" stroke-width="2" /><path d="M34,18 c14.341,-3.425 25.086,-8.037 32,-13" fill="none" stroke="#000000" stroke-width="2" /><path d="M93.601,10.563 c-4.927,10.146 -25.11,20.083 -59.601,23.938" fill="none" stroke="#000000" stroke-width="2" /><path d="M76.5,24 c-4.109,-3.45 -10.118,-7.684 -15,-10.5" fill="none" stroke="#000000" stroke-width="2" /><path d="M59.5,30 c-4.109,-3.45 -10.118,-7.684 -15,-10.5" fill="none" stroke="#000000" stroke-width="2" /><path d="M5.5,58 c4.717,-3.288 7,-8.899 7,-22" fill="none" stroke="#000000" stroke-width="2" /><path d="M51,53 v33.5 c0,5.21 -0.977,6 -7.5,6 c-3.369,0 -8.216,-0.152 -14.5,-0.5" fill="none" stroke="#000000" stroke-width="2" /><path d="M51,61.5 c7.255,10.471 24.232,22.175 44,29" fill="none" stroke="#000000" stroke-width="2" /><path d="M90,59.5 c-7.904,6.049 -16.707,10.888 -26.5,14.5" fill="none" stroke="#000000" stroke-width="2" /><path d="M42.162,64.453 c-5.918,9.053 -19.961,19.206 -37.162,25.547" fill="none" stroke="#000000" stroke-width="2" /></svg>