<?xml version='1.0' encoding='utf-8'?>
<svg xmlns="http://www.w3.org/2000/svg" height="100px" version="1.0" viewBox="0 0 100 100" width="100px" x="0px" y="0px">
<line fill="none" stroke="#000000" stroke-width="2" x1="60.5" x2="60.5" y1="41" y2="10" /><line fill="none" stroke="#000000" stroke-width="2" x1="29" x2="92" y1="10" y2="10" /><line fill="none" stroke="#000000" stroke-width="2" x1="34" x2="53.5" y1="30" y2="30" /><line fill="none" stroke="#000000" stroke-width="2" x1="34" x2="53.5" y1="40.5" y2="40.5" /><line fill="none" stroke="#000000" stroke-width="2" x1="67.5" x2="87" y1="30" y2="30" /><line fill="none" stroke="#000000" stroke-width="2" x1="67.5" x2="87" y1="40.5" y2="40.5" /><line fill="none" stroke="#000000" stroke-width="2" x1="79.5" x2="41.5" y1="56.5" y2="56.5" /><line fill="none" stroke="#000000" stroke-width="2" x1="58" x2="58" y1="94" y2="68" /><polyline fill="none" points="93.5,40.5 93.5,21 27.5,21 27.5,40.5" stroke="#000000" stroke-width="2" /><path d="M8,91.5 c5.156,-9.315 9.464,-19.845 12.5,-30.5" fill="none" stroke="#000000" stroke-width="2" /><path d="M23,22.5 c-4.127,-4.427 -9.06,-9.209 -14.5,-14" fill="none" stroke="#000000" stroke-width="2" /><path d="M20.5,45.5 c-4.589,-4.819 -9.926,-9.858 -16,-15" fill="none" stroke="#000000" stroke-width="2" /><path d="M27.5,68 h63.5 v13.0 c0,7.578 -0.344,8 -5.5,8 c-1.603,0 -8.47,-0.225 -14,-0.5" fill="none" stroke="#000000" stroke-width="2" /><path d="M96.5,61.5 c-13.678,-6.243 -25.146,-12.935 -36,-21 c-10.854,8.065 -22.323,14.757 -36,21" fill="none" stroke="#000000" stroke-width="2" /></svg>