<?xml version='1.0' encoding='utf-8'?>
<svg xmlns="http://www.w3.org/2000/svg" height="100px" version="1.0" viewBox="0 0 100 100" width="100px" x="0px" y="0px">
<line fill="none" stroke="#000000" stroke-width="2" x1="60" x2="26.5" y1="66.5" y2="66.5" /><line fill="none" stroke="#000000" stroke-width="2" x1="28" x2="58" y1="45.5" y2="45.5" /><line fill="none" stroke="#000000" stroke-width="2" x1="37.5" x2="37.5" y1="66.5" y2="33" /><line fill="none" stroke="#000000" stroke-width="2" x1="51" x2="51" y1="66.5" y2="33" /><line fill="none" stroke="#000000" stroke-width="2" x1="60" x2="93.5" y1="48" y2="48" /><polyline fill="none" points="29,10 58,10 58,29 28,29" stroke="#000000" stroke-width="2" /><path d="M7,91.5 c5.156,-9.315 9.464,-19.845 12.5,-30.5" fill="none" stroke="#000000" stroke-width="2" /><path d="M22,22.5 c-4.127,-4.427 -9.06,-9.209 -14.5,-14" fill="none" stroke="#000000" stroke-width="2" /><path d="M19.5,45.5 c-4.589,-4.819 -9.926,-9.858 -16,-15" fill="none" stroke="#000000" stroke-width="2" /><path d="M22,90 c3.877,-12.002 6,-27.663 6,-51 v-30.0" fill="none" stroke="#000000" stroke-width="2" /><path d="M27,92 c5.485,-5.471 10.273,-12.92 13,-20" fill="none" stroke="#000000" stroke-width="2" /><path d="M56.5,86 c-1.962,-4.765 -4.789,-9.783 -8,-14" fill="none" stroke="#000000" stroke-width="2" /><path d="M59.5,42.5 c5.119,-5.524 7,-11.316 7,-26 V10.0 h18.0 v26.5 c0,2.755 0.316,3 4.5,3 c6.301,0 6.643,-0.273 7.5,-13.5" fill="none" stroke="#000000" stroke-width="2" /><path d="M56.5,91 c18.604,-8.799 29.074,-20.916 36.049,-42.31" fill="none" stroke="#000000" stroke-width="2" /><path d="M95.5,91 c-14.133,-9.538 -25.252,-22.547 -32,-37.5" fill="none" stroke="#000000" stroke-width="2" /></svg>