<?xml version='1.0' encoding='utf-8'?>
<svg xmlns="http://www.w3.org/2000/svg" height="100px" version="1.0" viewBox="0 0 100 100" width="100px" x="0px" y="0px">
<line fill="none" stroke="#000000" stroke-width="2" x1="24" x2="95" y1="12" y2="12" /><line fill="none" stroke="#000000" stroke-width="2" x1="59.5" x2="59.5" y1="12" y2="3.5" /><line fill="none" stroke="#000000" stroke-width="2" x1="31.5" x2="87.5" y1="50.5" y2="50.5" /><polyline fill="none" points="35.5,35 35.5,20 83.5,20 83.5,34 36.5,34" stroke="#000000" stroke-width="2" /><polyline fill="none" points="93.5,57.5 93.5,42 25.5,42 25.5,57.5" stroke="#000000" stroke-width="2" /><path d="M8,91.5 c5.156,-9.315 9.464,-19.845 12.5,-30.5" fill="none" stroke="#000000" stroke-width="2" /><path d="M23,22.5 c-4.127,-4.427 -9.06,-9.209 -14.5,-14" fill="none" stroke="#000000" stroke-width="2" /><path d="M20.5,45.5 c-4.589,-4.819 -9.926,-9.858 -16,-15" fill="none" stroke="#000000" stroke-width="2" /><path d="M28,64 c15.537,-3.578 26.109,-8.081 33.5,-13.5" fill="none" stroke="#000000" stroke-width="2" /><path d="M27,76.5 c15.902,-3.841 26.651,-8.563 34,-14" fill="none" stroke="#000000" stroke-width="2" /><path d="M26,89 c18.383,-4.548 31.443,-10.465 40,-17" fill="none" stroke="#000000" stroke-width="2" /><path d="M90,57.5 c-5.467,4.982 -11.397,8.955 -18,12" fill="none" stroke="#000000" stroke-width="2" /><path d="M63,50.5 c3.923,15.139 15.852,30.564 31,39.5" fill="none" stroke="#000000" stroke-width="2" /><path d="M49,91 c5.127,0.357 9.25,0.5 12,0.5 c4.822,0 6,-1.344 6,-11.5 c0,-10.081 -5.105,-19.317 -13.5,-24.5" fill="none" stroke="#000000" stroke-width="2" /></svg>