<?xml version='1.0' encoding='utf-8'?>
<svg xmlns="http://www.w3.org/2000/svg" height="100px" version="1.0" viewBox="0 0 100 100" width="100px" x="0px" y="0px">
<line fill="none" stroke="#000000" stroke-width="2" x1="25" x2="93" y1="10.5" y2="10.5" /><line fill="none" stroke="#000000" stroke-width="2" x1="30" x2="88" y1="21.5" y2="21.5" /><line fill="none" stroke="#000000" stroke-width="2" x1="59" x2="59" y1="21.5" y2="3" /><line fill="none" stroke="#000000" stroke-width="2" x1="30" x2="84" y1="39" y2="39" /><line fill="none" stroke="#000000" stroke-width="2" x1="25" x2="93" y1="50" y2="50" /><line fill="none" stroke="#000000" stroke-width="2" x1="59" x2="59" y1="50" y2="39" /><line fill="none" stroke="#000000" stroke-width="2" x1="95" x2="55.5" y1="69" y2="69" /><line fill="none" stroke="#000000" stroke-width="2" x1="95.5" x2="22.5" y1="59" y2="59" /><line fill="none" stroke="#000000" stroke-width="2" x1="51.5" x2="28.5" y1="87" y2="87" /><line fill="none" stroke="#000000" stroke-width="2" x1="22.5" x2="95.5" y1="30.5" y2="30.5" /><polyline fill="none" points="27.5,92.5 27.5,68 51.5,68 51.5,91" stroke="#000000" stroke-width="2" /><path d="M8,91.5 c5.156,-9.315 9.464,-19.845 12.5,-30.5" fill="none" stroke="#000000" stroke-width="2" /><path d="M23,22.5 c-4.127,-4.427 -9.06,-9.209 -14.5,-14" fill="none" stroke="#000000" stroke-width="2" /><path d="M20.5,45.5 c-4.589,-4.819 -9.926,-9.858 -16,-15" fill="none" stroke="#000000" stroke-width="2" /><path d="M72,88 c-3.134,-4.554 -7.498,-9.708 -12,-14" fill="none" stroke="#000000" stroke-width="2" /><path d="M86.5,59 v25.5 c0,6.398 -0.428,7 -4,7 c-1.225,0 -4.16,-0.157 -8,-0.5" fill="none" stroke="#000000" stroke-width="2" /><path d="M88,41 c2.852,-3.354 4.895,-6.422 6.601,-9.937" fill="none" stroke="#000000" stroke-width="2" /></svg>