<?xml version='1.0' encoding='utf-8'?>
<svg xmlns="http://www.w3.org/2000/svg" height="100px" version="1.0" viewBox="0 0 100 100" width="100px" x="0px" y="0px">
<line fill="none" stroke="#000000" stroke-width="2" x1="21.5" x2="59.5" y1="35" y2="35" /><line fill="none" stroke="#000000" stroke-width="2" x1="57" x2="41" y1="19" y2="19" /><line fill="none" stroke="#000000" stroke-width="2" x1="29" x2="29" y1="35" y2="10" /><line fill="none" stroke="#000000" stroke-width="2" x1="59.5" x2="97" y1="10.5" y2="10.5" /><line fill="none" stroke="#000000" stroke-width="2" x1="64" x2="92.5" y1="57" y2="57" /><line fill="none" stroke="#000000" stroke-width="2" x1="64" x2="92.5" y1="41" y2="41" /><polyline fill="none" points="64,73.5 93.5,73.5 93.5,25.5 63,25.5 63,74.5" stroke="#000000" stroke-width="2" /><path d="M41,6 v54.0 c0,9.528 -0.406,10 -4,10 c-0.98,0 -2.855,-0.124 -6.5,-0.5" fill="none" stroke="#000000" stroke-width="2" /><path d="M22.5,68 c4.263,-7.641 7.912,-17.845 10,-28" fill="none" stroke="#000000" stroke-width="2" /><path d="M59,64 c-3.037,-8.242 -6.837,-16.554 -11,-24" fill="none" stroke="#000000" stroke-width="2" /><path d="M54.5,64 c-5.917,14.79 -17.533,24.899 -32.5,29" fill="none" stroke="#000000" stroke-width="2" /><path d="M7,91.5 c5.156,-9.315 9.464,-19.845 12.5,-30.5" fill="none" stroke="#000000" stroke-width="2" /><path d="M22,22.5 c-4.127,-4.427 -9.06,-9.209 -14.5,-14" fill="none" stroke="#000000" stroke-width="2" /><path d="M19.5,45.5 c-4.589,-4.819 -9.926,-9.858 -16,-15" fill="none" stroke="#000000" stroke-width="2" /><path d="M57,92.5 c7.049,-3.951 13.026,-9.159 16.5,-14" fill="none" stroke="#000000" stroke-width="2" /><path d="M97,93 c-3.873,-4.882 -9.199,-10.079 -15,-14.5" fill="none" stroke="#000000" stroke-width="2" /><path d="M77.5,10.5 c-0.7,5.553 -1.529,10.448 -2.5,15" fill="none" stroke="#000000" stroke-width="2" /></svg>