<?xml version='1.0' encoding='utf-8'?>
<svg xmlns="http://www.w3.org/2000/svg" height="100px" version="1.0" viewBox="0 0 100 100" width="100px" x="0px" y="0px">
<line fill="none" stroke="#000000" stroke-width="2" x1="71.5" x2="90.5" y1="12.5" y2="12.5" /><line fill="none" stroke="#000000" stroke-width="2" x1="61" x2="93.5" y1="65" y2="65" /><line fill="none" stroke="#000000" stroke-width="2" x1="58.5" x2="98.5" y1="46.5" y2="46.5" /><line fill="none" stroke="#000000" stroke-width="2" x1="22.5" x2="59.5" y1="38.5" y2="38.5" /><line fill="none" stroke="#000000" stroke-width="2" x1="58.5" x2="23.5" y1="13.5" y2="13.5" /><line fill="none" stroke="#000000" stroke-width="2" x1="57" x2="25" y1="26" y2="26" /><line fill="none" stroke="#000000" stroke-width="2" x1="41" x2="41" y1="38.5" y2="5" /><line fill="none" stroke="#000000" stroke-width="2" x1="28" x2="55" y1="73.5" y2="73.5" /><line fill="none" stroke="#000000" stroke-width="2" x1="28" x2="55" y1="61" y2="61" /><polyline fill="none" points="93.5,71 93.5,28.5 65,28.5" stroke="#000000" stroke-width="2" /><path d="M79.5,28.5 c3.494,-4.531 7.372,-10.447 10.123,-15.479" fill="none" stroke="#000000" stroke-width="2" /><path d="M57.5,33.5 c7.645,-8.271 13.836,-18.38 18,-29.5" fill="none" stroke="#000000" stroke-width="2" /><path d="M79.5,29.5 V83.0 c0,7.13 -0.656,8 -5,8 c-2.365,0 -5.723,-0.14 -10,-0.5" fill="none" stroke="#000000" stroke-width="2" /><path d="M27,92 v-43.5 h28.0 V86.0 c0,4.177 -0.438,4.5 -5.5,4.5 c-1.723,0 -4.547,-0.132 -9.5,-0.5" fill="none" stroke="#000000" stroke-width="2" /><path d="M7,91.5 c5.156,-9.315 9.464,-19.845 12.5,-30.5" fill="none" stroke="#000000" stroke-width="2" /><path d="M22,22.5 c-4.127,-4.427 -9.06,-9.209 -14.5,-14" fill="none" stroke="#000000" stroke-width="2" /><path d="M19.5,45.5 c-4.589,-4.819 -9.926,-9.858 -16,-15" fill="none" stroke="#000000" stroke-width="2" /></svg>