<?xml version='1.0' encoding='utf-8'?>
<svg xmlns="http://www.w3.org/2000/svg" height="100px" version="1.0" viewBox="0 0 100 100" width="100px" x="0px" y="0px">
<line fill="none" stroke="#000000" stroke-width="2" x1="64.5" x2="64.5" y1="20.5" y2="94" /><line fill="none" stroke="#000000" stroke-width="2" x1="96" x2="65" y1="20" y2="20" /><line fill="none" stroke="#000000" stroke-width="2" x1="81.5" x2="81.5" y1="87" y2="21" /><line fill="none" stroke="#000000" stroke-width="2" x1="65.5" x2="97" y1="87" y2="87" /><line fill="none" stroke="#000000" stroke-width="2" x1="64.5" x2="95" y1="64" y2="64" /><line fill="none" stroke="#000000" stroke-width="2" x1="64.5" x2="95" y1="41.5" y2="41.5" /><line fill="none" stroke="#000000" stroke-width="2" x1="22" x2="61" y1="14.5" y2="14.5" /><line fill="none" stroke="#000000" stroke-width="2" x1="33" x2="33" y1="22.5" y2="4.5" /><line fill="none" stroke="#000000" stroke-width="2" x1="50" x2="50" y1="22.5" y2="4.5" /><line fill="none" stroke="#000000" stroke-width="2" x1="22.5" x2="60.5" y1="67.5" y2="67.5" /><line fill="none" stroke="#000000" stroke-width="2" x1="24" x2="59" y1="54.5" y2="54.5" /><polyline fill="none" points="26.5,44 57.5,44 57.5,26.5 25.5,26.5 25.5,45" stroke="#000000" stroke-width="2" /><path d="M7,91.5 c5.156,-9.315 9.464,-19.845 12.5,-30.5" fill="none" stroke="#000000" stroke-width="2" /><path d="M22,22.5 c-4.127,-4.427 -9.06,-9.209 -14.5,-14" fill="none" stroke="#000000" stroke-width="2" /><path d="M19.5,45.5 c-4.589,-4.819 -9.926,-9.858 -16,-15" fill="none" stroke="#000000" stroke-width="2" /><path d="M86.5,4 c-1.35,5.903 -2.996,11.101 -5,16" fill="none" stroke="#000000" stroke-width="2" /><path d="M57.5,34 c4.986,-7.437 9.082,-17.736 11.5,-30" fill="none" stroke="#000000" stroke-width="2" /><path d="M20,91.5 c14.275,-6.058 21.5,-15.589 21.5,-27.5 v-36.5" fill="none" stroke="#000000" stroke-width="2" /><path d="M59.5,90.5 c-7.701,-5.278 -13.949,-13.131 -18,-23" fill="none" stroke="#000000" stroke-width="2" /></svg>