<?xml version='1.0' encoding='utf-8'?>
<svg xmlns="http://www.w3.org/2000/svg" height="100px" version="1.0" viewBox="0 0 100 100" width="100px" x="0px" y="0px">
<line fill="none" stroke="#000000" stroke-width="2" x1="34.5" x2="80" y1="12" y2="12" /><path d="M59.5,32 c-5.516,-5.067 -12.813,-11.091 -19.5,-16" fill="none" stroke="#000000" stroke-width="2" /><path d="M41.5,41.5 c-5.516,-5.067 -12.813,-11.091 -19.5,-16" fill="none" stroke="#000000" stroke-width="2" /><path d="M10.5,23 c16.648,-5.703 26.613,-11.6 34,-19" fill="none" stroke="#000000" stroke-width="2" /><path d="M79.086,12.593 c-6.628,14.868 -34.346,31.687 -72.086,39.407" fill="none" stroke="#000000" stroke-width="2" /><path d="M27,52 c-2.184,6.953 -6.31,13.229 -12.5,19" fill="none" stroke="#000000" stroke-width="2" /><path d="M85.5,52.5 c-3.617,6.728 -9.01,12.717 -16.5,18" fill="none" stroke="#000000" stroke-width="2" /><path d="M7,91 c27.129,-4.905 43,-19.437 43,-35 v-14.0" fill="none" stroke="#000000" stroke-width="2" /><path d="M93,91 c-27.129,-4.904 -43,-19.437 -43,-35" fill="none" stroke="#000000" stroke-width="2" /></svg>