<?xml version='1.0' encoding='utf-8'?>
<svg xmlns="http://www.w3.org/2000/svg" height="100px" version="1.0" viewBox="0 0 100 100" width="100px" x="0px" y="0px">
<line fill="none" stroke="#000000" stroke-width="2" x1="94" x2="29" y1="63.5" y2="63.5" /><line fill="none" stroke="#000000" stroke-width="2" x1="61.5" x2="61.5" y1="94" y2="46" /><line fill="none" stroke="#000000" stroke-width="2" x1="63.5" x2="94.5" y1="9.5" y2="9.5" /><line fill="none" stroke="#000000" stroke-width="2" x1="38.5" x2="62" y1="23" y2="23" /><line fill="none" stroke="#000000" stroke-width="2" x1="47.5" x2="47.5" y1="23" y2="4" /><line fill="none" stroke="#000000" stroke-width="2" x1="47.5" x2="60.5" y1="11.5" y2="11.5" /><path d="M30.5,82 c-3.42,-9.306 -8.124,-19.425 -13,-28" fill="none" stroke="#000000" stroke-width="2" /><path d="M9.5,20 c0,13.128 -1.453,24.476 -4,33.5" fill="none" stroke="#000000" stroke-width="2" /><path d="M31.5,17.5 c-2.094,12.181 -5.521,22.562 -10,31" fill="none" stroke="#000000" stroke-width="2" /><path d="M5,91 c7.869,-10.161 13.5,-30.425 13.5,-56 v-28.0" fill="none" stroke="#000000" stroke-width="2" /><path d="M95.5,90.5 c-16.136,-8.638 -26.873,-17.487 -33.5,-27" fill="none" stroke="#000000" stroke-width="2" /><path d="M53,63.5 c-4.437,-5.718 -9.323,-11.257 -14,-16" fill="none" stroke="#000000" stroke-width="2" /><path d="M70,63.5 c5.656,-5.063 10.682,-10.887 14,-16" fill="none" stroke="#000000" stroke-width="2" /><path d="M27.5,90.5 c16.135,-8.638 26.873,-17.487 33.5,-27" fill="none" stroke="#000000" stroke-width="2" /><path d="M60,42 c16.063,-4.836 28.271,-16.113 33.552,-31.819" fill="none" stroke="#000000" stroke-width="2" /><path d="M95.5,51 c-14.973,-8.026 -24.461,-20.572 -28.5,-38.5" fill="none" stroke="#000000" stroke-width="2" /><path d="M29,35 c5.711,-4.935 9.844,-10.999 12.5,-18" fill="none" stroke="#000000" stroke-width="2" /><path d="M61.002,23.918 c-0.925,11.305 -12.329,22.553 -31.002,27.082" fill="none" stroke="#000000" stroke-width="2" /><path d="M52,40 c-4.08,-3.491 -9.262,-7.25 -14,-10" fill="none" stroke="#000000" stroke-width="2" /></svg>