<?xml version='1.0' encoding='utf-8'?>
<svg xmlns="http://www.w3.org/2000/svg" height="100px" version="1.0" viewBox="0 0 100 100" width="100px" x="0px" y="0px">
<line fill="none" stroke="#000000" stroke-width="2" x1="6.5" x2="93.5" y1="12.5" y2="12.5" /><line fill="none" stroke="#000000" stroke-width="2" x1="50" x2="50" y1="12.5" y2="3.5" /><line fill="none" stroke="#000000" stroke-width="2" x1="94.5" x2="5.5" y1="79.5" y2="79.5" /><line fill="none" stroke="#000000" stroke-width="2" x1="22" x2="86.5" y1="64" y2="64" /><line fill="none" stroke="#000000" stroke-width="2" x1="50" x2="50" y1="96.5" y2="54" /><polyline fill="none" points="91.5,51 91.5,34 8.5,34 8.5,51" stroke="#000000" stroke-width="2" /><path d="M50,34 c-7.307,-4.755 -16.813,-10.651 -25,-15.5" fill="none" stroke="#000000" stroke-width="2" /><path d="M50,34 c9.464,-5.886 17.017,-11.19 25,-17.5" fill="none" stroke="#000000" stroke-width="2" /><path d="M33.5,23.5 c6.326,-3.698 11.73,-7.217 17,-11" fill="none" stroke="#000000" stroke-width="2" /><path d="M85,54.5 c-6.677,-5.281 -16.346,-11.898 -25,-17" fill="none" stroke="#000000" stroke-width="2" /><path d="M15.5,51 c18.156,-0.293 40.775,-1.228 61.5,-2.5" fill="none" stroke="#000000" stroke-width="2" /><path d="M23.5,51 c7.645,-4.838 15.467,-10.874 22,-17" fill="none" stroke="#000000" stroke-width="2" /><path d="M10,75 c8.135,-5.889 14.742,-13.218 19,-21" fill="none" stroke="#000000" stroke-width="2" /></svg>