<?xml version='1.0' encoding='utf-8'?>
<svg xmlns="http://www.w3.org/2000/svg" height="100px" version="1.0" viewBox="0 0 100 100" width="100px" x="0px" y="0px">
<line fill="none" stroke="#000000" stroke-width="2" x1="10" x2="34.5" y1="23" y2="23" /><line fill="none" stroke="#000000" stroke-width="2" x1="20.5" x2="20.5" y1="94" y2="6" /><line fill="none" stroke="#000000" stroke-width="2" x1="34" x2="94" y1="15" y2="15" /><line fill="none" stroke="#000000" stroke-width="2" x1="64" x2="64" y1="15" y2="5" /><polyline fill="none" points="49,86 49,62 79,62 79,80 50,80" stroke="#000000" stroke-width="2" /><polyline fill="none" points="45,43 45,25 83,25 83,42 46,42" stroke="#000000" stroke-width="2" /><path d="M4,60.5 c9.69,-2.952 19.649,-6.763 29,-11" fill="none" stroke="#000000" stroke-width="2" /><path d="M4,46 c3.839,-9.923 6.695,-22.423 8,-36" fill="none" stroke="#000000" stroke-width="2" /><path d="M78,91 c4.902,0.363 7.691,0.5 9,0.5 c4.684,0 5,-0.383 5,-8 V52.0 h-56.0 v41.0" fill="none" stroke="#000000" stroke-width="2" /></svg>