<?xml version='1.0' encoding='utf-8'?>
<svg xmlns="http://www.w3.org/2000/svg" height="100px" version="1.0" viewBox="0 0 100 100" width="100px" x="0px" y="0px">
<line fill="none" stroke="#000000" stroke-width="2" x1="42.5" x2="89.5" y1="49" y2="49" /><line fill="none" stroke="#000000" stroke-width="2" x1="42.5" x2="89.5" y1="29.5" y2="29.5" /><polyline fill="none" points="42.5,69 89.5,69 89.5,10.5 41.5,10.5 41.5,70" stroke="#000000" stroke-width="2" /><path d="M15,8 c11.066,15.94 16.5,34.505 16.5,56.5 c0,18.948 -4.779,26.5 -10,26.5 c-2.864,0 -7.87,-0.715 -13,-2" fill="none" stroke="#000000" stroke-width="2" /><path d="M37.5,6 c-8.507,10.59 -19.759,19.975 -32,26.5" fill="none" stroke="#000000" stroke-width="2" /><path d="M29.5,44 c-6.244,7.789 -14.914,15.018 -24,20" fill="none" stroke="#000000" stroke-width="2" /><path d="M33.5,91 c10.76,-4.65 20.047,-11.01 25.5,-17" fill="none" stroke="#000000" stroke-width="2" /><path d="M96,92 c-6.566,-5.892 -15.625,-12.185 -25.5,-17.5" fill="none" stroke="#000000" stroke-width="2" /></svg>