<?xml version='1.0' encoding='utf-8'?>
<svg xmlns="http://www.w3.org/2000/svg" height="100px" version="1.0" viewBox="0 0 100 100" width="100px" x="0px" y="0px">
<line fill="none" stroke="#000000" stroke-width="2" x1="93.5" x2="53" y1="43.5" y2="43.5" /><line fill="none" stroke="#000000" stroke-width="2" x1="96" x2="43" y1="63.5" y2="63.5" /><line fill="none" stroke="#000000" stroke-width="2" x1="43.5" x2="96" y1="31" y2="31" /><line fill="none" stroke="#000000" stroke-width="2" x1="36.5" x2="36.5" y1="94" y2="28.75" /><polyline fill="none" points="84.5,31 86.5,10 49,10" stroke="#000000" stroke-width="2" /><path d="M11,8 c9.348,15.786 14,33.95 14,56.5 c0,19.396 -4.178,26.5 -8.5,26.5 c-2.443,0 -6.626,-0.706 -11,-2" fill="none" stroke="#000000" stroke-width="2" /><path d="M32,6 c-7.71,10.59 -17.906,19.975 -29,26.5" fill="none" stroke="#000000" stroke-width="2" /><path d="M23.5,44 c-5.32,7.003 -12.523,13.385 -20.5,18" fill="none" stroke="#000000" stroke-width="2" /><path d="M44.5,57 c5.695,-6.683 10.875,-16.618 13.5,-26" fill="none" stroke="#000000" stroke-width="2" /><path d="M42,92.5 c17.563,-5.458 28.5,-18.251 28.5,-32 v-17.0" fill="none" stroke="#000000" stroke-width="2" /><path d="M96.5,92.5 c-16.338,-6.088 -26,-18.563 -26,-32" fill="none" stroke="#000000" stroke-width="2" /><path d="M44,6 c-4.44,17.075 -11.068,32.64 -19.5,46" fill="none" stroke="#000000" stroke-width="2" /></svg>