<?xml version='1.0' encoding='utf-8'?>
<svg xmlns="http://www.w3.org/2000/svg" height="100px" version="1.0" viewBox="0 0 100 100" width="100px" x="0px" y="0px">
<line fill="none" stroke="#000000" stroke-width="2" x1="96.5" x2="60.5" y1="12" y2="12" /><line fill="none" stroke="#000000" stroke-width="2" x1="78.5" x2="78.5" y1="94" y2="12" /><line fill="none" stroke="#000000" stroke-width="2" x1="31.5" x2="55.5" y1="86" y2="86" /><polyline fill="none" points="32.5,43 55,43 55,19.5 31.5,19.5 31.5,94" stroke="#000000" stroke-width="2" /><polyline fill="none" points="55.5,92 55.5,59 32.5,59" stroke="#000000" stroke-width="2" /><path d="M9.5,8 c9.348,15.786 14,33.95 14,56.5 c0,19.396 -4.178,26.5 -7.5,26.5 c-2.443,0 -6.15,-0.629 -10.5,-2" fill="none" stroke="#000000" stroke-width="2" /><path d="M29,6 c-6.912,10.59 -16.088,19.923 -26,26.5" fill="none" stroke="#000000" stroke-width="2" /><path d="M22.5,44.5 c-5.061,6.809 -11.912,13.013 -19.5,17.5" fill="none" stroke="#000000" stroke-width="2" /><path d="M83,80.5 c3.955,0.368 5.943,0.5 7,0.5 c3.59,0 4,-0.542 4,-8 v-42.0 h-31.0 v51.0" fill="none" stroke="#000000" stroke-width="2" /><path d="M46,6 c-1.31,4.937 -2.781,9.308 -4.5,13.5" fill="none" stroke="#000000" stroke-width="2" /></svg>