<?xml version='1.0' encoding='utf-8'?>
<svg xmlns="http://www.w3.org/2000/svg" height="100px" version="1.0" viewBox="0 0 100 100" width="100px" x="0px" y="0px">
<line fill="none" stroke="#000000" stroke-width="2" x1="35.5" x2="35.5" y1="53.5" y2="90" /><line fill="none" stroke="#000000" stroke-width="2" x1="61.5" x2="61.5" y1="53.5" y2="90" /><polyline fill="none" points="32.5,50.5 32.5,26.5 91.5,26.5 91.5,49.5 33.5,49.5" stroke="#000000" stroke-width="2" /><path d="M9.5,8 c9.348,15.786 14,33.95 14,56.5 c0,19.396 -4.178,26.5 -7.5,26.5 c-2.443,0 -6.149,-0.629 -10.5,-2" fill="none" stroke="#000000" stroke-width="2" /><path d="M29,6 c-6.912,10.59 -16.088,19.923 -26,26.5" fill="none" stroke="#000000" stroke-width="2" /><path d="M22.5,44.5 c-5.061,6.809 -11.912,13.013 -19.5,17.5" fill="none" stroke="#000000" stroke-width="2" /><path d="M87,53.5 c0,31.011 2.756,39 5.5,39 c1.81,0 3.943,-4.903 4.5,-18" fill="none" stroke="#000000" stroke-width="2" /><path d="M24.5,92.5 c13.286,-2.888 24.686,-6.233 31.5,-9" fill="none" stroke="#000000" stroke-width="2" /><path d="M50.5,92.5 c13.286,-2.888 24.686,-6.233 31.5,-9" fill="none" stroke="#000000" stroke-width="2" /><path d="M56,64 c-4.956,-2.44 -10.125,-4.709 -15,-6.5" fill="none" stroke="#000000" stroke-width="2" /><path d="M56,77.5 c-4.956,-2.44 -10.125,-4.709 -15,-6.5" fill="none" stroke="#000000" stroke-width="2" /><path d="M82,64 c-4.956,-2.44 -10.125,-4.709 -15,-6.5" fill="none" stroke="#000000" stroke-width="2" /><path d="M82,77.5 c-4.956,-2.44 -10.125,-4.709 -15,-6.5" fill="none" stroke="#000000" stroke-width="2" /><path d="M90,5.5 c-3.422,3.215 -6.578,5.599 -11.5,8.5 c5.176,3.241 8.44,5.859 12,9.5" fill="none" stroke="#000000" stroke-width="2" /><path d="M68,5.5 c-3.422,3.215 -6.578,5.599 -11.5,8.5 c5.176,3.241 8.44,5.859 12,9.5" fill="none" stroke="#000000" stroke-width="2" /><path d="M46,5.5 c-3.422,3.215 -6.578,5.599 -11.5,8.5 c5.176,3.241 8.44,5.859 12,9.5" fill="none" stroke="#000000" stroke-width="2" /><path d="M40,45.5 c17.051,-3.55 31.477,-9.616 40,-16" fill="none" stroke="#000000" stroke-width="2" /><path d="M41,31.5 c13.343,3.191 25.661,7.226 42,14" fill="none" stroke="#000000" stroke-width="2" /></svg>