<?xml version='1.0' encoding='utf-8'?>
<svg xmlns="http://www.w3.org/2000/svg" height="100px" version="1.0" viewBox="0 0 100 100" width="100px" x="0px" y="0px">
<line fill="none" stroke="#000000" stroke-width="2" x1="32" x2="4" y1="12.5" y2="12.5" /><line fill="none" stroke="#000000" stroke-width="2" x1="31" x2="5" y1="44.5" y2="44.5" /><line fill="none" stroke="#000000" stroke-width="2" x1="18" x2="18" y1="79" y2="12.5" /><line fill="none" stroke="#000000" stroke-width="2" x1="60.5" x2="60.5" y1="21.5" y2="3" /><line fill="none" stroke="#000000" stroke-width="2" x1="37" x2="82" y1="39.5" y2="33" /><line fill="none" stroke="#000000" stroke-width="2" x1="60.5" x2="90" y1="11.5" y2="11.5" /><path d="M4,85 c10.043,-4.078 18.778,-8.305 30,-14.5" fill="none" stroke="#000000" stroke-width="2" /><path d="M85,35.5 c3.367,-4.152 5.865,-8.286 8.082,-13.398" fill="none" stroke="#000000" stroke-width="2" /><path d="M27,91 c6.74,-14.092 10,-29.671 10,-51 v-18.5 h57.0" fill="none" stroke="#000000" stroke-width="2" /><path d="M55.5,25.5 V46.0 c0,5.372 0.125,5.5 15.5,5.5 c19.789,0 20.029,-0.208 21,-16" fill="none" stroke="#000000" stroke-width="2" /><path d="M72.5,58.5 v24.3 c0,6.793 0.541,7.2 10.5,7.2 c10.346,0 10.529,-0.164 11,-19" fill="none" stroke="#000000" stroke-width="2" /><path d="M35.5,91 c15.145,-5.214 21,-13.411 21,-32.5" fill="none" stroke="#000000" stroke-width="2" /></svg>