<?xml version='1.0' encoding='utf-8'?>
<svg xmlns="http://www.w3.org/2000/svg" height="100px" version="1.0" viewBox="0 0 100 100" width="100px" x="0px" y="0px">
<line fill="none" stroke="#000000" stroke-width="2" x1="28.5" x2="3.5" y1="12.5" y2="12.5" /><line fill="none" stroke="#000000" stroke-width="2" x1="28.5" x2="4.5" y1="45" y2="45" /><line fill="none" stroke="#000000" stroke-width="2" x1="17" x2="17" y1="81.5" y2="12.5" /><line fill="none" stroke="#000000" stroke-width="2" x1="45" x2="45" y1="94" y2="6" /><line fill="none" stroke="#000000" stroke-width="2" x1="59" x2="27.5" y1="26" y2="26" /><line fill="none" stroke="#000000" stroke-width="2" x1="77.5" x2="77.5" y1="94" y2="6" /><line fill="none" stroke="#000000" stroke-width="2" x1="95.5" x2="62" y1="26" y2="26" /><path d="M3.5,86 c8.535,-2.672 15.968,-5.423 25.5,-9.5" fill="none" stroke="#000000" stroke-width="2" /><path d="M24,73 c9.607,-15.363 16.01,-30.544 20,-47.5" fill="none" stroke="#000000" stroke-width="2" /><path d="M59.5,61 c-4.123,-11.04 -8.766,-22.734 -13.5,-34" fill="none" stroke="#000000" stroke-width="2" /><path d="M54.5,81 c10.606,-17.989 17.838,-35.777 22.5,-55.5" fill="none" stroke="#000000" stroke-width="2" /><path d="M98,76 c-9.541,-16.191 -16.051,-32.643 -20,-50.5" fill="none" stroke="#000000" stroke-width="2" /></svg>