<?xml version='1.0' encoding='utf-8'?>
<svg xmlns="http://www.w3.org/2000/svg" height="100px" version="1.0" viewBox="0 0 100 100" width="100px" x="0px" y="0px">
<line fill="none" stroke="#000000" stroke-width="2" x1="73" x2="73" y1="10.5" y2="45" /><line fill="none" stroke="#000000" stroke-width="2" x1="27" x2="27" y1="10.5" y2="44.5" /><line fill="none" stroke="#000000" stroke-width="2" x1="47" x2="8" y1="10.5" y2="10.5" /><line fill="none" stroke="#000000" stroke-width="2" x1="45.5" x2="9.5" y1="27.5" y2="27.5" /><line fill="none" stroke="#000000" stroke-width="2" x1="92" x2="53" y1="10.5" y2="10.5" /><line fill="none" stroke="#000000" stroke-width="2" x1="90.5" x2="54.5" y1="27.5" y2="27.5" /><line fill="none" stroke="#000000" stroke-width="2" x1="93.5" x2="53" y1="45" y2="45" /><line fill="none" stroke="#000000" stroke-width="2" x1="17.5" x2="47.5" y1="65" y2="65" /><line fill="none" stroke="#000000" stroke-width="2" x1="17.5" x2="17.5" y1="90" y2="51.5" /><path d="M6.5,48 c16.672,-2.612 31.818,-5.653 41,-8" fill="none" stroke="#000000" stroke-width="2" /><path d="M56.5,51.5 v34.0 c0,4.278 0.281,4.527 6,4.8 c3.008,0.143 6.219,0.2 9.5,0.2 c3.397,0 6.478,-0.058 9.5,-0.2 c9.041,-0.43 9.182,-0.546 11,-16.8" fill="none" stroke="#000000" stroke-width="2" /><path d="M56.5,67.5 c12.068,-2.485 22.629,-5.827 35,-11" fill="none" stroke="#000000" stroke-width="2" /><path d="M5.5,91.5 c14.999,-1.764 28.503,-4.222 44,-8" fill="none" stroke="#000000" stroke-width="2" /></svg>