<?xml version='1.0' encoding='utf-8'?>
<svg xmlns="http://www.w3.org/2000/svg" height="100px" version="1.0" viewBox="0 0 100 100" width="100px" x="0px" y="0px">
<line fill="none" stroke="#000000" stroke-width="2" x1="73" x2="73" y1="10.5" y2="37" /><line fill="none" stroke="#000000" stroke-width="2" x1="27" x2="27" y1="10.5" y2="36.5" /><line fill="none" stroke="#000000" stroke-width="2" x1="47" x2="8" y1="10.5" y2="10.5" /><line fill="none" stroke="#000000" stroke-width="2" x1="45.5" x2="9.5" y1="23.5" y2="23.5" /><line fill="none" stroke="#000000" stroke-width="2" x1="92" x2="53" y1="10.5" y2="10.5" /><line fill="none" stroke="#000000" stroke-width="2" x1="90.5" x2="54.5" y1="23.5" y2="23.5" /><line fill="none" stroke="#000000" stroke-width="2" x1="93.5" x2="53" y1="37" y2="37" /><line fill="none" stroke="#000000" stroke-width="2" x1="50.5" x2="50.5" y1="67" y2="46.5" /><line fill="none" stroke="#000000" stroke-width="2" x1="83.5" x2="17.5" y1="68" y2="68" /><path d="M6.5,40 c16.672,-2.612 31.818,-5.654 41,-8" fill="none" stroke="#000000" stroke-width="2" /><path d="M83.5,74 V45.5 h-67.0 v36.0 c0,8.953 1.375,10 35.5,10 c36.924,0 37.144,-0.172 38.5,-18.5" fill="none" stroke="#000000" stroke-width="2" /></svg>