<?xml version='1.0' encoding='utf-8'?>
<svg xmlns="http://www.w3.org/2000/svg" height="100px" version="1.0" viewBox="0 0 100 100" width="100px" x="0px" y="0px">
<line fill="none" stroke="#000000" stroke-width="2" x1="30.5" x2="4" y1="12.5" y2="12.5" /><line fill="none" stroke="#000000" stroke-width="2" x1="29.5" x2="5" y1="43.5" y2="43.5" /><line fill="none" stroke="#000000" stroke-width="2" x1="18" x2="18" y1="77.5" y2="12.5" /><line fill="none" stroke="#000000" stroke-width="2" x1="32.5" x2="95.5" y1="15" y2="15" /><line fill="none" stroke="#000000" stroke-width="2" x1="49.5" x2="49.5" y1="27" y2="4" /><line fill="none" stroke="#000000" stroke-width="2" x1="77.5" x2="77.5" y1="27" y2="4" /><line fill="none" stroke="#000000" stroke-width="2" x1="30" x2="96" y1="58.5" y2="58.5" /><polyline fill="none" points="87.5,58.5 87.5,32.5 40.5,32.5 40.5,57.5" stroke="#000000" stroke-width="2" /><path d="M4,83 c10.593,-3.637 19.674,-7.762 31,-14" fill="none" stroke="#000000" stroke-width="2" /><path d="M30,91 c20.701,-7.059 34,-22.793 34,-37.5 V22.0" fill="none" stroke="#000000" stroke-width="2" /><path d="M95,91 c-18.76,-7.058 -31,-22.794 -31,-37.5" fill="none" stroke="#000000" stroke-width="2" /></svg>