<?xml version='1.0' encoding='utf-8'?>
<svg xmlns="http://www.w3.org/2000/svg" height="100px" version="1.0" viewBox="0 0 100 100" width="100px" x="0px" y="0px">
<line fill="none" stroke="#000000" stroke-width="2" x1="31" x2="4" y1="12.5" y2="12.5" /><line fill="none" stroke="#000000" stroke-width="2" x1="30" x2="5" y1="43.5" y2="43.5" /><line fill="none" stroke="#000000" stroke-width="2" x1="18.5" x2="18.5" y1="80.5" y2="12.5" /><line fill="none" stroke="#000000" stroke-width="2" x1="38" x2="90" y1="52" y2="52" /><line fill="none" stroke="#000000" stroke-width="2" x1="38" x2="90" y1="76" y2="76" /><line fill="none" stroke="#000000" stroke-width="2" x1="35.5" x2="92.5" y1="63.5" y2="63.5" /><line fill="none" stroke="#000000" stroke-width="2" x1="64" x2="64" y1="89.5" y2="24.5" /><line fill="none" stroke="#000000" stroke-width="2" x1="33.5" x2="95.5" y1="14" y2="14" /><line fill="none" stroke="#000000" stroke-width="2" x1="30.5" x2="96.5" y1="89.5" y2="89.5" /><polyline fill="none" points="91,53 91,33.5 37,33.5 37,53" stroke="#000000" stroke-width="2" /><polyline fill="none" points="80.5,4.5 80.5,24.5 47.5,24.5 47.5,4.5" stroke="#000000" stroke-width="2" /><path d="M4,85 c9.708,-2.672 18.159,-5.423 29,-9.5" fill="none" stroke="#000000" stroke-width="2" /></svg>