<?xml version='1.0' encoding='utf-8'?>
<svg xmlns="http://www.w3.org/2000/svg" height="100px" version="1.0" viewBox="0 0 100 100" width="100px" x="0px" y="0px">
<line fill="none" stroke="#000000" stroke-width="2" x1="32" x2="4" y1="12.5" y2="12.5" /><line fill="none" stroke="#000000" stroke-width="2" x1="31" x2="5" y1="43.5" y2="43.5" /><line fill="none" stroke="#000000" stroke-width="2" x1="18.5" x2="18.5" y1="77.5" y2="12.5" /><line fill="none" stroke="#000000" stroke-width="2" x1="40.5" x2="86.5" y1="53.5" y2="53.5" /><line fill="none" stroke="#000000" stroke-width="2" x1="30" x2="95" y1="77.5" y2="77.5" /><line fill="none" stroke="#000000" stroke-width="2" x1="64" x2="64" y1="94" y2="68" /><line fill="none" stroke="#000000" stroke-width="2" x1="32" x2="95" y1="32.5" y2="32.5" /><line fill="none" stroke="#000000" stroke-width="2" x1="34" x2="94" y1="15" y2="15" /><line fill="none" stroke="#000000" stroke-width="2" x1="64" x2="64" y1="15" y2="4.5" /><polyline fill="none" points="40.5,67 87.5,67 87.5,41 39.5,41 39.5,68" stroke="#000000" stroke-width="2" /><path d="M4,82 c9.708,-2.672 18.159,-5.423 29,-9.5" fill="none" stroke="#000000" stroke-width="2" /><path d="M72.5,32.5 c4.041,-4.94 7.256,-10.87 9.5,-17.5" fill="none" stroke="#000000" stroke-width="2" /><path d="M53.5,32.5 c-2.729,-5.93 -5.852,-11.708 -9.5,-17.5" fill="none" stroke="#000000" stroke-width="2" /></svg>