<?xml version='1.0' encoding='utf-8'?>
<svg xmlns="http://www.w3.org/2000/svg" height="100px" version="1.0" viewBox="0 0 100 100" width="100px" x="0px" y="0px">
<line fill="none" stroke="#000000" stroke-width="2" x1="70" x2="70" y1="84" y2="15" /><line fill="none" stroke="#000000" stroke-width="2" x1="47" x2="5.5" y1="62" y2="62" /><line fill="none" stroke="#000000" stroke-width="2" x1="44" x2="8.5" y1="50.5" y2="50.5" /><line fill="none" stroke="#000000" stroke-width="2" x1="47" x2="5.5" y1="11" y2="11" /><line fill="none" stroke="#000000" stroke-width="2" x1="32.5" x2="32.5" y1="12" y2="39" /><line fill="none" stroke="#000000" stroke-width="2" x1="20" x2="20" y1="12" y2="39" /><polyline fill="none" points="7.5,41 7.5,22.5 45,22.5 45,40 8.5,40" stroke="#000000" stroke-width="2" /><path d="M52,16 c15.277,0 29.997,-2.359 44,-7" fill="none" stroke="#000000" stroke-width="2" /><path d="M47,91.5 c3.852,-12.214 6,-30.522 6,-60.5 v-16.0" fill="none" stroke="#000000" stroke-width="2" /><path d="M97,91 c-6.022,-14.144 -9.5,-35.363 -9.5,-70 v-9.5" fill="none" stroke="#000000" stroke-width="2" /><path d="M89.5,91 c-2.764,-8.765 -6.661,-20.161 -10,-29" fill="none" stroke="#000000" stroke-width="2" /><path d="M53,88 c9.736,-1.251 22.154,-5.319 32,-10.5" fill="none" stroke="#000000" stroke-width="2" /><path d="M27.5,62 v25.5 c0,3.43 -0.459,4 -4.5,4 c-1.781,0 -4.305,-0.136 -8,-0.5" fill="none" stroke="#000000" stroke-width="2" /><path d="M4.5,89 c5.102,-5.674 9.447,-13.111 12,-20.5" fill="none" stroke="#000000" stroke-width="2" /><path d="M44.5,83.5 c-2.496,-4.864 -5.894,-10.239 -9.5,-15" fill="none" stroke="#000000" stroke-width="2" /></svg>