<?xml version='1.0' encoding='utf-8'?>
<svg xmlns="http://www.w3.org/2000/svg" height="100px" version="1.0" viewBox="0 0 100 100" width="100px" x="0px" y="0px">
<line fill="none" stroke="#000000" stroke-width="2" x1="95" x2="47" y1="12.5" y2="12.5" /><line fill="none" stroke="#000000" stroke-width="2" x1="9.5" x2="44.5" y1="87.5" y2="87.5" /><polyline fill="none" points="44.5,10.5 9.5,10.5 9.5,93.5" stroke="#000000" stroke-width="2" /><polyline fill="none" points="17.5,76.5 28,76.5 28,49.5 16.5,49.5 16.5,77.5" stroke="#000000" stroke-width="2" /><polyline fill="none" points="35,76.5 45.5,76.5 45.5,49.5 34,49.5 34,77.5" stroke="#000000" stroke-width="2" /><polyline fill="none" points="21,40.5 42,40.5 42,20.5 20,20.5 20,41.5" stroke="#000000" stroke-width="2" /><path d="M59.5,12.5 c-1.383,28.326 -3.988,52.445 -8,76.5" fill="none" stroke="#000000" stroke-width="2" /><path d="M58,32 h25.5 v52.5 c0,5.266 0.297,5.5 6,5.5 c5.852,0 6.078,-0.247 7,-28" fill="none" stroke="#000000" stroke-width="2" /><path d="M45.5,90.5 c15.938,-3.374 29.867,-7.958 38,-12" fill="none" stroke="#000000" stroke-width="2" /><path d="M75,69 c-3.506,-9.247 -7.324,-18.293 -11,-26" fill="none" stroke="#000000" stroke-width="2" /></svg>