<?xml version='1.0' encoding='utf-8'?>
<svg xmlns="http://www.w3.org/2000/svg" height="100px" version="1.0" viewBox="0 0 100 100" width="100px" x="0px" y="0px">
<line fill="none" stroke="#000000" stroke-width="2" x1="26.5" x2="26.5" y1="19" y2="48" /><line fill="none" stroke="#000000" stroke-width="2" x1="12" x2="42" y1="88" y2="88" /><line fill="none" stroke="#000000" stroke-width="2" x1="12" x2="42" y1="72" y2="72" /><line fill="none" stroke="#000000" stroke-width="2" x1="7.5" x2="46.5" y1="32.5" y2="32.5" /><line fill="none" stroke="#000000" stroke-width="2" x1="95" x2="47" y1="12.5" y2="12.5" /><polyline fill="none" points="42,94 42,57 11,57 11,94" stroke="#000000" stroke-width="2" /><polyline fill="none" points="7.5,48 46.5,48 46.5,18 6.5,18 6.5,49" stroke="#000000" stroke-width="2" /><path d="M19,18 c-2.074,-4.442 -4.329,-8.795 -6.5,-12.5" fill="none" stroke="#000000" stroke-width="2" /><path d="M34,18 c2.455,-4.119 4.789,-8.613 6.5,-12.5" fill="none" stroke="#000000" stroke-width="2" /><path d="M59.5,12.5 c-1.383,28.326 -3.988,52.445 -8,76.5" fill="none" stroke="#000000" stroke-width="2" /><path d="M58,32 h25.5 v52.5 c0,5.266 0.297,5.5 6,5.5 c5.852,0 6.078,-0.247 7,-28" fill="none" stroke="#000000" stroke-width="2" /><path d="M45.5,90.5 c15.938,-3.374 29.867,-7.958 38,-12" fill="none" stroke="#000000" stroke-width="2" /><path d="M75,69 c-3.506,-9.247 -7.324,-18.293 -11,-26" fill="none" stroke="#000000" stroke-width="2" /></svg>