<?xml version='1.0' encoding='utf-8'?>
<svg xmlns="http://www.w3.org/2000/svg" height="100px" version="1.0" viewBox="0 0 100 100" width="100px" x="0px" y="0px">
<line fill="none" stroke="#000000" stroke-width="2" x1="50" x2="50" y1="15.5" y2="3.5" /><line fill="none" stroke="#000000" stroke-width="2" x1="50" x2="50" y1="87.5" y2="56" /><line fill="none" stroke="#000000" stroke-width="2" x1="16" x2="85" y1="87.5" y2="87.5" /><line fill="none" stroke="#000000" stroke-width="2" x1="16" x2="85" y1="71" y2="71" /><polyline fill="none" points="90.5,32.5 90.5,15.5 9.5,15.5 9.5,32.5" stroke="#000000" stroke-width="2" /><polyline fill="none" points="23.5,45 77.5,45 77.5,25.5 22.5,25.5 22.5,46" stroke="#000000" stroke-width="2" /><polyline fill="none" points="85,93.5 85,55 15,55 15,93.5" stroke="#000000" stroke-width="2" /><path d="M30,15.5 c-2.568,-3.562 -5.295,-6.981 -8,-10" fill="none" stroke="#000000" stroke-width="2" /><path d="M70.5,15.5 c2.842,-3.768 5.379,-7.477 7.5,-11" fill="none" stroke="#000000" stroke-width="2" /></svg>