<?xml version='1.0' encoding='utf-8'?>
<svg xmlns="http://www.w3.org/2000/svg" height="100px" version="1.0" viewBox="0 0 100 100" width="100px" x="0px" y="0px">
<line fill="none" stroke="#000000" stroke-width="2" x1="20" x2="20" y1="82.5" y2="12.5" /><line fill="none" stroke="#000000" stroke-width="2" x1="8.5" x2="31.5" y1="46" y2="46" /><line fill="none" stroke="#000000" stroke-width="2" x1="38" x2="94" y1="10.5" y2="10.5" /><line fill="none" stroke="#000000" stroke-width="2" x1="42" x2="90" y1="21.5" y2="21.5" /><line fill="none" stroke="#000000" stroke-width="2" x1="66" x2="66" y1="21.5" y2="3" /><line fill="none" stroke="#000000" stroke-width="2" x1="42" x2="85.5" y1="39" y2="39" /><line fill="none" stroke="#000000" stroke-width="2" x1="38" x2="94" y1="50" y2="50" /><line fill="none" stroke="#000000" stroke-width="2" x1="66" x2="66" y1="50" y2="39" /><line fill="none" stroke="#000000" stroke-width="2" x1="96" x2="62.5" y1="69" y2="69" /><line fill="none" stroke="#000000" stroke-width="2" x1="96.5" x2="35.5" y1="59" y2="59" /><line fill="none" stroke="#000000" stroke-width="2" x1="58.5" x2="39.5" y1="87" y2="87" /><line fill="none" stroke="#000000" stroke-width="2" x1="35.5" x2="96.5" y1="30.5" y2="30.5" /><polyline fill="none" points="8.5,83.5 32.5,83.5 32.5,11.5 7.5,11.5 7.5,91.5" stroke="#000000" stroke-width="2" /><polyline fill="none" points="38.5,92.5 38.5,68 58.5,68 58.5,91" stroke="#000000" stroke-width="2" /><path d="M76,88 c-3.134,-4.554 -7.498,-9.708 -12,-14" fill="none" stroke="#000000" stroke-width="2" /><path d="M88.5,59 v25.5 c0,6.398 -0.428,7 -4,7 c-1.225,0 -4.16,-0.157 -8,-0.5" fill="none" stroke="#000000" stroke-width="2" /><path d="M89,41 c2.852,-3.354 4.895,-6.422 6.601,-9.937" fill="none" stroke="#000000" stroke-width="2" /></svg>