<?xml version='1.0' encoding='utf-8'?>
<svg xmlns="http://www.w3.org/2000/svg" height="100px" version="1.0" viewBox="0 0 100 100" width="100px" x="0px" y="0px">
<line fill="none" stroke="#000000" stroke-width="2" x1="56.5" x2="56.5" y1="13" y2="3" /><path d="M94.5,38.5 c-13.752,-5.628 -24.328,-11.308 -35,-18.8 c-10.672,7.492 -21.238,13.193 -35,18.8" fill="none" stroke="#000000" stroke-width="2" /><path d="M7,91 c8.727,-9.241 12.5,-20.743 12.5,-47 v-30.0 h75.0" fill="none" stroke="#000000" stroke-width="2" /><path d="M2.5,67 c6.793,-3.015 12.445,-6.519 16.5,-10" fill="none" stroke="#000000" stroke-width="2" /><path d="M15.5,41 c-2.875,-5.722 -6.672,-12.311 -11,-19" fill="none" stroke="#000000" stroke-width="2" /><path d="M32,51.5 c22.438,-2.785 38.703,-7.901 49,-14" fill="none" stroke="#000000" stroke-width="2" /><path d="M29.5,71.25 c26.871,-2.687 45.586,-8.324 58.5,-16" fill="none" stroke="#000000" stroke-width="2" /><path d="M27,91 c31.305,-2.589 52.47,-8.747 68,-18" fill="none" stroke="#000000" stroke-width="2" /></svg>