<?xml version='1.0' encoding='utf-8'?>
<svg xmlns="http://www.w3.org/2000/svg" height="100px" version="1.0" viewBox="0 0 100 100" width="100px" x="0px" y="0px">
<line fill="none" stroke="#000000" stroke-width="2" x1="43" x2="84" y1="25" y2="25" /><line fill="none" stroke="#000000" stroke-width="2" x1="56.5" x2="56.5" y1="13" y2="3" /><path d="M24,44 c10.885,-7.677 18.827,-16.901 24,-27.5" fill="none" stroke="#000000" stroke-width="2" /><path d="M83.156,25.462 c-10.727,16.837 -27.361,28.455 -59.156,38.038" fill="none" stroke="#000000" stroke-width="2" /><path d="M39,30.5 c12.063,13.638 28.318,23.685 55.5,33" fill="none" stroke="#000000" stroke-width="2" /><path d="M81,92.5 c-15.25,-5.55 -30.303,-9.484 -46,-12" fill="none" stroke="#000000" stroke-width="2" /><path d="M75.5,72.5 c-9.597,-4.525 -19.008,-8.126 -29,-11" fill="none" stroke="#000000" stroke-width="2" /><path d="M7,91 c8.727,-9.241 12.5,-20.743 12.5,-47 v-30.0 h75.0" fill="none" stroke="#000000" stroke-width="2" /><path d="M2.5,67 c6.793,-3.015 12.445,-6.519 16.5,-10" fill="none" stroke="#000000" stroke-width="2" /><path d="M15.5,41 c-2.875,-5.722 -6.672,-12.311 -11,-19" fill="none" stroke="#000000" stroke-width="2" /></svg>