<?xml version='1.0' encoding='utf-8'?>
<svg xmlns="http://www.w3.org/2000/svg" height="100px" version="1.0" viewBox="0 0 100 100" width="100px" x="0px" y="0px">
<line fill="none" stroke="#000000" stroke-width="2" x1="56.5" x2="56.5" y1="12.5" y2="3" /><line fill="none" stroke="#000000" stroke-width="2" x1="24.5" x2="95.5" y1="45" y2="45" /><line fill="none" stroke="#000000" stroke-width="2" x1="89.5" x2="29.5" y1="27" y2="27" /><line fill="none" stroke="#000000" stroke-width="2" x1="60" x2="60" y1="45" y2="17" /><line fill="none" stroke="#000000" stroke-width="2" x1="95.5" x2="24.5" y1="62" y2="62" /><path d="M7,91 c8.727,-9.241 12.5,-20.743 12.5,-47 v-30.5 h75.0" fill="none" stroke="#000000" stroke-width="2" /><path d="M2.5,67 c6.793,-3.015 12.445,-6.519 16.5,-10" fill="none" stroke="#000000" stroke-width="2" /><path d="M15.5,41 c-2.875,-5.722 -6.672,-12.311 -11,-19" fill="none" stroke="#000000" stroke-width="2" /><path d="M55.5,84.5 c-4.701,-5.204 -11.248,-11.095 -18,-16" fill="none" stroke="#000000" stroke-width="2" /><path d="M80.5,45 v39.0 c0,6.414 -0.494,7 -7,7 c-2.104,0 -7.412,-0.18 -14,-0.5" fill="none" stroke="#000000" stroke-width="2" /></svg>