<?xml version='1.0' encoding='utf-8'?>
<svg xmlns="http://www.w3.org/2000/svg" height="100px" version="1.0" viewBox="0 0 100 100" width="100px" x="0px" y="0px">
<line fill="none" stroke="#000000" stroke-width="2" x1="56.5" x2="56.5" y1="12.5" y2="3" /><line fill="none" stroke="#000000" stroke-width="2" x1="30.5" x2="30.5" y1="68" y2="93.5" /><line fill="none" stroke="#000000" stroke-width="2" x1="88.5" x2="88.5" y1="93.5" y2="68" /><line fill="none" stroke="#000000" stroke-width="2" x1="59.5" x2="59.5" y1="64.06" y2="87.06" /><line fill="none" stroke="#000000" stroke-width="2" x1="30.5" x2="88.5" y1="87.06" y2="87.06" /><polyline fill="none" points="27,61 55,61 55,44 26,44 26,62" stroke="#000000" stroke-width="2" /><polyline fill="none" points="65,61 93,61 93,44 64,44 64,62" stroke="#000000" stroke-width="2" /><polyline fill="none" points="38,37 82,37 82,21 37,21 37,38" stroke="#000000" stroke-width="2" /><path d="M7,91 c8.727,-9.241 12.5,-20.743 12.5,-47 v-30.5 h75.0" fill="none" stroke="#000000" stroke-width="2" /><path d="M2.5,67 c6.793,-3.015 12.445,-6.519 16.5,-10" fill="none" stroke="#000000" stroke-width="2" /><path d="M15.5,41 c-2.875,-5.722 -6.672,-12.311 -11,-19" fill="none" stroke="#000000" stroke-width="2" /></svg>