<?xml version='1.0' encoding='utf-8'?>
<svg xmlns="http://www.w3.org/2000/svg" height="100px" version="1.0" viewBox="0 0 100 100" width="100px" x="0px" y="0px">
<line fill="none" stroke="#000000" stroke-width="2" x1="44.5" x2="44.5" y1="74" y2="90.5" /><line fill="none" stroke="#000000" stroke-width="2" x1="66.5" x2="66.5" y1="74" y2="90.5" /><line fill="none" stroke="#000000" stroke-width="2" x1="15.5" x2="95" y1="91.5" y2="91.5" /><line fill="none" stroke="#000000" stroke-width="2" x1="48.5" x2="48.5" y1="19" y2="3" /><line fill="none" stroke="#000000" stroke-width="2" x1="18.5" x2="75.5" y1="32" y2="26" /><line fill="none" stroke="#000000" stroke-width="2" x1="48.5" x2="84.5" y1="10.5" y2="10.5" /><line fill="none" stroke="#000000" stroke-width="2" x1="56" x2="56" y1="65" y2="45" /><line fill="none" stroke="#000000" stroke-width="2" x1="26.5" x2="85.5" y1="55" y2="55" /><polyline fill="none" points="88.5,90.5 88.5,73 22.5,73 22.5,90.5" stroke="#000000" stroke-width="2" /><polyline fill="none" points="26.5,66 86.5,66 86.5,44 25.5,44 25.5,67" stroke="#000000" stroke-width="2" /><path d="M79,30.5 c4.873,-3.441 8.491,-6.866 11.701,-11.104" fill="none" stroke="#000000" stroke-width="2" /><path d="M4.5,91 c6.739,-14.092 10,-29.671 10,-51 v-21.0 h77.0" fill="none" stroke="#000000" stroke-width="2" /><path d="M41.5,19 v13.5 c0,5.396 0.12,5.5 20,5.5 c25.984,0 26.148,-0.132 27,-10.5" fill="none" stroke="#000000" stroke-width="2" /></svg>