<?xml version='1.0' encoding='utf-8'?>
<svg xmlns="http://www.w3.org/2000/svg" height="100px" version="1.0" viewBox="0 0 100 100" width="100px" x="0px" y="0px">
<line fill="none" stroke="#000000" stroke-width="2" x1="9" x2="26.5" y1="57" y2="57" /><line fill="none" stroke="#000000" stroke-width="2" x1="9" x2="26.5" y1="34" y2="34" /><line fill="none" stroke="#000000" stroke-width="2" x1="39.5" x2="92.5" y1="34" y2="34" /><line fill="none" stroke="#000000" stroke-width="2" x1="95.5" x2="32" y1="72.5" y2="72.5" /><line fill="none" stroke="#000000" stroke-width="2" x1="74" x2="74" y1="56.5" y2="94" /><polyline fill="none" points="9,80.5 27.5,80.5 27.5,11.5 8,11.5 8,88.5" stroke="#000000" stroke-width="2" /><polyline fill="none" points="39.5,53 92.5,53 92.5,16 38.5,16 38.5,54" stroke="#000000" stroke-width="2" /><path d="M54.5,16 c2.645,-3.953 5.15,-8.271 7,-12" fill="none" stroke="#000000" stroke-width="2" /><path d="M65.5,16 v18.0 c0,19.096 -8.212,29.376 -28,34.5" fill="none" stroke="#000000" stroke-width="2" /></svg>