<?xml version='1.0' encoding='utf-8'?>
<svg xmlns="http://www.w3.org/2000/svg" height="100px" version="1.0" viewBox="0 0 100 100" width="100px" x="0px" y="0px">
<line fill="none" stroke="#000000" stroke-width="2" x1="20" x2="81" y1="88.5" y2="88.5" /><line fill="none" stroke="#000000" stroke-width="2" x1="20" x2="81" y1="78" y2="78" /><line fill="none" stroke="#000000" stroke-width="2" x1="20" x2="81" y1="67.5" y2="67.5" /><line fill="none" stroke="#000000" stroke-width="2" x1="48.5" x2="48.5" y1="19" y2="3" /><line fill="none" stroke="#000000" stroke-width="2" x1="48.5" x2="84.5" y1="10.5" y2="10.5" /><line fill="none" stroke="#000000" stroke-width="2" x1="82" x2="18" y1="27.5" y2="27.5" /><polyline fill="none" points="81,94 81,57 19,57 19,94" stroke="#000000" stroke-width="2" /><polyline fill="none" points="91,34.5 91,19 9,19 9,34.5" stroke="#000000" stroke-width="2" /><path d="M94.5,62.5 c-16.943,-6.879 -31.083,-14.302 -44.5,-23.3 c-13.417,8.998 -27.557,16.421 -44.5,23.3" fill="none" stroke="#000000" stroke-width="2" /><path d="M38,32 c-6.344,5.559 -15.553,10.671 -28,15" fill="none" stroke="#000000" stroke-width="2" /><path d="M89,47.5 c-7.865,-4.979 -17.846,-10.222 -29,-15" fill="none" stroke="#000000" stroke-width="2" /></svg>