<?xml version='1.0' encoding='utf-8'?>
<svg xmlns="http://www.w3.org/2000/svg" height="100px" version="1.0" viewBox="0 0 100 100" width="100px" x="0px" y="0px">
<line fill="none" stroke="#000000" stroke-width="2" x1="62.5" x2="94" y1="12" y2="12" /><line fill="none" stroke="#000000" stroke-width="2" x1="30.5" x2="30.5" y1="47.5" y2="4" /><line fill="none" stroke="#000000" stroke-width="2" x1="17.5" x2="83.5" y1="87.5" y2="87.5" /><line fill="none" stroke="#000000" stroke-width="2" x1="17.5" x2="83.5" y1="76" y2="76" /><line fill="none" stroke="#000000" stroke-width="2" x1="17.5" x2="83.5" y1="64.5" y2="64.5" /><polyline fill="none" points="83.5,93.5 83.5,53 16.5,53 16.5,93.5" stroke="#000000" stroke-width="2" /><path d="M53.5,47.5 c22.357,-7.713 30.597,-16.457 34,-35.5" fill="none" stroke="#000000" stroke-width="2" /><path d="M53.5,26.5 c5.163,-6.121 9.562,-14.336 12,-22.5" fill="none" stroke="#000000" stroke-width="2" /><path d="M95.5,48.5 c-20.689,-7.402 -28.967,-16.713 -31,-32.5" fill="none" stroke="#000000" stroke-width="2" /><path d="M37.5,46.5 c4.017,0.341 6.424,0.5 7.5,0.5 c4.531,0 5,-0.408 5,-5 v-23.0 h-39.0 v29.5" fill="none" stroke="#000000" stroke-width="2" /><path d="M21,15.5 c-2.863,-3.595 -6.182,-7.086 -9.5,-10" fill="none" stroke="#000000" stroke-width="2" /><path d="M40,15.5 c3.852,-3.262 7.352,-7.168 9.5,-10.5" fill="none" stroke="#000000" stroke-width="2" /><path d="M16,41 c3.25,-4.59 6.034,-10.747 7.5,-17" fill="none" stroke="#000000" stroke-width="2" /><path d="M45,40 c-2.073,-5.158 -5.197,-11.102 -8.5,-16" fill="none" stroke="#000000" stroke-width="2" /></svg>