<?xml version='1.0' encoding='utf-8'?>
<svg xmlns="http://www.w3.org/2000/svg" height="100px" version="1.0" viewBox="0 0 100 100" width="100px" x="0px" y="0px">
<line fill="none" stroke="#000000" stroke-width="2" x1="8.5" x2="26" y1="57" y2="57" /><line fill="none" stroke="#000000" stroke-width="2" x1="8.5" x2="26" y1="34" y2="34" /><line fill="none" stroke="#000000" stroke-width="2" x1="78" x2="49" y1="23.5" y2="23.5" /><polyline fill="none" points="8.5,80.5 27,80.5 27,11.5 7.5,11.5 7.5,88.5" stroke="#000000" stroke-width="2" /><polyline fill="none" points="38.5,59 60,59 60,34 37.5,34 37.5,60" stroke="#000000" stroke-width="2" /><polyline fill="none" points="68,59 89.5,59 89.5,34 67,34 67,60" stroke="#000000" stroke-width="2" /><path d="M96,32.5 c-12.348,-8.264 -22.701,-17.121 -32.5,-27.8 c-9.799,10.679 -20.152,19.536 -32.5,27.8" fill="none" stroke="#000000" stroke-width="2" /><path d="M29,91.5 c9.583,-7.444 16.019,-17.542 18.5,-29" fill="none" stroke="#000000" stroke-width="2" /><path d="M59.5,91.5 c-4.274,-8.39 -9.113,-15.185 -14.5,-20.5" fill="none" stroke="#000000" stroke-width="2" /><path d="M63,91.5 c7.105,-8.007 11.924,-17.962 14,-29" fill="none" stroke="#000000" stroke-width="2" /><path d="M95,91.5 c-5.896,-8.39 -12.711,-15.536 -20,-21" fill="none" stroke="#000000" stroke-width="2" /></svg>