<?xml version='1.0' encoding='utf-8'?>
<svg xmlns="http://www.w3.org/2000/svg" height="100px" version="1.0" viewBox="0 0 100 100" width="100px" x="0px" y="0px">
<line fill="none" stroke="#000000" stroke-width="2" x1="29.5" x2="29.5" y1="6" y2="43.5" /><line fill="none" stroke="#000000" stroke-width="2" x1="14" x2="14" y1="12.5" y2="46" /><line fill="none" stroke="#000000" stroke-width="2" x1="51" x2="29.5" y1="21.14" y2="21.14" /><line fill="none" stroke="#000000" stroke-width="2" x1="94" x2="6" y1="52.5" y2="52.5" /><line fill="none" stroke="#000000" stroke-width="2" x1="23" x2="23" y1="94" y2="68" /><line fill="none" stroke="#000000" stroke-width="2" x1="23" x2="85" y1="88.5" y2="88.5" /><polyline fill="none" points="23.5,67.5 85,67.5 85,94" stroke="#000000" stroke-width="2" /><path d="M7,47 c18.746,-2.728 34.885,-5.887 44.5,-8.5" fill="none" stroke="#000000" stroke-width="2" /><path d="M57,6 v33.5 c0,4.424 0.834,5 15,5 c17.908,0 18.175,-0.203 20,-17" fill="none" stroke="#000000" stroke-width="2" /><path d="M57,25 c11.726,-3.194 21.984,-7.395 34,-14" fill="none" stroke="#000000" stroke-width="2" /><path d="M5,79.5 c13.182,-6.254 24.514,-16.304 31,-27" fill="none" stroke="#000000" stroke-width="2" /></svg>