<?xml version='1.0' encoding='utf-8'?>
<svg xmlns="http://www.w3.org/2000/svg" height="100px" version="1.0" viewBox="0 0 100 100" width="100px" x="0px" y="0px">
<line fill="none" stroke="#000000" stroke-width="2" x1="38" x2="6" y1="11" y2="11" /><line fill="none" stroke="#000000" stroke-width="2" x1="45" x2="94.5" y1="28.5" y2="28.5" /><polyline fill="none" points="15,81 34,81 34,42.5 14,42.5 14,91" stroke="#000000" stroke-width="2" /><path d="M3,63 c8.673,-11.171 14.006,-26.27 16.5,-52" fill="none" stroke="#000000" stroke-width="2" /><path d="M47,91 c12.15,-14.13 17,-29.132 17,-61.5" fill="none" stroke="#000000" stroke-width="2" /><path d="M63.5,46.5 h27.5 c0,37.205 -3.717,43.5 -11,43.5 c-2.961,0 -8.543,-0.356 -15,-1" fill="none" stroke="#000000" stroke-width="2" /><path d="M33.5,91 c7.728,-14.052 11.5,-29.832 11.5,-51 v-29.0 h50.0" fill="none" stroke="#000000" stroke-width="2" /></svg>