<?xml version='1.0' encoding='utf-8'?>
<svg xmlns="http://www.w3.org/2000/svg" height="100px" version="1.0" viewBox="0 0 100 100" width="100px" x="0px" y="0px">
<line fill="none" stroke="#000000" stroke-width="2" x1="38" x2="6" y1="11" y2="11" /><line fill="none" stroke="#000000" stroke-width="2" x1="45" x2="89.5" y1="23" y2="23" /><line fill="none" stroke="#000000" stroke-width="2" x1="38.5" x2="95" y1="48" y2="48" /><line fill="none" stroke="#000000" stroke-width="2" x1="95.5" x2="38" y1="61" y2="61" /><polyline fill="none" points="15,81 34,81 34,42.5 14,42.5 14,91" stroke="#000000" stroke-width="2" /><polyline fill="none" points="45,37 89.5,37 89.5,10 44,10 44,38" stroke="#000000" stroke-width="2" /><path d="M3,63 c8.673,-11.171 14.006,-26.27 16.5,-52" fill="none" stroke="#000000" stroke-width="2" /><path d="M85,48 v34.5 c0,8.474 -0.516,9 -5.5,9 c-1.803,0 -6.854,-0.17 -12.5,-0.5" fill="none" stroke="#000000" stroke-width="2" /><path d="M65,85.5 c-4.7,-6.18 -11.249,-13.175 -18,-19" fill="none" stroke="#000000" stroke-width="2" /></svg>