<?xml version='1.0' encoding='utf-8'?>
<svg xmlns="http://www.w3.org/2000/svg" height="100px" version="1.0" viewBox="0 0 100 100" width="100px" x="0px" y="0px">
<line fill="none" stroke="#000000" stroke-width="2" x1="53.5" x2="90" y1="27" y2="27" /><line fill="none" stroke="#000000" stroke-width="2" x1="27" x2="27" y1="10.5" y2="40.5" /><line fill="none" stroke="#000000" stroke-width="2" x1="47" x2="8" y1="10.5" y2="10.5" /><line fill="none" stroke="#000000" stroke-width="2" x1="45.5" x2="9.5" y1="25.5" y2="25.5" /><line fill="none" stroke="#000000" stroke-width="2" x1="94" x2="6" y1="51.5" y2="51.5" /><line fill="none" stroke="#000000" stroke-width="2" x1="23" x2="23" y1="94" y2="67" /><line fill="none" stroke="#000000" stroke-width="2" x1="23" x2="85" y1="88.5" y2="88.5" /><polyline fill="none" points="53.5,42 90,42 90,13 52.5,13 52.5,43" stroke="#000000" stroke-width="2" /><polyline fill="none" points="23.5,66.5 85,66.5 85,94" stroke="#000000" stroke-width="2" /><path d="M72.5,3 c-1.629,3.688 -3.594,6.941 -6,10" fill="none" stroke="#000000" stroke-width="2" /><path d="M6.5,44 c16.672,-2.612 31.818,-5.653 41,-8" fill="none" stroke="#000000" stroke-width="2" /><path d="M5,78.5 c13.183,-6.254 24.515,-16.304 31,-27" fill="none" stroke="#000000" stroke-width="2" /></svg>