<?xml version='1.0' encoding='utf-8'?>
<svg xmlns="http://www.w3.org/2000/svg" height="100px" version="1.0" viewBox="0 0 100 100" width="100px" x="0px" y="0px">
<line fill="none" stroke="#000000" stroke-width="2" x1="94" x2="6" y1="57" y2="57" /><line fill="none" stroke="#000000" stroke-width="2" x1="23" x2="23" y1="94.5" y2="70.5" /><line fill="none" stroke="#000000" stroke-width="2" x1="23" x2="85" y1="89.5" y2="89.5" /><line fill="none" stroke="#000000" stroke-width="2" x1="5" x2="49" y1="30" y2="27" /><line fill="none" stroke="#000000" stroke-width="2" x1="27.5" x2="27.5" y1="28.5" y2="44.5" /><line fill="none" stroke="#000000" stroke-width="2" x1="51.5" x2="90" y1="27.5" y2="27.5" /><polyline fill="none" points="23.5,70 85,70 85,94.5" stroke="#000000" stroke-width="2" /><path d="M5,81 c13.183,-5.558 24.515,-14.493 31,-24" fill="none" stroke="#000000" stroke-width="2" /><path d="M5,51.5 c6.189,-5.715 9,-12.651 9,-25.4 v-16.6 h29.0 v36.0 c0,4.177 -0.33,4.5 -4,4.5 c-1.661,0 -5.088,-0.136 -10,-0.5" fill="none" stroke="#000000" stroke-width="2" /><path d="M32.5,23.5 c-3.238,-3.614 -6.839,-7.208 -10,-10" fill="none" stroke="#000000" stroke-width="2" /><path d="M30,3 c-0.886,2.387 -1.865,4.502 -3,6.5" fill="none" stroke="#000000" stroke-width="2" /><path d="M47.5,50.5 c21.523,-4.037 33.953,-11.186 41.673,-22.562" fill="none" stroke="#000000" stroke-width="2" /><path d="M93.5,50.5 c-16.307,-4.063 -30.111,-11.414 -38.5,-20" fill="none" stroke="#000000" stroke-width="2" /><path d="M49.5,24 c6.242,-2.465 9.5,-7.081 9.5,-14 v-3.5 h21.0 v13.0 c0,2.746 0.355,3 6.5,3 c7.108,0 7.35,-0.191 8,-8" fill="none" stroke="#000000" stroke-width="2" /></svg>