<?xml version='1.0' encoding='utf-8'?>
<svg xmlns="http://www.w3.org/2000/svg" height="100px" version="1.0" viewBox="0 0 100 100" width="100px" x="0px" y="0px">
<line fill="none" stroke="#000000" stroke-width="2" x1="77" x2="77" y1="44.5" y2="4.5" /><line fill="none" stroke="#000000" stroke-width="2" x1="94" x2="62.5" y1="15" y2="15" /><line fill="none" stroke="#000000" stroke-width="2" x1="23" x2="23" y1="44.5" y2="4.5" /><line fill="none" stroke="#000000" stroke-width="2" x1="37.5" x2="6" y1="15" y2="15" /><line fill="none" stroke="#000000" stroke-width="2" x1="6" x2="94" y1="50" y2="50" /><line fill="none" stroke="#000000" stroke-width="2" x1="76" x2="22.5" y1="62" y2="62" /><line fill="none" stroke="#000000" stroke-width="2" x1="25" x2="25" y1="94" y2="74.5" /><line fill="none" stroke="#000000" stroke-width="2" x1="26" x2="80" y1="89" y2="89" /><polyline fill="none" points="25.5,74 81,74 81,94" stroke="#000000" stroke-width="2" /><path d="M93.5,42.5 c-7.359,-9.026 -12.414,-18.131 -15.5,-28" fill="none" stroke="#000000" stroke-width="2" /><path d="M62,36.5 c6.721,-7.166 11.25,-14.019 14.5,-22" fill="none" stroke="#000000" stroke-width="2" /><path d="M37.5,34 c-3.989,-6.063 -8.847,-12.463 -14,-18.5" fill="none" stroke="#000000" stroke-width="2" /><path d="M42.5,44 c-7.865,9.419 -20.523,17.512 -37.5,23" fill="none" stroke="#000000" stroke-width="2" /><path d="M64,50 c7.229,7.387 17.365,13.792 31,19" fill="none" stroke="#000000" stroke-width="2" /><path d="M6,82 c17.389,-5.513 26.195,-10.987 34,-20" fill="none" stroke="#000000" stroke-width="2" /><path d="M36,22.5 c10.589,-4.12 19.662,-10.915 25,-18" fill="none" stroke="#000000" stroke-width="2" /><path d="M36,42.5 c10.589,-4.12 19.662,-10.915 25,-18" fill="none" stroke="#000000" stroke-width="2" /><path d="M38,6.5 c7.657,3.468 14.588,7.784 24,15" fill="none" stroke="#000000" stroke-width="2" /><path d="M38,26.5 c7.657,3.468 14.588,7.784 24,15" fill="none" stroke="#000000" stroke-width="2" /><path d="M6.5,42.5 c7.359,-9.026 12.414,-18.131 15.5,-28" fill="none" stroke="#000000" stroke-width="2" /></svg>