<?xml version='1.0' encoding='utf-8'?>
<svg xmlns="http://www.w3.org/2000/svg" height="100px" version="1.0" viewBox="0 0 100 100" width="100px" x="0px" y="0px">
<line fill="none" stroke="#000000" stroke-width="2" x1="6.5" x2="42.5" y1="30" y2="30" /><line fill="none" stroke="#000000" stroke-width="2" x1="9.5" x2="39.5" y1="10.5" y2="10.5" /><line fill="none" stroke="#000000" stroke-width="2" x1="25" x2="25" y1="30" y2="94" /><line fill="none" stroke="#000000" stroke-width="2" x1="37.5" x2="37.5" y1="41" y2="83" /><line fill="none" stroke="#000000" stroke-width="2" x1="95.5" x2="41" y1="21.5" y2="21.5" /><path d="M7.5,85.5 c3.132,-12.028 5,-27.831 5,-44.5" fill="none" stroke="#000000" stroke-width="2" /><path d="M75.5,6.5 c5.388,2.864 10.938,6.347 16,10" fill="none" stroke="#000000" stroke-width="2" /><path d="M40,91.5 c11.129,-20.228 18,-49.983 18,-86.5" fill="none" stroke="#000000" stroke-width="2" /><path d="M55,91.5 c15.88,-11.484 27.51,-31.333 33,-60" fill="none" stroke="#000000" stroke-width="2" /><path d="M96.5,91.5 c-20.012,-12.386 -32.896,-30.411 -40,-58" fill="none" stroke="#000000" stroke-width="2" /></svg>