<?xml version='1.0' encoding='utf-8'?>
<svg xmlns="http://www.w3.org/2000/svg" height="100px" version="1.0" viewBox="0 0 100 100" width="100px" x="0px" y="0px">
<line fill="none" stroke="#000000" stroke-width="2" x1="6.5" x2="93.5" y1="12" y2="12" /><line fill="none" stroke="#000000" stroke-width="2" x1="50" x2="50" y1="12" y2="3.5" /><line fill="none" stroke="#000000" stroke-width="2" x1="92" x2="8" y1="66" y2="66" /><line fill="none" stroke="#000000" stroke-width="2" x1="84" x2="16" y1="55" y2="55" /><polyline fill="none" points="16,47.5 16,20 84,20 84,46.5 17,46.5" stroke="#000000" stroke-width="2" /><polyline fill="none" points="29,39.5 29,28 71,28 71,38.5 30,38.5" stroke="#000000" stroke-width="2" /><path d="M51,66 v21.804 c0,3.277 -0.674,3.696 -7,3.696 c-2.85,0 -7.088,-0.153 -13,-0.5" fill="none" stroke="#000000" stroke-width="2" /><path d="M9,89.5 c9.055,-4.813 16.503,-11.192 21,-17.5" fill="none" stroke="#000000" stroke-width="2" /><path d="M91,90 c-6.143,-5.823 -14.238,-12.229 -23,-18" fill="none" stroke="#000000" stroke-width="2" /></svg>