<?xml version='1.0' encoding='utf-8'?>
<svg xmlns="http://www.w3.org/2000/svg" height="100px" version="1.0" viewBox="0 0 100 100" width="100px" x="0px" y="0px">
<line fill="none" stroke="#000000" stroke-width="2" x1="23.5" x2="76.5" y1="21" y2="21" /><line fill="none" stroke="#000000" stroke-width="2" x1="50" x2="50" y1="21" y2="11" /><polyline fill="none" points="83.5,27 83.5,51 16.5,51 16.5,27" stroke="#000000" stroke-width="2" /><path d="M33,78 c6.061,-8.428 11.826,-17.892 16.5,-27" fill="none" stroke="#000000" stroke-width="2" /><path d="M26,46.5 c18.648,-5.126 34.604,-13.644 44,-22.5" fill="none" stroke="#000000" stroke-width="2" /><path d="M27.5,27 c14.678,4.393 27.961,9.86 46,19" fill="none" stroke="#000000" stroke-width="2" /><path d="M70,90.5 c7.004,0.363 11.129,0.5 13,0.5 c6.354,0 7,-0.673 7,-8 v-23.5 h-80.0 v33.0" fill="none" stroke="#000000" stroke-width="2" /><path d="M82.5,82 c-4.109,-5.454 -9.73,-12.45 -14.5,-18" fill="none" stroke="#000000" stroke-width="2" /><path d="M18.5,79 c18.109,-0.698 38.354,-2.833 57,-6" fill="none" stroke="#000000" stroke-width="2" /><path d="M94.5,26.5 c-16.952,-6.522 -31.083,-13.719 -44.5,-22.3 c-13.417,8.581 -27.548,15.777 -44.5,22.3" fill="none" stroke="#000000" stroke-width="2" /></svg>