<?xml version='1.0' encoding='utf-8'?>
<svg xmlns="http://www.w3.org/2000/svg" height="100px" version="1.0" viewBox="0 0 100 100" width="100px" x="0px" y="0px">
<line fill="none" stroke="#000000" stroke-width="2" x1="6" x2="94" y1="40" y2="40" /><line fill="none" stroke="#000000" stroke-width="2" x1="90" x2="10" y1="12" y2="12" /><line fill="none" stroke="#000000" stroke-width="2" x1="86" x2="14" y1="25.5" y2="25.5" /><line fill="none" stroke="#000000" stroke-width="2" x1="50" x2="50" y1="94.5" y2="52.5" /><line fill="none" stroke="#000000" stroke-width="2" x1="87" x2="13" y1="66.5" y2="66.5" /><path d="M6,65 c22.896,-11.182 40.776,-36.085 44,-62" fill="none" stroke="#000000" stroke-width="2" /><path d="M94,65 c-15.207,-7.564 -29.254,-21.879 -37.5,-39.5" fill="none" stroke="#000000" stroke-width="2" /><path d="M10,90.5 c18.424,-7.479 31.281,-15.661 39.5,-24" fill="none" stroke="#000000" stroke-width="2" /><path d="M69,49.5 c-14.91,2.759 -28.678,4.682 -43,6" fill="none" stroke="#000000" stroke-width="2" /><path d="M90,90.5 c-11.464,-7.896 -25.791,-16.464 -39.5,-23.5" fill="none" stroke="#000000" stroke-width="2" /></svg>