<?xml version='1.0' encoding='utf-8'?>
<svg xmlns="http://www.w3.org/2000/svg" height="100px" version="1.0" viewBox="0 0 100 100" width="100px" x="0px" y="0px">
<line fill="none" stroke="#000000" stroke-width="2" x1="49" x2="96" y1="10.5" y2="10.5" /><line fill="none" stroke="#000000" stroke-width="2" x1="54" x2="90" y1="57" y2="57" /><line fill="none" stroke="#000000" stroke-width="2" x1="54" x2="90" y1="41" y2="41" /><line fill="none" stroke="#000000" stroke-width="2" x1="26.5" x2="26.5" y1="94" y2="46" /><line fill="none" stroke="#000000" stroke-width="2" x1="47" x2="7" y1="60.5" y2="60.5" /><polyline fill="none" points="54,73.5 91,73.5 91,25.5 53,25.5 53,74.5" stroke="#000000" stroke-width="2" /><path d="M46,92.5 c7.587,-3.835 14.14,-9.067 18,-14" fill="none" stroke="#000000" stroke-width="2" /><path d="M95.5,93 c-4.649,-4.882 -11.013,-10.108 -18,-14.5" fill="none" stroke="#000000" stroke-width="2" /><path d="M71,10.5 c-0.84,5.553 -1.835,10.448 -3,15" fill="none" stroke="#000000" stroke-width="2" /><path d="M10,7.5 V32.0 c0,3.841 0.222,4 15,4 c18.194,0 18.409,-0.153 20,-14" fill="none" stroke="#000000" stroke-width="2" /><path d="M10,20.5 c11.844,-2.057 22.086,-4.798 34,-9" fill="none" stroke="#000000" stroke-width="2" /><path d="M6.5,85.5 c9.238,-8.315 15.133,-16.355 19,-25.5" fill="none" stroke="#000000" stroke-width="2" /><path d="M44.5,42.5 c-12.479,2.777 -24.01,4.682 -36,6" fill="none" stroke="#000000" stroke-width="2" /><path d="M47,80 c-6.154,-6.178 -13.328,-13.188 -20,-19.5" fill="none" stroke="#000000" stroke-width="2" /></svg>