<?xml version='1.0' encoding='utf-8'?>
<svg xmlns="http://www.w3.org/2000/svg" height="100px" version="1.0" viewBox="0 0 100 100" width="100px" x="0px" y="0px">
<line fill="none" stroke="#000000" stroke-width="2" x1="17.5" x2="17.5" y1="94" y2="11" /><line fill="none" stroke="#000000" stroke-width="2" x1="29" x2="3.5" y1="31" y2="31" /><line fill="none" stroke="#000000" stroke-width="2" x1="69.5" x2="37" y1="44" y2="44" /><line fill="none" stroke="#000000" stroke-width="2" x1="62" x2="62" y1="2.5" y2="21.5" /><line fill="none" stroke="#000000" stroke-width="2" x1="27.5" x2="96" y1="21.5" y2="21.5" /><line fill="none" stroke="#000000" stroke-width="2" x1="90.5" x2="62" y1="10" y2="10" /><line fill="none" stroke="#000000" stroke-width="2" x1="42.5" x2="42.5" y1="21.5" y2="5.5" /><path d="M28,8 c-8.131,2.732 -15.691,4.682 -23.5,6" fill="none" stroke="#000000" stroke-width="2" /><path d="M2.5,70.5 c6.99,-13.023 11.578,-25.655 14.5,-40" fill="none" stroke="#000000" stroke-width="2" /><path d="M28,56 c-3.163,-7.735 -6.627,-16.021 -10,-24" fill="none" stroke="#000000" stroke-width="2" /><path d="M55,44 v21.5 c0,5.052 -0.375,5.5 -4,5.5 c-1.654,0 -4.573,-0.168 -8,-0.5" fill="none" stroke="#000000" stroke-width="2" /><path d="M35.5,72.5 c4.135,-5.511 7.507,-12.501 9.5,-20" fill="none" stroke="#000000" stroke-width="2" /><path d="M73,21.5 c0,40.337 12.417,71.5 18,71.5 c2.223,0 4.551,-4.497 6,-19.5" fill="none" stroke="#000000" stroke-width="2" /><path d="M82.5,24.5 c2.188,2.579 4.443,5.712 6.5,9" fill="none" stroke="#000000" stroke-width="2" /><path d="M25,93.5 c4.97,-12.736 7.5,-27.438 7.5,-47 v-13.0 H95.0" fill="none" stroke="#000000" stroke-width="2" /><path d="M91,39.5 c-5.262,25.883 -17.45,44.065 -33.5,53.5" fill="none" stroke="#000000" stroke-width="2" /><path d="M70,52.5 c-5.682,19.497 -17.736,33.302 -34,40.5" fill="none" stroke="#000000" stroke-width="2" /></svg>