<?xml version='1.0' encoding='utf-8'?>
<svg xmlns="http://www.w3.org/2000/svg" height="100px" version="1.0" viewBox="0 0 100 100" width="100px" x="0px" y="0px">
<line fill="none" stroke="#000000" stroke-width="2" x1="50" x2="50" y1="11.5" y2="2" /><line fill="none" stroke="#000000" stroke-width="2" x1="7" x2="93" y1="37" y2="37" /><line fill="none" stroke="#000000" stroke-width="2" x1="13" x2="87" y1="29" y2="29" /><line fill="none" stroke="#000000" stroke-width="2" x1="50" x2="50" y1="37" y2="20.5" /><line fill="none" stroke="#000000" stroke-width="2" x1="14.5" x2="86.5" y1="75.5" y2="75.5" /><line fill="none" stroke="#000000" stroke-width="2" x1="84" x2="17" y1="52" y2="52" /><polyline fill="none" points="89.5,23.5 89.5,11.5 10.5,11.5 10.5,23.5" stroke="#000000" stroke-width="2" /><polyline fill="none" points="13.5,90 13.5,67 86.5,67 86.5,84 14.5,84" stroke="#000000" stroke-width="2" /><polyline fill="none" points="16,61 16,44 84,44 84,60 17,60" stroke="#000000" stroke-width="2" /><path d="M56.5,11.5 v8.5 c0,2.252 0.365,2.5 12,2.5 c12.906,0 13.295,-0.298 14.5,-7.5" fill="none" stroke="#000000" stroke-width="2" /><path d="M14,24 c18.146,-2.319 27.291,-7.524 28,-12.5" fill="none" stroke="#000000" stroke-width="2" /><path d="M50,44 v43.0 c0,5.803 0.199,6 22,6 c21.6,0 21.779,-0.137 23,-12.5" fill="none" stroke="#000000" stroke-width="2" /></svg>