<?xml version='1.0' encoding='utf-8'?>
<svg xmlns="http://www.w3.org/2000/svg" height="100px" version="1.0" viewBox="0 0 100 100" width="100px" x="0px" y="0px">
<line fill="none" stroke="#000000" stroke-width="2" x1="50" x2="50" y1="12" y2="2" /><line fill="none" stroke="#000000" stroke-width="2" x1="7" x2="93" y1="39" y2="39" /><line fill="none" stroke="#000000" stroke-width="2" x1="13" x2="87" y1="30.5" y2="30.5" /><line fill="none" stroke="#000000" stroke-width="2" x1="50" x2="50" y1="39" y2="21.5" /><line fill="none" stroke="#000000" stroke-width="2" x1="59" x2="87.5" y1="73.5" y2="73.5" /><line fill="none" stroke="#000000" stroke-width="2" x1="12.5" x2="41" y1="73.5" y2="73.5" /><line fill="none" stroke="#000000" stroke-width="2" x1="41" x2="12.5" y1="83" y2="83" /><line fill="none" stroke="#000000" stroke-width="2" x1="58" x2="58" y1="46.5" y2="89" /><polyline fill="none" points="89.5,24 89.5,12 10.5,12 10.5,24" stroke="#000000" stroke-width="2" /><polyline fill="none" points="58,64 87.5,64 87.5,83 59,83" stroke="#000000" stroke-width="2" /><polyline fill="none" points="12.5,89 12.5,64 42,64" stroke="#000000" stroke-width="2" /><polyline fill="none" points="41,56.5 14.5,56.5 14.5,46.5 85.5,46.5 85.5,56.5 59,56.5" stroke="#000000" stroke-width="2" /><path d="M56.5,12 v9.5 c0,2.252 0.365,2.5 12,2.5 c12.919,0 13.097,-0.112 14.5,-8.5" fill="none" stroke="#000000" stroke-width="2" /><path d="M14,25.5 c18.146,-2.504 27.291,-8.126 28,-13.5" fill="none" stroke="#000000" stroke-width="2" /><path d="M42,46.5 V87.0 c0,5.75 0.258,6 26.5,6 c25.947,0 26.061,-0.083 27.5,-12.5" fill="none" stroke="#000000" stroke-width="2" /></svg>