<?xml version='1.0' encoding='utf-8'?>
<svg xmlns="http://www.w3.org/2000/svg" height="100px" version="1.0" viewBox="0 0 100 100" width="100px" x="0px" y="0px">
<line fill="none" stroke="#000000" stroke-width="2" x1="6" x2="36" y1="25" y2="25" /><line fill="none" stroke="#000000" stroke-width="2" x1="21" x2="21" y1="25" y2="7" /><line fill="none" stroke="#000000" stroke-width="2" x1="42.5" x2="90.5" y1="86" y2="86" /><line fill="none" stroke="#000000" stroke-width="2" x1="42.5" x2="90.5" y1="58" y2="58" /><line fill="none" stroke="#000000" stroke-width="2" x1="37" x2="95" y1="11" y2="11" /><polyline fill="none" points="90.5,93 90.5,32 41.5,32 41.5,93" stroke="#000000" stroke-width="2" /><path d="M6,87 c10.165,-2.489 18.964,-5.403 30,-10" fill="none" stroke="#000000" stroke-width="2" /><path d="M25.5,81 c2.68,-13.673 4.975,-30.976 6.5,-49.5" fill="none" stroke="#000000" stroke-width="2" /><path d="M15,73.5 c-1.303,-13.792 -2.887,-28.188 -4.5,-41.5" fill="none" stroke="#000000" stroke-width="2" /><path d="M66,11 c-1.285,7.789 -2.926,14.659 -5,21" fill="none" stroke="#000000" stroke-width="2" /></svg>