<?xml version='1.0' encoding='utf-8'?>
<svg xmlns="http://www.w3.org/2000/svg" height="100px" version="1.0" viewBox="0 0 100 100" width="100px" x="0px" y="0px">
<line fill="none" stroke="#000000" stroke-width="2" x1="7.5" x2="92.5" y1="89.5" y2="89.5" /><line fill="none" stroke="#000000" stroke-width="2" x1="12" x2="88" y1="61" y2="61" /><line fill="none" stroke="#000000" stroke-width="2" x1="50" x2="50" y1="61" y2="52" /><line fill="none" stroke="#000000" stroke-width="2" x1="31.5" x2="31.5" y1="11.5" y2="22" /><line fill="none" stroke="#000000" stroke-width="2" x1="31.5" x2="31.5" y1="37" y2="47.5" /><line fill="none" stroke="#000000" stroke-width="2" x1="12.5" x2="50" y1="48.5" y2="48.5" /><line fill="none" stroke="#000000" stroke-width="2" x1="53" x2="92" y1="11" y2="11" /><polyline fill="none" points="49.5,10.5 11.5,10.5 11.5,54.5" stroke="#000000" stroke-width="2" /><polyline fill="none" points="12.5,36 47.5,36 47.5,23 12.5,23" stroke="#000000" stroke-width="2" /><path d="M59,89.5 c5.104,-7.972 9.261,-17.745 12,-28.5" fill="none" stroke="#000000" stroke-width="2" /><path d="M40,89.5 c-3.384,-9.62 -7.391,-19.157 -12,-28.5" fill="none" stroke="#000000" stroke-width="2" /><path d="M52.5,49 c19.206,-8.087 31.274,-19.677 38.576,-37.381" fill="none" stroke="#000000" stroke-width="2" /><path d="M95,52 c-16.024,-9.034 -29.281,-21.979 -37.5,-37" fill="none" stroke="#000000" stroke-width="2" /></svg>