<?xml version='1.0' encoding='utf-8'?>
<svg xmlns="http://www.w3.org/2000/svg" height="100px" version="1.0" viewBox="0 0 100 100" width="100px" x="0px" y="0px">
<line fill="none" stroke="#000000" stroke-width="2" x1="53" x2="19" y1="15.5" y2="15.5" /><line fill="none" stroke="#000000" stroke-width="2" x1="95" x2="61.5" y1="15.5" y2="15.5" /><line fill="none" stroke="#000000" stroke-width="2" x1="50.5" x2="50.5" y1="59" y2="35" /><line fill="none" stroke="#000000" stroke-width="2" x1="85" x2="16" y1="60" y2="60" /><path d="M23,5 c-2.729,9.845 -9.133,20.379 -17,28" fill="none" stroke="#000000" stroke-width="2" /><path d="M76.5,30.5 c-1.833,-4.87 -3.895,-10.028 -6,-15" fill="none" stroke="#000000" stroke-width="2" /><path d="M35.5,30.5 c-1.833,-4.87 -3.895,-10.028 -6,-15" fill="none" stroke="#000000" stroke-width="2" /><path d="M68,5 c-3.766,8.562 -11.55,17.947 -21,25" fill="none" stroke="#000000" stroke-width="2" /><path d="M85,66 v-32.0 h-70.0 v47.5 c0,8.953 1.375,10 37,10 c38.424,0 38.644,-0.172 40,-18.5" fill="none" stroke="#000000" stroke-width="2" /></svg>