<?xml version='1.0' encoding='utf-8'?>
<svg xmlns="http://www.w3.org/2000/svg" height="100px" version="1.0" viewBox="0 0 100 100" width="100px" x="0px" y="0px">
<line fill="none" stroke="#000000" stroke-width="2" x1="94" x2="57" y1="14" y2="14" /><line fill="none" stroke="#000000" stroke-width="2" x1="50" x2="17.5" y1="14" y2="14" /><line fill="none" stroke="#000000" stroke-width="2" x1="74" x2="14" y1="46" y2="46" /><polyline fill="none" points="21,87 21,57.5 66,57.5 66,80 22,80" stroke="#000000" stroke-width="2" /><path d="M34,29 c-1.833,-4.87 -3.895,-10.029 -6,-15" fill="none" stroke="#000000" stroke-width="2" /><path d="M75,29 c-1.833,-4.87 -3.895,-10.029 -6,-15" fill="none" stroke="#000000" stroke-width="2" /><path d="M23,4 c-3.148,7.932 -9.355,16.47 -17,23" fill="none" stroke="#000000" stroke-width="2" /><path d="M63,4 c-3.717,8.452 -11.482,17.896 -21,25" fill="none" stroke="#000000" stroke-width="2" /><path d="M9,34 h78.0 v49.5 c0,7.366 -0.695,8 -8,8 c-2.578,0 -7.353,-0.166 -15,-0.5" fill="none" stroke="#000000" stroke-width="2" /></svg>