<?xml version='1.0' encoding='utf-8'?>
<svg xmlns="http://www.w3.org/2000/svg" height="100px" version="1.0" viewBox="0 0 100 100" width="100px" x="0px" y="0px">
<line fill="none" stroke="#000000" stroke-width="2" x1="50" x2="16.5" y1="14" y2="14" /><line fill="none" stroke="#000000" stroke-width="2" x1="94" x2="56" y1="14" y2="14" /><line fill="none" stroke="#000000" stroke-width="2" x1="95" x2="5" y1="78.5" y2="78.5" /><line fill="none" stroke="#000000" stroke-width="2" x1="16.5" x2="83.5" y1="66" y2="66" /><line fill="none" stroke="#000000" stroke-width="2" x1="50" x2="50" y1="34.5" y2="95" /><line fill="none" stroke="#000000" stroke-width="2" x1="16.5" x2="83.5" y1="50" y2="50" /><polyline fill="none" points="84.5,67 84.5,34.5 15.5,34.5 15.5,67" stroke="#000000" stroke-width="2" /><path d="M22,4 c-3.148,7.932 -9.355,16.47 -17,23" fill="none" stroke="#000000" stroke-width="2" /><path d="M34,27 c-1.833,-4.221 -3.895,-8.692 -6,-13" fill="none" stroke="#000000" stroke-width="2" /><path d="M63,4 c-2.713,5.802 -8.139,12.004 -15,17" fill="none" stroke="#000000" stroke-width="2" /><path d="M72,27 c-1.833,-4.221 -3.895,-8.692 -6,-13" fill="none" stroke="#000000" stroke-width="2" /><path d="M27,34.5 c-2.478,-4.146 -5.233,-8.114 -8,-11.5" fill="none" stroke="#000000" stroke-width="2" /><path d="M52,34.5 c-2.478,-4.505 -5.233,-8.819 -8,-12.5" fill="none" stroke="#000000" stroke-width="2" /><path d="M71,34.5 c3.982,-4.299 7.43,-8.63 10,-12.5" fill="none" stroke="#000000" stroke-width="2" /></svg>