<?xml version='1.0' encoding='utf-8'?>
<svg xmlns="http://www.w3.org/2000/svg" height="100px" version="1.0" viewBox="0 0 100 100" width="100px" x="0px" y="0px">
<line fill="none" stroke="#000000" stroke-width="2" x1="94" x2="56" y1="11" y2="11" /><line fill="none" stroke="#000000" stroke-width="2" x1="50" x2="18" y1="11" y2="11" /><line fill="none" stroke="#000000" stroke-width="2" x1="19" x2="82" y1="34" y2="34" /><line fill="none" stroke="#000000" stroke-width="2" x1="19" x2="82" y1="44" y2="44" /><line fill="none" stroke="#000000" stroke-width="2" x1="7" x2="93" y1="64" y2="64" /><polyline fill="none" points="19,54 82,54 82,24 18,24 18,55" stroke="#000000" stroke-width="2" /><path d="M34,24 c-1.826,-4.225 -3.895,-8.691 -6,-13" fill="none" stroke="#000000" stroke-width="2" /><path d="M74,24 c-1.826,-4.225 -3.895,-8.691 -6,-13" fill="none" stroke="#000000" stroke-width="2" /><path d="M23,2.5 c-3.148,7.069 -9.355,14.681 -17,20.5" fill="none" stroke="#000000" stroke-width="2" /><path d="M63,2.5 c-3.717,6.254 -11.465,13.276 -21,18.5" fill="none" stroke="#000000" stroke-width="2" /><path d="M46.5,54 c-9.677,11.468 -22.938,20.653 -41.5,28" fill="none" stroke="#000000" stroke-width="2" /><path d="M63,64 c8.396,7.415 18.887,13.664 32,19" fill="none" stroke="#000000" stroke-width="2" /><path d="M15,92 c10.154,-5.154 19.393,-12.983 26,-22" fill="none" stroke="#000000" stroke-width="2" /><path d="M40,91.5 c4.992,-6.596 9.92,-13.981 14,-21" fill="none" stroke="#000000" stroke-width="2" /><path d="M83.5,94 c-4.799,-5.503 -11.345,-12.442 -17,-18" fill="none" stroke="#000000" stroke-width="2" /><path d="M32.5,92 c14.469,-0.446 30.446,-1.887 45.5,-4" fill="none" stroke="#000000" stroke-width="2" /></svg>