<?xml version='1.0' encoding='utf-8'?>
<svg xmlns="http://www.w3.org/2000/svg" height="100px" version="1.0" viewBox="0 0 100 100" width="100px" x="0px" y="0px">
<line fill="none" stroke="#000000" stroke-width="2" x1="50" x2="50" y1="93" y2="7" /><line fill="none" stroke="#000000" stroke-width="2" x1="68" x2="30.5" y1="43" y2="43" /><path d="M7,11 h21.5 v23.0 h-19.0 c-0.563,11.548 -1.41,22.351 -2.5,32" fill="none" stroke="#000000" stroke-width="2" /><path d="M8,56.5 h20.5 c-1.902,33.056 -2.595,34 -6.5,34 c-2.278,0 -9.547,-0.507 -14,-1" fill="none" stroke="#000000" stroke-width="2" /><path d="M70.5,11 h21.5 v23.0 h-19.0 c-0.563,11.548 -1.41,22.351 -2.5,32" fill="none" stroke="#000000" stroke-width="2" /><path d="M71.5,56.5 h20.5 c-1.902,33.056 -2.595,34 -6.5,34 c-2.278,0 -9.547,-0.507 -14,-1" fill="none" stroke="#000000" stroke-width="2" /><path d="M67.5,77 c-5.168,-10.695 -11.054,-22.175 -17,-33" fill="none" stroke="#000000" stroke-width="2" /><path d="M31,83.5 c8.893,-13.39 14.733,-26.336 18.5,-41" fill="none" stroke="#000000" stroke-width="2" /><path d="M43,36.5 c-2.898,-8.527 -6.243,-16.997 -9.5,-24" fill="none" stroke="#000000" stroke-width="2" /><path d="M57,36.5 c3.858,-7.498 7.354,-16.331 9.5,-24" fill="none" stroke="#000000" stroke-width="2" /></svg>