<?xml version='1.0' encoding='utf-8'?>
<svg xmlns="http://www.w3.org/2000/svg" height="100px" version="1.0" viewBox="0 0 100 100" width="100px" x="0px" y="0px">
<line fill="none" stroke="#000000" stroke-width="2" x1="92" x2="8" y1="63.5" y2="63.5" /><line fill="none" stroke="#000000" stroke-width="2" x1="50" x2="50" y1="94" y2="46" /><line fill="none" stroke="#000000" stroke-width="2" x1="52" x2="93" y1="9.5" y2="9.5" /><line fill="none" stroke="#000000" stroke-width="2" x1="18" x2="49" y1="23" y2="23" /><line fill="none" stroke="#000000" stroke-width="2" x1="30" x2="30" y1="23" y2="4" /><line fill="none" stroke="#000000" stroke-width="2" x1="30" x2="48" y1="11.5" y2="11.5" /><path d="M94,90.5 c-20.882,-8.638 -34.489,-17.453 -43,-27" fill="none" stroke="#000000" stroke-width="2" /><path d="M38.5,63.5 c-5.387,-5.718 -11.32,-11.257 -17,-16" fill="none" stroke="#000000" stroke-width="2" /><path d="M61.5,63.5 c6.869,-5.063 12.97,-10.887 17,-16" fill="none" stroke="#000000" stroke-width="2" /><path d="M6,90.5 c20.882,-8.638 34.489,-17.453 43,-27" fill="none" stroke="#000000" stroke-width="2" /><path d="M50.5,42 c20.632,-5.022 35.282,-16.746 41.576,-31.884" fill="none" stroke="#000000" stroke-width="2" /><path d="M95,51 c-19.634,-7.737 -31.755,-20.572 -37,-38.5" fill="none" stroke="#000000" stroke-width="2" /><path d="M5,35 c7.768,-4.935 13.387,-10.999 17,-18" fill="none" stroke="#000000" stroke-width="2" /><path d="M48.006,23.895 c-1.194,11.314 -15.911,22.573 -40.006,27.105" fill="none" stroke="#000000" stroke-width="2" /><path d="M37,40 c-5.83,-3.494 -13.232,-7.247 -20,-10" fill="none" stroke="#000000" stroke-width="2" /></svg>