<?xml version='1.0' encoding='utf-8'?>
<svg xmlns="http://www.w3.org/2000/svg" height="100px" version="1.0" viewBox="0 0 100 100" width="100px" x="0px" y="0px">
<line fill="none" stroke="#000000" stroke-width="2" x1="20.5" x2="20.5" y1="94" y2="6" /><line fill="none" stroke="#000000" stroke-width="2" x1="35.5" x2="4" y1="39" y2="39" /><line fill="none" stroke="#000000" stroke-width="2" x1="45" x2="45" y1="93.5" y2="47" /><line fill="none" stroke="#000000" stroke-width="2" x1="37.5" x2="96" y1="16.5" y2="16.5" /><line fill="none" stroke="#000000" stroke-width="2" x1="48" x2="48" y1="27.5" y2="4.5" /><line fill="none" stroke="#000000" stroke-width="2" x1="77.5" x2="77.5" y1="27.5" y2="4.5" /><path d="M3,79.5 c8.184,-13.373 13.541,-26.336 17,-41" fill="none" stroke="#000000" stroke-width="2" /><path d="M31.5,64.5 c-3.08,-7.931 -6.783,-16.501 -10.5,-24.5" fill="none" stroke="#000000" stroke-width="2" /><path d="M15,34 c-2.652,-7.823 -5.872,-15.646 -9,-22" fill="none" stroke="#000000" stroke-width="2" /><path d="M26,34 c3.673,-7.122 7.027,-15.65 9,-23" fill="none" stroke="#000000" stroke-width="2" /><path d="M53,29.5 c-5.354,15.07 -13.694,27.923 -25,38.5" fill="none" stroke="#000000" stroke-width="2" /><path d="M66.5,29.5 v53.0 c0,9.261 0.236,9.5 13.5,9.5 c14.518,0 14.719,-0.156 16,-25" fill="none" stroke="#000000" stroke-width="2" /><path d="M54,66.5 c14.122,-6.204 26.406,-14.236 41,-27" fill="none" stroke="#000000" stroke-width="2" /></svg>