<?xml version='1.0' encoding='utf-8'?>
<svg xmlns="http://www.w3.org/2000/svg" height="100px" version="1.0" viewBox="0 0 100 100" width="100px" x="0px" y="0px">
<line fill="none" stroke="#000000" stroke-width="2" x1="5.5" x2="38" y1="52" y2="50" /><line fill="none" stroke="#000000" stroke-width="2" x1="23" x2="23" y1="51" y2="94" /><line fill="none" stroke="#000000" stroke-width="2" x1="68.5" x2="68.5" y1="94" y2="6" /><line fill="none" stroke="#000000" stroke-width="2" x1="94" x2="41.5" y1="43" y2="43" /><line fill="none" stroke="#000000" stroke-width="2" x1="95.5" x2="39.5" y1="65" y2="65" /><path d="M39.5,57.5 c-1.403,-7.545 -3.801,-16.481 -6.5,-24" fill="none" stroke="#000000" stroke-width="2" /><path d="M7.5,87.5 c2.879,-9.126 4.795,-19.038 5.5,-28.5" fill="none" stroke="#000000" stroke-width="2" /><path d="M36,84.5 c-0.596,-7.641 -1.969,-17.879 -3.5,-26" fill="none" stroke="#000000" stroke-width="2" /><path d="M11.5,51.5 c8.773,-11.431 16.518,-23.412 23.5,-36.5" fill="none" stroke="#000000" stroke-width="2" /><path d="M19,41 c-3.258,-6.554 -7.862,-15.377 -11.5,-22" fill="none" stroke="#000000" stroke-width="2" /><path d="M12,27.5 c4.367,-7.057 8.246,-14.042 12,-21.5" fill="none" stroke="#000000" stroke-width="2" /><path d="M56,12 c-3.246,9.087 -8.373,17.661 -15,25" fill="none" stroke="#000000" stroke-width="2" /><path d="M94.5,37 c-4.238,-8.403 -9.574,-17.042 -15.5,-25" fill="none" stroke="#000000" stroke-width="2" /></svg>