<?xml version='1.0' encoding='utf-8'?>
<svg xmlns="http://www.w3.org/2000/svg" height="100px" version="1.0" viewBox="0 0 100 100" width="100px" x="0px" y="0px">
<line fill="none" stroke="#000000" stroke-width="2" x1="4" x2="35" y1="52" y2="50" /><line fill="none" stroke="#000000" stroke-width="2" x1="21.5" x2="21.5" y1="51" y2="94" /><line fill="none" stroke="#000000" stroke-width="2" x1="36.5" x2="95.5" y1="18.5" y2="18.5" /><path d="M36.5,57.5 c-1.403,-7.545 -3.801,-16.481 -6.5,-24" fill="none" stroke="#000000" stroke-width="2" /><path d="M6,87.5 c2.879,-9.126 4.795,-19.038 5.5,-28.5" fill="none" stroke="#000000" stroke-width="2" /><path d="M34.5,81.5 c-0.596,-6.759 -1.969,-15.816 -3.5,-23" fill="none" stroke="#000000" stroke-width="2" /><path d="M10,51.5 c8.773,-11.431 16.518,-23.412 23.5,-36.5" fill="none" stroke="#000000" stroke-width="2" /><path d="M17.5,41 c-3.258,-6.554 -7.862,-15.377 -11.5,-22" fill="none" stroke="#000000" stroke-width="2" /><path d="M10.5,27.5 c4.367,-7.057 8.246,-14.042 12,-21.5" fill="none" stroke="#000000" stroke-width="2" /><path d="M39.5,48 c9.832,-1.458 18.338,-3.223 29,-6" fill="none" stroke="#000000" stroke-width="2" /><path d="M43,77.5 c7.316,-8.354 11,-20.869 11,-46.5 v-6.5" fill="none" stroke="#000000" stroke-width="2" /><path d="M91.5,31 c-8.045,30.089 -22.789,47.376 -49,60" fill="none" stroke="#000000" stroke-width="2" /><path d="M71.5,4.5 c0,59.849 15.213,86.5 18.5,86.5 c1.781,0 4.375,-2.614 6,-23" fill="none" stroke="#000000" stroke-width="2" /><path d="M77.5,4.5 c4.775,3.049 9.523,6.589 13.5,10" fill="none" stroke="#000000" stroke-width="2" /></svg>