<?xml version='1.0' encoding='utf-8'?>
<svg xmlns="http://www.w3.org/2000/svg" height="100px" version="1.0" viewBox="0 0 100 100" width="100px" x="0px" y="0px">
<line fill="none" stroke="#000000" stroke-width="2" x1="4.5" x2="37" y1="52" y2="50" /><line fill="none" stroke="#000000" stroke-width="2" x1="22" x2="22" y1="51" y2="94" /><line fill="none" stroke="#000000" stroke-width="2" x1="46" x2="88" y1="48.5" y2="48.5" /><polyline fill="none" points="93,55.5 93,36.5 41.5,36.5 41.5,52.5" stroke="#000000" stroke-width="2" /><path d="M38.5,57.5 c-1.403,-7.545 -3.801,-16.481 -6.5,-24" fill="none" stroke="#000000" stroke-width="2" /><path d="M6.5,87.5 c2.879,-9.126 4.795,-19.038 5.5,-28.5" fill="none" stroke="#000000" stroke-width="2" /><path d="M35,84.5 c-0.596,-7.641 -1.969,-17.879 -3.5,-26" fill="none" stroke="#000000" stroke-width="2" /><path d="M10.5,51.5 c8.773,-11.431 16.518,-23.412 23.5,-36.5" fill="none" stroke="#000000" stroke-width="2" /><path d="M18,41 c-3.258,-6.554 -7.862,-15.377 -11.5,-22" fill="none" stroke="#000000" stroke-width="2" /><path d="M11,27.5 c4.367,-7.057 8.246,-14.042 12,-21.5" fill="none" stroke="#000000" stroke-width="2" /><path d="M41.5,14.5 c17.813,0 34.802,-2.073 50.5,-6" fill="none" stroke="#000000" stroke-width="2" /><path d="M50,33 c-1.865,-5.407 -3.921,-10.581 -6,-15" fill="none" stroke="#000000" stroke-width="2" /><path d="M69,33 c-1.857,-5.772 -3.922,-11.286 -6,-16" fill="none" stroke="#000000" stroke-width="2" /><path d="M81.5,36.5 c3.32,-7.261 6.093,-14.892 8,-22" fill="none" stroke="#000000" stroke-width="2" /><path d="M37.5,90.5 c21.354,-4.503 40.461,-20.427 49.582,-41.398" fill="none" stroke="#000000" stroke-width="2" /><path d="M95.5,90.5 c-18.738,-4.079 -36.41,-17.712 -46,-36" fill="none" stroke="#000000" stroke-width="2" /></svg>