<?xml version='1.0' encoding='utf-8'?>
<svg xmlns="http://www.w3.org/2000/svg" height="100px" version="1.0" viewBox="0 0 100 100" width="100px" x="0px" y="0px">
<line fill="none" stroke="#000000" stroke-width="2" x1="5" x2="37.5" y1="52" y2="50" /><line fill="none" stroke="#000000" stroke-width="2" x1="22.5" x2="22.5" y1="51" y2="94" /><line fill="none" stroke="#000000" stroke-width="2" x1="45.5" x2="45.5" y1="35.5" y2="81.5" /><line fill="none" stroke="#000000" stroke-width="2" x1="96" x2="37.5" y1="35.5" y2="35.5" /><line fill="none" stroke="#000000" stroke-width="2" x1="88" x2="88" y1="94" y2="35.5" /><line fill="none" stroke="#000000" stroke-width="2" x1="46.5" x2="88" y1="65" y2="65" /><line fill="none" stroke="#000000" stroke-width="2" x1="46.5" x2="88" y1="50" y2="50" /><polyline fill="none" points="42.5,25 92,25 92,10 41.5,10 41.5,26" stroke="#000000" stroke-width="2" /><path d="M39,57.5 c-1.403,-7.545 -3.801,-16.481 -6.5,-24" fill="none" stroke="#000000" stroke-width="2" /><path d="M7,87.5 c2.879,-9.126 4.795,-19.038 5.5,-28.5" fill="none" stroke="#000000" stroke-width="2" /><path d="M35.5,78.5 c-0.737,-6.245 -1.969,-13.349 -3.5,-20" fill="none" stroke="#000000" stroke-width="2" /><path d="M11,51.5 c8.773,-11.431 16.518,-23.412 23.5,-36.5" fill="none" stroke="#000000" stroke-width="2" /><path d="M18.5,41 c-3.258,-6.554 -7.862,-15.377 -11.5,-22" fill="none" stroke="#000000" stroke-width="2" /><path d="M11.5,27.5 c4.367,-7.057 8.246,-14.042 12,-21.5" fill="none" stroke="#000000" stroke-width="2" /><path d="M36.5,82 c19.006,-1.332 40.072,-3.438 60,-6" fill="none" stroke="#000000" stroke-width="2" /></svg>