<?xml version='1.0' encoding='utf-8'?>
<svg xmlns="http://www.w3.org/2000/svg" height="100px" version="1.0" viewBox="0 0 100 100" width="100px" x="0px" y="0px">
<line fill="none" stroke="#000000" stroke-width="2" x1="3.5" x2="33" y1="52" y2="50" /><line fill="none" stroke="#000000" stroke-width="2" x1="19.5" x2="19.5" y1="51" y2="94" /><line fill="none" stroke="#000000" stroke-width="2" x1="37.5" x2="37.5" y1="10" y2="93" /><line fill="none" stroke="#000000" stroke-width="2" x1="38.5" x2="57.5" y1="60" y2="60" /><line fill="none" stroke="#000000" stroke-width="2" x1="38.5" x2="57.5" y1="35" y2="35" /><polyline fill="none" points="37.5,86 57.5,86 57.5,11 38.5,11" stroke="#000000" stroke-width="2" /><path d="M34,56.5 c-1.279,-7.545 -3.49,-16.5 -6,-24" fill="none" stroke="#000000" stroke-width="2" /><path d="M5.5,87.5 c2.624,-9.126 4.357,-19.038 5,-28.5" fill="none" stroke="#000000" stroke-width="2" /><path d="M31,82.5 c-0.547,-7.585 -1.604,-15.938 -3,-24" fill="none" stroke="#000000" stroke-width="2" /><path d="M9,51.5 c8.018,-11.415 15.133,-23.412 21.5,-36.5" fill="none" stroke="#000000" stroke-width="2" /><path d="M16,41 c-2.955,-6.562 -7.184,-15.377 -10.5,-22" fill="none" stroke="#000000" stroke-width="2" /><path d="M9.5,27.5 c3.982,-7.057 7.565,-14.049 11,-21.5" fill="none" stroke="#000000" stroke-width="2" /><path d="M97.5,51 c-2.417,-11.877 -5.469,-24.085 -9,-35.5" fill="none" stroke="#000000" stroke-width="2" /><path d="M80,6 v46.0 c0,7.604 -0.344,8 -4,8 c-1.05,0 -3.246,-0.134 -7,-0.5" fill="none" stroke="#000000" stroke-width="2" /><path d="M61,53.5 c3.644,-10.377 6.725,-23.916 8.5,-38" fill="none" stroke="#000000" stroke-width="2" /><path d="M93,47.5 c-4.519,24.155 -17.626,40.31 -33,45" fill="none" stroke="#000000" stroke-width="2" /></svg>