<?xml version='1.0' encoding='utf-8'?>
<svg xmlns="http://www.w3.org/2000/svg" height="100px" version="1.0" viewBox="0 0 100 100" width="100px" x="0px" y="0px">
<line fill="none" stroke="#000000" stroke-width="2" x1="4.5" x2="37" y1="52" y2="50" /><line fill="none" stroke="#000000" stroke-width="2" x1="22" x2="22" y1="51" y2="94" /><line fill="none" stroke="#000000" stroke-width="2" x1="92" x2="38.5" y1="66.5" y2="68.5" /><line fill="none" stroke="#000000" stroke-width="2" x1="66.5" x2="66.5" y1="67.5" y2="94" /><line fill="none" stroke="#000000" stroke-width="2" x1="66.5" x2="66.5" y1="40.5" y2="10.5" /><line fill="none" stroke="#000000" stroke-width="2" x1="42.5" x2="91.5" y1="25" y2="25" /><polyline fill="none" points="42.5,40.5 91.5,40.5 91.5,9.5 41.5,9.5 41.5,41.5" stroke="#000000" stroke-width="2" /><path d="M38.5,57.5 c-1.403,-7.545 -3.801,-16.481 -6.5,-24" fill="none" stroke="#000000" stroke-width="2" /><path d="M6.5,87.5 c2.879,-9.126 4.795,-19.038 5.5,-28.5" fill="none" stroke="#000000" stroke-width="2" /><path d="M35,81.5 c-0.596,-6.759 -1.969,-15.816 -3.5,-23" fill="none" stroke="#000000" stroke-width="2" /><path d="M10.5,51.5 c8.773,-11.431 16.518,-23.412 23.5,-36.5" fill="none" stroke="#000000" stroke-width="2" /><path d="M18,41 c-3.258,-6.554 -7.862,-15.377 -11.5,-22" fill="none" stroke="#000000" stroke-width="2" /><path d="M11,27.5 c4.367,-7.057 8.246,-14.042 12,-21.5" fill="none" stroke="#000000" stroke-width="2" /><path d="M60.5,61 c-4.971,-4.294 -11.433,-9.62 -17,-14" fill="none" stroke="#000000" stroke-width="2" /><path d="M96.5,72 c-3.969,-5.065 -9.35,-11.423 -14,-16.5" fill="none" stroke="#000000" stroke-width="2" /><path d="M40,90.5 c7.423,-5.36 13.463,-11.143 18,-17" fill="none" stroke="#000000" stroke-width="2" /><path d="M94.5,90.5 c-5.539,-5.557 -12.275,-11.338 -20,-17" fill="none" stroke="#000000" stroke-width="2" /><path d="M49,68 c13.457,-7.557 25.421,-15.54 36,-24" fill="none" stroke="#000000" stroke-width="2" /><path d="M50,52 c6.512,-3.866 12.074,-7.544 17.5,-11.5" fill="none" stroke="#000000" stroke-width="2" /></svg>