<?xml version='1.0' encoding='utf-8'?>
<svg xmlns="http://www.w3.org/2000/svg" height="100px" version="1.0" viewBox="0 0 100 100" width="100px" x="0px" y="0px">
<line fill="none" stroke="#000000" stroke-width="2" x1="5" x2="37.5" y1="52" y2="50" /><line fill="none" stroke="#000000" stroke-width="2" x1="22.5" x2="22.5" y1="51" y2="94" /><line fill="none" stroke="#000000" stroke-width="2" x1="60" x2="83" y1="21.5" y2="21.5" /><polyline fill="none" points="45,56 90.5,56 90.5,13.5 44,13.5 44,57" stroke="#000000" stroke-width="2" /><path d="M64.5,4 c-1.399,3.419 -2.721,6.579 -4,9.5" fill="none" stroke="#000000" stroke-width="2" /><path d="M39,57.5 c-1.403,-7.545 -3.801,-16.481 -6.5,-24" fill="none" stroke="#000000" stroke-width="2" /><path d="M7,87.5 c2.879,-9.126 4.795,-19.038 5.5,-28.5" fill="none" stroke="#000000" stroke-width="2" /><path d="M35.5,78.5 c-0.737,-6.245 -1.969,-13.349 -3.5,-20" fill="none" stroke="#000000" stroke-width="2" /><path d="M11,51.5 c8.773,-11.431 16.518,-23.412 23.5,-36.5" fill="none" stroke="#000000" stroke-width="2" /><path d="M18.5,41 c-3.258,-6.554 -7.862,-15.377 -11.5,-22" fill="none" stroke="#000000" stroke-width="2" /><path d="M11.5,27.5 c4.367,-7.057 8.246,-14.042 12,-21.5" fill="none" stroke="#000000" stroke-width="2" /><path d="M56.5,65 v20.5 c0,5.665 0.453,6 12,6 c14.717,0 14.936,-0.203 16,-12.5" fill="none" stroke="#000000" stroke-width="2" /><path d="M39,88.5 c3.637,-5.924 6.688,-13.513 8.5,-21.5" fill="none" stroke="#000000" stroke-width="2" /><path d="M95,86.5 c-2.732,-6.712 -6.111,-13.539 -10,-20" fill="none" stroke="#000000" stroke-width="2" /><path d="M60.5,60 c6.145,4.012 11.142,7.962 17,13.5" fill="none" stroke="#000000" stroke-width="2" /><path d="M49.5,32.5 c6.194,-4.569 12.758,-12.946 15,-19" fill="none" stroke="#000000" stroke-width="2" /><path d="M82.068,22.135 c-5.604,14.328 -17.228,24.82 -31.568,28.865" fill="none" stroke="#000000" stroke-width="2" /><path d="M84,51.5 c-9.963,-10.79 -22.832,-21.392 -34,-28" fill="none" stroke="#000000" stroke-width="2" /></svg>