<?xml version='1.0' encoding='utf-8'?>
<svg xmlns="http://www.w3.org/2000/svg" height="100px" version="1.0" viewBox="0 0 100 100" width="100px" x="0px" y="0px">
<line fill="none" stroke="#000000" stroke-width="2" x1="4" x2="35" y1="52" y2="50" /><line fill="none" stroke="#000000" stroke-width="2" x1="21.5" x2="21.5" y1="51" y2="94" /><line fill="none" stroke="#000000" stroke-width="2" x1="42" x2="89.5" y1="38.5" y2="38.5" /><line fill="none" stroke="#000000" stroke-width="2" x1="35.5" x2="97" y1="26" y2="26" /><line fill="none" stroke="#000000" stroke-width="2" x1="67.5" x2="67.5" y1="93.5" y2="3.5" /><line fill="none" stroke="#000000" stroke-width="2" x1="88.5" x2="47" y1="63" y2="63" /><line fill="none" stroke="#000000" stroke-width="2" x1="92.5" x2="92.5" y1="43.5" y2="93.5" /><polyline fill="none" points="90.5,39.5 90.5,13.5 42,13.5" stroke="#000000" stroke-width="2" /><path d="M36.5,57.5 c-1.403,-7.545 -3.801,-16.481 -6.5,-24" fill="none" stroke="#000000" stroke-width="2" /><path d="M6,87.5 c2.879,-9.126 4.795,-19.038 5.5,-28.5" fill="none" stroke="#000000" stroke-width="2" /><path d="M34.5,81.5 c-0.596,-6.759 -1.969,-15.816 -3.5,-23" fill="none" stroke="#000000" stroke-width="2" /><path d="M10,51.5 c8.773,-11.431 16.518,-23.412 23.5,-36.5" fill="none" stroke="#000000" stroke-width="2" /><path d="M17.5,41 c-3.258,-6.554 -7.862,-15.377 -11.5,-22" fill="none" stroke="#000000" stroke-width="2" /><path d="M10.5,27.5 c4.367,-7.057 8.246,-14.042 12,-21.5" fill="none" stroke="#000000" stroke-width="2" /><path d="M88.5,90.5 c-8.335,-12.194 -14.771,-20.563 -21,-27.5" fill="none" stroke="#000000" stroke-width="2" /><path d="M43.5,89.5 c10.48,-7.738 18.145,-16.717 23,-26.5" fill="none" stroke="#000000" stroke-width="2" /><path d="M60.5,59.5 c-3.193,-5.657 -6.69,-11.241 -10,-16" fill="none" stroke="#000000" stroke-width="2" /><path d="M74.5,59.5 c4.008,-5.089 7.623,-10.915 10,-16" fill="none" stroke="#000000" stroke-width="2" /><path d="M36.5,93.5 c4.092,-7.128 6.5,-17.853 6.5,-32.5 v-17.5" fill="none" stroke="#000000" stroke-width="2" /></svg>