<?xml version='1.0' encoding='utf-8'?>
<svg xmlns="http://www.w3.org/2000/svg" height="100px" version="1.0" viewBox="0 0 100 100" width="100px" x="0px" y="0px">
<line fill="none" stroke="#000000" stroke-width="2" x1="73" x2="98" y1="21" y2="21" /><line fill="none" stroke="#000000" stroke-width="2" x1="39" x2="64" y1="74.5" y2="74.5" /><line fill="none" stroke="#000000" stroke-width="2" x1="39" x2="64" y1="59.5" y2="59.5" /><line fill="none" stroke="#000000" stroke-width="2" x1="34" x2="68" y1="35.5" y2="35.5" /><line fill="none" stroke="#000000" stroke-width="2" x1="67" x2="35" y1="16" y2="16" /><line fill="none" stroke="#000000" stroke-width="2" x1="43" x2="43" y1="34.5" y2="5.5" /><line fill="none" stroke="#000000" stroke-width="2" x1="59" x2="59" y1="35.5" y2="5.5" /><line fill="none" stroke="#000000" stroke-width="2" x1="3.5" x2="33" y1="52" y2="50" /><line fill="none" stroke="#000000" stroke-width="2" x1="19.5" x2="19.5" y1="51" y2="94" /><path d="M66.5,91 c16.787,-15.29 24.396,-32.398 27,-70" fill="none" stroke="#000000" stroke-width="2" /><path d="M97.5,91 c-13.881,-13.949 -20.576,-30.239 -23,-63" fill="none" stroke="#000000" stroke-width="2" /><path d="M66,41 c4.518,-9.815 8.367,-22.903 10.5,-36" fill="none" stroke="#000000" stroke-width="2" /><path d="M38,92 v-46.5 h26.0 v40.46 c0,4.177 -0.281,4.54 -4,4.54 c-1.248,0 -3.883,-0.159 -7.5,-0.5" fill="none" stroke="#000000" stroke-width="2" /><path d="M34,56.5 c-1.279,-7.545 -3.49,-16.5 -6,-24" fill="none" stroke="#000000" stroke-width="2" /><path d="M5.5,87.5 c2.624,-9.126 4.357,-19.038 5,-28.5" fill="none" stroke="#000000" stroke-width="2" /><path d="M31,82.5 c-0.547,-7.585 -1.604,-15.938 -3,-24" fill="none" stroke="#000000" stroke-width="2" /><path d="M9,51.5 c8.018,-11.415 15.133,-23.412 21.5,-36.5" fill="none" stroke="#000000" stroke-width="2" /><path d="M16,41 c-2.955,-6.562 -7.184,-15.377 -10.5,-22" fill="none" stroke="#000000" stroke-width="2" /><path d="M9.5,27.5 c3.982,-7.057 7.565,-14.049 11,-21.5" fill="none" stroke="#000000" stroke-width="2" /></svg>