<?xml version='1.0' encoding='utf-8'?>
<svg xmlns="http://www.w3.org/2000/svg" height="100px" version="1.0" viewBox="0 0 100 100" width="100px" x="0px" y="0px">
<line fill="none" stroke="#000000" stroke-width="2" x1="3.5" x2="33" y1="52" y2="50" /><line fill="none" stroke="#000000" stroke-width="2" x1="20.5" x2="20.5" y1="51" y2="94" /><line fill="none" stroke="#000000" stroke-width="2" x1="80.5" x2="49.5" y1="17.5" y2="17.5" /><line fill="none" stroke="#000000" stroke-width="2" x1="41.5" x2="89.5" y1="89" y2="89" /><line fill="none" stroke="#000000" stroke-width="2" x1="65" x2="65" y1="51.5" y2="26.5" /><line fill="none" stroke="#000000" stroke-width="2" x1="41.5" x2="89.5" y1="74" y2="74" /><polyline fill="none" points="89.5,94.5 89.5,59.5 40.5,59.5 40.5,94.5" stroke="#000000" stroke-width="2" /><polyline fill="none" points="38,51.5 93,51.5 93,25.5 37,25.5 37,52.5" stroke="#000000" stroke-width="2" /><path d="M33,82.5 c-0.547,-7.585 -1.604,-15.938 -3,-24" fill="none" stroke="#000000" stroke-width="2" /><path d="M34,56.5 c-1.279,-7.545 -3.49,-16.5 -6,-24" fill="none" stroke="#000000" stroke-width="2" /><path d="M5.5,87.5 c2.624,-9.126 4.357,-19.038 5,-28.5" fill="none" stroke="#000000" stroke-width="2" /><path d="M9,51.5 c8.018,-11.415 15.133,-23.412 21.5,-36.5" fill="none" stroke="#000000" stroke-width="2" /><path d="M16,41 c-2.955,-6.562 -7.184,-15.377 -10.5,-22" fill="none" stroke="#000000" stroke-width="2" /><path d="M9.5,27.5 c3.982,-7.057 7.565,-14.049 11,-21.5" fill="none" stroke="#000000" stroke-width="2" /><path d="M98.5,24 c-12.743,-5.976 -23.4,-12.502 -33.5,-20.3 c-10.101,7.797 -20.757,14.324 -33.5,20.3" fill="none" stroke="#000000" stroke-width="2" /><path d="M73.5,47.5 c4.253,-5.033 7.717,-11.207 10,-18" fill="none" stroke="#000000" stroke-width="2" /><path d="M55.5,47.5 c-2.819,-6.076 -6.159,-12.099 -10,-18" fill="none" stroke="#000000" stroke-width="2" /></svg>