<?xml version='1.0' encoding='utf-8'?>
<svg xmlns="http://www.w3.org/2000/svg" height="100px" version="1.0" viewBox="0 0 100 100" width="100px" x="0px" y="0px">
<line fill="none" stroke="#000000" stroke-width="2" x1="94" x2="55.5" y1="10" y2="10" /><line fill="none" stroke="#000000" stroke-width="2" x1="50" x2="17.5" y1="10" y2="10" /><line fill="none" stroke="#000000" stroke-width="2" x1="19" x2="82" y1="29" y2="29" /><line fill="none" stroke="#000000" stroke-width="2" x1="19" x2="82" y1="37.5" y2="37.5" /><line fill="none" stroke="#000000" stroke-width="2" x1="7" x2="93" y1="54.5" y2="54.5" /><line fill="none" stroke="#000000" stroke-width="2" x1="83.5" x2="11" y1="77.5" y2="79.5" /><line fill="none" stroke="#000000" stroke-width="2" x1="50" x2="50" y1="78.5" y2="94" /><polyline fill="none" points="19,46 82,46 82,20.5 18,20.5 18,47" stroke="#000000" stroke-width="2" /><path d="M34,20.5 c-1.826,-3.412 -3.895,-7.02 -6,-10.5" fill="none" stroke="#000000" stroke-width="2" /><path d="M74,20.5 c-1.826,-3.412 -3.895,-7.02 -6,-10.5" fill="none" stroke="#000000" stroke-width="2" /><path d="M23,2.5 c-3.148,6.034 -9.355,12.532 -17,17.5" fill="none" stroke="#000000" stroke-width="2" /><path d="M63,2.5 c-3.717,5.239 -11.449,11.157 -21,15.5" fill="none" stroke="#000000" stroke-width="2" /><path d="M46.5,46 c-9.677,9.829 -22.938,17.702 -41.5,24" fill="none" stroke="#000000" stroke-width="2" /><path d="M63,54.5 c8.396,6.244 18.871,11.552 32,16" fill="none" stroke="#000000" stroke-width="2" /><path d="M42,75 c-4.531,-3.22 -10.424,-7.215 -15.5,-10.5" fill="none" stroke="#000000" stroke-width="2" /><path d="M90.5,84 c-5.102,-4.91 -12.021,-11.086 -18,-16" fill="none" stroke="#000000" stroke-width="2" /><path d="M9,93 c11.353,-3.271 20.537,-6.892 27.5,-10.5" fill="none" stroke="#000000" stroke-width="2" /><path d="M91,93.5 c-8.031,-3.76 -17.787,-7.708 -29,-11.5" fill="none" stroke="#000000" stroke-width="2" /><path d="M33.5,79 c12.521,-5.668 23.64,-11.667 33.5,-18" fill="none" stroke="#000000" stroke-width="2" /><path d="M31,67.5 c5.954,-3.025 11.043,-5.893 16,-9" fill="none" stroke="#000000" stroke-width="2" /></svg>