<?xml version='1.0' encoding='utf-8'?>
<svg xmlns="http://www.w3.org/2000/svg" height="100px" version="1.0" viewBox="0 0 100 100" width="100px" x="0px" y="0px">
<line fill="none" stroke="#000000" stroke-width="2" x1="3.5" x2="33" y1="52" y2="50" /><line fill="none" stroke="#000000" stroke-width="2" x1="19.5" x2="19.5" y1="51" y2="94" /><line fill="none" stroke="#000000" stroke-width="2" x1="95.5" x2="35" y1="58.5" y2="58.5" /><line fill="none" stroke="#000000" stroke-width="2" x1="37.5" x2="61.5" y1="31" y2="31" /><line fill="none" stroke="#000000" stroke-width="2" x1="37.5" x2="61.5" y1="20.5" y2="20.5" /><line fill="none" stroke="#000000" stroke-width="2" x1="68.5" x2="92.5" y1="31" y2="31" /><line fill="none" stroke="#000000" stroke-width="2" x1="68.5" x2="92.5" y1="20.5" y2="20.5" /><polyline fill="none" points="37.5,41.5 61.5,41.5 61.5,10 36.5,10 36.5,42.5" stroke="#000000" stroke-width="2" /><polyline fill="none" points="68.5,41.5 92.5,41.5 92.5,10 67.5,10 67.5,42.5" stroke="#000000" stroke-width="2" /><path d="M34,56.5 c-1.279,-7.545 -3.49,-16.5 -6,-24" fill="none" stroke="#000000" stroke-width="2" /><path d="M5.5,87.5 c2.624,-9.126 4.357,-19.038 5,-28.5" fill="none" stroke="#000000" stroke-width="2" /><path d="M31,82.5 c-0.547,-7.585 -1.604,-15.938 -3,-24" fill="none" stroke="#000000" stroke-width="2" /><path d="M9,51.5 c8.018,-11.415 15.133,-23.412 21.5,-36.5" fill="none" stroke="#000000" stroke-width="2" /><path d="M16,41 c-2.955,-6.562 -7.184,-15.377 -10.5,-22" fill="none" stroke="#000000" stroke-width="2" /><path d="M9.5,27.5 c3.982,-7.057 7.565,-14.049 11,-21.5" fill="none" stroke="#000000" stroke-width="2" /><path d="M31.5,92 c25.369,-3.926 44.685,-16.903 52.5,-33.5" fill="none" stroke="#000000" stroke-width="2" /><path d="M58,49.5 c-5.433,9.745 -12.248,18.701 -21,27.5" fill="none" stroke="#000000" stroke-width="2" /><path d="M41,73 c17.729,3.728 32.578,9.226 52,19.5" fill="none" stroke="#000000" stroke-width="2" /><path d="M33.5,54.5 c5.021,-2.638 9.453,-6.252 12.5,-10" fill="none" stroke="#000000" stroke-width="2" /><path d="M66,54 c4.619,-2.506 8.686,-5.95 11.5,-9.5" fill="none" stroke="#000000" stroke-width="2" /><path d="M95.5,54.5 c-3.139,-3.284 -7.578,-6.897 -12.5,-10" fill="none" stroke="#000000" stroke-width="2" /><path d="M63,54 c-2.89,-3.12 -6.978,-6.544 -11.5,-9.5" fill="none" stroke="#000000" stroke-width="2" /></svg>