<?xml version='1.0' encoding='utf-8'?>
<svg xmlns="http://www.w3.org/2000/svg" height="100px" version="1.0" viewBox="0 0 100 100" width="100px" x="0px" y="0px">
<line fill="none" stroke="#000000" stroke-width="2" x1="42" x2="42" y1="40" y2="94" /><line fill="none" stroke="#000000" stroke-width="2" x1="93" x2="42.5" y1="39.5" y2="39.5" /><line fill="none" stroke="#000000" stroke-width="2" x1="69" x2="69" y1="89" y2="39.5" /><line fill="none" stroke="#000000" stroke-width="2" x1="43" x2="95" y1="89" y2="89" /><line fill="none" stroke="#000000" stroke-width="2" x1="42" x2="91" y1="72" y2="72" /><line fill="none" stroke="#000000" stroke-width="2" x1="42" x2="91" y1="55.5" y2="55.5" /><line fill="none" stroke="#000000" stroke-width="2" x1="63" x2="63" y1="24" y2="10.5" /><line fill="none" stroke="#000000" stroke-width="2" x1="37" x2="37" y1="24" y2="10.5" /><line fill="none" stroke="#000000" stroke-width="2" x1="18.5" x2="18.5" y1="94" y2="29" /><polyline fill="none" points="13,25 88,25 88,9.5 12,9.5 12,26" stroke="#000000" stroke-width="2" /><path d="M76.5,28.5 c-2.172,4.058 -4.801,7.632 -8,11" fill="none" stroke="#000000" stroke-width="2" /><path d="M27.5,58.5 c8.622,-8.342 15.143,-17.775 20.5,-30" fill="none" stroke="#000000" stroke-width="2" /><path d="M4,70 c2.624,-10.247 4.357,-21.376 5,-32" fill="none" stroke="#000000" stroke-width="2" /><path d="M30,50.5 c-0.576,-4.605 -1.611,-9.652 -3,-14.5" fill="none" stroke="#000000" stroke-width="2" /></svg>