<?xml version='1.0' encoding='utf-8'?>
<svg xmlns="http://www.w3.org/2000/svg" height="100px" version="1.0" viewBox="0 0 100 100" width="100px" x="0px" y="0px">
<line fill="none" stroke="#000000" stroke-width="2" x1="33" x2="6" y1="42" y2="42" /><line fill="none" stroke="#000000" stroke-width="2" x1="34.5" x2="4" y1="21" y2="21" /><line fill="none" stroke="#000000" stroke-width="2" x1="19.5" x2="19.5" y1="6" y2="42" /><path d="M5.5,92 c13.922,-12.5 23.313,-29.521 26.513,-49.16" fill="none" stroke="#000000" stroke-width="2" /><path d="M93,90 h-25.0 c-33.441,0 -45.078,-7.534 -57,-39" fill="none" stroke="#000000" stroke-width="2" /><path d="M36,10.5 h25.0 v60.5 c0,7.286 -0.672,8 -7,8 c-2.045,0 -5.934,-0.157 -12,-0.5" fill="none" stroke="#000000" stroke-width="2" /><path d="M66,10.5 h25.0 v60.5 c0,7.286 -0.672,8 -7,8 c-2.045,0 -5.934,-0.157 -12,-0.5" fill="none" stroke="#000000" stroke-width="2" /><path d="M35,35.5 c10.646,-7.233 19.611,-15.618 26,-24" fill="none" stroke="#000000" stroke-width="2" /><path d="M35,62.5 c10.646,-7.233 19.611,-15.618 26,-24" fill="none" stroke="#000000" stroke-width="2" /><path d="M65,35.5 c10.646,-7.233 19.611,-15.618 26,-24" fill="none" stroke="#000000" stroke-width="2" /><path d="M65,62.5 c10.646,-7.233 19.611,-15.618 26,-24" fill="none" stroke="#000000" stroke-width="2" /></svg>