<?xml version='1.0' encoding='utf-8'?>
<svg xmlns="http://www.w3.org/2000/svg" height="100px" version="1.0" viewBox="0 0 100 100" width="100px" x="0px" y="0px">
<line fill="none" stroke="#000000" stroke-width="2" x1="9" x2="36" y1="47" y2="47" /><line fill="none" stroke="#000000" stroke-width="2" x1="4" x2="40" y1="77" y2="77" /><line fill="none" stroke="#000000" stroke-width="2" x1="22.5" x2="22.5" y1="31" y2="5" /><line fill="none" stroke="#000000" stroke-width="2" x1="22.5" x2="22.5" y1="95" y2="64" /><line fill="none" stroke="#000000" stroke-width="2" x1="4" x2="40" y1="18" y2="18" /><polyline fill="none" points="9,64 37,64 37,31 8,31 8,65" stroke="#000000" stroke-width="2" /><path d="M97,33 c-10.687,-8.155 -19.71,-16.672 -28.5,-26.8 c-8.79,10.128 -17.813,18.645 -28.5,26.8" fill="none" stroke="#000000" stroke-width="2" /><path d="M68.5,31 h23.5 v55.5 c0,4.638 -0.322,5 -4,5 c-1.613,0 -6.219,-0.177 -11,-0.5" fill="none" stroke="#000000" stroke-width="2" /><path d="M42.5,79.5 c9.314,-5.068 17.271,-11.389 23,-18" fill="none" stroke="#000000" stroke-width="2" /><path d="M56,58.5 c-2.98,-5.468 -6.686,-11.555 -11,-18" fill="none" stroke="#000000" stroke-width="2" /><path d="M69,79.5 c9.314,-5.068 17.271,-11.389 23,-18" fill="none" stroke="#000000" stroke-width="2" /><path d="M82.5,58.5 c-2.98,-5.468 -6.686,-11.555 -11,-18" fill="none" stroke="#000000" stroke-width="2" /><path d="M45,31 h20.5 v55.5 c0,4.638 -0.322,5 -4,5 c-1.613,0 -6.219,-0.177 -11,-0.5" fill="none" stroke="#000000" stroke-width="2" /></svg>