<?xml version='1.0' encoding='utf-8'?>
<svg xmlns="http://www.w3.org/2000/svg" height="100px" version="1.0" viewBox="0 0 100 100" width="100px" x="0px" y="0px">
<line fill="none" stroke="#000000" stroke-width="2" x1="4.5" x2="95.5" y1="26" y2="26" /><line fill="none" stroke="#000000" stroke-width="2" x1="73" x2="14.5" y1="12" y2="12" /><line fill="none" stroke="#000000" stroke-width="2" x1="46" x2="46" y1="26" y2="3.5" /><line fill="none" stroke="#000000" stroke-width="2" x1="19" x2="82" y1="87" y2="87" /><line fill="none" stroke="#000000" stroke-width="2" x1="19" x2="82" y1="73" y2="73" /><polyline fill="none" points="82,93 82,59 18,59 18,93" stroke="#000000" stroke-width="2" /><path d="M5,44 c36.91,-8.362 65.982,-22.605 83,-38" fill="none" stroke="#000000" stroke-width="2" /><path d="M27,38 v7.5 c0,5.13 0.4,5.5 27,5.5 c31.826,0 31.904,-0.048 34,-11" fill="none" stroke="#000000" stroke-width="2" /><path d="M27,42 c19.213,-2.008 37.374,-4.891 57,-9" fill="none" stroke="#000000" stroke-width="2" /></svg>