<?xml version='1.0' encoding='utf-8'?>
<svg xmlns="http://www.w3.org/2000/svg" height="100px" version="1.0" viewBox="0 0 100 100" width="100px" x="0px" y="0px">
<line fill="none" stroke="#000000" stroke-width="2" x1="9.5" x2="9.5" y1="12" y2="77" /><line fill="none" stroke="#000000" stroke-width="2" x1="38" x2="3.5" y1="11" y2="11" /><line fill="none" stroke="#000000" stroke-width="2" x1="32" x2="32" y1="94.5" y2="12" /><line fill="none" stroke="#000000" stroke-width="2" x1="10.5" x2="31" y1="53.5" y2="53.5" /><line fill="none" stroke="#000000" stroke-width="2" x1="10.5" x2="31" y1="31.5" y2="31.5" /><polyline fill="none" points="92,41.5 92,18.5 40.5,18.5 40.5,41.5" stroke="#000000" stroke-width="2" /><path d="M3,78.5 c9.009,-1.63 19.225,-4.106 29,-7" fill="none" stroke="#000000" stroke-width="2" /><path d="M35.5,90 c17.885,-11.651 29.5,-35.104 29.5,-62 v-23.5" fill="none" stroke="#000000" stroke-width="2" /><path d="M69,35 v48.0 c0,6.33 0.771,7 11,7 c13.167,0 13.396,-0.222 14,-29" fill="none" stroke="#000000" stroke-width="2" /></svg>