<?xml version='1.0' encoding='utf-8'?>
<svg xmlns="http://www.w3.org/2000/svg" height="100px" version="1.0" viewBox="0 0 100 100" width="100px" x="0px" y="0px">
<line fill="none" stroke="#000000" stroke-width="2" x1="5.5" x2="49.5" y1="22" y2="22" /><line fill="none" stroke="#000000" stroke-width="2" x1="7" x2="49" y1="11" y2="11" /><line fill="none" stroke="#000000" stroke-width="2" x1="28" x2="28" y1="11" y2="4.5" /><line fill="none" stroke="#000000" stroke-width="2" x1="55" x2="91" y1="31.5" y2="31.5" /><line fill="none" stroke="#000000" stroke-width="2" x1="55" x2="91" y1="38.5" y2="38.5" /><line fill="none" stroke="#000000" stroke-width="2" x1="55" x2="91" y1="45.5" y2="45.5" /><line fill="none" stroke="#000000" stroke-width="2" x1="93" x2="55" y1="10.5" y2="10.5" /><line fill="none" stroke="#000000" stroke-width="2" x1="11.5" x2="44" y1="44" y2="44" /><line fill="none" stroke="#000000" stroke-width="2" x1="11.5" x2="44" y1="36" y2="36" /><line fill="none" stroke="#000000" stroke-width="2" x1="19" x2="19" y1="59" y2="89" /><line fill="none" stroke="#000000" stroke-width="2" x1="94" x2="6" y1="59" y2="59" /><line fill="none" stroke="#000000" stroke-width="2" x1="80" x2="80" y1="96" y2="59" /><line fill="none" stroke="#000000" stroke-width="2" x1="20" x2="80" y1="78.5" y2="78.5" /><line fill="none" stroke="#000000" stroke-width="2" x1="20" x2="80" y1="68.5" y2="68.5" /><path d="M35,22 c2.904,-3.116 5.314,-6.854 7,-11" fill="none" stroke="#000000" stroke-width="2" /><path d="M21,22 c-2.053,-3.69 -4.367,-7.356 -7,-11" fill="none" stroke="#000000" stroke-width="2" /><path d="M95.5,41.42 c-1.684,11.45 -1.852,11.58 -22,11.58 c-18.232,0 -18.5,-0.241 -18.5,-5 v-23.5 h36.0 v-7.0 h-36.0 v-13.0" fill="none" stroke="#000000" stroke-width="2" /><path d="M10.5,54 v-26.0 h34.5 v22.0 c0,2.677 -0.359,3 -6.5,3 c-1.868,0 -4.811,-0.117 -10.5,-0.5" fill="none" stroke="#000000" stroke-width="2" /><path d="M5,89.5 c27.23,-0.51 59.127,-2.17 90,-5" fill="none" stroke="#000000" stroke-width="2" /></svg>