<?xml version='1.0' encoding='utf-8'?>
<svg xmlns="http://www.w3.org/2000/svg" height="100px" version="1.0" viewBox="0 0 100 100" width="100px" x="0px" y="0px">
<line fill="none" stroke="#000000" stroke-width="2" x1="11" x2="30.5" y1="59" y2="59" /><line fill="none" stroke="#000000" stroke-width="2" x1="12" x2="30.5" y1="33.5" y2="33.5" /><line fill="none" stroke="#000000" stroke-width="2" x1="67.5" x2="67.5" y1="94" y2="6" /><line fill="none" stroke="#000000" stroke-width="2" x1="93.5" x2="38" y1="43" y2="43" /><line fill="none" stroke="#000000" stroke-width="2" x1="95.5" x2="35.5" y1="65" y2="65" /><path d="M5,92.5 c4.1,-10.866 6,-23.313 6,-46.5 v-36.0 h20.5 v73.0 c0,7.724 -0.25,8 -5,8 c-1.819,0 -5.604,-0.155 -11,-0.5" fill="none" stroke="#000000" stroke-width="2" /><path d="M54,12 c-3.246,9.087 -8.373,17.661 -15,25" fill="none" stroke="#000000" stroke-width="2" /><path d="M94.5,37 c-4.238,-8.403 -9.574,-17.042 -15.5,-25" fill="none" stroke="#000000" stroke-width="2" /></svg>