<?xml version='1.0' encoding='utf-8'?>
<svg xmlns="http://www.w3.org/2000/svg" height="100px" version="1.0" viewBox="0 0 100 100" width="100px" x="0px" y="0px">
<line fill="none" stroke="#000000" stroke-width="2" x1="9" x2="27.5" y1="59" y2="59" /><line fill="none" stroke="#000000" stroke-width="2" x1="10" x2="27.5" y1="33.5" y2="33.5" /><line fill="none" stroke="#000000" stroke-width="2" x1="40.5" x2="92.5" y1="34" y2="34" /><line fill="none" stroke="#000000" stroke-width="2" x1="95.5" x2="33" y1="72.5" y2="72.5" /><line fill="none" stroke="#000000" stroke-width="2" x1="74" x2="74" y1="56.5" y2="94" /><polyline fill="none" points="40.5,53 92.5,53 92.5,16 39.5,16 39.5,54" stroke="#000000" stroke-width="2" /><path d="M4.5,92.5 c3.238,-8.584 4.5,-17.869 4.5,-46.5 v-36.0 h19.5 v73.0 c0,7.724 -0.25,8 -5,8 c-1.488,0 -4.585,-0.155 -9,-0.5" fill="none" stroke="#000000" stroke-width="2" /><path d="M55,16 c2.645,-3.953 5.15,-8.271 7,-12" fill="none" stroke="#000000" stroke-width="2" /><path d="M66,16 v18.0 c0,19.096 -8.212,29.376 -28,34.5" fill="none" stroke="#000000" stroke-width="2" /></svg>