<?xml version='1.0' encoding='utf-8'?>
<svg xmlns="http://www.w3.org/2000/svg" height="100px" version="1.0" viewBox="0 0 100 100" width="100px" x="0px" y="0px">
<line fill="none" stroke="#000000" stroke-width="2" x1="9" x2="26.5" y1="59" y2="59" /><line fill="none" stroke="#000000" stroke-width="2" x1="10" x2="26.5" y1="33.5" y2="33.5" /><line fill="none" stroke="#000000" stroke-width="2" x1="60.5" x2="93.5" y1="29" y2="29" /><line fill="none" stroke="#000000" stroke-width="2" x1="40.5" x2="40.5" y1="94" y2="38.75" /><line fill="none" stroke="#000000" stroke-width="2" x1="64.5" x2="64.5" y1="14.5" y2="3.5" /><line fill="none" stroke="#000000" stroke-width="2" x1="31.5" x2="96" y1="14.5" y2="14.5" /><path d="M4.5,92.5 c3.238,-8.584 4.5,-17.869 4.5,-46.5 v-36.0 h18.5 v73.0 c0,7.724 -0.25,8 -5,8 c-1.488,0 -4.585,-0.155 -9,-0.5" fill="none" stroke="#000000" stroke-width="2" /><path d="M44.5,59 c8.689,-11.518 15.34,-25.549 19.5,-41.5" fill="none" stroke="#000000" stroke-width="2" /><path d="M92.521,29.798 C86.329,59.694 70.592,79.903 45,92" fill="none" stroke="#000000" stroke-width="2" /><path d="M48,17.5 c-3.469,14.199 -10.205,28.793 -19,41" fill="none" stroke="#000000" stroke-width="2" /><path d="M83,56 c-4.987,-5.608 -10.551,-11.364 -16,-16.5" fill="none" stroke="#000000" stroke-width="2" /><path d="M54.5,43 c8.316,22.088 21.567,37.628 41.5,49" fill="none" stroke="#000000" stroke-width="2" /></svg>