<?xml version='1.0' encoding='utf-8'?>
<svg xmlns="http://www.w3.org/2000/svg" height="100px" version="1.0" viewBox="0 0 100 100" width="100px" x="0px" y="0px">
<line fill="none" stroke="#000000" stroke-width="2" x1="9" x2="27" y1="59" y2="59" /><line fill="none" stroke="#000000" stroke-width="2" x1="10" x2="27" y1="33.5" y2="33.5" /><line fill="none" stroke="#000000" stroke-width="2" x1="64" x2="64" y1="15" y2="4" /><line fill="none" stroke="#000000" stroke-width="2" x1="32" x2="95" y1="90" y2="90" /><line fill="none" stroke="#000000" stroke-width="2" x1="91.5" x2="35.5" y1="57" y2="57" /><line fill="none" stroke="#000000" stroke-width="2" x1="64" x2="64" y1="90" y2="57" /><polyline fill="none" points="92.5,30 92.5,15 35.5,15 35.5,33" stroke="#000000" stroke-width="2" /><path d="M4.5,92.5 c3.238,-8.584 4.5,-17.869 4.5,-46.5 v-36.0 h19.0 v73.0 c0,7.724 -0.25,8 -5,8 c-1.488,0 -4.585,-0.155 -9,-0.5" fill="none" stroke="#000000" stroke-width="2" /><path d="M69.5,15 v26.5 c0,4.844 0.234,5 11,5 c11.359,0 11.601,-0.195 12.5,-11" fill="none" stroke="#000000" stroke-width="2" /><path d="M33.5,50 c15.27,-6.343 24.5,-18.938 24.5,-34" fill="none" stroke="#000000" stroke-width="2" /></svg>