<?xml version='1.0' encoding='utf-8'?>
<svg xmlns="http://www.w3.org/2000/svg" height="100px" version="1.0" viewBox="0 0 100 100" width="100px" x="0px" y="0px">
<line fill="none" stroke="#000000" stroke-width="2" x1="9" x2="26.5" y1="59" y2="59" /><line fill="none" stroke="#000000" stroke-width="2" x1="10" x2="26.5" y1="33.5" y2="33.5" /><line fill="none" stroke="#000000" stroke-width="2" x1="55.5" x2="90" y1="27" y2="27" /><polyline fill="none" points="43.5,75 43.5,45 31.5,45" stroke="#000000" stroke-width="2" /><polyline fill="none" points="55.5,44 90,44 90,10.5 54.5,10.5 54.5,77.5" stroke="#000000" stroke-width="2" /><path d="M4.5,92.5 c3.238,-8.584 4.5,-17.869 4.5,-46.5 v-36.0 h18.5 v73.0 c0,7.724 -0.25,8 -5,8 c-1.488,0 -4.585,-0.155 -9,-0.5" fill="none" stroke="#000000" stroke-width="2" /><path d="M35,10 c4.294,5.621 7.931,10.782 12,17" fill="none" stroke="#000000" stroke-width="2" /><path d="M31,92 c5.881,-5.611 9.879,-11.114 12.5,-17" fill="none" stroke="#000000" stroke-width="2" /><path d="M96,90 h-26.5 c-15.129,0 -21.704,-3.743 -26,-15" fill="none" stroke="#000000" stroke-width="2" /><path d="M68,44 c4.551,15.987 15.06,28.876 27.5,35" fill="none" stroke="#000000" stroke-width="2" /><path d="M48,79 c9.313,-1.913 17.389,-4.481 27,-8.5" fill="none" stroke="#000000" stroke-width="2" /><path d="M76.5,62 c6.032,-4.035 11.775,-9.603 16.5,-16" fill="none" stroke="#000000" stroke-width="2" /></svg>