<?xml version='1.0' encoding='utf-8'?>
<svg xmlns="http://www.w3.org/2000/svg" height="100px" version="1.0" viewBox="0 0 100 100" width="100px" x="0px" y="0px">
<line fill="none" stroke="#000000" stroke-width="2" x1="10.5" x2="28.5" y1="59" y2="59" /><line fill="none" stroke="#000000" stroke-width="2" x1="11.5" x2="28.5" y1="33.5" y2="33.5" /><polyline fill="none" points="34,10 60.5,10 60.5,41.5" stroke="#000000" stroke-width="2" /><polyline fill="none" points="65.5,10 92,10 92,45" stroke="#000000" stroke-width="2" /><path d="M4.5,92.5 c4.1,-10.866 6,-23.313 6,-46.5 v-36.0 h19.0 v73.0 c0,7.817 -0.205,8 -4,8 c-1.479,0 -4.615,-0.159 -9,-0.5" fill="none" stroke="#000000" stroke-width="2" /><path d="M96.5,59.5 c-11.979,-6.282 -22.002,-13.058 -31.5,-21.2 c-9.497,8.143 -19.522,14.918 -31.5,21.2" fill="none" stroke="#000000" stroke-width="2" /><path d="M40,61.5 c14.438,-1.71 27.477,-5.685 36,-10.5" fill="none" stroke="#000000" stroke-width="2" /><path d="M40,76.5 c19.363,-1.99 34.514,-6.821 44.75,-13.25" fill="none" stroke="#000000" stroke-width="2" /><path d="M40,91.5 c24.29,-2.271 41.552,-7.958 53.5,-16" fill="none" stroke="#000000" stroke-width="2" /><path d="M34.5,42 c10.697,-5.75 19.658,-12.794 26,-20" fill="none" stroke="#000000" stroke-width="2" /><path d="M34.5,26 c8.766,-4.578 16.23,-10.086 22,-16" fill="none" stroke="#000000" stroke-width="2" /><path d="M71,38.5 c8.551,-4.932 15.67,-10.622 21,-16.5" fill="none" stroke="#000000" stroke-width="2" /><path d="M66,26 c8.766,-4.578 16.23,-10.086 22,-16" fill="none" stroke="#000000" stroke-width="2" /></svg>