<?xml version='1.0' encoding='utf-8'?>
<svg xmlns="http://www.w3.org/2000/svg" height="100px" version="1.0" viewBox="0 0 100 100" width="100px" x="0px" y="0px">
<line fill="none" stroke="#000000" stroke-width="2" x1="9" x2="26.5" y1="59" y2="59" /><line fill="none" stroke="#000000" stroke-width="2" x1="10" x2="26.5" y1="33.5" y2="33.5" /><line fill="none" stroke="#000000" stroke-width="2" x1="32" x2="95" y1="16.5" y2="16.5" /><line fill="none" stroke="#000000" stroke-width="2" x1="50.5" x2="50.5" y1="26.5" y2="4.5" /><line fill="none" stroke="#000000" stroke-width="2" x1="76.5" x2="76.5" y1="26.5" y2="4.5" /><line fill="none" stroke="#000000" stroke-width="2" x1="63.5" x2="63.5" y1="32.5" y2="22" /><line fill="none" stroke="#000000" stroke-width="2" x1="32.5" x2="94.5" y1="32.5" y2="32.5" /><line fill="none" stroke="#000000" stroke-width="2" x1="96" x2="31" y1="73.5" y2="73.5" /><line fill="none" stroke="#000000" stroke-width="2" x1="63.5" x2="63.5" y1="64.5" y2="95.5" /><path d="M4.5,92.5 c3.238,-8.584 4.5,-17.869 4.5,-46.5 v-36.0 h18.5 v73.0 c0,7.724 -0.25,8 -5,8 c-1.488,0 -4.585,-0.155 -9,-0.5" fill="none" stroke="#000000" stroke-width="2" /><path d="M32.5,66.5 c8.806,-7.83 14.721,-18.449 17,-30.5" fill="none" stroke="#000000" stroke-width="2" /><path d="M61,62 c-4.17,-5.531 -9.354,-10.555 -15,-14.5" fill="none" stroke="#000000" stroke-width="2" /><path d="M66,62 c6.598,-7.179 11.072,-16.104 13,-26" fill="none" stroke="#000000" stroke-width="2" /><path d="M94.5,66.5 c-5.633,-7.573 -12.036,-14.067 -19,-19" fill="none" stroke="#000000" stroke-width="2" /></svg>