<?xml version='1.0' encoding='utf-8'?>
<svg xmlns="http://www.w3.org/2000/svg" height="100px" version="1.0" viewBox="0 0 100 100" width="100px" x="0px" y="0px">
<line fill="none" stroke="#000000" stroke-width="2" x1="9" x2="29.5" y1="59" y2="59" /><line fill="none" stroke="#000000" stroke-width="2" x1="10" x2="29.5" y1="33.5" y2="33.5" /><line fill="none" stroke="#000000" stroke-width="2" x1="80.5" x2="49.5" y1="17.5" y2="17.5" /><line fill="none" stroke="#000000" stroke-width="2" x1="41.5" x2="89.5" y1="89" y2="89" /><line fill="none" stroke="#000000" stroke-width="2" x1="65" x2="65" y1="51.5" y2="26.5" /><line fill="none" stroke="#000000" stroke-width="2" x1="41.5" x2="89.5" y1="74" y2="74" /><polyline fill="none" points="89.5,94.5 89.5,59.5 40.5,59.5 40.5,94.5" stroke="#000000" stroke-width="2" /><polyline fill="none" points="38,51.5 93,51.5 93,25.5 37,25.5 37,52.5" stroke="#000000" stroke-width="2" /><path d="M4.5,92.5 c3.238,-8.584 4.5,-17.869 4.5,-46.5 v-36.0 h20.5 v73.0 c0,7.724 -0.25,8 -5,8 c-1.488,0 -4.585,-0.155 -9,-0.5" fill="none" stroke="#000000" stroke-width="2" /><path d="M98.5,24 c-12.742,-5.976 -23.4,-12.502 -33.5,-20.3 c-10.102,7.797 -20.757,14.324 -33.5,20.3" fill="none" stroke="#000000" stroke-width="2" /><path d="M73.5,47.5 c4.253,-5.033 7.717,-11.207 10,-18" fill="none" stroke="#000000" stroke-width="2" /><path d="M55.5,47.5 c-2.819,-6.076 -6.159,-12.099 -10,-18" fill="none" stroke="#000000" stroke-width="2" /></svg>