<?xml version='1.0' encoding='utf-8'?>
<svg xmlns="http://www.w3.org/2000/svg" height="100px" version="1.0" viewBox="0 0 100 100" width="100px" x="0px" y="0px">
<line fill="none" stroke="#000000" stroke-width="2" x1="9" x2="26.5" y1="59" y2="59" /><line fill="none" stroke="#000000" stroke-width="2" x1="10" x2="26.5" y1="33.5" y2="33.5" /><line fill="none" stroke="#000000" stroke-width="2" x1="39" x2="39" y1="53.5" y2="90" /><line fill="none" stroke="#000000" stroke-width="2" x1="63.5" x2="63.5" y1="53.5" y2="90" /><polyline fill="none" points="36,50.5 36,26.5 92,26.5 92,49.5 37,49.5" stroke="#000000" stroke-width="2" /><path d="M4.5,92.5 c3.238,-8.584 4.5,-17.869 4.5,-46.5 v-36.0 h18.5 v73.0 c0,7.724 -0.25,8 -5,8 c-1.488,0 -4.585,-0.155 -9,-0.5" fill="none" stroke="#000000" stroke-width="2" /><path d="M87.5,53.5 c0,31.302 2.742,39 5.5,39 c1.85,0 4,-4.833 4,-18" fill="none" stroke="#000000" stroke-width="2" /><path d="M29,92.5 c12.442,-2.888 23.118,-6.233 29.5,-9" fill="none" stroke="#000000" stroke-width="2" /><path d="M53.5,92.5 c12.442,-2.888 23.118,-6.233 29.5,-9" fill="none" stroke="#000000" stroke-width="2" /><path d="M58.5,64 c-4.774,-2.474 -9.788,-4.709 -14.5,-6.5" fill="none" stroke="#000000" stroke-width="2" /><path d="M58.5,77.5 c-4.774,-2.474 -9.788,-4.709 -14.5,-6.5" fill="none" stroke="#000000" stroke-width="2" /><path d="M83,64 c-4.774,-2.474 -9.788,-4.709 -14.5,-6.5" fill="none" stroke="#000000" stroke-width="2" /><path d="M83,77.5 c-4.774,-2.474 -9.788,-4.709 -14.5,-6.5" fill="none" stroke="#000000" stroke-width="2" /><path d="M90.5,5.5 c-3.422,3.215 -6.578,5.599 -11.5,8.5 c5.176,3.241 8.44,5.859 12,9.5" fill="none" stroke="#000000" stroke-width="2" /><path d="M68.5,5.5 c-3.422,3.215 -6.578,5.599 -11.5,8.5 c5.176,3.241 8.44,5.859 12,9.5" fill="none" stroke="#000000" stroke-width="2" /><path d="M46.5,5.5 c-3.422,3.215 -6.578,5.599 -11.5,8.5 c5.176,3.241 8.44,5.859 12,9.5" fill="none" stroke="#000000" stroke-width="2" /><path d="M43.5,45.5 c16.267,-3.565 30.019,-9.708 38,-16" fill="none" stroke="#000000" stroke-width="2" /><path d="M44,31.5 c13.066,3.281 24.78,7.374 40,14" fill="none" stroke="#000000" stroke-width="2" /></svg>