<?xml version='1.0' encoding='utf-8'?>
<svg xmlns="http://www.w3.org/2000/svg" height="100px" version="1.0" viewBox="0 0 100 100" width="100px" x="0px" y="0px">
<line fill="none" stroke="#000000" stroke-width="2" x1="95.5" x2="4.5" y1="71" y2="71" /><line fill="none" stroke="#000000" stroke-width="2" x1="11.5" x2="13" y1="14" y2="71" /><line fill="none" stroke="#000000" stroke-width="2" x1="12.5" x2="32" y1="50.5" y2="50.5" /><line fill="none" stroke="#000000" stroke-width="2" x1="12" x2="32" y1="30.5" y2="30.5" /><line fill="none" stroke="#000000" stroke-width="2" x1="68" x2="87.5" y1="50.5" y2="50.5" /><line fill="none" stroke="#000000" stroke-width="2" x1="68" x2="88" y1="30.5" y2="30.5" /><line fill="none" stroke="#000000" stroke-width="2" x1="40" x2="41" y1="71" y2="41" /><line fill="none" stroke="#000000" stroke-width="2" x1="40" x2="64" y1="15" y2="15" /><polyline fill="none" points="67,11 88.5,11 87,71" stroke="#000000" stroke-width="2" /><polyline fill="none" points="59,71 60.5,33.5 39,33.5 40,6" stroke="#000000" stroke-width="2" /><path d="M8,92 c13.08,-4.104 24.334,-9.762 31,-15" fill="none" stroke="#000000" stroke-width="2" /><path d="M92,93 c-8,-5.189 -19.018,-10.761 -31,-15.5" fill="none" stroke="#000000" stroke-width="2" /><path d="M10.689,15.01 c7.308,-1.407 13.748,-3.218 21.311,-6.01" fill="none" stroke="#000000" stroke-width="2" /></svg>