<?xml version='1.0' encoding='utf-8'?>
<svg xmlns="http://www.w3.org/2000/svg" height="100px" version="1.0" viewBox="0 0 100 100" width="100px" x="0px" y="0px">
<line fill="none" stroke="#000000" stroke-width="2" x1="3.5" x2="35.5" y1="51" y2="47" /><line fill="none" stroke="#000000" stroke-width="2" x1="19.5" x2="19.5" y1="49" y2="81" /><line fill="none" stroke="#000000" stroke-width="2" x1="66" x2="66" y1="56" y2="5.5" /><line fill="none" stroke="#000000" stroke-width="2" x1="37" x2="92.5" y1="56" y2="56" /><line fill="none" stroke="#000000" stroke-width="2" x1="72" x2="92" y1="27.5" y2="27.5" /><line fill="none" stroke="#000000" stroke-width="2" x1="40" x2="60" y1="27.5" y2="27.5" /><path d="M24.5,40.5 c-3.076,-6.144 -6.496,-12.252 -9.5,-17" fill="none" stroke="#000000" stroke-width="2" /><path d="M20,4 c-0.601,4.216 -1.245,7.964 -2,11.5" fill="none" stroke="#000000" stroke-width="2" /><path d="M2,92.5 c4.469,-10.463 6.5,-22.791 6.5,-46.5 v-30.5 h22.5 v67.5 c0,7.636 -0.33,8 -3.5,8 c-1.455,0 -4.193,-0.149 -8.5,-0.5" fill="none" stroke="#000000" stroke-width="2" /><path d="M35,91 c27.367,-5.985 47.475,-19.029 56.64,-34.51" fill="none" stroke="#000000" stroke-width="2" /><path d="M96,91 c-25.732,-5.938 -41.629,-16.067 -51,-30.5" fill="none" stroke="#000000" stroke-width="2" /><path d="M71.5,12 h20.5 v31.5 h-52.0 v-29.0 c7.559,-1.513 14.07,-3.841 20,-7" fill="none" stroke="#000000" stroke-width="2" /></svg>