<?xml version='1.0' encoding='utf-8'?>
<svg xmlns="http://www.w3.org/2000/svg" height="100px" version="1.0" viewBox="0 0 100 100" width="100px" x="0px" y="0px">
<line fill="none" stroke="#000000" stroke-width="2" x1="6" x2="94" y1="15" y2="15" /><line fill="none" stroke="#000000" stroke-width="2" x1="33" x2="33" y1="27" y2="4" /><line fill="none" stroke="#000000" stroke-width="2" x1="67" x2="67" y1="27" y2="4" /><line fill="none" stroke="#000000" stroke-width="2" x1="24" x2="49.5" y1="34" y2="34" /><path d="M6,61.5 c9.885,-10.765 17.372,-24.021 22,-39" fill="none" stroke="#000000" stroke-width="2" /><path d="M48.502,34.949 c-1.309,25.625 -17.797,47.412 -40.002,56.051" fill="none" stroke="#000000" stroke-width="2" /><path d="M92.5,69.5 c-1.319,19.638 -1.441,19.757 -11,20.6 c-2.949,0.26 -6.35,0.4 -10,0.4 c-3.471,0 -7.002,-0.145 -10,-0.4 c-5.577,-0.473 -6,-0.832 -6,-9.1 v-48.5 h29.5 v27.0 c0,6.224 -0.287,6.5 -7,6.5 c-2.028,0 -6.346,-0.146 -12.5,-0.5" fill="none" stroke="#000000" stroke-width="2" /><path d="M39.5,64 c-5.895,-4.466 -13.008,-9.396 -19.5,-13.5" fill="none" stroke="#000000" stroke-width="2" /></svg>