<?xml version='1.0' encoding='utf-8'?>
<svg xmlns="http://www.w3.org/2000/svg" height="100px" version="1.0" viewBox="0 0 100 100" width="100px" x="0px" y="0px">
<line fill="none" stroke="#000000" stroke-width="2" x1="6" x2="94" y1="15" y2="15" /><line fill="none" stroke="#000000" stroke-width="2" x1="32" x2="32" y1="25" y2="4" /><line fill="none" stroke="#000000" stroke-width="2" x1="68" x2="68" y1="25" y2="4" /><line fill="none" stroke="#000000" stroke-width="2" x1="5" x2="95" y1="55" y2="55" /><line fill="none" stroke="#000000" stroke-width="2" x1="13.5" x2="91.5" y1="81" y2="81" /><path d="M11.5,88.5 c4.932,-17.895 9.391,-40.627 11.5,-59 h60.5 c-2.005,18.579 -5.311,40.313 -8.5,56.7 c-1.027,5.279 -2.391,6.3 -9.5,6.3 c-2.953,0 -7.833,-0.169 -14,-0.5" fill="none" stroke="#000000" stroke-width="2" /><path d="M62,49.5 c-5.985,-4.796 -13.551,-9.843 -22,-14.5" fill="none" stroke="#000000" stroke-width="2" /><path d="M58.5,75 c-5.985,-4.796 -13.551,-9.843 -22,-14.5" fill="none" stroke="#000000" stroke-width="2" /></svg>