<?xml version='1.0' encoding='utf-8'?>
<svg xmlns="http://www.w3.org/2000/svg" height="100px" version="1.0" viewBox="0 0 100 100" width="100px" x="0px" y="0px">
<line fill="none" stroke="#000000" stroke-width="2" x1="7" x2="93" y1="17" y2="17" /><line fill="none" stroke="#000000" stroke-width="2" x1="32" x2="32" y1="29" y2="5" /><line fill="none" stroke="#000000" stroke-width="2" x1="68" x2="68" y1="29" y2="5" /><line fill="none" stroke="#000000" stroke-width="2" x1="29" x2="71" y1="45.5" y2="45.5" /><line fill="none" stroke="#000000" stroke-width="2" x1="89" x2="11" y1="61.5" y2="61.5" /><path d="M93,55 c-16.834,-9.224 -29.887,-18.646 -43,-30.8 c-13.113,12.154 -26.166,21.576 -43,30.8" fill="none" stroke="#000000" stroke-width="2" /><path d="M51,45.5 v40.0 c0,5.447 -0.499,6 -7,6 c-1.715,0 -5.967,-0.143 -13,-0.5" fill="none" stroke="#000000" stroke-width="2" /><path d="M7.5,88.5 c10.392,-5.743 18.813,-13.298 24,-21" fill="none" stroke="#000000" stroke-width="2" /><path d="M92.5,89.5 c-6.41,-7.35 -14.637,-14.951 -24,-22" fill="none" stroke="#000000" stroke-width="2" /></svg>