<?xml version='1.0' encoding='utf-8'?>
<svg xmlns="http://www.w3.org/2000/svg" height="100px" version="1.0" viewBox="0 0 100 100" width="100px" x="0px" y="0px">
<line fill="none" stroke="#000000" stroke-width="2" x1="7" x2="93" y1="15" y2="15" /><line fill="none" stroke="#000000" stroke-width="2" x1="32" x2="32" y1="25" y2="4" /><line fill="none" stroke="#000000" stroke-width="2" x1="68" x2="68" y1="25" y2="4" /><line fill="none" stroke="#000000" stroke-width="2" x1="93" x2="7" y1="59" y2="59" /><line fill="none" stroke="#000000" stroke-width="2" x1="89" x2="11" y1="32" y2="32" /><line fill="none" stroke="#000000" stroke-width="2" x1="50" x2="50" y1="93.5" y2="21.5" /><path d="M6,90 c21.834,-10.667 35.053,-20.897 43,-31.5" fill="none" stroke="#000000" stroke-width="2" /><path d="M94,90 c-21.834,-10.667 -35.053,-20.897 -43,-31.5" fill="none" stroke="#000000" stroke-width="2" /><path d="M33,54.5 c-4.461,-6.401 -9.334,-12.657 -14,-18" fill="none" stroke="#000000" stroke-width="2" /><path d="M66.5,54.5 c5.618,-5.72 10.681,-12.247 14,-18" fill="none" stroke="#000000" stroke-width="2" /></svg>