<?xml version='1.0' encoding='utf-8'?>
<svg xmlns="http://www.w3.org/2000/svg" height="100px" version="1.0" viewBox="0 0 100 100" width="100px" x="0px" y="0px">
<line fill="none" stroke="#000000" stroke-width="2" x1="6" x2="94" y1="14.5" y2="14.5" /><line fill="none" stroke="#000000" stroke-width="2" x1="30" x2="30" y1="23" y2="4" /><line fill="none" stroke="#000000" stroke-width="2" x1="70" x2="70" y1="24" y2="4" /><line fill="none" stroke="#000000" stroke-width="2" x1="52.5" x2="52.5" y1="62.5" y2="43" /><line fill="none" stroke="#000000" stroke-width="2" x1="31" x2="68.5" y1="28" y2="28" /><polyline fill="none" points="19.5,62.5 86.5,62.5 86.5,42 18.5,42 18.5,70" stroke="#000000" stroke-width="2" /><path d="M60,62.5 v23.5 c0,4.896 0.135,5 12.5,5 c16.059,0 16.285,-0.188 17.5,-22.5" fill="none" stroke="#000000" stroke-width="2" /><path d="M9,92.5 c21.638,-5.913 33,-17.159 33,-30" fill="none" stroke="#000000" stroke-width="2" /><path d="M54.5,42 c4.564,-3.989 9.631,-9.198 13.224,-13.628" fill="none" stroke="#000000" stroke-width="2" /><path d="M6.5,49.5 c13.139,-7.897 22.908,-17.522 29,-28.5" fill="none" stroke="#000000" stroke-width="2" /><path d="M81,81.5 c-4.302,-4.098 -9.107,-8.257 -14,-12" fill="none" stroke="#000000" stroke-width="2" /></svg>