<?xml version='1.0' encoding='utf-8'?>
<svg xmlns="http://www.w3.org/2000/svg" height="100px" version="1.0" viewBox="0 0 100 100" width="100px" x="0px" y="0px">
<line fill="none" stroke="#000000" stroke-width="2" x1="6" x2="94" y1="14.5" y2="14.5" /><line fill="none" stroke="#000000" stroke-width="2" x1="32" x2="32" y1="24.5" y2="4" /><line fill="none" stroke="#000000" stroke-width="2" x1="68" x2="68" y1="25" y2="4" /><line fill="none" stroke="#000000" stroke-width="2" x1="5.5" x2="40.5" y1="62" y2="55.5" /><line fill="none" stroke="#000000" stroke-width="2" x1="40" x2="6" y1="28.5" y2="28.5" /><line fill="none" stroke="#000000" stroke-width="2" x1="64.5" x2="64.5" y1="86" y2="30" /><path d="M22.5,45.5 v39.0 c0,5.92 -0.594,6.5 -5.5,6.5 c-2.482,0 -6.253,-0.165 -10.5,-0.5" fill="none" stroke="#000000" stroke-width="2" /><path d="M39.178,28.932 c-4.999,7.226 -10.129,12.755 -16.678,18.068" fill="none" stroke="#000000" stroke-width="2" /><path d="M44,31 c16.256,0 33.02,-2.05 49.5,-6" fill="none" stroke="#000000" stroke-width="2" /><path d="M35.5,92 c6.096,-9.894 9.5,-24.718 9.5,-49 v-13.0" fill="none" stroke="#000000" stroke-width="2" /><path d="M96,91.5 c-6.807,-11.025 -11,-29.532 -11,-57 V27.0" fill="none" stroke="#000000" stroke-width="2" /><path d="M87.5,91.5 c-3.043,-7.104 -7.345,-16.333 -11,-23.5" fill="none" stroke="#000000" stroke-width="2" /><path d="M44,89.5 c11.677,-1.036 26.904,-4.368 38.5,-8.5" fill="none" stroke="#000000" stroke-width="2" /></svg>