<?xml version='1.0' encoding='utf-8'?>
<svg xmlns="http://www.w3.org/2000/svg" height="100px" version="1.0" viewBox="0 0 100 100" width="100px" x="0px" y="0px">
<line fill="none" stroke="#000000" stroke-width="2" x1="6" x2="94" y1="16.5" y2="16.5" /><line fill="none" stroke="#000000" stroke-width="2" x1="32" x2="32" y1="26.5" y2="4.5" /><line fill="none" stroke="#000000" stroke-width="2" x1="68" x2="68" y1="26.5" y2="4.5" /><line fill="none" stroke="#000000" stroke-width="2" x1="50" x2="50" y1="32.5" y2="22" /><line fill="none" stroke="#000000" stroke-width="2" x1="6.5" x2="93.5" y1="32.5" y2="32.5" /><line fill="none" stroke="#000000" stroke-width="2" x1="95" x2="5" y1="73.5" y2="73.5" /><line fill="none" stroke="#000000" stroke-width="2" x1="50" x2="50" y1="64.5" y2="95.5" /><path d="M7,66.5 c12.432,-7.83 20.781,-18.449 24,-30.5" fill="none" stroke="#000000" stroke-width="2" /><path d="M46.5,62 c-6.043,-5.779 -13.027,-10.735 -20.5,-14.5" fill="none" stroke="#000000" stroke-width="2" /><path d="M53.5,62 c9.135,-7.179 15.33,-16.104 18,-26" fill="none" stroke="#000000" stroke-width="2" /><path d="M93,66.5 c-7.812,-7.573 -16.841,-14.067 -26.5,-19" fill="none" stroke="#000000" stroke-width="2" /></svg>