<?xml version='1.0' encoding='utf-8'?>
<svg xmlns="http://www.w3.org/2000/svg" height="100px" version="1.0" viewBox="0 0 100 100" width="100px" x="0px" y="0px">
<line fill="none" stroke="#000000" stroke-width="2" x1="7" x2="93" y1="15.5" y2="15.5" /><line fill="none" stroke="#000000" stroke-width="2" x1="31" x2="31" y1="26.5" y2="4.5" /><line fill="none" stroke="#000000" stroke-width="2" x1="69" x2="69" y1="26.5" y2="4.5" /><line fill="none" stroke="#000000" stroke-width="2" x1="22" x2="22" y1="66" y2="90" /><line fill="none" stroke="#000000" stroke-width="2" x1="46" x2="46" y1="43" y2="82" /><line fill="none" stroke="#000000" stroke-width="2" x1="71.5" x2="28.5" y1="43" y2="43" /><line fill="none" stroke="#000000" stroke-width="2" x1="77" x2="15" y1="60" y2="60" /><polyline fill="none" points="22,82 70,82 70,66" stroke="#000000" stroke-width="2" /><path d="M3.5,55.5 c9.656,-9.01 17.44,-21.107 21,-32" fill="none" stroke="#000000" stroke-width="2" /><path d="M77.5,91.5 c-4.883,0 -12.627,-0.353 -21,-1" fill="none" stroke="#000000" stroke-width="2" /><path d="M21,31.5 h68.5 c-2.307,54.253 -5.467,60 -12,60" fill="none" stroke="#000000" stroke-width="2" /><path d="M19,55 c5.83,-5.513 10.555,-12.522 13.5,-20" fill="none" stroke="#000000" stroke-width="2" /></svg>