<?xml version='1.0' encoding='utf-8'?>
<svg xmlns="http://www.w3.org/2000/svg" height="100px" version="1.0" viewBox="0 0 100 100" width="100px" x="0px" y="0px">
<line fill="none" stroke="#000000" stroke-width="2" x1="7" x2="93" y1="13.5" y2="13.5" /><line fill="none" stroke="#000000" stroke-width="2" x1="32" x2="32" y1="21.5" y2="4.5" /><line fill="none" stroke="#000000" stroke-width="2" x1="68" x2="68" y1="21.5" y2="4.5" /><line fill="none" stroke="#000000" stroke-width="2" x1="50" x2="50" y1="78" y2="25" /><line fill="none" stroke="#000000" stroke-width="2" x1="81.5" x2="18.5" y1="52" y2="52" /><line fill="none" stroke="#000000" stroke-width="2" x1="81.5" x2="18.5" y1="38.5" y2="38.5" /><polyline fill="none" points="17.5,53 17.5,25 82.5,25 82.5,53" stroke="#000000" stroke-width="2" /><path d="M69,90.5 c7.004,0.363 11.129,0.5 13,0.5 c6.354,0 7,-0.673 7,-8 v-21.5 h-78.0 v31.0" fill="none" stroke="#000000" stroke-width="2" /><path d="M82.5,83 c-4.109,-5.151 -9.73,-11.759 -14.5,-17" fill="none" stroke="#000000" stroke-width="2" /><path d="M18.5,80.5 c18.109,-0.698 38.354,-2.833 57,-6" fill="none" stroke="#000000" stroke-width="2" /></svg>