<?xml version='1.0' encoding='utf-8'?>
<svg xmlns="http://www.w3.org/2000/svg" height="100px" version="1.0" viewBox="0 0 100 100" width="100px" x="0px" y="0px">
<line fill="none" stroke="#000000" stroke-width="2" x1="7" x2="93" y1="12" y2="12" /><line fill="none" stroke="#000000" stroke-width="2" x1="34" x2="34" y1="19.5" y2="3.5" /><line fill="none" stroke="#000000" stroke-width="2" x1="66" x2="66" y1="19.5" y2="3.5" /><path d="M23.5,25 H90.0 c0,26.824 -4.227,34 -11,34 c-2.828,0 -7.156,-0.149 -12,-0.5" fill="none" stroke="#000000" stroke-width="2" /><path d="M6,41 c9.045,-5.743 18.929,-16.134 23.5,-24.5" fill="none" stroke="#000000" stroke-width="2" /><path d="M45.5,61 c11.531,-7.3 23.119,-23.329 26.5,-36" fill="none" stroke="#000000" stroke-width="2" /><path d="M17,58 c11.874,-6.966 25.836,-21.991 31,-33" fill="none" stroke="#000000" stroke-width="2" /><path d="M27,33 c19.54,5.524 32.984,10.757 47,18" fill="none" stroke="#000000" stroke-width="2" /><path d="M32.5,66.5 v14.0 c0,10.571 0.292,10.911 7,11.5 c3.618,0.317 8.079,0.5 12.5,0.5 c4.34,0 8.638,-0.161 12.5,-0.5 c11.35,-0.996 11.514,-1.125 13,-16" fill="none" stroke="#000000" stroke-width="2" /><path d="M5.5,90.5 c6.062,-6.017 11.077,-13.812 14,-22" fill="none" stroke="#000000" stroke-width="2" /><path d="M94.5,90 c-4.006,-8.018 -9.154,-16.294 -15,-24.001" fill="none" stroke="#000000" stroke-width="2" /><path d="M63,79.5 c-5.825,-4.966 -12.691,-9.811 -20,-14" fill="none" stroke="#000000" stroke-width="2" /></svg>