<?xml version='1.0' encoding='utf-8'?>
<svg xmlns="http://www.w3.org/2000/svg" height="100px" version="1.0" viewBox="0 0 100 100" width="100px" x="0px" y="0px">
<line fill="none" stroke="#000000" stroke-width="2" x1="7" x2="93" y1="14.5" y2="14.5" /><line fill="none" stroke="#000000" stroke-width="2" x1="31" x2="31" y1="25" y2="4" /><line fill="none" stroke="#000000" stroke-width="2" x1="69" x2="69" y1="25" y2="4" /><line fill="none" stroke="#000000" stroke-width="2" x1="51" x2="15.5" y1="25" y2="25" /><line fill="none" stroke="#000000" stroke-width="2" x1="23" x2="77" y1="52" y2="52" /><line fill="none" stroke="#000000" stroke-width="2" x1="8" x2="92" y1="68.5" y2="68.5" /><path d="M10,93 c24.748,-5.427 40,-20.919 40,-40" fill="none" stroke="#000000" stroke-width="2" /><path d="M90,94.5 c-14.759,-9.478 -30.399,-17.147 -46,-22.5" fill="none" stroke="#000000" stroke-width="2" /><path d="M95,58 c-22.201,-8.599 -38.918,-21.651 -44.894,-33.552" fill="none" stroke="#000000" stroke-width="2" /><path d="M77,25.5 c-4.205,4.657 -9.61,9.563 -15,13.5" fill="none" stroke="#000000" stroke-width="2" /><path d="M91,34 c-4.418,4.979 -10.287,10.327 -16,14.5" fill="none" stroke="#000000" stroke-width="2" /><path d="M32.5,43.5 c-5.671,-4.067 -11.895,-8.206 -18,-12" fill="none" stroke="#000000" stroke-width="2" /><path d="M5,58 c22.201,-8.599 38.918,-21.651 44.894,-33.552" fill="none" stroke="#000000" stroke-width="2" /></svg>