<?xml version='1.0' encoding='utf-8'?>
<svg xmlns="http://www.w3.org/2000/svg" height="100px" version="1.0" viewBox="0 0 100 100" width="100px" x="0px" y="0px">
<line fill="none" stroke="#000000" stroke-width="2" x1="6" x2="94" y1="13.5" y2="13.5" /><line fill="none" stroke="#000000" stroke-width="2" x1="33" x2="33" y1="22.5" y2="4.5" /><line fill="none" stroke="#000000" stroke-width="2" x1="67" x2="67" y1="21.5" y2="4.5" /><line fill="none" stroke="#000000" stroke-width="2" x1="25" x2="25" y1="94.5" y2="22.5" /><line fill="none" stroke="#000000" stroke-width="2" x1="95" x2="31" y1="62" y2="62" /><path d="M7.5,34 c4.8,6.155 9.001,12.339 13,19" fill="none" stroke="#000000" stroke-width="2" /><path d="M25,65.5 c-6.69,3.307 -12.758,6.044 -20,9" fill="none" stroke="#000000" stroke-width="2" /><path d="M84,52.5 v32.0 c0,6.864 -0.531,7.5 -6.5,7.5 c-2.103,0 -7.911,-0.18 -14.5,-0.5" fill="none" stroke="#000000" stroke-width="2" /><path d="M61.5,84 c-4.961,-5.041 -11.874,-10.747 -19,-15.5" fill="none" stroke="#000000" stroke-width="2" /><path d="M45.5,53.5 c-3.354,-7.132 -7.031,-13.374 -10.5,-18" fill="none" stroke="#000000" stroke-width="2" /><path d="M66.5,51 c-3.238,-6.976 -6.795,-13.099 -10.5,-18" fill="none" stroke="#000000" stroke-width="2" /><path d="M75.5,53.5 c5.77,-6.03 11.383,-14.237 16,-23.5" fill="none" stroke="#000000" stroke-width="2" /><path d="M32.5,29 c22.26,-0.323 41.973,-2.056 59,-5" fill="none" stroke="#000000" stroke-width="2" /></svg>