<?xml version='1.0' encoding='utf-8'?>
<svg xmlns="http://www.w3.org/2000/svg" height="100px" version="1.0" viewBox="0 0 100 100" width="100px" x="0px" y="0px">
<line fill="none" stroke="#000000" stroke-width="2" x1="6.5" x2="93.5" y1="12.5" y2="12.5" /><line fill="none" stroke="#000000" stroke-width="2" x1="32" x2="32" y1="20.5" y2="4" /><line fill="none" stroke="#000000" stroke-width="2" x1="68" x2="68" y1="20.5" y2="4" /><line fill="none" stroke="#000000" stroke-width="2" x1="50" x2="50" y1="59" y2="26" /><line fill="none" stroke="#000000" stroke-width="2" x1="17.5" x2="82.5" y1="41.5" y2="41.5" /><polyline fill="none" points="17.5,59 83.5,59 83.5,25 16.5,25 16.5,60" stroke="#000000" stroke-width="2" /><path d="M51,15.5 c-1.629,3.505 -3.594,6.595 -6,9.5" fill="none" stroke="#000000" stroke-width="2" /><path d="M55,59 v27.0 c0,4.438 1.07,5 15.5,5 c20.622,0 21.237,-0.203 22.5,-18.5" fill="none" stroke="#000000" stroke-width="2" /><path d="M8,92.5 c19.755,-6.417 31,-18.813 31,-33.5" fill="none" stroke="#000000" stroke-width="2" /><path d="M88,82.5 c-2.651,-4.678 -6.518,-10.497 -10,-15" fill="none" stroke="#000000" stroke-width="2" /><path d="M58,81.5 c8.266,-0.694 17.6,-2.078 27,-4" fill="none" stroke="#000000" stroke-width="2" /><path d="M63,81 c3.201,-5.315 6.469,-12.085 9,-19" fill="none" stroke="#000000" stroke-width="2" /></svg>