<?xml version='1.0' encoding='utf-8'?>
<svg xmlns="http://www.w3.org/2000/svg" height="100px" version="1.0" viewBox="0 0 100 100" width="100px" x="0px" y="0px">
<line fill="none" stroke="#000000" stroke-width="2" x1="35.5" x2="94.5" y1="48" y2="48" /><line fill="none" stroke="#000000" stroke-width="2" x1="90.5" x2="40.5" y1="32" y2="32" /><line fill="none" stroke="#000000" stroke-width="2" x1="65" x2="65" y1="48" y2="21.5" /><line fill="none" stroke="#000000" stroke-width="2" x1="94.5" x2="35.5" y1="63" y2="63" /><line fill="none" stroke="#000000" stroke-width="2" x1="10.5" x2="31.5" y1="55" y2="55" /><line fill="none" stroke="#000000" stroke-width="2" x1="6" x2="94" y1="13" y2="13" /><line fill="none" stroke="#000000" stroke-width="2" x1="33" x2="33" y1="22.5" y2="4.5" /><line fill="none" stroke="#000000" stroke-width="2" x1="67" x2="67" y1="19.5" y2="4.5" /><polyline fill="none" points="10.5,85.5 31.5,85.5 31.5,27 9.5,27 9.5,92" stroke="#000000" stroke-width="2" /><path d="M83,48 v36.5 c0,7.016 -0.459,7.5 -6,7.5 c-1.902,0 -7.039,-0.18 -13,-0.5" fill="none" stroke="#000000" stroke-width="2" /><path d="M64,84.5 c-4.961,-4.878 -11.874,-10.401 -19,-15" fill="none" stroke="#000000" stroke-width="2" /></svg>