<?xml version='1.0' encoding='utf-8'?>
<svg xmlns="http://www.w3.org/2000/svg" height="100px" version="1.0" viewBox="0 0 100 100" width="100px" x="0px" y="0px">
<line fill="none" stroke="#000000" stroke-width="2" x1="7" x2="93" y1="12" y2="12" /><line fill="none" stroke="#000000" stroke-width="2" x1="32" x2="32" y1="19.5" y2="3.5" /><line fill="none" stroke="#000000" stroke-width="2" x1="68" x2="68" y1="19.5" y2="3.5" /><line fill="none" stroke="#000000" stroke-width="2" x1="7.5" x2="92.5" y1="46" y2="46" /><line fill="none" stroke="#000000" stroke-width="2" x1="19.5" x2="80.5" y1="34.5" y2="34.5" /><polyline fill="none" points="88.5,38 88.5,23.5 11.5,23.5 11.5,38" stroke="#000000" stroke-width="2" /><path d="M9.5,60.5 c19.948,-3.89 33.31,-8.794 42.5,-14.5" fill="none" stroke="#000000" stroke-width="2" /><path d="M8.5,74.5 c20.125,-4.04 34.116,-9.187 43.5,-15" fill="none" stroke="#000000" stroke-width="2" /><path d="M7.5,88.5 c23.044,-4.782 39.784,-11.136 50.5,-18" fill="none" stroke="#000000" stroke-width="2" /><path d="M88.5,53.5 c-6.94,5.53 -14.617,10.12 -23,13.5" fill="none" stroke="#000000" stroke-width="2" /><path d="M54.5,46 c5.03,16.969 20.251,34.333 39,44" fill="none" stroke="#000000" stroke-width="2" /><path d="M36.5,91 c6.51,0.357 11.509,0.5 15,0.5 c6.44,0 8,-1.675 8,-12.5 c0,-10.751 -6.788,-22.22 -17.5,-28" fill="none" stroke="#000000" stroke-width="2" /></svg>