<?xml version='1.0' encoding='utf-8'?>
<svg xmlns="http://www.w3.org/2000/svg" height="100px" version="1.0" viewBox="0 0 100 100" width="100px" x="0px" y="0px">
<line fill="none" stroke="#000000" stroke-width="2" x1="7" x2="93" y1="15.5" y2="15.5" /><line fill="none" stroke="#000000" stroke-width="2" x1="31" x2="31" y1="25.5" y2="4" /><line fill="none" stroke="#000000" stroke-width="2" x1="69" x2="69" y1="25.5" y2="4" /><line fill="none" stroke="#000000" stroke-width="2" x1="48.5" x2="6" y1="48.5" y2="48.5" /><line fill="none" stroke="#000000" stroke-width="2" x1="46" x2="10" y1="31.5" y2="31.5" /><line fill="none" stroke="#000000" stroke-width="2" x1="94" x2="51.5" y1="48.5" y2="48.5" /><line fill="none" stroke="#000000" stroke-width="2" x1="90" x2="54" y1="31.5" y2="31.5" /><path d="M29.5,48.5 v37.5 c0,4.521 -0.41,5 -4.5,5 c-2.009,0 -5.49,-0.173 -9.5,-0.5" fill="none" stroke="#000000" stroke-width="2" /><path d="M72.5,48.5 v37.5 c0,4.521 -0.41,5 -4.5,5 c-2.009,0 -5.49,-0.173 -9.5,-0.5" fill="none" stroke="#000000" stroke-width="2" /><path d="M7,85.5 c4.354,-7.988 7.902,-18.126 10,-29" fill="none" stroke="#000000" stroke-width="2" /><path d="M50,85.5 c4.354,-7.988 7.902,-18.126 10,-29" fill="none" stroke="#000000" stroke-width="2" /><path d="M47.5,79.5 c-2.117,-7.599 -4.898,-15.726 -8,-23" fill="none" stroke="#000000" stroke-width="2" /><path d="M93,85.5 c-2.771,-9.583 -6.447,-19.82 -10.5,-29" fill="none" stroke="#000000" stroke-width="2" /></svg>