<?xml version='1.0' encoding='utf-8'?>
<svg xmlns="http://www.w3.org/2000/svg" height="100px" version="1.0" viewBox="0 0 100 100" width="100px" x="0px" y="0px">
<line fill="none" stroke="#000000" stroke-width="2" x1="7" x2="93" y1="14.5" y2="14.5" /><line fill="none" stroke="#000000" stroke-width="2" x1="32" x2="32" y1="23" y2="3.5" /><line fill="none" stroke="#000000" stroke-width="2" x1="68" x2="68" y1="23" y2="3.5" /><line fill="none" stroke="#000000" stroke-width="2" x1="7" x2="93" y1="28.5" y2="28.5" /><line fill="none" stroke="#000000" stroke-width="2" x1="50" x2="50" y1="28.5" y2="20" /><polyline fill="none" points="29,88.5 29,67.5 71,67.5 71,82.5 30,82.5" stroke="#000000" stroke-width="2" /><polyline fill="none" points="23,51.5 23,37 77,37 77,50.5 24,50.5" stroke="#000000" stroke-width="2" /><path d="M69,90.5 c7.004,0.363 11.129,0.5 13,0.5 c6.354,0 7,-0.636 7,-6.5 V59.0 h-78.0 v33.5" fill="none" stroke="#000000" stroke-width="2" /></svg>