<?xml version='1.0' encoding='utf-8'?>
<svg xmlns="http://www.w3.org/2000/svg" height="100px" version="1.0" viewBox="0 0 100 100" width="100px" x="0px" y="0px">
<line fill="none" stroke="#000000" stroke-width="2" x1="6.5" x2="93.5" y1="14" y2="14" /><line fill="none" stroke="#000000" stroke-width="2" x1="33" x2="33" y1="21.5" y2="3.5" /><line fill="none" stroke="#000000" stroke-width="2" x1="67" x2="67" y1="21.5" y2="3.5" /><line fill="none" stroke="#000000" stroke-width="2" x1="49" x2="94" y1="28" y2="28" /><line fill="none" stroke="#000000" stroke-width="2" x1="14.5" x2="14.5" y1="94" y2="42.5" /><line fill="none" stroke="#000000" stroke-width="2" x1="29" x2="29" y1="84.5" y2="34" /><path d="M36.5,55 c25.091,-5.066 41.911,-15.65 48,-27" fill="none" stroke="#000000" stroke-width="2" /><path d="M94,57 c-21.968,-5.7 -37.713,-16.106 -45.5,-28" fill="none" stroke="#000000" stroke-width="2" /><path d="M36.5,44 c6.484,-6.307 12.465,-14.888 16,-23" fill="none" stroke="#000000" stroke-width="2" /><path d="M22,21.5 c-4.001,15.978 -11.025,29.996 -20,41" fill="none" stroke="#000000" stroke-width="2" /><path d="M38.5,67 c14.686,-2.455 28.503,-7.099 37,-12" fill="none" stroke="#000000" stroke-width="2" /><path d="M38.75,79.75 c20.37,-3.026 35.76,-8.161 46.25,-14.5" fill="none" stroke="#000000" stroke-width="2" /><path d="M39,92.5 c26.055,-3.597 43.018,-9.224 55.5,-17" fill="none" stroke="#000000" stroke-width="2" /></svg>