<?xml version='1.0' encoding='utf-8'?>
<svg xmlns="http://www.w3.org/2000/svg" height="100px" version="1.0" viewBox="0 0 100 100" width="100px" x="0px" y="0px">
<line fill="none" stroke="#000000" stroke-width="2" x1="7" x2="93" y1="13.5" y2="13.5" /><line fill="none" stroke="#000000" stroke-width="2" x1="32" x2="32" y1="23" y2="3" /><line fill="none" stroke="#000000" stroke-width="2" x1="68" x2="68" y1="20.5" y2="3" /><line fill="none" stroke="#000000" stroke-width="2" x1="30" x2="93" y1="76.5" y2="76.5" /><line fill="none" stroke="#000000" stroke-width="2" x1="90.5" x2="32.5" y1="54" y2="54" /><line fill="none" stroke="#000000" stroke-width="2" x1="88" x2="35" y1="65" y2="65" /><line fill="none" stroke="#000000" stroke-width="2" x1="63" x2="63" y1="87" y2="44.5" /><line fill="none" stroke="#000000" stroke-width="2" x1="47" x2="88" y1="24.5" y2="24.5" /><polyline fill="none" points="23,78 23,52 6,52" stroke="#000000" stroke-width="2" /><path d="M9,24.5 c5.725,5.291 10.574,10.148 16,16" fill="none" stroke="#000000" stroke-width="2" /><path d="M6,93 c8.029,-5.377 13.36,-10.461 17,-16" fill="none" stroke="#000000" stroke-width="2" /><path d="M93,91 h-34.0 c-21.543,0 -30.148,-3.61 -36,-14" fill="none" stroke="#000000" stroke-width="2" /><path d="M29,36 c10.544,-5.289 18.982,-11.465 25,-18" fill="none" stroke="#000000" stroke-width="2" /><path d="M87.309,24.777 C76.535,35.089 58.051,43.45 28,49" fill="none" stroke="#000000" stroke-width="2" /><path d="M43,27.5 c12.776,8.878 29.487,16.045 51.5,21.5" fill="none" stroke="#000000" stroke-width="2" /></svg>