<?xml version='1.0' encoding='utf-8'?>
<svg xmlns="http://www.w3.org/2000/svg" height="100px" version="1.0" viewBox="0 0 100 100" width="100px" x="0px" y="0px">
<line fill="none" stroke="#000000" stroke-width="2" x1="7" x2="93" y1="13" y2="13" /><line fill="none" stroke="#000000" stroke-width="2" x1="32" x2="32" y1="21.5" y2="3.5" /><line fill="none" stroke="#000000" stroke-width="2" x1="68" x2="68" y1="21.5" y2="3.5" /><line fill="none" stroke="#000000" stroke-width="2" x1="18.5" x2="82.5" y1="31" y2="31" /><line fill="none" stroke="#000000" stroke-width="2" x1="10" x2="84.5" y1="67" y2="67" /><line fill="none" stroke="#000000" stroke-width="2" x1="63.5" x2="63.5" y1="47" y2="59.5" /><line fill="none" stroke="#000000" stroke-width="2" x1="36.5" x2="36.5" y1="47" y2="59.5" /><polyline fill="none" points="18.5,40.5 82.5,40.5 82.5,21.5 17.5,21.5 17.5,41.5" stroke="#000000" stroke-width="2" /><polyline fill="none" points="9.5,61.5 9.5,47 90.5,47 90.5,60.5 10.5,60.5" stroke="#000000" stroke-width="2" /><path d="M6,91.5 c34.631,-2.636 66.164,-13.552 77.824,-24.237" fill="none" stroke="#000000" stroke-width="2" /><path d="M94,91.5 c-28.396,-2.239 -57.398,-11.389 -71,-21" fill="none" stroke="#000000" stroke-width="2" /></svg>