<?xml version='1.0' encoding='utf-8'?>
<svg xmlns="http://www.w3.org/2000/svg" height="100px" version="1.0" viewBox="0 0 100 100" width="100px" x="0px" y="0px">
<line fill="none" stroke="#000000" stroke-width="2" x1="7" x2="93" y1="14" y2="14" /><line fill="none" stroke="#000000" stroke-width="2" x1="32" x2="32" y1="23.5" y2="3.5" /><line fill="none" stroke="#000000" stroke-width="2" x1="68" x2="68" y1="23.5" y2="3.5" /><line fill="none" stroke="#000000" stroke-width="2" x1="52" x2="52" y1="29.5" y2="19" /><line fill="none" stroke="#000000" stroke-width="2" x1="13.5" x2="92" y1="45.5" y2="45.5" /><polyline fill="none" points="35.5,33.5 35.5,65 72.5,65 72.5,33.5" stroke="#000000" stroke-width="2" /><path d="M92,92.5 c-3.667,-6.236 -8.463,-13.188 -14,-20" fill="none" stroke="#000000" stroke-width="2" /><path d="M68.25,92.75 c-2.225,-6.077 -5.275,-12.839 -9,-19.75" fill="none" stroke="#000000" stroke-width="2" /><path d="M44.5,93 c-0.781,-5.917 -2.088,-12.49 -4,-19.5" fill="none" stroke="#000000" stroke-width="2" /><path d="M13,92.5 c4.892,-5.43 9.599,-11.991 14,-19.5" fill="none" stroke="#000000" stroke-width="2" /><path d="M4.5,92.5 c6.008,-11.405 9,-24.852 9,-42 v-21.0 h78.5" fill="none" stroke="#000000" stroke-width="2" /></svg>