<?xml version='1.0' encoding='utf-8'?>
<svg xmlns="http://www.w3.org/2000/svg" height="100px" version="1.0" viewBox="0 0 100 100" width="100px" x="0px" y="0px">
<line fill="none" stroke="#000000" stroke-width="2" x1="7" x2="93" y1="14" y2="14" /><line fill="none" stroke="#000000" stroke-width="2" x1="32" x2="32" y1="21.5" y2="3.5" /><line fill="none" stroke="#000000" stroke-width="2" x1="68" x2="68" y1="21.5" y2="3.5" /><line fill="none" stroke="#000000" stroke-width="2" x1="53.5" x2="53.5" y1="68" y2="29.5" /><line fill="none" stroke="#000000" stroke-width="2" x1="89.5" x2="19.5" y1="28.5" y2="28.5" /><line fill="none" stroke="#000000" stroke-width="2" x1="20.5" x2="86.5" y1="42" y2="42" /><line fill="none" stroke="#000000" stroke-width="2" x1="20.5" x2="86.5" y1="55.5" y2="55.5" /><polyline fill="none" points="19.5,28.5 19.5,69 89.5,69" stroke="#000000" stroke-width="2" /><path d="M7.5,45 c8.145,-8.835 13.609,-17.761 17,-27.5" fill="none" stroke="#000000" stroke-width="2" /><path d="M59,17.5 c-1.955,4.184 -3.587,7.183 -6,11" fill="none" stroke="#000000" stroke-width="2" /><path d="M92,92.5 c-4.17,-5.862 -9.068,-11.953 -15,-18.5" fill="none" stroke="#000000" stroke-width="2" /><path d="M67,92.75 c-2.491,-5.772 -5.578,-11.858 -9.5,-18.5" fill="none" stroke="#000000" stroke-width="2" /><path d="M42,93 c-0.813,-5.683 -2.088,-11.763 -4,-18.5" fill="none" stroke="#000000" stroke-width="2" /><path d="M8,92.5 c5.24,-5.219 10.214,-11.32 15,-18.5" fill="none" stroke="#000000" stroke-width="2" /></svg>