<?xml version='1.0' encoding='utf-8'?>
<svg xmlns="http://www.w3.org/2000/svg" height="100px" version="1.0" viewBox="0 0 100 100" width="100px" x="0px" y="0px">
<line fill="none" stroke="#000000" stroke-width="2" x1="7" x2="93" y1="13" y2="13" /><line fill="none" stroke="#000000" stroke-width="2" x1="32" x2="32" y1="21" y2="4" /><line fill="none" stroke="#000000" stroke-width="2" x1="68" x2="68" y1="21" y2="4" /><path d="M7,47 c6.061,-6.017 11.027,-13.835 14,-22" fill="none" stroke="#000000" stroke-width="2" /><path d="M32,24 v17.0 c0,7.602 0.518,8 19,8 c22.244,0 22.469,-0.2 24,-18" fill="none" stroke="#000000" stroke-width="2" /><path d="M62,35 c-5.68,-4.789 -12.369,-9.475 -19.5,-13.5" fill="none" stroke="#000000" stroke-width="2" /><path d="M93,47 c-3.872,-7.684 -8.828,-15.64 -14.5,-23" fill="none" stroke="#000000" stroke-width="2" /><path d="M4,88 c3.209,-6.612 5.9,-15.083 7.5,-24" fill="none" stroke="#000000" stroke-width="2" /><path d="M17.5,61 v23.5 c0,6.655 0.432,7 11,7 c13.304,0 13.525,-0.224 14.5,-14" fill="none" stroke="#000000" stroke-width="2" /><path d="M21,52.5 c5.553,4.26 10.107,8.5 15.5,14.5" fill="none" stroke="#000000" stroke-width="2" /><path d="M49,78 c-2.104,-4.755 -4.441,-9.44 -7,-14" fill="none" stroke="#000000" stroke-width="2" /><path d="M49,88 c3.209,-6.612 5.9,-15.083 7.5,-24" fill="none" stroke="#000000" stroke-width="2" /><path d="M62,61 v23.5 c0,6.655 0.432,7 11,7 c13.304,0 13.525,-0.224 14.5,-14" fill="none" stroke="#000000" stroke-width="2" /><path d="M65.5,52.5 c5.553,4.26 10.107,8.5 15.5,14.5" fill="none" stroke="#000000" stroke-width="2" /><path d="M96,87 c-2.459,-7.719 -5.5,-15.57 -9,-23" fill="none" stroke="#000000" stroke-width="2" /></svg>