<?xml version='1.0' encoding='utf-8'?>
<svg xmlns="http://www.w3.org/2000/svg" height="100px" version="1.0" viewBox="0 0 100 100" width="100px" x="0px" y="0px">
<line fill="none" stroke="#000000" stroke-width="2" x1="7" x2="93" y1="14" y2="14" /><line fill="none" stroke="#000000" stroke-width="2" x1="32" x2="32" y1="20.5" y2="3.5" /><line fill="none" stroke="#000000" stroke-width="2" x1="68" x2="68" y1="19" y2="3.5" /><line fill="none" stroke="#000000" stroke-width="2" x1="94" x2="6" y1="35" y2="35" /><polyline fill="none" points="32.5,88.5 32.5,70 67.5,70 67.5,83 33.5,83" stroke="#000000" stroke-width="2" /><polyline fill="none" points="32.5,55 68.5,55 68.5,44 31.5,44 31.5,56" stroke="#000000" stroke-width="2" /><path d="M65.5,91.5 c7.004,0.363 11.129,0.5 13,0.5 c6.354,0 7,-0.698 7,-7 v-22.5 h-71.0 v31.0" fill="none" stroke="#000000" stroke-width="2" /><path d="M14,24.5 c25.191,0 49.277,-1.542 72,-4.5" fill="none" stroke="#000000" stroke-width="2" /><path d="M94,53 c-14.611,-3.236 -28.889,-10.347 -37,-18" fill="none" stroke="#000000" stroke-width="2" /><path d="M6,54.5 c22.703,-5.872 38.594,-19.112 41.5,-31" fill="none" stroke="#000000" stroke-width="2" /></svg>