<?xml version='1.0' encoding='utf-8'?>
<svg xmlns="http://www.w3.org/2000/svg" height="100px" version="1.0" viewBox="0 0 100 100" width="100px" x="0px" y="0px">
<line fill="none" stroke="#000000" stroke-width="2" x1="7" x2="93" y1="14" y2="14" /><line fill="none" stroke="#000000" stroke-width="2" x1="32" x2="32" y1="23" y2="3.5" /><line fill="none" stroke="#000000" stroke-width="2" x1="68" x2="68" y1="23" y2="3.5" /><line fill="none" stroke="#000000" stroke-width="2" x1="92" x2="8" y1="68.5" y2="68.5" /><line fill="none" stroke="#000000" stroke-width="2" x1="94" x2="6" y1="47.5" y2="47.5" /><line fill="none" stroke="#000000" stroke-width="2" x1="21" x2="90" y1="27" y2="27" /><line fill="none" stroke="#000000" stroke-width="2" x1="21" x2="21" y1="68.5" y2="27" /><line fill="none" stroke="#000000" stroke-width="2" x1="40" x2="40" y1="67.5" y2="27" /><line fill="none" stroke="#000000" stroke-width="2" x1="60" x2="60" y1="67.5" y2="27" /><line fill="none" stroke="#000000" stroke-width="2" x1="79" x2="79" y1="67.5" y2="27" /><path d="M92.5,92.5 c-4.201,-6.038 -9.068,-12.229 -15,-19" fill="none" stroke="#000000" stroke-width="2" /><path d="M67,92.75 c-2.518,-5.955 -5.578,-12.132 -9.5,-19" fill="none" stroke="#000000" stroke-width="2" /><path d="M41.5,93 c-0.834,-5.872 -2.088,-12.033 -4,-19" fill="none" stroke="#000000" stroke-width="2" /><path d="M7.5,92.5 c5.269,-5.368 10.214,-11.575 15,-19" fill="none" stroke="#000000" stroke-width="2" /><path d="M8,42 c7.809,-6.573 14.144,-15.003 18,-24" fill="none" stroke="#000000" stroke-width="2" /></svg>