<?xml version='1.0' encoding='utf-8'?>
<svg xmlns="http://www.w3.org/2000/svg" height="100px" version="1.0" viewBox="0 0 100 100" width="100px" x="0px" y="0px">
<line fill="none" stroke="#000000" stroke-width="2" x1="6.5" x2="93.5" y1="13.5" y2="13.5" /><line fill="none" stroke="#000000" stroke-width="2" x1="32" x2="32" y1="23" y2="4.5" /><line fill="none" stroke="#000000" stroke-width="2" x1="68" x2="68" y1="23" y2="4.5" /><line fill="none" stroke="#000000" stroke-width="2" x1="13" x2="88" y1="89" y2="89" /><line fill="none" stroke="#000000" stroke-width="2" x1="23.5" x2="76.5" y1="36.5" y2="36.5" /><line fill="none" stroke="#000000" stroke-width="2" x1="18" x2="82" y1="45.5" y2="45.5" /><line fill="none" stroke="#000000" stroke-width="2" x1="50" x2="50" y1="45.526" y2="30.5" /><line fill="none" stroke="#000000" stroke-width="2" x1="50" x2="50" y1="86" y2="68.5" /><polyline fill="none" points="88,95 88,27.5 12,27.5 12,95" stroke="#000000" stroke-width="2" /><polyline fill="none" points="29,65.5 72,65.5 72,52 28,52 28,66.5" stroke="#000000" stroke-width="2" /><path d="M18,83.5 c17.854,-6.106 29.143,-12.089 36,-18" fill="none" stroke="#000000" stroke-width="2" /><path d="M82,83.5 c-8.246,-4.384 -18.536,-8.997 -32,-14" fill="none" stroke="#000000" stroke-width="2" /><path d="M64,75 c5.809,-2.76 10.752,-5.473 15.5,-8.5" fill="none" stroke="#000000" stroke-width="2" /></svg>