<?xml version='1.0' encoding='utf-8'?>
<svg xmlns="http://www.w3.org/2000/svg" height="100px" version="1.0" viewBox="0 0 100 100" width="100px" x="0px" y="0px">
<line fill="none" stroke="#000000" stroke-width="2" x1="7" x2="93" y1="14" y2="14" /><line fill="none" stroke="#000000" stroke-width="2" x1="32" x2="32" y1="21" y2="3.5" /><line fill="none" stroke="#000000" stroke-width="2" x1="68" x2="68" y1="21" y2="3.5" /><line fill="none" stroke="#000000" stroke-width="2" x1="38.5" x2="92" y1="28" y2="28" /><line fill="none" stroke="#000000" stroke-width="2" x1="64.5" x2="64.5" y1="28" y2="20" /><line fill="none" stroke="#000000" stroke-width="2" x1="41" x2="94.5" y1="90.5" y2="90.5" /><line fill="none" stroke="#000000" stroke-width="2" x1="92" x2="50" y1="59" y2="59" /><line fill="none" stroke="#000000" stroke-width="2" x1="89" x2="49" y1="73" y2="73" /><line fill="none" stroke="#000000" stroke-width="2" x1="69" x2="69" y1="90.5" y2="49.5" /><polyline fill="none" points="35.5,25.5 10.5,25.5 10.5,94" stroke="#000000" stroke-width="2" /><path d="M15,77.5 h4.0 c11.404,0 14.5,-2.46 14.5,-9.5 c0,-6.998 -2.563,-11.261 -14,-19.5 c6.538,-7.791 11.469,-15.223 15.106,-22.45" fill="none" stroke="#000000" stroke-width="2" /><path d="M74,46 c2.039,-5.129 3.98,-11.417 5.5,-18" fill="none" stroke="#000000" stroke-width="2" /><path d="M55,46 c-1.434,-5.97 -3.151,-12.19 -5,-18" fill="none" stroke="#000000" stroke-width="2" /><path d="M33.5,93 c3.213,-6.629 5.5,-18.192 5.5,-30 V46.0 h54.0" fill="none" stroke="#000000" stroke-width="2" /><path d="M42,71.5 c4.768,-5.718 8.717,-13.199 11,-21" fill="none" stroke="#000000" stroke-width="2" /></svg>