<?xml version='1.0' encoding='utf-8'?>
<svg xmlns="http://www.w3.org/2000/svg" height="100px" version="1.0" viewBox="0 0 100 100" width="100px" x="0px" y="0px">
<line fill="none" stroke="#000000" stroke-width="2" x1="7" x2="93" y1="11" y2="11" /><line fill="none" stroke="#000000" stroke-width="2" x1="32" x2="32" y1="17" y2="3" /><line fill="none" stroke="#000000" stroke-width="2" x1="68" x2="68" y1="17" y2="3" /><line fill="none" stroke="#000000" stroke-width="2" x1="7" x2="93" y1="21" y2="21" /><line fill="none" stroke="#000000" stroke-width="2" x1="50" x2="50" y1="21" y2="15" /><line fill="none" stroke="#000000" stroke-width="2" x1="92" x2="8" y1="74.5" y2="74.5" /><line fill="none" stroke="#000000" stroke-width="2" x1="50" x2="50" y1="94.5" y2="66.5" /><polyline fill="none" points="29,66.5 29,50.5 71,50.5 71,61.5 30,61.5" stroke="#000000" stroke-width="2" /><polyline fill="none" points="23,38.5 23,27.5 77,27.5 77,37.5 24,37.5" stroke="#000000" stroke-width="2" /><path d="M69,67.5 c7,0.37 11.129,0.5 13,0.5 c6.354,0 7,-0.655 7,-5.5 V44.0 h-78.0 v25.5" fill="none" stroke="#000000" stroke-width="2" /><path d="M6,92.5 c20.738,-5.693 34.799,-11.89 43,-18" fill="none" stroke="#000000" stroke-width="2" /><path d="M94,92.5 c-20.726,-5.724 -34.799,-11.89 -43,-18" fill="none" stroke="#000000" stroke-width="2" /></svg>