<?xml version='1.0' encoding='utf-8'?>
<svg xmlns="http://www.w3.org/2000/svg" height="100px" version="1.0" viewBox="0 0 100 100" width="100px" x="0px" y="0px">
<line fill="none" stroke="#000000" stroke-width="2" x1="7" x2="93" y1="11" y2="11" /><line fill="none" stroke="#000000" stroke-width="2" x1="35" x2="35" y1="16.5" y2="3" /><line fill="none" stroke="#000000" stroke-width="2" x1="65" x2="65" y1="16.5" y2="3" /><line fill="none" stroke="#000000" stroke-width="2" x1="92.5" x2="7.5" y1="74.5" y2="74.5" /><line fill="none" stroke="#000000" stroke-width="2" x1="85.5" x2="14.5" y1="65.5" y2="65.5" /><line fill="none" stroke="#000000" stroke-width="2" x1="49.5" x2="10.5" y1="47" y2="47" /><line fill="none" stroke="#000000" stroke-width="2" x1="29.5" x2="29.5" y1="58" y2="39" /><line fill="none" stroke="#000000" stroke-width="2" x1="50.5" x2="7" y1="29" y2="29" /><line fill="none" stroke="#000000" stroke-width="2" x1="48" x2="11.5" y1="20" y2="20" /><line fill="none" stroke="#000000" stroke-width="2" x1="29.5" x2="29.5" y1="29" y2="14.5" /><path d="M89,95 c-5.229,-5.273 -12.984,-12.101 -20,-17.5" fill="none" stroke="#000000" stroke-width="2" /><path d="M25,92 c6.35,-4.994 12.645,-11.125 18,-17.5" fill="none" stroke="#000000" stroke-width="2" /><path d="M11,92 c21.783,-0.321 47.295,-1.35 72,-3" fill="none" stroke="#000000" stroke-width="2" /><path d="M7,44 c10.873,-3.112 16.153,-8.297 17,-15" fill="none" stroke="#000000" stroke-width="2" /><path d="M36,29 v8.0 c0,3.192 0.418,3.5 7.5,3.5 c7.184,0 7.649,-0.487 8,-8" fill="none" stroke="#000000" stroke-width="2" /><path d="M56.5,32.5 c7.842,4.503 15.066,10.349 24.5,20" fill="none" stroke="#000000" stroke-width="2" /><path d="M51,60.5 c12.24,-7.048 18,-16.771 18,-33 v-13.0" fill="none" stroke="#000000" stroke-width="2" /><path d="M51,55 c-11.075,1.814 -25.043,3.498 -43.5,5" fill="none" stroke="#000000" stroke-width="2" /><path d="M52,22 h33.0 c0,30.435 3.407,38 6.5,38 c1.639,0 3.582,-3.995 4.5,-14.5" fill="none" stroke="#000000" stroke-width="2" /></svg>