<?xml version='1.0' encoding='utf-8'?>
<svg xmlns="http://www.w3.org/2000/svg" height="100px" version="1.0" viewBox="0 0 100 100" width="100px" x="0px" y="0px">
<line fill="none" stroke="#000000" stroke-width="2" x1="92" x2="8" y1="70" y2="70" /><line fill="none" stroke="#000000" stroke-width="2" x1="50" x2="50" y1="94" y2="63.5" /><line fill="none" stroke="#000000" stroke-width="2" x1="7" x2="93" y1="12" y2="12" /><line fill="none" stroke="#000000" stroke-width="2" x1="32" x2="32" y1="17.5" y2="3" /><line fill="none" stroke="#000000" stroke-width="2" x1="68" x2="68" y1="18.5" y2="3" /><path d="M6,92 c20.738,-6.958 34.799,-14.53 43,-22" fill="none" stroke="#000000" stroke-width="2" /><path d="M94,92 c-20.726,-6.995 -34.799,-14.53 -43,-22" fill="none" stroke="#000000" stroke-width="2" /><path d="M7,34 c6.061,-4.238 10.987,-9.769 14,-15.5" fill="none" stroke="#000000" stroke-width="2" /><path d="M32,20 v9.5 c0,5.056 0.518,5.5 19,5.5 c22.311,0 22.442,-0.104 24,-12" fill="none" stroke="#000000" stroke-width="2" /><path d="M62,26.5 c-5.68,-3.547 -12.369,-7.018 -19.5,-10" fill="none" stroke="#000000" stroke-width="2" /><path d="M93,34 c-3.872,-5.344 -8.828,-10.879 -14.5,-16" fill="none" stroke="#000000" stroke-width="2" /><path d="M4,61 c3.209,-4.547 5.9,-10.368 7.5,-16.5" fill="none" stroke="#000000" stroke-width="2" /><path d="M17.5,43 v15.5 c0,4.374 0.107,4.5 11,4.5 c13.293,0 13.496,-0.169 14.5,-9.5" fill="none" stroke="#000000" stroke-width="2" /><path d="M21,37.5 c5.558,2.928 10.107,5.862 15.5,10" fill="none" stroke="#000000" stroke-width="2" /><path d="M49,54 c-1.912,-3.188 -4.277,-6.431 -7,-9.5" fill="none" stroke="#000000" stroke-width="2" /><path d="M49,61 c3.209,-4.547 5.9,-10.368 7.5,-16.5" fill="none" stroke="#000000" stroke-width="2" /><path d="M62,43 v15.5 c0,4.374 0.107,4.5 11,4.5 c13.293,0 13.496,-0.169 14.5,-9.5" fill="none" stroke="#000000" stroke-width="2" /><path d="M65.5,37.5 c5.558,2.928 10.107,5.862 15.5,10" fill="none" stroke="#000000" stroke-width="2" /><path d="M96,60.5 c-2.459,-5.37 -5.5,-10.831 -9,-16" fill="none" stroke="#000000" stroke-width="2" /></svg>