<?xml version='1.0' encoding='utf-8'?>
<svg xmlns="http://www.w3.org/2000/svg" height="100px" version="1.0" viewBox="0 0 100 100" width="100px" x="0px" y="0px">
<line fill="none" stroke="#000000" stroke-width="2" x1="7" x2="93" y1="12" y2="12" /><line fill="none" stroke="#000000" stroke-width="2" x1="32" x2="32" y1="21.5" y2="3" /><line fill="none" stroke="#000000" stroke-width="2" x1="68" x2="68" y1="17" y2="3" /><line fill="none" stroke="#000000" stroke-width="2" x1="22.5" x2="22.5" y1="76.5" y2="92" /><line fill="none" stroke="#000000" stroke-width="2" x1="44.5" x2="44.5" y1="75.5" y2="91" /><line fill="none" stroke="#000000" stroke-width="2" x1="66.5" x2="66.5" y1="75.5" y2="91" /><line fill="none" stroke="#000000" stroke-width="2" x1="15.5" x2="95" y1="92" y2="92" /><line fill="none" stroke="#000000" stroke-width="2" x1="48.5" x2="48.5" y1="27.5" y2="15" /><line fill="none" stroke="#000000" stroke-width="2" x1="18.5" x2="75.5" y1="39.5" y2="34" /><line fill="none" stroke="#000000" stroke-width="2" x1="48.5" x2="84.5" y1="20" y2="20" /><line fill="none" stroke="#000000" stroke-width="2" x1="56" x2="56" y1="68" y2="50" /><line fill="none" stroke="#000000" stroke-width="2" x1="26.5" x2="86.5" y1="59.5" y2="59.5" /><polyline fill="none" points="88.5,92 88.5,75.5 21.5,75.5" stroke="#000000" stroke-width="2" /><polyline fill="none" points="26.5,69 86.5,69 86.5,50 25.5,50 25.5,70" stroke="#000000" stroke-width="2" /><path d="M79,38 c4.886,-3.143 8.513,-6.27 11.731,-10.14" fill="none" stroke="#000000" stroke-width="2" /><path d="M4.5,91.5 c6.739,-12.542 10,-26.517 10,-45.5 v-18.5 h77.0" fill="none" stroke="#000000" stroke-width="2" /><path d="M41.5,27.5 V39.0 c0,4.82 0.186,5 20,5 c26.113,0 26.152,-0.022 27,-9" fill="none" stroke="#000000" stroke-width="2" /></svg>