<?xml version='1.0' encoding='utf-8'?>
<svg xmlns="http://www.w3.org/2000/svg" height="100px" version="1.0" viewBox="0 0 100 100" width="100px" x="0px" y="0px">
<line fill="none" stroke="#000000" stroke-width="2" x1="49.5" x2="78" y1="26.5" y2="26.5" /><line fill="none" stroke="#000000" stroke-width="2" x1="49.5" x2="49.5" y1="42" y2="11" /><line fill="none" stroke="#000000" stroke-width="2" x1="8" x2="92" y1="11" y2="11" /><line fill="none" stroke="#000000" stroke-width="2" x1="50" x2="50" y1="87.5" y2="46" /><polyline fill="none" points="17,70 84,70 84,53.5 16,53.5 16,77" stroke="#000000" stroke-width="2" /><path d="M7,50 c9.133,-8.089 16.794,-20.815 20,-33.5" fill="none" stroke="#000000" stroke-width="2" /><path d="M93,44.5 h-7.5 c-38.354,0 -52.941,-4.608 -63,-15.5" fill="none" stroke="#000000" stroke-width="2" /><path d="M80.5,21.5 c4.627,-3.414 7.939,-6.535 10.709,-10.113" fill="none" stroke="#000000" stroke-width="2" /><path d="M94,93 c-5.668,-6.06 -13.436,-13.824 -20,-20" fill="none" stroke="#000000" stroke-width="2" /><path d="M8,91 c23.123,-0.979 50.211,-3.814 76.5,-8" fill="none" stroke="#000000" stroke-width="2" /></svg>