<?xml version='1.0' encoding='utf-8'?>
<svg xmlns="http://www.w3.org/2000/svg" height="100px" version="1.0" viewBox="0 0 100 100" width="100px" x="0px" y="0px">
<line fill="none" stroke="#000000" stroke-width="2" x1="19.5" x2="19.5" y1="84.5" y2="6" /><line fill="none" stroke="#000000" stroke-width="2" x1="44.5" x2="95" y1="28.5" y2="28.5" /><polyline fill="none" points="6.5,52 33.5,52 33.5,21 5.5,21 5.5,60" stroke="#000000" stroke-width="2" /><path d="M37,85.5 c-1.607,-7.969 -4.53,-17.903 -7.5,-25.5" fill="none" stroke="#000000" stroke-width="2" /><path d="M2.5,90 c9.73,-2.313 21.336,-6.738 32.5,-12.5" fill="none" stroke="#000000" stroke-width="2" /><path d="M48,91 c11.793,-14.13 16.5,-29.132 16.5,-61.5" fill="none" stroke="#000000" stroke-width="2" /><path d="M64,46.5 h27.5 c0,37.205 -3.717,43.5 -11,43.5 c-2.961,0 -8.543,-0.356 -15,-1" fill="none" stroke="#000000" stroke-width="2" /><path d="M34.5,91 c6.723,-14.052 10,-29.832 10,-51 v-29.0 h51.0" fill="none" stroke="#000000" stroke-width="2" /></svg>