<?xml version='1.0' encoding='utf-8'?>
<svg xmlns="http://www.w3.org/2000/svg" height="100px" version="1.0" viewBox="0 0 100 100" width="100px" x="0px" y="0px">
<line fill="none" stroke="#000000" stroke-width="2" x1="65.5" x2="41.5" y1="16" y2="16" /><line fill="none" stroke="#000000" stroke-width="2" x1="66.5" x2="35" y1="44" y2="44" /><line fill="none" stroke="#000000" stroke-width="2" x1="71" x2="93" y1="83.5" y2="83.5" /><line fill="none" stroke="#000000" stroke-width="2" x1="18.5" x2="18.5" y1="83.5" y2="6" /><polyline fill="none" points="93,91.5 93,13.5 70,13.5 70,91.5" stroke="#000000" stroke-width="2" /><polyline fill="none" points="6.5,52 31.5,52 31.5,21 5.5,21 5.5,60" stroke="#000000" stroke-width="2" /><path d="M34.5,38 c4.104,-9.372 7.464,-21.253 9.5,-34" fill="none" stroke="#000000" stroke-width="2" /><path d="M33,90 c10.227,-8.538 18,-27.432 18,-48.5 V16.0" fill="none" stroke="#000000" stroke-width="2" /><path d="M66.5,84.5 c-4.725,-11.049 -10.295,-22.879 -16,-34" fill="none" stroke="#000000" stroke-width="2" /><path d="M35.5,84 c-1.764,-7.366 -4.873,-16.755 -8,-24" fill="none" stroke="#000000" stroke-width="2" /><path d="M2.5,90 c9.188,-2.702 19.961,-7.815 30.5,-14.5" fill="none" stroke="#000000" stroke-width="2" /></svg>