<?xml version='1.0' encoding='utf-8'?>
<svg xmlns="http://www.w3.org/2000/svg" height="100px" version="1.0" viewBox="0 0 100 100" width="100px" x="0px" y="0px">
<line fill="none" stroke="#000000" stroke-width="2" x1="20" x2="20" y1="84.5" y2="6" /><line fill="none" stroke="#000000" stroke-width="2" x1="92" x2="38.5" y1="66.5" y2="68.5" /><line fill="none" stroke="#000000" stroke-width="2" x1="66.5" x2="66.5" y1="67.5" y2="94" /><line fill="none" stroke="#000000" stroke-width="2" x1="66.5" x2="66.5" y1="40.5" y2="10.5" /><line fill="none" stroke="#000000" stroke-width="2" x1="42.5" x2="91.5" y1="25" y2="25" /><polyline fill="none" points="7,52 34,52 34,21 6,21 6,60" stroke="#000000" stroke-width="2" /><polyline fill="none" points="42.5,40.5 91.5,40.5 91.5,9.5 41.5,9.5 41.5,41.5" stroke="#000000" stroke-width="2" /><path d="M37.5,86.5 c-1.764,-8.134 -4.873,-18.501 -8,-26.5" fill="none" stroke="#000000" stroke-width="2" /><path d="M2.5,90 c9.73,-2.313 21.336,-6.738 32.5,-12.5" fill="none" stroke="#000000" stroke-width="2" /><path d="M60.5,61 c-4.971,-4.294 -11.433,-9.62 -17,-14" fill="none" stroke="#000000" stroke-width="2" /><path d="M96.5,72 c-3.969,-5.065 -9.35,-11.423 -14,-16.5" fill="none" stroke="#000000" stroke-width="2" /><path d="M40,90.5 c7.423,-5.36 13.463,-11.143 18,-17" fill="none" stroke="#000000" stroke-width="2" /><path d="M94.5,90.5 c-5.539,-5.557 -12.275,-11.338 -20,-17" fill="none" stroke="#000000" stroke-width="2" /><path d="M49,68 c13.457,-7.557 25.421,-15.54 36,-24" fill="none" stroke="#000000" stroke-width="2" /><path d="M50,52 c6.512,-3.866 12.074,-7.544 17.5,-11.5" fill="none" stroke="#000000" stroke-width="2" /></svg>