<?xml version='1.0' encoding='utf-8'?>
<svg xmlns="http://www.w3.org/2000/svg" height="100px" version="1.0" viewBox="0 0 100 100" width="100px" x="0px" y="0px">
<line fill="none" stroke="#000000" stroke-width="2" x1="50" x2="50" y1="42.5" y2="3" /><line fill="none" stroke="#000000" stroke-width="2" x1="53.5" x2="53.5" y1="55" y2="80" /><line fill="none" stroke="#000000" stroke-width="2" x1="27.5" x2="27.5" y1="56.5" y2="48.5" /><line fill="none" stroke="#000000" stroke-width="2" x1="27.5" x2="27.5" y1="89.625" y2="57" /><line fill="none" stroke="#000000" stroke-width="2" x1="72.5" x2="72.5" y1="56.5" y2="48.5" /><line fill="none" stroke="#000000" stroke-width="2" x1="72.5" x2="72.5" y1="89.625" y2="57" /><line fill="none" stroke="#000000" stroke-width="2" x1="8.5" x2="8.5" y1="55" y2="80" /><polyline fill="none" points="17,27.5 84,27.5 84,11.5 16,11.5 16,34" stroke="#000000" stroke-width="2" /><polyline fill="none" points="53.5,73 91.5,73 91.5,56 54.5,56" stroke="#000000" stroke-width="2" /><polyline fill="none" points="8.5,73 46.5,73 46.5,56 9.5,56" stroke="#000000" stroke-width="2" /><path d="M94,47 c-5.668,-4.544 -13.432,-10.374 -20,-15" fill="none" stroke="#000000" stroke-width="2" /><path d="M8,45 c23.123,-0.733 49.219,-2.792 75.5,-6" fill="none" stroke="#000000" stroke-width="2" /><path d="M49,94 c-2.691,-5.188 -6.353,-11.74 -9.5,-17" fill="none" stroke="#000000" stroke-width="2" /><path d="M5,91.5 c11.967,-0.467 26.424,-2.102 40,-4.5" fill="none" stroke="#000000" stroke-width="2" /><path d="M95,94 c-2.691,-5.188 -6.353,-11.74 -9.5,-17" fill="none" stroke="#000000" stroke-width="2" /><path d="M51,91.5 c11.967,-0.467 26.424,-2.102 40,-4.5" fill="none" stroke="#000000" stroke-width="2" /></svg>