<?xml version='1.0' encoding='utf-8'?>
<svg xmlns="http://www.w3.org/2000/svg" height="100px" version="1.0" viewBox="0 0 100 100" width="100px" x="0px" y="0px">
<line fill="none" stroke="#000000" stroke-width="2" x1="6" x2="94" y1="27" y2="27" /><line fill="none" stroke="#000000" stroke-width="2" x1="90" x2="10" y1="9.5" y2="9.5" /><line fill="none" stroke="#000000" stroke-width="2" x1="86" x2="14" y1="18" y2="18" /><line fill="none" stroke="#000000" stroke-width="2" x1="23.5" x2="77.5" y1="45" y2="45" /><line fill="none" stroke="#000000" stroke-width="2" x1="53.5" x2="53.5" y1="63" y2="83" /><line fill="none" stroke="#000000" stroke-width="2" x1="27.5" x2="27.5" y1="64" y2="58" /><line fill="none" stroke="#000000" stroke-width="2" x1="27.5" x2="27.5" y1="90.5" y2="65" /><line fill="none" stroke="#000000" stroke-width="2" x1="72.5" x2="72.5" y1="64" y2="58" /><line fill="none" stroke="#000000" stroke-width="2" x1="72.5" x2="72.5" y1="90.5" y2="65" /><line fill="none" stroke="#000000" stroke-width="2" x1="8.5" x2="8.5" y1="63" y2="83" /><polyline fill="none" points="23.5,55 77.5,55 77.5,35.5 22.5,35.5 22.5,56" stroke="#000000" stroke-width="2" /><polyline fill="none" points="53.5,77.5 91.5,77.5 91.5,64 54.5,64" stroke="#000000" stroke-width="2" /><polyline fill="none" points="8.5,77.5 46.5,77.5 46.5,64 9.5,64" stroke="#000000" stroke-width="2" /><path d="M6,42 c24.001,-7.468 41.336,-23.855 44,-39.5" fill="none" stroke="#000000" stroke-width="2" /><path d="M94,42 c-15.665,-4.874 -29.189,-13.792 -37,-24" fill="none" stroke="#000000" stroke-width="2" /><path d="M49,94 c-2.691,-4.12 -6.353,-9.323 -9.5,-13.5" fill="none" stroke="#000000" stroke-width="2" /><path d="M5,92 c11.967,-0.363 26.424,-1.634 40,-3.5" fill="none" stroke="#000000" stroke-width="2" /><path d="M95,94 c-2.691,-4.12 -6.353,-9.323 -9.5,-13.5" fill="none" stroke="#000000" stroke-width="2" /><path d="M51,92 c11.967,-0.363 26.424,-1.634 40,-3.5" fill="none" stroke="#000000" stroke-width="2" /></svg>