<?xml version='1.0' encoding='utf-8'?>
<svg xmlns="http://www.w3.org/2000/svg" height="100px" version="1.0" viewBox="0 0 100 100" width="100px" x="0px" y="0px">
<line fill="none" stroke="#000000" stroke-width="2" x1="39" x2="39" y1="72.92" y2="90.5" /><line fill="none" stroke="#000000" stroke-width="2" x1="61" x2="61" y1="72.92" y2="90.5" /><line fill="none" stroke="#000000" stroke-width="2" x1="6" x2="94" y1="91.5" y2="91.5" /><line fill="none" stroke="#000000" stroke-width="2" x1="53.5" x2="53.5" y1="39.5" y2="58.5" /><line fill="none" stroke="#000000" stroke-width="2" x1="27.5" x2="27.5" y1="40.5" y2="34.5" /><line fill="none" stroke="#000000" stroke-width="2" x1="27.5" x2="27.5" y1="64.5" y2="41.5" /><line fill="none" stroke="#000000" stroke-width="2" x1="72.5" x2="72.5" y1="40.5" y2="34.5" /><line fill="none" stroke="#000000" stroke-width="2" x1="72.5" x2="72.5" y1="64.5" y2="41.5" /><line fill="none" stroke="#000000" stroke-width="2" x1="8.5" x2="8.5" y1="39.5" y2="58.5" /><line fill="none" stroke="#000000" stroke-width="2" x1="50" x2="50" y1="31" y2="2.5" /><polyline fill="none" points="83,90.5 83,72 17,72 17,90.5" stroke="#000000" stroke-width="2" /><polyline fill="none" points="53.5,53 91.5,53 91.5,40.5 54.5,40.5" stroke="#000000" stroke-width="2" /><polyline fill="none" points="8.5,53 46.5,53 46.5,40.5 9.5,40.5" stroke="#000000" stroke-width="2" /><polyline fill="none" points="17,21.5 84,21.5 84,9.5 16,9.5 16,27" stroke="#000000" stroke-width="2" /><path d="M49,68 c-2.691,-4.12 -6.353,-9.323 -9.5,-13.5" fill="none" stroke="#000000" stroke-width="2" /><path d="M5,66 c11.967,-0.363 26.424,-1.634 40,-3.5" fill="none" stroke="#000000" stroke-width="2" /><path d="M95,68 c-2.691,-4.12 -6.353,-9.323 -9.5,-13.5" fill="none" stroke="#000000" stroke-width="2" /><path d="M51,66 c11.967,-0.363 26.424,-1.634 40,-3.5" fill="none" stroke="#000000" stroke-width="2" /><path d="M94,34.5 c-5.668,-3.483 -13.432,-7.953 -20,-11.5" fill="none" stroke="#000000" stroke-width="2" /><path d="M8,32.5 c23.123,-0.428 50.713,-1.72 77,-3.5" fill="none" stroke="#000000" stroke-width="2" /></svg>