<?xml version='1.0' encoding='utf-8'?>
<svg xmlns="http://www.w3.org/2000/svg" height="100px" version="1.0" viewBox="0 0 100 100" width="100px" x="0px" y="0px">
<line fill="none" stroke="#000000" stroke-width="2" x1="37" x2="5" y1="24" y2="24" /><line fill="none" stroke="#000000" stroke-width="2" x1="21" x2="21" y1="24" y2="6" /><line fill="none" stroke="#000000" stroke-width="2" x1="21" x2="21" y1="94" y2="50" /><line fill="none" stroke="#000000" stroke-width="2" x1="68" x2="68" y1="94" y2="6" /><line fill="none" stroke="#000000" stroke-width="2" x1="93.5" x2="41" y1="43" y2="43" /><line fill="none" stroke="#000000" stroke-width="2" x1="95.5" x2="38.5" y1="65" y2="65" /><path d="M36,66 c-3.734,-4.671 -9.705,-11.511 -14.5,-16.5" fill="none" stroke="#000000" stroke-width="2" /><path d="M3,65.5 c15.794,-10.147 25.825,-22.294 33.068,-40.863" fill="none" stroke="#000000" stroke-width="2" /><path d="M27.5,56 c3.578,-3.504 7.165,-7.74 10.5,-12.5" fill="none" stroke="#000000" stroke-width="2" /><path d="M55,12 c-3.246,9.087 -8.373,17.661 -15,25" fill="none" stroke="#000000" stroke-width="2" /><path d="M94.5,37 c-4.238,-8.403 -9.574,-17.042 -15.5,-25" fill="none" stroke="#000000" stroke-width="2" /></svg>