<?xml version='1.0' encoding='utf-8'?>
<svg xmlns="http://www.w3.org/2000/svg" height="100px" version="1.0" viewBox="0 0 100 100" width="100px" x="0px" y="0px">
<line fill="none" stroke="#000000" stroke-width="2" x1="50" x2="50" y1="11.5" y2="3.5" /><line fill="none" stroke="#000000" stroke-width="2" x1="7" x2="93" y1="11.5" y2="11.5" /><line fill="none" stroke="#000000" stroke-width="2" x1="30.5" x2="30.5" y1="39.5" y2="21" /><polyline fill="none" points="30,89 30,67 70,67 70,83 31,83" stroke="#000000" stroke-width="2" /><path d="M49,11.5 c-9.934,6.644 -24.104,12.612 -44,17.5" fill="none" stroke="#000000" stroke-width="2" /><path d="M51,11.5 c7.319,14.048 23.418,25.703 44,31.5" fill="none" stroke="#000000" stroke-width="2" /><path d="M11,42 c17.232,-1.945 32.201,-4.481 50,-8.5" fill="none" stroke="#000000" stroke-width="2" /><path d="M65.5,28.5 c8.092,-3.718 15.371,-8.162 21.5,-13" fill="none" stroke="#000000" stroke-width="2" /><path d="M56.5,48 v8.0 c0,4.897 0.936,5.5 11,5.5 c7.107,0 14.108,-0.169 21,-0.5" fill="none" stroke="#000000" stroke-width="2" /><path d="M65.5,90.5 c7.647,0.334 12.422,0.5 15,0.5 c7.305,0 8,-0.634 8,-8 v-36.0 h-77.0 v46.0" fill="none" stroke="#000000" stroke-width="2" /><path d="M39.5,48 c0,9.874 -5.078,14.474 -24,17.5" fill="none" stroke="#000000" stroke-width="2" /></svg>