<?xml version='1.0' encoding='utf-8'?>
<svg xmlns="http://www.w3.org/2000/svg" height="100px" version="1.0" viewBox="0 0 100 100" width="100px" x="0px" y="0px">
<line fill="none" stroke="#000000" stroke-width="2" x1="33.5" x2="4" y1="24" y2="24" /><line fill="none" stroke="#000000" stroke-width="2" x1="18.5" x2="18.5" y1="24" y2="6" /><line fill="none" stroke="#000000" stroke-width="2" x1="18.5" x2="18.5" y1="94" y2="50.5" /><line fill="none" stroke="#000000" stroke-width="2" x1="41.5" x2="92.5" y1="34" y2="34" /><line fill="none" stroke="#000000" stroke-width="2" x1="95.5" x2="33" y1="72.5" y2="72.5" /><line fill="none" stroke="#000000" stroke-width="2" x1="74" x2="74" y1="56.5" y2="94" /><polyline fill="none" points="41.5,53 92.5,53 92.5,16 40.5,16 40.5,54" stroke="#000000" stroke-width="2" /><path d="M34,66 c-3.598,-4.818 -9.369,-11.859 -14,-17" fill="none" stroke="#000000" stroke-width="2" /><path d="M2.5,65.5 c14.356,-10.141 23.476,-22.278 30.059,-40.834" fill="none" stroke="#000000" stroke-width="2" /><path d="M27,56 c3.371,-3.937 6.654,-8.925 9.5,-14.5" fill="none" stroke="#000000" stroke-width="2" /><path d="M55.5,16 c2.645,-3.953 5.15,-8.271 7,-12" fill="none" stroke="#000000" stroke-width="2" /><path d="M66.5,16 v18.0 c0,19.096 -8.212,29.376 -28,34.5" fill="none" stroke="#000000" stroke-width="2" /></svg>