<?xml version='1.0' encoding='utf-8'?>
<svg xmlns="http://www.w3.org/2000/svg" height="100px" version="1.0" viewBox="0 0 100 100" width="100px" x="0px" y="0px">
<line fill="none" stroke="#000000" stroke-width="2" x1="28" x2="3.5" y1="24" y2="24" /><line fill="none" stroke="#000000" stroke-width="2" x1="15" x2="15" y1="24" y2="6" /><line fill="none" stroke="#000000" stroke-width="2" x1="15" x2="15" y1="94" y2="51" /><line fill="none" stroke="#000000" stroke-width="2" x1="54" x2="89.5" y1="27" y2="27" /><polyline fill="none" points="41.5,75 41.5,55 30.5,55" stroke="#000000" stroke-width="2" /><polyline fill="none" points="54,44 89.5,44 89.5,10.5 53,10.5 53,77.5" stroke="#000000" stroke-width="2" /><path d="M28.5,65 c-3.083,-4.677 -8.031,-11.511 -12,-16.5" fill="none" stroke="#000000" stroke-width="2" /><path d="M22.5,57 c2.838,-3.937 5.604,-8.925 8,-14.5" fill="none" stroke="#000000" stroke-width="2" /><path d="M2,65.5 c11.96,-10.128 19.557,-22.25 25.041,-40.783" fill="none" stroke="#000000" stroke-width="2" /><path d="M30.5,10 c5.375,4.619 9.913,8.88 15,14" fill="none" stroke="#000000" stroke-width="2" /><path d="M30.5,30 c5.375,4.619 9.913,8.88 15,14" fill="none" stroke="#000000" stroke-width="2" /><path d="M26.5,92 c7.057,-5.611 11.854,-11.114 15,-17" fill="none" stroke="#000000" stroke-width="2" /><path d="M95.5,90 h-28.0 c-15.129,0 -21.704,-3.743 -26,-15" fill="none" stroke="#000000" stroke-width="2" /><path d="M66.5,44 c4.717,15.987 15.607,28.876 28.5,35" fill="none" stroke="#000000" stroke-width="2" /><path d="M46.5,79 c9.313,-1.913 17.389,-4.481 27,-8.5" fill="none" stroke="#000000" stroke-width="2" /><path d="M75.5,62 c6.215,-4.035 12.132,-9.603 17,-16" fill="none" stroke="#000000" stroke-width="2" /></svg>