<?xml version='1.0' encoding='utf-8'?>
<svg xmlns="http://www.w3.org/2000/svg" height="100px" version="1.0" viewBox="0 0 100 100" width="100px" x="0px" y="0px">
<line fill="none" stroke="#000000" stroke-width="2" x1="28" x2="3.5" y1="24" y2="24" /><line fill="none" stroke="#000000" stroke-width="2" x1="15" x2="15" y1="24" y2="6" /><line fill="none" stroke="#000000" stroke-width="2" x1="15" x2="15" y1="94" y2="51" /><line fill="none" stroke="#000000" stroke-width="2" x1="33.5" x2="34.5" y1="11" y2="45.5" /><line fill="none" stroke="#000000" stroke-width="2" x1="34.5" x2="49.5" y1="33.5" y2="33.5" /><line fill="none" stroke="#000000" stroke-width="2" x1="34" x2="49.5" y1="21.5" y2="21.5" /><line fill="none" stroke="#000000" stroke-width="2" x1="55.5" x2="72" y1="11.5" y2="11.5" /><line fill="none" stroke="#000000" stroke-width="2" x1="75.5" x2="90.5" y1="33.5" y2="33.5" /><line fill="none" stroke="#000000" stroke-width="2" x1="75.5" x2="91" y1="21.5" y2="21.5" /><line fill="none" stroke="#000000" stroke-width="2" x1="56" x2="55.5" y1="28.5" y2="45.5" /><line fill="none" stroke="#000000" stroke-width="2" x1="96" x2="30" y1="45.5" y2="45.5" /><line fill="none" stroke="#000000" stroke-width="2" x1="96" x2="29" y1="79.5" y2="79.5" /><line fill="none" stroke="#000000" stroke-width="2" x1="89" x2="36" y1="67" y2="67" /><polyline fill="none" points="75.5,9.5 91.5,9.5 90.5,45.5" stroke="#000000" stroke-width="2" /><polyline fill="none" points="55.5,7 55,23.5 70.5,23.5 70,45.5" stroke="#000000" stroke-width="2" /><path d="M27,63.5 c-2.697,-4.252 -7.027,-10.464 -10.5,-15" fill="none" stroke="#000000" stroke-width="2" /><path d="M22.5,57 c2.129,-2.715 4.203,-6.155 6,-10" fill="none" stroke="#000000" stroke-width="2" /><path d="M2,65.5 c11.96,-10.128 19.557,-22.25 25.041,-40.783" fill="none" stroke="#000000" stroke-width="2" /><path d="M32.643,12.019 c5.947,-0.854 11.192,-1.911 17.357,-3.519" fill="none" stroke="#000000" stroke-width="2" /><path d="M64,55 v32.0 c0,5.177 -0.753,6 -6,6 c-2.742,0 -7.502,-0.171 -12.5,-0.5" fill="none" stroke="#000000" stroke-width="2" /><path d="M45,56.5 c13.527,-0.493 24.35,-1.92 32.5,-4" fill="none" stroke="#000000" stroke-width="2" /><path d="M96.5,66 c-7.4,-4.425 -14.737,-11.648 -20.5,-20.5" fill="none" stroke="#000000" stroke-width="2" /><path d="M28.5,66 c7.4,-4.425 14.737,-11.648 20.5,-20.5" fill="none" stroke="#000000" stroke-width="2" /></svg>