<?xml version='1.0' encoding='utf-8'?>
<svg xmlns="http://www.w3.org/2000/svg" height="100px" version="1.0" viewBox="0 0 100 100" width="100px" x="0px" y="0px">
<line fill="none" stroke="#000000" stroke-width="2" x1="19.5" x2="81.5" y1="67" y2="67" /><line fill="none" stroke="#000000" stroke-width="2" x1="19.5" x2="81.5" y1="57" y2="57" /><line fill="none" stroke="#000000" stroke-width="2" x1="12.5" x2="14" y1="11.5" y2="38.5" /><line fill="none" stroke="#000000" stroke-width="2" x1="13.5" x2="33" y1="29" y2="29" /><line fill="none" stroke="#000000" stroke-width="2" x1="13" x2="33" y1="19.5" y2="19.5" /><line fill="none" stroke="#000000" stroke-width="2" x1="67" x2="86.5" y1="29" y2="29" /><line fill="none" stroke="#000000" stroke-width="2" x1="67" x2="87" y1="19.5" y2="19.5" /><polyline fill="none" points="19.5,77 81.5,77 81.5,47 18.5,47 18.5,78" stroke="#000000" stroke-width="2" /><polyline fill="none" points="66,10 87.5,10 86,38.5" stroke="#000000" stroke-width="2" /><polyline fill="none" points="93.5,52 93.5,38.5 6.5,38.5 6.5,52" stroke="#000000" stroke-width="2" /><path d="M58,77 v10.5 c0,4.659 0.434,5 16,5 c14.414,0 14.828,-0.288 16,-16" fill="none" stroke="#000000" stroke-width="2" /><path d="M9,93.5 c19.153,-2.25 30.377,-9.827 31,-16.5" fill="none" stroke="#000000" stroke-width="2" /><path d="M11.609,12.552 c7.676,-0.832 14.438,-1.929 22.391,-3.552" fill="none" stroke="#000000" stroke-width="2" /><path d="M36.5,19 c10.588,-3.319 19.662,-8.793 25,-14.5" fill="none" stroke="#000000" stroke-width="2" /><path d="M38.5,6 c7.656,2.773 14.623,6.185 24,12" fill="none" stroke="#000000" stroke-width="2" /><path d="M36.5,35 c10.588,-3.319 19.662,-8.793 25,-14.5" fill="none" stroke="#000000" stroke-width="2" /><path d="M38.5,22 c7.656,2.773 14.623,6.185 24,12" fill="none" stroke="#000000" stroke-width="2" /></svg>