<?xml version='1.0' encoding='utf-8'?>
<svg xmlns="http://www.w3.org/2000/svg" height="100px" version="1.0" viewBox="0 0 100 100" width="100px" x="0px" y="0px">
<line fill="none" stroke="#000000" stroke-width="2" x1="5" x2="33.5" y1="24" y2="24" /><line fill="none" stroke="#000000" stroke-width="2" x1="8.5" x2="31.5" y1="38" y2="38" /><line fill="none" stroke="#000000" stroke-width="2" x1="8.5" x2="31.5" y1="52" y2="52" /><line fill="none" stroke="#000000" stroke-width="2" x1="8" x2="32" y1="10.5" y2="10.5" /><line fill="none" stroke="#000000" stroke-width="2" x1="43" x2="89" y1="25.5" y2="25.5" /><line fill="none" stroke="#000000" stroke-width="2" x1="66" x2="66" y1="14" y2="3" /><line fill="none" stroke="#000000" stroke-width="2" x1="35.5" x2="95.5" y1="89" y2="89" /><line fill="none" stroke="#000000" stroke-width="2" x1="46" x2="87" y1="56" y2="56" /><polyline fill="none" points="10,88.5 31,88.5 31,66 9,66 9,94.5" stroke="#000000" stroke-width="2" /><polyline fill="none" points="93.5,32 93.5,14 38.5,14 38.5,32" stroke="#000000" stroke-width="2" /><polyline fill="none" points="46,75.5 87,75.5 87,38 45,38 45,76.5" stroke="#000000" stroke-width="2" /></svg>