<?xml version='1.0' encoding='utf-8'?>
<svg xmlns="http://www.w3.org/2000/svg" height="100px" version="1.0" viewBox="0 0 100 100" width="100px" x="0px" y="0px">
<line fill="none" stroke="#000000" stroke-width="2" x1="6" x2="39" y1="24" y2="24" /><line fill="none" stroke="#000000" stroke-width="2" x1="9.5" x2="35.5" y1="38" y2="38" /><line fill="none" stroke="#000000" stroke-width="2" x1="9.5" x2="35.5" y1="52" y2="52" /><line fill="none" stroke="#000000" stroke-width="2" x1="9" x2="36" y1="10.5" y2="10.5" /><line fill="none" stroke="#000000" stroke-width="2" x1="95.5" x2="39.5" y1="54.5" y2="54.5" /><line fill="none" stroke="#000000" stroke-width="2" x1="90.5" x2="44.5" y1="41.5" y2="41.5" /><polyline fill="none" points="11,88.5 35,88.5 35,66 10,66 10,94.5" stroke="#000000" stroke-width="2" /><polyline fill="none" points="44,30 64,30 64,10 43,10 43,31" stroke="#000000" stroke-width="2" /><polyline fill="none" points="72,30 92,30 92,10 71,10 71,31" stroke="#000000" stroke-width="2" /><path d="M52.5,54.5 c-1.834,8.478 -4.906,18.208 -8,25.5" fill="none" stroke="#000000" stroke-width="2" /><path d="M49,67.5 h40.5 c-2.142,22.519 -3.314,24 -8,24 c-2.639,0 -9.859,-0.433 -15,-1" fill="none" stroke="#000000" stroke-width="2" /></svg>