<?xml version='1.0' encoding='utf-8'?>
<svg xmlns="http://www.w3.org/2000/svg" height="100px" version="1.0" viewBox="0 0 100 100" width="100px" x="0px" y="0px">
<line fill="none" stroke="#000000" stroke-width="2" x1="6" x2="38" y1="24" y2="24" /><line fill="none" stroke="#000000" stroke-width="2" x1="9.5" x2="34.5" y1="38" y2="38" /><line fill="none" stroke="#000000" stroke-width="2" x1="9.5" x2="34.5" y1="52" y2="52" /><line fill="none" stroke="#000000" stroke-width="2" x1="9" x2="35" y1="10.5" y2="10.5" /><line fill="none" stroke="#000000" stroke-width="2" x1="42.5" x2="91.5" y1="57" y2="57" /><line fill="none" stroke="#000000" stroke-width="2" x1="67" x2="67" y1="94" y2="5" /><line fill="none" stroke="#000000" stroke-width="2" x1="38" x2="96" y1="15.5" y2="15.5" /><polyline fill="none" points="11,88.5 34,88.5 34,66 10,66 10,94.5" stroke="#000000" stroke-width="2" /><polyline fill="none" points="92.5,58 92.5,29 41.5,29 41.5,58" stroke="#000000" stroke-width="2" /><path d="M37.5,89.5 c13.721,-10.303 22.718,-20.663 28.5,-32" fill="none" stroke="#000000" stroke-width="2" /><path d="M75,53 c3.615,-5.592 6.561,-12.452 8.5,-20" fill="none" stroke="#000000" stroke-width="2" /><path d="M58.5,53 c-2.396,-6.751 -5.234,-13.442 -8.5,-20" fill="none" stroke="#000000" stroke-width="2" /><path d="M96.5,89.5 c-13.721,-10.303 -22.718,-20.663 -28.5,-32" fill="none" stroke="#000000" stroke-width="2" /></svg>