<?xml version='1.0' encoding='utf-8'?>
<svg xmlns="http://www.w3.org/2000/svg" height="100px" version="1.0" viewBox="0 0 100 100" width="100px" x="0px" y="0px">
<line fill="none" stroke="#000000" stroke-width="2" x1="5.5" x2="35" y1="24" y2="24" /><line fill="none" stroke="#000000" stroke-width="2" x1="8.5" x2="32" y1="38" y2="38" /><line fill="none" stroke="#000000" stroke-width="2" x1="8.5" x2="32" y1="52" y2="52" /><line fill="none" stroke="#000000" stroke-width="2" x1="8" x2="32.5" y1="10.5" y2="10.5" /><line fill="none" stroke="#000000" stroke-width="2" x1="64.5" x2="64.5" y1="85.5" y2="19.5" /><line fill="none" stroke="#000000" stroke-width="2" x1="49" x2="49" y1="34.5" y2="65.5" /><line fill="none" stroke="#000000" stroke-width="2" x1="79" x2="50" y1="35.5" y2="35.5" /><polyline fill="none" points="10,88.5 31.5,88.5 31.5,66 9,66 9,94.5" stroke="#000000" stroke-width="2" /><polyline fill="none" points="49,59.5 80,59.5 80,34.5" stroke="#000000" stroke-width="2" /><path d="M32.5,92.5 c5.579,-10.288 8.5,-25.519 8.5,-50.5 v-32.0 h47.0 c0,71.495 3.031,82 6.5,82 c1.844,0 3.408,-4.21 4,-22" fill="none" stroke="#000000" stroke-width="2" /><path d="M87.5,91 c-3.238,-7.272 -7.699,-16.632 -11.5,-24" fill="none" stroke="#000000" stroke-width="2" /><path d="M42.5,88 c11.663,-0.589 27.744,-2.734 41,-5.5" fill="none" stroke="#000000" stroke-width="2" /><path d="M46,20.5 c10.976,-0.401 24.545,-1.697 37,-3.5" fill="none" stroke="#000000" stroke-width="2" /></svg>