<?xml version='1.0' encoding='utf-8'?>
<svg xmlns="http://www.w3.org/2000/svg" height="100px" version="1.0" viewBox="0 0 100 100" width="100px" x="0px" y="0px">
<line fill="none" stroke="#000000" stroke-width="2" x1="5.5" x2="33.5" y1="24" y2="24" /><line fill="none" stroke="#000000" stroke-width="2" x1="8.5" x2="32" y1="38" y2="38" /><line fill="none" stroke="#000000" stroke-width="2" x1="8.5" x2="32" y1="52" y2="52" /><line fill="none" stroke="#000000" stroke-width="2" x1="8" x2="32.5" y1="10.5" y2="10.5" /><polyline fill="none" points="10,88.5 31.5,88.5 31.5,66 9,66 9,94.5" stroke="#000000" stroke-width="2" /><path d="M96.5,59.5 c-11.979,-6.282 -22.002,-13.058 -31.5,-21.2 c-9.497,8.143 -19.522,14.918 -31.5,21.2" fill="none" stroke="#000000" stroke-width="2" /><path d="M40,61.5 c14.438,-1.71 27.477,-5.685 36,-10.5" fill="none" stroke="#000000" stroke-width="2" /><path d="M40,76.5 c19.363,-1.99 34.514,-6.821 44.75,-13.25" fill="none" stroke="#000000" stroke-width="2" /><path d="M40,91.5 c24.29,-2.271 41.552,-7.958 53.5,-16" fill="none" stroke="#000000" stroke-width="2" /><path d="M67,36.5 c9.098,-2.731 16.63,-6.066 22,-9.5" fill="none" stroke="#000000" stroke-width="2" /><path d="M83.5,24 c-3.815,-2.891 -8.515,-6.089 -14,-9.5" fill="none" stroke="#000000" stroke-width="2" /><path d="M66,10 h26.5 v30.5 c0,3.177 -0.322,3.5 -4,3.5 c-1.651,0 -6.105,-0.168 -11,-0.5" fill="none" stroke="#000000" stroke-width="2" /><path d="M35.5,36.5 c9.098,-2.731 16.63,-6.066 22,-9.5" fill="none" stroke="#000000" stroke-width="2" /><path d="M52,24 c-3.815,-2.891 -8.515,-6.089 -14,-9.5" fill="none" stroke="#000000" stroke-width="2" /><path d="M36.5,10 h24.5 v28.5 c0,3.177 -0.322,3.5 -4,3.5 c-1.651,0 -6.105,-0.168 -11,-0.5" fill="none" stroke="#000000" stroke-width="2" /></svg>