<?xml version='1.0' encoding='utf-8'?>
<svg xmlns="http://www.w3.org/2000/svg" height="100px" version="1.0" viewBox="0 0 100 100" width="100px" x="0px" y="0px">
<line fill="none" stroke="#000000" stroke-width="2" x1="4.5" x2="34" y1="24" y2="24" /><line fill="none" stroke="#000000" stroke-width="2" x1="7.5" x2="31" y1="38" y2="38" /><line fill="none" stroke="#000000" stroke-width="2" x1="7.5" x2="31" y1="52" y2="52" /><line fill="none" stroke="#000000" stroke-width="2" x1="7" x2="31.5" y1="10.5" y2="10.5" /><line fill="none" stroke="#000000" stroke-width="2" x1="39" x2="96.5" y1="88.5" y2="88.5" /><polyline fill="none" points="9,88.5 30.5,88.5 30.5,66 8,66 8,94.5" stroke="#000000" stroke-width="2" /><polyline fill="none" points="96,10.5 39,10.5 39,95" stroke="#000000" stroke-width="2" /><polyline fill="none" points="48.5,77.5 66.5,77.5 66.5,50 47.5,50 47.5,78.5" stroke="#000000" stroke-width="2" /><polyline fill="none" points="75,77.5 93,77.5 93,50 74,50 74,78.5" stroke="#000000" stroke-width="2" /><polyline fill="none" points="54.5,41 87,41 87,20.5 53.5,20.5 53.5,42" stroke="#000000" stroke-width="2" /></svg>