<?xml version='1.0' encoding='utf-8'?>
<svg xmlns="http://www.w3.org/2000/svg" height="100px" version="1.0" viewBox="0 0 100 100" width="100px" x="0px" y="0px">
<line fill="none" stroke="#000000" stroke-width="2" x1="4.5" x2="33.5" y1="24" y2="24" /><line fill="none" stroke="#000000" stroke-width="2" x1="7.5" x2="31" y1="38" y2="38" /><line fill="none" stroke="#000000" stroke-width="2" x1="7.5" x2="31" y1="52" y2="52" /><line fill="none" stroke="#000000" stroke-width="2" x1="7" x2="31.5" y1="10.5" y2="10.5" /><line fill="none" stroke="#000000" stroke-width="2" x1="97" x2="37" y1="26" y2="26" /><line fill="none" stroke="#000000" stroke-width="2" x1="40.5" x2="93" y1="10" y2="10" /><polyline fill="none" points="9,88.5 30.5,88.5 30.5,66 8,66 8,94.5" stroke="#000000" stroke-width="2" /><polyline fill="none" points="52.5,88 52.5,68.5 80,68.5 80,84 53.5,84" stroke="#000000" stroke-width="2" /><path d="M78,90 c5.261,0.363 8.594,0.5 10,0.5 c4.406,0 5,-0.673 5,-8 V51.0 h-53.5 v41.0" fill="none" stroke="#000000" stroke-width="2" /><path d="M36,44.5 c12.348,-4.505 23.713,-10.74 34,-18.5" fill="none" stroke="#000000" stroke-width="2" /><path d="M49.5,14 c6.939,3.302 14.219,7.378 21.5,12" fill="none" stroke="#000000" stroke-width="2" /><path d="M96.273,26.313 c-4.932,5.218 -10.728,9.706 -17.773,13.687" fill="none" stroke="#000000" stroke-width="2" /><path d="M71,26 v15.0 c0,3.64 -0.656,4.5 -5,4.5 c-1.938,0 -6.746,-0.172 -12,-0.5" fill="none" stroke="#000000" stroke-width="2" /><path d="M92.455,10.161 c-7.836,5.089 -16.168,9.28 -25.955,12.839" fill="none" stroke="#000000" stroke-width="2" /><path d="M71,52 v7.0 c0,4.192 0.361,4.5 7.5,4.5 h13.5" fill="none" stroke="#000000" stroke-width="2" /><path d="M59,52 c0,8.251 -4.387,12.767 -16.5,15.5" fill="none" stroke="#000000" stroke-width="2" /></svg>