<?xml version='1.0' encoding='utf-8'?>
<svg xmlns="http://www.w3.org/2000/svg" height="100px" version="1.0" viewBox="0 0 100 100" width="100px" x="0px" y="0px">
<line fill="none" stroke="#000000" stroke-width="2" x1="6" x2="34.5" y1="24" y2="24" /><line fill="none" stroke="#000000" stroke-width="2" x1="9.5" x2="32" y1="38" y2="38" /><line fill="none" stroke="#000000" stroke-width="2" x1="9.5" x2="32" y1="52" y2="52" /><line fill="none" stroke="#000000" stroke-width="2" x1="9" x2="32.5" y1="10.5" y2="10.5" /><line fill="none" stroke="#000000" stroke-width="2" x1="95" x2="36.5" y1="10" y2="10" /><line fill="none" stroke="#000000" stroke-width="2" x1="74.5" x2="74.5" y1="11" y2="35.5" /><line fill="none" stroke="#000000" stroke-width="2" x1="57" x2="57" y1="11" y2="35.5" /><line fill="none" stroke="#000000" stroke-width="2" x1="43.5" x2="89" y1="55.5" y2="55.5" /><line fill="none" stroke="#000000" stroke-width="2" x1="36" x2="95.5" y1="78.5" y2="78.5" /><line fill="none" stroke="#000000" stroke-width="2" x1="66" x2="66" y1="94" y2="67.5" /><polyline fill="none" points="11,88.5 31.5,88.5 31.5,66 10,66 10,94.5" stroke="#000000" stroke-width="2" /><polyline fill="none" points="39.5,37.5 39.5,20.5 92,20.5 92,36.5 40.5,36.5" stroke="#000000" stroke-width="2" /><polyline fill="none" points="43.5,67.5 89,67.5 89,44.5 42.5,44.5 42.5,68.5" stroke="#000000" stroke-width="2" /></svg>