<?xml version='1.0' encoding='utf-8'?>
<svg xmlns="http://www.w3.org/2000/svg" height="100px" version="1.0" viewBox="0 0 100 100" width="100px" x="0px" y="0px">
<line fill="none" stroke="#000000" stroke-width="2" x1="4.5" x2="33" y1="24" y2="24" /><line fill="none" stroke="#000000" stroke-width="2" x1="7.5" x2="31" y1="38" y2="38" /><line fill="none" stroke="#000000" stroke-width="2" x1="7.5" x2="31" y1="52" y2="52" /><line fill="none" stroke="#000000" stroke-width="2" x1="7" x2="31.5" y1="10.5" y2="10.5" /><line fill="none" stroke="#000000" stroke-width="2" x1="40" x2="40" y1="52.5" y2="94" /><line fill="none" stroke="#000000" stroke-width="2" x1="93" x2="40.5" y1="52" y2="52" /><line fill="none" stroke="#000000" stroke-width="2" x1="68" x2="68" y1="88" y2="52" /><line fill="none" stroke="#000000" stroke-width="2" x1="41" x2="95" y1="88" y2="88" /><line fill="none" stroke="#000000" stroke-width="2" x1="40" x2="91" y1="75.5" y2="75.5" /><line fill="none" stroke="#000000" stroke-width="2" x1="40" x2="91" y1="63.5" y2="63.5" /><line fill="none" stroke="#000000" stroke-width="2" x1="35" x2="95" y1="12" y2="12" /><line fill="none" stroke="#000000" stroke-width="2" x1="52.5" x2="52.5" y1="18.5" y2="4" /><line fill="none" stroke="#000000" stroke-width="2" x1="78" x2="78" y1="18.5" y2="4" /><polyline fill="none" points="9,88.5 30.5,88.5 30.5,66 8,66 8,94.5" stroke="#000000" stroke-width="2" /><polyline fill="none" points="38.5,41 62,41 62,21.5 37.5,21.5 37.5,42" stroke="#000000" stroke-width="2" /><polyline fill="none" points="70,41 93.5,41 93.5,21.5 69,21.5 69,42" stroke="#000000" stroke-width="2" /><path d="M73.5,41 c-1.629,4.057 -3.602,7.633 -6,11" fill="none" stroke="#000000" stroke-width="2" /><path d="M31.5,63 c5.74,-6.102 10.666,-13.583 14.5,-22" fill="none" stroke="#000000" stroke-width="2" /></svg>