<?xml version='1.0' encoding='utf-8'?>
<svg xmlns="http://www.w3.org/2000/svg" height="100px" version="1.0" viewBox="0 0 100 100" width="100px" x="0px" y="0px">
<line fill="none" stroke="#000000" stroke-width="2" x1="3.5" x2="39.5" y1="43.5" y2="43.5" /><line fill="none" stroke="#000000" stroke-width="2" x1="37" x2="5.5" y1="11" y2="11" /><line fill="none" stroke="#000000" stroke-width="2" x1="67.5" x2="67.5" y1="24" y2="41" /><line fill="none" stroke="#000000" stroke-width="2" x1="51" x2="78.5" y1="12.5" y2="12.5" /><polyline fill="none" points="42.5,23 42.5,41 93.5,41 93.5,23 43,23" stroke="#000000" stroke-width="2" /><path d="M21,43.5 v40.0 c0,7.478 -0.463,8 -4.5,8 c-2.25,0 -5.514,-0.168 -9,-0.5" fill="none" stroke="#000000" stroke-width="2" /><path d="M28,64.5 c4.211,-6.137 7.482,-12.409 10.566,-20.361" fill="none" stroke="#000000" stroke-width="2" /><path d="M36.104,11.555 c-4.594,9.239 -9.271,16.461 -15.104,23.445" fill="none" stroke="#000000" stroke-width="2" /><path d="M27.5,43.5 c-5.094,-6.938 -11.207,-14.099 -18,-21" fill="none" stroke="#000000" stroke-width="2" /><path d="M71,23 c2.415,-3.206 4.812,-6.819 6.627,-9.996" fill="none" stroke="#000000" stroke-width="2" /><path d="M34.5,30.5 c9.047,-7.001 16.077,-15.789 20.5,-25.5" fill="none" stroke="#000000" stroke-width="2" /><path d="M37.5,56 c12.947,-4.347 22.412,-9.526 28.5,-15" fill="none" stroke="#000000" stroke-width="2" /><path d="M55.5,90.5 c4.785,0.349 8.934,0.5 11.5,0.5 c4.645,0 6.5,-2.526 6.5,-14.5 c0,-12.503 -4.956,-24.183 -13,-31" fill="none" stroke="#000000" stroke-width="2" /><path d="M35.5,72.5 c15.053,-4.765 25.477,-10.7 32.5,-17.5" fill="none" stroke="#000000" stroke-width="2" /><path d="M34.5,89 c17.589,-5.636 29.91,-13.001 38,-21.5" fill="none" stroke="#000000" stroke-width="2" /><path d="M95,47.5 c-5.408,6.253 -11.412,11.3 -18,15" fill="none" stroke="#000000" stroke-width="2" /><path d="M69,41 c4.104,18.344 15.582,36.96 29,47.5" fill="none" stroke="#000000" stroke-width="2" /></svg>