<?xml version='1.0' encoding='utf-8'?>
<svg xmlns="http://www.w3.org/2000/svg" height="100px" version="1.0" viewBox="0 0 100 100" width="100px" x="0px" y="0px">
<line fill="none" stroke="#000000" stroke-width="2" x1="7" x2="93" y1="15" y2="15" /><line fill="none" stroke="#000000" stroke-width="2" x1="8" x2="68.5" y1="33" y2="33" /><line fill="none" stroke="#000000" stroke-width="2" x1="63.5" x2="12.5" y1="24" y2="24" /><line fill="none" stroke="#000000" stroke-width="2" x1="15" x2="62.5" y1="63.5" y2="63.5" /><line fill="none" stroke="#000000" stroke-width="2" x1="15" x2="62.5" y1="52.5" y2="52.5" /><polyline fill="none" points="15,74.5 62.5,74.5 62.5,41.5 14,41.5 14,75.5" stroke="#000000" stroke-width="2" /><path d="M73,3.5 c0,57.183 12.112,88.5 17,88.5 c1.655,0 3.49,-2.614 5,-23" fill="none" stroke="#000000" stroke-width="2" /><path d="M78,4 c4.378,2.292 8.892,5.069 13,8" fill="none" stroke="#000000" stroke-width="2" /><path d="M7,91.5 c10.127,-3.419 18.866,-8.096 24,-12.5" fill="none" stroke="#000000" stroke-width="2" /><path d="M68.5,92 c-6.18,-4.208 -14.703,-8.728 -24,-12.5" fill="none" stroke="#000000" stroke-width="2" /></svg>