<?xml version='1.0' encoding='utf-8'?>
<svg xmlns="http://www.w3.org/2000/svg" height="100px" version="1.0" viewBox="0 0 100 100" width="100px" x="0px" y="0px">
<line fill="none" stroke="#000000" stroke-width="2" x1="9.5" x2="30" y1="48" y2="48" /><line fill="none" stroke="#000000" stroke-width="2" x1="9.5" x2="30" y1="29" y2="29" /><line fill="none" stroke="#000000" stroke-width="2" x1="41" x2="94.5" y1="44.5" y2="44.5" /><line fill="none" stroke="#000000" stroke-width="2" x1="54" x2="54" y1="88.5" y2="44.5" /><line fill="none" stroke="#000000" stroke-width="2" x1="47.5" x2="90.5" y1="27" y2="27" /><polyline fill="none" points="9.5,67.5 31,67.5 31,10.5 8.5,10.5 8.5,68.5" stroke="#000000" stroke-width="2" /><path d="M4.5,92 c4.852,-4.872 9.363,-11.837 12,-18.5" fill="none" stroke="#000000" stroke-width="2" /><path d="M35,85.5 c-3.182,-3.965 -7.387,-8.021 -12,-11.5" fill="none" stroke="#000000" stroke-width="2" /><path d="M32.5,91 c5.586,-14.091 8.5,-29.832 8.5,-51 v-30.0 h52.0" fill="none" stroke="#000000" stroke-width="2" /><path d="M67.5,44.5 c4.393,21.823 14.544,38.691 27.5,48" fill="none" stroke="#000000" stroke-width="2" /><path d="M39.5,92 c12.406,-2.517 23.185,-5.799 36,-11" fill="none" stroke="#000000" stroke-width="2" /><path d="M76,69.5 c6.199,-4.79 12.172,-11.049 18,-19" fill="none" stroke="#000000" stroke-width="2" /></svg>