<?xml version='1.0' encoding='utf-8'?>
<svg xmlns="http://www.w3.org/2000/svg" height="100px" version="1.0" viewBox="0 0 100 100" width="100px" x="0px" y="0px">
<line fill="none" stroke="#000000" stroke-width="2" x1="11" x2="34.5" y1="48" y2="48" /><line fill="none" stroke="#000000" stroke-width="2" x1="11" x2="34.5" y1="29" y2="29" /><line fill="none" stroke="#000000" stroke-width="2" x1="40.5" x2="94.5" y1="62" y2="57.5" /><line fill="none" stroke="#000000" stroke-width="2" x1="40.5" x2="94" y1="19.5" y2="16" /><polyline fill="none" points="11,67.5 35.5,67.5 35.5,10.5 10,10.5 10,68.5" stroke="#000000" stroke-width="2" /><path d="M3.5,92 c6.299,-4.847 12.094,-11.837 15.5,-18.5" fill="none" stroke="#000000" stroke-width="2" /><path d="M39.5,91.5 c-3.175,-6.021 -7.396,-12.218 -12,-17.5" fill="none" stroke="#000000" stroke-width="2" /><path d="M88,62.5 c-7.89,13.313 -23.695,23.853 -44.5,29" fill="none" stroke="#000000" stroke-width="2" /><path d="M59,44.5 c3.463,29.63 23.374,47 30.5,47 c2.523,0 4.236,-2.142 6,-12.5" fill="none" stroke="#000000" stroke-width="2" /><path d="M66.5,46.5 c5.38,1.966 10.927,4.407 16,7" fill="none" stroke="#000000" stroke-width="2" /><path d="M87.5,20.5 c-7.691,10.61 -23.014,19.452 -45.5,24" fill="none" stroke="#000000" stroke-width="2" /><path d="M58,5 c3.183,26.026 23.454,41.5 30.5,41.5 c2.569,0 4.189,-1.939 6,-11.5" fill="none" stroke="#000000" stroke-width="2" /><path d="M69,5.5 c5.385,1.844 10.933,4.108 16,6.5" fill="none" stroke="#000000" stroke-width="2" /></svg>