<?xml version='1.0' encoding='utf-8'?>
<svg xmlns="http://www.w3.org/2000/svg" height="100px" version="1.0" viewBox="0 0 100 100" width="100px" x="0px" y="0px">
<line fill="none" stroke="#000000" stroke-width="2" x1="18.5" x2="81.5" y1="66" y2="66" /><line fill="none" stroke="#000000" stroke-width="2" x1="18.5" x2="81.5" y1="55.5" y2="55.5" /><line fill="none" stroke="#000000" stroke-width="2" x1="7" x2="50" y1="29" y2="29" /><line fill="none" stroke="#000000" stroke-width="2" x1="28.5" x2="28.5" y1="29" y2="45" /><line fill="none" stroke="#000000" stroke-width="2" x1="8" x2="49" y1="37" y2="37" /><line fill="none" stroke="#000000" stroke-width="2" x1="6.5" x2="50.5" y1="18" y2="18" /><line fill="none" stroke="#000000" stroke-width="2" x1="9" x2="48" y1="10" y2="10" /><line fill="none" stroke="#000000" stroke-width="2" x1="28.5" x2="28.5" y1="18" y2="4.5" /><polyline fill="none" points="18.5,76.5 82.5,76.5 82.5,45 17.5,45 17.5,77.5" stroke="#000000" stroke-width="2" /><path d="M8,93 c13.08,-3.282 24.369,-7.771 31,-12" fill="none" stroke="#000000" stroke-width="2" /><path d="M92,94 c-7.982,-4.208 -19.018,-8.679 -31,-12.5" fill="none" stroke="#000000" stroke-width="2" /><path d="M54.5,20.5 c8.657,3.573 16.641,8.263 27,16" fill="none" stroke="#000000" stroke-width="2" /><path d="M50.5,42 c12.296,-5.882 18,-14.173 18,-27 v-10.5" fill="none" stroke="#000000" stroke-width="2" /><path d="M51,12 h35.0 c0,25.585 3.063,31.5 6.5,31.5 c1.752,0 3.137,-2.215 4.5,-12.5" fill="none" stroke="#000000" stroke-width="2" /><path d="M35,29 c3.416,-3.443 6.091,-6.896 8.5,-11" fill="none" stroke="#000000" stroke-width="2" /><path d="M20.5,29 c-1.959,-3.739 -4.283,-7.435 -7,-11" fill="none" stroke="#000000" stroke-width="2" /></svg>