<?xml version='1.0' encoding='utf-8'?>
<svg xmlns="http://www.w3.org/2000/svg" height="100px" version="1.0" viewBox="0 0 100 100" width="100px" x="0px" y="0px">
<line fill="none" stroke="#000000" stroke-width="2" x1="7" x2="47.5" y1="25" y2="25" /><line fill="none" stroke="#000000" stroke-width="2" x1="6.5" x2="49.5" y1="17.5" y2="17.5" /><line fill="none" stroke="#000000" stroke-width="2" x1="9" x2="47" y1="10" y2="10" /><line fill="none" stroke="#000000" stroke-width="2" x1="28" x2="28" y1="25" y2="4.5" /><line fill="none" stroke="#000000" stroke-width="2" x1="18.5" x2="81.5" y1="66" y2="66" /><line fill="none" stroke="#000000" stroke-width="2" x1="18.5" x2="81.5" y1="55.5" y2="55.5" /><line fill="none" stroke="#000000" stroke-width="2" x1="58" x2="93.5" y1="13" y2="13" /><polyline fill="none" points="18.5,76.5 82.5,76.5 82.5,45 17.5,45 17.5,77.5" stroke="#000000" stroke-width="2" /><path d="M8,93 c13.08,-3.282 24.369,-7.771 31,-12" fill="none" stroke="#000000" stroke-width="2" /><path d="M92,94 c-7.982,-4.208 -19.018,-8.679 -31,-12.5" fill="none" stroke="#000000" stroke-width="2" /><path d="M49.5,40.5 c18.287,-3.974 31.109,-13.637 37.5,-27.5" fill="none" stroke="#000000" stroke-width="2" /><path d="M93,41.5 c-14.4,-4.7 -25.225,-12.735 -33,-24.5" fill="none" stroke="#000000" stroke-width="2" /><path d="M50,24.5 c5.118,-5.435 9.532,-12.767 12,-20" fill="none" stroke="#000000" stroke-width="2" /><path d="M6,46 c9.407,-3.976 15.701,-12.462 16,-21" fill="none" stroke="#000000" stroke-width="2" /><path d="M21,31 h25.0 c-0.269,7.694 -1.494,9 -7,9 c-3.428,0 -6.475,-0.137 -10,-0.5" fill="none" stroke="#000000" stroke-width="2" /></svg>