<?xml version='1.0' encoding='utf-8'?>
<svg xmlns="http://www.w3.org/2000/svg" height="100px" version="1.0" viewBox="0 0 100 100" width="100px" x="0px" y="0px">
<line fill="none" stroke="#000000" stroke-width="2" x1="20" x2="81" y1="27.5" y2="27.5" /><line fill="none" stroke="#000000" stroke-width="2" x1="20" x2="81" y1="18.5" y2="18.5" /><line fill="none" stroke="#000000" stroke-width="2" x1="10.5" x2="45" y1="71" y2="71" /><line fill="none" stroke="#000000" stroke-width="2" x1="10.5" x2="45" y1="61.5" y2="61.5" /><line fill="none" stroke="#000000" stroke-width="2" x1="56" x2="90.5" y1="71" y2="71" /><line fill="none" stroke="#000000" stroke-width="2" x1="56" x2="90.5" y1="61.5" y2="61.5" /><polyline fill="none" points="20,36.5 81,36.5 81,9.5 19,9.5 19,37.5" stroke="#000000" stroke-width="2" /><polyline fill="none" points="10.5,80.5 45,80.5 45,52 9.5,52 9.5,81.5" stroke="#000000" stroke-width="2" /><polyline fill="none" points="56,80.5 90.5,80.5 90.5,52 55,52 55,81.5" stroke="#000000" stroke-width="2" /><path d="M9.5,48.5 c12.666,-2.28 23.583,-5.505 30,-8.5" fill="none" stroke="#000000" stroke-width="2" /><path d="M90.5,48.5 c-7.726,-2.861 -18.4,-5.922 -30,-8.5" fill="none" stroke="#000000" stroke-width="2" /><path d="M5,93 c6.829,-2.373 12.838,-5.636 17,-9" fill="none" stroke="#000000" stroke-width="2" /><path d="M52.5,93 c6.428,-2.374 12.084,-5.638 16,-9" fill="none" stroke="#000000" stroke-width="2" /><path d="M95,93 c-4.27,-2.955 -10.313,-6.199 -17,-9" fill="none" stroke="#000000" stroke-width="2" /><path d="M47.5,93 c-4.019,-2.956 -9.696,-6.222 -16,-9" fill="none" stroke="#000000" stroke-width="2" /></svg>