<?xml version='1.0' encoding='utf-8'?>
<svg xmlns="http://www.w3.org/2000/svg" height="100px" version="1.0" viewBox="0 0 100 100" width="100px" x="0px" y="0px">
<line fill="none" stroke="#000000" stroke-width="2" x1="41.5" x2="7.5" y1="16" y2="16" /><line fill="none" stroke="#000000" stroke-width="2" x1="25.5" x2="40" y1="59" y2="59" /><line fill="none" stroke="#000000" stroke-width="2" x1="25.5" x2="25.5" y1="86.5" y2="4" /><line fill="none" stroke="#000000" stroke-width="2" x1="5.5" x2="42.5" y1="37" y2="37" /><polyline fill="none" points="49,59 49,70.5 82,70.5 82,59" stroke="#000000" stroke-width="2" /><polyline fill="none" points="49,21 49,32 82,32 82,21" stroke="#000000" stroke-width="2" /><path d="M5.5,92 c3.824,-11.728 6.592,-27.343 7.5,-44" fill="none" stroke="#000000" stroke-width="2" /><path d="M93.5,90 h-45.0 c-23.913,0 -32.154,-5.626 -37,-26" fill="none" stroke="#000000" stroke-width="2" /><path d="M53.5,50.5 h38.5 c0,25.899 -3.336,32.5 -9,32.5 c-2.707,0 -7.357,-0.202 -12,-0.5" fill="none" stroke="#000000" stroke-width="2" /><path d="M53.5,12.5 h38.5 c0,25.174 -3.403,31 -9,31 c-2.774,0 -7.243,-0.19 -12,-0.5" fill="none" stroke="#000000" stroke-width="2" /><path d="M41,62.5 c7.176,-5.022 15.156,-14.203 18.5,-21" fill="none" stroke="#000000" stroke-width="2" /><path d="M41,24.5 c7.176,-5.022 15.18,-14.192 18.5,-21" fill="none" stroke="#000000" stroke-width="2" /><path d="M43,84.5 c14.288,-3.146 23,-12.901 23,-26.5 v-4.5" fill="none" stroke="#000000" stroke-width="2" /><path d="M43.5,45 c14.266,-3.245 22.5,-12.675 22.5,-26 v-3.5" fill="none" stroke="#000000" stroke-width="2" /></svg>