<?xml version='1.0' encoding='utf-8'?>
<svg xmlns="http://www.w3.org/2000/svg" height="100px" version="1.0" viewBox="0 0 100 100" width="100px" x="0px" y="0px">
<line fill="none" stroke="#000000" stroke-width="2" x1="24.5" x2="41.5" y1="54" y2="54" /><line fill="none" stroke="#000000" stroke-width="2" x1="24.5" x2="24.5" y1="85" y2="35" /><line fill="none" stroke="#000000" stroke-width="2" x1="11.5" x2="11.5" y1="90" y2="45" /><line fill="none" stroke="#000000" stroke-width="2" x1="95.5" x2="44" y1="21.5" y2="21.5" /><polyline fill="none" points="9,35 40,35 40,10 8,10 8,36" stroke="#000000" stroke-width="2" /><path d="M5.5,92 c11.365,-3.853 23.807,-8.979 36.5,-15" fill="none" stroke="#000000" stroke-width="2" /><path d="M75.5,6.5 c5.388,2.864 10.938,6.347 16,10" fill="none" stroke="#000000" stroke-width="2" /><path d="M40,91.5 c11.129,-20.228 18,-49.983 18,-86.5" fill="none" stroke="#000000" stroke-width="2" /><path d="M55,91.5 c15.88,-11.484 27.51,-31.333 33,-60" fill="none" stroke="#000000" stroke-width="2" /><path d="M96.5,91.5 c-20.012,-12.386 -32.896,-30.411 -40,-58" fill="none" stroke="#000000" stroke-width="2" /></svg>