<?xml version='1.0' encoding='utf-8'?>
<svg xmlns="http://www.w3.org/2000/svg" height="100px" version="1.0" viewBox="0 0 100 100" width="100px" x="0px" y="0px">
<line fill="none" stroke="#000000" stroke-width="2" x1="20.5" x2="33" y1="53" y2="53" /><line fill="none" stroke="#000000" stroke-width="2" x1="20.5" x2="20.5" y1="85" y2="35" /><line fill="none" stroke="#000000" stroke-width="2" x1="9.5" x2="9.5" y1="90" y2="45" /><line fill="none" stroke="#000000" stroke-width="2" x1="71.5" x2="93" y1="84" y2="84" /><polyline fill="none" points="7.5,35 30.5,35 30.5,10 6.5,10 6.5,36" stroke="#000000" stroke-width="2" /><polyline fill="none" points="93,92 93,14 70.5,14 70.5,92" stroke="#000000" stroke-width="2" /><path d="M4.5,92 c8.873,-3.596 18.588,-8.381 28.5,-14" fill="none" stroke="#000000" stroke-width="2" /><path d="M30,91 c10.641,-16.728 14.5,-34.719 14.5,-86" fill="none" stroke="#000000" stroke-width="2" /><path d="M34,21.5 h28.5 c0,61.3 -2.594,67.5 -9,67.5 c-2.943,0 -6.949,-0.339 -11,-1" fill="none" stroke="#000000" stroke-width="2" /></svg>