<?xml version='1.0' encoding='utf-8'?>
<svg xmlns="http://www.w3.org/2000/svg" height="100px" version="1.0" viewBox="0 0 100 100" width="100px" x="0px" y="0px">
<line fill="none" stroke="#000000" stroke-width="2" x1="20.5" x2="33" y1="53" y2="53" /><line fill="none" stroke="#000000" stroke-width="2" x1="20.5" x2="20.5" y1="85" y2="35" /><line fill="none" stroke="#000000" stroke-width="2" x1="9.5" x2="9.5" y1="90" y2="45" /><line fill="none" stroke="#000000" stroke-width="2" x1="65" x2="40.5" y1="16" y2="16" /><line fill="none" stroke="#000000" stroke-width="2" x1="66.5" x2="32.5" y1="44" y2="44" /><line fill="none" stroke="#000000" stroke-width="2" x1="71" x2="93" y1="83.5" y2="83.5" /><polyline fill="none" points="7.5,35 30.5,35 30.5,10 6.5,10 6.5,36" stroke="#000000" stroke-width="2" /><polyline fill="none" points="93,91.5 93,13.5 70,13.5 70,91.5" stroke="#000000" stroke-width="2" /><path d="M4.5,92 c8.873,-3.596 18.588,-8.381 28.5,-14" fill="none" stroke="#000000" stroke-width="2" /><path d="M33.5,38 c4.104,-9.372 7.464,-21.253 9.5,-34" fill="none" stroke="#000000" stroke-width="2" /><path d="M31.5,90 c10.227,-8.538 18,-27.432 18,-48.5 V16.0" fill="none" stroke="#000000" stroke-width="2" /><path d="M66,84.5 c-5.02,-11.049 -10.938,-22.879 -17,-34" fill="none" stroke="#000000" stroke-width="2" /></svg>