<?xml version='1.0' encoding='utf-8'?>
<svg xmlns="http://www.w3.org/2000/svg" height="100px" version="1.0" viewBox="0 0 100 100" width="100px" x="0px" y="0px">
<line fill="none" stroke="#000000" stroke-width="2" x1="21.5" x2="33.5" y1="53" y2="53" /><line fill="none" stroke="#000000" stroke-width="2" x1="21.5" x2="21.5" y1="84.5" y2="36" /><line fill="none" stroke="#000000" stroke-width="2" x1="10.5" x2="10.5" y1="89.5" y2="45" /><line fill="none" stroke="#000000" stroke-width="2" x1="45" x2="45" y1="60" y2="93.5" /><line fill="none" stroke="#000000" stroke-width="2" x1="46" x2="91.5" y1="88.5" y2="88.5" /><line fill="none" stroke="#000000" stroke-width="2" x1="46" x2="91.5" y1="74" y2="74" /><line fill="none" stroke="#000000" stroke-width="2" x1="34.5" x2="96.5" y1="44.5" y2="44.5" /><line fill="none" stroke="#000000" stroke-width="2" x1="86" x2="40" y1="30" y2="30" /><line fill="none" stroke="#000000" stroke-width="2" x1="63.5" x2="63.5" y1="44.5" y2="20.5" /><line fill="none" stroke="#000000" stroke-width="2" x1="36.5" x2="96.5" y1="14.5" y2="14.5" /><line fill="none" stroke="#000000" stroke-width="2" x1="52" x2="52" y1="23.5" y2="5" /><line fill="none" stroke="#000000" stroke-width="2" x1="79" x2="79" y1="23.5" y2="5" /><polyline fill="none" points="8.5,35 32.5,35 32.5,10 7.5,10 7.5,36" stroke="#000000" stroke-width="2" /><polyline fill="none" points="91.5,93.5 91.5,60 45,60" stroke="#000000" stroke-width="2" /><path d="M5,92 c9.341,-3.596 19.566,-8.381 30,-14" fill="none" stroke="#000000" stroke-width="2" /><path d="M33.5,65.5 c26.511,-11.04 47.793,-27.473 60,-45" fill="none" stroke="#000000" stroke-width="2" /><path d="M94,57.5 c-4.082,-3.701 -8.731,-7.35 -13.5,-10.5" fill="none" stroke="#000000" stroke-width="2" /></svg>