<?xml version='1.0' encoding='utf-8'?>
<svg xmlns="http://www.w3.org/2000/svg" height="100px" version="1.0" viewBox="0 0 100 100" width="100px" x="0px" y="0px">
<line fill="none" stroke="#000000" stroke-width="2" x1="20.5" x2="33" y1="53" y2="53" /><line fill="none" stroke="#000000" stroke-width="2" x1="20.5" x2="20.5" y1="85" y2="35" /><line fill="none" stroke="#000000" stroke-width="2" x1="9.5" x2="9.5" y1="90" y2="45" /><line fill="none" stroke="#000000" stroke-width="2" x1="36" x2="94" y1="10.5" y2="10.5" /><line fill="none" stroke="#000000" stroke-width="2" x1="40" x2="90" y1="21.5" y2="21.5" /><line fill="none" stroke="#000000" stroke-width="2" x1="65" x2="65" y1="21.5" y2="3" /><line fill="none" stroke="#000000" stroke-width="2" x1="40" x2="85.5" y1="39" y2="39" /><line fill="none" stroke="#000000" stroke-width="2" x1="36" x2="94" y1="50" y2="50" /><line fill="none" stroke="#000000" stroke-width="2" x1="65" x2="65" y1="50" y2="39" /><line fill="none" stroke="#000000" stroke-width="2" x1="96" x2="61.5" y1="69" y2="69" /><line fill="none" stroke="#000000" stroke-width="2" x1="96.5" x2="33.5" y1="59" y2="59" /><line fill="none" stroke="#000000" stroke-width="2" x1="57.5" x2="37.5" y1="87" y2="87" /><line fill="none" stroke="#000000" stroke-width="2" x1="33.5" x2="96.5" y1="30.5" y2="30.5" /><polyline fill="none" points="7.5,35 30.5,35 30.5,10 6.5,10 6.5,36" stroke="#000000" stroke-width="2" /><polyline fill="none" points="36.5,92.5 36.5,68 57.5,68 57.5,91" stroke="#000000" stroke-width="2" /><path d="M4.5,92 c8.873,-3.596 18.588,-8.381 28.5,-14" fill="none" stroke="#000000" stroke-width="2" /><path d="M75,88 c-3.134,-4.554 -7.498,-9.708 -12,-14" fill="none" stroke="#000000" stroke-width="2" /><path d="M88.5,59 v25.5 c0,6.398 -0.428,7 -4,7 c-1.225,0 -4.16,-0.157 -8,-0.5" fill="none" stroke="#000000" stroke-width="2" /><path d="M89,41 c2.852,-3.354 4.895,-6.422 6.601,-9.937" fill="none" stroke="#000000" stroke-width="2" /></svg>