<?xml version='1.0' encoding='utf-8'?>
<svg xmlns="http://www.w3.org/2000/svg" height="100px" version="1.0" viewBox="0 0 100 100" width="100px" x="0px" y="0px">
<line fill="none" stroke="#000000" stroke-width="2" x1="7.5" x2="33.5" y1="47" y2="47" /><line fill="none" stroke="#000000" stroke-width="2" x1="2.5" x2="37" y1="78" y2="78" /><line fill="none" stroke="#000000" stroke-width="2" x1="20.5" x2="20.5" y1="95" y2="5" /><line fill="none" stroke="#000000" stroke-width="2" x1="2.5" x2="37" y1="17" y2="17" /><line fill="none" stroke="#000000" stroke-width="2" x1="53.5" x2="53.5" y1="38.5" y2="84" /><line fill="none" stroke="#000000" stroke-width="2" x1="82.5" x2="82.5" y1="80" y2="38.5" /><line fill="none" stroke="#000000" stroke-width="2" x1="53.5" x2="82.5" y1="72" y2="72" /><line fill="none" stroke="#000000" stroke-width="2" x1="68" x2="68" y1="11" y2="72" /><line fill="none" stroke="#000000" stroke-width="2" x1="68" x2="68" y1="11" y2="72" /><line fill="none" stroke="#000000" stroke-width="2" x1="96" x2="40" y1="11" y2="11" /><polyline fill="none" points="7.5,65 34.5,65 34.5,30 6.5,30 6.5,66" stroke="#000000" stroke-width="2" /><path d="M42.5,93.5 v-66.0 h51.0 v57.0 c0,6.366 -0.436,7 -5.5,7 c-1.787,0 -5.197,-0.166 -10.5,-0.5" fill="none" stroke="#000000" stroke-width="2" /></svg>