<?xml version='1.0' encoding='utf-8'?>
<svg xmlns="http://www.w3.org/2000/svg" height="100px" version="1.0" viewBox="0 0 100 100" width="100px" x="0px" y="0px">
<line fill="none" stroke="#000000" stroke-width="2" x1="52.5" x2="78.5" y1="12" y2="12" /><line fill="none" stroke="#000000" stroke-width="2" x1="8" x2="34" y1="47" y2="47" /><line fill="none" stroke="#000000" stroke-width="2" x1="3" x2="39" y1="78" y2="78" /><line fill="none" stroke="#000000" stroke-width="2" x1="21" x2="21" y1="95" y2="5" /><line fill="none" stroke="#000000" stroke-width="2" x1="3" x2="39" y1="17" y2="17" /><polyline fill="none" points="43.5,61.5 43.5,28 91.5,28 91.5,53.5 44.5,53.5" stroke="#000000" stroke-width="2" /><polyline fill="none" points="8,65 35,65 35,30 7,30 7,66" stroke="#000000" stroke-width="2" /><path d="M68,28 c3.323,-4.519 6.998,-10.435 9.609,-15.46" fill="none" stroke="#000000" stroke-width="2" /><path d="M35,35.5 c9.514,-8.867 16.589,-19.674 21,-32" fill="none" stroke="#000000" stroke-width="2" /><path d="M72.5,53.5 v33.0 c0,4.583 0.438,5 11,5 c9.922,0 10.107,-0.183 11,-22.5" fill="none" stroke="#000000" stroke-width="2" /><path d="M34.5,93 c22.113,-8.979 33,-26.921 33,-64" fill="none" stroke="#000000" stroke-width="2" /></svg>