<?xml version='1.0' encoding='utf-8'?>
<svg xmlns="http://www.w3.org/2000/svg" height="100px" version="1.0" viewBox="0 0 100 100" width="100px" x="0px" y="0px">
<line fill="none" stroke="#000000" stroke-width="2" x1="18" x2="82" y1="66" y2="66" /><line fill="none" stroke="#000000" stroke-width="2" x1="5" x2="95" y1="85.5" y2="85.5" /><line fill="none" stroke="#000000" stroke-width="2" x1="50" x2="50" y1="95.5" y2="41" /><line fill="none" stroke="#000000" stroke-width="2" x1="10" x2="90" y1="47" y2="47" /><line fill="none" stroke="#000000" stroke-width="2" x1="5.5" x2="48" y1="25.5" y2="25.5" /><line fill="none" stroke="#000000" stroke-width="2" x1="52" x2="94.5" y1="25.5" y2="25.5" /><line fill="none" stroke="#000000" stroke-width="2" x1="46.5" x2="8.5" y1="13.5" y2="13.5" /><line fill="none" stroke="#000000" stroke-width="2" x1="91.5" x2="53.5" y1="13.5" y2="13.5" /><polyline fill="none" points="18,77 83,77 83,55 17,55 17,78" stroke="#000000" stroke-width="2" /><path d="M5,45.5 c16.662,-7.821 24,-19.96 24,-40" fill="none" stroke="#000000" stroke-width="2" /><path d="M54,40 c12.461,-5.302 17,-12.51 17,-34.5" fill="none" stroke="#000000" stroke-width="2" /><path d="M46,40 c-6.052,-5.368 -13.027,-9.995 -20.5,-13.5" fill="none" stroke="#000000" stroke-width="2" /><path d="M95,44.5 c-11.664,-5.047 -20.389,-11.708 -25.5,-19" fill="none" stroke="#000000" stroke-width="2" /></svg>