<?xml version='1.0' encoding='utf-8'?>
<svg xmlns="http://www.w3.org/2000/svg" height="100px" version="1.0" viewBox="0 0 100 100" width="100px" x="0px" y="0px">
<line fill="none" stroke="#000000" stroke-width="2" x1="9" x2="38" y1="47" y2="47" /><line fill="none" stroke="#000000" stroke-width="2" x1="4" x2="42.5" y1="78" y2="78" /><line fill="none" stroke="#000000" stroke-width="2" x1="23.5" x2="23.5" y1="95" y2="5" /><line fill="none" stroke="#000000" stroke-width="2" x1="4" x2="42.5" y1="17" y2="17" /><line fill="none" stroke="#000000" stroke-width="2" x1="50.5" x2="50.5" y1="35.5" y2="82" /><line fill="none" stroke="#000000" stroke-width="2" x1="96" x2="42.5" y1="35.5" y2="35.5" /><line fill="none" stroke="#000000" stroke-width="2" x1="89" x2="89" y1="94" y2="35.5" /><line fill="none" stroke="#000000" stroke-width="2" x1="51.5" x2="89" y1="65" y2="65" /><line fill="none" stroke="#000000" stroke-width="2" x1="51.5" x2="89" y1="50" y2="50" /><polyline fill="none" points="9,65 39,65 39,30 8,30 8,66" stroke="#000000" stroke-width="2" /><polyline fill="none" points="47.5,25 93,25 93,10 46.5,10 46.5,26" stroke="#000000" stroke-width="2" /><path d="M41.5,83 c17.422,-1.775 36.732,-4.585 55,-8" fill="none" stroke="#000000" stroke-width="2" /></svg>