<?xml version='1.0' encoding='utf-8'?>
<svg xmlns="http://www.w3.org/2000/svg" height="100px" version="1.0" viewBox="0 0 100 100" width="100px" x="0px" y="0px">
<line fill="none" stroke="#000000" stroke-width="2" x1="95.5" x2="4.5" y1="71" y2="71" /><line fill="none" stroke="#000000" stroke-width="2" x1="10.5" x2="12" y1="14" y2="71" /><line fill="none" stroke="#000000" stroke-width="2" x1="11.5" x2="26.5" y1="50.5" y2="50.5" /><line fill="none" stroke="#000000" stroke-width="2" x1="11" x2="26.5" y1="30.5" y2="30.5" /><line fill="none" stroke="#000000" stroke-width="2" x1="73.5" x2="88.5" y1="50.5" y2="50.5" /><line fill="none" stroke="#000000" stroke-width="2" x1="73.5" x2="89" y1="30.5" y2="30.5" /><line fill="none" stroke="#000000" stroke-width="2" x1="33.5" x2="66.5" y1="48.5" y2="48.5" /><line fill="none" stroke="#000000" stroke-width="2" x1="33.5" x2="66.5" y1="36.5" y2="36.5" /><line fill="none" stroke="#000000" stroke-width="2" x1="28" x2="72" y1="58.5" y2="58.5" /><line fill="none" stroke="#000000" stroke-width="2" x1="50" x2="50" y1="71" y2="6" /><line fill="none" stroke="#000000" stroke-width="2" x1="29.5" x2="70.5" y1="14.5" y2="14.5" /><polyline fill="none" points="72.5,11 89.5,11 88,71" stroke="#000000" stroke-width="2" /><polyline fill="none" points="67.5,49.5 67.5,24.5 32.5,24.5 32.5,49.5" stroke="#000000" stroke-width="2" /><path d="M8,92 c13.08,-4.104 24.334,-9.762 31,-15" fill="none" stroke="#000000" stroke-width="2" /><path d="M92,93 c-8,-5.189 -19.018,-10.761 -31,-15.5" fill="none" stroke="#000000" stroke-width="2" /><path d="M9.709,15.004 c6.615,-1.406 12.445,-3.216 19.291,-6.004" fill="none" stroke="#000000" stroke-width="2" /></svg>