<?xml version='1.0' encoding='utf-8'?>
<svg xmlns="http://www.w3.org/2000/svg" height="100px" version="1.0" viewBox="0 0 100 100" width="100px" x="0px" y="0px">
<line fill="none" stroke="#000000" stroke-width="2" x1="19" x2="81" y1="27" y2="27" /><line fill="none" stroke="#000000" stroke-width="2" x1="6.5" x2="93.5" y1="43.5" y2="43.5" /><line fill="none" stroke="#000000" stroke-width="2" x1="50" x2="50" y1="50.5" y2="3.5" /><line fill="none" stroke="#000000" stroke-width="2" x1="7.5" x2="92.5" y1="11" y2="11" /><line fill="none" stroke="#000000" stroke-width="2" x1="10.5" x2="44.5" y1="70.5" y2="70.5" /><line fill="none" stroke="#000000" stroke-width="2" x1="5" x2="48.5" y1="87" y2="87" /><line fill="none" stroke="#000000" stroke-width="2" x1="27.5" x2="27.5" y1="95.5" y2="49" /><line fill="none" stroke="#000000" stroke-width="2" x1="5.5" x2="48.5" y1="54.5" y2="54.5" /><line fill="none" stroke="#000000" stroke-width="2" x1="89.5" x2="55.5" y1="70.5" y2="70.5" /><line fill="none" stroke="#000000" stroke-width="2" x1="95" x2="51.5" y1="87" y2="87" /><line fill="none" stroke="#000000" stroke-width="2" x1="72.5" x2="72.5" y1="95.5" y2="49" /><line fill="none" stroke="#000000" stroke-width="2" x1="94.5" x2="51.5" y1="54.5" y2="54.5" /><polyline fill="none" points="19,36 82,36 82,18 18,18 18,37" stroke="#000000" stroke-width="2" /><polyline fill="none" points="10.5,79.5 45.5,79.5 45.5,61.5 9.5,61.5 9.5,80.5" stroke="#000000" stroke-width="2" /><polyline fill="none" points="89.5,79.5 54.5,79.5 54.5,61.5 90.5,61.5 90.5,80.5" stroke="#000000" stroke-width="2" /></svg>