<?xml version='1.0' encoding='utf-8'?>
<svg xmlns="http://www.w3.org/2000/svg" height="100px" version="1.0" viewBox="0 0 100 100" width="100px" x="0px" y="0px">
<line fill="none" stroke="#000000" stroke-width="2" x1="91.5" x2="42" y1="14" y2="14" /><line fill="none" stroke="#000000" stroke-width="2" x1="87" x2="40.5" y1="28" y2="28" /><polyline fill="none" points="23,75 23,45 6,45" stroke="#000000" stroke-width="2" /><path d="M9,10 c5.725,5.621 10.574,10.782 16,17" fill="none" stroke="#000000" stroke-width="2" /><path d="M6,92 c8.029,-5.713 13.36,-11.114 17,-17" fill="none" stroke="#000000" stroke-width="2" /><path d="M93,90 h-34.0 c-21.543,0 -30.148,-3.961 -36,-15" fill="none" stroke="#000000" stroke-width="2" /><path d="M31,33.5 c6.306,-8.236 11.394,-18.753 14.5,-30" fill="none" stroke="#000000" stroke-width="2" /><path d="M89,54 c-1.492,21.112 -2.385,22 -25,22 c-20.453,0 -26,-2.688 -26,-7.5 c0,-6.566 12.928,-19.404 48.492,-40.36" fill="none" stroke="#000000" stroke-width="2" /></svg>