<?xml version='1.0' encoding='utf-8'?>
<svg xmlns="http://www.w3.org/2000/svg" height="100px" version="1.0" viewBox="0 0 100 100" width="100px" x="0px" y="0px">
<polyline fill="none" points="22,75 22,45 5,45" stroke="#000000" stroke-width="2" /><polyline fill="none" points="68.5,75 91.5,75 91.5,13 67.5,13 67.5,76" stroke="#000000" stroke-width="2" /><path d="M7.5,10 c5.725,5.621 10.574,10.782 16,17" fill="none" stroke="#000000" stroke-width="2" /><path d="M5,92 c8.029,-5.713 13.36,-11.114 17,-17" fill="none" stroke="#000000" stroke-width="2" /><path d="M93.5,90 H58.0 c-21.543,0 -30.148,-3.961 -36,-15" fill="none" stroke="#000000" stroke-width="2" /><path d="M28,77 c8.816,-14.188 12,-29.067 12,-72" fill="none" stroke="#000000" stroke-width="2" /><path d="M27,18.5 h32.5 c0,51.836 -2.813,57 -9.5,57 c-3.131,0 -7.703,-0.352 -12,-1" fill="none" stroke="#000000" stroke-width="2" /></svg>