<?xml version='1.0' encoding='utf-8'?>
<svg xmlns="http://www.w3.org/2000/svg" height="100px" version="1.0" viewBox="0 0 100 100" width="100px" x="0px" y="0px">
<line fill="none" stroke="#000000" stroke-width="2" x1="32.5" x2="91.5" y1="10" y2="10" /><line fill="none" stroke="#000000" stroke-width="2" x1="62" x2="62" y1="79" y2="47.5" /><line fill="none" stroke="#000000" stroke-width="2" x1="35.5" x2="89.5" y1="62.5" y2="62.5" /><polyline fill="none" points="23,75 23,45 6,45" stroke="#000000" stroke-width="2" /><polyline fill="none" points="39,37 86,37 86,19.5 38,19.5 38,38" stroke="#000000" stroke-width="2" /><polyline fill="none" points="35.5,79 89.5,79 89.5,46.5 34.5,46.5 34.5,80" stroke="#000000" stroke-width="2" /><path d="M9,10 c5.725,5.621 10.574,10.782 16,17" fill="none" stroke="#000000" stroke-width="2" /><path d="M6,92 c8.029,-5.713 13.36,-11.114 17,-17" fill="none" stroke="#000000" stroke-width="2" /><path d="M93,90 h-34.0 c-21.543,0 -30.148,-3.961 -36,-15" fill="none" stroke="#000000" stroke-width="2" /></svg>