<?xml version='1.0' encoding='utf-8'?>
<svg xmlns="http://www.w3.org/2000/svg" height="100px" version="1.0" viewBox="0 0 100 100" width="100px" x="0px" y="0px">
<line fill="none" stroke="#000000" stroke-width="2" x1="92" x2="31" y1="36" y2="36" /><line fill="none" stroke="#000000" stroke-width="2" x1="93" x2="30" y1="51.5" y2="51.5" /><line fill="none" stroke="#000000" stroke-width="2" x1="61.5" x2="61.5" y1="36" y2="78" /><polyline fill="none" points="23,75 23,45 6,45" stroke="#000000" stroke-width="2" /><polyline fill="none" points="35.5,58.5 35.5,78 87.5,78 87.5,58.5" stroke="#000000" stroke-width="2" /><path d="M9,10 c5.725,5.621 10.574,10.782 16,17" fill="none" stroke="#000000" stroke-width="2" /><path d="M6,92 c8.029,-5.713 13.36,-11.114 17,-17" fill="none" stroke="#000000" stroke-width="2" /><path d="M93,90 h-34.0 c-21.543,0 -30.148,-3.961 -36,-15" fill="none" stroke="#000000" stroke-width="2" /><path d="M30,12.5 c21.213,0 41.389,-1.935 60,-5.5" fill="none" stroke="#000000" stroke-width="2" /><path d="M41,31.5 c-2.012,-5.409 -4.256,-10.577 -6.5,-15" fill="none" stroke="#000000" stroke-width="2" /><path d="M62.5,31 c-2.013,-5.773 -4.258,-11.283 -6.5,-16" fill="none" stroke="#000000" stroke-width="2" /><path d="M77.5,36 c3.528,-7.591 6.46,-15.572 8.5,-23" fill="none" stroke="#000000" stroke-width="2" /></svg>