<?xml version='1.0' encoding='utf-8'?>
<svg xmlns="http://www.w3.org/2000/svg" height="100px" version="1.0" viewBox="0 0 100 100" width="100px" x="0px" y="0px">
<line fill="none" stroke="#000000" stroke-width="2" x1="10" x2="41" y1="70" y2="70" /><line fill="none" stroke="#000000" stroke-width="2" x1="5.5" x2="45" y1="11" y2="11" /><polyline fill="none" points="10,86 42,86 42,28 9,28 9,93" stroke="#000000" stroke-width="2" /><polyline fill="none" points="92.5,41.5 92.5,18.5 49,18.5 49,41.5" stroke="#000000" stroke-width="2" /><path d="M20.5,12 v17.0 c0,20.538 -1.387,24.464 -10,33" fill="none" stroke="#000000" stroke-width="2" /><path d="M30,12 v36.0 c0,5.49 0.593,6 4.5,6 h6.5" fill="none" stroke="#000000" stroke-width="2" /><path d="M44.5,90 c14.687,-11.29 25,-34.417 25,-62 v-23.5" fill="none" stroke="#000000" stroke-width="2" /><path d="M73,35 v48.0 c0,6.354 0.759,7 9.5,7 c10.826,0 10.991,-0.175 11.5,-29" fill="none" stroke="#000000" stroke-width="2" /></svg>