<?xml version='1.0' encoding='utf-8'?>
<svg xmlns="http://www.w3.org/2000/svg" height="100px" version="1.0" viewBox="0 0 100 100" width="100px" x="0px" y="0px">
<line fill="none" stroke="#000000" stroke-width="2" x1="9" x2="33" y1="86" y2="86" /><line fill="none" stroke="#000000" stroke-width="2" x1="9" x2="33" y1="70" y2="70" /><line fill="none" stroke="#000000" stroke-width="2" x1="4.5" x2="37" y1="11" y2="11" /><line fill="none" stroke="#000000" stroke-width="2" x1="54" x2="54" y1="94" y2="6" /><line fill="none" stroke="#000000" stroke-width="2" x1="65.5" x2="37.5" y1="26" y2="26" /><line fill="none" stroke="#000000" stroke-width="2" x1="81" x2="81" y1="94" y2="6" /><line fill="none" stroke="#000000" stroke-width="2" x1="96" x2="68" y1="26" y2="26" /><polyline fill="none" points="34,87 34,28 8,28 8,93" stroke="#000000" stroke-width="2" /><path d="M17,12 v17.0 c0,21.329 -0.978,24.875 -7.5,33" fill="none" stroke="#000000" stroke-width="2" /><path d="M24.5,12 v36.0 c0,5.49 0.593,6 4.5,6 h4.0" fill="none" stroke="#000000" stroke-width="2" /><path d="M36.5,73 c7.975,-15.363 13.217,-30.538 16.5,-47.5" fill="none" stroke="#000000" stroke-width="2" /><path d="M66,61 c-3.268,-11.087 -7.07,-22.734 -11,-34" fill="none" stroke="#000000" stroke-width="2" /><path d="M62,81 c8.803,-17.989 14.803,-35.744 18.5,-55.5" fill="none" stroke="#000000" stroke-width="2" /><path d="M98,76 c-7.234,-16.509 -12.569,-32.774 -16.5,-50.5" fill="none" stroke="#000000" stroke-width="2" /></svg>