<?xml version='1.0' encoding='utf-8'?>
<svg xmlns="http://www.w3.org/2000/svg" height="100px" version="1.0" viewBox="0 0 100 100" width="100px" x="0px" y="0px">
<line fill="none" stroke="#000000" stroke-width="2" x1="14" x2="87" y1="89.5" y2="89.5" /><line fill="none" stroke="#000000" stroke-width="2" x1="14" x2="87" y1="80" y2="80" /><line fill="none" stroke="#000000" stroke-width="2" x1="5" x2="95" y1="51.5" y2="51.5" /><line fill="none" stroke="#000000" stroke-width="2" x1="51.5" x2="90.5" y1="25" y2="25" /><line fill="none" stroke="#000000" stroke-width="2" x1="46" x2="18.5" y1="14.5" y2="14.5" /><line fill="none" stroke="#000000" stroke-width="2" x1="47.5" x2="12.5" y1="25" y2="25" /><polyline fill="none" points="87,94.5 87,60.5 13,60.5 13,94.5" stroke="#000000" stroke-width="2" /><polyline fill="none" points="49,7.5 9,7.5 9,43.5 48,43.5" stroke="#000000" stroke-width="2" /><path d="M40,52.5 v9.0 c0,7.088 -5.146,11.443 -22,14.5" fill="none" stroke="#000000" stroke-width="2" /><path d="M57.5,51.5 v15.0 c0,4.762 0.998,5.5 11,5.5 h17.5" fill="none" stroke="#000000" stroke-width="2" /><path d="M51.5,44.5 c19.731,-3.418 30.967,-9.604 38.203,-19.105" fill="none" stroke="#000000" stroke-width="2" /><path d="M93.5,44.5 c-15.672,-3.353 -28.913,-9.444 -37,-16.5" fill="none" stroke="#000000" stroke-width="2" /><path d="M50,20.5 c6.698,-2.171 10,-6.183 10,-12 v-2.0 h20.5 v11.0 c0,2.32 0.215,2.5 6.5,2.5 c6.635,0 6.865,-0.198 7.5,-7" fill="none" stroke="#000000" stroke-width="2" /><path d="M13,21 c3.933,-3.762 7.047,-8.381 9,-13.5" fill="none" stroke="#000000" stroke-width="2" /><path d="M12.5,39 c10.955,-3.282 17.5,-10.233 17.5,-17 v-7.5" fill="none" stroke="#000000" stroke-width="2" /><path d="M47.5,39 c-10.955,-3.282 -17.5,-10.233 -17.5,-17" fill="none" stroke="#000000" stroke-width="2" /></svg>