<?xml version='1.0' encoding='utf-8'?>
<svg xmlns="http://www.w3.org/2000/svg" height="100px" version="1.0" viewBox="0 0 100 100" width="100px" x="0px" y="0px">
<line fill="none" stroke="#000000" stroke-width="2" x1="41.5" x2="6" y1="47" y2="47" /><line fill="none" stroke="#000000" stroke-width="2" x1="40.5" x2="10.5" y1="28" y2="28" /><line fill="none" stroke="#000000" stroke-width="2" x1="24.5" x2="24.5" y1="84.5" y2="28" /><line fill="none" stroke="#000000" stroke-width="2" x1="70.5" x2="70.5" y1="72" y2="5" /><path d="M5,89.5 c14.318,-2.877 26.02,-6.513 39,-12" fill="none" stroke="#000000" stroke-width="2" /><path d="M44,23 c-7.143,-4.952 -13.203,-10.167 -19,-16.5 c-6.445,8.159 -13.143,15.038 -21,21.5" fill="none" stroke="#000000" stroke-width="2" /><path d="M17,76 c-2.387,-7.582 -4.948,-14.762 -7.5,-21" fill="none" stroke="#000000" stroke-width="2" /><path d="M32.5,73 c2.857,-6.433 5.416,-12.93 7.5,-19" fill="none" stroke="#000000" stroke-width="2" /><path d="M51.5,10.5 v72.0 c0,7.397 0.638,8 21,8 c20.071,0 20.338,-0.208 22,-25" fill="none" stroke="#000000" stroke-width="2" /><path d="M39.5,37 l52,-17 c0,39 -1.35,42.5 -4.5,42.5 c-2.203,0 -6.887,-0.214 -10,-0.5" fill="none" stroke="#000000" stroke-width="2" /></svg>