<?xml version='1.0' encoding='utf-8'?>
<svg xmlns="http://www.w3.org/2000/svg" height="100px" version="1.0" viewBox="0 0 100 100" width="100px" x="0px" y="0px">
<line fill="none" stroke="#000000" stroke-width="2" x1="38.5" x2="5" y1="47" y2="47" /><line fill="none" stroke="#000000" stroke-width="2" x1="36.5" x2="9.5" y1="28" y2="28" /><line fill="none" stroke="#000000" stroke-width="2" x1="23" x2="23" y1="84.5" y2="28" /><line fill="none" stroke="#000000" stroke-width="2" x1="95.5" x2="40.5" y1="54.5" y2="54.5" /><line fill="none" stroke="#000000" stroke-width="2" x1="90.5" x2="45.5" y1="41.5" y2="41.5" /><polyline fill="none" points="45,30 64.5,30 64.5,10 44,10 44,31" stroke="#000000" stroke-width="2" /><polyline fill="none" points="72.5,30 92,30 92,10 71.5,10 71.5,31" stroke="#000000" stroke-width="2" /><path d="M4,89.5 c12.85,-2.638 23.35,-5.97 35,-11" fill="none" stroke="#000000" stroke-width="2" /><path d="M41,23 c-6.785,-4.952 -12.493,-10.167 -18,-16.5 c-6.123,8.159 -12.523,15.052 -20,21.5" fill="none" stroke="#000000" stroke-width="2" /><path d="M16,76 c-2.387,-7.582 -4.948,-14.762 -7.5,-21" fill="none" stroke="#000000" stroke-width="2" /><path d="M29.5,73 c2.857,-6.433 5.416,-12.93 7.5,-19" fill="none" stroke="#000000" stroke-width="2" /><path d="M53,54.5 c-1.834,8.478 -4.906,18.208 -8,25.5" fill="none" stroke="#000000" stroke-width="2" /><path d="M49.5,67.5 h40.0 c-2.142,22.519 -3.314,24 -8,24 c-2.639,0 -9.859,-0.433 -15,-1" fill="none" stroke="#000000" stroke-width="2" /></svg>