<?xml version='1.0' encoding='utf-8'?>
<svg xmlns="http://www.w3.org/2000/svg" height="100px" version="1.0" viewBox="0 0 100 100" width="100px" x="0px" y="0px">
<line fill="none" stroke="#000000" stroke-width="2" x1="50" x2="50" y1="94" y2="11.5" /><line fill="none" stroke="#000000" stroke-width="2" x1="63.5" x2="35" y1="33" y2="33" /><line fill="none" stroke="#000000" stroke-width="2" x1="35.5" x2="5" y1="47" y2="47" /><line fill="none" stroke="#000000" stroke-width="2" x1="33" x2="9" y1="28" y2="28" /><line fill="none" stroke="#000000" stroke-width="2" x1="21" x2="21" y1="84.5" y2="28" /><path d="M63.5,8 c-9.404,2.732 -18.465,4.719 -27.5,6" fill="none" stroke="#000000" stroke-width="2" /><path d="M33.5,72.5 c7.687,-12.931 12.791,-25.675 16,-40" fill="none" stroke="#000000" stroke-width="2" /><path d="M63,63 c-3.7,-9.493 -8.002,-19.475 -12.5,-29" fill="none" stroke="#000000" stroke-width="2" /><path d="M70,20.5 c-0.795,12.496 -2.874,23.599 -6,33" fill="none" stroke="#000000" stroke-width="2" /><path d="M60.5,91 c11.065,-10.436 18.5,-30.592 18.5,-56 v-28.0" fill="none" stroke="#000000" stroke-width="2" /><path d="M97.5,91 c-11.083,-10.276 -18.5,-30.294 -18.5,-56" fill="none" stroke="#000000" stroke-width="2" /><path d="M95,19 c-1.326,12.024 -3.9,22.626 -7.5,31.5" fill="none" stroke="#000000" stroke-width="2" /><path d="M4.5,89.5 c11.376,-2.657 20.682,-5.97 31,-11" fill="none" stroke="#000000" stroke-width="2" /><path d="M34.5,23 c-4.184,-4.454 -9.703,-11.147 -13.5,-16.5 c-5.317,8.159 -10.951,15.108 -17.5,21.5" fill="none" stroke="#000000" stroke-width="2" /><path d="M14.5,76 c-2.068,-7.582 -4.289,-14.762 -6.5,-21" fill="none" stroke="#000000" stroke-width="2" /><path d="M26.5,74 c2.477,-6.433 4.693,-12.93 6.5,-19" fill="none" stroke="#000000" stroke-width="2" /></svg>