<?xml version='1.0' encoding='utf-8'?>
<svg xmlns="http://www.w3.org/2000/svg" height="100px" version="1.0" viewBox="0 0 100 100" width="100px" x="0px" y="0px">
<line fill="none" stroke="#000000" stroke-width="2" x1="37" x2="4.5" y1="47" y2="47" /><line fill="none" stroke="#000000" stroke-width="2" x1="35" x2="9" y1="28" y2="28" /><line fill="none" stroke="#000000" stroke-width="2" x1="22" x2="22" y1="84.5" y2="28" /><line fill="none" stroke="#000000" stroke-width="2" x1="39" x2="96" y1="15" y2="15" /><line fill="none" stroke="#000000" stroke-width="2" x1="67.5" x2="67.5" y1="15" y2="5" /><polyline fill="none" points="53.5,86 53.5,62 81.5,62 81.5,80 54.5,80" stroke="#000000" stroke-width="2" /><polyline fill="none" points="49.5,43 49.5,25 85.5,25 85.5,42 50.5,42" stroke="#000000" stroke-width="2" /><path d="M3.5,89.5 c12.482,-2.638 22.683,-5.97 34,-11" fill="none" stroke="#000000" stroke-width="2" /><path d="M37.5,23 c-6.141,-5.731 -9.766,-9.683 -15,-16.5 c-6.123,8.159 -12.523,15.052 -20,21.5" fill="none" stroke="#000000" stroke-width="2" /><path d="M15,76 c-2.387,-7.582 -4.948,-14.762 -7.5,-21" fill="none" stroke="#000000" stroke-width="2" /><path d="M27.5,73 c2.857,-6.433 5.416,-12.93 7.5,-19" fill="none" stroke="#000000" stroke-width="2" /><path d="M80,91 c4.902,0.363 7.691,0.5 9,0.5 c4.684,0 5,-0.383 5,-8 V52.0 h-53.0 v41.0" fill="none" stroke="#000000" stroke-width="2" /></svg>