<?xml version='1.0' encoding='utf-8'?>
<svg xmlns="http://www.w3.org/2000/svg" height="100px" version="1.0" viewBox="0 0 100 100" width="100px" x="0px" y="0px">
<line fill="none" stroke="#000000" stroke-width="2" x1="38.5" x2="5" y1="47" y2="47" /><line fill="none" stroke="#000000" stroke-width="2" x1="36.5" x2="9.5" y1="28" y2="28" /><line fill="none" stroke="#000000" stroke-width="2" x1="23" x2="23" y1="84.5" y2="28" /><line fill="none" stroke="#000000" stroke-width="2" x1="95.5" x2="41" y1="10" y2="10" /><line fill="none" stroke="#000000" stroke-width="2" x1="76.5" x2="76.5" y1="11" y2="35.5" /><line fill="none" stroke="#000000" stroke-width="2" x1="60" x2="60" y1="11" y2="35.5" /><line fill="none" stroke="#000000" stroke-width="2" x1="47" x2="90.5" y1="55.5" y2="55.5" /><line fill="none" stroke="#000000" stroke-width="2" x1="41" x2="96" y1="78.5" y2="78.5" /><line fill="none" stroke="#000000" stroke-width="2" x1="68.5" x2="68.5" y1="94" y2="67.5" /><polyline fill="none" points="43.5,37.5 43.5,20.5 93,20.5 93,36.5 44.5,36.5" stroke="#000000" stroke-width="2" /><polyline fill="none" points="47,67.5 90.5,67.5 90.5,44.5 46,44.5 46,68.5" stroke="#000000" stroke-width="2" /><path d="M4,89.5 c12.85,-2.638 23.35,-5.97 35,-11" fill="none" stroke="#000000" stroke-width="2" /><path d="M41,23 c-6.785,-4.952 -12.493,-10.167 -18,-16.5 c-6.123,8.159 -12.523,15.052 -20,21.5" fill="none" stroke="#000000" stroke-width="2" /><path d="M16,76 c-2.387,-7.582 -4.948,-14.762 -7.5,-21" fill="none" stroke="#000000" stroke-width="2" /><path d="M29.5,73 c2.857,-6.433 5.416,-12.93 7.5,-19" fill="none" stroke="#000000" stroke-width="2" /></svg>