<?xml version='1.0' encoding='utf-8'?>
<svg xmlns="http://www.w3.org/2000/svg" height="100px" version="1.0" viewBox="0 0 100 100" width="100px" x="0px" y="0px">
<line fill="none" stroke="#000000" stroke-width="2" x1="35.5" x2="5" y1="47" y2="47" /><line fill="none" stroke="#000000" stroke-width="2" x1="33" x2="9" y1="28" y2="28" /><line fill="none" stroke="#000000" stroke-width="2" x1="21" x2="21" y1="84.5" y2="28" /><line fill="none" stroke="#000000" stroke-width="2" x1="35" x2="95" y1="29" y2="29" /><line fill="none" stroke="#000000" stroke-width="2" x1="70" x2="37" y1="14.5" y2="14.5" /><line fill="none" stroke="#000000" stroke-width="2" x1="54" x2="54" y1="29" y2="4" /><line fill="none" stroke="#000000" stroke-width="2" x1="68.5" x2="39.5" y1="71" y2="71" /><line fill="none" stroke="#000000" stroke-width="2" x1="70" x2="38" y1="59.5" y2="59.5" /><line fill="none" stroke="#000000" stroke-width="2" x1="54" x2="54" y1="83.5" y2="59.5" /><polyline fill="none" points="40.5,52.5 40.5,37 67.5,37 67.5,51.5 41.5,51.5" stroke="#000000" stroke-width="2" /><path d="M4.5,89.5 c11.376,-2.657 20.682,-5.97 31,-11" fill="none" stroke="#000000" stroke-width="2" /><path d="M34.5,23 c-4.184,-4.454 -9.703,-11.147 -13.5,-16.5 c-5.317,8.159 -10.951,15.108 -17.5,21.5" fill="none" stroke="#000000" stroke-width="2" /><path d="M14.5,76 c-2.068,-7.582 -4.289,-14.762 -6.5,-21" fill="none" stroke="#000000" stroke-width="2" /><path d="M26.5,74 c2.477,-6.433 4.693,-12.93 6.5,-19" fill="none" stroke="#000000" stroke-width="2" /><path d="M92,36.5 c-5.764,27.833 -16.26,43.748 -35,55.5" fill="none" stroke="#000000" stroke-width="2" /><path d="M74,4.5 c0,52.805 11.507,86.5 16.5,86.5 c2.199,0 4.525,-4.497 6,-23" fill="none" stroke="#000000" stroke-width="2" /><path d="M82,8 c4.244,4.878 8.465,10.542 12,16" fill="none" stroke="#000000" stroke-width="2" /><path d="M69,81 c-8.287,1.732 -19.141,3.271 -33,4.5" fill="none" stroke="#000000" stroke-width="2" /></svg>