<?xml version='1.0' encoding='utf-8'?>
<svg xmlns="http://www.w3.org/2000/svg" height="100px" version="1.0" viewBox="0 0 100 100" width="100px" x="0px" y="0px">
<line fill="none" stroke="#000000" stroke-width="2" x1="35.5" x2="5" y1="47" y2="47" /><line fill="none" stroke="#000000" stroke-width="2" x1="33" x2="9" y1="28" y2="28" /><line fill="none" stroke="#000000" stroke-width="2" x1="21" x2="21" y1="84.5" y2="28" /><line fill="none" stroke="#000000" stroke-width="2" x1="38" x2="94" y1="10.5" y2="10.5" /><line fill="none" stroke="#000000" stroke-width="2" x1="42" x2="90" y1="21.5" y2="21.5" /><line fill="none" stroke="#000000" stroke-width="2" x1="66" x2="66" y1="21.5" y2="3" /><line fill="none" stroke="#000000" stroke-width="2" x1="42" x2="85.5" y1="39" y2="39" /><line fill="none" stroke="#000000" stroke-width="2" x1="38" x2="94" y1="50" y2="50" /><line fill="none" stroke="#000000" stroke-width="2" x1="66" x2="66" y1="50" y2="39" /><line fill="none" stroke="#000000" stroke-width="2" x1="96" x2="62.5" y1="69" y2="69" /><line fill="none" stroke="#000000" stroke-width="2" x1="96.5" x2="35.5" y1="59" y2="59" /><line fill="none" stroke="#000000" stroke-width="2" x1="58.5" x2="39.5" y1="87" y2="87" /><line fill="none" stroke="#000000" stroke-width="2" x1="35.5" x2="96.5" y1="30.5" y2="30.5" /><polyline fill="none" points="38.5,92.5 38.5,68 58.5,68 58.5,91" stroke="#000000" stroke-width="2" /><path d="M4.5,89.5 c11.376,-2.657 20.682,-5.97 31,-11" fill="none" stroke="#000000" stroke-width="2" /><path d="M34.5,23 c-4.184,-4.454 -9.703,-11.147 -13.5,-16.5 c-5.317,8.159 -10.951,15.108 -17.5,21.5" fill="none" stroke="#000000" stroke-width="2" /><path d="M14.5,76 c-2.068,-7.582 -4.289,-14.762 -6.5,-21" fill="none" stroke="#000000" stroke-width="2" /><path d="M26.5,74 c2.477,-6.433 4.693,-12.93 6.5,-19" fill="none" stroke="#000000" stroke-width="2" /><path d="M76,88 c-3.134,-4.554 -7.498,-9.708 -12,-14" fill="none" stroke="#000000" stroke-width="2" /><path d="M88.5,59 v25.5 c0,6.398 -0.428,7 -4,7 c-1.225,0 -4.16,-0.157 -8,-0.5" fill="none" stroke="#000000" stroke-width="2" /><path d="M89,41 c2.852,-3.354 4.895,-6.422 6.601,-9.937" fill="none" stroke="#000000" stroke-width="2" /></svg>