<?xml version='1.0' encoding='utf-8'?>
<svg xmlns="http://www.w3.org/2000/svg" height="100px" version="1.0" viewBox="0 0 100 100" width="100px" x="0px" y="0px">
<line fill="none" stroke="#000000" stroke-width="2" x1="34" x2="5" y1="47" y2="47" /><line fill="none" stroke="#000000" stroke-width="2" x1="33" x2="9" y1="28" y2="28" /><line fill="none" stroke="#000000" stroke-width="2" x1="21" x2="21" y1="84.5" y2="28" /><line fill="none" stroke="#000000" stroke-width="2" x1="41" x2="41" y1="53.5" y2="90" /><line fill="none" stroke="#000000" stroke-width="2" x1="64.5" x2="64.5" y1="53.5" y2="90" /><polyline fill="none" points="38,50.5 38,26.5 92.5,26.5 92.5,49.5 39,49.5" stroke="#000000" stroke-width="2" /><path d="M4.5,89.5 c11.376,-2.657 20.682,-5.97 31,-11" fill="none" stroke="#000000" stroke-width="2" /><path d="M36.5,23 c-5.84,-5.014 -10.718,-10.167 -15.5,-16.5 c-5.317,8.159 -10.951,15.108 -17.5,21.5" fill="none" stroke="#000000" stroke-width="2" /><path d="M14.5,76 c-2.068,-7.582 -4.289,-14.762 -6.5,-21" fill="none" stroke="#000000" stroke-width="2" /><path d="M26.5,73 c2.477,-6.433 4.693,-12.93 6.5,-19" fill="none" stroke="#000000" stroke-width="2" /><path d="M87.5,53.5 c0,31.302 2.742,39 5.5,39 c1.85,0 4,-4.833 4,-18" fill="none" stroke="#000000" stroke-width="2" /><path d="M54.5,92.5 c12.02,-2.888 22.334,-6.233 28.5,-9" fill="none" stroke="#000000" stroke-width="2" /><path d="M31,92.5 c12.02,-2.888 22.334,-6.233 28.5,-9" fill="none" stroke="#000000" stroke-width="2" /><path d="M59.5,64 c-4.445,-2.474 -9.098,-4.747 -13.5,-6.5" fill="none" stroke="#000000" stroke-width="2" /><path d="M59.5,77.5 c-4.445,-2.474 -9.098,-4.747 -13.5,-6.5" fill="none" stroke="#000000" stroke-width="2" /><path d="M83,64 c-4.445,-2.474 -9.098,-4.747 -13.5,-6.5" fill="none" stroke="#000000" stroke-width="2" /><path d="M83,77.5 c-4.445,-2.474 -9.098,-4.747 -13.5,-6.5" fill="none" stroke="#000000" stroke-width="2" /><path d="M92,5.5 c-3.422,3.215 -6.578,5.599 -11.5,8.5 c5.176,3.241 8.44,5.859 12,9.5" fill="none" stroke="#000000" stroke-width="2" /><path d="M71,5.5 c-3.422,3.215 -6.578,5.599 -11.5,8.5 c5.176,3.241 8.44,5.859 12,9.5" fill="none" stroke="#000000" stroke-width="2" /><path d="M50,5.5 c-3.422,3.215 -6.578,5.599 -11.5,8.5 c5.176,3.241 8.44,5.859 12,9.5" fill="none" stroke="#000000" stroke-width="2" /><path d="M45.5,45.5 c15.84,-3.565 29.229,-9.708 37,-16" fill="none" stroke="#000000" stroke-width="2" /><path d="M46,31.5 c12.485,3.216 23.927,7.271 39,14" fill="none" stroke="#000000" stroke-width="2" /></svg>