<?xml version='1.0' encoding='utf-8'?>
<svg xmlns="http://www.w3.org/2000/svg" height="100px" version="1.0" viewBox="0 0 100 100" width="100px" x="0px" y="0px">
<line fill="none" stroke="#000000" stroke-width="2" x1="43" x2="43" y1="52.5" y2="94" /><line fill="none" stroke="#000000" stroke-width="2" x1="94" x2="43.5" y1="52" y2="52" /><line fill="none" stroke="#000000" stroke-width="2" x1="70" x2="70" y1="88" y2="52" /><line fill="none" stroke="#000000" stroke-width="2" x1="44" x2="96" y1="88" y2="88" /><line fill="none" stroke="#000000" stroke-width="2" x1="43" x2="92" y1="75.5" y2="75.5" /><line fill="none" stroke="#000000" stroke-width="2" x1="43" x2="92" y1="63.5" y2="63.5" /><line fill="none" stroke="#000000" stroke-width="2" x1="36" x2="96" y1="12" y2="12" /><line fill="none" stroke="#000000" stroke-width="2" x1="53.5" x2="53.5" y1="18.5" y2="4" /><line fill="none" stroke="#000000" stroke-width="2" x1="79" x2="79" y1="18.5" y2="4" /><line fill="none" stroke="#000000" stroke-width="2" x1="35" x2="4.5" y1="47" y2="47" /><line fill="none" stroke="#000000" stroke-width="2" x1="32.5" x2="8.5" y1="28" y2="28" /><line fill="none" stroke="#000000" stroke-width="2" x1="20.5" x2="20.5" y1="84.5" y2="28" /><polyline fill="none" points="41.5,41 64,41 64,21.5 40.5,21.5 40.5,42" stroke="#000000" stroke-width="2" /><polyline fill="none" points="72,41 94.5,41 94.5,21.5 71,21.5 71,42" stroke="#000000" stroke-width="2" /><path d="M75.5,41 c-1.629,4.057 -3.602,7.633 -6,11" fill="none" stroke="#000000" stroke-width="2" /><path d="M34.5,63 c5.74,-6.102 10.666,-13.583 14.5,-22" fill="none" stroke="#000000" stroke-width="2" /><path d="M4,89.5 c11.376,-2.657 20.682,-5.97 31,-11" fill="none" stroke="#000000" stroke-width="2" /><path d="M36,23 c-5.84,-5.014 -10.718,-10.167 -15.5,-16.5 c-5.317,8.159 -10.951,15.108 -17.5,21.5" fill="none" stroke="#000000" stroke-width="2" /><path d="M14,76 c-2.068,-7.582 -4.289,-14.762 -6.5,-21" fill="none" stroke="#000000" stroke-width="2" /><path d="M26,73 c2.477,-6.433 4.693,-12.93 6.5,-19" fill="none" stroke="#000000" stroke-width="2" /></svg>