<?xml version='1.0' encoding='utf-8'?>
<svg xmlns="http://www.w3.org/2000/svg" height="100px" version="1.0" viewBox="0 0 100 100" width="100px" x="0px" y="0px">
<line fill="none" stroke="#000000" stroke-width="2" x1="54" x2="54" y1="87" y2="48.5" /><line fill="none" stroke="#000000" stroke-width="2" x1="20" x2="90" y1="88" y2="88" /><line fill="none" stroke="#000000" stroke-width="2" x1="19" x2="19" y1="48" y2="94.5" /><line fill="none" stroke="#000000" stroke-width="2" x1="89" x2="19.5" y1="47.5" y2="47.5" /><line fill="none" stroke="#000000" stroke-width="2" x1="20" x2="86" y1="61" y2="61" /><line fill="none" stroke="#000000" stroke-width="2" x1="20" x2="86" y1="74.5" y2="74.5" /><path d="M50.5,5 v15.0 c0,9.528 -0.412,10 -7,10 c-1.973,0 -6.432,-0.14 -13.5,-0.5" fill="none" stroke="#000000" stroke-width="2" /><path d="M6.5,33 c8.1,-6.571 14.973,-15.294 19,-24" fill="none" stroke="#000000" stroke-width="2" /><path d="M94,31.5 c-5.701,-7.868 -12.741,-15.864 -20.5,-23" fill="none" stroke="#000000" stroke-width="2" /><path d="M76,20 c-15.576,13.137 -38.67,23.801 -74,32" fill="none" stroke="#000000" stroke-width="2" /><path d="M68,35 c-3.234,4.762 -5.979,8.162 -10,12.5" fill="none" stroke="#000000" stroke-width="2" /></svg>