<?xml version='1.0' encoding='utf-8'?>
<svg xmlns="http://www.w3.org/2000/svg" height="100px" version="1.0" viewBox="0 0 100 100" width="100px" x="0px" y="0px">
<line fill="none" stroke="#000000" stroke-width="2" x1="45" x2="45" y1="29" y2="94.5" /><line fill="none" stroke="#000000" stroke-width="2" x1="92.5" x2="45.5" y1="28.5" y2="28.5" /><line fill="none" stroke="#000000" stroke-width="2" x1="70" x2="70" y1="88.5" y2="28.5" /><line fill="none" stroke="#000000" stroke-width="2" x1="46" x2="94.5" y1="88.5" y2="88.5" /><line fill="none" stroke="#000000" stroke-width="2" x1="45" x2="90.5" y1="68" y2="68" /><line fill="none" stroke="#000000" stroke-width="2" x1="45" x2="90.5" y1="48" y2="48" /><line fill="none" stroke="#000000" stroke-width="2" x1="27.5" x2="27.5" y1="94.5" y2="32" /><path d="M77.5,14.5 c-2.172,5.163 -4.801,9.714 -8,14" fill="none" stroke="#000000" stroke-width="2" /><path d="M32.5,48 c7.897,-8.892 13.931,-20.011 18,-33.5" fill="none" stroke="#000000" stroke-width="2" /><path d="M15,55.5 c7.84,-10.923 13.931,-24.49 18,-41" fill="none" stroke="#000000" stroke-width="2" /><path d="M4,92 c4.68,-14.06 7,-29.832 7,-51 v-30.0 h82.0" fill="none" stroke="#000000" stroke-width="2" /></svg>