<?xml version='1.0' encoding='utf-8'?>
<svg xmlns="http://www.w3.org/2000/svg" height="100px" version="1.0" viewBox="0 0 100 100" width="100px" x="0px" y="0px">
<line fill="none" stroke="#000000" stroke-width="2" x1="50" x2="50" y1="44" y2="10" /><line fill="none" stroke="#000000" stroke-width="2" x1="12" x2="88" y1="10" y2="10" /><line fill="none" stroke="#000000" stroke-width="2" x1="18" x2="42" y1="29.5" y2="29.5" /><line fill="none" stroke="#000000" stroke-width="2" x1="18" x2="42" y1="39" y2="39" /><line fill="none" stroke="#000000" stroke-width="2" x1="58" x2="82" y1="29.5" y2="29.5" /><line fill="none" stroke="#000000" stroke-width="2" x1="58" x2="82" y1="39" y2="39" /><line fill="none" stroke="#000000" stroke-width="2" x1="19" x2="19" y1="53.5" y2="95" /><line fill="none" stroke="#000000" stroke-width="2" x1="89" x2="19.5" y1="53" y2="53" /><line fill="none" stroke="#000000" stroke-width="2" x1="53" x2="53" y1="89" y2="53" /><line fill="none" stroke="#000000" stroke-width="2" x1="20" x2="90" y1="89" y2="89" /><line fill="none" stroke="#000000" stroke-width="2" x1="19" x2="86" y1="76.5" y2="76.5" /><line fill="none" stroke="#000000" stroke-width="2" x1="19" x2="86" y1="64.5" y2="64.5" /><polyline fill="none" points="90,39 90,21 10,21 10,39" stroke="#000000" stroke-width="2" /><path d="M58.5,43.5 c-1.629,3.503 -3.602,6.593 -6,9.5" fill="none" stroke="#000000" stroke-width="2" /><path d="M5,69 c8.522,-7.289 14.771,-15.171 20,-25.5" fill="none" stroke="#000000" stroke-width="2" /></svg>