<?xml version='1.0' encoding='utf-8'?>
<svg xmlns="http://www.w3.org/2000/svg" height="100px" version="1.0" viewBox="0 0 100 100" width="100px" x="0px" y="0px">
<line fill="none" stroke="#000000" stroke-width="2" x1="50" x2="50" y1="46.5" y2="10" /><line fill="none" stroke="#000000" stroke-width="2" x1="12" x2="88" y1="10" y2="10" /><line fill="none" stroke="#000000" stroke-width="2" x1="18" x2="42" y1="30" y2="30" /><line fill="none" stroke="#000000" stroke-width="2" x1="18" x2="42" y1="40.5" y2="40.5" /><line fill="none" stroke="#000000" stroke-width="2" x1="58" x2="82" y1="30" y2="30" /><line fill="none" stroke="#000000" stroke-width="2" x1="58" x2="82" y1="40.5" y2="40.5" /><line fill="none" stroke="#000000" stroke-width="2" x1="69" x2="69" y1="94" y2="46" /><line fill="none" stroke="#000000" stroke-width="2" x1="93" x2="48.5" y1="55.5" y2="55.5" /><line fill="none" stroke="#000000" stroke-width="2" x1="26" x2="26" y1="94" y2="46" /><line fill="none" stroke="#000000" stroke-width="2" x1="43" x2="7" y1="55.5" y2="55.5" /><polyline fill="none" points="90,40.5 90,21 10,21 10,40.5" stroke="#000000" stroke-width="2" /><path d="M96,84.5 c-12.642,-9.436 -21.268,-19.095 -26.5,-29.5" fill="none" stroke="#000000" stroke-width="2" /><path d="M4,83 c10.328,-8.953 17.211,-18.119 21.5,-28" fill="none" stroke="#000000" stroke-width="2" /><path d="M39,87.5 c13.906,-10.485 23.296,-21.017 29.5,-32.5" fill="none" stroke="#000000" stroke-width="2" /><path d="M44,76 c-4.94,-6.606 -10.969,-13.509 -17.5,-20" fill="none" stroke="#000000" stroke-width="2" /></svg>