<?xml version='1.0' encoding='utf-8'?>
<svg xmlns="http://www.w3.org/2000/svg" height="100px" version="1.0" viewBox="0 0 100 100" width="100px" x="0px" y="0px">
<line fill="none" stroke="#000000" stroke-width="2" x1="21" x2="52" y1="46" y2="46" /><line fill="none" stroke="#000000" stroke-width="2" x1="21" x2="52" y1="39" y2="39" /><line fill="none" stroke="#000000" stroke-width="2" x1="22.5" x2="50.5" y1="20.5" y2="20.5" /><line fill="none" stroke="#000000" stroke-width="2" x1="93.5" x2="55.5" y1="24" y2="24" /><line fill="none" stroke="#000000" stroke-width="2" x1="66" x2="35" y1="75" y2="75" /><line fill="none" stroke="#000000" stroke-width="2" x1="66" x2="35" y1="82.5" y2="82.5" /><line fill="none" stroke="#000000" stroke-width="2" x1="34" x2="34" y1="67.5" y2="89" /><line fill="none" stroke="#000000" stroke-width="2" x1="66" x2="66" y1="90" y2="68.5" /><line fill="none" stroke="#000000" stroke-width="2" x1="13" x2="87" y1="90" y2="90" /><line fill="none" stroke="#000000" stroke-width="2" x1="8" x2="92" y1="59.5" y2="59.5" /><polyline fill="none" points="22.5,27 50.5,27 50.5,14 21.5,14 21.5,28" stroke="#000000" stroke-width="2" /><polyline fill="none" points="88,94.5 88,67.5 12,67.5 12,94.5" stroke="#000000" stroke-width="2" /><path d="M5,57 c4.645,-8.263 7,-17.579 7,-30 v-18.5 h80.0" fill="none" stroke="#000000" stroke-width="2" /><path d="M20,54.5 V32.0 h32.0 v17.0 c0,3.505 -0.537,4 -6.5,4 c-2.115,0 -5.189,-0.127 -11,-0.5" fill="none" stroke="#000000" stroke-width="2" /><path d="M80,12 c4.133,2.8 7.626,5.382 11.5,8.5" fill="none" stroke="#000000" stroke-width="2" /><path d="M55.5,54 c11.102,-6.272 19,-18.853 19,-29.5 V12.0" fill="none" stroke="#000000" stroke-width="2" /><path d="M93.5,54 c-11.102,-6.272 -19,-18.853 -19,-29.5" fill="none" stroke="#000000" stroke-width="2" /><path d="M50,59.5 c-1.285,2.967 -2.926,5.585 -5,8" fill="none" stroke="#000000" stroke-width="2" /></svg>