<?xml version='1.0' encoding='utf-8'?>
<svg xmlns="http://www.w3.org/2000/svg" height="100px" version="1.0" viewBox="0 0 100 100" width="100px" x="0px" y="0px">
<line fill="none" stroke="#000000" stroke-width="2" x1="4" x2="45.5" y1="18" y2="18" /><line fill="none" stroke="#000000" stroke-width="2" x1="9.5" x2="40.5" y1="63" y2="63" /><line fill="none" stroke="#000000" stroke-width="2" x1="3.5" x2="45" y1="75.5" y2="75.5" /><line fill="none" stroke="#000000" stroke-width="2" x1="25" x2="25" y1="94" y2="30.5" /><polyline fill="none" points="36,6.5 36,30.5 14,30.5 14,6.5" stroke="#000000" stroke-width="2" /><polyline fill="none" points="41.5,64 41.5,41 8.5,41 8.5,64" stroke="#000000" stroke-width="2" /><path d="M40,91 c18.5,-15.548 25,-31.894 25,-79" fill="none" stroke="#000000" stroke-width="2" /><path d="M45.5,12 h45.5 c0,71.537 -2.684,77 -10,77 c-3.222,0 -9.236,-0.354 -16,-1" fill="none" stroke="#000000" stroke-width="2" /><path d="M98,74 c-24.302,-6.875 -43.168,-23.759 -54,-49" fill="none" stroke="#000000" stroke-width="2" /></svg>