<?xml version='1.0' encoding='utf-8'?>
<svg xmlns="http://www.w3.org/2000/svg" height="100px" version="1.0" viewBox="0 0 100 100" width="100px" x="0px" y="0px">
<line fill="none" stroke="#000000" stroke-width="2" x1="4.5" x2="48.5" y1="18" y2="18" /><line fill="none" stroke="#000000" stroke-width="2" x1="10" x2="43" y1="63" y2="63" /><line fill="none" stroke="#000000" stroke-width="2" x1="4" x2="49" y1="75.5" y2="75.5" /><line fill="none" stroke="#000000" stroke-width="2" x1="26.5" x2="26.5" y1="94" y2="30.5" /><line fill="none" stroke="#000000" stroke-width="2" x1="95.5" x2="46.5" y1="89" y2="89" /><line fill="none" stroke="#000000" stroke-width="2" x1="92.5" x2="49.5" y1="63" y2="63" /><line fill="none" stroke="#000000" stroke-width="2" x1="71" x2="71" y1="89" y2="47.5" /><line fill="none" stroke="#000000" stroke-width="2" x1="94.5" x2="47.5" y1="43.5" y2="43.5" /><line fill="none" stroke="#000000" stroke-width="2" x1="91.5" x2="50.5" y1="20" y2="20" /><line fill="none" stroke="#000000" stroke-width="2" x1="71" x2="71" y1="43.5" y2="4.5" /><polyline fill="none" points="38.5,6.5 38.5,30.5 14.5,30.5 14.5,6.5" stroke="#000000" stroke-width="2" /><polyline fill="none" points="44,64 44,41 9,41 9,64" stroke="#000000" stroke-width="2" /></svg>