<?xml version='1.0' encoding='utf-8'?>
<svg xmlns="http://www.w3.org/2000/svg" height="100px" version="1.0" viewBox="0 0 100 100" width="100px" x="0px" y="0px">
<line fill="none" stroke="#000000" stroke-width="2" x1="3" x2="37.5" y1="18" y2="18" /><line fill="none" stroke="#000000" stroke-width="2" x1="7.34" x2="33.66" y1="63" y2="63" /><line fill="none" stroke="#000000" stroke-width="2" x1="2.5" x2="37.5" y1="75.5" y2="75.5" /><line fill="none" stroke="#000000" stroke-width="2" x1="20.5" x2="20.5" y1="94" y2="30.5" /><line fill="none" stroke="#000000" stroke-width="2" x1="51" x2="51" y1="94" y2="11.5" /><line fill="none" stroke="#000000" stroke-width="2" x1="64" x2="36.5" y1="33" y2="33" /><polyline fill="none" points="30.5,6.5 30.5,30.5 10.5,30.5 10.5,6.5" stroke="#000000" stroke-width="2" /><polyline fill="none" points="34.5,64 34.5,41 6.5,41 6.5,64" stroke="#000000" stroke-width="2" /><path d="M64.5,8 c-9.404,2.732 -18.465,4.719 -27.5,6" fill="none" stroke="#000000" stroke-width="2" /><path d="M35.5,70 c7.206,-12.122 11.992,-24.07 15,-37.5" fill="none" stroke="#000000" stroke-width="2" /><path d="M64,63 c-3.7,-9.493 -8.002,-19.475 -12.5,-29" fill="none" stroke="#000000" stroke-width="2" /><path d="M71,20.5 c-0.795,12.496 -2.874,23.599 -6,33" fill="none" stroke="#000000" stroke-width="2" /><path d="M61.5,91 c10.767,-10.436 18,-30.592 18,-56 v-28.0" fill="none" stroke="#000000" stroke-width="2" /><path d="M97.5,91 c-10.783,-10.276 -18,-30.294 -18,-56" fill="none" stroke="#000000" stroke-width="2" /><path d="M95,19 c-1.326,12.024 -3.9,22.626 -7.5,31.5" fill="none" stroke="#000000" stroke-width="2" /></svg>