<?xml version='1.0' encoding='utf-8'?>
<svg xmlns="http://www.w3.org/2000/svg" height="100px" version="1.0" viewBox="0 0 100 100" width="100px" x="0px" y="0px">
<line fill="none" stroke="#000000" stroke-width="2" x1="3" x2="38" y1="18" y2="18" /><line fill="none" stroke="#000000" stroke-width="2" x1="7.34" x2="33.66" y1="63" y2="63" /><line fill="none" stroke="#000000" stroke-width="2" x1="2.5" x2="38.5" y1="75.5" y2="75.5" /><line fill="none" stroke="#000000" stroke-width="2" x1="20.5" x2="20.5" y1="94" y2="30.5" /><line fill="none" stroke="#000000" stroke-width="2" x1="96" x2="53.5" y1="11" y2="11" /><line fill="none" stroke="#000000" stroke-width="2" x1="74.5" x2="74.5" y1="55.5" y2="11" /><line fill="none" stroke="#000000" stroke-width="2" x1="57" x2="93" y1="56.5" y2="56.5" /><line fill="none" stroke="#000000" stroke-width="2" x1="57" x2="93" y1="39.5" y2="39.5" /><line fill="none" stroke="#000000" stroke-width="2" x1="45.5" x2="45.5" y1="94" y2="26.25" /><polyline fill="none" points="30.5,6.5 30.5,30.5 10.5,30.5 10.5,6.5" stroke="#000000" stroke-width="2" /><polyline fill="none" points="34.5,64 34.5,41 6.5,41 6.5,64" stroke="#000000" stroke-width="2" /><polyline fill="none" points="93,64.5 93,23.5 56,23.5 56,57.5" stroke="#000000" stroke-width="2" /><path d="M50.5,90.5 c16.543,-7.353 23.406,-17.03 24,-34" fill="none" stroke="#000000" stroke-width="2" /><path d="M96,90.5 c-17.049,-4.961 -29.93,-15.196 -37,-29" fill="none" stroke="#000000" stroke-width="2" /><path d="M51,6 c-3.728,17.082 -9.365,32.64 -16.5,46" fill="none" stroke="#000000" stroke-width="2" /></svg>