<?xml version='1.0' encoding='utf-8'?>
<svg xmlns="http://www.w3.org/2000/svg" height="100px" version="1.0" viewBox="0 0 100 100" width="100px" x="0px" y="0px">
<line fill="none" stroke="#000000" stroke-width="2" x1="8.5" x2="45" y1="39.5" y2="39.5" /><line fill="none" stroke="#000000" stroke-width="2" x1="27.5" x2="27.5" y1="39.5" y2="5.5" /><line fill="none" stroke="#000000" stroke-width="2" x1="48.5" x2="96" y1="10.5" y2="10.5" /><line fill="none" stroke="#000000" stroke-width="2" x1="53.5" x2="91" y1="57" y2="57" /><line fill="none" stroke="#000000" stroke-width="2" x1="53.5" x2="91" y1="41" y2="41" /><polyline fill="none" points="53.5,73.5 92,73.5 92,25.5 52.5,25.5 52.5,74.5" stroke="#000000" stroke-width="2" /><path d="M42,33.5 c2.537,-4.967 4.425,-9.986 6.029,-16.248" fill="none" stroke="#000000" stroke-width="2" /><path d="M8,91.5 c16.462,-7.008 30.439,-24.906 36.022,-51.208" fill="none" stroke="#000000" stroke-width="2" /><path d="M48,84.5 c-16.938,-9.451 -27.196,-21.731 -33,-40" fill="none" stroke="#000000" stroke-width="2" /><path d="M2.5,89 c3.995,-13.696 6,-29.448 6,-51 v-21.5 H49.0" fill="none" stroke="#000000" stroke-width="2" /><path d="M46,92.5 c8.147,-3.901 15,-9.159 19,-14" fill="none" stroke="#000000" stroke-width="2" /><path d="M96.5,93 c-4.391,-4.882 -10.4,-10.108 -17,-14.5" fill="none" stroke="#000000" stroke-width="2" /><path d="M71,10.5 c-0.84,5.553 -1.835,10.448 -3,15" fill="none" stroke="#000000" stroke-width="2" /></svg>