<?xml version='1.0' encoding='utf-8'?>
<svg xmlns="http://www.w3.org/2000/svg" height="100px" version="1.0" viewBox="0 0 100 100" width="100px" x="0px" y="0px">
<line fill="none" stroke="#000000" stroke-width="2" x1="48" x2="96" y1="10.5" y2="10.5" /><line fill="none" stroke="#000000" stroke-width="2" x1="53.5" x2="91" y1="57" y2="57" /><line fill="none" stroke="#000000" stroke-width="2" x1="53.5" x2="91" y1="41" y2="41" /><line fill="none" stroke="#000000" stroke-width="2" x1="42.5" x2="12.5" y1="27" y2="27" /><line fill="none" stroke="#000000" stroke-width="2" x1="46" x2="6" y1="41" y2="41" /><polyline fill="none" points="53.5,73.5 92,73.5 92,25.5 52.5,25.5 52.5,74.5" stroke="#000000" stroke-width="2" /><polyline fill="none" points="10,86.5 43.5,86.5 43.5,60.5 9,60.5 9,93.5" stroke="#000000" stroke-width="2" /><path d="M47,92.5 c8.147,-3.901 15,-9.159 19,-14" fill="none" stroke="#000000" stroke-width="2" /><path d="M96.5,93 c-4.391,-4.882 -10.4,-10.108 -17,-14.5" fill="none" stroke="#000000" stroke-width="2" /><path d="M71.5,10.5 c-0.84,5.553 -1.835,10.448 -3,15" fill="none" stroke="#000000" stroke-width="2" /><path d="M48.5,24.5 c-8.14,-5.917 -15.056,-11.894 -22,-19 c-6.515,8.238 -13.389,15.094 -21.5,21.5" fill="none" stroke="#000000" stroke-width="2" /><path d="M29.5,60.5 c6.032,-5.896 11.354,-12.404 15.661,-19.044" fill="none" stroke="#000000" stroke-width="2" /></svg>