<?xml version='1.0' encoding='utf-8'?>
<svg xmlns="http://www.w3.org/2000/svg" height="100px" version="1.0" viewBox="0 0 100 100" width="100px" x="0px" y="0px">
<line fill="none" stroke="#000000" stroke-width="2" x1="49" x2="96" y1="10.5" y2="10.5" /><line fill="none" stroke="#000000" stroke-width="2" x1="54" x2="90" y1="57" y2="57" /><line fill="none" stroke="#000000" stroke-width="2" x1="54" x2="90" y1="41" y2="41" /><line fill="none" stroke="#000000" stroke-width="2" x1="27" x2="27" y1="50.5" y2="11.5" /><line fill="none" stroke="#000000" stroke-width="2" x1="48" x2="7" y1="26" y2="26" /><polyline fill="none" points="54,73.5 91,73.5 91,25.5 53,25.5 53,74.5" stroke="#000000" stroke-width="2" /><path d="M49,74.5 c-5.41,4.933 -12.083,9.146 -20,12.5" fill="none" stroke="#000000" stroke-width="2" /><path d="M6.5,92.5 c6.736,-8.087 10,-19.354 10,-38.5 h22.5 v28.0" fill="none" stroke="#000000" stroke-width="2" /><path d="M46,92.5 c7.587,-3.835 14.14,-9.067 18,-14" fill="none" stroke="#000000" stroke-width="2" /><path d="M95.5,93 c-4.649,-4.882 -11.013,-10.108 -18,-14.5" fill="none" stroke="#000000" stroke-width="2" /><path d="M71,10.5 c-0.84,5.553 -1.835,10.448 -3,15" fill="none" stroke="#000000" stroke-width="2" /><path d="M6.5,51 c9.481,-8.315 15.531,-16.355 19.5,-25.5" fill="none" stroke="#000000" stroke-width="2" /><path d="M45.5,8 c-12.825,2.777 -24.677,4.682 -37,6" fill="none" stroke="#000000" stroke-width="2" /><path d="M48,45.5 c-6.309,-6.178 -13.662,-13.188 -20.5,-19.5" fill="none" stroke="#000000" stroke-width="2" /></svg>