<?xml version='1.0' encoding='utf-8'?>
<svg xmlns="http://www.w3.org/2000/svg" height="100px" version="1.0" viewBox="0 0 100 100" width="100px" x="0px" y="0px">
<line fill="none" stroke="#000000" stroke-width="2" x1="51" x2="96.5" y1="10.5" y2="10.5" /><line fill="none" stroke="#000000" stroke-width="2" x1="56" x2="91.5" y1="57" y2="57" /><line fill="none" stroke="#000000" stroke-width="2" x1="56" x2="91.5" y1="41" y2="41" /><line fill="none" stroke="#000000" stroke-width="2" x1="50.5" x2="3.5" y1="55.5" y2="55.5" /><line fill="none" stroke="#000000" stroke-width="2" x1="27" x2="27" y1="11.5" y2="94" /><line fill="none" stroke="#000000" stroke-width="2" x1="8.5" x2="45.5" y1="27.5" y2="27.5" /><polyline fill="none" points="56,73.5 92.5,73.5 92.5,25.5 55,25.5 55,74.5" stroke="#000000" stroke-width="2" /><polyline fill="none" points="8.5,44.5 46.5,44.5 46.5,10.5 7.5,10.5 7.5,45.5" stroke="#000000" stroke-width="2" /><path d="M48,92.5 c7.165,-3.835 13.354,-9.067 17,-14" fill="none" stroke="#000000" stroke-width="2" /><path d="M97,93 c-4.391,-4.882 -10.4,-10.108 -17,-14.5" fill="none" stroke="#000000" stroke-width="2" /><path d="M72.5,10.5 c-0.84,5.553 -1.835,10.448 -3,15" fill="none" stroke="#000000" stroke-width="2" /><path d="M2.5,87.5 c10.753,-9.507 18.502,-20.193 23.5,-32" fill="none" stroke="#000000" stroke-width="2" /><path d="M51,81 c-10.304,-7.934 -17.771,-16.231 -23,-25.5" fill="none" stroke="#000000" stroke-width="2" /></svg>