<?xml version='1.0' encoding='utf-8'?>
<svg xmlns="http://www.w3.org/2000/svg" height="100px" version="1.0" viewBox="0 0 100 100" width="100px" x="0px" y="0px">
<line fill="none" stroke="#000000" stroke-width="2" x1="5" x2="35" y1="25" y2="25" /><line fill="none" stroke="#000000" stroke-width="2" x1="20" x2="20" y1="25" y2="7" /><line fill="none" stroke="#000000" stroke-width="2" x1="64" x2="64" y1="85.5" y2="19.5" /><line fill="none" stroke="#000000" stroke-width="2" x1="48" x2="48" y1="34.5" y2="65.5" /><line fill="none" stroke="#000000" stroke-width="2" x1="79" x2="49" y1="35.5" y2="35.5" /><polyline fill="none" points="48,59.5 80,59.5 80,34.5" stroke="#000000" stroke-width="2" /><path d="M5,87 c10.165,-2.489 18.964,-5.403 30,-10" fill="none" stroke="#000000" stroke-width="2" /><path d="M24.5,81 c2.68,-13.673 4.975,-30.976 6.5,-49.5" fill="none" stroke="#000000" stroke-width="2" /><path d="M14,73.5 c-1.303,-13.792 -2.887,-28.188 -4.5,-41.5" fill="none" stroke="#000000" stroke-width="2" /><path d="M31.5,92.5 c5.579,-10.288 8.5,-25.519 8.5,-50.5 v-32.0 h48.0 c0,71.495 3.031,82 6.5,82 c1.844,0 3.408,-4.21 4,-22" fill="none" stroke="#000000" stroke-width="2" /><path d="M87.5,91 c-3.238,-7.272 -7.699,-16.632 -11.5,-24" fill="none" stroke="#000000" stroke-width="2" /><path d="M41.5,88 c11.947,-0.589 28.42,-2.734 42,-5.5" fill="none" stroke="#000000" stroke-width="2" /><path d="M45,20.5 c11.272,-0.401 25.209,-1.697 38,-3.5" fill="none" stroke="#000000" stroke-width="2" /></svg>