<?xml version='1.0' encoding='utf-8'?>
<svg xmlns="http://www.w3.org/2000/svg" height="100px" version="1.0" viewBox="0 0 100 100" width="100px" x="0px" y="0px">
<line fill="none" stroke="#000000" stroke-width="2" x1="40.5" x2="94.5" y1="62" y2="57.5" /><line fill="none" stroke="#000000" stroke-width="2" x1="42" x2="94" y1="19.5" y2="16" /><line fill="none" stroke="#000000" stroke-width="2" x1="11" x2="38" y1="43" y2="43" /><line fill="none" stroke="#000000" stroke-width="2" x1="10" x2="41" y1="68" y2="68" /><line fill="none" stroke="#000000" stroke-width="2" x1="10" x2="41" y1="81" y2="81" /><line fill="none" stroke="#000000" stroke-width="2" x1="14.5" x2="34.5" y1="22" y2="22" /><polyline fill="none" points="11,56 38,56 38,31 10,31 10,94" stroke="#000000" stroke-width="2" /><path d="M88,62.5 c-7.89,13.313 -23.695,23.853 -44.5,29" fill="none" stroke="#000000" stroke-width="2" /><path d="M59,44.5 c3.463,29.63 23.374,47 30.5,47 c2.523,0 4.236,-2.142 6,-12.5" fill="none" stroke="#000000" stroke-width="2" /><path d="M66.5,46.5 c5.38,1.966 10.927,4.407 16,7" fill="none" stroke="#000000" stroke-width="2" /><path d="M87.5,20.5 c-7.691,10.61 -23.014,19.452 -45.5,24" fill="none" stroke="#000000" stroke-width="2" /><path d="M58,5 c3.183,26.026 23.454,41.5 30.5,41.5 c2.569,0 4.189,-1.939 6,-11.5" fill="none" stroke="#000000" stroke-width="2" /><path d="M69,5.5 c5.385,1.844 10.933,4.108 16,6.5" fill="none" stroke="#000000" stroke-width="2" /><path d="M40.5,22 c-6.387,-5.089 -11.688,-10.214 -17,-16.5 c-5.83,8.159 -12.289,15.255 -19.5,21.5" fill="none" stroke="#000000" stroke-width="2" /></svg>