<?xml version='1.0' encoding='utf-8'?>
<svg xmlns="http://www.w3.org/2000/svg" height="100px" version="1.0" viewBox="0 0 100 100" width="100px" x="0px" y="0px">
<line fill="none" stroke="#000000" stroke-width="2" x1="10.5" x2="36.5" y1="43" y2="43" /><line fill="none" stroke="#000000" stroke-width="2" x1="9.5" x2="39.5" y1="68" y2="68" /><line fill="none" stroke="#000000" stroke-width="2" x1="9.5" x2="39.5" y1="81" y2="81" /><line fill="none" stroke="#000000" stroke-width="2" x1="14" x2="34" y1="22" y2="22" /><line fill="none" stroke="#000000" stroke-width="2" x1="44.5" x2="90.5" y1="52" y2="52" /><line fill="none" stroke="#000000" stroke-width="2" x1="44.5" x2="90.5" y1="76" y2="76" /><line fill="none" stroke="#000000" stroke-width="2" x1="42" x2="93" y1="63.5" y2="63.5" /><line fill="none" stroke="#000000" stroke-width="2" x1="67.5" x2="67.5" y1="89.5" y2="24.5" /><line fill="none" stroke="#000000" stroke-width="2" x1="40" x2="96" y1="14" y2="14" /><line fill="none" stroke="#000000" stroke-width="2" x1="38" x2="97" y1="89.5" y2="89.5" /><polyline fill="none" points="10.5,56 36.5,56 36.5,31 9.5,31 9.5,94" stroke="#000000" stroke-width="2" /><polyline fill="none" points="91.5,53 91.5,33.5 43.5,33.5 43.5,53" stroke="#000000" stroke-width="2" /><polyline fill="none" points="83.5,4.5 83.5,24.5 50.5,24.5 50.5,4.5" stroke="#000000" stroke-width="2" /><path d="M40,22 c-6.387,-5.089 -11.688,-10.214 -17,-16.5 c-5.83,8.159 -12.289,15.255 -19.5,21.5" fill="none" stroke="#000000" stroke-width="2" /></svg>