<?xml version='1.0' encoding='utf-8'?>
<svg xmlns="http://www.w3.org/2000/svg" height="100px" version="1.0" viewBox="0 0 100 100" width="100px" x="0px" y="0px">
<line fill="none" stroke="#000000" stroke-width="2" x1="28" x2="28" y1="11.5" y2="56" /><line fill="none" stroke="#000000" stroke-width="2" x1="11.5" x2="43.99" y1="41" y2="41" /><line fill="none" stroke="#000000" stroke-width="2" x1="11.5" x2="43.99" y1="25.5" y2="25.5" /><line fill="none" stroke="#000000" stroke-width="2" x1="72.5" x2="72.5" y1="72" y2="5" /><path d="M40,78 c-1.045,-4.762 -2.381,-9.932 -4,-15.5" fill="none" stroke="#000000" stroke-width="2" /><path d="M30,82.25 c-0.666,-5.847 -1.643,-12.114 -3,-19" fill="none" stroke="#000000" stroke-width="2" /><path d="M20,86.5 c-0.287,-6.932 -0.904,-14.298 -2,-22.5" fill="none" stroke="#000000" stroke-width="2" /><path d="M6,89.5 c2.229,-7.541 3.926,-16.133 5,-26" fill="none" stroke="#000000" stroke-width="2" /><path d="M45.5,10.5 h-35.0 v46.5 h36.0 c0,30.181 -2.043,34.5 -5,34.5 c-2.813,0 -6.941,-0.3 -12,-1" fill="none" stroke="#000000" stroke-width="2" /><path d="M55,10.5 v72.0 c0,7.398 0.717,8 19.5,8 c18.264,0 18.473,-0.208 20,-25" fill="none" stroke="#000000" stroke-width="2" /><path d="M44,37 l48,-17 c0,39 -1.375,42.5 -4.5,42.5 c-2.027,0 -6.636,-0.214 -9.5,-0.5" fill="none" stroke="#000000" stroke-width="2" /></svg>