<?xml version='1.0' encoding='utf-8'?>
<svg xmlns="http://www.w3.org/2000/svg" height="100px" version="1.0" viewBox="0 0 100 100" width="100px" x="0px" y="0px">
<line fill="none" stroke="#000000" stroke-width="2" x1="49" x2="49" y1="41" y2="69" /><line fill="none" stroke="#000000" stroke-width="2" x1="16" x2="82.5" y1="60" y2="60" /><line fill="none" stroke="#000000" stroke-width="2" x1="16" x2="82.5" y1="50" y2="50" /><polyline fill="none" points="57.5,32 89.5,32 89.5,11 56.5,11 56.5,33" stroke="#000000" stroke-width="2" /><path d="M6,37.5 c14.229,-7.703 20,-17.214 20,-33.5" fill="none" stroke="#000000" stroke-width="2" /><path d="M8.5,13 h39.0 c-0.563,18.138 -1.766,19.5 -8.5,19.5 c-3.36,0 -8.539,-0.185 -13,-0.5" fill="none" stroke="#000000" stroke-width="2" /><path d="M76,86 c-2.305,-3.557 -4.893,-7.304 -8,-11.5" fill="none" stroke="#000000" stroke-width="2" /><path d="M55,89 c-1.569,-4.323 -3.503,-8.88 -6,-14" fill="none" stroke="#000000" stroke-width="2" /><path d="M34,92 c-0.834,-5.09 -2.113,-10.457 -4,-16.5" fill="none" stroke="#000000" stroke-width="2" /><path d="M6,93 c3.813,-5.348 7.045,-11.127 10,-18" fill="none" stroke="#000000" stroke-width="2" /><path d="M85.5,40 H16.0 v30.0 h73.0 c0,16.456 -3.768,22 -10.5,22 c-3.191,0 -7.761,-0.134 -13.5,-0.5" fill="none" stroke="#000000" stroke-width="2" /></svg>