<?xml version='1.0' encoding='utf-8'?>
<svg xmlns="http://www.w3.org/2000/svg" height="100px" version="1.0" viewBox="0 0 100 100" width="100px" x="0px" y="0px">
<line fill="none" stroke="#000000" stroke-width="2" x1="25.5" x2="25.5" y1="11.5" y2="56" /><line fill="none" stroke="#000000" stroke-width="2" x1="10.5" x2="39.5" y1="41" y2="41" /><line fill="none" stroke="#000000" stroke-width="2" x1="10.5" x2="39.5" y1="25.5" y2="25.5" /><line fill="none" stroke="#000000" stroke-width="2" x1="92.5" x2="43.5" y1="66.5" y2="68.5" /><line fill="none" stroke="#000000" stroke-width="2" x1="69" x2="69" y1="67.5" y2="94" /><line fill="none" stroke="#000000" stroke-width="2" x1="69" x2="69" y1="40.5" y2="10.5" /><line fill="none" stroke="#000000" stroke-width="2" x1="47" x2="92" y1="25" y2="25" /><polyline fill="none" points="47,40.5 92,40.5 92,9.5 46,9.5 46,41.5" stroke="#000000" stroke-width="2" /><path d="M35.5,78 c-1.045,-4.762 -2.381,-9.932 -4,-15.5" fill="none" stroke="#000000" stroke-width="2" /><path d="M26.75,82.25 c-0.666,-5.847 -1.643,-12.114 -3,-19" fill="none" stroke="#000000" stroke-width="2" /><path d="M18,86.5 c-0.287,-6.932 -0.904,-14.298 -2,-22.5" fill="none" stroke="#000000" stroke-width="2" /><path d="M5,89.5 c2.229,-7.541 3.926,-16.133 5,-26" fill="none" stroke="#000000" stroke-width="2" /><path d="M40.5,10.5 h-31.0 v46.5 h30.0 c0,30.181 -2.043,34.5 -5,34.5 c-2.813,0 -6.941,-0.3 -12,-1" fill="none" stroke="#000000" stroke-width="2" /><path d="M63.5,61 c-4.532,-4.294 -10.424,-9.62 -15.5,-14" fill="none" stroke="#000000" stroke-width="2" /><path d="M96.5,72 c-3.686,-5.065 -8.682,-11.423 -13,-16.5" fill="none" stroke="#000000" stroke-width="2" /><path d="M44,90.5 c7.01,-5.36 12.715,-11.143 17,-17" fill="none" stroke="#000000" stroke-width="2" /><path d="M95,90.5 c-5.123,-5.557 -11.355,-11.338 -18.5,-17" fill="none" stroke="#000000" stroke-width="2" /><path d="M53,68 c12.523,-7.557 23.656,-15.54 33.5,-24" fill="none" stroke="#000000" stroke-width="2" /><path d="M53.5,52 c6.14,-3.866 11.385,-7.544 16.5,-11.5" fill="none" stroke="#000000" stroke-width="2" /></svg>