<?xml version='1.0' encoding='utf-8'?>
<svg xmlns="http://www.w3.org/2000/svg" height="100px" version="1.0" viewBox="0 0 100 100" width="100px" x="0px" y="0px">
<line fill="none" stroke="#000000" stroke-width="2" x1="47.5" x2="47.5" y1="52.5" y2="94" /><line fill="none" stroke="#000000" stroke-width="2" x1="94" x2="48" y1="52" y2="52" /><line fill="none" stroke="#000000" stroke-width="2" x1="72" x2="72" y1="88" y2="52" /><line fill="none" stroke="#000000" stroke-width="2" x1="48.5" x2="96" y1="88" y2="88" /><line fill="none" stroke="#000000" stroke-width="2" x1="47.5" x2="92" y1="75.5" y2="75.5" /><line fill="none" stroke="#000000" stroke-width="2" x1="47.5" x2="92" y1="63.5" y2="63.5" /><line fill="none" stroke="#000000" stroke-width="2" x1="42" x2="96" y1="12" y2="12" /><line fill="none" stroke="#000000" stroke-width="2" x1="57.5" x2="57.5" y1="18.5" y2="4" /><line fill="none" stroke="#000000" stroke-width="2" x1="82" x2="82" y1="18.5" y2="4" /><line fill="none" stroke="#000000" stroke-width="2" x1="24" x2="24" y1="11.5" y2="56" /><line fill="none" stroke="#000000" stroke-width="2" x1="9" x2="38" y1="41" y2="41" /><line fill="none" stroke="#000000" stroke-width="2" x1="9" x2="38" y1="25.5" y2="25.5" /><polyline fill="none" points="46,41 66.5,41 66.5,21.5 45,21.5 45,42" stroke="#000000" stroke-width="2" /><polyline fill="none" points="74,41 94.5,41 94.5,21.5 73,21.5 73,42" stroke="#000000" stroke-width="2" /><path d="M77.5,41 c-1.629,4.057 -3.602,7.633 -6,11" fill="none" stroke="#000000" stroke-width="2" /><path d="M39,63 c5.74,-6.102 10.666,-13.583 14.5,-22" fill="none" stroke="#000000" stroke-width="2" /><path d="M34,78 c-1.045,-4.762 -2.381,-9.932 -4,-15.5" fill="none" stroke="#000000" stroke-width="2" /><path d="M25.25,82.25 c-0.666,-5.847 -1.643,-12.114 -3,-19" fill="none" stroke="#000000" stroke-width="2" /><path d="M16.5,86.5 c-0.287,-6.932 -0.904,-14.298 -2,-22.5" fill="none" stroke="#000000" stroke-width="2" /><path d="M3.5,89.5 c2.229,-7.541 3.926,-16.133 5,-26" fill="none" stroke="#000000" stroke-width="2" /><path d="M39,10.5 h-31.0 v46.5 h31.0 c0,30.181 -2.043,34.5 -5,34.5 c-2.813,0 -6.941,-0.3 -12,-1" fill="none" stroke="#000000" stroke-width="2" /></svg>