<?xml version='1.0' encoding='utf-8'?>
<svg xmlns="http://www.w3.org/2000/svg" height="100px" version="1.0" viewBox="0 0 100 100" width="100px" x="0px" y="0px">
<line fill="none" stroke="#000000" stroke-width="2" x1="26.5" x2="26.5" y1="16.5" y2="51.5" /><line fill="none" stroke="#000000" stroke-width="2" x1="9.5" x2="43.5" y1="33.5" y2="33.5" /><line fill="none" stroke="#000000" stroke-width="2" x1="51.5" x2="97" y1="63.5" y2="53.5" /><line fill="none" stroke="#000000" stroke-width="2" x1="85" x2="85" y1="78.5" y2="6" /><polyline fill="none" points="9.5,52.5 44.5,52.5 44.5,15.5 8.5,15.5 8.5,53.5" stroke="#000000" stroke-width="2" /><path d="M31,53.5 v30.0 c0,5.964 1.605,7 22.5,7 h12.0 c26.816,0 27.143,-0.333 28.5,-17.5" fill="none" stroke="#000000" stroke-width="2" /><path d="M5,92 c9.572,-7.255 16,-21.582 16,-39.5" fill="none" stroke="#000000" stroke-width="2" /><path d="M20.5,15.5 c3.021,-3.953 5.887,-8.271 8,-12" fill="none" stroke="#000000" stroke-width="2" /><path d="M53,79.5 c-1.828,-5.17 -4.519,-11.548 -7,-16.5" fill="none" stroke="#000000" stroke-width="2" /><path d="M31,78 c6.12,-0.716 13.037,-2.078 20,-4" fill="none" stroke="#000000" stroke-width="2" /><path d="M35,77.5 c2.352,-5.835 4.707,-13.357 6.5,-21" fill="none" stroke="#000000" stroke-width="2" /><path d="M76.5,26.5 c-4.424,-5.253 -9.678,-10.529 -16,-16" fill="none" stroke="#000000" stroke-width="2" /><path d="M68.5,46 c-4.338,-5.349 -10.039,-11.081 -16.5,-16.5" fill="none" stroke="#000000" stroke-width="2" /></svg>