<?xml version='1.0' encoding='utf-8'?>
<svg xmlns="http://www.w3.org/2000/svg" height="100px" version="1.0" viewBox="0 0 100 100" width="100px" x="0px" y="0px">
<line fill="none" stroke="#000000" stroke-width="2" x1="16.5" x2="35.5" y1="11" y2="11" /><line fill="none" stroke="#000000" stroke-width="2" x1="11" x2="45" y1="45" y2="45" /><line fill="none" stroke="#000000" stroke-width="2" x1="28" x2="28" y1="27" y2="64" /><line fill="none" stroke="#000000" stroke-width="2" x1="70.5" x2="96" y1="21.5" y2="21.5" /><line fill="none" stroke="#000000" stroke-width="2" x1="70.5" x2="70.5" y1="48" y2="5" /><line fill="none" stroke="#000000" stroke-width="2" x1="55.5" x2="92.5" y1="86" y2="86" /><polyline fill="none" points="10,66 10,26 46,26 46,65 11,65" stroke="#000000" stroke-width="2" /><polyline fill="none" points="92.5,94 92.5,48 54.5,48 54.5,94" stroke="#000000" stroke-width="2" /><path d="M28,26 c2.311,-4.407 4.655,-9.57 6.57,-14.37" fill="none" stroke="#000000" stroke-width="2" /><path d="M4.5,33.5 c6.199,-8.898 11.051,-19.157 14.5,-31" fill="none" stroke="#000000" stroke-width="2" /><path d="M48.5,87.5 c-1.178,-5.596 -2.902,-12.039 -5,-18.5" fill="none" stroke="#000000" stroke-width="2" /><path d="M35,90.5 c-0.657,-6.352 -1.833,-13.317 -3.5,-20.75" fill="none" stroke="#000000" stroke-width="2" /><path d="M21.5,93.5 c-0.137,-7.107 -0.764,-14.597 -2,-23" fill="none" stroke="#000000" stroke-width="2" /><path d="M5,94.5 c2.512,-7.089 4.387,-15.212 5.5,-24.5" fill="none" stroke="#000000" stroke-width="2" /></svg>