<?xml version='1.0' encoding='utf-8'?>
<svg xmlns="http://www.w3.org/2000/svg" height="100px" version="1.0" viewBox="0 0 100 100" width="100px" x="0px" y="0px">
<line fill="none" stroke="#000000" stroke-width="2" x1="16.5" x2="35.5" y1="11" y2="11" /><line fill="none" stroke="#000000" stroke-width="2" x1="11" x2="45" y1="45" y2="45" /><line fill="none" stroke="#000000" stroke-width="2" x1="28" x2="28" y1="27" y2="64" /><line fill="none" stroke="#000000" stroke-width="2" x1="96" x2="49" y1="89" y2="89" /><line fill="none" stroke="#000000" stroke-width="2" x1="93" x2="52" y1="63" y2="63" /><line fill="none" stroke="#000000" stroke-width="2" x1="72.5" x2="72.5" y1="89" y2="47.5" /><line fill="none" stroke="#000000" stroke-width="2" x1="95" x2="50" y1="43.5" y2="43.5" /><line fill="none" stroke="#000000" stroke-width="2" x1="92" x2="53" y1="20" y2="20" /><line fill="none" stroke="#000000" stroke-width="2" x1="72.5" x2="72.5" y1="43.5" y2="4.5" /><polyline fill="none" points="10,66 10,26 46,26 46,65 11,65" stroke="#000000" stroke-width="2" /><path d="M28,26 c2.311,-4.407 4.655,-9.57 6.57,-14.37" fill="none" stroke="#000000" stroke-width="2" /><path d="M4.5,33.5 c6.199,-8.898 11.051,-19.157 14.5,-31" fill="none" stroke="#000000" stroke-width="2" /><path d="M48.5,85 c-1.178,-4.839 -2.902,-10.413 -5,-16" fill="none" stroke="#000000" stroke-width="2" /><path d="M35,90.5 c-0.657,-6.352 -1.833,-13.317 -3.5,-20.75" fill="none" stroke="#000000" stroke-width="2" /><path d="M21.5,93.5 c-0.137,-7.107 -0.764,-14.597 -2,-23" fill="none" stroke="#000000" stroke-width="2" /><path d="M5,94.5 c2.512,-7.089 4.387,-15.212 5.5,-24.5" fill="none" stroke="#000000" stroke-width="2" /></svg>