<?xml version='1.0' encoding='utf-8'?>
<svg xmlns="http://www.w3.org/2000/svg" height="100px" version="1.0" viewBox="0 0 100 100" width="100px" x="0px" y="0px">
<line fill="none" stroke="#000000" stroke-width="2" x1="14.5" x2="29.5" y1="11" y2="11" /><line fill="none" stroke="#000000" stroke-width="2" x1="9" x2="35" y1="45" y2="45" /><line fill="none" stroke="#000000" stroke-width="2" x1="22" x2="22" y1="27" y2="64" /><line fill="none" stroke="#000000" stroke-width="2" x1="40" x2="97" y1="44.5" y2="44.5" /><line fill="none" stroke="#000000" stroke-width="2" x1="95" x2="42.5" y1="14.5" y2="14.5" /><line fill="none" stroke="#000000" stroke-width="2" x1="92.5" x2="45" y1="29" y2="29" /><line fill="none" stroke="#000000" stroke-width="2" x1="49.5" x2="49.5" y1="58.5" y2="94" /><line fill="none" stroke="#000000" stroke-width="2" x1="87.5" x2="49.5" y1="58.5" y2="58.5" /><line fill="none" stroke="#000000" stroke-width="2" x1="87.5" x2="87.5" y1="94" y2="58.5" /><line fill="none" stroke="#000000" stroke-width="2" x1="49.5" x2="87.5" y1="88" y2="88" /><line fill="none" stroke="#000000" stroke-width="2" x1="50.5" x2="87.5" y1="73" y2="73" /><polyline fill="none" points="8,66 8,26 36,26 36,65 9,65" stroke="#000000" stroke-width="2" /><path d="M22,26 c2.311,-4.407 4.655,-9.57 6.57,-14.37" fill="none" stroke="#000000" stroke-width="2" /><path d="M3.5,32.5 c5.917,-9.088 10.051,-18.157 13.5,-30" fill="none" stroke="#000000" stroke-width="2" /><path d="M39,87.5 c-0.941,-5.596 -2.322,-12.039 -4,-18.5" fill="none" stroke="#000000" stroke-width="2" /><path d="M28.5,90.5 c-0.521,-6.352 -1.447,-13.317 -2.75,-20.75" fill="none" stroke="#000000" stroke-width="2" /><path d="M18,93.5 c-0.103,-7.107 -0.572,-14.597 -1.5,-23" fill="none" stroke="#000000" stroke-width="2" /><path d="M4,94.5 c2.512,-7.089 4.387,-15.212 5.5,-24.5" fill="none" stroke="#000000" stroke-width="2" /><path d="M39,68.5 c15.436,-11.787 28.078,-37.2 30,-64" fill="none" stroke="#000000" stroke-width="2" /><path d="M97,68.5 c-9.706,-7.599 -18.721,-21.879 -24,-39.5" fill="none" stroke="#000000" stroke-width="2" /></svg>