<?xml version='1.0' encoding='utf-8'?>
<svg xmlns="http://www.w3.org/2000/svg" height="100px" version="1.0" viewBox="0 0 100 100" width="100px" x="0px" y="0px">
<line fill="none" stroke="#000000" stroke-width="2" x1="14.5" x2="28.5" y1="11" y2="11" /><line fill="none" stroke="#000000" stroke-width="2" x1="9" x2="32" y1="45" y2="45" /><line fill="none" stroke="#000000" stroke-width="2" x1="20.5" x2="20.5" y1="27" y2="64" /><line fill="none" stroke="#000000" stroke-width="2" x1="50" x2="50" y1="94" y2="11.5" /><line fill="none" stroke="#000000" stroke-width="2" x1="63.5" x2="36.5" y1="33" y2="33" /><polyline fill="none" points="8,66 8,26 33,26 33,65 9,65" stroke="#000000" stroke-width="2" /><path d="M21,26 c2.311,-4.407 4.655,-9.57 6.57,-14.37" fill="none" stroke="#000000" stroke-width="2" /><path d="M3.5,32.5 c5.917,-9.088 10.051,-18.157 13.5,-30" fill="none" stroke="#000000" stroke-width="2" /><path d="M37,87.5 c-0.941,-5.596 -2.322,-12.039 -4,-18.5" fill="none" stroke="#000000" stroke-width="2" /><path d="M27,90.5 c-0.521,-6.352 -1.447,-13.317 -2.75,-20.75" fill="none" stroke="#000000" stroke-width="2" /><path d="M17,93.5 c-0.103,-7.107 -0.572,-14.597 -1.5,-23" fill="none" stroke="#000000" stroke-width="2" /><path d="M4,94.5 c2.512,-7.089 4.387,-15.212 5.5,-24.5" fill="none" stroke="#000000" stroke-width="2" /><path d="M63.5,8 c-9.404,2.732 -18.465,4.719 -27.5,6" fill="none" stroke="#000000" stroke-width="2" /><path d="M36,67 c6.485,-11.153 10.793,-22.145 13.5,-34.5" fill="none" stroke="#000000" stroke-width="2" /><path d="M63,63 c-3.7,-9.493 -8.002,-19.475 -12.5,-29" fill="none" stroke="#000000" stroke-width="2" /><path d="M70,20.5 c-0.795,12.496 -2.874,23.599 -6,33" fill="none" stroke="#000000" stroke-width="2" /><path d="M60.5,91 c11.065,-10.436 18.5,-30.592 18.5,-56 v-28.0" fill="none" stroke="#000000" stroke-width="2" /><path d="M97.5,91 c-11.083,-10.276 -18.5,-30.294 -18.5,-56" fill="none" stroke="#000000" stroke-width="2" /><path d="M95,19 c-1.326,12.024 -3.9,22.626 -7.5,31.5" fill="none" stroke="#000000" stroke-width="2" /></svg>