<?xml version='1.0' encoding='utf-8'?>
<svg xmlns="http://www.w3.org/2000/svg" height="100px" version="1.0" viewBox="0 0 100 100" width="100px" x="0px" y="0px">
<line fill="none" stroke="#000000" stroke-width="2" x1="96" x2="43" y1="54.5" y2="54.5" /><line fill="none" stroke="#000000" stroke-width="2" x1="91.5" x2="47.5" y1="41.5" y2="41.5" /><line fill="none" stroke="#000000" stroke-width="2" x1="15.5" x2="31.5" y1="11" y2="11" /><line fill="none" stroke="#000000" stroke-width="2" x1="10" x2="38" y1="45" y2="45" /><line fill="none" stroke="#000000" stroke-width="2" x1="24" x2="24" y1="27" y2="64" /><polyline fill="none" points="47,30 66,30 66,10 46,10 46,31" stroke="#000000" stroke-width="2" /><polyline fill="none" points="74,30 93,30 93,10 73,10 73,31" stroke="#000000" stroke-width="2" /><polyline fill="none" points="9,66 9,26 39,26 39,65 10,65" stroke="#000000" stroke-width="2" /><path d="M55,54.5 c-1.834,8.478 -4.906,18.208 -8,25.5" fill="none" stroke="#000000" stroke-width="2" /><path d="M51.5,67.5 h39.0 c-2.142,22.519 -3.314,24 -8,24 c-2.639,0 -9.859,-0.433 -15,-1" fill="none" stroke="#000000" stroke-width="2" /><path d="M24,26 c2.311,-4.407 4.655,-9.57 6.57,-14.37" fill="none" stroke="#000000" stroke-width="2" /><path d="M3.5,33.5 c6.199,-8.898 11.051,-19.157 14.5,-31" fill="none" stroke="#000000" stroke-width="2" /><path d="M42.5,87.5 c-1.178,-5.596 -2.902,-12.039 -5,-18.5" fill="none" stroke="#000000" stroke-width="2" /><path d="M31,90.5 c-0.657,-6.352 -1.833,-13.318 -3.5,-20.75" fill="none" stroke="#000000" stroke-width="2" /><path d="M19.5,93.5 c-0.137,-7.107 -0.764,-14.597 -2,-23" fill="none" stroke="#000000" stroke-width="2" /><path d="M4,94.5 c2.512,-7.089 4.387,-15.212 5.5,-24.5" fill="none" stroke="#000000" stroke-width="2" /></svg>