<?xml version='1.0' encoding='utf-8'?>
<svg xmlns="http://www.w3.org/2000/svg" height="100px" version="1.0" viewBox="0 0 100 100" width="100px" x="0px" y="0px">
<line fill="none" stroke="#000000" stroke-width="2" x1="14.5" x2="28.5" y1="11" y2="11" /><line fill="none" stroke="#000000" stroke-width="2" x1="9" x2="32" y1="45" y2="45" /><line fill="none" stroke="#000000" stroke-width="2" x1="20.5" x2="20.5" y1="27" y2="64" /><line fill="none" stroke="#000000" stroke-width="2" x1="96.5" x2="66.5" y1="12" y2="12" /><line fill="none" stroke="#000000" stroke-width="2" x1="81.5" x2="81.5" y1="94" y2="12" /><line fill="none" stroke="#000000" stroke-width="2" x1="41" x2="61.5" y1="86" y2="86" /><polyline fill="none" points="8,66 8,26 33,26 33,65 9,65" stroke="#000000" stroke-width="2" /><polyline fill="none" points="42,43 61,43 61,19.5 41,19.5 41,94" stroke="#000000" stroke-width="2" /><polyline fill="none" points="61.5,92 61.5,59 42,59" stroke="#000000" stroke-width="2" /><path d="M21,26 c2.311,-4.407 4.655,-9.57 6.57,-14.37" fill="none" stroke="#000000" stroke-width="2" /><path d="M3.5,32.5 c5.918,-9.088 10.051,-18.157 13.5,-30" fill="none" stroke="#000000" stroke-width="2" /><path d="M37,87.5 c-0.941,-5.596 -2.322,-12.039 -4,-18.5" fill="none" stroke="#000000" stroke-width="2" /><path d="M27,90.5 c-0.521,-6.352 -1.447,-13.318 -2.75,-20.75" fill="none" stroke="#000000" stroke-width="2" /><path d="M17,93.5 c-0.103,-7.107 -0.572,-14.597 -1.5,-23" fill="none" stroke="#000000" stroke-width="2" /><path d="M4,94.5 c2.512,-7.089 4.387,-15.212 5.5,-24.5" fill="none" stroke="#000000" stroke-width="2" /><path d="M85.5,80.5 c3.444,0.368 5.08,0.5 6,0.5 c2.625,0 3,-0.542 3,-8 v-42.0 h-26.0 v51.0" fill="none" stroke="#000000" stroke-width="2" /><path d="M53,6 c-1.164,4.937 -2.473,9.308 -4,13.5" fill="none" stroke="#000000" stroke-width="2" /></svg>