<?xml version='1.0' encoding='utf-8'?>
<svg xmlns="http://www.w3.org/2000/svg" height="100px" version="1.0" viewBox="0 0 100 100" width="100px" x="0px" y="0px">
<line fill="none" stroke="#000000" stroke-width="2" x1="14.5" x2="28.5" y1="11" y2="11" /><line fill="none" stroke="#000000" stroke-width="2" x1="9" x2="34" y1="45" y2="45" /><line fill="none" stroke="#000000" stroke-width="2" x1="21.5" x2="21.5" y1="27" y2="64" /><line fill="none" stroke="#000000" stroke-width="2" x1="82" x2="53" y1="17.5" y2="17.5" /><line fill="none" stroke="#000000" stroke-width="2" x1="45.5" x2="90.5" y1="89" y2="89" /><line fill="none" stroke="#000000" stroke-width="2" x1="67.5" x2="67.5" y1="51.5" y2="26.5" /><line fill="none" stroke="#000000" stroke-width="2" x1="45.5" x2="90.5" y1="74" y2="74" /><polyline fill="none" points="8,66 8,26 35,26 35,65 9,65" stroke="#000000" stroke-width="2" /><polyline fill="none" points="90.5,94.5 90.5,59.5 44.5,59.5 44.5,94.5" stroke="#000000" stroke-width="2" /><polyline fill="none" points="42.5,51.5 93.5,51.5 93.5,25.5 41.5,25.5 41.5,52.5" stroke="#000000" stroke-width="2" /><path d="M21,26 c2.311,-4.407 4.655,-9.57 6.57,-14.37" fill="none" stroke="#000000" stroke-width="2" /><path d="M3.5,32.5 c5.917,-9.088 10.051,-18.157 13.5,-30" fill="none" stroke="#000000" stroke-width="2" /><path d="M38.5,87.5 c-0.941,-5.596 -2.322,-12.039 -4,-18.5" fill="none" stroke="#000000" stroke-width="2" /><path d="M28,90.5 c-0.522,-6.352 -1.447,-13.318 -2.75,-20.75" fill="none" stroke="#000000" stroke-width="2" /><path d="M17.5,93.5 c-0.103,-7.107 -0.572,-14.597 -1.5,-23" fill="none" stroke="#000000" stroke-width="2" /><path d="M4,94.5 c2.512,-7.089 4.387,-15.212 5.5,-24.5" fill="none" stroke="#000000" stroke-width="2" /><path d="M98.5,24 c-11.791,-5.976 -21.654,-12.502 -31,-20.3 c-9.348,7.797 -19.208,14.324 -31,20.3" fill="none" stroke="#000000" stroke-width="2" /><path d="M75,47.5 c4.253,-5.033 7.717,-11.207 10,-18" fill="none" stroke="#000000" stroke-width="2" /><path d="M59,47.5 c-2.819,-6.076 -6.159,-12.099 -10,-18" fill="none" stroke="#000000" stroke-width="2" /></svg>