<?xml version='1.0' encoding='utf-8'?>
<svg xmlns="http://www.w3.org/2000/svg" height="100px" version="1.0" viewBox="0 0 100 100" width="100px" x="0px" y="0px">
<line fill="none" stroke="#000000" stroke-width="2" x1="42.5" x2="4.5" y1="43.5" y2="43.5" /><line fill="none" stroke="#000000" stroke-width="2" x1="49.5" x2="89" y1="27" y2="27" /><line fill="none" stroke="#000000" stroke-width="2" x1="49.5" x2="96" y1="51" y2="51" /><polyline fill="none" points="12.5,43.5 12.5,11.5 41.5,11.5" stroke="#000000" stroke-width="2" /><path d="M33,11.5 v69.5 c0,8.384 -0.664,9 -5.5,9 c-1.701,0 -6.168,-0.171 -11.5,-0.5" fill="none" stroke="#000000" stroke-width="2" /><path d="M3.5,80.5 c10.334,-9.195 19.949,-21.586 28.5,-37" fill="none" stroke="#000000" stroke-width="2" /><path d="M85,81.5 c-1.74,-4.006 -3.701,-8.256 -6,-13" fill="none" stroke="#000000" stroke-width="2" /><path d="M71,85.5 c-1.184,-4.938 -2.643,-10.145 -4.5,-16" fill="none" stroke="#000000" stroke-width="2" /><path d="M57,89.5 c-0.627,-5.871 -1.585,-12.033 -3,-19" fill="none" stroke="#000000" stroke-width="2" /><path d="M37.5,92 c2.822,-6.483 5.301,-13.668 7.5,-22" fill="none" stroke="#000000" stroke-width="2" /><path d="M49.5,40.5 h40.5 V14.0 h-41.5 v49.0 h45.0 c0,22.796 -3.273,28.5 -8.5,28.5 c-2.529,0 -6.451,-0.328 -11,-1" fill="none" stroke="#000000" stroke-width="2" /><path d="M66,2.5 c-0.889,4.216 -1.853,7.964 -3,11.5" fill="none" stroke="#000000" stroke-width="2" /></svg>