<?xml version='1.0' encoding='utf-8'?>
<svg xmlns="http://www.w3.org/2000/svg" height="100px" version="1.0" viewBox="0 0 100 100" width="100px" x="0px" y="0px">
<line fill="none" stroke="#000000" stroke-width="2" x1="20" x2="78.5" y1="49.5" y2="49.5" /><line fill="none" stroke="#000000" stroke-width="2" x1="19" x2="93" y1="66.5" y2="66.5" /><polyline fill="none" points="92.5,48 92.5,32.5 7.5,32.5 7.5,48" stroke="#000000" stroke-width="2" /><path d="M76,87.5 c-2.305,-2.783 -4.887,-5.723 -8,-9" fill="none" stroke="#000000" stroke-width="2" /><path d="M55,89.75 c-1.569,-3.323 -3.487,-6.819 -6,-10.75" fill="none" stroke="#000000" stroke-width="2" /><path d="M34,92 c-0.834,-3.863 -2.088,-7.917 -4,-12.5" fill="none" stroke="#000000" stroke-width="2" /><path d="M6,93 c3.813,-4.272 7.107,-8.999 10,-14.5" fill="none" stroke="#000000" stroke-width="2" /><path d="M20,58.5 h58.5 v-18.0 H19.0 v34.0 h70.0 c0,12.352 -4.155,18 -10.5,18 c-3.191,0 -7.793,-0.141 -13.5,-0.5" fill="none" stroke="#000000" stroke-width="2" /><path d="M41.5,32.5 c-1.16,2.937 -2.449,5.541 -4,8" fill="none" stroke="#000000" stroke-width="2" /><path d="M15.5,7.5 c-0.993,4.403 -2.971,8.36 -6,12" fill="none" stroke="#000000" stroke-width="2" /><path d="M60.5,7.5 c-0.993,4.403 -2.971,8.36 -6,12" fill="none" stroke="#000000" stroke-width="2" /><path d="M7,28.5 c13.455,-2.713 21,-10.759 21,-21.5 v-2.5" fill="none" stroke="#000000" stroke-width="2" /><path d="M48,28.5 c-8.825,-2.99 -16.391,-8.256 -21,-14.5" fill="none" stroke="#000000" stroke-width="2" /><path d="M52,28.5 c13.455,-2.713 21,-10.759 21,-21.5 v-2.5" fill="none" stroke="#000000" stroke-width="2" /><path d="M93,28.5 c-8.825,-2.99 -16.391,-8.256 -21,-14.5" fill="none" stroke="#000000" stroke-width="2" /><path d="M90.5,7 c-1.704,4.512 -4.326,8.444 -8,12" fill="none" stroke="#000000" stroke-width="2" /><path d="M45.5,7 c-1.704,4.512 -4.326,8.444 -8,12" fill="none" stroke="#000000" stroke-width="2" /></svg>