<?xml version='1.0' encoding='utf-8'?>
<svg xmlns="http://www.w3.org/2000/svg" height="100px" version="1.0" viewBox="0 0 100 100" width="100px" x="0px" y="0px">
<line fill="none" stroke="#000000" stroke-width="2" x1="68" x2="68" y1="40.5" y2="19" /><line fill="none" stroke="#000000" stroke-width="2" x1="92" x2="44.5" y1="19" y2="19" /><line fill="none" stroke="#000000" stroke-width="2" x1="44" x2="91" y1="26.5" y2="26.5" /><line fill="none" stroke="#000000" stroke-width="2" x1="44" x2="91" y1="34" y2="34" /><line fill="none" stroke="#000000" stroke-width="2" x1="28" x2="28" y1="44" y2="22" /><line fill="none" stroke="#000000" stroke-width="2" x1="51.5" x2="51.5" y1="11.5" y2="2" /><line fill="none" stroke="#000000" stroke-width="2" x1="23.5" x2="85" y1="55" y2="55" /><line fill="none" stroke="#000000" stroke-width="2" x1="22.5" x2="96" y1="68.5" y2="68.5" /><polyline fill="none" points="44,19.5 44,41.5 93,41.5" stroke="#000000" stroke-width="2" /><path d="M72,11.5 c-1.352,2.898 -2.381,4.837 -4,7.5" fill="none" stroke="#000000" stroke-width="2" /><path d="M35.5,11.5 c-4.104,7.872 -11.069,14.993 -20,20.5" fill="none" stroke="#000000" stroke-width="2" /><path d="M48,11.5 c-3.393,7.875 -9.133,14.993 -16.5,20.5" fill="none" stroke="#000000" stroke-width="2" /><path d="M3.5,92 c4.898,-10.415 9,-30.94 9,-47 v-33.5 h80.5" fill="none" stroke="#000000" stroke-width="2" /><path d="M81,87.5 c-2.305,-2.783 -4.887,-5.723 -8,-9" fill="none" stroke="#000000" stroke-width="2" /><path d="M61,89.75 c-1.569,-3.323 -3.487,-6.82 -6,-10.75" fill="none" stroke="#000000" stroke-width="2" /><path d="M41,92 c-0.834,-3.863 -2.088,-7.917 -4,-12.5" fill="none" stroke="#000000" stroke-width="2" /><path d="M13.5,93 c3.813,-4.272 7.107,-8.999 10,-14.5" fill="none" stroke="#000000" stroke-width="2" /><path d="M23.5,62 h61.5 V48.0 h-62.5 v27.0 h69.5 c0,12.164 -3.846,17.5 -9.5,17.5 c-2.904,0 -7.307,-0.141 -12.5,-0.5" fill="none" stroke="#000000" stroke-width="2" /><path d="M49,41.5 c-1.16,2.386 -2.449,4.502 -4,6.5" fill="none" stroke="#000000" stroke-width="2" /></svg>