<?xml version='1.0' encoding='utf-8'?>
<svg xmlns="http://www.w3.org/2000/svg" height="100px" version="1.0" viewBox="0 0 100 100" width="100px" x="0px" y="0px">
<line fill="none" stroke="#000000" stroke-width="2" x1="16.5" x2="43.5" y1="57" y2="57" /><line fill="none" stroke="#000000" stroke-width="2" x1="5" x2="45" y1="12" y2="12" /><line fill="none" stroke="#000000" stroke-width="2" x1="25" x2="25" y1="50.5" y2="4" /><line fill="none" stroke="#000000" stroke-width="2" x1="47" x2="93" y1="43" y2="43" /><line fill="none" stroke="#000000" stroke-width="2" x1="91.5" x2="48.5" y1="17.5" y2="17.5" /><path d="M93.5,90 h-20.0 c-35.42,0 -51.107,-8.998 -57.5,-31.5" fill="none" stroke="#000000" stroke-width="2" /><path d="M5,73 c6.15,-6.172 11.439,-14.287 15,-23" fill="none" stroke="#000000" stroke-width="2" /><path d="M5,92.5 c16.182,-6.291 30.543,-19.573 37.592,-34.917" fill="none" stroke="#000000" stroke-width="2" /><path d="M5,37 c5.064,-5.621 8.635,-13.317 10,-22" fill="none" stroke="#000000" stroke-width="2" /><path d="M21,33.5 c-2.483,-4.202 -4.986,-7.317 -8,-10" fill="none" stroke="#000000" stroke-width="2" /><path d="M29,33.5 c3.858,-5.235 6.369,-11.289 7.5,-18.5" fill="none" stroke="#000000" stroke-width="2" /><path d="M45,37 c-3.094,-5.438 -6.68,-10.024 -10.5,-13.5" fill="none" stroke="#000000" stroke-width="2" /><path d="M5.5,51 c9.617,-5.892 15.503,-11.335 19.5,-17.5" fill="none" stroke="#000000" stroke-width="2" /><path d="M44.5,51 c-9.617,-5.893 -15.504,-11.335 -19.5,-17.5" fill="none" stroke="#000000" stroke-width="2" /><path d="M42.5,81.5 c16.811,-7.963 28,-24.321 28,-40 v-37.0" fill="none" stroke="#000000" stroke-width="2" /><path d="M93.5,81.5 c-13.685,-7.812 -23,-24.321 -23,-40" fill="none" stroke="#000000" stroke-width="2" /></svg>