<?xml version='1.0' encoding='utf-8'?>
<svg xmlns="http://www.w3.org/2000/svg" height="100px" version="1.0" viewBox="0 0 100 100" width="100px" x="0px" y="0px">
<line fill="none" stroke="#000000" stroke-width="2" x1="44" x2="93.5" y1="10.5" y2="10.5" /><line fill="none" stroke="#000000" stroke-width="2" x1="16" x2="40.5" y1="57" y2="57" /><line fill="none" stroke="#000000" stroke-width="2" x1="59.5" x2="59.5" y1="26" y2="78" /><line fill="none" stroke="#000000" stroke-width="2" x1="77.5" x2="77.5" y1="78" y2="26" /><line fill="none" stroke="#000000" stroke-width="2" x1="76.5" x2="60.5" y1="42" y2="42" /><line fill="none" stroke="#000000" stroke-width="2" x1="76.5" x2="60.5" y1="60" y2="60" /><line fill="none" stroke="#000000" stroke-width="2" x1="5" x2="41" y1="12" y2="12" /><line fill="none" stroke="#000000" stroke-width="2" x1="23.5" x2="23.5" y1="50.5" y2="4" /><polyline fill="none" points="47.5,79 90.5,79 90.5,25 46.5,25 46.5,80" stroke="#000000" stroke-width="2" /><path d="M93.5,90 h-25.0 c-32.764,0 -47.586,-8.998 -53.5,-31.5" fill="none" stroke="#000000" stroke-width="2" /><path d="M68.5,10.5 c-0.771,5.379 -1.764,10.119 -3,14.5" fill="none" stroke="#000000" stroke-width="2" /><path d="M5,73 c5.721,-6.193 10.678,-14.287 14,-23" fill="none" stroke="#000000" stroke-width="2" /><path d="M5,92.5 c14.885,-6.286 28.096,-19.559 34.579,-34.89" fill="none" stroke="#000000" stroke-width="2" /><path d="M5,37 c4.563,-5.647 7.804,-13.31 9,-22" fill="none" stroke="#000000" stroke-width="2" /><path d="M19.5,33.5 c-2.328,-4.202 -4.676,-7.317 -7.5,-10" fill="none" stroke="#000000" stroke-width="2" /><path d="M27.5,33.5 c3.344,-5.235 5.52,-11.289 6.5,-18.5" fill="none" stroke="#000000" stroke-width="2" /><path d="M42,37 c-2.945,-5.438 -6.361,-10.024 -10,-13.5" fill="none" stroke="#000000" stroke-width="2" /><path d="M5.5,51 c8.877,-5.892 14.311,-11.335 18,-17.5" fill="none" stroke="#000000" stroke-width="2" /><path d="M41.5,51 c-8.878,-5.893 -14.312,-11.335 -18,-17.5" fill="none" stroke="#000000" stroke-width="2" /></svg>