<?xml version='1.0' encoding='utf-8'?>
<svg xmlns="http://www.w3.org/2000/svg" height="100px" version="1.0" viewBox="0 0 100 100" width="100px" x="0px" y="0px">
<line fill="none" stroke="#000000" stroke-width="2" x1="41" x2="7" y1="14.5" y2="14.5" /><line fill="none" stroke="#000000" stroke-width="2" x1="38.5" x2="8" y1="28" y2="28" /><line fill="none" stroke="#000000" stroke-width="2" x1="25" x2="25" y1="41.5" y2="4" /><line fill="none" stroke="#000000" stroke-width="2" x1="5.5" x2="42.5" y1="41.5" y2="41.5" /><line fill="none" stroke="#000000" stroke-width="2" x1="16.5" x2="40.5" y1="54" y2="54" /><line fill="none" stroke="#000000" stroke-width="2" x1="65" x2="65" y1="80.5" y2="19.5" /><line fill="none" stroke="#000000" stroke-width="2" x1="86" x2="43" y1="45" y2="45" /><path d="M93.5,90 h-25.0 c-32.764,0 -47.165,-8.966 -53,-33.5" fill="none" stroke="#000000" stroke-width="2" /><path d="M5,71.5 c7.21,-7.873 13.199,-18.665 16.5,-30" fill="none" stroke="#000000" stroke-width="2" /><path d="M5,92.5 c14.721,-6.661 28.086,-21.127 34.567,-37.862" fill="none" stroke="#000000" stroke-width="2" /><path d="M39,34 c7.042,-7.919 12.92,-19.022 16,-30" fill="none" stroke="#000000" stroke-width="2" /><path d="M83.5,70 c-7.094,-10.954 -12.736,-18.757 -18,-25" fill="none" stroke="#000000" stroke-width="2" /><path d="M40,75 c10.915,-8.866 18.896,-18.968 24,-30" fill="none" stroke="#000000" stroke-width="2" /><path d="M58,40.5 c-2.555,-6.011 -5.344,-11.948 -8,-17" fill="none" stroke="#000000" stroke-width="2" /><path d="M72,40.5 c4.007,-5.885 7.623,-12.62 10,-18.5" fill="none" stroke="#000000" stroke-width="2" /><path d="M51,15 h41.0 c-1.781,63.839 -1.932,64 -10.5,64 c-2.98,0 -5.994,-0.161 -9,-0.5" fill="none" stroke="#000000" stroke-width="2" /></svg>