<?xml version='1.0' encoding='utf-8'?>
<svg xmlns="http://www.w3.org/2000/svg" height="100px" version="1.0" viewBox="0 0 100 100" width="100px" x="0px" y="0px">
<line fill="none" stroke="#000000" stroke-width="2" x1="7" x2="93" y1="25" y2="25" /><line fill="none" stroke="#000000" stroke-width="2" x1="50" x2="50" y1="41" y2="11.5" /><path d="M14,12.5 c25,0 49.088,-1.53 72,-4.5" fill="none" stroke="#000000" stroke-width="2" /><path d="M6,48 c21.002,-7.339 34.648,-15.032 43,-23" fill="none" stroke="#000000" stroke-width="2" /><path d="M94,48 c-21.002,-7.339 -34.648,-15.032 -43,-23" fill="none" stroke="#000000" stroke-width="2" /><path d="M94,66 c-21.49,-7.977 -35.455,-16.339 -44,-25 c-8.546,8.661 -22.51,17.023 -44,25" fill="none" stroke="#000000" stroke-width="2" /><path d="M50,51.5 v35.5 c0,4.221 -0.27,4.5 -5.5,4.5 c-1.527,0 -5.535,-0.147 -11,-0.5" fill="none" stroke="#000000" stroke-width="2" /><path d="M10.5,90 c11.293,-3.306 22.463,-8.612 32,-15" fill="none" stroke="#000000" stroke-width="2" /><path d="M89.5,91 c-10.73,-6.807 -21.883,-12.228 -32,-15.5" fill="none" stroke="#000000" stroke-width="2" /><path d="M39.5,72 c-4.268,-3.758 -9.158,-7.317 -14.5,-10.5" fill="none" stroke="#000000" stroke-width="2" /><path d="M75,61.5 c-4.69,3.564 -10.08,6.956 -16,10" fill="none" stroke="#000000" stroke-width="2" /></svg>