<?xml version='1.0' encoding='utf-8'?>
<svg xmlns="http://www.w3.org/2000/svg" height="100px" version="1.0" viewBox="0 0 100 100" width="100px" x="0px" y="0px">
<line fill="none" stroke="#000000" stroke-width="2" x1="27.5" x2="27.5" y1="50" y2="11" /><line fill="none" stroke="#000000" stroke-width="2" x1="46.5" x2="7" y1="24.5" y2="24.5" /><path d="M6.5,48.5 c9.699,-7.899 15.939,-15.813 20,-24.5" fill="none" stroke="#000000" stroke-width="2" /><path d="M46.5,7.5 c-13.172,2.777 -25.342,4.704 -38,6" fill="none" stroke="#000000" stroke-width="2" /><path d="M43,39 c-4.623,-4.684 -9.9,-9.8 -15,-14.5" fill="none" stroke="#000000" stroke-width="2" /><path d="M94,66 c-21.49,-7.817 -35.455,-16.013 -44,-24.5 c-8.546,8.487 -22.51,16.683 -44,24.5" fill="none" stroke="#000000" stroke-width="2" /><path d="M50,51.5 v35.5 c0,4.221 -0.27,4.5 -5.5,4.5 c-1.527,0 -5.535,-0.147 -11,-0.5" fill="none" stroke="#000000" stroke-width="2" /><path d="M10.5,90 c11.293,-3.306 22.463,-8.612 32,-15" fill="none" stroke="#000000" stroke-width="2" /><path d="M89.5,91 c-10.73,-6.807 -21.883,-12.228 -32,-15.5" fill="none" stroke="#000000" stroke-width="2" /><path d="M39.5,72 c-4.268,-3.758 -9.158,-7.317 -14.5,-10.5" fill="none" stroke="#000000" stroke-width="2" /><path d="M75,61.5 c-4.69,3.564 -10.08,6.956 -16,10" fill="none" stroke="#000000" stroke-width="2" /><path d="M59,14.5 h32.0 c0,26.704 -3.055,33 -7.5,33 c-2.898,0 -7.529,-0.175 -12.5,-0.5" fill="none" stroke="#000000" stroke-width="2" /><path d="M49,27.5 c5.818,-5.501 12.289,-15.556 15,-23" fill="none" stroke="#000000" stroke-width="2" /><path d="M59.5,42.5 c7.178,-6.487 15.065,-18.829 18,-28" fill="none" stroke="#000000" stroke-width="2" /></svg>