<?xml version='1.0' encoding='utf-8'?>
<svg xmlns="http://www.w3.org/2000/svg" height="100px" version="1.0" viewBox="0 0 100 100" width="100px" x="0px" y="0px">
<line fill="none" stroke="#000000" stroke-width="2" x1="59" x2="87.5" y1="58" y2="58" /><line fill="none" stroke="#000000" stroke-width="2" x1="12.5" x2="41" y1="58" y2="58" /><line fill="none" stroke="#000000" stroke-width="2" x1="41" x2="12.5" y1="75" y2="75" /><line fill="none" stroke="#000000" stroke-width="2" x1="58" x2="58" y1="10" y2="86" /><polyline fill="none" points="58,41.5 87.5,41.5 87.5,75 59,75" stroke="#000000" stroke-width="2" /><polyline fill="none" points="12.5,83 12.5,41.5 42,41.5" stroke="#000000" stroke-width="2" /><polyline fill="none" points="41,28 14.5,28 14.5,10 85.5,10 85.5,28 59,28" stroke="#000000" stroke-width="2" /><path d="M42,10 v71.5 c0,9.922 0.088,10 26.5,10 c25.633,0 25.848,-0.18 27.5,-19.5" fill="none" stroke="#000000" stroke-width="2" /></svg>