<?xml version='1.0' encoding='utf-8'?>
<svg xmlns="http://www.w3.org/2000/svg" height="100px" version="1.0" viewBox="0 0 100 100" width="100px" x="0px" y="0px">
<line fill="none" stroke="#000000" stroke-width="2" x1="49.5" x2="49.5" y1="64.5" y2="93" /><line fill="none" stroke="#000000" stroke-width="2" x1="82.5" x2="19.5" y1="64.5" y2="64.5" /><line fill="none" stroke="#000000" stroke-width="2" x1="82.5" x2="19.5" y1="52.5" y2="52.5" /><line fill="none" stroke="#000000" stroke-width="2" x1="50" x2="50" y1="12.5" y2="2" /><line fill="none" stroke="#000000" stroke-width="2" x1="50" x2="50" y1="47" y2="28" /><line fill="none" stroke="#000000" stroke-width="2" x1="91" x2="9" y1="12.5" y2="12.5" /><line fill="none" stroke="#000000" stroke-width="2" x1="82.5" x2="82.5" y1="48" y2="93.5" /><line fill="none" stroke="#000000" stroke-width="2" x1="62" x2="62" y1="44.5" y2="21" /><path d="M24,88.5 c5.715,-5.287 10.309,-11.972 13,-19" fill="none" stroke="#000000" stroke-width="2" /><path d="M50,29.5 c5.154,-3.947 9.311,-8.83 12,-14" fill="none" stroke="#000000" stroke-width="2" /><path d="M74,88.5 c-3.482,-6.276 -8.014,-12.95 -13,-19" fill="none" stroke="#000000" stroke-width="2" /><path d="M6.5,93.5 c8.207,-5.784 13,-15.734 13,-30.5 v-15.5" fill="none" stroke="#000000" stroke-width="2" /><path d="M5.5,49.5 c9.9,-5.723 16.507,-16.034 17,-28" fill="none" stroke="#000000" stroke-width="2" /><path d="M9,21.5 h29.0 c-0.576,22.221 -1.971,24.5 -5.5,24.5 c-1.881,0 -6.947,-0.241 -10,-0.5" fill="none" stroke="#000000" stroke-width="2" /><path d="M61,22.001 c10.43,0 20.761,-1.412 30,-4.001" fill="none" stroke="#000000" stroke-width="2" /><path d="M55,46 c8.27,-1.388 15.457,-3.164 24,-6" fill="none" stroke="#000000" stroke-width="2" /><path d="M94.5,49.5 c-9.922,-5.735 -16.486,-16.022 -17,-28.5" fill="none" stroke="#000000" stroke-width="2" /><path d="M47.5,27 c-2.746,-3.848 -6.409,-7.909 -10.5,-11.5" fill="none" stroke="#000000" stroke-width="2" /></svg>