<?xml version='1.0' encoding='utf-8'?>
<svg xmlns="http://www.w3.org/2000/svg" height="100px" version="1.0" viewBox="0 0 100 100" width="100px" x="0px" y="0px">
<line fill="none" stroke="#000000" stroke-width="2" x1="50.5" x2="50.5" y1="3" y2="25" /><line fill="none" stroke="#000000" stroke-width="2" x1="7" x2="93" y1="25" y2="25" /><line fill="none" stroke="#000000" stroke-width="2" x1="86" x2="50.5" y1="12.5" y2="12.5" /><line fill="none" stroke="#000000" stroke-width="2" x1="26" x2="26" y1="25" y2="6" /><line fill="none" stroke="#000000" stroke-width="2" x1="11.5" x2="11.5" y1="30" y2="95" /><line fill="none" stroke="#000000" stroke-width="2" x1="88.5" x2="88.5" y1="30" y2="95" /><line fill="none" stroke="#000000" stroke-width="2" x1="11.5" x2="88.5" y1="89" y2="89" /><line fill="none" stroke="#000000" stroke-width="2" x1="12.5" x2="88.5" y1="57" y2="57" /><path d="M16.5,51.5 c8.242,-5.786 14.26,-13.526 17,-22" fill="none" stroke="#000000" stroke-width="2" /><path d="M48.5,51.5 c-5.602,-5.48 -12.039,-10.064 -19,-13.5" fill="none" stroke="#000000" stroke-width="2" /><path d="M51.5,51.5 c8.242,-5.786 14.26,-13.526 17,-22" fill="none" stroke="#000000" stroke-width="2" /><path d="M83.5,51.5 c-5.602,-5.48 -12.039,-10.064 -19,-13.5" fill="none" stroke="#000000" stroke-width="2" /><path d="M16.5,83.5 c8.242,-5.786 14.26,-13.526 17,-22" fill="none" stroke="#000000" stroke-width="2" /><path d="M48.5,83.5 c-5.602,-5.48 -12.039,-10.064 -19,-13.5" fill="none" stroke="#000000" stroke-width="2" /><path d="M51.5,83.5 c8.242,-5.786 14.26,-13.526 17,-22" fill="none" stroke="#000000" stroke-width="2" /><path d="M83.5,83.5 c-5.602,-5.48 -12.039,-10.064 -19,-13.5" fill="none" stroke="#000000" stroke-width="2" /></svg>