<?xml version='1.0' encoding='utf-8'?>
<svg xmlns="http://www.w3.org/2000/svg" height="100px" version="1.0" viewBox="0 0 100 100" width="100px" x="0px" y="0px">
<line fill="none" stroke="#000000" stroke-width="2" x1="48.5" x2="96" y1="47.5" y2="47.5" /><line fill="none" stroke="#000000" stroke-width="2" x1="93.5" x2="50.5" y1="11" y2="11" /><line fill="none" stroke="#000000" stroke-width="2" x1="69.5" x2="62" y1="11" y2="47.5" /><line fill="none" stroke="#000000" stroke-width="2" x1="54.5" x2="90.5" y1="86.5" y2="86.5" /><line fill="none" stroke="#000000" stroke-width="2" x1="27" x2="27" y1="3" y2="25" /><line fill="none" stroke="#000000" stroke-width="2" x1="5.5" x2="48.5" y1="25" y2="25" /><line fill="none" stroke="#000000" stroke-width="2" x1="45" x2="27" y1="12.5" y2="12.5" /><line fill="none" stroke="#000000" stroke-width="2" x1="15" x2="15" y1="25" y2="6" /><line fill="none" stroke="#000000" stroke-width="2" x1="8.5" x2="8.5" y1="30" y2="95" /><line fill="none" stroke="#000000" stroke-width="2" x1="45.5" x2="45.5" y1="30" y2="95" /><line fill="none" stroke="#000000" stroke-width="2" x1="8.5" x2="45.5" y1="89" y2="89" /><line fill="none" stroke="#000000" stroke-width="2" x1="9.5" x2="45.5" y1="57" y2="57" /><polyline fill="none" points="88,47.5 88,28 52.5,28" stroke="#000000" stroke-width="2" /><polyline fill="none" points="90.5,92.5 90.5,59 53.5,59 53.5,92.5" stroke="#000000" stroke-width="2" /><path d="M11.5,51.5 c3.869,-5.793 6.711,-13.526 8,-22" fill="none" stroke="#000000" stroke-width="2" /><path d="M26.5,51.5 c-2.592,-5.48 -5.725,-10.115 -9,-13.5" fill="none" stroke="#000000" stroke-width="2" /><path d="M27.5,51.5 c3.869,-5.793 6.711,-13.526 8,-22" fill="none" stroke="#000000" stroke-width="2" /><path d="M42.5,51.5 c-2.592,-5.48 -5.725,-10.115 -9,-13.5" fill="none" stroke="#000000" stroke-width="2" /><path d="M11.5,83.5 c3.869,-5.793 6.711,-13.526 8,-22" fill="none" stroke="#000000" stroke-width="2" /><path d="M26.5,83.5 c-2.592,-5.48 -5.725,-10.115 -9,-13.5" fill="none" stroke="#000000" stroke-width="2" /><path d="M27.5,83.5 c3.869,-5.793 6.711,-13.526 8,-22" fill="none" stroke="#000000" stroke-width="2" /><path d="M42.5,83.5 c-2.592,-5.48 -5.725,-10.115 -9,-13.5" fill="none" stroke="#000000" stroke-width="2" /></svg>