<?xml version='1.0' encoding='utf-8'?>
<svg xmlns="http://www.w3.org/2000/svg" height="100px" version="1.0" viewBox="0 0 100 100" width="100px" x="0px" y="0px">
<line fill="none" stroke="#000000" stroke-width="2" x1="56" x2="10" y1="21" y2="21" /><path d="M71,19 c8.405,5.253 14.394,9.617 22,16" fill="none" stroke="#000000" stroke-width="2" /><path d="M34,6 v44.0 c0,10.617 -3.037,16 -11,16 c-8.188,0 -13,-5.084 -13,-16 s4.813,-16 13,-16 c6.167,0 11,5.648 11,16 c0,16.768 -6,24.653 -6,30 c0,6.492 4.086,9 27,9 c22.471,0 27,-3.073 27,-12 c0,-5.767 -1.544,-14.363 -5,-25" fill="none" stroke="#000000" stroke-width="2" /></svg>