<?xml version='1.0' encoding='utf-8'?>
<svg xmlns="http://www.w3.org/2000/svg" height="100px" version="1.0" viewBox="0 0 100 100" width="100px" x="0px" y="0px">
<line fill="none" stroke="#000000" stroke-width="2" x1="36" x2="91" y1="38" y2="38" /><line fill="none" stroke="#000000" stroke-width="2" x1="36" x2="78.5" y1="15" y2="15" /><path d="M16,91 c-3.537,-13.203 -5,-24.992 -5,-40 s1.463,-26.797 5,-40" fill="none" stroke="#000000" stroke-width="2" /><path d="M70,15 v57.0 c0,12.862 -5.5,18 -17,18 c-11.447,0 -18,-5.175 -18,-14 c0,-7.338 5.777,-12 18,-12 c9.731,0 20.032,5.005 36,20" fill="none" stroke="#000000" stroke-width="2" /><path d="M98,12 c0,5.522 -4.477,10 -10,10 s-10,-4.478 -10,-10 s4.477,-10 10,-10 S98,6.478 98,12" fill="none" stroke="#000000" stroke-width="2" /></svg>