<?xml version='1.0' encoding='utf-8'?>
<svg xmlns="http://www.w3.org/2000/svg" height="100px" version="1.0" viewBox="0 0 100 100" width="100px" x="0px" y="0px">
<line fill="none" stroke="#000000" stroke-width="2" x1="35" x2="91" y1="29" y2="29" /><path d="M16,91 c-3.537,-13.203 -5,-24.992 -5,-40 s1.463,-26.797 5,-40" fill="none" stroke="#000000" stroke-width="2" /><path d="M70,9 v63.0 c0,12.862 -5.5,18 -17,18 c-12.332,0 -19,-5.321 -19,-15 c0,-8.235 6.198,-13 19,-13 c9.731,0 20.031,5.006 36,20" fill="none" stroke="#000000" stroke-width="2" /><path d="M98,12 c0,5.522 -4.477,10 -10,10 s-10,-4.478 -10,-10 s4.477,-10 10,-10 S98,6.478 98,12" fill="none" stroke="#000000" stroke-width="2" /></svg>