<?xml version='1.0' encoding='utf-8'?>
<svg xmlns="http://www.w3.org/2000/svg" height="100px" version="1.0" viewBox="0 0 100 100" width="100px" x="0px" y="0px">
<line fill="none" stroke="#000000" stroke-width="2" x1="36" x2="91" y1="38" y2="38" /><line fill="none" stroke="#000000" stroke-width="2" x1="36" x2="83.5" y1="15" y2="15" /><path d="M16,91 c-3.537,-13.203 -5,-24.992 -5,-40 s1.463,-26.797 5,-40" fill="none" stroke="#000000" stroke-width="2" /><path d="M70,15 v57.0 c0,12.862 -5.5,18 -17,18 c-11.447,0 -18,-5.175 -18,-14 c0,-7.338 5.777,-12 18,-12 c9.731,0 20.032,5.005 36,20" fill="none" stroke="#000000" stroke-width="2" /><path d="M88.6,2 c3.182,4.768 6.711,10.565 9.4,15.4" fill="none" stroke="#000000" stroke-width="2" /><path d="M76.5,4 c3.143,4.655 6.564,10.262 9.2,15" fill="none" stroke="#000000" stroke-width="2" /></svg>