<?xml version='1.0' encoding='utf-8'?>
<svg xmlns="http://www.w3.org/2000/svg" height="100px" version="1.0" viewBox="0 0 100 100" width="100px" x="0px" y="0px">
<path d="M55,7 c1.958,22.369 7.207,36.842 19,55 c-10.912,-4.789 -20.8,-7 -30,-7 c-17.936,0 -26,6.475 -26,16 c0,12.049 10.158,19 34,19 c7.875,0 15.276,-0.638 23,-2" fill="none" stroke="#000000" stroke-width="2" /><path d="M13,22.5 c21.37,0 43.672,-0.752 65,-2" fill="none" stroke="#000000" stroke-width="2" /><path d="M10,41.5 c25.645,0 52.402,-0.704 78,-2" fill="none" stroke="#000000" stroke-width="2" /><path d="M87.6,2 c3.182,4.768 6.711,10.565 9.4,15.4" fill="none" stroke="#000000" stroke-width="2" /><path d="M75.5,4 c3.143,4.655 6.564,10.262 9.2,15" fill="none" stroke="#000000" stroke-width="2" /></svg>