<?xml version='1.0' encoding='utf-8'?>
<svg xmlns="http://www.w3.org/2000/svg" height="100px" version="1.0" viewBox="0 0 100 100" width="100px" x="0px" y="0px">
<path d="M22,10 c4.232,19.911 10.143,41.18 18,64" fill="none" stroke="#000000" stroke-width="2" /><path d="M70,6 c-14.766,55.104 -34.04,78 -46,78 c-7.129,0 -14,-8.125 -14,-22 c0,-21.717 17.041,-38 42,-38 c22.607,0 37,13.492 37,33 c0,21.162 -8.711,31 -20,31 c-8.281,0 -14,-5.046 -14,-12 c0,-6.452 5.146,-11 14,-11 c8.443,0 15.3,3.802 25,16" fill="none" stroke="#000000" stroke-width="2" /></svg>