<?xml version='1.0' encoding='utf-8'?>
<svg xmlns="http://www.w3.org/2000/svg" height="100px" version="1.0" viewBox="0 0 100 100" width="100px" x="0px" y="0px">
<line fill="none" stroke="#000000" stroke-width="2" x1="68" x2="11" y1="22" y2="22" /><path d="M9,91 c9.516,-24.79 17.857,-54.833 23,-84" fill="none" stroke="#000000" stroke-width="2" /><path d="M88,86 c-7.216,1.272 -14.795,2 -21,2 c-16.372,0 -26,-6.304 -26,-14 c0,-4.178 3.019,-8.389 12,-14" fill="none" stroke="#000000" stroke-width="2" /><path d="M47,43 c13.037,-2.043 25.6,-3 39,-3" fill="none" stroke="#000000" stroke-width="2" /><path d="M84.6,4 c3.182,4.768 6.711,10.565 9.4,15.4" fill="none" stroke="#000000" stroke-width="2" /><path d="M72.5,6 c3.143,4.655 6.564,10.262 9.2,15" fill="none" stroke="#000000" stroke-width="2" /></svg>