<?xml version='1.0' encoding='utf-8'?>
<svg xmlns="http://www.w3.org/2000/svg" height="100px" version="1.0" viewBox="0 0 100 100" width="100px" x="0px" y="0px">
<path d="M59,8 c1.846,21.102 7.096,36.283 16,49 c-7.73,-5.413 -19.865,-9 -31,-9 c-17.976,0 -27,7.558 -27,19 c0,14.016 11.289,22 35,22 c7.682,0 15.25,-0.631 23,-2" fill="none" stroke="#000000" stroke-width="2" /><path d="M10,25.5 c25.645,0 52.402,-0.704 78,-2" fill="none" stroke="#000000" stroke-width="2" /><path d="M88.6,1 c3.182,4.768 6.711,10.565 9.4,15.4" fill="none" stroke="#000000" stroke-width="2" /><path d="M76.5,3 c3.143,4.655 6.564,10.262 9.2,15" fill="none" stroke="#000000" stroke-width="2" /></svg>