<?xml version='1.0' encoding='utf-8'?>
<svg xmlns="http://www.w3.org/2000/svg" height="100px" version="1.0" viewBox="0 0 100 100" width="100px" x="0px" y="0px">
<path d="M70,66 c6.675,4.674 17.421,15.461 22,22" fill="none" stroke="#000000" stroke-width="2" /><path d="M69,75 c-4.998,8.656 -11.352,13 -17,13 c-9.688,0 -5.521,-18 -15,-18 c-7.33,0 -19.509,7.084 -29,18 c30.62,-35.228 42,-32.56 42,-39 c0,-3.374 -3.964,-6 -14,-6 c-9.909,0 -15,3.013 -15,6 c0,4.394 7.396,8 25,8 c27.318,0 39,-7.11 39,-16 c0,-6.847 -6.646,-11 -28,-11 c-13.494,0 -24.372,1.623 -44,8 l67,-25 h-58.0" fill="none" stroke="#000000" stroke-width="2" /></svg>