<?xml version='1.0' encoding='utf-8'?>
<svg xmlns="http://www.w3.org/2000/svg" height="100px" version="1.0" viewBox="0 0 100 100" width="100px" x="0px" y="0px">
<path d="M29,86 c4.58,2.538 10.433,4 16,4 c12.392,0 21,-6.82 21,-16 c0,-6.155 -2.453,-11.079 -12,-20.625 c-9.116,-9.116 -12,-14.533 -12,-20.375 c0,-9.035 12.165,-18 31,-18 h-49.0" fill="none" stroke="#000000" stroke-width="2" /><path d="M5,78 c5.559,-9.251 11.078,-22.095 14,-33" fill="none" stroke="#000000" stroke-width="2" /><path d="M77,45 c6.5,9.283 12.844,22.679 16,33" fill="none" stroke="#000000" stroke-width="2" /><path d="M87.6,2 c3.501,5.244 7.442,11.682 10.4,17" fill="none" stroke="#000000" stroke-width="2" /><path d="M75.199,6.2 c3.422,5.146 7.136,11.368 10,16.601" fill="none" stroke="#000000" stroke-width="2" /></svg>