<?xml version='1.0' encoding='utf-8'?>
<svg xmlns="http://www.w3.org/2000/svg" height="100px" version="1.0" viewBox="0 0 100 100" width="100px" x="0px" y="0px">
<line fill="none" stroke="#000000" stroke-width="2" x1="20" x2="56" y1="12" y2="12" /><path d="M24,84 c-7.089,0 -14,-7.667 -14,-19 c0,-19.788 18.12,-36 44,-36 c21.256,0 36,13.159 36,31 c0,17.879 -9.213,28 -20,28 c-8.281,0 -14,-5.046 -14,-12 c0,-6.452 5.146,-11 14,-11 c6.136,0 13.057,3.315 18,9" fill="none" stroke="#000000" stroke-width="2" /><path d="M55.03,12.754 C39.575,74.034 32.193,84 24,84" fill="none" stroke="#000000" stroke-width="2" /></svg>