<?xml version='1.0' encoding='utf-8'?>
<svg xmlns="http://www.w3.org/2000/svg" height="100px" version="1.0" viewBox="0 0 100 100" width="100px" x="0px" y="0px">
<path d="M23,44 c-2.802,11.237 -8.158,22.854 -15,33" fill="none" stroke="#000000" stroke-width="2" /><path d="M74,44 c7.378,8.793 14.228,21.389 18,33" fill="none" stroke="#000000" stroke-width="2" /><path d="M29,13 c11.951,3.225 26.459,5 41,5 c-18.992,5.81 -26,12.368 -26,19 c0,4.99 2.206,8.98 10,16 c7.908,7.12 11,13.311 11,19 c0,9.777 -7.127,16 -18,16 c-5.913,0 -11.925,-1.552 -16,-4" fill="none" stroke="#000000" stroke-width="2" /><path d="M89.5,15 c0,5.522 -4.477,10 -10,10 s-10,-4.478 -10,-10 s4.477,-10 10,-10 S89.5,9.478 89.5,15" fill="none" stroke="#000000" stroke-width="2" /></svg>