<?xml version='1.0' encoding='utf-8'?>
<svg xmlns="http://www.w3.org/2000/svg" height="100px" version="1.0" viewBox="0 0 100 100" width="100px" x="0px" y="0px">
<path d="M25,86 c7.552,1.467 12.336,2 18,2 c22.734,0 34,-8.614 34,-22 c0,-10.458 -7.579,-17 -23,-17 c-10.434,0 -21.785,3.242 -31,9 c8.346,-16.186 12.805,-29.836 16,-50" fill="none" stroke="#000000" stroke-width="2" /><path d="M84,25 c-23.785,3.576 -47.24,4.507 -76,3" fill="none" stroke="#000000" stroke-width="2" /><path d="M85.6,2 c3.182,4.768 6.711,10.565 9.4,15.4" fill="none" stroke="#000000" stroke-width="2" /><path d="M73.5,4 c3.143,4.655 6.564,10.262 9.2,15" fill="none" stroke="#000000" stroke-width="2" /></svg>