<?xml version='1.0' encoding='utf-8'?>
<svg xmlns="http://www.w3.org/2000/svg" height="100px" version="1.0" viewBox="0 0 100 100" width="100px" x="0px" y="0px">
<path d="M22,10 c3.94,18.532 9.529,38.749 17.5,62.5" fill="none" stroke="#000000" stroke-width="2" /><path d="M56,73 c0,-6.167 5.131,-11 13,-11 c8.038,0 14.687,3.705 25,16" fill="none" stroke="#000000" stroke-width="2" /><path d="M54,25 c20.055,0 34,12.885 34,32 c0,18.555 -8.373,28 -19,28 c-7.55,0 -13,-4.854 -13,-12" fill="none" stroke="#000000" stroke-width="2" /><path d="M66,7 c-9.843,50.642 -28.626,74 -42,74 c-6.449,0 -13,-7.239 -13,-19 c0,-20.339 18.506,-37 43,-37" fill="none" stroke="#000000" stroke-width="2" /></svg>