<?xml version='1.0' encoding='utf-8'?>
<svg xmlns="http://www.w3.org/2000/svg" height="100px" version="1.0" viewBox="0 0 100 100" width="100px" x="0px" y="0px">
<path d="M27,76 c0,7.34 6.955,12 21,12 c21.549,0 34,-9.425 34,-23 c0,-12.724 -8.094,-20 -25.5,-20 c-12.193,0 -25.118,4.481 -42.5,16 c19.766,-14.14 42.541,-32.25 58.5,-46.5 c-18.092,1.729 -33.377,2.5 -48,2.5" fill="none" stroke="#000000" stroke-width="2" /><path d="M53.5,88 c2.102,-4.234 3,-7.739 3,-11 c0,-6.491 -5.115,-11 -14,-11 c-9.564,0 -15.5,4.869 -15.5,10" fill="none" stroke="#000000" stroke-width="2" /></svg>