<?xml version='1.0' encoding='utf-8'?>
<svg xmlns="http://www.w3.org/2000/svg" height="100px" version="1.0" viewBox="0 0 100 100" width="100px" x="0px" y="0px">
<path d="M17.5,89 c-3.564,-13.303 -5,-24.166 -5,-38 s1.436,-24.697 5,-38" fill="none" stroke="#000000" stroke-width="2" /><path d="M89.5,29 c-17.334,2.563 -37.008,4 -54,4" fill="none" stroke="#000000" stroke-width="2" /><path d="M36.5,75 c0,-7.01 5.723,-12 16,-12 c8.584,0 20.737,6.226 35,20" fill="none" stroke="#000000" stroke-width="2" /><path d="M68.5,11 c-1.609,18.396 0,34.666 0,58 c0,13.967 -5.221,19 -16,19 c-9.816,0 -16,-4.915 -16,-13" fill="none" stroke="#000000" stroke-width="2" /><path d="M88.6,2 c3.182,4.768 6.711,10.565 9.4,15.4" fill="none" stroke="#000000" stroke-width="2" /><path d="M76.5,4 c3.143,4.655 6.564,10.262 9.2,15" fill="none" stroke="#000000" stroke-width="2" /></svg>