<?xml version='1.0' encoding='utf-8'?>
<svg xmlns="http://www.w3.org/2000/svg" height="100px" version="1.0" viewBox="0 0 100 100" width="100px" x="0px" y="0px">
<path d="M17,89 c-3.564,-13.303 -5,-24.166 -5,-38 s1.436,-24.697 5,-38" fill="none" stroke="#000000" stroke-width="2" /><path d="M89,38 c-20.749,2.183 -36.295,3 -54,3" fill="none" stroke="#000000" stroke-width="2" /><path d="M36.5,76 c0,-6.564 5.106,-11 16,-11 c9.115,0 21.577,6.036 35,19" fill="none" stroke="#000000" stroke-width="2" /><path d="M68,18 c-1.288,18.421 0,27.666 0,51 c0,13.967 -5.221,19 -16,19 c-10.754,0 -16,-4.121 -16,-12" fill="none" stroke="#000000" stroke-width="2" /><path d="M88.1,2 c3.182,4.768 6.711,10.565 9.4,15.4" fill="none" stroke="#000000" stroke-width="2" /><path d="M77.2,6 c3.143,4.655 6.564,10.262 9.2,15" fill="none" stroke="#000000" stroke-width="2" /><path d="M83.813,16.527 C65.59,18.315 51.198,19 35,19" fill="none" stroke="#000000" stroke-width="2" /></svg>