<?xml version='1.0' encoding='utf-8'?>
<svg xmlns="http://www.w3.org/2000/svg" height="100px" version="1.0" viewBox="0 0 100 100" width="100px" x="0px" y="0px">
<path d="M70,65 c6.675,4.674 17.421,15.461 22,22" fill="none" stroke="#000000" stroke-width="2" /><path d="M25,49 c0,4.435 6.246,8 21,8 c23.565,0 34,-6.616 34,-15 c0,-6.821 -6.22,-11 -23,-11 c-13.825,0 -23.749,1.745 -43,8 c27.734,-10.75 40.547,-16.141 62,-26 c-18.651,1.418 -33.999,2 -51,2" fill="none" stroke="#000000" stroke-width="2" /><path d="M69,74 c-4.998,8.656 -11.352,13 -17,13 c-9.688,0 -5.521,-18 -15,-18 c-7.33,0 -19.509,7.084 -29,18 c23.492,-27.027 42,-32.707 42,-39 c0,-2.572 -4.072,-5 -13,-5 c-7.714,0 -12,3.05 -12,6" fill="none" stroke="#000000" stroke-width="2" /></svg>