<?xml version='1.0' encoding='utf-8'?>
<svg xmlns="http://www.w3.org/2000/svg" height="100px" version="1.0" viewBox="0 0 100 100" width="100px" x="0px" y="0px">
<path d="M34,6 c0,11.957 1,33.097 1,44 c0,10.246 -4.574,15 -12,15 c-7.062,0 -12,-5.115 -12,-15 c0,-9.713 4.738,-15 12,-15 c6.5,0 12,6.107 12,15 c0,16.768 -7,23.653 -7,29 c0,6.492 4.086,9 27,9 c21.563,0 27,-3.601 27,-13 c0,-5.833 -2.506,-15.362 -7,-25" fill="none" stroke="#000000" stroke-width="2" /><path d="M70,22 c8.405,5.253 14.394,9.617 22,16" fill="none" stroke="#000000" stroke-width="2" /><path d="M11,24 c14.077,0 31.198,-1.135 45,-3" fill="none" stroke="#000000" stroke-width="2" /></svg>