<?xml version='1.0' encoding='utf-8'?>
<svg xmlns="http://www.w3.org/2000/svg" height="100px" version="1.0" viewBox="0 0 100 100" width="100px" x="0px" y="0px">
<path d="M93,53 c-9.737,-8.464 -22.176,-24.433 -28,-36 c5.145,17.439 7,28.668 7,37 c0,23.331 -10.809,34 -29,34 c-14.883,0 -26,-10.371 -26,-26 c0,-14.941 8.63,-30.487 26,-44 c-12.254,2.16 -22.204,3 -33,3" fill="none" stroke="#000000" stroke-width="2" /><path d="M97,13 c0,5.522 -4.477,10 -10,10 s-10,-4.478 -10,-10 s4.477,-10 10,-10 S97,7.478 97,13" fill="none" stroke="#000000" stroke-width="2" /></svg>