<?xml version='1.0' encoding='utf-8'?>
<svg xmlns="http://www.w3.org/2000/svg" height="100px" version="1.0" viewBox="0 0 100 100" width="100px" x="0px" y="0px">
<path d="M16,26 c17.388,0 31.907,-0.877 50.819,-3.086" fill="none" stroke="#000000" stroke-width="2" /><path d="M74,21 c5.709,4.963 11.24,10.525 16,16" fill="none" stroke="#000000" stroke-width="2" /><path d="M54,86 c3.189,1.161 8.222,2 12,2 c11.463,0 19,-7.095 19,-19 c0,-12.06 -8.966,-20 -26,-20 c-24.755,0 -46,14.915 -46,26 c0,5.994 7.988,12 18,12 c4.899,0 7,-2.291 7,-10 c0,-23.252 -1,-46.111 -1,-70" fill="none" stroke="#000000" stroke-width="2" /></svg>