<?xml version='1.0' encoding='utf-8'?>
<svg xmlns="http://www.w3.org/2000/svg" height="100px" version="1.0" viewBox="0 0 100 100" width="100px" x="0px" y="0px">
<path d="M13,88 c13.968,-25.2 22.418,-52.484 25,-82" fill="none" stroke="#000000" stroke-width="2" /><path d="M11,32 c16.135,-1.982 29.81,-3 38,-3 c12.344,0 14,1.792 14,18 c0,25.245 -9.691,40 -17,40 c-3.111,0 -7.55,-2.356 -13,-8" fill="none" stroke="#000000" stroke-width="2" /><path d="M75.5,35 c6.685,10.741 13.938,24.072 19.5,36" fill="none" stroke="#000000" stroke-width="2" /><path d="M80.6,5 c3.501,5.244 7.442,11.682 10.4,17" fill="none" stroke="#000000" stroke-width="2" /><path d="M68.199,9.2 c3.422,5.146 7.136,11.368 10,16.601" fill="none" stroke="#000000" stroke-width="2" /></svg>