<?xml version='1.0' encoding='utf-8'?>
<svg xmlns="http://www.w3.org/2000/svg" height="100px" version="1.0" viewBox="0 0 100 100" width="100px" x="0px" y="0px">
<path d="M79,85 c-9.212,1.295 -18.914,2 -27,2 c-22.752,0 -26,-3.153 -26,-19 c0,-13.174 -0.482,-39.178 -1,-54" fill="none" stroke="#000000" stroke-width="2" /><path d="M69,9 c-0.538,15.399 0,29.867 0,44 c0,5.971 -1.671,8 -5,8 c-3.109,0 -11.929,-2.061 -20,-5" fill="none" stroke="#000000" stroke-width="2" /><path d="M91,31 c-27.331,2.895 -62.564,5 -84,5" fill="none" stroke="#000000" stroke-width="2" /><path d="M88.6,1 c3.182,4.768 6.711,10.565 9.4,15.4" fill="none" stroke="#000000" stroke-width="2" /><path d="M76.5,3 c3.143,4.655 6.564,10.262 9.2,15" fill="none" stroke="#000000" stroke-width="2" /></svg>