<?xml version='1.0' encoding='utf-8'?>
<svg xmlns="http://www.w3.org/2000/svg" height="100px" version="1.0" viewBox="0 0 100 100" width="100px" x="0px" y="0px">
<path d="M88.6,1 c3.182,4.768 6.711,10.565 9.4,15.4" fill="none" stroke="#000000" stroke-width="2" /><path d="M76.5,3 c3.143,4.655 6.564,10.262 9.2,15" fill="none" stroke="#000000" stroke-width="2" /><path d="M90,23 c-24.845,1.736 -59.652,3 -84,3" fill="none" stroke="#000000" stroke-width="2" /><path d="M60,7 c0,14.409 1,29.233 1,44 c0,8.836 -7.163,16 -16,16 s-16,-7.164 -16,-16 s7.163,-16 16,-16 c11.199,0 17,6.593 17,25 c0,16.037 -11.392,27.895 -29,31" fill="none" stroke="#000000" stroke-width="2" /></svg>