<?xml version='1.0' encoding='utf-8'?>
<svg xmlns="http://www.w3.org/2000/svg" height="100px" version="1.0" viewBox="0 0 100 100" width="100px" x="0px" y="0px">
<path d="M17,89 c-3.564,-13.303 -5,-24.166 -5,-38 s1.436,-24.697 5,-38" fill="none" stroke="#000000" stroke-width="2" /><path d="M89,38 c-20.749,2.183 -36.295,3 -54,3" fill="none" stroke="#000000" stroke-width="2" /><path d="M36.5,76 c0,-6.564 5.106,-11 16,-11 c9.115,0 21.577,6.036 35,19" fill="none" stroke="#000000" stroke-width="2" /><path d="M68,18 c-1.288,18.421 0,27.666 0,51 c0,13.967 -5.221,19 -16,19 c-10.754,0 -16,-4.121 -16,-12" fill="none" stroke="#000000" stroke-width="2" /><path d="M96,12 c0,5.522 -4.477,10 -10,10 s-10,-4.478 -10,-10 s4.477,-10 10,-10 S96,6.478 96,12" fill="none" stroke="#000000" stroke-width="2" /><path d="M78,17 c-15.558,1.384 -28.563,2 -43,2" fill="none" stroke="#000000" stroke-width="2" /></svg>