<?xml version='1.0' encoding='utf-8'?>
<svg xmlns="http://www.w3.org/2000/svg" height="100px" version="1.0" viewBox="0 0 100 100" width="100px" x="0px" y="0px">
<path d="M51,72 c0,-7.063 5.487,-12 14,-12 c8.195,0 15.619,4.433 27,19" fill="none" stroke="#000000" stroke-width="2" /><path d="M7,74 c31.521,-41.832 45.787,-52 59,-52 c13.672,0 22,9.653 22,32 c0,20.703 -10.166,31 -23,31 c-7.896,0 -14,-5.383 -14,-13" fill="none" stroke="#000000" stroke-width="2" /><path d="M33,90 c-0.776,-22.223 -1,-42.78 -1,-81" fill="none" stroke="#000000" stroke-width="2" /><path d="M32,28 c-7.43,1.283 -15.406,2 -23,2" fill="none" stroke="#000000" stroke-width="2" /></svg>