<?xml version='1.0' encoding='utf-8'?>
<svg xmlns="http://www.w3.org/2000/svg" height="100px" version="1.0" viewBox="0 0 100 100" width="100px" x="0px" y="0px">
<path d="M53,14 c-11.471,0.647 -22.407,1 -33,1" fill="none" stroke="#000000" stroke-width="2" /><path d="M25.5,83 c8.274,0 19.107,-16.769 26.566,-68.145" fill="none" stroke="#000000" stroke-width="2" /><path d="M12.5,65 c0,9.982 6.846,18 13,18" fill="none" stroke="#000000" stroke-width="2" /><path d="M68.5,86 c10.877,0 19,-9.056 19,-26 c0,-15.956 -12.572,-27.5 -33.5,-27.5 c-24.394,0 -41.5,14.766 -41.5,32.5" fill="none" stroke="#000000" stroke-width="2" /><path d="M85.5,74 c-4.864,-5.714 -11.428,-9 -17,-9 c-7.981,0 -12.5,4.08 -12.5,10.5 s4.519,10.5 12.5,10.5" fill="none" stroke="#000000" stroke-width="2" /></svg>