<?xml version='1.0' encoding='utf-8'?>
<svg xmlns="http://www.w3.org/2000/svg" height="100px" version="1.0" viewBox="0 0 100 100" width="100px" x="0px" y="0px">
<path d="M11,91 c12.254,-30.328 19.633,-54.045 26,-84" fill="none" stroke="#000000" stroke-width="2" /><path d="M86,84 c-8.391,1.479 -14.265,2 -20,2 c-16.17,0 -23,-4.11 -23,-10 c0,-4.874 3.787,-10.582 14,-18" fill="none" stroke="#000000" stroke-width="2" /><path d="M47,44 c12.541,-2.666 24.979,-4 36,-4" fill="none" stroke="#000000" stroke-width="2" /><path d="M66,23 c-18.357,3.006 -36.667,4.68 -55,5" fill="none" stroke="#000000" stroke-width="2" /><path d="M82.6,4 c3.182,4.768 6.711,10.565 9.4,15.4" fill="none" stroke="#000000" stroke-width="2" /><path d="M70.5,6 c3.143,4.655 6.564,10.262 9.2,15" fill="none" stroke="#000000" stroke-width="2" /></svg>