<?xml version='1.0' encoding='utf-8'?>
<svg xmlns="http://www.w3.org/2000/svg" height="100px" version="1.0" viewBox="0 0 100 100" width="100px" x="0px" y="0px">
<path d="M85,38 c-24.5,4.453 -52.326,7 -77,7" fill="none" stroke="#000000" stroke-width="2" /><path d="M71,88 c-8.049,1.349 -15.307,2 -21,2 c-18.914,0 -29,-7.12 -29,-18 c0,-8.859 6.684,-14.5 21,-14.5 c9.93,0 17.516,1.984 30,8.5 c-12.708,-17.25 -21.721,-38.149 -25,-59" fill="none" stroke="#000000" stroke-width="2" /><path d="M77,21 c-19.727,3.816 -42.133,6 -62,6" fill="none" stroke="#000000" stroke-width="2" /><path d="M86.6,2 c3.182,4.768 6.711,10.565 9.4,15.4" fill="none" stroke="#000000" stroke-width="2" /><path d="M74.5,4 c3.143,4.655 6.564,10.262 9.2,15" fill="none" stroke="#000000" stroke-width="2" /></svg>