<?xml version='1.0' encoding='utf-8'?>
<svg xmlns="http://www.w3.org/2000/svg" height="100px" version="1.0" viewBox="0 0 100 100" width="100px" x="0px" y="0px">
<path d="M22.8,38.8 c13.96,0 25.617,-0.682 40.801,-2.4" fill="none" stroke="#000000" stroke-width="2" /><path d="M69.2,34.8 c4.567,3.97 8.992,8.42 12.8,12.8" fill="none" stroke="#000000" stroke-width="2" /><path d="M20.4,78 c0,4.795 6.391,9.6 14.4,9.6 c3.919,0 5.6,-1.833 5.6,-8 c0,-18.602 -0.801,-36.889 -0.801,-56" fill="none" stroke="#000000" stroke-width="2" /><path d="M53.2,86.8 c2.552,0.929 6.577,1.6 9.601,1.6 c9.17,0 15.199,-5.676 15.199,-15.2 c0,-9.648 -7.174,-16 -20.8,-16 c-19.804,0 -36.8,11.932 -36.8,20.8" fill="none" stroke="#000000" stroke-width="2" /></svg>