<?xml version='1.0' encoding='utf-8'?>
<svg xmlns="http://www.w3.org/2000/svg" height="100px" version="1.0" viewBox="0 0 100 100" width="100px" x="0px" y="0px">
<line fill="none" stroke="#000000" stroke-width="2" x1="14.5" x2="85.5" y1="66.5" y2="66.5" /><line fill="none" stroke="#000000" stroke-width="2" x1="29.5" x2="64.5" y1="8" y2="8" /><line fill="none" stroke="#000000" stroke-width="2" x1="19.5" x2="80.5" y1="32" y2="32" /><polyline fill="none" points="13.5,87.5 13.5,53.5 86.5,53.5 86.5,79.5 14.5,79.5" stroke="#000000" stroke-width="2" /><polyline fill="none" points="18.5,45.5 18.5,19.5 81.5,19.5 81.5,44.5 19.5,44.5" stroke="#000000" stroke-width="2" /><path d="M50.5,19.5 c4.681,-3.441 9.428,-7.473 13.305,-11.219" fill="none" stroke="#000000" stroke-width="2" /><path d="M6.5,27 c12.232,-6.927 21.328,-15.37 27,-25" fill="none" stroke="#000000" stroke-width="2" /><path d="M49,20.5 v62.0 c0,9.677 0.383,10 19.5,10 c24.791,0 25.064,-0.22 26.5,-19.5" fill="none" stroke="#000000" stroke-width="2" /></svg>