<?xml version='1.0' encoding='utf-8'?>
<svg xmlns="http://www.w3.org/2000/svg" height="100px" version="1.0" viewBox="0 0 100 100" width="100px" x="0px" y="0px">
<line fill="none" stroke="#000000" stroke-width="2" x1="16.5" x2="16.5" y1="94" y2="28.8" /><path d="M23.5,6 c-4.303,19.29 -11.811,36.252 -21.5,49.5" fill="none" stroke="#000000" stroke-width="2" /><path d="M90.5,15 c-5.688,9.388 -11.789,16.905 -18.5,23" fill="none" stroke="#000000" stroke-width="2" /><path d="M66.5,7 v76.5 c0,6.941 1.379,8 12,8 c13.987,0 14.844,-0.823 15.5,-19" fill="none" stroke="#000000" stroke-width="2" /><path d="M42.5,39 c-4.036,-6.789 -9.141,-14.328 -15,-22" fill="none" stroke="#000000" stroke-width="2" /><path d="M94,66 c-7.709,-5.78 -17.069,-11.974 -27.5,-17.999" fill="none" stroke="#000000" stroke-width="2" /><path d="M23,93 c19.764,-8.478 26.5,-19.05 26.5,-47.5 V7.0" fill="none" stroke="#000000" stroke-width="2" /><path d="M23,68 c10.885,-5.458 19.982,-11.736 26.5,-18" fill="none" stroke="#000000" stroke-width="2" /></svg>