<?xml version='1.0' encoding='utf-8'?>
<svg xmlns="http://www.w3.org/2000/svg" height="100px" version="1.0" viewBox="0 0 100 100" width="100px" x="0px" y="0px">
<line fill="none" stroke="#000000" stroke-width="2" x1="16.5" x2="16.5" y1="94" y2="33.3" /><line fill="none" stroke="#000000" stroke-width="2" x1="44" x2="88" y1="56" y2="56" /><path d="M26.5,6 c-4.404,18.067 -13.146,35.925 -24,49.5" fill="none" stroke="#000000" stroke-width="2" /><path d="M37,25.5 c5.349,-6.438 10.615,-13.655 15,-20.5" fill="none" stroke="#000000" stroke-width="2" /><path d="M26.5,70 c10.635,-5.952 21.852,-17.03 25.5,-24.5" fill="none" stroke="#000000" stroke-width="2" /><path d="M87.158,56.461 c-10.648,16.624 -33.595,30.363 -63.658,35.539" fill="none" stroke="#000000" stroke-width="2" /><path d="M95.5,92 c-22.384,-7.034 -41.876,-19.698 -53,-34" fill="none" stroke="#000000" stroke-width="2" /><path d="M69,24 v19.0 c0,4.302 0.291,4.5 12,4.5 c11.564,0 11.762,-0.151 13,-12" fill="none" stroke="#000000" stroke-width="2" /><path d="M93.5,29 c-5.933,-6.704 -14.022,-15.22 -21,-22" fill="none" stroke="#000000" stroke-width="2" /><path d="M27,26 c19.445,-0.391 40.268,-1.651 60.5,-3.5" fill="none" stroke="#000000" stroke-width="2" /><path d="M26.5,51.5 c15.836,-4.596 25.216,-14.558 26,-26.5" fill="none" stroke="#000000" stroke-width="2" /></svg>