<?xml version='1.0' encoding='utf-8'?>
<svg xmlns="http://www.w3.org/2000/svg" height="100px" version="1.0" viewBox="0 0 100 100" width="100px" x="0px" y="0px">
<line fill="none" stroke="#000000" stroke-width="2" x1="60" x2="95.5" y1="13.5" y2="13.5" /><line fill="none" stroke="#000000" stroke-width="2" x1="40" x2="40" y1="5" y2="43" /><line fill="none" stroke="#000000" stroke-width="2" x1="22" x2="63" y1="43" y2="43" /><line fill="none" stroke="#000000" stroke-width="2" x1="40" x2="59.5" y1="21.5" y2="21.5" /><line fill="none" stroke="#000000" stroke-width="2" x1="15" x2="15" y1="94" y2="32.5" /><path d="M57,91.5 c18.611,-12.148 33.509,-39.364 37.506,-77.105" fill="none" stroke="#000000" stroke-width="2" /><path d="M97,91.5 c-16.661,-13.207 -28.02,-37.751 -31,-72.5" fill="none" stroke="#000000" stroke-width="2" /><path d="M22.5,83 c4.131,-8.292 8.063,-20.165 10.5,-32.5" fill="none" stroke="#000000" stroke-width="2" /><path d="M62.5,75.5 c-2.857,-8.985 -6.344,-17.73 -10,-25" fill="none" stroke="#000000" stroke-width="2" /><path d="M43.461,43 v40.5 c0,6.974 -0.508,7.5 -4.461,7.5 c-1.735,0 -4.654,-0.175 -8.5,-0.5" fill="none" stroke="#000000" stroke-width="2" /><path d="M23.5,6 c-4.303,19.29 -11.811,36.252 -21.5,49.5" fill="none" stroke="#000000" stroke-width="2" /></svg>