<?xml version='1.0' encoding='utf-8'?>
<svg xmlns="http://www.w3.org/2000/svg" height="100px" version="1.0" viewBox="0 0 100 100" width="100px" x="0px" y="0px">
<line fill="none" stroke="#000000" stroke-width="2" x1="74" x2="74" y1="74" y2="12" /><line fill="none" stroke="#000000" stroke-width="2" x1="13.5" x2="13.5" y1="94" y2="34" /><line fill="none" stroke="#000000" stroke-width="2" x1="26" x2="67" y1="12" y2="12" /><line fill="none" stroke="#000000" stroke-width="2" x1="65" x2="25" y1="60.5" y2="60.5" /><line fill="none" stroke="#000000" stroke-width="2" x1="45" x2="45" y1="84.5" y2="45" /><path d="M91,8 v75.0 c0,7.317 -0.645,8 -5,8 c-2.243,0 -5.943,-0.167 -10.5,-0.5" fill="none" stroke="#000000" stroke-width="2" /><path d="M22,6 c-4.002,19.29 -10.986,36.252 -20,49.5" fill="none" stroke="#000000" stroke-width="2" /><path d="M66.5,43 c-3.767,-7.446 -8.542,-15.544 -13,-22" fill="none" stroke="#000000" stroke-width="2" /><path d="M22.5,43.5 c17.498,-1.856 31.546,-4.218 40.5,-6.5" fill="none" stroke="#000000" stroke-width="2" /><path d="M23.5,89.5 c13.074,-2.288 27.905,-6.438 43,-12" fill="none" stroke="#000000" stroke-width="2" /><path d="M33,42 c3.671,-9.168 6.948,-18.503 10.5,-30" fill="none" stroke="#000000" stroke-width="2" /></svg>