<?xml version='1.0' encoding='utf-8'?>
<svg xmlns="http://www.w3.org/2000/svg" height="100px" version="1.0" viewBox="0 0 100 100" width="100px" x="0px" y="0px">
<line fill="none" stroke="#000000" stroke-width="2" x1="14" x2="14" y1="94" y2="33" /><line fill="none" stroke="#000000" stroke-width="2" x1="26" x2="94" y1="11" y2="11" /><line fill="none" stroke="#000000" stroke-width="2" x1="54" x2="54" y1="49.5" y2="91" /><line fill="none" stroke="#000000" stroke-width="2" x1="72" x2="72" y1="49.5" y2="91" /><line fill="none" stroke="#000000" stroke-width="2" x1="37" x2="89" y1="66.5" y2="66.5" /><path d="M22,6 c-4.002,19.29 -10.986,36.252 -20,49.5" fill="none" stroke="#000000" stroke-width="2" /><path d="M19,89 c7.796,-16.16 11,-30.167 11,-49 v-19.0 h58.5 v17.0 H31.0" fill="none" stroke="#000000" stroke-width="2" /><path d="M76.5,91 c3.961,0.359 6.971,0.5 9,0.5 c4.109,0 4.5,-0.333 4.5,-4 v-39.0 h-54.0 V93.0" fill="none" stroke="#000000" stroke-width="2" /></svg>