<?xml version='1.0' encoding='utf-8'?>
<svg xmlns="http://www.w3.org/2000/svg" height="100px" version="1.0" viewBox="0 0 100 100" width="100px" x="0px" y="0px">
<line fill="none" stroke="#000000" stroke-width="2" x1="16.5" x2="16.5" y1="94" y2="28.8" /><path d="M23.5,6 c-4.303,19.29 -11.811,36.252 -21.5,49.5" fill="none" stroke="#000000" stroke-width="2" /><path d="M87,78.5 c-1.739,-4.718 -3.844,-9.62 -6.5,-15" fill="none" stroke="#000000" stroke-width="2" /><path d="M69.75,83.5 c-1.234,-5.906 -2.846,-12.098 -5,-19" fill="none" stroke="#000000" stroke-width="2" /><path d="M52.5,88.5 c-0.73,-7.094 -1.848,-14.576 -3.5,-23" fill="none" stroke="#000000" stroke-width="2" /><path d="M29.5,91 c3.033,-7.585 5.637,-15.767 8,-25.5" fill="none" stroke="#000000" stroke-width="2" /><path d="M36,56.5 h60.0 c-1.03,29.649 -4.395,35 -11,35 c-3.174,0 -7.297,-0.321 -13,-1" fill="none" stroke="#000000" stroke-width="2" /><path d="M19.5,74 c21.55,-18.478 35.573,-43.02 40,-71" fill="none" stroke="#000000" stroke-width="2" /><path d="M43,20.5 c-2.553,-5.507 -5.327,-10.905 -8,-15.5" fill="none" stroke="#000000" stroke-width="2" /><path d="M48,38 h42.5 c-0.908,5.951 -1.937,12.419 -3,18.5" fill="none" stroke="#000000" stroke-width="2" /><path d="M24.5,20.5 h60.5 c-0.961,5.942 -1.884,11.428 -3,17.5" fill="none" stroke="#000000" stroke-width="2" /></svg>