<?xml version='1.0' encoding='utf-8'?>
<svg xmlns="http://www.w3.org/2000/svg" height="100px" version="1.0" viewBox="0 0 100 100" width="100px" x="0px" y="0px">
<line fill="none" stroke="#000000" stroke-width="2" x1="16" x2="16" y1="94" y2="31.3" /><line fill="none" stroke="#000000" stroke-width="2" x1="28.5" x2="92.5" y1="13" y2="13" /><line fill="none" stroke="#000000" stroke-width="2" x1="60.5" x2="60.5" y1="13" y2="3" /><line fill="none" stroke="#000000" stroke-width="2" x1="60.5" x2="60.5" y1="51" y2="38" /><line fill="none" stroke="#000000" stroke-width="2" x1="27" x2="94" y1="51" y2="51" /><polyline fill="none" points="93,46 93,33 28,33 28,46" stroke="#000000" stroke-width="2" /><path d="M24,6 c-4.303,19.29 -11.811,36.252 -21.5,49.5" fill="none" stroke="#000000" stroke-width="2" /><path d="M69,33 c4.002,-5.621 7.29,-12.472 9.5,-20" fill="none" stroke="#000000" stroke-width="2" /><path d="M51,33 c-2.689,-6.745 -5.852,-13.443 -9.5,-20" fill="none" stroke="#000000" stroke-width="2" /><path d="M28,92 c14.143,-7.573 23,-22.639 23,-40" fill="none" stroke="#000000" stroke-width="2" /><path d="M49.5,63.5 h38.0 c0,22.72 -3.206,27 -10.5,27 c-3.173,0 -9.097,-0.337 -16,-1" fill="none" stroke="#000000" stroke-width="2" /></svg>