<?xml version='1.0' encoding='utf-8'?>
<svg xmlns="http://www.w3.org/2000/svg" height="100px" version="1.0" viewBox="0 0 100 100" width="100px" x="0px" y="0px">
<line fill="none" stroke="#000000" stroke-width="2" x1="16" x2="16" y1="94" y2="31.3" /><line fill="none" stroke="#000000" stroke-width="2" x1="61" x2="61" y1="25.5" y2="5.5" /><line fill="none" stroke="#000000" stroke-width="2" x1="62.5" x2="62.5" y1="87" y2="42.5" /><line fill="none" stroke="#000000" stroke-width="2" x1="33.5" x2="94" y1="88" y2="88" /><line fill="none" stroke="#000000" stroke-width="2" x1="33.5" x2="33.5" y1="41.5" y2="94.5" /><line fill="none" stroke="#000000" stroke-width="2" x1="93" x2="33.5" y1="41.5" y2="41.5" /><line fill="none" stroke="#000000" stroke-width="2" x1="33.5" x2="90.5" y1="57" y2="57" /><line fill="none" stroke="#000000" stroke-width="2" x1="33.5" x2="90.5" y1="72.5" y2="72.5" /><polyline fill="none" points="32,9 32,25.5 90,25.5 90,9" stroke="#000000" stroke-width="2" /><path d="M24,6 c-4.303,19.29 -11.811,36.252 -21.5,49.5" fill="none" stroke="#000000" stroke-width="2" /><path d="M21.5,58 c8.145,-9.317 13.609,-18.729 17,-29" fill="none" stroke="#000000" stroke-width="2" /><path d="M68.5,29 c-1.94,4.762 -3.579,8.166 -6,12.5" fill="none" stroke="#000000" stroke-width="2" /></svg>