<?xml version='1.0' encoding='utf-8'?>
<svg xmlns="http://www.w3.org/2000/svg" height="100px" version="1.0" viewBox="0 0 100 100" width="100px" x="0px" y="0px">
<line fill="none" stroke="#000000" stroke-width="2" x1="95.5" x2="23.5" y1="24.5" y2="24.5" /><line fill="none" stroke="#000000" stroke-width="2" x1="13" x2="13" y1="94" y2="34" /><polyline fill="none" points="42,86 42,65 75.5,65 75.5,80 43,80" stroke="#000000" stroke-width="2" /><polyline fill="none" points="41.5,49 76.5,49 76.5,35 40.5,35 40.5,50" stroke="#000000" stroke-width="2" /><path d="M73,90 c6.335,0.341 10.307,0.5 12,0.5 c5.52,0 6,-0.517 6,-8 V57.0 h-64.5 v35.0" fill="none" stroke="#000000" stroke-width="2" /><path d="M28,13 c21.24,0 42.506,-1.725 62,-5" fill="none" stroke="#000000" stroke-width="2" /><path d="M95.5,44 c-11.266,-3.859 -23.581,-11.659 -31,-19.5" fill="none" stroke="#000000" stroke-width="2" /><path d="M21.5,45 c18.9,-7.12 32.409,-20.446 35.5,-33" fill="none" stroke="#000000" stroke-width="2" /><path d="M21.5,6 c-4.002,19.29 -10.986,36.252 -20,49.5" fill="none" stroke="#000000" stroke-width="2" /></svg>