<?xml version='1.0' encoding='utf-8'?>
<svg xmlns="http://www.w3.org/2000/svg" height="100px" version="1.0" viewBox="0 0 100 100" width="100px" x="0px" y="0px">
<line fill="none" stroke="#000000" stroke-width="2" x1="13" x2="13" y1="94" y2="34" /><line fill="none" stroke="#000000" stroke-width="2" x1="21.5" x2="96.5" y1="61.5" y2="61.5" /><line fill="none" stroke="#000000" stroke-width="2" x1="22.5" x2="95.5" y1="13" y2="13" /><line fill="none" stroke="#000000" stroke-width="2" x1="24.5" x2="93.5" y1="26.5" y2="26.5" /><line fill="none" stroke="#000000" stroke-width="2" x1="59" x2="59" y1="26.5" y2="3.5" /><line fill="none" stroke="#000000" stroke-width="2" x1="31.5" x2="86.5" y1="88" y2="88" /><polyline fill="none" points="31.5,50.5 31.5,35 86.5,35 86.5,49.5 32.37,49.5" stroke="#000000" stroke-width="2" /><polyline fill="none" points="87.5,94 87.5,70 30.5,70 30.5,94" stroke="#000000" stroke-width="2" /><path d="M21.5,6 c-4.002,19.29 -10.986,36.252 -20,49.5" fill="none" stroke="#000000" stroke-width="2" /><path d="M69.5,61.5 c3.189,-3.594 5.895,-7.628 8,-12" fill="none" stroke="#000000" stroke-width="2" /><path d="M48,61.5 c-2.096,-3.986 -4.678,-8.124 -7.5,-12" fill="none" stroke="#000000" stroke-width="2" /></svg>