<?xml version='1.0' encoding='utf-8'?>
<svg xmlns="http://www.w3.org/2000/svg" height="100px" version="1.0" viewBox="0 0 100 100" width="100px" x="0px" y="0px">
<line fill="none" stroke="#000000" stroke-width="2" x1="25" x2="93.5" y1="13" y2="13" /><line fill="none" stroke="#000000" stroke-width="2" x1="79" x2="39" y1="37.5" y2="37.5" /><line fill="none" stroke="#000000" stroke-width="2" x1="40" x2="78" y1="51.5" y2="51.5" /><line fill="none" stroke="#000000" stroke-width="2" x1="13" x2="13" y1="94" y2="34" /><polyline fill="none" points="39,37.5 39,66 79,66 79,37.5" stroke="#000000" stroke-width="2" /><path d="M96,50.5 c-15.379,-8.789 -28.525,-23.124 -34,-37.501" fill="none" stroke="#000000" stroke-width="2" /><path d="M21.5,50.5 c18.395,-9.904 34.039,-28.907 39,-47.5" fill="none" stroke="#000000" stroke-width="2" /><path d="M88.5,18 c-4.191,5.085 -9.545,10.44 -14.5,14.5" fill="none" stroke="#000000" stroke-width="2" /><path d="M44,32.5 c-4.566,-4.988 -9.533,-9.968 -14.5,-14.5" fill="none" stroke="#000000" stroke-width="2" /><path d="M21.5,88 c8.846,-4.247 16.896,-10.549 22,-17" fill="none" stroke="#000000" stroke-width="2" /><path d="M96,89 c-6.318,-6.286 -13.977,-12.392 -22,-17.5" fill="none" stroke="#000000" stroke-width="2" /><path d="M60.5,66 v19.0 c0,5.473 -0.544,6 -7,6 c-2.863,0 -7.549,-0.174 -13.5,-0.5" fill="none" stroke="#000000" stroke-width="2" /><path d="M21.5,6 c-4.002,19.29 -10.986,36.252 -20,49.5" fill="none" stroke="#000000" stroke-width="2" /></svg>