<?xml version='1.0' encoding='utf-8'?>
<svg xmlns="http://www.w3.org/2000/svg" height="100px" version="1.0" viewBox="0 0 100 100" width="100px" x="0px" y="0px">
<line fill="none" stroke="#000000" stroke-width="2" x1="25.5" x2="58.5" y1="30.5" y2="30.5" /><line fill="none" stroke="#000000" stroke-width="2" x1="61.5" x2="96.5" y1="30.5" y2="30.5" /><line fill="none" stroke="#000000" stroke-width="2" x1="57.5" x2="27" y1="15.5" y2="15.5" /><line fill="none" stroke="#000000" stroke-width="2" x1="95" x2="62.5" y1="15.5" y2="15.5" /><line fill="none" stroke="#000000" stroke-width="2" x1="36" x2="85.5" y1="87" y2="87" /><line fill="none" stroke="#000000" stroke-width="2" x1="36" x2="85.5" y1="69.5" y2="69.5" /><line fill="none" stroke="#000000" stroke-width="2" x1="15.5" x2="15.5" y1="94" y2="33.3" /><polyline fill="none" points="86.5,93 86.5,52.5 35,52.5 35,93" stroke="#000000" stroke-width="2" /><path d="M25,55.5 c10.854,-8.493 18,-22.936 18,-40 v-10.0" fill="none" stroke="#000000" stroke-width="2" /><path d="M62,48 c11.664,-7.511 16,-15.155 16,-32.5 v-10.0" fill="none" stroke="#000000" stroke-width="2" /><path d="M57.5,47.5 c-5.019,-6.562 -10.818,-12.194 -17,-16.5" fill="none" stroke="#000000" stroke-width="2" /><path d="M97,55.5 c-9.307,-6.738 -16.391,-15.404 -20.5,-25" fill="none" stroke="#000000" stroke-width="2" /><path d="M25.5,6 c-4.404,18.067 -13.146,35.925 -24,49.5" fill="none" stroke="#000000" stroke-width="2" /></svg>