<?xml version='1.0' encoding='utf-8'?>
<svg xmlns="http://www.w3.org/2000/svg" height="100px" version="1.0" viewBox="0 0 100 100" width="100px" x="0px" y="0px">
<line fill="none" stroke="#000000" stroke-width="2" x1="13" x2="13" y1="94" y2="34" /><line fill="none" stroke="#000000" stroke-width="2" x1="22.5" x2="95" y1="61.5" y2="61.5" /><line fill="none" stroke="#000000" stroke-width="2" x1="23" x2="95" y1="40.5" y2="40.5" /><line fill="none" stroke="#000000" stroke-width="2" x1="29" x2="89" y1="27" y2="27" /><line fill="none" stroke="#000000" stroke-width="2" x1="25.5" x2="92.5" y1="14" y2="14" /><line fill="none" stroke="#000000" stroke-width="2" x1="59" x2="59" y1="40.5" y2="14" /><path d="M21.5,6 c-4.002,19.29 -10.986,36.252 -20,49.5" fill="none" stroke="#000000" stroke-width="2" /><path d="M41.5,49.5 v38.0 c0,3.722 -0.328,4 -4.5,4 c-1.883,0 -6.866,-0.214 -10.5,-0.5" fill="none" stroke="#000000" stroke-width="2" /><path d="M90,66 c-7.45,11.488 -21.441,20.366 -41,25" fill="none" stroke="#000000" stroke-width="2" /><path d="M66.5,45 c0,32.916 17.816,46.5 21.5,46.5 c1.996,0 5.178,-1.789 7,-13" fill="none" stroke="#000000" stroke-width="2" /><path d="M25,51.5 c13.021,-1.172 24.144,-3.007 34,-5.5" fill="none" stroke="#000000" stroke-width="2" /><path d="M23,78.5 c14.559,-1.385 26.985,-3.537 38,-6.5" fill="none" stroke="#000000" stroke-width="2" /><path d="M47.5,14 c-2.07,-3.556 -4.328,-7.034 -6.5,-10" fill="none" stroke="#000000" stroke-width="2" /><path d="M70,14 c2.459,-3.292 4.789,-6.888 6.5,-10" fill="none" stroke="#000000" stroke-width="2" /><path d="M91.5,56.5 c-4.502,-3.657 -8.941,-6.84 -14,-10" fill="none" stroke="#000000" stroke-width="2" /></svg>