<?xml version='1.0' encoding='utf-8'?>
<svg xmlns="http://www.w3.org/2000/svg" height="100px" version="1.0" viewBox="0 0 100 100" width="100px" x="0px" y="0px">
<line fill="none" stroke="#000000" stroke-width="2" x1="28.5" x2="94" y1="64.5" y2="64.5" /><line fill="none" stroke="#000000" stroke-width="2" x1="43" x2="43" y1="90.5" y2="64.5" /><line fill="none" stroke="#000000" stroke-width="2" x1="34.5" x2="90" y1="54" y2="54" /><line fill="none" stroke="#000000" stroke-width="2" x1="50" x2="50" y1="13.5" y2="35" /><line fill="none" stroke="#000000" stroke-width="2" x1="70.5" x2="70.5" y1="13.5" y2="35" /><line fill="none" stroke="#000000" stroke-width="2" x1="50" x2="50" y1="4.5" y2="11.5" /><line fill="none" stroke="#000000" stroke-width="2" x1="70.5" x2="70.5" y1="4.5" y2="11.5" /><line fill="none" stroke="#000000" stroke-width="2" x1="30.5" x2="90" y1="24" y2="24" /><line fill="none" stroke="#000000" stroke-width="2" x1="15" x2="15" y1="94" y2="32.5" /><polyline fill="none" points="30.5,36 91,36 91,12.5 29.5,12.5 29.5,37" stroke="#000000" stroke-width="2" /><path d="M57.5,64.5 c5.322,12.952 20.088,24.555 37.5,28" fill="none" stroke="#000000" stroke-width="2" /><path d="M29.5,92 c13.1,-1.373 24.47,-3.163 38,-6" fill="none" stroke="#000000" stroke-width="2" /><path d="M71.5,82 c6.198,-3.714 12.16,-8.181 18,-13.5" fill="none" stroke="#000000" stroke-width="2" /><path d="M21.5,91.5 c4.699,-9.011 7,-19.303 7,-33 V44.0 h65.0" fill="none" stroke="#000000" stroke-width="2" /><path d="M23.5,6 c-4.303,19.29 -11.811,36.252 -21.5,49.5" fill="none" stroke="#000000" stroke-width="2" /></svg>