<?xml version='1.0' encoding='utf-8'?>
<svg xmlns="http://www.w3.org/2000/svg" height="100px" version="1.0" viewBox="0 0 100 100" width="100px" x="0px" y="0px">
<line fill="none" stroke="#000000" stroke-width="2" x1="13" x2="13" y1="94" y2="34" /><line fill="none" stroke="#000000" stroke-width="2" x1="44" x2="44" y1="11.5" y2="24" /><line fill="none" stroke="#000000" stroke-width="2" x1="44" x2="44" y1="37.5" y2="50.5" /><line fill="none" stroke="#000000" stroke-width="2" x1="27.5" x2="61.5" y1="51.5" y2="51.5" /><line fill="none" stroke="#000000" stroke-width="2" x1="50.5" x2="50.5" y1="63.5" y2="89" /><line fill="none" stroke="#000000" stroke-width="2" x1="69" x2="69" y1="63.5" y2="89" /><line fill="none" stroke="#000000" stroke-width="2" x1="22.5" x2="95" y1="90" y2="90" /><line fill="none" stroke="#000000" stroke-width="2" x1="94.5" x2="69" y1="18" y2="18" /><line fill="none" stroke="#000000" stroke-width="2" x1="92.5" x2="66" y1="42" y2="42" /><polyline fill="none" points="60.5,10.5 27.5,10.5 27.5,58.5" stroke="#000000" stroke-width="2" /><polyline fill="none" points="28.5,37.5 57.5,37.5 57.5,24 28.5,24" stroke="#000000" stroke-width="2" /><polyline fill="none" points="87.5,89 87.5,63.5 32,63.5 32,89" stroke="#000000" stroke-width="2" /><path d="M21.5,6 c-4.002,19.29 -10.986,36.252 -20,49.5" fill="none" stroke="#000000" stroke-width="2" /><path d="M61,34 c5.162,-7.536 9.528,-17.632 12,-28" fill="none" stroke="#000000" stroke-width="2" /></svg>