<?xml version='1.0' encoding='utf-8'?>
<svg xmlns="http://www.w3.org/2000/svg" height="100px" version="1.0" viewBox="0 0 100 100" width="100px" x="0px" y="0px">
<line fill="none" stroke="#000000" stroke-width="2" x1="16" x2="16" y1="94" y2="31.3" /><line fill="none" stroke="#000000" stroke-width="2" x1="60" x2="60" y1="15.5" y2="3.5" /><line fill="none" stroke="#000000" stroke-width="2" x1="34" x2="86" y1="65.5" y2="65.5" /><line fill="none" stroke="#000000" stroke-width="2" x1="34" x2="86" y1="54" y2="54" /><polyline fill="none" points="93,32.5 93,15.5 27,15.5 27,32.5" stroke="#000000" stroke-width="2" /><polyline fill="none" points="38.5,35.5 82.5,35.5 82.5,22.5 37.5,22.5 37.5,36.5" stroke="#000000" stroke-width="2" /><polyline fill="none" points="34,77 87,77 87,42.5 33,42.5 33,78" stroke="#000000" stroke-width="2" /><path d="M24,6 c-4.303,19.29 -11.811,36.252 -21.5,49.5" fill="none" stroke="#000000" stroke-width="2" /><path d="M26,93 c10.771,-3.245 20.045,-7.771 25.5,-12" fill="none" stroke="#000000" stroke-width="2" /><path d="M94,94 c-6.566,-4.208 -15.63,-8.714 -25.5,-12.5" fill="none" stroke="#000000" stroke-width="2" /><path d="M44,15.5 c-2.247,-3.562 -4.633,-6.981 -7,-10" fill="none" stroke="#000000" stroke-width="2" /><path d="M76.5,15.5 c2.464,-3.768 4.662,-7.477 6.5,-11" fill="none" stroke="#000000" stroke-width="2" /></svg>