<?xml version='1.0' encoding='utf-8'?>
<svg xmlns="http://www.w3.org/2000/svg" height="100px" version="1.0" viewBox="0 0 100 100" width="100px" x="0px" y="0px">
<line fill="none" stroke="#000000" stroke-width="2" x1="93.5" x2="48.5" y1="35" y2="35" /><line fill="none" stroke="#000000" stroke-width="2" x1="49.5" x2="6.5" y1="46.5" y2="46.5" /><line fill="none" stroke="#000000" stroke-width="2" x1="45.5" x2="15" y1="26.5" y2="26.5" /><polyline fill="none" points="89.5,29 89.5,11 10.5,11 10.5,31" stroke="#000000" stroke-width="2" /><path d="M37,46.5 v37.0 c0,5.964 1.414,7 20,7 h11.5 c23.939,0 24.271,-0.333 25.5,-17.5" fill="none" stroke="#000000" stroke-width="2" /><path d="M5,92 c10.393,-7.876 16,-21.546 16,-45.5" fill="none" stroke="#000000" stroke-width="2" /><path d="M80.5,19 v53.0 c0,5.925 -0.561,6.5 -5.5,6.5 c-2.537,0 -8.003,-0.206 -13,-0.5" fill="none" stroke="#000000" stroke-width="2" /><path d="M69,63.5 c-3.75,-6.009 -9.365,-13.185 -15,-19" fill="none" stroke="#000000" stroke-width="2" /></svg>