<?xml version='1.0' encoding='utf-8'?>
<svg xmlns="http://www.w3.org/2000/svg" height="100px" version="1.0" viewBox="0 0 100 100" width="100px" x="0px" y="0px">
<line fill="none" stroke="#000000" stroke-width="2" x1="95" x2="24" y1="13" y2="13" /><line fill="none" stroke="#000000" stroke-width="2" x1="59.5" x2="59.5" y1="4.5" y2="47.5" /><line fill="none" stroke="#000000" stroke-width="2" x1="23" x2="96" y1="35.5" y2="35.5" /><line fill="none" stroke="#000000" stroke-width="2" x1="95" x2="24" y1="58.5" y2="58.5" /><polyline fill="none" points="29.5,48.5 87,48.5 87,23 29.5,23" stroke="#000000" stroke-width="2" /><path d="M23,92 c28.339,-4.039 48.695,-17.257 57,-33.5" fill="none" stroke="#000000" stroke-width="2" /><path d="M57.5,48.5 c-6.734,10.319 -15.451,19.622 -27,28.5" fill="none" stroke="#000000" stroke-width="2" /><path d="M35.5,73 c19.564,3.755 35.85,9.284 57,19.5" fill="none" stroke="#000000" stroke-width="2" /><path d="M5,89.5 c6.256,-9.763 11.438,-20.794 15,-32" fill="none" stroke="#000000" stroke-width="2" /><path d="M19,34.5 c-3.744,-7.972 -8.209,-15.928 -13.5,-24" fill="none" stroke="#000000" stroke-width="2" /></svg>