<?xml version='1.0' encoding='utf-8'?>
<svg xmlns="http://www.w3.org/2000/svg" height="100px" version="1.0" viewBox="0 0 100 100" width="100px" x="0px" y="0px">
<line fill="none" stroke="#000000" stroke-width="2" x1="32.5" x2="89" y1="59.5" y2="59.5" /><line fill="none" stroke="#000000" stroke-width="2" x1="32.5" x2="89" y1="42.5" y2="42.5" /><line fill="none" stroke="#000000" stroke-width="2" x1="61" x2="61" y1="93.5" y2="5" /><line fill="none" stroke="#000000" stroke-width="2" x1="27" x2="93.5" y1="16" y2="16" /><polyline fill="none" points="90,60.5 90,26.5 31.5,26.5 31.5,60.5" stroke="#000000" stroke-width="2" /><path d="M5.5,89.5 c8.342,-10.068 15.25,-21.444 20,-33" fill="none" stroke="#000000" stroke-width="2" /><path d="M23,30 c-4.577,-6.477 -10.034,-12.941 -16.5,-19.5" fill="none" stroke="#000000" stroke-width="2" /><path d="M23.5,89 c18.348,-10.144 30.234,-20.236 36.5,-29.5" fill="none" stroke="#000000" stroke-width="2" /><path d="M95,89 c-14.389,-8.32 -24.379,-17.26 -33,-29.5" fill="none" stroke="#000000" stroke-width="2" /></svg>