<?xml version='1.0' encoding='utf-8'?>
<svg xmlns="http://www.w3.org/2000/svg" height="100px" version="1.0" viewBox="0 0 100 100" width="100px" x="0px" y="0px">
<line fill="none" stroke="#000000" stroke-width="2" x1="76.5" x2="93.5" y1="62.5" y2="62.5" /><line fill="none" stroke="#000000" stroke-width="2" x1="76.5" x2="76.5" y1="88" y2="40" /><line fill="none" stroke="#000000" stroke-width="2" x1="95.5" x2="55" y1="40" y2="40" /><line fill="none" stroke="#000000" stroke-width="2" x1="57" x2="95" y1="11" y2="11" /><line fill="none" stroke="#000000" stroke-width="2" x1="54.5" x2="26.5" y1="46.5" y2="46.5" /><line fill="none" stroke="#000000" stroke-width="2" x1="56" x2="18.5" y1="64" y2="64" /><path d="M4,89.5 c4.553,-9.778 8.388,-20.794 11,-32" fill="none" stroke="#000000" stroke-width="2" /><path d="M17.5,34.5 c-3.633,-7.959 -7.904,-15.928 -13,-24" fill="none" stroke="#000000" stroke-width="2" /><path d="M53.5,92.5 c5.17,-9.044 8.918,-25.727 9,-46" fill="none" stroke="#000000" stroke-width="2" /><path d="M96.5,90.5 H92.0 c-18.108,0 -26.042,-5.643 -31,-23.5" fill="none" stroke="#000000" stroke-width="2" /><path d="M63.5,18.5 c6.397,6.179 13.265,13.549 20,21.5" fill="none" stroke="#000000" stroke-width="2" /><path d="M94.172,11.44 c-4.572,6.783 -10.726,14.006 -17.672,20.56" fill="none" stroke="#000000" stroke-width="2" /><path d="M23,7.5 v24.5 c0,3.88 0.107,4 13,4 c15.855,0 16.114,-0.153 17.5,-14" fill="none" stroke="#000000" stroke-width="2" /><path d="M23,20.5 c10.451,-2.057 19.488,-4.798 30,-9" fill="none" stroke="#000000" stroke-width="2" /><path d="M19.5,60 c4.103,-5.814 7.413,-13.108 9.5,-21" fill="none" stroke="#000000" stroke-width="2" /><path d="M16,92.5 c13.275,-5.626 22,-17.685 22,-30 v-16.0" fill="none" stroke="#000000" stroke-width="2" /><path d="M52.5,85.5 c-4.531,-6.032 -9.705,-12.424 -14.99,-18.5" fill="none" stroke="#000000" stroke-width="2" /><path d="M94.563,40.632 c-2.1,5.287 -4.598,9.814 -7.563,13.868" fill="none" stroke="#000000" stroke-width="2" /></svg>