<?xml version='1.0' encoding='utf-8'?>
<svg xmlns="http://www.w3.org/2000/svg" height="100px" version="1.0" viewBox="0 0 100 100" width="100px" x="0px" y="0px">
<line fill="none" stroke="#000000" stroke-width="2" x1="49.5" x2="49.5" y1="60" y2="27" /><line fill="none" stroke="#000000" stroke-width="2" x1="15" x2="15" y1="60" y2="27" /><line fill="none" stroke="#000000" stroke-width="2" x1="59" x2="5.5" y1="26" y2="26" /><line fill="none" stroke="#000000" stroke-width="2" x1="6" x2="58.5" y1="61" y2="61" /><line fill="none" stroke="#000000" stroke-width="2" x1="4" x2="60.5" y1="43" y2="43" /><line fill="none" stroke="#000000" stroke-width="2" x1="32" x2="32" y1="94" y2="13" /><line fill="none" stroke="#000000" stroke-width="2" x1="68" x2="68" y1="74" y2="12" /><path d="M8.5,14.5 c18.464,-0.566 34.743,-2.518 48,-5.5" fill="none" stroke="#000000" stroke-width="2" /><path d="M4,88 c13.457,-8.735 22.301,-17.435 28,-27" fill="none" stroke="#000000" stroke-width="2" /><path d="M61,83.5 c-13.133,-7.034 -23.293,-15.141 -29,-22.5" fill="none" stroke="#000000" stroke-width="2" /><path d="M89.5,8 v75.0 c0,7.13 -0.867,8 -6.5,8 c-2.75,0 -6.917,-0.144 -12.5,-0.5" fill="none" stroke="#000000" stroke-width="2" /></svg>