<?xml version='1.0' encoding='utf-8'?>
<svg xmlns="http://www.w3.org/2000/svg" height="100px" version="1.0" viewBox="0 0 100 100" width="100px" x="0px" y="0px">
<line fill="none" stroke="#000000" stroke-width="2" x1="11" x2="50.5" y1="28" y2="28" /><path d="M49,92 c14.06,-16.926 19,-34.719 19,-86" fill="none" stroke="#000000" stroke-width="2" /><path d="M53.5,28 h39.0 c0,56.077 -2.25,62 -8.5,62 c-2.687,0 -7.361,-0.33 -13,-1" fill="none" stroke="#000000" stroke-width="2" /><path d="M13,90 c9.291,-14.016 13,-28.896 13,-61" fill="none" stroke="#000000" stroke-width="2" /><path d="M25.5,46.5 h22.5 c0,34.705 -2.965,41 -8.5,41 c-2.25,0 -6.593,-0.356 -11.5,-1" fill="none" stroke="#000000" stroke-width="2" /><path d="M3,91 c5.277,-14.089 8,-29.832 8,-51 v-28.5 h40.5" fill="none" stroke="#000000" stroke-width="2" /></svg>