<?xml version='1.0' encoding='utf-8'?>
<svg xmlns="http://www.w3.org/2000/svg" height="100px" version="1.0" viewBox="0 0 100 100" width="100px" x="0px" y="0px">
<line fill="none" stroke="#000000" stroke-width="2" x1="47.5" x2="94.5" y1="13.5" y2="13.5" /><line fill="none" stroke="#000000" stroke-width="2" x1="24.5" x2="24.5" y1="5" y2="43" /><line fill="none" stroke="#000000" stroke-width="2" x1="3.5" x2="51.5" y1="43" y2="43" /><line fill="none" stroke="#000000" stroke-width="2" x1="24.5" x2="47.5" y1="21.5" y2="21.5" /><path d="M45,91.5 c24.072,-12.154 42.744,-39.438 48.51,-77.151" fill="none" stroke="#000000" stroke-width="2" /><path d="M96.5,91.5 c-22.036,-13.207 -36.896,-37.763 -41,-72.5" fill="none" stroke="#000000" stroke-width="2" /><path d="M4.5,83 c5.114,-8.292 9.982,-20.166 13,-32.5" fill="none" stroke="#000000" stroke-width="2" /><path d="M50,75.5 c-3,-8.985 -6.66,-17.73 -10.5,-25" fill="none" stroke="#000000" stroke-width="2" /><path d="M28.5,43 v40.5 c0,6.974 -0.5,7.5 -5,7.5 c-2.001,0 -5.564,-0.174 -10,-0.5" fill="none" stroke="#000000" stroke-width="2" /></svg>