<?xml version='1.0' encoding='utf-8'?>
<svg xmlns="http://www.w3.org/2000/svg" height="100px" version="1.0" viewBox="0 0 100 100" width="100px" x="0px" y="0px">
<line fill="none" stroke="#000000" stroke-width="2" x1="63.621" x2="63.621" y1="18" y2="3.5" /><line fill="none" stroke="#000000" stroke-width="2" x1="34" x2="95.5" y1="18" y2="18" /><polyline fill="none" points="10,82 29.5,82 29.5,13 9,13 9,90" stroke="#000000" stroke-width="2" /><path d="M61,64.5 c-7.486,-9.554 -17.326,-20.94 -26,-30" fill="none" stroke="#000000" stroke-width="2" /><path d="M41,87.5 c16.184,-17.072 30.399,-35.124 43,-54.5" fill="none" stroke="#000000" stroke-width="2" /><path d="M43.5,43.5 c7.111,-7.953 13.754,-16.633 19.5,-25.5" fill="none" stroke="#000000" stroke-width="2" /><path d="M95.5,91 c-3.86,-8.647 -10.715,-21.124 -17.5,-31.5" fill="none" stroke="#000000" stroke-width="2" /><path d="M30.5,88 c18.522,-0.769 39.971,-3.035 60.5,-6.5" fill="none" stroke="#000000" stroke-width="2" /></svg>