<?xml version='1.0' encoding='utf-8'?>
<svg xmlns="http://www.w3.org/2000/svg" height="100px" version="1.0" viewBox="0 0 100 100" width="100px" x="0px" y="0px">
<line fill="none" stroke="#000000" stroke-width="2" x1="61.5" x2="61.5" y1="83.5" y2="15" /><polyline fill="none" points="10,82 29.5,82 29.5,13 9,13 9,90" stroke="#000000" stroke-width="2" /><path d="M39.5,16 c18.576,0 36.474,-2.359 53.5,-7" fill="none" stroke="#000000" stroke-width="2" /><path d="M30,91.5 c6.738,-12.214 10.5,-30.522 10.5,-60.5 v-16.0" fill="none" stroke="#000000" stroke-width="2" /><path d="M96,91 c-8.021,-14.112 -12.5,-35.363 -12.5,-70 v-10.0" fill="none" stroke="#000000" stroke-width="2" /><path d="M86.5,91 c-3.334,-8.76 -8.013,-20.156 -12,-29" fill="none" stroke="#000000" stroke-width="2" /><path d="M39,88 c12.814,-1.254 29.275,-5.399 42,-10.5" fill="none" stroke="#000000" stroke-width="2" /></svg>