<?xml version='1.0' encoding='utf-8'?>
<svg xmlns="http://www.w3.org/2000/svg" height="100px" version="1.0" viewBox="0 0 100 100" width="100px" x="0px" y="0px">
<polyline fill="none" points="9.5,79 29.5,79 29.5,13 8.5,13 8.5,87" stroke="#000000" stroke-width="2" /><path d="M46.5,52 c-1.49,6.972 -4.465,13.229 -9,19" fill="none" stroke="#000000" stroke-width="2" /><path d="M47,12.5 c-1.49,6.972 -4.465,13.229 -9,19" fill="none" stroke="#000000" stroke-width="2" /><path d="M91,52.5 c-2.557,6.768 -6.489,12.666 -12,18" fill="none" stroke="#000000" stroke-width="2" /><path d="M90.5,11.5 c-2.557,6.768 -6.489,12.666 -12,18" fill="none" stroke="#000000" stroke-width="2" /><path d="M30,91 c21.324,-5.147 34,-18.636 34,-35 v-14.0" fill="none" stroke="#000000" stroke-width="2" /><path d="M95,91 c-19.355,-5.518 -31,-18.636 -31,-35" fill="none" stroke="#000000" stroke-width="2" /><path d="M33.5,48.5 c19.392,-5.519 30.5,-18.101 30.5,-35 v-7.5" fill="none" stroke="#000000" stroke-width="2" /><path d="M94.5,48.5 c-19.39,-5.518 -30.5,-18.103 -30.5,-35" fill="none" stroke="#000000" stroke-width="2" /></svg>