<?xml version='1.0' encoding='utf-8'?>
<svg xmlns="http://www.w3.org/2000/svg" height="100px" version="1.0" viewBox="0 0 100 100" width="100px" x="0px" y="0px">
<line fill="none" stroke="#000000" stroke-width="2" x1="31" x2="95" y1="26.5" y2="26.5" /><line fill="none" stroke="#000000" stroke-width="2" x1="92" x2="34" y1="13.5" y2="13.5" /><line fill="none" stroke="#000000" stroke-width="2" x1="63" x2="63" y1="26.5" y2="5" /><line fill="none" stroke="#000000" stroke-width="2" x1="80.5" x2="80.5" y1="36" y2="17" /><line fill="none" stroke="#000000" stroke-width="2" x1="45.5" x2="45.5" y1="36" y2="17" /><line fill="none" stroke="#000000" stroke-width="2" x1="37.5" x2="88.5" y1="63.5" y2="63.5" /><line fill="none" stroke="#000000" stroke-width="2" x1="37.5" x2="88.5" y1="51.5" y2="51.5" /><polyline fill="none" points="9.5,82 27.5,82 27.5,13 8.5,13 8.5,90" stroke="#000000" stroke-width="2" /><polyline fill="none" points="37.5,75.5 89.5,75.5 89.5,39.5 36.5,39.5 36.5,76.5" stroke="#000000" stroke-width="2" /><path d="M29,92.5 c10.76,-3.419 20.014,-8.134 25.5,-12.5" fill="none" stroke="#000000" stroke-width="2" /><path d="M95,93 c-6.573,-4.196 -15.622,-8.728 -25.5,-12.5" fill="none" stroke="#000000" stroke-width="2" /></svg>