<?xml version='1.0' encoding='utf-8'?>
<svg xmlns="http://www.w3.org/2000/svg" height="100px" version="1.0" viewBox="0 0 100 100" width="100px" x="0px" y="0px">
<line fill="none" stroke="#000000" stroke-width="2" x1="11" x2="89" y1="88.5" y2="88.5" /><line fill="none" stroke="#000000" stroke-width="2" x1="14.5" x2="85.5" y1="43.5" y2="43.5" /><line fill="none" stroke="#000000" stroke-width="2" x1="82.5" x2="17.5" y1="29.5" y2="29.5" /><polyline fill="none" points="90,94.5 90,9.5 10,9.5 10,94.5" stroke="#000000" stroke-width="2" /><polyline fill="none" points="67,70 67,52.5 33,52.5" stroke="#000000" stroke-width="2" /><path d="M14,61.5 c18.733,-8.928 33.695,-28.772 36,-49.5" fill="none" stroke="#000000" stroke-width="2" /><path d="M86,61.5 c-12.368,-6.128 -23.719,-17.76 -30.5,-32" fill="none" stroke="#000000" stroke-width="2" /><path d="M34,29.5 c-3.186,-4.979 -6.652,-9.855 -10,-14" fill="none" stroke="#000000" stroke-width="2" /><path d="M66,29.5 c3.793,-4.601 7.37,-9.644 10,-14" fill="none" stroke="#000000" stroke-width="2" /><path d="M67,65 h-39.0 v11.0 c0,5.386 0.123,5.5 21,5.5 c26.381,0 26.528,-0.117 28.5,-14" fill="none" stroke="#000000" stroke-width="2" /></svg>