<?xml version='1.0' encoding='utf-8'?>
<svg xmlns="http://www.w3.org/2000/svg" height="100px" version="1.0" viewBox="0 0 100 100" width="100px" x="0px" y="0px">
<line fill="none" stroke="#000000" stroke-width="2" x1="24.5" x2="75.5" y1="57" y2="57" /><line fill="none" stroke="#000000" stroke-width="2" x1="24.5" x2="75.5" y1="46" y2="46" /><line fill="none" stroke="#000000" stroke-width="2" x1="11" x2="89" y1="88.5" y2="88.5" /><polyline fill="none" points="28,28.5 73,28.5 73,16.5 27,16.5 27,29.5" stroke="#000000" stroke-width="2" /><polyline fill="none" points="24.5,68 76.5,68 76.5,35 23.5,35 23.5,69" stroke="#000000" stroke-width="2" /><polyline fill="none" points="90,94.5 90,9.5 10,9.5 10,94.5" stroke="#000000" stroke-width="2" /><path d="M17,83.5 c10.771,-3.245 20.045,-7.771 25.5,-12" fill="none" stroke="#000000" stroke-width="2" /><path d="M83,84.5 c-6.566,-4.208 -15.63,-8.714 -25.5,-12.5" fill="none" stroke="#000000" stroke-width="2" /></svg>