<?xml version='1.0' encoding='utf-8'?>
<svg xmlns="http://www.w3.org/2000/svg" height="100px" version="1.0" viewBox="0 0 100 100" width="100px" x="0px" y="0px">
<line fill="none" stroke="#000000" stroke-width="2" x1="4.5" x2="32.5" y1="29.5" y2="29.5" /><line fill="none" stroke="#000000" stroke-width="2" x1="18.5" x2="18.5" y1="77" y2="8" /><line fill="none" stroke="#000000" stroke-width="2" x1="28.5" x2="95.5" y1="17" y2="17" /><line fill="none" stroke="#000000" stroke-width="2" x1="47" x2="47" y1="29" y2="5" /><line fill="none" stroke="#000000" stroke-width="2" x1="77" x2="77" y1="29" y2="5" /><line fill="none" stroke="#000000" stroke-width="2" x1="43" x2="81" y1="48" y2="48" /><line fill="none" stroke="#000000" stroke-width="2" x1="38.5" x2="85.5" y1="88" y2="88" /><polyline fill="none" points="86.5,94 86.5,62 37.5,62 37.5,94" stroke="#000000" stroke-width="2" /><path d="M4.5,83 c9.563,-3.671 17.763,-7.762 28,-14" fill="none" stroke="#000000" stroke-width="2" /><path d="M96.5,55 c-13.506,-9.224 -23.979,-18.646 -34.5,-30.8 c-10.521,12.154 -20.994,21.576 -34.5,30.8" fill="none" stroke="#000000" stroke-width="2" /></svg>