<?xml version='1.0' encoding='utf-8'?>
<svg xmlns="http://www.w3.org/2000/svg" height="100px" version="1.0" viewBox="0 0 100 100" width="100px" x="0px" y="0px">
<line fill="none" stroke="#000000" stroke-width="2" x1="54" x2="88" y1="22" y2="22" /><line fill="none" stroke="#000000" stroke-width="2" x1="7" x2="93" y1="90" y2="90" /><line fill="none" stroke="#000000" stroke-width="2" x1="86" x2="14" y1="72" y2="72" /><line fill="none" stroke="#000000" stroke-width="2" x1="50" x2="50" y1="90" y2="63" /><polyline fill="none" points="54,34.5 89,34.5 89,9.5 53,9.5 53,59.5" stroke="#000000" stroke-width="2" /><path d="M7.5,35.5 c18.364,-4.799 31.026,-11.045 39,-18" fill="none" stroke="#000000" stroke-width="2" /><path d="M9.5,16 c16.166,-2.354 27.564,-5.515 35,-9" fill="none" stroke="#000000" stroke-width="2" /><path d="M27,60 c4.661,0.325 8.498,0.5 11,0.5 c5.798,0 7,-1.511 7,-11 c0,-9.155 -4.323,-17.933 -11.5,-23" fill="none" stroke="#000000" stroke-width="2" /><path d="M7.5,47.5 c14.37,-3.866 25.295,-8.899 32,-14" fill="none" stroke="#000000" stroke-width="2" /><path d="M7.5,59.5 c16.939,-4.599 28.706,-10.421 36.5,-17" fill="none" stroke="#000000" stroke-width="2" /><path d="M36.5,25 c-1.911,-3.379 -3.986,-6.691 -6,-9.5" fill="none" stroke="#000000" stroke-width="2" /><path d="M21.5,31.5 c-2.23,-4.267 -4.651,-8.451 -7,-12" fill="none" stroke="#000000" stroke-width="2" /><path d="M65,34.5 c5.427,11.738 16.484,21.286 30,26" fill="none" stroke="#000000" stroke-width="2" /><path d="M46,60.5 c9.777,-1.577 18.403,-3.71 28.5,-7" fill="none" stroke="#000000" stroke-width="2" /><path d="M75,48.5 c6.541,-3.278 13.264,-7.981 18.5,-13" fill="none" stroke="#000000" stroke-width="2" /></svg>