<?xml version='1.0' encoding='utf-8'?>
<svg xmlns="http://www.w3.org/2000/svg" height="100px" version="1.0" viewBox="0 0 100 100" width="100px" x="0px" y="0px">
<line fill="none" stroke="#000000" stroke-width="2" x1="45" x2="96" y1="31.5" y2="31.5" /><line fill="none" stroke="#000000" stroke-width="2" x1="71.5" x2="71.5" y1="31.5" y2="61.5" /><line fill="none" stroke="#000000" stroke-width="2" x1="47" x2="95" y1="45.5" y2="45.5" /><line fill="none" stroke="#000000" stroke-width="2" x1="46" x2="95" y1="12.5" y2="12.5" /><line fill="none" stroke="#000000" stroke-width="2" x1="71.5" x2="71.5" y1="12.5" y2="4.5" /><line fill="none" stroke="#000000" stroke-width="2" x1="7" x2="93" y1="90" y2="90" /><line fill="none" stroke="#000000" stroke-width="2" x1="86" x2="14" y1="71.5" y2="71.5" /><line fill="none" stroke="#000000" stroke-width="2" x1="50" x2="50" y1="90" y2="59.5" /><polyline fill="none" points="14.5,60 42.5,60 42.5,38.5 13.5,38.5 13.5,61" stroke="#000000" stroke-width="2" /><path d="M79.5,31.5 c3.405,-5.556 6.395,-12.142 8.5,-19" fill="none" stroke="#000000" stroke-width="2" /><path d="M61.5,31.5 c-1.57,-6.235 -3.678,-12.972 -6,-19" fill="none" stroke="#000000" stroke-width="2" /><path d="M4.5,57.382 c5.33,-9.005 8,-18.775 8,-30.882 V9.0 h29.0 v18.0 h-29.0" fill="none" stroke="#000000" stroke-width="2" /></svg>