<?xml version='1.0' encoding='utf-8'?>
<svg xmlns="http://www.w3.org/2000/svg" height="100px" version="1.0" viewBox="0 0 100 100" width="100px" x="0px" y="0px">
<line fill="none" stroke="#000000" stroke-width="2" x1="3" x2="27.5" y1="32.5" y2="32.5" /><line fill="none" stroke="#000000" stroke-width="2" x1="16" x2="16" y1="73.5" y2="8" /><line fill="none" stroke="#000000" stroke-width="2" x1="44.5" x2="44.5" y1="89.5" y2="69.5" /><line fill="none" stroke="#000000" stroke-width="2" x1="50" x2="50" y1="27" y2="58.5" /><line fill="none" stroke="#000000" stroke-width="2" x1="73" x2="73" y1="27" y2="58.5" /><line fill="none" stroke="#000000" stroke-width="2" x1="29" x2="94" y1="35.5" y2="35.5" /><line fill="none" stroke="#000000" stroke-width="2" x1="27.5" x2="95.5" y1="59.5" y2="59.5" /><line fill="none" stroke="#000000" stroke-width="2" x1="92" x2="31" y1="47.5" y2="47.5" /><line fill="none" stroke="#000000" stroke-width="2" x1="61.5" x2="61.5" y1="13" y2="4" /><line fill="none" stroke="#000000" stroke-width="2" x1="27.5" x2="95.5" y1="13" y2="13" /><path d="M3,79.5 c9.322,-3.637 17.533,-7.762 27.5,-14" fill="none" stroke="#000000" stroke-width="2" /><path d="M59.5,59.5 c-8.629,7.445 -20.873,14.072 -38,19.5" fill="none" stroke="#000000" stroke-width="2" /><path d="M61.5,59.5 c5.756,14.544 18.567,26.905 35,33" fill="none" stroke="#000000" stroke-width="2" /><path d="M28,92.5 c13.8,-2.06 25.747,-4.745 40,-9" fill="none" stroke="#000000" stroke-width="2" /><path d="M73,77.5 c6.473,-3.99 12.593,-8.927 17.5,-14" fill="none" stroke="#000000" stroke-width="2" /><path d="M30,29.5 c9.641,-3.033 18.124,-7.202 24,-11.5" fill="none" stroke="#000000" stroke-width="2" /><path d="M93,29.5 c-6.027,-3.776 -14.561,-7.922 -24,-11.5" fill="none" stroke="#000000" stroke-width="2" /></svg>