<?xml version='1.0' encoding='utf-8'?>
<svg xmlns="http://www.w3.org/2000/svg" height="100px" version="1.0" viewBox="0 0 100 100" width="100px" x="0px" y="0px">
<line fill="none" stroke="#000000" stroke-width="2" x1="7" x2="93" y1="62.5" y2="62.5" /><line fill="none" stroke="#000000" stroke-width="2" x1="49" x2="8" y1="16" y2="16" /><line fill="none" stroke="#000000" stroke-width="2" x1="47" x2="10.5" y1="31" y2="31" /><line fill="none" stroke="#000000" stroke-width="2" x1="28.5" x2="28.5" y1="48" y2="5.5" /><path d="M9,91 c25.047,-5.236 41,-19.382 41,-32 v-6.0" fill="none" stroke="#000000" stroke-width="2" /><path d="M91,91 c-25.047,-5.236 -41,-19.382 -41,-32" fill="none" stroke="#000000" stroke-width="2" /><path d="M46.5,50.5 c13.029,-5.353 22,-19.62 22,-39.499" fill="none" stroke="#000000" stroke-width="2" /><path d="M51,11 h41.0 c0,33.241 -3.209,38.5 -9.5,38.5 c-3.05,0 -10.574,-0.46 -15.5,-1" fill="none" stroke="#000000" stroke-width="2" /><path d="M7,51.5 c13.268,-1.958 27.174,-4.532 40.5,-7.5" fill="none" stroke="#000000" stroke-width="2" /></svg>