<?xml version='1.0' encoding='utf-8'?>
<svg xmlns="http://www.w3.org/2000/svg" height="100px" version="1.0" viewBox="0 0 100 100" width="100px" x="0px" y="0px">
<line fill="none" stroke="#000000" stroke-width="2" x1="5" x2="95" y1="66" y2="66" /><line fill="none" stroke="#000000" stroke-width="2" x1="25" x2="25" y1="59" y2="7" /><line fill="none" stroke="#000000" stroke-width="2" x1="95" x2="31" y1="36" y2="36" /><path d="M7,92 c25.047,-3.729 43,-17.337 43,-27 v-9.0" fill="none" stroke="#000000" stroke-width="2" /><path d="M93,92 c-25.047,-3.729 -43,-17.337 -43,-27" fill="none" stroke="#000000" stroke-width="2" /><path d="M7.5,14 c4.061,5.507 7.621,11.035 11,17" fill="none" stroke="#000000" stroke-width="2" /><path d="M25,37.5 c-6.69,3.124 -12.756,5.715 -20,8.5" fill="none" stroke="#000000" stroke-width="2" /><path d="M84,29 v22.0 c0,4.915 -0.531,5.5 -6.5,5.5 c-2.103,0 -7.916,-0.188 -14.5,-0.5" fill="none" stroke="#000000" stroke-width="2" /><path d="M60,53 c-4.439,-4.229 -10.625,-9.014 -17,-13" fill="none" stroke="#000000" stroke-width="2" /><path d="M42,31.5 c-2.895,-5.339 -6.027,-10.03 -9,-13.5" fill="none" stroke="#000000" stroke-width="2" /><path d="M64,30 c-2.775,-5.426 -5.824,-10.188 -9,-14" fill="none" stroke="#000000" stroke-width="2" /><path d="M75,30 c5.78,-4.349 11.383,-10.3 16,-17" fill="none" stroke="#000000" stroke-width="2" /><path d="M32,13 c22.26,-0.29 41.973,-1.851 59,-4.5" fill="none" stroke="#000000" stroke-width="2" /></svg>