<?xml version='1.0' encoding='utf-8'?>
<svg xmlns="http://www.w3.org/2000/svg" height="100px" version="1.0" viewBox="0 0 100 100" width="100px" x="0px" y="0px">
<path d="M97,51 c-3.492,-11.877 -7.934,-24.076 -13,-35.5" fill="none" stroke="#000000" stroke-width="2" /><path d="M69.16,6 v46.0 c0,7.429 -0.467,8 -5.66,8 c-1.541,0 -4.982,-0.14 -10.5,-0.5" fill="none" stroke="#000000" stroke-width="2" /><path d="M39.5,53.5 c5.146,-10.377 9.494,-23.916 12,-38" fill="none" stroke="#000000" stroke-width="2" /><path d="M90,47.5 c-7.334,22.907 -26.938,39.954 -54,45" fill="none" stroke="#000000" stroke-width="2" /><path d="M4.5,94 c18.932,-13.677 32,-41.349 32,-70 h-32.0" fill="none" stroke="#000000" stroke-width="2" /><path d="M22.5,5 c-2.859,22.511 -7.689,41.909 -14,57.5" fill="none" stroke="#000000" stroke-width="2" /><path d="M11,55 c9.428,6.397 17.021,14 26.5,27" fill="none" stroke="#000000" stroke-width="2" /></svg>