<?xml version='1.0' encoding='utf-8'?>
<svg xmlns="http://www.w3.org/2000/svg" height="100px" version="1.0" viewBox="0 0 100 100" width="100px" x="0px" y="0px">
<line fill="none" stroke="#000000" stroke-width="2" x1="92" x2="8" y1="53.5" y2="53.5" /><path d="M12.5,15.5 c26.042,0 51.133,-2.358 75,-7" fill="none" stroke="#000000" stroke-width="2" /><path d="M28,43 c-3.276,-7.386 -6.878,-14.422 -10.5,-20.5" fill="none" stroke="#000000" stroke-width="2" /><path d="M53,38 c-2.773,-6.497 -5.885,-12.698 -9,-18" fill="none" stroke="#000000" stroke-width="2" /><path d="M70,45.5 c5.549,-8.854 10.201,-18.241 13.5,-27" fill="none" stroke="#000000" stroke-width="2" /><path d="M10,91 c32.094,-4.456 56.097,-19.574 65.5,-37.5" fill="none" stroke="#000000" stroke-width="2" /><path d="M44.5,42.5 c-7.234,11.608 -16.57,22.067 -29,32" fill="none" stroke="#000000" stroke-width="2" /><path d="M21,70 c22.954,3.97 42.44,10.106 69,22" fill="none" stroke="#000000" stroke-width="2" /></svg>