<?xml version='1.0' encoding='utf-8'?>
<svg xmlns="http://www.w3.org/2000/svg" height="100px" version="1.0" viewBox="0 0 100 100" width="100px" x="0px" y="0px">
<path d="M92,14.5 c-5.212,9.397 -10.834,16.905 -17,23" fill="none" stroke="#000000" stroke-width="2" /><path d="M70,6.5 v76.5 c0,6.941 1.345,8 11,8 c12.579,0 13.402,-0.823 14,-19" fill="none" stroke="#000000" stroke-width="2" /><path d="M51,38.5 c-3.766,-6.789 -8.531,-14.328 -14,-22" fill="none" stroke="#000000" stroke-width="2" /><path d="M95,65.5 c-6.941,-5.78 -15.566,-12.042 -25,-18" fill="none" stroke="#000000" stroke-width="2" /><path d="M32,92.5 c17.898,-8.478 24,-19.05 24,-47.5 v-38.5" fill="none" stroke="#000000" stroke-width="2" /><path d="M32,67.5 c9.829,-5.403 18.131,-11.736 24,-18" fill="none" stroke="#000000" stroke-width="2" /><path d="M4,94 c16.564,-13.677 28,-40.016 28,-70 h-28.0" fill="none" stroke="#000000" stroke-width="2" /><path d="M20,5 c-2.479,22.511 -6.868,41.968 -12.5,57.5" fill="none" stroke="#000000" stroke-width="2" /><path d="M10,55 c8.402,6.791 14.943,14.458 23.5,28" fill="none" stroke="#000000" stroke-width="2" /></svg>