<?xml version='1.0' encoding='utf-8'?>
<svg xmlns="http://www.w3.org/2000/svg" height="100px" version="1.0" viewBox="0 0 100 100" width="100px" x="0px" y="0px">
<line fill="none" stroke="#000000" stroke-width="2" x1="64.5" x2="64.5" y1="15" y2="3" /><line fill="none" stroke="#000000" stroke-width="2" x1="45.5" x2="63.5" y1="33" y2="33" /><polyline fill="none" points="93.5,31 93.5,15 35.5,15 35.5,32" stroke="#000000" stroke-width="2" /><path d="M4,94 c15.284,-13.426 26.5,-39.927 26.5,-70 H4.0" fill="none" stroke="#000000" stroke-width="2" /><path d="M19,5 c-2.479,22.511 -6.868,41.968 -12.5,57.5" fill="none" stroke="#000000" stroke-width="2" /><path d="M9,55 c8.76,6.185 15.579,13.167 24.5,25.5" fill="none" stroke="#000000" stroke-width="2" /><path d="M31.5,60.5 c7.862,-10.765 13.846,-24.015 17.5,-39" fill="none" stroke="#000000" stroke-width="2" /><path d="M62.502,33.959 c-1.064,26.077 -14.461,48.25 -32.502,57.041" fill="none" stroke="#000000" stroke-width="2" /><path d="M95,69.5 c-1.055,20.802 -1.268,21 -13.5,21 c-13.279,0 -13.5,-0.19 -13.5,-6.5 v-53.5 h21.0 v28.0 c0,6.25 -0.211,6.5 -4.5,6.5 c-1.532,0 -4.852,-0.139 -9.5,-0.5" fill="none" stroke="#000000" stroke-width="2" /><path d="M55.5,63.5 c-3.987,-4.538 -8.946,-9.513 -13.5,-13.5" fill="none" stroke="#000000" stroke-width="2" /></svg>