<?xml version='1.0' encoding='utf-8'?>
<svg xmlns="http://www.w3.org/2000/svg" height="100px" version="1.0" viewBox="0 0 100 100" width="100px" x="0px" y="0px">
<line fill="none" stroke="#000000" stroke-width="2" x1="40.5" x2="92" y1="25" y2="25" /><line fill="none" stroke="#000000" stroke-width="2" x1="40.5" x2="40.5" y1="47.5" y2="11" /><line fill="none" stroke="#000000" stroke-width="2" x1="40.5" x2="87" y1="87" y2="87" /><line fill="none" stroke="#000000" stroke-width="2" x1="40.5" x2="87" y1="69.5" y2="69.5" /><polyline fill="none" points="88,93 88,52.5 39.5,52.5 39.5,93" stroke="#000000" stroke-width="2" /><path d="M4,94 c16.564,-13.677 28,-40.016 28,-70 h-28.0" fill="none" stroke="#000000" stroke-width="2" /><path d="M20,5 c-2.479,22.511 -6.868,41.968 -12.5,57.5" fill="none" stroke="#000000" stroke-width="2" /><path d="M10,55 c8.402,6.791 14.943,14.458 23.5,28" fill="none" stroke="#000000" stroke-width="2" /><path d="M39.5,12 c16.688,0 33.225,-2.091 48,-6" fill="none" stroke="#000000" stroke-width="2" /><path d="M32.5,49.5 c12.407,-2.746 23.186,-6.328 36,-12" fill="none" stroke="#000000" stroke-width="2" /><path d="M66.5,10 c0,21.3 13.515,39 23,39 c2.388,0 4.55,-3.394 6,-15" fill="none" stroke="#000000" stroke-width="2" /></svg>