<?xml version='1.0' encoding='utf-8'?>
<svg xmlns="http://www.w3.org/2000/svg" height="100px" version="1.0" viewBox="0 0 100 100" width="100px" x="0px" y="0px">
<line fill="none" stroke="#000000" stroke-width="2" x1="30.5" x2="96" y1="15" y2="15" /><line fill="none" stroke="#000000" stroke-width="2" x1="30" x2="96.5" y1="44.5" y2="44.5" /><line fill="none" stroke="#000000" stroke-width="2" x1="53" x2="53" y1="94" y2="16" /><line fill="none" stroke="#000000" stroke-width="2" x1="71.5" x2="71.5" y1="94" y2="16" /><polyline fill="none" points="34,61.5 89,61.5 89,28.5 35,28.5" stroke="#000000" stroke-width="2" /><path d="M4,94 c16.564,-13.677 28,-40.016 28,-70 h-28.0" fill="none" stroke="#000000" stroke-width="2" /><path d="M20,5 c-2.479,22.511 -6.868,41.968 -12.5,57.5" fill="none" stroke="#000000" stroke-width="2" /><path d="M10,55 c8.402,6.063 14.943,12.909 23.5,25" fill="none" stroke="#000000" stroke-width="2" /><path d="M53,15 c-2.23,-3.912 -4.662,-7.739 -7,-11" fill="none" stroke="#000000" stroke-width="2" /><path d="M71.5,15 c2.644,-3.625 5.16,-7.577 7,-11" fill="none" stroke="#000000" stroke-width="2" /><path d="M28,90.5 c11.742,-9.388 19.529,-18.726 24.5,-29" fill="none" stroke="#000000" stroke-width="2" /><path d="M96.5,90.5 c-11.725,-9.408 -19.529,-18.726 -24.5,-29" fill="none" stroke="#000000" stroke-width="2" /></svg>