<?xml version='1.0' encoding='utf-8'?>
<svg xmlns="http://www.w3.org/2000/svg" height="100px" version="1.0" viewBox="0 0 100 100" width="100px" x="0px" y="0px">
<line fill="none" stroke="#000000" stroke-width="2" x1="95" x2="34.5" y1="64" y2="64" /><line fill="none" stroke="#000000" stroke-width="2" x1="90.5" x2="39" y1="52" y2="52" /><line fill="none" stroke="#000000" stroke-width="2" x1="95" x2="34" y1="11" y2="11" /><line fill="none" stroke="#000000" stroke-width="2" x1="73.5" x2="73.5" y1="12" y2="40" /><line fill="none" stroke="#000000" stroke-width="2" x1="55.5" x2="55.5" y1="12" y2="40" /><polyline fill="none" points="37.5,42 37.5,23 91.5,23 91.5,41 38.5,41" stroke="#000000" stroke-width="2" /><path d="M3,92 c16.564,-13.677 28,-40.016 28,-70 h-28.0" fill="none" stroke="#000000" stroke-width="2" /><path d="M19,5 c-2.479,22.511 -6.868,41.968 -12.5,57.5" fill="none" stroke="#000000" stroke-width="2" /><path d="M9,55 c8.581,6.791 15.262,14.458 24,28" fill="none" stroke="#000000" stroke-width="2" /><path d="M65.5,64 v23.5 c0,3.546 -0.516,4 -5.5,4 c-2.279,0 -5.771,-0.136 -10.5,-0.5" fill="none" stroke="#000000" stroke-width="2" /><path d="M33,89 c7.282,-5.088 13.383,-11.832 17,-18.5" fill="none" stroke="#000000" stroke-width="2" /><path d="M94.5,89.5 c-4.491,-6.147 -10.547,-12.97 -17,-19" fill="none" stroke="#000000" stroke-width="2" /></svg>