<?xml version='1.0' encoding='utf-8'?>
<svg xmlns="http://www.w3.org/2000/svg" height="100px" version="1.0" viewBox="0 0 100 100" width="100px" x="0px" y="0px">
<line fill="none" stroke="#000000" stroke-width="2" x1="31" x2="97" y1="61.5" y2="61.5" /><line fill="none" stroke="#000000" stroke-width="2" x1="32" x2="96" y1="13" y2="13" /><line fill="none" stroke="#000000" stroke-width="2" x1="35" x2="94" y1="26.5" y2="26.5" /><line fill="none" stroke="#000000" stroke-width="2" x1="64" x2="64" y1="26.5" y2="3.5" /><line fill="none" stroke="#000000" stroke-width="2" x1="39.5" x2="88.5" y1="88" y2="88" /><polyline fill="none" points="39.5,50.5 39.5,35 88.5,35 88.5,49.5 40.37,49.5" stroke="#000000" stroke-width="2" /><polyline fill="none" points="89.5,94 89.5,70 38.5,70 38.5,94" stroke="#000000" stroke-width="2" /><path d="M72,61.5 c3.189,-3.594 5.895,-7.628 8,-12" fill="none" stroke="#000000" stroke-width="2" /><path d="M55.5,61.5 c-2.096,-3.986 -4.678,-8.124 -7.5,-12" fill="none" stroke="#000000" stroke-width="2" /><path d="M3,92 c16.564,-13.677 28,-40.016 28,-70 h-28.0" fill="none" stroke="#000000" stroke-width="2" /><path d="M19,5 c-2.479,22.511 -6.868,41.968 -12.5,57.5" fill="none" stroke="#000000" stroke-width="2" /><path d="M9,55 c8.581,6.791 15.262,14.458 24,28" fill="none" stroke="#000000" stroke-width="2" /></svg>