<?xml version='1.0' encoding='utf-8'?>
<svg xmlns="http://www.w3.org/2000/svg" height="100px" version="1.0" viewBox="0 0 100 100" width="100px" x="0px" y="0px">
<line fill="none" stroke="#000000" stroke-width="2" x1="78" x2="50.5" y1="80" y2="80" /><line fill="none" stroke="#000000" stroke-width="2" x1="95.5" x2="35.5" y1="24.5" y2="24.5" /><polyline fill="none" points="50.5,86 50.5,65 79,65 79,81" stroke="#000000" stroke-width="2" /><polyline fill="none" points="50.5,49 80,49 80,35 49.5,35 49.5,50" stroke="#000000" stroke-width="2" /><path d="M77,90 c5.247,0.363 8.598,0.5 10,0.5 c4.568,0 5,-0.489 5,-8 V57.0 h-54.5 v35.0" fill="none" stroke="#000000" stroke-width="2" /><path d="M38.5,13 c17.943,0 35.799,-1.754 52,-5" fill="none" stroke="#000000" stroke-width="2" /><path d="M95.5,44 c-9.092,-3.862 -18.795,-11.368 -25,-19.5" fill="none" stroke="#000000" stroke-width="2" /><path d="M33.5,45 c15.194,-7.007 26.421,-20.179 29,-33" fill="none" stroke="#000000" stroke-width="2" /><path d="M3,92 c16.564,-13.677 28,-40.016 28,-70 h-28.0" fill="none" stroke="#000000" stroke-width="2" /><path d="M19,5 c-2.479,22.511 -6.868,41.968 -12.5,57.5" fill="none" stroke="#000000" stroke-width="2" /><path d="M9,55 c8.581,6.791 15.262,14.458 24,28" fill="none" stroke="#000000" stroke-width="2" /></svg>