<?xml version='1.0' encoding='utf-8'?>
<svg xmlns="http://www.w3.org/2000/svg" height="100px" version="1.0" viewBox="0 0 100 100" width="100px" x="0px" y="0px">
<line fill="none" stroke="#000000" stroke-width="2" x1="47" x2="47" y1="89.5" y2="70" /><line fill="none" stroke="#000000" stroke-width="2" x1="52.5" x2="52.5" y1="27" y2="58.5" /><line fill="none" stroke="#000000" stroke-width="2" x1="75" x2="75" y1="27" y2="58.5" /><line fill="none" stroke="#000000" stroke-width="2" x1="35.5" x2="94" y1="35.5" y2="35.5" /><line fill="none" stroke="#000000" stroke-width="2" x1="32" x2="95.5" y1="59.5" y2="59.5" /><line fill="none" stroke="#000000" stroke-width="2" x1="92" x2="35.5" y1="47.5" y2="47.5" /><line fill="none" stroke="#000000" stroke-width="2" x1="64" x2="64" y1="13" y2="4" /><line fill="none" stroke="#000000" stroke-width="2" x1="33" x2="95.5" y1="13" y2="13" /><path d="M4,94 c16.564,-13.677 28,-40.016 28,-70 h-28.0" fill="none" stroke="#000000" stroke-width="2" /><path d="M20,5 c-2.479,22.511 -6.868,41.968 -12.5,57.5" fill="none" stroke="#000000" stroke-width="2" /><path d="M10,55 c8.402,6.791 14.943,14.458 23.5,28" fill="none" stroke="#000000" stroke-width="2" /><path d="M61.5,59.5 c-7.326,6.813 -17.859,13.026 -31.5,18" fill="none" stroke="#000000" stroke-width="2" /><path d="M63,59.5 c5.555,14.667 18.15,27.052 33.5,33" fill="none" stroke="#000000" stroke-width="2" /><path d="M32,92.5 c13.283,-2.06 24.781,-4.745 38.5,-9" fill="none" stroke="#000000" stroke-width="2" /><path d="M74.5,77.5 c6.103,-3.99 11.873,-8.927 16.5,-14" fill="none" stroke="#000000" stroke-width="2" /><path d="M35.5,29.5 c8.838,-3.033 16.613,-7.202 22,-11.5" fill="none" stroke="#000000" stroke-width="2" /><path d="M94,29.5 c-5.525,-3.776 -13.342,-7.937 -22,-11.5" fill="none" stroke="#000000" stroke-width="2" /></svg>