<?xml version='1.0' encoding='utf-8'?>
<svg xmlns="http://www.w3.org/2000/svg" height="100px" version="1.0" viewBox="0 0 100 100" width="100px" x="0px" y="0px">
<line fill="none" stroke="#000000" stroke-width="2" x1="3.5" x2="33" y1="52.5" y2="44.5" /><line fill="none" stroke="#000000" stroke-width="2" x1="32.5" x2="4" y1="11" y2="11" /><line fill="none" stroke="#000000" stroke-width="2" x1="60.5" x2="60.5" y1="84" y2="14.5" /><path d="M17.5,30 v52.5 c0,7.552 -0.416,8 -4.5,8 c-2.109,0 -5.392,-0.172 -9,-0.5" fill="none" stroke="#000000" stroke-width="2" /><path d="M31.615,11.532 c-4.23,7.985 -8.572,14.096 -14.115,19.968" fill="none" stroke="#000000" stroke-width="2" /><path d="M37,16 c19.444,0 38.178,-2.359 56,-7" fill="none" stroke="#000000" stroke-width="2" /><path d="M27.5,91.5 c6.738,-12.214 10.5,-30.522 10.5,-60.5 v-16.0" fill="none" stroke="#000000" stroke-width="2" /><path d="M96,91 c-8.021,-14.112 -12.5,-35.363 -12.5,-70 v-10.0" fill="none" stroke="#000000" stroke-width="2" /><path d="M86,91 c-3.334,-8.76 -8.013,-20.156 -12,-29" fill="none" stroke="#000000" stroke-width="2" /><path d="M37,88 c13.271,-1.254 30.321,-5.399 43.5,-10.5" fill="none" stroke="#000000" stroke-width="2" /></svg>