<?xml version='1.0' encoding='utf-8'?>
<svg xmlns="http://www.w3.org/2000/svg" height="100px" version="1.0" viewBox="0 0 100 100" width="100px" x="0px" y="0px">
<line fill="none" stroke="#000000" stroke-width="2" x1="50" x2="50" y1="11" y2="2.5" /><line fill="none" stroke="#000000" stroke-width="2" x1="21.5" x2="21.5" y1="94" y2="19" /><line fill="none" stroke="#000000" stroke-width="2" x1="36" x2="84.5" y1="32" y2="32" /><line fill="none" stroke="#000000" stroke-width="2" x1="34.5" x2="86.5" y1="62" y2="62" /><polyline fill="none" points="91.5,27 91.5,12 8.5,12 8.5,27" stroke="#000000" stroke-width="2" /><polyline fill="none" points="91.5,68 91.5,52 29.5,52 29.5,68" stroke="#000000" stroke-width="2" /><polyline fill="none" points="34,43 85.5,43 85.5,21 34,21" stroke="#000000" stroke-width="2" /><path d="M21.5,64 c-6.356,3.858 -12.12,7.052 -19,10.5" fill="none" stroke="#000000" stroke-width="2" /><path d="M5,31.5 c4.615,6.804 8.655,13.636 12.5,21" fill="none" stroke="#000000" stroke-width="2" /><path d="M26,91.5 c29.23,-4.943 50.341,-16.31 59.693,-29.091" fill="none" stroke="#000000" stroke-width="2" /><path d="M94.5,91.5 c-27.01,-5.024 -43.742,-13.652 -53.5,-26" fill="none" stroke="#000000" stroke-width="2" /></svg>