<?xml version='1.0' encoding='utf-8'?>
<svg xmlns="http://www.w3.org/2000/svg" height="100px" version="1.0" viewBox="0 0 100 100" width="100px" x="0px" y="0px">
<line fill="none" stroke="#000000" stroke-width="2" x1="7.5" x2="92.5" y1="70" y2="70" /><line fill="none" stroke="#000000" stroke-width="2" x1="62" x2="62" y1="60" y2="45.5" /><line fill="none" stroke="#000000" stroke-width="2" x1="38" x2="38" y1="60" y2="45.5" /><line fill="none" stroke="#000000" stroke-width="2" x1="50" x2="50" y1="13.5" y2="3.5" /><polyline fill="none" points="15.5,61 85.5,61 85.5,44.5 14.5,44.5 14.5,62" stroke="#000000" stroke-width="2" /><polyline fill="none" points="90,29 90,13.5 10,13.5 10,29" stroke="#000000" stroke-width="2" /><path d="M51,70 v14.0 c0,7.291 -0.75,8 -7.5,8 c-3.135,0 -7.995,-0.164 -14.5,-0.5" fill="none" stroke="#000000" stroke-width="2" /><path d="M31.5,19 v11.5 c0,6.344 0.162,6.5 17,6.5 c21.639,0 21.844,-0.172 23,-13.5" fill="none" stroke="#000000" stroke-width="2" /><path d="M9,40 c5.399,-4.868 9.936,-11.225 12.5,-17.5" fill="none" stroke="#000000" stroke-width="2" /><path d="M89.5,40 c-3.338,-5.418 -7.802,-11.471 -13,-17.5" fill="none" stroke="#000000" stroke-width="2" /><path d="M58.5,29 c-5.266,-3.139 -11.482,-6.264 -18,-9" fill="none" stroke="#000000" stroke-width="2" /></svg>