<?xml version='1.0' encoding='utf-8'?>
<svg xmlns="http://www.w3.org/2000/svg" height="100px" version="1.0" viewBox="0 0 100 100" width="100px" x="0px" y="0px">
<line fill="none" stroke="#000000" stroke-width="2" x1="50" x2="50" y1="11" y2="2" /><line fill="none" stroke="#000000" stroke-width="2" x1="7" x2="93" y1="41.5" y2="41.5" /><line fill="none" stroke="#000000" stroke-width="2" x1="50" x2="50" y1="60" y2="21" /><line fill="none" stroke="#000000" stroke-width="2" x1="50" x2="50" y1="87.5" y2="61" /><line fill="none" stroke="#000000" stroke-width="2" x1="18.5" x2="81.5" y1="88.5" y2="88.5" /><line fill="none" stroke="#000000" stroke-width="2" x1="18.5" x2="81.5" y1="74" y2="74" /><polyline fill="none" points="89.5,30 89.5,12 10.5,12 10.5,30" stroke="#000000" stroke-width="2" /><polyline fill="none" points="82.5,93.5 82.5,60 17.5,60 17.5,93.5" stroke="#000000" stroke-width="2" /><path d="M16,22 c23.611,0 46.361,-1.36 68,-4" fill="none" stroke="#000000" stroke-width="2" /><path d="M6,63 c20.788,-6.79 34.356,-13.927 43,-21.5" fill="none" stroke="#000000" stroke-width="2" /><path d="M94,63 c-20.788,-6.79 -34.383,-13.896 -43,-21.5" fill="none" stroke="#000000" stroke-width="2" /><path d="M32,38.5 c-3.102,-4.502 -6.604,-9.086 -10,-13" fill="none" stroke="#000000" stroke-width="2" /><path d="M68,38.5 c4.106,-5.01 7.746,-10.485 10,-15" fill="none" stroke="#000000" stroke-width="2" /></svg>