<?xml version='1.0' encoding='utf-8'?>
<svg xmlns="http://www.w3.org/2000/svg" height="100px" version="1.0" viewBox="0 0 100 100" width="100px" x="0px" y="0px">
<line fill="none" stroke="#000000" stroke-width="2" x1="16" x2="83" y1="21.5" y2="21.5" /><line fill="none" stroke="#000000" stroke-width="2" x1="94" x2="6" y1="70" y2="70" /><line fill="none" stroke="#000000" stroke-width="2" x1="26" x2="26" y1="43" y2="59.5" /><line fill="none" stroke="#000000" stroke-width="2" x1="46" x2="7.5" y1="43" y2="43" /><polyline fill="none" points="14,33.5 84,33.5 84,10 14,10" stroke="#000000" stroke-width="2" /><polyline fill="none" points="51.5,60.5 51.5,43 90.5,43 90.5,59.5 52.5,59.5" stroke="#000000" stroke-width="2" /><path d="M41.5,88.5 c-5.223,-4.554 -12.498,-9.708 -20,-14" fill="none" stroke="#000000" stroke-width="2" /><path d="M74.5,60.5 l-0.5,24 c0,6.414 -0.093,7 -7.5,7 c-2.503,0 -9.157,-0.18 -17,-0.5" fill="none" stroke="#000000" stroke-width="2" /><path d="M6,61.5 c16.367,-1.206 31.214,-2.957 40,-4.5" fill="none" stroke="#000000" stroke-width="2" /></svg>