<?xml version='1.0' encoding='utf-8'?>
<svg xmlns="http://www.w3.org/2000/svg" height="100px" version="1.0" viewBox="0 0 100 100" width="100px" x="0px" y="0px">
<line fill="none" stroke="#000000" stroke-width="2" x1="50" x2="50" y1="22" y2="5" /><line fill="none" stroke="#000000" stroke-width="2" x1="56.5" x2="89" y1="67.5" y2="67.5" /><line fill="none" stroke="#000000" stroke-width="2" x1="58" x2="89" y1="49" y2="49" /><line fill="none" stroke="#000000" stroke-width="2" x1="13" x2="42.5" y1="67.5" y2="67.5" /><line fill="none" stroke="#000000" stroke-width="2" x1="14.5" x2="42.5" y1="49" y2="49" /><polyline fill="none" points="13.5,8.5 13.5,22 86.5,22 86.5,8.5" stroke="#000000" stroke-width="2" /><path d="M48,93 c6.326,-8.942 9,-18.843 9,-37 v-23.5 h33.0 v51.0 c0,7.674 -0.266,8 -6,8 c-2.166,0 -6.576,-0.155 -13,-0.5" fill="none" stroke="#000000" stroke-width="2" /><path d="M4.5,93 c6.326,-8.942 9,-18.843 9,-37 v-23.5 h30.0 v51.0 c0,7.674 -0.266,8 -6,8 c-2.166,0 -6.576,-0.155 -13,-0.5" fill="none" stroke="#000000" stroke-width="2" /></svg>