<?xml version='1.0' encoding='utf-8'?>
<svg xmlns="http://www.w3.org/2000/svg" height="100px" version="1.0" viewBox="0 0 100 100" width="100px" x="0px" y="0px">
<line fill="none" stroke="#000000" stroke-width="2" x1="7" x2="7" y1="20" y2="92" /><line fill="none" stroke="#000000" stroke-width="2" x1="18.5" x2="18.5" y1="84" y2="6.5" /><line fill="none" stroke="#000000" stroke-width="2" x1="64" x2="37.5" y1="10" y2="10" /><line fill="none" stroke="#000000" stroke-width="2" x1="30.5" x2="94.5" y1="90" y2="90" /><line fill="none" stroke="#000000" stroke-width="2" x1="49" x2="77" y1="38.5" y2="38.5" /><polyline fill="none" points="8,84 30,84 30,20" stroke="#000000" stroke-width="2" /><polyline fill="none" points="42.5,71 42.5,51 83.5,51 83.5,70 43.5,70" stroke="#000000" stroke-width="2" /><path d="M96,50.5 c-14.901,-9.649 -27.476,-25.444 -32.943,-41.172" fill="none" stroke="#000000" stroke-width="2" /><path d="M30,50.5 c14.901,-9.649 27.476,-25.444 32.943,-41.172" fill="none" stroke="#000000" stroke-width="2" /><path d="M85.5,11 c-4.161,4.874 -9.676,10.196 -14.5,14" fill="none" stroke="#000000" stroke-width="2" /><path d="M95.5,22.5 c-4.492,5.077 -10.326,10.558 -15.5,14.5" fill="none" stroke="#000000" stroke-width="2" /><path d="M51,30.5 c-4.484,-4.534 -9.497,-9.039 -14.5,-13" fill="none" stroke="#000000" stroke-width="2" /><path d="M69.5,90 c3.797,-5.966 7.012,-12.704 9.5,-20" fill="none" stroke="#000000" stroke-width="2" /><path d="M55.5,90 c-2.369,-6.645 -5.295,-13.548 -8.5,-20" fill="none" stroke="#000000" stroke-width="2" /></svg>