<?xml version='1.0' encoding='utf-8'?>
<svg xmlns="http://www.w3.org/2000/svg" height="100px" version="1.0" viewBox="0 0 100 100" width="100px" x="0px" y="0px">
<line fill="none" stroke="#000000" stroke-width="2" x1="20.5" x2="20.5" y1="94" y2="6" /><line fill="none" stroke="#000000" stroke-width="2" x1="44" x2="87.5" y1="57.5" y2="57.5" /><line fill="none" stroke="#000000" stroke-width="2" x1="44" x2="87.5" y1="42.5" y2="42.5" /><line fill="none" stroke="#000000" stroke-width="2" x1="61" x2="94.5" y1="13.5" y2="13.5" /><line fill="none" stroke="#000000" stroke-width="2" x1="61" x2="61" y1="27" y2="4" /><polyline fill="none" points="44,73 88.5,73 88.5,28 43,28 43,74" stroke="#000000" stroke-width="2" /><path d="M25.5,75 h3.0 c4.664,0 5,-0.355 5,-7 v-46.0 h-26.0 v55.0" fill="none" stroke="#000000" stroke-width="2" /><path d="M32,92.5 c10.97,-3.83 20.417,-9.102 26,-14" fill="none" stroke="#000000" stroke-width="2" /><path d="M96.5,93.5 c-6.695,-4.882 -15.932,-10.129 -26,-14.5" fill="none" stroke="#000000" stroke-width="2" /></svg>