<?xml version='1.0' encoding='utf-8'?>
<svg xmlns="http://www.w3.org/2000/svg" height="100px" version="1.0" viewBox="0 0 100 100" width="100px" x="0px" y="0px">
<line fill="none" stroke="#000000" stroke-width="2" x1="19.5" x2="19.5" y1="94" y2="6" /><line fill="none" stroke="#000000" stroke-width="2" x1="57" x2="57" y1="53.5" y2="40.5" /><line fill="none" stroke="#000000" stroke-width="2" x1="76" x2="76" y1="53.5" y2="40.5" /><line fill="none" stroke="#000000" stroke-width="2" x1="43.5" x2="89" y1="21" y2="21" /><line fill="none" stroke="#000000" stroke-width="2" x1="40" x2="91" y1="62.5" y2="62.5" /><polyline fill="none" points="39,54.5 95,54.5 95,39.5 38,39.5 38,55.5" stroke="#000000" stroke-width="2" /><polyline fill="none" points="43.5,32 90,32 90,10 42.5,10 42.5,33" stroke="#000000" stroke-width="2" /><path d="M24,75 h3.0 c4.664,0 5,-0.355 5,-7 v-46.0 h-25.0 v55.0" fill="none" stroke="#000000" stroke-width="2" /><path d="M34.5,91 c26.523,-5.121 46.025,-15.805 55.714,-28.118" fill="none" stroke="#000000" stroke-width="2" /><path d="M96,91 c-22.148,-4.211 -38.584,-12.618 -50,-25" fill="none" stroke="#000000" stroke-width="2" /></svg>