<?xml version='1.0' encoding='utf-8'?>
<svg xmlns="http://www.w3.org/2000/svg" height="100px" version="1.0" viewBox="0 0 100 100" width="100px" x="0px" y="0px">
<line fill="none" stroke="#000000" stroke-width="2" x1="51.5" x2="51.5" y1="12.5" y2="3" /><line fill="none" stroke="#000000" stroke-width="2" x1="56.5" x2="26" y1="23" y2="23" /><line fill="none" stroke="#000000" stroke-width="2" x1="31.5" x2="79" y1="51" y2="51" /><line fill="none" stroke="#000000" stroke-width="2" x1="18.5" x2="92" y1="67" y2="67" /><path d="M4.5,92 c4.898,-10.415 9,-30.94 9,-47 v-31.5 h78.5" fill="none" stroke="#000000" stroke-width="2" /><path d="M66,51 v34.5 c0,5.122 0.564,5.5 10,5.5 c13.438,0 13.637,-0.195 14.5,-16.5" fill="none" stroke="#000000" stroke-width="2" /><path d="M17,92.5 c18.142,-5.224 26.5,-15.378 26.5,-33.5 v-7.0" fill="none" stroke="#000000" stroke-width="2" /><path d="M94.5,56.5 c-19.247,-8.739 -33.738,-22.009 -38.92,-34.106" fill="none" stroke="#000000" stroke-width="2" /><path d="M78,19.5 c-3.645,5.716 -8.328,11.668 -13,16.5" fill="none" stroke="#000000" stroke-width="2" /><path d="M91,29 c-3.918,6.044 -9.002,12.378 -14,17.5" fill="none" stroke="#000000" stroke-width="2" /><path d="M40,41.5 c-5.104,-4.87 -10.573,-9.845 -16,-14.5" fill="none" stroke="#000000" stroke-width="2" /><path d="M16,56.5 c19.247,-8.739 33.738,-22.009 38.92,-34.106" fill="none" stroke="#000000" stroke-width="2" /></svg>