<?xml version='1.0' encoding='utf-8'?>
<svg xmlns="http://www.w3.org/2000/svg" height="100px" version="1.0" viewBox="0 0 100 100" width="100px" x="0px" y="0px">
<line fill="none" stroke="#000000" stroke-width="2" x1="64.621" x2="64.621" y1="19" y2="4.5" /><line fill="none" stroke="#000000" stroke-width="2" x1="35" x2="95.5" y1="19" y2="19" /><path d="M7,11 h24.5 v23.0 H10.0 c-0.637,11.548 -1.652,22.362 -3,32" fill="none" stroke="#000000" stroke-width="2" /><path d="M8.5,56.5 h23.0 c-2.152,33.056 -3.082,34 -7.5,34 c-2.577,0 -10.963,-0.507 -16,-1" fill="none" stroke="#000000" stroke-width="2" /><path d="M62,65.5 c-7.343,-9.554 -16.993,-20.94 -25.5,-30" fill="none" stroke="#000000" stroke-width="2" /><path d="M42.5,88.5 c15.807,-17.072 29.691,-35.124 42,-54.5" fill="none" stroke="#000000" stroke-width="2" /><path d="M45,44.5 c6.929,-7.953 13.4,-16.633 19,-25.5" fill="none" stroke="#000000" stroke-width="2" /><path d="M95.5,92 c-3.75,-8.647 -10.408,-21.124 -17,-31.5" fill="none" stroke="#000000" stroke-width="2" /><path d="M32.5,89 c17.91,-0.769 38.649,-3.035 58.5,-6.5" fill="none" stroke="#000000" stroke-width="2" /></svg>