<?xml version='1.0' encoding='utf-8'?>
<svg xmlns="http://www.w3.org/2000/svg" height="100px" version="1.0" viewBox="0 0 100 100" width="100px" x="0px" y="0px">
<line fill="none" stroke="#000000" stroke-width="2" x1="62" x2="62" y1="83.5" y2="15" /><path d="M6,11 h24.5 v23.0 H10.0 c-0.637,11.548 -1.652,22.362 -3,32" fill="none" stroke="#000000" stroke-width="2" /><path d="M8.5,56.5 h22.0 c-2.152,33.056 -3.082,34 -7.5,34 c-2.577,0 -10.963,-0.507 -16,-1" fill="none" stroke="#000000" stroke-width="2" /><path d="M40.5,16 c18.576,0 36.474,-2.359 53.5,-7" fill="none" stroke="#000000" stroke-width="2" /><path d="M31,91.5 c6.738,-12.214 10.5,-30.522 10.5,-60.5 v-16.0" fill="none" stroke="#000000" stroke-width="2" /><path d="M96,91 c-8.021,-14.112 -12.5,-35.363 -12.5,-70 v-10.0" fill="none" stroke="#000000" stroke-width="2" /><path d="M86.5,91 c-3.334,-8.76 -8.013,-20.156 -12,-29" fill="none" stroke="#000000" stroke-width="2" /><path d="M39,88 c12.814,-1.254 29.275,-5.399 42,-10.5" fill="none" stroke="#000000" stroke-width="2" /></svg>