<?xml version='1.0' encoding='utf-8'?>
<svg xmlns="http://www.w3.org/2000/svg" height="100px" version="1.0" viewBox="0 0 100 100" width="100px" x="0px" y="0px">
<line fill="none" stroke="#000000" stroke-width="2" x1="8" x2="92" y1="13" y2="13" /><line fill="none" stroke="#000000" stroke-width="2" x1="50" x2="50" y1="13" y2="3" /><path d="M61,13 v20.0 c0,4.63 -0.435,5 -6,5 c-2.061,0 -5.666,-0.134 -11.5,-0.5" fill="none" stroke="#000000" stroke-width="2" /><path d="M24,41 c13.185,-7.123 18,-14.509 18,-28" fill="none" stroke="#000000" stroke-width="2" /><path d="M8,39.5 c9.213,-5.433 16.625,-12.644 21,-20" fill="none" stroke="#000000" stroke-width="2" /><path d="M92,39.5 c-5.781,-6.5 -14.092,-13.81 -23,-20" fill="none" stroke="#000000" stroke-width="2" /><path d="M17.5,45 h64.0 v13.0 h-61.0 c-1.299,7.198 -4.06,15.275 -7,21" fill="none" stroke="#000000" stroke-width="2" /><path d="M17,71 h68.5 c-4.14,18.534 -6.003,20 -16,20 c-5.572,0 -13.555,-0.334 -23.5,-1" fill="none" stroke="#000000" stroke-width="2" /></svg>