<?xml version='1.0' encoding='utf-8'?>
<svg xmlns="http://www.w3.org/2000/svg" height="100px" version="1.0" viewBox="0 0 100 100" width="100px" x="0px" y="0px">
<line fill="none" stroke="#000000" stroke-width="2" x1="96" x2="34" y1="75.5" y2="75.5" /><line fill="none" stroke="#000000" stroke-width="2" x1="65" x2="65" y1="24.5" y2="94" /><line fill="none" stroke="#000000" stroke-width="2" x1="40" x2="90" y1="41.5" y2="41.5" /><polyline fill="none" points="40,60.5 91,60.5 91,23.5 39,23.5 39,61.5" stroke="#000000" stroke-width="2" /><path d="M6,11 h24.5 v23.0 H9.0 c-0.637,11.548 -1.652,22.362 -3,32" fill="none" stroke="#000000" stroke-width="2" /><path d="M7.5,56.5 h23.0 c-2.152,33.056 -3.082,34 -7.5,34 c-2.577,0 -10.963,-0.507 -16,-1" fill="none" stroke="#000000" stroke-width="2" /><path d="M47.5,23.5 c-2.787,-6.308 -5.894,-12.341 -9,-17.5" fill="none" stroke="#000000" stroke-width="2" /><path d="M68,23.5 c-2.776,-6.672 -5.895,-13.046 -9,-18.5" fill="none" stroke="#000000" stroke-width="2" /><path d="M80.5,23.5 c4.311,-6.196 8.073,-12.56 11,-18.5" fill="none" stroke="#000000" stroke-width="2" /></svg>