<?xml version='1.0' encoding='utf-8'?>
<svg xmlns="http://www.w3.org/2000/svg" height="100px" version="1.0" viewBox="0 0 100 100" width="100px" x="0px" y="0px">
<line fill="none" stroke="#000000" stroke-width="2" x1="15.5" x2="49.5" y1="23" y2="23" /><line fill="none" stroke="#000000" stroke-width="2" x1="13.5" x2="51.5" y1="42" y2="42" /><line fill="none" stroke="#000000" stroke-width="2" x1="32.5" x2="32.5" y1="41" y2="10" /><line fill="none" stroke="#000000" stroke-width="2" x1="19" x2="19" y1="52" y2="86" /><polyline fill="none" points="20,79 46,79 46,53 20,53" stroke="#000000" stroke-width="2" /><path d="M3.5,92.5 c3.771,-10.753 5.5,-23.189 5.5,-46.5 v-36.0 h47.0 v73.0 c0,7.491 -0.434,8 -5,8 c-1.657,0 -5.586,-0.166 -10.5,-0.5" fill="none" stroke="#000000" stroke-width="2" /><path d="M60.5,26.5 c13.784,-4.769 24.571,-11.101 32,-18" fill="none" stroke="#000000" stroke-width="2" /><path d="M60.5,57.5 c14.998,-5.64 25.56,-12.606 34,-22" fill="none" stroke="#000000" stroke-width="2" /><path d="M60.5,90.5 c15.645,-5.866 26.488,-13.968 36,-26" fill="none" stroke="#000000" stroke-width="2" /></svg>