<?xml version='1.0' encoding='utf-8'?>
<svg xmlns="http://www.w3.org/2000/svg" height="100px" version="1.0" viewBox="0 0 100 100" width="100px" x="0px" y="0px">
<line fill="none" stroke="#000000" stroke-width="2" x1="19.5" x2="19.5" y1="94" y2="6" /><line fill="none" stroke="#000000" stroke-width="2" x1="32" x2="3.5" y1="25.5" y2="25.5" /><line fill="none" stroke="#000000" stroke-width="2" x1="49.5" x2="49.5" y1="94" y2="6" /><line fill="none" stroke="#000000" stroke-width="2" x1="60" x2="35" y1="25.5" y2="25.5" /><path d="M62.5,26.5 c12.889,-4.858 23.035,-11.101 30,-18" fill="none" stroke="#000000" stroke-width="2" /><path d="M62.5,57.5 c14.115,-5.64 24.057,-12.606 32,-22" fill="none" stroke="#000000" stroke-width="2" /><path d="M60.5,90.5 c15.645,-5.866 26.488,-13.968 36,-26" fill="none" stroke="#000000" stroke-width="2" /><path d="M2,69.5 c7.904,-14.499 13.176,-28.562 16.5,-44.5" fill="none" stroke="#000000" stroke-width="2" /><path d="M29.5,69.5 c9.102,-14.499 15.172,-28.562 19,-44.5" fill="none" stroke="#000000" stroke-width="2" /><path d="M61.5,52.5 c-3.424,-8.549 -7.195,-17.435 -11,-26" fill="none" stroke="#000000" stroke-width="2" /><path d="M31.5,52.5 c-3.424,-8.549 -7.195,-17.435 -11,-26" fill="none" stroke="#000000" stroke-width="2" /></svg>