<?xml version='1.0' encoding='utf-8'?>
<svg xmlns="http://www.w3.org/2000/svg" height="100px" version="1.0" viewBox="0 0 100 100" width="100px" x="0px" y="0px">
<line fill="none" stroke="#000000" stroke-width="2" x1="7.5" x2="52.5" y1="33" y2="33" /><line fill="none" stroke="#000000" stroke-width="2" x1="54.5" x2="5.5" y1="17" y2="17" /><line fill="none" stroke="#000000" stroke-width="2" x1="30" x2="30" y1="33" y2="6" /><polyline fill="none" points="11,62.5 11,42 49,42 49,61.5 12,61.5" stroke="#000000" stroke-width="2" /><path d="M5,90.5 c16.995,-1.931 31.607,-4.567 50,-9" fill="none" stroke="#000000" stroke-width="2" /><path d="M35.5,85.5 c3.893,-5.608 7.216,-12.448 9.5,-20" fill="none" stroke="#000000" stroke-width="2" /><path d="M22.5,84.5 c-2.183,-6.086 -4.832,-12.618 -7.5,-18.5" fill="none" stroke="#000000" stroke-width="2" /><path d="M56.5,27 c14.514,-4.657 26.631,-11.223 34.5,-18" fill="none" stroke="#000000" stroke-width="2" /><path d="M56.5,57.5 c15.989,-5.601 27.701,-12.879 36.5,-22" fill="none" stroke="#000000" stroke-width="2" /><path d="M52,90 c18.524,-5.815 31.707,-14.04 43,-26" fill="none" stroke="#000000" stroke-width="2" /></svg>