<?xml version='1.0' encoding='utf-8'?>
<svg xmlns="http://www.w3.org/2000/svg" height="100px" version="1.0" viewBox="0 0 100 100" width="100px" x="0px" y="0px">
<line fill="none" stroke="#000000" stroke-width="2" x1="12.5" x2="52.5" y1="54.5" y2="54.5" /><line fill="none" stroke="#000000" stroke-width="2" x1="4.5" x2="60.5" y1="78.5" y2="78.5" /><line fill="none" stroke="#000000" stroke-width="2" x1="32.5" x2="32.5" y1="94.5" y2="69" /><line fill="none" stroke="#000000" stroke-width="2" x1="4.5" x2="60.5" y1="33.5" y2="33.5" /><line fill="none" stroke="#000000" stroke-width="2" x1="6.5" x2="58.5" y1="16" y2="16" /><line fill="none" stroke="#000000" stroke-width="2" x1="32.5" x2="32.5" y1="16" y2="5.5" /><polyline fill="none" points="12.5,68 53.5,68 53.5,42 11.5,42 11.5,69" stroke="#000000" stroke-width="2" /><path d="M41.5,33.5 c3.377,-4.958 6.11,-10.87 8,-17.5" fill="none" stroke="#000000" stroke-width="2" /><path d="M23,33.5 c-2.134,-5.938 -4.619,-11.708 -7.5,-17.5" fill="none" stroke="#000000" stroke-width="2" /><path d="M59.5,26.5 c13.784,-4.769 24.571,-11.101 32,-18" fill="none" stroke="#000000" stroke-width="2" /><path d="M59.5,57.5 c14.998,-5.64 25.56,-12.606 34,-22" fill="none" stroke="#000000" stroke-width="2" /><path d="M55.5,90.5 c17.383,-5.866 29.432,-13.968 40,-26" fill="none" stroke="#000000" stroke-width="2" /></svg>