<?xml version='1.0' encoding='utf-8'?>
<svg xmlns="http://www.w3.org/2000/svg" height="100px" version="1.0" viewBox="0 0 100 100" width="100px" x="0px" y="0px">
<line fill="none" stroke="#000000" stroke-width="2" x1="17" x2="17" y1="94" y2="42" /><line fill="none" stroke="#000000" stroke-width="2" x1="96.5" x2="33.5" y1="29" y2="29" /><line fill="none" stroke="#000000" stroke-width="2" x1="42.5" x2="42.5" y1="42.5" y2="93.5" /><line fill="none" stroke="#000000" stroke-width="2" x1="43.5" x2="90.5" y1="87" y2="87" /><line fill="none" stroke="#000000" stroke-width="2" x1="43.5" x2="90.5" y1="72.5" y2="72.5" /><line fill="none" stroke="#000000" stroke-width="2" x1="43.5" x2="90.5" y1="58" y2="58" /><polyline fill="none" points="90.5,93.5 90.5,43.5 43.5,43.5" stroke="#000000" stroke-width="2" /><path d="M26.5,28 c-5.266,10.459 -12.938,19.355 -23.5,27" fill="none" stroke="#000000" stroke-width="2" /><path d="M27.5,6 c-5.256,8.887 -13.006,16.485 -23.5,23" fill="none" stroke="#000000" stroke-width="2" /><path d="M23,90.5 c6.715,-12.198 10.5,-28.618 10.5,-47 v-28.0 c18.277,0 37.934,-2.553 58,-7.5" fill="none" stroke="#000000" stroke-width="2" /><path d="M61,43.5 c2.566,-8.397 4.734,-19.063 6,-30.5" fill="none" stroke="#000000" stroke-width="2" /></svg>