<?xml version='1.0' encoding='utf-8'?>
<svg xmlns="http://www.w3.org/2000/svg" height="100px" version="1.0" viewBox="0 0 100 100" width="100px" x="0px" y="0px">
<line fill="none" stroke="#000000" stroke-width="2" x1="48" x2="6" y1="15" y2="15" /><line fill="none" stroke="#000000" stroke-width="2" x1="50" x2="91.5" y1="12" y2="12" /><path d="M32.5,61.5 v18.0 c0,10.571 0.292,10.911 7,11.5 c3.618,0.317 8.079,0.5 12.5,0.5 c4.34,0 8.638,-0.161 12.5,-0.5 c11.35,-0.996 11.514,-1.125 13,-16" fill="none" stroke="#000000" stroke-width="2" /><path d="M5.5,89.5 c6.062,-6.017 11.077,-13.812 14,-22" fill="none" stroke="#000000" stroke-width="2" /><path d="M94.5,89 c-4.006,-8.018 -9.154,-16.294 -15,-24.001" fill="none" stroke="#000000" stroke-width="2" /><path d="M63,75.5 c-5.825,-4.966 -12.691,-9.811 -20,-14" fill="none" stroke="#000000" stroke-width="2" /><path d="M6,61.5 c21.828,-8.03 36.729,-25.149 41.021,-45.704" fill="none" stroke="#000000" stroke-width="2" /><path d="M14,33.5 c12.536,4.406 22.167,9.185 33.5,16.5" fill="none" stroke="#000000" stroke-width="2" /><path d="M26,4.5 c-3.683,13.771 -9.283,25.728 -16.5,35.5" fill="none" stroke="#000000" stroke-width="2" /><path d="M46,56 c22.287,-9.216 36.14,-22.834 44.575,-43.38" fill="none" stroke="#000000" stroke-width="2" /><path d="M95,59 c-17.23,-10.378 -31.163,-25.247 -40,-42.5" fill="none" stroke="#000000" stroke-width="2" /></svg>