<?xml version='1.0' encoding='utf-8'?>
<svg xmlns="http://www.w3.org/2000/svg" height="100px" version="1.0" viewBox="0 0 100 100" width="100px" x="0px" y="0px">
<line fill="none" stroke="#000000" stroke-width="2" x1="17" x2="17" y1="94" y2="6" /><line fill="none" stroke="#000000" stroke-width="2" x1="70.5" x2="70.5" y1="94" y2="6" /><path d="M4,58 c2.624,-10.247 4.357,-21.376 5,-32" fill="none" stroke="#000000" stroke-width="2" /><path d="M27.5,46 c-0.573,-6.952 -1.604,-14.611 -3,-22" fill="none" stroke="#000000" stroke-width="2" /><path d="M30.5,58 h62.0 c0,26.108 -0.73,27.5 -5,27.5 c-1.869,0 -6.039,-0.374 -10.5,-1" fill="none" stroke="#000000" stroke-width="2" /><path d="M28.5,16 h61.5 v21.5 h-56.5 c-1.004,10.086 -3.303,23.486 -5.5,32" fill="none" stroke="#000000" stroke-width="2" /><path d="M25,94 c18.781,-9.454 26,-21.687 26,-47.5 V6.0" fill="none" stroke="#000000" stroke-width="2" /></svg>