<?xml version='1.0' encoding='utf-8'?>
<svg xmlns="http://www.w3.org/2000/svg" height="100px" version="1.0" viewBox="0 0 100 100" width="100px" x="0px" y="0px">
<line fill="none" stroke="#000000" stroke-width="2" x1="15.5" x2="15.5" y1="94" y2="6" /><line fill="none" stroke="#000000" stroke-width="2" x1="34" x2="88" y1="55" y2="55" /><line fill="none" stroke="#000000" stroke-width="2" x1="61" x2="61" y1="94" y2="5" /><line fill="none" stroke="#000000" stroke-width="2" x1="27" x2="93.5" y1="16" y2="16" /><polyline fill="none" points="89,56 89,30 33,30 33,56" stroke="#000000" stroke-width="2" /><path d="M3,58 c2.624,-10.247 4.357,-21.376 5,-32" fill="none" stroke="#000000" stroke-width="2" /><path d="M26,47.5 c-0.573,-6.952 -1.604,-14.611 -3,-22" fill="none" stroke="#000000" stroke-width="2" /><path d="M23.5,87 c18.287,-11.095 30.182,-21.983 36.5,-32" fill="none" stroke="#000000" stroke-width="2" /><path d="M95,87 c-14.389,-9.026 -24.379,-18.723 -33,-32" fill="none" stroke="#000000" stroke-width="2" /></svg>