<?xml version='1.0' encoding='utf-8'?>
<svg xmlns="http://www.w3.org/2000/svg" height="100px" version="1.0" viewBox="0 0 100 100" width="100px" x="0px" y="0px">
<line fill="none" stroke="#000000" stroke-width="2" x1="17" x2="17" y1="94" y2="6" /><line fill="none" stroke="#000000" stroke-width="2" x1="46.5" x2="88.5" y1="56" y2="56" /><path d="M4,58 c2.624,-10.247 4.357,-21.376 5,-32" fill="none" stroke="#000000" stroke-width="2" /><path d="M27.5,47.5 c-0.573,-6.952 -1.604,-14.611 -3,-22" fill="none" stroke="#000000" stroke-width="2" /><path d="M30,70 c10.011,-5.953 20.466,-16.813 24,-24.5" fill="none" stroke="#000000" stroke-width="2" /><path d="M87.646,56.479 c-10.264,16.812 -32.207,30.384 -60.646,35.521" fill="none" stroke="#000000" stroke-width="2" /><path d="M95.5,92 c-21.317,-7.034 -39.906,-19.698 -50.5,-34" fill="none" stroke="#000000" stroke-width="2" /><path d="M70.5,24 v19.0 c0,4.302 0.242,4.5 11.5,4.5 c10.619,0 10.836,-0.151 12,-12" fill="none" stroke="#000000" stroke-width="2" /><path d="M39,25.5 c5.349,-6.438 10.615,-13.655 15,-20.5" fill="none" stroke="#000000" stroke-width="2" /><path d="M93.5,29 c-5.65,-6.704 -13.355,-15.22 -20,-22" fill="none" stroke="#000000" stroke-width="2" /><path d="M30,26 c18.52,-0.391 38.731,-1.651 58,-3.5" fill="none" stroke="#000000" stroke-width="2" /><path d="M30,51.5 c15.033,-4.537 24.231,-14.329 25,-26.5" fill="none" stroke="#000000" stroke-width="2" /></svg>