<?xml version='1.0' encoding='utf-8'?>
<svg xmlns="http://www.w3.org/2000/svg" height="100px" version="1.0" viewBox="0 0 100 100" width="100px" x="0px" y="0px">
<line fill="none" stroke="#000000" stroke-width="2" x1="15.5" x2="15.5" y1="94" y2="6" /><line fill="none" stroke="#000000" stroke-width="2" x1="22.5" x2="95.5" y1="15" y2="15" /><line fill="none" stroke="#000000" stroke-width="2" x1="43.5" x2="43.5" y1="24.5" y2="4" /><line fill="none" stroke="#000000" stroke-width="2" x1="74.5" x2="74.5" y1="24.5" y2="4" /><line fill="none" stroke="#000000" stroke-width="2" x1="24" x2="95" y1="30.5" y2="30.5" /><line fill="none" stroke="#000000" stroke-width="2" x1="59" x2="59" y1="30.5" y2="20" /><line fill="none" stroke="#000000" stroke-width="2" x1="59" x2="59" y1="59.5" y2="92.5" /><path d="M3,58 c2.624,-10.247 4.357,-21.376 5,-32" fill="none" stroke="#000000" stroke-width="2" /><path d="M26,47.5 c-0.573,-6.952 -1.604,-14.611 -3,-22" fill="none" stroke="#000000" stroke-width="2" /><path d="M90,52.5 c-10.085,1.005 -19.802,1.5 -29,1.5 c-24.32,0 -24.5,-0.178 -24.5,-9.5 v-14.0" fill="none" stroke="#000000" stroke-width="2" /><path d="M78,58.5 v28.5 c0,4.716 0.422,5 7.5,5 c8.683,0 8.843,-0.168 9.5,-22.5" fill="none" stroke="#000000" stroke-width="2" /><path d="M22.5,93.5 c11.795,-5.286 19,-17.714 19,-35" fill="none" stroke="#000000" stroke-width="2" /></svg>