<?xml version='1.0' encoding='utf-8'?>
<svg xmlns="http://www.w3.org/2000/svg" height="100px" version="1.0" viewBox="0 0 100 100" width="100px" x="0px" y="0px">
<line fill="none" stroke="#000000" stroke-width="2" x1="15.5" x2="15.5" y1="94" y2="6" /><line fill="none" stroke="#000000" stroke-width="2" x1="94.5" x2="27" y1="64" y2="64" /><line fill="none" stroke="#000000" stroke-width="2" x1="89.5" x2="32.5" y1="52" y2="52" /><line fill="none" stroke="#000000" stroke-width="2" x1="94.5" x2="27" y1="11" y2="11" /><line fill="none" stroke="#000000" stroke-width="2" x1="71" x2="71" y1="12" y2="40" /><line fill="none" stroke="#000000" stroke-width="2" x1="51" x2="51" y1="12" y2="40" /><polyline fill="none" points="31.5,42 31.5,23 90.5,23 90.5,41 32.5,41" stroke="#000000" stroke-width="2" /><path d="M3,58 c2.624,-10.247 4.357,-21.376 5,-32" fill="none" stroke="#000000" stroke-width="2" /><path d="M26,47.5 c-0.573,-6.952 -1.604,-14.611 -3,-22" fill="none" stroke="#000000" stroke-width="2" /><path d="M61.5,64 v23.5 c0,3.546 -0.484,4 -6,4 c-2.423,0 -5.976,-0.136 -11,-0.5" fill="none" stroke="#000000" stroke-width="2" /><path d="M26,89 c7.925,-5.088 14.564,-11.832 18.5,-18.5" fill="none" stroke="#000000" stroke-width="2" /><path d="M93.5,89.5 c-4.887,-6.147 -11.477,-12.97 -18.5,-19" fill="none" stroke="#000000" stroke-width="2" /></svg>