<?xml version='1.0' encoding='utf-8'?>
<svg xmlns="http://www.w3.org/2000/svg" height="100px" version="1.0" viewBox="0 0 100 100" width="100px" x="0px" y="0px">
<line fill="none" stroke="#000000" stroke-width="2" x1="15" x2="15" y1="94" y2="6" /><line fill="none" stroke="#000000" stroke-width="2" x1="31" x2="59" y1="47" y2="47" /><line fill="none" stroke="#000000" stroke-width="2" x1="25.5" x2="61.5" y1="78" y2="78" /><line fill="none" stroke="#000000" stroke-width="2" x1="45" x2="45" y1="95" y2="5" /><line fill="none" stroke="#000000" stroke-width="2" x1="26.5" x2="63" y1="17" y2="17" /><line fill="none" stroke="#000000" stroke-width="2" x1="68.5" x2="98" y1="38" y2="38" /><line fill="none" stroke="#000000" stroke-width="2" x1="86.5" x2="86.5" y1="93" y2="38" /><polyline fill="none" points="31,65 60,65 60,30 30,30 30,66" stroke="#000000" stroke-width="2" /><path d="M3,58 c2.624,-10.247 4.357,-21.376 5,-32" fill="none" stroke="#000000" stroke-width="2" /><path d="M25,47.5 c-0.573,-6.952 -1.604,-14.611 -3,-22" fill="none" stroke="#000000" stroke-width="2" /><path d="M68.104,14.994 c11.017,-1.145 19.919,-3.553 26.896,-6.994" fill="none" stroke="#000000" stroke-width="2" /><path d="M60,90.5 c6.629,-14.657 9,-30.057 9,-76.5" fill="none" stroke="#000000" stroke-width="2" /></svg>