<?xml version='1.0' encoding='utf-8'?>
<svg xmlns="http://www.w3.org/2000/svg" height="100px" version="1.0" viewBox="0 0 100 100" width="100px" x="0px" y="0px">
<line fill="none" stroke="#000000" stroke-width="2" x1="16.5" x2="16.5" y1="94" y2="6" /><line fill="none" stroke="#000000" stroke-width="2" x1="73.5" x2="73.5" y1="53.5" y2="40.5" /><line fill="none" stroke="#000000" stroke-width="2" x1="52.5" x2="52.5" y1="53.5" y2="40.5" /><line fill="none" stroke="#000000" stroke-width="2" x1="38" x2="87.5" y1="21" y2="21" /><line fill="none" stroke="#000000" stroke-width="2" x1="34" x2="88.5" y1="62.5" y2="62.5" /><polyline fill="none" points="32.5,54.5 94.5,54.5 94.5,39.5 31.5,39.5 31.5,55.5" stroke="#000000" stroke-width="2" /><polyline fill="none" points="38,32 88.5,32 88.5,10 37,10 37,33" stroke="#000000" stroke-width="2" /><path d="M4,58 c2.624,-10.247 4.357,-21.376 5,-32" fill="none" stroke="#000000" stroke-width="2" /><path d="M26.5,47.5 c-0.573,-6.952 -1.604,-14.611 -3,-22" fill="none" stroke="#000000" stroke-width="2" /><path d="M27,91 c29.006,-4.664 50.406,-15.649 60.729,-28.137" fill="none" stroke="#000000" stroke-width="2" /><path d="M95.5,91 c-25.047,-4.45 -42.389,-12.917 -53.5,-25" fill="none" stroke="#000000" stroke-width="2" /></svg>