<?xml version='1.0' encoding='utf-8'?>
<svg xmlns="http://www.w3.org/2000/svg" height="100px" version="1.0" viewBox="0 0 100 100" width="100px" x="0px" y="0px">
<line fill="none" stroke="#000000" stroke-width="2" x1="48.5" x2="48.5" y1="19" y2="3" /><line fill="none" stroke="#000000" stroke-width="2" x1="18.5" x2="75.5" y1="32" y2="26" /><line fill="none" stroke="#000000" stroke-width="2" x1="48.5" x2="84.5" y1="10.5" y2="10.5" /><line fill="none" stroke="#000000" stroke-width="2" x1="56" x2="56" y1="67.5" y2="45" /><line fill="none" stroke="#000000" stroke-width="2" x1="26.5" x2="85.5" y1="56" y2="56" /><polyline fill="none" points="26.5,68.5 86.5,68.5 86.5,44 25.5,44 25.5,69.5" stroke="#000000" stroke-width="2" /><path d="M79,30.5 c4.873,-3.441 8.491,-6.866 11.701,-11.104" fill="none" stroke="#000000" stroke-width="2" /><path d="M4.5,91 c6.739,-14.092 10,-29.671 10,-51 v-21.0 h77.0" fill="none" stroke="#000000" stroke-width="2" /><path d="M41.5,19 v13.5 c0,5.396 0.12,5.5 20,5.5 c25.984,0 26.148,-0.132 27,-10.5" fill="none" stroke="#000000" stroke-width="2" /><path d="M41,73 v12.47 c0,5.768 1.118,6.53 17,6.53 c20.931,0 21.14,-0.183 22,-12.5" fill="none" stroke="#000000" stroke-width="2" /><path d="M18.5,91 c5.058,-4.837 9.24,-10.797 12,-17" fill="none" stroke="#000000" stroke-width="2" /><path d="M96,91 c-3.486,-5.651 -7.973,-11.546 -13,-17" fill="none" stroke="#000000" stroke-width="2" /><path d="M68.5,83.5 c-5.09,-3.733 -11.27,-7.658 -17.5,-11" fill="none" stroke="#000000" stroke-width="2" /></svg>