<?xml version='1.0' encoding='utf-8'?>
<svg xmlns="http://www.w3.org/2000/svg" height="100px" version="1.0" viewBox="0 0 100 100" width="100px" x="0px" y="0px">
<line fill="none" stroke="#000000" stroke-width="2" x1="63.5" x2="63.5" y1="12.5" y2="33" /><line fill="none" stroke="#000000" stroke-width="2" x1="37.5" x2="37.5" y1="12.5" y2="33" /><line fill="none" stroke="#000000" stroke-width="2" x1="51.5" x2="51.5" y1="11.5" y2="2" /><line fill="none" stroke="#000000" stroke-width="2" x1="12.5" x2="91.5" y1="42.5" y2="42.5" /><line fill="none" stroke="#000000" stroke-width="2" x1="34" x2="81" y1="69" y2="69" /><polyline fill="none" points="12.5,34 88.5,34 88.5,21.5 12.5,21.5" stroke="#000000" stroke-width="2" /><path d="M3.5,92 c4.898,-10.415 9,-30.94 9,-47 v-33.5 h80.5" fill="none" stroke="#000000" stroke-width="2" /><path d="M84,53.5 c2.746,-3.226 4.787,-6.436 6.597,-10.409" fill="none" stroke="#000000" stroke-width="2" /><path d="M13.5,91.5 c29.883,-3.417 54.023,-12.186 66.883,-22.287" fill="none" stroke="#000000" stroke-width="2" /><path d="M95.5,91.5 c-24.94,-2.956 -48.054,-10.589 -61.5,-19.5" fill="none" stroke="#000000" stroke-width="2" /><path d="M36,43.5 V56.0 c0,5.35 0.156,5.5 17,5.5 c21.137,0 21.398,-0.192 22.5,-11.5" fill="none" stroke="#000000" stroke-width="2" /><path d="M16,64.5 c5.371,-4.213 10.326,-10.358 13,-16" fill="none" stroke="#000000" stroke-width="2" /><path d="M64,55 c-5.559,-2.79 -12.12,-5.568 -19,-8" fill="none" stroke="#000000" stroke-width="2" /><path d="M13.5,79 c12.93,-4.693 24.13,-11.337 30.5,-17.5" fill="none" stroke="#000000" stroke-width="2" /><path d="M93,64.5 c-3.598,-4.956 -8.402,-10.487 -14,-16" fill="none" stroke="#000000" stroke-width="2" /></svg>