<?xml version='1.0' encoding='utf-8'?>
<svg xmlns="http://www.w3.org/2000/svg" height="100px" version="1.0" viewBox="0 0 100 100" width="100px" x="0px" y="0px">
<line fill="none" stroke="#000000" stroke-width="2" x1="15.5" x2="15.5" y1="94" y2="6" /><line fill="none" stroke="#000000" stroke-width="2" x1="63.5" x2="63.5" y1="63" y2="17" /><line fill="none" stroke="#000000" stroke-width="2" x1="93" x2="34" y1="16" y2="16" /><line fill="none" stroke="#000000" stroke-width="2" x1="35" x2="90.5" y1="32" y2="32" /><line fill="none" stroke="#000000" stroke-width="2" x1="35" x2="90.5" y1="48" y2="48" /><polyline fill="none" points="34,17 34,64 93,64" stroke="#000000" stroke-width="2" /><path d="M3,57.5 c2.624,-10.247 4.357,-21.376 5,-32" fill="none" stroke="#000000" stroke-width="2" /><path d="M26,48 c-0.573,-6.952 -1.604,-14.611 -3,-22" fill="none" stroke="#000000" stroke-width="2" /><path d="M26,30 c5.882,-8.075 9.918,-16.114 12.5,-25" fill="none" stroke="#000000" stroke-width="2" /><path d="M68.5,5 c-1.629,4.184 -2.988,7.183 -5,11" fill="none" stroke="#000000" stroke-width="2" /><path d="M97,92 c-3.475,-6.97 -7.558,-14.214 -12.5,-22" fill="none" stroke="#000000" stroke-width="2" /><path d="M75.5,92.5 c-2.088,-6.864 -4.691,-14.102 -8,-22" fill="none" stroke="#000000" stroke-width="2" /><path d="M54,93 c-0.702,-6.759 -1.826,-13.988 -3.5,-22" fill="none" stroke="#000000" stroke-width="2" /><path d="M26,92.5 c4.367,-6.205 8.512,-13.462 12.5,-22" fill="none" stroke="#000000" stroke-width="2" /></svg>