<?xml version='1.0' encoding='utf-8'?>
<svg xmlns="http://www.w3.org/2000/svg" height="100px" version="1.0" viewBox="0 0 100 100" width="100px" x="0px" y="0px">
<line fill="none" stroke="#000000" stroke-width="2" x1="17" x2="17" y1="94" y2="6" /><line fill="none" stroke="#000000" stroke-width="2" x1="29" x2="95" y1="26.5" y2="26.5" /><line fill="none" stroke="#000000" stroke-width="2" x1="92" x2="32" y1="13.5" y2="13.5" /><line fill="none" stroke="#000000" stroke-width="2" x1="62" x2="62" y1="26.5" y2="5" /><line fill="none" stroke="#000000" stroke-width="2" x1="80" x2="80" y1="36" y2="17" /><line fill="none" stroke="#000000" stroke-width="2" x1="44" x2="44" y1="36" y2="17" /><line fill="none" stroke="#000000" stroke-width="2" x1="36" x2="88" y1="63.5" y2="63.5" /><line fill="none" stroke="#000000" stroke-width="2" x1="36" x2="88" y1="51.5" y2="51.5" /><polyline fill="none" points="36,75.5 89,75.5 89,39.5 35,39.5 35,76.5" stroke="#000000" stroke-width="2" /><path d="M4,58 c2.624,-10.247 4.357,-21.376 5,-32" fill="none" stroke="#000000" stroke-width="2" /><path d="M27.5,47.5 c-0.573,-6.952 -1.604,-14.611 -3,-22" fill="none" stroke="#000000" stroke-width="2" /><path d="M29,92.5 c10.76,-3.419 20.014,-8.134 25.5,-12.5" fill="none" stroke="#000000" stroke-width="2" /><path d="M95,93 c-6.573,-4.196 -15.622,-8.728 -25.5,-12.5" fill="none" stroke="#000000" stroke-width="2" /></svg>