<?xml version='1.0' encoding='utf-8'?>
<svg xmlns="http://www.w3.org/2000/svg" height="100px" version="1.0" viewBox="0 0 100 100" width="100px" x="0px" y="0px">
<line fill="none" stroke="#000000" stroke-width="2" x1="68" x2="68" y1="62.5" y2="27.814" /><line fill="none" stroke="#000000" stroke-width="2" x1="92" x2="44.5" y1="27.5" y2="27.5" /><line fill="none" stroke="#000000" stroke-width="2" x1="45" x2="91" y1="39.5" y2="39.5" /><line fill="none" stroke="#000000" stroke-width="2" x1="45" x2="91" y1="51.5" y2="51.5" /><line fill="none" stroke="#000000" stroke-width="2" x1="28" x2="28" y1="66" y2="31.5" /><line fill="none" stroke="#000000" stroke-width="2" x1="51.5" x2="51.5" y1="13" y2="2.5" /><polyline fill="none" points="44,28 44,63.5 93,63.5" stroke="#000000" stroke-width="2" /><path d="M72,16.5 c-1.352,4.251 -2.381,7.094 -4,11" fill="none" stroke="#000000" stroke-width="2" /><path d="M38,70.5 V82.0 c0,8.844 0.293,9.153 6,9.601 c3.113,0.242 7.198,0.399 11,0.399 c3.732,0 7.678,-0.138 11,-0.399 c9.469,-0.753 9.703,-0.93 11,-13.601" fill="none" stroke="#000000" stroke-width="2" /><path d="M15.5,90.5 c5.058,-5.263 9.24,-11.75 12,-18.5" fill="none" stroke="#000000" stroke-width="2" /><path d="M93,90.5 c-3.486,-6.149 -7.973,-12.565 -13,-18.5" fill="none" stroke="#000000" stroke-width="2" /><path d="M65.5,80.5 c-5.09,-4.073 -11.27,-8.354 -17.5,-12" fill="none" stroke="#000000" stroke-width="2" /><path d="M35.5,16.5 c-4.063,11.552 -11.069,21.94 -20,30" fill="none" stroke="#000000" stroke-width="2" /><path d="M48,16.5 c-3.352,11.552 -9.133,21.94 -16.5,30" fill="none" stroke="#000000" stroke-width="2" /><path d="M3.5,92 c4.898,-10.415 9,-30.94 9,-47 v-32.0 h80.5" fill="none" stroke="#000000" stroke-width="2" /></svg>