<?xml version='1.0' encoding='utf-8'?>
<svg xmlns="http://www.w3.org/2000/svg" height="100px" version="1.0" viewBox="0 0 100 100" width="100px" x="0px" y="0px">
<line fill="none" stroke="#000000" stroke-width="2" x1="92.5" x2="49" y1="39.999" y2="42" /><line fill="none" stroke="#000000" stroke-width="2" x1="72" x2="72" y1="40.899" y2="68" /><line fill="none" stroke="#000000" stroke-width="2" x1="18.5" x2="44" y1="28.5" y2="28.5" /><line fill="none" stroke="#000000" stroke-width="2" x1="18.5" x2="44" y1="19" y2="19" /><line fill="none" stroke="#000000" stroke-width="2" x1="27.5" x2="27.5" y1="68" y2="45" /><polyline fill="none" points="18.5,38 45,38 45,9.5 17.5,9.5 17.5,39" stroke="#000000" stroke-width="2" /><polyline fill="none" points="48.5,45 8.5,45 8.5,11" stroke="#000000" stroke-width="2" /><path d="M31.5,69.5 v11.0 c0,10.571 0.292,10.911 7,11.5 c3.618,0.317 8.079,0.5 12.5,0.5 c4.34,0 8.638,-0.161 12.5,-0.5 c11.35,-0.996 11.514,-1.125 13,-16" fill="none" stroke="#000000" stroke-width="2" /><path d="M5.5,90.5 c6.062,-5.47 11.027,-12.577 14,-20" fill="none" stroke="#000000" stroke-width="2" /><path d="M94.5,91 c-4.006,-7.016 -9.133,-14.279 -15,-21" fill="none" stroke="#000000" stroke-width="2" /><path d="M63,80.5 c-5.825,-4.257 -12.686,-8.422 -20,-12" fill="none" stroke="#000000" stroke-width="2" /><path d="M66.5,36.5 c-4.361,-4.842 -10.158,-11.012 -15,-16" fill="none" stroke="#000000" stroke-width="2" /><path d="M60.5,41.5 c10.29,-8.323 18.353,-15.507 27,-24" fill="none" stroke="#000000" stroke-width="2" /><path d="M57,26.5 c6.031,-5.138 11.426,-10.21 16.5,-15.5" fill="none" stroke="#000000" stroke-width="2" /><path d="M48.5,63 c6.225,-4.892 11.227,-10.123 15,-15.5" fill="none" stroke="#000000" stroke-width="2" /><path d="M96,46.5 c-2.979,-5.624 -7.043,-12.762 -10.5,-18.5" fill="none" stroke="#000000" stroke-width="2" /><path d="M95.5,64 c-4.19,-5.378 -9.191,-10.931 -15,-16.5" fill="none" stroke="#000000" stroke-width="2" /><path d="M50,12 c15.637,0 30.945,-1.431 43.5,-4" fill="none" stroke="#000000" stroke-width="2" /><path d="M5,64 c5.154,-4.53 9.418,-9.478 12.5,-14.5" fill="none" stroke="#000000" stroke-width="2" /><path d="M45,62 c-2.486,-4.08 -5.521,-8.304 -9,-12.5" fill="none" stroke="#000000" stroke-width="2" /></svg>