<?xml version='1.0' encoding='utf-8'?>
<svg xmlns="http://www.w3.org/2000/svg" height="100px" version="1.0" viewBox="0 0 100 100" width="100px" x="0px" y="0px">
<line fill="none" stroke="#000000" stroke-width="2" x1="55" x2="94.5" y1="34" y2="29.5" /><line fill="none" stroke="#000000" stroke-width="2" x1="29.5" x2="29.5" y1="21.5" y2="3" /><line fill="none" stroke="#000000" stroke-width="2" x1="10" x2="45" y1="37" y2="32.5" /><line fill="none" stroke="#000000" stroke-width="2" x1="29.5" x2="52.5" y1="11.5" y2="11.5" /><line fill="none" stroke="#000000" stroke-width="2" x1="27.5" x2="27.5" y1="55" y2="86.5" /><line fill="none" stroke="#000000" stroke-width="2" x1="40" x2="40" y1="55" y2="84" /><path d="M90.5,40 c-8.234,24.984 -20.039,39.421 -40.5,51" fill="none" stroke="#000000" stroke-width="2" /><path d="M69.5,5.5 c0,59.849 16.012,85.5 19.5,85.5 c2.427,0 4.971,-4.921 6.5,-23" fill="none" stroke="#000000" stroke-width="2" /><path d="M80,9 c4.063,4.796 7.923,10.097 11,15" fill="none" stroke="#000000" stroke-width="2" /><path d="M48.5,35 c2.521,-3.973 4.408,-7.921 6.053,-12.818" fill="none" stroke="#000000" stroke-width="2" /><path d="M3.5,91 c4.434,-11.884 6.5,-25.925 6.5,-51 v-18.5 h45.5" fill="none" stroke="#000000" stroke-width="2" /><path d="M43.5,77 c3.605,-4.354 7.368,-11.267 10.5,-20" fill="none" stroke="#000000" stroke-width="2" /><path d="M11,89.5 c15.229,-2.431 31.09,-5.838 44.5,-9.5" fill="none" stroke="#000000" stroke-width="2" /><path d="M23.5,80.5 c-2.447,-7.549 -5.895,-15.437 -10,-22.5" fill="none" stroke="#000000" stroke-width="2" /><path d="M25,25.5 v18.5 c0,5.317 0.203,5.5 12,5.5 c15.676,0 15.939,-0.255 16.5,-11.5" fill="none" stroke="#000000" stroke-width="2" /></svg>