<?xml version='1.0' encoding='utf-8'?>
<svg xmlns="http://www.w3.org/2000/svg" height="100px" version="1.0" viewBox="0 0 100 100" width="100px" x="0px" y="0px">
<line fill="none" stroke="#000000" stroke-width="2" x1="7.5" x2="92.5" y1="10.5" y2="10.5" /><path d="M5,90.5 c6.951,-9.461 11.5,-24.541 11.5,-41 v-27.0 h69.0 v18.0 h-68.0" fill="none" stroke="#000000" stroke-width="2" /><path d="M17,81.5 c11.577,-2.875 21.158,-6.397 28,-10" fill="none" stroke="#000000" stroke-width="2" /><path d="M36.5,67.5 c-4.099,-3.028 -9.117,-6.419 -15,-10" fill="none" stroke="#000000" stroke-width="2" /><path d="M20,50.5 h30.5 v36.0 c0,3.202 -0.297,3.5 -5.5,3.5 c-2.209,0 -7.951,-0.177 -14.5,-0.5" fill="none" stroke="#000000" stroke-width="2" /><path d="M56,81.5 c11.577,-2.875 21.158,-6.397 28,-10" fill="none" stroke="#000000" stroke-width="2" /><path d="M75.5,67.5 c-4.099,-3.028 -9.117,-6.419 -15,-10" fill="none" stroke="#000000" stroke-width="2" /><path d="M55.5,50.5 h34.0 v36.0 c0,3.202 -0.297,3.5 -5.5,3.5 c-2.209,0 -7.951,-0.177 -14.5,-0.5" fill="none" stroke="#000000" stroke-width="2" /></svg>