<?xml version='1.0' encoding='utf-8'?>
<svg xmlns="http://www.w3.org/2000/svg" height="100px" version="1.0" viewBox="0 0 100 100" width="100px" x="0px" y="0px">
<line fill="none" stroke="#000000" stroke-width="2" x1="36" x2="5" y1="26" y2="26" /><path d="M21,6 v77.0 c0,7.683 -0.373,8 -5,8 c-2.246,0 -5.661,-0.149 -10,-0.5" fill="none" stroke="#000000" stroke-width="2" /><path d="M34,48 c-10.046,6.357 -19.379,10.861 -29,14" fill="none" stroke="#000000" stroke-width="2" /><path d="M96.5,51 c-3.762,-11.877 -8.525,-24.087 -14,-35.5" fill="none" stroke="#000000" stroke-width="2" /><path d="M67,6 v46.0 c0,7.429 -0.516,8 -6,8 c-1.574,0 -4.867,-0.13 -10.5,-0.5" fill="none" stroke="#000000" stroke-width="2" /><path d="M89.5,47.5 c-7.674,22.907 -28.185,39.954 -56.5,45" fill="none" stroke="#000000" stroke-width="2" /><path d="M36.5,53.5 c5.574,-10.377 10.332,-23.905 13,-38" fill="none" stroke="#000000" stroke-width="2" /></svg>