<?xml version='1.0' encoding='utf-8'?>
<svg xmlns="http://www.w3.org/2000/svg" height="100px" version="1.0" viewBox="0 0 100 100" width="100px" x="0px" y="0px">
<line fill="none" stroke="#000000" stroke-width="2" x1="27.5" x2="3.5" y1="26" y2="26" /><line fill="none" stroke="#000000" stroke-width="2" x1="33" x2="33" y1="15" y2="76" /><path d="M16.5,6 v78.0 c0,7.575 -0.404,8 -4.5,8 c-1.832,0 -4.133,-0.132 -8,-0.5" fill="none" stroke="#000000" stroke-width="2" /><path d="M27.5,51 c-8.305,5.009 -16.037,8.534 -24,11" fill="none" stroke="#000000" stroke-width="2" /><path d="M32.188,15.981 c10.393,-1.985 19.548,-4.561 30.313,-8.481" fill="none" stroke="#000000" stroke-width="2" /><path d="M63.5,93.5 v-80.0 h28.0 V72.0 c0,7.638 -0.422,8 -6,8 c-1.673,0 -8.729,-0.214 -14.5,-0.5" fill="none" stroke="#000000" stroke-width="2" /><path d="M24,79 c11.9,-3.496 22.08,-7.547 35,-14" fill="none" stroke="#000000" stroke-width="2" /></svg>