<?xml version='1.0' encoding='utf-8'?>
<svg xmlns="http://www.w3.org/2000/svg" height="100px" version="1.0" viewBox="0 0 100 100" width="100px" x="0px" y="0px">
<line fill="none" stroke="#000000" stroke-width="2" x1="35" x2="4" y1="28" y2="28" /><line fill="none" stroke="#000000" stroke-width="2" x1="71" x2="45.5" y1="66" y2="66" /><polyline fill="none" points="44.5,75 44.5,32.5 72,32.5 72,67" stroke="#000000" stroke-width="2" /><path d="M20,6 v77.0 c0,7.683 -0.373,8 -5,8 c-2.246,0 -5.661,-0.149 -10,-0.5" fill="none" stroke="#000000" stroke-width="2" /><path d="M35,52 c-10.727,5.009 -20.715,8.534 -31,11" fill="none" stroke="#000000" stroke-width="2" /><path d="M32,39 c7.121,-9.191 13.282,-22.205 16,-34" fill="none" stroke="#000000" stroke-width="2" /><path d="M44,18 h48.0 c-1.855,66.43 -4.27,72.5 -9.5,72.5 c-4.365,0 -11.515,-0.34 -19,-1" fill="none" stroke="#000000" stroke-width="2" /></svg>