<?xml version='1.0' encoding='utf-8'?>
<svg xmlns="http://www.w3.org/2000/svg" height="100px" version="1.0" viewBox="0 0 100 100" width="100px" x="0px" y="0px">
<line fill="none" stroke="#000000" stroke-width="2" x1="27.5" x2="3.5" y1="26" y2="26" /><path d="M97,90 H80.5 c-27.959,0 -41.66,-12.771 -46.5,-53.5" fill="none" stroke="#000000" stroke-width="2" /><path d="M54.5,77 c7.13,-8.65 10,-18.774 10,-44.5 V12.0 h21.0 v56.5 c0,6.714 0.297,7 4.5,7 c4.414,0 5.32,-0.887 5.5,-24" fill="none" stroke="#000000" stroke-width="2" /><path d="M34,20 h20.0 c0,33.181 -12.154,58.983 -30.5,72" fill="none" stroke="#000000" stroke-width="2" /><path d="M24,61 c5.591,-14.377 10.014,-34.851 11.5,-55" fill="none" stroke="#000000" stroke-width="2" /><path d="M17,6 v78.0 c0,7.575 -0.404,8 -4.5,8 c-1.832,0 -4.633,-0.139 -8.5,-0.5" fill="none" stroke="#000000" stroke-width="2" /><path d="M27.5,51 c-8.305,5.009 -16.037,8.534 -24,11" fill="none" stroke="#000000" stroke-width="2" /></svg>