<?xml version='1.0' encoding='utf-8'?>
<svg xmlns="http://www.w3.org/2000/svg" height="100px" version="1.0" viewBox="0 0 100 100" width="100px" x="0px" y="0px">
<line fill="none" stroke="#000000" stroke-width="2" x1="32.5" x2="3.5" y1="26" y2="26" /><path d="M18.5,6 v77.0 c0,7.683 -0.373,8 -5,8 c-2.246,0 -4.663,-0.119 -9,-0.5" fill="none" stroke="#000000" stroke-width="2" /><path d="M32.5,50.5 c-10.035,5.009 -19.379,8.534 -29,11" fill="none" stroke="#000000" stroke-width="2" /><path d="M92,14.5 c-5.535,9.388 -11.471,16.905 -18,23" fill="none" stroke="#000000" stroke-width="2" /><path d="M68.5,6.5 v76.5 c0,6.941 1.266,8 11.5,8 c13.479,0 14.367,-0.823 15,-19" fill="none" stroke="#000000" stroke-width="2" /><path d="M46.5,38.5 c-3.9,-6.789 -8.836,-14.328 -14.5,-22" fill="none" stroke="#000000" stroke-width="2" /><path d="M95,65.5 c-7.383,-5.78 -16.5,-11.992 -26.5,-18" fill="none" stroke="#000000" stroke-width="2" /><path d="M27,92.5 c19.018,-8.478 25.5,-19.05 25.5,-47.5 v-38.5" fill="none" stroke="#000000" stroke-width="2" /><path d="M27,67.5 c10.453,-5.403 19.258,-11.736 25.5,-18" fill="none" stroke="#000000" stroke-width="2" /></svg>