<?xml version='1.0' encoding='utf-8'?>
<svg xmlns="http://www.w3.org/2000/svg" height="100px" version="1.0" viewBox="0 0 100 100" width="100px" x="0px" y="0px">
<line fill="none" stroke="#000000" stroke-width="2" x1="31.5" x2="4.5" y1="26" y2="26" /><line fill="none" stroke="#000000" stroke-width="2" x1="33" x2="96" y1="50.5" y2="50.5" /><line fill="none" stroke="#000000" stroke-width="2" x1="34" x2="93" y1="17.5" y2="17.5" /><path d="M19.5,6 v77.0 c0,7.683 -0.373,8 -5,8 c-2.246,0 -4.663,-0.119 -9,-0.5" fill="none" stroke="#000000" stroke-width="2" /><path d="M31.5,47 c-9.344,5.009 -18.043,8.534 -27,11" fill="none" stroke="#000000" stroke-width="2" /><path d="M27,90.5 c21.877,-7.717 35.5,-25.523 35.5,-47 V5.0" fill="none" stroke="#000000" stroke-width="2" /><path d="M95,90.5 c-19.955,-7.606 -32.5,-25.522 -32.5,-47" fill="none" stroke="#000000" stroke-width="2" /><path d="M47,45 c-3.505,-7.823 -7.289,-15.497 -11,-22" fill="none" stroke="#000000" stroke-width="2" /><path d="M78,45 c4.213,-6.99 8.023,-14.966 10.5,-22" fill="none" stroke="#000000" stroke-width="2" /></svg>