<?xml version='1.0' encoding='utf-8'?>
<svg xmlns="http://www.w3.org/2000/svg" height="100px" version="1.0" viewBox="0 0 100 100" width="100px" x="0px" y="0px">
<line fill="none" stroke="#000000" stroke-width="2" x1="30" x2="4.5" y1="26" y2="26" /><line fill="none" stroke="#000000" stroke-width="2" x1="28" x2="96" y1="35" y2="35" /><line fill="none" stroke="#000000" stroke-width="2" x1="92" x2="62.5" y1="17" y2="17" /><line fill="none" stroke="#000000" stroke-width="2" x1="41" x2="41" y1="35" y2="8" /><path d="M18.5,6 v78.0 c0,7.575 -0.404,8 -4.5,8 c-1.832,0 -4.633,-0.139 -8.5,-0.5" fill="none" stroke="#000000" stroke-width="2" /><path d="M29.5,50 c-8.65,5.009 -16.706,8.534 -25,11" fill="none" stroke="#000000" stroke-width="2" /><path d="M62.5,4 V60.0 c0,9.528 -0.441,10 -6,10 c-1.637,0 -5.139,-0.14 -11,-0.5" fill="none" stroke="#000000" stroke-width="2" /><path d="M29,68 c7.673,-7.641 14.242,-17.845 18,-28" fill="none" stroke="#000000" stroke-width="2" /><path d="M96,64 c-5.385,-8.242 -12.119,-16.554 -19.5,-24" fill="none" stroke="#000000" stroke-width="2" /><path d="M89,64 c-10.34,13.999 -29.769,24.515 -60,29" fill="none" stroke="#000000" stroke-width="2" /></svg>