<?xml version='1.0' encoding='utf-8'?>
<svg xmlns="http://www.w3.org/2000/svg" height="100px" version="1.0" viewBox="0 0 100 100" width="100px" x="0px" y="0px">
<line fill="none" stroke="#000000" stroke-width="2" x1="31.5" x2="4.5" y1="26" y2="26" /><line fill="none" stroke="#000000" stroke-width="2" x1="29.5" x2="94" y1="11" y2="11" /><line fill="none" stroke="#000000" stroke-width="2" x1="93.5" x2="36.5" y1="57" y2="57" /><path d="M19.5,6 v77.0 c0,7.683 -0.373,8 -5,8 c-2.246,0 -4.663,-0.119 -9,-0.5" fill="none" stroke="#000000" stroke-width="2" /><path d="M31.5,52 c-9.432,5.057 -18.143,8.562 -27,11" fill="none" stroke="#000000" stroke-width="2" /><path d="M35,90 c18.182,-5.831 29.5,-19.407 29.5,-33 v-12.0" fill="none" stroke="#000000" stroke-width="2" /><path d="M94,90 c-18.184,-5.833 -29.5,-19.408 -29.5,-33" fill="none" stroke="#000000" stroke-width="2" /><path d="M26,90 c6.437,-9.222 10.5,-23.117 10.5,-39 v-28.0 h52.5 v18.5 h-51.5" fill="none" stroke="#000000" stroke-width="2" /></svg>