<?xml version='1.0' encoding='utf-8'?>
<svg xmlns="http://www.w3.org/2000/svg" height="100px" version="1.0" viewBox="0 0 100 100" width="100px" x="0px" y="0px">
<line fill="none" stroke="#000000" stroke-width="2" x1="29" x2="4" y1="25" y2="25" /><line fill="none" stroke="#000000" stroke-width="2" x1="81" x2="81" y1="69" y2="30" /><line fill="none" stroke="#000000" stroke-width="2" x1="41" x2="41" y1="69" y2="30" /><line fill="none" stroke="#000000" stroke-width="2" x1="93" x2="30" y1="29" y2="29" /><line fill="none" stroke="#000000" stroke-width="2" x1="30" x2="93" y1="70" y2="70" /><line fill="none" stroke="#000000" stroke-width="2" x1="26.5" x2="95.5" y1="49" y2="49" /><line fill="none" stroke="#000000" stroke-width="2" x1="27.5" x2="94.5" y1="89.5" y2="89.5" /><line fill="none" stroke="#000000" stroke-width="2" x1="61" x2="61" y1="89.5" y2="13" /><path d="M18,6 v78.0 c0,7.575 -0.404,8 -4.5,8 c-1.832,0 -4.633,-0.139 -8.5,-0.5" fill="none" stroke="#000000" stroke-width="2" /><path d="M30,53.5 c-8.997,5.009 -17.374,8.534 -26,11" fill="none" stroke="#000000" stroke-width="2" /><path d="M33.5,14.5 c19.098,0 37.498,-2.022 55,-6" fill="none" stroke="#000000" stroke-width="2" /></svg>