<?xml version='1.0' encoding='utf-8'?>
<svg xmlns="http://www.w3.org/2000/svg" height="100px" version="1.0" viewBox="0 0 100 100" width="100px" x="0px" y="0px">
<line fill="none" stroke="#000000" stroke-width="2" x1="29" x2="4" y1="25" y2="25" /><line fill="none" stroke="#000000" stroke-width="2" x1="63" x2="91" y1="55" y2="55" /><line fill="none" stroke="#000000" stroke-width="2" x1="63" x2="63" y1="87.5" y2="31" /><line fill="none" stroke="#000000" stroke-width="2" x1="39.5" x2="86.5" y1="31" y2="31" /><line fill="none" stroke="#000000" stroke-width="2" x1="63" x2="63" y1="16" y2="4" /><polyline fill="none" points="91.5,34 91.5,16 34.5,16 34.5,34" stroke="#000000" stroke-width="2" /><path d="M18,6 v78.0 c0,7.575 -0.404,8 -4.5,8 c-1.832,0 -4.633,-0.139 -8.5,-0.5" fill="none" stroke="#000000" stroke-width="2" /><path d="M30,51 c-8.997,5.009 -17.374,8.534 -26,11" fill="none" stroke="#000000" stroke-width="2" /><path d="M26,92 c7.3,-10.179 13.075,-26.644 14.5,-44" fill="none" stroke="#000000" stroke-width="2" /><path d="M95,90 h-5.0 c-32.885,0 -43.352,-5.562 -52,-26.5" fill="none" stroke="#000000" stroke-width="2" /></svg>