<?xml version='1.0' encoding='utf-8'?>
<svg xmlns="http://www.w3.org/2000/svg" height="100px" version="1.0" viewBox="0 0 100 100" width="100px" x="0px" y="0px">
<line fill="none" stroke="#000000" stroke-width="2" x1="31" x2="4" y1="26" y2="26" /><line fill="none" stroke="#000000" stroke-width="2" x1="36.5" x2="87" y1="87" y2="87" /><line fill="none" stroke="#000000" stroke-width="2" x1="36.5" x2="87" y1="68.5" y2="68.5" /><line fill="none" stroke="#000000" stroke-width="2" x1="27.5" x2="95" y1="40" y2="40" /><line fill="none" stroke="#000000" stroke-width="2" x1="30.5" x2="92" y1="17" y2="17" /><line fill="none" stroke="#000000" stroke-width="2" x1="46.5" x2="46.5" y1="39" y2="4.5" /><line fill="none" stroke="#000000" stroke-width="2" x1="77" x2="77" y1="39" y2="4.5" /><polyline fill="none" points="88,93 88,51 35.5,51 35.5,93" stroke="#000000" stroke-width="2" /><path d="M18,6 v78.0 c0,7.575 -0.404,8 -4.5,8 c-1.832,0 -4.633,-0.139 -8.5,-0.5" fill="none" stroke="#000000" stroke-width="2" /><path d="M31,49 c-9.343,5.009 -18.042,8.534 -27,11" fill="none" stroke="#000000" stroke-width="2" /></svg>