<?xml version='1.0' encoding='utf-8'?>
<svg xmlns="http://www.w3.org/2000/svg" height="100px" version="1.0" viewBox="0 0 100 100" width="100px" x="0px" y="0px">
<line fill="none" stroke="#000000" stroke-width="2" x1="31.5" x2="91.5" y1="88" y2="88" /><line fill="none" stroke="#000000" stroke-width="2" x1="87" x2="36" y1="75.5" y2="75.5" /><line fill="none" stroke="#000000" stroke-width="2" x1="85.5" x2="37.5" y1="21.5" y2="21.5" /><line fill="none" stroke="#000000" stroke-width="2" x1="82.5" x2="40.5" y1="46" y2="46" /><line fill="none" stroke="#000000" stroke-width="2" x1="61.5" x2="61.5" y1="75.5" y2="21.5" /><line fill="none" stroke="#000000" stroke-width="2" x1="30.5" x2="3" y1="25" y2="25" /><polyline fill="none" points="92.5,94 92.5,10 30.5,10 30.5,94" stroke="#000000" stroke-width="2" /><path d="M73,53 c3.943,4.618 7.279,8.873 11,14" fill="none" stroke="#000000" stroke-width="2" /><path d="M17,6 v78.0 c0,7.575 -0.404,8 -4.5,8 c-1.832,0 -4.633,-0.139 -8.5,-0.5" fill="none" stroke="#000000" stroke-width="2" /><path d="M30.5,53.5 c-9.517,5.009 -18.382,8.521 -27.5,11" fill="none" stroke="#000000" stroke-width="2" /></svg>