<?xml version='1.0' encoding='utf-8'?>
<svg xmlns="http://www.w3.org/2000/svg" height="100px" version="1.0" viewBox="0 0 100 100" width="100px" x="0px" y="0px">
<line fill="none" stroke="#000000" stroke-width="2" x1="31.5" x2="4" y1="26" y2="26" /><line fill="none" stroke="#000000" stroke-width="2" x1="41" x2="41" y1="11.5" y2="50" /><line fill="none" stroke="#000000" stroke-width="2" x1="96" x2="30" y1="10.5" y2="10.5" /><line fill="none" stroke="#000000" stroke-width="2" x1="84" x2="84" y1="54" y2="10.5" /><line fill="none" stroke="#000000" stroke-width="2" x1="42" x2="83" y1="36" y2="36" /><line fill="none" stroke="#000000" stroke-width="2" x1="42" x2="83" y1="23" y2="23" /><path d="M18.5,6 v77.0 c0,7.683 -0.373,8 -5,8 c-2.246,0 -4.663,-0.119 -9,-0.5" fill="none" stroke="#000000" stroke-width="2" /><path d="M29,54 c-8.732,5.057 -16.799,8.562 -25,11" fill="none" stroke="#000000" stroke-width="2" /><path d="M30.5,50.5 c20.908,-0.97 44.08,-2.579 66,-4.5" fill="none" stroke="#000000" stroke-width="2" /><path d="M26,92.5 c11.179,-4.146 22.484,-10.853 28.5,-16.5" fill="none" stroke="#000000" stroke-width="2" /><path d="M94.5,92.5 c-7.396,-5.587 -17.416,-11.462 -28.5,-16.5" fill="none" stroke="#000000" stroke-width="2" /><path d="M54.5,69.5 c-6.379,-5.523 -13.895,-10.902 -21,-15" fill="none" stroke="#000000" stroke-width="2" /><path d="M66,69.5 c9.523,-4.618 18.41,-10.22 24,-15" fill="none" stroke="#000000" stroke-width="2" /></svg>