<?xml version='1.0' encoding='utf-8'?>
<svg xmlns="http://www.w3.org/2000/svg" height="100px" version="1.0" viewBox="0 0 100 100" width="100px" x="0px" y="0px">
<line fill="none" stroke="#000000" stroke-width="2" x1="29" x2="4" y1="25" y2="25" /><line fill="none" stroke="#000000" stroke-width="2" x1="64" x2="64" y1="25.5" y2="5.5" /><line fill="none" stroke="#000000" stroke-width="2" x1="66" x2="66" y1="87" y2="42.5" /><line fill="none" stroke="#000000" stroke-width="2" x1="37.5" x2="95" y1="88" y2="88" /><line fill="none" stroke="#000000" stroke-width="2" x1="37.5" x2="37.5" y1="41.5" y2="94.5" /><line fill="none" stroke="#000000" stroke-width="2" x1="94" x2="37.5" y1="41.5" y2="41.5" /><line fill="none" stroke="#000000" stroke-width="2" x1="37.5" x2="91.5" y1="57" y2="57" /><line fill="none" stroke="#000000" stroke-width="2" x1="37.5" x2="91.5" y1="72.5" y2="72.5" /><polyline fill="none" points="36,9 36,25.5 91,25.5 91,9" stroke="#000000" stroke-width="2" /><path d="M18,6 v78.0 c0,7.575 -0.404,8 -4.5,8 c-1.832,0 -4.633,-0.139 -8.5,-0.5" fill="none" stroke="#000000" stroke-width="2" /><path d="M28,47.5 c-8.305,5.009 -16.239,8.958 -24,12" fill="none" stroke="#000000" stroke-width="2" /><path d="M25.5,58 c8.145,-9.317 13.609,-18.729 17,-29" fill="none" stroke="#000000" stroke-width="2" /><path d="M72,29 c-1.94,4.762 -3.579,8.166 -6,12.5" fill="none" stroke="#000000" stroke-width="2" /></svg>