<?xml version='1.0' encoding='utf-8'?>
<svg xmlns="http://www.w3.org/2000/svg" height="100px" version="1.0" viewBox="0 0 100 100" width="100px" x="0px" y="0px">
<line fill="none" stroke="#000000" stroke-width="2" x1="10.5" x2="45.5" y1="28" y2="28" /><line fill="none" stroke="#000000" stroke-width="2" x1="5" x2="50.5" y1="44.5" y2="44.5" /><line fill="none" stroke="#000000" stroke-width="2" x1="28" x2="28" y1="52" y2="5" /><line fill="none" stroke="#000000" stroke-width="2" x1="5" x2="50.5" y1="11.5" y2="11.5" /><line fill="none" stroke="#000000" stroke-width="2" x1="50.5" x2="91.5" y1="28.5" y2="28.5" /><line fill="none" stroke="#000000" stroke-width="2" x1="95" x2="5" y1="79" y2="79" /><line fill="none" stroke="#000000" stroke-width="2" x1="89.5" x2="10.5" y1="67" y2="67" /><polyline fill="none" points="10.5,37 46.5,37 46.5,19 9.5,19 9.5,38" stroke="#000000" stroke-width="2" /><path d="M50.48,24.979 c5.697,-2.676 8.5,-6.994 8.5,-14 v-3.0 h24.0 v13.0 c0,1.99 0.841,2.5 5,2.5 c7.25,0 7.514,-0.227 8,-7.5" fill="none" stroke="#000000" stroke-width="2" /><path d="M51,50 c20.483,-4.628 31.855,-11.154 39.715,-21.119" fill="none" stroke="#000000" stroke-width="2" /><path d="M95.5,53.5 c-15.724,-4.741 -29.826,-12.86 -38.5,-22" fill="none" stroke="#000000" stroke-width="2" /><path d="M51,54.5 v32.5 c0,5.177 -0.977,6 -7.5,6 c-3.409,0 -9.286,-0.18 -15.5,-0.5" fill="none" stroke="#000000" stroke-width="2" /><path d="M14,56 c29.972,-0.48 53.944,-1.92 72,-4" fill="none" stroke="#000000" stroke-width="2" /></svg>