<?xml version='1.0' encoding='utf-8'?>
<svg xmlns="http://www.w3.org/2000/svg" height="100px" version="1.0" viewBox="0 0 100 100" width="100px" x="0px" y="0px">
<line fill="none" stroke="#000000" stroke-width="2" x1="30.5" x2="3.5" y1="26" y2="26" /><line fill="none" stroke="#000000" stroke-width="2" x1="28" x2="94" y1="13" y2="13" /><line fill="none" stroke="#000000" stroke-width="2" x1="80" x2="42" y1="37.5" y2="37.5" /><line fill="none" stroke="#000000" stroke-width="2" x1="43" x2="79" y1="51.5" y2="51.5" /><polyline fill="none" points="42,37.5 42,66 80,66 80,37.5" stroke="#000000" stroke-width="2" /><path d="M17.5,6 v78.0 c0,7.575 -0.404,8 -4.5,8 c-1.832,0 -4.633,-0.139 -8.5,-0.5" fill="none" stroke="#000000" stroke-width="2" /><path d="M30.5,53 c-9.343,5.009 -18.042,8.534 -27,11" fill="none" stroke="#000000" stroke-width="2" /><path d="M96.5,50.5 c-14.928,-8.789 -27.687,-23.123 -33,-37.5" fill="none" stroke="#000000" stroke-width="2" /><path d="M25.5,50.5 c17.451,-9.904 32.293,-28.907 37,-47.5" fill="none" stroke="#000000" stroke-width="2" /><path d="M90,18 c-4.191,5.085 -9.545,10.44 -14.5,14.5" fill="none" stroke="#000000" stroke-width="2" /><path d="M46.5,32.5 c-4.566,-4.988 -9.533,-9.968 -14.5,-14.5" fill="none" stroke="#000000" stroke-width="2" /><path d="M24,88 c8.846,-4.247 16.896,-10.549 22,-17" fill="none" stroke="#000000" stroke-width="2" /><path d="M96.5,89 c-6.318,-6.286 -13.977,-12.392 -22,-17.5" fill="none" stroke="#000000" stroke-width="2" /><path d="M61.5,66 v19.0 c0,5.473 -0.544,6 -7,6 c-2.863,0 -7.549,-0.174 -13.5,-0.5" fill="none" stroke="#000000" stroke-width="2" /></svg>