<?xml version='1.0' encoding='utf-8'?>
<svg xmlns="http://www.w3.org/2000/svg" height="100px" version="1.0" viewBox="0 0 100 100" width="100px" x="0px" y="0px">
<line fill="none" stroke="#000000" stroke-width="2" x1="27" x2="4" y1="26" y2="26" /><line fill="none" stroke="#000000" stroke-width="2" x1="31.5" x2="31.5" y1="43" y2="85.5" /><line fill="none" stroke="#000000" stroke-width="2" x1="56.5" x2="56.5" y1="95" y2="43" /><line fill="none" stroke="#000000" stroke-width="2" x1="32.5" x2="55.5" y1="69.5" y2="69.5" /><line fill="none" stroke="#000000" stroke-width="2" x1="32.5" x2="55.5" y1="55" y2="55" /><line fill="none" stroke="#000000" stroke-width="2" x1="60.5" x2="93" y1="53.5" y2="53.5" /><line fill="none" stroke="#000000" stroke-width="2" x1="24" x2="97" y1="42" y2="42" /><line fill="none" stroke="#000000" stroke-width="2" x1="33.5" x2="88.5" y1="21" y2="21" /><polyline fill="none" points="33.5,33 89.5,33 89.5,9.5 32.5,9.5 32.5,34" stroke="#000000" stroke-width="2" /><path d="M16,6 v78.0 c0,7.672 -0.32,8 -3.5,8 c-1.691,0 -4.43,-0.151 -8,-0.5" fill="none" stroke="#000000" stroke-width="2" /><path d="M26,51 c-7.959,5.009 -14.46,8.271 -22,11" fill="none" stroke="#000000" stroke-width="2" /><path d="M23,87 c10.472,-1.528 22.234,-3.974 33.5,-7" fill="none" stroke="#000000" stroke-width="2" /><path d="M60.5,91.5 c16.046,-7.319 26.438,-19.312 31.539,-37.273" fill="none" stroke="#000000" stroke-width="2" /><path d="M96,91.5 c-13.455,-6.891 -22.615,-16.979 -30,-34" fill="none" stroke="#000000" stroke-width="2" /></svg>