<?xml version='1.0' encoding='utf-8'?>
<svg xmlns="http://www.w3.org/2000/svg" height="100px" version="1.0" viewBox="0 0 100 100" width="100px" x="0px" y="0px">
<line fill="none" stroke="#000000" stroke-width="2" x1="31" x2="4" y1="26" y2="26" /><line fill="none" stroke="#000000" stroke-width="2" x1="94" x2="28" y1="21" y2="21" /><line fill="none" stroke="#000000" stroke-width="2" x1="94.5" x2="27.5" y1="67.5" y2="67.5" /><line fill="none" stroke="#000000" stroke-width="2" x1="93" x2="29" y1="41" y2="41" /><line fill="none" stroke="#000000" stroke-width="2" x1="90.5" x2="31.5" y1="54" y2="54" /><line fill="none" stroke="#000000" stroke-width="2" x1="53" x2="53" y1="21" y2="5" /><line fill="none" stroke="#000000" stroke-width="2" x1="69" x2="69" y1="21" y2="5" /><path d="M18,6 v78.0 c0,7.575 -0.404,8 -4.5,8 c-1.832,0 -4.633,-0.139 -8.5,-0.5" fill="none" stroke="#000000" stroke-width="2" /><path d="M31,49 c-9.343,5.009 -18.042,8.534 -27,11" fill="none" stroke="#000000" stroke-width="2" /><path d="M25.5,92.5 c21.605,-4.345 35.5,-17.866 35.5,-30.5 v-20.0" fill="none" stroke="#000000" stroke-width="2" /><path d="M95.5,92.5 c-20.838,-4.382 -34.5,-17.623 -34.5,-30.5" fill="none" stroke="#000000" stroke-width="2" /><path d="M42.5,21 c-2.473,-5.049 -5.238,-9.873 -8,-14" fill="none" stroke="#000000" stroke-width="2" /><path d="M79.5,21 c3.096,-4.696 5.848,-9.527 8,-14" fill="none" stroke="#000000" stroke-width="2" /><path d="M68.5,41 c3.547,-5.856 6.701,-12.76 9,-20" fill="none" stroke="#000000" stroke-width="2" /><path d="M52.5,41 c-2.245,-6.587 -5.024,-13.563 -8,-20" fill="none" stroke="#000000" stroke-width="2" /></svg>