<?xml version='1.0' encoding='utf-8'?>
<svg xmlns="http://www.w3.org/2000/svg" height="100px" version="1.0" viewBox="0 0 100 100" width="100px" x="0px" y="0px">
<line fill="none" stroke="#000000" stroke-width="2" x1="72.5" x2="72.5" y1="26" y2="10.5" /><line fill="none" stroke="#000000" stroke-width="2" x1="53" x2="53" y1="26" y2="10.5" /><line fill="none" stroke="#000000" stroke-width="2" x1="29.5" x2="96" y1="67" y2="67" /><line fill="none" stroke="#000000" stroke-width="2" x1="63.5" x2="63.5" y1="67" y2="94.5" /><line fill="none" stroke="#000000" stroke-width="2" x1="32" x2="93.5" y1="79.5" y2="79.5" /><line fill="none" stroke="#000000" stroke-width="2" x1="29.5" x2="96" y1="50" y2="50" /><line fill="none" stroke="#000000" stroke-width="2" x1="34" x2="91.5" y1="38.5" y2="38.5" /><line fill="none" stroke="#000000" stroke-width="2" x1="63.5" x2="63.5" y1="50" y2="28" /><line fill="none" stroke="#000000" stroke-width="2" x1="30" x2="4" y1="27" y2="27" /><polyline fill="none" points="35,27 91.5,27 91.5,9.5 34,9.5 34,28" stroke="#000000" stroke-width="2" /><path d="M71.5,67 c4.682,-5.306 8.598,-10.847 12,-17" fill="none" stroke="#000000" stroke-width="2" /><path d="M52,67 c-2.52,-5.605 -5.652,-11.528 -9,-17" fill="none" stroke="#000000" stroke-width="2" /><path d="M18,6 v78.0 c0,7.575 -0.404,8 -4.5,8 c-1.832,0 -4.633,-0.139 -8.5,-0.5" fill="none" stroke="#000000" stroke-width="2" /><path d="M30,56 c-8.998,5.009 -17.373,8.534 -26,11" fill="none" stroke="#000000" stroke-width="2" /></svg>