<?xml version='1.0' encoding='utf-8'?>
<svg xmlns="http://www.w3.org/2000/svg" height="100px" version="1.0" viewBox="0 0 100 100" width="100px" x="0px" y="0px">
<line fill="none" stroke="#000000" stroke-width="2" x1="30" x2="4" y1="27" y2="27" /><line fill="none" stroke="#000000" stroke-width="2" x1="33.5" x2="58" y1="23" y2="23" /><line fill="none" stroke="#000000" stroke-width="2" x1="65" x2="89.5" y1="23" y2="23" /><line fill="none" stroke="#000000" stroke-width="2" x1="37.5" x2="37.5" y1="49.5" y2="94" /><line fill="none" stroke="#000000" stroke-width="2" x1="91.5" x2="38" y1="49" y2="49" /><line fill="none" stroke="#000000" stroke-width="2" x1="66" x2="66" y1="88" y2="49" /><line fill="none" stroke="#000000" stroke-width="2" x1="38.5" x2="93.5" y1="88" y2="88" /><line fill="none" stroke="#000000" stroke-width="2" x1="37.5" x2="89.5" y1="74.5" y2="74.5" /><line fill="none" stroke="#000000" stroke-width="2" x1="37.5" x2="89.5" y1="61.5" y2="61.5" /><polyline fill="none" points="32.5,37.5 59,37.5 59,10 32.5,10" stroke="#000000" stroke-width="2" /><polyline fill="none" points="64,37.5 90.5,37.5 90.5,10 64,10" stroke="#000000" stroke-width="2" /><path d="M18,6 v78.0 c0,7.575 -0.404,8 -4.5,8 c-1.832,0 -4.633,-0.139 -8.5,-0.5" fill="none" stroke="#000000" stroke-width="2" /><path d="M30,51 c-8.998,5.009 -17.373,8.534 -26,11" fill="none" stroke="#000000" stroke-width="2" /><path d="M72,37.5 c-1.629,4.241 -3.602,7.979 -6,11.5" fill="none" stroke="#000000" stroke-width="2" /><path d="M25.5,63.5 c7.671,-7.431 13.295,-15.469 18,-26" fill="none" stroke="#000000" stroke-width="2" /></svg>