<?xml version='1.0' encoding='utf-8'?>
<svg xmlns="http://www.w3.org/2000/svg" height="100px" version="1.0" viewBox="0 0 100 100" width="100px" x="0px" y="0px">
<line fill="none" stroke="#000000" stroke-width="2" x1="24" x2="3" y1="26" y2="26" /><line fill="none" stroke="#000000" stroke-width="2" x1="77.5" x2="94" y1="62.5" y2="62.5" /><line fill="none" stroke="#000000" stroke-width="2" x1="77.5" x2="77.5" y1="88" y2="40" /><line fill="none" stroke="#000000" stroke-width="2" x1="96" x2="56.5" y1="40" y2="40" /><line fill="none" stroke="#000000" stroke-width="2" x1="59" x2="96" y1="11" y2="11" /><line fill="none" stroke="#000000" stroke-width="2" x1="56" x2="29.5" y1="46.5" y2="46.5" /><line fill="none" stroke="#000000" stroke-width="2" x1="57.5" x2="21" y1="64" y2="64" /><path d="M15,6 v78.0 c0,7.672 -0.32,8 -3.5,8 c-1.691,0 -4.43,-0.151 -8,-0.5" fill="none" stroke="#000000" stroke-width="2" /><path d="M24,47 c-7.598,5.009 -13.816,8.233 -21,11" fill="none" stroke="#000000" stroke-width="2" /><path d="M55,92.5 c5.17,-9.044 8.918,-25.727 9,-46" fill="none" stroke="#000000" stroke-width="2" /><path d="M97,90.5 h-3.5 c-18.108,0 -26.042,-5.643 -31,-23.5" fill="none" stroke="#000000" stroke-width="2" /><path d="M64.5,18.5 c6.397,6.179 13.265,13.549 20,21.5" fill="none" stroke="#000000" stroke-width="2" /><path d="M95.172,11.44 c-4.572,6.783 -10.726,14.006 -17.672,20.56" fill="none" stroke="#000000" stroke-width="2" /><path d="M27,7.5 v24.5 c0,3.88 0.109,4 12.5,4 c15.354,0 15.614,-0.151 17,-14" fill="none" stroke="#000000" stroke-width="2" /><path d="M27,20.5 c10.1,-2.073 18.839,-4.798 29,-9" fill="none" stroke="#000000" stroke-width="2" /><path d="M22.5,60 c4.103,-5.814 7.413,-13.108 9.5,-21" fill="none" stroke="#000000" stroke-width="2" /><path d="M19.5,92.5 c13.275,-5.626 22,-17.685 22,-30 v-16.0" fill="none" stroke="#000000" stroke-width="2" /><path d="M54,85.5 c-3.93,-6.032 -8.416,-12.424 -13,-18.5" fill="none" stroke="#000000" stroke-width="2" /><path d="M95.063,40.632 c-2.1,5.287 -4.598,9.814 -7.563,13.868" fill="none" stroke="#000000" stroke-width="2" /></svg>