<?xml version='1.0' encoding='utf-8'?>
<svg xmlns="http://www.w3.org/2000/svg" height="100px" version="1.0" viewBox="0 0 100 100" width="100px" x="0px" y="0px">
<line fill="none" stroke="#000000" stroke-width="2" x1="53" x2="17" y1="15.5" y2="15.5" /><line fill="none" stroke="#000000" stroke-width="2" x1="4" x2="54" y1="54" y2="54" /><line fill="none" stroke="#000000" stroke-width="2" x1="8.5" x2="52" y1="80.5" y2="80.5" /><line fill="none" stroke="#000000" stroke-width="2" x1="63" x2="97.5" y1="21" y2="21" /><path d="M4.5,40.5 c6.866,-9.923 12.543,-22.515 16,-36" fill="none" stroke="#000000" stroke-width="2" /><path d="M7.5,87.5 c2.813,-18.408 5.275,-40.549 6.5,-59.5 h35.0 c-1.08,19.169 -3.141,42.606 -5,59.5 c-0.396,3.604 -1.461,4.5 -5,4.5 c-1.6,0 -4.662,-0.15 -8,-0.5" fill="none" stroke="#000000" stroke-width="2" /><path d="M27,80.5 c1.918,-17.089 3.559,-35.894 4.5,-52.5" fill="none" stroke="#000000" stroke-width="2" /><path d="M51.5,91 c23.994,-15.312 34.34,-32.429 38,-70" fill="none" stroke="#000000" stroke-width="2" /><path d="M96.5,91 c-19.975,-14.23 -29.11,-30.512 -32.5,-63" fill="none" stroke="#000000" stroke-width="2" /><path d="M52,49 c6.488,-11.726 12.155,-28.03 15,-44" fill="none" stroke="#000000" stroke-width="2" /></svg>