<?xml version='1.0' encoding='utf-8'?>
<svg xmlns="http://www.w3.org/2000/svg" height="100px" version="1.0" viewBox="0 0 100 100" width="100px" x="0px" y="0px">
<line fill="none" stroke="#000000" stroke-width="2" x1="4.5" x2="54" y1="57.5" y2="57.5" /><line fill="none" stroke="#000000" stroke-width="2" x1="9" x2="48" y1="35.5" y2="35.5" /><line fill="none" stroke="#000000" stroke-width="2" x1="28.5" x2="28.5" y1="56.5" y2="5" /><line fill="none" stroke="#000000" stroke-width="2" x1="4.5" x2="53" y1="14.5" y2="14.5" /><line fill="none" stroke="#000000" stroke-width="2" x1="62.5" x2="96.5" y1="21" y2="21" /><polyline fill="none" points="9,47.5 49,47.5 49,23.5 8,23.5 8,48.5" stroke="#000000" stroke-width="2" /><path d="M4.5,91.5 c10.22,-6.857 16,-18.261 16,-33" fill="none" stroke="#000000" stroke-width="2" /><path d="M19.5,67.5 h29.0 c0,17.765 -3.744,23.5 -9,23.5 c-2.786,0 -7.925,-0.337 -14,-1" fill="none" stroke="#000000" stroke-width="2" /><path d="M35,5 c4.248,1.919 9.025,4.308 13,6.5" fill="none" stroke="#000000" stroke-width="2" /><path d="M50.5,91 c23.994,-15.312 34.34,-32.429 38,-70" fill="none" stroke="#000000" stroke-width="2" /><path d="M95.5,91 c-19.975,-14.23 -29.11,-30.512 -32.5,-63" fill="none" stroke="#000000" stroke-width="2" /><path d="M52,49 c6.023,-11.971 11.155,-28.03 14,-44" fill="none" stroke="#000000" stroke-width="2" /></svg>