<?xml version='1.0' encoding='utf-8'?>
<svg xmlns="http://www.w3.org/2000/svg" height="100px" version="1.0" viewBox="0 0 100 100" width="100px" x="0px" y="0px">
<line fill="none" stroke="#000000" stroke-width="2" x1="21.5" x2="21.5" y1="20" y2="4" /><line fill="none" stroke="#000000" stroke-width="2" x1="3.5" x2="39.5" y1="20" y2="20" /><line fill="none" stroke="#000000" stroke-width="2" x1="94.5" x2="48.5" y1="16" y2="16" /><line fill="none" stroke="#000000" stroke-width="2" x1="69.5" x2="69.5" y1="76" y2="22" /><path d="M3.5,92 c8.286,-14.722 12,-32.118 12,-72" fill="none" stroke="#000000" stroke-width="2" /><path d="M15,39 h20.0 c0,45.821 -2.874,51 -8,51 c-2.062,0 -6.498,-0.386 -11,-1" fill="none" stroke="#000000" stroke-width="2" /><path d="M36,35 c7.529,-8.344 13.897,-19.521 17.5,-31" fill="none" stroke="#000000" stroke-width="2" /><path d="M50,26 v58.5 c0,5.913 0.689,6.5 21.5,6.5 c20.56,0 20.8,-0.172 22.5,-19.5" fill="none" stroke="#000000" stroke-width="2" /><path d="M38,51 l52.5,-15.5 c0,30.282 -1.326,33 -4.5,33 c-1.914,0 -5.496,-0.199 -9,-0.5" fill="none" stroke="#000000" stroke-width="2" /></svg>