<?xml version='1.0' encoding='utf-8'?>
<svg xmlns="http://www.w3.org/2000/svg" height="100px" version="1.0" viewBox="0 0 100 100" width="100px" x="0px" y="0px">
<line fill="none" stroke="#000000" stroke-width="2" x1="10" x2="90" y1="13" y2="13" /><line fill="none" stroke="#000000" stroke-width="2" x1="50" x2="50" y1="13" y2="3" /><line fill="none" stroke="#000000" stroke-width="2" x1="50" x2="50" y1="51" y2="38" /><line fill="none" stroke="#000000" stroke-width="2" x1="7" x2="93" y1="51" y2="51" /><polyline fill="none" points="90.5,46 90.5,33 9.5,33 9.5,46" stroke="#000000" stroke-width="2" /><path d="M60,33 c5.104,-5.593 9.208,-12.472 12,-20" fill="none" stroke="#000000" stroke-width="2" /><path d="M39,33 c-3.396,-6.745 -7.391,-13.443 -12,-20" fill="none" stroke="#000000" stroke-width="2" /><path d="M10,92 c18.044,-7.663 29,-22.593 29,-40" fill="none" stroke="#000000" stroke-width="2" /><path d="M37.5,63.5 h46.0 c0,21.846 -3.773,27 -13.5,27 c-4.016,0 -11.265,-0.324 -20,-1" fill="none" stroke="#000000" stroke-width="2" /></svg>