<?xml version='1.0' encoding='utf-8'?>
<svg xmlns="http://www.w3.org/2000/svg" height="100px" version="1.0" viewBox="0 0 100 100" width="100px" x="0px" y="0px">
<line fill="none" stroke="#000000" stroke-width="2" x1="21.5" x2="21.5" y1="20" y2="4" /><line fill="none" stroke="#000000" stroke-width="2" x1="3.5" x2="39.5" y1="20" y2="20" /><line fill="none" stroke="#000000" stroke-width="2" x1="94.5" x2="48.5" y1="16" y2="16" /><line fill="none" stroke="#000000" stroke-width="2" x1="68.5" x2="91" y1="57.5" y2="57.5" /><line fill="none" stroke="#000000" stroke-width="2" x1="68.5" x2="68.5" y1="87.5" y2="31" /><line fill="none" stroke="#000000" stroke-width="2" x1="93.5" x2="44.5" y1="31" y2="31" /><path d="M3.5,92 c8.286,-14.722 12,-32.118 12,-72" fill="none" stroke="#000000" stroke-width="2" /><path d="M15,39 h20.0 c0,45.821 -2.874,51 -8,51 c-2.062,0 -6.498,-0.386 -11,-1" fill="none" stroke="#000000" stroke-width="2" /><path d="M36,35 c7.529,-8.344 13.897,-19.521 17.5,-31" fill="none" stroke="#000000" stroke-width="2" /><path d="M38.5,92.5 c6.589,-10.196 11.395,-29.129 11.5,-52" fill="none" stroke="#000000" stroke-width="2" /><path d="M95,90.5 h-6.5 c-23.671,0 -33.52,-7.032 -40,-29" fill="none" stroke="#000000" stroke-width="2" /><path d="M92.577,31.609 c-2.657,6.25 -5.782,11.624 -9.577,16.391" fill="none" stroke="#000000" stroke-width="2" /></svg>