<?xml version='1.0' encoding='utf-8'?>
<svg xmlns="http://www.w3.org/2000/svg" height="100px" version="1.0" viewBox="0 0 100 100" width="100px" x="0px" y="0px">
<line fill="none" stroke="#000000" stroke-width="2" x1="5.5" x2="51.5" y1="30.5" y2="30.5" /><line fill="none" stroke="#000000" stroke-width="2" x1="49.5" x2="15.5" y1="14.5" y2="14.5" /><line fill="none" stroke="#000000" stroke-width="2" x1="20" x2="80" y1="87" y2="87" /><line fill="none" stroke="#000000" stroke-width="2" x1="20" x2="80" y1="69.5" y2="69.5" /><polyline fill="none" points="81,93 81,52.5 19,52.5 19,93" stroke="#000000" stroke-width="2" /><polyline fill="none" points="58,44.5 89,44.5 89,13 57,13 57,45.5" stroke="#000000" stroke-width="2" /><path d="M8,26 c5.183,-6.064 9.429,-13.752 12,-22" fill="none" stroke="#000000" stroke-width="2" /><path d="M5,55.5 c17.411,-9.49 26,-22.559 26,-40" fill="none" stroke="#000000" stroke-width="2" /><path d="M49.5,48 c-6.348,-6.562 -13.662,-12.217 -21.5,-16.5" fill="none" stroke="#000000" stroke-width="2" /></svg>