<?xml version='1.0' encoding='utf-8'?>
<svg xmlns="http://www.w3.org/2000/svg" height="100px" version="1.0" viewBox="0 0 100 100" width="100px" x="0px" y="0px">
<line fill="none" stroke="#000000" stroke-width="2" x1="9.5" x2="27" y1="45" y2="45" /><line fill="none" stroke="#000000" stroke-width="2" x1="92.5" x2="32.5" y1="57" y2="57" /><line fill="none" stroke="#000000" stroke-width="2" x1="94" x2="31.5" y1="36.5" y2="36.5" /><line fill="none" stroke="#000000" stroke-width="2" x1="62.5" x2="62.5" y1="36.5" y2="4" /><line fill="none" stroke="#000000" stroke-width="2" x1="46.5" x2="46.5" y1="56" y2="24" /><line fill="none" stroke="#000000" stroke-width="2" x1="78.5" x2="78.5" y1="56" y2="24" /><line fill="none" stroke="#000000" stroke-width="2" x1="91" x2="34" y1="16" y2="16" /><polyline fill="none" points="9.5,83 28,83 28,12 8.5,12 8.5,91" stroke="#000000" stroke-width="2" /><path d="M70.5,57 v27.5 c0,5.278 0.86,6 11.5,6 c11.222,0 11.492,-0.242 12,-22.5" fill="none" stroke="#000000" stroke-width="2" /><path d="M29,91.5 c15.925,-4.563 25,-16.448 25,-34.5" fill="none" stroke="#000000" stroke-width="2" /></svg>