<?xml version='1.0' encoding='utf-8'?>
<svg xmlns="http://www.w3.org/2000/svg" height="100px" version="1.0" viewBox="0 0 100 100" width="100px" x="0px" y="0px">
<line fill="none" stroke="#000000" stroke-width="2" x1="57" x2="95" y1="24.5" y2="24.5" /><line fill="none" stroke="#000000" stroke-width="2" x1="82" x2="82" y1="54" y2="24.5" /><line fill="none" stroke="#000000" stroke-width="2" x1="20" x2="80" y1="87" y2="87" /><line fill="none" stroke="#000000" stroke-width="2" x1="20" x2="80" y1="72.5" y2="72.5" /><line fill="none" stroke="#000000" stroke-width="2" x1="11.5" x2="46.5" y1="29.5" y2="29.5" /><line fill="none" stroke="#000000" stroke-width="2" x1="6" x2="50.5" y1="46.5" y2="46.5" /><line fill="none" stroke="#000000" stroke-width="2" x1="29" x2="29" y1="54" y2="6" /><line fill="none" stroke="#000000" stroke-width="2" x1="6" x2="51.5" y1="12.5" y2="12.5" /><polyline fill="none" points="81,93 81,58 19,58 19,93" stroke="#000000" stroke-width="2" /><polyline fill="none" points="11.5,39 47.5,39 47.5,20 10.5,20 10.5,40" stroke="#000000" stroke-width="2" /><path d="M56.547,10.998 c14.112,-0.649 25.515,-2.044 34.453,-3.998" fill="none" stroke="#000000" stroke-width="2" /><path d="M49,53.5 c6.109,-8.502 8.5,-18.05 8.5,-43.5" fill="none" stroke="#000000" stroke-width="2" /></svg>