<?xml version='1.0' encoding='utf-8'?>
<svg xmlns="http://www.w3.org/2000/svg" height="100px" version="1.0" viewBox="0 0 100 100" width="100px" x="0px" y="0px">
<line fill="none" stroke="#000000" stroke-width="2" x1="9" x2="26" y1="45" y2="45" /><line fill="none" stroke="#000000" stroke-width="2" x1="96.5" x2="27.5" y1="55" y2="55" /><line fill="none" stroke="#000000" stroke-width="2" x1="31" x2="93.5" y1="43.5" y2="43.5" /><line fill="none" stroke="#000000" stroke-width="2" x1="49.5" x2="49.5" y1="54" y2="34" /><line fill="none" stroke="#000000" stroke-width="2" x1="74.5" x2="74.5" y1="54" y2="34" /><line fill="none" stroke="#000000" stroke-width="2" x1="36.5" x2="88" y1="21" y2="21" /><polyline fill="none" points="9,83 27,83 27,12 8,12 8,91" stroke="#000000" stroke-width="2" /><polyline fill="none" points="36.5,33 89,33 89,9.5 35.5,9.5 35.5,34" stroke="#000000" stroke-width="2" /><path d="M62,58.5 v29.5 c0,4.221 -0.297,4.5 -4.5,4.5 c-1.297,0 -4.863,-0.147 -9.5,-0.5" fill="none" stroke="#000000" stroke-width="2" /><path d="M31,91 c8.822,-3.306 17.549,-8.612 25,-15" fill="none" stroke="#000000" stroke-width="2" /><path d="M92,92 c-8.383,-6.807 -17.096,-12.228 -25,-15.5" fill="none" stroke="#000000" stroke-width="2" /><path d="M53.5,73 c-3.237,-3.758 -6.947,-7.317 -11,-10.5" fill="none" stroke="#000000" stroke-width="2" /><path d="M81,62.5 c-3.518,3.564 -7.561,6.956 -12,10" fill="none" stroke="#000000" stroke-width="2" /><path d="M27,73 c9.276,-4.52 18.203,-11.845 22.5,-18" fill="none" stroke="#000000" stroke-width="2" /><path d="M97,73 c-9.276,-4.519 -18.203,-11.845 -22.5,-18" fill="none" stroke="#000000" stroke-width="2" /></svg>