<?xml version='1.0' encoding='utf-8'?>
<svg xmlns="http://www.w3.org/2000/svg" height="100px" version="1.0" viewBox="0 0 100 100" width="100px" x="0px" y="0px">
<line fill="none" stroke="#000000" stroke-width="2" x1="57" x2="88" y1="59" y2="59" /><line fill="none" stroke="#000000" stroke-width="2" x1="58" x2="88" y1="33.5" y2="33.5" /><line fill="none" stroke="#000000" stroke-width="2" x1="14.5" x2="42.5" y1="59" y2="59" /><line fill="none" stroke="#000000" stroke-width="2" x1="15.5" x2="42.5" y1="33.5" y2="33.5" /><path d="M48,92.5 c6.149,-10.866 9,-23.313 9,-46.5 v-36.0 h32.0 v73.0 c0,7.674 -0.266,8 -6,8 c-2.166,0 -6.576,-0.155 -13,-0.5" fill="none" stroke="#000000" stroke-width="2" /><path d="M5.5,92.5 c6.149,-10.866 9,-23.313 9,-46.5 v-36.0 h29.0 v73.0 c0,7.674 -0.266,8 -6,8 c-2.166,0 -6.576,-0.155 -13,-0.5" fill="none" stroke="#000000" stroke-width="2" /></svg>