<?xml version='1.0' encoding='utf-8'?>
<svg xmlns="http://www.w3.org/2000/svg" height="100px" version="1.0" viewBox="0 0 100 100" width="100px" x="0px" y="0px">
<line fill="none" stroke="#000000" stroke-width="2" x1="10.5" x2="31" y1="59" y2="59" /><line fill="none" stroke="#000000" stroke-width="2" x1="11.5" x2="31" y1="33.5" y2="33.5" /><line fill="none" stroke="#000000" stroke-width="2" x1="93" x2="37" y1="25" y2="25" /><line fill="none" stroke="#000000" stroke-width="2" x1="94.5" x2="36" y1="51" y2="51" /><path d="M4.5,92.5 c4.1,-10.866 6,-23.313 6,-46.5 v-36.0 H32.0 v73.0 c0,7.724 -0.25,8 -5,8 c-1.819,0 -5.604,-0.155 -11,-0.5" fill="none" stroke="#000000" stroke-width="2" /><path d="M35,91 c19.276,-8.678 30,-24.777 30,-44 v-22.0" fill="none" stroke="#000000" stroke-width="2" /><path d="M95,91 c-18.98,-8.544 -30,-24.571 -30,-44" fill="none" stroke="#000000" stroke-width="2" /><path d="M57,22 c-3.505,-5.867 -7.325,-11.608 -11,-16.5" fill="none" stroke="#000000" stroke-width="2" /><path d="M71.5,25 c4.533,-6.425 8.845,-13.432 12,-19.5" fill="none" stroke="#000000" stroke-width="2" /></svg>