<?xml version='1.0' encoding='utf-8'?>
<svg xmlns="http://www.w3.org/2000/svg" height="100px" version="1.0" viewBox="0 0 100 100" width="100px" x="0px" y="0px">
<line fill="none" stroke="#000000" stroke-width="2" x1="21.5" x2="21.5" y1="94" y2="6" /><line fill="none" stroke="#000000" stroke-width="2" x1="36.5" x2="5" y1="26" y2="26" /><path d="M3.5,73 c8.406,-15.363 14.009,-30.544 17.5,-47.5" fill="none" stroke="#000000" stroke-width="2" /><path d="M36.5,61 c-4.582,-11.04 -9.738,-22.734 -15,-34" fill="none" stroke="#000000" stroke-width="2" /><path d="M96.5,51 c-3.762,-11.877 -8.525,-24.087 -14,-35.5" fill="none" stroke="#000000" stroke-width="2" /><path d="M67,6 v46.0 c0,7.429 -0.516,8 -6,8 c-1.574,0 -4.867,-0.13 -10.5,-0.5" fill="none" stroke="#000000" stroke-width="2" /><path d="M89.5,47.5 c-7.674,22.907 -28.185,39.954 -56.5,45" fill="none" stroke="#000000" stroke-width="2" /><path d="M36.5,50.5 c5.574,-9.558 10.332,-22.018 13,-35" fill="none" stroke="#000000" stroke-width="2" /></svg>