<?xml version='1.0' encoding='utf-8'?>
<svg xmlns="http://www.w3.org/2000/svg" height="100px" version="1.0" viewBox="0 0 100 100" width="100px" x="0px" y="0px">
<line fill="none" stroke="#000000" stroke-width="2" x1="21.5" x2="21.5" y1="94" y2="6" /><line fill="none" stroke="#000000" stroke-width="2" x1="36.5" x2="5" y1="26" y2="26" /><line fill="none" stroke="#000000" stroke-width="2" x1="71.5" x2="47.5" y1="66" y2="66" /><polyline fill="none" points="46.5,75 46.5,32.5 72.5,32.5 72.5,67" stroke="#000000" stroke-width="2" /><path d="M3.5,73 c8.406,-15.363 14.009,-30.544 17.5,-47.5" fill="none" stroke="#000000" stroke-width="2" /><path d="M36.5,61 c-4.582,-11.04 -9.738,-22.734 -15,-34" fill="none" stroke="#000000" stroke-width="2" /><path d="M34,39 c7.121,-9.191 13.282,-22.205 16,-34" fill="none" stroke="#000000" stroke-width="2" /><path d="M46,18 h46.0 c-1.855,66.43 -4.27,72.5 -9.5,72.5 c-4.365,0 -11.515,-0.34 -19,-1" fill="none" stroke="#000000" stroke-width="2" /></svg>