<?xml version='1.0' encoding='utf-8'?>
<svg xmlns="http://www.w3.org/2000/svg" height="100px" version="1.0" viewBox="0 0 100 100" width="100px" x="0px" y="0px">
<line fill="none" stroke="#000000" stroke-width="2" x1="19.5" x2="19.5" y1="94" y2="6" /><line fill="none" stroke="#000000" stroke-width="2" x1="32.5" x2="4.5" y1="26" y2="26" /><line fill="none" stroke="#000000" stroke-width="2" x1="96" x2="33.5" y1="10.5" y2="10.5" /><path d="M3.5,70 c7.473,-14.471 12.377,-28.562 15.5,-44.5" fill="none" stroke="#000000" stroke-width="2" /><path d="M32.5,59 c-3.982,-10.331 -8.284,-21.329 -12.5,-32" fill="none" stroke="#000000" stroke-width="2" /><path d="M42,66.5 c14.867,-11.251 22.5,-26.829 22.5,-51 v-5.0" fill="none" stroke="#000000" stroke-width="2" /><path d="M74,90.5 c6.304,0.36 10.315,0.5 12,0.5 c5.395,0 6,-0.673 6,-8 v-54.5 h-54.5 v64.0" fill="none" stroke="#000000" stroke-width="2" /><path d="M87,67.5 c-6.603,-11.325 -15.684,-21.475 -25.5,-28" fill="none" stroke="#000000" stroke-width="2" /></svg>