<?xml version='1.0' encoding='utf-8'?>
<svg xmlns="http://www.w3.org/2000/svg" height="100px" version="1.0" viewBox="0 0 100 100" width="100px" x="0px" y="0px">
<line fill="none" stroke="#000000" stroke-width="2" x1="18.5" x2="18.5" y1="94" y2="6" /><line fill="none" stroke="#000000" stroke-width="2" x1="32" x2="4.5" y1="26" y2="26" /><line fill="none" stroke="#000000" stroke-width="2" x1="95.5" x2="30" y1="51" y2="51" /><line fill="none" stroke="#000000" stroke-width="2" x1="93.5" x2="31.5" y1="14.5" y2="14.5" /><line fill="none" stroke="#000000" stroke-width="2" x1="78.5" x2="46.5" y1="37.5" y2="37.5" /><path d="M3.5,70 c6.99,-14.471 11.578,-28.562 14.5,-44.5" fill="none" stroke="#000000" stroke-width="2" /><path d="M30.5,59 c-3.664,-10.331 -7.621,-21.329 -11.5,-32" fill="none" stroke="#000000" stroke-width="2" /><path d="M45,51 c-2.052,9.31 -5.5,20.015 -9,28" fill="none" stroke="#000000" stroke-width="2" /><path d="M41,65 h46.0 c-2.41,25.162 -3.871,27 -9.5,27 c-3.021,0 -10.614,-0.451 -16.5,-1" fill="none" stroke="#000000" stroke-width="2" /><path d="M95.5,46 c-11.928,-6.48 -22.5,-18.048 -28.5,-31.5" fill="none" stroke="#000000" stroke-width="2" /><path d="M29.5,46 c16.586,-9.8 28.484,-25.08 32.5,-41" fill="none" stroke="#000000" stroke-width="2" /></svg>