<?xml version='1.0' encoding='utf-8'?>
<svg xmlns="http://www.w3.org/2000/svg" height="100px" version="1.0" viewBox="0 0 100 100" width="100px" x="0px" y="0px">
<line fill="none" stroke="#000000" stroke-width="2" x1="19" x2="19" y1="94" y2="6" /><line fill="none" stroke="#000000" stroke-width="2" x1="31" x2="4" y1="26" y2="26" /><line fill="none" stroke="#000000" stroke-width="2" x1="94.5" x2="31.5" y1="11" y2="11" /><line fill="none" stroke="#000000" stroke-width="2" x1="37.5" x2="89" y1="56.5" y2="56.5" /><line fill="none" stroke="#000000" stroke-width="2" x1="37.5" x2="89" y1="39.5" y2="39.5" /><polyline fill="none" points="90,64.5 90,23.5 36.5,23.5 36.5,57.5" stroke="#000000" stroke-width="2" /><path d="M3,70 c7.473,-14.471 12.377,-28.562 15.5,-44.5" fill="none" stroke="#000000" stroke-width="2" /><path d="M31,59 c-3.664,-10.331 -7.621,-21.329 -11.5,-32" fill="none" stroke="#000000" stroke-width="2" /><path d="M27,90.5 c24.523,-5.792 36,-19.847 36,-48 V11.0" fill="none" stroke="#000000" stroke-width="2" /><path d="M94.5,90.5 c-21.154,-1.074 -40.604,-11.903 -52.5,-29" fill="none" stroke="#000000" stroke-width="2" /></svg>