<?xml version='1.0' encoding='utf-8'?>
<svg xmlns="http://www.w3.org/2000/svg" height="100px" version="1.0" viewBox="0 0 100 100" width="100px" x="0px" y="0px">
<line fill="none" stroke="#000000" stroke-width="2" x1="18.5" x2="18.5" y1="94" y2="6" /><line fill="none" stroke="#000000" stroke-width="2" x1="31" x2="4.5" y1="26" y2="26" /><line fill="none" stroke="#000000" stroke-width="2" x1="47" x2="89" y1="56" y2="56" /><path d="M3.5,70 c6.99,-14.471 11.578,-28.562 14.5,-44.5" fill="none" stroke="#000000" stroke-width="2" /><path d="M30.5,59 c-3.664,-10.331 -7.621,-21.329 -11.5,-32" fill="none" stroke="#000000" stroke-width="2" /><path d="M71.5,24 v19.0 c0,4.302 0.242,4.5 11.5,4.5 c10.119,0 10.336,-0.151 11.5,-12" fill="none" stroke="#000000" stroke-width="2" /><path d="M42,25.5 c5.17,-6.438 10.262,-13.655 14.5,-20.5" fill="none" stroke="#000000" stroke-width="2" /><path d="M94,29 c-5.367,-6.704 -12.688,-15.22 -19,-22" fill="none" stroke="#000000" stroke-width="2" /><path d="M33.5,26 c17.594,-0.391 36.695,-1.651 55,-3.5" fill="none" stroke="#000000" stroke-width="2" /><path d="M32.5,51.5 c14.8,-4.558 23.762,-14.547 24.5,-26.5" fill="none" stroke="#000000" stroke-width="2" /><path d="M30.5,70 c10.011,-5.953 20.466,-16.813 24,-24.5" fill="none" stroke="#000000" stroke-width="2" /><path d="M88.146,56.479 c-10.264,16.812 -32.207,30.384 -60.646,35.521" fill="none" stroke="#000000" stroke-width="2" /><path d="M96,92 c-21.317,-7.034 -39.906,-19.698 -50.5,-34" fill="none" stroke="#000000" stroke-width="2" /></svg>