<?xml version='1.0' encoding='utf-8'?>
<svg xmlns="http://www.w3.org/2000/svg" height="100px" version="1.0" viewBox="0 0 100 100" width="100px" x="0px" y="0px">
<line fill="none" stroke="#000000" stroke-width="2" x1="61" x2="61" y1="15" y2="4" /><line fill="none" stroke="#000000" stroke-width="2" x1="30" x2="93.5" y1="15" y2="15" /><line fill="none" stroke="#000000" stroke-width="2" x1="60.5" x2="60.5" y1="50" y2="92" /><line fill="none" stroke="#000000" stroke-width="2" x1="19" x2="19" y1="94" y2="6" /><line fill="none" stroke="#000000" stroke-width="2" x1="32.5" x2="4" y1="26" y2="26" /><path d="M94,47 c-5.631,-7.398 -13.361,-16.695 -20,-24" fill="none" stroke="#000000" stroke-width="2" /><path d="M30.5,43.5 c16.519,-0.501 37.299,-2.314 57,-5" fill="none" stroke="#000000" stroke-width="2" /><path d="M43,43 c4.355,-7.727 9.249,-18.17 13,-28" fill="none" stroke="#000000" stroke-width="2" /><path d="M79.5,49 v37.5 c0,4.716 0.304,5 6,5 c8.129,0 8.39,-0.176 9,-22.5" fill="none" stroke="#000000" stroke-width="2" /><path d="M25,93 c11.902,-6.534 19.5,-21.634 19.5,-44" fill="none" stroke="#000000" stroke-width="2" /><path d="M3,70 c7.473,-14.471 12.377,-28.562 15.5,-44.5" fill="none" stroke="#000000" stroke-width="2" /><path d="M31,59 c-3.664,-10.331 -7.621,-21.329 -11.5,-32" fill="none" stroke="#000000" stroke-width="2" /></svg>