<?xml version='1.0' encoding='utf-8'?>
<svg xmlns="http://www.w3.org/2000/svg" height="100px" version="1.0" viewBox="0 0 100 100" width="100px" x="0px" y="0px">
<line fill="none" stroke="#000000" stroke-width="2" x1="19.5" x2="19.5" y1="94" y2="6" /><line fill="none" stroke="#000000" stroke-width="2" x1="31.5" x2="4.5" y1="26" y2="26" /><line fill="none" stroke="#000000" stroke-width="2" x1="40" x2="40" y1="6" y2="68.5" /><line fill="none" stroke="#000000" stroke-width="2" x1="95" x2="30" y1="17" y2="17" /><line fill="none" stroke="#000000" stroke-width="2" x1="85" x2="85" y1="68.5" y2="6" /><line fill="none" stroke="#000000" stroke-width="2" x1="29" x2="96" y1="69.5" y2="69.5" /><line fill="none" stroke="#000000" stroke-width="2" x1="41" x2="85" y1="51.5" y2="51.5" /><line fill="none" stroke="#000000" stroke-width="2" x1="41" x2="85" y1="34" y2="34" /><path d="M3.5,70 c7.473,-14.471 12.377,-28.562 15.5,-44.5" fill="none" stroke="#000000" stroke-width="2" /><path d="M31.5,59 c-3.664,-10.331 -7.621,-21.329 -11.5,-32" fill="none" stroke="#000000" stroke-width="2" /><path d="M28.5,92 c10.971,-4.65 20.439,-11.01 26,-17" fill="none" stroke="#000000" stroke-width="2" /><path d="M94.5,93 c-6.694,-5.892 -15.932,-12.185 -26,-17.5" fill="none" stroke="#000000" stroke-width="2" /></svg>