<?xml version='1.0' encoding='utf-8'?>
<svg xmlns="http://www.w3.org/2000/svg" height="100px" version="1.0" viewBox="0 0 100 100" width="100px" x="0px" y="0px">
<line fill="none" stroke="#000000" stroke-width="2" x1="37.5" x2="90" y1="59.5" y2="59.5" /><line fill="none" stroke="#000000" stroke-width="2" x1="37.5" x2="90" y1="42.5" y2="42.5" /><line fill="none" stroke="#000000" stroke-width="2" x1="64" x2="64" y1="93.5" y2="5" /><line fill="none" stroke="#000000" stroke-width="2" x1="32" x2="95" y1="16" y2="16" /><line fill="none" stroke="#000000" stroke-width="2" x1="19.5" x2="19.5" y1="94" y2="6" /><line fill="none" stroke="#000000" stroke-width="2" x1="32.5" x2="4.5" y1="26" y2="26" /><polyline fill="none" points="91,60.5 91,26.5 36.5,26.5 36.5,60.5" stroke="#000000" stroke-width="2" /><path d="M28.5,89 c17.309,-10.207 28.578,-20.236 34.5,-29.5" fill="none" stroke="#000000" stroke-width="2" /><path d="M96.5,89 c-13.677,-8.286 -23.15,-17.081 -31.5,-29.5" fill="none" stroke="#000000" stroke-width="2" /><path d="M3.5,70 c7.473,-14.471 12.377,-28.562 15.5,-44.5" fill="none" stroke="#000000" stroke-width="2" /><path d="M31.5,59 c-3.664,-10.331 -7.621,-21.329 -11.5,-32" fill="none" stroke="#000000" stroke-width="2" /></svg>