<?xml version='1.0' encoding='utf-8'?>
<svg xmlns="http://www.w3.org/2000/svg" height="100px" version="1.0" viewBox="0 0 100 100" width="100px" x="0px" y="0px">
<line fill="none" stroke="#000000" stroke-width="2" x1="17.5" x2="17.5" y1="94" y2="6" /><line fill="none" stroke="#000000" stroke-width="2" x1="29.5" x2="3.5" y1="26" y2="26" /><line fill="none" stroke="#000000" stroke-width="2" x1="95" x2="28.5" y1="13" y2="13" /><line fill="none" stroke="#000000" stroke-width="2" x1="61" x2="61" y1="4.5" y2="47.5" /><line fill="none" stroke="#000000" stroke-width="2" x1="27.5" x2="96" y1="35.5" y2="35.5" /><line fill="none" stroke="#000000" stroke-width="2" x1="95" x2="28.5" y1="58.5" y2="58.5" /><polyline fill="none" points="33,48.5 88,48.5 88,23 33,23" stroke="#000000" stroke-width="2" /><path d="M2.5,70 c6.99,-14.471 11.578,-28.562 14.5,-44.5" fill="none" stroke="#000000" stroke-width="2" /><path d="M27,53 c-2.801,-8.549 -5.887,-17.435 -9,-26" fill="none" stroke="#000000" stroke-width="2" /><path d="M27,92 c28.339,-4.039 48.695,-17.257 57,-33.5" fill="none" stroke="#000000" stroke-width="2" /><path d="M58.5,48.5 c-6.734,10.319 -15.451,19.622 -27,28.5" fill="none" stroke="#000000" stroke-width="2" /><path d="M36.5,73 c19.221,3.755 35.221,9.284 56,19.5" fill="none" stroke="#000000" stroke-width="2" /></svg>