<?xml version='1.0' encoding='utf-8'?>
<svg xmlns="http://www.w3.org/2000/svg" height="100px" version="1.0" viewBox="0 0 100 100" width="100px" x="0px" y="0px">
<line fill="none" stroke="#000000" stroke-width="2" x1="17.5" x2="17.5" y1="94" y2="6" /><line fill="none" stroke="#000000" stroke-width="2" x1="29.5" x2="3.5" y1="26" y2="26" /><line fill="none" stroke="#000000" stroke-width="2" x1="63" x2="63" y1="15" y2="3" /><line fill="none" stroke="#000000" stroke-width="2" x1="44" x2="62.5" y1="33" y2="33" /><polyline fill="none" points="93,31 93,15 33,15 33,32" stroke="#000000" stroke-width="2" /><path d="M2.5,70 c6.99,-14.471 11.578,-28.562 14.5,-44.5" fill="none" stroke="#000000" stroke-width="2" /><path d="M28,54.5 c-3.112,-9.042 -6.541,-18.44 -10,-27.5" fill="none" stroke="#000000" stroke-width="2" /><path d="M30,60.5 c7.862,-10.765 13.846,-24.015 17.5,-39" fill="none" stroke="#000000" stroke-width="2" /><path d="M61.502,33.959 c-1.064,26.077 -14.461,48.25 -32.502,57.041" fill="none" stroke="#000000" stroke-width="2" /><path d="M95,69.5 c-1.055,20.802 -1.269,21 -14,21 c-13.779,0 -14,-0.19 -14,-6.5 v-53.5 h21.5 v28.0 c0,6.25 -0.211,6.5 -4.5,6.5 c-1.532,0 -4.852,-0.139 -9.5,-0.5" fill="none" stroke="#000000" stroke-width="2" /><path d="M54.5,63.5 c-4.232,-4.488 -9.313,-9.396 -14,-13.5" fill="none" stroke="#000000" stroke-width="2" /></svg>