<?xml version='1.0' encoding='utf-8'?>
<svg xmlns="http://www.w3.org/2000/svg" height="100px" version="1.0" viewBox="0 0 100 100" width="100px" x="0px" y="0px">
<line fill="none" stroke="#000000" stroke-width="2" x1="17.5" x2="17.5" y1="94" y2="6" /><line fill="none" stroke="#000000" stroke-width="2" x1="30.5" x2="3.5" y1="25" y2="25" /><line fill="none" stroke="#000000" stroke-width="2" x1="61.5" x2="95.5" y1="13.5" y2="13.5" /><line fill="none" stroke="#000000" stroke-width="2" x1="43" x2="43" y1="5" y2="43" /><line fill="none" stroke="#000000" stroke-width="2" x1="28" x2="65" y1="43" y2="43" /><line fill="none" stroke="#000000" stroke-width="2" x1="43" x2="61.5" y1="21.5" y2="21.5" /><path d="M2.5,69 c6.99,-14.471 11.578,-28.562 14.5,-44.5" fill="none" stroke="#000000" stroke-width="2" /><path d="M27.5,55 c-2.957,-9.536 -6.214,-19.446 -9.5,-29" fill="none" stroke="#000000" stroke-width="2" /><path d="M59,91.5 c17.619,-12.147 31.722,-39.362 35.505,-77.1" fill="none" stroke="#000000" stroke-width="2" /><path d="M97,91.5 c-15.716,-13.372 -26.664,-37.751 -29.5,-72.5" fill="none" stroke="#000000" stroke-width="2" /><path d="M26.5,83 c4.131,-8.292 8.063,-20.165 10.5,-32.5" fill="none" stroke="#000000" stroke-width="2" /><path d="M64.5,75.5 c-2.857,-8.985 -6.344,-17.73 -10,-25" fill="none" stroke="#000000" stroke-width="2" /><path d="M46.461,43 v40.5 c0,6.974 -0.508,7.5 -4.461,7.5 c-1.735,0 -4.654,-0.175 -8.5,-0.5" fill="none" stroke="#000000" stroke-width="2" /></svg>