<?xml version='1.0' encoding='utf-8'?>
<svg xmlns="http://www.w3.org/2000/svg" height="100px" version="1.0" viewBox="0 0 100 100" width="100px" x="0px" y="0px">
<line fill="none" stroke="#000000" stroke-width="2" x1="33" x2="92" y1="88" y2="88" /><line fill="none" stroke="#000000" stroke-width="2" x1="87.5" x2="37.5" y1="75.5" y2="75.5" /><line fill="none" stroke="#000000" stroke-width="2" x1="86" x2="39" y1="21.5" y2="21.5" /><line fill="none" stroke="#000000" stroke-width="2" x1="83" x2="42" y1="46" y2="46" /><line fill="none" stroke="#000000" stroke-width="2" x1="62.5" x2="62.5" y1="75.5" y2="21.5" /><line fill="none" stroke="#000000" stroke-width="2" x1="17" x2="17" y1="94" y2="6" /><line fill="none" stroke="#000000" stroke-width="2" x1="28.5" x2="3" y1="25.5" y2="25.5" /><polyline fill="none" points="93,94 93,10 32,10 32,94" stroke="#000000" stroke-width="2" /><path d="M74,53 c3.943,4.618 7.279,8.873 11,14" fill="none" stroke="#000000" stroke-width="2" /><path d="M2,69.5 c6.99,-14.471 11.578,-28.562 14.5,-44.5" fill="none" stroke="#000000" stroke-width="2" /><path d="M27.5,52.5 c-3.111,-8.549 -6.541,-17.435 -10,-26" fill="none" stroke="#000000" stroke-width="2" /></svg>