<?xml version='1.0' encoding='utf-8'?>
<svg xmlns="http://www.w3.org/2000/svg" height="100px" version="1.0" viewBox="0 0 100 100" width="100px" x="0px" y="0px">
<line fill="none" stroke="#000000" stroke-width="2" x1="19" x2="19" y1="94" y2="6" /><line fill="none" stroke="#000000" stroke-width="2" x1="32" x2="4" y1="26" y2="26" /><line fill="none" stroke="#000000" stroke-width="2" x1="94" x2="30" y1="15" y2="15" /><line fill="none" stroke="#000000" stroke-width="2" x1="29" x2="95" y1="57" y2="57" /><line fill="none" stroke="#000000" stroke-width="2" x1="43" x2="81" y1="43" y2="43" /><line fill="none" stroke="#000000" stroke-width="2" x1="43" x2="81" y1="29" y2="29" /><line fill="none" stroke="#000000" stroke-width="2" x1="42" x2="42" y1="56" y2="3.5" /><line fill="none" stroke="#000000" stroke-width="2" x1="82" x2="82" y1="56" y2="3.5" /><line fill="none" stroke="#000000" stroke-width="2" x1="36" x2="94" y1="88.5" y2="88.5" /><line fill="none" stroke="#000000" stroke-width="2" x1="36" x2="36" y1="58" y2="95.5" /><path d="M3,70 c7.473,-14.471 12.377,-28.562 15.5,-44.5" fill="none" stroke="#000000" stroke-width="2" /><path d="M30,53.5 c-3.405,-8.685 -6.981,-17.702 -10.5,-26.5" fill="none" stroke="#000000" stroke-width="2" /><path d="M55.5,57 c0,13.314 -3.721,18.837 -15,23" fill="none" stroke="#000000" stroke-width="2" /><path d="M68.5,58 v13.5 c0,4.023 0.607,4.5 10,4.5 c9.891,0 10.139,-0.241 10.5,-12.5" fill="none" stroke="#000000" stroke-width="2" /></svg>