<?xml version='1.0' encoding='utf-8'?>
<svg xmlns="http://www.w3.org/2000/svg" height="100px" version="1.0" viewBox="0 0 100 100" width="100px" x="0px" y="0px">
<line fill="none" stroke="#000000" stroke-width="2" x1="19.5" x2="19.5" y1="94" y2="6" /><line fill="none" stroke="#000000" stroke-width="2" x1="33" x2="4.5" y1="26" y2="26" /><line fill="none" stroke="#000000" stroke-width="2" x1="45.5" x2="45.5" y1="42.5" y2="93.5" /><line fill="none" stroke="#000000" stroke-width="2" x1="46.5" x2="91" y1="87" y2="87" /><line fill="none" stroke="#000000" stroke-width="2" x1="46.5" x2="91" y1="72.5" y2="72.5" /><line fill="none" stroke="#000000" stroke-width="2" x1="46.5" x2="91" y1="58" y2="58" /><line fill="none" stroke="#000000" stroke-width="2" x1="96.5" x2="37.5" y1="29" y2="29" /><polyline fill="none" points="91,93.5 91,43.5 46.5,43.5" stroke="#000000" stroke-width="2" /><path d="M3.5,70 c7.473,-14.471 12.377,-28.562 15.5,-44.5" fill="none" stroke="#000000" stroke-width="2" /><path d="M31.5,59 c-3.664,-10.331 -7.621,-21.329 -11.5,-32" fill="none" stroke="#000000" stroke-width="2" /><path d="M26,90.5 c7.25,-11.665 11.5,-28.618 11.5,-47 v-28.0 c17.181,0 35.638,-2.553 54.5,-7.5" fill="none" stroke="#000000" stroke-width="2" /><path d="M63.5,43.5 c2.352,-8.397 4.34,-19.063 5.5,-30.5" fill="none" stroke="#000000" stroke-width="2" /></svg>