<?xml version='1.0' encoding='utf-8'?>
<svg xmlns="http://www.w3.org/2000/svg" height="100px" version="1.0" viewBox="0 0 100 100" width="100px" x="0px" y="0px">
<line fill="none" stroke="#000000" stroke-width="2" x1="19" x2="19" y1="94" y2="6" /><line fill="none" stroke="#000000" stroke-width="2" x1="33" x2="4" y1="26" y2="26" /><line fill="none" stroke="#000000" stroke-width="2" x1="33.5" x2="93.5" y1="13" y2="13" /><line fill="none" stroke="#000000" stroke-width="2" x1="63.5" x2="63.5" y1="13" y2="3" /><line fill="none" stroke="#000000" stroke-width="2" x1="63.5" x2="63.5" y1="51" y2="38" /><line fill="none" stroke="#000000" stroke-width="2" x1="32" x2="95" y1="51" y2="51" /><polyline fill="none" points="94,46 94,33 33,33 33,46" stroke="#000000" stroke-width="2" /><path d="M3,70 c7.473,-14.471 12.377,-28.562 15.5,-44.5" fill="none" stroke="#000000" stroke-width="2" /><path d="M31,59 c-3.664,-10.331 -7.621,-21.329 -11.5,-32" fill="none" stroke="#000000" stroke-width="2" /><path d="M71,33 c4.002,-5.621 7.29,-12.472 9.5,-20" fill="none" stroke="#000000" stroke-width="2" /><path d="M55,33 c-2.689,-6.745 -5.852,-13.443 -9.5,-20" fill="none" stroke="#000000" stroke-width="2" /><path d="M31.5,92 c14.143,-7.573 23,-22.639 23,-40" fill="none" stroke="#000000" stroke-width="2" /><path d="M53,63.5 h35.5 c0,22.72 -3.206,27 -10.5,27 c-3.173,0 -9.097,-0.337 -16,-1" fill="none" stroke="#000000" stroke-width="2" /></svg>