<?xml version='1.0' encoding='utf-8'?>
<svg xmlns="http://www.w3.org/2000/svg" height="100px" version="1.0" viewBox="0 0 100 100" width="100px" x="0px" y="0px">
<line fill="none" stroke="#000000" stroke-width="2" x1="42" x2="88" y1="75" y2="75" /><line fill="none" stroke="#000000" stroke-width="2" x1="42" x2="88" y1="61" y2="61" /><line fill="none" stroke="#000000" stroke-width="2" x1="19" x2="19" y1="94" y2="6" /><line fill="none" stroke="#000000" stroke-width="2" x1="32" x2="4" y1="26" y2="26" /><polyline fill="none" points="88.5,35 88.5,9.5 40.5,9.5 40.5,35" stroke="#000000" stroke-width="2" /><polyline fill="none" points="33,55.5 33,36 96,36 96,55.5" stroke="#000000" stroke-width="2" /><polyline fill="none" points="88.5,21.5 60,21.5 60,35" stroke="#000000" stroke-width="2" /><path d="M41,92 v-45.0 h47.0 v39.0 c0,4.177 -0.291,4.5 -6.5,4.5 c-2.039,0 -5.598,-0.159 -11.5,-0.5" fill="none" stroke="#000000" stroke-width="2" /><path d="M3,70 c7.473,-14.471 12.377,-28.562 15.5,-44.5" fill="none" stroke="#000000" stroke-width="2" /><path d="M30,59 c-3.346,-10.331 -6.959,-21.329 -10.5,-32" fill="none" stroke="#000000" stroke-width="2" /></svg>