<?xml version='1.0' encoding='utf-8'?>
<svg xmlns="http://www.w3.org/2000/svg" height="100px" version="1.0" viewBox="0 0 100 100" width="100px" x="0px" y="0px">
<line fill="none" stroke="#000000" stroke-width="2" x1="57" x2="95" y1="25" y2="25" /><line fill="none" stroke="#000000" stroke-width="2" x1="82" x2="82" y1="55" y2="25" /><line fill="none" stroke="#000000" stroke-width="2" x1="11.5" x2="46.5" y1="30" y2="30" /><line fill="none" stroke="#000000" stroke-width="2" x1="6" x2="50.5" y1="47" y2="47" /><line fill="none" stroke="#000000" stroke-width="2" x1="29" x2="29" y1="55" y2="6.5" /><line fill="none" stroke="#000000" stroke-width="2" x1="6" x2="51.5" y1="13" y2="13" /><line fill="none" stroke="#000000" stroke-width="2" x1="50" x2="50" y1="93.5" y2="56" /><line fill="none" stroke="#000000" stroke-width="2" x1="92" x2="8" y1="62.5" y2="62.5" /><polyline fill="none" points="11.5,39.5 47.5,39.5 47.5,20.5 10.5,20.5 10.5,40.5" stroke="#000000" stroke-width="2" /><path d="M56.547,11.498 c14.112,-0.649 25.515,-2.044 34.453,-3.998" fill="none" stroke="#000000" stroke-width="2" /><path d="M49,54 c6.109,-8.502 8.5,-18.05 8.5,-43.5" fill="none" stroke="#000000" stroke-width="2" /><path d="M6,91.5 c18.07,-6.784 33.259,-17.337 43,-29" fill="none" stroke="#000000" stroke-width="2" /><path d="M94,91.5 c-18.07,-6.784 -33.259,-17.337 -43,-29" fill="none" stroke="#000000" stroke-width="2" /></svg>