<?xml version='1.0' encoding='utf-8'?>
<svg xmlns="http://www.w3.org/2000/svg" height="100px" version="1.0" viewBox="0 0 100 100" width="100px" x="0px" y="0px">
<line fill="none" stroke="#000000" stroke-width="2" x1="19.5" x2="19.5" y1="94" y2="6" /><line fill="none" stroke="#000000" stroke-width="2" x1="32.5" x2="4.5" y1="26" y2="26" /><line fill="none" stroke="#000000" stroke-width="2" x1="65" x2="65" y1="63" y2="17" /><line fill="none" stroke="#000000" stroke-width="2" x1="93.5" x2="37" y1="16" y2="16" /><line fill="none" stroke="#000000" stroke-width="2" x1="38" x2="91" y1="32" y2="32" /><line fill="none" stroke="#000000" stroke-width="2" x1="38" x2="91" y1="48" y2="48" /><polyline fill="none" points="37,16.5 37,64 93.5,64" stroke="#000000" stroke-width="2" /><path d="M3.5,70 c7.473,-14.471 12.377,-28.562 15.5,-44.5" fill="none" stroke="#000000" stroke-width="2" /><path d="M31.5,59 c-3.664,-10.331 -7.621,-21.329 -11.5,-32" fill="none" stroke="#000000" stroke-width="2" /><path d="M70,5 c-1.629,4.184 -2.988,7.183 -5,11" fill="none" stroke="#000000" stroke-width="2" /><path d="M27,34.5 c6.594,-9.528 11.105,-19.015 14,-29.5" fill="none" stroke="#000000" stroke-width="2" /><path d="M97,92 c-3.185,-6.976 -6.953,-14.214 -11.5,-22" fill="none" stroke="#000000" stroke-width="2" /><path d="M76.5,92.5 c-1.943,-6.867 -4.39,-14.102 -7.5,-22" fill="none" stroke="#000000" stroke-width="2" /><path d="M56,93 c-0.702,-6.759 -1.826,-13.988 -3.5,-22" fill="none" stroke="#000000" stroke-width="2" /><path d="M29.5,92.5 c4.018,-6.205 7.846,-13.456 11.5,-22" fill="none" stroke="#000000" stroke-width="2" /></svg>