<?xml version='1.0' encoding='utf-8'?>
<svg xmlns="http://www.w3.org/2000/svg" height="100px" version="1.0" viewBox="0 0 100 100" width="100px" x="0px" y="0px">
<line fill="none" stroke="#000000" stroke-width="2" x1="17.5" x2="17.5" y1="94" y2="6" /><line fill="none" stroke="#000000" stroke-width="2" x1="29.5" x2="3.5" y1="25" y2="25" /><line fill="none" stroke="#000000" stroke-width="2" x1="34" x2="34" y1="43" y2="85.5" /><line fill="none" stroke="#000000" stroke-width="2" x1="58.5" x2="58.5" y1="95" y2="43" /><line fill="none" stroke="#000000" stroke-width="2" x1="35" x2="57.5" y1="69.5" y2="69.5" /><line fill="none" stroke="#000000" stroke-width="2" x1="35" x2="57.5" y1="55" y2="55" /><line fill="none" stroke="#000000" stroke-width="2" x1="62" x2="93.5" y1="53.5" y2="53.5" /><line fill="none" stroke="#000000" stroke-width="2" x1="26" x2="97" y1="42" y2="42" /><line fill="none" stroke="#000000" stroke-width="2" x1="34.5" x2="89" y1="21" y2="21" /><polyline fill="none" points="34.5,33 90,33 90,9.5 33.5,9.5 33.5,34" stroke="#000000" stroke-width="2" /><path d="M2.5,69 c6.99,-14.471 11.578,-28.562 14.5,-44.5" fill="none" stroke="#000000" stroke-width="2" /><path d="M27.5,55 c-2.957,-9.536 -6.214,-19.446 -9.5,-29" fill="none" stroke="#000000" stroke-width="2" /><path d="M25.5,87 c10.461,-1.602 21.734,-3.974 33,-7" fill="none" stroke="#000000" stroke-width="2" /><path d="M62,91.5 c15.536,-7.318 25.598,-19.308 30.537,-37.266" fill="none" stroke="#000000" stroke-width="2" /><path d="M96,91.5 c-13.006,-6.891 -21.861,-16.979 -29,-34" fill="none" stroke="#000000" stroke-width="2" /></svg>