<?xml version='1.0' encoding='utf-8'?>
<svg xmlns="http://www.w3.org/2000/svg" height="100px" version="1.0" viewBox="0 0 100 100" width="100px" x="0px" y="0px">
<line fill="none" stroke="#000000" stroke-width="2" x1="19.5" x2="19.5" y1="94" y2="6" /><line fill="none" stroke="#000000" stroke-width="2" x1="31.5" x2="4.5" y1="26" y2="26" /><line fill="none" stroke="#000000" stroke-width="2" x1="94" x2="30" y1="21" y2="21" /><line fill="none" stroke="#000000" stroke-width="2" x1="94.5" x2="29.5" y1="67.5" y2="67.5" /><line fill="none" stroke="#000000" stroke-width="2" x1="93" x2="31" y1="41" y2="41" /><line fill="none" stroke="#000000" stroke-width="2" x1="90.5" x2="33.5" y1="54" y2="54" /><line fill="none" stroke="#000000" stroke-width="2" x1="54" x2="54" y1="21" y2="5" /><line fill="none" stroke="#000000" stroke-width="2" x1="70" x2="70" y1="21" y2="5" /><path d="M3.5,70 c7.473,-14.471 12.377,-28.562 15.5,-44.5" fill="none" stroke="#000000" stroke-width="2" /><path d="M31.5,59 c-3.664,-10.331 -7.621,-21.329 -11.5,-32" fill="none" stroke="#000000" stroke-width="2" /><path d="M27.5,92.5 c20.997,-4.345 34.5,-17.866 34.5,-30.5 v-20.0" fill="none" stroke="#000000" stroke-width="2" /><path d="M95.5,92.5 c-20.234,-4.382 -33.5,-17.623 -33.5,-30.5" fill="none" stroke="#000000" stroke-width="2" /><path d="M43.5,21 c-2.473,-5.049 -5.238,-9.873 -8,-14" fill="none" stroke="#000000" stroke-width="2" /><path d="M80.5,21 c3.096,-4.696 5.848,-9.527 8,-14" fill="none" stroke="#000000" stroke-width="2" /><path d="M69.5,41 c3.547,-5.856 6.701,-12.76 9,-20" fill="none" stroke="#000000" stroke-width="2" /><path d="M53.5,41 c-2.245,-6.587 -5.024,-13.563 -8,-20" fill="none" stroke="#000000" stroke-width="2" /></svg>