<?xml version='1.0' encoding='utf-8'?>
<svg xmlns="http://www.w3.org/2000/svg" height="100px" version="1.0" viewBox="0 0 100 100" width="100px" x="0px" y="0px">
<line fill="none" stroke="#000000" stroke-width="2" x1="18.5" x2="18.5" y1="94" y2="6" /><line fill="none" stroke="#000000" stroke-width="2" x1="32.5" x2="4.5" y1="26" y2="26" /><line fill="none" stroke="#000000" stroke-width="2" x1="63.5" x2="37" y1="10" y2="10" /><line fill="none" stroke="#000000" stroke-width="2" x1="28" x2="94.5" y1="90" y2="90" /><line fill="none" stroke="#000000" stroke-width="2" x1="48" x2="77" y1="38.5" y2="38.5" /><polyline fill="none" points="41.5,71 41.5,51 83.5,51 83.5,70 42.5,70" stroke="#000000" stroke-width="2" /><path d="M3.5,70 c6.99,-14.471 11.578,-28.562 14.5,-44.5" fill="none" stroke="#000000" stroke-width="2" /><path d="M31.5,59 c-3.982,-10.331 -8.284,-21.329 -12.5,-32" fill="none" stroke="#000000" stroke-width="2" /><path d="M96,50.5 c-15.127,-9.648 -27.893,-25.442 -33.443,-41.167" fill="none" stroke="#000000" stroke-width="2" /><path d="M29,50.5 c15.127,-9.648 27.893,-25.442 33.443,-41.167" fill="none" stroke="#000000" stroke-width="2" /><path d="M85,11 c-4.161,4.874 -9.676,10.196 -14.5,14" fill="none" stroke="#000000" stroke-width="2" /><path d="M95.5,22.5 c-4.492,5.077 -10.326,10.558 -15.5,14.5" fill="none" stroke="#000000" stroke-width="2" /><path d="M50.5,30.5 c-4.484,-4.534 -9.497,-9.039 -14.5,-13" fill="none" stroke="#000000" stroke-width="2" /><path d="M69,90 c3.797,-5.966 7.012,-12.704 9.5,-20" fill="none" stroke="#000000" stroke-width="2" /><path d="M55,90 c-2.369,-6.645 -5.295,-13.548 -8.5,-20" fill="none" stroke="#000000" stroke-width="2" /></svg>