<?xml version='1.0' encoding='utf-8'?>
<svg xmlns="http://www.w3.org/2000/svg" height="100px" version="1.0" viewBox="0 0 100 100" width="100px" x="0px" y="0px">
<line fill="none" stroke="#000000" stroke-width="2" x1="19.5" x2="19.5" y1="94" y2="6" /><line fill="none" stroke="#000000" stroke-width="2" x1="30.5" x2="4.5" y1="26" y2="26" /><line fill="none" stroke="#000000" stroke-width="2" x1="27.5" x2="96.5" y1="61.5" y2="61.5" /><line fill="none" stroke="#000000" stroke-width="2" x1="28.5" x2="95.5" y1="13" y2="13" /><line fill="none" stroke="#000000" stroke-width="2" x1="32.5" x2="93.5" y1="26.5" y2="26.5" /><line fill="none" stroke="#000000" stroke-width="2" x1="62" x2="62" y1="26.5" y2="3.5" /><line fill="none" stroke="#000000" stroke-width="2" x1="36.5" x2="87.5" y1="88" y2="88" /><polyline fill="none" points="36.5,50.5 36.5,35 87.5,35 87.5,49.5 37.37,49.5" stroke="#000000" stroke-width="2" /><polyline fill="none" points="88.5,94 88.5,70 35.5,70 35.5,94" stroke="#000000" stroke-width="2" /><path d="M3.5,70 c7.473,-14.471 12.377,-28.562 15.5,-44.5" fill="none" stroke="#000000" stroke-width="2" /><path d="M30.5,56 c-3.348,-9.408 -6.959,-19.415 -10.5,-29" fill="none" stroke="#000000" stroke-width="2" /><path d="M70.5,61.5 c3.189,-3.594 5.895,-7.628 8,-12" fill="none" stroke="#000000" stroke-width="2" /><path d="M53,61.5 c-2.096,-3.986 -4.678,-8.124 -7.5,-12" fill="none" stroke="#000000" stroke-width="2" /></svg>