<?xml version='1.0' encoding='utf-8'?>
<svg xmlns="http://www.w3.org/2000/svg" height="100px" version="1.0" viewBox="0 0 100 100" width="100px" x="0px" y="0px">
<line fill="none" stroke="#000000" stroke-width="2" x1="17.5" x2="17.5" y1="94" y2="6" /><line fill="none" stroke="#000000" stroke-width="2" x1="28.5" x2="3.5" y1="26" y2="26" /><line fill="none" stroke="#000000" stroke-width="2" x1="47.5" x2="47.5" y1="11.5" y2="24" /><line fill="none" stroke="#000000" stroke-width="2" x1="47.5" x2="47.5" y1="37.5" y2="50.5" /><line fill="none" stroke="#000000" stroke-width="2" x1="32" x2="64" y1="51.5" y2="51.5" /><line fill="none" stroke="#000000" stroke-width="2" x1="52.5" x2="52.5" y1="63.5" y2="89" /><line fill="none" stroke="#000000" stroke-width="2" x1="70" x2="70" y1="63.5" y2="89" /><line fill="none" stroke="#000000" stroke-width="2" x1="26" x2="95" y1="90" y2="90" /><line fill="none" stroke="#000000" stroke-width="2" x1="94.5" x2="71" y1="18" y2="18" /><line fill="none" stroke="#000000" stroke-width="2" x1="92.5" x2="68" y1="42" y2="42" /><polyline fill="none" points="63,10.5 32,10.5 32,58.5" stroke="#000000" stroke-width="2" /><polyline fill="none" points="33,37.5 60,37.5 60,24 33,24" stroke="#000000" stroke-width="2" /><polyline fill="none" points="87.5,89 87.5,63.5 35,63.5 35,89" stroke="#000000" stroke-width="2" /><path d="M2.5,70 c6.99,-14.471 11.578,-28.562 14.5,-44.5" fill="none" stroke="#000000" stroke-width="2" /><path d="M27,53 c-2.801,-8.549 -5.887,-17.435 -9,-26" fill="none" stroke="#000000" stroke-width="2" /><path d="M63,34 c5.162,-7.536 9.528,-17.632 12,-28" fill="none" stroke="#000000" stroke-width="2" /></svg>