<?xml version='1.0' encoding='utf-8'?>
<svg xmlns="http://www.w3.org/2000/svg" height="100px" version="1.0" viewBox="0 0 100 100" width="100px" x="0px" y="0px">
<line fill="none" stroke="#000000" stroke-width="2" x1="60.5" x2="96" y1="18" y2="18" /><line fill="none" stroke="#000000" stroke-width="2" x1="7.5" x2="48.5" y1="30.5" y2="30.5" /><line fill="none" stroke="#000000" stroke-width="2" x1="51" x2="5" y1="16" y2="16" /><line fill="none" stroke="#000000" stroke-width="2" x1="28" x2="28" y1="30.5" y2="6" /><line fill="none" stroke="#000000" stroke-width="2" x1="52" x2="4" y1="56.5" y2="56.5" /><line fill="none" stroke="#000000" stroke-width="2" x1="46.5" x2="8.5" y1="43.5" y2="43.5" /><path d="M43,90 c14.264,-6.345 28,-27.731 28,-48 v-16.0" fill="none" stroke="#000000" stroke-width="2" /><path d="M97,90 c-13.253,-6.388 -26,-27.952 -26,-48" fill="none" stroke="#000000" stroke-width="2" /><path d="M49.5,45 c6.293,-11.127 11.08,-24.556 14,-40" fill="none" stroke="#000000" stroke-width="2" /><path d="M87,44.5 c3.469,-7.408 6.155,-15.891 8.022,-25.688" fill="none" stroke="#000000" stroke-width="2" /><path d="M28,56.5 v29.5 c0,4.521 -0.41,5 -4.5,5 c-2.01,0 -5.49,-0.173 -9.5,-0.5" fill="none" stroke="#000000" stroke-width="2" /><path d="M5,85 c4.57,-6.198 8.297,-14.063 10.5,-22.5" fill="none" stroke="#000000" stroke-width="2" /><path d="M47.5,80.5 c-2.25,-5.946 -5.219,-12.303 -8.5,-18" fill="none" stroke="#000000" stroke-width="2" /></svg>