<?xml version='1.0' encoding='utf-8'?>
<svg xmlns="http://www.w3.org/2000/svg" height="100px" version="1.0" viewBox="0 0 100 100" width="100px" x="0px" y="0px">
<line fill="none" stroke="#000000" stroke-width="2" x1="5" x2="43" y1="11.5" y2="11.5" /><line fill="none" stroke="#000000" stroke-width="2" x1="17" x2="39" y1="29" y2="29" /><line fill="none" stroke="#000000" stroke-width="2" x1="95.5" x2="36.5" y1="44" y2="44" /><path d="M4,59.5 c7.936,-12.451 13.933,-29.251 16.5,-48" fill="none" stroke="#000000" stroke-width="2" /><path d="M37.998,29.962 C36.952,57.867 23.551,81.246 6,91" fill="none" stroke="#000000" stroke-width="2" /><path d="M32,59.5 c-5.092,-4.024 -11.314,-8.422 -17,-12" fill="none" stroke="#000000" stroke-width="2" /><path d="M41,17.5 c17.406,0 34.135,-3.05 50,-9" fill="none" stroke="#000000" stroke-width="2" /><path d="M33,91 c19.576,-9.89 31.5,-28.792 31.5,-51.5 v-24.0" fill="none" stroke="#000000" stroke-width="2" /><path d="M96,91 c-19.574,-9.89 -31.5,-28.792 -31.5,-51.5" fill="none" stroke="#000000" stroke-width="2" /></svg>