<?xml version='1.0' encoding='utf-8'?>
<svg xmlns="http://www.w3.org/2000/svg" height="100px" version="1.0" viewBox="0 0 100 100" width="100px" x="0px" y="0px">
<line fill="none" stroke="#000000" stroke-width="2" x1="4.5" x2="38.5" y1="11.5" y2="11.5" /><line fill="none" stroke="#000000" stroke-width="2" x1="16.5" x2="36" y1="29" y2="29" /><path d="M40.5,47.5 c15.953,-6.042 29.062,-14.006 38,-22.5" fill="none" stroke="#000000" stroke-width="2" /><path d="M40,70 c20.97,-7.056 36.076,-16.124 47.5,-27.5" fill="none" stroke="#000000" stroke-width="2" /><path d="M40,92 c24.336,-6.769 41.204,-16.117 56,-30" fill="none" stroke="#000000" stroke-width="2" /><path d="M3.5,59.5 c7.936,-12.451 13.933,-29.251 16.5,-48" fill="none" stroke="#000000" stroke-width="2" /><path d="M35,29.965 c-0.98,27.903 -13.546,51.281 -30,61.035" fill="none" stroke="#000000" stroke-width="2" /><path d="M29.5,58.5 c-4.643,-3.688 -10.316,-7.72 -15.5,-11" fill="none" stroke="#000000" stroke-width="2" /><path d="M97,31.5 c-11.021,-7.841 -21.043,-16.619 -30,-26.3 c-8.604,10.945 -16.93,18.966 -28.5,27.3" fill="none" stroke="#000000" stroke-width="2" /></svg>