<?xml version='1.0' encoding='utf-8'?>
<svg xmlns="http://www.w3.org/2000/svg" height="100px" version="1.0" viewBox="0 0 100 100" width="100px" x="0px" y="0px">
<line fill="none" stroke="#000000" stroke-width="2" x1="44.5" x2="94" y1="51.5" y2="51.5" /><line fill="none" stroke="#000000" stroke-width="2" x1="23" x2="23" y1="21" y2="5" /><polyline fill="none" points="43.5,89 43.5,10.5 90,10.5 90,32 44.5,32" stroke="#000000" stroke-width="2" /><path d="M33,91.5 c12.762,-2.925 23.83,-6.854 37,-13" fill="none" stroke="#000000" stroke-width="2" /><path d="M67.5,32 c2.484,36.203 14.922,59.5 22,59.5 c2.541,0 5.059,-4.941 6.5,-22" fill="none" stroke="#000000" stroke-width="2" /><path d="M36.5,80 c-5.135,1.005 -10.302,1.5 -15,1.5 c-11.902,0 -13,-1.044 -13,-9 V21.0 H37.0" fill="none" stroke="#000000" stroke-width="2" /></svg>