<?xml version='1.0' encoding='utf-8'?>
<svg xmlns="http://www.w3.org/2000/svg" height="100px" version="1.0" viewBox="0 0 100 100" width="100px" x="0px" y="0px">
<path d="M8.5,91.5 c7.072,-9.315 12.963,-19.819 17,-30.5" fill="none" stroke="#000000" stroke-width="2" /><path d="M25.5,22.5 c-4.551,-4.456 -9.955,-9.209 -16,-14" fill="none" stroke="#000000" stroke-width="2" /><path d="M22,45.5 c-5.014,-4.892 -10.751,-9.858 -17.5,-15" fill="none" stroke="#000000" stroke-width="2" /><path d="M96.5,51 c-4.03,-11.877 -9.135,-24.087 -15,-35.5" fill="none" stroke="#000000" stroke-width="2" /><path d="M65,6 v46.0 c0,7.429 -0.588,8 -6.5,8 c-1.717,0 -5.354,-0.14 -11.5,-0.5" fill="none" stroke="#000000" stroke-width="2" /><path d="M89,47.5 c-8.217,22.907 -30.18,39.954 -60.5,45" fill="none" stroke="#000000" stroke-width="2" /><path d="M31.5,53.5 c6.003,-10.377 11.101,-23.91 14,-38" fill="none" stroke="#000000" stroke-width="2" /></svg>