<?xml version='1.0' encoding='utf-8'?>
<svg xmlns="http://www.w3.org/2000/svg" height="100px" version="1.0" viewBox="0 0 100 100" width="100px" x="0px" y="0px">
<line fill="none" stroke="#000000" stroke-width="2" x1="30.5" x2="87" y1="48" y2="48" /><path d="M8.5,91.5 c7.072,-9.315 12.963,-19.819 17,-30.5" fill="none" stroke="#000000" stroke-width="2" /><path d="M25.5,22.5 c-4.551,-4.456 -9.955,-9.209 -16,-14" fill="none" stroke="#000000" stroke-width="2" /><path d="M22,45.5 c-5.014,-4.892 -10.751,-9.858 -17.5,-15" fill="none" stroke="#000000" stroke-width="2" /><path d="M29.5,42.5 c11.559,-4.335 17,-12.005 17,-26 v-6.5 h29.0 v26.5 c0,2.706 0.375,3 5,3 c12.623,0 13.125,-0.383 14.5,-13.5" fill="none" stroke="#000000" stroke-width="2" /><path d="M27.5,91 c30.32,-7.032 48.631,-20.994 58.593,-42.422" fill="none" stroke="#000000" stroke-width="2" /><path d="M94,91 c-23.33,-7.753 -41.836,-21.341 -52,-37.5" fill="none" stroke="#000000" stroke-width="2" /></svg>