<?xml version='1.0' encoding='utf-8'?>
<svg xmlns="http://www.w3.org/2000/svg" height="100px" version="1.0" viewBox="0 0 100 100" width="100px" x="0px" y="0px">
<line fill="none" stroke="#000000" stroke-width="2" x1="71" x2="71" y1="94" y2="6" /><path d="M8,91.5 c7.072,-9.315 12.963,-19.819 17,-30.5" fill="none" stroke="#000000" stroke-width="2" /><path d="M26,22.5 c-4.551,-4.456 -9.955,-9.209 -16,-14" fill="none" stroke="#000000" stroke-width="2" /><path d="M22.5,45.5 c-5.014,-4.892 -10.751,-9.858 -17.5,-15" fill="none" stroke="#000000" stroke-width="2" /><path d="M32,58 h60.5 c0,26.108 -0.73,27.5 -5,27.5 c-1.869,0 -6.039,-0.374 -10.5,-1" fill="none" stroke="#000000" stroke-width="2" /><path d="M30,16 h60.0 v21.5 h-55.0 c-1.004,10.086 -3.303,23.486 -5.5,32" fill="none" stroke="#000000" stroke-width="2" /><path d="M26,94 c18.781,-9.454 26,-21.687 26,-47.5 V6.0" fill="none" stroke="#000000" stroke-width="2" /></svg>