<?xml version='1.0' encoding='utf-8'?>
<svg xmlns="http://www.w3.org/2000/svg" height="100px" version="1.0" viewBox="0 0 100 100" width="100px" x="0px" y="0px">
<path d="M9,91.5 c7.904,-9.315 14.488,-19.819 19,-30.5" fill="none" stroke="#000000" stroke-width="2" /><path d="M28,22.5 c-5.119,-4.456 -11.199,-9.209 -18,-14" fill="none" stroke="#000000" stroke-width="2" /><path d="M24,45.5 c-5.443,-4.892 -11.672,-9.858 -19,-15" fill="none" stroke="#000000" stroke-width="2" /><path d="M26.5,91.5 c6.72,-14.052 10,-29.832 10,-51 v-30.0 h55.0 v20.5 h-54.0" fill="none" stroke="#000000" stroke-width="2" /><path d="M49,37 v45.0 c0,8.823 0.192,9 20.5,9 c23.996,0 24.212,-0.203 25.5,-24.5" fill="none" stroke="#000000" stroke-width="2" /><path d="M49,65.5 c14.479,-5.196 28.176,-12.524 43,-23" fill="none" stroke="#000000" stroke-width="2" /></svg>