<?xml version='1.0' encoding='utf-8'?>
<svg xmlns="http://www.w3.org/2000/svg" height="100px" version="1.0" viewBox="0 0 100 100" width="100px" x="0px" y="0px">
<line fill="none" stroke="#000000" stroke-width="2" x1="36" x2="93" y1="51.5" y2="51.5" /><polyline fill="none" points="35,89 35,10.5 88.5,10.5 88.5,32 36,32" stroke="#000000" stroke-width="2" /><path d="M9,91.5 c7.072,-9.315 12.963,-19.819 17,-30.5" fill="none" stroke="#000000" stroke-width="2" /><path d="M26,22.5 c-4.551,-4.456 -9.955,-9.209 -16,-14" fill="none" stroke="#000000" stroke-width="2" /><path d="M22.5,45.5 c-5.014,-4.892 -10.751,-9.858 -17.5,-15" fill="none" stroke="#000000" stroke-width="2" /><path d="M24,91.5 c14.486,-2.925 27.049,-6.854 42,-13" fill="none" stroke="#000000" stroke-width="2" /><path d="M63.5,32 c2.833,36.203 17.427,59.5 25.5,59.5 c2.652,0 5.356,-4.941 7,-22" fill="none" stroke="#000000" stroke-width="2" /></svg>