<?xml version='1.0' encoding='utf-8'?>
<svg xmlns="http://www.w3.org/2000/svg" height="100px" version="1.0" viewBox="0 0 100 100" width="100px" x="0px" y="0px">
<line fill="none" stroke="#000000" stroke-width="2" x1="36" x2="88.5" y1="22.5" y2="22.5" /><line fill="none" stroke="#000000" stroke-width="2" x1="37" x2="87.5" y1="56" y2="56" /><polyline fill="none" points="94.5,65 94.5,46 31.5,46 31.5,65" stroke="#000000" stroke-width="2" /><polyline fill="none" points="34,36 89.5,36 89.5,10 34,10" stroke="#000000" stroke-width="2" /><path d="M9,91.5 c7.072,-9.315 12.963,-19.819 17,-30.5" fill="none" stroke="#000000" stroke-width="2" /><path d="M26,22.5 c-4.551,-4.456 -9.955,-9.209 -16,-14" fill="none" stroke="#000000" stroke-width="2" /><path d="M22.5,45.5 c-5.014,-4.892 -10.751,-9.858 -17.5,-15" fill="none" stroke="#000000" stroke-width="2" /><path d="M26,91 c29.35,-5.799 50.921,-18.992 60.652,-34.531" fill="none" stroke="#000000" stroke-width="2" /><path d="M95.5,91 c-27.01,-5.894 -43.742,-16.016 -53.5,-30.5" fill="none" stroke="#000000" stroke-width="2" /></svg>