<?xml version='1.0' encoding='utf-8'?>
<svg xmlns="http://www.w3.org/2000/svg" height="100px" version="1.0" viewBox="0 0 100 100" width="100px" x="0px" y="0px">
<line fill="none" stroke="#000000" stroke-width="2" x1="28.5" x2="94" y1="11" y2="11" /><line fill="none" stroke="#000000" stroke-width="2" x1="93.5" x2="35.5" y1="57" y2="57" /><path d="M9,91.5 c7.072,-9.315 12.963,-19.819 17,-30.5" fill="none" stroke="#000000" stroke-width="2" /><path d="M26,22.5 c-4.551,-4.456 -9.955,-9.209 -16,-14" fill="none" stroke="#000000" stroke-width="2" /><path d="M22.5,45.5 c-5.014,-4.892 -10.751,-9.858 -17.5,-15" fill="none" stroke="#000000" stroke-width="2" /><path d="M34,90 c18.683,-5.992 30,-19.248 30,-33 v-12.0" fill="none" stroke="#000000" stroke-width="2" /><path d="M94,90 c-18.684,-5.993 -30,-19.248 -30,-33" fill="none" stroke="#000000" stroke-width="2" /><path d="M25,90 c6.437,-9.222 10.5,-23.117 10.5,-39 v-28.0 h53.5 v18.5 h-52.5" fill="none" stroke="#000000" stroke-width="2" /></svg>