<?xml version='1.0' encoding='utf-8'?>
<svg xmlns="http://www.w3.org/2000/svg" height="100px" version="1.0" viewBox="0 0 100 100" width="100px" x="0px" y="0px">
<line fill="none" stroke="#000000" stroke-width="2" x1="62" x2="91" y1="55" y2="55" /><line fill="none" stroke="#000000" stroke-width="2" x1="62" x2="62" y1="87.5" y2="31" /><line fill="none" stroke="#000000" stroke-width="2" x1="37.5" x2="86.5" y1="31" y2="31" /><line fill="none" stroke="#000000" stroke-width="2" x1="62" x2="62" y1="16" y2="4" /><polyline fill="none" points="91.5,34 91.5,16 32.5,16 32.5,34" stroke="#000000" stroke-width="2" /><path d="M8,91.5 c7.072,-9.315 12.963,-19.819 17,-30.5" fill="none" stroke="#000000" stroke-width="2" /><path d="M26,22.5 c-4.551,-4.456 -9.955,-9.209 -16,-14" fill="none" stroke="#000000" stroke-width="2" /><path d="M21.5,45.5 c-5.014,-4.892 -10.751,-9.858 -17.5,-15" fill="none" stroke="#000000" stroke-width="2" /><path d="M26,92 c7.3,-10.179 13.075,-26.644 14.5,-44" fill="none" stroke="#000000" stroke-width="2" /><path d="M95,90 h-5.0 c-32.885,0 -43.352,-5.562 -52,-26.5" fill="none" stroke="#000000" stroke-width="2" /></svg>