<?xml version='1.0' encoding='utf-8'?>
<svg xmlns="http://www.w3.org/2000/svg" height="100px" version="1.0" viewBox="0 0 100 100" width="100px" x="0px" y="0px">
<line fill="none" stroke="#000000" stroke-width="2" x1="38.5" x2="38.5" y1="6" y2="68.5" /><line fill="none" stroke="#000000" stroke-width="2" x1="95" x2="28" y1="17" y2="17" /><line fill="none" stroke="#000000" stroke-width="2" x1="84.5" x2="84.5" y1="68.5" y2="6" /><line fill="none" stroke="#000000" stroke-width="2" x1="27" x2="96" y1="69.5" y2="69.5" /><line fill="none" stroke="#000000" stroke-width="2" x1="39.5" x2="84.5" y1="51.5" y2="51.5" /><line fill="none" stroke="#000000" stroke-width="2" x1="39.5" x2="84.5" y1="34" y2="34" /><path d="M8,91.5 c7.072,-9.315 12.963,-19.819 17,-30.5" fill="none" stroke="#000000" stroke-width="2" /><path d="M26,22.5 c-4.551,-4.456 -9.955,-9.209 -16,-14" fill="none" stroke="#000000" stroke-width="2" /><path d="M22.5,45.5 c-5.014,-4.892 -10.751,-9.858 -17.5,-15" fill="none" stroke="#000000" stroke-width="2" /><path d="M26.5,92 c10.971,-4.65 20.439,-11.01 26,-17" fill="none" stroke="#000000" stroke-width="2" /><path d="M94.5,93 c-6.694,-5.892 -15.932,-12.185 -26,-17.5" fill="none" stroke="#000000" stroke-width="2" /></svg>