<?xml version='1.0' encoding='utf-8'?>
<svg xmlns="http://www.w3.org/2000/svg" height="100px" version="1.0" viewBox="0 0 100 100" width="100px" x="0px" y="0px">
<line fill="none" stroke="#000000" stroke-width="2" x1="60" x2="95.5" y1="13.5" y2="13.5" /><line fill="none" stroke="#000000" stroke-width="2" x1="41" x2="41" y1="5" y2="43" /><line fill="none" stroke="#000000" stroke-width="2" x1="25" x2="63" y1="43" y2="43" /><line fill="none" stroke="#000000" stroke-width="2" x1="41" x2="59.5" y1="21.5" y2="21.5" /><path d="M8,91.5 c5.156,-9.315 9.464,-19.845 12.5,-30.5" fill="none" stroke="#000000" stroke-width="2" /><path d="M23.5,22.5 c-4.127,-4.427 -9.06,-9.209 -14.5,-14" fill="none" stroke="#000000" stroke-width="2" /><path d="M20.5,45.5 c-4.589,-4.819 -9.926,-9.858 -16,-15" fill="none" stroke="#000000" stroke-width="2" /><path d="M57,91.5 c18.611,-12.148 33.509,-39.364 37.506,-77.105" fill="none" stroke="#000000" stroke-width="2" /><path d="M97,91.5 c-16.661,-13.207 -28.02,-37.751 -31,-72.5" fill="none" stroke="#000000" stroke-width="2" /><path d="M24.5,83 c4.131,-8.292 8.063,-20.165 10.5,-32.5" fill="none" stroke="#000000" stroke-width="2" /><path d="M62.5,75.5 c-2.857,-8.985 -6.344,-17.73 -10,-25" fill="none" stroke="#000000" stroke-width="2" /><path d="M44.461,43 v40.5 c0,6.974 -0.508,7.5 -4.461,7.5 c-1.735,0 -4.654,-0.175 -8.5,-0.5" fill="none" stroke="#000000" stroke-width="2" /></svg>