<?xml version='1.0' encoding='utf-8'?>
<svg xmlns="http://www.w3.org/2000/svg" height="100px" version="1.0" viewBox="0 0 100 100" width="100px" x="0px" y="0px">
<path d="M9,91.5 c7.072,-9.315 12.963,-19.819 17,-30.5" fill="none" stroke="#000000" stroke-width="2" /><path d="M26,22.5 c-4.551,-4.456 -9.955,-9.209 -16,-14" fill="none" stroke="#000000" stroke-width="2" /><path d="M22.5,45.5 c-5.014,-4.892 -10.751,-9.858 -17.5,-15" fill="none" stroke="#000000" stroke-width="2" /><path d="M44,12.5 c-1.657,6.972 -4.961,13.229 -10,19" fill="none" stroke="#000000" stroke-width="2" /><path d="M43.5,52 c-1.657,6.972 -4.961,13.229 -10,19" fill="none" stroke="#000000" stroke-width="2" /><path d="M90.5,11.5 c-2.77,6.768 -7.029,12.666 -13,18" fill="none" stroke="#000000" stroke-width="2" /><path d="M91,52.5 c-2.77,6.768 -7.029,12.666 -13,18" fill="none" stroke="#000000" stroke-width="2" /><path d="M26,91 c22.637,-5.147 36,-18.636 36,-35 v-14.0" fill="none" stroke="#000000" stroke-width="2" /><path d="M95,91 c-20.547,-5.518 -33,-18.636 -33,-35" fill="none" stroke="#000000" stroke-width="2" /><path d="M29.5,48.5 c20.663,-5.519 32.5,-18.101 32.5,-35 v-7.5" fill="none" stroke="#000000" stroke-width="2" /><path d="M94.5,48.5 c-20.661,-5.518 -32.5,-18.103 -32.5,-35" fill="none" stroke="#000000" stroke-width="2" /></svg>