<?xml version='1.0' encoding='utf-8'?>
<svg xmlns="http://www.w3.org/2000/svg" height="100px" version="1.0" viewBox="0 0 100 100" width="100px" x="0px" y="0px">
<line fill="none" stroke="#000000" stroke-width="2" x1="28" x2="96" y1="35" y2="35" /><line fill="none" stroke="#000000" stroke-width="2" x1="92" x2="62.5" y1="17" y2="17" /><line fill="none" stroke="#000000" stroke-width="2" x1="41" x2="41" y1="35" y2="8" /><path d="M9,91.5 c6.273,-9.294 11.438,-19.819 15,-30.5" fill="none" stroke="#000000" stroke-width="2" /><path d="M26,22.5 c-4.551,-4.456 -9.955,-9.209 -16,-14" fill="none" stroke="#000000" stroke-width="2" /><path d="M22.5,45.5 c-5.014,-4.892 -10.751,-9.858 -17.5,-15" fill="none" stroke="#000000" stroke-width="2" /><path d="M62.5,4 V60.0 c0,9.528 -0.441,10 -6,10 c-1.637,0 -5.139,-0.14 -11,-0.5" fill="none" stroke="#000000" stroke-width="2" /><path d="M29,68 c7.673,-7.641 14.242,-17.845 18,-28" fill="none" stroke="#000000" stroke-width="2" /><path d="M96,64 c-5.385,-8.242 -12.119,-16.554 -19.5,-24" fill="none" stroke="#000000" stroke-width="2" /><path d="M89,64 c-10.34,13.999 -29.769,24.515 -60,29" fill="none" stroke="#000000" stroke-width="2" /></svg>