<?xml version='1.0' encoding='utf-8'?>
<svg xmlns="http://www.w3.org/2000/svg" height="100px" version="1.0" viewBox="0 0 100 100" width="100px" x="0px" y="0px">
<line fill="none" stroke="#000000" stroke-width="2" x1="29" x2="95" y1="65.5" y2="65.5" /><line fill="none" stroke="#000000" stroke-width="2" x1="31" x2="93" y1="49" y2="49" /><path d="M9,91.5 c7.072,-9.315 12.963,-19.819 17,-30.5" fill="none" stroke="#000000" stroke-width="2" /><path d="M26,22.5 c-4.551,-4.456 -9.955,-9.209 -16,-14" fill="none" stroke="#000000" stroke-width="2" /><path d="M22.5,45.5 c-5.014,-4.892 -10.751,-9.858 -17.5,-15" fill="none" stroke="#000000" stroke-width="2" /><path d="M44.5,41 c-3.137,-7.778 -6.611,-14.726 -10,-20" fill="none" stroke="#000000" stroke-width="2" /><path d="M64,38 c-2.93,-7.751 -6.166,-14.543 -9.5,-20" fill="none" stroke="#000000" stroke-width="2" /><path d="M74.5,41 c5.387,-6.82 10.671,-16.055 15,-26.5" fill="none" stroke="#000000" stroke-width="2" /><path d="M30,14 c23.387,-0.575 44.107,-2.499 62,-5.5" fill="none" stroke="#000000" stroke-width="2" /><path d="M25.5,92 c22.668,-4.307 36,-19.84 36,-43 v-8.0" fill="none" stroke="#000000" stroke-width="2" /><path d="M95.5,92 c-18.054,-3.366 -30.801,-13.489 -34.5,-26.5" fill="none" stroke="#000000" stroke-width="2" /></svg>