<?xml version='1.0' encoding='utf-8'?>
<svg xmlns="http://www.w3.org/2000/svg" height="100px" version="1.0" viewBox="0 0 100 100" width="100px" x="0px" y="0px">
<line fill="none" stroke="#000000" stroke-width="2" x1="94" x2="28" y1="15" y2="15" /><line fill="none" stroke="#000000" stroke-width="2" x1="27" x2="95" y1="57" y2="57" /><line fill="none" stroke="#000000" stroke-width="2" x1="42" x2="80" y1="43" y2="43" /><line fill="none" stroke="#000000" stroke-width="2" x1="42" x2="80" y1="29" y2="29" /><line fill="none" stroke="#000000" stroke-width="2" x1="41" x2="41" y1="56" y2="3.5" /><line fill="none" stroke="#000000" stroke-width="2" x1="81" x2="81" y1="56" y2="3.5" /><line fill="none" stroke="#000000" stroke-width="2" x1="35" x2="94" y1="88.5" y2="88.5" /><line fill="none" stroke="#000000" stroke-width="2" x1="35" x2="35" y1="58" y2="95.5" /><path d="M9,91.5 c7.072,-9.315 12.963,-19.819 17,-30.5" fill="none" stroke="#000000" stroke-width="2" /><path d="M26,22.5 c-4.551,-4.456 -9.955,-9.209 -16,-14" fill="none" stroke="#000000" stroke-width="2" /><path d="M22.5,45.5 c-5.014,-4.892 -10.751,-9.858 -17.5,-15" fill="none" stroke="#000000" stroke-width="2" /><path d="M55,57 c0,13.314 -3.721,18.837 -15,23" fill="none" stroke="#000000" stroke-width="2" /><path d="M68.5,58 v13.5 c0,4.023 0.607,4.5 10,4.5 c9.891,0 10.139,-0.241 10.5,-12.5" fill="none" stroke="#000000" stroke-width="2" /></svg>