<?xml version='1.0' encoding='utf-8'?>
<svg xmlns="http://www.w3.org/2000/svg" height="100px" version="1.0" viewBox="0 0 100 100" width="100px" x="0px" y="0px">
<line fill="none" stroke="#000000" stroke-width="2" x1="26" x2="95" y1="13" y2="13" /><line fill="none" stroke="#000000" stroke-width="2" x1="60.5" x2="60.5" y1="13" y2="3" /><path d="M9,91.5 c7.072,-9.315 12.963,-19.819 17,-30.5" fill="none" stroke="#000000" stroke-width="2" /><path d="M26,22.5 c-4.551,-4.456 -9.955,-9.209 -16,-14" fill="none" stroke="#000000" stroke-width="2" /><path d="M22.5,45.5 c-5.014,-4.892 -10.751,-9.858 -17.5,-15" fill="none" stroke="#000000" stroke-width="2" /><path d="M70,13 v20.0 c0,4.63 -0.389,5 -5,5 c-1.707,0 -4.666,-0.134 -9.5,-0.5" fill="none" stroke="#000000" stroke-width="2" /><path d="M39.5,41 c10.986,-7.123 15,-14.509 15,-28" fill="none" stroke="#000000" stroke-width="2" /><path d="M26,39.5 c7.42,-5.485 13.459,-12.644 17,-20" fill="none" stroke="#000000" stroke-width="2" /><path d="M95,39.5 c-4.65,-6.5 -11.334,-13.81 -18.5,-20" fill="none" stroke="#000000" stroke-width="2" /><path d="M33.5,45 h53.0 v13.0 h-50.0 c-1.24,7.169 -3.589,15.275 -6,21" fill="none" stroke="#000000" stroke-width="2" /><path d="M33.5,71 h56.5 c-3.395,18.534 -5.062,20 -13.5,20 c-4.569,0 -11.346,-0.334 -19.5,-1" fill="none" stroke="#000000" stroke-width="2" /></svg>