<?xml version='1.0' encoding='utf-8'?>
<svg xmlns="http://www.w3.org/2000/svg" height="100px" version="1.0" viewBox="0 0 100 100" width="100px" x="0px" y="0px">
<line fill="none" stroke="#000000" stroke-width="2" x1="39" x2="87" y1="75" y2="75" /><line fill="none" stroke="#000000" stroke-width="2" x1="39" x2="87" y1="61" y2="61" /><polyline fill="none" points="87.5,35 87.5,9.5 37.5,9.5 37.5,35" stroke="#000000" stroke-width="2" /><polyline fill="none" points="29.5,55.5 29.5,36 95.5,36 95.5,55.5" stroke="#000000" stroke-width="2" /><polyline fill="none" points="87.5,21.5 58,21.5 58,35" stroke="#000000" stroke-width="2" /><path d="M8,91.5 c7.072,-9.315 12.963,-19.819 17,-30.5" fill="none" stroke="#000000" stroke-width="2" /><path d="M26,22.5 c-4.551,-4.456 -9.955,-9.209 -16,-14" fill="none" stroke="#000000" stroke-width="2" /><path d="M21.5,45.5 c-5.014,-4.892 -10.751,-9.858 -17.5,-15" fill="none" stroke="#000000" stroke-width="2" /><path d="M38,92 v-45.0 h49.0 v39.0 c0,4.177 -0.291,4.5 -6.5,4.5 c-2.039,0 -5.598,-0.159 -11.5,-0.5" fill="none" stroke="#000000" stroke-width="2" /></svg>