<?xml version='1.0' encoding='utf-8'?>
<svg xmlns="http://www.w3.org/2000/svg" height="100px" version="1.0" viewBox="0 0 100 100" width="100px" x="0px" y="0px">
<line fill="none" stroke="#000000" stroke-width="2" x1="4.5" x2="48" y1="16" y2="16" /><line fill="none" stroke="#000000" stroke-width="2" x1="52" x2="95.5" y1="16" y2="16" /><line fill="none" stroke="#000000" stroke-width="2" x1="28" x2="28" y1="26.5" y2="4" /><line fill="none" stroke="#000000" stroke-width="2" x1="72" x2="72" y1="26.5" y2="4" /><line fill="none" stroke="#000000" stroke-width="2" x1="48" x2="4.5" y1="30" y2="30" /><line fill="none" stroke="#000000" stroke-width="2" x1="57.5" x2="57.5" y1="31" y2="81.5" /><line fill="none" stroke="#000000" stroke-width="2" x1="95.5" x2="52" y1="30" y2="30" /><line fill="none" stroke="#000000" stroke-width="2" x1="88" x2="88" y1="94.5" y2="31" /><line fill="none" stroke="#000000" stroke-width="2" x1="58.5" x2="87" y1="63" y2="63" /><line fill="none" stroke="#000000" stroke-width="2" x1="58.5" x2="87" y1="46.5" y2="46.5" /><line fill="none" stroke="#000000" stroke-width="2" x1="13" x2="13" y1="31" y2="81.5" /><line fill="none" stroke="#000000" stroke-width="2" x1="42.5" x2="42.5" y1="94.5" y2="31" /><line fill="none" stroke="#000000" stroke-width="2" x1="14" x2="41.5" y1="63" y2="63" /><line fill="none" stroke="#000000" stroke-width="2" x1="14" x2="41.5" y1="46.5" y2="46.5" /><path d="M47.5,82.5 c12.661,-1.218 26.88,-3.122 40.5,-5.5" fill="none" stroke="#000000" stroke-width="2" /><path d="M4.5,82.5 c11.88,-1.214 25.221,-3.122 38,-5.5" fill="none" stroke="#000000" stroke-width="2" /></svg>