<?xml version='1.0' encoding='utf-8'?>
<svg xmlns="http://www.w3.org/2000/svg" height="100px" version="1.0" viewBox="0 0 100 100" width="100px" x="0px" y="0px">
<line fill="none" stroke="#000000" stroke-width="2" x1="94.5" x2="28" y1="64" y2="64" /><line fill="none" stroke="#000000" stroke-width="2" x1="89.5" x2="33.5" y1="52" y2="52" /><line fill="none" stroke="#000000" stroke-width="2" x1="94.5" x2="28" y1="11" y2="11" /><line fill="none" stroke="#000000" stroke-width="2" x1="71.5" x2="71.5" y1="12" y2="40" /><line fill="none" stroke="#000000" stroke-width="2" x1="51.5" x2="51.5" y1="12" y2="40" /><polyline fill="none" points="32.5,42 32.5,23 90.5,23 90.5,41 33.5,41" stroke="#000000" stroke-width="2" /><path d="M9,91.5 c6.24,-9.315 11.438,-19.819 15,-30.5" fill="none" stroke="#000000" stroke-width="2" /><path d="M26,22.5 c-4.551,-4.456 -9.955,-9.209 -16,-14" fill="none" stroke="#000000" stroke-width="2" /><path d="M22.5,45.5 c-5.014,-4.892 -10.751,-9.858 -17.5,-15" fill="none" stroke="#000000" stroke-width="2" /><path d="M62,64 v23.5 c0,3.546 -0.484,4 -6,4 c-2.423,0 -5.976,-0.136 -11,-0.5" fill="none" stroke="#000000" stroke-width="2" /><path d="M27,89 c7.925,-5.088 14.564,-11.832 18.5,-18.5" fill="none" stroke="#000000" stroke-width="2" /><path d="M93.5,89.5 c-4.887,-6.147 -11.477,-12.97 -18.5,-19" fill="none" stroke="#000000" stroke-width="2" /></svg>