<?xml version='1.0' encoding='utf-8'?>
<svg xmlns="http://www.w3.org/2000/svg" height="100px" version="1.0" viewBox="0 0 100 100" width="100px" x="0px" y="0px">
<line fill="none" stroke="#000000" stroke-width="2" x1="73" x2="73" y1="53.5" y2="40.5" /><line fill="none" stroke="#000000" stroke-width="2" x1="51.5" x2="51.5" y1="53.5" y2="40.5" /><line fill="none" stroke="#000000" stroke-width="2" x1="37" x2="87.5" y1="21" y2="21" /><line fill="none" stroke="#000000" stroke-width="2" x1="33" x2="87.5" y1="62.5" y2="62.5" /><polyline fill="none" points="31,54.5 94.5,54.5 94.5,39.5 30,39.5 30,55.5" stroke="#000000" stroke-width="2" /><polyline fill="none" points="37,32 88.5,32 88.5,10 36,10 36,33" stroke="#000000" stroke-width="2" /><path d="M26,91 c29.006,-4.664 50.406,-15.649 60.729,-28.137" fill="none" stroke="#000000" stroke-width="2" /><path d="M95.5,91 c-25.047,-4.45 -42.389,-12.917 -53.5,-25" fill="none" stroke="#000000" stroke-width="2" /><path d="M9,91.5 c7.072,-9.315 12.963,-19.819 17,-30.5" fill="none" stroke="#000000" stroke-width="2" /><path d="M26,22.5 c-4.551,-4.456 -9.955,-9.209 -16,-14" fill="none" stroke="#000000" stroke-width="2" /><path d="M22.5,45.5 c-5.014,-4.892 -10.751,-9.858 -17.5,-15" fill="none" stroke="#000000" stroke-width="2" /></svg>