<?xml version='1.0' encoding='utf-8'?>
<svg xmlns="http://www.w3.org/2000/svg" height="100px" version="1.0" viewBox="0 0 100 100" width="100px" x="0px" y="0px">
<line fill="none" stroke="#000000" stroke-width="2" x1="28.5" x2="57.5" y1="47" y2="47" /><line fill="none" stroke="#000000" stroke-width="2" x1="23" x2="60.5" y1="78" y2="78" /><line fill="none" stroke="#000000" stroke-width="2" x1="43" x2="43" y1="95" y2="5" /><line fill="none" stroke="#000000" stroke-width="2" x1="24" x2="61.5" y1="17" y2="17" /><line fill="none" stroke="#000000" stroke-width="2" x1="68" x2="98" y1="38" y2="38" /><line fill="none" stroke="#000000" stroke-width="2" x1="86.5" x2="86.5" y1="93" y2="38" /><polyline fill="none" points="28.5,65 58.5,65 58.5,30 27.5,30 27.5,66" stroke="#000000" stroke-width="2" /><path d="M7,91.5 c5.156,-9.315 9.464,-19.845 12.5,-30.5" fill="none" stroke="#000000" stroke-width="2" /><path d="M22,22.5 c-4.127,-4.427 -9.06,-9.209 -14.5,-14" fill="none" stroke="#000000" stroke-width="2" /><path d="M19.5,45.5 c-4.589,-4.819 -9.926,-9.858 -16,-15" fill="none" stroke="#000000" stroke-width="2" /><path d="M67.602,14.995 c11.223,-1.145 20.291,-3.553 27.398,-6.995" fill="none" stroke="#000000" stroke-width="2" /><path d="M58.5,90.5 c7.366,-14.657 10,-30.057 10,-76.5" fill="none" stroke="#000000" stroke-width="2" /></svg>