<?xml version='1.0' encoding='utf-8'?>
<svg xmlns="http://www.w3.org/2000/svg" height="100px" version="1.0" viewBox="0 0 100 100" width="100px" x="0px" y="0px">
<line fill="none" stroke="#000000" stroke-width="2" x1="26.5" x2="59" y1="30.5" y2="30.5" /><line fill="none" stroke="#000000" stroke-width="2" x1="62" x2="96.5" y1="30.5" y2="30.5" /><line fill="none" stroke="#000000" stroke-width="2" x1="58" x2="28" y1="15.5" y2="15.5" /><line fill="none" stroke="#000000" stroke-width="2" x1="95" x2="63" y1="15.5" y2="15.5" /><line fill="none" stroke="#000000" stroke-width="2" x1="37.5" x2="85.5" y1="87" y2="87" /><line fill="none" stroke="#000000" stroke-width="2" x1="37.5" x2="85.5" y1="69.5" y2="69.5" /><polyline fill="none" points="86.5,93 86.5,52.5 36.5,52.5 36.5,93" stroke="#000000" stroke-width="2" /><path d="M9,91.5 c7.072,-9.315 12.963,-19.819 17,-30.5" fill="none" stroke="#000000" stroke-width="2" /><path d="M25,22.5 c-4.551,-4.456 -9.955,-9.209 -16,-14" fill="none" stroke="#000000" stroke-width="2" /><path d="M22.5,45.5 c-5.014,-4.892 -10.751,-9.858 -17.5,-15" fill="none" stroke="#000000" stroke-width="2" /><path d="M26,55.5 c10.854,-8.493 18,-22.936 18,-40 v-10.0" fill="none" stroke="#000000" stroke-width="2" /><path d="M62,48 c11.664,-7.511 16,-15.155 16,-32.5 v-10.0" fill="none" stroke="#000000" stroke-width="2" /><path d="M58.5,47.5 c-5.019,-6.562 -10.818,-12.194 -17,-16.5" fill="none" stroke="#000000" stroke-width="2" /><path d="M97,55.5 c-9.307,-6.738 -16.391,-15.404 -20.5,-25" fill="none" stroke="#000000" stroke-width="2" /></svg>