<?xml version='1.0' encoding='utf-8'?>
<svg xmlns="http://www.w3.org/2000/svg" height="100px" version="1.0" viewBox="0 0 100 100" width="100px" x="0px" y="0px">
<line fill="none" stroke="#000000" stroke-width="2" x1="28.5" x2="65.5" y1="33.5" y2="33.5" /><line fill="none" stroke="#000000" stroke-width="2" x1="67" x2="27" y1="17.5" y2="17.5" /><line fill="none" stroke="#000000" stroke-width="2" x1="47" x2="47" y1="33.5" y2="6.5" /><polyline fill="none" points="31,63 31,42.5 63,42.5 63,62 32,62" stroke="#000000" stroke-width="2" /><path d="M25,90 c14.616,-1.502 27.183,-3.553 43,-7" fill="none" stroke="#000000" stroke-width="2" /><path d="M52.5,86 c3.483,-5.608 6.456,-12.448 8.5,-20" fill="none" stroke="#000000" stroke-width="2" /><path d="M40,84 c-1.745,-5.757 -3.865,-11.937 -6,-17.5" fill="none" stroke="#000000" stroke-width="2" /><path d="M69,27 c10.52,-4.842 18.813,-11.101 24.5,-18" fill="none" stroke="#000000" stroke-width="2" /><path d="M68.5,58 c11.449,-5.68 19.546,-12.606 26,-22" fill="none" stroke="#000000" stroke-width="2" /><path d="M65.5,91 c12.996,-5.957 22.074,-13.968 30,-26" fill="none" stroke="#000000" stroke-width="2" /><path d="M7.5,91.5 c6.273,-9.294 11.438,-19.819 15,-30.5" fill="none" stroke="#000000" stroke-width="2" /><path d="M24.5,22.5 c-4.551,-4.456 -9.955,-9.209 -16,-14" fill="none" stroke="#000000" stroke-width="2" /><path d="M21,45.5 c-5.014,-4.892 -10.751,-9.858 -17.5,-15" fill="none" stroke="#000000" stroke-width="2" /></svg>