<?xml version='1.0' encoding='utf-8'?>
<svg xmlns="http://www.w3.org/2000/svg" height="100px" version="1.0" viewBox="0 0 100 100" width="100px" x="0px" y="0px">
<line fill="none" stroke="#000000" stroke-width="2" x1="72" x2="72" y1="26" y2="10.5" /><line fill="none" stroke="#000000" stroke-width="2" x1="52" x2="52" y1="26" y2="10.5" /><line fill="none" stroke="#000000" stroke-width="2" x1="28" x2="96" y1="67" y2="67" /><line fill="none" stroke="#000000" stroke-width="2" x1="63" x2="63" y1="67" y2="94.5" /><line fill="none" stroke="#000000" stroke-width="2" x1="30.5" x2="93.5" y1="79.5" y2="79.5" /><line fill="none" stroke="#000000" stroke-width="2" x1="28" x2="96" y1="50" y2="50" /><line fill="none" stroke="#000000" stroke-width="2" x1="32.5" x2="91.5" y1="38.5" y2="38.5" /><line fill="none" stroke="#000000" stroke-width="2" x1="63" x2="63" y1="50" y2="28" /><polyline fill="none" points="33.5,27 91.5,27 91.5,9.5 32.5,9.5 32.5,28" stroke="#000000" stroke-width="2" /><path d="M8,91.5 c7.072,-9.315 12.963,-19.819 17,-30.5" fill="none" stroke="#000000" stroke-width="2" /><path d="M25,22.5 c-4.551,-4.456 -9.955,-9.209 -16,-14" fill="none" stroke="#000000" stroke-width="2" /><path d="M21.5,45.5 c-5.014,-4.892 -10.751,-9.858 -17.5,-15" fill="none" stroke="#000000" stroke-width="2" /><path d="M71.5,67 c4.682,-5.306 8.598,-10.846 12,-17" fill="none" stroke="#000000" stroke-width="2" /><path d="M51,67 c-2.52,-5.605 -5.652,-11.528 -9,-17" fill="none" stroke="#000000" stroke-width="2" /></svg>