<?xml version='1.0' encoding='utf-8'?>
<svg xmlns="http://www.w3.org/2000/svg" height="100px" version="1.0" viewBox="0 0 100 100" width="100px" x="0px" y="0px">
<line fill="none" stroke="#000000" stroke-width="2" x1="71" x2="71" y1="26" y2="10.5" /><line fill="none" stroke="#000000" stroke-width="2" x1="50" x2="50" y1="26" y2="10.5" /><line fill="none" stroke="#000000" stroke-width="2" x1="55" x2="55" y1="84.5" y2="38.5" /><line fill="none" stroke="#000000" stroke-width="2" x1="35.5" x2="76" y1="66" y2="66" /><polyline fill="none" points="31,27 91,27 91,9.5 30,9.5 30,28" stroke="#000000" stroke-width="2" /><polyline fill="none" points="77,67 77,50 34.5,50 34.5,73" stroke="#000000" stroke-width="2" /><path d="M23.5,55.5 c7.747,-8.092 14.119,-18.799 17,-28.5" fill="none" stroke="#000000" stroke-width="2" /><path d="M35.5,38.5 h57.0 c-1.845,47.731 -4.273,53 -9.5,53 c-3.488,0 -9.021,-0.347 -15,-1" fill="none" stroke="#000000" stroke-width="2" /><path d="M83,86.5 c-3.4,-5.15 -8.063,-11.751 -12,-17" fill="none" stroke="#000000" stroke-width="2" /><path d="M27.5,88 c15.415,-0.979 33.474,-3.814 51,-8" fill="none" stroke="#000000" stroke-width="2" /><path d="M7.5,91.5 c7.072,-9.315 12.963,-19.819 17,-30.5" fill="none" stroke="#000000" stroke-width="2" /><path d="M24.5,22.5 c-4.551,-4.456 -9.955,-9.209 -16,-14" fill="none" stroke="#000000" stroke-width="2" /><path d="M21,45.5 c-5.014,-4.892 -10.751,-9.858 -17.5,-15" fill="none" stroke="#000000" stroke-width="2" /></svg>