<?xml version='1.0' encoding='utf-8'?>
<svg xmlns="http://www.w3.org/2000/svg" height="100px" version="1.0" viewBox="0 0 100 100" width="100px" x="0px" y="0px">
<line fill="none" stroke="#000000" stroke-width="2" x1="27" x2="94" y1="26.5" y2="26.5" /><line fill="none" stroke="#000000" stroke-width="2" x1="91" x2="30" y1="13.5" y2="13.5" /><line fill="none" stroke="#000000" stroke-width="2" x1="60.5" x2="60.5" y1="26.5" y2="5" /><line fill="none" stroke="#000000" stroke-width="2" x1="79" x2="79" y1="36" y2="17" /><line fill="none" stroke="#000000" stroke-width="2" x1="42" x2="42" y1="36" y2="17" /><line fill="none" stroke="#000000" stroke-width="2" x1="34.5" x2="86.5" y1="63.5" y2="63.5" /><line fill="none" stroke="#000000" stroke-width="2" x1="34.5" x2="86.5" y1="51.5" y2="51.5" /><polyline fill="none" points="34.5,75.5 87.5,75.5 87.5,39.5 33.5,39.5 33.5,76.5" stroke="#000000" stroke-width="2" /><path d="M27,92.5 c10.76,-3.419 20.014,-8.134 25.5,-12.5" fill="none" stroke="#000000" stroke-width="2" /><path d="M94,93 c-6.573,-4.196 -15.622,-8.728 -25.5,-12.5" fill="none" stroke="#000000" stroke-width="2" /><path d="M8,91.5 c6.24,-9.315 11.438,-19.819 15,-30.5" fill="none" stroke="#000000" stroke-width="2" /><path d="M25,22.5 c-4.551,-4.456 -9.955,-9.209 -16,-14" fill="none" stroke="#000000" stroke-width="2" /><path d="M21.5,45.5 c-5.014,-4.892 -10.751,-9.858 -17.5,-15" fill="none" stroke="#000000" stroke-width="2" /></svg>