<?xml version='1.0' encoding='utf-8'?>
<svg xmlns="http://www.w3.org/2000/svg" height="100px" version="1.0" viewBox="0 0 100 100" width="100px" x="0px" y="0px">
<line fill="none" stroke="#000000" stroke-width="2" x1="31.5" x2="57" y1="23" y2="23" /><line fill="none" stroke="#000000" stroke-width="2" x1="64" x2="89.5" y1="23" y2="23" /><line fill="none" stroke="#000000" stroke-width="2" x1="35.5" x2="35.5" y1="49.5" y2="94" /><line fill="none" stroke="#000000" stroke-width="2" x1="91.5" x2="36" y1="49" y2="49" /><line fill="none" stroke="#000000" stroke-width="2" x1="65" x2="65" y1="88" y2="49" /><line fill="none" stroke="#000000" stroke-width="2" x1="36.5" x2="93.5" y1="88" y2="88" /><line fill="none" stroke="#000000" stroke-width="2" x1="35.5" x2="89.5" y1="74.5" y2="74.5" /><line fill="none" stroke="#000000" stroke-width="2" x1="35.5" x2="89.5" y1="61.5" y2="61.5" /><polyline fill="none" points="30.5,37.5 58,37.5 58,10 30.5,10" stroke="#000000" stroke-width="2" /><polyline fill="none" points="63,37.5 90.5,37.5 90.5,10 63,10" stroke="#000000" stroke-width="2" /><path d="M70.5,37.5 c-1.629,4.241 -3.602,7.979 -6,11.5" fill="none" stroke="#000000" stroke-width="2" /><path d="M23.5,63.5 c7.671,-7.431 13.295,-15.469 18,-26" fill="none" stroke="#000000" stroke-width="2" /><path d="M7.5,91.5 c5.156,-9.315 9.464,-19.845 12.5,-30.5" fill="none" stroke="#000000" stroke-width="2" /><path d="M24.5,22.5 c-4.551,-4.456 -9.955,-9.209 -16,-14" fill="none" stroke="#000000" stroke-width="2" /><path d="M21,45.5 c-5.014,-4.892 -10.751,-9.858 -17.5,-15" fill="none" stroke="#000000" stroke-width="2" /></svg>