<?xml version='1.0' encoding='utf-8'?>
<svg xmlns="http://www.w3.org/2000/svg" height="100px" version="1.0" viewBox="0 0 100 100" width="100px" x="0px" y="0px">
<line fill="none" stroke="#000000" stroke-width="2" x1="96" x2="25" y1="55" y2="55" /><line fill="none" stroke="#000000" stroke-width="2" x1="28" x2="93" y1="43.5" y2="43.5" /><line fill="none" stroke="#000000" stroke-width="2" x1="47.5" x2="47.5" y1="54" y2="34" /><line fill="none" stroke="#000000" stroke-width="2" x1="73.5" x2="73.5" y1="54" y2="34" /><line fill="none" stroke="#000000" stroke-width="2" x1="33.5" x2="87.5" y1="21" y2="21" /><polyline fill="none" points="33.5,33 88.5,33 88.5,9.5 32.5,9.5 32.5,34" stroke="#000000" stroke-width="2" /><path d="M8,91.5 c6.24,-9.315 11.438,-19.819 15,-30.5" fill="none" stroke="#000000" stroke-width="2" /><path d="M25,22.5 c-4.551,-4.456 -9.955,-9.209 -16,-14" fill="none" stroke="#000000" stroke-width="2" /><path d="M21.5,45.5 c-5.014,-4.892 -10.751,-9.858 -17.5,-15" fill="none" stroke="#000000" stroke-width="2" /><path d="M60.5,58.5 v29.5 c0,4.221 -0.297,4.5 -4.5,4.5 c-1.297,0 -4.863,-0.147 -9.5,-0.5" fill="none" stroke="#000000" stroke-width="2" /><path d="M29,91 c8.999,-3.306 17.9,-8.612 25.5,-15" fill="none" stroke="#000000" stroke-width="2" /><path d="M91.5,92 c-8.551,-6.807 -17.438,-12.228 -25.5,-15.5" fill="none" stroke="#000000" stroke-width="2" /><path d="M52,73 c-3.385,-3.758 -7.263,-7.317 -11.5,-10.5" fill="none" stroke="#000000" stroke-width="2" /><path d="M80.5,62.5 c-3.664,3.564 -7.875,6.956 -12.5,10" fill="none" stroke="#000000" stroke-width="2" /><path d="M24.5,73 c9.482,-4.52 18.607,-11.845 23,-18" fill="none" stroke="#000000" stroke-width="2" /><path d="M96.5,73 c-9.482,-4.519 -18.607,-11.845 -23,-18" fill="none" stroke="#000000" stroke-width="2" /></svg>