<?xml version='1.0' encoding='utf-8'?>
<svg xmlns="http://www.w3.org/2000/svg" height="100px" version="1.0" viewBox="0 0 100 100" width="100px" x="0px" y="0px">
<line fill="none" stroke="#000000" stroke-width="2" x1="51" x2="94.5" y1="17.5" y2="17.5" /><path d="M36.5,79 c-5.219,-8.48 -11.677,-17.429 -18,-25" fill="none" stroke="#000000" stroke-width="2" /><path d="M10,20 c0,13.128 -1.636,24.476 -4.5,33.5" fill="none" stroke="#000000" stroke-width="2" /><path d="M35.5,19.5 c-2.094,12.181 -5.521,22.562 -10,31" fill="none" stroke="#000000" stroke-width="2" /><path d="M5,91 c8.744,-10.161 15,-30.425 15,-56 v-28.0" fill="none" stroke="#000000" stroke-width="2" /><path d="M32.5,90.5 c16.744,-6.64 31.5,-28.324 31.5,-48 v-17.0" fill="none" stroke="#000000" stroke-width="2" /><path d="M95.5,90.5 c-16.744,-6.64 -31.5,-28.324 -31.5,-48" fill="none" stroke="#000000" stroke-width="2" /><path d="M38.5,45 c7.249,-11.083 12.678,-24.556 16,-40" fill="none" stroke="#000000" stroke-width="2" /><path d="M79.5,44 c6.14,-7.398 10.824,-15.968 14.05,-25.812" fill="none" stroke="#000000" stroke-width="2" /></svg>