<?xml version='1.0' encoding='utf-8'?>
<svg xmlns="http://www.w3.org/2000/svg" height="100px" version="1.0" viewBox="0 0 100 100" width="100px" x="0px" y="0px">
<path d="M38.5,79 c-5.279,-8.308 -12.479,-17.343 -20,-25" fill="none" stroke="#000000" stroke-width="2" /><path d="M10,20 c0,13.128 -1.636,24.476 -4.5,33.5" fill="none" stroke="#000000" stroke-width="2" /><path d="M35.5,19.5 c-2.094,12.181 -5.521,22.562 -10,31" fill="none" stroke="#000000" stroke-width="2" /><path d="M5,91 c8.744,-10.161 15,-30.425 15,-56 v-28.0" fill="none" stroke="#000000" stroke-width="2" /><path d="M96.5,51 c-3.762,-11.877 -8.525,-24.087 -14,-35.5" fill="none" stroke="#000000" stroke-width="2" /><path d="M66.5,6 v46.0 c0,7.429 -0.516,8 -6,8 c-1.574,0 -4.867,-0.13 -10.5,-0.5" fill="none" stroke="#000000" stroke-width="2" /><path d="M89.5,47.5 c-7.674,22.907 -28.185,39.954 -56.5,45" fill="none" stroke="#000000" stroke-width="2" /><path d="M35.5,53.5 c5.574,-10.377 10.332,-23.905 13,-38" fill="none" stroke="#000000" stroke-width="2" /></svg>