<?xml version='1.0' encoding='utf-8'?>
<svg xmlns="http://www.w3.org/2000/svg" height="100px" version="1.0" viewBox="0 0 100 100" width="100px" x="0px" y="0px">
<line fill="none" stroke="#000000" stroke-width="2" x1="39.5" x2="90" y1="59.5" y2="59.5" /><line fill="none" stroke="#000000" stroke-width="2" x1="39.5" x2="90" y1="42.5" y2="42.5" /><line fill="none" stroke="#000000" stroke-width="2" x1="65" x2="65" y1="93.5" y2="5" /><line fill="none" stroke="#000000" stroke-width="2" x1="34" x2="95" y1="16" y2="16" /><polyline fill="none" points="91,60.5 91,26.5 38.5,26.5 38.5,60.5" stroke="#000000" stroke-width="2" /><path d="M35.77,82.14 c-4.412,-9.352 -10.48,-19.521 -16.77,-28.14" fill="none" stroke="#000000" stroke-width="2" /><path d="M10,20 c0,13.128 -1.636,24.476 -4.5,33.5" fill="none" stroke="#000000" stroke-width="2" /><path d="M35.5,19.5 c-2.094,12.181 -5.521,22.562 -10,31" fill="none" stroke="#000000" stroke-width="2" /><path d="M5,91 c8.744,-10.161 15,-30.425 15,-56 v-28.0" fill="none" stroke="#000000" stroke-width="2" /><path d="M31.5,89 c16.807,-10.207 27.077,-20.041 32.5,-29.5" fill="none" stroke="#000000" stroke-width="2" /><path d="M96.5,89 c-13.242,-8.286 -22.416,-17.081 -30.5,-29.5" fill="none" stroke="#000000" stroke-width="2" /></svg>