<?xml version='1.0' encoding='utf-8'?>
<svg xmlns="http://www.w3.org/2000/svg" height="100px" version="1.0" viewBox="0 0 100 100" width="100px" x="0px" y="0px">
<line fill="none" stroke="#000000" stroke-width="2" x1="31" x2="94.5" y1="13" y2="13" /><line fill="none" stroke="#000000" stroke-width="2" x1="81" x2="44.5" y1="37.5" y2="37.5" /><line fill="none" stroke="#000000" stroke-width="2" x1="45.5" x2="80" y1="51.5" y2="51.5" /><polyline fill="none" points="44.5,37.5 44.5,66 81,66 81,37.5" stroke="#000000" stroke-width="2" /><path d="M29.5,82 c-3.42,-9.306 -8.124,-19.425 -13,-28" fill="none" stroke="#000000" stroke-width="2" /><path d="M8.5,20 c0,13.128 -1.453,24.476 -4,33.5" fill="none" stroke="#000000" stroke-width="2" /><path d="M31.5,17.5 c-2.094,12.181 -5.521,22.562 -10,31" fill="none" stroke="#000000" stroke-width="2" /><path d="M4,91 c7.869,-10.161 13.5,-30.425 13.5,-56 v-28.0" fill="none" stroke="#000000" stroke-width="2" /><path d="M96.5,50.5 c-14.249,-8.789 -26.428,-23.123 -31.5,-37.5" fill="none" stroke="#000000" stroke-width="2" /><path d="M29,50.5 c16.508,-9.904 30.547,-28.907 35,-47.5" fill="none" stroke="#000000" stroke-width="2" /><path d="M90,18 c-3.902,5.085 -8.887,10.44 -13.5,14.5" fill="none" stroke="#000000" stroke-width="2" /><path d="M49,32.5 c-4.252,-4.988 -8.868,-9.976 -13.5,-14.5" fill="none" stroke="#000000" stroke-width="2" /><path d="M27.5,88 c8.443,-4.247 16.129,-10.549 21,-17" fill="none" stroke="#000000" stroke-width="2" /><path d="M96.5,89 c-6.031,-6.286 -13.342,-12.392 -21,-17.5" fill="none" stroke="#000000" stroke-width="2" /><path d="M63.5,66 v19.0 c0,5.473 -0.535,6 -6.5,6 c-2.724,0 -7.339,-0.174 -13,-0.5" fill="none" stroke="#000000" stroke-width="2" /></svg>