<?xml version='1.0' encoding='utf-8'?>
<svg xmlns="http://www.w3.org/2000/svg" height="100px" version="1.0" viewBox="0 0 100 100" width="100px" x="0px" y="0px">
<line fill="none" stroke="#000000" stroke-width="2" x1="72.5" x2="72.5" y1="26" y2="10.5" /><line fill="none" stroke="#000000" stroke-width="2" x1="53" x2="53" y1="26" y2="10.5" /><line fill="none" stroke="#000000" stroke-width="2" x1="57" x2="57" y1="84.5" y2="38.5" /><line fill="none" stroke="#000000" stroke-width="2" x1="38.5" x2="77" y1="66" y2="66" /><polyline fill="none" points="35.5,27 91,27 91,9.5 34.5,9.5 34.5,28" stroke="#000000" stroke-width="2" /><polyline fill="none" points="78,67 78,50 37.5,50 37.5,73" stroke="#000000" stroke-width="2" /><path d="M29.5,82 c-3.42,-9.306 -8.124,-19.425 -13,-28" fill="none" stroke="#000000" stroke-width="2" /><path d="M8.5,20 c0,13.128 -1.453,24.476 -4,33.5" fill="none" stroke="#000000" stroke-width="2" /><path d="M31.5,17.5 c-2.094,12.181 -5.521,22.562 -10,31" fill="none" stroke="#000000" stroke-width="2" /><path d="M4,91 c7.869,-10.161 13.5,-30.425 13.5,-56 v-28.0" fill="none" stroke="#000000" stroke-width="2" /><path d="M27.5,55.5 c7.747,-8.093 14.119,-18.799 17,-28.5" fill="none" stroke="#000000" stroke-width="2" /><path d="M39.5,38.5 h53.0 c-1.846,47.731 -4.273,53 -9.5,53 c-3.488,0 -9.021,-0.347 -15,-1" fill="none" stroke="#000000" stroke-width="2" /><path d="M83,86.5 c-3.4,-5.15 -8.063,-11.751 -12,-17" fill="none" stroke="#000000" stroke-width="2" /><path d="M30.5,88 c14.508,-0.979 31.504,-3.814 48,-8" fill="none" stroke="#000000" stroke-width="2" /></svg>