<?xml version='1.0' encoding='utf-8'?>
<svg xmlns="http://www.w3.org/2000/svg" height="100px" version="1.0" viewBox="0 0 100 100" width="100px" x="0px" y="0px">
<line fill="none" stroke="#000000" stroke-width="2" x1="34.5" x2="58.5" y1="23" y2="23" /><line fill="none" stroke="#000000" stroke-width="2" x1="65.5" x2="89.5" y1="23" y2="23" /><line fill="none" stroke="#000000" stroke-width="2" x1="38.5" x2="38.5" y1="49.5" y2="94" /><line fill="none" stroke="#000000" stroke-width="2" x1="91.5" x2="39" y1="49" y2="49" /><line fill="none" stroke="#000000" stroke-width="2" x1="66.5" x2="66.5" y1="88" y2="49" /><line fill="none" stroke="#000000" stroke-width="2" x1="39.5" x2="93.5" y1="88" y2="88" /><line fill="none" stroke="#000000" stroke-width="2" x1="38.5" x2="89.5" y1="74.5" y2="74.5" /><line fill="none" stroke="#000000" stroke-width="2" x1="38.5" x2="89.5" y1="61.5" y2="61.5" /><polyline fill="none" points="33.5,37.5 59.5,37.5 59.5,10 33.5,10" stroke="#000000" stroke-width="2" /><polyline fill="none" points="64.5,37.5 90.5,37.5 90.5,10 64.5,10" stroke="#000000" stroke-width="2" /><path d="M29.5,82 c-3.42,-9.306 -8.124,-19.425 -13,-28" fill="none" stroke="#000000" stroke-width="2" /><path d="M8.5,20 c0,13.128 -1.453,24.476 -4,33.5" fill="none" stroke="#000000" stroke-width="2" /><path d="M31.5,17.5 c-2.094,12.181 -5.521,22.562 -10,31" fill="none" stroke="#000000" stroke-width="2" /><path d="M4,91 c7.869,-10.161 13.5,-30.425 13.5,-56 v-28.0" fill="none" stroke="#000000" stroke-width="2" /><path d="M72,37.5 c-1.629,4.241 -3.602,7.979 -6,11.5" fill="none" stroke="#000000" stroke-width="2" /><path d="M26.5,63.5 c7.671,-7.431 13.295,-15.469 18,-26" fill="none" stroke="#000000" stroke-width="2" /></svg>