<?xml version='1.0' encoding='utf-8'?>
<svg xmlns="http://www.w3.org/2000/svg" height="100px" version="1.0" viewBox="0 0 100 100" width="100px" x="0px" y="0px">
<line fill="none" stroke="#000000" stroke-width="2" x1="63" x2="63" y1="28.5" y2="40.5" /><line fill="none" stroke="#000000" stroke-width="2" x1="37" x2="37" y1="28.5" y2="40.5" /><line fill="none" stroke="#000000" stroke-width="2" x1="14.5" x2="47.5" y1="59.5" y2="59.5" /><line fill="none" stroke="#000000" stroke-width="2" x1="96.5" x2="52" y1="55.5" y2="55.5" /><polyline fill="none" points="11,42.5 11,27.5 89,27.5 89,41.5 12,41.5" stroke="#000000" stroke-width="2" /><polyline fill="none" points="14.5,70.5 48.5,70.5 48.5,49 13.5,49 13.5,90" stroke="#000000" stroke-width="2" /><path d="M9.5,13 c28.125,0 55.179,-1.89 81,-5.5" fill="none" stroke="#000000" stroke-width="2" /><path d="M28.5,27.5 c-2.783,-5.236 -5.894,-10.218 -9,-14.5" fill="none" stroke="#000000" stroke-width="2" /><path d="M53,27.5 c-2.773,-5.55 -5.91,-10.955 -9,-15.5" fill="none" stroke="#000000" stroke-width="2" /><path d="M71.5,27.5 c3.491,-5.151 6.621,-10.566 9,-15.5" fill="none" stroke="#000000" stroke-width="2" /><path d="M5.5,91 c13.904,-1.918 26.151,-4.482 40.5,-8.5" fill="none" stroke="#000000" stroke-width="2" /><path d="M53.5,91 c-4.383,-5.403 -10.861,-11.918 -17,-17" fill="none" stroke="#000000" stroke-width="2" /><path d="M84,45 v40.0 c0,4.521 -0.5,5 -5.5,5 c-2.537,0 -8.003,-0.206 -13,-0.5" fill="none" stroke="#000000" stroke-width="2" /><path d="M72.5,78 c-3.75,-4.747 -9.365,-10.405 -15,-15" fill="none" stroke="#000000" stroke-width="2" /></svg>