<?xml version='1.0' encoding='utf-8'?>
<svg xmlns="http://www.w3.org/2000/svg" height="100px" version="1.0" viewBox="0 0 100 100" width="100px" x="0px" y="0px">
<line fill="none" stroke="#000000" stroke-width="2" x1="9.5" x2="30" y1="23" y2="23" /><line fill="none" stroke="#000000" stroke-width="2" x1="19.5" x2="19.5" y1="94" y2="6" /><line fill="none" stroke="#000000" stroke-width="2" x1="28" x2="94.5" y1="61.5" y2="61.5" /><line fill="none" stroke="#000000" stroke-width="2" x1="28.5" x2="94.5" y1="40.5" y2="40.5" /><line fill="none" stroke="#000000" stroke-width="2" x1="34" x2="89" y1="27" y2="27" /><line fill="none" stroke="#000000" stroke-width="2" x1="30.5" x2="92.5" y1="14" y2="14" /><line fill="none" stroke="#000000" stroke-width="2" x1="61.5" x2="61.5" y1="40.5" y2="14" /><path d="M3.5,58.5 c8.73,-2.858 18.101,-6.763 26.5,-11" fill="none" stroke="#000000" stroke-width="2" /><path d="M3.5,46 c3.839,-9.923 6.695,-22.423 8,-36" fill="none" stroke="#000000" stroke-width="2" /><path d="M45.5,49.5 v38.0 c0,3.722 -0.313,4 -4,4 c-1.693,0 -6.229,-0.214 -9.5,-0.5" fill="none" stroke="#000000" stroke-width="2" /><path d="M89.5,66 c-6.725,11.488 -19.35,20.366 -37,25" fill="none" stroke="#000000" stroke-width="2" /><path d="M68.5,45 c0,32.916 16.64,46.5 20,46.5 c1.821,0 4.338,-1.789 6,-13" fill="none" stroke="#000000" stroke-width="2" /><path d="M30.5,51.5 c11.871,-1.172 22.012,-3.007 31,-5.5" fill="none" stroke="#000000" stroke-width="2" /><path d="M29,78.5 c13.026,-1.385 24.146,-3.537 34,-6.5" fill="none" stroke="#000000" stroke-width="2" /><path d="M51,14 c-1.912,-3.556 -3.996,-7.034 -6,-10" fill="none" stroke="#000000" stroke-width="2" /><path d="M71.5,14 c2.269,-3.292 4.422,-6.888 6,-10" fill="none" stroke="#000000" stroke-width="2" /><path d="M91,56.5 c-4.02,-3.657 -7.983,-6.84 -12.5,-10" fill="none" stroke="#000000" stroke-width="2" /></svg>