<?xml version='1.0' encoding='utf-8'?>
<svg xmlns="http://www.w3.org/2000/svg" height="100px" version="1.0" viewBox="0 0 100 100" width="100px" x="0px" y="0px">
<line fill="none" stroke="#000000" stroke-width="2" x1="60.5" x2="60.5" y1="84" y2="14.5" /><path d="M12,8 c9.348,15.786 14,33.95 14,56.5 c0,19.396 -4.178,26.5 -8.5,26.5 c-2.443,0 -6.626,-0.706 -11,-2" fill="none" stroke="#000000" stroke-width="2" /><path d="M33,6 c-7.71,10.59 -17.906,19.975 -29,26.5" fill="none" stroke="#000000" stroke-width="2" /><path d="M24.5,44 c-5.32,7.003 -12.523,13.385 -20.5,18" fill="none" stroke="#000000" stroke-width="2" /><path d="M37.5,16 c19.444,0 38.178,-2.359 56,-7" fill="none" stroke="#000000" stroke-width="2" /><path d="M28,91.5 c6.738,-12.214 10.5,-30.522 10.5,-60.5 v-16.0" fill="none" stroke="#000000" stroke-width="2" /><path d="M96,91 c-8.021,-14.112 -12.5,-35.363 -12.5,-70 v-10.0" fill="none" stroke="#000000" stroke-width="2" /><path d="M86,91 c-3.334,-8.76 -8.013,-20.156 -12,-29" fill="none" stroke="#000000" stroke-width="2" /><path d="M37,88 c13.271,-1.254 30.321,-5.399 43.5,-10.5" fill="none" stroke="#000000" stroke-width="2" /></svg>