<?xml version='1.0' encoding='utf-8'?>
<svg xmlns="http://www.w3.org/2000/svg" height="100px" version="1.0" viewBox="0 0 100 100" width="100px" x="0px" y="0px">
<line fill="none" stroke="#000000" stroke-width="2" x1="72.5" x2="72.5" y1="94" y2="6" /><path d="M11.5,8 c9.348,15.786 14,33.95 14,56.5 c0,19.396 -4.178,26.5 -8.5,26.5 c-2.443,0 -6.626,-0.706 -11,-2" fill="none" stroke="#000000" stroke-width="2" /><path d="M32.5,6 c-7.71,10.59 -17.906,19.975 -29,26.5" fill="none" stroke="#000000" stroke-width="2" /><path d="M24,44 c-5.32,7.003 -12.523,13.385 -20.5,18" fill="none" stroke="#000000" stroke-width="2" /><path d="M33.5,58 h60.5 c0,26.108 -0.73,27.5 -5,27.5 c-1.869,0 -6.039,-0.374 -10.5,-1" fill="none" stroke="#000000" stroke-width="2" /><path d="M31.5,16 h60.0 v21.5 h-55.0 c-1.004,10.086 -3.303,23.486 -5.5,32" fill="none" stroke="#000000" stroke-width="2" /><path d="M27.5,94 c18.781,-9.454 26,-21.687 26,-47.5 V6.0" fill="none" stroke="#000000" stroke-width="2" /></svg>