<?xml version='1.0' encoding='utf-8'?>
<svg xmlns="http://www.w3.org/2000/svg" height="100px" version="1.0" viewBox="0 0 100 100" width="100px" x="0px" y="0px">
<line fill="none" stroke="#000000" stroke-width="2" x1="33.5" x2="97.5" y1="91" y2="91" /><line fill="none" stroke="#000000" stroke-width="2" x1="46.5" x2="87" y1="63" y2="63" /><line fill="none" stroke="#000000" stroke-width="2" x1="46.5" x2="87" y1="36" y2="36" /><polyline fill="none" points="88,90 88,10 45.5,10 45.5,90" stroke="#000000" stroke-width="2" /><path d="M15.5,8 c11.066,15.94 16.5,34.505 16.5,56.5 c0,18.948 -4.779,26.5 -10,26.5 c-2.864,0 -7.87,-0.715 -13,-2" fill="none" stroke="#000000" stroke-width="2" /><path d="M38,6 c-8.507,10.59 -19.759,19.975 -32,26.5" fill="none" stroke="#000000" stroke-width="2" /><path d="M30,44 c-6.244,7.789 -14.914,15.018 -24,20" fill="none" stroke="#000000" stroke-width="2" /></svg>