<?xml version='1.0' encoding='utf-8'?>
<svg xmlns="http://www.w3.org/2000/svg" height="100px" version="1.0" viewBox="0 0 100 100" width="100px" x="0px" y="0px">
<line fill="none" stroke="#000000" stroke-width="2" x1="31" x2="96" y1="50.5" y2="50.5" /><line fill="none" stroke="#000000" stroke-width="2" x1="34" x2="93" y1="17.5" y2="17.5" /><path d="M12,8 c9.348,15.786 14,33.95 14,56.5 c0,19.396 -4.178,26.5 -8.5,26.5 c-2.443,0 -6.626,-0.706 -11,-2" fill="none" stroke="#000000" stroke-width="2" /><path d="M33,6 c-7.71,10.59 -17.906,19.975 -29,26.5" fill="none" stroke="#000000" stroke-width="2" /><path d="M24.5,44 c-5.32,7.003 -12.523,13.385 -20.5,18" fill="none" stroke="#000000" stroke-width="2" /><path d="M27,90.5 c21.877,-7.717 35.5,-25.523 35.5,-47 V5.0" fill="none" stroke="#000000" stroke-width="2" /><path d="M95,90.5 c-19.955,-7.606 -32.5,-25.522 -32.5,-47" fill="none" stroke="#000000" stroke-width="2" /><path d="M47,45 c-3.505,-7.823 -7.289,-15.497 -11,-22" fill="none" stroke="#000000" stroke-width="2" /><path d="M78,45 c4.213,-6.99 8.023,-14.966 10.5,-22" fill="none" stroke="#000000" stroke-width="2" /></svg>