<?xml version='1.0' encoding='utf-8'?>
<svg xmlns="http://www.w3.org/2000/svg" height="100px" version="1.0" viewBox="0 0 100 100" width="100px" x="0px" y="0px">
<line fill="none" stroke="#000000" stroke-width="2" x1="96.5" x2="52.5" y1="29" y2="29" /><line fill="none" stroke="#000000" stroke-width="2" x1="28.5" x2="28.5" y1="28" y2="6" /><line fill="none" stroke="#000000" stroke-width="2" x1="5.5" x2="51.5" y1="15.5" y2="15.5" /><line fill="none" stroke="#000000" stroke-width="2" x1="13" x2="44" y1="51.5" y2="51.5" /><line fill="none" stroke="#000000" stroke-width="2" x1="28.5" x2="28.5" y1="51.5" y2="90" /><line fill="none" stroke="#000000" stroke-width="2" x1="13" x2="44" y1="68" y2="68" /><path d="M82,5 c4.123,5.938 7.605,11.413 11.5,18" fill="none" stroke="#000000" stroke-width="2" /><path d="M52.5,91 c13.178,-12.927 22,-36.344 22,-62 v-22.0" fill="none" stroke="#000000" stroke-width="2" /><path d="M96.5,91 c-13.178,-12.927 -22,-36.343 -22,-62" fill="none" stroke="#000000" stroke-width="2" /><path d="M33,51.5 c2.77,-5.257 5.211,-11.483 7,-18" fill="none" stroke="#000000" stroke-width="2" /><path d="M24,51.5 c-1.957,-5.933 -4.396,-12.207 -7,-18" fill="none" stroke="#000000" stroke-width="2" /><path d="M36,90.5 c4.154,0.362 6.6,0.5 8,0.5 c3.97,0 4.5,-0.634 4.5,-8 v-54.0 h-40.0 v64.0" fill="none" stroke="#000000" stroke-width="2" /></svg>