<?xml version='1.0' encoding='utf-8'?>
<svg xmlns="http://www.w3.org/2000/svg" height="100px" version="1.0" viewBox="0 0 100 100" width="100px" x="0px" y="0px">
<line fill="none" stroke="#000000" stroke-width="2" x1="36.5" x2="90.5" y1="86.5" y2="86.5" /><line fill="none" stroke="#000000" stroke-width="2" x1="36.5" x2="90.5" y1="71.5" y2="71.5" /><line fill="none" stroke="#000000" stroke-width="2" x1="32" x2="95" y1="18" y2="18" /><polyline fill="none" points="91.5,93 91.5,32 35.5,32 35.5,93" stroke="#000000" stroke-width="2" /><path d="M12.5,8 c9.348,15.786 14,33.95 14,56.5 c0,19.396 -4.178,26.5 -8.5,26.5 c-2.443,0 -6.626,-0.706 -11,-2" fill="none" stroke="#000000" stroke-width="2" /><path d="M33.5,6 c-7.71,10.59 -17.906,19.975 -29,26.5" fill="none" stroke="#000000" stroke-width="2" /><path d="M25,44 c-5.32,7.003 -12.523,13.385 -20.5,18" fill="none" stroke="#000000" stroke-width="2" /><path d="M54.5,19 v14.0 c0,18.822 -3.138,24.321 -15,31" fill="none" stroke="#000000" stroke-width="2" /><path d="M71,19 v29.5 c0,7.336 0.756,8 7.5,8 h12.0" fill="none" stroke="#000000" stroke-width="2" /><path d="M54,18 c-3.202,-4.438 -6.659,-8.795 -10,-12.5" fill="none" stroke="#000000" stroke-width="2" /><path d="M71.5,18 c3.777,-4.119 7.357,-8.616 10,-12.5" fill="none" stroke="#000000" stroke-width="2" /></svg>