<?xml version='1.0' encoding='utf-8'?>
<svg xmlns="http://www.w3.org/2000/svg" height="100px" version="1.0" viewBox="0 0 100 100" width="100px" x="0px" y="0px">
<line fill="none" stroke="#000000" stroke-width="2" x1="41" x2="88" y1="75" y2="75" /><line fill="none" stroke="#000000" stroke-width="2" x1="41" x2="88" y1="61" y2="61" /><polyline fill="none" points="88.5,35 88.5,9.5 39.5,9.5 39.5,35" stroke="#000000" stroke-width="2" /><polyline fill="none" points="32,55.5 32,36 96,36 96,55.5" stroke="#000000" stroke-width="2" /><polyline fill="none" points="88.5,21.5 59.5,21.5 59.5,35" stroke="#000000" stroke-width="2" /><path d="M12,8 c9.348,15.786 14,33.95 14,56.5 c0,19.396 -4.178,26.5 -8.5,26.5 c-2.443,0 -6.626,-0.706 -11,-2" fill="none" stroke="#000000" stroke-width="2" /><path d="M33,6 c-7.71,10.59 -17.906,19.975 -29,26.5" fill="none" stroke="#000000" stroke-width="2" /><path d="M24.5,44 c-5.32,7.003 -12.523,13.385 -20.5,18" fill="none" stroke="#000000" stroke-width="2" /><path d="M40,92 v-45.0 h48.0 v39.0 c0,4.177 -0.291,4.5 -6.5,4.5 c-2.039,0 -5.598,-0.159 -11.5,-0.5" fill="none" stroke="#000000" stroke-width="2" /></svg>