<?xml version='1.0' encoding='utf-8'?>
<svg xmlns="http://www.w3.org/2000/svg" height="100px" version="1.0" viewBox="0 0 100 100" width="100px" x="0px" y="0px">
<line fill="none" stroke="#000000" stroke-width="2" x1="72.5" x2="72.5" y1="26" y2="10.5" /><line fill="none" stroke="#000000" stroke-width="2" x1="53" x2="53" y1="26" y2="10.5" /><line fill="none" stroke="#000000" stroke-width="2" x1="57" x2="57" y1="84.5" y2="38.5" /><line fill="none" stroke="#000000" stroke-width="2" x1="38.5" x2="77" y1="66" y2="66" /><polyline fill="none" points="35.5,27 91,27 91,9.5 34.5,9.5 34.5,28" stroke="#000000" stroke-width="2" /><polyline fill="none" points="78,67 78,50 37.5,50 37.5,73" stroke="#000000" stroke-width="2" /><path d="M27.5,55.5 c7.746,-8.093 14.119,-18.799 17,-28.5" fill="none" stroke="#000000" stroke-width="2" /><path d="M39.5,38.5 h53.0 c-1.846,47.731 -4.273,53 -9.5,53 c-3.488,0 -9.021,-0.347 -15,-1" fill="none" stroke="#000000" stroke-width="2" /><path d="M83,86.5 c-3.4,-5.15 -8.063,-11.751 -12,-17" fill="none" stroke="#000000" stroke-width="2" /><path d="M30.5,88 c14.508,-0.979 31.504,-3.814 48,-8" fill="none" stroke="#000000" stroke-width="2" /><path d="M11,8 c9.348,15.786 14,33.95 14,56.5 c0,19.396 -4.178,26.5 -8.5,26.5 c-2.443,0 -6.626,-0.706 -11,-2" fill="none" stroke="#000000" stroke-width="2" /><path d="M32,6 c-7.71,10.59 -17.906,19.975 -29,26.5" fill="none" stroke="#000000" stroke-width="2" /><path d="M23.5,44 C18.18,51.003 10.977,57.385 3,62" fill="none" stroke="#000000" stroke-width="2" /></svg>