<?xml version='1.0' encoding='utf-8'?>
<svg xmlns="http://www.w3.org/2000/svg" height="100px" version="1.0" viewBox="0 0 100 100" width="100px" x="0px" y="0px">
<line fill="none" stroke="#000000" stroke-width="2" x1="31" x2="94" y1="12" y2="12" /><line fill="none" stroke="#000000" stroke-width="2" x1="48.5" x2="48.5" y1="18.5" y2="4" /><line fill="none" stroke="#000000" stroke-width="2" x1="76.5" x2="76.5" y1="18.5" y2="4" /><line fill="none" stroke="#000000" stroke-width="2" x1="64.5" x2="64.5" y1="55.5" y2="26" /><line fill="none" stroke="#000000" stroke-width="2" x1="93" x2="36.5" y1="25" y2="25" /><line fill="none" stroke="#000000" stroke-width="2" x1="36.5" x2="90.5" y1="35.5" y2="35.5" /><line fill="none" stroke="#000000" stroke-width="2" x1="36.5" x2="90.5" y1="46" y2="46" /><line fill="none" stroke="#000000" stroke-width="2" x1="31" x2="89.5" y1="64.5" y2="64.5" /><polyline fill="none" points="36.5,25 36.5,56.5 93,56.5" stroke="#000000" stroke-width="2" /><path d="M11,8 c9.348,15.786 14,33.95 14,56.5 c0,19.396 -4.178,26.5 -8.5,26.5 c-2.443,0 -6.626,-0.706 -11,-2" fill="none" stroke="#000000" stroke-width="2" /><path d="M32,6 c-7.71,10.59 -17.906,19.975 -29,26.5" fill="none" stroke="#000000" stroke-width="2" /><path d="M23.5,44 c-5.32,7.003 -12.523,13.385 -20.5,18" fill="none" stroke="#000000" stroke-width="2" /><path d="M26,37.5 c7.143,-7.249 11.872,-14.226 15,-22" fill="none" stroke="#000000" stroke-width="2" /><path d="M69,15.5 c-1.521,3.671 -2.678,6.13 -4.5,9.5" fill="none" stroke="#000000" stroke-width="2" /><path d="M28,90.5 c26.914,-3.495 51.109,-14.689 60.749,-25.66" fill="none" stroke="#000000" stroke-width="2" /><path d="M95.5,90.5 c-21.684,-2.941 -44.646,-12.462 -56,-22.5" fill="none" stroke="#000000" stroke-width="2" /></svg>