<?xml version='1.0' encoding='utf-8'?>
<svg xmlns="http://www.w3.org/2000/svg" height="100px" version="1.0" viewBox="0 0 100 100" width="100px" x="0px" y="0px">
<line fill="none" stroke="#000000" stroke-width="2" x1="33" x2="4" y1="12.5" y2="12.5" /><line fill="none" stroke="#000000" stroke-width="2" x1="31" x2="5" y1="45.5" y2="45.5" /><line fill="none" stroke="#000000" stroke-width="2" x1="18" x2="18" y1="82" y2="13.5" /><path d="M4,87 c10.043,-3.375 18.778,-6.873 30,-12" fill="none" stroke="#000000" stroke-width="2" /><path d="M34,49 c17.872,-6.28 32.287,-14.771 42,-24" fill="none" stroke="#000000" stroke-width="2" /><path d="M38,70 c20.97,-7.056 36.076,-16.124 47.5,-27.5" fill="none" stroke="#000000" stroke-width="2" /><path d="M38.5,92 c24.336,-6.769 41.204,-16.117 56,-30" fill="none" stroke="#000000" stroke-width="2" /><path d="M96,31.5 c-12.124,-7.841 -23.147,-16.619 -33,-26.3 c-9.66,10.945 -19.009,18.966 -32,27.3" fill="none" stroke="#000000" stroke-width="2" /></svg>