<?xml version='1.0' encoding='utf-8'?>
<svg xmlns="http://www.w3.org/2000/svg" height="100px" version="1.0" viewBox="0 0 100 100" width="100px" x="0px" y="0px">
<line fill="none" stroke="#000000" stroke-width="2" x1="33" x2="4" y1="12.5" y2="12.5" /><line fill="none" stroke="#000000" stroke-width="2" x1="32" x2="5" y1="43.5" y2="43.5" /><line fill="none" stroke="#000000" stroke-width="2" x1="18" x2="18" y1="77.5" y2="13.5" /><line fill="none" stroke="#000000" stroke-width="2" x1="63.5" x2="63.5" y1="15" y2="4" /><line fill="none" stroke="#000000" stroke-width="2" x1="35.5" x2="93.5" y1="15" y2="15" /><line fill="none" stroke="#000000" stroke-width="2" x1="60.5" x2="60.5" y1="50" y2="92" /><path d="M4,83 c10.593,-3.637 19.674,-7.762 31,-14" fill="none" stroke="#000000" stroke-width="2" /><path d="M94,47 c-5.209,-7.398 -12.371,-16.684 -18.5,-24" fill="none" stroke="#000000" stroke-width="2" /><path d="M36,43.5 c15.07,-0.501 34.023,-2.349 52,-5" fill="none" stroke="#000000" stroke-width="2" /><path d="M47,43 c4.021,-7.727 8.537,-18.17 12,-28" fill="none" stroke="#000000" stroke-width="2" /><path d="M79.5,49 v37.5 c0,4.716 0.304,5 6,5 c8.129,0 8.39,-0.176 9,-22.5" fill="none" stroke="#000000" stroke-width="2" /><path d="M25,93 c11.902,-6.534 19.5,-21.634 19.5,-44" fill="none" stroke="#000000" stroke-width="2" /></svg>