<?xml version='1.0' encoding='utf-8'?>
<svg xmlns="http://www.w3.org/2000/svg" height="100px" version="1.0" viewBox="0 0 100 100" width="100px" x="0px" y="0px">
<line fill="none" stroke="#000000" stroke-width="2" x1="74" x2="26" y1="55" y2="55" /><line fill="none" stroke="#000000" stroke-width="2" x1="83" x2="18" y1="67.5" y2="67.5" /><line fill="none" stroke="#000000" stroke-width="2" x1="27" x2="27" y1="10.5" y2="39.5" /><line fill="none" stroke="#000000" stroke-width="2" x1="47" x2="8" y1="10.5" y2="10.5" /><line fill="none" stroke="#000000" stroke-width="2" x1="45.5" x2="9.5" y1="23.5" y2="23.5" /><line fill="none" stroke="#000000" stroke-width="2" x1="73" x2="73" y1="10.5" y2="37" /><line fill="none" stroke="#000000" stroke-width="2" x1="92" x2="53" y1="10.5" y2="10.5" /><line fill="none" stroke="#000000" stroke-width="2" x1="90.5" x2="54.5" y1="23.5" y2="23.5" /><line fill="none" stroke="#000000" stroke-width="2" x1="93.5" x2="53" y1="37" y2="37" /><path d="M94.5,60 c-16.906,-6.304 -31.083,-13.058 -44.5,-21.2 c-13.417,8.143 -27.594,14.896 -44.5,21.2" fill="none" stroke="#000000" stroke-width="2" /><path d="M58,94 c9.304,-8.047 17.535,-16.995 24.193,-26.091" fill="none" stroke="#000000" stroke-width="2" /><path d="M6.5,44 c16.672,-3.266 31.818,-7.067 41,-10" fill="none" stroke="#000000" stroke-width="2" /></svg>