<?xml version='1.0' encoding='utf-8'?>
<svg xmlns="http://www.w3.org/2000/svg" height="100px" version="1.0" viewBox="0 0 100 100" width="100px" x="0px" y="0px">
<line fill="none" stroke="#000000" stroke-width="2" x1="21.5" x2="21.5" y1="82.5" y2="12.5" /><line fill="none" stroke="#000000" stroke-width="2" x1="9.5" x2="33.5" y1="46" y2="46" /><polyline fill="none" points="9.5,83.5 34.5,83.5 34.5,11.5 8.5,11.5 8.5,91.5" stroke="#000000" stroke-width="2" /><path d="M40.5,47.5 c15.953,-6.042 29.062,-14.006 38,-22.5" fill="none" stroke="#000000" stroke-width="2" /><path d="M40,70 c20.97,-7.056 36.076,-16.124 47.5,-27.5" fill="none" stroke="#000000" stroke-width="2" /><path d="M40,92 c24.336,-6.769 41.204,-16.117 56,-30" fill="none" stroke="#000000" stroke-width="2" /><path d="M97,31.5 c-11.021,-7.841 -21.043,-16.619 -30,-26.3 c-8.604,10.945 -16.93,18.966 -28.5,27.3" fill="none" stroke="#000000" stroke-width="2" /></svg>