<?xml version='1.0' encoding='utf-8'?>
<svg xmlns="http://www.w3.org/2000/svg" height="100px" version="1.0" viewBox="0 0 100 100" width="100px" x="0px" y="0px">
<line fill="none" stroke="#000000" stroke-width="2" x1="50" x2="50" y1="14.5" y2="4" /><line fill="none" stroke="#000000" stroke-width="2" x1="6.5" x2="93.5" y1="14.5" y2="14.5" /><line fill="none" stroke="#000000" stroke-width="2" x1="88.5" x2="7" y1="46" y2="48.5" /><line fill="none" stroke="#000000" stroke-width="2" x1="50" x2="50" y1="86.5" y2="57" /><line fill="none" stroke="#000000" stroke-width="2" x1="17" x2="83" y1="87.5" y2="87.5" /><line fill="none" stroke="#000000" stroke-width="2" x1="17" x2="83" y1="71.5" y2="71.5" /><polyline fill="none" points="16,93.5 16,56 84,56 84,93.5" stroke="#000000" stroke-width="2" /><path d="M41.5,40 c-7.016,-5.63 -16.166,-12.711 -24,-18.5" fill="none" stroke="#000000" stroke-width="2" /><path d="M95,52.5 c-5.668,-5.924 -13.436,-13.463 -20,-19.5" fill="none" stroke="#000000" stroke-width="2" /><path d="M26.5,48 c17.381,-8.836 32.813,-18.126 46.5,-28" fill="none" stroke="#000000" stroke-width="2" /><path d="M27.5,29 c8.194,-4.83 15.213,-9.461 22,-14.5" fill="none" stroke="#000000" stroke-width="2" /></svg>