<?xml version='1.0' encoding='utf-8'?>
<svg xmlns="http://www.w3.org/2000/svg" height="100px" version="1.0" viewBox="0 0 100 100" width="100px" x="0px" y="0px">
<line fill="none" stroke="#000000" stroke-width="2" x1="42" x2="90" y1="55" y2="55" /><line fill="none" stroke="#000000" stroke-width="2" x1="66" x2="66" y1="94" y2="5" /><line fill="none" stroke="#000000" stroke-width="2" x1="37" x2="95.5" y1="16" y2="16" /><line fill="none" stroke="#000000" stroke-width="2" x1="5" x2="36.5" y1="11" y2="11" /><line fill="none" stroke="#000000" stroke-width="2" x1="23.5" x2="37" y1="45" y2="45" /><line fill="none" stroke="#000000" stroke-width="2" x1="23.5" x2="23.5" y1="79" y2="25.5" /><line fill="none" stroke="#000000" stroke-width="2" x1="10" x2="10" y1="85" y2="31.5" /><polyline fill="none" points="91,56 91,30 41,30 41,56" stroke="#000000" stroke-width="2" /><path d="M4.5,87 c11.521,-3.981 21.492,-8.646 34,-16" fill="none" stroke="#000000" stroke-width="2" /><path d="M33,87 c16.221,-10.81 26.703,-21.849 32,-32" fill="none" stroke="#000000" stroke-width="2" /><path d="M96,87 c-12.535,-9.184 -21.264,-18.817 -29,-32" fill="none" stroke="#000000" stroke-width="2" /><path d="M35.648,11.478 c-3.143,5.122 -7.373,10.575 -12.148,15.522" fill="none" stroke="#000000" stroke-width="2" /></svg>