<?xml version='1.0' encoding='utf-8'?>
<svg xmlns="http://www.w3.org/2000/svg" height="100px" version="1.0" viewBox="0 0 100 100" width="100px" x="0px" y="0px">
<line fill="none" stroke="#000000" stroke-width="2" x1="4.5" x2="36" y1="11" y2="11" /><line fill="none" stroke="#000000" stroke-width="2" x1="23" x2="38" y1="45" y2="45" /><line fill="none" stroke="#000000" stroke-width="2" x1="23" x2="23" y1="79" y2="25.5" /><line fill="none" stroke="#000000" stroke-width="2" x1="9.5" x2="9.5" y1="85" y2="31.5" /><line fill="none" stroke="#000000" stroke-width="2" x1="65" x2="65" y1="15" y2="4" /><line fill="none" stroke="#000000" stroke-width="2" x1="38" x2="94.5" y1="15" y2="15" /><line fill="none" stroke="#000000" stroke-width="2" x1="62.5" x2="62.5" y1="50" y2="92" /><path d="M4,87 c11.521,-3.981 21.492,-8.646 34,-16" fill="none" stroke="#000000" stroke-width="2" /><path d="M35.148,11.478 c-3.143,5.122 -7.373,10.575 -12.148,15.522" fill="none" stroke="#000000" stroke-width="2" /><path d="M94.5,47 c-4.787,-7.398 -11.368,-16.684 -17,-24" fill="none" stroke="#000000" stroke-width="2" /><path d="M40.5,43.5 c14.057,-0.501 31.733,-2.349 48.5,-5" fill="none" stroke="#000000" stroke-width="2" /><path d="M50.5,43 c3.854,-7.727 8.182,-18.17 11.5,-28" fill="none" stroke="#000000" stroke-width="2" /><path d="M80.5,49 v37.5 c0,4.716 0.359,5 6,5 c7.725,0 7.91,-0.176 8.5,-22.5" fill="none" stroke="#000000" stroke-width="2" /><path d="M28,93 c11.551,-6.615 19,-21.634 19,-44" fill="none" stroke="#000000" stroke-width="2" /></svg>