<?xml version='1.0' encoding='utf-8'?>
<svg xmlns="http://www.w3.org/2000/svg" height="100px" version="1.0" viewBox="0 0 100 100" width="100px" x="0px" y="0px">
<line fill="none" stroke="#000000" stroke-width="2" x1="56.5" x2="56.5" y1="13" y2="3" /><line fill="none" stroke="#000000" stroke-width="2" x1="32" x2="85.5" y1="46.5" y2="46.5" /><line fill="none" stroke="#000000" stroke-width="2" x1="61" x2="61" y1="45.5" y2="14" /><path d="M7,91 c8.727,-9.241 12.5,-20.743 12.5,-47 v-30.0 h75.0" fill="none" stroke="#000000" stroke-width="2" /><path d="M2.5,67 c6.793,-3.015 12.445,-6.519 16.5,-10" fill="none" stroke="#000000" stroke-width="2" /><path d="M15.5,41 c-2.875,-5.722 -6.672,-12.311 -11,-19" fill="none" stroke="#000000" stroke-width="2" /><path d="M31.5,91 c23.201,-5.8 41.626,-21.075 53.106,-43.948" fill="none" stroke="#000000" stroke-width="2" /><path d="M94,91 c-23.973,-5.933 -41.512,-19.259 -52,-40.5" fill="none" stroke="#000000" stroke-width="2" /><path d="M84,41.5 c3.607,-4.246 6.297,-8.538 8.58,-13.892" fill="none" stroke="#000000" stroke-width="2" /><path d="M21.5,91.5 c7.156,-12.003 10.5,-25.202 10.5,-43.5 v-21.0 h61.5" fill="none" stroke="#000000" stroke-width="2" /></svg>