<?xml version='1.0' encoding='utf-8'?>
<svg xmlns="http://www.w3.org/2000/svg" height="100px" version="1.0" viewBox="0 0 100 100" width="100px" x="0px" y="0px">
<line fill="none" stroke="#000000" stroke-width="2" x1="57" x2="57" y1="11.5" y2="3" /><line fill="none" stroke="#000000" stroke-width="2" x1="25" x2="93.5" y1="22" y2="22" /><line fill="none" stroke="#000000" stroke-width="2" x1="78.5" x2="39.5" y1="42.5" y2="42.5" /><line fill="none" stroke="#000000" stroke-width="2" x1="40" x2="78" y1="55.5" y2="55.5" /><polyline fill="none" points="39,43 39,69 79,69 79,43" stroke="#000000" stroke-width="2" /><path d="M7,91 c8.727,-9.241 12.5,-20.743 12.5,-47 v-31.5 h76.0" fill="none" stroke="#000000" stroke-width="2" /><path d="M2.5,67 c6.793,-3.015 12.445,-6.519 16.5,-10" fill="none" stroke="#000000" stroke-width="2" /><path d="M15.5,41 c-2.875,-5.722 -6.672,-12.311 -11,-19" fill="none" stroke="#000000" stroke-width="2" /><path d="M96,54 c-15.236,-7.368 -27.856,-19.518 -33.5,-32" fill="none" stroke="#000000" stroke-width="2" /><path d="M21.5,54.5 c17.773,-8.845 34.509,-27.116 39,-42" fill="none" stroke="#000000" stroke-width="2" /><path d="M89.5,26 c-4.191,4.56 -9.545,9.36 -14.5,13" fill="none" stroke="#000000" stroke-width="2" /><path d="M43,39 c-4.566,-4.473 -9.533,-8.937 -14.5,-13" fill="none" stroke="#000000" stroke-width="2" /><path d="M21.5,89.5 c8.846,-3.871 16.896,-9.617 22,-15.5" fill="none" stroke="#000000" stroke-width="2" /><path d="M96,90 c-6.318,-5.747 -13.977,-11.328 -22,-16" fill="none" stroke="#000000" stroke-width="2" /><path d="M60.5,69 v17.0 c0,4.974 -0.544,5.5 -7,5.5 c-2.863,0 -7.549,-0.174 -13.5,-0.5" fill="none" stroke="#000000" stroke-width="2" /></svg>