<?xml version='1.0' encoding='utf-8'?>
<svg xmlns="http://www.w3.org/2000/svg" height="100px" version="1.0" viewBox="0 0 100 100" width="100px" x="0px" y="0px">
<line fill="none" stroke="#000000" stroke-width="2" x1="39" x2="39" y1="66.5" y2="89.5" /><line fill="none" stroke="#000000" stroke-width="2" x1="61" x2="61" y1="66.5" y2="89.5" /><line fill="none" stroke="#000000" stroke-width="2" x1="6" x2="94" y1="90.5" y2="90.5" /><line fill="none" stroke="#000000" stroke-width="2" x1="5" x2="49" y1="35" y2="31.5" /><line fill="none" stroke="#000000" stroke-width="2" x1="27.5" x2="27.5" y1="33" y2="53" /><line fill="none" stroke="#000000" stroke-width="2" x1="51.5" x2="90" y1="32.5" y2="32.5" /><polyline fill="none" points="83,89.5 83,65.5 17,65.5 17,89.5" stroke="#000000" stroke-width="2" /><path d="M5,61 c6.189,-6.804 9,-14.823 9,-30 v-20.0 h29.0 v43.0 c0,5.036 -0.382,5.5 -4,5.5 c-1.661,0 -5.084,-0.137 -10,-0.5" fill="none" stroke="#000000" stroke-width="2" /><path d="M32.5,27.5 c-3.238,-4.156 -6.839,-8.288 -10,-11.5" fill="none" stroke="#000000" stroke-width="2" /><path d="M30,3.5 c-0.902,2.749 -1.865,5.194 -3,7.5" fill="none" stroke="#000000" stroke-width="2" /><path d="M47.5,60 c21.502,-4.831 33.917,-13.384 41.63,-26.993" fill="none" stroke="#000000" stroke-width="2" /><path d="M93.5,60 c-16.307,-4.876 -30.111,-13.696 -38.5,-24" fill="none" stroke="#000000" stroke-width="2" /><path d="M49.5,28.5 c6.209,-2.919 9.5,-8.114 9.5,-16.5 v-4.0 h21.0 v16.0 c0,2.724 0.408,3 6.5,3 c6.822,0 7.375,-0.569 8,-9.5" fill="none" stroke="#000000" stroke-width="2" /></svg>