<?xml version='1.0' encoding='utf-8'?>
<svg xmlns="http://www.w3.org/2000/svg" height="100px" version="1.0" viewBox="0 0 100 100" width="100px" x="0px" y="0px">
<line fill="none" stroke="#000000" stroke-width="2" x1="8.5" x2="8.5" y1="10.5" y2="88.5" /><line fill="none" stroke="#000000" stroke-width="2" x1="9.5" x2="29" y1="57" y2="57" /><line fill="none" stroke="#000000" stroke-width="2" x1="9.5" x2="29" y1="34" y2="34" /><polyline fill="none" points="9.5,80.5 29,80.5 29,11.5 9.5,11.5" stroke="#000000" stroke-width="2" /><path d="M96.5,51 c-3.762,-11.877 -8.525,-24.087 -14,-35.5" fill="none" stroke="#000000" stroke-width="2" /><path d="M66,6 v46.0 c0,7.429 -0.516,8 -6,8 c-1.574,0 -4.867,-0.13 -10.5,-0.5" fill="none" stroke="#000000" stroke-width="2" /><path d="M89.5,47.5 c-7.674,22.907 -28.185,39.954 -56.5,45" fill="none" stroke="#000000" stroke-width="2" /><path d="M34.5,53.5 c5.574,-10.377 10.332,-23.905 13,-38" fill="none" stroke="#000000" stroke-width="2" /></svg>