<?xml version='1.0' encoding='utf-8'?>
<svg xmlns="http://www.w3.org/2000/svg" height="100px" version="1.0" viewBox="0 0 100 100" width="100px" x="0px" y="0px">
<line fill="none" stroke="#000000" stroke-width="2" x1="8.5" x2="8.5" y1="10.5" y2="88.5" /><line fill="none" stroke="#000000" stroke-width="2" x1="9.5" x2="30" y1="57" y2="57" /><line fill="none" stroke="#000000" stroke-width="2" x1="9.5" x2="30" y1="34" y2="34" /><line fill="none" stroke="#000000" stroke-width="2" x1="64.121" x2="64.121" y1="18" y2="3.5" /><line fill="none" stroke="#000000" stroke-width="2" x1="34.5" x2="96" y1="18" y2="18" /><polyline fill="none" points="9.5,80.5 30,80.5 30,11.5 9.5,11.5" stroke="#000000" stroke-width="2" /><path d="M61.5,64.5 c-7.486,-9.554 -17.326,-20.94 -26,-30" fill="none" stroke="#000000" stroke-width="2" /><path d="M41.5,87.5 c16.184,-17.072 30.399,-35.124 43,-54.5" fill="none" stroke="#000000" stroke-width="2" /><path d="M44,43.5 c7.111,-7.953 13.754,-16.633 19.5,-25.5" fill="none" stroke="#000000" stroke-width="2" /><path d="M96,91 c-3.86,-8.647 -10.715,-21.124 -17.5,-31.5" fill="none" stroke="#000000" stroke-width="2" /><path d="M31,88 c18.522,-0.769 39.971,-3.035 60.5,-6.5" fill="none" stroke="#000000" stroke-width="2" /></svg>