<?xml version='1.0' encoding='utf-8'?>
<svg xmlns="http://www.w3.org/2000/svg" height="100px" version="1.0" viewBox="0 0 100 100" width="100px" x="0px" y="0px">
<line fill="none" stroke="#000000" stroke-width="2" x1="20" x2="81" y1="87.5" y2="87.5" /><line fill="none" stroke="#000000" stroke-width="2" x1="20" x2="81" y1="75.5" y2="75.5" /><line fill="none" stroke="#000000" stroke-width="2" x1="20" x2="81" y1="63.5" y2="63.5" /><line fill="none" stroke="#000000" stroke-width="2" x1="52.5" x2="94.5" y1="10.5" y2="10.5" /><line fill="none" stroke="#000000" stroke-width="2" x1="25.5" x2="25.5" y1="3" y2="24.5" /><line fill="none" stroke="#000000" stroke-width="2" x1="3.5" x2="54" y1="24.5" y2="24.5" /><line fill="none" stroke="#000000" stroke-width="2" x1="25.5" x2="49.5" y1="12.5" y2="12.5" /><polyline fill="none" points="81,93.5 81,51.5 19,51.5 19,93.5" stroke="#000000" stroke-width="2" /><path d="M50,46 c21.621,-5.493 36.975,-18.315 43.571,-34.87" fill="none" stroke="#000000" stroke-width="2" /><path d="M96.5,48.5 c-19.634,-7.034 -31.755,-18.702 -37,-35" fill="none" stroke="#000000" stroke-width="2" /><path d="M4.5,48.5 c5.662,-5.247 10.859,-12.664 14,-20" fill="none" stroke="#000000" stroke-width="2" /><path d="M50.5,41.5 c-3.428,-4.673 -7.612,-9.221 -12,-13" fill="none" stroke="#000000" stroke-width="2" /><path d="M30,24.5 v17.345 c0,3.417 -0.297,3.655 -5,3.655 c-1.935,0 -5.271,-0.16 -9.5,-0.5" fill="none" stroke="#000000" stroke-width="2" /></svg>