<?xml version='1.0' encoding='utf-8'?>
<svg xmlns="http://www.w3.org/2000/svg" height="100px" version="1.0" viewBox="0 0 100 100" width="100px" x="0px" y="0px">
<line fill="none" stroke="#000000" stroke-width="2" x1="8.5" x2="25" y1="57" y2="57" /><line fill="none" stroke="#000000" stroke-width="2" x1="8.5" x2="25" y1="34" y2="34" /><line fill="none" stroke="#000000" stroke-width="2" x1="43" x2="61.5" y1="45.5" y2="45.5" /><line fill="none" stroke="#000000" stroke-width="2" x1="84" x2="84" y1="94" y2="36.5" /><line fill="none" stroke="#000000" stroke-width="2" x1="63" x2="95.5" y1="51.5" y2="51.5" /><line fill="none" stroke="#000000" stroke-width="2" x1="67" x2="67" y1="76" y2="52.5" /><line fill="none" stroke="#000000" stroke-width="2" x1="97.5" x2="57" y1="76" y2="76" /><polyline fill="none" points="8.5,80.5 26,80.5 26,11.5 7.5,11.5 7.5,88.5" stroke="#000000" stroke-width="2" /><polyline fill="none" points="93.5,46.5 93.5,31.5 32.5,31.5 32.5,49.5" stroke="#000000" stroke-width="2" /><path d="M32.5,13 c20.833,0 40.875,-1.89 60,-5.5" fill="none" stroke="#000000" stroke-width="2" /><path d="M48,31.5 c-2.164,-6.682 -4.584,-13.037 -7,-18.5" fill="none" stroke="#000000" stroke-width="2" /><path d="M66,31.5 c-2.156,-6.982 -4.597,-13.782 -7,-19.5" fill="none" stroke="#000000" stroke-width="2" /><path d="M78,31.5 c2.716,-6.315 5.15,-12.954 7,-19" fill="none" stroke="#000000" stroke-width="2" /><path d="M29.5,68 c7.539,-8.636 13.029,-19.217 16.5,-31.5" fill="none" stroke="#000000" stroke-width="2" /><path d="M60.501,46.455 c-0.966,21.278 -13.126,39.371 -29.501,46.545" fill="none" stroke="#000000" stroke-width="2" /><path d="M54.5,70.5 c-4.055,-4.183 -9.324,-8.908 -14,-12.5" fill="none" stroke="#000000" stroke-width="2" /></svg>