<?xml version='1.0' encoding='utf-8'?>
<svg xmlns="http://www.w3.org/2000/svg" height="100px" version="1.0" viewBox="0 0 100 100" width="100px" x="0px" y="0px">
<line fill="none" stroke="#000000" stroke-width="2" x1="78" x2="51.5" y1="80" y2="80" /><line fill="none" stroke="#000000" stroke-width="2" x1="95.5" x2="35.5" y1="24.5" y2="24.5" /><line fill="none" stroke="#000000" stroke-width="2" x1="34" x2="12.5" y1="21" y2="21" /><line fill="none" stroke="#000000" stroke-width="2" x1="34.5" x2="5" y1="48" y2="48" /><polyline fill="none" points="51.5,86 51.5,65 79,65 79,81" stroke="#000000" stroke-width="2" /><polyline fill="none" points="51.5,49 80,49 80,35 50.5,35 50.5,50" stroke="#000000" stroke-width="2" /><path d="M77,90 c5.247,0.363 8.598,0.5 10,0.5 c4.568,0 5,-0.489 5,-8 V57.0 h-53.5 v35.0" fill="none" stroke="#000000" stroke-width="2" /><path d="M39.5,13 c17.598,0 35.11,-1.754 51,-5" fill="none" stroke="#000000" stroke-width="2" /><path d="M95.5,44 c-9.092,-3.862 -18.795,-11.368 -25,-19.5" fill="none" stroke="#000000" stroke-width="2" /><path d="M34.5,45 c15.194,-7.007 26.421,-20.179 29,-33" fill="none" stroke="#000000" stroke-width="2" /><path d="M6,40 c4.103,-9.372 7.465,-21.253 9.5,-34" fill="none" stroke="#000000" stroke-width="2" /><path d="M5.5,90 c9.322,-8.756 16,-27.479 16,-48.5 V21.0" fill="none" stroke="#000000" stroke-width="2" /><path d="M35,81.5 c-4.254,-9.28 -9.063,-19.054 -14,-28.5" fill="none" stroke="#000000" stroke-width="2" /></svg>