<?xml version='1.0' encoding='utf-8'?>
<svg xmlns="http://www.w3.org/2000/svg" height="100px" version="1.0" viewBox="0 0 100 100" width="100px" x="0px" y="0px">
<line fill="none" stroke="#000000" stroke-width="2" x1="37" x2="6" y1="11" y2="11" /><line fill="none" stroke="#000000" stroke-width="2" x1="65" x2="65" y1="15" y2="4" /><line fill="none" stroke="#000000" stroke-width="2" x1="38" x2="94.5" y1="15" y2="15" /><line fill="none" stroke="#000000" stroke-width="2" x1="63" x2="63" y1="50" y2="92" /><polyline fill="none" points="15,81 34,81 34,42.5 14,42.5 14,91" stroke="#000000" stroke-width="2" /><path d="M3,63 c8.673,-11.171 14.006,-26.27 16.5,-52" fill="none" stroke="#000000" stroke-width="2" /><path d="M80.5,49 v37.5 c0,4.716 0.359,5 6,5 c7.725,0 7.91,-0.176 8.5,-22.5" fill="none" stroke="#000000" stroke-width="2" /><path d="M29,93 c11.551,-6.615 19,-21.634 19,-44" fill="none" stroke="#000000" stroke-width="2" /><path d="M94.5,47 c-5.209,-7.398 -12.371,-16.684 -18.5,-24" fill="none" stroke="#000000" stroke-width="2" /><path d="M38,43.5 c14.634,-0.552 33.042,-2.349 50.5,-5" fill="none" stroke="#000000" stroke-width="2" /><path d="M47.5,43 c4.021,-7.727 8.537,-18.17 12,-28" fill="none" stroke="#000000" stroke-width="2" /></svg>