<?xml version='1.0' encoding='utf-8'?>
<svg xmlns="http://www.w3.org/2000/svg" height="100px" version="1.0" viewBox="0 0 100 100" width="100px" x="0px" y="0px">
<line fill="none" stroke="#000000" stroke-width="2" x1="36" x2="6" y1="11" y2="11" /><line fill="none" stroke="#000000" stroke-width="2" x1="95.5" x2="39.5" y1="11" y2="11" /><line fill="none" stroke="#000000" stroke-width="2" x1="42.5" x2="90.5" y1="56.5" y2="56.5" /><line fill="none" stroke="#000000" stroke-width="2" x1="42.5" x2="90.5" y1="39.5" y2="39.5" /><polyline fill="none" points="15,81 34,81 34,42.5 14,42.5 14,91" stroke="#000000" stroke-width="2" /><polyline fill="none" points="91.5,64.5 91.5,23.5 41.5,23.5 41.5,57.5" stroke="#000000" stroke-width="2" /><path d="M3,63 c8.673,-11.171 14.006,-26.27 16.5,-52" fill="none" stroke="#000000" stroke-width="2" /><path d="M30.5,90.5 c24.523,-5.792 36,-19.847 36,-48 V11.0" fill="none" stroke="#000000" stroke-width="2" /><path d="M95.5,90.5 c-19.805,-1.056 -38.6,-11.796 -50,-29" fill="none" stroke="#000000" stroke-width="2" /></svg>