<?xml version='1.0' encoding='utf-8'?>
<svg xmlns="http://www.w3.org/2000/svg" height="100px" version="1.0" viewBox="0 0 100 100" width="100px" x="0px" y="0px">
<line fill="none" stroke="#000000" stroke-width="2" x1="92" x2="8" y1="14" y2="14" /><line fill="none" stroke="#000000" stroke-width="2" x1="7" x2="93" y1="50" y2="50" /><line fill="none" stroke="#000000" stroke-width="2" x1="26" x2="74" y1="38" y2="38" /><line fill="none" stroke="#000000" stroke-width="2" x1="26" x2="74" y1="26" y2="26" /><line fill="none" stroke="#000000" stroke-width="2" x1="25" x2="25" y1="49" y2="3.5" /><line fill="none" stroke="#000000" stroke-width="2" x1="75" x2="75" y1="49" y2="3.5" /><line fill="none" stroke="#000000" stroke-width="2" x1="76" x2="22.5" y1="62" y2="62" /><line fill="none" stroke="#000000" stroke-width="2" x1="25" x2="25" y1="94" y2="74.5" /><line fill="none" stroke="#000000" stroke-width="2" x1="26" x2="80" y1="89" y2="89" /><polyline fill="none" points="25.5,74 81,74 81,94" stroke="#000000" stroke-width="2" /><path d="M36,50 c-7.229,6.608 -17.365,12.341 -31,17" fill="none" stroke="#000000" stroke-width="2" /><path d="M64,50 c7.229,7.387 17.365,13.792 31,19" fill="none" stroke="#000000" stroke-width="2" /><path d="M6,82 c17.389,-5.513 26.195,-10.987 34,-20" fill="none" stroke="#000000" stroke-width="2" /></svg>