<?xml version='1.0' encoding='utf-8'?>
<svg xmlns="http://www.w3.org/2000/svg" height="100px" version="1.0" viewBox="0 0 100 100" width="100px" x="0px" y="0px">
<line fill="none" stroke="#000000" stroke-width="2" x1="35" x2="6" y1="11" y2="11" /><line fill="none" stroke="#000000" stroke-width="2" x1="95" x2="37" y1="15" y2="15" /><line fill="none" stroke="#000000" stroke-width="2" x1="33.5" x2="96" y1="57" y2="57" /><line fill="none" stroke="#000000" stroke-width="2" x1="47.5" x2="83" y1="43" y2="43" /><line fill="none" stroke="#000000" stroke-width="2" x1="47.5" x2="83" y1="29" y2="29" /><line fill="none" stroke="#000000" stroke-width="2" x1="46.5" x2="46.5" y1="56" y2="3.5" /><line fill="none" stroke="#000000" stroke-width="2" x1="84" x2="84" y1="56" y2="3.5" /><line fill="none" stroke="#000000" stroke-width="2" x1="41.5" x2="95" y1="88.5" y2="88.5" /><line fill="none" stroke="#000000" stroke-width="2" x1="41.5" x2="41.5" y1="58" y2="95.5" /><polyline fill="none" points="15,81 33.5,81 33.5,42.5 14,42.5 14,91" stroke="#000000" stroke-width="2" /><path d="M3,63 c8.673,-11.171 14.006,-26.27 16.5,-52" fill="none" stroke="#000000" stroke-width="2" /><path d="M60,57 c0,13.314 -3.721,18.837 -15,23" fill="none" stroke="#000000" stroke-width="2" /><path d="M72,58 v13.5 c0,4.023 0.607,4.5 9.5,4.5 c9.391,0 9.639,-0.242 10,-12.5" fill="none" stroke="#000000" stroke-width="2" /></svg>