<?xml version='1.0' encoding='utf-8'?>
<svg xmlns="http://www.w3.org/2000/svg" height="100px" version="1.0" viewBox="0 0 100 100" width="100px" x="0px" y="0px">
<line fill="none" stroke="#000000" stroke-width="2" x1="46" x2="88" y1="75" y2="75" /><line fill="none" stroke="#000000" stroke-width="2" x1="46" x2="88" y1="61" y2="61" /><line fill="none" stroke="#000000" stroke-width="2" x1="35" x2="5.5" y1="11" y2="11" /><polyline fill="none" points="88.5,35 88.5,9.5 44.5,9.5 44.5,35" stroke="#000000" stroke-width="2" /><polyline fill="none" points="37,55.5 37,36 96,36 96,55.5" stroke="#000000" stroke-width="2" /><polyline fill="none" points="88.5,21.5 62,21.5 62,35" stroke="#000000" stroke-width="2" /><polyline fill="none" points="14.5,83 32,83 32,42.5 13.5,42.5 13.5,93" stroke="#000000" stroke-width="2" /><path d="M45,92 v-45.0 h43.0 v39.0 c0,4.177 -0.291,4.5 -6.5,4.5 c-2.039,0 -5.598,-0.159 -11.5,-0.5" fill="none" stroke="#000000" stroke-width="2" /><path d="M2.5,63 c8.673,-11.171 14.006,-26.27 16.5,-52" fill="none" stroke="#000000" stroke-width="2" /></svg>