<?xml version='1.0' encoding='utf-8'?>
<svg xmlns="http://www.w3.org/2000/svg" height="100px" version="1.0" viewBox="0 0 100 100" width="100px" x="0px" y="0px">
<line fill="none" stroke="#000000" stroke-width="2" x1="51.5" x2="51.5" y1="13.5" y2="3" /><line fill="none" stroke="#000000" stroke-width="2" x1="72" x2="72" y1="51" y2="16.5" /><line fill="none" stroke="#000000" stroke-width="2" x1="91.5" x2="54" y1="25" y2="25" /><line fill="none" stroke="#000000" stroke-width="2" x1="34" x2="34" y1="51" y2="16.5" /><line fill="none" stroke="#000000" stroke-width="2" x1="50" x2="18" y1="25" y2="25" /><line fill="none" stroke="#000000" stroke-width="2" x1="93.5" x2="17.5" y1="55" y2="55" /><line fill="none" stroke="#000000" stroke-width="2" x1="30.5" x2="30.5" y1="94.5" y2="68.344" /><line fill="none" stroke="#000000" stroke-width="2" x1="31.5" x2="85.5" y1="88.5" y2="88.5" /><polyline fill="none" points="31,68 86.5,68 86.5,94.5" stroke="#000000" stroke-width="2" /><path d="M4.5,92 c4.898,-10.415 9,-30.94 9,-47 v-31.5 h80.0" fill="none" stroke="#000000" stroke-width="2" /><path d="M48,49 c11.242,-7.726 18.537,-15.377 23.5,-24" fill="none" stroke="#000000" stroke-width="2" /><path d="M93.5,47.5 c-10.042,-7.29 -16.895,-14.835 -21,-22.5" fill="none" stroke="#000000" stroke-width="2" /><path d="M16.5,47.5 c8.156,-7.261 13.596,-14.595 17,-22.5" fill="none" stroke="#000000" stroke-width="2" /><path d="M48.5,42 c-4.195,-5.29 -9.449,-11.256 -14.5,-16.5" fill="none" stroke="#000000" stroke-width="2" /><path d="M12.5,78.5 c14.592,-6.265 22.752,-12.947 29.5,-23.5" fill="none" stroke="#000000" stroke-width="2" /></svg>