<?xml version='1.0' encoding='utf-8'?>
<svg xmlns="http://www.w3.org/2000/svg" height="100px" version="1.0" viewBox="0 0 100 100" width="100px" x="0px" y="0px">
<line fill="none" stroke="#000000" stroke-width="2" x1="36.5" x2="4.5" y1="24" y2="24" /><line fill="none" stroke="#000000" stroke-width="2" x1="20.5" x2="20.5" y1="24" y2="6" /><line fill="none" stroke="#000000" stroke-width="2" x1="20.5" x2="20.5" y1="94" y2="50" /><line fill="none" stroke="#000000" stroke-width="2" x1="96" x2="36" y1="75.5" y2="75.5" /><line fill="none" stroke="#000000" stroke-width="2" x1="66" x2="66" y1="24.5" y2="94" /><line fill="none" stroke="#000000" stroke-width="2" x1="42" x2="90" y1="41.5" y2="41.5" /><polyline fill="none" points="42,60.5 91,60.5 91,23.5 41,23.5 41,61.5" stroke="#000000" stroke-width="2" /><path d="M36.5,65 c-3.734,-4.671 -9.705,-11.511 -14.5,-16.5" fill="none" stroke="#000000" stroke-width="2" /><path d="M2.5,65.5 c15.794,-10.147 25.825,-22.294 33.068,-40.863" fill="none" stroke="#000000" stroke-width="2" /><path d="M49.5,23.5 c-2.787,-6.308 -5.894,-12.341 -9,-17.5" fill="none" stroke="#000000" stroke-width="2" /><path d="M69,23.5 c-2.776,-6.672 -5.895,-13.046 -9,-18.5" fill="none" stroke="#000000" stroke-width="2" /><path d="M80.5,23.5 c4.311,-6.196 8.073,-12.56 11,-18.5" fill="none" stroke="#000000" stroke-width="2" /></svg>