<?xml version='1.0' encoding='utf-8'?>
<svg xmlns="http://www.w3.org/2000/svg" height="100px" version="1.0" viewBox="0 0 100 100" width="100px" x="0px" y="0px">
<line fill="none" stroke="#000000" stroke-width="2" x1="38.5" x2="4.5" y1="24" y2="24" /><line fill="none" stroke="#000000" stroke-width="2" x1="21.5" x2="21.5" y1="24" y2="6" /><line fill="none" stroke="#000000" stroke-width="2" x1="21.5" x2="21.5" y1="94" y2="50" /><line fill="none" stroke="#000000" stroke-width="2" x1="43.5" x2="87.5" y1="57.5" y2="57.5" /><line fill="none" stroke="#000000" stroke-width="2" x1="43.5" x2="87.5" y1="42.5" y2="42.5" /><line fill="none" stroke="#000000" stroke-width="2" x1="60.5" x2="94.5" y1="13.5" y2="13.5" /><line fill="none" stroke="#000000" stroke-width="2" x1="60.5" x2="60.5" y1="27" y2="4" /><polyline fill="none" points="43.5,73 88.5,73 88.5,28 42.5,28 42.5,74" stroke="#000000" stroke-width="2" /><path d="M40,67 c-4.434,-5.175 -11.332,-12.456 -17,-18" fill="none" stroke="#000000" stroke-width="2" /><path d="M2.5,65.5 c16.756,-10.153 27.396,-22.303 35.077,-40.882" fill="none" stroke="#000000" stroke-width="2" /><path d="M31,92.5 c10.97,-3.83 20.417,-9.102 26,-14" fill="none" stroke="#000000" stroke-width="2" /><path d="M96.5,93.5 c-6.695,-4.882 -15.932,-10.129 -26,-14.5" fill="none" stroke="#000000" stroke-width="2" /></svg>