<?xml version='1.0' encoding='utf-8'?>
<svg xmlns="http://www.w3.org/2000/svg" height="100px" version="1.0" viewBox="0 0 100 100" width="100px" x="0px" y="0px">
<line fill="none" stroke="#000000" stroke-width="2" x1="21" x2="21" y1="94" y2="11.5" /><line fill="none" stroke="#000000" stroke-width="2" x1="35.5" x2="5" y1="33" y2="33" /><line fill="none" stroke="#000000" stroke-width="2" x1="41.5" x2="41.5" y1="6" y2="68.5" /><line fill="none" stroke="#000000" stroke-width="2" x1="95" x2="32" y1="17" y2="17" /><line fill="none" stroke="#000000" stroke-width="2" x1="85.5" x2="85.5" y1="68.5" y2="6" /><line fill="none" stroke="#000000" stroke-width="2" x1="31" x2="96" y1="69.5" y2="69.5" /><line fill="none" stroke="#000000" stroke-width="2" x1="42.5" x2="85.5" y1="51.5" y2="51.5" /><line fill="none" stroke="#000000" stroke-width="2" x1="42.5" x2="85.5" y1="34" y2="34" /><path d="M36,8 c-10.381,2.732 -20.033,4.682 -30,6" fill="none" stroke="#000000" stroke-width="2" /><path d="M4,72.5 c7.954,-13.023 13.176,-25.655 16.5,-40" fill="none" stroke="#000000" stroke-width="2" /><path d="M36.5,60 c-4.745,-8.381 -9.939,-17.356 -15,-26" fill="none" stroke="#000000" stroke-width="2" /><path d="M30.5,92 c10.971,-4.65 20.439,-11.01 26,-17" fill="none" stroke="#000000" stroke-width="2" /><path d="M94.5,93 c-6.694,-5.892 -15.932,-12.185 -26,-17.5" fill="none" stroke="#000000" stroke-width="2" /></svg>