<?xml version='1.0' encoding='utf-8'?>
<svg xmlns="http://www.w3.org/2000/svg" height="100px" version="1.0" viewBox="0 0 100 100" width="100px" x="0px" y="0px">
<line fill="none" stroke="#000000" stroke-width="2" x1="17.5" x2="17.5" y1="94" y2="11" /><line fill="none" stroke="#000000" stroke-width="2" x1="29" x2="3.5" y1="33" y2="33" /><line fill="none" stroke="#000000" stroke-width="2" x1="44.5" x2="44.5" y1="89.5" y2="70.5" /><line fill="none" stroke="#000000" stroke-width="2" x1="50" x2="50" y1="27" y2="58.5" /><line fill="none" stroke="#000000" stroke-width="2" x1="73" x2="73" y1="27" y2="58.5" /><line fill="none" stroke="#000000" stroke-width="2" x1="30" x2="94" y1="35.5" y2="35.5" /><line fill="none" stroke="#000000" stroke-width="2" x1="27.5" x2="95.5" y1="59.5" y2="59.5" /><line fill="none" stroke="#000000" stroke-width="2" x1="92" x2="31" y1="47.5" y2="47.5" /><line fill="none" stroke="#000000" stroke-width="2" x1="61.5" x2="61.5" y1="13" y2="4" /><line fill="none" stroke="#000000" stroke-width="2" x1="27.5" x2="95.5" y1="13" y2="13" /><path d="M28,8 c-8.131,2.732 -15.691,4.682 -23.5,6" fill="none" stroke="#000000" stroke-width="2" /><path d="M2.5,72.5 c6.99,-13.023 11.578,-25.655 14.5,-40" fill="none" stroke="#000000" stroke-width="2" /><path d="M28,56 c-3.163,-7.091 -6.627,-14.7 -10,-22.015" fill="none" stroke="#000000" stroke-width="2" /><path d="M59.5,59.5 c-7.965,7.461 -19.439,14.146 -35,19.5" fill="none" stroke="#000000" stroke-width="2" /><path d="M61.5,59.5 c5.756,14.544 18.567,26.905 35,33" fill="none" stroke="#000000" stroke-width="2" /><path d="M29,92.5 c13.8,-2.06 25.747,-4.745 40,-9" fill="none" stroke="#000000" stroke-width="2" /><path d="M73,77.5 c6.473,-3.99 12.593,-8.927 17.5,-14" fill="none" stroke="#000000" stroke-width="2" /><path d="M30,29.5 c9.641,-3.033 18.124,-7.202 24,-11.5" fill="none" stroke="#000000" stroke-width="2" /><path d="M93,29.5 c-6.027,-3.776 -14.561,-7.922 -24,-11.5" fill="none" stroke="#000000" stroke-width="2" /></svg>