<?xml version='1.0' encoding='utf-8'?>
<svg xmlns="http://www.w3.org/2000/svg" height="100px" version="1.0" viewBox="0 0 100 100" width="100px" x="0px" y="0px">
<line fill="none" stroke="#000000" stroke-width="2" x1="17.5" x2="17.5" y1="94" y2="11.5" /><line fill="none" stroke="#000000" stroke-width="2" x1="28.5" x2="3.5" y1="33" y2="33" /><line fill="none" stroke="#000000" stroke-width="2" x1="31" x2="94" y1="12" y2="12" /><line fill="none" stroke="#000000" stroke-width="2" x1="48.5" x2="48.5" y1="18.5" y2="4" /><line fill="none" stroke="#000000" stroke-width="2" x1="76.5" x2="76.5" y1="18.5" y2="4" /><line fill="none" stroke="#000000" stroke-width="2" x1="64.5" x2="64.5" y1="55.5" y2="26" /><line fill="none" stroke="#000000" stroke-width="2" x1="93" x2="36.5" y1="25" y2="25" /><line fill="none" stroke="#000000" stroke-width="2" x1="36.5" x2="90.5" y1="35.5" y2="35.5" /><line fill="none" stroke="#000000" stroke-width="2" x1="36.5" x2="90.5" y1="46" y2="46" /><line fill="none" stroke="#000000" stroke-width="2" x1="31" x2="89.5" y1="64.5" y2="64.5" /><polyline fill="none" points="36.5,25 36.5,56.5 93,56.5" stroke="#000000" stroke-width="2" /><path d="M29.5,8 c-8.649,2.732 -16.692,4.682 -25,6" fill="none" stroke="#000000" stroke-width="2" /><path d="M2.5,72.5 c6.99,-13.023 11.578,-25.655 14.5,-40" fill="none" stroke="#000000" stroke-width="2" /><path d="M29.5,61 c-3.638,-8.702 -7.621,-18.022 -11.5,-27" fill="none" stroke="#000000" stroke-width="2" /><path d="M26.5,37.5 c7.143,-7.249 11.872,-14.226 15,-22" fill="none" stroke="#000000" stroke-width="2" /><path d="M69,15.5 c-1.521,3.671 -2.678,6.13 -4.5,9.5" fill="none" stroke="#000000" stroke-width="2" /><path d="M28,90.5 c26.914,-3.495 51.109,-14.689 60.749,-25.66" fill="none" stroke="#000000" stroke-width="2" /><path d="M95.5,90.5 c-21.684,-2.941 -44.646,-12.462 -56,-22.5" fill="none" stroke="#000000" stroke-width="2" /></svg>