<?xml version='1.0' encoding='utf-8'?>
<svg xmlns="http://www.w3.org/2000/svg" height="100px" version="1.0" viewBox="0 0 100 100" width="100px" x="0px" y="0px">
<line fill="none" stroke="#000000" stroke-width="2" x1="50" x2="50" y1="15.5" y2="3" /><line fill="none" stroke="#000000" stroke-width="2" x1="7" x2="93" y1="57" y2="57" /><polyline fill="none" points="90,30.5 90,15.5 10,15.5 10,33.5" stroke="#000000" stroke-width="2" /><path d="M58,16.5 v23.5 c0,3.327 0.76,4.028 5.5,4.3 c2.352,0.135 4.934,0.2 7.5,0.2 c2.659,0 5.135,-0.063 7.5,-0.2 c7.811,-0.451 8.473,-1.053 9.5,-9.8" fill="none" stroke="#000000" stroke-width="2" /><path d="M10,46 c21.297,-5.941 32,-17.039 32,-29.5" fill="none" stroke="#000000" stroke-width="2" /><path d="M9,91 c24.935,-6.655 41,-23.016 41,-38 v-9.0" fill="none" stroke="#000000" stroke-width="2" /><path d="M91,91 c-24.935,-6.654 -41,-23.016 -41,-38" fill="none" stroke="#000000" stroke-width="2" /></svg>