<?xml version='1.0' encoding='utf-8'?>
<svg xmlns="http://www.w3.org/2000/svg" height="100px" version="1.0" viewBox="0 0 100 100" width="100px" x="0px" y="0px">
<line fill="none" stroke="#000000" stroke-width="2" x1="5.5" x2="35.5" y1="25" y2="25" /><line fill="none" stroke="#000000" stroke-width="2" x1="20.5" x2="20.5" y1="25" y2="7" /><line fill="none" stroke="#000000" stroke-width="2" x1="50" x2="90" y1="56" y2="56" /><path d="M5.5,87 c10.165,-2.489 18.964,-5.403 30,-10" fill="none" stroke="#000000" stroke-width="2" /><path d="M25,81 c2.68,-13.673 4.975,-30.976 6.5,-49.5" fill="none" stroke="#000000" stroke-width="2" /><path d="M14.5,73.5 c-1.303,-13.792 -2.887,-28.188 -4.5,-41.5" fill="none" stroke="#000000" stroke-width="2" /><path d="M34,70 c9.689,-6.013 19.684,-16.972 23,-24.5" fill="none" stroke="#000000" stroke-width="2" /><path d="M89.135,56.497 c-9.754,16.804 -30.607,30.369 -57.635,35.503" fill="none" stroke="#000000" stroke-width="2" /><path d="M96.5,92 c-20.262,-7.034 -37.932,-19.698 -48,-34" fill="none" stroke="#000000" stroke-width="2" /><path d="M72.5,24 v19.0 c0,4.302 0.222,4.5 11,4.5 c10.191,0 10.388,-0.177 11.5,-12" fill="none" stroke="#000000" stroke-width="2" /><path d="M46,25.5 c4.814,-6.438 9.554,-13.655 13.5,-20.5" fill="none" stroke="#000000" stroke-width="2" /><path d="M94.5,29 c-5.086,-6.704 -12.021,-15.22 -18,-22" fill="none" stroke="#000000" stroke-width="2" /><path d="M38,26 c16.444,-0.391 34.391,-1.651 51.5,-3.5" fill="none" stroke="#000000" stroke-width="2" /><path d="M34.5,51.5 c14.432,-4.537 23.262,-14.329 24,-26.5" fill="none" stroke="#000000" stroke-width="2" /></svg>