<?xml version='1.0' encoding='utf-8'?>
<svg xmlns="http://www.w3.org/2000/svg" height="100px" version="1.0" viewBox="0 0 100 100" width="100px" x="0px" y="0px">
<line fill="none" stroke="#000000" stroke-width="2" x1="5" x2="35" y1="25" y2="25" /><line fill="none" stroke="#000000" stroke-width="2" x1="20" x2="20" y1="25" y2="7" /><line fill="none" stroke="#000000" stroke-width="2" x1="40.5" x2="89.5" y1="55" y2="55" /><line fill="none" stroke="#000000" stroke-width="2" x1="65" x2="65" y1="94" y2="5" /><line fill="none" stroke="#000000" stroke-width="2" x1="34.5" x2="94.5" y1="16" y2="16" /><polyline fill="none" points="90.5,56 90.5,30 39.5,30 39.5,56" stroke="#000000" stroke-width="2" /><path d="M5,87 c10.165,-3.235 18.964,-7.024 30,-13" fill="none" stroke="#000000" stroke-width="2" /><path d="M25,79 c2.474,-13.12 4.592,-29.724 6,-47.5" fill="none" stroke="#000000" stroke-width="2" /><path d="M14,73.5 c-1.303,-13.792 -2.887,-28.188 -4.5,-41.5" fill="none" stroke="#000000" stroke-width="2" /><path d="M31.5,87 c16.475,-10.81 27.121,-21.849 32.5,-32" fill="none" stroke="#000000" stroke-width="2" /><path d="M95.5,87 c-12.752,-9.184 -21.631,-18.817 -29.5,-32" fill="none" stroke="#000000" stroke-width="2" /></svg>