<?xml version='1.0' encoding='utf-8'?>
<svg xmlns="http://www.w3.org/2000/svg" height="100px" version="1.0" viewBox="0 0 100 100" width="100px" x="0px" y="0px">
<line fill="none" stroke="#000000" stroke-width="2" x1="94" x2="57" y1="14" y2="14" /><line fill="none" stroke="#000000" stroke-width="2" x1="50" x2="17.5" y1="14" y2="14" /><line fill="none" stroke="#000000" stroke-width="2" x1="77.5" x2="22.5" y1="46" y2="46" /><polyline fill="none" points="29.5,87 29.5,57.5 70.5,57.5 70.5,80 30.5,80" stroke="#000000" stroke-width="2" /><path d="M34,29 c-1.833,-4.87 -3.895,-10.029 -6,-15" fill="none" stroke="#000000" stroke-width="2" /><path d="M75,29 c-1.833,-4.87 -3.895,-10.029 -6,-15" fill="none" stroke="#000000" stroke-width="2" /><path d="M23,4 c-3.148,7.932 -9.355,16.47 -17,23" fill="none" stroke="#000000" stroke-width="2" /><path d="M12,93 v-59.0 h76.0 v51.5 c0,5.396 -0.695,6 -8,6 c-2.578,0 -7.353,-0.166 -15,-0.5" fill="none" stroke="#000000" stroke-width="2" /><path d="M63,4 c-3.717,8.452 -11.482,17.896 -21,25" fill="none" stroke="#000000" stroke-width="2" /></svg>