<?xml version='1.0' encoding='utf-8'?>
<svg xmlns="http://www.w3.org/2000/svg" height="100px" version="1.0" viewBox="0 0 100 100" width="100px" x="0px" y="0px">
<line fill="none" stroke="#000000" stroke-width="2" x1="94" x2="57" y1="13" y2="13" /><line fill="none" stroke="#000000" stroke-width="2" x1="51" x2="17.5" y1="13" y2="13" /><line fill="none" stroke="#000000" stroke-width="2" x1="28" x2="28" y1="94" y2="24" /><line fill="none" stroke="#000000" stroke-width="2" x1="47" x2="6" y1="59.5" y2="59.5" /><line fill="none" stroke="#000000" stroke-width="2" x1="46" x2="7.5" y1="35.5" y2="35.5" /><line fill="none" stroke="#000000" stroke-width="2" x1="45.5" x2="9" y1="47.5" y2="47.5" /><line fill="none" stroke="#000000" stroke-width="2" x1="52.5" x2="89" y1="89" y2="89" /><line fill="none" stroke="#000000" stroke-width="2" x1="52.5" x2="89" y1="74" y2="74" /><line fill="none" stroke="#000000" stroke-width="2" x1="47.5" x2="94" y1="51" y2="51" /><line fill="none" stroke="#000000" stroke-width="2" x1="48.5" x2="93" y1="33.5" y2="33.5" /><line fill="none" stroke="#000000" stroke-width="2" x1="59" x2="59" y1="50" y2="24" /><line fill="none" stroke="#000000" stroke-width="2" x1="82.5" x2="82.5" y1="50" y2="24" /><polyline fill="none" points="90,94 90,60 51.5,60 51.5,94" stroke="#000000" stroke-width="2" /><path d="M34,28 c-1.833,-4.87 -3.895,-10.03 -6,-15" fill="none" stroke="#000000" stroke-width="2" /><path d="M74,28 c-1.833,-4.87 -3.895,-10.03 -6,-15" fill="none" stroke="#000000" stroke-width="2" /><path d="M23,3 c-3.148,7.932 -9.355,16.47 -17,23" fill="none" stroke="#000000" stroke-width="2" /><path d="M63,3 c-3.717,8.452 -11.482,17.896 -21,25" fill="none" stroke="#000000" stroke-width="2" /><path d="M5,87 c10.606,-9.065 17.803,-18.11 22.5,-28" fill="none" stroke="#000000" stroke-width="2" /><path d="M46.5,81 c-5.123,-6.696 -11.778,-14.495 -18,-21" fill="none" stroke="#000000" stroke-width="2" /></svg>