<?xml version='1.0' encoding='utf-8'?>
<svg xmlns="http://www.w3.org/2000/svg" height="100px" version="1.0" viewBox="0 0 100 100" width="100px" x="0px" y="0px">
<line fill="none" stroke="#000000" stroke-width="2" x1="94" x2="56" y1="12" y2="12" /><line fill="none" stroke="#000000" stroke-width="2" x1="50" x2="17.5" y1="12" y2="12" /><line fill="none" stroke="#000000" stroke-width="2" x1="5.5" x2="49.5" y1="45" y2="45" /><line fill="none" stroke="#000000" stroke-width="2" x1="7" x2="49" y1="29" y2="29" /><line fill="none" stroke="#000000" stroke-width="2" x1="28" x2="28" y1="29" y2="20" /><line fill="none" stroke="#000000" stroke-width="2" x1="55" x2="91" y1="59" y2="59" /><line fill="none" stroke="#000000" stroke-width="2" x1="55" x2="91" y1="69.5" y2="69.5" /><line fill="none" stroke="#000000" stroke-width="2" x1="55" x2="91" y1="80" y2="80" /><line fill="none" stroke="#000000" stroke-width="2" x1="93" x2="55" y1="27.5" y2="27.5" /><line fill="none" stroke="#000000" stroke-width="2" x1="11.5" x2="44" y1="76.5" y2="76.5" /><line fill="none" stroke="#000000" stroke-width="2" x1="11.5" x2="44" y1="65" y2="65" /><path d="M34,23 c-1.833,-3.571 -3.895,-7.356 -6,-11" fill="none" stroke="#000000" stroke-width="2" /><path d="M74,23 c-1.833,-3.571 -3.895,-7.356 -6,-11" fill="none" stroke="#000000" stroke-width="2" /><path d="M23,3 c-3.148,7.242 -9.377,15.01 -17,21" fill="none" stroke="#000000" stroke-width="2" /><path d="M63,3 c-3.74,6.749 -11.482,14.317 -21,20" fill="none" stroke="#000000" stroke-width="2" /><path d="M35,45 c2.904,-4.534 5.314,-9.97 7,-16" fill="none" stroke="#000000" stroke-width="2" /><path d="M21,45 c-2.053,-5.368 -4.374,-10.692 -7,-16" fill="none" stroke="#000000" stroke-width="2" /><path d="M95.5,80 c-1.217,11.703 -1.613,12 -22,12 c-18.258,0 -18.5,-0.233 -18.5,-7 V48.5 h36.0 V38.0 h-36.0 v-17.5" fill="none" stroke="#000000" stroke-width="2" /><path d="M10.5,92.5 v-39.0 h34.5 V87.0 c0,3.652 -0.359,4 -6.5,4 c-1.868,0 -4.805,-0.126 -10.5,-0.5" fill="none" stroke="#000000" stroke-width="2" /></svg>