<?xml version='1.0' encoding='utf-8'?>
<svg xmlns="http://www.w3.org/2000/svg" height="100px" version="1.0" viewBox="0 0 100 100" width="100px" x="0px" y="0px">
<line fill="none" stroke="#000000" stroke-width="2" x1="38" x2="95.5" y1="11" y2="11" /><line fill="none" stroke="#000000" stroke-width="2" x1="41.5" x2="89.5" y1="53.5" y2="53.5" /><line fill="none" stroke="#000000" stroke-width="2" x1="20.5" x2="20.5" y1="94" y2="6" /><line fill="none" stroke="#000000" stroke-width="2" x1="36" x2="4" y1="39" y2="39" /><path d="M31.5,92 c6.623,-8.875 10,-20.117 10,-36 v-31.0 h49.0 v35.5" fill="none" stroke="#000000" stroke-width="2" /><path d="M3,79.5 c8.184,-13.373 13.541,-26.336 17,-41" fill="none" stroke="#000000" stroke-width="2" /><path d="M34,71 c-3.898,-10.039 -8.42,-20.818 -13,-31" fill="none" stroke="#000000" stroke-width="2" /><path d="M15,34 c-2.652,-7.823 -5.872,-15.646 -9,-22" fill="none" stroke="#000000" stroke-width="2" /><path d="M26,34 c3.673,-7.122 7.027,-15.65 9,-23" fill="none" stroke="#000000" stroke-width="2" /></svg>