<?xml version='1.0' encoding='utf-8'?>
<svg xmlns="http://www.w3.org/2000/svg" height="100px" version="1.0" viewBox="0 0 100 100" width="100px" x="0px" y="0px">
<line fill="none" stroke="#000000" stroke-width="2" x1="4.5" x2="95.5" y1="26" y2="26" /><line fill="none" stroke="#000000" stroke-width="2" x1="50" x2="50" y1="93.5" y2="3.5" /><line fill="none" stroke="#000000" stroke-width="2" x1="81" x2="19" y1="63" y2="63" /><line fill="none" stroke="#000000" stroke-width="2" x1="86.5" x2="86.5" y1="43.5" y2="93.5" /><polyline fill="none" points="15.5,38.5 82.5,38.5 82.5,13.5 15.5,13.5" stroke="#000000" stroke-width="2" /><path d="M81.5,90.5 c-12.108,-12.121 -21.564,-20.563 -30.5,-27.5" fill="none" stroke="#000000" stroke-width="2" /><path d="M16.5,89.5 c14.957,-7.812 25.534,-16.717 32.5,-26.5" fill="none" stroke="#000000" stroke-width="2" /><path d="M37.5,59.5 c-3.992,-5.657 -8.363,-11.241 -12.5,-16" fill="none" stroke="#000000" stroke-width="2" /><path d="M62.5,59.5 c5.01,-5.089 9.528,-10.915 12.5,-16" fill="none" stroke="#000000" stroke-width="2" /><path d="M4.5,93.5 c5.664,-7.128 9,-17.853 9,-32.5 v-17.5" fill="none" stroke="#000000" stroke-width="2" /></svg>