<?xml version='1.0' encoding='utf-8'?>
<svg xmlns="http://www.w3.org/2000/svg" height="100px" version="1.0" viewBox="0 0 100 100" width="100px" x="0px" y="0px">
<line fill="none" stroke="#000000" stroke-width="2" x1="20.5" x2="20.5" y1="94" y2="6" /><line fill="none" stroke="#000000" stroke-width="2" x1="35.5" x2="4" y1="39" y2="39" /><line fill="none" stroke="#000000" stroke-width="2" x1="95.5" x2="38.5" y1="11" y2="11" /><line fill="none" stroke="#000000" stroke-width="2" x1="41.5" x2="90.5" y1="56.5" y2="56.5" /><line fill="none" stroke="#000000" stroke-width="2" x1="41.5" x2="90.5" y1="39.5" y2="39.5" /><polyline fill="none" points="91.5,64.5 91.5,23.5 40.5,23.5 40.5,57.5" stroke="#000000" stroke-width="2" /><path d="M3,79.5 c8.184,-13.373 13.541,-26.336 17,-41" fill="none" stroke="#000000" stroke-width="2" /><path d="M37,71 c-4.798,-10.039 -10.362,-20.818 -16,-31" fill="none" stroke="#000000" stroke-width="2" /><path d="M15,34 c-2.652,-7.823 -5.872,-15.646 -9,-22" fill="none" stroke="#000000" stroke-width="2" /><path d="M26,34 c3.673,-7.122 7.027,-15.65 9,-23" fill="none" stroke="#000000" stroke-width="2" /><path d="M30,90.5 c24.523,-5.792 36,-19.847 36,-48 V11.0" fill="none" stroke="#000000" stroke-width="2" /><path d="M95.5,90.5 c-20.201,-1.056 -39.371,-11.796 -51,-29" fill="none" stroke="#000000" stroke-width="2" /></svg>