<?xml version='1.0' encoding='utf-8'?>
<svg xmlns="http://www.w3.org/2000/svg" height="100px" version="1.0" viewBox="0 0 100 100" width="100px" x="0px" y="0px">
<line fill="none" stroke="#000000" stroke-width="2" x1="20.5" x2="20.5" y1="94" y2="6" /><line fill="none" stroke="#000000" stroke-width="2" x1="35.5" x2="4" y1="39" y2="39" /><line fill="none" stroke="#000000" stroke-width="2" x1="95" x2="34" y1="15" y2="15" /><line fill="none" stroke="#000000" stroke-width="2" x1="31.5" x2="96" y1="57" y2="57" /><line fill="none" stroke="#000000" stroke-width="2" x1="45" x2="82.5" y1="43" y2="43" /><line fill="none" stroke="#000000" stroke-width="2" x1="45" x2="82.5" y1="29" y2="29" /><line fill="none" stroke="#000000" stroke-width="2" x1="44" x2="44" y1="56" y2="3.5" /><line fill="none" stroke="#000000" stroke-width="2" x1="83.5" x2="83.5" y1="56" y2="3.5" /><line fill="none" stroke="#000000" stroke-width="2" x1="38.5" x2="95" y1="88.5" y2="88.5" /><line fill="none" stroke="#000000" stroke-width="2" x1="38.5" x2="38.5" y1="58" y2="95.5" /><path d="M3,79.5 c8.184,-13.373 13.541,-26.336 17,-41" fill="none" stroke="#000000" stroke-width="2" /><path d="M31.5,64.5 c-3.08,-7.931 -6.783,-16.501 -10.5,-24.5" fill="none" stroke="#000000" stroke-width="2" /><path d="M15,34 c-2.652,-7.823 -5.872,-15.646 -9,-22" fill="none" stroke="#000000" stroke-width="2" /><path d="M26,34 c3.673,-7.122 7.027,-15.65 9,-23" fill="none" stroke="#000000" stroke-width="2" /><path d="M57.5,57 c0,13.314 -3.721,18.837 -15,23" fill="none" stroke="#000000" stroke-width="2" /><path d="M70,58 v13.5 c0,4.023 0.607,4.5 10,4.5 c9.891,0 10.139,-0.241 10.5,-12.5" fill="none" stroke="#000000" stroke-width="2" /></svg>