<?xml version='1.0' encoding='utf-8'?>
<svg xmlns="http://www.w3.org/2000/svg" height="100px" version="1.0" viewBox="0 0 100 100" width="100px" x="0px" y="0px">
<line fill="none" stroke="#000000" stroke-width="2" x1="5.5" x2="42" y1="52" y2="50" /><line fill="none" stroke="#000000" stroke-width="2" x1="26" x2="26" y1="51" y2="94" /><line fill="none" stroke="#000000" stroke-width="2" x1="97.5" x2="45" y1="22" y2="22" /><path d="M44,57.5 c-1.619,-7.545 -4.385,-16.581 -7.5,-24.101" fill="none" stroke="#000000" stroke-width="2" /><path d="M7.5,87.5 c3.402,-9.126 5.666,-19.038 6.5,-28.5" fill="none" stroke="#000000" stroke-width="2" /><path d="M41.5,84.5 c-0.695,-7.639 -2.25,-17.88 -4,-26" fill="none" stroke="#000000" stroke-width="2" /><path d="M12.5,51.5 c10.08,-11.431 18.977,-23.412 27,-36.5" fill="none" stroke="#000000" stroke-width="2" /><path d="M21,41 c-3.684,-6.554 -8.887,-15.377 -13,-22" fill="none" stroke="#000000" stroke-width="2" /><path d="M13,27.5 c5.096,-7.057 9.62,-14.042 14,-21.5" fill="none" stroke="#000000" stroke-width="2" /><path d="M86.5,6 v75.5 c0,9.353 -0.62,10 -7,10 c-3.172,0 -9.749,-0.194 -16,-0.5" fill="none" stroke="#000000" stroke-width="2" /><path d="M66.5,66 c-3.807,-9.632 -9.448,-20.955 -15,-30" fill="none" stroke="#000000" stroke-width="2" /></svg>