<?xml version='1.0' encoding='utf-8'?>
<svg xmlns="http://www.w3.org/2000/svg" height="100px" version="1.0" viewBox="0 0 100 100" width="100px" x="0px" y="0px">
<line fill="none" stroke="#000000" stroke-width="2" x1="4.5" x2="36.5" y1="52" y2="50" /><line fill="none" stroke="#000000" stroke-width="2" x1="22" x2="22" y1="51" y2="94" /><path d="M38,57.5 c-1.403,-7.545 -3.801,-16.481 -6.5,-24" fill="none" stroke="#000000" stroke-width="2" /><path d="M6.5,87.5 c2.879,-9.126 4.795,-19.038 5.5,-28.5" fill="none" stroke="#000000" stroke-width="2" /><path d="M10.5,51.5 c8.773,-11.431 16.518,-23.412 23.5,-36.5" fill="none" stroke="#000000" stroke-width="2" /><path d="M18,41 c-3.258,-6.554 -7.862,-15.377 -11.5,-22" fill="none" stroke="#000000" stroke-width="2" /><path d="M11,27.5 c4.367,-7.057 8.246,-14.042 12,-21.5" fill="none" stroke="#000000" stroke-width="2" /><path d="M37,84.5 c-0.682,-6.759 -2.527,-18.755 -4,-26" fill="none" stroke="#000000" stroke-width="2" /><path d="M97,51 c-3.492,-11.877 -7.934,-24.076 -13,-35.5" fill="none" stroke="#000000" stroke-width="2" /><path d="M70.16,6 v46.0 c0,7.429 -0.467,8 -5.66,8 c-1.541,0 -4.982,-0.14 -10.5,-0.5" fill="none" stroke="#000000" stroke-width="2" /><path d="M41.5,53.5 c5.146,-10.377 9.494,-23.916 12,-38" fill="none" stroke="#000000" stroke-width="2" /><path d="M90,47.5 c-7.051,23.317 -25.97,40.059 -51,45" fill="none" stroke="#000000" stroke-width="2" /></svg>