<?xml version='1.0' encoding='utf-8'?>
<svg xmlns="http://www.w3.org/2000/svg" height="100px" version="1.0" viewBox="0 0 100 100" width="100px" x="0px" y="0px">
<line fill="none" stroke="#000000" stroke-width="2" x1="5" x2="40.5" y1="52" y2="50" /><line fill="none" stroke="#000000" stroke-width="2" x1="25" x2="25" y1="51" y2="94" /><path d="M61.5,9 c-4.262,13.789 -10.697,26.302 -19,37" fill="none" stroke="#000000" stroke-width="2" /><path d="M78.5,9 c4.447,13.727 10.902,26.112 19,37" fill="none" stroke="#000000" stroke-width="2" /><path d="M39,91.5 c15.73,-9.876 24.555,-25.528 26,-50.5" fill="none" stroke="#000000" stroke-width="2" /><path d="M50,41 h39.5 c0,43.915 -2.693,49 -10.5,49 c-3.629,0 -8.668,-0.168 -13.5,-0.5" fill="none" stroke="#000000" stroke-width="2" /><path d="M42,56.5 c-1.619,-7.545 -4.385,-16.48 -7.5,-24" fill="none" stroke="#000000" stroke-width="2" /><path d="M7,87.5 c3.402,-9.126 5.666,-19.038 6.5,-28.5" fill="none" stroke="#000000" stroke-width="2" /><path d="M39,83 c-0.682,-6.329 -2.549,-17.711 -4,-24.5" fill="none" stroke="#000000" stroke-width="2" /><path d="M12,51.5 c10.08,-11.431 18.977,-23.412 27,-36.5" fill="none" stroke="#000000" stroke-width="2" /><path d="M20.5,41 c-3.684,-6.554 -8.887,-15.377 -13,-22" fill="none" stroke="#000000" stroke-width="2" /><path d="M12.5,27.5 c5.096,-7.057 9.62,-14.042 14,-21.5" fill="none" stroke="#000000" stroke-width="2" /></svg>