<?xml version='1.0' encoding='utf-8'?>
<svg xmlns="http://www.w3.org/2000/svg" height="100px" version="1.0" viewBox="0 0 100 100" width="100px" x="0px" y="0px">
<line fill="none" stroke="#000000" stroke-width="2" x1="29.5" x2="29.5" y1="6" y2="40" /><line fill="none" stroke="#000000" stroke-width="2" x1="14" x2="14" y1="11.5" y2="42" /><line fill="none" stroke="#000000" stroke-width="2" x1="51" x2="29.5" y1="19" y2="19" /><line fill="none" stroke="#000000" stroke-width="2" x1="88.5" x2="7" y1="66.5" y2="68.5" /><line fill="none" stroke="#000000" stroke-width="2" x1="50" x2="50" y1="67.5" y2="94" /><path d="M7,43 c18.746,-2.406 34.885,-5.194 44.5,-7.5" fill="none" stroke="#000000" stroke-width="2" /><path d="M57,6 v29.5 c0,3.896 0.834,4.5 15,4.5 c17.793,0 18.143,-0.306 20,-14.5" fill="none" stroke="#000000" stroke-width="2" /><path d="M57,22.5 c11.74,-2.677 21.984,-6.337 34,-12" fill="none" stroke="#000000" stroke-width="2" /><path d="M41.5,61 c-6.285,-4.294 -14.459,-9.62 -21.5,-14" fill="none" stroke="#000000" stroke-width="2" /><path d="M9,88.5 c11.341,-4.729 20.537,-9.846 27.5,-15" fill="none" stroke="#000000" stroke-width="2" /><path d="M91,89.5 c-8.031,-5.229 -17.8,-10.671 -29,-16" fill="none" stroke="#000000" stroke-width="2" /><path d="M26.5,68 c17.381,-7.557 32.813,-15.556 46.5,-24" fill="none" stroke="#000000" stroke-width="2" /><path d="M28,52 c7.442,-3.866 13.791,-7.553 20,-11.5" fill="none" stroke="#000000" stroke-width="2" /><path d="M95,72 c-5.668,-5.065 -13.382,-11.406 -20,-16.5" fill="none" stroke="#000000" stroke-width="2" /></svg>