<?xml version='1.0' encoding='utf-8'?>
<svg xmlns="http://www.w3.org/2000/svg" height="100px" version="1.0" viewBox="0 0 100 100" width="100px" x="0px" y="0px">
<line fill="none" stroke="#000000" stroke-width="2" x1="4" x2="39.5" y1="52" y2="50" /><line fill="none" stroke="#000000" stroke-width="2" x1="24" x2="24" y1="51" y2="94" /><line fill="none" stroke="#000000" stroke-width="2" x1="67.621" x2="67.621" y1="19" y2="4.5" /><line fill="none" stroke="#000000" stroke-width="2" x1="40" x2="95.5" y1="19" y2="19" /><path d="M41,56.5 c-1.619,-7.545 -4.385,-16.48 -7.5,-24" fill="none" stroke="#000000" stroke-width="2" /><path d="M6,87.5 c3.402,-9.126 5.666,-19.038 6.5,-28.5" fill="none" stroke="#000000" stroke-width="2" /><path d="M38,83 c-0.682,-6.329 -2.549,-17.711 -4,-24.5" fill="none" stroke="#000000" stroke-width="2" /><path d="M11,51.5 c10.08,-11.431 18.977,-23.412 27,-36.5" fill="none" stroke="#000000" stroke-width="2" /><path d="M19.5,41 c-3.684,-6.554 -8.887,-15.377 -13,-22" fill="none" stroke="#000000" stroke-width="2" /><path d="M11.5,27.5 c5.096,-7.057 9.62,-14.042 14,-21.5" fill="none" stroke="#000000" stroke-width="2" /><path d="M65.5,65.5 c-7.055,-9.554 -16.327,-20.94 -24.5,-30" fill="none" stroke="#000000" stroke-width="2" /><path d="M46.5,88.5 c15.242,-17.072 28.631,-35.124 40.5,-54.5" fill="none" stroke="#000000" stroke-width="2" /><path d="M49,44.5 c6.564,-7.953 12.695,-16.633 18,-25.5" fill="none" stroke="#000000" stroke-width="2" /><path d="M95.5,92 c-3.529,-8.647 -9.796,-21.124 -16,-31.5" fill="none" stroke="#000000" stroke-width="2" /><path d="M36,89 c16.839,-0.769 36.337,-3.035 55,-6.5" fill="none" stroke="#000000" stroke-width="2" /></svg>