<?xml version='1.0' encoding='utf-8'?>
<svg xmlns="http://www.w3.org/2000/svg" height="100px" version="1.0" viewBox="0 0 100 100" width="100px" x="0px" y="0px">
<line fill="none" stroke="#000000" stroke-width="2" x1="72.5" x2="72.5" y1="82.5" y2="6.5" /><line fill="none" stroke="#000000" stroke-width="2" x1="95" x2="50" y1="41.5" y2="41.5" /><line fill="none" stroke="#000000" stroke-width="2" x1="46" x2="95.5" y1="87" y2="87" /><line fill="none" stroke="#000000" stroke-width="2" x1="46" x2="46" y1="7.5" y2="94" /><line fill="none" stroke="#000000" stroke-width="2" x1="3.5" x2="40" y1="52" y2="50" /><line fill="none" stroke="#000000" stroke-width="2" x1="23.5" x2="23.5" y1="51" y2="94" /><path d="M50,76 c10.348,-11.276 17.121,-22.161 21.5,-34.5" fill="none" stroke="#000000" stroke-width="2" /><path d="M93,76.5 c-6.02,-11.05 -12.895,-23.162 -19.5,-34.5" fill="none" stroke="#000000" stroke-width="2" /><path d="M64.5,36 c-3.467,-8.558 -7.503,-17.004 -11.5,-24" fill="none" stroke="#000000" stroke-width="2" /><path d="M80.5,36 c4.676,-7.833 8.875,-17.012 11.5,-25" fill="none" stroke="#000000" stroke-width="2" /><path d="M41.5,55.5 c-1.619,-7.545 -4.385,-16.48 -7.5,-24" fill="none" stroke="#000000" stroke-width="2" /><path d="M5.5,87.5 c3.402,-9.126 5.666,-19.038 6.5,-28.5" fill="none" stroke="#000000" stroke-width="2" /><path d="M10.5,51.5 c10.08,-11.431 18.977,-23.412 27,-36.5" fill="none" stroke="#000000" stroke-width="2" /><path d="M19,41 c-3.684,-6.554 -8.887,-15.377 -13,-22" fill="none" stroke="#000000" stroke-width="2" /><path d="M11,27.5 c5.096,-7.057 9.62,-14.042 14,-21.5" fill="none" stroke="#000000" stroke-width="2" /><path d="M37.5,84.5 c-0.682,-6.759 -2.527,-18.755 -4,-26" fill="none" stroke="#000000" stroke-width="2" /></svg>