<?xml version='1.0' encoding='utf-8'?>
<svg xmlns="http://www.w3.org/2000/svg" height="100px" version="1.0" viewBox="0 0 100 100" width="100px" x="0px" y="0px">
<line fill="none" stroke="#000000" stroke-width="2" x1="34.5" x2="95" y1="11" y2="11" /><line fill="none" stroke="#000000" stroke-width="2" x1="94.5" x2="40.5" y1="57" y2="57" /><line fill="none" stroke="#000000" stroke-width="2" x1="3.5" x2="33" y1="52" y2="50" /><line fill="none" stroke="#000000" stroke-width="2" x1="19.5" x2="19.5" y1="51" y2="94" /><path d="M39,90 c16.584,-5.64 28,-19.894 28,-33 v-12.0" fill="none" stroke="#000000" stroke-width="2" /><path d="M95,90 c-16.586,-5.642 -28,-19.894 -28,-33" fill="none" stroke="#000000" stroke-width="2" /><path d="M30,90 c6.437,-9.222 10.5,-23.117 10.5,-39 v-28.0 h50.5 v18.5 h-49.5" fill="none" stroke="#000000" stroke-width="2" /><path d="M34,56.5 c-1.279,-7.545 -3.49,-16.5 -6,-24" fill="none" stroke="#000000" stroke-width="2" /><path d="M5.5,87.5 c2.624,-9.126 4.357,-19.038 5,-28.5" fill="none" stroke="#000000" stroke-width="2" /><path d="M31,78 c-0.547,-6.163 -1.604,-12.95 -3,-19.5" fill="none" stroke="#000000" stroke-width="2" /><path d="M9,51.5 c8.018,-11.415 15.133,-23.412 21.5,-36.5" fill="none" stroke="#000000" stroke-width="2" /><path d="M16,41 c-2.955,-6.562 -7.184,-15.377 -10.5,-22" fill="none" stroke="#000000" stroke-width="2" /><path d="M9.5,27.5 c3.982,-7.057 7.565,-14.049 11,-21.5" fill="none" stroke="#000000" stroke-width="2" /></svg>