<?xml version='1.0' encoding='utf-8'?>
<svg xmlns="http://www.w3.org/2000/svg" height="100px" version="1.0" viewBox="0 0 100 100" width="100px" x="0px" y="0px">
<line fill="none" stroke="#000000" stroke-width="2" x1="30.5" x2="30.5" y1="10.5" y2="19.5" /><line fill="none" stroke="#000000" stroke-width="2" x1="30.5" x2="30.5" y1="32.5" y2="42" /><line fill="none" stroke="#000000" stroke-width="2" x1="11.5" x2="48" y1="43" y2="43" /><line fill="none" stroke="#000000" stroke-width="2" x1="52.5" x2="93.5" y1="9.5" y2="9.5" /><line fill="none" stroke="#000000" stroke-width="2" x1="88.5" x2="7" y1="69.5" y2="71.5" /><line fill="none" stroke="#000000" stroke-width="2" x1="50" x2="50" y1="70.5" y2="93" /><polyline fill="none" points="49,9.5 10.5,9.5 10.5,48" stroke="#000000" stroke-width="2" /><polyline fill="none" points="11.5,31.5 46,31.5 46,20.5 11.5,20.5" stroke="#000000" stroke-width="2" /><path d="M51,42 c20.632,-5.022 35.282,-16.746 41.576,-31.884" fill="none" stroke="#000000" stroke-width="2" /><path d="M95.5,47.5 c-19.634,-7.034 -31.755,-18.702 -37,-35" fill="none" stroke="#000000" stroke-width="2" /><path d="M40,65 c-6.285,-4.294 -14.459,-9.62 -21.5,-14" fill="none" stroke="#000000" stroke-width="2" /><path d="M95,75 c-5.668,-5.065 -13.382,-11.406 -20,-16.5" fill="none" stroke="#000000" stroke-width="2" /><path d="M9,91.5 c11.341,-4.729 20.537,-9.846 27.5,-15" fill="none" stroke="#000000" stroke-width="2" /><path d="M91,92.5 c-8.031,-5.229 -17.801,-10.671 -29,-16" fill="none" stroke="#000000" stroke-width="2" /><path d="M27,71 c17.381,-7.557 32.813,-15.556 46.5,-24" fill="none" stroke="#000000" stroke-width="2" /><path d="M24.5,54.5 c7.442,-3.866 13.791,-7.553 20,-11.5" fill="none" stroke="#000000" stroke-width="2" /></svg>