<?xml version='1.0' encoding='utf-8'?>
<svg xmlns="http://www.w3.org/2000/svg" height="100px" version="1.0" viewBox="0 0 100 100" width="100px" x="0px" y="0px">
<line fill="none" stroke="#000000" stroke-width="2" x1="3.5" x2="33" y1="52" y2="50" /><line fill="none" stroke="#000000" stroke-width="2" x1="19.5" x2="19.5" y1="51" y2="94" /><line fill="none" stroke="#000000" stroke-width="2" x1="69" x2="97" y1="21" y2="21" /><line fill="none" stroke="#000000" stroke-width="2" x1="32" x2="66" y1="12" y2="12" /><line fill="none" stroke="#000000" stroke-width="2" x1="65" x2="33.5" y1="60.5" y2="60.5" /><line fill="none" stroke="#000000" stroke-width="2" x1="48.5" x2="48.5" y1="84.5" y2="45" /><path d="M34,56.5 c-1.279,-7.545 -3.49,-16.5 -6,-24" fill="none" stroke="#000000" stroke-width="2" /><path d="M5.5,87.5 c2.624,-9.126 4.357,-19.038 5,-28.5" fill="none" stroke="#000000" stroke-width="2" /><path d="M31,82.5 c-0.547,-7.585 -1.604,-15.938 -3,-24" fill="none" stroke="#000000" stroke-width="2" /><path d="M9,51.5 c8.018,-11.415 15.133,-23.412 21.5,-36.5" fill="none" stroke="#000000" stroke-width="2" /><path d="M16,41 c-2.955,-6.562 -7.184,-15.377 -10.5,-22" fill="none" stroke="#000000" stroke-width="2" /><path d="M9.5,27.5 c3.982,-7.057 7.565,-14.049 11,-21.5" fill="none" stroke="#000000" stroke-width="2" /><path d="M59.5,91 c20.443,-14.364 29.84,-32.8 31.5,-70" fill="none" stroke="#000000" stroke-width="2" /><path d="M96.5,91 c-15.986,-13.834 -23.533,-30.268 -26,-63" fill="none" stroke="#000000" stroke-width="2" /><path d="M61,49 c4.721,-11.971 8.742,-28.034 11,-44" fill="none" stroke="#000000" stroke-width="2" /><path d="M63,43 c-2.754,-7.446 -6.242,-15.544 -9.5,-22" fill="none" stroke="#000000" stroke-width="2" /><path d="M31.5,43.5 c12.526,-1.857 22.59,-4.218 29,-6.5" fill="none" stroke="#000000" stroke-width="2" /><path d="M31,89.5 c10.676,-2.037 22.794,-6.176 35,-12" fill="none" stroke="#000000" stroke-width="2" /><path d="M39,42 c2.623,-9.168 4.963,-18.503 7.5,-30" fill="none" stroke="#000000" stroke-width="2" /></svg>