<?xml version='1.0' encoding='utf-8'?>
<svg xmlns="http://www.w3.org/2000/svg" height="100px" version="1.0" viewBox="0 0 100 100" width="100px" x="0px" y="0px">
<line fill="none" stroke="#000000" stroke-width="2" x1="93.5" x2="49" y1="54" y2="57" /><line fill="none" stroke="#000000" stroke-width="2" x1="72.5" x2="72.5" y1="55.5" y2="93" /><line fill="none" stroke="#000000" stroke-width="2" x1="17.5" x2="44" y1="37" y2="37" /><line fill="none" stroke="#000000" stroke-width="2" x1="17.5" x2="44" y1="23.5" y2="23.5" /><line fill="none" stroke="#000000" stroke-width="2" x1="27" x2="27" y1="93" y2="60.5" /><polyline fill="none" points="17.5,50.5 45,50.5 45,10 16.5,10 16.5,51.5" stroke="#000000" stroke-width="2" /><polyline fill="none" points="48.5,60.5 7.5,60.5 7.5,12" stroke="#000000" stroke-width="2" /><path d="M67.5,49 c-4.361,-6.809 -10.158,-15.484 -15,-22.5" fill="none" stroke="#000000" stroke-width="2" /><path d="M61.5,56 c10.29,-11.792 18.353,-21.967 27,-34" fill="none" stroke="#000000" stroke-width="2" /><path d="M58,35 c6.031,-7.459 11.435,-14.808 16.5,-22.5" fill="none" stroke="#000000" stroke-width="2" /><path d="M48.5,87 c6.225,-6.942 11.227,-14.368 15,-22" fill="none" stroke="#000000" stroke-width="2" /><path d="M97,63 c-2.979,-8.056 -7.043,-18.28 -10.5,-26.5" fill="none" stroke="#000000" stroke-width="2" /><path d="M96.5,88 c-4.19,-7.497 -9.191,-15.237 -15,-23" fill="none" stroke="#000000" stroke-width="2" /><path d="M51,14 c15.637,0 30.945,-1.967 43.5,-5.5" fill="none" stroke="#000000" stroke-width="2" /><path d="M4,88 c5.154,-6.561 9.418,-13.726 12.5,-21" fill="none" stroke="#000000" stroke-width="2" /><path d="M45,84.5 c-2.486,-5.713 -5.521,-11.626 -9,-17.5" fill="none" stroke="#000000" stroke-width="2" /></svg>