<?xml version='1.0' encoding='utf-8'?>
<svg xmlns="http://www.w3.org/2000/svg" height="100px" version="1.0" viewBox="0 0 100 100" width="100px" x="0px" y="0px">
<line fill="none" stroke="#000000" stroke-width="2" x1="4" x2="35" y1="52" y2="50" /><line fill="none" stroke="#000000" stroke-width="2" x1="21.5" x2="21.5" y1="51" y2="94" /><line fill="none" stroke="#000000" stroke-width="2" x1="76.5" x2="76.5" y1="53.5" y2="40.5" /><line fill="none" stroke="#000000" stroke-width="2" x1="58" x2="58" y1="53.5" y2="40.5" /><line fill="none" stroke="#000000" stroke-width="2" x1="43.5" x2="89" y1="21" y2="21" /><line fill="none" stroke="#000000" stroke-width="2" x1="40" x2="91" y1="62.5" y2="62.5" /><polyline fill="none" points="40.5,54.5 95,54.5 95,39.5 39.5,39.5 39.5,55.5" stroke="#000000" stroke-width="2" /><polyline fill="none" points="43.5,32 90,32 90,10 42.5,10 42.5,33" stroke="#000000" stroke-width="2" /><path d="M36.5,57.5 c-1.403,-7.545 -3.801,-16.481 -6.5,-24" fill="none" stroke="#000000" stroke-width="2" /><path d="M6,87.5 c2.879,-9.126 4.795,-19.038 5.5,-28.5" fill="none" stroke="#000000" stroke-width="2" /><path d="M34.5,81.5 c-0.596,-6.759 -1.969,-15.816 -3.5,-23" fill="none" stroke="#000000" stroke-width="2" /><path d="M10,51.5 c8.773,-11.431 16.518,-23.412 23.5,-36.5" fill="none" stroke="#000000" stroke-width="2" /><path d="M17.5,41 c-3.258,-6.554 -7.862,-15.377 -11.5,-22" fill="none" stroke="#000000" stroke-width="2" /><path d="M10.5,27.5 c4.367,-7.057 8.246,-14.042 12,-21.5" fill="none" stroke="#000000" stroke-width="2" /><path d="M34.5,91 c26.523,-5.121 46.025,-15.805 55.714,-28.118" fill="none" stroke="#000000" stroke-width="2" /><path d="M96,91 c-22.148,-4.211 -38.584,-12.618 -50,-25" fill="none" stroke="#000000" stroke-width="2" /></svg>