<?xml version='1.0' encoding='utf-8'?>
<svg xmlns="http://www.w3.org/2000/svg" height="100px" version="1.0" viewBox="0 0 100 100" width="100px" x="0px" y="0px">
<line fill="none" stroke="#000000" stroke-width="2" x1="95" x2="34.5" y1="64" y2="64" /><line fill="none" stroke="#000000" stroke-width="2" x1="90.5" x2="39" y1="52" y2="52" /><line fill="none" stroke="#000000" stroke-width="2" x1="95" x2="34" y1="11" y2="11" /><line fill="none" stroke="#000000" stroke-width="2" x1="73.5" x2="73.5" y1="12" y2="40" /><line fill="none" stroke="#000000" stroke-width="2" x1="55.5" x2="55.5" y1="12" y2="40" /><line fill="none" stroke="#000000" stroke-width="2" x1="3.5" x2="33" y1="52" y2="50" /><line fill="none" stroke="#000000" stroke-width="2" x1="19.5" x2="19.5" y1="51" y2="94" /><polyline fill="none" points="37.5,42 37.5,23 91.5,23 91.5,41 38.5,41" stroke="#000000" stroke-width="2" /><path d="M65.5,64 v23.5 c0,3.546 -0.516,4 -5.5,4 c-2.279,0 -5.771,-0.136 -10.5,-0.5" fill="none" stroke="#000000" stroke-width="2" /><path d="M33,89 c7.282,-5.088 13.383,-11.832 17,-18.5" fill="none" stroke="#000000" stroke-width="2" /><path d="M94.5,89.5 c-4.491,-6.147 -10.547,-12.97 -17,-19" fill="none" stroke="#000000" stroke-width="2" /><path d="M34,56.5 c-1.279,-7.545 -3.49,-16.5 -6,-24" fill="none" stroke="#000000" stroke-width="2" /><path d="M5.5,87.5 c2.624,-9.126 4.357,-19.038 5,-28.5" fill="none" stroke="#000000" stroke-width="2" /><path d="M31,78 c-0.547,-6.163 -1.604,-12.95 -3,-19.5" fill="none" stroke="#000000" stroke-width="2" /><path d="M9,51.5 c8.018,-11.415 15.133,-23.412 21.5,-36.5" fill="none" stroke="#000000" stroke-width="2" /><path d="M16,41 c-2.955,-6.562 -7.184,-15.377 -10.5,-22" fill="none" stroke="#000000" stroke-width="2" /><path d="M9.5,27.5 c3.982,-7.057 7.565,-14.049 11,-21.5" fill="none" stroke="#000000" stroke-width="2" /></svg>