<?xml version='1.0' encoding='utf-8'?>
<svg xmlns="http://www.w3.org/2000/svg" height="100px" version="1.0" viewBox="0 0 100 100" width="100px" x="0px" y="0px">
<line fill="none" stroke="#000000" stroke-width="2" x1="87.5" x2="7" y1="71.5" y2="73.5" /><line fill="none" stroke="#000000" stroke-width="2" x1="50" x2="50" y1="72.5" y2="93" /><line fill="none" stroke="#000000" stroke-width="2" x1="50" x2="18" y1="11" y2="11" /><line fill="none" stroke="#000000" stroke-width="2" x1="6" x2="51" y1="30.5" y2="30.5" /><line fill="none" stroke="#000000" stroke-width="2" x1="10.5" x2="49" y1="43" y2="43" /><line fill="none" stroke="#000000" stroke-width="2" x1="60.5" x2="95.5" y1="13" y2="13" /><path d="M39.5,67.5 c-6.285,-3.986 -14.459,-8.933 -21.5,-13" fill="none" stroke="#000000" stroke-width="2" /><path d="M95,78 c-5.668,-5.064 -13.377,-11.412 -20,-16.5" fill="none" stroke="#000000" stroke-width="2" /><path d="M9,92 c11.341,-4.414 20.537,-9.189 27.5,-14" fill="none" stroke="#000000" stroke-width="2" /><path d="M91,92.5 c-8.031,-4.903 -17.801,-10.003 -29,-15" fill="none" stroke="#000000" stroke-width="2" /><path d="M27,73 c17.381,-7.242 32.813,-14.908 46.5,-23" fill="none" stroke="#000000" stroke-width="2" /><path d="M26.5,59.5 c7.256,-3.362 13.445,-6.567 19.5,-10" fill="none" stroke="#000000" stroke-width="2" /><path d="M6.5,24 c6.041,-5.319 11.389,-12.487 14.5,-19.5" fill="none" stroke="#000000" stroke-width="2" /><path d="M9,49 c2.59,-9.667 4.779,-21.063 6,-31 h31.0 c-1.01,9.469 -2.762,20.673 -4.5,29 c-0.34,1.628 -0.938,2 -4.5,2 c-1.396,0 -4.101,-0.166 -7,-0.5" fill="none" stroke="#000000" stroke-width="2" /><path d="M26.5,43 c1.726,-8.534 3.037,-16.719 4,-25" fill="none" stroke="#000000" stroke-width="2" /><path d="M50,49.5 c24.579,-8.287 34.078,-17.94 37.5,-36.5" fill="none" stroke="#000000" stroke-width="2" /><path d="M94.5,49.5 c-20.514,-6.688 -29.266,-15.669 -33,-32.5" fill="none" stroke="#000000" stroke-width="2" /><path d="M49.5,27 c6.583,-6.098 12.012,-14.231 15,-22.5" fill="none" stroke="#000000" stroke-width="2" /></svg>