<?xml version='1.0' encoding='utf-8'?>
<svg xmlns="http://www.w3.org/2000/svg" height="100px" version="1.0" viewBox="0 0 100 100" width="100px" x="0px" y="0px">
<line fill="none" stroke="#000000" stroke-width="2" x1="33" x2="95" y1="35" y2="35" /><line fill="none" stroke="#000000" stroke-width="2" x1="3.5" x2="33" y1="52" y2="50" /><line fill="none" stroke="#000000" stroke-width="2" x1="19.5" x2="19.5" y1="51" y2="94" /><line fill="none" stroke="#000000" stroke-width="2" x1="70" x2="35" y1="17.5" y2="17.5" /><line fill="none" stroke="#000000" stroke-width="2" x1="53.5" x2="53.5" y1="35" y2="4" /><line fill="none" stroke="#000000" stroke-width="2" x1="47.5" x2="47.5" y1="86" y2="35" /><line fill="none" stroke="#000000" stroke-width="2" x1="60.5" x2="60.5" y1="81" y2="35" /><path d="M92,42.5 c-5.764,24.823 -16.26,39.018 -35,49.5" fill="none" stroke="#000000" stroke-width="2" /><path d="M74,4.5 c0,59.849 13.213,86.5 16.5,86.5 c1.781,0 4.375,-2.614 6,-23" fill="none" stroke="#000000" stroke-width="2" /><path d="M82,9.5 c4.244,5.488 8.465,11.86 12,18" fill="none" stroke="#000000" stroke-width="2" /><path d="M34,56.5 c-1.279,-7.545 -3.49,-16.5 -6,-24" fill="none" stroke="#000000" stroke-width="2" /><path d="M5.5,87.5 c2.624,-9.126 4.357,-19.038 5,-28.5" fill="none" stroke="#000000" stroke-width="2" /><path d="M65,71.5 c2.624,-8.646 4.357,-18.036 5,-27" fill="none" stroke="#000000" stroke-width="2" /><path d="M31,82.5 c-0.547,-7.585 -1.604,-15.938 -3,-24" fill="none" stroke="#000000" stroke-width="2" /><path d="M42,73.5 c-0.729,-8.692 -2.106,-18.269 -4,-27.5" fill="none" stroke="#000000" stroke-width="2" /><path d="M9,51.5 c8.018,-11.415 15.133,-23.412 21.5,-36.5" fill="none" stroke="#000000" stroke-width="2" /><path d="M16,41 c-2.955,-6.562 -7.184,-15.377 -10.5,-22" fill="none" stroke="#000000" stroke-width="2" /><path d="M9.5,27.5 c3.982,-7.057 7.565,-14.049 11,-21.5" fill="none" stroke="#000000" stroke-width="2" /><path d="M31,89.5 c12.201,-2.037 26.051,-6.176 40,-12" fill="none" stroke="#000000" stroke-width="2" /></svg>