<?xml version='1.0' encoding='utf-8'?>
<svg xmlns="http://www.w3.org/2000/svg" height="100px" version="1.0" viewBox="0 0 100 100" width="100px" x="0px" y="0px">
<line fill="none" stroke="#000000" stroke-width="2" x1="10.5" x2="45.5" y1="27.5" y2="27.5" /><line fill="none" stroke="#000000" stroke-width="2" x1="5" x2="50.5" y1="43.5" y2="43.5" /><line fill="none" stroke="#000000" stroke-width="2" x1="28" x2="28" y1="51" y2="5" /><line fill="none" stroke="#000000" stroke-width="2" x1="5" x2="50.5" y1="11.5" y2="11.5" /><line fill="none" stroke="#000000" stroke-width="2" x1="50.5" x2="91.5" y1="28.5" y2="28.5" /><line fill="none" stroke="#000000" stroke-width="2" x1="87.5" x2="7" y1="71.5" y2="73.5" /><line fill="none" stroke="#000000" stroke-width="2" x1="50" x2="50" y1="72.5" y2="93" /><polyline fill="none" points="10.5,36.5 46.5,36.5 46.5,18.5 9.5,18.5 9.5,37.5" stroke="#000000" stroke-width="2" /><path d="M50.48,24.979 c5.697,-2.676 8.5,-6.994 8.5,-14 v-3.0 h24.0 v13.0 c0,1.99 0.841,2.5 5,2.5 c7.25,0 7.514,-0.227 8,-7.5" fill="none" stroke="#000000" stroke-width="2" /><path d="M51,50 c20.483,-4.628 31.855,-11.154 39.715,-21.119" fill="none" stroke="#000000" stroke-width="2" /><path d="M95.5,53.5 c-15.724,-4.741 -29.826,-12.86 -38.5,-22" fill="none" stroke="#000000" stroke-width="2" /><path d="M39.5,67.5 c-6.285,-3.986 -14.459,-8.933 -21.5,-13" fill="none" stroke="#000000" stroke-width="2" /><path d="M95,78 c-5.668,-5.064 -13.377,-11.412 -20,-16.5" fill="none" stroke="#000000" stroke-width="2" /><path d="M9,92 c11.341,-4.414 20.537,-9.189 27.5,-14" fill="none" stroke="#000000" stroke-width="2" /><path d="M91,92.5 c-8.031,-4.903 -17.801,-10.003 -29,-15" fill="none" stroke="#000000" stroke-width="2" /><path d="M27,73 c17.381,-7.242 32.813,-14.908 46.5,-23" fill="none" stroke="#000000" stroke-width="2" /><path d="M24,58 c7.442,-3.53 13.791,-6.896 20,-10.5" fill="none" stroke="#000000" stroke-width="2" /></svg>