<?xml version='1.0' encoding='utf-8'?>
<svg xmlns="http://www.w3.org/2000/svg" height="100px" version="1.0" viewBox="0 0 100 100" width="100px" x="0px" y="0px">
<line fill="none" stroke="#000000" stroke-width="2" x1="3.5" x2="33" y1="52" y2="50" /><line fill="none" stroke="#000000" stroke-width="2" x1="19.5" x2="19.5" y1="51" y2="94" /><line fill="none" stroke="#000000" stroke-width="2" x1="35" x2="95.5" y1="13" y2="13" /><line fill="none" stroke="#000000" stroke-width="2" x1="82" x2="48" y1="37.5" y2="37.5" /><line fill="none" stroke="#000000" stroke-width="2" x1="49" x2="81" y1="51.5" y2="51.5" /><polyline fill="none" points="48,37.5 48,66 82,66 82,37.5" stroke="#000000" stroke-width="2" /><path d="M34,56.5 c-1.279,-7.545 -3.49,-16.5 -6,-24" fill="none" stroke="#000000" stroke-width="2" /><path d="M5.5,87.5 c2.624,-9.126 4.357,-19.038 5,-28.5" fill="none" stroke="#000000" stroke-width="2" /><path d="M31,82.5 c-0.547,-7.585 -1.604,-15.938 -3,-24" fill="none" stroke="#000000" stroke-width="2" /><path d="M9,51.5 c8.018,-11.415 15.133,-23.412 21.5,-36.5" fill="none" stroke="#000000" stroke-width="2" /><path d="M16,41 c-2.955,-6.562 -7.184,-15.377 -10.5,-22" fill="none" stroke="#000000" stroke-width="2" /><path d="M9.5,27.5 c3.982,-7.057 7.565,-14.049 11,-21.5" fill="none" stroke="#000000" stroke-width="2" /><path d="M97,50.5 c-13.57,-8.789 -25.17,-23.123 -30,-37.5" fill="none" stroke="#000000" stroke-width="2" /><path d="M35.5,49.5 c14.378,-10.475 26.518,-28.59 30.5,-46.5" fill="none" stroke="#000000" stroke-width="2" /><path d="M91,18 c-3.758,5.085 -8.558,10.44 -13,14.5" fill="none" stroke="#000000" stroke-width="2" /><path d="M52,32.5 c-4.094,-4.988 -8.541,-9.976 -13,-14.5" fill="none" stroke="#000000" stroke-width="2" /><path d="M32,88 c8.041,-4.247 15.361,-10.549 20,-17" fill="none" stroke="#000000" stroke-width="2" /><path d="M97,89 c-5.744,-6.286 -12.707,-12.392 -20,-17.5" fill="none" stroke="#000000" stroke-width="2" /><path d="M66,66 v19.0 c0,5.473 -0.472,6 -6,6 c-2.584,0 -7.129,-0.174 -12.5,-0.5" fill="none" stroke="#000000" stroke-width="2" /></svg>