<?xml version='1.0' encoding='utf-8'?>
<svg xmlns="http://www.w3.org/2000/svg" height="100px" version="1.0" viewBox="0 0 100 100" width="100px" x="0px" y="0px">
<line fill="none" stroke="#000000" stroke-width="2" x1="3.5" x2="34.5" y1="52" y2="50" /><line fill="none" stroke="#000000" stroke-width="2" x1="21" x2="21" y1="51" y2="94" /><line fill="none" stroke="#000000" stroke-width="2" x1="75" x2="75" y1="26" y2="10.5" /><line fill="none" stroke="#000000" stroke-width="2" x1="57.5" x2="57.5" y1="26" y2="10.5" /><line fill="none" stroke="#000000" stroke-width="2" x1="38" x2="96" y1="67" y2="67" /><line fill="none" stroke="#000000" stroke-width="2" x1="67.5" x2="67.5" y1="67" y2="94.5" /><line fill="none" stroke="#000000" stroke-width="2" x1="40" x2="94" y1="79.5" y2="79.5" /><line fill="none" stroke="#000000" stroke-width="2" x1="38" x2="96" y1="50" y2="50" /><line fill="none" stroke="#000000" stroke-width="2" x1="41" x2="93" y1="38.5" y2="38.5" /><line fill="none" stroke="#000000" stroke-width="2" x1="67.5" x2="67.5" y1="50" y2="28" /><polyline fill="none" points="41,27 92.5,27 92.5,9.5 40,9.5 40,28" stroke="#000000" stroke-width="2" /><path d="M36,57.5 c-1.403,-7.545 -3.801,-16.481 -6.5,-24" fill="none" stroke="#000000" stroke-width="2" /><path d="M5.5,87.5 c2.879,-9.126 4.795,-19.038 5.5,-28.5" fill="none" stroke="#000000" stroke-width="2" /><path d="M34,81.5 c-0.596,-6.759 -1.969,-15.816 -3.5,-23" fill="none" stroke="#000000" stroke-width="2" /><path d="M9.5,51.5 c8.773,-11.431 16.518,-23.412 23.5,-36.5" fill="none" stroke="#000000" stroke-width="2" /><path d="M17,41 c-3.258,-6.554 -7.862,-15.377 -11.5,-22" fill="none" stroke="#000000" stroke-width="2" /><path d="M10,27.5 c4.367,-7.057 8.246,-14.042 12,-21.5" fill="none" stroke="#000000" stroke-width="2" /><path d="M75,67 c4.291,-5.306 7.883,-10.847 11,-17" fill="none" stroke="#000000" stroke-width="2" /><path d="M57.5,67 c-2.379,-5.605 -5.338,-11.528 -8.5,-17" fill="none" stroke="#000000" stroke-width="2" /></svg>