<?xml version='1.0' encoding='utf-8'?>
<svg xmlns="http://www.w3.org/2000/svg" height="100px" version="1.0" viewBox="0 0 100 100" width="100px" x="0px" y="0px">
<line fill="none" stroke="#000000" stroke-width="2" x1="3.5" x2="33" y1="52" y2="50" /><line fill="none" stroke="#000000" stroke-width="2" x1="19.5" x2="19.5" y1="51" y2="94" /><line fill="none" stroke="#000000" stroke-width="2" x1="52" x2="52" y1="11.5" y2="24" /><line fill="none" stroke="#000000" stroke-width="2" x1="52" x2="52" y1="37.5" y2="50.5" /><line fill="none" stroke="#000000" stroke-width="2" x1="37.5" x2="66" y1="51.5" y2="51.5" /><line fill="none" stroke="#000000" stroke-width="2" x1="56" x2="56" y1="63.5" y2="89" /><line fill="none" stroke="#000000" stroke-width="2" x1="72" x2="72" y1="63.5" y2="89" /><line fill="none" stroke="#000000" stroke-width="2" x1="30.5" x2="95.5" y1="90" y2="90" /><line fill="none" stroke="#000000" stroke-width="2" x1="95" x2="73" y1="18" y2="18" /><line fill="none" stroke="#000000" stroke-width="2" x1="93" x2="70" y1="42" y2="42" /><polyline fill="none" points="65,10.5 37.5,10.5 37.5,58.5" stroke="#000000" stroke-width="2" /><polyline fill="none" points="38.5,37.5 62,37.5 62,24 38.5,24" stroke="#000000" stroke-width="2" /><polyline fill="none" points="88,89 88,63.5 40,63.5 40,89" stroke="#000000" stroke-width="2" /><path d="M34,56.5 c-1.279,-7.545 -3.49,-16.5 -6,-24" fill="none" stroke="#000000" stroke-width="2" /><path d="M5.5,87.5 c2.624,-9.126 4.357,-19.038 5,-28.5" fill="none" stroke="#000000" stroke-width="2" /><path d="M31,82.5 c-0.547,-7.585 -1.604,-15.938 -3,-24" fill="none" stroke="#000000" stroke-width="2" /><path d="M9,51.5 c8.018,-11.415 15.133,-23.412 21.5,-36.5" fill="none" stroke="#000000" stroke-width="2" /><path d="M16,41 c-2.955,-6.562 -7.184,-15.377 -10.5,-22" fill="none" stroke="#000000" stroke-width="2" /><path d="M9.5,27.5 c3.982,-7.057 7.565,-14.049 11,-21.5" fill="none" stroke="#000000" stroke-width="2" /><path d="M65,34 c5.162,-7.536 9.528,-17.632 12,-28" fill="none" stroke="#000000" stroke-width="2" /></svg>