<?xml version='1.0' encoding='utf-8'?>
<svg xmlns="http://www.w3.org/2000/svg" height="100px" version="1.0" viewBox="0 0 100 100" width="100px" x="0px" y="0px">
<line fill="none" stroke="#000000" stroke-width="2" x1="4" x2="47" y1="34" y2="34" /><line fill="none" stroke="#000000" stroke-width="2" x1="25.5" x2="25.5" y1="54" y2="11.5" /><line fill="none" stroke="#000000" stroke-width="2" x1="25.5" x2="25.5" y1="86.5" y2="55" /><line fill="none" stroke="#000000" stroke-width="2" x1="11" x2="40" y1="87.5" y2="87.5" /><line fill="none" stroke="#000000" stroke-width="2" x1="11" x2="40" y1="70.5" y2="70.5" /><polyline fill="none" points="41,93.5 41,54 10,54 10,93.5" stroke="#000000" stroke-width="2" /><path d="M71,72.5 c8.648,-7.233 15.874,-15.565 21,-24" fill="none" stroke="#000000" stroke-width="2" /><path d="M84,43.5 c-2.676,-7.405 -6.082,-15.618 -10,-24" fill="none" stroke="#000000" stroke-width="2" /><path d="M71,10.5 h21.0 v72.0 c0,7.366 -0.504,8 -5.5,8 c-1.764,0 -5.271,-0.157 -10.5,-0.5" fill="none" stroke="#000000" stroke-width="2" /><path d="M46,72.5 c8.648,-7.233 15.874,-15.565 21,-24" fill="none" stroke="#000000" stroke-width="2" /><path d="M59,43.5 c-2.676,-7.405 -6.082,-15.618 -10,-24" fill="none" stroke="#000000" stroke-width="2" /><path d="M46,10.5 h21.0 v72.0 c0,7.366 -0.504,8 -5.5,8 c-1.764,0 -5.271,-0.157 -10.5,-0.5" fill="none" stroke="#000000" stroke-width="2" /><path d="M7.5,12.5 c12.5,0 24.544,-1.53 36,-4.5" fill="none" stroke="#000000" stroke-width="2" /><path d="M3.5,57.5 c10.367,-7.458 17.211,-15.139 21.5,-23.5" fill="none" stroke="#000000" stroke-width="2" /><path d="M46,56 c-9.62,-7.015 -16.011,-14.173 -20,-22" fill="none" stroke="#000000" stroke-width="2" /><path d="M16.5,34 c-1.861,-6.061 -3.959,-12.232 -6,-17.5" fill="none" stroke="#000000" stroke-width="2" /><path d="M34.5,34 c2.463,-6.513 4.658,-13.63 6,-19.5" fill="none" stroke="#000000" stroke-width="2" /></svg>