<?xml version='1.0' encoding='utf-8'?>
<svg xmlns="http://www.w3.org/2000/svg" height="100px" version="1.0" viewBox="0 0 100 100" width="100px" x="0px" y="0px">
<line fill="none" stroke="#000000" stroke-width="2" x1="93" x2="7" y1="76" y2="76" /><line fill="none" stroke="#000000" stroke-width="2" x1="11" x2="88" y1="66" y2="66" /><line fill="none" stroke="#000000" stroke-width="2" x1="33" x2="33" y1="75" y2="57" /><line fill="none" stroke="#000000" stroke-width="2" x1="67" x2="67" y1="75" y2="57" /><line fill="none" stroke="#000000" stroke-width="2" x1="50" x2="50" y1="39" y2="56" /><line fill="none" stroke="#000000" stroke-width="2" x1="17.5" x2="82.5" y1="47.5" y2="47.5" /><polyline fill="none" points="17.5,57 83.5,57 83.5,38 16.5,38 16.5,58" stroke="#000000" stroke-width="2" /><path d="M8.5,30.5 c12.818,-2.588 23.434,-5.747 31,-9" fill="none" stroke="#000000" stroke-width="2" /><path d="M30.5,20 c-4.646,-2.118 -10.341,-4.486 -17,-7" fill="none" stroke="#000000" stroke-width="2" /><path d="M7,9.5 h37.5 v20.5 c0,2.755 -0.258,3 -5.5,3 c-2.457,0 -8.766,-0.175 -15.5,-0.5" fill="none" stroke="#000000" stroke-width="2" /><path d="M52.5,30.5 c12.818,-2.588 23.434,-5.747 31,-9" fill="none" stroke="#000000" stroke-width="2" /><path d="M74.5,20 c-4.646,-2.118 -10.341,-4.486 -17,-7" fill="none" stroke="#000000" stroke-width="2" /><path d="M51,9.5 h37.5 v20.5 c0,2.755 -0.258,3 -5.5,3 c-2.457,0 -8.766,-0.175 -15.5,-0.5" fill="none" stroke="#000000" stroke-width="2" /><path d="M10,93 c13.08,-3.419 24.369,-8.096 31,-12.5" fill="none" stroke="#000000" stroke-width="2" /><path d="M90,93.5 c-7.982,-4.376 -19.018,-9.024 -31,-13" fill="none" stroke="#000000" stroke-width="2" /></svg>