<?xml version='1.0' encoding='utf-8'?>
<svg xmlns="http://www.w3.org/2000/svg" height="100px" version="1.0" viewBox="0 0 100 100" width="100px" x="0px" y="0px">
<line fill="none" stroke="#000000" stroke-width="2" x1="9.5" x2="9.5" y1="12" y2="77" /><line fill="none" stroke="#000000" stroke-width="2" x1="38" x2="3.5" y1="11" y2="11" /><line fill="none" stroke="#000000" stroke-width="2" x1="32" x2="32" y1="94.5" y2="12" /><line fill="none" stroke="#000000" stroke-width="2" x1="10.5" x2="31" y1="53.5" y2="53.5" /><line fill="none" stroke="#000000" stroke-width="2" x1="10.5" x2="31" y1="31.5" y2="31.5" /><line fill="none" stroke="#000000" stroke-width="2" x1="68.5" x2="93" y1="55" y2="55" /><line fill="none" stroke="#000000" stroke-width="2" x1="68.5" x2="68.5" y1="87" y2="31" /><line fill="none" stroke="#000000" stroke-width="2" x1="47" x2="88" y1="31" y2="31" /><line fill="none" stroke="#000000" stroke-width="2" x1="67.5" x2="67.5" y1="16" y2="4" /><polyline fill="none" points="93,34 93,16 42,16 42,34" stroke="#000000" stroke-width="2" /><path d="M3,78.5 c9.004,-1.661 19.22,-4.124 29,-7" fill="none" stroke="#000000" stroke-width="2" /><path d="M37,92 c6.545,-10.179 11.723,-26.644 13,-44" fill="none" stroke="#000000" stroke-width="2" /><path d="M96,90 h-4.5 c-27.217,0 -35.988,-5.253 -43.5,-27" fill="none" stroke="#000000" stroke-width="2" /></svg>