<?xml version='1.0' encoding='utf-8'?>
<svg xmlns="http://www.w3.org/2000/svg" height="100px" version="1.0" viewBox="0 0 100 100" width="100px" x="0px" y="0px">
<line fill="none" stroke="#000000" stroke-width="2" x1="12.5" x2="36.5" y1="59" y2="59" /><line fill="none" stroke="#000000" stroke-width="2" x1="13.5" x2="36.5" y1="33.5" y2="33.5" /><line fill="none" stroke="#000000" stroke-width="2" x1="96.5" x2="43.5" y1="22" y2="22" /><path d="M6,92.5 c4.439,-10.731 6.5,-23.313 6.5,-46.5 v-36.0 h25.0 v73.0 c0,7.724 -0.25,8 -5,8 c-1.819,0 -5.604,-0.155 -11,-0.5" fill="none" stroke="#000000" stroke-width="2" /><path d="M85.5,6 v75.5 c0,9.353 -0.62,10 -7,10 c-3.172,0 -9.749,-0.194 -16,-0.5" fill="none" stroke="#000000" stroke-width="2" /><path d="M64.5,66 c-3.807,-9.632 -9.448,-20.955 -15,-30" fill="none" stroke="#000000" stroke-width="2" /></svg>