<?xml version='1.0' encoding='utf-8'?>
<svg xmlns="http://www.w3.org/2000/svg" height="100px" version="1.0" viewBox="0 0 100 100" width="100px" x="0px" y="0px">
<line fill="none" stroke="#000000" stroke-width="2" x1="12" x2="33.5" y1="59" y2="59" /><line fill="none" stroke="#000000" stroke-width="2" x1="13" x2="33.5" y1="33.5" y2="33.5" /><line fill="none" stroke="#000000" stroke-width="2" x1="40" x2="90" y1="48" y2="48" /><path d="M5,92.5 c4.782,-10.866 7,-23.313 7,-46.5 v-36.0 h22.5 v73.0 c0,7.724 -0.25,8 -5,8 c-1.819,0 -5.604,-0.155 -11,-0.5" fill="none" stroke="#000000" stroke-width="2" /><path d="M39,42.5 c9.341,-4.243 14,-11.468 14,-26 v-6.5 h27.0 v26.5 c0,2.755 0.262,3 4,3 c10.421,0 10.865,-0.383 12,-13.5" fill="none" stroke="#000000" stroke-width="2" /><path d="M39,91 c25.838,-9.298 40.443,-21.962 50.097,-42.427" fill="none" stroke="#000000" stroke-width="2" /><path d="M95,91 c-20.57,-9.421 -36.697,-22.589 -46.5,-37.5" fill="none" stroke="#000000" stroke-width="2" /></svg>