<?xml version='1.0' encoding='utf-8'?>
<svg xmlns="http://www.w3.org/2000/svg" height="100px" version="1.0" viewBox="0 0 100 100" width="100px" x="0px" y="0px">
<line fill="none" stroke="#000000" stroke-width="2" x1="51.5" x2="51.5" y1="13" y2="2.5" /><line fill="none" stroke="#000000" stroke-width="2" x1="94.5" x2="35.5" y1="24" y2="24" /><line fill="none" stroke="#000000" stroke-width="2" x1="28" x2="28" y1="48" y2="28" /><path d="M3.5,92 c4.898,-10.415 9,-30.94 9,-47 v-32.0 h80.5" fill="none" stroke="#000000" stroke-width="2" /><path d="M82,16.5 v21.1 c0,7.979 -0.377,8.4 -5.5,8.4 c-2.56,0 -7.957,-0.194 -13,-0.5" fill="none" stroke="#000000" stroke-width="2" /><path d="M61.5,41 c-4.233,-3.884 -10.264,-8.476 -16,-12" fill="none" stroke="#000000" stroke-width="2" /><path d="M35.5,16.5 c-4.063,8.663 -11.041,16.479 -20,22.5" fill="none" stroke="#000000" stroke-width="2" /><path d="M66,91.5 c8.056,0.339 12.848,0.5 15,0.5 c7.308,0 8,-0.673 8,-8 v-30.0 h-68.0 v39.0" fill="none" stroke="#000000" stroke-width="2" /><path d="M27,70.5 c20.479,-5.778 28,-13.381 28,-23.5" fill="none" stroke="#000000" stroke-width="2" /><path d="M83,71 c-8.134,-5.173 -19.51,-9.967 -32,-13" fill="none" stroke="#000000" stroke-width="2" /><path d="M28,85 c17.201,-5.084 24.97,-11.525 27,-19.5" fill="none" stroke="#000000" stroke-width="2" /><path d="M82,85.5 c-8.1,-5.477 -18.629,-10.11 -30.5,-13" fill="none" stroke="#000000" stroke-width="2" /></svg>