<?xml version='1.0' encoding='utf-8'?>
<svg xmlns="http://www.w3.org/2000/svg" height="100px" version="1.0" viewBox="0 0 100 100" width="100px" x="0px" y="0px">
<line fill="none" stroke="#000000" stroke-width="2" x1="9" x2="26.5" y1="59" y2="59" /><line fill="none" stroke="#000000" stroke-width="2" x1="10" x2="26.5" y1="33.5" y2="33.5" /><line fill="none" stroke="#000000" stroke-width="2" x1="47" x2="65" y1="33" y2="33" /><line fill="none" stroke="#000000" stroke-width="2" x1="64.5" x2="64.5" y1="15" y2="3" /><polyline fill="none" points="94,31 94,15 35.5,15 35.5,32" stroke="#000000" stroke-width="2" /><path d="M4.5,92.5 c3.238,-8.584 4.5,-17.869 4.5,-46.5 v-36.0 h18.5 v73.0 c0,7.724 -0.25,8 -5,8 c-1.488,0 -4.585,-0.155 -9,-0.5" fill="none" stroke="#000000" stroke-width="2" /><path d="M33,60.5 c7.862,-10.765 13.846,-24.015 17.5,-39" fill="none" stroke="#000000" stroke-width="2" /><path d="M64.002,33.959 c-1.064,26.077 -14.461,48.25 -32.502,57.041" fill="none" stroke="#000000" stroke-width="2" /><path d="M95.5,69.5 c-1.055,20.802 -1.268,21 -13.5,21 c-12.255,0 -12.5,-0.219 -12.5,-6.5 v-53.5 h20.5 v28.0 c0,6.25 -0.211,6.5 -4.5,6.5 c-1.532,0 -4.852,-0.139 -9.5,-0.5" fill="none" stroke="#000000" stroke-width="2" /><path d="M57,63.5 c-3.987,-4.538 -8.946,-9.513 -13.5,-13.5" fill="none" stroke="#000000" stroke-width="2" /></svg>