<?xml version='1.0' encoding='utf-8'?>
<svg xmlns="http://www.w3.org/2000/svg" height="100px" version="1.0" viewBox="0 0 100 100" width="100px" x="0px" y="0px">
<line fill="none" stroke="#000000" stroke-width="2" x1="9" x2="26.5" y1="59" y2="59" /><line fill="none" stroke="#000000" stroke-width="2" x1="10" x2="26.5" y1="33.5" y2="33.5" /><line fill="none" stroke="#000000" stroke-width="2" x1="34.5" x2="94" y1="13" y2="13" /><line fill="none" stroke="#000000" stroke-width="2" x1="64" x2="64" y1="13" y2="3" /><line fill="none" stroke="#000000" stroke-width="2" x1="64" x2="64" y1="51" y2="38" /><line fill="none" stroke="#000000" stroke-width="2" x1="33" x2="95.5" y1="51" y2="51" /><polyline fill="none" points="94.5,46 94.5,33 34,33 34,46" stroke="#000000" stroke-width="2" /><path d="M4.5,92.5 c3.238,-8.584 4.5,-17.869 4.5,-46.5 v-36.0 h18.5 v73.0 c0,7.724 -0.25,8 -5,8 c-1.488,0 -4.585,-0.155 -9,-0.5" fill="none" stroke="#000000" stroke-width="2" /><path d="M71.5,33 c4.002,-5.621 7.29,-12.472 9.5,-20" fill="none" stroke="#000000" stroke-width="2" /><path d="M55.5,33 c-2.689,-6.745 -5.852,-13.443 -9.5,-20" fill="none" stroke="#000000" stroke-width="2" /><path d="M32.5,92 c14.143,-7.573 23,-22.639 23,-40" fill="none" stroke="#000000" stroke-width="2" /><path d="M54,63.5 h35.0 c0,22.72 -3.206,27 -10.5,27 c-3.173,0 -9.097,-0.337 -16,-1" fill="none" stroke="#000000" stroke-width="2" /></svg>