<?xml version='1.0' encoding='utf-8'?>
<svg xmlns="http://www.w3.org/2000/svg" height="100px" version="1.0" viewBox="0 0 100 100" width="100px" x="0px" y="0px">
<line fill="none" stroke="#000000" stroke-width="2" x1="9" x2="26.5" y1="59" y2="59" /><line fill="none" stroke="#000000" stroke-width="2" x1="10" x2="26.5" y1="33.5" y2="33.5" /><line fill="none" stroke="#000000" stroke-width="2" x1="33" x2="67" y1="33.5" y2="33.5" /><line fill="none" stroke="#000000" stroke-width="2" x1="68" x2="32" y1="17.5" y2="17.5" /><line fill="none" stroke="#000000" stroke-width="2" x1="50" x2="50" y1="33.5" y2="6.5" /><polyline fill="none" points="35,63 35,42.5 65,42.5 65,62 36,62" stroke="#000000" stroke-width="2" /><path d="M4.5,92.5 c3.238,-8.584 4.5,-17.869 4.5,-46.5 v-36.0 h18.5 v73.0 c0,7.724 -0.25,8 -5,8 c-1.488,0 -4.585,-0.155 -9,-0.5" fill="none" stroke="#000000" stroke-width="2" /><path d="M32,90 c12.537,-1.866 23.389,-4.053 37,-7.5" fill="none" stroke="#000000" stroke-width="2" /><path d="M54.5,86 c3.483,-5.608 6.456,-12.448 8.5,-20" fill="none" stroke="#000000" stroke-width="2" /><path d="M44,84 c-1.745,-5.757 -3.865,-11.937 -6,-17.5" fill="none" stroke="#000000" stroke-width="2" /><path d="M69,27 c10.52,-4.842 18.813,-11.101 24.5,-18" fill="none" stroke="#000000" stroke-width="2" /><path d="M68.5,58 c11.449,-5.68 19.546,-12.606 26,-22" fill="none" stroke="#000000" stroke-width="2" /><path d="M65.5,91 c12.996,-5.957 22.074,-13.968 30,-26" fill="none" stroke="#000000" stroke-width="2" /></svg>