<?xml version='1.0' encoding='utf-8'?>
<svg xmlns="http://www.w3.org/2000/svg" height="100px" version="1.0" viewBox="0 0 100 100" width="100px" x="0px" y="0px">
<line fill="none" stroke="#000000" stroke-width="2" x1="36" x2="94" y1="64.5" y2="64.5" /><line fill="none" stroke="#000000" stroke-width="2" x1="48" x2="48" y1="90.5" y2="64.5" /><line fill="none" stroke="#000000" stroke-width="2" x1="41.5" x2="90.5" y1="54" y2="54" /><line fill="none" stroke="#000000" stroke-width="2" x1="55" x2="55" y1="13.5" y2="35" /><line fill="none" stroke="#000000" stroke-width="2" x1="73" x2="73" y1="13.5" y2="35" /><line fill="none" stroke="#000000" stroke-width="2" x1="55" x2="55" y1="4.5" y2="11.5" /><line fill="none" stroke="#000000" stroke-width="2" x1="73" x2="73" y1="4.5" y2="11.5" /><line fill="none" stroke="#000000" stroke-width="2" x1="38" x2="90" y1="24" y2="24" /><line fill="none" stroke="#000000" stroke-width="2" x1="9" x2="26.5" y1="59" y2="59" /><line fill="none" stroke="#000000" stroke-width="2" x1="10" x2="26.5" y1="33.5" y2="33.5" /><polyline fill="none" points="38,36 91,36 91,12.5 37,12.5 37,37" stroke="#000000" stroke-width="2" /><path d="M61,64.5 c4.906,13.169 18.765,24.675 34,28" fill="none" stroke="#000000" stroke-width="2" /><path d="M35.5,92 c12.064,-1.373 22.541,-3.147 35,-6" fill="none" stroke="#000000" stroke-width="2" /><path d="M75,83 c5.445,-3.965 10.942,-8.954 16,-14.5" fill="none" stroke="#000000" stroke-width="2" /><path d="M30,91.5 c4.027,-9.011 6,-19.303 6,-33 V44.0 h57.5" fill="none" stroke="#000000" stroke-width="2" /><path d="M4.5,92.5 c3.238,-8.584 4.5,-17.869 4.5,-46.5 v-36.0 h18.5 v73.0 c0,7.724 -0.25,8 -5,8 c-1.488,0 -4.585,-0.155 -9,-0.5" fill="none" stroke="#000000" stroke-width="2" /></svg>