<?xml version='1.0' encoding='utf-8'?>
<svg xmlns="http://www.w3.org/2000/svg" height="100px" version="1.0" viewBox="0 0 100 100" width="100px" x="0px" y="0px">
<line fill="none" stroke="#000000" stroke-width="2" x1="24" x2="49.5" y1="45.601" y2="45.601" /><line fill="none" stroke="#000000" stroke-width="2" x1="77" x2="77" y1="94" y2="36.5" /><line fill="none" stroke="#000000" stroke-width="2" x1="51" x2="93" y1="51.5" y2="51.5" /><line fill="none" stroke="#000000" stroke-width="2" x1="56.5" x2="56.5" y1="76" y2="52.5" /><line fill="none" stroke="#000000" stroke-width="2" x1="95.5" x2="43.5" y1="76" y2="76" /><polyline fill="none" points="90,46.5 90,31.5 10,31.5 10,49.5" stroke="#000000" stroke-width="2" /><path d="M12.5,13 c26.042,0 51.093,-1.89 75,-5.5" fill="none" stroke="#000000" stroke-width="2" /><path d="M31,31.5 c-2.783,-6.682 -5.894,-13.037 -9,-18.5" fill="none" stroke="#000000" stroke-width="2" /><path d="M53,31.5 c-2.773,-6.982 -5.91,-13.782 -9,-19.5" fill="none" stroke="#000000" stroke-width="2" /><path d="M69,31.5 c3.491,-6.315 6.621,-12.954 9,-19" fill="none" stroke="#000000" stroke-width="2" /><path d="M6,68 c10.053,-8.636 17.372,-19.217 22,-31.5" fill="none" stroke="#000000" stroke-width="2" /><path d="M48.502,46.539 c-1.309,21.24 -17.797,39.3 -40.002,46.461" fill="none" stroke="#000000" stroke-width="2" /><path d="M40,70.5 c-5.539,-4.183 -12.647,-8.876 -19,-12.5" fill="none" stroke="#000000" stroke-width="2" /></svg>