<?xml version='1.0' encoding='utf-8'?>
<svg xmlns="http://www.w3.org/2000/svg" height="100px" version="1.0" viewBox="0 0 100 100" width="100px" x="0px" y="0px">
<line fill="none" stroke="#000000" stroke-width="2" x1="92" x2="8" y1="45" y2="45" /><line fill="none" stroke="#000000" stroke-width="2" x1="94" x2="6" y1="28" y2="28" /><line fill="none" stroke="#000000" stroke-width="2" x1="21" x2="90" y1="11" y2="11" /><line fill="none" stroke="#000000" stroke-width="2" x1="21" x2="21" y1="44" y2="11" /><line fill="none" stroke="#000000" stroke-width="2" x1="40" x2="40" y1="44" y2="12" /><line fill="none" stroke="#000000" stroke-width="2" x1="60" x2="60" y1="44" y2="12" /><line fill="none" stroke="#000000" stroke-width="2" x1="79" x2="79" y1="44" y2="12" /><line fill="none" stroke="#000000" stroke-width="2" x1="23.5" x2="49.5" y1="56" y2="56" /><line fill="none" stroke="#000000" stroke-width="2" x1="77" x2="77" y1="94" y2="49" /><line fill="none" stroke="#000000" stroke-width="2" x1="51.5" x2="92" y1="58" y2="58" /><line fill="none" stroke="#000000" stroke-width="2" x1="57" x2="57" y1="79" y2="59" /><line fill="none" stroke="#000000" stroke-width="2" x1="95.5" x2="43.5" y1="79" y2="79" /><path d="M8,23.5 c7.774,-5.788 14.062,-13.168 18,-21" fill="none" stroke="#000000" stroke-width="2" /><path d="M6,72.5 c10.053,-6.58 17.372,-14.642 22,-24" fill="none" stroke="#000000" stroke-width="2" /><path d="M48.502,56.922 c-1.221,15.61 -16.297,30.561 -40.002,36.578" fill="none" stroke="#000000" stroke-width="2" /><path d="M39,76.489 c-5.539,-3.346 -12.643,-7.102 -19,-9.989" fill="none" stroke="#000000" stroke-width="2" /></svg>