<?xml version='1.0' encoding='utf-8'?>
<svg xmlns="http://www.w3.org/2000/svg" height="100px" version="1.0" viewBox="0 0 100 100" width="100px" x="0px" y="0px">
<line fill="none" stroke="#000000" stroke-width="2" x1="3" x2="45" y1="51" y2="47" /><line fill="none" stroke="#000000" stroke-width="2" x1="23.5" x2="23.5" y1="49" y2="81" /><line fill="none" stroke="#000000" stroke-width="2" x1="69.121" x2="69.121" y1="19" y2="4.5" /><line fill="none" stroke="#000000" stroke-width="2" x1="41" x2="96" y1="19" y2="19" /><path d="M3,92.5 c5.156,-10.463 7.5,-22.791 7.5,-46.5 v-30.5 h27.0 v67.5 c0,7.505 -0.339,8 -3.9,8 c-1.635,0 -4.753,-0.166 -9.6,-0.5" fill="none" stroke="#000000" stroke-width="2" /><path d="M28,40.5 c-2.914,-6.144 -6.154,-12.252 -9,-17" fill="none" stroke="#000000" stroke-width="2" /><path d="M23.5,4 c-0.602,4.216 -1.244,7.964 -2,11.5" fill="none" stroke="#000000" stroke-width="2" /><path d="M66.5,65 c-6.91,-9.394 -15.994,-20.591 -24,-29.5" fill="none" stroke="#000000" stroke-width="2" /><path d="M47,88.5 c15.242,-17.072 28.631,-35.124 40.5,-54.5" fill="none" stroke="#000000" stroke-width="2" /><path d="M50.5,44.5 c6.564,-7.953 12.695,-16.633 18,-25.5" fill="none" stroke="#000000" stroke-width="2" /><path d="M96,92 c-3.529,-8.647 -9.796,-21.124 -16,-31.5" fill="none" stroke="#000000" stroke-width="2" /><path d="M40.5,89 c15.614,-0.769 33.694,-3.035 51,-6.5" fill="none" stroke="#000000" stroke-width="2" /></svg>