<?xml version='1.0' encoding='utf-8'?>
<svg xmlns="http://www.w3.org/2000/svg" height="100px" version="1.0" viewBox="0 0 100 100" width="100px" x="0px" y="0px">
<line fill="none" stroke="#000000" stroke-width="2" x1="52" x2="52" y1="11.5" y2="24" /><line fill="none" stroke="#000000" stroke-width="2" x1="52" x2="52" y1="37.5" y2="50.5" /><line fill="none" stroke="#000000" stroke-width="2" x1="37.5" x2="66" y1="51.5" y2="51.5" /><line fill="none" stroke="#000000" stroke-width="2" x1="56" x2="56" y1="63.5" y2="89" /><line fill="none" stroke="#000000" stroke-width="2" x1="72" x2="72" y1="63.5" y2="89" /><line fill="none" stroke="#000000" stroke-width="2" x1="33" x2="95.5" y1="90" y2="90" /><line fill="none" stroke="#000000" stroke-width="2" x1="95" x2="73" y1="18" y2="18" /><line fill="none" stroke="#000000" stroke-width="2" x1="93" x2="70" y1="42" y2="42" /><line fill="none" stroke="#000000" stroke-width="2" x1="3.5" x2="34.5" y1="51" y2="47" /><line fill="none" stroke="#000000" stroke-width="2" x1="19" x2="19" y1="49" y2="81" /><polyline fill="none" points="65,10.5 37.5,10.5 37.5,58.5" stroke="#000000" stroke-width="2" /><polyline fill="none" points="38.5,37.5 62,37.5 62,24 38.5,24" stroke="#000000" stroke-width="2" /><polyline fill="none" points="88,89 88,63.5 40,63.5 40,89" stroke="#000000" stroke-width="2" /><path d="M65,34 c5.162,-7.536 9.528,-17.632 12,-28" fill="none" stroke="#000000" stroke-width="2" /><path d="M23.5,40.5 c-2.752,-6.144 -5.813,-12.252 -8.5,-17" fill="none" stroke="#000000" stroke-width="2" /><path d="M19.5,4 c-0.601,4.216 -1.245,7.964 -2,11.5" fill="none" stroke="#000000" stroke-width="2" /><path d="M2,92.5 c4.469,-10.463 6.5,-22.791 6.5,-46.5 v-30.5 h21.5 V83.0 c0,7.636 -0.33,8 -3.5,8 c-1.455,0 -4.193,-0.149 -8.5,-0.5" fill="none" stroke="#000000" stroke-width="2" /></svg>