<?xml version='1.0' encoding='utf-8'?>
<svg xmlns="http://www.w3.org/2000/svg" height="100px" version="1.0" viewBox="0 0 100 100" width="100px" x="0px" y="0px">
<line fill="none" stroke="#000000" stroke-width="2" x1="6.5" x2="93.5" y1="39.5" y2="39.5" /><line fill="none" stroke="#000000" stroke-width="2" x1="87.5" x2="12.5" y1="27.5" y2="27.5" /><line fill="none" stroke="#000000" stroke-width="2" x1="50" x2="50" y1="39.5" y2="19.5" /><line fill="none" stroke="#000000" stroke-width="2" x1="6.5" x2="93.5" y1="13.5" y2="13.5" /><line fill="none" stroke="#000000" stroke-width="2" x1="32" x2="32" y1="22.5" y2="5" /><line fill="none" stroke="#000000" stroke-width="2" x1="68" x2="68" y1="22.5" y2="5" /><line fill="none" stroke="#000000" stroke-width="2" x1="36" x2="80" y1="61" y2="61" /><path d="M8,74 c18.275,-4.945 33.976,-15.454 41,-26" fill="none" stroke="#000000" stroke-width="2" /><path d="M8,91.5 c31.635,-4.788 58.037,-16.966 71.294,-30.208" fill="none" stroke="#000000" stroke-width="2" /><path d="M92,91.5 c-25.061,-3.549 -48.012,-12.858 -61.5,-24" fill="none" stroke="#000000" stroke-width="2" /><path d="M60.5,39.5 v9.5 c0,4.343 0.234,4.5 15.5,4.5 c15.098,0 15.352,-0.22 16,-9" fill="none" stroke="#000000" stroke-width="2" /><path d="M6,58.5 c18.264,-2.322 30.415,-9.823 34.5,-19" fill="none" stroke="#000000" stroke-width="2" /></svg>