<?xml version='1.0' encoding='utf-8'?>
<svg xmlns="http://www.w3.org/2000/svg" height="100px" version="1.0" viewBox="0 0 100 100" width="100px" x="0px" y="0px">
<line fill="none" stroke="#000000" stroke-width="2" x1="93" x2="7" y1="25.5" y2="25.5" /><line fill="none" stroke="#000000" stroke-width="2" x1="50" x2="50" y1="25.5" y2="16.5" /><line fill="none" stroke="#000000" stroke-width="2" x1="6.5" x2="93.5" y1="13.5" y2="13.5" /><line fill="none" stroke="#000000" stroke-width="2" x1="32" x2="32" y1="21.5" y2="5" /><line fill="none" stroke="#000000" stroke-width="2" x1="68" x2="68" y1="21.5" y2="5" /><line fill="none" stroke="#000000" stroke-width="2" x1="50" x2="50" y1="87.5" y2="62" /><line fill="none" stroke="#000000" stroke-width="2" x1="17" x2="83" y1="88.5" y2="88.5" /><line fill="none" stroke="#000000" stroke-width="2" x1="17" x2="83" y1="74.5" y2="74.5" /><line fill="none" stroke="#000000" stroke-width="2" x1="88.5" x2="7" y1="52" y2="54" /><polyline fill="none" points="84,94 84,61 16,61 16,94" stroke="#000000" stroke-width="2" /><path d="M40,47.5 c-6.285,-4.294 -14.459,-9.62 -21.5,-14" fill="none" stroke="#000000" stroke-width="2" /><path d="M95,57.5 c-5.668,-5.065 -13.382,-11.406 -20,-16.5" fill="none" stroke="#000000" stroke-width="2" /><path d="M27,53.5 c17.381,-7.557 32.813,-15.556 46.5,-24" fill="none" stroke="#000000" stroke-width="2" /><path d="M24.5,37 c7.442,-3.866 13.791,-7.553 20,-11.5" fill="none" stroke="#000000" stroke-width="2" /></svg>