<?xml version='1.0' encoding='utf-8'?>
<svg xmlns="http://www.w3.org/2000/svg" height="100px" version="1.0" viewBox="0 0 100 100" width="100px" x="0px" y="0px">
<line fill="none" stroke="#000000" stroke-width="2" x1="7" x2="93" y1="12" y2="12" /><line fill="none" stroke="#000000" stroke-width="2" x1="32" x2="32" y1="20" y2="3" /><line fill="none" stroke="#000000" stroke-width="2" x1="68" x2="68" y1="20" y2="3" /><line fill="none" stroke="#000000" stroke-width="2" x1="62.5" x2="62.5" y1="24.5" y2="45.5" /><line fill="none" stroke="#000000" stroke-width="2" x1="38" x2="38" y1="24.5" y2="45.5" /><line fill="none" stroke="#000000" stroke-width="2" x1="50" x2="50" y1="23.5" y2="15.5" /><line fill="none" stroke="#000000" stroke-width="2" x1="26.5" x2="92" y1="57" y2="57" /><polyline fill="none" points="13.5,46.5 87,46.5 87,34.5 13.5,34.5" stroke="#000000" stroke-width="2" /><path d="M4.5,92 c4.898,-9.222 9,-27.282 9,-41.5 v-27.0 H92.0" fill="none" stroke="#000000" stroke-width="2" /><path d="M30.5,46.5 c-2.162,6.436 -5.464,15.285 -8,21.5 h67.0 c0,20.46 -3.117,24 -11,24 c-3.279,0 -8.379,-0.161 -14,-0.5" fill="none" stroke="#000000" stroke-width="2" /><path d="M79.5,84.5 c-2.03,-3.544 -4.318,-7.304 -7,-11.5" fill="none" stroke="#000000" stroke-width="2" /><path d="M61,87.25 c-1.44,-4.32 -3.216,-8.875 -5.5,-14" fill="none" stroke="#000000" stroke-width="2" /><path d="M42.5,90 c-0.851,-5.098 -2.113,-10.445 -4,-16.5" fill="none" stroke="#000000" stroke-width="2" /><path d="M17,91.5 c3.392,-5.305 6.378,-11.181 9,-18" fill="none" stroke="#000000" stroke-width="2" /></svg>