<?xml version='1.0' encoding='utf-8'?>
<svg xmlns="http://www.w3.org/2000/svg" height="100px" version="1.0" viewBox="0 0 100 100" width="100px" x="0px" y="0px">
<line fill="none" stroke="#000000" stroke-width="2" x1="48.5" x2="48.5" y1="22.5" y2="3.5" /><line fill="none" stroke="#000000" stroke-width="2" x1="48.5" x2="84.5" y1="12" y2="12" /><line fill="none" stroke="#000000" stroke-width="2" x1="18.5" x2="75.5" y1="40.5" y2="34" /><path d="M80,37.5 c4.42,-4.483 7.703,-8.944 10.615,-14.466" fill="none" stroke="#000000" stroke-width="2" /><path d="M4.5,91 c6.739,-14.092 10,-29.671 10,-51 v-17.5 h77.0" fill="none" stroke="#000000" stroke-width="2" /><path d="M64,60.5 v22.3 c0,6.572 0.83,7.2 14,7.2 c14.107,0 14.367,-0.203 15,-19" fill="none" stroke="#000000" stroke-width="2" /><path d="M15,91 c21.021,-5.094 28,-13.144 28,-30.5" fill="none" stroke="#000000" stroke-width="2" /><path d="M41.5,26.5 v21.0 c0,5.854 0.146,6 20,6 c25.446,0 25.729,-0.272 27,-17" fill="none" stroke="#000000" stroke-width="2" /></svg>