<?xml version='1.0' encoding='utf-8'?>
<svg xmlns="http://www.w3.org/2000/svg" height="100px" version="1.0" viewBox="0 0 100 100" width="100px" x="0px" y="0px">
<line fill="none" stroke="#000000" stroke-width="2" x1="48.5" x2="48.5" y1="21.5" y2="3" /><line fill="none" stroke="#000000" stroke-width="2" x1="18.5" x2="75.5" y1="38.5" y2="32.5" /><line fill="none" stroke="#000000" stroke-width="2" x1="48.5" x2="84.5" y1="11.5" y2="11.5" /><line fill="none" stroke="#000000" stroke-width="2" x1="45.5" x2="45.5" y1="56" y2="89.5" /><line fill="none" stroke="#000000" stroke-width="2" x1="64.5" x2="64.5" y1="56" y2="89.5" /><line fill="none" stroke="#000000" stroke-width="2" x1="17.5" x2="91.5" y1="89.5" y2="89.5" /><path d="M80,35 c4.43,-4.031 7.719,-8.043 10.637,-13.007" fill="none" stroke="#000000" stroke-width="2" /><path d="M4.5,91 c6.739,-14.092 10,-29.671 10,-51 v-18.5 h77.0" fill="none" stroke="#000000" stroke-width="2" /><path d="M72,82 c4.464,-5.115 9.124,-13.237 13,-23.5" fill="none" stroke="#000000" stroke-width="2" /><path d="M37.5,82 c-3.023,-7.894 -7.367,-16.122 -12.5,-23.5" fill="none" stroke="#000000" stroke-width="2" /><path d="M41.5,25.5 V45.0 c0,5.396 0.12,5.5 20,5.5 c25.66,0 25.734,-0.085 27,-15.5" fill="none" stroke="#000000" stroke-width="2" /></svg>