<?xml version='1.0' encoding='utf-8'?>
<svg xmlns="http://www.w3.org/2000/svg" height="100px" version="1.0" viewBox="0 0 100 100" width="100px" x="0px" y="0px">
<line fill="none" stroke="#000000" stroke-width="2" x1="63" x2="63" y1="25" y2="10.5" /><line fill="none" stroke="#000000" stroke-width="2" x1="37" x2="37" y1="25" y2="10.5" /><line fill="none" stroke="#000000" stroke-width="2" x1="42.5" x2="42.5" y1="85" y2="37.5" /><line fill="none" stroke="#000000" stroke-width="2" x1="18" x2="69" y1="65.5" y2="65.5" /><polyline fill="none" points="13,26 88,26 88,9.5 12,9.5 12,27" stroke="#000000" stroke-width="2" /><polyline fill="none" points="70,66.5 70,49 17,49 17,72.5" stroke="#000000" stroke-width="2" /><path d="M77.5,91.5 c-4.302,0 -11.125,-0.347 -18.5,-1" fill="none" stroke="#000000" stroke-width="2" /><path d="M3.5,58 c9.656,-9.01 17.44,-21.107 21,-32" fill="none" stroke="#000000" stroke-width="2" /><path d="M19.5,37.5 h70.0 c-2.307,48.732 -5.467,54 -12,54" fill="none" stroke="#000000" stroke-width="2" /><path d="M77.5,86.5 c-3.967,-5.15 -9.405,-11.75 -14,-17" fill="none" stroke="#000000" stroke-width="2" /><path d="M8,88 c19.496,-0.979 42.335,-3.814 64.5,-8" fill="none" stroke="#000000" stroke-width="2" /></svg>