<?xml version='1.0' encoding='utf-8'?>
<svg xmlns="http://www.w3.org/2000/svg" height="100px" version="1.0" viewBox="0 0 100 100" width="100px" x="0px" y="0px">
<line fill="none" stroke="#000000" stroke-width="2" x1="18.5" x2="18.5" y1="83.5" y2="6" /><line fill="none" stroke="#000000" stroke-width="2" x1="65.5" x2="65.5" y1="15" y2="3" /><line fill="none" stroke="#000000" stroke-width="2" x1="47" x2="65" y1="33" y2="33" /><polyline fill="none" points="6.5,52 31.5,52 31.5,21 5.5,21 5.5,60" stroke="#000000" stroke-width="2" /><polyline fill="none" points="94,31 94,15 37,15 37,32" stroke="#000000" stroke-width="2" /><path d="M35.5,84 c-1.764,-7.366 -4.873,-16.755 -8,-24" fill="none" stroke="#000000" stroke-width="2" /><path d="M2.5,90 c9.188,-2.702 19.961,-7.815 30.5,-14.5" fill="none" stroke="#000000" stroke-width="2" /><path d="M33,60.5 c7.862,-10.765 13.846,-24.015 17.5,-39" fill="none" stroke="#000000" stroke-width="2" /><path d="M64.002,33.959 c-1.064,26.077 -14.461,48.25 -32.502,57.041" fill="none" stroke="#000000" stroke-width="2" /><path d="M95.5,69.5 c-1.055,20.802 -1.268,21 -13.5,21 c-12.255,0 -12.5,-0.219 -12.5,-6.5 v-53.5 h20.5 v28.0 c0,6.25 -0.211,6.5 -4.5,6.5 c-1.532,0 -4.852,-0.139 -9.5,-0.5" fill="none" stroke="#000000" stroke-width="2" /><path d="M57,63.5 c-3.987,-4.538 -8.946,-9.513 -13.5,-13.5" fill="none" stroke="#000000" stroke-width="2" /></svg>