<?xml version='1.0' encoding='utf-8'?>
<svg xmlns="http://www.w3.org/2000/svg" height="100px" version="1.0" viewBox="0 0 100 100" width="100px" x="0px" y="0px">
<line fill="none" stroke="#000000" stroke-width="2" x1="96" x2="38.5" y1="75.5" y2="75.5" /><line fill="none" stroke="#000000" stroke-width="2" x1="67" x2="67" y1="24.5" y2="94" /><line fill="none" stroke="#000000" stroke-width="2" x1="43.5" x2="90.5" y1="41.5" y2="41.5" /><line fill="none" stroke="#000000" stroke-width="2" x1="20.5" x2="20.5" y1="84.5" y2="6" /><polyline fill="none" points="43.5,60.5 91.5,60.5 91.5,23.5 42.5,23.5 42.5,61.5" stroke="#000000" stroke-width="2" /><polyline fill="none" points="7,52 35,52 35,21 6,21 6,60" stroke="#000000" stroke-width="2" /><path d="M51,23.5 c-2.787,-6.308 -5.894,-12.341 -9,-17.5" fill="none" stroke="#000000" stroke-width="2" /><path d="M70,23.5 c-2.776,-6.672 -5.895,-13.046 -9,-18.5" fill="none" stroke="#000000" stroke-width="2" /><path d="M81,23.5 c4.311,-6.196 8.073,-12.56 11,-18.5" fill="none" stroke="#000000" stroke-width="2" /><path d="M38,89 c-1.764,-8.9 -4.873,-20.247 -8,-29" fill="none" stroke="#000000" stroke-width="2" /><path d="M3,90 c9.73,-2.313 21.336,-6.738 32.5,-12.5" fill="none" stroke="#000000" stroke-width="2" /></svg>