<?xml version='1.0' encoding='utf-8'?>
<svg xmlns="http://www.w3.org/2000/svg" height="100px" version="1.0" viewBox="0 0 100 100" width="100px" x="0px" y="0px">
<line fill="none" stroke="#000000" stroke-width="2" x1="20.5" x2="20.5" y1="84.5" y2="6" /><line fill="none" stroke="#000000" stroke-width="2" x1="38.5" x2="95.5" y1="11" y2="11" /><line fill="none" stroke="#000000" stroke-width="2" x1="63.5" x2="63.5" y1="49.5" y2="91" /><line fill="none" stroke="#000000" stroke-width="2" x1="77.5" x2="77.5" y1="49.5" y2="91" /><line fill="none" stroke="#000000" stroke-width="2" x1="50.5" x2="90.5" y1="66.5" y2="66.5" /><polyline fill="none" points="7,52 35,52 35,21 6,21 6,60" stroke="#000000" stroke-width="2" /><path d="M38,89 c-1.764,-8.9 -4.873,-20.247 -8,-29" fill="none" stroke="#000000" stroke-width="2" /><path d="M3,90 c9.73,-2.313 21.336,-6.738 32.5,-12.5" fill="none" stroke="#000000" stroke-width="2" /><path d="M37,84.5 c5.236,-14.433 7.5,-27.324 7.5,-44.5 v-19.0 h45.5 v17.0 h-44.5" fill="none" stroke="#000000" stroke-width="2" /><path d="M82.5,91.25 c2.709,0.166 4.616,0.25 6,0.25 c2.665,0 3,-0.333 3,-4 v-39.0 h-42.0 V93.0" fill="none" stroke="#000000" stroke-width="2" /></svg>