<?xml version='1.0' encoding='utf-8'?>
<svg xmlns="http://www.w3.org/2000/svg" height="100px" version="1.0" viewBox="0 0 100 100" width="100px" x="0px" y="0px">
<line fill="none" stroke="#000000" stroke-width="2" x1="19.5" x2="19.5" y1="84.5" y2="6" /><line fill="none" stroke="#000000" stroke-width="2" x1="36" x2="95" y1="61.5" y2="61.5" /><line fill="none" stroke="#000000" stroke-width="2" x1="37" x2="95" y1="40.5" y2="40.5" /><line fill="none" stroke="#000000" stroke-width="2" x1="42" x2="90.5" y1="27" y2="27" /><line fill="none" stroke="#000000" stroke-width="2" x1="39" x2="93.5" y1="14" y2="14" /><line fill="none" stroke="#000000" stroke-width="2" x1="66" x2="66" y1="40.5" y2="14" /><polyline fill="none" points="6.5,52 33.5,52 33.5,21 5.5,21 5.5,60" stroke="#000000" stroke-width="2" /><path d="M37.5,86.5 c-1.764,-8.134 -4.873,-18.501 -8,-26.5" fill="none" stroke="#000000" stroke-width="2" /><path d="M2.5,90 c9.73,-2.313 21.336,-6.738 32.5,-12.5" fill="none" stroke="#000000" stroke-width="2" /><path d="M53.486,49.5 v38.0 c0,3.722 -0.303,4 -3.486,4 c-1.504,0 -5.597,-0.214 -8.5,-0.5" fill="none" stroke="#000000" stroke-width="2" /><path d="M91.5,66 c-5.997,11.488 -17.258,20.366 -33,25" fill="none" stroke="#000000" stroke-width="2" /><path d="M72,45 c0,32.916 14.527,46.5 17.5,46.5 c1.611,0 4.029,-1.789 5.5,-13" fill="none" stroke="#000000" stroke-width="2" /><path d="M39,51.5 c10.531,-1.172 19.527,-3.007 27.5,-5.5" fill="none" stroke="#000000" stroke-width="2" /><path d="M39,78.5 c11.302,-1.385 20.949,-3.537 29.5,-6.5" fill="none" stroke="#000000" stroke-width="2" /><path d="M57,14 c-1.753,-3.556 -3.662,-7.034 -5.5,-10" fill="none" stroke="#000000" stroke-width="2" /><path d="M74.5,14 c2.08,-3.292 4.053,-6.888 5.5,-10" fill="none" stroke="#000000" stroke-width="2" /><path d="M92,56.5 c-3.542,-3.649 -7.025,-6.84 -11,-10" fill="none" stroke="#000000" stroke-width="2" /></svg>