<?xml version='1.0' encoding='utf-8'?>
<svg xmlns="http://www.w3.org/2000/svg" height="100px" version="1.0" viewBox="0 0 100 100" width="100px" x="0px" y="0px">
<line fill="none" stroke="#000000" stroke-width="2" x1="20" x2="20" y1="84.5" y2="6" /><line fill="none" stroke="#000000" stroke-width="2" x1="37" x2="94" y1="12" y2="12" /><line fill="none" stroke="#000000" stroke-width="2" x1="53.5" x2="53.5" y1="18.5" y2="4" /><line fill="none" stroke="#000000" stroke-width="2" x1="78.5" x2="78.5" y1="18.5" y2="4" /><line fill="none" stroke="#000000" stroke-width="2" x1="68" x2="68" y1="55.5" y2="26" /><line fill="none" stroke="#000000" stroke-width="2" x1="93.5" x2="43.5" y1="25" y2="25" /><line fill="none" stroke="#000000" stroke-width="2" x1="44.5" x2="91.5" y1="35.5" y2="35.5" /><line fill="none" stroke="#000000" stroke-width="2" x1="44.5" x2="91.5" y1="46" y2="46" /><line fill="none" stroke="#000000" stroke-width="2" x1="39" x2="89.5" y1="64.5" y2="64.5" /><polyline fill="none" points="6.5,52 34.5,52 34.5,21 5.5,21 5.5,60" stroke="#000000" stroke-width="2" /><polyline fill="none" points="43.5,25 43.5,56.5 93.5,56.5" stroke="#000000" stroke-width="2" /><path d="M37.5,86.5 c-1.764,-8.134 -4.873,-18.501 -8,-26.5" fill="none" stroke="#000000" stroke-width="2" /><path d="M2.5,90 c9.73,-2.313 21.336,-6.738 32.5,-12.5" fill="none" stroke="#000000" stroke-width="2" /><path d="M34.5,37.5 c6.19,-7.249 10.289,-14.226 13,-22" fill="none" stroke="#000000" stroke-width="2" /><path d="M72,15.5 c-1.352,3.671 -2.391,6.123 -4,9.5" fill="none" stroke="#000000" stroke-width="2" /><path d="M37,90.5 c22.893,-3.578 43.559,-14.586 51.695,-25.594" fill="none" stroke="#000000" stroke-width="2" /><path d="M95.5,90.5 c-18.199,-2.941 -37.471,-12.462 -47,-22.5" fill="none" stroke="#000000" stroke-width="2" /></svg>