<?xml version='1.0' encoding='utf-8'?>
<svg xmlns="http://www.w3.org/2000/svg" height="100px" version="1.0" viewBox="0 0 100 100" width="100px" x="0px" y="0px">
<line fill="none" stroke="#000000" stroke-width="2" x1="14" x2="14" y1="94" y2="43.5" /><line fill="none" stroke="#000000" stroke-width="2" x1="97" x2="72.5" y1="34" y2="34" /><line fill="none" stroke="#000000" stroke-width="2" x1="95" x2="73" y1="11" y2="11" /><line fill="none" stroke="#000000" stroke-width="2" x1="32" x2="68" y1="49" y2="49" /><line fill="none" stroke="#000000" stroke-width="2" x1="28.5" x2="70.5" y1="74.5" y2="74.5" /><line fill="none" stroke="#000000" stroke-width="2" x1="50" x2="50" y1="88.5" y2="11.5" /><line fill="none" stroke="#000000" stroke-width="2" x1="28.5" x2="70.5" y1="24.5" y2="24.5" /><polyline fill="none" points="32,63 69,63 69,35 31,35 31,64" stroke="#000000" stroke-width="2" /><path d="M24,28 c-5.643,11.01 -13.136,20.146 -22,27" fill="none" stroke="#000000" stroke-width="2" /><path d="M25,6 c-5.519,9.226 -12.759,16.872 -22,23" fill="none" stroke="#000000" stroke-width="2" /><path d="M88,34 v49.5 c0,7.198 -0.722,8 -6,8 c-2.422,0 -5.975,-0.144 -11,-0.5" fill="none" stroke="#000000" stroke-width="2" /><path d="M30,13 c14.268,-0.553 28.242,-2.429 39,-5" fill="none" stroke="#000000" stroke-width="2" /><path d="M26.5,91 c15.208,-1.313 30.423,-3.488 45.5,-6.5" fill="none" stroke="#000000" stroke-width="2" /></svg>