<?xml version='1.0' encoding='utf-8'?>
<svg xmlns="http://www.w3.org/2000/svg" height="100px" version="1.0" viewBox="0 0 100 100" width="100px" x="0px" y="0px">
<line fill="none" stroke="#000000" stroke-width="2" x1="14" x2="14" y1="94" y2="43.5" /><line fill="none" stroke="#000000" stroke-width="2" x1="97" x2="72.5" y1="34" y2="34" /><line fill="none" stroke="#000000" stroke-width="2" x1="95" x2="73" y1="11" y2="11" /><line fill="none" stroke="#000000" stroke-width="2" x1="38.5" x2="60.5" y1="11" y2="11" /><line fill="none" stroke="#000000" stroke-width="2" x1="32.5" x2="67.5" y1="39" y2="39" /><line fill="none" stroke="#000000" stroke-width="2" x1="50" x2="50" y1="25" y2="54" /><line fill="none" stroke="#000000" stroke-width="2" x1="73.5" x2="26.5" y1="66" y2="66" /><polyline fill="none" points="31.5,56 31.5,24 68.5,24 68.5,55 32.5,55" stroke="#000000" stroke-width="2" /><path d="M24,28 c-5.643,11.01 -13.136,20.146 -22,27" fill="none" stroke="#000000" stroke-width="2" /><path d="M25,6 c-5.519,9.226 -12.759,16.872 -22,23" fill="none" stroke="#000000" stroke-width="2" /><path d="M88,34 v49.5 c0,7.198 -0.722,8 -6,8 c-2.422,0 -5.975,-0.144 -11,-0.5" fill="none" stroke="#000000" stroke-width="2" /><path d="M50.5,24 c3.219,-3.845 6.496,-8.347 9.155,-12.535" fill="none" stroke="#000000" stroke-width="2" /><path d="M26.5,26.5 c7.004,-6.562 12.346,-14.544 15.5,-23" fill="none" stroke="#000000" stroke-width="2" /><path d="M24.5,92 c15.4,-5.248 25.5,-16.378 25.5,-26.5 V56.0" fill="none" stroke="#000000" stroke-width="2" /><path d="M69.5,87 c-5.917,-6.201 -11.933,-11.373 -20,-17" fill="none" stroke="#000000" stroke-width="2" /></svg>