<?xml version='1.0' encoding='utf-8'?>
<svg xmlns="http://www.w3.org/2000/svg" height="100px" version="1.0" viewBox="0 0 100 100" width="100px" x="0px" y="0px">
<line fill="none" stroke="#000000" stroke-width="2" x1="37" x2="5" y1="24" y2="24" /><line fill="none" stroke="#000000" stroke-width="2" x1="21" x2="21" y1="24" y2="6" /><line fill="none" stroke="#000000" stroke-width="2" x1="21" x2="21" y1="94" y2="50" /><line fill="none" stroke="#000000" stroke-width="2" x1="38" x2="96" y1="50.5" y2="50.5" /><polyline fill="none" points="88,49.5 88,20 40,20" stroke="#000000" stroke-width="2" /><path d="M36,66 c-3.734,-4.671 -9.705,-11.511 -14.5,-16.5" fill="none" stroke="#000000" stroke-width="2" /><path d="M3,65.5 c15.794,-10.147 25.825,-22.294 33.068,-40.863" fill="none" stroke="#000000" stroke-width="2" /><path d="M27.5,56 c3.578,-3.504 7.165,-7.74 10.5,-12.5" fill="none" stroke="#000000" stroke-width="2" /><path d="M30,91 c20.807,-8.021 34,-24.989 34,-42.5 V5.0" fill="none" stroke="#000000" stroke-width="2" /><path d="M95,91 c-18.918,-8.022 -31,-24.988 -31,-42.5" fill="none" stroke="#000000" stroke-width="2" /></svg>