<?xml version='1.0' encoding='utf-8'?>
<svg xmlns="http://www.w3.org/2000/svg" height="100px" version="1.0" viewBox="0 0 100 100" width="100px" x="0px" y="0px">
<line fill="none" stroke="#000000" stroke-width="2" x1="33.5" x2="4" y1="24" y2="24" /><line fill="none" stroke="#000000" stroke-width="2" x1="18.5" x2="18.5" y1="24" y2="6" /><line fill="none" stroke="#000000" stroke-width="2" x1="18.5" x2="18.5" y1="94" y2="50.5" /><path d="M34,66 c-3.598,-4.818 -9.369,-11.859 -14,-17" fill="none" stroke="#000000" stroke-width="2" /><path d="M2.5,65.5 c14.356,-10.141 23.476,-22.278 30.059,-40.834" fill="none" stroke="#000000" stroke-width="2" /><path d="M26,56 c3.371,-3.937 6.654,-8.925 9.5,-14.5" fill="none" stroke="#000000" stroke-width="2" /><path d="M40,47.5 c15.953,-6.042 29.062,-14.006 38,-22.5" fill="none" stroke="#000000" stroke-width="2" /><path d="M39.5,70 c20.97,-7.056 36.076,-16.124 47.5,-27.5" fill="none" stroke="#000000" stroke-width="2" /><path d="M39.5,92 c24.336,-6.769 41.204,-16.117 56,-30" fill="none" stroke="#000000" stroke-width="2" /><path d="M97,31.5 c-11.572,-7.841 -22.095,-16.619 -31.5,-26.3 c-9.057,10.945 -17.821,18.966 -30,27.3" fill="none" stroke="#000000" stroke-width="2" /></svg>