<?xml version='1.0' encoding='utf-8'?>
<svg xmlns="http://www.w3.org/2000/svg" height="100px" version="1.0" viewBox="0 0 100 100" width="100px" x="0px" y="0px">
<line fill="none" stroke="#000000" stroke-width="2" x1="95.5" x2="34.5" y1="51" y2="51" /><line fill="none" stroke="#000000" stroke-width="2" x1="95.5" x2="34.5" y1="14.5" y2="14.5" /><line fill="none" stroke="#000000" stroke-width="2" x1="80.5" x2="49.5" y1="37.5" y2="37.5" /><line fill="none" stroke="#000000" stroke-width="2" x1="33.5" x2="4" y1="24" y2="24" /><line fill="none" stroke="#000000" stroke-width="2" x1="18.5" x2="18.5" y1="24" y2="6" /><line fill="none" stroke="#000000" stroke-width="2" x1="18.5" x2="18.5" y1="94" y2="50.5" /><path d="M47.5,51 c-2.052,9.31 -5.5,20.015 -9,28" fill="none" stroke="#000000" stroke-width="2" /><path d="M43.5,65 h44.5 c-2.41,25.162 -3.871,27 -9.5,27 c-3.021,0 -10.614,-0.451 -16.5,-1" fill="none" stroke="#000000" stroke-width="2" /><path d="M96,46 c-11.091,-6.48 -20.921,-18.048 -26.5,-31.5" fill="none" stroke="#000000" stroke-width="2" /><path d="M34,46 c15.565,-9.8 26.73,-25.08 30.5,-41" fill="none" stroke="#000000" stroke-width="2" /><path d="M33,65 c-3.469,-4.677 -9.035,-11.511 -13.5,-16.5" fill="none" stroke="#000000" stroke-width="2" /><path d="M2.5,65.5 c14.356,-10.141 23.476,-22.278 30.059,-40.834" fill="none" stroke="#000000" stroke-width="2" /><path d="M26,56 c2.058,-2.475 4.082,-5.342 6,-8.5" fill="none" stroke="#000000" stroke-width="2" /></svg>