<?xml version='1.0' encoding='utf-8'?>
<svg xmlns="http://www.w3.org/2000/svg" height="100px" version="1.0" viewBox="0 0 100 100" width="100px" x="0px" y="0px">
<line fill="none" stroke="#000000" stroke-width="2" x1="50" x2="50" y1="56" y2="44.5" /><line fill="none" stroke="#000000" stroke-width="2" x1="7" x2="93" y1="56" y2="56" /><line fill="none" stroke="#000000" stroke-width="2" x1="30.5" x2="30.5" y1="89" y2="67" /><line fill="none" stroke="#000000" stroke-width="2" x1="63.5" x2="63.5" y1="39.5" y2="8.5" /><line fill="none" stroke="#000000" stroke-width="2" x1="8" x2="56" y1="11" y2="11" /><line fill="none" stroke="#000000" stroke-width="2" x1="24.5" x2="53" y1="21" y2="21" /><path d="M49,56 c-9.934,7.651 -24.082,14.437 -44,20" fill="none" stroke="#000000" stroke-width="2" /><path d="M51,56 c7.448,16.339 23.893,29.89 44,36" fill="none" stroke="#000000" stroke-width="2" /><path d="M11,92 c17.236,-2.266 32.201,-5.261 50,-10" fill="none" stroke="#000000" stroke-width="2" /><path d="M65.5,75.5 c8.107,-4.224 15.449,-9.387 21.5,-15" fill="none" stroke="#000000" stroke-width="2" /><path d="M88,6.5 V41.0 c0,7.13 -0.867,8 -6.5,8 c-2.75,0 -6.917,-0.144 -12.5,-0.5" fill="none" stroke="#000000" stroke-width="2" /><path d="M6,35 c12.15,-6.226 20.68,-14.813 25,-24" fill="none" stroke="#000000" stroke-width="2" /><path d="M52.038,21.727 c-3.694,12.995 -19.591,24.762 -44.038,29.273" fill="none" stroke="#000000" stroke-width="2" /><path d="M37.5,40 c-4.214,-3.961 -9.946,-8.916 -14.5,-12.5" fill="none" stroke="#000000" stroke-width="2" /></svg>