<?xml version='1.0' encoding='utf-8'?>
<svg xmlns="http://www.w3.org/2000/svg" height="100px" version="1.0" viewBox="0 0 100 100" width="100px" x="0px" y="0px">
<line fill="none" stroke="#000000" stroke-width="2" x1="33.5" x2="4" y1="24" y2="24" /><line fill="none" stroke="#000000" stroke-width="2" x1="18.5" x2="18.5" y1="24" y2="6" /><line fill="none" stroke="#000000" stroke-width="2" x1="18.5" x2="18.5" y1="94" y2="50.5" /><line fill="none" stroke="#000000" stroke-width="2" x1="95.5" x2="32.5" y1="13" y2="13" /><line fill="none" stroke="#000000" stroke-width="2" x1="63" x2="63" y1="4.5" y2="47.5" /><line fill="none" stroke="#000000" stroke-width="2" x1="33.5" x2="96.5" y1="35.5" y2="35.5" /><line fill="none" stroke="#000000" stroke-width="2" x1="95.5" x2="32.5" y1="58.5" y2="58.5" /><polyline fill="none" points="36.5,48.5 89,48.5 89,23 36.5,23" stroke="#000000" stroke-width="2" /><path d="M33,65 c-3.469,-4.677 -9.035,-11.511 -13.5,-16.5" fill="none" stroke="#000000" stroke-width="2" /><path d="M2.5,65.5 c14.356,-10.141 23.476,-22.278 30.059,-40.834" fill="none" stroke="#000000" stroke-width="2" /><path d="M26,56 c3.371,-3.937 6.654,-8.925 9.5,-14.5" fill="none" stroke="#000000" stroke-width="2" /><path d="M28,92 c28.339,-4.039 48.695,-17.257 57,-33.5" fill="none" stroke="#000000" stroke-width="2" /><path d="M61,48.5 c-6.734,10.319 -15.451,19.622 -27,28.5" fill="none" stroke="#000000" stroke-width="2" /><path d="M39,73 c18.534,3.755 33.963,9.284 54,19.5" fill="none" stroke="#000000" stroke-width="2" /></svg>