<?xml version='1.0' encoding='utf-8'?>
<svg xmlns="http://www.w3.org/2000/svg" height="100px" version="1.0" viewBox="0 0 100 100" width="100px" x="0px" y="0px">
<line fill="none" stroke="#000000" stroke-width="2" x1="33.5" x2="94" y1="11" y2="11" /><line fill="none" stroke="#000000" stroke-width="2" x1="60" x2="60" y1="49.5" y2="91" /><line fill="none" stroke="#000000" stroke-width="2" x1="75" x2="75" y1="49.5" y2="91" /><line fill="none" stroke="#000000" stroke-width="2" x1="46" x2="89" y1="66.5" y2="66.5" /><line fill="none" stroke="#000000" stroke-width="2" x1="33.5" x2="4" y1="24" y2="24" /><line fill="none" stroke="#000000" stroke-width="2" x1="18.5" x2="18.5" y1="24" y2="6" /><line fill="none" stroke="#000000" stroke-width="2" x1="18.5" x2="18.5" y1="94" y2="50.5" /><path d="M30.5,89 c6.401,-16.146 9,-30.167 9,-49 v-19.0 h49.0 v17.0 h-48.0" fill="none" stroke="#000000" stroke-width="2" /><path d="M80.5,91.25 c2.709,0.166 4.616,0.25 6,0.25 c3.164,0 3.5,-0.333 3.5,-4 v-39.0 h-45.0 V93.0" fill="none" stroke="#000000" stroke-width="2" /><path d="M33,65 c-3.469,-4.677 -9.035,-11.511 -13.5,-16.5" fill="none" stroke="#000000" stroke-width="2" /><path d="M2.5,65.5 c14.356,-10.141 23.476,-22.278 30.059,-40.834" fill="none" stroke="#000000" stroke-width="2" /><path d="M26,56 c3.371,-3.937 6.654,-8.925 9.5,-14.5" fill="none" stroke="#000000" stroke-width="2" /></svg>