<?xml version='1.0' encoding='utf-8'?>
<svg xmlns="http://www.w3.org/2000/svg" height="100px" version="1.0" viewBox="0 0 100 100" width="100px" x="0px" y="0px">
<line fill="none" stroke="#000000" stroke-width="2" x1="33.5" x2="4" y1="24" y2="24" /><line fill="none" stroke="#000000" stroke-width="2" x1="18.5" x2="18.5" y1="24" y2="6" /><line fill="none" stroke="#000000" stroke-width="2" x1="18.5" x2="18.5" y1="94" y2="50.5" /><line fill="none" stroke="#000000" stroke-width="2" x1="96" x2="35" y1="75.5" y2="75.5" /><line fill="none" stroke="#000000" stroke-width="2" x1="65.5" x2="65.5" y1="24.5" y2="94" /><line fill="none" stroke="#000000" stroke-width="2" x1="41" x2="90" y1="41.5" y2="41.5" /><polyline fill="none" points="41,60.5 91,60.5 91,23.5 40,23.5 40,61.5" stroke="#000000" stroke-width="2" /><path d="M34,66 c-3.598,-4.818 -9.369,-11.859 -14,-17" fill="none" stroke="#000000" stroke-width="2" /><path d="M2.5,65.5 c14.356,-10.141 23.476,-22.278 30.059,-40.834" fill="none" stroke="#000000" stroke-width="2" /><path d="M26,56 c3.371,-3.937 6.654,-8.925 9.5,-14.5" fill="none" stroke="#000000" stroke-width="2" /><path d="M48.5,23.5 c-2.787,-6.308 -5.894,-12.341 -9,-17.5" fill="none" stroke="#000000" stroke-width="2" /><path d="M68.5,23.5 c-2.776,-6.672 -5.895,-13.046 -9,-18.5" fill="none" stroke="#000000" stroke-width="2" /><path d="M80.5,23.5 c4.311,-6.196 8.073,-12.56 11,-18.5" fill="none" stroke="#000000" stroke-width="2" /></svg>