<?xml version='1.0' encoding='utf-8'?>
<svg xmlns="http://www.w3.org/2000/svg" height="100px" version="1.0" viewBox="0 0 100 100" width="100px" x="0px" y="0px">
<line fill="none" stroke="#000000" stroke-width="2" x1="28" x2="3.5" y1="24" y2="24" /><line fill="none" stroke="#000000" stroke-width="2" x1="15" x2="15" y1="24" y2="6" /><line fill="none" stroke="#000000" stroke-width="2" x1="15" x2="15" y1="94" y2="51" /><line fill="none" stroke="#000000" stroke-width="2" x1="49" x2="49" y1="11.5" y2="24" /><line fill="none" stroke="#000000" stroke-width="2" x1="49" x2="49" y1="37.5" y2="50.5" /><line fill="none" stroke="#000000" stroke-width="2" x1="34" x2="65" y1="51.5" y2="51.5" /><line fill="none" stroke="#000000" stroke-width="2" x1="54" x2="54" y1="63.5" y2="89" /><line fill="none" stroke="#000000" stroke-width="2" x1="71" x2="71" y1="63.5" y2="89" /><line fill="none" stroke="#000000" stroke-width="2" x1="27.5" x2="95.5" y1="90" y2="90" /><line fill="none" stroke="#000000" stroke-width="2" x1="95" x2="72" y1="18" y2="18" /><line fill="none" stroke="#000000" stroke-width="2" x1="93" x2="69" y1="42" y2="42" /><polyline fill="none" points="64,10.5 34,10.5 34,58.5" stroke="#000000" stroke-width="2" /><polyline fill="none" points="35,37.5 61,37.5 61,24 35,24" stroke="#000000" stroke-width="2" /><polyline fill="none" points="88,89 88,63.5 37,63.5 37,89" stroke="#000000" stroke-width="2" /><path d="M28.5,65 c-3.083,-4.677 -8.031,-11.511 -12,-16.5" fill="none" stroke="#000000" stroke-width="2" /><path d="M22.5,57 c2.838,-3.937 5.604,-8.925 8,-14.5" fill="none" stroke="#000000" stroke-width="2" /><path d="M2,65.5 c11.96,-10.128 19.557,-22.25 25.041,-40.783" fill="none" stroke="#000000" stroke-width="2" /><path d="M64,34 c5.162,-7.536 9.528,-17.632 12,-28" fill="none" stroke="#000000" stroke-width="2" /></svg>