<?xml version='1.0' encoding='utf-8'?>
<svg xmlns="http://www.w3.org/2000/svg" height="100px" version="1.0" viewBox="0 0 100 100" width="100px" x="0px" y="0px">
<line fill="none" stroke="#000000" stroke-width="2" x1="93" x2="7" y1="10" y2="10" /><line fill="none" stroke="#000000" stroke-width="2" x1="62" x2="62" y1="11" y2="33" /><line fill="none" stroke="#000000" stroke-width="2" x1="38" x2="38" y1="11" y2="33" /><line fill="none" stroke="#000000" stroke-width="2" x1="17.5" x2="17.5" y1="94" y2="60.5" /><line fill="none" stroke="#000000" stroke-width="2" x1="92" x2="42" y1="41" y2="41" /><line fill="none" stroke="#000000" stroke-width="2" x1="44" x2="85.5" y1="72" y2="72" /><line fill="none" stroke="#000000" stroke-width="2" x1="38.5" x2="85" y1="56.5" y2="56.5" /><polyline fill="none" points="14.5,35 14.5,20.5 85.5,20.5 85.5,34 15.5,34" stroke="#000000" stroke-width="2" /><polyline fill="none" points="38.5,65 86,65 86,48 37.5,48 37.5,66" stroke="#000000" stroke-width="2" /><path d="M28,49.5 c-5.38,7.575 -13.146,14.104 -24,19.5" fill="none" stroke="#000000" stroke-width="2" /><path d="M29.5,34 c-5.4,6.98 -13.64,13.174 -24.5,18" fill="none" stroke="#000000" stroke-width="2" /><path d="M28.5,55.5 c7.514,-5.592 13.961,-13.62 17.5,-21.5" fill="none" stroke="#000000" stroke-width="2" /><path d="M27,80.5 c10.004,-3.248 20.688,-10.164 25,-15.5" fill="none" stroke="#000000" stroke-width="2" /><path d="M84.81,72.277 c-9.503,9.076 -29.271,16.716 -57.81,19.723" fill="none" stroke="#000000" stroke-width="2" /><path d="M93,92 c-20.742,-3.396 -39.432,-10.814 -50,-19" fill="none" stroke="#000000" stroke-width="2" /></svg>