<?xml version='1.0' encoding='utf-8'?>
<svg xmlns="http://www.w3.org/2000/svg" height="100px" version="1.0" viewBox="0 0 100 100" width="100px" x="0px" y="0px">
<line fill="none" stroke="#000000" stroke-width="2" x1="16.5" x2="32" y1="11" y2="11" /><line fill="none" stroke="#000000" stroke-width="2" x1="9.5" x2="37" y1="66" y2="66" /><line fill="none" stroke="#000000" stroke-width="2" x1="10" x2="37" y1="45.5" y2="45.5" /><line fill="none" stroke="#000000" stroke-width="2" x1="24" x2="24" y1="27" y2="65" /><line fill="none" stroke="#000000" stroke-width="2" x1="66.5" x2="66.5" y1="84" y2="15" /><path d="M24,26 c2.49,-4.415 5.021,-9.583 7.08,-14.394" fill="none" stroke="#000000" stroke-width="2" /><path d="M5,33 c5.873,-8.756 10.994,-19.415 14.5,-30.5" fill="none" stroke="#000000" stroke-width="2" /><path d="M5.5,92.5 c3.111,-9.464 4.5,-20.622 4.5,-46.5 v-20.0 h28.0 v57.0 c0,7.533 -0.453,8 -5,8 c-1.688,0 -4.993,-0.14 -10,-0.5" fill="none" stroke="#000000" stroke-width="2" /><path d="M46.5,16 c17.014,0 33.406,-2.359 49,-7" fill="none" stroke="#000000" stroke-width="2" /><path d="M40.5,91.5 c4.492,-12.214 7,-30.522 7,-60.5 v-16.0" fill="none" stroke="#000000" stroke-width="2" /><path d="M97,91 c-7.059,-14.112 -11,-35.363 -11,-70 v-9.5" fill="none" stroke="#000000" stroke-width="2" /><path d="M88.5,91 c-3.041,-8.765 -7.345,-20.156 -11,-29" fill="none" stroke="#000000" stroke-width="2" /><path d="M47.5,88 c10.984,-1.254 25.094,-5.399 36,-10.5" fill="none" stroke="#000000" stroke-width="2" /></svg>