<?xml version='1.0' encoding='utf-8'?>
<svg xmlns="http://www.w3.org/2000/svg" height="100px" version="1.0" viewBox="0 0 100 100" width="100px" x="0px" y="0px">
<line fill="none" stroke="#000000" stroke-width="2" x1="6" x2="38" y1="24" y2="24" /><line fill="none" stroke="#000000" stroke-width="2" x1="9.5" x2="35.5" y1="38" y2="38" /><line fill="none" stroke="#000000" stroke-width="2" x1="9.5" x2="35.5" y1="52" y2="52" /><line fill="none" stroke="#000000" stroke-width="2" x1="9" x2="36" y1="10.5" y2="10.5" /><polyline fill="none" points="11,88.5 35,88.5 35,66 10,66 10,94.5" stroke="#000000" stroke-width="2" /><path d="M42.5,46.5 c15.113,-5.773 27.531,-13.384 36,-21.5" fill="none" stroke="#000000" stroke-width="2" /><path d="M41,69.5 c20.527,-6.928 35.316,-15.831 46.5,-27" fill="none" stroke="#000000" stroke-width="2" /><path d="M40,92 c24.336,-6.769 41.204,-16.117 56,-30" fill="none" stroke="#000000" stroke-width="2" /><path d="M97,31.5 c-11.021,-7.841 -21.043,-16.619 -30,-26.3 c-8.604,10.945 -16.93,18.966 -28.5,27.3" fill="none" stroke="#000000" stroke-width="2" /></svg>