<?xml version='1.0' encoding='utf-8'?>
<svg xmlns="http://www.w3.org/2000/svg" height="100px" version="1.0" viewBox="0 0 100 100" width="100px" x="0px" y="0px">
<line fill="none" stroke="#000000" stroke-width="2" x1="5" x2="36.5" y1="24" y2="24" /><line fill="none" stroke="#000000" stroke-width="2" x1="8.5" x2="33" y1="38" y2="38" /><line fill="none" stroke="#000000" stroke-width="2" x1="8.5" x2="33" y1="52" y2="52" /><line fill="none" stroke="#000000" stroke-width="2" x1="8" x2="33.5" y1="10.5" y2="10.5" /><polyline fill="none" points="10,88.5 32.5,88.5 32.5,66 9,66 9,94.5" stroke="#000000" stroke-width="2" /><path d="M92,14.5 c-5.059,9.397 -10.494,16.927 -16.5,23" fill="none" stroke="#000000" stroke-width="2" /><path d="M70.5,6.5 v76.5 c0,6.941 1.538,8 11,8 c12.068,0 12.914,-0.823 13.5,-19" fill="none" stroke="#000000" stroke-width="2" /><path d="M52.5,38.5 c-3.766,-6.789 -8.518,-14.338 -14,-22" fill="none" stroke="#000000" stroke-width="2" /><path d="M95,65.5 c-6.721,-5.78 -15.294,-12.153 -24.5,-18" fill="none" stroke="#000000" stroke-width="2" /><path d="M34,92.5 c17.525,-8.478 23.5,-19.05 23.5,-47.5 v-38.5" fill="none" stroke="#000000" stroke-width="2" /><path d="M35.5,66 c8.77,-4.979 16.398,-10.753 22,-16.5" fill="none" stroke="#000000" stroke-width="2" /></svg>