<?xml version='1.0' encoding='utf-8'?>
<svg xmlns="http://www.w3.org/2000/svg" height="100px" version="1.0" viewBox="0 0 100 100" width="100px" x="0px" y="0px">
<line fill="none" stroke="#000000" stroke-width="2" x1="6" x2="36.5" y1="24" y2="24" /><line fill="none" stroke="#000000" stroke-width="2" x1="9.5" x2="34" y1="38" y2="38" /><line fill="none" stroke="#000000" stroke-width="2" x1="9.5" x2="34" y1="52" y2="52" /><line fill="none" stroke="#000000" stroke-width="2" x1="9" x2="34.5" y1="10.5" y2="10.5" /><line fill="none" stroke="#000000" stroke-width="2" x1="96" x2="37" y1="51" y2="51" /><line fill="none" stroke="#000000" stroke-width="2" x1="96" x2="37" y1="14.5" y2="14.5" /><line fill="none" stroke="#000000" stroke-width="2" x1="82" x2="51.5" y1="37.5" y2="37.5" /><polyline fill="none" points="11,88.5 33.5,88.5 33.5,66 10,66 10,94.5" stroke="#000000" stroke-width="2" /><path d="M50,51 c-2.052,9.31 -5.5,20.015 -9,28" fill="none" stroke="#000000" stroke-width="2" /><path d="M46,65 h42.5 c-2.41,25.162 -3.871,27 -9.5,27 c-3.021,0 -10.614,-0.451 -16.5,-1" fill="none" stroke="#000000" stroke-width="2" /><path d="M96.5,46 c-10.672,-6.48 -20.131,-18.048 -25.5,-31.5" fill="none" stroke="#000000" stroke-width="2" /><path d="M36.5,46 c15.055,-9.8 25.854,-25.08 29.5,-41" fill="none" stroke="#000000" stroke-width="2" /></svg>