<?xml version='1.0' encoding='utf-8'?>
<svg xmlns="http://www.w3.org/2000/svg" height="100px" version="1.0" viewBox="0 0 100 100" width="100px" x="0px" y="0px">
<line fill="none" stroke="#000000" stroke-width="2" x1="19.5" x2="80.5" y1="88.5" y2="88.5" /><line fill="none" stroke="#000000" stroke-width="2" x1="17.5" x2="82.5" y1="42" y2="42" /><line fill="none" stroke="#000000" stroke-width="2" x1="18.5" x2="81.5" y1="52.5" y2="52.5" /><line fill="none" stroke="#000000" stroke-width="2" x1="18.5" x2="81.5" y1="63" y2="63" /><line fill="none" stroke="#000000" stroke-width="2" x1="33" x2="67" y1="31.5" y2="31.5" /><line fill="none" stroke="#000000" stroke-width="2" x1="94" x2="6" y1="20.5" y2="20.5" /><polyline fill="none" points="81.5,94 81.5,73.5 18.5,73.5 18.5,94" stroke="#000000" stroke-width="2" /><path d="M30,17 c-3.082,-4.332 -6.524,-8.487 -10,-12" fill="none" stroke="#000000" stroke-width="2" /><path d="M53,16.5 c-3.082,-4.692 -6.529,-9.187 -10,-13" fill="none" stroke="#000000" stroke-width="2" /><path d="M66,20.5 c5.43,-5.359 10.242,-10.882 14,-16" fill="none" stroke="#000000" stroke-width="2" /><path d="M5,46 c13.656,-4.982 25.887,-14.521 33,-25.5" fill="none" stroke="#000000" stroke-width="2" /><path d="M95,46 c-13.656,-4.982 -25.886,-14.521 -33,-25.5" fill="none" stroke="#000000" stroke-width="2" /></svg>