<?xml version='1.0' encoding='utf-8'?>
<svg xmlns="http://www.w3.org/2000/svg" height="100px" version="1.0" viewBox="0 0 100 100" width="100px" x="0px" y="0px">
<line fill="none" stroke="#000000" stroke-width="2" x1="44" x2="90.5" y1="59.5" y2="59.5" /><line fill="none" stroke="#000000" stroke-width="2" x1="44" x2="90.5" y1="42.5" y2="42.5" /><line fill="none" stroke="#000000" stroke-width="2" x1="67.5" x2="67.5" y1="93.5" y2="5" /><line fill="none" stroke="#000000" stroke-width="2" x1="39" x2="95" y1="16" y2="16" /><line fill="none" stroke="#000000" stroke-width="2" x1="6" x2="38" y1="24" y2="24" /><line fill="none" stroke="#000000" stroke-width="2" x1="9.5" x2="34.5" y1="38" y2="38" /><line fill="none" stroke="#000000" stroke-width="2" x1="9.5" x2="34.5" y1="52" y2="52" /><line fill="none" stroke="#000000" stroke-width="2" x1="9" x2="35" y1="10.5" y2="10.5" /><polyline fill="none" points="91.5,60.5 91.5,26.5 43,26.5 43,60.5" stroke="#000000" stroke-width="2" /><polyline fill="none" points="11,88.5 34,88.5 34,66 10,66 10,94.5" stroke="#000000" stroke-width="2" /><path d="M37.5,89 c14.549,-10.207 24.021,-20.236 29,-29.5" fill="none" stroke="#000000" stroke-width="2" /><path d="M96.5,89 c-12.157,-8.286 -20.578,-17.081 -28,-29.5" fill="none" stroke="#000000" stroke-width="2" /></svg>