<?xml version='1.0' encoding='utf-8'?>
<svg xmlns="http://www.w3.org/2000/svg" height="100px" version="1.0" viewBox="0 0 100 100" width="100px" x="0px" y="0px">
<line fill="none" stroke="#000000" stroke-width="2" x1="6" x2="38" y1="24" y2="24" /><line fill="none" stroke="#000000" stroke-width="2" x1="9.5" x2="34.5" y1="38" y2="38" /><line fill="none" stroke="#000000" stroke-width="2" x1="9.5" x2="34.5" y1="52" y2="52" /><line fill="none" stroke="#000000" stroke-width="2" x1="9" x2="35" y1="10.5" y2="10.5" /><line fill="none" stroke="#000000" stroke-width="2" x1="69" x2="93" y1="55" y2="55" /><line fill="none" stroke="#000000" stroke-width="2" x1="69" x2="69" y1="87" y2="31" /><line fill="none" stroke="#000000" stroke-width="2" x1="48" x2="88" y1="31" y2="31" /><line fill="none" stroke="#000000" stroke-width="2" x1="68" x2="68" y1="16" y2="4" /><polyline fill="none" points="11,88.5 34,88.5 34,66 10,66 10,94.5" stroke="#000000" stroke-width="2" /><polyline fill="none" points="93,34 93,16 43,16 43,34" stroke="#000000" stroke-width="2" /><path d="M38.5,92 c6.545,-10.179 11.723,-26.644 13,-44" fill="none" stroke="#000000" stroke-width="2" /><path d="M96,90 h-4.5 c-26.279,0 -34.747,-5.253 -42,-27" fill="none" stroke="#000000" stroke-width="2" /></svg>