<?xml version='1.0' encoding='utf-8'?>
<svg xmlns="http://www.w3.org/2000/svg" height="100px" version="1.0" viewBox="0 0 100 100" width="100px" x="0px" y="0px">
<line fill="none" stroke="#000000" stroke-width="2" x1="5.5" x2="35" y1="24" y2="24" /><line fill="none" stroke="#000000" stroke-width="2" x1="8.5" x2="32" y1="38" y2="38" /><line fill="none" stroke="#000000" stroke-width="2" x1="8.5" x2="32" y1="52" y2="52" /><line fill="none" stroke="#000000" stroke-width="2" x1="8" x2="32.5" y1="10.5" y2="10.5" /><line fill="none" stroke="#000000" stroke-width="2" x1="37.5" x2="95" y1="11" y2="11" /><line fill="none" stroke="#000000" stroke-width="2" x1="62" x2="62" y1="49.5" y2="91" /><line fill="none" stroke="#000000" stroke-width="2" x1="76.5" x2="76.5" y1="49.5" y2="91" /><line fill="none" stroke="#000000" stroke-width="2" x1="48.5" x2="90" y1="66.5" y2="66.5" /><polyline fill="none" points="10,88.5 31.5,88.5 31.5,66 9,66 9,94.5" stroke="#000000" stroke-width="2" /><path d="M34.5,89 c5.689,-16.146 8,-30.167 8,-49 v-19.0 h47.0 v17.0 h-46.0" fill="none" stroke="#000000" stroke-width="2" /><path d="M81.5,91.25 c2.709,0.166 4.616,0.25 6,0.25 c3.164,0 3.5,-0.333 3.5,-4 v-39.0 h-43.5 V93.0" fill="none" stroke="#000000" stroke-width="2" /></svg>