<?xml version='1.0' encoding='utf-8'?>
<svg xmlns="http://www.w3.org/2000/svg" height="100px" version="1.0" viewBox="0 0 100 100" width="100px" x="0px" y="0px">
<line fill="none" stroke="#000000" stroke-width="2" x1="5.5" x2="31.5" y1="24" y2="24" /><line fill="none" stroke="#000000" stroke-width="2" x1="7.5" x2="29.5" y1="38" y2="38" /><line fill="none" stroke="#000000" stroke-width="2" x1="7.5" x2="29.5" y1="52" y2="52" /><line fill="none" stroke="#000000" stroke-width="2" x1="7" x2="30" y1="10.5" y2="10.5" /><line fill="none" stroke="#000000" stroke-width="2" x1="71.5" x2="71.5" y1="83" y2="6" /><line fill="none" stroke="#000000" stroke-width="2" x1="94" x2="49" y1="40" y2="40" /><polyline fill="none" points="9,88.5 29,88.5 29,66 8,66 8,94.5" stroke="#000000" stroke-width="2" /><polyline fill="none" points="44,75 44,45 31.5,45" stroke="#000000" stroke-width="2" /><path d="M48.5,74 c10.563,-10.859 17.621,-21.959 22.01,-34" fill="none" stroke="#000000" stroke-width="2" /><path d="M94,74 c-10.32,-10.856 -17.211,-21.959 -21.5,-34" fill="none" stroke="#000000" stroke-width="2" /><path d="M63.5,33 c-3.823,-7.823 -8.001,-15.471 -12,-22" fill="none" stroke="#000000" stroke-width="2" /><path d="M79.5,33 c4.641,-6.974 8.773,-14.97 11.5,-22" fill="none" stroke="#000000" stroke-width="2" /><path d="M34,10 c4.294,5.621 7.931,10.782 12,17" fill="none" stroke="#000000" stroke-width="2" /><path d="M31.5,92 c5.881,-5.611 9.879,-11.114 12.5,-17" fill="none" stroke="#000000" stroke-width="2" /><path d="M94.5,90 H70.0 c-15.129,0 -21.704,-3.743 -26,-15" fill="none" stroke="#000000" stroke-width="2" /></svg>