<?xml version='1.0' encoding='utf-8'?>
<svg xmlns="http://www.w3.org/2000/svg" height="100px" version="1.0" viewBox="0 0 100 100" width="100px" x="0px" y="0px">
<line fill="none" stroke="#000000" stroke-width="2" x1="5" x2="36.5" y1="24" y2="24" /><line fill="none" stroke="#000000" stroke-width="2" x1="8.5" x2="33" y1="38" y2="38" /><line fill="none" stroke="#000000" stroke-width="2" x1="8.5" x2="33" y1="52" y2="52" /><line fill="none" stroke="#000000" stroke-width="2" x1="8" x2="33.5" y1="10.5" y2="10.5" /><line fill="none" stroke="#000000" stroke-width="2" x1="39.5" x2="94" y1="13" y2="13" /><line fill="none" stroke="#000000" stroke-width="2" x1="66.5" x2="66.5" y1="13" y2="3" /><line fill="none" stroke="#000000" stroke-width="2" x1="66.5" x2="66.5" y1="51" y2="38" /><line fill="none" stroke="#000000" stroke-width="2" x1="38" x2="95.5" y1="51" y2="51" /><polyline fill="none" points="10,88.5 32.5,88.5 32.5,66 9,66 9,94.5" stroke="#000000" stroke-width="2" /><polyline fill="none" points="94.5,46 94.5,33 39,33 39,46" stroke="#000000" stroke-width="2" /><path d="M73.5,33 c4.002,-5.621 7.29,-12.472 9.5,-20" fill="none" stroke="#000000" stroke-width="2" /><path d="M58.5,33 c-2.689,-6.745 -5.852,-13.443 -9.5,-20" fill="none" stroke="#000000" stroke-width="2" /><path d="M36,92 c13.527,-7.573 22,-22.639 22,-40" fill="none" stroke="#000000" stroke-width="2" /><path d="M56.5,63.5 h33.0 c0,22.72 -3.206,27 -10.5,27 c-3.173,0 -9.097,-0.337 -16,-1" fill="none" stroke="#000000" stroke-width="2" /></svg>