<?xml version='1.0' encoding='utf-8'?>
<svg xmlns="http://www.w3.org/2000/svg" height="100px" version="1.0" viewBox="0 0 100 100" width="100px" x="0px" y="0px">
<line fill="none" stroke="#000000" stroke-width="2" x1="5" x2="34.5" y1="24" y2="24" /><line fill="none" stroke="#000000" stroke-width="2" x1="8" x2="31.5" y1="38" y2="38" /><line fill="none" stroke="#000000" stroke-width="2" x1="8" x2="31.5" y1="52" y2="52" /><line fill="none" stroke="#000000" stroke-width="2" x1="7.5" x2="32" y1="10.5" y2="10.5" /><line fill="none" stroke="#000000" stroke-width="2" x1="34" x2="96" y1="15" y2="15" /><line fill="none" stroke="#000000" stroke-width="2" x1="33.5" x2="96.5" y1="44.5" y2="44.5" /><line fill="none" stroke="#000000" stroke-width="2" x1="54" x2="54" y1="94" y2="16" /><line fill="none" stroke="#000000" stroke-width="2" x1="72" x2="72" y1="94" y2="16" /><polyline fill="none" points="9.5,88.5 31,88.5 31,66 8.5,66 8.5,94.5" stroke="#000000" stroke-width="2" /><polyline fill="none" points="36.5,61.5 89.5,61.5 89.5,28.5 37.5,28.5" stroke="#000000" stroke-width="2" /><path d="M54,15 c-2.23,-3.912 -4.662,-7.739 -7,-11" fill="none" stroke="#000000" stroke-width="2" /><path d="M72,15 c2.644,-3.625 5.16,-7.577 7,-11" fill="none" stroke="#000000" stroke-width="2" /><path d="M33.5,90.5 c9.59,-9.388 15.94,-18.726 20,-29" fill="none" stroke="#000000" stroke-width="2" /><path d="M96.5,90.5 c-11.486,-9.408 -19.131,-18.726 -24,-29" fill="none" stroke="#000000" stroke-width="2" /></svg>