<?xml version='1.0' encoding='utf-8'?>
<svg xmlns="http://www.w3.org/2000/svg" height="100px" version="1.0" viewBox="0 0 100 100" width="100px" x="0px" y="0px">
<line fill="none" stroke="#000000" stroke-width="2" x1="5" x2="35.5" y1="24" y2="24" /><line fill="none" stroke="#000000" stroke-width="2" x1="8" x2="32.5" y1="38" y2="38" /><line fill="none" stroke="#000000" stroke-width="2" x1="8" x2="32.5" y1="52" y2="52" /><line fill="none" stroke="#000000" stroke-width="2" x1="7.5" x2="33" y1="10.5" y2="10.5" /><line fill="none" stroke="#000000" stroke-width="2" x1="76.5" x2="76.5" y1="53.5" y2="40.5" /><line fill="none" stroke="#000000" stroke-width="2" x1="58" x2="58" y1="53.5" y2="40.5" /><line fill="none" stroke="#000000" stroke-width="2" x1="44.5" x2="89" y1="21" y2="21" /><line fill="none" stroke="#000000" stroke-width="2" x1="40" x2="91" y1="62.5" y2="62.5" /><polyline fill="none" points="9.5,88.5 32,88.5 32,66 8.5,66 8.5,94.5" stroke="#000000" stroke-width="2" /><polyline fill="none" points="40.5,54.5 95,54.5 95,39.5 39.5,39.5 39.5,55.5" stroke="#000000" stroke-width="2" /><polyline fill="none" points="44.5,32 90,32 90,10 43.5,10 43.5,33" stroke="#000000" stroke-width="2" /><path d="M35.5,91 c26.045,-5.12 45.195,-15.801 54.709,-28.111" fill="none" stroke="#000000" stroke-width="2" /><path d="M96,91 c-22.148,-4.211 -38.584,-12.618 -50,-25" fill="none" stroke="#000000" stroke-width="2" /></svg>