<?xml version='1.0' encoding='utf-8'?>
<svg xmlns="http://www.w3.org/2000/svg" height="100px" version="1.0" viewBox="0 0 100 100" width="100px" x="0px" y="0px">
<line fill="none" stroke="#000000" stroke-width="2" x1="65.5" x2="40" y1="10" y2="10" /><line fill="none" stroke="#000000" stroke-width="2" x1="34.5" x2="94.5" y1="90" y2="90" /><line fill="none" stroke="#000000" stroke-width="2" x1="51" x2="78" y1="38.5" y2="38.5" /><line fill="none" stroke="#000000" stroke-width="2" x1="5" x2="34.5" y1="24" y2="24" /><line fill="none" stroke="#000000" stroke-width="2" x1="8" x2="31.5" y1="38" y2="38" /><line fill="none" stroke="#000000" stroke-width="2" x1="8" x2="31.5" y1="52" y2="52" /><line fill="none" stroke="#000000" stroke-width="2" x1="7.5" x2="32" y1="10.5" y2="10.5" /><polyline fill="none" points="44.5,71 44.5,51 84.5,51 84.5,70 45.5,70" stroke="#000000" stroke-width="2" /><polyline fill="none" points="9.5,88.5 31,88.5 31,66 8.5,66 8.5,94.5" stroke="#000000" stroke-width="2" /><path d="M96,50.5 c-14.226,-9.651 -26.229,-25.452 -31.449,-41.186" fill="none" stroke="#000000" stroke-width="2" /><path d="M86.5,11 c-4.161,4.874 -9.676,10.196 -14.5,14" fill="none" stroke="#000000" stroke-width="2" /><path d="M96.5,22.5 c-4.492,5.077 -10.326,10.558 -15.5,14.5" fill="none" stroke="#000000" stroke-width="2" /><path d="M53,30.5 c-4.484,-4.534 -9.497,-9.039 -14.5,-13" fill="none" stroke="#000000" stroke-width="2" /><path d="M70.5,90 c3.797,-5.966 7.012,-12.704 9.5,-20" fill="none" stroke="#000000" stroke-width="2" /><path d="M57.5,90 c-2.369,-6.645 -5.295,-13.548 -8.5,-20" fill="none" stroke="#000000" stroke-width="2" /><path d="M33,50.5 c14.226,-9.651 26.229,-25.452 31.449,-41.186" fill="none" stroke="#000000" stroke-width="2" /></svg>