<?xml version='1.0' encoding='utf-8'?>
<svg xmlns="http://www.w3.org/2000/svg" height="100px" version="1.0" viewBox="0 0 100 100" width="100px" x="0px" y="0px">
<line fill="none" stroke="#000000" stroke-width="2" x1="4.5" x2="34" y1="24" y2="24" /><line fill="none" stroke="#000000" stroke-width="2" x1="7.5" x2="31" y1="38" y2="38" /><line fill="none" stroke="#000000" stroke-width="2" x1="7.5" x2="31" y1="52" y2="52" /><line fill="none" stroke="#000000" stroke-width="2" x1="7" x2="31.5" y1="10.5" y2="10.5" /><line fill="none" stroke="#000000" stroke-width="2" x1="32.5" x2="62" y1="30.5" y2="30.5" /><line fill="none" stroke="#000000" stroke-width="2" x1="65" x2="96.5" y1="30.5" y2="30.5" /><line fill="none" stroke="#000000" stroke-width="2" x1="61.5" x2="34" y1="15.5" y2="15.5" /><line fill="none" stroke="#000000" stroke-width="2" x1="95" x2="65.5" y1="15.5" y2="15.5" /><line fill="none" stroke="#000000" stroke-width="2" x1="42" x2="86.5" y1="87" y2="87" /><line fill="none" stroke="#000000" stroke-width="2" x1="42" x2="86.5" y1="69.5" y2="69.5" /><polyline fill="none" points="9,88.5 30.5,88.5 30.5,66 8,66 8,94.5" stroke="#000000" stroke-width="2" /><polyline fill="none" points="87.5,93 87.5,52.5 41,52.5 41,93" stroke="#000000" stroke-width="2" /><path d="M32,55.5 c9.949,-8.493 16.5,-22.936 16.5,-40 v-10.0" fill="none" stroke="#000000" stroke-width="2" /><path d="M65,48 c10.936,-7.511 15,-15.155 15,-32.5 v-10.0" fill="none" stroke="#000000" stroke-width="2" /><path d="M62,47.5 c-4.575,-6.562 -9.863,-12.194 -15.5,-16.5" fill="none" stroke="#000000" stroke-width="2" /><path d="M97,55.5 c-8.171,-6.738 -14.392,-15.404 -18,-25" fill="none" stroke="#000000" stroke-width="2" /></svg>