<?xml version='1.0' encoding='utf-8'?>
<svg xmlns="http://www.w3.org/2000/svg" height="100px" version="1.0" viewBox="0 0 100 100" width="100px" x="0px" y="0px">
<line fill="none" stroke="#000000" stroke-width="2" x1="6" x2="35.5" y1="24" y2="24" /><line fill="none" stroke="#000000" stroke-width="2" x1="9.5" x2="32" y1="38" y2="38" /><line fill="none" stroke="#000000" stroke-width="2" x1="9.5" x2="32" y1="52" y2="52" /><line fill="none" stroke="#000000" stroke-width="2" x1="9" x2="32.5" y1="10.5" y2="10.5" /><line fill="none" stroke="#000000" stroke-width="2" x1="74.5" x2="74.5" y1="26" y2="10.5" /><line fill="none" stroke="#000000" stroke-width="2" x1="57" x2="57" y1="26" y2="10.5" /><line fill="none" stroke="#000000" stroke-width="2" x1="35" x2="96" y1="67" y2="67" /><line fill="none" stroke="#000000" stroke-width="2" x1="66" x2="66" y1="67" y2="94.5" /><line fill="none" stroke="#000000" stroke-width="2" x1="37" x2="94" y1="79.5" y2="79.5" /><line fill="none" stroke="#000000" stroke-width="2" x1="35" x2="96" y1="50" y2="50" /><line fill="none" stroke="#000000" stroke-width="2" x1="38.5" x2="92.5" y1="38.5" y2="38.5" /><line fill="none" stroke="#000000" stroke-width="2" x1="66" x2="66" y1="50" y2="28" /><polyline fill="none" points="11,88.5 31.5,88.5 31.5,66 10,66 10,94.5" stroke="#000000" stroke-width="2" /><polyline fill="none" points="40.5,27 92,27 92,9.5 39.5,9.5 39.5,28" stroke="#000000" stroke-width="2" /><path d="M74,67 c4.291,-5.306 7.883,-10.847 11,-17" fill="none" stroke="#000000" stroke-width="2" /><path d="M55.5,67 c-2.379,-5.605 -5.338,-11.528 -8.5,-17" fill="none" stroke="#000000" stroke-width="2" /></svg>