<?xml version='1.0' encoding='utf-8'?>
<svg xmlns="http://www.w3.org/2000/svg" height="100px" version="1.0" viewBox="0 0 100 100" width="100px" x="0px" y="0px">
<line fill="none" stroke="#000000" stroke-width="2" x1="4.5" x2="34" y1="24" y2="24" /><line fill="none" stroke="#000000" stroke-width="2" x1="7.5" x2="31" y1="38" y2="38" /><line fill="none" stroke="#000000" stroke-width="2" x1="7.5" x2="31" y1="52" y2="52" /><line fill="none" stroke="#000000" stroke-width="2" x1="7" x2="31.5" y1="10.5" y2="10.5" /><line fill="none" stroke="#000000" stroke-width="2" x1="49.5" x2="49.5" y1="90" y2="70" /><line fill="none" stroke="#000000" stroke-width="2" x1="53.5" x2="53.5" y1="27" y2="58.5" /><line fill="none" stroke="#000000" stroke-width="2" x1="76" x2="76" y1="27" y2="58.5" /><line fill="none" stroke="#000000" stroke-width="2" x1="36" x2="94" y1="35.5" y2="35.5" /><line fill="none" stroke="#000000" stroke-width="2" x1="34.5" x2="95.5" y1="59.5" y2="59.5" /><line fill="none" stroke="#000000" stroke-width="2" x1="92" x2="38" y1="47.5" y2="47.5" /><line fill="none" stroke="#000000" stroke-width="2" x1="64.5" x2="64.5" y1="13" y2="4" /><line fill="none" stroke="#000000" stroke-width="2" x1="35.5" x2="95.5" y1="13" y2="13" /><polyline fill="none" points="9,88.5 30.5,88.5 30.5,66 8,66 8,94.5" stroke="#000000" stroke-width="2" /><path d="M63,59.5 c-6.744,6.813 -16.442,13.026 -29,18" fill="none" stroke="#000000" stroke-width="2" /><path d="M64.5,59.5 c5.307,14.667 17.338,27.052 32,33" fill="none" stroke="#000000" stroke-width="2" /><path d="M35.5,92.5 c12.766,-2.06 23.815,-4.745 37,-9" fill="none" stroke="#000000" stroke-width="2" /><path d="M75.5,77.5 c5.918,-3.99 11.514,-8.927 16,-14" fill="none" stroke="#000000" stroke-width="2" /><path d="M36.5,29.5 c8.838,-3.033 16.613,-7.202 22,-11.5" fill="none" stroke="#000000" stroke-width="2" /><path d="M94,29.5 c-5.525,-3.776 -13.342,-7.937 -22,-11.5" fill="none" stroke="#000000" stroke-width="2" /></svg>