<?xml version='1.0' encoding='utf-8'?>
<svg xmlns="http://www.w3.org/2000/svg" height="100px" version="1.0" viewBox="0 0 100 100" width="100px" x="0px" y="0px">
<path d="M19,48 c29.666,-7.331 50.12,-16.873 63,-27.5" fill="none" stroke="#000000" stroke-width="2" /><path d="M21,20.5 c26.326,-3.791 44.89,-8.884 57,-14.5" fill="none" stroke="#000000" stroke-width="2" /><path d="M49.5,89.5 c7.584,0.352 13.434,0.5 17.5,0.5 c9.42,0 11.5,-2.298 11.5,-17.5 c0,-14.913 -7.489,-29.102 -20.5,-37.5" fill="none" stroke="#000000" stroke-width="2" /><path d="M18,66.5 c23.391,-5.913 40.608,-13.492 51.5,-21.5" fill="none" stroke="#000000" stroke-width="2" /><path d="M17,85 c27.535,-7.172 46.838,-16.169 59.5,-26.5" fill="none" stroke="#000000" stroke-width="2" /><path d="M63,32.5 c-2.867,-4.979 -5.979,-9.86 -9,-14" fill="none" stroke="#000000" stroke-width="2" /><path d="M39.5,42 c-3.505,-6.045 -7.308,-11.973 -11,-17" fill="none" stroke="#000000" stroke-width="2" /></svg>