<?xml version='1.0' encoding='utf-8'?>
<svg xmlns="http://www.w3.org/2000/svg" height="100px" version="1.0" viewBox="0 0 100 100" width="100px" x="0px" y="0px">
<line fill="none" stroke="#000000" stroke-width="2" x1="22" x2="35.5" y1="54" y2="54" /><line fill="none" stroke="#000000" stroke-width="2" x1="22" x2="22" y1="84.5" y2="36" /><line fill="none" stroke="#000000" stroke-width="2" x1="11" x2="11" y1="89.5" y2="45" /><line fill="none" stroke="#000000" stroke-width="2" x1="38" x2="95" y1="19.5" y2="19.5" /><line fill="none" stroke="#000000" stroke-width="2" x1="67" x2="67" y1="19.5" y2="3.5" /><polyline fill="none" points="8.5,35 34,35 34,10 7.5,10 7.5,36" stroke="#000000" stroke-width="2" /><path d="M5,92 c10.119,-3.853 21.197,-8.979 32.5,-15" fill="none" stroke="#000000" stroke-width="2" /><path d="M75.5,19.5 v62.5 c0,7.375 -0.625,8 -5.5,8 c-1.736,0 -4.574,-0.134 -9.5,-0.5" fill="none" stroke="#000000" stroke-width="2" /><path d="M38,91.5 c15.316,-11.548 21,-25.19 21,-63.5 v-8.5" fill="none" stroke="#000000" stroke-width="2" /><path d="M35,71.5 c5.396,-10.294 9.854,-24.228 12,-38.5" fill="none" stroke="#000000" stroke-width="2" /><path d="M96.5,73 c-2.793,-13.264 -7.625,-28.269 -13,-40.5" fill="none" stroke="#000000" stroke-width="2" /></svg>