<?xml version='1.0' encoding='utf-8'?>
<svg xmlns="http://www.w3.org/2000/svg" height="100px" version="1.0" viewBox="0 0 100 100" width="100px" x="0px" y="0px">
<line fill="none" stroke="#000000" stroke-width="2" x1="23.5" x2="39.5" y1="54" y2="54" /><line fill="none" stroke="#000000" stroke-width="2" x1="23.5" x2="23.5" y1="84.5" y2="36" /><line fill="none" stroke="#000000" stroke-width="2" x1="12" x2="12" y1="89.5" y2="45" /><line fill="none" stroke="#000000" stroke-width="2" x1="92.5" x2="50" y1="21" y2="21" /><line fill="none" stroke="#000000" stroke-width="2" x1="95" x2="40" y1="46" y2="46" /><line fill="none" stroke="#000000" stroke-width="2" x1="68.5" x2="68.5" y1="46" y2="5" /><polyline fill="none" points="10,35 36.5,35 36.5,10 9,10 9,36" stroke="#000000" stroke-width="2" /><path d="M6,92 c10.587,-3.853 22.182,-8.97 34,-15" fill="none" stroke="#000000" stroke-width="2" /><path d="M40,39.5 c6.313,-8.575 11.368,-19.892 14,-32" fill="none" stroke="#000000" stroke-width="2" /><path d="M34.5,91 c15.915,-6.724 25.747,-21.105 27,-45" fill="none" stroke="#000000" stroke-width="2" /><path d="M74.5,46 v36.0 c0,7.391 0.789,8 10,8 c8.899,0 9.392,-0.724 10.5,-23" fill="none" stroke="#000000" stroke-width="2" /></svg>