<?xml version='1.0' encoding='utf-8'?>
<svg xmlns="http://www.w3.org/2000/svg" height="100px" version="1.0" viewBox="0 0 100 100" width="100px" x="0px" y="0px">
<line fill="none" stroke="#000000" stroke-width="2" x1="21" x2="36" y1="53" y2="53" /><line fill="none" stroke="#000000" stroke-width="2" x1="21" x2="21" y1="85" y2="36" /><line fill="none" stroke="#000000" stroke-width="2" x1="10" x2="10" y1="90" y2="45" /><polyline fill="none" points="8,35 33,35 33,10 7,10 7,36" stroke="#000000" stroke-width="2" /><path d="M4.5,92 c10.119,-3.853 21.197,-8.979 32.5,-15" fill="none" stroke="#000000" stroke-width="2" /><path d="M92,14.5 c-5.212,9.397 -10.834,16.905 -17,23" fill="none" stroke="#000000" stroke-width="2" /><path d="M70,6.5 v76.5 c0,6.941 1.345,8 11,8 c12.579,0 13.402,-0.823 14,-19" fill="none" stroke="#000000" stroke-width="2" /><path d="M51,38.5 c-3.766,-6.789 -8.531,-14.328 -14,-22" fill="none" stroke="#000000" stroke-width="2" /><path d="M95,65.5 c-6.941,-5.78 -15.566,-12.042 -25,-18" fill="none" stroke="#000000" stroke-width="2" /><path d="M32,92.5 c17.898,-8.478 24,-19.05 24,-47.5 v-38.5" fill="none" stroke="#000000" stroke-width="2" /><path d="M32,67.5 c9.829,-5.403 18.131,-11.736 24,-18" fill="none" stroke="#000000" stroke-width="2" /></svg>