<?xml version='1.0' encoding='utf-8'?>
<svg xmlns="http://www.w3.org/2000/svg" height="100px" version="1.0" viewBox="0 0 100 100" width="100px" x="0px" y="0px">
<line fill="none" stroke="#000000" stroke-width="2" x1="21.5" x2="33.5" y1="53" y2="53" /><line fill="none" stroke="#000000" stroke-width="2" x1="21.5" x2="21.5" y1="84.5" y2="36" /><line fill="none" stroke="#000000" stroke-width="2" x1="10.5" x2="10.5" y1="89.5" y2="45" /><line fill="none" stroke="#000000" stroke-width="2" x1="94" x2="33" y1="21" y2="21" /><line fill="none" stroke="#000000" stroke-width="2" x1="94.5" x2="32.5" y1="67.5" y2="67.5" /><line fill="none" stroke="#000000" stroke-width="2" x1="93.5" x2="33.5" y1="41" y2="41" /><line fill="none" stroke="#000000" stroke-width="2" x1="91.5" x2="36.5" y1="54" y2="54" /><line fill="none" stroke="#000000" stroke-width="2" x1="55.5" x2="55.5" y1="21" y2="5" /><line fill="none" stroke="#000000" stroke-width="2" x1="71.5" x2="71.5" y1="21" y2="5" /><polyline fill="none" points="8.5,35 32.5,35 32.5,10 7.5,10 7.5,36" stroke="#000000" stroke-width="2" /><path d="M5,92 c9.341,-3.596 19.566,-8.381 30,-14" fill="none" stroke="#000000" stroke-width="2" /><path d="M30.5,92.5 c20.084,-4.345 33,-17.866 33,-30.5 v-20.0" fill="none" stroke="#000000" stroke-width="2" /><path d="M95.5,92.5 c-19.328,-4.382 -32,-17.623 -32,-30.5" fill="none" stroke="#000000" stroke-width="2" /><path d="M45,21 c-2.473,-5.049 -5.238,-9.873 -8,-14" fill="none" stroke="#000000" stroke-width="2" /><path d="M82,21 c3.096,-4.696 5.848,-9.527 8,-14" fill="none" stroke="#000000" stroke-width="2" /><path d="M70.5,41 c3.547,-5.856 6.701,-12.76 9,-20" fill="none" stroke="#000000" stroke-width="2" /><path d="M55.5,41 c-2.245,-6.587 -5.024,-13.563 -8,-20" fill="none" stroke="#000000" stroke-width="2" /></svg>