<?xml version='1.0' encoding='utf-8'?>
<svg xmlns="http://www.w3.org/2000/svg" height="100px" version="1.0" viewBox="0 0 100 100" width="100px" x="0px" y="0px">
<line fill="none" stroke="#000000" stroke-width="2" x1="38" x2="60.5" y1="23" y2="23" /><line fill="none" stroke="#000000" stroke-width="2" x1="67.5" x2="90" y1="23" y2="23" /><line fill="none" stroke="#000000" stroke-width="2" x1="42" x2="42" y1="49.5" y2="94" /><line fill="none" stroke="#000000" stroke-width="2" x1="92" x2="42.5" y1="49" y2="49" /><line fill="none" stroke="#000000" stroke-width="2" x1="68.5" x2="68.5" y1="88" y2="49" /><line fill="none" stroke="#000000" stroke-width="2" x1="43" x2="94" y1="88" y2="88" /><line fill="none" stroke="#000000" stroke-width="2" x1="42" x2="90" y1="74.5" y2="74.5" /><line fill="none" stroke="#000000" stroke-width="2" x1="42" x2="90" y1="61.5" y2="61.5" /><line fill="none" stroke="#000000" stroke-width="2" x1="21.5" x2="33.5" y1="53" y2="53" /><line fill="none" stroke="#000000" stroke-width="2" x1="21.5" x2="21.5" y1="84.5" y2="36" /><line fill="none" stroke="#000000" stroke-width="2" x1="10.5" x2="10.5" y1="89.5" y2="45" /><polyline fill="none" points="37,37.5 61.5,37.5 61.5,10 37,10" stroke="#000000" stroke-width="2" /><polyline fill="none" points="66.5,37.5 91,37.5 91,10 66.5,10" stroke="#000000" stroke-width="2" /><polyline fill="none" points="8.5,35 32.5,35 32.5,10 7.5,10 7.5,36" stroke="#000000" stroke-width="2" /><path d="M74.5,37.5 c-1.629,4.241 -3.602,7.979 -6,11.5" fill="none" stroke="#000000" stroke-width="2" /><path d="M30,63.5 c7.671,-7.431 13.295,-15.469 18,-26" fill="none" stroke="#000000" stroke-width="2" /><path d="M5,92 c9.341,-3.596 19.566,-8.381 30,-14" fill="none" stroke="#000000" stroke-width="2" /></svg>