<?xml version='1.0' encoding='utf-8'?>
<svg xmlns="http://www.w3.org/2000/svg" height="100px" version="1.0" viewBox="0 0 100 100" width="100px" x="0px" y="0px">
<line fill="none" stroke="#000000" stroke-width="2" x1="10.5" x2="43.5" y1="47" y2="47" /><line fill="none" stroke="#000000" stroke-width="2" x1="5" x2="48" y1="78" y2="78" /><line fill="none" stroke="#000000" stroke-width="2" x1="27" x2="27" y1="95" y2="5" /><line fill="none" stroke="#000000" stroke-width="2" x1="5" x2="48" y1="17" y2="17" /><line fill="none" stroke="#000000" stroke-width="2" x1="59.5" x2="95" y1="18" y2="18" /><polyline fill="none" points="10.5,65 44.5,65 44.5,30 9.5,30 9.5,66" stroke="#000000" stroke-width="2" /><path d="M42,90 c15.279,-6.563 29,-28.181 29,-48 v-16.0" fill="none" stroke="#000000" stroke-width="2" /><path d="M96,90 c-12.743,-6.388 -25,-27.952 -25,-48" fill="none" stroke="#000000" stroke-width="2" /><path d="M48.5,45 c6.293,-11.127 11.08,-24.556 14,-40" fill="none" stroke="#000000" stroke-width="2" /><path d="M86,44.5 c3.469,-7.408 6.155,-15.891 8.022,-25.688" fill="none" stroke="#000000" stroke-width="2" /></svg>