<?xml version='1.0' encoding='utf-8'?>
<svg xmlns="http://www.w3.org/2000/svg" height="100px" version="1.0" viewBox="0 0 100 100" width="100px" x="0px" y="0px">
<line fill="none" stroke="#000000" stroke-width="2" x1="9" x2="36" y1="47" y2="47" /><line fill="none" stroke="#000000" stroke-width="2" x1="4" x2="40" y1="78" y2="78" /><line fill="none" stroke="#000000" stroke-width="2" x1="22.5" x2="22.5" y1="95" y2="5" /><line fill="none" stroke="#000000" stroke-width="2" x1="4" x2="40" y1="17" y2="17" /><polyline fill="none" points="9,65 37,65 37,30 8,30 8,66" stroke="#000000" stroke-width="2" /><path d="M44.5,46.5 c14.273,-5.773 26.002,-13.384 34,-21.5" fill="none" stroke="#000000" stroke-width="2" /><path d="M43,69.5 c19.645,-6.928 33.797,-15.831 44.5,-27" fill="none" stroke="#000000" stroke-width="2" /><path d="M42,92 c23.467,-6.769 39.732,-16.117 54,-30" fill="none" stroke="#000000" stroke-width="2" /><path d="M97,31.5 c-10.654,-7.841 -20.342,-16.619 -29,-26.3 c-8.302,10.945 -16.336,18.966 -27.5,27.3" fill="none" stroke="#000000" stroke-width="2" /></svg>