<?xml version='1.0' encoding='utf-8'?>
<svg xmlns="http://www.w3.org/2000/svg" height="100px" version="1.0" viewBox="0 0 100 100" width="100px" x="0px" y="0px">
<line fill="none" stroke="#000000" stroke-width="2" x1="79" x2="53" y1="80" y2="80" /><line fill="none" stroke="#000000" stroke-width="2" x1="96" x2="37.5" y1="24.5" y2="24.5" /><line fill="none" stroke="#000000" stroke-width="2" x1="7.5" x2="33.5" y1="47" y2="47" /><line fill="none" stroke="#000000" stroke-width="2" x1="2.5" x2="37" y1="78" y2="78" /><line fill="none" stroke="#000000" stroke-width="2" x1="20.5" x2="20.5" y1="95" y2="5" /><line fill="none" stroke="#000000" stroke-width="2" x1="2.5" x2="37" y1="17" y2="17" /><polyline fill="none" points="53,86 53,65 80,65 80,81" stroke="#000000" stroke-width="2" /><polyline fill="none" points="53.5,49 81,49 81,35 52.5,35 52.5,50" stroke="#000000" stroke-width="2" /><polyline fill="none" points="7.5,65 34.5,65 34.5,30 6.5,30 6.5,66" stroke="#000000" stroke-width="2" /><path d="M77.5,90 c5.247,0.363 8.598,0.5 10,0.5 c4.568,0 5,-0.489 5,-8 V57.0 h-52.0 v35.0" fill="none" stroke="#000000" stroke-width="2" /><path d="M41.5,13 c17.253,0 34.422,-1.754 50,-5" fill="none" stroke="#000000" stroke-width="2" /><path d="M96,44 c-8.729,-3.862 -18.043,-11.368 -24,-19.5" fill="none" stroke="#000000" stroke-width="2" /><path d="M37,45 c14.671,-7.007 25.51,-20.179 28,-33" fill="none" stroke="#000000" stroke-width="2" /></svg>