<?xml version='1.0' encoding='utf-8'?>
<svg xmlns="http://www.w3.org/2000/svg" height="100px" version="1.0" viewBox="0 0 100 100" width="100px" x="0px" y="0px">
<line fill="none" stroke="#000000" stroke-width="2" x1="50.5" x2="91.5" y1="55" y2="55" /><line fill="none" stroke="#000000" stroke-width="2" x1="71" x2="71" y1="94" y2="5" /><line fill="none" stroke="#000000" stroke-width="2" x1="47.5" x2="96" y1="16" y2="16" /><line fill="none" stroke="#000000" stroke-width="2" x1="4.5" x2="45.5" y1="44" y2="44" /><line fill="none" stroke="#000000" stroke-width="2" x1="5.5" x2="44.5" y1="16" y2="16" /><line fill="none" stroke="#000000" stroke-width="2" x1="25" x2="25" y1="16" y2="5" /><polyline fill="none" points="92.5,56 92.5,30 49.5,30 49.5,56" stroke="#000000" stroke-width="2" /><path d="M5,67 c13.724,-1.991 25.602,-4.322 40.5,-8" fill="none" stroke="#000000" stroke-width="2" /><path d="M32,44 c2.777,-7.979 5.053,-17.585 6.5,-28" fill="none" stroke="#000000" stroke-width="2" /><path d="M17,44 c-1.693,-9.678 -3.677,-18.956 -6,-28" fill="none" stroke="#000000" stroke-width="2" /><path d="M7.5,93 c12.27,-6.666 18.5,-19.769 18.5,-49" fill="none" stroke="#000000" stroke-width="2" /><path d="M39,87 c15.714,-10.81 25.869,-21.849 31,-32" fill="none" stroke="#000000" stroke-width="2" /><path d="M96.5,87 c-10.59,-9.184 -17.965,-18.817 -24.5,-32" fill="none" stroke="#000000" stroke-width="2" /></svg>