<?xml version='1.0' encoding='utf-8'?>
<svg xmlns="http://www.w3.org/2000/svg" height="100px" version="1.0" viewBox="0 0 100 100" width="100px" x="0px" y="0px">
<line fill="none" stroke="#000000" stroke-width="2" x1="26" x2="93" y1="10.5" y2="10.5" /><line fill="none" stroke="#000000" stroke-width="2" x1="55.5" x2="55.5" y1="44" y2="81.5" /><line fill="none" stroke="#000000" stroke-width="2" x1="72.5" x2="72.5" y1="44" y2="81.5" /><line fill="none" stroke="#000000" stroke-width="2" x1="39.5" x2="89" y1="60.5" y2="60.5" /><polyline fill="none" points="22,75 22,45 6,45" stroke="#000000" stroke-width="2" /><path d="M8,10 c5.725,5.621 10.574,10.782 16,17" fill="none" stroke="#000000" stroke-width="2" /><path d="M6,92 c7.74,-6.099 12.36,-11.114 16,-17" fill="none" stroke="#000000" stroke-width="2" /><path d="M93,90 h-35.0 c-21.543,0 -30.148,-3.961 -36,-15" fill="none" stroke="#000000" stroke-width="2" /><path d="M26.5,76.5 c5.336,-11.036 7.5,-21.753 7.5,-40 v-17.0 h54.5 v15.0 H35.0" fill="none" stroke="#000000" stroke-width="2" /><path d="M77,81.5 c3.961,0.366 6.471,0.5 8.5,0.5 c4.109,0 4.5,-0.333 4.5,-4 v-34.0 h-51.5 v39.5" fill="none" stroke="#000000" stroke-width="2" /></svg>