<?xml version='1.0' encoding='utf-8'?>
<svg xmlns="http://www.w3.org/2000/svg" height="100px" version="1.0" viewBox="0 0 100 100" width="100px" x="0px" y="0px">
<line fill="none" stroke="#000000" stroke-width="2" x1="32.5" x2="88.5" y1="44.5" y2="44.5" /><line fill="none" stroke="#000000" stroke-width="2" x1="26.5" x2="92.5" y1="13.5" y2="13.5" /><line fill="none" stroke="#000000" stroke-width="2" x1="92.5" x2="27.5" y1="63.5" y2="63.5" /><polyline fill="none" points="22.5,75 22.5,45 5.5,45" stroke="#000000" stroke-width="2" /><polyline fill="none" points="32.5,54 89.5,54 89.5,23 31.5,23 31.5,55" stroke="#000000" stroke-width="2" /><path d="M8.5,10 c5.725,5.621 10.574,10.782 16,17" fill="none" stroke="#000000" stroke-width="2" /><path d="M5.5,92 c8.029,-5.713 13.36,-11.114 17,-17" fill="none" stroke="#000000" stroke-width="2" /><path d="M92.5,90 h-34.0 c-21.543,0 -30.148,-3.961 -36,-15" fill="none" stroke="#000000" stroke-width="2" /><path d="M52,14.5 v9.5 c0,8.291 -4.674,13.502 -16,16.5" fill="none" stroke="#000000" stroke-width="2" /><path d="M66,13.5 V30.0 c0,5.205 1.122,6 9,6 h13.5" fill="none" stroke="#000000" stroke-width="2" /><path d="M51.5,13.5 c-1.918,-3.372 -3.995,-6.685 -6,-9.5" fill="none" stroke="#000000" stroke-width="2" /><path d="M68.5,13.5 c2.267,-3.13 4.422,-6.544 6,-9.5" fill="none" stroke="#000000" stroke-width="2" /><path d="M55.5,81 c-3.981,-4.297 -9.438,-9.061 -15,-13" fill="none" stroke="#000000" stroke-width="2" /><path d="M80.5,55 v20.0 c0,6.248 -0.632,7 -6,7 c-1.852,0 -6.697,-0.178 -12.5,-0.5" fill="none" stroke="#000000" stroke-width="2" /></svg>