<?xml version='1.0' encoding='utf-8'?>
<svg xmlns="http://www.w3.org/2000/svg" height="100px" version="1.0" viewBox="0 0 100 100" width="100px" x="0px" y="0px">
<line fill="none" stroke="#000000" stroke-width="2" x1="93" x2="26.5" y1="10.5" y2="10.5" /><line fill="none" stroke="#000000" stroke-width="2" x1="70" x2="70" y1="11.5" y2="32" /><line fill="none" stroke="#000000" stroke-width="2" x1="50" x2="50" y1="11.5" y2="32" /><line fill="none" stroke="#000000" stroke-width="2" x1="26.5" x2="93" y1="42.5" y2="42.5" /><polyline fill="none" points="22,75 22,45 6,45" stroke="#000000" stroke-width="2" /><polyline fill="none" points="31,34 31,19.5 89,19.5 89,33 32,33" stroke="#000000" stroke-width="2" /><polyline fill="none" points="77.5,69 77.5,52 43.5,52" stroke="#000000" stroke-width="2" /><path d="M8,10 c5.725,5.621 10.574,10.782 16,17" fill="none" stroke="#000000" stroke-width="2" /><path d="M6,92 c7.74,-6.099 12.36,-11.114 16,-17" fill="none" stroke="#000000" stroke-width="2" /><path d="M93,90 h-35.0 c-21.543,0 -30.148,-3.961 -36,-15" fill="none" stroke="#000000" stroke-width="2" /><path d="M57.5,33 c-7.576,11.467 -18.247,20.797 -32.5,28" fill="none" stroke="#000000" stroke-width="2" /><path d="M69.5,42.5 c6.246,6.826 15.072,13.465 25,18.5" fill="none" stroke="#000000" stroke-width="2" /><path d="M77.5,64 H39.0 v10.5 c0,5.614 0.5,6 20,6 c27.506,0 27.691,-0.169 28.5,-14" fill="none" stroke="#000000" stroke-width="2" /></svg>