<?xml version='1.0' encoding='utf-8'?>
<svg xmlns="http://www.w3.org/2000/svg" height="100px" version="1.0" viewBox="0 0 100 100" width="100px" x="0px" y="0px">
<line fill="none" stroke="#000000" stroke-width="2" x1="10.5" x2="45" y1="86" y2="86" /><line fill="none" stroke="#000000" stroke-width="2" x1="10.5" x2="45" y1="70" y2="70" /><line fill="none" stroke="#000000" stroke-width="2" x1="6" x2="48.5" y1="11" y2="11" /><line fill="none" stroke="#000000" stroke-width="2" x1="97.5" x2="50.5" y1="24" y2="24" /><polyline fill="none" points="46,93 46,28 9.5,28 9.5,93" stroke="#000000" stroke-width="2" /><path d="M22.5,11 v17.0 c0,21.968 -1.558,25.633 -10,34" fill="none" stroke="#000000" stroke-width="2" /><path d="M33,11 v37.0 c0,5.49 0.593,6 4.5,6 h8.5" fill="none" stroke="#000000" stroke-width="2" /><path d="M86.5,6 v75.5 c0,9.353 -0.62,10 -7,10 c-3.172,0 -9.749,-0.194 -16,-0.5" fill="none" stroke="#000000" stroke-width="2" /><path d="M69,67 c-3.807,-9.632 -9.448,-20.955 -15,-30" fill="none" stroke="#000000" stroke-width="2" /></svg>