<?xml version='1.0' encoding='utf-8'?>
<svg xmlns="http://www.w3.org/2000/svg" height="100px" version="1.0" viewBox="0 0 100 100" width="100px" x="0px" y="0px">
<line fill="none" stroke="#000000" stroke-width="2" x1="10" x2="41" y1="70" y2="70" /><line fill="none" stroke="#000000" stroke-width="2" x1="5.5" x2="45.5" y1="11" y2="11" /><line fill="none" stroke="#000000" stroke-width="2" x1="47.5" x2="91" y1="48" y2="48" /><polyline fill="none" points="10,86 42,86 42,28 9,28 9,93" stroke="#000000" stroke-width="2" /><path d="M20.5,12 v17.0 c0,20.538 -1.387,24.464 -10,33" fill="none" stroke="#000000" stroke-width="2" /><path d="M30,12 v36.0 c0,5.49 0.593,6 4.5,6 h6.5" fill="none" stroke="#000000" stroke-width="2" /><path d="M47,42.5 c7.231,-5.199 10,-11.316 10,-26 v-6.5 h23.0 v26.5 c0,2.755 0.262,3 4,3 c10.421,0 10.865,-0.383 12,-13.5" fill="none" stroke="#000000" stroke-width="2" /><path d="M44.5,91 c23.521,-8.813 36.758,-20.951 45.575,-42.381" fill="none" stroke="#000000" stroke-width="2" /><path d="M95,91 c-18.662,-9.464 -33.121,-22.547 -42,-37.5" fill="none" stroke="#000000" stroke-width="2" /></svg>