<?xml version='1.0' encoding='utf-8'?>
<svg xmlns="http://www.w3.org/2000/svg" height="100px" version="1.0" viewBox="0 0 100 100" width="100px" x="0px" y="0px">
<line fill="none" stroke="#000000" stroke-width="2" x1="10" x2="41" y1="70" y2="70" /><line fill="none" stroke="#000000" stroke-width="2" x1="5.5" x2="45" y1="11" y2="11" /><line fill="none" stroke="#000000" stroke-width="2" x1="53.5" x2="53.5" y1="6.5" y2="93.5" /><line fill="none" stroke="#000000" stroke-width="2" x1="88.5" x2="88.5" y1="93.5" y2="6.5" /><line fill="none" stroke="#000000" stroke-width="2" x1="97.5" x2="44.5" y1="21.5" y2="21.5" /><line fill="none" stroke="#000000" stroke-width="2" x1="54.5" x2="87.5" y1="85.5" y2="85.5" /><line fill="none" stroke="#000000" stroke-width="2" x1="54.5" x2="87.5" y1="52" y2="52" /><polyline fill="none" points="10,86 42,86 42,28 9,28 9,93" stroke="#000000" stroke-width="2" /><path d="M20.5,12 v17.0 c0,20.538 -1.387,24.464 -10,33" fill="none" stroke="#000000" stroke-width="2" /><path d="M30,12 v36.0 c0,5.49 0.593,6 4.5,6 h6.5" fill="none" stroke="#000000" stroke-width="2" /></svg>