<?xml version='1.0' encoding='utf-8'?>
<svg xmlns="http://www.w3.org/2000/svg" height="100px" version="1.0" viewBox="0 0 100 100" width="100px" x="0px" y="0px">
<line fill="none" stroke="#000000" stroke-width="2" x1="10" x2="41" y1="86" y2="86" /><line fill="none" stroke="#000000" stroke-width="2" x1="10" x2="41" y1="70" y2="70" /><line fill="none" stroke="#000000" stroke-width="2" x1="5.5" x2="44.5" y1="11" y2="11" /><line fill="none" stroke="#000000" stroke-width="2" x1="51" x2="90" y1="87" y2="87" /><line fill="none" stroke="#000000" stroke-width="2" x1="51" x2="90" y1="68.5" y2="68.5" /><line fill="none" stroke="#000000" stroke-width="2" x1="45" x2="96" y1="40" y2="40" /><line fill="none" stroke="#000000" stroke-width="2" x1="46" x2="95" y1="17" y2="17" /><line fill="none" stroke="#000000" stroke-width="2" x1="57.5" x2="57.5" y1="39" y2="4.5" /><line fill="none" stroke="#000000" stroke-width="2" x1="83.5" x2="83.5" y1="39" y2="4.5" /><polyline fill="none" points="42,93 42,28 9,28 9,93" stroke="#000000" stroke-width="2" /><polyline fill="none" points="91,93 91,51 50,51 50,93" stroke="#000000" stroke-width="2" /><path d="M20.5,12 v17.0 c0,20.538 -1.387,24.464 -10,33" fill="none" stroke="#000000" stroke-width="2" /><path d="M30,12 v36.0 c0,5.49 0.593,6 4.5,6 h6.5" fill="none" stroke="#000000" stroke-width="2" /></svg>