<?xml version='1.0' encoding='utf-8'?>
<svg xmlns="http://www.w3.org/2000/svg" height="100px" version="1.0" viewBox="0 0 100 100" width="100px" x="0px" y="0px">
<line fill="none" stroke="#000000" stroke-width="2" x1="9" x2="35" y1="86" y2="86" /><line fill="none" stroke="#000000" stroke-width="2" x1="9" x2="35" y1="70" y2="70" /><line fill="none" stroke="#000000" stroke-width="2" x1="4.5" x2="39" y1="11" y2="11" /><line fill="none" stroke="#000000" stroke-width="2" x1="53.5" x2="53.5" y1="90" y2="70" /><line fill="none" stroke="#000000" stroke-width="2" x1="56.5" x2="56.5" y1="27" y2="58.5" /><line fill="none" stroke="#000000" stroke-width="2" x1="78.5" x2="78.5" y1="27" y2="58.5" /><line fill="none" stroke="#000000" stroke-width="2" x1="40.5" x2="94.5" y1="35.5" y2="35.5" /><line fill="none" stroke="#000000" stroke-width="2" x1="39.5" x2="95.5" y1="59.5" y2="59.5" /><line fill="none" stroke="#000000" stroke-width="2" x1="92.5" x2="42.5" y1="47.5" y2="47.5" /><line fill="none" stroke="#000000" stroke-width="2" x1="67.5" x2="67.5" y1="13" y2="4" /><line fill="none" stroke="#000000" stroke-width="2" x1="40.5" x2="95.5" y1="13" y2="13" /><polyline fill="none" points="36,87 36,28 8,28 8,93" stroke="#000000" stroke-width="2" /><path d="M17.5,12 v17.0 c0,21.329 -1.043,24.875 -8,33" fill="none" stroke="#000000" stroke-width="2" /><path d="M26,12 v36.0 c0,5.49 0.593,6 4.5,6 h4.5" fill="none" stroke="#000000" stroke-width="2" /><path d="M66,59.5 c-6.279,6.813 -15.309,13.026 -27,18" fill="none" stroke="#000000" stroke-width="2" /><path d="M67.5,59.5 c4.854,14.802 16.044,27.2 29,33" fill="none" stroke="#000000" stroke-width="2" /><path d="M40,92.5 c11.73,-2.06 21.885,-4.745 34,-9" fill="none" stroke="#000000" stroke-width="2" /><path d="M77.5,77.5 c5.548,-3.99 10.794,-8.927 15,-14" fill="none" stroke="#000000" stroke-width="2" /><path d="M41,29.5 c8.236,-3.033 15.48,-7.202 20.5,-11.5" fill="none" stroke="#000000" stroke-width="2" /><path d="M94,29.5 c-5.149,-3.776 -12.432,-7.937 -20.5,-11.5" fill="none" stroke="#000000" stroke-width="2" /></svg>