<?xml version='1.0' encoding='utf-8'?>
<svg xmlns="http://www.w3.org/2000/svg" height="100px" version="1.0" viewBox="0 0 100 100" width="100px" x="0px" y="0px">
<line fill="none" stroke="#000000" stroke-width="2" x1="75" x2="75" y1="26" y2="10.5" /><line fill="none" stroke="#000000" stroke-width="2" x1="57.5" x2="57.5" y1="26" y2="10.5" /><line fill="none" stroke="#000000" stroke-width="2" x1="38" x2="96" y1="67" y2="67" /><line fill="none" stroke="#000000" stroke-width="2" x1="67.5" x2="67.5" y1="67" y2="94.5" /><line fill="none" stroke="#000000" stroke-width="2" x1="40" x2="94" y1="79.5" y2="79.5" /><line fill="none" stroke="#000000" stroke-width="2" x1="38" x2="96" y1="50" y2="50" /><line fill="none" stroke="#000000" stroke-width="2" x1="41" x2="93" y1="38.5" y2="38.5" /><line fill="none" stroke="#000000" stroke-width="2" x1="67.5" x2="67.5" y1="50" y2="28" /><line fill="none" stroke="#000000" stroke-width="2" x1="21" x2="21" y1="94" y2="11.5" /><line fill="none" stroke="#000000" stroke-width="2" x1="37.5" x2="4" y1="43.5" y2="43.5" /><polyline fill="none" points="41,27 92.5,27 92.5,9.5 40,9.5 40,28" stroke="#000000" stroke-width="2" /><path d="M75,67 c4.291,-5.306 7.883,-10.847 11,-17" fill="none" stroke="#000000" stroke-width="2" /><path d="M57.5,67 c-2.379,-5.605 -5.338,-11.528 -8.5,-17" fill="none" stroke="#000000" stroke-width="2" /><path d="M35.5,8 c-10.429,2.732 -20.482,4.718 -30.5,6" fill="none" stroke="#000000" stroke-width="2" /><path d="M3.5,81 c8.146,-12.473 13.462,-24.392 17,-38" fill="none" stroke="#000000" stroke-width="2" /><path d="M35.5,71.5 c-4.261,-8.739 -9.159,-18.138 -14,-27" fill="none" stroke="#000000" stroke-width="2" /><path d="M14.5,38.5 c-2.135,-7.106 -4.57,-14.178 -7,-20" fill="none" stroke="#000000" stroke-width="2" /><path d="M27,38.5 c3.249,-6.873 6.193,-14.97 8,-22" fill="none" stroke="#000000" stroke-width="2" /></svg>