<?xml version='1.0' encoding='utf-8'?>
<svg xmlns="http://www.w3.org/2000/svg" height="100px" version="1.0" viewBox="0 0 100 100" width="100px" x="0px" y="0px">
<line fill="none" stroke="#000000" stroke-width="2" x1="38.5" x2="5" y1="47" y2="47" /><line fill="none" stroke="#000000" stroke-width="2" x1="36.5" x2="9.5" y1="28" y2="28" /><line fill="none" stroke="#000000" stroke-width="2" x1="23" x2="23" y1="84.5" y2="28" /><path d="M97,51 c-3.492,-11.877 -7.934,-24.076 -13,-35.5" fill="none" stroke="#000000" stroke-width="2" /><path d="M70.16,6 v46.0 c0,7.429 -0.467,8 -5.66,8 c-1.541,0 -4.982,-0.14 -10.5,-0.5" fill="none" stroke="#000000" stroke-width="2" /><path d="M41.5,53.5 c5.146,-10.377 9.494,-23.916 12,-38" fill="none" stroke="#000000" stroke-width="2" /><path d="M90,47.5 c-7.051,23.317 -25.97,40.059 -51,45" fill="none" stroke="#000000" stroke-width="2" /><path d="M4,89.5 c12.85,-2.638 23.35,-5.97 35,-11" fill="none" stroke="#000000" stroke-width="2" /><path d="M41,23 c-6.785,-4.952 -12.493,-10.167 -18,-16.5 c-6.123,8.159 -12.523,15.052 -20,21.5" fill="none" stroke="#000000" stroke-width="2" /><path d="M16,76 c-2.387,-7.582 -4.948,-14.762 -7.5,-21" fill="none" stroke="#000000" stroke-width="2" /><path d="M29.5,73 c2.857,-6.433 5.416,-12.93 7.5,-19" fill="none" stroke="#000000" stroke-width="2" /></svg>