<?xml version='1.0' encoding='utf-8'?>
<svg xmlns="http://www.w3.org/2000/svg" height="100px" version="1.0" viewBox="0 0 100 100" width="100px" x="0px" y="0px">
<line fill="none" stroke="#000000" stroke-width="2" x1="42" x2="6.5" y1="47" y2="47" /><line fill="none" stroke="#000000" stroke-width="2" x1="41" x2="11" y1="28" y2="28" /><line fill="none" stroke="#000000" stroke-width="2" x1="25" x2="25" y1="84.5" y2="28" /><line fill="none" stroke="#000000" stroke-width="2" x1="92.5" x2="51" y1="21" y2="21" /><line fill="none" stroke="#000000" stroke-width="2" x1="95" x2="44" y1="46" y2="46" /><line fill="none" stroke="#000000" stroke-width="2" x1="69.5" x2="69.5" y1="46" y2="5" /><path d="M5.5,89.5 c14.318,-2.877 26.02,-6.513 39,-12" fill="none" stroke="#000000" stroke-width="2" /><path d="M43,23 c-6.578,-4.952 -12.16,-10.167 -17.5,-16.5 c-6.445,8.159 -13.143,15.038 -21,21.5" fill="none" stroke="#000000" stroke-width="2" /><path d="M17.5,76 c-2.387,-7.582 -4.948,-14.762 -7.5,-21" fill="none" stroke="#000000" stroke-width="2" /><path d="M33,73 c2.857,-6.433 5.416,-12.93 7.5,-19" fill="none" stroke="#000000" stroke-width="2" /><path d="M41,39.5 c6.313,-8.575 11.368,-19.892 14,-32" fill="none" stroke="#000000" stroke-width="2" /><path d="M36.5,91 c14.736,-6.724 23.84,-21.105 25,-45" fill="none" stroke="#000000" stroke-width="2" /><path d="M74.5,46 v36.0 c0,7.391 0.789,8 10,8 c8.899,0 9.392,-0.724 10.5,-23" fill="none" stroke="#000000" stroke-width="2" /></svg>