<?xml version='1.0' encoding='utf-8'?>
<svg xmlns="http://www.w3.org/2000/svg" height="100px" version="1.0" viewBox="0 0 100 100" width="100px" x="0px" y="0px">
<line fill="none" stroke="#000000" stroke-width="2" x1="38.5" x2="5" y1="47" y2="47" /><line fill="none" stroke="#000000" stroke-width="2" x1="36.5" x2="9.5" y1="28" y2="28" /><line fill="none" stroke="#000000" stroke-width="2" x1="23" x2="23" y1="84.5" y2="28" /><path d="M4,89.5 c12.85,-2.638 23.35,-5.97 35,-11" fill="none" stroke="#000000" stroke-width="2" /><path d="M41,23 c-6.785,-4.952 -12.493,-10.167 -18,-16.5 c-6.123,8.159 -12.523,15.052 -20,21.5" fill="none" stroke="#000000" stroke-width="2" /><path d="M16,76 c-2.387,-7.582 -4.948,-14.762 -7.5,-21" fill="none" stroke="#000000" stroke-width="2" /><path d="M29.5,73 c2.857,-6.433 5.416,-12.93 7.5,-19" fill="none" stroke="#000000" stroke-width="2" /><path d="M94,14.5 c-5.059,9.397 -10.494,16.927 -16.5,23" fill="none" stroke="#000000" stroke-width="2" /><path d="M72.5,6.5 v76.5 c0,6.941 1.538,8 11,8 c11.068,0 11.914,-0.823 12.5,-19" fill="none" stroke="#000000" stroke-width="2" /><path d="M54.5,38.5 c-3.192,-6.806 -7.301,-14.338 -12,-22" fill="none" stroke="#000000" stroke-width="2" /><path d="M96,65.5 c-6.441,-5.619 -14.667,-11.827 -23.5,-17.5" fill="none" stroke="#000000" stroke-width="2" /><path d="M36,92.5 c17.525,-8.478 23.5,-19.05 23.5,-47.5 v-38.5" fill="none" stroke="#000000" stroke-width="2" /><path d="M38.5,66 c8.227,-4.651 15.516,-10.114 21,-15.5" fill="none" stroke="#000000" stroke-width="2" /></svg>