<?xml version='1.0' encoding='utf-8'?>
<svg xmlns="http://www.w3.org/2000/svg" height="100px" version="1.0" viewBox="0 0 100 100" width="100px" x="0px" y="0px">
<line fill="none" stroke="#000000" stroke-width="2" x1="34" x2="5" y1="47" y2="47" /><line fill="none" stroke="#000000" stroke-width="2" x1="33" x2="9" y1="28" y2="28" /><line fill="none" stroke="#000000" stroke-width="2" x1="21" x2="21" y1="84.5" y2="28" /><line fill="none" stroke="#000000" stroke-width="2" x1="66.5" x2="66.5" y1="15" y2="3" /><line fill="none" stroke="#000000" stroke-width="2" x1="48" x2="66" y1="33" y2="33" /><polyline fill="none" points="94,31 94,15 40,15 40,32" stroke="#000000" stroke-width="2" /><path d="M4.5,89.5 c11.376,-2.657 20.682,-5.97 31,-11" fill="none" stroke="#000000" stroke-width="2" /><path d="M36.5,23 c-5.84,-5.014 -10.718,-10.167 -15.5,-16.5 c-5.318,8.159 -10.951,15.108 -17.5,21.5" fill="none" stroke="#000000" stroke-width="2" /><path d="M14.5,76 c-2.068,-7.582 -4.289,-14.762 -6.5,-21" fill="none" stroke="#000000" stroke-width="2" /><path d="M26.5,73 c2.477,-6.433 4.693,-12.93 6.5,-19" fill="none" stroke="#000000" stroke-width="2" /><path d="M35.5,60.5 c6.963,-10.765 12.264,-24.015 15.5,-39" fill="none" stroke="#000000" stroke-width="2" /><path d="M65.003,33.961 c-0.999,26.077 -13.571,48.25 -30.503,57.039" fill="none" stroke="#000000" stroke-width="2" /><path d="M95.5,69.5 c-1.055,20.802 -1.268,21 -13.5,21 c-11.256,0 -11.5,-0.219 -11.5,-6.5 v-53.5 h19.5 v28.0 c0,6.25 -0.211,6.5 -4.5,6.5 c-1.532,0 -4.852,-0.139 -9.5,-0.5" fill="none" stroke="#000000" stroke-width="2" /><path d="M58,63.5 c-3.987,-4.538 -8.946,-9.513 -13.5,-13.5" fill="none" stroke="#000000" stroke-width="2" /></svg>