<?xml version='1.0' encoding='utf-8'?>
<svg xmlns="http://www.w3.org/2000/svg" height="100px" version="1.0" viewBox="0 0 100 100" width="100px" x="0px" y="0px">
<line fill="none" stroke="#000000" stroke-width="2" x1="83" x2="83" y1="69" y2="30" /><line fill="none" stroke="#000000" stroke-width="2" x1="45" x2="45" y1="69" y2="30" /><line fill="none" stroke="#000000" stroke-width="2" x1="94" x2="37" y1="29" y2="29" /><line fill="none" stroke="#000000" stroke-width="2" x1="36" x2="94" y1="70" y2="70" /><line fill="none" stroke="#000000" stroke-width="2" x1="36" x2="96" y1="49" y2="49" /><line fill="none" stroke="#000000" stroke-width="2" x1="31" x2="95.5" y1="89.5" y2="89.5" /><line fill="none" stroke="#000000" stroke-width="2" x1="64" x2="64" y1="89.5" y2="13" /><line fill="none" stroke="#000000" stroke-width="2" x1="37" x2="4.5" y1="47" y2="47" /><line fill="none" stroke="#000000" stroke-width="2" x1="35" x2="9" y1="28" y2="28" /><line fill="none" stroke="#000000" stroke-width="2" x1="22" x2="22" y1="84.5" y2="28" /><path d="M37.5,14.5 c18.403,0 36.135,-2.022 53,-6" fill="none" stroke="#000000" stroke-width="2" /><path d="M3.5,89.5 c12.482,-2.638 22.683,-5.97 34,-11" fill="none" stroke="#000000" stroke-width="2" /><path d="M37.5,23 c-6.141,-5.731 -9.766,-9.683 -15,-16.5 c-6.123,8.159 -12.523,15.052 -20,21.5" fill="none" stroke="#000000" stroke-width="2" /><path d="M15,76 c-2.387,-7.582 -4.948,-14.762 -7.5,-21" fill="none" stroke="#000000" stroke-width="2" /><path d="M28.5,73 c2.857,-6.433 5.416,-12.93 7.5,-19" fill="none" stroke="#000000" stroke-width="2" /></svg>