<?xml version='1.0' encoding='utf-8'?>
<svg xmlns="http://www.w3.org/2000/svg" height="100px" version="1.0" viewBox="0 0 100 100" width="100px" x="0px" y="0px">
<line fill="none" stroke="#000000" stroke-width="2" x1="38.5" x2="5" y1="47" y2="47" /><line fill="none" stroke="#000000" stroke-width="2" x1="36.5" x2="9.5" y1="28" y2="28" /><line fill="none" stroke="#000000" stroke-width="2" x1="23" x2="23" y1="84.5" y2="28" /><line fill="none" stroke="#000000" stroke-width="2" x1="44" x2="90.5" y1="59.5" y2="59.5" /><line fill="none" stroke="#000000" stroke-width="2" x1="44" x2="90.5" y1="42.5" y2="42.5" /><line fill="none" stroke="#000000" stroke-width="2" x1="67.5" x2="67.5" y1="93.5" y2="5" /><line fill="none" stroke="#000000" stroke-width="2" x1="39" x2="95" y1="16" y2="16" /><polyline fill="none" points="91.5,60.5 91.5,26.5 43,26.5 43,60.5" stroke="#000000" stroke-width="2" /><path d="M4,89.5 c12.85,-2.638 23.35,-5.97 35,-11" fill="none" stroke="#000000" stroke-width="2" /><path d="M41,23 c-6.785,-4.952 -12.493,-10.167 -18,-16.5 c-6.123,8.159 -12.523,15.052 -20,21.5" fill="none" stroke="#000000" stroke-width="2" /><path d="M16,76 c-2.387,-7.582 -4.948,-14.762 -7.5,-21" fill="none" stroke="#000000" stroke-width="2" /><path d="M29.5,73 c2.857,-6.433 5.416,-12.93 7.5,-19" fill="none" stroke="#000000" stroke-width="2" /><path d="M37.5,89 c14.549,-10.207 24.021,-20.236 29,-29.5" fill="none" stroke="#000000" stroke-width="2" /><path d="M96.5,89 c-12.157,-8.286 -20.578,-17.081 -28,-29.5" fill="none" stroke="#000000" stroke-width="2" /></svg>