<?xml version='1.0' encoding='utf-8'?>
<svg xmlns="http://www.w3.org/2000/svg" height="100px" version="1.0" viewBox="0 0 100 100" width="100px" x="0px" y="0px">
<line fill="none" stroke="#000000" stroke-width="2" x1="37" x2="4.5" y1="47" y2="47" /><line fill="none" stroke="#000000" stroke-width="2" x1="35" x2="9" y1="28" y2="28" /><line fill="none" stroke="#000000" stroke-width="2" x1="22" x2="22" y1="84.5" y2="28" /><line fill="none" stroke="#000000" stroke-width="2" x1="95" x2="37" y1="15" y2="15" /><line fill="none" stroke="#000000" stroke-width="2" x1="36.5" x2="96" y1="57" y2="57" /><line fill="none" stroke="#000000" stroke-width="2" x1="47.5" x2="83" y1="43" y2="43" /><line fill="none" stroke="#000000" stroke-width="2" x1="47.5" x2="83" y1="29" y2="29" /><line fill="none" stroke="#000000" stroke-width="2" x1="46.5" x2="46.5" y1="56" y2="3.5" /><line fill="none" stroke="#000000" stroke-width="2" x1="84" x2="84" y1="56" y2="3.5" /><line fill="none" stroke="#000000" stroke-width="2" x1="42" x2="95" y1="88.5" y2="88.5" /><line fill="none" stroke="#000000" stroke-width="2" x1="42" x2="42" y1="58" y2="95.5" /><path d="M3.5,89.5 c12.482,-2.638 22.683,-5.97 34,-11" fill="none" stroke="#000000" stroke-width="2" /><path d="M37.5,23 c-6.141,-5.731 -9.766,-9.683 -15,-16.5 c-6.123,8.159 -12.523,15.052 -20,21.5" fill="none" stroke="#000000" stroke-width="2" /><path d="M15,76 c-2.387,-7.582 -4.948,-14.762 -7.5,-21" fill="none" stroke="#000000" stroke-width="2" /><path d="M27.5,73 c2.857,-6.433 5.416,-12.93 7.5,-19" fill="none" stroke="#000000" stroke-width="2" /><path d="M60.5,57 c0,13.314 -3.721,18.837 -15,23" fill="none" stroke="#000000" stroke-width="2" /><path d="M72,58 v13.5 c0,4.023 0.607,4.5 9.5,4.5 c9.391,0 9.639,-0.242 10,-12.5" fill="none" stroke="#000000" stroke-width="2" /></svg>