<?xml version='1.0' encoding='utf-8'?>
<svg xmlns="http://www.w3.org/2000/svg" height="100px" version="1.0" viewBox="0 0 100 100" width="100px" x="0px" y="0px">
<line fill="none" stroke="#000000" stroke-width="2" x1="34" x2="5" y1="47" y2="47" /><line fill="none" stroke="#000000" stroke-width="2" x1="33" x2="9" y1="28" y2="28" /><line fill="none" stroke="#000000" stroke-width="2" x1="21" x2="21" y1="84.5" y2="28" /><line fill="none" stroke="#000000" stroke-width="2" x1="36" x2="96" y1="15" y2="15" /><line fill="none" stroke="#000000" stroke-width="2" x1="35.5" x2="96.5" y1="44.5" y2="44.5" /><line fill="none" stroke="#000000" stroke-width="2" x1="54" x2="54" y1="94" y2="16" /><line fill="none" stroke="#000000" stroke-width="2" x1="72" x2="72" y1="94" y2="16" /><polyline fill="none" points="37.5,61.5 89.5,61.5 89.5,28.5 38.5,28.5" stroke="#000000" stroke-width="2" /><path d="M4.5,89.5 c11.376,-2.657 20.682,-5.97 31,-11" fill="none" stroke="#000000" stroke-width="2" /><path d="M36.5,23 c-5.84,-5.014 -10.718,-10.167 -15.5,-16.5 c-5.318,8.159 -10.951,15.108 -17.5,21.5" fill="none" stroke="#000000" stroke-width="2" /><path d="M14.5,76 c-2.068,-7.582 -4.289,-14.762 -6.5,-21" fill="none" stroke="#000000" stroke-width="2" /><path d="M26.5,73 c2.477,-6.433 4.693,-12.93 6.5,-19" fill="none" stroke="#000000" stroke-width="2" /><path d="M54,15 c-2.23,-3.912 -4.662,-7.739 -7,-11" fill="none" stroke="#000000" stroke-width="2" /><path d="M72,15 c2.644,-3.625 5.16,-7.577 7,-11" fill="none" stroke="#000000" stroke-width="2" /><path d="M96.5,90.5 c-11.486,-9.408 -19.131,-18.726 -24,-29" fill="none" stroke="#000000" stroke-width="2" /><path d="M30.5,90.5 c11.008,-9.408 18.334,-18.726 23,-29" fill="none" stroke="#000000" stroke-width="2" /></svg>