<?xml version='1.0' encoding='utf-8'?>
<svg xmlns="http://www.w3.org/2000/svg" height="100px" version="1.0" viewBox="0 0 100 100" width="100px" x="0px" y="0px">
<line fill="none" stroke="#000000" stroke-width="2" x1="77.5" x2="77.5" y1="53.5" y2="40.5" /><line fill="none" stroke="#000000" stroke-width="2" x1="59.5" x2="59.5" y1="53.5" y2="40.5" /><line fill="none" stroke="#000000" stroke-width="2" x1="46" x2="89.5" y1="21" y2="21" /><line fill="none" stroke="#000000" stroke-width="2" x1="41" x2="91.5" y1="62.5" y2="62.5" /><line fill="none" stroke="#000000" stroke-width="2" x1="38.5" x2="5" y1="47" y2="47" /><line fill="none" stroke="#000000" stroke-width="2" x1="36.5" x2="9.5" y1="28" y2="28" /><line fill="none" stroke="#000000" stroke-width="2" x1="23" x2="23" y1="84.5" y2="28" /><polyline fill="none" points="42.5,54.5 95.5,54.5 95.5,39.5 41.5,39.5 41.5,55.5" stroke="#000000" stroke-width="2" /><polyline fill="none" points="46,32 90.5,32 90.5,10 45,10 45,33" stroke="#000000" stroke-width="2" /><path d="M36,91 c26.045,-5.12 45.195,-15.801 54.709,-28.111" fill="none" stroke="#000000" stroke-width="2" /><path d="M96.5,91 c-22.148,-4.211 -38.584,-12.618 -50,-25" fill="none" stroke="#000000" stroke-width="2" /><path d="M4,89.5 c12.85,-2.638 23.35,-5.97 35,-11" fill="none" stroke="#000000" stroke-width="2" /><path d="M41,23 c-6.785,-4.952 -12.493,-10.167 -18,-16.5 c-6.123,8.159 -12.523,15.052 -20,21.5" fill="none" stroke="#000000" stroke-width="2" /><path d="M16,76 c-2.387,-7.582 -4.948,-14.762 -7.5,-21" fill="none" stroke="#000000" stroke-width="2" /><path d="M29.5,73 c2.857,-6.433 5.416,-12.93 7.5,-19" fill="none" stroke="#000000" stroke-width="2" /></svg>