<?xml version='1.0' encoding='utf-8'?>
<svg xmlns="http://www.w3.org/2000/svg" height="100px" version="1.0" viewBox="0 0 100 100" width="100px" x="0px" y="0px">
<line fill="none" stroke="#000000" stroke-width="2" x1="33.5" x2="4.5" y1="47" y2="47" /><line fill="none" stroke="#000000" stroke-width="2" x1="32.5" x2="8.5" y1="28" y2="28" /><line fill="none" stroke="#000000" stroke-width="2" x1="20.5" x2="20.5" y1="84.5" y2="28" /><line fill="none" stroke="#000000" stroke-width="2" x1="35" x2="95.5" y1="13" y2="13" /><line fill="none" stroke="#000000" stroke-width="2" x1="82" x2="48" y1="37.5" y2="37.5" /><line fill="none" stroke="#000000" stroke-width="2" x1="49" x2="81" y1="51.5" y2="51.5" /><polyline fill="none" points="48,37.5 48,66 82,66 82,37.5" stroke="#000000" stroke-width="2" /><path d="M4,89.5 c11.376,-2.657 20.682,-5.97 31,-11" fill="none" stroke="#000000" stroke-width="2" /><path d="M36,23 c-5.84,-5.014 -10.718,-10.167 -15.5,-16.5 c-5.317,8.159 -10.951,15.108 -17.5,21.5" fill="none" stroke="#000000" stroke-width="2" /><path d="M14,76 c-2.068,-7.582 -4.289,-14.762 -6.5,-21" fill="none" stroke="#000000" stroke-width="2" /><path d="M26,73 c2.477,-6.433 4.693,-12.93 6.5,-19" fill="none" stroke="#000000" stroke-width="2" /><path d="M97,50.5 c-13.57,-8.789 -25.17,-23.123 -30,-37.5" fill="none" stroke="#000000" stroke-width="2" /><path d="M33.5,50.5 c15.329,-9.904 28.365,-28.907 32.5,-47.5" fill="none" stroke="#000000" stroke-width="2" /><path d="M91,18 c-3.758,5.085 -8.558,10.44 -13,14.5" fill="none" stroke="#000000" stroke-width="2" /><path d="M52,32.5 c-4.094,-4.988 -8.541,-9.976 -13,-14.5" fill="none" stroke="#000000" stroke-width="2" /><path d="M32,88 c8.041,-4.247 15.361,-10.549 20,-17" fill="none" stroke="#000000" stroke-width="2" /><path d="M97,89 c-5.744,-6.286 -12.707,-12.392 -20,-17.5" fill="none" stroke="#000000" stroke-width="2" /><path d="M66,66 v19.0 c0,5.473 -0.472,6 -6,6 c-2.584,0 -7.129,-0.174 -12.5,-0.5" fill="none" stroke="#000000" stroke-width="2" /></svg>