<?xml version='1.0' encoding='utf-8'?>
<svg xmlns="http://www.w3.org/2000/svg" height="100px" version="1.0" viewBox="0 0 100 100" width="100px" x="0px" y="0px">
<line fill="none" stroke="#000000" stroke-width="2" x1="34" x2="5" y1="47" y2="47" /><line fill="none" stroke="#000000" stroke-width="2" x1="33" x2="9" y1="28" y2="28" /><line fill="none" stroke="#000000" stroke-width="2" x1="21" x2="21" y1="84.5" y2="28" /><line fill="none" stroke="#000000" stroke-width="2" x1="52" x2="52" y1="11.5" y2="24" /><line fill="none" stroke="#000000" stroke-width="2" x1="52" x2="52" y1="37.5" y2="50.5" /><line fill="none" stroke="#000000" stroke-width="2" x1="37.5" x2="66" y1="51.5" y2="51.5" /><line fill="none" stroke="#000000" stroke-width="2" x1="56" x2="56" y1="63.5" y2="89" /><line fill="none" stroke="#000000" stroke-width="2" x1="72" x2="72" y1="63.5" y2="89" /><line fill="none" stroke="#000000" stroke-width="2" x1="30.5" x2="95.5" y1="90" y2="90" /><line fill="none" stroke="#000000" stroke-width="2" x1="95" x2="73" y1="18" y2="18" /><line fill="none" stroke="#000000" stroke-width="2" x1="93" x2="70" y1="42" y2="42" /><polyline fill="none" points="65,10.5 37.5,10.5 37.5,58.5" stroke="#000000" stroke-width="2" /><polyline fill="none" points="38.5,37.5 62,37.5 62,24 38.5,24" stroke="#000000" stroke-width="2" /><polyline fill="none" points="88,89 88,63.5 40,63.5 40,89" stroke="#000000" stroke-width="2" /><path d="M4.5,89.5 c11.376,-2.657 20.682,-5.97 31,-11" fill="none" stroke="#000000" stroke-width="2" /><path d="M36.5,23 c-5.84,-5.014 -10.718,-10.167 -15.5,-16.5 c-5.317,8.159 -10.951,15.108 -17.5,21.5" fill="none" stroke="#000000" stroke-width="2" /><path d="M14.5,76 c-2.068,-7.582 -4.289,-14.762 -6.5,-21" fill="none" stroke="#000000" stroke-width="2" /><path d="M26.5,73 c2.477,-6.433 4.693,-12.93 6.5,-19" fill="none" stroke="#000000" stroke-width="2" /><path d="M65,34 c5.162,-7.536 9.528,-17.632 12,-28" fill="none" stroke="#000000" stroke-width="2" /></svg>