<?xml version='1.0' encoding='utf-8'?>
<svg xmlns="http://www.w3.org/2000/svg" height="100px" version="1.0" viewBox="0 0 100 100" width="100px" x="0px" y="0px">
<line fill="none" stroke="#000000" stroke-width="2" x1="37.5" x2="90" y1="59.5" y2="59.5" /><line fill="none" stroke="#000000" stroke-width="2" x1="37.5" x2="90" y1="42.5" y2="42.5" /><line fill="none" stroke="#000000" stroke-width="2" x1="64" x2="64" y1="93.5" y2="5" /><line fill="none" stroke="#000000" stroke-width="2" x1="32" x2="95" y1="16" y2="16" /><polyline fill="none" points="32,10 9,10 9,94" stroke="#000000" stroke-width="2" /><polyline fill="none" points="91,60.5 91,26.5 36.5,26.5 36.5,60.5" stroke="#000000" stroke-width="2" /><path d="M13,71 h4.0 c7.789,0 11,-2.928 11,-10.5 c0,-8.302 -2.023,-13.576 -10,-23.5 c5.083,-8.09 9.91,-17.88 13.063,-26.349" fill="none" stroke="#000000" stroke-width="2" /><path d="M28.5,89 c17.309,-10.207 28.578,-20.236 34.5,-29.5" fill="none" stroke="#000000" stroke-width="2" /><path d="M96.5,89 c-13.677,-8.286 -23.15,-17.081 -31.5,-29.5" fill="none" stroke="#000000" stroke-width="2" /></svg>