<?xml version='1.0' encoding='utf-8'?>
<svg xmlns="http://www.w3.org/2000/svg" height="100px" version="1.0" viewBox="0 0 100 100" width="100px" x="0px" y="0px">
<line fill="none" stroke="#000000" stroke-width="2" x1="62" x2="62" y1="87.5" y2="49" /><line fill="none" stroke="#000000" stroke-width="2" x1="33" x2="92" y1="88.5" y2="88.5" /><line fill="none" stroke="#000000" stroke-width="2" x1="32" x2="32" y1="48" y2="94.5" /><line fill="none" stroke="#000000" stroke-width="2" x1="91" x2="32" y1="48" y2="48" /><line fill="none" stroke="#000000" stroke-width="2" x1="33" x2="89" y1="61.5" y2="61.5" /><line fill="none" stroke="#000000" stroke-width="2" x1="33" x2="89" y1="75" y2="75" /><line fill="none" stroke="#000000" stroke-width="2" x1="8" x2="92" y1="10" y2="10" /><path d="M20,62 c8.624,-8.031 14.41,-16.146 18,-25" fill="none" stroke="#000000" stroke-width="2" /><path d="M67.5,37 c-1.955,4.184 -3.587,7.183 -6,11" fill="none" stroke="#000000" stroke-width="2" /><path d="M5,90 c7.829,-9.563 13,-25.117 13,-41 v-28.0 h67.0 v16.0 h-66.0" fill="none" stroke="#000000" stroke-width="2" /></svg>