<?xml version='1.0' encoding='utf-8'?>
<svg xmlns="http://www.w3.org/2000/svg" height="100px" version="1.0" viewBox="0 0 100 100" width="100px" x="0px" y="0px">
<line fill="none" stroke="#000000" stroke-width="2" x1="50" x2="50" y1="44" y2="10" /><line fill="none" stroke="#000000" stroke-width="2" x1="12" x2="88" y1="10" y2="10" /><line fill="none" stroke="#000000" stroke-width="2" x1="18" x2="42" y1="29.5" y2="29.5" /><line fill="none" stroke="#000000" stroke-width="2" x1="18" x2="42" y1="39" y2="39" /><line fill="none" stroke="#000000" stroke-width="2" x1="58" x2="82" y1="29.5" y2="29.5" /><line fill="none" stroke="#000000" stroke-width="2" x1="58" x2="82" y1="39" y2="39" /><polyline fill="none" points="90,39 90,21 10,21 10,39" stroke="#000000" stroke-width="2" /><path d="M23.5,49.5 H85.0 c-1.403,25.721 -3.028,28.5 -7,28.5 c-2.475,0 -6.764,-0.195 -11,-0.5" fill="none" stroke="#000000" stroke-width="2" /><path d="M4,71.501 c10.016,-7.21 18.666,-18.027 23,-29.001" fill="none" stroke="#000000" stroke-width="2" /><path d="M90,75.5 c-1.758,15.046 -2.435,15.5 -35,15.5 h-10.0 c-24.44,0 -26,-1.38 -26,-7.5 v-24.0 h44.0 v15.0 h-43.0" fill="none" stroke="#000000" stroke-width="2" /></svg>