<?xml version='1.0' encoding='utf-8'?>
<svg xmlns="http://www.w3.org/2000/svg" height="100px" version="1.0" viewBox="0 0 100 100" width="100px" x="0px" y="0px">
<line fill="none" stroke="#000000" stroke-width="2" x1="50" x2="50" y1="44" y2="10" /><line fill="none" stroke="#000000" stroke-width="2" x1="12" x2="88" y1="10" y2="10" /><line fill="none" stroke="#000000" stroke-width="2" x1="18" x2="42" y1="29.5" y2="29.5" /><line fill="none" stroke="#000000" stroke-width="2" x1="18" x2="42" y1="39" y2="39" /><line fill="none" stroke="#000000" stroke-width="2" x1="58" x2="82" y1="29.5" y2="29.5" /><line fill="none" stroke="#000000" stroke-width="2" x1="58" x2="82" y1="39" y2="39" /><line fill="none" stroke="#000000" stroke-width="2" x1="14" x2="91" y1="67.5" y2="67.5" /><line fill="none" stroke="#000000" stroke-width="2" x1="30.5" x2="30.5" y1="91" y2="67.5" /><line fill="none" stroke="#000000" stroke-width="2" x1="21" x2="85.5" y1="58" y2="58" /><polyline fill="none" points="90,39 90,21 10,21 10,39" stroke="#000000" stroke-width="2" /><path d="M47.5,67.5 c6.275,11.722 23.41,22.298 44.5,25.5" fill="none" stroke="#000000" stroke-width="2" /><path d="M14.5,92.5 c15.51,-1.373 28.98,-3.163 45,-6" fill="none" stroke="#000000" stroke-width="2" /><path d="M63.5,83 c7.555,-3.112 14.611,-7.095 21.5,-12" fill="none" stroke="#000000" stroke-width="2" /><path d="M6,92 c5.376,-9.092 8,-19.303 8,-33 v-10.5 h76.0" fill="none" stroke="#000000" stroke-width="2" /></svg>