<?xml version='1.0' encoding='utf-8'?>
<svg xmlns="http://www.w3.org/2000/svg" height="100px" version="1.0" viewBox="0 0 100 100" width="100px" x="0px" y="0px">
<line fill="none" stroke="#000000" stroke-width="2" x1="46.5" x2="6" y1="63" y2="63" /><line fill="none" stroke="#000000" stroke-width="2" x1="8" x2="46" y1="47" y2="47" /><line fill="none" stroke="#000000" stroke-width="2" x1="56.5" x2="94.5" y1="48" y2="48" /><line fill="none" stroke="#000000" stroke-width="2" x1="50" x2="50" y1="42.5" y2="9.5" /><line fill="none" stroke="#000000" stroke-width="2" x1="12" x2="88" y1="9.5" y2="9.5" /><line fill="none" stroke="#000000" stroke-width="2" x1="18" x2="42" y1="28" y2="28" /><line fill="none" stroke="#000000" stroke-width="2" x1="18" x2="42" y1="37.5" y2="37.5" /><line fill="none" stroke="#000000" stroke-width="2" x1="58" x2="82" y1="28" y2="28" /><line fill="none" stroke="#000000" stroke-width="2" x1="58" x2="82" y1="37.5" y2="37.5" /><polyline fill="none" points="90,37.5 90,19.5 10,19.5 10,37.5" stroke="#000000" stroke-width="2" /><path d="M28.5,63 v24.0 c0,4.648 -0.416,5 -5,5 c-1.602,0 -5.98,-0.18 -11,-0.5" fill="none" stroke="#000000" stroke-width="2" /><path d="M5,85.5 c8.881,-5.747 16.711,-13.411 23,-22.5" fill="none" stroke="#000000" stroke-width="2" /><path d="M13.5,51.5 c6.162,3.29 12.607,7.194 19,11.5" fill="none" stroke="#000000" stroke-width="2" /><path d="M45.412,47.19 c-5.151,3.73 -12.075,7.723 -19.912,11.31" fill="none" stroke="#000000" stroke-width="2" /><path d="M45.694,63.408 c-3.244,4.417 -7.06,8.22 -11.694,11.592" fill="none" stroke="#000000" stroke-width="2" /><path d="M46.5,69 c21.14,-3.875 35.293,-12.186 40.5,-21" fill="none" stroke="#000000" stroke-width="2" /><path d="M95,69 c-18.11,-4.092 -31.741,-12.01 -38.5,-21" fill="none" stroke="#000000" stroke-width="2" /><path d="M42,59 c8.545,-4.673 15.78,-10.939 20,-17" fill="none" stroke="#000000" stroke-width="2" /><path d="M36,92 c21.949,-5.446 31.231,-14.324 32,-26" fill="none" stroke="#000000" stroke-width="2" /><path d="M41,73 h48.5 c0,13.095 -3.655,18 -9,18 c-2.741,0 -8.389,-0.382 -13.5,-1" fill="none" stroke="#000000" stroke-width="2" /></svg>