<?xml version='1.0' encoding='utf-8'?>
<svg xmlns="http://www.w3.org/2000/svg" height="100px" version="1.0" viewBox="0 0 100 100" width="100px" x="0px" y="0px">
<line fill="none" stroke="#000000" stroke-width="2" x1="4" x2="45.5" y1="18" y2="18" /><line fill="none" stroke="#000000" stroke-width="2" x1="9.5" x2="40.5" y1="63" y2="63" /><line fill="none" stroke="#000000" stroke-width="2" x1="3.5" x2="45" y1="75.5" y2="75.5" /><line fill="none" stroke="#000000" stroke-width="2" x1="25" x2="25" y1="94" y2="30.5" /><line fill="none" stroke="#000000" stroke-width="2" x1="71" x2="71" y1="95" y2="5" /><line fill="none" stroke="#000000" stroke-width="2" x1="94" x2="49" y1="45" y2="45" /><line fill="none" stroke="#000000" stroke-width="2" x1="95.5" x2="47.5" y1="20" y2="20" /><polyline fill="none" points="36,6.5 36,30.5 14,30.5 14,6.5" stroke="#000000" stroke-width="2" /><polyline fill="none" points="41.5,64 41.5,41 8.5,41 8.5,64" stroke="#000000" stroke-width="2" /><path d="M97,86.5 c-11.797,-13.437 -19.797,-26.823 -25,-42" fill="none" stroke="#000000" stroke-width="2" /><path d="M41,86.5 c13.549,-13.101 23.031,-26.733 29,-41.5" fill="none" stroke="#000000" stroke-width="2" /></svg>