<?xml version='1.0' encoding='utf-8'?>
<svg xmlns="http://www.w3.org/2000/svg" height="100px" version="1.0" viewBox="0 0 100 100" width="100px" x="0px" y="0px">
<line fill="none" stroke="#000000" stroke-width="2" x1="4" x2="45.5" y1="18" y2="18" /><line fill="none" stroke="#000000" stroke-width="2" x1="9.5" x2="40.5" y1="63" y2="63" /><line fill="none" stroke="#000000" stroke-width="2" x1="3.5" x2="45" y1="75.5" y2="75.5" /><line fill="none" stroke="#000000" stroke-width="2" x1="25" x2="25" y1="94" y2="30.5" /><line fill="none" stroke="#000000" stroke-width="2" x1="96.5" x2="45" y1="10.5" y2="10.5" /><polyline fill="none" points="36,6.5 36,30.5 14,30.5 14,6.5" stroke="#000000" stroke-width="2" /><polyline fill="none" points="41.5,64 41.5,41 8.5,41 8.5,64" stroke="#000000" stroke-width="2" /><path d="M52.5,66.5 c11.854,-11.212 18,-27.401 18,-51 v-5.0" fill="none" stroke="#000000" stroke-width="2" /><path d="M78,90.5 c5.031,0.36 8.155,0.5 9.5,0.5 c4.375,0 5,-0.673 5,-8 v-54.5 H49.0 v64.0" fill="none" stroke="#000000" stroke-width="2" /><path d="M88.5,67.5 c-5.308,-11.325 -12.608,-21.475 -20.5,-28" fill="none" stroke="#000000" stroke-width="2" /></svg>