<?xml version='1.0' encoding='utf-8'?>
<svg xmlns="http://www.w3.org/2000/svg" height="100px" version="1.0" viewBox="0 0 100 100" width="100px" x="0px" y="0px">
<line fill="none" stroke="#000000" stroke-width="2" x1="4" x2="44.5" y1="18" y2="18" /><line fill="none" stroke="#000000" stroke-width="2" x1="9.5" x2="40.5" y1="63" y2="63" /><line fill="none" stroke="#000000" stroke-width="2" x1="3.5" x2="46.5" y1="75.5" y2="75.5" /><line fill="none" stroke="#000000" stroke-width="2" x1="25" x2="25" y1="94" y2="30.5" /><line fill="none" stroke="#000000" stroke-width="2" x1="46.5" x2="95.5" y1="17" y2="17" /><line fill="none" stroke="#000000" stroke-width="2" x1="58.5" x2="58.5" y1="29" y2="5" /><line fill="none" stroke="#000000" stroke-width="2" x1="82.5" x2="82.5" y1="29" y2="5" /><line fill="none" stroke="#000000" stroke-width="2" x1="56.5" x2="84.5" y1="48" y2="48" /><line fill="none" stroke="#000000" stroke-width="2" x1="53" x2="88" y1="88" y2="88" /><polyline fill="none" points="36,6.5 36,30.5 14,30.5 14,6.5" stroke="#000000" stroke-width="2" /><polyline fill="none" points="41.5,64 41.5,41 8.5,41 8.5,64" stroke="#000000" stroke-width="2" /><polyline fill="none" points="89,94 89,62 52,62 52,94" stroke="#000000" stroke-width="2" /><path d="M96.5,55 c-10.179,-9.224 -18.07,-18.646 -26,-30.8 c-7.929,12.154 -15.82,21.576 -26,30.8" fill="none" stroke="#000000" stroke-width="2" /></svg>