<?xml version='1.0' encoding='utf-8'?>
<svg xmlns="http://www.w3.org/2000/svg" height="100px" version="1.0" viewBox="0 0 100 100" width="100px" x="0px" y="0px">
<line fill="none" stroke="#000000" stroke-width="2" x1="49.5" x2="96" y1="10.5" y2="10.5" /><line fill="none" stroke="#000000" stroke-width="2" x1="54.5" x2="91" y1="57" y2="57" /><line fill="none" stroke="#000000" stroke-width="2" x1="54.5" x2="91" y1="41" y2="41" /><line fill="none" stroke="#000000" stroke-width="2" x1="4" x2="49" y1="35" y2="35" /><line fill="none" stroke="#000000" stroke-width="2" x1="46.5" x2="27" y1="19" y2="19" /><line fill="none" stroke="#000000" stroke-width="2" x1="12.5" x2="12.5" y1="35" y2="10" /><polyline fill="none" points="54.5,73.5 92,73.5 92,25.5 53.5,25.5 53.5,74.5" stroke="#000000" stroke-width="2" /><path d="M47,92.5 c8.147,-3.901 15,-9.159 19,-14" fill="none" stroke="#000000" stroke-width="2" /><path d="M96.5,93 c-4.391,-4.882 -10.4,-10.108 -17,-14.5" fill="none" stroke="#000000" stroke-width="2" /><path d="M71.5,10.5 c-0.84,5.553 -1.835,10.448 -3,15" fill="none" stroke="#000000" stroke-width="2" /><path d="M27,6 v54.0 c0,9.528 -0.406,10 -4,10 c-1.107,0 -3.535,-0.14 -7.5,-0.5" fill="none" stroke="#000000" stroke-width="2" /><path d="M4.5,68 c5.115,-7.641 9.494,-17.845 12,-28" fill="none" stroke="#000000" stroke-width="2" /><path d="M49,64 c-3.59,-8.242 -8.08,-16.554 -13,-24" fill="none" stroke="#000000" stroke-width="2" /><path d="M44,64 c-6.941,14.276 -20.557,24.73 -39.5,29" fill="none" stroke="#000000" stroke-width="2" /></svg>