<?xml version='1.0' encoding='utf-8'?>
<svg xmlns="http://www.w3.org/2000/svg" height="100px" version="1.0" viewBox="0 0 100 100" width="100px" x="0px" y="0px">
<line fill="none" stroke="#000000" stroke-width="2" x1="50" x2="96" y1="10.5" y2="10.5" /><line fill="none" stroke="#000000" stroke-width="2" x1="54.5" x2="91" y1="57" y2="57" /><line fill="none" stroke="#000000" stroke-width="2" x1="54.5" x2="91" y1="41" y2="41" /><line fill="none" stroke="#000000" stroke-width="2" x1="20.5" x2="20.5" y1="45" y2="88" /><line fill="none" stroke="#000000" stroke-width="2" x1="33.5" x2="33.5" y1="45" y2="84.5" /><line fill="none" stroke="#000000" stroke-width="2" x1="9" x2="44" y1="44" y2="44" /><line fill="none" stroke="#000000" stroke-width="2" x1="9" x2="44" y1="27" y2="27" /><polyline fill="none" points="54.5,73.5 92,73.5 92,25.5 53.5,25.5 53.5,74.5" stroke="#000000" stroke-width="2" /><polyline fill="none" points="45,45 45,10.5 8,10.5 8,45" stroke="#000000" stroke-width="2" /><path d="M47,92.5 c8.147,-3.901 15,-9.159 19,-14" fill="none" stroke="#000000" stroke-width="2" /><path d="M96.5,93 c-4.391,-4.882 -10.4,-10.108 -17,-14.5" fill="none" stroke="#000000" stroke-width="2" /><path d="M71.5,10.5 c-0.84,5.553 -1.835,10.448 -3,15" fill="none" stroke="#000000" stroke-width="2" /><path d="M5.5,91 c15.781,-2.904 28.688,-6.513 43,-12" fill="none" stroke="#000000" stroke-width="2" /><path d="M38,74.5 c3.09,-5.115 6.316,-13.237 9,-23.5" fill="none" stroke="#000000" stroke-width="2" /><path d="M15,78 c-2.146,-8.741 -5.306,-17.837 -9,-26" fill="none" stroke="#000000" stroke-width="2" /></svg>