<?xml version='1.0' encoding='utf-8'?>
<svg xmlns="http://www.w3.org/2000/svg" height="100px" version="1.0" viewBox="0 0 100 100" width="100px" x="0px" y="0px">
<line fill="none" stroke="#000000" stroke-width="2" x1="51" x2="96.5" y1="10.5" y2="10.5" /><line fill="none" stroke="#000000" stroke-width="2" x1="56" x2="91.5" y1="57" y2="57" /><line fill="none" stroke="#000000" stroke-width="2" x1="56" x2="91.5" y1="41" y2="41" /><line fill="none" stroke="#000000" stroke-width="2" x1="27.5" x2="27.5" y1="23" y2="5" /><line fill="none" stroke="#000000" stroke-width="2" x1="4.5" x2="49.5" y1="14" y2="14" /><line fill="none" stroke="#000000" stroke-width="2" x1="51" x2="3.5" y1="71" y2="71" /><line fill="none" stroke="#000000" stroke-width="2" x1="10.5" x2="44.5" y1="48.5" y2="48.5" /><line fill="none" stroke="#000000" stroke-width="2" x1="10.5" x2="44.5" y1="36" y2="36" /><polyline fill="none" points="56,73.5 92.5,73.5 92.5,25.5 55,25.5 55,74.5" stroke="#000000" stroke-width="2" /><polyline fill="none" points="10.34,61.5 45.5,61.5 45.5,24 9.5,24 9.5,62.5" stroke="#000000" stroke-width="2" /><path d="M49.5,92.5 c7.165,-3.835 13.354,-9.067 17,-14" fill="none" stroke="#000000" stroke-width="2" /><path d="M97,93 c-4.391,-4.882 -10.4,-10.108 -17,-14.5" fill="none" stroke="#000000" stroke-width="2" /><path d="M72.5,10.5 c-0.84,5.553 -1.835,10.448 -3,15" fill="none" stroke="#000000" stroke-width="2" /><path d="M3,92.5 c8.428,-4.104 15.734,-9.739 20,-15" fill="none" stroke="#000000" stroke-width="2" /><path d="M47,89 c-3.924,-3.841 -9.214,-7.946 -15,-11.5" fill="none" stroke="#000000" stroke-width="2" /></svg>