<?xml version='1.0' encoding='utf-8'?>
<svg xmlns="http://www.w3.org/2000/svg" height="100px" version="1.0" viewBox="0 0 100 100" width="100px" x="0px" y="0px">
<line fill="none" stroke="#000000" stroke-width="2" x1="50" x2="97.5" y1="53" y2="53" /><line fill="none" stroke="#000000" stroke-width="2" x1="52.5" x2="96.5" y1="24" y2="24" /><line fill="none" stroke="#000000" stroke-width="2" x1="86.5" x2="86.5" y1="93" y2="25" /><line fill="none" stroke="#000000" stroke-width="2" x1="29" x2="29" y1="15" y2="24" /><line fill="none" stroke="#000000" stroke-width="2" x1="14" x2="44" y1="41" y2="41" /><polyline fill="none" points="14,58 45,58 45,25 13,25 13,89.5" stroke="#000000" stroke-width="2" /><path d="M63,20.5 c-3.177,-5.692 -6.658,-11.258 -10,-16" fill="none" stroke="#000000" stroke-width="2" /><path d="M81,24 c3.777,-6.426 7.357,-13.44 10,-19.5" fill="none" stroke="#000000" stroke-width="2" /><path d="M43,93 c14.264,-13.278 18,-23.14 18,-59.5 V25.0" fill="none" stroke="#000000" stroke-width="2" /><path d="M5.5,91.5 c13.217,-3.477 24.018,-7.87 36,-14.5" fill="none" stroke="#000000" stroke-width="2" /><path d="M50.5,22 c-8.234,-4.952 -14.957,-10.044 -21.5,-16.5 c-7.432,8.159 -15.351,15.136 -24.5,21.5" fill="none" stroke="#000000" stroke-width="2" /><path d="M49,87.5 c-5,-7.426 -12.082,-17.109 -18,-24.5" fill="none" stroke="#000000" stroke-width="2" /></svg>