<?xml version='1.0' encoding='utf-8'?>
<svg xmlns="http://www.w3.org/2000/svg" height="100px" version="1.0" viewBox="0 0 100 100" width="100px" x="0px" y="0px">
<line fill="none" stroke="#000000" stroke-width="2" x1="28" x2="28" y1="11.5" y2="56" /><line fill="none" stroke="#000000" stroke-width="2" x1="11.5" x2="45.49" y1="41" y2="41" /><line fill="none" stroke="#000000" stroke-width="2" x1="11.5" x2="45.49" y1="25.5" y2="25.5" /><line fill="none" stroke="#000000" stroke-width="2" x1="76" x2="56" y1="66" y2="66" /><polyline fill="none" points="55,75 55,32.5 77,32.5 77,67" stroke="#000000" stroke-width="2" /><path d="M40,78 c-1.045,-4.762 -2.381,-9.932 -4,-15.5" fill="none" stroke="#000000" stroke-width="2" /><path d="M30,82.25 c-0.666,-5.847 -1.643,-12.115 -3,-19" fill="none" stroke="#000000" stroke-width="2" /><path d="M20,86.5 c-0.287,-6.932 -0.904,-14.298 -2,-22.5" fill="none" stroke="#000000" stroke-width="2" /><path d="M6,89.5 c2.229,-7.541 3.926,-16.133 5,-26" fill="none" stroke="#000000" stroke-width="2" /><path d="M47,10.5 h-36.5 V57.0 h36.0 c0,30.181 -2.043,34.5 -5,34.5 c-2.813,0 -6.941,-0.3 -12,-1" fill="none" stroke="#000000" stroke-width="2" /><path d="M44.5,36 c6.244,-8.369 11.622,-20.245 14,-31" fill="none" stroke="#000000" stroke-width="2" /><path d="M54.5,18 h38.0 c-1.855,66.43 -4.27,72.5 -9.5,72.5 c-4.365,0 -11.515,-0.34 -19,-1" fill="none" stroke="#000000" stroke-width="2" /></svg>