<?xml version='1.0' encoding='utf-8'?>
<svg xmlns="http://www.w3.org/2000/svg" height="100px" version="1.0" viewBox="0 0 100 100" width="100px" x="0px" y="0px">
<line fill="none" stroke="#000000" stroke-width="2" x1="57.5" x2="91" y1="56" y2="56" /><line fill="none" stroke="#000000" stroke-width="2" x1="26" x2="26" y1="11.5" y2="56" /><line fill="none" stroke="#000000" stroke-width="2" x1="11" x2="41" y1="41" y2="41" /><line fill="none" stroke="#000000" stroke-width="2" x1="11" x2="41" y1="25.5" y2="25.5" /><path d="M44.5,70 c7.64,-5.894 15.734,-16.695 18.5,-24.5" fill="none" stroke="#000000" stroke-width="2" /><path d="M90.099,56.567 c-8.329,17.34 -25.454,30.349 -47.599,35.433" fill="none" stroke="#000000" stroke-width="2" /><path d="M96.5,92 c-16.98,-6.995 -31.811,-19.355 -40.5,-34" fill="none" stroke="#000000" stroke-width="2" /><path d="M76.5,24 v19.0 c0,4.302 0.208,4.5 9,4.5 c8.393,0 8.584,-0.151 9.5,-12" fill="none" stroke="#000000" stroke-width="2" /><path d="M51,25.5 c4.457,-6.438 8.846,-13.655 12.5,-20.5" fill="none" stroke="#000000" stroke-width="2" /><path d="M95,29 c-4.379,-6.704 -10.359,-15.208 -15.5,-22" fill="none" stroke="#000000" stroke-width="2" /><path d="M44,26 c14.787,-0.391 31.115,-1.651 46.5,-3.5" fill="none" stroke="#000000" stroke-width="2" /><path d="M43,51.5 c12.321,-4.535 19.857,-14.093 20.5,-26.5" fill="none" stroke="#000000" stroke-width="2" /><path d="M36,78 c-1.045,-4.762 -2.381,-9.932 -4,-15.5" fill="none" stroke="#000000" stroke-width="2" /><path d="M27.25,82.25 c-0.666,-5.847 -1.643,-12.115 -3,-19" fill="none" stroke="#000000" stroke-width="2" /><path d="M18.5,86.5 c-0.287,-6.932 -0.904,-14.298 -2,-22.5" fill="none" stroke="#000000" stroke-width="2" /><path d="M5.5,89.5 c2.229,-7.541 3.926,-16.133 5,-26" fill="none" stroke="#000000" stroke-width="2" /><path d="M43.5,10.5 H10.0 v46.5 h31.0 c0,30.181 -2.043,34.5 -5,34.5 c-2.813,0 -6.941,-0.3 -12,-1" fill="none" stroke="#000000" stroke-width="2" /></svg>