<?xml version='1.0' encoding='utf-8'?>
<svg xmlns="http://www.w3.org/2000/svg" height="100px" version="1.0" viewBox="0 0 100 100" width="100px" x="0px" y="0px">
<line fill="none" stroke="#000000" stroke-width="2" x1="25" x2="25" y1="11.5" y2="56" /><line fill="none" stroke="#000000" stroke-width="2" x1="10" x2="39" y1="41" y2="41" /><line fill="none" stroke="#000000" stroke-width="2" x1="10" x2="39" y1="25.5" y2="25.5" /><line fill="none" stroke="#000000" stroke-width="2" x1="43.5" x2="96" y1="11" y2="11" /><line fill="none" stroke="#000000" stroke-width="2" x1="65" x2="65" y1="49.5" y2="91" /><line fill="none" stroke="#000000" stroke-width="2" x1="78.5" x2="78.5" y1="49.5" y2="91" /><line fill="none" stroke="#000000" stroke-width="2" x1="52.5" x2="91" y1="66.5" y2="66.5" /><path d="M35,78 c-1.045,-4.762 -2.381,-9.932 -4,-15.5" fill="none" stroke="#000000" stroke-width="2" /><path d="M26.25,82.25 c-0.666,-5.847 -1.643,-12.115 -3,-19" fill="none" stroke="#000000" stroke-width="2" /><path d="M17.5,86.5 c-0.287,-6.932 -0.904,-14.298 -2,-22.5" fill="none" stroke="#000000" stroke-width="2" /><path d="M4.5,89.5 c2.229,-7.541 3.926,-16.133 5,-26" fill="none" stroke="#000000" stroke-width="2" /><path d="M40,10.5 h-31.0 V57.0 h31.0 c0,30.181 -2.043,34.5 -5,34.5 c-2.813,0 -6.941,-0.3 -12,-1" fill="none" stroke="#000000" stroke-width="2" /><path d="M42.5,89 c3.43,-15.446 5,-29.47 5,-49 v-19.0 h43.5 v17.0 h-42.5" fill="none" stroke="#000000" stroke-width="2" /><path d="M83,91.25 c2.707,0.201 4.116,0.25 5.5,0.25 c3.164,0 3.5,-0.333 3.5,-4 v-39.0 h-40.5 V93.0" fill="none" stroke="#000000" stroke-width="2" /></svg>