<?xml version='1.0' encoding='utf-8'?>
<svg xmlns="http://www.w3.org/2000/svg" height="100px" version="1.0" viewBox="0 0 100 100" width="100px" x="0px" y="0px">
<line fill="none" stroke="#000000" stroke-width="2" x1="25.5" x2="25.5" y1="11.5" y2="56" /><line fill="none" stroke="#000000" stroke-width="2" x1="10.5" x2="39.5" y1="41" y2="41" /><line fill="none" stroke="#000000" stroke-width="2" x1="10.5" x2="39.5" y1="25.5" y2="25.5" /><line fill="none" stroke="#000000" stroke-width="2" x1="96" x2="43" y1="75.5" y2="75.5" /><line fill="none" stroke="#000000" stroke-width="2" x1="69" x2="69" y1="24.5" y2="94" /><line fill="none" stroke="#000000" stroke-width="2" x1="47" x2="91" y1="41.5" y2="41.5" /><polyline fill="none" points="47,60.5 92,60.5 92,23.5 46,23.5 46,61.5" stroke="#000000" stroke-width="2" /><path d="M35.5,78 c-1.045,-4.762 -2.381,-9.932 -4,-15.5" fill="none" stroke="#000000" stroke-width="2" /><path d="M26.75,82.25 c-0.666,-5.847 -1.643,-12.115 -3,-19" fill="none" stroke="#000000" stroke-width="2" /><path d="M18,86.5 c-0.287,-6.932 -0.904,-14.298 -2,-22.5" fill="none" stroke="#000000" stroke-width="2" /><path d="M5,89.5 c2.229,-7.541 3.926,-16.133 5,-26" fill="none" stroke="#000000" stroke-width="2" /><path d="M40.5,10.5 h-31.0 v46.5 h31.0 c0,30.181 -2.043,34.5 -5,34.5 c-2.813,0 -6.941,-0.3 -12,-1" fill="none" stroke="#000000" stroke-width="2" /><path d="M54.5,23.5 c-2.787,-6.308 -5.894,-12.341 -9,-17.5" fill="none" stroke="#000000" stroke-width="2" /><path d="M72,23.5 c-2.776,-6.672 -5.895,-13.046 -9,-18.5" fill="none" stroke="#000000" stroke-width="2" /><path d="M81.5,23.5 c4.311,-6.196 8.073,-12.56 11,-18.5" fill="none" stroke="#000000" stroke-width="2" /></svg>