<?xml version='1.0' encoding='utf-8'?>
<svg xmlns="http://www.w3.org/2000/svg" height="100px" version="1.0" viewBox="0 0 100 100" width="100px" x="0px" y="0px">
<line fill="none" stroke="#000000" stroke-width="2" x1="25.5" x2="25.5" y1="11.5" y2="56" /><line fill="none" stroke="#000000" stroke-width="2" x1="10.5" x2="39.5" y1="41" y2="41" /><line fill="none" stroke="#000000" stroke-width="2" x1="10.5" x2="39.5" y1="25.5" y2="25.5" /><line fill="none" stroke="#000000" stroke-width="2" x1="95.5" x2="43" y1="64" y2="64" /><line fill="none" stroke="#000000" stroke-width="2" x1="91.5" x2="46.5" y1="52" y2="52" /><line fill="none" stroke="#000000" stroke-width="2" x1="95" x2="43" y1="11" y2="11" /><line fill="none" stroke="#000000" stroke-width="2" x1="76.5" x2="76.5" y1="12" y2="40" /><line fill="none" stroke="#000000" stroke-width="2" x1="61" x2="61" y1="12" y2="40" /><polyline fill="none" points="45.5,42 45.5,23 92,23 92,41 46.5,41" stroke="#000000" stroke-width="2" /><path d="M35.5,78 c-1.045,-4.762 -2.381,-9.932 -4,-15.5" fill="none" stroke="#000000" stroke-width="2" /><path d="M26.75,82.25 c-0.666,-5.847 -1.643,-12.115 -3,-19" fill="none" stroke="#000000" stroke-width="2" /><path d="M18,86.5 c-0.287,-6.932 -0.904,-14.298 -2,-22.5" fill="none" stroke="#000000" stroke-width="2" /><path d="M5,89.5 c2.229,-7.541 3.926,-16.133 5,-26" fill="none" stroke="#000000" stroke-width="2" /><path d="M40.5,10.5 h-31.0 v46.5 h30.0 c0,30.181 -2.043,34.5 -5,34.5 c-2.813,0 -6.941,-0.3 -12,-1" fill="none" stroke="#000000" stroke-width="2" /><path d="M70,64 v23.5 c0,3.546 -0.578,4 -5.5,4 c-2.209,0 -5.418,-0.136 -10,-0.5" fill="none" stroke="#000000" stroke-width="2" /><path d="M41.5,89 c6.426,-5.088 11.809,-11.832 15,-18.5" fill="none" stroke="#000000" stroke-width="2" /><path d="M94.5,89.5 c-3.942,-6.162 -9.306,-12.97 -15,-19" fill="none" stroke="#000000" stroke-width="2" /></svg>