<?xml version='1.0' encoding='utf-8'?>
<svg xmlns="http://www.w3.org/2000/svg" height="100px" version="1.0" viewBox="0 0 100 100" width="100px" x="0px" y="0px">
<line fill="none" stroke="#000000" stroke-width="2" x1="25.5" x2="25.5" y1="11.5" y2="56" /><line fill="none" stroke="#000000" stroke-width="2" x1="10.5" x2="39.5" y1="41" y2="41" /><line fill="none" stroke="#000000" stroke-width="2" x1="10.5" x2="39.5" y1="25.5" y2="25.5" /><line fill="none" stroke="#000000" stroke-width="2" x1="79.5" x2="57.5" y1="80" y2="80" /><line fill="none" stroke="#000000" stroke-width="2" x1="96" x2="42.5" y1="24.5" y2="24.5" /><polyline fill="none" points="57.5,86 57.5,65 80.5,65 80.5,81" stroke="#000000" stroke-width="2" /><polyline fill="none" points="55.5,49 82,49 82,35 54.5,35 54.5,50" stroke="#000000" stroke-width="2" /><path d="M35.5,78 c-1.045,-4.762 -2.381,-9.932 -4,-15.5" fill="none" stroke="#000000" stroke-width="2" /><path d="M26.75,82.25 c-0.666,-5.847 -1.643,-12.115 -3,-19" fill="none" stroke="#000000" stroke-width="2" /><path d="M18,86.5 c-0.287,-6.932 -0.904,-14.298 -2,-22.5" fill="none" stroke="#000000" stroke-width="2" /><path d="M5,89.5 c2.229,-7.541 3.926,-16.133 5,-26" fill="none" stroke="#000000" stroke-width="2" /><path d="M40.5,10.5 h-31.0 v46.5 h30.0 c0,30.181 -2.043,34.5 -5,34.5 c-2.813,0 -6.941,-0.3 -12,-1" fill="none" stroke="#000000" stroke-width="2" /><path d="M77.5,90 c5.247,0.363 8.598,0.5 10,0.5 c4.568,0 5,-0.489 5,-8 V57.0 h-47.0 v35.0" fill="none" stroke="#000000" stroke-width="2" /><path d="M44.5,13 c16.391,0 32.701,-1.754 47.5,-5" fill="none" stroke="#000000" stroke-width="2" /><path d="M96,44 c-8.184,-3.862 -16.915,-11.368 -22.5,-19.5" fill="none" stroke="#000000" stroke-width="2" /><path d="M40,45 c13.885,-7.007 24.143,-20.179 26.5,-33" fill="none" stroke="#000000" stroke-width="2" /></svg>