<?xml version='1.0' encoding='utf-8'?>
<svg xmlns="http://www.w3.org/2000/svg" height="100px" version="1.0" viewBox="0 0 100 100" width="100px" x="0px" y="0px">
<line fill="none" stroke="#000000" stroke-width="2" x1="6.5" x2="51" y1="11" y2="11" /><line fill="none" stroke="#000000" stroke-width="2" x1="20.5" x2="20.5" y1="16.5" y2="4.5" /><line fill="none" stroke="#000000" stroke-width="2" x1="37.5" x2="37.5" y1="16.5" y2="4.5" /><line fill="none" stroke="#000000" stroke-width="2" x1="58" x2="93.5" y1="13" y2="13" /><line fill="none" stroke="#000000" stroke-width="2" x1="49" x2="49" y1="46.5" y2="71.5" /><line fill="none" stroke="#000000" stroke-width="2" x1="16" x2="82.5" y1="63.5" y2="63.5" /><line fill="none" stroke="#000000" stroke-width="2" x1="16" x2="82.5" y1="54.5" y2="54.5" /><polyline fill="none" points="15,40 15,25.5 36.5,25.5 36.5,35.5 16,35.5" stroke="#000000" stroke-width="2" /><path d="M5,30.5 c5.436,-4.915 9.708,-11.155 11.5,-16.5" fill="none" stroke="#000000" stroke-width="2" /><path d="M14,19.5 h33.0 c-1.167,20.197 -1.975,21 -9,21 c-4.453,0 -2.056,0 -7.5,0" fill="none" stroke="#000000" stroke-width="2" /><path d="M49.5,40.5 c18.287,-3.974 31.109,-13.637 37.5,-27.5" fill="none" stroke="#000000" stroke-width="2" /><path d="M93,41.5 c-14.4,-4.7 -25.225,-12.735 -33,-24.5" fill="none" stroke="#000000" stroke-width="2" /><path d="M50,24.5 c5.118,-5.435 9.532,-12.767 12,-20" fill="none" stroke="#000000" stroke-width="2" /><path d="M76,86.5 c-2.305,-3.093 -4.893,-6.352 -8,-10" fill="none" stroke="#000000" stroke-width="2" /><path d="M55,89.25 c-1.569,-3.783 -3.503,-7.771 -6,-12.25" fill="none" stroke="#000000" stroke-width="2" /><path d="M34,92 c-0.834,-4.473 -2.113,-9.189 -4,-14.5" fill="none" stroke="#000000" stroke-width="2" /><path d="M6,93 c3.813,-4.754 7.045,-9.892 10,-16" fill="none" stroke="#000000" stroke-width="2" /><path d="M85.5,45.5 H16.0 v27.0 h73.0 c0,14.591 -3.664,19.5 -10.5,19.5 c-3.191,0 -7.764,-0.136 -13.5,-0.5" fill="none" stroke="#000000" stroke-width="2" /></svg>