<?xml version='1.0' encoding='utf-8'?>
<svg xmlns="http://www.w3.org/2000/svg" height="100px" version="1.0" viewBox="0 0 100 100" width="100px" x="0px" y="0px">
<line fill="none" stroke="#000000" stroke-width="2" x1="25.5" x2="25.5" y1="11.5" y2="56" /><line fill="none" stroke="#000000" stroke-width="2" x1="10.5" x2="39.5" y1="41" y2="41" /><line fill="none" stroke="#000000" stroke-width="2" x1="10.5" x2="39.5" y1="25.5" y2="25.5" /><line fill="none" stroke="#000000" stroke-width="2" x1="76.5" x2="76.5" y1="26" y2="10.5" /><line fill="none" stroke="#000000" stroke-width="2" x1="60.5" x2="60.5" y1="26" y2="10.5" /><line fill="none" stroke="#000000" stroke-width="2" x1="44" x2="96" y1="67" y2="67" /><line fill="none" stroke="#000000" stroke-width="2" x1="69.5" x2="69.5" y1="67" y2="94.5" /><line fill="none" stroke="#000000" stroke-width="2" x1="45" x2="94" y1="79.5" y2="79.5" /><line fill="none" stroke="#000000" stroke-width="2" x1="43" x2="96" y1="50" y2="50" /><line fill="none" stroke="#000000" stroke-width="2" x1="46" x2="93" y1="38.5" y2="38.5" /><line fill="none" stroke="#000000" stroke-width="2" x1="69.5" x2="69.5" y1="50" y2="28" /><polyline fill="none" points="45.5,27 92.5,27 92.5,9.5 44.5,9.5 44.5,28" stroke="#000000" stroke-width="2" /><path d="M35.5,78 c-1.045,-4.762 -2.381,-9.932 -4,-15.5" fill="none" stroke="#000000" stroke-width="2" /><path d="M26.75,82.25 c-0.666,-5.847 -1.643,-12.115 -3,-19" fill="none" stroke="#000000" stroke-width="2" /><path d="M18,86.5 c-0.287,-6.932 -0.904,-14.298 -2,-22.5" fill="none" stroke="#000000" stroke-width="2" /><path d="M5,89.5 c2.229,-7.541 3.926,-16.133 5,-26" fill="none" stroke="#000000" stroke-width="2" /><path d="M40.5,10.5 h-31.0 V57.0 h31.0 c0,30.181 -2.043,34.5 -5,34.5 c-2.813,0 -6.941,-0.3 -12,-1" fill="none" stroke="#000000" stroke-width="2" /><path d="M76.5,67 c4.291,-5.306 7.883,-10.847 11,-17" fill="none" stroke="#000000" stroke-width="2" /><path d="M60,67 c-2.379,-5.605 -5.338,-11.528 -8.5,-17" fill="none" stroke="#000000" stroke-width="2" /></svg>