<?xml version='1.0' encoding='utf-8'?>
<svg xmlns="http://www.w3.org/2000/svg" height="100px" version="1.0" viewBox="0 0 100 100" width="100px" x="0px" y="0px">
<polyline fill="none" points="12,8 12,50.5 88,50.5 88,8" stroke="#000000" stroke-width="2" /><path d="M17,43 c24.856,-7.622 46.396,-21.414 58,-36" fill="none" stroke="#000000" stroke-width="2" /><path d="M21.5,13 c18.543,6.889 35.271,15.519 58,30" fill="none" stroke="#000000" stroke-width="2" /><path d="M16,55.5 V84.0 c0,7.161 0.449,7.5 35,7.5 c34.678,0 34.916,-0.201 36.5,-18.5" fill="none" stroke="#000000" stroke-width="2" /><path d="M16,72 c23.909,-2.685 45.602,-6.415 70,-12" fill="none" stroke="#000000" stroke-width="2" /><path d="M54.5,18 c-4.621,-4.523 -9.461,-8.645 -14,-12" fill="none" stroke="#000000" stroke-width="2" /><path d="M31,32 c-4.621,-4.523 -9.461,-8.645 -14,-12" fill="none" stroke="#000000" stroke-width="2" /><path d="M83,33 c-4.621,-4.523 -9.461,-8.645 -14,-12" fill="none" stroke="#000000" stroke-width="2" /><path d="M59,47 c-4.621,-4.523 -9.461,-8.645 -14,-12" fill="none" stroke="#000000" stroke-width="2" /></svg>