<?xml version='1.0' encoding='utf-8'?>
<svg xmlns="http://www.w3.org/2000/svg" height="100px" version="1.0" viewBox="0 0 100 100" width="100px" x="0px" y="0px">
<line fill="none" stroke="#000000" stroke-width="2" x1="21" x2="21" y1="40" y2="4" /><line fill="none" stroke="#000000" stroke-width="2" x1="33.5" x2="6" y1="13" y2="13" /><line fill="none" stroke="#000000" stroke-width="2" x1="50" x2="50" y1="11" y2="38.5" /><line fill="none" stroke="#000000" stroke-width="2" x1="63.5" x2="40" y1="11" y2="11" /><line fill="none" stroke="#000000" stroke-width="2" x1="65.5" x2="34.5" y1="23" y2="23" /><line fill="none" stroke="#000000" stroke-width="2" x1="79" x2="79" y1="40" y2="4" /><line fill="none" stroke="#000000" stroke-width="2" x1="66.5" x2="94" y1="13" y2="13" /><polyline fill="none" points="37,27.5 37,38.5 63,38.5 63,27.5" stroke="#000000" stroke-width="2" /><polyline fill="none" points="13,51 13,71 53,71 53,51" stroke="#000000" stroke-width="2" /><polyline fill="none" points="93.5,60.5 93.5,44.5 6.5,44.5 6.5,60.5" stroke="#000000" stroke-width="2" /><path d="M4.5,37.5 c7.575,-7.97 12.826,-16.278 16,-25" fill="none" stroke="#000000" stroke-width="2" /><path d="M66,32 c5.801,-6.218 10.087,-12.69 13,-19.5" fill="none" stroke="#000000" stroke-width="2" /><path d="M33,31 c-3.494,-6.139 -7.797,-12.534 -12.5,-18.5" fill="none" stroke="#000000" stroke-width="2" /><path d="M35,19 c3.383,-4.194 6.168,-9.413 8,-15" fill="none" stroke="#000000" stroke-width="2" /><path d="M15.5,66.5 c13.07,-4.023 24.265,-11.409 30.5,-19" fill="none" stroke="#000000" stroke-width="2" /><path d="M18,51 c9.752,3.674 18.549,8.276 30.5,16" fill="none" stroke="#000000" stroke-width="2" /><path d="M12,74 v13.0 c0,4.875 1.689,6 20,6 c20.854,0 21.496,-0.56 22.5,-11" fill="none" stroke="#000000" stroke-width="2" /><path d="M12,83 c14.212,-1.433 26.599,-3.564 41,-7" fill="none" stroke="#000000" stroke-width="2" /><path d="M34.5,53.5 c-2.311,-2.451 -4.73,-4.682 -7,-6.5" fill="none" stroke="#000000" stroke-width="2" /><path d="M38,69.5 c-2.311,-2.451 -4.73,-4.682 -7,-6.5" fill="none" stroke="#000000" stroke-width="2" /><path d="M23,61 c-2.311,-2.451 -4.73,-4.682 -7,-6.5" fill="none" stroke="#000000" stroke-width="2" /><path d="M50,61.5 c-2.311,-2.451 -4.73,-4.682 -7,-6.5" fill="none" stroke="#000000" stroke-width="2" /><path d="M58.5,58.5 c12.25,-2.612 22.394,-6.28 29,-10" fill="none" stroke="#000000" stroke-width="2" /><path d="M58,75 c13.391,-2.806 24.389,-7.095 32,-12" fill="none" stroke="#000000" stroke-width="2" /><path d="M57.5,92.5 c15.164,-3.162 25.713,-7.609 35,-14" fill="none" stroke="#000000" stroke-width="2" /><path d="M95.5,37.5 c-7.575,-7.97 -12.826,-16.278 -16,-25" fill="none" stroke="#000000" stroke-width="2" /></svg>