<?xml version='1.0' encoding='utf-8'?>
<svg xmlns="http://www.w3.org/2000/svg" height="100px" version="1.0" viewBox="0 0 100 100" width="100px" x="0px" y="0px">
<line fill="none" stroke="#000000" stroke-width="2" x1="26.5" x2="26.5" y1="16.5" y2="51.5" /><line fill="none" stroke="#000000" stroke-width="2" x1="9.5" x2="43.5" y1="33.5" y2="33.5" /><line fill="none" stroke="#000000" stroke-width="2" x1="71.5" x2="71.5" y1="82.5" y2="4.5" /><line fill="none" stroke="#000000" stroke-width="2" x1="94.5" x2="50" y1="38" y2="38" /><line fill="none" stroke="#000000" stroke-width="2" x1="93.5" x2="51" y1="17.5" y2="17.5" /><polyline fill="none" points="9.5,52.5 44.5,52.5 44.5,15.5 8.5,15.5 8.5,53.5" stroke="#000000" stroke-width="2" /><path d="M31,53.5 v30.0 c0,5.964 1.605,7 22.5,7 h12.0 c26.816,0 27.143,-0.333 28.5,-17.5" fill="none" stroke="#000000" stroke-width="2" /><path d="M5,92 c9.572,-7.255 16,-21.582 16,-39.5" fill="none" stroke="#000000" stroke-width="2" /><path d="M20.5,15.5 c3.021,-3.953 5.887,-8.271 8,-12" fill="none" stroke="#000000" stroke-width="2" /><path d="M53,79.5 c-1.828,-5.17 -4.519,-11.548 -7,-16.5" fill="none" stroke="#000000" stroke-width="2" /><path d="M31,78 c6.12,-0.716 13.037,-2.078 20,-4" fill="none" stroke="#000000" stroke-width="2" /><path d="M35,77.5 c2.352,-5.835 4.707,-13.357 6.5,-21" fill="none" stroke="#000000" stroke-width="2" /><path d="M95.5,67 c-10.985,-9.391 -18.256,-18.659 -23,-29" fill="none" stroke="#000000" stroke-width="2" /><path d="M50.5,64 c9.554,-8.39 15.884,-16.751 20,-26" fill="none" stroke="#000000" stroke-width="2" /></svg>