<?xml version='1.0' encoding='utf-8'?>
<svg xmlns="http://www.w3.org/2000/svg" height="100px" version="1.0" viewBox="0 0 100 100" width="100px" x="0px" y="0px">
<line fill="none" stroke="#000000" stroke-width="2" x1="77.5" x2="77.5" y1="53.5" y2="40.5" /><line fill="none" stroke="#000000" stroke-width="2" x1="59.5" x2="59.5" y1="53.5" y2="40.5" /><line fill="none" stroke="#000000" stroke-width="2" x1="46" x2="89.5" y1="21" y2="21" /><line fill="none" stroke="#000000" stroke-width="2" x1="42" x2="92.5" y1="62.5" y2="62.5" /><line fill="none" stroke="#000000" stroke-width="2" x1="14.5" x2="29" y1="11" y2="11" /><line fill="none" stroke="#000000" stroke-width="2" x1="9" x2="35" y1="45" y2="45" /><line fill="none" stroke="#000000" stroke-width="2" x1="22" x2="22" y1="27" y2="64" /><polyline fill="none" points="42.5,54.5 95.5,54.5 95.5,39.5 41.5,39.5 41.5,55.5" stroke="#000000" stroke-width="2" /><polyline fill="none" points="46,32 90.5,32 90.5,10 45,10 45,33" stroke="#000000" stroke-width="2" /><polyline fill="none" points="8,66 8,26 36,26 36,65 9,65" stroke="#000000" stroke-width="2" /><path d="M38,91 c25.566,-5.119 44.365,-15.797 53.704,-28.104" fill="none" stroke="#000000" stroke-width="2" /><path d="M96.5,91 c-21.705,-4.211 -37.813,-12.618 -49,-25" fill="none" stroke="#000000" stroke-width="2" /><path d="M21.5,26 c2.311,-4.407 4.655,-9.57 6.57,-14.37" fill="none" stroke="#000000" stroke-width="2" /><path d="M3.5,32.5 c5.917,-9.088 10.051,-18.157 13.5,-30" fill="none" stroke="#000000" stroke-width="2" /><path d="M38.5,87.5 c-0.941,-5.596 -2.322,-12.039 -4,-18.5" fill="none" stroke="#000000" stroke-width="2" /><path d="M28,90.5 c-0.521,-6.352 -1.447,-13.318 -2.75,-20.75" fill="none" stroke="#000000" stroke-width="2" /><path d="M17.5,93.5 c-0.103,-7.107 -0.572,-14.597 -1.5,-23" fill="none" stroke="#000000" stroke-width="2" /><path d="M4,94.5 c2.512,-7.089 4.387,-15.212 5.5,-24.5" fill="none" stroke="#000000" stroke-width="2" /></svg>