<?xml version='1.0' encoding='utf-8'?>
<svg xmlns="http://www.w3.org/2000/svg" height="100px" version="1.0" viewBox="0 0 100 100" width="100px" x="0px" y="0px">
<line fill="none" stroke="#000000" stroke-width="2" x1="14.5" x2="28.5" y1="11" y2="11" /><line fill="none" stroke="#000000" stroke-width="2" x1="9" x2="34" y1="45" y2="45" /><line fill="none" stroke="#000000" stroke-width="2" x1="21.5" x2="21.5" y1="27" y2="64" /><line fill="none" stroke="#000000" stroke-width="2" x1="95" x2="39" y1="64" y2="64" /><line fill="none" stroke="#000000" stroke-width="2" x1="91" x2="42.5" y1="52" y2="52" /><line fill="none" stroke="#000000" stroke-width="2" x1="95" x2="37" y1="11" y2="11" /><line fill="none" stroke="#000000" stroke-width="2" x1="74.5" x2="74.5" y1="12" y2="40" /><line fill="none" stroke="#000000" stroke-width="2" x1="57.5" x2="57.5" y1="12" y2="40" /><polyline fill="none" points="8,66 8,26 35,26 35,65 9,65" stroke="#000000" stroke-width="2" /><polyline fill="none" points="40.5,42 40.5,23 91.5,23 91.5,41 41.5,41" stroke="#000000" stroke-width="2" /><path d="M21,26 c2.311,-4.407 4.655,-9.57 6.57,-14.37" fill="none" stroke="#000000" stroke-width="2" /><path d="M3.5,32.5 c5.917,-9.088 10.051,-18.157 13.5,-30" fill="none" stroke="#000000" stroke-width="2" /><path d="M38.5,81.5 c-0.941,-3.78 -2.322,-8.134 -4,-12.5" fill="none" stroke="#000000" stroke-width="2" /><path d="M28,90.5 c-0.521,-6.352 -1.447,-13.317 -2.75,-20.75" fill="none" stroke="#000000" stroke-width="2" /><path d="M17.5,93.5 c-0.103,-7.107 -0.572,-14.597 -1.5,-23" fill="none" stroke="#000000" stroke-width="2" /><path d="M4,94.5 c2.512,-7.089 4.387,-15.212 5.5,-24.5" fill="none" stroke="#000000" stroke-width="2" /><path d="M67.5,64 v23.5 c0,3.546 -0.578,4 -5.5,4 c-2.209,0 -5.418,-0.136 -10,-0.5" fill="none" stroke="#000000" stroke-width="2" /><path d="M36,89 c6.854,-5.088 12.596,-11.832 16,-18.5" fill="none" stroke="#000000" stroke-width="2" /><path d="M94.5,89.5 c-4.205,-6.162 -9.926,-12.97 -16,-19" fill="none" stroke="#000000" stroke-width="2" /></svg>