<?xml version='1.0' encoding='utf-8'?>
<svg xmlns="http://www.w3.org/2000/svg" height="100px" version="1.0" viewBox="0 0 100 100" width="100px" x="0px" y="0px">
<line fill="none" stroke="#000000" stroke-width="2" x1="62" x2="62" y1="39" y2="61" /><line fill="none" stroke="#000000" stroke-width="2" x1="37.5" x2="37.5" y1="39" y2="61" /><line fill="none" stroke="#000000" stroke-width="2" x1="50" x2="50" y1="38" y2="30.5" /><line fill="none" stroke="#000000" stroke-width="2" x1="27.5" x2="55" y1="73.5" y2="73.5" /><line fill="none" stroke="#000000" stroke-width="2" x1="27.5" x2="27.5" y1="90.5" y2="65" /><line fill="none" stroke="#000000" stroke-width="2" x1="53" x2="91" y1="10" y2="10" /><line fill="none" stroke="#000000" stroke-width="2" x1="47" x2="9" y1="10" y2="10" /><polyline fill="none" points="13,62 86.5,62 86.5,48 13,48" stroke="#000000" stroke-width="2" /><polyline fill="none" points="12,32 12,18 44,18 44,32" stroke="#000000" stroke-width="2" /><polyline fill="none" points="88,32 88,18 56,18 56,32" stroke="#000000" stroke-width="2" /><path d="M4,93 c5.107,-7.449 9,-21.208 9,-33 v-22.0 h78.0" fill="none" stroke="#000000" stroke-width="2" /><path d="M62,65 v22.5 c0,3.363 0.182,3.5 13.5,3.5 c16.114,0 16.303,-0.13 18,-12" fill="none" stroke="#000000" stroke-width="2" /><path d="M62,75.5 c10.826,-1.729 20.304,-4.032 31,-7.5" fill="none" stroke="#000000" stroke-width="2" /><path d="M12.5,92 c14.828,-1.322 28.18,-3.166 43.5,-6" fill="none" stroke="#000000" stroke-width="2" /><path d="M32,31.5 c-2.549,-3.556 -5.327,-7.034 -8,-10" fill="none" stroke="#000000" stroke-width="2" /><path d="M76,31.5 c-2.549,-3.556 -5.327,-7.034 -8,-10" fill="none" stroke="#000000" stroke-width="2" /></svg>