<?xml version='1.0' encoding='utf-8'?>
<svg xmlns="http://www.w3.org/2000/svg" height="100px" version="1.0" viewBox="0 0 100 100" width="100px" x="0px" y="0px">
<line fill="none" stroke="#000000" stroke-width="2" x1="5.5" x2="49.5" y1="34" y2="34" /><line fill="none" stroke="#000000" stroke-width="2" x1="7" x2="49" y1="14.5" y2="14.5" /><line fill="none" stroke="#000000" stroke-width="2" x1="28" x2="28" y1="14.5" y2="3.5" /><line fill="none" stroke="#000000" stroke-width="2" x1="55" x2="91" y1="52" y2="52" /><line fill="none" stroke="#000000" stroke-width="2" x1="55" x2="91" y1="64.5" y2="64.5" /><line fill="none" stroke="#000000" stroke-width="2" x1="55" x2="91" y1="77" y2="77" /><line fill="none" stroke="#000000" stroke-width="2" x1="93" x2="55" y1="14.5" y2="14.5" /><line fill="none" stroke="#000000" stroke-width="2" x1="11.5" x2="44" y1="72" y2="72" /><line fill="none" stroke="#000000" stroke-width="2" x1="11.5" x2="44" y1="58" y2="58" /><path d="M35,34 c2.904,-5.525 5.314,-12.15 7,-19.5" fill="none" stroke="#000000" stroke-width="2" /><path d="M21,34 c-2.053,-6.543 -4.374,-13.032 -7,-19.5" fill="none" stroke="#000000" stroke-width="2" /><path d="M95.5,77.5 c-1.195,13.67 -1.635,14 -22,14 c-18.258,0 -18.5,-0.234 -18.5,-8 v-44.0 h36.0 V27.0 h-36.0 v-23.0" fill="none" stroke="#000000" stroke-width="2" /><path d="M10.5,92 V44.0 h34.5 v41.96 c0,4.177 -0.359,4.54 -6.5,4.54 c-1.868,0 -4.805,-0.126 -10.5,-0.5" fill="none" stroke="#000000" stroke-width="2" /></svg>