<?xml version='1.0' encoding='utf-8'?>
<svg xmlns="http://www.w3.org/2000/svg" height="100px" version="1.0" viewBox="0 0 100 100" width="100px" x="0px" y="0px">
<line fill="none" stroke="#000000" stroke-width="2" x1="7" x2="93" y1="89" y2="89" /><line fill="none" stroke="#000000" stroke-width="2" x1="92" x2="8" y1="11" y2="11" /><line fill="none" stroke="#000000" stroke-width="2" x1="62" x2="89" y1="28.5" y2="28.5" /><polyline fill="none" points="14,69 35,69 35,32 13,32 13,70" stroke="#000000" stroke-width="2" /><path d="M42.5,11 c-1.12,8.549 -2.506,16.779 -4,24" fill="none" stroke="#000000" stroke-width="2" /><path d="M40,26 h17.5 c-2.794,54.292 -3.015,54.5 -9,54.5 c-2.646,0 -7.553,-0.359 -13,-1" fill="none" stroke="#000000" stroke-width="2" /><path d="M58,77.5 c15.438,-10.144 24.894,-24.616 30.023,-48.213" fill="none" stroke="#000000" stroke-width="2" /><path d="M93,77.5 c-11.793,-10.59 -21.322,-25.589 -27,-43" fill="none" stroke="#000000" stroke-width="2" /></svg>