<?xml version='1.0' encoding='utf-8'?>
<svg xmlns="http://www.w3.org/2000/svg" height="100px" version="1.0" viewBox="0 0 100 100" width="100px" x="0px" y="0px">
<line fill="none" stroke="#000000" stroke-width="2" x1="18.5" x2="18.5" y1="94" y2="34.5" /><line fill="none" stroke="#000000" stroke-width="2" x1="64.5" x2="64.5" y1="72" y2="5" /><path d="M29,6 c-5.018,19.812 -13.809,37.326 -25,51" fill="none" stroke="#000000" stroke-width="2" /><path d="M42,10.5 v68.0 c0,10.707 0.307,10.988 7,11.5 c4.712,0.36 8.367,0.5 13,0.5 c4.549,0 9.006,-0.145 14,-0.5 c15.044,-1.073 15.226,-1.284 17,-24.5" fill="none" stroke="#000000" stroke-width="2" /><path d="M27.5,37 l61.5,-17 c0,39 -1.594,42.5 -5,42.5 c-2.127,0 -6.102,-0.191 -10,-0.5" fill="none" stroke="#000000" stroke-width="2" /></svg>