<?xml version='1.0' encoding='utf-8'?>
<svg xmlns="http://www.w3.org/2000/svg" height="100px" version="1.0" viewBox="0 0 100 100" width="100px" x="0px" y="0px">
<line fill="none" stroke="#000000" stroke-width="2" x1="72.5" x2="72.5" y1="75" y2="13" /><line fill="none" stroke="#000000" stroke-width="2" x1="13.5" x2="13.5" y1="94" y2="34" /><line fill="none" stroke="#000000" stroke-width="2" x1="25.5" x2="68" y1="11.5" y2="11.5" /><line fill="none" stroke="#000000" stroke-width="2" x1="38" x2="63.5" y1="29" y2="29" /><path d="M91,8 v75.0 c0,7.317 -0.645,8 -5,8 c-2.243,0 -5.943,-0.167 -10.5,-0.5" fill="none" stroke="#000000" stroke-width="2" /><path d="M22,6 c-4.002,19.29 -10.986,36.252 -20,49.5" fill="none" stroke="#000000" stroke-width="2" /><path d="M22.5,59.5 c9.721,-12.502 16.924,-29.591 20,-48" fill="none" stroke="#000000" stroke-width="2" /><path d="M62.5,29.957 c-1.169,27.113 -16.273,51.038 -37,61.043" fill="none" stroke="#000000" stroke-width="2" /><path d="M55.5,58.5 c-5.664,-3.688 -12.66,-7.753 -19,-11" fill="none" stroke="#000000" stroke-width="2" /></svg>