<?xml version='1.0' encoding='utf-8'?>
<svg xmlns="http://www.w3.org/2000/svg" height="100px" version="1.0" viewBox="0 0 100 100" width="100px" x="0px" y="0px">
<line fill="none" stroke="#000000" stroke-width="2" x1="13.5" x2="13.5" y1="94" y2="30.75" /><line fill="none" stroke="#000000" stroke-width="2" x1="28" x2="28" y1="82" y2="21.5" /><line fill="none" stroke="#000000" stroke-width="2" x1="46.5" x2="93.5" y1="13.5" y2="13.5" /><path d="M20,6 c-3.602,19.29 -9.888,36.252 -18,49.5" fill="none" stroke="#000000" stroke-width="2" /><path d="M37.5,60.5 c14.721,-2.974 28.791,-8.778 37,-14.5" fill="none" stroke="#000000" stroke-width="2" /><path d="M37.75,76.5 c20.209,-3.679 35.919,-10.097 46.25,-17.75" fill="none" stroke="#000000" stroke-width="2" /><path d="M38,92.5 c25.697,-4.383 43.047,-11.416 55.5,-21" fill="none" stroke="#000000" stroke-width="2" /><path d="M33.5,46.5 c25.82,-5.999 43.17,-18.349 50,-33" fill="none" stroke="#000000" stroke-width="2" /><path d="M93.5,46.5 c-24.084,-6.722 -39.537,-18.917 -47.5,-32" fill="none" stroke="#000000" stroke-width="2" /><path d="M33.5,33 c7.039,-7.691 13.112,-17.902 16.5,-28" fill="none" stroke="#000000" stroke-width="2" /></svg>