<?xml version='1.0' encoding='utf-8'?>
<svg xmlns="http://www.w3.org/2000/svg" height="100px" version="1.0" viewBox="0 0 100 100" width="100px" x="0px" y="0px">
<line fill="none" stroke="#000000" stroke-width="2" x1="92" x2="46.5" y1="43.5" y2="43.5" /><line fill="none" stroke="#000000" stroke-width="2" x1="95" x2="35" y1="63.5" y2="63.5" /><line fill="none" stroke="#000000" stroke-width="2" x1="35" x2="95" y1="31" y2="31" /><line fill="none" stroke="#000000" stroke-width="2" x1="13.5" x2="13.5" y1="94" y2="30.75" /><line fill="none" stroke="#000000" stroke-width="2" x1="28" x2="28" y1="82" y2="21.5" /><polyline fill="none" points="82,31 84,10 40.5,10" stroke="#000000" stroke-width="2" /><path d="M37,57 c6.328,-6.683 12.064,-16.623 15,-26" fill="none" stroke="#000000" stroke-width="2" /><path d="M29.5,92.5 c22.445,-4.749 36,-18.251 36,-32 v-17.0" fill="none" stroke="#000000" stroke-width="2" /><path d="M95.5,92.5 c-18.936,-5.888 -30,-18.563 -30,-32" fill="none" stroke="#000000" stroke-width="2" /><path d="M20,6 c-3.602,19.29 -9.888,36.252 -18,49.5" fill="none" stroke="#000000" stroke-width="2" /></svg>