<?xml version='1.0' encoding='utf-8'?>
<svg xmlns="http://www.w3.org/2000/svg" height="100px" version="1.0" viewBox="0 0 100 100" width="100px" x="0px" y="0px">
<line fill="none" stroke="#000000" stroke-width="2" x1="70" x2="70" y1="94" y2="55.5" /><line fill="none" stroke="#000000" stroke-width="2" x1="27" x2="93" y1="65" y2="65" /><line fill="none" stroke="#000000" stroke-width="2" x1="38" x2="38" y1="79.5" y2="66" /><line fill="none" stroke="#000000" stroke-width="2" x1="96" x2="22" y1="80.5" y2="80.5" /><line fill="none" stroke="#000000" stroke-width="2" x1="22.5" x2="95.5" y1="29.5" y2="29.5" /><line fill="none" stroke="#000000" stroke-width="2" x1="16.5" x2="16.5" y1="94" y2="31.3" /><polyline fill="none" points="35,55.5 35,38.5 89,38.5 89,54.5 36,54.5" stroke="#000000" stroke-width="2" /><polyline fill="none" points="86.5,29.5 86.5,14 32,14" stroke="#000000" stroke-width="2" /><path d="M52.5,29.5 c2.601,-7.489 4.852,-15.473 7,-24.5" fill="none" stroke="#000000" stroke-width="2" /><path d="M24.5,6 c-4.303,19.29 -11.811,36.252 -21.5,49.5" fill="none" stroke="#000000" stroke-width="2" /></svg>