<?xml version='1.0' encoding='utf-8'?>
<svg xmlns="http://www.w3.org/2000/svg" height="100px" version="1.0" viewBox="0 0 100 100" width="100px" x="0px" y="0px">
<line fill="none" stroke="#000000" stroke-width="2" x1="41" x2="19.5" y1="42" y2="42" /><line fill="none" stroke="#000000" stroke-width="2" x1="39" x2="21.5" y1="12" y2="12" /><line fill="none" stroke="#000000" stroke-width="2" x1="38" x2="96.5" y1="27" y2="27" /><line fill="none" stroke="#000000" stroke-width="2" x1="39" x2="93.5" y1="72" y2="72" /><line fill="none" stroke="#000000" stroke-width="2" x1="43" x2="91.5" y1="56.5" y2="56.5" /><line fill="none" stroke="#000000" stroke-width="2" x1="68.5" x2="68.5" y1="85" y2="5" /><line fill="none" stroke="#000000" stroke-width="2" x1="13" x2="13" y1="94" y2="30.75" /><polyline fill="none" points="45,42 88.5,42 88.5,13 44,13" stroke="#000000" stroke-width="2" /><path d="M18,92 c11.557,-12.492 19.353,-29.505 22.009,-49.134" fill="none" stroke="#000000" stroke-width="2" /><path d="M20.284,41.621 c7.417,-9.358 13.136,-18.712 17.804,-29.033" fill="none" stroke="#000000" stroke-width="2" /><path d="M94.5,90 h-22.0 c-29.428,0 -40.009,-7.534 -50.5,-39" fill="none" stroke="#000000" stroke-width="2" /><path d="M19.5,6 c-3.602,19.29 -9.888,36.252 -18,49.5" fill="none" stroke="#000000" stroke-width="2" /></svg>