<?xml version='1.0' encoding='utf-8'?>
<svg xmlns="http://www.w3.org/2000/svg" height="100px" version="1.0" viewBox="0 0 100 100" width="100px" x="0px" y="0px">
<line fill="none" stroke="#000000" stroke-width="2" x1="73" x2="73" y1="74" y2="12" /><line fill="none" stroke="#000000" stroke-width="2" x1="29.5" x2="59.5" y1="48" y2="48" /><line fill="none" stroke="#000000" stroke-width="2" x1="29.5" x2="59.5" y1="29" y2="29" /><line fill="none" stroke="#000000" stroke-width="2" x1="13.5" x2="13.5" y1="94" y2="34" /><polyline fill="none" points="29.5,67.5 60.5,67.5 60.5,10.5 28.5,10.5 28.5,68.5" stroke="#000000" stroke-width="2" /><path d="M91,8 v75.0 c0,7.317 -0.645,8 -5,8 c-2.243,0 -5.943,-0.167 -10.5,-0.5" fill="none" stroke="#000000" stroke-width="2" /><path d="M24.5,92 c6.299,-4.847 12.094,-11.837 15.5,-18.5" fill="none" stroke="#000000" stroke-width="2" /><path d="M64,91.5 c-4.093,-6.009 -9.578,-12.239 -15.5,-17.5" fill="none" stroke="#000000" stroke-width="2" /><path d="M22,6 c-4.002,19.29 -10.986,36.252 -20,49.5" fill="none" stroke="#000000" stroke-width="2" /></svg>