<?xml version='1.0' encoding='utf-8'?>
<svg xmlns="http://www.w3.org/2000/svg" height="100px" version="1.0" viewBox="0 0 100 100" width="100px" x="0px" y="0px">
<line fill="none" stroke="#000000" stroke-width="2" x1="12.5" x2="12.5" y1="94" y2="35" /><line fill="none" stroke="#000000" stroke-width="2" x1="26" x2="57.5" y1="49" y2="49" /><line fill="none" stroke="#000000" stroke-width="2" x1="23" x2="59.5" y1="74.5" y2="74.5" /><line fill="none" stroke="#000000" stroke-width="2" x1="41.5" x2="41.5" y1="88.5" y2="11.5" /><line fill="none" stroke="#000000" stroke-width="2" x1="22" x2="60" y1="24.5" y2="24.5" /><polyline fill="none" points="26,63 58.5,63 58.5,35 25,35 25,64" stroke="#000000" stroke-width="2" /><path d="M21.5,6 c-4.002,19.29 -10.986,36.252 -20,49.5" fill="none" stroke="#000000" stroke-width="2" /><path d="M24,13 c12.987,-0.553 25.716,-2.392 35.5,-5" fill="none" stroke="#000000" stroke-width="2" /><path d="M59.5,92 c9.68,-16.214 13.5,-34.587 13.5,-86" fill="none" stroke="#000000" stroke-width="2" /><path d="M61,28 h32.0 c0,57.409 -2.133,62 -7,62 c-2.203,0 -6.373,-0.347 -11,-1" fill="none" stroke="#000000" stroke-width="2" /><path d="M21,91 c12.701,-1.213 25.408,-3.22 38,-6" fill="none" stroke="#000000" stroke-width="2" /></svg>