<?xml version='1.0' encoding='utf-8'?>
<svg xmlns="http://www.w3.org/2000/svg" height="100px" version="1.0" viewBox="0 0 100 100" width="100px" x="0px" y="0px">
<line fill="none" stroke="#000000" stroke-width="2" x1="27.5" x2="86.5" y1="52" y2="52" /><line fill="none" stroke="#000000" stroke-width="2" x1="21" x2="95.5" y1="32" y2="32" /><line fill="none" stroke="#000000" stroke-width="2" x1="24" x2="93" y1="14.5" y2="14.5" /><line fill="none" stroke="#000000" stroke-width="2" x1="58.5" x2="58.5" y1="14.5" y2="3.5" /><line fill="none" stroke="#000000" stroke-width="2" x1="13" x2="13" y1="94" y2="34" /><polyline fill="none" points="27.5,66 87.5,66 87.5,39 26.5,39 26.5,67" stroke="#000000" stroke-width="2" /><path d="M21.5,6 c-4.002,19.29 -10.986,36.252 -20,49.5" fill="none" stroke="#000000" stroke-width="2" /><path d="M42,72 v10.0 c0,8.844 0.293,9.153 6,9.601 c3.113,0.242 7.198,0.399 11,0.399 c3.732,0 7.678,-0.138 11,-0.399 c9.469,-0.753 9.703,-0.93 11,-13.601" fill="none" stroke="#000000" stroke-width="2" /><path d="M19.5,90.5 c5.058,-5.263 9.24,-11.75 12,-18.5" fill="none" stroke="#000000" stroke-width="2" /><path d="M97,90.5 c-3.486,-6.149 -7.973,-12.565 -13,-18.5" fill="none" stroke="#000000" stroke-width="2" /><path d="M69.5,83 c-5.09,-4.073 -11.27,-8.354 -17.5,-12" fill="none" stroke="#000000" stroke-width="2" /><path d="M67.5,32 c4.389,-4.94 7.971,-10.904 10.5,-17.5" fill="none" stroke="#000000" stroke-width="2" /><path d="M47.5,32 c-3.078,-5.871 -6.536,-11.707 -10.5,-17.5" fill="none" stroke="#000000" stroke-width="2" /></svg>