<?xml version='1.0' encoding='utf-8'?>
<svg xmlns="http://www.w3.org/2000/svg" height="100px" version="1.0" viewBox="0 0 100 100" width="100px" x="0px" y="0px">
<line fill="none" stroke="#000000" stroke-width="2" x1="50" x2="50" y1="16.5" y2="4.5" /><line fill="none" stroke="#000000" stroke-width="2" x1="7" x2="93" y1="16.5" y2="16.5" /><path d="M91,53.5 c-7.607,-8.854 -18.152,-20.186 -27,-29" fill="none" stroke="#000000" stroke-width="2" /><path d="M8,49 c20.4,-0.747 46.034,-3.335 72,-7.5" fill="none" stroke="#000000" stroke-width="2" /><path d="M27.5,48 c5.308,-9.123 10.171,-19.656 14.5,-31.5" fill="none" stroke="#000000" stroke-width="2" /><path d="M61,44.5 v41.5 c0,3.726 0.738,4.556 5,4.8 c2.131,0.123 4.674,0.2 7,0.2 c2.626,0 4.654,-0.064 7,-0.2 c7.845,-0.448 8.904,-1.487 10,-22.3" fill="none" stroke="#000000" stroke-width="2" /><path d="M9,92.5 c18.379,-7.092 29,-22.581 29,-45.5" fill="none" stroke="#000000" stroke-width="2" /></svg>