<?xml version='1.0' encoding='utf-8'?>
<svg xmlns="http://www.w3.org/2000/svg" height="100px" version="1.0" viewBox="0 0 100 100" width="100px" x="0px" y="0px">
<path d="M88,15 c-6.785,9.378 -14.018,16.905 -22,23" fill="none" stroke="#000000" stroke-width="2" /><path d="M57,7 v72.5 c0,10.42 0.383,10.87 6,11.5 c3.008,0.338 6.22,0.5 9.5,0.5 c3.397,0 6.478,-0.161 9.5,-0.5 c9.66,-1.081 10.199,-1.556 11,-18.5" fill="none" stroke="#000000" stroke-width="2" /><path d="M30,39 c-4.857,-6.782 -10.969,-14.328 -18,-22" fill="none" stroke="#000000" stroke-width="2" /><path d="M93,65 c-7.849,-5.46 -17.38,-11.31 -28,-17" fill="none" stroke="#000000" stroke-width="2" /><path d="M7,94 c24.022,-8.166 32,-19.05 32,-47.5 V7.0" fill="none" stroke="#000000" stroke-width="2" /><path d="M7,68 c13.168,-5.42 24.131,-11.736 32,-18" fill="none" stroke="#000000" stroke-width="2" /></svg>