<?xml version='1.0' encoding='utf-8'?>
<svg xmlns="http://www.w3.org/2000/svg" height="100px" version="1.0" viewBox="0 0 100 100" width="100px" x="0px" y="0px">
<line fill="none" stroke="#000000" stroke-width="2" x1="31" x2="66.5" y1="12" y2="12" /><line fill="none" stroke="#000000" stroke-width="2" x1="52.5" x2="52.5" y1="29" y2="53.5" /><polyline fill="none" points="18.5,62.5 18.5,28 86.5,28 86.5,54.5 19.5,54.5" stroke="#000000" stroke-width="2" /><path d="M52.5,28 c4.551,-4.56 9.602,-10.514 13.184,-15.577" fill="none" stroke="#000000" stroke-width="2" /><path d="M6.5,36.5 c13.139,-9.145 22.908,-20.289 29,-33" fill="none" stroke="#000000" stroke-width="2" /><path d="M60,55.5 v31.0 c0,3.583 0.951,4.548 5.5,4.8 c2.205,0.123 4.594,0.2 7,0.2 c2.717,0 5.074,-0.064 7.5,-0.2 c8.064,-0.445 8.857,-1.328 10,-22.3" fill="none" stroke="#000000" stroke-width="2" /><path d="M9,93 c20.929,-7.339 33,-21.491 33,-38.5" fill="none" stroke="#000000" stroke-width="2" /></svg>