<?xml version='1.0' encoding='utf-8'?>
<svg xmlns="http://www.w3.org/2000/svg" height="100px" version="1.0" viewBox="0 0 100 100" width="100px" x="0px" y="0px">
<line fill="none" stroke="#000000" stroke-width="2" x1="50" x2="50" y1="20" y2="4" /><polyline fill="none" points="24,56 77,56 77,31.5 23,31.5 23,57" stroke="#000000" stroke-width="2" /><polyline fill="none" points="90.5,41 90.5,20 9.5,20 9.5,41" stroke="#000000" stroke-width="2" /><path d="M60,57 v26.5 c0,6.448 0.672,7 16.5,7 c16.488,0 16.883,-0.433 17.5,-24" fill="none" stroke="#000000" stroke-width="2" /><path d="M6,92 c22.836,-4.78 33.223,-15.692 34,-36" fill="none" stroke="#000000" stroke-width="2" /><path d="M30,20 c-2.568,-4.63 -5.295,-9.076 -8,-13" fill="none" stroke="#000000" stroke-width="2" /><path d="M70.5,20 c2.842,-4.795 5.379,-9.516 7.5,-14" fill="none" stroke="#000000" stroke-width="2" /></svg>