<?xml version='1.0' encoding='utf-8'?>
<svg xmlns="http://www.w3.org/2000/svg" height="100px" version="1.0" viewBox="0 0 100 100" width="100px" x="0px" y="0px">
<line fill="none" stroke="#000000" stroke-width="2" x1="38.5" x2="4.5" y1="24" y2="24" /><line fill="none" stroke="#000000" stroke-width="2" x1="21.5" x2="21.5" y1="24" y2="6" /><line fill="none" stroke="#000000" stroke-width="2" x1="21.5" x2="21.5" y1="94" y2="50" /><path d="M40,67 c-4.434,-5.175 -11.332,-12.456 -17,-18" fill="none" stroke="#000000" stroke-width="2" /><path d="M2.5,65.5 c16.756,-10.153 27.396,-22.303 35.077,-40.882" fill="none" stroke="#000000" stroke-width="2" /><path d="M31,90 c22.313,-15.104 30,-31.131 30,-76" fill="none" stroke="#000000" stroke-width="2" /><path d="M37.5,14 h54.0 c0,67.833 -3.333,74 -14,74 c-4.234,0 -9.868,-0.359 -15.5,-1" fill="none" stroke="#000000" stroke-width="2" /><path d="M32,58 c4.259,-4.479 8.674,-10.293 12.5,-16.5" fill="none" stroke="#000000" stroke-width="2" /></svg>