<?xml version='1.0' encoding='utf-8'?>
<svg xmlns="http://www.w3.org/2000/svg" height="100px" version="1.0" viewBox="0 0 100 100" width="100px" x="0px" y="0px">
<line fill="none" stroke="#000000" stroke-width="2" x1="13.5" x2="55.5" y1="20.5" y2="20.5" /><line fill="none" stroke="#000000" stroke-width="2" x1="6" x2="58.5" y1="37.5" y2="37.5" /><line fill="none" stroke="#000000" stroke-width="2" x1="32" x2="32" y1="94" y2="6" /><line fill="none" stroke="#000000" stroke-width="2" x1="68" x2="68" y1="74" y2="12" /><path d="M11,86 v-32.5 h42.5 v23.0 c0,7.567 -0.348,8 -5,8 c-1.537,0 -4.525,-0.159 -9.5,-0.5" fill="none" stroke="#000000" stroke-width="2" /><path d="M89.5,8 v75.0 c0,7.13 -0.867,8 -6.5,8 c-2.75,0 -6.917,-0.144 -12.5,-0.5" fill="none" stroke="#000000" stroke-width="2" /><path d="M7.5,33.5 c4.318,-6.892 7.482,-15.579 9,-25" fill="none" stroke="#000000" stroke-width="2" /></svg>