<?xml version='1.0' encoding='utf-8'?>
<svg xmlns="http://www.w3.org/2000/svg" height="100px" version="1.0" viewBox="0 0 100 100" width="100px" x="0px" y="0px">
<line fill="none" stroke="#000000" stroke-width="2" x1="6.5" x2="93.5" y1="44.5" y2="44.5" /><line fill="none" stroke="#000000" stroke-width="2" x1="89.5" x2="10.5" y1="26.5" y2="26.5" /><path d="M6,66 c22.896,-11.183 41.184,-36.038 44,-62" fill="none" stroke="#000000" stroke-width="2" /><path d="M94,66 c-15.004,-7.564 -28.863,-21.879 -37,-39.5" fill="none" stroke="#000000" stroke-width="2" /><path d="M13.5,92 c17.616,-5.392 27.482,-14.903 32,-31" fill="none" stroke="#000000" stroke-width="2" /><path d="M22,61 h55.0 c0,26.349 -4,29.5 -12,29.5 c-4.032,0 -9.637,-0.197 -15,-0.5" fill="none" stroke="#000000" stroke-width="2" /><path d="M31,26.5 c-3.823,-6.401 -8,-12.658 -12,-18" fill="none" stroke="#000000" stroke-width="2" /><path d="M69,26.5 c4.532,-5.932 8.845,-12.398 12,-18" fill="none" stroke="#000000" stroke-width="2" /></svg>