<?xml version='1.0' encoding='utf-8'?>
<svg xmlns="http://www.w3.org/2000/svg" height="100px" version="1.0" viewBox="0 0 100 100" width="100px" x="0px" y="0px">
<line fill="none" stroke="#000000" stroke-width="2" x1="48" x2="6" y1="15" y2="15" /><line fill="none" stroke="#000000" stroke-width="2" x1="50" x2="91.5" y1="12" y2="12" /><path d="M6,55.5 c21.831,-6.981 36.734,-21.864 41.027,-39.733" fill="none" stroke="#000000" stroke-width="2" /><path d="M14,32 c12.536,4.14 22.167,8.628 33.5,15.5" fill="none" stroke="#000000" stroke-width="2" /><path d="M26,4.5 c-3.683,12.994 -9.283,24.277 -16.5,33.5" fill="none" stroke="#000000" stroke-width="2" /><path d="M11,92 c23.823,-6.881 35.95,-19.802 39,-41.5" fill="none" stroke="#000000" stroke-width="2" /><path d="M13,59.5 h73.0 c-1.008,27.472 -4.224,31 -13.5,31 c-5.066,0 -12.398,-0.321 -21.5,-1" fill="none" stroke="#000000" stroke-width="2" /><path d="M52.5,48.5 c19.039,-7.626 30.873,-18.892 38.079,-35.891" fill="none" stroke="#000000" stroke-width="2" /><path d="M95,53.5 c-17.23,-9.034 -31.163,-21.979 -40,-37" fill="none" stroke="#000000" stroke-width="2" /></svg>