<?xml version='1.0' encoding='utf-8'?>
<svg xmlns="http://www.w3.org/2000/svg" height="100px" version="1.0" viewBox="0 0 100 100" width="100px" x="0px" y="0px">
<polyline fill="none" points="89,44 89,24.5 11,24.5 11,44" stroke="#000000" stroke-width="2" /><path d="M30,21.5 c-3.097,-5.587 -6.549,-10.931 -10,-15.5" fill="none" stroke="#000000" stroke-width="2" /><path d="M52,20 c-2.822,-5.4 -5.912,-10.546 -9,-15" fill="none" stroke="#000000" stroke-width="2" /><path d="M66,24.5 c5.43,-6.531 10.242,-13.265 14,-19.5" fill="none" stroke="#000000" stroke-width="2" /><path d="M14,47.5 h71.0 c-1.008,37.686 -4.224,42.5 -13.5,42.5 c-5.066,0 -12.41,-0.445 -21.5,-1.5" fill="none" stroke="#000000" stroke-width="2" /><path d="M10,91.5 c24.088,-8.558 36,-25.102 36,-51.5 v-9.5" fill="none" stroke="#000000" stroke-width="2" /></svg>