<?xml version='1.0' encoding='utf-8'?>
<svg xmlns="http://www.w3.org/2000/svg" height="100px" version="1.0" viewBox="0 0 100 100" width="100px" x="0px" y="0px">
<line fill="none" stroke="#000000" stroke-width="2" x1="5" x2="52" y1="18" y2="18" /><line fill="none" stroke="#000000" stroke-width="2" x1="29" x2="29" y1="17" y2="5" /><path d="M4.5,92 c16.691,-10.196 32.495,-31.084 38.5,-52" fill="none" stroke="#000000" stroke-width="2" /><path d="M21.5,23 c-3.301,8.342 -8.541,16.563 -15.5,24" fill="none" stroke="#000000" stroke-width="2" /><path d="M52.5,47 c-4.045,-7.977 -9.228,-16.333 -15,-24" fill="none" stroke="#000000" stroke-width="2" /><path d="M43,83.5 c-7.721,-12.79 -17.521,-26.169 -28.5,-38.5" fill="none" stroke="#000000" stroke-width="2" /><path d="M43,92 c17.021,-16.926 23,-34.719 23,-86" fill="none" stroke="#000000" stroke-width="2" /><path d="M50,26 h41.5 c0,58.538 -2.684,64 -10,64 c-3.222,0 -9.236,-0.354 -16,-1" fill="none" stroke="#000000" stroke-width="2" /></svg>