<?xml version='1.0' encoding='utf-8'?>
<svg xmlns="http://www.w3.org/2000/svg" height="100px" version="1.0" viewBox="0 0 100 100" width="100px" x="0px" y="0px">
<line fill="none" stroke="#000000" stroke-width="2" x1="17.5" x2="82.5" y1="39" y2="39" /><line fill="none" stroke="#000000" stroke-width="2" x1="12.5" x2="87" y1="10" y2="10" /><polyline fill="none" points="17.5,55 83.5,55 83.5,24 16.5,24 16.5,56" stroke="#000000" stroke-width="2" /><path d="M74.5,90.5 c-5.066,0 -12.398,-0.321 -21.5,-1" fill="none" stroke="#000000" stroke-width="2" /><path d="M10,65 h78.0 c-0.98,22.303 -3.904,25.5 -13.5,25.5" fill="none" stroke="#000000" stroke-width="2" /><path d="M10,92 c26.844,-7.186 40,-21.108 40,-38 v-29.0" fill="none" stroke="#000000" stroke-width="2" /><path d="M27.5,14.5 c7.813,2.759 16.087,6.006 24.5,9.5" fill="none" stroke="#000000" stroke-width="2" /><path d="M86.549,10.106 c-5.488,2.772 -22.283,8.768 -37.049,12.894" fill="none" stroke="#000000" stroke-width="2" /></svg>