<?xml version='1.0' encoding='utf-8'?>
<svg xmlns="http://www.w3.org/2000/svg" height="100px" version="1.0" viewBox="0 0 100 100" width="100px" x="0px" y="0px">
<line fill="none" stroke="#000000" stroke-width="2" x1="17.5" x2="37.5" y1="12" y2="12" /><line fill="none" stroke="#000000" stroke-width="2" x1="29" x2="29" y1="29" y2="52.5" /><polyline fill="none" points="10.5,54.5 10.5,28 48,28 48,53.5 11.5,53.5" stroke="#000000" stroke-width="2" /><path d="M4,36.5 c7.179,-9.169 12.657,-20.289 16,-33" fill="none" stroke="#000000" stroke-width="2" /><path d="M43,81.5 c16.535,-14.719 22.5,-30.224 22.5,-75.5" fill="none" stroke="#000000" stroke-width="2" /><path d="M50.5,25 h38.5 c0,50.226 -2.537,54.5 -9.5,54.5 c-3.157,0 -9.377,-0.376 -16,-1" fill="none" stroke="#000000" stroke-width="2" /><path d="M29,28 c2.614,-4.502 5.514,-10.381 7.57,-15.38" fill="none" stroke="#000000" stroke-width="2" /><path d="M34.5,54.5 v30.0 c0,4.296 1.496,5.534 11,5.8 c4.389,0.123 9.211,0.2 14,0.2 c5.408,0 10.172,-0.064 15,-0.2 c17.817,-0.495 18.035,-0.667 19.5,-20.3" fill="none" stroke="#000000" stroke-width="2" /><path d="M5,92 c11.067,-7.071 18.5,-21.036 18.5,-38.5" fill="none" stroke="#000000" stroke-width="2" /></svg>