<?xml version='1.0' encoding='utf-8'?>
<svg xmlns="http://www.w3.org/2000/svg" height="100px" version="1.0" viewBox="0 0 100 100" width="100px" x="0px" y="0px">
<line fill="none" stroke="#000000" stroke-width="2" x1="33.5" x2="96" y1="43.5" y2="43.5" /><line fill="none" stroke="#000000" stroke-width="2" x1="93.5" x2="36" y1="26.5" y2="26.5" /><line fill="none" stroke="#000000" stroke-width="2" x1="10.5" x2="28.5" y1="59" y2="59" /><line fill="none" stroke="#000000" stroke-width="2" x1="11.5" x2="28.5" y1="33.5" y2="33.5" /><path d="M33,66 c15.91,-10.823 29.431,-35.431 31.5,-62" fill="none" stroke="#000000" stroke-width="2" /><path d="M96.5,66 c-10.98,-7.71 -21.417,-22.661 -27,-39.5" fill="none" stroke="#000000" stroke-width="2" /><path d="M35.5,92 c17.747,-7.859 27,-22.062 27,-43" fill="none" stroke="#000000" stroke-width="2" /><path d="M43.5,61 h42.0 c0,26.349 -2.756,29.5 -8.5,29.5 c-2.895,0 -7.15,-0.197 -11,-0.5" fill="none" stroke="#000000" stroke-width="2" /><path d="M50.5,26.5 c-2.745,-6.401 -5.693,-12.622 -8.5,-18" fill="none" stroke="#000000" stroke-width="2" /><path d="M79,26.5 c3.191,-5.965 6.234,-12.398 8.5,-18" fill="none" stroke="#000000" stroke-width="2" /><path d="M4.5,92.5 c4.1,-10.866 6,-23.313 6,-46.5 v-36.0 h19.0 v73.0 c0,7.817 -0.205,8 -4,8 c-1.479,0 -4.615,-0.159 -9,-0.5" fill="none" stroke="#000000" stroke-width="2" /></svg>