<?xml version='1.0' encoding='utf-8'?>
<svg xmlns="http://www.w3.org/2000/svg" height="100px" version="1.0" viewBox="0 0 100 100" width="100px" x="0px" y="0px">
<line fill="none" stroke="#000000" stroke-width="2" x1="15" x2="15" y1="94" y2="6" /><line fill="none" stroke="#000000" stroke-width="2" x1="27.5" x2="2.5" y1="30" y2="30" /><line fill="none" stroke="#000000" stroke-width="2" x1="34" x2="88.5" y1="39.5" y2="39.5" /><line fill="none" stroke="#000000" stroke-width="2" x1="61.5" x2="61.5" y1="54" y2="5" /><line fill="none" stroke="#000000" stroke-width="2" x1="25" x2="96.5" y1="15" y2="15" /><line fill="none" stroke="#000000" stroke-width="2" x1="96.5" x2="25" y1="65" y2="65" /><polyline fill="none" points="34,55 89.5,55 89.5,25 33,25 33,56" stroke="#000000" stroke-width="2" /><path d="M73.5,4.5 c4.412,2.214 9.367,4.978 13.5,7.5" fill="none" stroke="#000000" stroke-width="2" /><path d="M57,85 c-4.971,-4.546 -11.873,-9.708 -19,-14" fill="none" stroke="#000000" stroke-width="2" /><path d="M80.5,56 v28.5 c0,6.679 -0.349,7 -6,7 c-2.002,0 -7.727,-0.18 -14,-0.5" fill="none" stroke="#000000" stroke-width="2" /></svg>