<?xml version='1.0' encoding='utf-8'?>
<svg xmlns="http://www.w3.org/2000/svg" height="100px" version="1.0" viewBox="0 0 100 100" width="100px" x="0px" y="0px">
<line fill="none" stroke="#000000" stroke-width="2" x1="93.5" x2="6.5" y1="37" y2="37" /><path d="M19.5,59 c18.801,-1.97 35.68,-6.591 46.5,-12" fill="none" stroke="#000000" stroke-width="2" /><path d="M19.5,75.5 c25.053,-2.279 44.074,-7.669 57.25,-15" fill="none" stroke="#000000" stroke-width="2" /><path d="M19.5,92 c31.305,-2.589 52.47,-8.747 68,-18" fill="none" stroke="#000000" stroke-width="2" /><path d="M88,28.5 c-6.1,-5.776 -14.41,-13.134 -21.5,-19" fill="none" stroke="#000000" stroke-width="2" /><path d="M12.5,25 c19.742,-0.472 43.23,-2.064 66.5,-4.5" fill="none" stroke="#000000" stroke-width="2" /><path d="M25.5,24.5 c4.335,-5.7 8.604,-12.331 12.5,-19.5" fill="none" stroke="#000000" stroke-width="2" /><path d="M5.5,55.5 c21.541,-7.132 38.553,-20.28 45,-32.5" fill="none" stroke="#000000" stroke-width="2" /><path d="M94.5,56 c-13.758,-4.315 -25.867,-11.054 -34.5,-19" fill="none" stroke="#000000" stroke-width="2" /></svg>