<?xml version='1.0' encoding='utf-8'?>
<svg xmlns="http://www.w3.org/2000/svg" height="100px" version="1.0" viewBox="0 0 100 100" width="100px" x="0px" y="0px">
<line fill="none" stroke="#000000" stroke-width="2" x1="50" x2="50" y1="13.5" y2="3.5" /><line fill="none" stroke="#000000" stroke-width="2" x1="6" x2="94" y1="13.5" y2="13.5" /><polyline fill="none" points="30,86.5 30,56.5 70,56.5 70,80.5 31,80.5" stroke="#000000" stroke-width="2" /><path d="M56.5,30.5 v11.313 c0,6.616 0.727,7.187 11,7.187 c7.107,0 14.104,-0.177 21,-0.5" fill="none" stroke="#000000" stroke-width="2" /><path d="M65.5,90.5 c7.647,0.334 12.422,0.5 15,0.5 c7.305,0 8,-0.634 8,-8 v-53.5 h-77.0 V93.0" fill="none" stroke="#000000" stroke-width="2" /><path d="M59,29.5 c5.223,-4.761 9.595,-10.163 13,-16" fill="none" stroke="#000000" stroke-width="2" /><path d="M37,29.5 c-2.515,-5.314 -5.605,-10.839 -9,-16" fill="none" stroke="#000000" stroke-width="2" /><path d="M39.5,30.5 c0,13.542 -5.133,19.397 -24,24" fill="none" stroke="#000000" stroke-width="2" /></svg>