<?xml version='1.0' encoding='utf-8'?>
<svg xmlns="http://www.w3.org/2000/svg" height="100px" version="1.0" viewBox="0 0 100 100" width="100px" x="0px" y="0px">
<line fill="none" stroke="#000000" stroke-width="2" x1="20" x2="80" y1="86.5" y2="86.5" /><polyline fill="none" points="25,49 76,49 76,27 24,27 24,50" stroke="#000000" stroke-width="2" /><polyline fill="none" points="81,93.5 81,61 19,61 19,93.5" stroke="#000000" stroke-width="2" /><polyline fill="none" points="91,38 91,18 9,18 9,38" stroke="#000000" stroke-width="2" /><path d="M48,49 c-1.357,4.427 -3.014,8.327 -5,12" fill="none" stroke="#000000" stroke-width="2" /><path d="M30,18 c-3.115,-4.695 -6.549,-9.147 -10,-13" fill="none" stroke="#000000" stroke-width="2" /><path d="M53,18 c-3.117,-5.032 -6.549,-9.873 -10,-14" fill="none" stroke="#000000" stroke-width="2" /><path d="M70,18 c3.871,-4.696 7.309,-9.527 10,-14" fill="none" stroke="#000000" stroke-width="2" /></svg>