<?xml version='1.0' encoding='utf-8'?>
<svg xmlns="http://www.w3.org/2000/svg" height="100px" version="1.0" viewBox="0 0 100 100" width="100px" x="0px" y="0px">
<line fill="none" stroke="#000000" stroke-width="2" x1="17.5" x2="44" y1="87" y2="87" /><line fill="none" stroke="#000000" stroke-width="2" x1="56" x2="82.5" y1="87" y2="87" /><line fill="none" stroke="#000000" stroke-width="2" x1="93" x2="7" y1="44" y2="44" /><polyline fill="none" points="45,93 45,60.5 16.5,60.5 16.5,93" stroke="#000000" stroke-width="2" /><polyline fill="none" points="83.5,93 83.5,60.5 55,60.5 55,93" stroke="#000000" stroke-width="2" /><polyline fill="none" points="15.5,33.5 45,33.5 45,10 14.5,10 14.5,34.5" stroke="#000000" stroke-width="2" /><polyline fill="none" points="56,33.5 85.5,33.5 85.5,10 55,10 55,34.5" stroke="#000000" stroke-width="2" /><path d="M6,63.5 c21.052,-6.776 36.799,-18.575 43,-30" fill="none" stroke="#000000" stroke-width="2" /><path d="M94,63.5 c-13.758,-4.429 -25.909,-11.298 -34.5,-19.5" fill="none" stroke="#000000" stroke-width="2" /></svg>