<?xml version='1.0' encoding='utf-8'?>
<svg xmlns="http://www.w3.org/2000/svg" height="100px" version="1.0" viewBox="0 0 100 100" width="100px" x="0px" y="0px">
<line fill="none" stroke="#000000" stroke-width="2" x1="93" x2="41" y1="14" y2="14" /><line fill="none" stroke="#000000" stroke-width="2" x1="3.5" x2="34" y1="26.5" y2="26.5" /><line fill="none" stroke="#000000" stroke-width="2" x1="17.5" x2="17.5" y1="79.5" y2="8" /><line fill="none" stroke="#000000" stroke-width="2" x1="52.5" x2="52.5" y1="60" y2="89" /><line fill="none" stroke="#000000" stroke-width="2" x1="70.5" x2="70.5" y1="60" y2="89" /><line fill="none" stroke="#000000" stroke-width="2" x1="24.5" x2="96.5" y1="90" y2="90" /><polyline fill="none" points="39.5,47 86.5,47 86.5,26.5 38.5,26.5 38.5,48" stroke="#000000" stroke-width="2" /><polyline fill="none" points="88.5,89 88.5,59 34.5,59 34.5,89" stroke="#000000" stroke-width="2" /><path d="M27.5,35 c7.559,-8.317 13.897,-19.521 17.5,-31" fill="none" stroke="#000000" stroke-width="2" /><path d="M3.5,85 c10.593,-3.637 19.674,-7.762 31,-14" fill="none" stroke="#000000" stroke-width="2" /></svg>