<?xml version='1.0' encoding='utf-8'?>
<svg xmlns="http://www.w3.org/2000/svg" height="100px" version="1.0" viewBox="0 0 100 100" width="100px" x="0px" y="0px">
<line fill="none" stroke="#000000" stroke-width="2" x1="4" x2="33" y1="37" y2="37" /><line fill="none" stroke="#000000" stroke-width="2" x1="18" x2="18" y1="79.5" y2="8" /><line fill="none" stroke="#000000" stroke-width="2" x1="40" x2="88" y1="53.5" y2="53.5" /><line fill="none" stroke="#000000" stroke-width="2" x1="31" x2="95.5" y1="33" y2="33" /><line fill="none" stroke="#000000" stroke-width="2" x1="33" x2="94" y1="14.5" y2="14.5" /><line fill="none" stroke="#000000" stroke-width="2" x1="64" x2="64" y1="14.5" y2="3.5" /><polyline fill="none" points="40,68 89,68 89,40 39,40 39,69" stroke="#000000" stroke-width="2" /><path d="M4,85 c10.593,-3.637 19.674,-7.762 31,-14" fill="none" stroke="#000000" stroke-width="2" /><path d="M73,33 c3.734,-5.242 6.832,-11.527 9,-18.5" fill="none" stroke="#000000" stroke-width="2" /><path d="M54,33 c-2.639,-6.207 -5.624,-12.364 -9,-18.5" fill="none" stroke="#000000" stroke-width="2" /><path d="M72,69 v17.5 c0,4.75 0.146,5 10,5 c10.976,0 11.23,-0.234 12,-19.5" fill="none" stroke="#000000" stroke-width="2" /><path d="M24.5,93 c19.73,-4.577 30,-14.433 30,-25" fill="none" stroke="#000000" stroke-width="2" /></svg>