<?xml version='1.0' encoding='utf-8'?>
<svg xmlns="http://www.w3.org/2000/svg" height="100px" version="1.0" viewBox="0 0 100 100" width="100px" x="0px" y="0px">
<line fill="none" stroke="#000000" stroke-width="2" x1="8" x2="92" y1="14.5" y2="14.5" /><line fill="none" stroke="#000000" stroke-width="2" x1="50" x2="50" y1="14.5" y2="3.5" /><line fill="none" stroke="#000000" stroke-width="2" x1="29.5" x2="79" y1="56" y2="56" /><path d="M61,14.5 v26.0 c0,4.533 -0.5,5 -6,5 c-2.061,0 -5.662,-0.138 -11.5,-0.5" fill="none" stroke="#000000" stroke-width="2" /><path d="M24,48.5 c13.176,-8.474 18,-17.458 18,-34" fill="none" stroke="#000000" stroke-width="2" /><path d="M8,45 c9.213,-5.976 16.625,-13.909 21,-22" fill="none" stroke="#000000" stroke-width="2" /><path d="M92,45 c-5.781,-7.149 -14.092,-15.19 -23,-22" fill="none" stroke="#000000" stroke-width="2" /><path d="M8,91 c30.896,-5.233 56.516,-18.69 70.241,-34.652" fill="none" stroke="#000000" stroke-width="2" /><path d="M92,91 c-25.338,-4.539 -49.384,-16.36 -63,-30" fill="none" stroke="#000000" stroke-width="2" /><path d="M8,71 c12.154,-6.075 23.155,-15.177 29.5,-24" fill="none" stroke="#000000" stroke-width="2" /></svg>