<?xml version='1.0' encoding='utf-8'?>
<svg xmlns="http://www.w3.org/2000/svg" height="100px" version="1.0" viewBox="0 0 100 100" width="100px" x="0px" y="0px">
<line fill="none" stroke="#000000" stroke-width="2" x1="41" x2="97" y1="49.5" y2="49.5" /><line fill="none" stroke="#000000" stroke-width="2" x1="92.5" x2="45" y1="11.5" y2="11.5" /><path d="M4.5,94 c20.398,-13.474 35,-40.808 35,-70 h-35.0" fill="none" stroke="#000000" stroke-width="2" /><path d="M11.5,55 c12.039,7.175 21.31,15.091 32.5,28" fill="none" stroke="#000000" stroke-width="2" /><path d="M73,35.5 v47.0 c0,7.276 -0.683,8 -7.5,8 c-3.297,0 -7.863,-0.159 -13.5,-0.5" fill="none" stroke="#000000" stroke-width="2" /><path d="M91.627,12.013 c-5.545,9.945 -11.313,17.686 -18.627,24.987" fill="none" stroke="#000000" stroke-width="2" /><path d="M22.5,5 c-2.859,22.511 -7.689,41.909 -14,57.5" fill="none" stroke="#000000" stroke-width="2" /></svg>