<?xml version='1.0' encoding='utf-8'?>
<svg xmlns="http://www.w3.org/2000/svg" height="100px" version="1.0" viewBox="0 0 100 100" width="100px" x="0px" y="0px">
<line fill="none" stroke="#000000" stroke-width="2" x1="45.5" x2="91.5" y1="12.5" y2="12.5" /><line fill="none" stroke="#000000" stroke-width="2" x1="93" x2="7" y1="55" y2="55" /><path d="M26.5,47.5 c20.146,-3.419 33.5,-14.3 33.5,-24 v-7.0" fill="none" stroke="#000000" stroke-width="2" /><path d="M93,49 c-19.881,-3.597 -33,-15.235 -33,-25.5" fill="none" stroke="#000000" stroke-width="2" /><path d="M31.5,26 c8.404,-5.86 14.514,-12.892 18.5,-21" fill="none" stroke="#000000" stroke-width="2" /><path d="M75,27 c6.85,-4.031 12.018,-8.724 15.675,-14.064" fill="none" stroke="#000000" stroke-width="2" /><path d="M7,45 c10.135,-3.942 18.463,-8.483 24.5,-13" fill="none" stroke="#000000" stroke-width="2" /><path d="M28.5,17.5 c-5.1,-2.802 -11.363,-5.698 -18.5,-8.5" fill="none" stroke="#000000" stroke-width="2" /><path d="M10,91 c32.117,-4.28 55.781,-18.224 65.5,-36" fill="none" stroke="#000000" stroke-width="2" /><path d="M42,47 c-6.865,9.998 -15.264,18.829 -26.5,27.5" fill="none" stroke="#000000" stroke-width="2" /><path d="M20.5,70.5 c23.854,4.139 43.711,10.24 69.5,21.5" fill="none" stroke="#000000" stroke-width="2" /></svg>