<?xml version='1.0' encoding='utf-8'?>
<svg xmlns="http://www.w3.org/2000/svg" height="100px" version="1.0" viewBox="0 0 100 100" width="100px" x="0px" y="0px">
<line fill="none" stroke="#000000" stroke-width="2" x1="7" x2="93" y1="26.5" y2="26.5" /><line fill="none" stroke="#000000" stroke-width="2" x1="50" x2="50" y1="47" y2="11.5" /><line fill="none" stroke="#000000" stroke-width="2" x1="7" x2="93" y1="69.5" y2="69.5" /><line fill="none" stroke="#000000" stroke-width="2" x1="81" x2="19" y1="51" y2="51" /><path d="M14,12.5 c25,0 49.088,-1.53 72,-4.5" fill="none" stroke="#000000" stroke-width="2" /><path d="M6,49.5 c21.002,-7.339 34.648,-15.032 43,-23" fill="none" stroke="#000000" stroke-width="2" /><path d="M94,49.5 c-21.002,-7.339 -34.648,-15.032 -43,-23" fill="none" stroke="#000000" stroke-width="2" /><path d="M51,63 v20.5 c0,7.276 -0.683,8 -7.5,8 c-4,0 -8.863,-0.169 -14.5,-0.5" fill="none" stroke="#000000" stroke-width="2" /><path d="M80.458,51.16 c-8.769,5.645 -17.624,9.522 -29.458,12.84" fill="none" stroke="#000000" stroke-width="2" /></svg>