<?xml version='1.0' encoding='utf-8'?>
<svg xmlns="http://www.w3.org/2000/svg" height="100px" version="1.0" viewBox="0 0 100 100" width="100px" x="0px" y="0px">
<line fill="none" stroke="#000000" stroke-width="2" x1="91.5" x2="26" y1="54" y2="57" /><line fill="none" stroke="#000000" stroke-width="2" x1="61.5" x2="61.5" y1="55.5" y2="92" /><line fill="none" stroke="#000000" stroke-width="2" x1="3.5" x2="33" y1="52.5" y2="44.5" /><line fill="none" stroke="#000000" stroke-width="2" x1="32.5" x2="4" y1="11" y2="11" /><path d="M53.5,49.5 c-6.285,-6.793 -14.561,-15.484 -21.5,-22.5" fill="none" stroke="#000000" stroke-width="2" /><path d="M45.5,56 c14.673,-11.792 26.169,-21.967 38.5,-34" fill="none" stroke="#000000" stroke-width="2" /><path d="M40,35 c8.771,-7.459 16.632,-14.808 24,-22.5" fill="none" stroke="#000000" stroke-width="2" /><path d="M26.5,87 c9.959,-6.942 17.941,-14.374 24,-22" fill="none" stroke="#000000" stroke-width="2" /><path d="M96.5,63 c-4.396,-8.056 -10.398,-18.28 -15.5,-26.5" fill="none" stroke="#000000" stroke-width="2" /><path d="M95.5,88 c-6.705,-7.497 -14.73,-15.228 -24,-23" fill="none" stroke="#000000" stroke-width="2" /><path d="M36,14 c20.754,0 39.127,-1.967 55,-5.5" fill="none" stroke="#000000" stroke-width="2" /><path d="M17.5,30 v52.5 c0,7.552 -0.416,8 -4.5,8 c-2.109,0 -5.392,-0.172 -9,-0.5" fill="none" stroke="#000000" stroke-width="2" /><path d="M31.615,11.532 c-4.23,7.985 -8.572,14.096 -14.115,19.968" fill="none" stroke="#000000" stroke-width="2" /></svg>