<?xml version='1.0' encoding='utf-8'?>
<svg xmlns="http://www.w3.org/2000/svg" height="100px" version="1.0" viewBox="0 0 100 100" width="100px" x="0px" y="0px">
<line fill="none" stroke="#000000" stroke-width="2" x1="50" x2="50" y1="13" y2="3" /><line fill="none" stroke="#000000" stroke-width="2" x1="6.5" x2="93.5" y1="51.5" y2="51.5" /><line fill="none" stroke="#000000" stroke-width="2" x1="15.5" x2="84.5" y1="24.5" y2="24.5" /><polyline fill="none" points="91,31 91,13 9,13 9,31" stroke="#000000" stroke-width="2" /><polyline fill="none" points="20,88.5 20,60.5 58,60.5 58,81.5 21,81.5" stroke="#000000" stroke-width="2" /><path d="M89.5,48 c-12.434,-5.655 -29.895,-12.151 -44.5,-16.5" fill="none" stroke="#000000" stroke-width="2" /><path d="M81.5,51.5 v31.0 c0,7.366 -0.695,8 -8,8 c-2.578,0 -7.353,-0.166 -15,-0.5" fill="none" stroke="#000000" stroke-width="2" /><path d="M10.5,47 c26.835,-4.022 39.5,-15.073 39.5,-31" fill="none" stroke="#000000" stroke-width="2" /></svg>