<?xml version='1.0' encoding='utf-8'?>
<svg xmlns="http://www.w3.org/2000/svg" height="100px" version="1.0" viewBox="0 0 100 100" width="100px" x="0px" y="0px">
<line fill="none" stroke="#000000" stroke-width="2" x1="90" x2="10" y1="63" y2="63" /><line fill="none" stroke="#000000" stroke-width="2" x1="70" x2="30" y1="49" y2="49" /><line fill="none" stroke="#000000" stroke-width="2" x1="50" x2="50" y1="11" y2="2.5" /><line fill="none" stroke="#000000" stroke-width="2" x1="48.5" x2="23.5" y1="22.5" y2="22.5" /><line fill="none" stroke="#000000" stroke-width="2" x1="86.5" x2="58.5" y1="22.5" y2="22.5" /><polyline fill="none" points="90.5,27 90.5,12 9.5,12 9.5,27" stroke="#000000" stroke-width="2" /><path d="M51,63 v23.2 c0,4.219 -0.674,4.8 -7,4.8 c-2.85,0 -7.088,-0.153 -13,-0.5" fill="none" stroke="#000000" stroke-width="2" /><path d="M6,35.5 c11.257,-6.271 18.744,-13.146 23.5,-21" fill="none" stroke="#000000" stroke-width="2" /><path d="M96,59 c-23.572,-9.963 -40.316,-26.123 -46,-42.5" fill="none" stroke="#000000" stroke-width="2" /><path d="M9,89.5 c9.035,-5.47 16.573,-12.825 21,-20" fill="none" stroke="#000000" stroke-width="2" /><path d="M91,90 c-6.11,-6.571 -14.313,-13.921 -23,-20.5" fill="none" stroke="#000000" stroke-width="2" /><path d="M4,59 c21.311,-8.838 37.256,-22.407 43.595,-35.925" fill="none" stroke="#000000" stroke-width="2" /><path d="M69.5,43 c7.277,-6.503 12.596,-13.195 16.113,-19.961" fill="none" stroke="#000000" stroke-width="2" /><path d="M37,37.5 c-4.047,-3.128 -8.687,-6.51 -13,-9.5" fill="none" stroke="#000000" stroke-width="2" /><path d="M25.5,47 c-4.047,-3.127 -8.687,-6.512 -13,-9.5" fill="none" stroke="#000000" stroke-width="2" /></svg>