<?xml version='1.0' encoding='utf-8'?>
<svg xmlns="http://www.w3.org/2000/svg" height="100px" version="1.0" viewBox="0 0 100 100" width="100px" x="0px" y="0px">
<line fill="none" stroke="#000000" stroke-width="2" x1="94.5" x2="5.5" y1="63" y2="63" /><line fill="none" stroke="#000000" stroke-width="2" x1="50" x2="50" y1="21" y2="93.5" /><line fill="none" stroke="#000000" stroke-width="2" x1="16.5" x2="83.5" y1="36" y2="36" /><polyline fill="none" points="16.5,52.5 84.5,52.5 84.5,20 15.5,20 15.5,53.5" stroke="#000000" stroke-width="2" /><path d="M6.5,91 c18.07,-6.55 33.259,-16.739 43,-28" fill="none" stroke="#000000" stroke-width="2" /><path d="M93.5,91 c-18.07,-6.55 -33.259,-16.739 -43,-28" fill="none" stroke="#000000" stroke-width="2" /><path d="M30,20 c-3.097,-5.227 -6.541,-10.231 -10,-14.5" fill="none" stroke="#000000" stroke-width="2" /><path d="M53,20 c-3.098,-5.586 -6.541,-10.937 -10,-15.5" fill="none" stroke="#000000" stroke-width="2" /><path d="M68,20 c4.654,-5.191 8.771,-10.55 12,-15.5" fill="none" stroke="#000000" stroke-width="2" /></svg>