<?xml version='1.0' encoding='utf-8'?>
<svg xmlns="http://www.w3.org/2000/svg" height="100px" version="1.0" viewBox="0 0 100 100" width="100px" x="0px" y="0px">
<line fill="none" stroke="#000000" stroke-width="2" x1="9" x2="42" y1="47" y2="47" /><line fill="none" stroke="#000000" stroke-width="2" x1="5" x2="47" y1="77" y2="77" /><line fill="none" stroke="#000000" stroke-width="2" x1="25.5" x2="25.5" y1="30" y2="5" /><line fill="none" stroke="#000000" stroke-width="2" x1="25.5" x2="25.5" y1="95" y2="65" /><line fill="none" stroke="#000000" stroke-width="2" x1="5" x2="47" y1="18" y2="18" /><line fill="none" stroke="#000000" stroke-width="2" x1="95.5" x2="48.5" y1="59" y2="59" /><line fill="none" stroke="#000000" stroke-width="2" x1="93.5" x2="51.5" y1="33" y2="33" /><line fill="none" stroke="#000000" stroke-width="2" x1="73.5" x2="73.5" y1="95" y2="33" /><polyline fill="none" points="9,64 43,64 43,31 8,31 8,65" stroke="#000000" stroke-width="2" /><path d="M98,30.5 c-9.979,-7.61 -17.748,-15.302 -25.5,-25 c-7.752,9.698 -15.521,17.39 -25.5,25" fill="none" stroke="#000000" stroke-width="2" /></svg>