<?xml version='1.0' encoding='utf-8'?>
<svg xmlns="http://www.w3.org/2000/svg" height="100px" version="1.0" viewBox="0 0 100 100" width="100px" x="0px" y="0px">
<line fill="none" stroke="#000000" stroke-width="2" x1="7" x2="93" y1="57.5" y2="57.5" /><line fill="none" stroke="#000000" stroke-width="2" x1="44" x2="7.5" y1="45.5" y2="48" /><line fill="none" stroke="#000000" stroke-width="2" x1="90" x2="53.5" y1="44" y2="46.5" /><path d="M83,63 c-10.438,13.063 -24.558,22.411 -45,28.5" fill="none" stroke="#000000" stroke-width="2" /><path d="M23,57.5 c-0.703,14.405 -6.897,27.556 -15,34.5" fill="none" stroke="#000000" stroke-width="2" /><path d="M22,66 c5.771,7.108 13.037,12.584 20,15.5" fill="none" stroke="#000000" stroke-width="2" /><path d="M49.5,6 c0,70.867 27.667,85.5 36.5,85.5 c2.407,0 5.804,-1.932 8,-17" fill="none" stroke="#000000" stroke-width="2" /><path d="M71.5,49.5 c3.529,2.539 7.23,5.348 10.5,8" fill="none" stroke="#000000" stroke-width="2" /><path d="M26.5,34.5 c-5.177,-4.914 -11.769,-10.936 -17.5,-16" fill="none" stroke="#000000" stroke-width="2" /><path d="M47,53 c-2.522,-6.96 -6.297,-16.11 -9.5,-23" fill="none" stroke="#000000" stroke-width="2" /><path d="M14.5,47.5 c10.074,-10.456 19.059,-21.399 27,-33" fill="none" stroke="#000000" stroke-width="2" /><path d="M14,23 c4.91,-5.384 9.352,-10.816 13.5,-16.5" fill="none" stroke="#000000" stroke-width="2" /><path d="M73,33.5 c-4.97,-4.718 -11.48,-10.657 -17,-15.5" fill="none" stroke="#000000" stroke-width="2" /><path d="M92.5,51 c-2.422,-6.682 -5.971,-15.365 -9,-22" fill="none" stroke="#000000" stroke-width="2" /><path d="M61.5,46 c9.67,-10.038 18.421,-20.833 26,-32" fill="none" stroke="#000000" stroke-width="2" /><path d="M61,22.5 c4.713,-5.168 9.055,-10.517 13,-16" fill="none" stroke="#000000" stroke-width="2" /></svg>