<?xml version='1.0' encoding='utf-8'?>
<svg xmlns="http://www.w3.org/2000/svg" height="100px" version="1.0" viewBox="0 0 100 100" width="100px" x="0px" y="0px">
<line fill="none" stroke="#000000" stroke-width="2" x1="51.5" x2="51.5" y1="12.5" y2="3" /><line fill="none" stroke="#000000" stroke-width="2" x1="18" x2="92" y1="53.5" y2="53.5" /><line fill="none" stroke="#000000" stroke-width="2" x1="81.5" x2="24.5" y1="24" y2="24" /><path d="M4.5,92 c4.898,-10.415 9,-30.94 9,-47 v-31.5 h78.5" fill="none" stroke="#000000" stroke-width="2" /><path d="M91.219,53.876 c-5.504,6.898 -11.265,12.391 -18.719,17.624" fill="none" stroke="#000000" stroke-width="2" /><path d="M55,53.5 v30.0 c0,6.687 -1.236,8 -7,8 c-2.615,0 -7.545,-0.169 -13,-0.5" fill="none" stroke="#000000" stroke-width="2" /><path d="M80.779,24.305 c-8.301,8.608 -16.869,15.357 -27.779,21.695" fill="none" stroke="#000000" stroke-width="2" /><path d="M63.5,53.5 c-8.192,-6.277 -18.004,-12.795 -29,-19" fill="none" stroke="#000000" stroke-width="2" /></svg>