<?xml version='1.0' encoding='utf-8'?>
<svg xmlns="http://www.w3.org/2000/svg" height="100px" version="1.0" viewBox="0 0 100 100" width="100px" x="0px" y="0px">
<line fill="none" stroke="#000000" stroke-width="2" x1="52" x2="52" y1="12.5" y2="3" /><line fill="none" stroke="#000000" stroke-width="2" x1="20" x2="76" y1="88" y2="88" /><line fill="none" stroke="#000000" stroke-width="2" x1="29" x2="88" y1="45.5" y2="45.5" /><line fill="none" stroke="#000000" stroke-width="2" x1="28" x2="28" y1="77" y2="24" /><path d="M4.5,91.5 c6.048,-14.052 9,-29.832 9,-51 v-27.0 h78.5" fill="none" stroke="#000000" stroke-width="2" /><path d="M27,25 c18.721,0 38.541,-2.158 57,-6" fill="none" stroke="#000000" stroke-width="2" /><path d="M16,79 c14.813,-2.335 28.133,-5.479 44.5,-10.5" fill="none" stroke="#000000" stroke-width="2" /><path d="M59.5,23 c0,36.62 16.993,63.5 27.5,63.5 c2.658,0 5.234,-3.858 7,-18" fill="none" stroke="#000000" stroke-width="2" /></svg>