<?xml version='1.0' encoding='utf-8'?>
<svg xmlns="http://www.w3.org/2000/svg" height="100px" version="1.0" viewBox="0 0 100 100" width="100px" x="0px" y="0px">
<line fill="none" stroke="#000000" stroke-width="2" x1="43.5" x2="19.5" y1="49" y2="49" /><line fill="none" stroke="#000000" stroke-width="2" x1="41.5" x2="18.5" y1="23.5" y2="23.5" /><line fill="none" stroke="#000000" stroke-width="2" x1="46.5" x2="93" y1="49.5" y2="49.5" /><line fill="none" stroke="#000000" stroke-width="2" x1="48.5" x2="90.5" y1="77" y2="77" /><line fill="none" stroke="#000000" stroke-width="2" x1="69.5" x2="69.5" y1="77" y2="25" /><line fill="none" stroke="#000000" stroke-width="2" x1="52" x2="52" y1="12.5" y2="3" /><path d="M14.5,92.5 c14.754,-10.889 24.697,-25.95 28.016,-42.694" fill="none" stroke="#000000" stroke-width="2" /><path d="M20.189,48.731 c8.522,-7.978 15.073,-15.962 20.453,-24.754" fill="none" stroke="#000000" stroke-width="2" /><path d="M93,90.5 h-21.0 c-29.131,0 -39.468,-6.292 -50,-33.5" fill="none" stroke="#000000" stroke-width="2" /><path d="M49,26.5 c13.814,-0.382 28.143,-2.166 41,-5" fill="none" stroke="#000000" stroke-width="2" /><path d="M3.5,92 c4.898,-10.415 9,-30.94 9,-47 v-31.5 h80.0" fill="none" stroke="#000000" stroke-width="2" /></svg>