<?xml version='1.0' encoding='utf-8'?>
<svg xmlns="http://www.w3.org/2000/svg" height="100px" version="1.0" viewBox="0 0 100 100" width="100px" x="0px" y="0px">
<line fill="none" stroke="#000000" stroke-width="2" x1="13.5" x2="93" y1="38.5" y2="38.5" /><line fill="none" stroke="#000000" stroke-width="2" x1="51.5" x2="51.5" y1="12.5" y2="3" /><polyline fill="none" points="21.5,53 85,53 85,24.5 21.5,24.5" stroke="#000000" stroke-width="2" /><path d="M55,13.5 v70.5 c0,6.687 -1.236,8 -7,8 c-2.615,0 -7.545,-0.169 -13,-0.5" fill="none" stroke="#000000" stroke-width="2" /><path d="M55,55.5 c6.379,12.377 20.883,25.552 38,33.5" fill="none" stroke="#000000" stroke-width="2" /><path d="M87.5,57.5 c-5.523,5.628 -12.003,10.799 -19,15" fill="none" stroke="#000000" stroke-width="2" /><path d="M14.5,87.5 c15.637,-5.765 29.955,-13.349 40.5,-21" fill="none" stroke="#000000" stroke-width="2" /><path d="M37.5,72 c-3.792,-4.096 -9.146,-9.115 -15,-14" fill="none" stroke="#000000" stroke-width="2" /><path d="M4.5,92 c4.898,-10.415 9,-30.94 9,-47 v-31.5 H92.0" fill="none" stroke="#000000" stroke-width="2" /></svg>