<?xml version='1.0' encoding='utf-8'?>
<svg xmlns="http://www.w3.org/2000/svg" height="100px" version="1.0" viewBox="0 0 100 100" width="100px" x="0px" y="0px">
<line fill="none" stroke="#000000" stroke-width="2" x1="31.5" x2="8" y1="42" y2="42" /><line fill="none" stroke="#000000" stroke-width="2" x1="29.5" x2="7" y1="12" y2="12" /><line fill="none" stroke="#000000" stroke-width="2" x1="31" x2="95" y1="27" y2="27" /><line fill="none" stroke="#000000" stroke-width="2" x1="32" x2="92" y1="72" y2="72" /><line fill="none" stroke="#000000" stroke-width="2" x1="36" x2="90" y1="56.5" y2="56.5" /><line fill="none" stroke="#000000" stroke-width="2" x1="63.5" x2="63.5" y1="85" y2="5" /><polyline fill="none" points="38,42 87,42 87,13 37,13" stroke="#000000" stroke-width="2" /><path d="M5.5,92 c13.134,-12.498 21.994,-29.517 25.013,-49.153" fill="none" stroke="#000000" stroke-width="2" /><path d="M8.749,41.661 c8.276,-9.383 14.654,-18.763 19.862,-29.111" fill="none" stroke="#000000" stroke-width="2" /><path d="M93,90 h-25.0 c-33.441,0 -45.078,-7.534 -57,-39" fill="none" stroke="#000000" stroke-width="2" /></svg>