<?xml version='1.0' encoding='utf-8'?>
<svg xmlns="http://www.w3.org/2000/svg" height="100px" version="1.0" viewBox="0 0 100 100" width="100px" x="0px" y="0px">
<line fill="none" stroke="#000000" stroke-width="2" x1="30.5" x2="87" y1="48" y2="48" /><line fill="none" stroke="#000000" stroke-width="2" x1="17.5" x2="17.5" y1="94" y2="43" /><path d="M29.5,42.5 c11.559,-4.335 17,-12.005 17,-26 V10.0 h29.0 v26.5 c0,2.706 0.375,3 5,3 c12.623,0 13.125,-0.383 14.5,-13.5" fill="none" stroke="#000000" stroke-width="2" /><path d="M29.5,91 c29.283,-7.03 46.967,-20.987 56.588,-42.409" fill="none" stroke="#000000" stroke-width="2" /><path d="M94,91 c-23.33,-7.753 -41.836,-21.341 -52,-37.5" fill="none" stroke="#000000" stroke-width="2" /><path d="M27,29 c-5.266,10.459 -12.938,19.355 -23.5,27" fill="none" stroke="#000000" stroke-width="2" /><path d="M28,7 c-5.256,8.887 -13.006,16.485 -23.5,23" fill="none" stroke="#000000" stroke-width="2" /></svg>