<?xml version='1.0' encoding='utf-8'?>
<svg xmlns="http://www.w3.org/2000/svg" height="100px" version="1.0" viewBox="0 0 100 100" width="100px" x="0px" y="0px">
<line fill="none" stroke="#000000" stroke-width="2" x1="39" x2="87" y1="23" y2="23" /><line fill="none" stroke="#000000" stroke-width="2" x1="30" x2="94.5" y1="48" y2="48" /><line fill="none" stroke="#000000" stroke-width="2" x1="95.5" x2="29" y1="61" y2="61" /><line fill="none" stroke="#000000" stroke-width="2" x1="18" x2="18" y1="94" y2="41" /><polyline fill="none" points="39,37 88,37 88,10 38,10 38,38" stroke="#000000" stroke-width="2" /><path d="M83.5,48 v34.5 c0,8.474 -0.459,9 -6,9 c-1.902,0 -7.039,-0.18 -13,-0.5" fill="none" stroke="#000000" stroke-width="2" /><path d="M60,85.5 c-4.961,-6.18 -11.874,-13.175 -19,-19" fill="none" stroke="#000000" stroke-width="2" /><path d="M27.5,27 c-5.266,10.459 -12.938,19.355 -23.5,27" fill="none" stroke="#000000" stroke-width="2" /><path d="M28.5,6 c-5.256,8.887 -13.006,16.485 -23.5,23" fill="none" stroke="#000000" stroke-width="2" /></svg>