<?xml version='1.0' encoding='utf-8'?>
<svg xmlns="http://www.w3.org/2000/svg" height="100px" version="1.0" viewBox="0 0 100 100" width="100px" x="0px" y="0px">
<path d="M33,23.5 v55.5 c0,10.416 0.521,10.892 7,11.5 c3.482,0.327 7.469,0.5 11.5,0.5 c4.24,0 8.073,-0.179 11.5,-0.5 c11.283,-1.059 11.469,-1.28 13,-26" fill="none" stroke="#000000" stroke-width="2" /><path d="M5,78.5 c5.225,-11.892 9.175,-27.2 11,-43" fill="none" stroke="#000000" stroke-width="2" /><path d="M95,79.5 c-3.261,-14.627 -7.744,-29.791 -13,-44" fill="none" stroke="#000000" stroke-width="2" /><path d="M29.5,7.5 c12.873,2.312 23.991,5.787 38,12" fill="none" stroke="#000000" stroke-width="2" /><path d="M83,11.5 c-14.471,38.338 -36.431,61.269 -76,79" fill="none" stroke="#000000" stroke-width="2" /></svg>