<?xml version='1.0' encoding='utf-8'?>
<svg xmlns="http://www.w3.org/2000/svg" height="100px" version="1.0" viewBox="0 0 100 100" width="100px" x="0px" y="0px">
<line fill="none" stroke="#000000" stroke-width="2" x1="71" x2="29" y1="26" y2="26" /><line fill="none" stroke="#000000" stroke-width="2" x1="83" x2="18" y1="39" y2="39" /><path d="M94.5,33 c-16.906,-8.264 -31.083,-17.121 -44.5,-27.8 c-13.417,10.679 -27.594,19.536 -44.5,27.8" fill="none" stroke="#000000" stroke-width="2" /><path d="M32.5,63.5 v17.0 c0,10.571 0.292,10.911 7,11.5 c3.618,0.317 8.079,0.5 12.5,0.5 c4.34,0 8.638,-0.161 12.5,-0.5 c11.35,-0.996 11.514,-1.125 13,-16" fill="none" stroke="#000000" stroke-width="2" /><path d="M5.5,88.5 c6.062,-6.017 11.077,-13.812 14,-22" fill="none" stroke="#000000" stroke-width="2" /><path d="M94.5,88 c-4.006,-8.018 -9.154,-16.294 -15,-24.001" fill="none" stroke="#000000" stroke-width="2" /><path d="M60,74.5 c-5.273,-5.547 -11.644,-11.105 -18.5,-16" fill="none" stroke="#000000" stroke-width="2" /><path d="M60,63.5 c8.533,-7.43 16.084,-15.691 22.191,-24.089" fill="none" stroke="#000000" stroke-width="2" /></svg>