<?xml version='1.0' encoding='utf-8'?>
<svg xmlns="http://www.w3.org/2000/svg" height="100px" version="1.0" viewBox="0 0 100 100" width="100px" x="0px" y="0px">
<line fill="none" stroke="#000000" stroke-width="2" x1="7.5" x2="92.5" y1="15" y2="15" /><line fill="none" stroke="#000000" stroke-width="2" x1="50" x2="50" y1="15" y2="3.5" /><path d="M61.5,15 v35.0 c0,4.533 -0.5,5 -6,5 c-2.061,0 -5.662,-0.138 -11.5,-0.5" fill="none" stroke="#000000" stroke-width="2" /><path d="M23.5,59 c13.448,-8.648 18,-17.852 18,-44" fill="none" stroke="#000000" stroke-width="2" /><path d="M8,47 c8.984,-6.092 16.643,-14.577 21,-23" fill="none" stroke="#000000" stroke-width="2" /><path d="M92,47 c-5.781,-7.475 -14.092,-15.881 -23,-23" fill="none" stroke="#000000" stroke-width="2" /><path d="M32.5,62 v17.5 c0,10.571 0.292,10.911 7,11.5 c3.618,0.317 8.079,0.5 12.5,0.5 c4.34,0 8.638,-0.161 12.5,-0.5 c11.145,-0.978 11.313,-1.124 13,-18" fill="none" stroke="#000000" stroke-width="2" /><path d="M5.5,88 c6.062,-6.564 11.077,-15.068 14,-24" fill="none" stroke="#000000" stroke-width="2" /><path d="M94.5,88.5 c-4.006,-9.02 -9.154,-18.329 -15,-27" fill="none" stroke="#000000" stroke-width="2" /><path d="M62,78 c-4.591,-6.125 -9.922,-12.167 -16,-18" fill="none" stroke="#000000" stroke-width="2" /></svg>