<?xml version='1.0' encoding='utf-8'?>
<svg xmlns="http://www.w3.org/2000/svg" height="100px" version="1.0" viewBox="0 0 100 100" width="100px" x="0px" y="0px">
<line fill="none" stroke="#000000" stroke-width="2" x1="77" x2="23" y1="22" y2="22" /><polyline fill="none" points="17.5,52 83.5,52 83.5,10 16.5,10 16.5,53" stroke="#000000" stroke-width="2" /><path d="M32.5,59 v21.0 c0,10.571 0.292,10.911 7,11.5 c3.618,0.317 8.079,0.5 12.5,0.5 c4.34,0 8.638,-0.161 12.5,-0.5 c11.145,-0.978 11.313,-1.124 13,-18" fill="none" stroke="#000000" stroke-width="2" /><path d="M5.5,88 c6.062,-7.385 11.077,-16.951 14,-27" fill="none" stroke="#000000" stroke-width="2" /><path d="M62,77 c-4.591,-6.125 -9.922,-12.167 -16,-18" fill="none" stroke="#000000" stroke-width="2" /><path d="M94.5,88.5 c-4.006,-9.688 -9.154,-19.688 -15,-29" fill="none" stroke="#000000" stroke-width="2" /><path d="M78,47 c-8.368,-6.569 -17.568,-11.979 -30,-17.5" fill="none" stroke="#000000" stroke-width="2" /><path d="M50,13 v9.0 c0,9.644 -10.262,19.804 -28,24" fill="none" stroke="#000000" stroke-width="2" /></svg>