<?xml version='1.0' encoding='utf-8'?>
<svg xmlns="http://www.w3.org/2000/svg" height="100px" version="1.0" viewBox="0 0 100 100" width="100px" x="0px" y="0px">
<line fill="none" stroke="#000000" stroke-width="2" x1="18" x2="82" y1="41" y2="41" /><line fill="none" stroke="#000000" stroke-width="2" x1="50" x2="50" y1="56.5" y2="4.5" /><line fill="none" stroke="#000000" stroke-width="2" x1="6" x2="94" y1="14.5" y2="14.5" /><polyline fill="none" points="18,57.5 83,57.5 83,25.5 17,25.5 17,58.5" stroke="#000000" stroke-width="2" /><path d="M32.5,65 v17.0 c0,8.591 0.26,8.894 7,9.5 c3.613,0.324 8.079,0.5 12.5,0.5 c4.34,0 8.642,-0.174 12.5,-0.5 c11.141,-0.942 11.316,-1.116 13,-15" fill="none" stroke="#000000" stroke-width="2" /><path d="M5.5,89 c6.029,-6.118 11.077,-14.217 14,-22.5" fill="none" stroke="#000000" stroke-width="2" /><path d="M94.5,89.5 c-4.006,-7.985 -9.168,-16.313 -15,-24" fill="none" stroke="#000000" stroke-width="2" /><path d="M62,79.5 c-4.591,-5.048 -9.98,-10.118 -16,-15" fill="none" stroke="#000000" stroke-width="2" /></svg>