<?xml version='1.0' encoding='utf-8'?>
<svg xmlns="http://www.w3.org/2000/svg" height="100px" version="1.0" viewBox="0 0 100 100" width="100px" x="0px" y="0px">
<line fill="none" stroke="#000000" stroke-width="2" x1="7.5" x2="40" y1="16.5" y2="16.5" /><line fill="none" stroke="#000000" stroke-width="2" x1="59" x2="92.5" y1="16.5" y2="16.5" /><line fill="none" stroke="#000000" stroke-width="2" x1="59" x2="94" y1="50" y2="50" /><line fill="none" stroke="#000000" stroke-width="2" x1="9.5" x2="40" y1="33" y2="33" /><line fill="none" stroke="#000000" stroke-width="2" x1="59" x2="90.5" y1="33" y2="33" /><line fill="none" stroke="#000000" stroke-width="2" x1="59" x2="59" y1="64" y2="6" /><path d="M6,54 c11.045,-1.896 21.429,-4.301 32.5,-7.5" fill="none" stroke="#000000" stroke-width="2" /><path d="M22,64.5 c14.307,-8.634 18,-14.969 18,-31.44 V6.0" fill="none" stroke="#000000" stroke-width="2" /><path d="M32.5,64.5 v15.0 c0,10.571 0.292,10.911 7,11.5 c3.618,0.317 8.079,0.5 12.5,0.5 c4.34,0 8.638,-0.161 12.5,-0.5 c11.35,-0.996 11.514,-1.125 13,-16" fill="none" stroke="#000000" stroke-width="2" /><path d="M5.5,89.5 c6.062,-6.017 11.077,-13.812 14,-22" fill="none" stroke="#000000" stroke-width="2" /><path d="M94.5,89 c-4.006,-8.018 -9.154,-16.294 -15,-24.001" fill="none" stroke="#000000" stroke-width="2" /><path d="M63,75.5 c-5.825,-4.966 -12.691,-9.811 -20,-14" fill="none" stroke="#000000" stroke-width="2" /></svg>