<?xml version='1.0' encoding='utf-8'?>
<svg xmlns="http://www.w3.org/2000/svg" height="100px" version="1.0" viewBox="0 0 100 100" width="100px" x="0px" y="0px">
<line fill="none" stroke="#000000" stroke-width="2" x1="50.5" x2="89.5" y1="41.5" y2="41.5" /><line fill="none" stroke="#000000" stroke-width="2" x1="50.5" x2="89.5" y1="25.5" y2="25.5" /><line fill="none" stroke="#000000" stroke-width="2" x1="27" x2="27" y1="60" y2="6" /><line fill="none" stroke="#000000" stroke-width="2" x1="45" x2="7" y1="20" y2="20" /><polyline fill="none" points="50.5,58 90.5,58 90.5,10 49.5,10 49.5,59" stroke="#000000" stroke-width="2" /><path d="M94.5,89 c-4.006,-8.018 -9.154,-16.294 -15,-24.001" fill="none" stroke="#000000" stroke-width="2" /><path d="M32.5,64.5 v15.0 c0,10.571 0.292,10.911 7,11.5 c3.618,0.317 8.079,0.5 12.5,0.5 c4.34,0 8.638,-0.161 12.5,-0.5 c11.35,-0.996 11.514,-1.125 13,-16" fill="none" stroke="#000000" stroke-width="2" /><path d="M5.5,89.5 c6.062,-6.017 11.077,-13.812 14,-22" fill="none" stroke="#000000" stroke-width="2" /><path d="M63,76.5 c-5.825,-4.966 -12.691,-9.811 -20,-14" fill="none" stroke="#000000" stroke-width="2" /><path d="M4,51 c10.809,-10.097 17.837,-19.929 22.5,-31" fill="none" stroke="#000000" stroke-width="2" /><path d="M45,43 c-5.297,-7.445 -11.652,-15.596 -18,-23" fill="none" stroke="#000000" stroke-width="2" /></svg>