<?xml version='1.0' encoding='utf-8'?>
<svg xmlns="http://www.w3.org/2000/svg" height="100px" version="1.0" viewBox="0 0 100 100" width="100px" x="0px" y="0px">
<line fill="none" stroke="#000000" stroke-width="2" x1="17" x2="17" y1="94" y2="6" /><line fill="none" stroke="#000000" stroke-width="2" x1="60" x2="60" y1="23" y2="5" /><line fill="none" stroke="#000000" stroke-width="2" x1="25" x2="95" y1="14" y2="14" /><line fill="none" stroke="#000000" stroke-width="2" x1="96" x2="24" y1="71" y2="71" /><line fill="none" stroke="#000000" stroke-width="2" x1="35.5" x2="86.5" y1="48.5" y2="48.5" /><line fill="none" stroke="#000000" stroke-width="2" x1="35.5" x2="86.5" y1="36" y2="36" /><polyline fill="none" points="35.5,61.5 87.5,61.5 87.5,24 34.5,24 34.5,62.5" stroke="#000000" stroke-width="2" /><path d="M4,58 c2.624,-10.247 4.357,-21.376 5,-32" fill="none" stroke="#000000" stroke-width="2" /><path d="M27.5,47.5 c-0.573,-6.952 -1.604,-14.611 -3,-22" fill="none" stroke="#000000" stroke-width="2" /><path d="M26,92 c11.166,-4.104 20.81,-9.762 26.5,-15" fill="none" stroke="#000000" stroke-width="2" /><path d="M94,93 c-6.836,-5.194 -16.277,-10.763 -26.5,-15.5" fill="none" stroke="#000000" stroke-width="2" /></svg>