<?xml version='1.0' encoding='utf-8'?>
<svg xmlns="http://www.w3.org/2000/svg" height="100px" version="1.0" viewBox="0 0 100 100" width="100px" x="0px" y="0px">
<line fill="none" stroke="#000000" stroke-width="2" x1="17" x2="17" y1="94" y2="6" /><line fill="none" stroke="#000000" stroke-width="2" x1="33.5" x2="86.5" y1="63.5" y2="63.5" /><line fill="none" stroke="#000000" stroke-width="2" x1="33.5" x2="86.5" y1="51.5" y2="51.5" /><line fill="none" stroke="#000000" stroke-width="2" x1="24" x2="96" y1="20.5" y2="20.5" /><polyline fill="none" points="33.5,75.5 87.5,75.5 87.5,39.5 32.5,39.5 32.5,76.5" stroke="#000000" stroke-width="2" /><path d="M4,58 c2.624,-10.247 4.357,-21.376 5,-32" fill="none" stroke="#000000" stroke-width="2" /><path d="M27.5,47.5 c-0.573,-6.952 -1.604,-14.611 -3,-22" fill="none" stroke="#000000" stroke-width="2" /><path d="M25,92 c10.971,-3.282 20.416,-7.801 26,-12" fill="none" stroke="#000000" stroke-width="2" /><path d="M95,93 c-6.695,-4.208 -15.931,-8.731 -26,-12.5" fill="none" stroke="#000000" stroke-width="2" /><path d="M58,32 c1.5,-7.063 2.988,-15.203 4,-22" fill="none" stroke="#000000" stroke-width="2" /><path d="M31.5,32 c1.5,-7.063 2.988,-15.203 4,-22 h53.0 c-1.012,6.797 -2.5,14.937 -4,22 H31.5 z" fill="none" stroke="#000000" stroke-width="2" /></svg>