<?xml version='1.0' encoding='utf-8'?>
<svg xmlns="http://www.w3.org/2000/svg" height="100px" version="1.0" viewBox="0 0 100 100" width="100px" x="0px" y="0px">
<line fill="none" stroke="#000000" stroke-width="2" x1="6.5" x2="93.5" y1="36" y2="36" /><path d="M29,13 v69.5 c0,7.683 -0.373,8 -5,8 c-2.246,0 -6.658,-0.194 -11,-0.5" fill="none" stroke="#000000" stroke-width="2" /><path d="M87,43.5 c-7.976,21.542 -24.943,37.381 -49,46" fill="none" stroke="#000000" stroke-width="2" /><path d="M60,5.5 c0,59.849 21.559,85.5 26,85.5 c2.407,0 5.804,-2.614 8,-23" fill="none" stroke="#000000" stroke-width="2" /><path d="M6.5,66 c17.119,-3.335 33.079,-7.81 44,-12" fill="none" stroke="#000000" stroke-width="2" /><path d="M8,17.5 c16.932,-2.834 30.307,-6.405 41,-10.5" fill="none" stroke="#000000" stroke-width="2" /><path d="M74,8 c5.939,5.734 10.807,11.229 16,18" fill="none" stroke="#000000" stroke-width="2" /></svg>