<?xml version='1.0' encoding='utf-8'?>
<svg xmlns="http://www.w3.org/2000/svg" height="100px" version="1.0" viewBox="0 0 100 100" width="100px" x="0px" y="0px">
<line fill="none" stroke="#000000" stroke-width="2" x1="55" x2="4" y1="73" y2="73" /><line fill="none" stroke="#000000" stroke-width="2" x1="30" x2="30" y1="25" y2="94" /><line fill="none" stroke="#000000" stroke-width="2" x1="10.5" x2="49.5" y1="41.5" y2="41.5" /><line fill="none" stroke="#000000" stroke-width="2" x1="54.5" x2="94.5" y1="33.5" y2="29.5" /><polyline fill="none" points="10.5,60 50.5,60 50.5,24 9.5,24 9.5,61" stroke="#000000" stroke-width="2" /><path d="M90.5,40 c-9.76,24.984 -23.751,39.421 -48,51" fill="none" stroke="#000000" stroke-width="2" /><path d="M69.5,5.5 c0,59.849 16.012,85.5 19.5,85.5 c2.427,0 4.971,-4.921 6.5,-23" fill="none" stroke="#000000" stroke-width="2" /><path d="M80,9 c4.063,4.796 7.923,10.097 11,15" fill="none" stroke="#000000" stroke-width="2" /><path d="M16,24 c-2.477,-6.308 -5.238,-12.341 -8,-17.5" fill="none" stroke="#000000" stroke-width="2" /><path d="M32.5,24 c-2.468,-6.672 -5.239,-13.046 -8,-18.5" fill="none" stroke="#000000" stroke-width="2" /><path d="M42.5,24 c3.723,-6.196 6.963,-12.565 9.5,-18.5" fill="none" stroke="#000000" stroke-width="2" /></svg>