<?xml version='1.0' encoding='utf-8'?>
<svg xmlns="http://www.w3.org/2000/svg" height="100px" version="1.0" viewBox="0 0 100 100" width="100px" x="0px" y="0px">
<line fill="none" stroke="#000000" stroke-width="2" x1="5.5" x2="34" y1="31.5" y2="31.5" /><line fill="none" stroke="#000000" stroke-width="2" x1="81" x2="18.5" y1="11" y2="11" /><line fill="none" stroke="#000000" stroke-width="2" x1="75.5" x2="24.5" y1="71" y2="71" /><line fill="none" stroke="#000000" stroke-width="2" x1="68.5" x2="31.5" y1="55.5" y2="55.5" /><line fill="none" stroke="#000000" stroke-width="2" x1="65.5" x2="34.5" y1="40" y2="40" /><path d="M65,27 c5.781,23.55 17.737,44.948 31,57" fill="none" stroke="#000000" stroke-width="2" /><path d="M93.5,29.5 c-5.804,9.354 -12.512,17.201 -19.5,23" fill="none" stroke="#000000" stroke-width="2" /><path d="M33.031,32.251 c-5.408,21.037 -16.396,39.705 -29.031,50.749" fill="none" stroke="#000000" stroke-width="2" /><path d="M50,28 v55.0 c0,7.276 -0.683,8 -7.5,8 c-4,0 -8.863,-0.168 -14.5,-0.5" fill="none" stroke="#000000" stroke-width="2" /><path d="M80.385,11.211 c-9.078,7.059 -18.451,12.591 -30.385,17.789" fill="none" stroke="#000000" stroke-width="2" /></svg>