<?xml version='1.0' encoding='utf-8'?>
<svg xmlns="http://www.w3.org/2000/svg" height="100px" version="1.0" viewBox="0 0 100 100" width="100px" x="0px" y="0px">
<line fill="none" stroke="#000000" stroke-width="2" x1="34" x2="5" y1="26" y2="26" /><line fill="none" stroke="#000000" stroke-width="2" x1="35" x2="87.5" y1="48" y2="48" /><path d="M20,6 v77.0 c0,7.683 -0.373,8 -5,8 c-2.246,0 -4.663,-0.119 -9,-0.5" fill="none" stroke="#000000" stroke-width="2" /><path d="M34,53 c-10.035,5.009 -19.379,8.534 -29,11" fill="none" stroke="#000000" stroke-width="2" /><path d="M30,42.5 c11.559,-4.335 17,-12.005 17,-26 V10.0 h29.0 v26.5 c0,2.706 0.375,3 5,3 c12.623,0 13.125,-0.383 14.5,-13.5" fill="none" stroke="#000000" stroke-width="2" /><path d="M30,91 c29.283,-7.03 46.967,-20.987 56.588,-42.409" fill="none" stroke="#000000" stroke-width="2" /><path d="M94.5,91 c-23.33,-7.753 -41.836,-21.341 -52,-37.5" fill="none" stroke="#000000" stroke-width="2" /></svg>