<?xml version='1.0' encoding='utf-8'?>
<svg xmlns="http://www.w3.org/2000/svg" height="100px" version="1.0" viewBox="0 0 100 100" width="100px" x="0px" y="0px">
<line fill="none" stroke="#000000" stroke-width="2" x1="38" x2="6" y1="26" y2="26" /><line fill="none" stroke="#000000" stroke-width="2" x1="44" x2="88" y1="87" y2="87" /><polyline fill="none" points="89,93.5 89,54 43,54 43,93.5" stroke="#000000" stroke-width="2" /><path d="M22,6 v77.0 c0,7.683 -0.373,8 -5,8 c-2.246,0 -5.661,-0.149 -10,-0.5" fill="none" stroke="#000000" stroke-width="2" /><path d="M37,51 c-10.727,5.009 -20.715,8.534 -31,11" fill="none" stroke="#000000" stroke-width="2" /><path d="M39,47 c14.371,-6.294 24.791,-21.229 26,-36" fill="none" stroke="#000000" stroke-width="2" /><path d="M39.5,11 h52.5 c0,28.422 -2.867,32.5 -8.5,32.5 c-2.782,0 -9.489,-0.233 -14,-0.5" fill="none" stroke="#000000" stroke-width="2" /></svg>