<?xml version='1.0' encoding='utf-8'?>
<svg xmlns="http://www.w3.org/2000/svg" height="100px" version="1.0" viewBox="0 0 100 100" width="100px" x="0px" y="0px">
<line fill="none" stroke="#000000" stroke-width="2" x1="42" x2="86" y1="36" y2="36" /><line fill="none" stroke="#000000" stroke-width="2" x1="40" x2="88.5" y1="86" y2="86" /><line fill="none" stroke="#000000" stroke-width="2" x1="34.5" x2="5.5" y1="26" y2="26" /><polyline fill="none" points="89.5,93 89.5,54 39,54 39,93" stroke="#000000" stroke-width="2" /><path d="M95,36 c-12.127,-8.944 -21.547,-17.957 -31,-29.8 c-9.454,11.843 -18.857,20.877 -31,29.8" fill="none" stroke="#000000" stroke-width="2" /><path d="M20.5,6 v77.0 c0,7.683 -0.373,8 -5,8 c-2.246,0 -4.663,-0.119 -9,-0.5" fill="none" stroke="#000000" stroke-width="2" /><path d="M34.5,51 c-10.035,5.009 -19.379,8.534 -29,11" fill="none" stroke="#000000" stroke-width="2" /></svg>