<?xml version='1.0' encoding='utf-8'?>
<svg xmlns="http://www.w3.org/2000/svg" height="100px" version="1.0" viewBox="0 0 100 100" width="100px" x="0px" y="0px">
<line fill="none" stroke="#000000" stroke-width="2" x1="94" x2="6" y1="24" y2="24" /><line fill="none" stroke="#000000" stroke-width="2" x1="95" x2="5" y1="72" y2="72" /><line fill="none" stroke="#000000" stroke-width="2" x1="84" x2="16" y1="55.5" y2="55.5" /><path d="M30,20 c-3.082,-5.054 -6.549,-9.873 -10,-14" fill="none" stroke="#000000" stroke-width="2" /><path d="M53,19 c-3.082,-5.414 -6.549,-10.578 -10,-15" fill="none" stroke="#000000" stroke-width="2" /><path d="M66,24 c5.43,-6.364 10.242,-12.923 14,-19" fill="none" stroke="#000000" stroke-width="2" /><path d="M5,54 c13.656,-5.861 25.963,-17.023 33,-30" fill="none" stroke="#000000" stroke-width="2" /><path d="M95,54 c-13.656,-5.861 -25.963,-17.023 -33,-30" fill="none" stroke="#000000" stroke-width="2" /><path d="M51,39 v45.0 c0,7.011 -0.977,8 -7.5,8 c-3.409,0 -9.286,-0.18 -15.5,-0.5" fill="none" stroke="#000000" stroke-width="2" /><path d="M24.5,41 c18.94,-0.661 34.09,-2.64 45.5,-5.5" fill="none" stroke="#000000" stroke-width="2" /></svg>