<?xml version='1.0' encoding='utf-8'?>
<svg xmlns="http://www.w3.org/2000/svg" height="100px" version="1.0" viewBox="0 0 100 100" width="100px" x="0px" y="0px">
<line fill="none" stroke="#000000" stroke-width="2" x1="31.5" x2="4.5" y1="26" y2="26" /><line fill="none" stroke="#000000" stroke-width="2" x1="37.5" x2="86.5" y1="48.5" y2="48.5" /><polyline fill="none" points="93,55.5 93,36.5 31.5,36.5 31.5,55.5" stroke="#000000" stroke-width="2" /><path d="M19.5,6 v77.0 c0,7.683 -0.373,8 -5,8 c-2.246,0 -4.663,-0.119 -9,-0.5" fill="none" stroke="#000000" stroke-width="2" /><path d="M31.5,49 c-9.343,5.009 -18.043,8.534 -27,11" fill="none" stroke="#000000" stroke-width="2" /><path d="M33.5,14.5 c20.105,0 39.273,-2.101 57,-6" fill="none" stroke="#000000" stroke-width="2" /><path d="M43,33 c-2.021,-5.407 -4.256,-10.578 -6.5,-15" fill="none" stroke="#000000" stroke-width="2" /><path d="M64.5,33 c-2.013,-5.772 -4.258,-11.283 -6.5,-16" fill="none" stroke="#000000" stroke-width="2" /><path d="M79.5,36.5 c3.528,-7.261 6.46,-14.896 8.5,-22" fill="none" stroke="#000000" stroke-width="2" /><path d="M28,90.5 c24.829,-4.436 47.01,-20.452 57.607,-41.449" fill="none" stroke="#000000" stroke-width="2" /><path d="M95.5,90.5 c-20.791,-4.014 -40.367,-17.712 -51,-36" fill="none" stroke="#000000" stroke-width="2" /></svg>