<?xml version='1.0' encoding='utf-8'?>
<svg xmlns="http://www.w3.org/2000/svg" height="100px" version="1.0" viewBox="0 0 100 100" width="100px" x="0px" y="0px">
<line fill="none" stroke="#000000" stroke-width="2" x1="62" x2="62" y1="93.5" y2="43.5" /><line fill="none" stroke="#000000" stroke-width="2" x1="94" x2="33" y1="53.5" y2="53.5" /><line fill="none" stroke="#000000" stroke-width="2" x1="31.5" x2="4.5" y1="26" y2="26" /><path d="M34,15.5 c20.664,0 40.232,-2.412 59,-7" fill="none" stroke="#000000" stroke-width="2" /><path d="M44,43 c-2.642,-7.386 -5.559,-14.433 -8.5,-20.5" fill="none" stroke="#000000" stroke-width="2" /><path d="M66,38 c-2.293,-6.478 -4.914,-12.733 -7.5,-18" fill="none" stroke="#000000" stroke-width="2" /><path d="M81.5,45.5 c4.504,-8.839 8.342,-18.241 11,-27" fill="none" stroke="#000000" stroke-width="2" /><path d="M28,89 c14.696,-9.804 26.072,-22.196 33,-35.5" fill="none" stroke="#000000" stroke-width="2" /><path d="M95.5,89 c-14.791,-10.631 -25.434,-22.487 -32.5,-35.5" fill="none" stroke="#000000" stroke-width="2" /><path d="M19.5,6 v77.0 c0,7.683 -0.373,8 -5,8 c-2.246,0 -4.663,-0.119 -9,-0.5" fill="none" stroke="#000000" stroke-width="2" /><path d="M32.5,49 c-9.689,5.009 -18.711,8.534 -28,11" fill="none" stroke="#000000" stroke-width="2" /></svg>