<?xml version='1.0' encoding='utf-8'?>
<svg xmlns="http://www.w3.org/2000/svg" height="100px" version="1.0" viewBox="0 0 100 100" width="100px" x="0px" y="0px">
<line fill="none" stroke="#000000" stroke-width="2" x1="53.5" x2="97" y1="20" y2="20" /><path d="M38,92 c30.733,-12.386 46.927,-33.761 50,-72" fill="none" stroke="#000000" stroke-width="2" /><path d="M96,92 c-24.829,-14.778 -36.005,-32.015 -40,-64" fill="none" stroke="#000000" stroke-width="2" /><path d="M41.5,49 c6.867,-11.971 12.757,-28.03 16,-44" fill="none" stroke="#000000" stroke-width="2" /><path d="M42,63 c-0.648,21.595 -1.131,22.03 -9,22.601 c-3.527,0.254 -6.793,0.399 -10,0.399 c-3.267,0 -5.674,-0.105 -9,-0.399 c-5.113,-0.451 -6,-1.315 -6,-10.744 V44.5 h29.0 V12.0 h-30.5" fill="none" stroke="#000000" stroke-width="2" /></svg>