<?xml version='1.0' encoding='utf-8'?>
<svg xmlns="http://www.w3.org/2000/svg" height="100px" version="1.0" viewBox="0 0 100 100" width="100px" x="0px" y="0px">
<line fill="none" stroke="#000000" stroke-width="2" x1="25" x2="25" y1="20" y2="4" /><line fill="none" stroke="#000000" stroke-width="2" x1="3.5" x2="46" y1="20" y2="20" /><line fill="none" stroke="#000000" stroke-width="2" x1="56.5" x2="97" y1="21" y2="21" /><path d="M3.5,92 c8.386,-14.692 12,-32.36 12,-71" fill="none" stroke="#000000" stroke-width="2" /><path d="M15.5,39 h24.5 c0,45.17 -3.016,51 -9,51 c-2.35,0 -7.867,-0.386 -13,-1" fill="none" stroke="#000000" stroke-width="2" /><path d="M42,91 c29.719,-14.364 42.927,-32.823 46,-70" fill="none" stroke="#000000" stroke-width="2" /><path d="M96,91 c-23.158,-14.473 -33.732,-31.323 -37.5,-63" fill="none" stroke="#000000" stroke-width="2" /><path d="M44.5,49 c6.867,-11.971 12.757,-28.03 16,-44" fill="none" stroke="#000000" stroke-width="2" /></svg>