<?xml version='1.0' encoding='utf-8'?>
<svg xmlns="http://www.w3.org/2000/svg" height="100px" version="1.0" viewBox="0 0 100 100" width="100px" x="0px" y="0px">
<line fill="none" stroke="#000000" stroke-width="2" x1="61" x2="96.5" y1="21" y2="21" /><line fill="none" stroke="#000000" stroke-width="2" x1="4.5" x2="53.5" y1="19.5" y2="19.5" /><path d="M46.5,91 c27.135,-14.429 39.303,-32.792 42,-70" fill="none" stroke="#000000" stroke-width="2" /><path d="M95.5,91 c-19.975,-14.23 -29.11,-30.512 -32.5,-63" fill="none" stroke="#000000" stroke-width="2" /><path d="M50.5,49 c6.023,-11.971 11.155,-28.03 14,-44" fill="none" stroke="#000000" stroke-width="2" /><path d="M29.5,4.5 v79.0 c0,6.765 -1.234,8 -6,8 c-2.202,0 -5.407,-0.14 -10,-0.5" fill="none" stroke="#000000" stroke-width="2" /><path d="M49.5,28.5 c-3.631,8.551 -7.68,15.608 -12,21" fill="none" stroke="#000000" stroke-width="2" /><path d="M38.5,3.5 c4.055,2.864 8.584,6.507 12.5,10" fill="none" stroke="#000000" stroke-width="2" /><path d="M4.5,76.5 c7.939,-5.794 14.746,-11.973 20,-18" fill="none" stroke="#000000" stroke-width="2" /><path d="M53,75.5 c-5.4,-7.075 -11.602,-13.271 -18,-18" fill="none" stroke="#000000" stroke-width="2" /><path d="M19.5,50 c-3.27,-6.534 -7.355,-13.725 -12,-21" fill="none" stroke="#000000" stroke-width="2" /></svg>