<?xml version='1.0' encoding='utf-8'?>
<svg xmlns="http://www.w3.org/2000/svg" height="100px" version="1.0" viewBox="0 0 100 100" width="100px" x="0px" y="0px">
<line fill="none" stroke="#000000" stroke-width="2" x1="61.5" x2="96" y1="21" y2="21" /><line fill="none" stroke="#000000" stroke-width="2" x1="28.5" x2="28.5" y1="94" y2="5" /><line fill="none" stroke="#000000" stroke-width="2" x1="4" x2="53" y1="16" y2="16" /><polyline fill="none" points="10.5,54 47.5,54 47.5,30 9.5,30 9.5,55" stroke="#000000" stroke-width="2" /><path d="M47,91 c25.889,-15.312 37.051,-32.429 41,-70" fill="none" stroke="#000000" stroke-width="2" /><path d="M95,91 c-19.359,-14.23 -28.215,-30.512 -31.5,-63" fill="none" stroke="#000000" stroke-width="2" /><path d="M51,49 c6.023,-11.971 11.155,-28.03 14,-44" fill="none" stroke="#000000" stroke-width="2" /><path d="M4,85 c11.534,-10.031 19.114,-20.017 24,-31" fill="none" stroke="#000000" stroke-width="2" /><path d="M53,78 c-11.486,-7.688 -19.141,-15.514 -24,-24" fill="none" stroke="#000000" stroke-width="2" /></svg>