<?xml version='1.0' encoding='utf-8'?>
<svg xmlns="http://www.w3.org/2000/svg" height="100px" version="1.0" viewBox="0 0 100 100" width="100px" x="0px" y="0px">
<line fill="none" stroke="#000000" stroke-width="2" x1="56.5" x2="97" y1="21" y2="21" /><line fill="none" stroke="#000000" stroke-width="2" x1="10.5" x2="39.5" y1="49" y2="49" /><line fill="none" stroke="#000000" stroke-width="2" x1="10.5" x2="39.5" y1="29.5" y2="29.5" /><polyline fill="none" points="10.5,69 40.5,69 40.5,10.5 9.5,10.5 9.5,70" stroke="#000000" stroke-width="2" /><path d="M42,91 c29.719,-14.364 42.927,-32.823 46,-70" fill="none" stroke="#000000" stroke-width="2" /><path d="M96,91 c-23.158,-14.473 -33.732,-31.323 -37.5,-63" fill="none" stroke="#000000" stroke-width="2" /><path d="M44.5,49 c6.867,-11.971 12.757,-28.03 16,-44" fill="none" stroke="#000000" stroke-width="2" /><path d="M4,92 c6.631,-4.516 12.466,-10.884 16,-17" fill="none" stroke="#000000" stroke-width="2" /><path d="M43,85.5 c-3.707,-3.313 -8.621,-6.869 -14,-10" fill="none" stroke="#000000" stroke-width="2" /></svg>