<?xml version='1.0' encoding='utf-8'?>
<svg xmlns="http://www.w3.org/2000/svg" height="100px" version="1.0" viewBox="0 0 100 100" width="100px" x="0px" y="0px">
<line fill="none" stroke="#000000" stroke-width="2" x1="61" x2="96" y1="21" y2="21" /><line fill="none" stroke="#000000" stroke-width="2" x1="5" x2="52" y1="37" y2="37" /><line fill="none" stroke="#000000" stroke-width="2" x1="51" x2="6" y1="16.5" y2="16.5" /><line fill="none" stroke="#000000" stroke-width="2" x1="16.5" x2="16.5" y1="36" y2="5" /><line fill="none" stroke="#000000" stroke-width="2" x1="40.5" x2="40.5" y1="36" y2="5" /><line fill="none" stroke="#000000" stroke-width="2" x1="11" x2="45.5" y1="75" y2="75" /><line fill="none" stroke="#000000" stroke-width="2" x1="11" x2="45.5" y1="61" y2="61" /><path d="M51,91 c23.994,-15.312 34.34,-32.429 38,-70" fill="none" stroke="#000000" stroke-width="2" /><path d="M95,91 c-19.668,-14.23 -28.662,-30.512 -32,-63" fill="none" stroke="#000000" stroke-width="2" /><path d="M50.5,49 c6.023,-11.971 11.155,-28.03 14,-44" fill="none" stroke="#000000" stroke-width="2" /><path d="M10,93 v-46.0 h36.5 v39.96 c0,4.282 -0.293,4.54 -5.5,4.54 c-1.858,0 -5.118,-0.159 -10.5,-0.5" fill="none" stroke="#000000" stroke-width="2" /></svg>