<?xml version='1.0' encoding='utf-8'?>
<svg xmlns="http://www.w3.org/2000/svg" height="100px" version="1.0" viewBox="0 0 100 100" width="100px" x="0px" y="0px">
<line fill="none" stroke="#000000" stroke-width="2" x1="4" x2="54.5" y1="16" y2="16" /><line fill="none" stroke="#000000" stroke-width="2" x1="18" x2="18" y1="27.5" y2="5" /><line fill="none" stroke="#000000" stroke-width="2" x1="40" x2="40" y1="27.5" y2="5" /><line fill="none" stroke="#000000" stroke-width="2" x1="62" x2="96" y1="21" y2="21" /><polyline fill="none" points="13,81.5 13,45 35,45 35,74 14,74" stroke="#000000" stroke-width="2" /><path d="M2.5,56.5 c5.646,-8.645 9.803,-18.971 12,-30" fill="none" stroke="#000000" stroke-width="2" /><path d="M41,91.5 c-2.984,0 -8.39,-0.353 -14,-1" fill="none" stroke="#000000" stroke-width="2" /><path d="M12.5,34 H49.0 c-1.224,54.962 -2.8,57.5 -8,57.5" fill="none" stroke="#000000" stroke-width="2" /><path d="M51,91 c23.994,-15.312 34.34,-32.429 38,-70" fill="none" stroke="#000000" stroke-width="2" /><path d="M95,91 c-19.668,-14.23 -28.662,-30.512 -32,-63" fill="none" stroke="#000000" stroke-width="2" /><path d="M51.5,49 c6.023,-11.971 11.155,-28.03 14,-44" fill="none" stroke="#000000" stroke-width="2" /></svg>