<?xml version='1.0' encoding='utf-8'?>
<svg xmlns="http://www.w3.org/2000/svg" height="100px" version="1.0" viewBox="0 0 100 100" width="100px" x="0px" y="0px">
<line fill="none" stroke="#000000" stroke-width="2" x1="61.5" x2="96" y1="14.5" y2="14.5" /><line fill="none" stroke="#000000" stroke-width="2" x1="28.5" x2="28.5" y1="56" y2="5" /><line fill="none" stroke="#000000" stroke-width="2" x1="4.5" x2="53" y1="12" y2="12" /><line fill="none" stroke="#000000" stroke-width="2" x1="7" x2="93" y1="89.5" y2="89.5" /><line fill="none" stroke="#000000" stroke-width="2" x1="10" x2="90" y1="60" y2="60" /><line fill="none" stroke="#000000" stroke-width="2" x1="85" x2="50" y1="74" y2="74" /><line fill="none" stroke="#000000" stroke-width="2" x1="50" x2="50" y1="89.5" y2="60" /><line fill="none" stroke="#000000" stroke-width="2" x1="27" x2="27" y1="89.5" y2="68.5" /><polyline fill="none" points="11,34.5 47.5,34.5 47.5,21 10,21 10,35.5" stroke="#000000" stroke-width="2" /><path d="M46.5,55.5 c27.078,-9.476 37.301,-20.182 41,-41" fill="none" stroke="#000000" stroke-width="2" /><path d="M95.5,56 c-21.316,-9.816 -30.48,-20.33 -35,-39.5" fill="none" stroke="#000000" stroke-width="2" /><path d="M51,31 c6.023,-7.081 11.155,-16.552 14,-26" fill="none" stroke="#000000" stroke-width="2" /><path d="M4.5,55.5 c11.293,-6.795 18.666,-13.593 23.5,-21" fill="none" stroke="#000000" stroke-width="2" /><path d="M51,48.5 c-10.567,-4.457 -17.529,-9.08 -22,-14" fill="none" stroke="#000000" stroke-width="2" /></svg>