<?xml version='1.0' encoding='utf-8'?>
<svg xmlns="http://www.w3.org/2000/svg" height="100px" version="1.0" viewBox="0 0 100 100" width="100px" x="0px" y="0px">
<line fill="none" stroke="#000000" stroke-width="2" x1="36.5" x2="96.5" y1="73" y2="62" /><line fill="none" stroke="#000000" stroke-width="2" x1="83.5" x2="83.5" y1="94" y2="6" /><line fill="none" stroke="#000000" stroke-width="2" x1="22.5" x2="22.5" y1="94" y2="6" /><line fill="none" stroke="#000000" stroke-width="2" x1="39.5" x2="4.5" y1="39" y2="39" /><path d="M36.5,66.5 c-4.168,-8.488 -8.928,-17.792 -13.5,-26.5" fill="none" stroke="#000000" stroke-width="2" /><path d="M74,33.5 c-5.56,-6.296 -11.952,-12.713 -19.5,-19.5" fill="none" stroke="#000000" stroke-width="2" /><path d="M66,56 c-5.541,-6.319 -12.452,-13.213 -20,-20" fill="none" stroke="#000000" stroke-width="2" /><path d="M3.5,79.5 c8.893,-13.39 14.733,-26.336 18.5,-41" fill="none" stroke="#000000" stroke-width="2" /><path d="M15.5,34 c-2.898,-7.817 -6.243,-15.581 -9.5,-22" fill="none" stroke="#000000" stroke-width="2" /><path d="M29.5,34 c3.858,-7.186 7.354,-15.65 9.5,-23" fill="none" stroke="#000000" stroke-width="2" /></svg>