<?xml version='1.0' encoding='utf-8'?>
<svg xmlns="http://www.w3.org/2000/svg" height="100px" version="1.0" viewBox="0 0 100 100" width="100px" x="0px" y="0px">
<line fill="none" stroke="#000000" stroke-width="2" x1="94.5" x2="49.5" y1="16" y2="16" /><line fill="none" stroke="#000000" stroke-width="2" x1="22" x2="22" y1="20" y2="4" /><line fill="none" stroke="#000000" stroke-width="2" x1="3.5" x2="40.5" y1="20" y2="20" /><line fill="none" stroke="#000000" stroke-width="2" x1="55" x2="55" y1="39" y2="93" /><path d="M3.5,92 c8.286,-14.518 12,-31.673 12,-71" fill="none" stroke="#000000" stroke-width="2" /><path d="M37,35 c7.529,-8.344 13.897,-19.521 17.5,-31" fill="none" stroke="#000000" stroke-width="2" /><path d="M15,39 h21.0 c0,45.82 -2.874,51 -8,51 c-2.062,0 -6.498,-0.386 -11,-1" fill="none" stroke="#000000" stroke-width="2" /><path d="M94,41.5 c-6.282,6.43 -13.52,11.927 -21,16" fill="none" stroke="#000000" stroke-width="2" /><path d="M84,21 c-11.179,10.149 -26.541,18.513 -43,23" fill="none" stroke="#000000" stroke-width="2" /><path d="M65,34.5 c5.117,21.686 17.141,43.409 31.5,57.5" fill="none" stroke="#000000" stroke-width="2" /></svg>