<?xml version='1.0' encoding='utf-8'?>
<svg xmlns="http://www.w3.org/2000/svg" height="100px" version="1.0" viewBox="0 0 100 100" width="100px" x="0px" y="0px">
<line fill="none" stroke="#000000" stroke-width="2" x1="21.5" x2="21.5" y1="20" y2="4" /><line fill="none" stroke="#000000" stroke-width="2" x1="3.5" x2="39.5" y1="20" y2="20" /><line fill="none" stroke="#000000" stroke-width="2" x1="94.5" x2="48.5" y1="16" y2="16" /><line fill="none" stroke="#000000" stroke-width="2" x1="92.5" x2="54" y1="36" y2="36" /><line fill="none" stroke="#000000" stroke-width="2" x1="94.5" x2="40.5" y1="59" y2="59" /><path d="M3.5,92 c8.286,-14.722 12,-32.118 12,-72" fill="none" stroke="#000000" stroke-width="2" /><path d="M15,39 h20.0 c0,45.821 -2.874,51 -8,51 c-2.062,0 -6.498,-0.386 -11,-1" fill="none" stroke="#000000" stroke-width="2" /><path d="M36,35 c7.529,-8.344 13.897,-19.521 17.5,-31" fill="none" stroke="#000000" stroke-width="2" /><path d="M42.5,50.5 c7.303,-6.838 13.572,-16.658 17,-26.5" fill="none" stroke="#000000" stroke-width="2" /><path d="M36.5,92.5 c20.101,-5.728 33,-20.435 33,-36.5 v-20.0" fill="none" stroke="#000000" stroke-width="2" /><path d="M95.5,92.5 c-16.119,-7.005 -26,-20.847 -26,-36.5" fill="none" stroke="#000000" stroke-width="2" /></svg>