<?xml version='1.0' encoding='utf-8'?>
<svg xmlns="http://www.w3.org/2000/svg" height="100px" version="1.0" viewBox="0 0 100 100" width="100px" x="0px" y="0px">
<line fill="none" stroke="#000000" stroke-width="2" x1="94.5" x2="46" y1="16" y2="16" /><line fill="none" stroke="#000000" stroke-width="2" x1="50.5" x2="50.5" y1="20" y2="71.5" /><line fill="none" stroke="#000000" stroke-width="2" x1="93.5" x2="42.5" y1="29" y2="29" /><line fill="none" stroke="#000000" stroke-width="2" x1="83.5" x2="83.5" y1="71.5" y2="20" /><line fill="none" stroke="#000000" stroke-width="2" x1="38.5" x2="95.5" y1="72.5" y2="72.5" /><line fill="none" stroke="#000000" stroke-width="2" x1="51.5" x2="82.5" y1="57.5" y2="57.5" /><line fill="none" stroke="#000000" stroke-width="2" x1="51.5" x2="82.5" y1="43" y2="43" /><line fill="none" stroke="#000000" stroke-width="2" x1="21.5" x2="21.5" y1="20" y2="4" /><line fill="none" stroke="#000000" stroke-width="2" x1="3.5" x2="39.5" y1="20" y2="20" /><path d="M33.5,33 c7.529,-7.806 13.897,-18.263 17.5,-29" fill="none" stroke="#000000" stroke-width="2" /><path d="M37.5,91.5 c9.041,-3.86 16.855,-9.085 21.5,-14" fill="none" stroke="#000000" stroke-width="2" /><path d="M94.5,92 c-5.552,-4.852 -13.217,-10.059 -21.5,-14.5" fill="none" stroke="#000000" stroke-width="2" /><path d="M3.5,92 c8.286,-14.518 12,-31.673 12,-71" fill="none" stroke="#000000" stroke-width="2" /><path d="M15,39 h20.0 c0,45.82 -2.874,51 -8,51 c-2.062,0 -6.498,-0.386 -11,-1" fill="none" stroke="#000000" stroke-width="2" /></svg>