<?xml version='1.0' encoding='utf-8'?>
<svg xmlns="http://www.w3.org/2000/svg" height="100px" version="1.0" viewBox="0 0 100 100" width="100px" x="0px" y="0px">
<line fill="none" stroke="#000000" stroke-width="2" x1="50" x2="50" y1="42" y2="34" /><line fill="none" stroke="#000000" stroke-width="2" x1="5.5" x2="94.5" y1="42" y2="42" /><line fill="none" stroke="#000000" stroke-width="2" x1="16" x2="84" y1="21" y2="21" /><polyline fill="none" points="20,68.5 81,68.5 81,50.5 19,50.5 19,69.5" stroke="#000000" stroke-width="2" /><polyline fill="none" points="16,33 85,33 85,9.5 15,9.5 15,34" stroke="#000000" stroke-width="2" /><path d="M51,69.5 v17.5 c0,4.812 -0.75,5.5 -7.5,5.5 c-3.135,0 -7.995,-0.164 -14.5,-0.5" fill="none" stroke="#000000" stroke-width="2" /><path d="M8,90 c9.645,-4.167 18.354,-10.307 24,-16.5" fill="none" stroke="#000000" stroke-width="2" /><path d="M92,91 c-7.467,-6.163 -16.578,-12.345 -26,-17.5" fill="none" stroke="#000000" stroke-width="2" /></svg>