<?xml version='1.0' encoding='utf-8'?>
<svg xmlns="http://www.w3.org/2000/svg" height="100px" version="1.0" viewBox="0 0 100 100" width="100px" x="0px" y="0px">
<line fill="none" stroke="#000000" stroke-width="2" x1="14.5" x2="14.5" y1="43.5" y2="86" /><line fill="none" stroke="#000000" stroke-width="2" x1="45" x2="45" y1="94.5" y2="43.5" /><line fill="none" stroke="#000000" stroke-width="2" x1="15.5" x2="44" y1="70" y2="70" /><line fill="none" stroke="#000000" stroke-width="2" x1="15.5" x2="44" y1="55.5" y2="55.5" /><line fill="none" stroke="#000000" stroke-width="2" x1="50" x2="90" y1="53" y2="53" /><line fill="none" stroke="#000000" stroke-width="2" x1="5" x2="95" y1="42.5" y2="42.5" /><line fill="none" stroke="#000000" stroke-width="2" x1="16" x2="84" y1="21.5" y2="21.5" /><polyline fill="none" points="16,33.5 85,33.5 85,10 15,10 15,34.5" stroke="#000000" stroke-width="2" /><path d="M4,87.5 c12.822,-1.491 27.212,-3.974 41,-7" fill="none" stroke="#000000" stroke-width="2" /><path d="M50,91 c20.17,-6.759 33.121,-19.244 39.05,-37.312" fill="none" stroke="#000000" stroke-width="2" /><path d="M94,91 c-17.01,-6.177 -28.633,-16.732 -37,-34" fill="none" stroke="#000000" stroke-width="2" /></svg>