<?xml version='1.0' encoding='utf-8'?>
<svg xmlns="http://www.w3.org/2000/svg" height="100px" version="1.0" viewBox="0 0 100 100" width="100px" x="0px" y="0px">
<line fill="none" stroke="#000000" stroke-width="2" x1="48" x2="91" y1="37.5" y2="37.5" /><line fill="none" stroke="#000000" stroke-width="2" x1="12.5" x2="35.5" y1="59" y2="59" /><line fill="none" stroke="#000000" stroke-width="2" x1="13.5" x2="35.5" y1="33.5" y2="33.5" /><path d="M52.5,92.5 c19.165,-11.579 34.1,-32.945 37.513,-54.159" fill="none" stroke="#000000" stroke-width="2" /><path d="M94,92.5 c-17.196,-10.899 -31.333,-29.31 -37.5,-49" fill="none" stroke="#000000" stroke-width="2" /><path d="M84,27 c-4.786,0 -12.188,-0.161 -21.5,-0.5" fill="none" stroke="#000000" stroke-width="2" /><path d="M47,93.5 V10.0 h44.0 c-1.85,15.991 -2.767,17 -7,17" fill="none" stroke="#000000" stroke-width="2" /><path d="M5,92.5 c5.182,-10.79 7.5,-23.128 7.5,-46.5 v-36.0 h24.0 v73.0 c0,7.729 -0.241,8 -5,8 c-1.883,0 -5.918,-0.159 -11.5,-0.5" fill="none" stroke="#000000" stroke-width="2" /></svg>