<?xml version='1.0' encoding='utf-8'?>
<svg xmlns="http://www.w3.org/2000/svg" height="100px" version="1.0" viewBox="0 0 100 100" width="100px" x="0px" y="0px">
<line fill="none" stroke="#000000" stroke-width="2" x1="92" x2="8" y1="89.5" y2="89.5" /><line fill="none" stroke="#000000" stroke-width="2" x1="88" x2="12" y1="59" y2="59" /><line fill="none" stroke="#000000" stroke-width="2" x1="83" x2="17" y1="73.5" y2="73.5" /><line fill="none" stroke="#000000" stroke-width="2" x1="50" x2="50" y1="88.5" y2="60" /><line fill="none" stroke="#000000" stroke-width="2" x1="55.5" x2="88.5" y1="36.5" y2="36.5" /><line fill="none" stroke="#000000" stroke-width="2" x1="58.5" x2="90" y1="23.5" y2="23.5" /><line fill="none" stroke="#000000" stroke-width="2" x1="8" x2="50.5" y1="16.5" y2="16.5" /><line fill="none" stroke="#000000" stroke-width="2" x1="29.5" x2="29.5" y1="16.5" y2="6" /><path d="M45,52.5 c8.997,-7.705 14,-20.343 14,-42 h31.5 c0,30.219 -4.941,40 -10.5,40 c-3.179,0 -8.268,-0.385 -12.5,-1" fill="none" stroke="#000000" stroke-width="2" /><path d="M45,45 c-5.114,0.688 -9.984,1 -14.5,1 c-3.179,0 -5.766,-0.05 -9,-0.2 c-4.704,-0.219 -5,-0.458 -5,-5.8 v-23.5" fill="none" stroke="#000000" stroke-width="2" /></svg>