<?xml version='1.0' encoding='utf-8'?>
<svg xmlns="http://www.w3.org/2000/svg" height="100px" version="1.0" viewBox="0 0 100 100" width="100px" x="0px" y="0px">
<line fill="none" stroke="#000000" stroke-width="2" x1="20" x2="20" y1="94" y2="6" /><line fill="none" stroke="#000000" stroke-width="2" x1="35" x2="5" y1="25.5" y2="25.5" /><path d="M96,92.5 c-4.281,-11.451 -10.496,-25.868 -16,-37" fill="none" stroke="#000000" stroke-width="2" /><path d="M32.5,89.5 c18.311,-0.878 39.203,-3.694 59,-8" fill="none" stroke="#000000" stroke-width="2" /><path d="M45.5,88.5 c4.89,-14.841 9.776,-33.021 14,-52" fill="none" stroke="#000000" stroke-width="2" /><path d="M53.5,10.5 c-4.22,13.806 -10.697,26.302 -19,37" fill="none" stroke="#000000" stroke-width="2" /><path d="M75.5,10.5 c4.664,13.806 11.815,26.295 21,37" fill="none" stroke="#000000" stroke-width="2" /><path d="M4,69.5 c7.473,-14.471 12.377,-28.562 15.5,-44.5" fill="none" stroke="#000000" stroke-width="2" /><path d="M32,58.5 c-3.664,-10.331 -7.621,-21.329 -11.5,-32" fill="none" stroke="#000000" stroke-width="2" /></svg>