<?xml version='1.0' encoding='utf-8'?>
<svg xmlns="http://www.w3.org/2000/svg" height="100px" version="1.0" viewBox="0 0 100 100" width="100px" x="0px" y="0px">
<line fill="none" stroke="#000000" stroke-width="2" x1="92" x2="8" y1="58.5" y2="58.5" /><line fill="none" stroke="#000000" stroke-width="2" x1="50" x2="50" y1="94" y2="48" /><polyline fill="none" points="58,44.5 89,44.5 89,13 57,13 57,45.5" stroke="#000000" stroke-width="2" /><path d="M6,90 c21.834,-10.667 35.053,-20.897 43,-31.5" fill="none" stroke="#000000" stroke-width="2" /><path d="M94,90 c-21.834,-10.667 -35.053,-20.897 -43,-31.5" fill="none" stroke="#000000" stroke-width="2" /><path d="M6,49 c14.739,-10.71 20,-21.636 20,-45" fill="none" stroke="#000000" stroke-width="2" /><path d="M9,16.5 h38.0 c0,24.909 -2.326,28.5 -9.5,28.5 c-3.36,0 -8.532,-0.192 -13,-0.5" fill="none" stroke="#000000" stroke-width="2" /></svg>