<?xml version='1.0' encoding='utf-8'?>
<svg xmlns="http://www.w3.org/2000/svg" height="100px" version="1.0" viewBox="0 0 100 100" width="100px" x="0px" y="0px">
<line fill="none" stroke="#000000" stroke-width="2" x1="50" x2="50" y1="93.5" y2="27" /><line fill="none" stroke="#000000" stroke-width="2" x1="92" x2="8" y1="46" y2="46" /><polyline fill="none" points="89,39 89,21 11,21 11,39" stroke="#000000" stroke-width="2" /><path d="M6,86.5 c20.928,-13.217 34.841,-26.857 43,-40.5" fill="none" stroke="#000000" stroke-width="2" /><path d="M94,86.5 c-20.928,-13.217 -34.841,-26.857 -43,-40.5" fill="none" stroke="#000000" stroke-width="2" /><path d="M30,21 c-3.097,-5.587 -6.549,-10.931 -10,-15.5" fill="none" stroke="#000000" stroke-width="2" /><path d="M53,21 c-3.098,-5.946 -6.549,-11.636 -10,-16.5" fill="none" stroke="#000000" stroke-width="2" /><path d="M68,21 c4.654,-5.526 8.771,-11.229 12,-16.5" fill="none" stroke="#000000" stroke-width="2" /></svg>