<?xml version='1.0' encoding='utf-8'?>
<svg xmlns="http://www.w3.org/2000/svg" height="100px" version="1.0" viewBox="0 0 100 100" width="100px" x="0px" y="0px">
<line fill="none" stroke="#000000" stroke-width="2" x1="20" x2="20" y1="94" y2="6" /><line fill="none" stroke="#000000" stroke-width="2" x1="35" x2="5" y1="25.5" y2="25.5" /><line fill="none" stroke="#000000" stroke-width="2" x1="95" x2="29" y1="49.5" y2="49.5" /><path d="M4,69.5 c7.473,-14.471 12.377,-28.562 15.5,-44.5" fill="none" stroke="#000000" stroke-width="2" /><path d="M32,58.5 c-3.664,-10.331 -7.621,-21.329 -11.5,-32" fill="none" stroke="#000000" stroke-width="2" /><path d="M27,91.5 c26.438,-4.707 48.469,-21.152 57,-42" fill="none" stroke="#000000" stroke-width="2" /><path d="M57,35.5 c-5.719,13.321 -13.339,25.626 -23,37.152" fill="none" stroke="#000000" stroke-width="2" /><path d="M38,67.5 c17.863,4.486 33.675,11.524 55,25" fill="none" stroke="#000000" stroke-width="2" /><path d="M45,33.5 c-3.354,-9.511 -7.031,-17.83 -10.5,-24" fill="none" stroke="#000000" stroke-width="2" /><path d="M66.5,31.5 c-3.223,-9.694 -6.795,-18.192 -10.5,-25" fill="none" stroke="#000000" stroke-width="2" /><path d="M76.5,39.5 c5.77,-8.212 11.383,-19.387 16,-32" fill="none" stroke="#000000" stroke-width="2" /></svg>