<?xml version='1.0' encoding='utf-8'?>
<svg xmlns="http://www.w3.org/2000/svg" height="100px" version="1.0" viewBox="0 0 100 100" width="100px" x="0px" y="0px">
<line fill="none" stroke="#000000" stroke-width="2" x1="18.5" x2="18.5" y1="94" y2="6" /><line fill="none" stroke="#000000" stroke-width="2" x1="30.5" x2="4.5" y1="26" y2="26" /><line fill="none" stroke="#000000" stroke-width="2" x1="31.5" x2="95.5" y1="18.5" y2="18.5" /><line fill="none" stroke="#000000" stroke-width="2" x1="31.5" x2="69.5" y1="49.5" y2="49.5" /><line fill="none" stroke="#000000" stroke-width="2" x1="60" x2="60" y1="80.5" y2="26" /><path d="M3.5,70 c6.99,-14.471 11.578,-28.562 14.5,-44.5" fill="none" stroke="#000000" stroke-width="2" /><path d="M30.5,59 c-3.664,-10.331 -7.621,-21.329 -11.5,-32" fill="none" stroke="#000000" stroke-width="2" /><path d="M91.5,31 c-6.403,30.089 -18.139,47.376 -39,60" fill="none" stroke="#000000" stroke-width="2" /><path d="M71.5,4.5 c0,59.849 15.213,86.5 18.5,86.5 c1.781,0 4.375,-2.614 6,-23" fill="none" stroke="#000000" stroke-width="2" /><path d="M77.5,4.5 c4.775,3.049 9.523,6.589 13.5,10" fill="none" stroke="#000000" stroke-width="2" /><path d="M33.5,91 c6.348,-9.629 9.5,-22.115 9.5,-44.149 V26.0" fill="none" stroke="#000000" stroke-width="2" /></svg>