<?xml version='1.0' encoding='utf-8'?>
<svg xmlns="http://www.w3.org/2000/svg" height="100px" version="1.0" viewBox="0 0 100 100" width="100px" x="0px" y="0px">
<line fill="none" stroke="#000000" stroke-width="2" x1="18.5" x2="18.5" y1="94" y2="6" /><line fill="none" stroke="#000000" stroke-width="2" x1="30.5" x2="4.5" y1="26" y2="26" /><line fill="none" stroke="#000000" stroke-width="2" x1="49" x2="88" y1="43" y2="43" /><line fill="none" stroke="#000000" stroke-width="2" x1="49" x2="88" y1="58.5" y2="58.5" /><line fill="none" stroke="#000000" stroke-width="2" x1="31.5" x2="95.5" y1="14.5" y2="14.5" /><line fill="none" stroke="#000000" stroke-width="2" x1="36" x2="36" y1="29" y2="94" /><line fill="none" stroke="#000000" stroke-width="2" x1="37" x2="95.5" y1="87" y2="87" /><polyline fill="none" points="49,74.5 89,74.5 89,28 48,28 48,75.5" stroke="#000000" stroke-width="2" /><path d="M3.5,70 c6.99,-14.471 11.578,-28.562 14.5,-44.5" fill="none" stroke="#000000" stroke-width="2" /><path d="M30.5,59 c-3.664,-10.331 -7.621,-21.329 -11.5,-32" fill="none" stroke="#000000" stroke-width="2" /><path d="M66,5 c-1.16,8.443 -2.449,15.928 -4,23" fill="none" stroke="#000000" stroke-width="2" /></svg>