<?xml version='1.0' encoding='utf-8'?>
<svg xmlns="http://www.w3.org/2000/svg" height="100px" version="1.0" viewBox="0 0 100 100" width="100px" x="0px" y="0px">
<line fill="none" stroke="#000000" stroke-width="2" x1="25" x2="95" y1="89" y2="89" /><line fill="none" stroke="#000000" stroke-width="2" x1="94" x2="26" y1="11" y2="11" /><line fill="none" stroke="#000000" stroke-width="2" x1="67" x2="92" y1="28.5" y2="28.5" /><line fill="none" stroke="#000000" stroke-width="2" x1="17.5" x2="17.5" y1="94" y2="6" /><line fill="none" stroke="#000000" stroke-width="2" x1="29.5" x2="3.5" y1="25" y2="25" /><polyline fill="none" points="30.5,69 49.5,69 49.5,32 29.5,32 29.5,70" stroke="#000000" stroke-width="2" /><path d="M47.5,11 c-0.854,7.479 -1.879,14.683 -3,21" fill="none" stroke="#000000" stroke-width="2" /><path d="M45.5,26 h17.5 c-1.846,54.333 -2.015,54.5 -8,54.5 c-2.646,0 -6.527,-0.137 -12,-0.5" fill="none" stroke="#000000" stroke-width="2" /><path d="M66,77.5 c13.234,-10.059 21.65,-25.016 25.01,-48.144" fill="none" stroke="#000000" stroke-width="2" /><path d="M95,77.5 c-10.84,-10.001 -19.67,-25.427 -24,-43" fill="none" stroke="#000000" stroke-width="2" /><path d="M2.5,69 c6.99,-14.471 11.578,-28.562 14.5,-44.5" fill="none" stroke="#000000" stroke-width="2" /><path d="M29.5,58 c-3.664,-10.331 -7.621,-21.329 -11.5,-32" fill="none" stroke="#000000" stroke-width="2" /></svg>