<?xml version='1.0' encoding='utf-8'?>
<svg xmlns="http://www.w3.org/2000/svg" height="100px" version="1.0" viewBox="0 0 100 100" width="100px" x="0px" y="0px">
<line fill="none" stroke="#000000" stroke-width="2" x1="29.5" x2="93.5" y1="13" y2="13" /><line fill="none" stroke="#000000" stroke-width="2" x1="32" x2="92" y1="25" y2="25" /><line fill="none" stroke="#000000" stroke-width="2" x1="49" x2="49" y1="36" y2="5" /><line fill="none" stroke="#000000" stroke-width="2" x1="74" x2="74" y1="36" y2="5" /><line fill="none" stroke="#000000" stroke-width="2" x1="25" x2="97" y1="76" y2="76" /><line fill="none" stroke="#000000" stroke-width="2" x1="35" x2="88" y1="61.5" y2="61.5" /><line fill="none" stroke="#000000" stroke-width="2" x1="61.5" x2="61.5" y1="38" y2="76" /><line fill="none" stroke="#000000" stroke-width="2" x1="96" x2="27" y1="37" y2="37" /><line fill="none" stroke="#000000" stroke-width="2" x1="18" x2="18" y1="94" y2="6" /><line fill="none" stroke="#000000" stroke-width="2" x1="29.5" x2="4" y1="25" y2="25" /><path d="M34,94 v-47.0 h55.0 v38.0 c0,6.489 -0.452,7 -6,7 c-2.018,0 -6.016,-0.161 -12,-0.5" fill="none" stroke="#000000" stroke-width="2" /><path d="M29,56 c-3.176,-9.562 -6.975,-20.302 -10.5,-30" fill="none" stroke="#000000" stroke-width="2" /><path d="M3,69 c6.99,-14.471 11.578,-28.562 14.5,-44.5" fill="none" stroke="#000000" stroke-width="2" /></svg>