<?xml version='1.0' encoding='utf-8'?>
<svg xmlns="http://www.w3.org/2000/svg" height="100px" version="1.0" viewBox="0 0 100 100" width="100px" x="0px" y="0px">
<line fill="none" stroke="#000000" stroke-width="2" x1="19.5" x2="19.5" y1="94" y2="6" /><line fill="none" stroke="#000000" stroke-width="2" x1="33" x2="4.5" y1="26" y2="26" /><line fill="none" stroke="#000000" stroke-width="2" x1="34.5" x2="93.5" y1="18.5" y2="18.5" /><line fill="none" stroke="#000000" stroke-width="2" x1="36" x2="92" y1="34" y2="34" /><line fill="none" stroke="#000000" stroke-width="2" x1="33" x2="95" y1="50" y2="50" /><path d="M3.5,70 c7.473,-14.471 12.377,-28.562 15.5,-44.5" fill="none" stroke="#000000" stroke-width="2" /><path d="M31.5,59 c-3.664,-10.331 -7.621,-21.329 -11.5,-32" fill="none" stroke="#000000" stroke-width="2" /><path d="M64.5,18.5 v65.5 c0,6.687 -1.236,8 -7,8 c-2.615,0 -6.546,-0.14 -12,-0.5" fill="none" stroke="#000000" stroke-width="2" /><path d="M64.5,52.5 c5.594,14.462 17.715,28.662 32,37.5" fill="none" stroke="#000000" stroke-width="2" /><path d="M91.5,54.5 c-4.609,6.448 -10.07,12.257 -16,17" fill="none" stroke="#000000" stroke-width="2" /><path d="M30.5,88 c14.001,-6.878 25.698,-14.975 34,-23" fill="none" stroke="#000000" stroke-width="2" /><path d="M50,70.5 c-3.164,-4.685 -7.597,-10.393 -12.5,-16" fill="none" stroke="#000000" stroke-width="2" /><path d="M53.5,16 c-2.02,-3.817 -4.361,-7.826 -6.5,-11" fill="none" stroke="#000000" stroke-width="2" /><path d="M75,18.5 c3.021,-4.449 5.896,-9.301 8,-13.5" fill="none" stroke="#000000" stroke-width="2" /></svg>