<?xml version='1.0' encoding='utf-8'?>
<svg xmlns="http://www.w3.org/2000/svg" height="100px" version="1.0" viewBox="0 0 100 100" width="100px" x="0px" y="0px">
<line fill="none" stroke="#000000" stroke-width="2" x1="18" x2="18" y1="94" y2="6" /><line fill="none" stroke="#000000" stroke-width="2" x1="30" x2="4" y1="26" y2="26" /><line fill="none" stroke="#000000" stroke-width="2" x1="26" x2="95.5" y1="57.5" y2="57.5" /><line fill="none" stroke="#000000" stroke-width="2" x1="56" x2="26" y1="45.5" y2="48" /><line fill="none" stroke="#000000" stroke-width="2" x1="93" x2="63.5" y1="44" y2="46.5" /><path d="M3,70 c6.99,-14.471 11.578,-28.562 14.5,-44.5" fill="none" stroke="#000000" stroke-width="2" /><path d="M27.5,53 c-2.801,-8.549 -5.887,-17.435 -9,-26" fill="none" stroke="#000000" stroke-width="2" /><path d="M87.5,63 c-8.352,13.063 -20.146,22.411 -36.5,28.5" fill="none" stroke="#000000" stroke-width="2" /><path d="M39,57.5 c-0.16,13.493 -6.211,27.1 -14.5,34.5" fill="none" stroke="#000000" stroke-width="2" /><path d="M38,66 c4.872,6.251 11.547,11.772 19,15.5" fill="none" stroke="#000000" stroke-width="2" /><path d="M60.5,6 c0,72.198 20.599,85.5 29,85.5 c1.926,0 4.743,-1.932 6.5,-17" fill="none" stroke="#000000" stroke-width="2" /><path d="M78,49.5 c2.854,2.505 5.885,5.348 8.5,8" fill="none" stroke="#000000" stroke-width="2" /><path d="M42,34 c-4.227,-4.841 -9.336,-10.508 -14,-15.5" fill="none" stroke="#000000" stroke-width="2" /><path d="M58.5,53 c-1.98,-6.971 -4.938,-16.11 -7.5,-23" fill="none" stroke="#000000" stroke-width="2" /><path d="M32.5,47.5 c8.004,-10.499 15.146,-21.399 21.5,-33" fill="none" stroke="#000000" stroke-width="2" /><path d="M32,23 c3.928,-5.384 7.311,-10.743 10.5,-16.5" fill="none" stroke="#000000" stroke-width="2" /><path d="M79,33.5 c-3.977,-4.718 -9.118,-10.627 -13.5,-15.5" fill="none" stroke="#000000" stroke-width="2" /><path d="M95,51 c-1.855,-6.704 -4.576,-15.365 -7,-22" fill="none" stroke="#000000" stroke-width="2" /><path d="M70,46 c7.807,-9.983 14.937,-20.833 21,-32" fill="none" stroke="#000000" stroke-width="2" /><path d="M69.5,22.5 c3.717,-5.207 6.988,-10.437 10,-16" fill="none" stroke="#000000" stroke-width="2" /></svg>