<?xml version='1.0' encoding='utf-8'?>
<svg xmlns="http://www.w3.org/2000/svg" height="100px" version="1.0" viewBox="0 0 100 100" width="100px" x="0px" y="0px">
<line fill="none" stroke="#000000" stroke-width="2" x1="5.5" x2="43.5" y1="11.5" y2="11.5" /><line fill="none" stroke="#000000" stroke-width="2" x1="17.5" x2="37.5" y1="29" y2="29" /><line fill="none" stroke="#000000" stroke-width="2" x1="38.5" x2="94" y1="57" y2="52.5" /><line fill="none" stroke="#000000" stroke-width="2" x1="42.5" x2="90" y1="37.5" y2="34.5" /><line fill="none" stroke="#000000" stroke-width="2" x1="38.5" x2="92" y1="20" y2="17" /><path d="M4.5,59.5 c7.936,-12.451 13.933,-29.251 16.5,-48" fill="none" stroke="#000000" stroke-width="2" /><path d="M36.5,29.965 c-0.98,27.903 -13.546,51.281 -30,61.035" fill="none" stroke="#000000" stroke-width="2" /><path d="M31,58.5 c-4.643,-3.688 -10.316,-7.72 -15.5,-11" fill="none" stroke="#000000" stroke-width="2" /><path d="M87.5,57.5 c-12.675,14.7 -31.143,25.862 -57,33" fill="none" stroke="#000000" stroke-width="2" /><path d="M63,6 c0,72.198 15.667,85.5 25,85.5 c2.48,0 4.934,-3.568 6.5,-17" fill="none" stroke="#000000" stroke-width="2" /><path d="M73,6 c4.412,2.214 9.367,4.978 13.5,7.5" fill="none" stroke="#000000" stroke-width="2" /></svg>