<?xml version='1.0' encoding='utf-8'?>
<svg xmlns="http://www.w3.org/2000/svg" height="100px" version="1.0" viewBox="0 0 100 100" width="100px" x="0px" y="0px">
<line fill="none" stroke="#000000" stroke-width="2" x1="5.5" x2="94.5" y1="38.5" y2="38.5" /><line fill="none" stroke="#000000" stroke-width="2" x1="90" x2="10" y1="13.5" y2="13.5" /><line fill="none" stroke="#000000" stroke-width="2" x1="85.5" x2="14.5" y1="26" y2="26" /><line fill="none" stroke="#000000" stroke-width="2" x1="50" x2="50" y1="38.5" y2="5" /><line fill="none" stroke="#000000" stroke-width="2" x1="5" x2="95" y1="63.5" y2="63.5" /><line fill="none" stroke="#000000" stroke-width="2" x1="13.5" x2="91" y1="82" y2="82" /><path d="M11,90 c4.314,-12.396 8.743,-28.946 11.5,-43 H82.0 c-2.037,13.563 -5.311,29.535 -8.5,41.5 c-1.006,3.775 -2.246,4.5 -9.5,4.5 c-2.953,0 -7.833,-0.169 -14,-0.5" fill="none" stroke="#000000" stroke-width="2" /><path d="M52,47 c-1.917,11.438 -4.998,24.909 -8,35" fill="none" stroke="#000000" stroke-width="2" /></svg>