<?xml version='1.0' encoding='utf-8'?>
<svg xmlns="http://www.w3.org/2000/svg" height="100px" version="1.0" viewBox="0 0 100 100" width="100px" x="0px" y="0px">
<line fill="none" stroke="#000000" stroke-width="2" x1="50" x2="50" y1="45.5" y2="11.5" /><line fill="none" stroke="#000000" stroke-width="2" x1="18" x2="82" y1="28" y2="28" /><line fill="none" stroke="#000000" stroke-width="2" x1="17.5" x2="47.5" y1="65" y2="65" /><line fill="none" stroke="#000000" stroke-width="2" x1="17.5" x2="17.5" y1="89.5" y2="51.5" /><polyline fill="none" points="18,46.5 83,46.5 83,10.5 17,10.5 17,47.5" stroke="#000000" stroke-width="2" /><path d="M56.5,51.5 v34.0 c0,4.278 0.281,4.527 6,4.8 c3.008,0.143 6.219,0.2 9.5,0.2 c3.397,0 6.478,-0.058 9.5,-0.2 c9.041,-0.43 9.182,-0.546 11,-16.8" fill="none" stroke="#000000" stroke-width="2" /><path d="M56.5,67.5 c12.068,-2.485 22.629,-5.827 35,-11" fill="none" stroke="#000000" stroke-width="2" /><path d="M4,91.5 c15.51,-1.764 29.475,-4.222 45.5,-8" fill="none" stroke="#000000" stroke-width="2" /></svg>