<?xml version='1.0' encoding='utf-8'?>
<svg xmlns="http://www.w3.org/2000/svg" height="100px" version="1.0" viewBox="0 0 100 100" width="100px" x="0px" y="0px">
<line fill="none" stroke="#000000" stroke-width="2" x1="39.5" x2="85.5" y1="87" y2="87" /><polyline fill="none" points="86.5,94 86.5,53 38.5,53 38.5,94" stroke="#000000" stroke-width="2" /><path d="M95.5,47.5 c-5.111,-9.48 -12.551,-20.903 -19.5,-30" fill="none" stroke="#000000" stroke-width="2" /><path d="M29.5,41 c17.403,-0.586 39.121,-2.442 59,-5" fill="none" stroke="#000000" stroke-width="2" /><path d="M38.5,40.5 c5.5,-10.206 11.127,-22.664 16,-35.5" fill="none" stroke="#000000" stroke-width="2" /><path d="M10,91.5 c7.072,-9.315 12.963,-19.819 17,-30.5" fill="none" stroke="#000000" stroke-width="2" /><path d="M27,22.5 c-4.551,-4.456 -9.955,-9.209 -16,-14" fill="none" stroke="#000000" stroke-width="2" /><path d="M23.5,45.5 c-5.014,-4.892 -10.751,-9.858 -17.5,-15" fill="none" stroke="#000000" stroke-width="2" /></svg>