<?xml version='1.0' encoding='utf-8'?>
<svg xmlns="http://www.w3.org/2000/svg" height="100px" version="1.0" viewBox="0 0 100 100" width="100px" x="0px" y="0px">
<line fill="none" stroke="#000000" stroke-width="2" x1="40" x2="87" y1="87" y2="87" /><polyline fill="none" points="88,93.5 88,54 39,54 39,93.5" stroke="#000000" stroke-width="2" /><path d="M10,91.5 c7.072,-9.315 12.963,-19.819 17,-30.5" fill="none" stroke="#000000" stroke-width="2" /><path d="M27,22.5 c-4.551,-4.456 -9.955,-9.209 -16,-14" fill="none" stroke="#000000" stroke-width="2" /><path d="M23.5,45.5 c-5.014,-4.892 -10.751,-9.858 -17.5,-15" fill="none" stroke="#000000" stroke-width="2" /><path d="M32.5,47 c15.168,-6.169 26.678,-20.997 28,-36" fill="none" stroke="#000000" stroke-width="2" /><path d="M35,11 h56.5 c0,28.422 -2.867,32.5 -8.5,32.5 c-2.98,0 -10.167,-0.233 -15,-0.5" fill="none" stroke="#000000" stroke-width="2" /></svg>