<?xml version='1.0' encoding='utf-8'?>
<svg xmlns="http://www.w3.org/2000/svg" height="100px" version="1.0" viewBox="0 0 100 100" width="100px" x="0px" y="0px">
<line fill="none" stroke="#000000" stroke-width="2" x1="36" x2="87" y1="39" y2="39" /><line fill="none" stroke="#000000" stroke-width="2" x1="63.5" x2="63.5" y1="39" y2="5" /><path d="M35.5,91 c21.447,-6.523 39.112,-23.589 50.575,-51.381" fill="none" stroke="#000000" stroke-width="2" /><path d="M95.5,91 c-22.088,-6.802 -38.547,-21.919 -48.5,-47" fill="none" stroke="#000000" stroke-width="2" /><path d="M86,33 c3.389,-4.989 5.912,-10.032 8.056,-16.323" fill="none" stroke="#000000" stroke-width="2" /><path d="M7.5,91.5 c7.072,-9.315 12.963,-19.819 17,-30.5" fill="none" stroke="#000000" stroke-width="2" /><path d="M24.5,22.5 c-4.551,-4.456 -9.955,-9.209 -16,-14" fill="none" stroke="#000000" stroke-width="2" /><path d="M21,45.5 c-5.014,-4.892 -10.751,-9.858 -17.5,-15" fill="none" stroke="#000000" stroke-width="2" /><path d="M26,91.5 c6.739,-14.092 10,-29.671 10,-51 V16.0 h59.0" fill="none" stroke="#000000" stroke-width="2" /></svg>