<?xml version='1.0' encoding='utf-8'?>
<svg xmlns="http://www.w3.org/2000/svg" height="100px" version="1.0" viewBox="0 0 100 100" width="100px" x="0px" y="0px">
<line fill="none" stroke="#000000" stroke-width="2" x1="95" x2="29" y1="68" y2="68" /><line fill="none" stroke="#000000" stroke-width="2" x1="93.5" x2="31" y1="22" y2="22" /><line fill="none" stroke="#000000" stroke-width="2" x1="91.5" x2="33" y1="44.5" y2="44.5" /><line fill="none" stroke="#000000" stroke-width="2" x1="62.5" x2="62.5" y1="94" y2="23" /><path d="M50.5,19 c-2.549,-4.979 -5.327,-9.85 -8,-14" fill="none" stroke="#000000" stroke-width="2" /><path d="M72.5,22 c3.777,-5.603 7.371,-11.711 10,-17" fill="none" stroke="#000000" stroke-width="2" /><path d="M9,91.5 c7.072,-9.315 12.963,-19.819 17,-30.5" fill="none" stroke="#000000" stroke-width="2" /><path d="M26,22.5 c-4.551,-4.456 -9.955,-9.209 -16,-14" fill="none" stroke="#000000" stroke-width="2" /><path d="M22.5,45.5 c-5.014,-4.892 -10.751,-9.858 -17.5,-15" fill="none" stroke="#000000" stroke-width="2" /></svg>