<?xml version='1.0' encoding='utf-8'?>
<svg xmlns="http://www.w3.org/2000/svg" height="100px" version="1.0" viewBox="0 0 100 100" width="100px" x="0px" y="0px">
<line fill="none" stroke="#000000" stroke-width="2" x1="41" x2="85" y1="86" y2="86" /><line fill="none" stroke="#000000" stroke-width="2" x1="46.5" x2="89.5" y1="15" y2="15" /><polyline fill="none" points="40,93 40,56 86,56 86,93" stroke="#000000" stroke-width="2" /><path d="M9,91.5 c7.072,-9.315 12.963,-19.819 17,-30.5" fill="none" stroke="#000000" stroke-width="2" /><path d="M26,22.5 c-4.551,-4.456 -9.955,-9.209 -16,-14" fill="none" stroke="#000000" stroke-width="2" /><path d="M22.5,45.5 c-5.014,-4.892 -10.751,-9.858 -17.5,-15" fill="none" stroke="#000000" stroke-width="2" /><path d="M30.5,29.5 c9.991,-7.403 17.433,-15.433 23,-24.5" fill="none" stroke="#000000" stroke-width="2" /><path d="M88.641,15.488 c-10.25,17.206 -26.88,28.947 -57.141,38.512" fill="none" stroke="#000000" stroke-width="2" /><path d="M42.5,19 c13.339,15.268 30.258,26.863 54,36.5" fill="none" stroke="#000000" stroke-width="2" /></svg>