<?xml version='1.0' encoding='utf-8'?>
<svg xmlns="http://www.w3.org/2000/svg" height="100px" version="1.0" viewBox="0 0 100 100" width="100px" x="0px" y="0px">
<line fill="none" stroke="#000000" stroke-width="2" x1="60" x2="60" y1="15" y2="4" /><line fill="none" stroke="#000000" stroke-width="2" x1="27.5" x2="92.5" y1="15" y2="15" /><line fill="none" stroke="#000000" stroke-width="2" x1="58.5" x2="58.5" y1="50" y2="92" /><path d="M8,91.5 c7.072,-9.315 12.963,-19.819 17,-30.5" fill="none" stroke="#000000" stroke-width="2" /><path d="M25,22.5 c-4.551,-4.456 -9.955,-9.209 -16,-14" fill="none" stroke="#000000" stroke-width="2" /><path d="M21.5,45.5 c-5.014,-4.892 -10.751,-9.858 -17.5,-15" fill="none" stroke="#000000" stroke-width="2" /><path d="M93,47 c-5.943,-7.38 -14.043,-16.684 -21,-24" fill="none" stroke="#000000" stroke-width="2" /><path d="M27.5,43.5 c17.118,-0.501 38.09,-2.285 58.5,-5" fill="none" stroke="#000000" stroke-width="2" /><path d="M40,43 c4.522,-7.727 9.604,-18.17 13.5,-28" fill="none" stroke="#000000" stroke-width="2" /><path d="M78,49 v37.5 c0,4.716 0.424,5 6.5,5 c8.67,0 8.849,-0.176 9.5,-22.5" fill="none" stroke="#000000" stroke-width="2" /><path d="M21,93 c12.514,-6.534 20.5,-21.634 20.5,-44" fill="none" stroke="#000000" stroke-width="2" /></svg>