<?xml version='1.0' encoding='utf-8'?>
<svg xmlns="http://www.w3.org/2000/svg" height="100px" version="1.0" viewBox="0 0 100 100" width="100px" x="0px" y="0px">
<line fill="none" stroke="#000000" stroke-width="2" x1="32" x2="93.5" y1="57" y2="52.5" /><line fill="none" stroke="#000000" stroke-width="2" x1="36.5" x2="89" y1="37.5" y2="34.5" /><line fill="none" stroke="#000000" stroke-width="2" x1="32" x2="91.5" y1="20" y2="17" /><path d="M86.5,57.5 c-13.627,14.347 -34.098,25.757 -63,33" fill="none" stroke="#000000" stroke-width="2" /><path d="M59.5,6 c0,72.198 17.219,85.5 27.5,85.5 c2.732,0 5.273,-3.568 7,-17" fill="none" stroke="#000000" stroke-width="2" /><path d="M70.5,6 c4.88,2.171 10.448,4.978 15,7.5" fill="none" stroke="#000000" stroke-width="2" /><path d="M9.5,91.5 c7.072,-9.315 12.963,-19.819 17,-30.5" fill="none" stroke="#000000" stroke-width="2" /><path d="M26.5,22.5 c-4.551,-4.456 -9.955,-9.209 -16,-14" fill="none" stroke="#000000" stroke-width="2" /><path d="M23,45.5 c-5.014,-4.892 -10.751,-9.858 -17.5,-15" fill="none" stroke="#000000" stroke-width="2" /></svg>