<?xml version='1.0' encoding='utf-8'?>
<svg xmlns="http://www.w3.org/2000/svg" height="100px" version="1.0" viewBox="0 0 100 100" width="100px" x="0px" y="0px">
<line fill="none" stroke="#000000" stroke-width="2" x1="55.5" x2="92" y1="29" y2="29" /><line fill="none" stroke="#000000" stroke-width="2" x1="33.5" x2="33.5" y1="94" y2="38" /><line fill="none" stroke="#000000" stroke-width="2" x1="60.5" x2="60.5" y1="14.5" y2="3.5" /><line fill="none" stroke="#000000" stroke-width="2" x1="23.5" x2="95" y1="14.5" y2="14.5" /><path d="M8.5,91.5 c5.303,-8.91 9.815,-19.105 13,-29.5" fill="none" stroke="#000000" stroke-width="2" /><path d="M24,22.5 c-4.127,-4.427 -9.06,-9.209 -14.5,-14" fill="none" stroke="#000000" stroke-width="2" /><path d="M21,45.5 c-4.589,-4.819 -9.926,-9.858 -16,-15" fill="none" stroke="#000000" stroke-width="2" /><path d="M37,59 c10.025,-11.518 17.699,-25.549 22.5,-41.5" fill="none" stroke="#000000" stroke-width="2" /><path d="M91.025,29.774 c-6.91,29.908 -24.383,50.317 -53.025,62.226" fill="none" stroke="#000000" stroke-width="2" /><path d="M41,17.5 c-3.652,14.199 -10.742,28.793 -20,41" fill="none" stroke="#000000" stroke-width="2" /><path d="M81,56 c-5.299,-5.608 -11.211,-11.364 -17,-16.5" fill="none" stroke="#000000" stroke-width="2" /><path d="M48.5,43 c9.318,22.088 24.121,37.698 46.5,49" fill="none" stroke="#000000" stroke-width="2" /></svg>