<?xml version='1.0' encoding='utf-8'?>
<svg xmlns="http://www.w3.org/2000/svg" height="100px" version="1.0" viewBox="0 0 100 100" width="100px" x="0px" y="0px">
<line fill="none" stroke="#000000" stroke-width="2" x1="41.5" x2="41.5" y1="20.5" y2="94" /><line fill="none" stroke="#000000" stroke-width="2" x1="91.5" x2="42" y1="20" y2="20" /><line fill="none" stroke="#000000" stroke-width="2" x1="68" x2="68" y1="87" y2="20" /><line fill="none" stroke="#000000" stroke-width="2" x1="42.5" x2="93.5" y1="87" y2="87" /><line fill="none" stroke="#000000" stroke-width="2" x1="41.5" x2="89.5" y1="64" y2="64" /><line fill="none" stroke="#000000" stroke-width="2" x1="41.5" x2="89.5" y1="41.5" y2="41.5" /><path d="M75.5,4 c-2.172,5.901 -4.801,11.103 -8,16" fill="none" stroke="#000000" stroke-width="2" /><path d="M28.5,40 c8.602,-9.49 14.809,-20.97 19,-36" fill="none" stroke="#000000" stroke-width="2" /><path d="M10,91.5 c7.072,-9.315 12.963,-19.819 17,-30.5" fill="none" stroke="#000000" stroke-width="2" /><path d="M27,22.5 c-4.551,-4.456 -9.955,-9.209 -16,-14" fill="none" stroke="#000000" stroke-width="2" /><path d="M23.5,45.5 c-5.014,-4.892 -10.751,-9.858 -17.5,-15" fill="none" stroke="#000000" stroke-width="2" /></svg>