<?xml version='1.0' encoding='utf-8'?>
<svg xmlns="http://www.w3.org/2000/svg" height="100px" version="1.0" viewBox="0 0 100 100" width="100px" x="0px" y="0px">
<line fill="none" stroke="#000000" stroke-width="2" x1="93.5" x2="30" y1="53.5" y2="53.5" /><line fill="none" stroke="#000000" stroke-width="2" x1="62" x2="62" y1="93.5" y2="40" /><polyline fill="none" points="91,24.5 91,10.5 33,10.5 33,26.5" stroke="#000000" stroke-width="2" /><path d="M8.5,91.5 c7.072,-9.315 12.963,-19.819 17,-30.5" fill="none" stroke="#000000" stroke-width="2" /><path d="M25.5,22.5 c-4.551,-4.456 -9.955,-9.209 -16,-14" fill="none" stroke="#000000" stroke-width="2" /><path d="M22,45.5 c-5.014,-4.892 -10.751,-9.858 -17.5,-15" fill="none" stroke="#000000" stroke-width="2" /><path d="M27.5,88.5 c16.221,-11.186 26.915,-22.603 33.5,-35" fill="none" stroke="#000000" stroke-width="2" /><path d="M94.5,88.5 c-15.437,-11.24 -25.425,-22.49 -31.5,-35" fill="none" stroke="#000000" stroke-width="2" /><path d="M31,42.5 c15.129,-5.896 24,-17.393 24,-31" fill="none" stroke="#000000" stroke-width="2" /><path d="M69,11.5 v23.0 c0,3.714 0.619,4.255 4.5,4.4 c2.017,0.074 3.803,0.1 6,0.1 c2.079,0 3.647,-0.029 5.5,-0.1 c5.742,-0.22 6.106,-0.531 7,-9.9" fill="none" stroke="#000000" stroke-width="2" /></svg>