<?xml version='1.0' encoding='utf-8'?>
<svg xmlns="http://www.w3.org/2000/svg" height="100px" version="1.0" viewBox="0 0 100 100" width="100px" x="0px" y="0px">
<line fill="none" stroke="#000000" stroke-width="2" x1="37.5" x2="86.5" y1="27" y2="27" /><line fill="none" stroke="#000000" stroke-width="2" x1="36.5" x2="60" y1="64" y2="64" /><line fill="none" stroke="#000000" stroke-width="2" x1="36.5" x2="36.5" y1="89.5" y2="49.5" /><polyline fill="none" points="37.5,44.5 87.5,44.5 87.5,10.5 36.5,10.5 36.5,45.5" stroke="#000000" stroke-width="2" /><path d="M8.5,91.5 c7.072,-9.315 12.963,-19.819 17,-30.5" fill="none" stroke="#000000" stroke-width="2" /><path d="M26.5,22.5 c-4.551,-4.456 -9.955,-9.209 -16,-14" fill="none" stroke="#000000" stroke-width="2" /><path d="M22,45.5 c-5.014,-4.892 -10.751,-9.858 -17.5,-15" fill="none" stroke="#000000" stroke-width="2" /><path d="M67,49.5 v36.0 c0,4.313 0.261,4.549 4.5,4.8 c2.346,0.139 4.941,0.2 7.5,0.2 c2.65,0 5.142,-0.074 7.5,-0.2 c6.958,-0.376 7.079,-0.501 8.5,-16.8" fill="none" stroke="#000000" stroke-width="2" /><path d="M67,66.5 c9.604,-2.535 18.012,-5.914 27.5,-11" fill="none" stroke="#000000" stroke-width="2" /><path d="M23,91.5 c13.123,-1.764 24.94,-4.222 38.5,-8" fill="none" stroke="#000000" stroke-width="2" /></svg>