<?xml version='1.0' encoding='utf-8'?>
<svg xmlns="http://www.w3.org/2000/svg" height="100px" version="1.0" viewBox="0 0 100 100" width="100px" x="0px" y="0px">
<line fill="none" stroke="#000000" stroke-width="2" x1="29.5" x2="94.5" y1="38.5" y2="38.5" /><line fill="none" stroke="#000000" stroke-width="2" x1="92.5" x2="32.5" y1="13.5" y2="13.5" /><line fill="none" stroke="#000000" stroke-width="2" x1="89.5" x2="35.5" y1="26" y2="26" /><line fill="none" stroke="#000000" stroke-width="2" x1="63" x2="63" y1="38.5" y2="5" /><line fill="none" stroke="#000000" stroke-width="2" x1="37.5" x2="86.5" y1="75" y2="75" /><line fill="none" stroke="#000000" stroke-width="2" x1="37.5" x2="86.5" y1="62" y2="62" /><path d="M36.5,92 v-43.0 h51.0 v36.96 c0,4.177 -0.469,4.54 -7.5,4.54 c-2.172,0 -5.876,-0.137 -12.5,-0.5" fill="none" stroke="#000000" stroke-width="2" /><path d="M9,91.5 c7.072,-9.315 12.963,-19.819 17,-30.5" fill="none" stroke="#000000" stroke-width="2" /><path d="M26,22.5 c-4.551,-4.456 -9.955,-9.209 -16,-14" fill="none" stroke="#000000" stroke-width="2" /><path d="M22.5,45.5 c-5.014,-4.892 -10.751,-9.858 -17.5,-15" fill="none" stroke="#000000" stroke-width="2" /></svg>