<?xml version='1.0' encoding='utf-8'?>
<svg xmlns="http://www.w3.org/2000/svg" height="100px" version="1.0" viewBox="0 0 100 100" width="100px" x="0px" y="0px">
<polyline fill="none" points="45,86 45,54.5 77.5,54.5 77.5,77.5 46,77.5" stroke="#000000" stroke-width="2" /><polyline fill="none" points="38.5,42 38.5,9.5 84,9.5 84,42" stroke="#000000" stroke-width="2" /><polyline fill="none" points="58.5,42 58.5,24 83,24" stroke="#000000" stroke-width="2" /><path d="M30,92 v-49.0 h62.5 v39.0 c0,7.366 -0.594,8 -6.5,8 c-2.063,0 -5.882,-0.166 -12,-0.5" fill="none" stroke="#000000" stroke-width="2" /><path d="M8,91.5 c7.072,-9.315 12.963,-19.819 17,-30.5" fill="none" stroke="#000000" stroke-width="2" /><path d="M26,22.5 c-4.551,-4.456 -9.955,-9.209 -16,-14" fill="none" stroke="#000000" stroke-width="2" /><path d="M21.5,45.5 c-5.014,-4.892 -10.751,-9.858 -17.5,-15" fill="none" stroke="#000000" stroke-width="2" /></svg>