<?xml version='1.0' encoding='utf-8'?>
<svg xmlns="http://www.w3.org/2000/svg" height="100px" version="1.0" viewBox="0 0 100 100" width="100px" x="0px" y="0px">
<line fill="none" stroke="#000000" stroke-width="2" x1="30" x2="93" y1="16" y2="16" /><line fill="none" stroke="#000000" stroke-width="2" x1="48.5" x2="48.5" y1="32" y2="4.5" /><line fill="none" stroke="#000000" stroke-width="2" x1="76.5" x2="76.5" y1="32" y2="4.5" /><line fill="none" stroke="#000000" stroke-width="2" x1="95" x2="27" y1="33" y2="33" /><line fill="none" stroke="#000000" stroke-width="2" x1="45" x2="45" y1="53.5" y2="85.5" /><line fill="none" stroke="#000000" stroke-width="2" x1="78" x2="78" y1="82.5" y2="53.5" /><line fill="none" stroke="#000000" stroke-width="2" x1="45" x2="78" y1="77.5" y2="77.5" /><line fill="none" stroke="#000000" stroke-width="2" x1="61.5" x2="61.5" y1="33" y2="76.5" /><line fill="none" stroke="#000000" stroke-width="2" x1="61.5" x2="61.5" y1="33" y2="76.5" /><path d="M9,91.5 c7.072,-9.315 12.963,-19.819 17,-30.5" fill="none" stroke="#000000" stroke-width="2" /><path d="M26,22.5 c-4.551,-4.456 -9.955,-9.209 -16,-14" fill="none" stroke="#000000" stroke-width="2" /><path d="M22.5,45.5 c-5.014,-4.892 -10.751,-9.858 -17.5,-15" fill="none" stroke="#000000" stroke-width="2" /><path d="M32.5,94 v-48.5 h58.0 v39.5 c0,6.366 -0.656,7 -6.5,7 c-2.063,0 -5.883,-0.155 -12,-0.5" fill="none" stroke="#000000" stroke-width="2" /></svg>