<?xml version='1.0' encoding='utf-8'?>
<svg xmlns="http://www.w3.org/2000/svg" height="100px" version="1.0" viewBox="0 0 100 100" width="100px" x="0px" y="0px">
<line fill="none" stroke="#000000" stroke-width="2" x1="65" x2="65" y1="58.5" y2="17" /><line fill="none" stroke="#000000" stroke-width="2" x1="50" x2="50" y1="95" y2="60.5" /><line fill="none" stroke="#000000" stroke-width="2" x1="93" x2="6" y1="73" y2="73" /><line fill="none" stroke="#000000" stroke-width="2" x1="92" x2="38" y1="16" y2="16" /><line fill="none" stroke="#000000" stroke-width="2" x1="39" x2="90" y1="30.5" y2="30.5" /><line fill="none" stroke="#000000" stroke-width="2" x1="39" x2="90" y1="45" y2="45" /><polyline fill="none" points="38,16 38,59.5 93,59.5" stroke="#000000" stroke-width="2" /><path d="M9,66 c8.486,-7.069 15.656,-15.396 20.5,-23.5" fill="none" stroke="#000000" stroke-width="2" /><path d="M26.5,17 c-4.495,-3.239 -9.92,-6.666 -16,-10" fill="none" stroke="#000000" stroke-width="2" /><path d="M23,34 c-4.95,-3.674 -10.705,-7.313 -17.5,-11" fill="none" stroke="#000000" stroke-width="2" /><path d="M26,30 c8.624,-8.031 14.41,-16.146 18,-25" fill="none" stroke="#000000" stroke-width="2" /><path d="M70.5,5 c-1.955,4.184 -3.587,7.183 -6,11" fill="none" stroke="#000000" stroke-width="2" /></svg>