<?xml version='1.0' encoding='utf-8'?>
<svg xmlns="http://www.w3.org/2000/svg" height="100px" version="1.0" viewBox="0 0 100 100" width="100px" x="0px" y="0px">
<line fill="none" stroke="#000000" stroke-width="2" x1="28.5" x2="92.5" y1="13" y2="13" /><line fill="none" stroke="#000000" stroke-width="2" x1="31" x2="91" y1="25" y2="25" /><line fill="none" stroke="#000000" stroke-width="2" x1="48" x2="48" y1="36" y2="5" /><line fill="none" stroke="#000000" stroke-width="2" x1="73" x2="73" y1="36" y2="5" /><line fill="none" stroke="#000000" stroke-width="2" x1="24" x2="96" y1="76" y2="76" /><line fill="none" stroke="#000000" stroke-width="2" x1="34" x2="87" y1="61.5" y2="61.5" /><line fill="none" stroke="#000000" stroke-width="2" x1="60.5" x2="60.5" y1="38" y2="76" /><line fill="none" stroke="#000000" stroke-width="2" x1="95" x2="26" y1="37" y2="37" /><path d="M33,94 v-47.0 h55.0 v38.0 c0,6.489 -0.452,7 -6,7 c-2.018,0 -6.016,-0.161 -12,-0.5" fill="none" stroke="#000000" stroke-width="2" /><path d="M8,91.5 c7.072,-9.315 12.963,-19.819 17,-30.5" fill="none" stroke="#000000" stroke-width="2" /><path d="M25,22.5 c-4.551,-4.456 -9.955,-9.209 -16,-14" fill="none" stroke="#000000" stroke-width="2" /><path d="M21.5,45.5 c-5.014,-4.892 -10.751,-9.858 -17.5,-15" fill="none" stroke="#000000" stroke-width="2" /></svg>