<?xml version='1.0' encoding='utf-8'?>
<svg xmlns="http://www.w3.org/2000/svg" height="100px" version="1.0" viewBox="0 0 100 100" width="100px" x="0px" y="0px">
<line fill="none" stroke="#000000" stroke-width="2" x1="46" x2="77.5" y1="11" y2="11" /><line fill="none" stroke="#000000" stroke-width="2" x1="36.5" x2="89.5" y1="44.5" y2="44.5" /><line fill="none" stroke="#000000" stroke-width="2" x1="62.5" x2="62.5" y1="27" y2="63" /><polyline fill="none" points="35.5,65 35.5,26 90.5,26 90.5,64 36.5,64" stroke="#000000" stroke-width="2" /><path d="M8,91.5 c7.072,-9.315 12.963,-19.819 17,-30.5" fill="none" stroke="#000000" stroke-width="2" /><path d="M26,22.5 c-4.551,-4.456 -9.955,-9.209 -16,-14" fill="none" stroke="#000000" stroke-width="2" /><path d="M22.5,45.5 c-5.014,-4.892 -10.751,-9.858 -17.5,-15" fill="none" stroke="#000000" stroke-width="2" /><path d="M63.5,26 c4.648,-4.483 9.363,-9.736 13.214,-14.618" fill="none" stroke="#000000" stroke-width="2" /><path d="M23.5,35.5 c12.232,-9.145 21.328,-20.289 27,-33" fill="none" stroke="#000000" stroke-width="2" /><path d="M94,92 c-3.252,-6.97 -6.982,-14.149 -11.5,-22" fill="none" stroke="#000000" stroke-width="2" /><path d="M74,92.5 c-1.939,-6.864 -4.287,-14.061 -7.25,-22" fill="none" stroke="#000000" stroke-width="2" /><path d="M54,93 c-0.626,-6.759 -1.592,-13.973 -3,-22" fill="none" stroke="#000000" stroke-width="2" /><path d="M27.5,92.5 c3.979,-6.275 7.767,-13.462 11.5,-22" fill="none" stroke="#000000" stroke-width="2" /></svg>