<?xml version='1.0' encoding='utf-8'?>
<svg xmlns="http://www.w3.org/2000/svg" height="100px" version="1.0" viewBox="0 0 100 100" width="100px" x="0px" y="0px">
<line fill="none" stroke="#000000" stroke-width="2" x1="34.5" x2="87" y1="24" y2="24" /><line fill="none" stroke="#000000" stroke-width="2" x1="61" x2="61" y1="13" y2="3" /><line fill="none" stroke="#000000" stroke-width="2" x1="61" x2="61" y1="70.5" y2="24" /><line fill="none" stroke="#000000" stroke-width="2" x1="34" x2="87.5" y1="53.5" y2="53.5" /><polyline fill="none" points="92,30 92,13 29.5,13 29.5,30" stroke="#000000" stroke-width="2" /><polyline fill="none" points="34,71.5 88.5,71.5 88.5,37 33,37 33,72.5" stroke="#000000" stroke-width="2" /><path d="M8,91.5 c7.072,-9.315 12.963,-19.819 17,-30.5" fill="none" stroke="#000000" stroke-width="2" /><path d="M25,22.5 c-4.551,-4.456 -9.955,-9.209 -16,-14" fill="none" stroke="#000000" stroke-width="2" /><path d="M21.5,45.5 c-5.014,-4.892 -10.751,-9.858 -17.5,-15" fill="none" stroke="#000000" stroke-width="2" /><path d="M25,92.5 c11.154,-4.2 21.268,-10.405 27,-16" fill="none" stroke="#000000" stroke-width="2" /><path d="M94,93.5 c-6.664,-5.639 -15.747,-11.562 -25.5,-16.5" fill="none" stroke="#000000" stroke-width="2" /></svg>