<?xml version='1.0' encoding='utf-8'?>
<svg xmlns="http://www.w3.org/2000/svg" height="100px" version="1.0" viewBox="0 0 100 100" width="100px" x="0px" y="0px">
<line fill="none" stroke="#000000" stroke-width="2" x1="57.5" x2="26" y1="14" y2="14" /><line fill="none" stroke="#000000" stroke-width="2" x1="56.5" x2="28" y1="27" y2="27" /><line fill="none" stroke="#000000" stroke-width="2" x1="42" x2="42" y1="39.5" y2="5.5" /><line fill="none" stroke="#000000" stroke-width="2" x1="89" x2="25" y1="66.5" y2="68.5" /><line fill="none" stroke="#000000" stroke-width="2" x1="59" x2="59" y1="67.5" y2="92" /><path d="M9,91.5 c5.156,-9.315 9.464,-19.845 12.5,-30.5" fill="none" stroke="#000000" stroke-width="2" /><path d="M25,42.5 c10.81,-1.575 22.13,-3.669 33,-6" fill="none" stroke="#000000" stroke-width="2" /><path d="M24.5,22.5 c-4.127,-4.427 -9.06,-9.209 -14.5,-14" fill="none" stroke="#000000" stroke-width="2" /><path d="M21.5,45.5 c-4.589,-4.819 -9.926,-9.858 -16,-15" fill="none" stroke="#000000" stroke-width="2" /><path d="M52,62 c-5.263,-4.14 -12.105,-9.275 -18,-13.5" fill="none" stroke="#000000" stroke-width="2" /><path d="M94,72 c-4.535,-5.065 -10.696,-11.415 -16,-16.5" fill="none" stroke="#000000" stroke-width="2" /><path d="M24.5,89 c9.562,-4.769 17.243,-9.905 23,-15" fill="none" stroke="#000000" stroke-width="2" /><path d="M93.5,89.5 c-6.77,-5.326 -14.867,-10.749 -24,-16" fill="none" stroke="#000000" stroke-width="2" /><path d="M41.5,54 c5.373,-3.235 10.145,-6.421 15,-10" fill="none" stroke="#000000" stroke-width="2" /><path d="M59,42 c9.61,-6.335 16.021,-17.753 16.5,-31" fill="none" stroke="#000000" stroke-width="2" /><path d="M60,11 h31.5 c-0.576,26.302 -1.971,29 -5.5,29 c-1.881,0 -6.947,-0.241 -10,-0.5" fill="none" stroke="#000000" stroke-width="2" /><path d="M77.5,46 c-11.244,7.934 -23.693,15.335 -37,22" fill="none" stroke="#000000" stroke-width="2" /></svg>