<?xml version='1.0' encoding='utf-8'?>
<svg xmlns="http://www.w3.org/2000/svg" height="100px" version="1.0" viewBox="0 0 100 100" width="100px" x="0px" y="0px">
<path d="M30,9 c-5.734,6.506 -10.797,11.114 -19,17 c8.625,6.739 14.212,12.368 20,20" fill="none" stroke="#000000" stroke-width="2" /><path d="M26,52 c-2.184,6.953 -6.31,13.229 -12.5,19" fill="none" stroke="#000000" stroke-width="2" /><path d="M86.5,50.5 c-3.617,6.728 -9.01,12.717 -16.5,18" fill="none" stroke="#000000" stroke-width="2" /><path d="M7,91 c27.129,-4.905 43,-19.437 43,-35 v-14.0" fill="none" stroke="#000000" stroke-width="2" /><path d="M93,91 c-27.129,-4.904 -43,-19.437 -43,-35" fill="none" stroke="#000000" stroke-width="2" /><path d="M88,8 c-5.734,6.506 -10.797,11.114 -19,17 c8.625,6.571 14.212,12.06 20,19.5" fill="none" stroke="#000000" stroke-width="2" /><path d="M59,8.5 c-5.734,6.506 -10.797,11.114 -19,17 c8.727,6.308 14.289,11.536 20,18.5" fill="none" stroke="#000000" stroke-width="2" /></svg>