<?xml version='1.0' encoding='utf-8'?>
<svg xmlns="http://www.w3.org/2000/svg" height="100px" version="1.0" viewBox="0 0 100 100" width="100px" x="0px" y="0px">
<path d="M27,52 c-2.184,6.953 -6.31,13.229 -12.5,19" fill="none" stroke="#000000" stroke-width="2" /><path d="M85.5,52.5 c-3.617,6.728 -9.01,12.717 -16.5,18" fill="none" stroke="#000000" stroke-width="2" /><path d="M27,12.5 c-2.096,6.953 -6.057,13.229 -12,19" fill="none" stroke="#000000" stroke-width="2" /><path d="M85,11.5 c-3.507,6.728 -8.736,12.717 -16,18" fill="none" stroke="#000000" stroke-width="2" /><path d="M7,91 c27.129,-4.905 43,-19.437 43,-35 v-14.0" fill="none" stroke="#000000" stroke-width="2" /><path d="M93,91 c-27.129,-4.904 -43,-19.437 -43,-35" fill="none" stroke="#000000" stroke-width="2" /><path d="M8,49.5 c26.498,-4.905 42,-19.437 42,-35 V5.0" fill="none" stroke="#000000" stroke-width="2" /><path d="M92,49.5 c-26.498,-4.904 -42,-19.437 -42,-35" fill="none" stroke="#000000" stroke-width="2" /></svg>