<?xml version='1.0' encoding='utf-8'?>
<svg xmlns="http://www.w3.org/2000/svg" height="100px" version="1.0" viewBox="0 0 100 100" width="100px" x="0px" y="0px">
<line fill="none" stroke="#000000" stroke-width="2" x1="92" x2="8" y1="63.5" y2="63.5" /><line fill="none" stroke="#000000" stroke-width="2" x1="94" x2="6" y1="38.5" y2="38.5" /><line fill="none" stroke="#000000" stroke-width="2" x1="21" x2="90" y1="14.5" y2="14.5" /><line fill="none" stroke="#000000" stroke-width="2" x1="21" x2="21" y1="62.5" y2="14.5" /><line fill="none" stroke="#000000" stroke-width="2" x1="40" x2="40" y1="62.5" y2="15.5" /><line fill="none" stroke="#000000" stroke-width="2" x1="60" x2="60" y1="62.5" y2="15.5" /><line fill="none" stroke="#000000" stroke-width="2" x1="79" x2="79" y1="62.5" y2="15.5" /><path d="M92,92 c-4.17,-6.97 -9.068,-14.214 -15,-22" fill="none" stroke="#000000" stroke-width="2" /><path d="M67,92.5 c-2.486,-6.864 -5.578,-14.101 -9.5,-22" fill="none" stroke="#000000" stroke-width="2" /><path d="M42,93 c-0.803,-6.759 -2.088,-13.988 -4,-22" fill="none" stroke="#000000" stroke-width="2" /><path d="M8,92.5 c5.24,-6.205 10.214,-13.462 15,-22" fill="none" stroke="#000000" stroke-width="2" /><path d="M8,32.5 c7.774,-8.269 14.144,-18.753 18,-30" fill="none" stroke="#000000" stroke-width="2" /></svg>