<?xml version='1.0' encoding='utf-8'?>
<svg xmlns="http://www.w3.org/2000/svg" height="100px" version="1.0" viewBox="0 0 100 100" width="100px" x="0px" y="0px">
<line fill="none" stroke="#000000" stroke-width="2" x1="93" x2="47.5" y1="25" y2="25" /><line fill="none" stroke="#000000" stroke-width="2" x1="51.5" x2="24.5" y1="17" y2="17" /><path d="M76,7 c4.703,4.157 8.566,7.877 13,12.5" fill="none" stroke="#000000" stroke-width="2" /><path d="M36,65.5 c19.145,-10.979 30,-27.351 30,-43.5 v-14.5" fill="none" stroke="#000000" stroke-width="2" /><path d="M94,65.5 c-18.338,-12.171 -28,-27.917 -28,-43.5" fill="none" stroke="#000000" stroke-width="2" /><path d="M92,92 c-4.17,-7.286 -9.068,-14.859 -15,-23" fill="none" stroke="#000000" stroke-width="2" /><path d="M67,92.5 c-2.486,-7.176 -5.578,-14.742 -9.5,-23" fill="none" stroke="#000000" stroke-width="2" /><path d="M42,93 c-0.803,-7.066 -2.088,-14.624 -4,-23" fill="none" stroke="#000000" stroke-width="2" /><path d="M8,92.5 c5.24,-6.487 10.214,-14.074 15,-23" fill="none" stroke="#000000" stroke-width="2" /><path d="M6.5,35 c11.588,-8.848 19.541,-18.415 24.5,-29" fill="none" stroke="#000000" stroke-width="2" /><path d="M5.5,67 c21.738,-11.979 38.451,-30.611 45.057,-49.333" fill="none" stroke="#000000" stroke-width="2" /><path d="M28,50.5 c-4.265,-4.2 -8.928,-8.522 -13.5,-12.5" fill="none" stroke="#000000" stroke-width="2" /><path d="M40,37 c-4.352,-4.11 -8.846,-8.118 -13.5,-12" fill="none" stroke="#000000" stroke-width="2" /></svg>