<?xml version='1.0' encoding='utf-8'?>
<svg xmlns="http://www.w3.org/2000/svg" height="100px" version="1.0" viewBox="0 0 100 100" width="100px" x="0px" y="0px">
<line fill="none" stroke="#000000" stroke-width="2" x1="92.5" x2="31" y1="57" y2="57" /><line fill="none" stroke="#000000" stroke-width="2" x1="94" x2="31.359" y1="36.5" y2="36.5" /><line fill="none" stroke="#000000" stroke-width="2" x1="62.5" x2="62.5" y1="36.5" y2="4" /><line fill="none" stroke="#000000" stroke-width="2" x1="46.5" x2="46.5" y1="56" y2="24" /><line fill="none" stroke="#000000" stroke-width="2" x1="78" x2="78" y1="56" y2="24" /><line fill="none" stroke="#000000" stroke-width="2" x1="91" x2="37" y1="16" y2="16" /><path d="M70.5,57 v27.5 c0,5.278 0.86,6 11.5,6 c11.222,0 11.492,-0.242 12,-22.5" fill="none" stroke="#000000" stroke-width="2" /><path d="M29,91.5 c15.925,-4.563 25,-16.448 25,-34.5" fill="none" stroke="#000000" stroke-width="2" /><path d="M35.77,82.14 c-4.412,-9.352 -10.48,-19.521 -16.77,-28.14" fill="none" stroke="#000000" stroke-width="2" /><path d="M10,20 c0,13.128 -1.636,24.476 -4.5,33.5" fill="none" stroke="#000000" stroke-width="2" /><path d="M35.5,19.5 c-2.094,12.181 -5.521,22.562 -10,31" fill="none" stroke="#000000" stroke-width="2" /><path d="M5,91 c8.744,-10.161 15,-30.425 15,-56 v-28.0" fill="none" stroke="#000000" stroke-width="2" /></svg>