<?xml version='1.0' encoding='utf-8'?>
<svg xmlns="http://www.w3.org/2000/svg" height="100px" version="1.0" viewBox="0 0 100 100" width="100px" x="0px" y="0px">
<line fill="none" stroke="#000000" stroke-width="2" x1="12" x2="34" y1="37.5" y2="37.5" /><polyline fill="none" points="47,67 88,67 88,42 46,42 46,68" stroke="#000000" stroke-width="2" /><polyline fill="none" points="12,65 35,65 35,11.5 11,11.5 11,66" stroke="#000000" stroke-width="2" /><path d="M92.5,92 c-4.201,-6.038 -9.068,-12.229 -15,-19" fill="none" stroke="#000000" stroke-width="2" /><path d="M67,92.25 c-2.518,-5.955 -5.578,-12.131 -9.5,-19" fill="none" stroke="#000000" stroke-width="2" /><path d="M41.5,92.5 c-0.834,-5.872 -2.088,-12.033 -4,-19" fill="none" stroke="#000000" stroke-width="2" /><path d="M7.5,92 c5.269,-5.368 10.214,-11.575 15,-19" fill="none" stroke="#000000" stroke-width="2" /><path d="M40,39 c14.371,-4.896 24.791,-16.513 26,-28" fill="none" stroke="#000000" stroke-width="2" /><path d="M41.5,11 h50.0 c0,20.227 -2.592,24 -8.5,24 c-2.783,0 -9.494,-0.224 -14,-0.5" fill="none" stroke="#000000" stroke-width="2" /></svg>