<?xml version='1.0' encoding='utf-8'?>
<svg xmlns="http://www.w3.org/2000/svg" height="100px" version="1.0" viewBox="0 0 100 100" width="100px" x="0px" y="0px">
<line fill="none" stroke="#000000" stroke-width="2" x1="48.5" x2="9.5" y1="49" y2="49" /><line fill="none" stroke="#000000" stroke-width="2" x1="28.5" x2="28.5" y1="63" y2="39" /><line fill="none" stroke="#000000" stroke-width="2" x1="49.5" x2="6" y1="26" y2="26" /><line fill="none" stroke="#000000" stroke-width="2" x1="47" x2="10.5" y1="14" y2="14" /><line fill="none" stroke="#000000" stroke-width="2" x1="28.5" x2="28.5" y1="26" y2="4.5" /><path d="M6,45 c11.032,-4.111 16.409,-10.54 17,-19" fill="none" stroke="#000000" stroke-width="2" /><path d="M35,27 v9.0 c0,3.589 0.418,4 7.5,4 c6.77,0 7.664,-0.808 8,-10" fill="none" stroke="#000000" stroke-width="2" /><path d="M92.5,92 c-4.201,-6.038 -9.068,-12.229 -15,-19" fill="none" stroke="#000000" stroke-width="2" /><path d="M67,92.25 c-2.518,-5.955 -5.578,-12.132 -9.5,-19" fill="none" stroke="#000000" stroke-width="2" /><path d="M41.5,92.5 c-0.834,-5.872 -2.088,-12.033 -4,-19" fill="none" stroke="#000000" stroke-width="2" /><path d="M7.5,92 c5.269,-5.368 10.214,-11.575 15,-19" fill="none" stroke="#000000" stroke-width="2" /><path d="M55.5,31 c7.86,5.72 15.1,13.132 24.5,25.5" fill="none" stroke="#000000" stroke-width="2" /><path d="M48,69 c13.478,-9.985 20,-23.803 20,-46 v-18.5" fill="none" stroke="#000000" stroke-width="2" /><path d="M50,59.5 c-11.096,2.135 -25.042,4.121 -43.5,6" fill="none" stroke="#000000" stroke-width="2" /><path d="M51,17 h35.0 c0,39.601 3.407,49.5 6.5,49.5 c1.304,0 3.363,-4.86 4.5,-18.5" fill="none" stroke="#000000" stroke-width="2" /></svg>