<?xml version='1.0' encoding='utf-8'?>
<svg xmlns="http://www.w3.org/2000/svg" height="100px" version="1.0" viewBox="0 0 100 100" width="100px" x="0px" y="0px">
<line fill="none" stroke="#000000" stroke-width="2" x1="12" x2="39" y1="23" y2="23" /><line fill="none" stroke="#000000" stroke-width="2" x1="24" x2="24" y1="94" y2="6" /><path d="M82.5,90 c-3.906,0 -10.302,-0.353 -17,-1" fill="none" stroke="#000000" stroke-width="2" /><path d="M48.5,18 h43.5 c-1.842,65.929 -4.283,72 -9.5,72" fill="none" stroke="#000000" stroke-width="2" /><path d="M31,46.5 c9.266,-10.281 17.504,-25.795 21.5,-41.5" fill="none" stroke="#000000" stroke-width="2" /><path d="M45,91.5 c18.674,-15.057 32.268,-41.461 36,-73.5" fill="none" stroke="#000000" stroke-width="2" /><path d="M37.5,68.5 c12.166,-10.452 22.763,-29.474 27,-50.5" fill="none" stroke="#000000" stroke-width="2" /><path d="M5,62 c11.527,-2.323 23.914,-5.533 35,-9" fill="none" stroke="#000000" stroke-width="2" /><path d="M5,46 c4.318,-9.923 7.531,-22.423 9,-36" fill="none" stroke="#000000" stroke-width="2" /></svg>