<?xml version='1.0' encoding='utf-8'?>
<svg xmlns="http://www.w3.org/2000/svg" height="100px" version="1.0" viewBox="0 0 100 100" width="100px" x="0px" y="0px">
<line fill="none" stroke="#000000" stroke-width="2" x1="36.5" x2="95.5" y1="37" y2="37" /><line fill="none" stroke="#000000" stroke-width="2" x1="91.5" x2="40.5" y1="17" y2="17" /><line fill="none" stroke="#000000" stroke-width="2" x1="66" x2="66" y1="37" y2="4" /><line fill="none" stroke="#000000" stroke-width="2" x1="95.5" x2="36.5" y1="54" y2="54" /><line fill="none" stroke="#000000" stroke-width="2" x1="11" x2="37" y1="23" y2="23" /><line fill="none" stroke="#000000" stroke-width="2" x1="22" x2="22" y1="94" y2="6" /><path d="M83,37 v45.5 c0,8.474 -0.459,9 -6,9 c-1.902,0 -7.039,-0.18 -13,-0.5" fill="none" stroke="#000000" stroke-width="2" /><path d="M64,81 c-4.961,-6.18 -11.873,-13.175 -19,-19" fill="none" stroke="#000000" stroke-width="2" /><path d="M4,59 c11.193,-2.858 23.23,-6.763 34,-11" fill="none" stroke="#000000" stroke-width="2" /><path d="M4,46 c4.318,-9.923 7.531,-22.423 9,-36" fill="none" stroke="#000000" stroke-width="2" /></svg>