<?xml version='1.0' encoding='utf-8'?>
<svg xmlns="http://www.w3.org/2000/svg" height="100px" version="1.0" viewBox="0 0 100 100" width="100px" x="0px" y="0px">
<line fill="none" stroke="#000000" stroke-width="2" x1="36" x2="4" y1="12.5" y2="12.5" /><line fill="none" stroke="#000000" stroke-width="2" x1="35" x2="5" y1="43.5" y2="43.5" /><line fill="none" stroke="#000000" stroke-width="2" x1="20.5" x2="20.5" y1="77.5" y2="13.5" /><line fill="none" stroke="#000000" stroke-width="2" x1="42" x2="87" y1="44" y2="44" /><line fill="none" stroke="#000000" stroke-width="2" x1="42" x2="87" y1="27" y2="27" /><polyline fill="none" points="42,62 88,62 88,10.5 41,10.5 41,63" stroke="#000000" stroke-width="2" /><path d="M4,83 c11.047,-3.375 20.656,-6.873 33,-12" fill="none" stroke="#000000" stroke-width="2" /><path d="M71,63 v22.5 c0,3.546 0.924,4.544 4.5,4.8 c1.705,0.123 3.641,0.2 5.5,0.2 c2.101,0 4.123,-0.064 6,-0.2 c5.609,-0.4 6.622,-1.48 7.5,-22.3" fill="none" stroke="#000000" stroke-width="2" /><path d="M27.5,92 c19.352,-5.879 30,-17.066 30,-30" fill="none" stroke="#000000" stroke-width="2" /></svg>