<?xml version='1.0' encoding='utf-8'?>
<svg xmlns="http://www.w3.org/2000/svg" height="100px" version="1.0" viewBox="0 0 100 100" width="100px" x="0px" y="0px">
<line fill="none" stroke="#000000" stroke-width="2" x1="11.5" x2="89.5" y1="15" y2="15" /><line fill="none" stroke="#000000" stroke-width="2" x1="50" x2="50" y1="14" y2="3" /><line fill="none" stroke="#000000" stroke-width="2" x1="15.5" x2="93.5" y1="89.5" y2="89.5" /><line fill="none" stroke="#000000" stroke-width="2" x1="89.5" x2="29" y1="49.5" y2="49.5" /><line fill="none" stroke="#000000" stroke-width="2" x1="85.5" x2="27.5" y1="67.5" y2="67.5" /><line fill="none" stroke="#000000" stroke-width="2" x1="56" x2="56" y1="89.5" y2="38" /><path d="M63,34 c2.992,-5.407 5.789,-12.052 8,-19" fill="none" stroke="#000000" stroke-width="2" /><path d="M36,34 c-1.731,-6.299 -3.781,-12.867 -6,-19" fill="none" stroke="#000000" stroke-width="2" /><path d="M5.5,92 c4.656,-7.926 8,-21.714 8,-35.5 V34.0 h78.0" fill="none" stroke="#000000" stroke-width="2" /><path d="M17.5,64.5 c6.91,-6.837 12.572,-15.702 16,-25" fill="none" stroke="#000000" stroke-width="2" /></svg>