<?xml version='1.0' encoding='utf-8'?>
<svg xmlns="http://www.w3.org/2000/svg" height="100px" version="1.0" viewBox="0 0 100 100" width="100px" x="0px" y="0px">
<line fill="none" stroke="#000000" stroke-width="2" x1="56.5" x2="56.5" y1="13" y2="3" /><line fill="none" stroke="#000000" stroke-width="2" x1="93.5" x2="26.5" y1="24.5" y2="24.5" /><path d="M7,91 c8.727,-9.241 12.5,-20.743 12.5,-47 v-30.0 h75.0" fill="none" stroke="#000000" stroke-width="2" /><path d="M35,75 c17.053,-9.964 25,-23.177 25,-43 v-7.5" fill="none" stroke="#000000" stroke-width="2" /><path d="M71,90 c6.34,0.342 10.306,0.5 12,0.5 c5.956,0 6.5,-0.511 6.5,-6.5 v-44.5 h-59.0 v52.5" fill="none" stroke="#000000" stroke-width="2" /><path d="M85,76 c-7.298,-9.588 -17.649,-18.476 -28.5,-24" fill="none" stroke="#000000" stroke-width="2" /><path d="M2.5,67 c6.793,-3.015 12.445,-6.519 16.5,-10" fill="none" stroke="#000000" stroke-width="2" /><path d="M15.5,41 c-2.875,-5.722 -6.672,-12.311 -11,-19" fill="none" stroke="#000000" stroke-width="2" /></svg>