<?xml version='1.0' encoding='utf-8'?>
<svg xmlns="http://www.w3.org/2000/svg" height="100px" version="1.0" viewBox="0 0 100 100" width="100px" x="0px" y="0px">
<line fill="none" stroke="#000000" stroke-width="2" x1="51" x2="15.5" y1="10" y2="10" /><line fill="none" stroke="#000000" stroke-width="2" x1="22" x2="78" y1="45" y2="45" /><line fill="none" stroke="#000000" stroke-width="2" x1="8" x2="92" y1="64.5" y2="64.5" /><path d="M62,45 v41.0 c0,4.364 0.716,5 11.5,5 c15.354,0 15.57,-0.22 16.5,-18.5" fill="none" stroke="#000000" stroke-width="2" /><path d="M9,92.5 c18.318,-6.119 27,-17.92 27,-40 V45.0" fill="none" stroke="#000000" stroke-width="2" /><path d="M95,50.5 c-22.217,-10.537 -38.945,-26.535 -44.926,-41.121" fill="none" stroke="#000000" stroke-width="2" /><path d="M5,50.5 c22.217,-10.537 38.945,-26.535 44.926,-41.121" fill="none" stroke="#000000" stroke-width="2" /><path d="M77,10.5 c-4.205,5.716 -9.61,11.668 -15,16.5" fill="none" stroke="#000000" stroke-width="2" /><path d="M91,21 c-4.479,6.043 -10.287,12.378 -16,17.5" fill="none" stroke="#000000" stroke-width="2" /><path d="M32.5,32.5 c-5.741,-4.869 -11.895,-9.845 -18,-14.5" fill="none" stroke="#000000" stroke-width="2" /></svg>