<?xml version='1.0' encoding='utf-8'?>
<svg xmlns="http://www.w3.org/2000/svg" height="100px" version="1.0" viewBox="0 0 100 100" width="100px" x="0px" y="0px">
<line fill="none" stroke="#000000" stroke-width="2" x1="51" x2="15.5" y1="10" y2="10" /><line fill="none" stroke="#000000" stroke-width="2" x1="7" x2="93" y1="90" y2="90" /><line fill="none" stroke="#000000" stroke-width="2" x1="30" x2="70" y1="40" y2="40" /><polyline fill="none" points="22,73 22,52.5 78,52.5 78,72 23,72" stroke="#000000" stroke-width="2" /><path d="M95,50.5 c-22.217,-10.537 -38.945,-26.535 -44.926,-41.121" fill="none" stroke="#000000" stroke-width="2" /><path d="M5,50.5 c22.217,-10.537 38.945,-26.535 44.926,-41.121" fill="none" stroke="#000000" stroke-width="2" /><path d="M77,10.5 c-4.205,5.716 -9.61,11.668 -15,16.5" fill="none" stroke="#000000" stroke-width="2" /><path d="M91,21 c-4.479,6.043 -10.287,12.378 -16,17.5" fill="none" stroke="#000000" stroke-width="2" /><path d="M32.5,32.5 c-5.741,-4.869 -11.895,-9.845 -18,-14.5" fill="none" stroke="#000000" stroke-width="2" /><path d="M58,90 c5.223,-5.356 9.595,-11.434 13,-18" fill="none" stroke="#000000" stroke-width="2" /><path d="M38,90 c-2.515,-5.979 -5.605,-12.193 -9,-18" fill="none" stroke="#000000" stroke-width="2" /></svg>