<?xml version='1.0' encoding='utf-8'?>
<svg xmlns="http://www.w3.org/2000/svg" height="100px" version="1.0" viewBox="0 0 100 100" width="100px" x="0px" y="0px">
<line fill="none" stroke="#000000" stroke-width="2" x1="40" x2="40" y1="55.5" y2="88" /><line fill="none" stroke="#000000" stroke-width="2" x1="60" x2="60" y1="55.5" y2="88" /><line fill="none" stroke="#000000" stroke-width="2" x1="6" x2="94" y1="89" y2="89" /><line fill="none" stroke="#000000" stroke-width="2" x1="94" x2="6" y1="24" y2="24" /><polyline fill="none" points="80,88 80,54.5 20,54.5 20,88" stroke="#000000" stroke-width="2" /><path d="M37,20 c-3.41,-5.403 -7.204,-10.578 -11,-15" fill="none" stroke="#000000" stroke-width="2" /><path d="M60,24 c5.43,-6.364 10.242,-12.923 14,-19" fill="none" stroke="#000000" stroke-width="2" /><path d="M5,64 c14.483,-7.815 27.536,-22.698 35,-40" fill="none" stroke="#000000" stroke-width="2" /><path d="M95,64 c-14.483,-7.815 -27.536,-22.698 -35,-40" fill="none" stroke="#000000" stroke-width="2" /></svg>