<?xml version='1.0' encoding='utf-8'?>
<svg xmlns="http://www.w3.org/2000/svg" height="100px" version="1.0" viewBox="0 0 100 100" width="100px" x="0px" y="0px">
<line fill="none" stroke="#000000" stroke-width="2" x1="46" x2="90.5" y1="13.5" y2="13.5" /><line fill="none" stroke="#000000" stroke-width="2" x1="39.5" x2="39.5" y1="61" y2="88.5" /><line fill="none" stroke="#000000" stroke-width="2" x1="60.5" x2="60.5" y1="61" y2="88.5" /><line fill="none" stroke="#000000" stroke-width="2" x1="6" x2="94" y1="89.5" y2="89.5" /><polyline fill="none" points="81.5,88.5 81.5,60 18.5,60 18.5,88.5" stroke="#000000" stroke-width="2" /><path d="M27,54.5 c18.158,-4.072 32.5,-17.272 32.5,-28 v-8.0" fill="none" stroke="#000000" stroke-width="2" /><path d="M92,56.5 c-18.5,-4.399 -32.5,-18.883 -32.5,-30" fill="none" stroke="#000000" stroke-width="2" /><path d="M32,29.5 c8.178,-6.813 14.203,-15.024 18,-24.5" fill="none" stroke="#000000" stroke-width="2" /><path d="M74.5,30 c6.614,-4.588 11.586,-9.942 15.135,-16.005" fill="none" stroke="#000000" stroke-width="2" /><path d="M8,50.5 c9.883,-4.521 18.125,-9.749 24,-15" fill="none" stroke="#000000" stroke-width="2" /><path d="M29,19.5 c-4.953,-3.279 -11.061,-6.728 -18,-10" fill="none" stroke="#000000" stroke-width="2" /></svg>