<?xml version='1.0' encoding='utf-8'?>
<svg xmlns="http://www.w3.org/2000/svg" height="100px" version="1.0" viewBox="0 0 100 100" width="100px" x="0px" y="0px">
<line fill="none" stroke="#000000" stroke-width="2" x1="23" x2="23" y1="45" y2="93" /><line fill="none" stroke="#000000" stroke-width="2" x1="24" x2="83" y1="87" y2="87" /><line fill="none" stroke="#000000" stroke-width="2" x1="24" x2="83" y1="72.5" y2="72.5" /><line fill="none" stroke="#000000" stroke-width="2" x1="24" x2="83" y1="58" y2="58" /><polyline fill="none" points="83,93 83,43.5 27.25,43.5" stroke="#000000" stroke-width="2" /><path d="M50.5,5 v15.0 c0,9.528 -0.412,10 -7,10 c-1.973,0 -6.432,-0.14 -13.5,-0.5" fill="none" stroke="#000000" stroke-width="2" /><path d="M6.5,33 c8.1,-6.571 14.973,-15.294 19,-24" fill="none" stroke="#000000" stroke-width="2" /><path d="M94,31.5 c-5.701,-7.868 -12.741,-15.864 -20.5,-23" fill="none" stroke="#000000" stroke-width="2" /><path d="M76,20 c-15.576,12.315 -38.67,22.313 -74,30" fill="none" stroke="#000000" stroke-width="2" /></svg>