<?xml version='1.0' encoding='utf-8'?>
<svg xmlns="http://www.w3.org/2000/svg" height="100px" version="1.0" viewBox="0 0 100 100" width="100px" x="0px" y="0px">
<line fill="none" stroke="#000000" stroke-width="2" x1="11" x2="33" y1="35" y2="35" /><line fill="none" stroke="#000000" stroke-width="2" x1="11" x2="33" y1="59" y2="59" /><line fill="none" stroke="#000000" stroke-width="2" x1="46" x2="87.5" y1="29" y2="29" /><polyline fill="none" points="11,83 34,83 34,11 10,11 10,91" stroke="#000000" stroke-width="2" /><polyline fill="none" points="46,49 88.5,49 88.5,10.5 45,10.5 45,89.5" stroke="#000000" stroke-width="2" /><path d="M61,49 c5.864,18.978 19.003,34.684 35,42.5" fill="none" stroke="#000000" stroke-width="2" /><path d="M31.5,91.5 c13.719,-1.968 25.807,-4.552 40,-8.5" fill="none" stroke="#000000" stroke-width="2" /><path d="M72.746,72 c7.556,-5.439 15.311,-13.25 21.5,-21.5" fill="none" stroke="#000000" stroke-width="2" /></svg>