<?xml version='1.0' encoding='utf-8'?>
<svg xmlns="http://www.w3.org/2000/svg" height="100px" version="1.0" viewBox="0 0 100 100" width="100px" x="0px" y="0px">
<line fill="none" stroke="#000000" stroke-width="2" x1="41" x2="94" y1="89" y2="89" /><line fill="none" stroke="#000000" stroke-width="2" x1="44" x2="93" y1="11" y2="11" /><line fill="none" stroke="#000000" stroke-width="2" x1="42.5" x2="16.5" y1="16" y2="16" /><line fill="none" stroke="#000000" stroke-width="2" x1="43.5" x2="6.5" y1="44" y2="44" /><polyline fill="none" points="47.5,53 47.5,25 88.5,25 88.5,52 48.5,52" stroke="#000000" stroke-width="2" /><path d="M72.5,89 c5.061,-8.2 9.314,-19.558 12,-30.5" fill="none" stroke="#000000" stroke-width="2" /><path d="M61.4,84.5 c-2.783,-8.108 -6.229,-17.632 -10,-25.5" fill="none" stroke="#000000" stroke-width="2" /><path d="M7,90 c11.652,-8.756 20,-27.479 20,-48.5 V16.0" fill="none" stroke="#000000" stroke-width="2" /><path d="M44,79 c-5.318,-9.28 -11.369,-19.036 -17.5,-28.5" fill="none" stroke="#000000" stroke-width="2" /><path d="M7.5,38 c5.219,-9.438 9.481,-21.512 12,-34" fill="none" stroke="#000000" stroke-width="2" /></svg>