<?xml version='1.0' encoding='utf-8'?>
<svg xmlns="http://www.w3.org/2000/svg" height="100px" version="1.0" viewBox="0 0 100 100" width="100px" x="0px" y="0px">
<line fill="none" stroke="#000000" stroke-width="2" x1="36.5" x2="6" y1="11" y2="11" /><line fill="none" stroke="#000000" stroke-width="2" x1="92.5" x2="47.5" y1="34.5" y2="34.5" /><line fill="none" stroke="#000000" stroke-width="2" x1="71" x2="71" y1="86" y2="34.5" /><line fill="none" stroke="#000000" stroke-width="2" x1="48" x2="94" y1="87" y2="87" /><line fill="none" stroke="#000000" stroke-width="2" x1="47" x2="47" y1="35" y2="93" /><line fill="none" stroke="#000000" stroke-width="2" x1="48" x2="91" y1="69" y2="69" /><line fill="none" stroke="#000000" stroke-width="2" x1="48" x2="91" y1="51.5" y2="51.5" /><polyline fill="none" points="15,81 35.5,81 35.5,42.5 14,42.5 14,91" stroke="#000000" stroke-width="2" /><polyline fill="none" points="93.5,28.5 93.5,14.5 40.5,14.5 40.5,28.5" stroke="#000000" stroke-width="2" /><path d="M77,21 c-1.715,4.949 -3.702,9.311 -6,13.5" fill="none" stroke="#000000" stroke-width="2" /><path d="M35.5,50.5 c11.306,-12.665 19.558,-27.794 25.5,-47" fill="none" stroke="#000000" stroke-width="2" /><path d="M3,63 c8.673,-11.171 14.006,-26.27 16.5,-52" fill="none" stroke="#000000" stroke-width="2" /></svg>