<?xml version='1.0' encoding='utf-8'?>
<svg xmlns="http://www.w3.org/2000/svg" height="100px" version="1.0" viewBox="0 0 100 100" width="100px" x="0px" y="0px">
<line fill="none" stroke="#000000" stroke-width="2" x1="38.5" x2="4.5" y1="24" y2="24" /><line fill="none" stroke="#000000" stroke-width="2" x1="21.5" x2="21.5" y1="24" y2="6" /><line fill="none" stroke="#000000" stroke-width="2" x1="21.5" x2="21.5" y1="94" y2="50" /><polyline fill="none" points="44,45.5 89,45.5 89,11 43,11 43,46.5" stroke="#000000" stroke-width="2" /><path d="M72,46.5 v36.0 c0,6.597 0.501,7 11,7 c11.256,0 11.506,-0.271 12,-28" fill="none" stroke="#000000" stroke-width="2" /><path d="M29.5,91 c18.559,-6.188 26.5,-17.562 26.5,-45.5" fill="none" stroke="#000000" stroke-width="2" /><path d="M40,67 c-4.434,-5.175 -11.332,-12.456 -17,-18" fill="none" stroke="#000000" stroke-width="2" /><path d="M2.5,65.5 c16.756,-10.153 27.396,-22.303 35.077,-40.882" fill="none" stroke="#000000" stroke-width="2" /></svg>