<?xml version='1.0' encoding='utf-8'?>
<svg xmlns="http://www.w3.org/2000/svg" height="100px" version="1.0" viewBox="0 0 100 100" width="100px" x="0px" y="0px">
<line fill="none" stroke="#000000" stroke-width="2" x1="92" x2="8" y1="64" y2="64" /><line fill="none" stroke="#000000" stroke-width="2" x1="84" x2="16" y1="52" y2="52" /><line fill="none" stroke="#000000" stroke-width="2" x1="92" x2="8" y1="11" y2="11" /><line fill="none" stroke="#000000" stroke-width="2" x1="62" x2="62" y1="12" y2="40" /><line fill="none" stroke="#000000" stroke-width="2" x1="38" x2="38" y1="12" y2="40" /><polyline fill="none" points="15,42 15,23 85,23 85,41 16,41" stroke="#000000" stroke-width="2" /><path d="M51,64 v23.5 c0,3.546 -0.674,4 -7,4 c-2.85,0 -7.088,-0.153 -13,-0.5" fill="none" stroke="#000000" stroke-width="2" /><path d="M9,89 c9.055,-5.088 16.503,-11.832 21,-18.5" fill="none" stroke="#000000" stroke-width="2" /><path d="M91,89.5 c-6.143,-6.147 -14.238,-12.908 -23,-19" fill="none" stroke="#000000" stroke-width="2" /></svg>