<?xml version='1.0' encoding='utf-8'?>
<svg xmlns="http://www.w3.org/2000/svg" height="100px" version="1.0" viewBox="0 0 100 100" width="100px" x="0px" y="0px">
<line fill="none" stroke="#000000" stroke-width="2" x1="70" x2="70" y1="44" y2="5" /><line fill="none" stroke="#000000" stroke-width="2" x1="93" x2="49" y1="15.5" y2="15.5" /><line fill="none" stroke="#000000" stroke-width="2" x1="27" x2="27" y1="44" y2="5" /><line fill="none" stroke="#000000" stroke-width="2" x1="45" x2="7" y1="15.5" y2="15.5" /><line fill="none" stroke="#000000" stroke-width="2" x1="92" x2="8" y1="62" y2="62" /><line fill="none" stroke="#000000" stroke-width="2" x1="84" x2="16" y1="49" y2="49" /><path d="M96,43 c-12.164,-8.956 -20.361,-18.152 -25.5,-27.975" fill="none" stroke="#000000" stroke-width="2" /><path d="M4,43 c10.809,-8.953 18.012,-18.119 22.5,-28" fill="none" stroke="#000000" stroke-width="2" /><path d="M43.5,41.5 c12.256,-8.55 20.532,-17.137 26,-26.5" fill="none" stroke="#000000" stroke-width="2" /><path d="M45,36 c-4.94,-6.606 -10.969,-13.509 -17.5,-20" fill="none" stroke="#000000" stroke-width="2" /><path d="M51,62 v25.0 c0,3.546 -0.674,4 -7,4 c-2.85,0 -7.088,-0.153 -13,-0.5" fill="none" stroke="#000000" stroke-width="2" /><path d="M9,88.5 c9.055,-5.501 16.503,-12.792 21,-20" fill="none" stroke="#000000" stroke-width="2" /><path d="M91,89 c-6.143,-6.633 -14.238,-13.928 -23,-20.5" fill="none" stroke="#000000" stroke-width="2" /></svg>