<?xml version='1.0' encoding='utf-8'?>
<svg xmlns="http://www.w3.org/2000/svg" height="100px" version="1.0" viewBox="0 0 100 100" width="100px" x="0px" y="0px">
<line fill="none" stroke="#000000" stroke-width="2" x1="22.5" x2="22.5" y1="94" y2="11.5" /><line fill="none" stroke="#000000" stroke-width="2" x1="39.5" x2="4.5" y1="33" y2="33" /><path d="M97,51 c-3.492,-11.877 -7.934,-24.076 -13,-35.5" fill="none" stroke="#000000" stroke-width="2" /><path d="M69.16,6 v46.0 c0,7.429 -0.467,8 -5.66,8 c-1.541,0 -4.982,-0.14 -10.5,-0.5" fill="none" stroke="#000000" stroke-width="2" /><path d="M39,50.5 c5.146,-9.558 9.494,-22.027 12,-35" fill="none" stroke="#000000" stroke-width="2" /><path d="M90,47.5 c-7.334,22.907 -26.938,39.954 -54,45" fill="none" stroke="#000000" stroke-width="2" /><path d="M39.5,8 c-11.626,2.732 -22.837,4.682 -34,6" fill="none" stroke="#000000" stroke-width="2" /><path d="M3.5,72.5 c8.909,-13.023 14.701,-25.675 18.5,-40" fill="none" stroke="#000000" stroke-width="2" /><path d="M37.5,63 c-4.429,-9.387 -9.489,-19.466 -14.5,-29" fill="none" stroke="#000000" stroke-width="2" /></svg>