<?xml version='1.0' encoding='utf-8'?>
<svg xmlns="http://www.w3.org/2000/svg" height="100px" version="1.0" viewBox="0 0 100 100" width="100px" x="0px" y="0px">
<line fill="none" stroke="#000000" stroke-width="2" x1="34.5" x2="96" y1="34.5" y2="34.5" /><line fill="none" stroke="#000000" stroke-width="2" x1="94" x2="36.5" y1="13.5" y2="13.5" /><line fill="none" stroke="#000000" stroke-width="2" x1="91" x2="39.5" y1="24" y2="24" /><line fill="none" stroke="#000000" stroke-width="2" x1="65.5" x2="65.5" y1="34.5" y2="5" /><line fill="none" stroke="#000000" stroke-width="2" x1="41" x2="89" y1="64.5" y2="64.5" /><line fill="none" stroke="#000000" stroke-width="2" x1="41" x2="89" y1="53.5" y2="53.5" /><line fill="none" stroke="#000000" stroke-width="2" x1="20" x2="20" y1="94" y2="11.5" /><line fill="none" stroke="#000000" stroke-width="2" x1="32" x2="5" y1="33" y2="33" /><polyline fill="none" points="41,75.5 90,75.5 90,42.5 40,42.5 40,76.5" stroke="#000000" stroke-width="2" /><path d="M33,92.5 c10.127,-3.419 18.866,-8.096 24,-12.5" fill="none" stroke="#000000" stroke-width="2" /><path d="M96,93 c-6.18,-4.208 -14.703,-8.728 -24,-12.5" fill="none" stroke="#000000" stroke-width="2" /><path d="M34,8 c-9.688,2.732 -18.697,4.682 -28,6" fill="none" stroke="#000000" stroke-width="2" /><path d="M4,72.5 c7.473,-13.023 12.377,-25.655 15.5,-40" fill="none" stroke="#000000" stroke-width="2" /><path d="M32,60 c-3.638,-8.381 -7.621,-17.356 -11.5,-26" fill="none" stroke="#000000" stroke-width="2" /></svg>