<?xml version='1.0' encoding='utf-8'?>
<svg xmlns="http://www.w3.org/2000/svg" height="100px" version="1.0" viewBox="0 0 100 100" width="100px" x="0px" y="0px">
<line fill="none" stroke="#000000" stroke-width="2" x1="51" x2="18.5" y1="16" y2="16" /><line fill="none" stroke="#000000" stroke-width="2" x1="94" x2="59" y1="16" y2="16" /><line fill="none" stroke="#000000" stroke-width="2" x1="93.5" x2="6.5" y1="58.5" y2="58.5" /><path d="M34,33 c-2.138,-5.52 -4.543,-11.366 -7,-17" fill="none" stroke="#000000" stroke-width="2" /><path d="M23,5 c-2.729,9.845 -9.133,20.379 -17,28" fill="none" stroke="#000000" stroke-width="2" /><path d="M75,31 c-1.833,-4.87 -3.895,-10.028 -6,-15" fill="none" stroke="#000000" stroke-width="2" /><path d="M66,5 c-3.766,8.562 -11.55,17.947 -21,25" fill="none" stroke="#000000" stroke-width="2" /><path d="M15,42.5 c24.494,0 47.915,-2.741 70,-8" fill="none" stroke="#000000" stroke-width="2" /><path d="M9,90.5 c27.117,-6.032 41,-22.562 41,-50" fill="none" stroke="#000000" stroke-width="2" /><path d="M91,90.5 c-23.682,-4.524 -37.409,-15.466 -42,-32" fill="none" stroke="#000000" stroke-width="2" /></svg>