<?xml version='1.0' encoding='utf-8'?>
<svg xmlns="http://www.w3.org/2000/svg" height="100px" version="1.0" viewBox="0 0 100 100" width="100px" x="0px" y="0px">
<line fill="none" stroke="#000000" stroke-width="2" x1="53" x2="19" y1="15.5" y2="15.5" /><line fill="none" stroke="#000000" stroke-width="2" x1="95" x2="61.5" y1="15.5" y2="15.5" /><line fill="none" stroke="#000000" stroke-width="2" x1="95.5" x2="28.5" y1="42.5" y2="42.5" /><line fill="none" stroke="#000000" stroke-width="2" x1="19" x2="19" y1="94" y2="49" /><path d="M36,32.5 c-2.138,-5.52 -4.543,-11.366 -7,-17" fill="none" stroke="#000000" stroke-width="2" /><path d="M23,5 c-2.729,9.845 -9.133,20.379 -17,28" fill="none" stroke="#000000" stroke-width="2" /><path d="M76.5,30.5 c-1.833,-4.87 -3.895,-10.028 -6,-15" fill="none" stroke="#000000" stroke-width="2" /><path d="M68,5 c-3.766,8.562 -11.55,17.947 -21,25" fill="none" stroke="#000000" stroke-width="2" /><path d="M83,31.5 v53.0 c0,6.546 -0.563,7 -7,7 c-3.172,0 -9.749,-0.194 -16,-0.5" fill="none" stroke="#000000" stroke-width="2" /><path d="M59.5,74 c-4.795,-6.36 -11.522,-13.7 -18,-19.5" fill="none" stroke="#000000" stroke-width="2" /><path d="M27.5,31 c-4.616,13.868 -12.729,26.415 -23,36" fill="none" stroke="#000000" stroke-width="2" /></svg>