<?xml version='1.0' encoding='utf-8'?>
<svg xmlns="http://www.w3.org/2000/svg" height="100px" version="1.0" viewBox="0 0 100 100" width="100px" x="0px" y="0px">
<line fill="none" stroke="#000000" stroke-width="2" x1="50" x2="50" y1="92.5" y2="31" /><line fill="none" stroke="#000000" stroke-width="2" x1="94" x2="56" y1="14" y2="14" /><line fill="none" stroke="#000000" stroke-width="2" x1="50" x2="17.5" y1="14" y2="14" /><path d="M11.5,30 h74.5 v15.5 h-68.5 c-1.299,8.471 -3.892,17.412 -7,24.5" fill="none" stroke="#000000" stroke-width="2" /><path d="M14,61.5 h76.0 c0,23.373 -1.072,24.5 -7.5,24.5 c-2.75,0 -8.943,-0.358 -15.5,-1" fill="none" stroke="#000000" stroke-width="2" /><path d="M6,90 c20.788,-9.066 34.275,-18.403 43,-28.5" fill="none" stroke="#000000" stroke-width="2" /><path d="M34,30 c-1.833,-5.195 -3.895,-10.698 -6,-16" fill="none" stroke="#000000" stroke-width="2" /><path d="M74,30 c-1.833,-5.195 -3.895,-10.698 -6,-16" fill="none" stroke="#000000" stroke-width="2" /><path d="M23,4 c-3.148,7.932 -9.355,16.47 -17,23" fill="none" stroke="#000000" stroke-width="2" /><path d="M63,4 c-3.717,7.438 -11.482,15.749 -21,22" fill="none" stroke="#000000" stroke-width="2" /></svg>