<?xml version='1.0' encoding='utf-8'?>
<svg xmlns="http://www.w3.org/2000/svg" height="100px" version="1.0" viewBox="0 0 100 100" width="100px" x="0px" y="0px">
<line fill="none" stroke="#000000" stroke-width="2" x1="94" x2="56" y1="13" y2="13" /><line fill="none" stroke="#000000" stroke-width="2" x1="50" x2="17.5" y1="13" y2="13" /><line fill="none" stroke="#000000" stroke-width="2" x1="6" x2="94" y1="43" y2="43" /><line fill="none" stroke="#000000" stroke-width="2" x1="6" x2="94" y1="81" y2="81" /><line fill="none" stroke="#000000" stroke-width="2" x1="13" x2="87" y1="68" y2="68" /><line fill="none" stroke="#000000" stroke-width="2" x1="50" x2="50" y1="96" y2="22.5" /><polyline fill="none" points="16,56 83,56 83,31 16,31" stroke="#000000" stroke-width="2" /><path d="M34,28 c-1.832,-4.87 -3.895,-10.029 -6,-15" fill="none" stroke="#000000" stroke-width="2" /><path d="M75,28 c-1.832,-4.87 -3.895,-10.029 -6,-15" fill="none" stroke="#000000" stroke-width="2" /><path d="M23,3 c-3.148,7.932 -9.355,16.47 -17,23" fill="none" stroke="#000000" stroke-width="2" /><path d="M63,3 c-3.717,7.438 -11.482,15.749 -21,22" fill="none" stroke="#000000" stroke-width="2" /></svg>