<?xml version='1.0' encoding='utf-8'?>
<svg xmlns="http://www.w3.org/2000/svg" height="100px" version="1.0" viewBox="0 0 100 100" width="100px" x="0px" y="0px">
<line fill="none" stroke="#000000" stroke-width="2" x1="94" x2="56" y1="14" y2="14" /><line fill="none" stroke="#000000" stroke-width="2" x1="50" x2="17.5" y1="14" y2="14" /><line fill="none" stroke="#000000" stroke-width="2" x1="7" x2="93" y1="50" y2="50" /><line fill="none" stroke="#000000" stroke-width="2" x1="85.5" x2="14.5" y1="34.5" y2="34.5" /><line fill="none" stroke="#000000" stroke-width="2" x1="50" x2="50" y1="50" y2="25.5" /><line fill="none" stroke="#000000" stroke-width="2" x1="93" x2="7" y1="65.5" y2="65.5" /><path d="M34,29 c-1.833,-4.87 -3.895,-10.029 -6,-15" fill="none" stroke="#000000" stroke-width="2" /><path d="M75,29 c-1.833,-4.87 -3.895,-10.029 -6,-15" fill="none" stroke="#000000" stroke-width="2" /><path d="M23,4 c-3.148,7.932 -9.355,16.47 -17,23" fill="none" stroke="#000000" stroke-width="2" /><path d="M63,4 c-3.717,7.438 -11.482,15.749 -21,22" fill="none" stroke="#000000" stroke-width="2" /><path d="M44,85 c-5.223,-4.554 -12.498,-9.708 -20,-14" fill="none" stroke="#000000" stroke-width="2" /><path d="M72,50 v34.5 c0,6.414 -0.593,7 -8,7 c-2.503,0 -9.157,-0.18 -17,-0.5" fill="none" stroke="#000000" stroke-width="2" /></svg>