<?xml version='1.0' encoding='utf-8'?>
<svg xmlns="http://www.w3.org/2000/svg" height="100px" version="1.0" viewBox="0 0 100 100" width="100px" x="0px" y="0px">
<line fill="none" stroke="#000000" stroke-width="2" x1="12.5" x2="45.5" y1="45.5" y2="45.5" /><line fill="none" stroke="#000000" stroke-width="2" x1="94" x2="56" y1="14" y2="14" /><line fill="none" stroke="#000000" stroke-width="2" x1="50" x2="16.5" y1="14" y2="14" /><polyline fill="none" points="12.5,62.5 46.5,62.5 46.5,30 11.5,30 11.5,88.5" stroke="#000000" stroke-width="2" /><path d="M3.5,90.5 c13.904,-2.706 26.151,-6.327 40.5,-12" fill="none" stroke="#000000" stroke-width="2" /><path d="M57,93.5 V30.0 h33.0 v45.0 c0,7.69 -0.293,8 -6,8 c-1.9,0 -10.439,-0.225 -17,-0.5" fill="none" stroke="#000000" stroke-width="2" /><path d="M51.5,90.5 c-4.383,-7.787 -10.861,-17.177 -17,-24.5" fill="none" stroke="#000000" stroke-width="2" /><path d="M34,30 c-1.833,-5.195 -3.895,-10.698 -6,-16" fill="none" stroke="#000000" stroke-width="2" /><path d="M74,30 c-1.833,-5.195 -3.895,-10.698 -6,-16" fill="none" stroke="#000000" stroke-width="2" /><path d="M22,4 c-3.148,7.932 -9.355,16.47 -17,23" fill="none" stroke="#000000" stroke-width="2" /><path d="M63,4 c-3.717,7.438 -11.482,15.749 -21,22" fill="none" stroke="#000000" stroke-width="2" /></svg>