<?xml version='1.0' encoding='utf-8'?>
<svg xmlns="http://www.w3.org/2000/svg" height="100px" version="1.0" viewBox="0 0 100 100" width="100px" x="0px" y="0px">
<line fill="none" stroke="#000000" stroke-width="2" x1="21.5" x2="21.5" y1="94" y2="6" /><line fill="none" stroke="#000000" stroke-width="2" x1="37.5" x2="4.5" y1="39" y2="39" /><path d="M57.5,9 c-4.711,13.789 -11.822,26.302 -21,37" fill="none" stroke="#000000" stroke-width="2" /><path d="M76.5,9 c4.916,13.727 12.051,26.112 21,37" fill="none" stroke="#000000" stroke-width="2" /><path d="M3.5,79.5 c8.455,-13.358 13.937,-26.336 17.5,-41" fill="none" stroke="#000000" stroke-width="2" /><path d="M35.5,71 c-4.197,-9.969 -8.928,-20.756 -13.5,-31" fill="none" stroke="#000000" stroke-width="2" /><path d="M15.5,34 c-2.732,-7.823 -5.915,-15.581 -9,-22" fill="none" stroke="#000000" stroke-width="2" /><path d="M27.5,34 c3.655,-7.186 6.967,-15.65 9,-23" fill="none" stroke="#000000" stroke-width="2" /><path d="M33.5,91.5 c17.242,-9.876 26.916,-25.528 28.5,-50.5" fill="none" stroke="#000000" stroke-width="2" /><path d="M44.5,41 h44.0 c0,43.915 -3.325,49 -12,49 c-4.032,0 -9.632,-0.168 -15,-0.5" fill="none" stroke="#000000" stroke-width="2" /></svg>