<?xml version='1.0' encoding='utf-8'?>
<svg xmlns="http://www.w3.org/2000/svg" height="100px" version="1.0" viewBox="0 0 100 100" width="100px" x="0px" y="0px">
<line fill="none" stroke="#000000" stroke-width="2" x1="6" x2="94" y1="40.5" y2="40.5" /><line fill="none" stroke="#000000" stroke-width="2" x1="89.5" x2="10.5" y1="13.5" y2="13.5" /><line fill="none" stroke="#000000" stroke-width="2" x1="85.5" x2="14.5" y1="27" y2="27" /><line fill="none" stroke="#000000" stroke-width="2" x1="50" x2="50" y1="40.5" y2="5" /><line fill="none" stroke="#000000" stroke-width="2" x1="88.5" x2="7" y1="66.5" y2="68.5" /><line fill="none" stroke="#000000" stroke-width="2" x1="50" x2="50" y1="67.5" y2="94" /><path d="M41.5,61 c-6.285,-4.294 -14.459,-9.62 -21.5,-14" fill="none" stroke="#000000" stroke-width="2" /><path d="M95,72 c-5.668,-5.065 -13.382,-11.406 -20,-16.5" fill="none" stroke="#000000" stroke-width="2" /><path d="M9,88.5 c11.341,-4.729 20.537,-9.846 27.5,-15" fill="none" stroke="#000000" stroke-width="2" /><path d="M91,89.5 c-8.031,-5.229 -17.8,-10.671 -29,-16" fill="none" stroke="#000000" stroke-width="2" /><path d="M26.5,68 c17.381,-7.557 32.813,-15.556 46.5,-24" fill="none" stroke="#000000" stroke-width="2" /><path d="M28,52 c7.442,-3.866 13.791,-7.553 20,-11.5" fill="none" stroke="#000000" stroke-width="2" /></svg>