<?xml version='1.0' encoding='utf-8'?>
<svg xmlns="http://www.w3.org/2000/svg" height="100px" version="1.0" viewBox="0 0 100 100" width="100px" x="0px" y="0px">
<line fill="none" stroke="#000000" stroke-width="2" x1="5" x2="37.5" y1="52" y2="50" /><line fill="none" stroke="#000000" stroke-width="2" x1="22.5" x2="22.5" y1="51" y2="94" /><line fill="none" stroke="#000000" stroke-width="2" x1="51.5" x2="90" y1="14.5" y2="14.5" /><path d="M39,57.5 c-1.403,-7.545 -3.801,-16.481 -6.5,-24" fill="none" stroke="#000000" stroke-width="2" /><path d="M7,87.5 c2.879,-9.126 4.795,-19.038 5.5,-28.5" fill="none" stroke="#000000" stroke-width="2" /><path d="M11,51.5 c8.773,-11.431 16.518,-23.412 23.5,-36.5" fill="none" stroke="#000000" stroke-width="2" /><path d="M18.5,41 c-3.258,-6.554 -7.862,-15.377 -11.5,-22" fill="none" stroke="#000000" stroke-width="2" /><path d="M11.5,27.5 c4.367,-7.057 8.246,-14.042 12,-21.5" fill="none" stroke="#000000" stroke-width="2" /><path d="M37,29 c9.105,-7.246 15.984,-15.432 21,-24.5" fill="none" stroke="#000000" stroke-width="2" /><path d="M89.117,15.028 C79.948,32.217 65.07,43.946 38,53.5" fill="none" stroke="#000000" stroke-width="2" /><path d="M48,18.5 c10.951,14.414 25.432,25.583 48.5,36.5" fill="none" stroke="#000000" stroke-width="2" /><path d="M89.5,92.5 c-14.514,-5.953 -29.11,-10.24 -44,-13" fill="none" stroke="#000000" stroke-width="2" /><path d="M83.5,68 c-9.08,-4.968 -18.588,-9.214 -28,-12.5" fill="none" stroke="#000000" stroke-width="2" /><path d="M37.5,84.5 c-0.682,-6.759 -2.527,-18.755 -4,-26" fill="none" stroke="#000000" stroke-width="2" /></svg>