<?xml version='1.0' encoding='utf-8'?>
<svg xmlns="http://www.w3.org/2000/svg" height="100px" version="1.0" viewBox="0 0 100 100" width="100px" x="0px" y="0px">
<line fill="none" stroke="#000000" stroke-width="2" x1="43" x2="90" y1="31.5" y2="31.5" /><line fill="none" stroke="#000000" stroke-width="2" x1="93.5" x2="41.5" y1="15" y2="15" /><line fill="none" stroke="#000000" stroke-width="2" x1="66.5" x2="66.5" y1="31.5" y2="5" /><line fill="none" stroke="#000000" stroke-width="2" x1="5" x2="37.5" y1="52" y2="50" /><line fill="none" stroke="#000000" stroke-width="2" x1="22.5" x2="22.5" y1="51" y2="94" /><polyline fill="none" points="90.5,61 90.5,44 44,44 44,62" stroke="#000000" stroke-width="2" /><path d="M73.5,52 v31.8 c0,6.986 0.246,7.2 9.5,7.2 c9.058,0 9.585,-0.565 10,-19" fill="none" stroke="#000000" stroke-width="2" /><path d="M39,57.5 c-1.403,-7.545 -3.801,-16.481 -6.5,-24" fill="none" stroke="#000000" stroke-width="2" /><path d="M7,87.5 c2.879,-9.126 4.795,-19.038 5.5,-28.5" fill="none" stroke="#000000" stroke-width="2" /><path d="M35.5,84.5 c-0.596,-7.641 -1.969,-17.879 -3.5,-26" fill="none" stroke="#000000" stroke-width="2" /><path d="M11,51.5 c8.773,-11.431 16.518,-23.412 23.5,-36.5" fill="none" stroke="#000000" stroke-width="2" /><path d="M18.5,41 c-3.258,-6.554 -7.862,-15.377 -11.5,-22" fill="none" stroke="#000000" stroke-width="2" /><path d="M11.5,27.5 c4.367,-7.057 8.246,-14.042 12,-21.5" fill="none" stroke="#000000" stroke-width="2" /><path d="M37.5,92 c14.992,-5.321 22,-16.351 22,-40" fill="none" stroke="#000000" stroke-width="2" /></svg>