<?xml version='1.0' encoding='utf-8'?>
<svg xmlns="http://www.w3.org/2000/svg" height="100px" version="1.0" viewBox="0 0 100 100" width="100px" x="0px" y="0px">
<line fill="none" stroke="#000000" stroke-width="2" x1="5" x2="41.5" y1="52" y2="50" /><line fill="none" stroke="#000000" stroke-width="2" x1="25" x2="25" y1="51" y2="94" /><line fill="none" stroke="#000000" stroke-width="2" x1="48" x2="86.5" y1="26.5" y2="26.5" /><line fill="none" stroke="#000000" stroke-width="2" x1="44" x2="95" y1="43" y2="43" /><polyline fill="none" points="86.5,43 86.5,10.5 46.5,10.5" stroke="#000000" stroke-width="2" /><path d="M43,56.5 c-1.619,-7.545 -4.385,-16.48 -7.5,-24" fill="none" stroke="#000000" stroke-width="2" /><path d="M7,87.5 c3.402,-9.126 5.666,-19.038 6.5,-28.5" fill="none" stroke="#000000" stroke-width="2" /><path d="M39,81 c-0.682,-5.813 -2.549,-16.265 -4,-22.5" fill="none" stroke="#000000" stroke-width="2" /><path d="M12,51.5 c10.08,-11.431 18.977,-23.412 27,-36.5" fill="none" stroke="#000000" stroke-width="2" /><path d="M20.5,41 c-3.684,-6.554 -8.887,-15.377 -13,-22" fill="none" stroke="#000000" stroke-width="2" /><path d="M12.5,27.5 c5.096,-7.057 9.62,-14.042 14,-21.5" fill="none" stroke="#000000" stroke-width="2" /><path d="M68.5,43 v38.698 c0,8.037 -1.134,9.302 -6,9.302 c-2.301,0 -6.198,-0.173 -11,-0.5" fill="none" stroke="#000000" stroke-width="2" /><path d="M68.5,46.069 c4.988,17.04 15.645,33.331 28,43.431" fill="none" stroke="#000000" stroke-width="2" /><path d="M92,48.5 c-3.699,7.682 -8.282,14.486 -13.5,20" fill="none" stroke="#000000" stroke-width="2" /><path d="M38.5,87.5 c12.32,-7.998 22.793,-17.592 30,-27" fill="none" stroke="#000000" stroke-width="2" /><path d="M57.5,66 c-2.785,-5.12 -6.686,-11.371 -11,-17.5" fill="none" stroke="#000000" stroke-width="2" /></svg>