<?xml version='1.0' encoding='utf-8'?>
<svg xmlns="http://www.w3.org/2000/svg" height="100px" version="1.0" viewBox="0 0 100 100" width="100px" x="0px" y="0px">
<line fill="none" stroke="#000000" stroke-width="2" x1="5" x2="37.5" y1="52" y2="50" /><line fill="none" stroke="#000000" stroke-width="2" x1="22.5" x2="22.5" y1="51" y2="94" /><line fill="none" stroke="#000000" stroke-width="2" x1="75.5" x2="75.5" y1="94" y2="55.5" /><line fill="none" stroke="#000000" stroke-width="2" x1="37" x2="93.5" y1="65" y2="65" /><line fill="none" stroke="#000000" stroke-width="2" x1="48" x2="48" y1="79.5" y2="66" /><line fill="none" stroke="#000000" stroke-width="2" x1="96" x2="35" y1="80.5" y2="80.5" /><line fill="none" stroke="#000000" stroke-width="2" x1="35.5" x2="95.5" y1="29.5" y2="29.5" /><polyline fill="none" points="45,55.5 45,38.5 90,38.5 90,54.5 46,54.5" stroke="#000000" stroke-width="2" /><polyline fill="none" points="87.5,29.5 87.5,14 41,14" stroke="#000000" stroke-width="2" /><path d="M39,57.5 c-1.403,-7.545 -3.801,-16.481 -6.5,-24" fill="none" stroke="#000000" stroke-width="2" /><path d="M7,87.5 c2.879,-9.126 4.795,-19.038 5.5,-28.5" fill="none" stroke="#000000" stroke-width="2" /><path d="M35.5,84.5 c-0.596,-7.641 -1.969,-17.879 -3.5,-26" fill="none" stroke="#000000" stroke-width="2" /><path d="M11,51.5 c8.773,-11.431 16.518,-23.412 23.5,-36.5" fill="none" stroke="#000000" stroke-width="2" /><path d="M18.5,41 c-3.258,-6.554 -7.862,-15.377 -11.5,-22" fill="none" stroke="#000000" stroke-width="2" /><path d="M11.5,27.5 c4.367,-7.057 8.246,-14.042 12,-21.5" fill="none" stroke="#000000" stroke-width="2" /><path d="M58.5,29.5 c2.601,-7.489 4.852,-15.473 7,-24.5" fill="none" stroke="#000000" stroke-width="2" /></svg>