<?xml version='1.0' encoding='utf-8'?>
<svg xmlns="http://www.w3.org/2000/svg" height="100px" version="1.0" viewBox="0 0 100 100" width="100px" x="0px" y="0px">
<line fill="none" stroke="#000000" stroke-width="2" x1="62.5" x2="62.5" y1="26" y2="11" /><line fill="none" stroke="#000000" stroke-width="2" x1="37.5" x2="37.5" y1="26" y2="11" /><line fill="none" stroke="#000000" stroke-width="2" x1="7.5" x2="38.5" y1="41" y2="41" /><line fill="none" stroke="#000000" stroke-width="2" x1="59.5" x2="92.5" y1="41" y2="41" /><line fill="none" stroke="#000000" stroke-width="2" x1="59.5" x2="93.5" y1="75" y2="75" /><line fill="none" stroke="#000000" stroke-width="2" x1="9.5" x2="38.5" y1="57.5" y2="57.5" /><line fill="none" stroke="#000000" stroke-width="2" x1="59.5" x2="90.5" y1="57.5" y2="57.5" /><line fill="none" stroke="#000000" stroke-width="2" x1="59.5" x2="59.5" y1="94" y2="30.5" /><polyline fill="none" points="14.5,27 86.5,27 86.5,10 13.5,10 13.5,28" stroke="#000000" stroke-width="2" /><path d="M6.5,78 c10.655,-1.806 20.371,-3.999 31,-7" fill="none" stroke="#000000" stroke-width="2" /><path d="M13,94 c19.314,-5.991 25.5,-14.061 25.5,-34.5 v-29.0" fill="none" stroke="#000000" stroke-width="2" /></svg>