<?xml version='1.0' encoding='utf-8'?>
<svg xmlns="http://www.w3.org/2000/svg" height="100px" version="1.0" viewBox="0 0 100 100" width="100px" x="0px" y="0px">
<line fill="none" stroke="#000000" stroke-width="2" x1="62.5" x2="62.5" y1="22" y2="10.5" /><line fill="none" stroke="#000000" stroke-width="2" x1="37.5" x2="37.5" y1="22" y2="10.5" /><line fill="none" stroke="#000000" stroke-width="2" x1="29" x2="81" y1="54" y2="54" /><line fill="none" stroke="#000000" stroke-width="2" x1="29" x2="81" y1="66.5" y2="66.5" /><line fill="none" stroke="#000000" stroke-width="2" x1="8" x2="92" y1="32" y2="32" /><line fill="none" stroke="#000000" stroke-width="2" x1="14" x2="14" y1="42" y2="94.5" /><line fill="none" stroke="#000000" stroke-width="2" x1="15" x2="92" y1="88.5" y2="88.5" /><polyline fill="none" points="14.5,23 86.5,23 86.5,9.5 13.5,9.5 13.5,24" stroke="#000000" stroke-width="2" /><polyline fill="none" points="29,79 82,79 82,41.5 28,41.5 28,80" stroke="#000000" stroke-width="2" /><path d="M52,23 c-1.148,6.756 -2.449,12.843 -4,18.5" fill="none" stroke="#000000" stroke-width="2" /></svg>