<?xml version='1.0' encoding='utf-8'?>
<svg xmlns="http://www.w3.org/2000/svg" height="100px" version="1.0" viewBox="0 0 100 100" width="100px" x="0px" y="0px">
<line fill="none" stroke="#000000" stroke-width="2" x1="4.5" x2="51.5" y1="27" y2="27" /><line fill="none" stroke="#000000" stroke-width="2" x1="16.5" x2="44.5" y1="87" y2="87" /><line fill="none" stroke="#000000" stroke-width="2" x1="96.5" x2="49.5" y1="68" y2="68" /><line fill="none" stroke="#000000" stroke-width="2" x1="95.5" x2="50.5" y1="22" y2="22" /><line fill="none" stroke="#000000" stroke-width="2" x1="94" x2="52" y1="44.5" y2="44.5" /><line fill="none" stroke="#000000" stroke-width="2" x1="73.5" x2="73.5" y1="94" y2="23" /><polyline fill="none" points="7,44.5 45,44.5 45,10.5 8,10.5" stroke="#000000" stroke-width="2" /><polyline fill="none" points="15.5,93 15.5,59 45.5,59 45.5,93" stroke="#000000" stroke-width="2" /><path d="M3.5,77.5 c13.144,-16.183 20,-37.168 20,-66" fill="none" stroke="#000000" stroke-width="2" /><path d="M65.5,19 c-1.911,-4.979 -3.995,-9.85 -6,-14" fill="none" stroke="#000000" stroke-width="2" /><path d="M81,22 c2.645,-5.603 5.16,-11.711 7,-17" fill="none" stroke="#000000" stroke-width="2" /></svg>