<?xml version='1.0' encoding='utf-8'?>
<svg xmlns="http://www.w3.org/2000/svg" height="100px" version="1.0" viewBox="0 0 100 100" width="100px" x="0px" y="0px">
<line fill="none" stroke="#000000" stroke-width="2" x1="6" x2="94" y1="61.5" y2="61.5" /><line fill="none" stroke="#000000" stroke-width="2" x1="6" x2="94" y1="40" y2="40" /><line fill="none" stroke="#000000" stroke-width="2" x1="15" x2="85" y1="26.5" y2="26.5" /><line fill="none" stroke="#000000" stroke-width="2" x1="10" x2="90" y1="13.5" y2="13.5" /><line fill="none" stroke="#000000" stroke-width="2" x1="50" x2="50" y1="40" y2="13.5" /><path d="M29,49.5 v38.0 c0,3.766 -0.281,4 -5,4 c-2.246,0 -6.665,-0.204 -11,-0.5" fill="none" stroke="#000000" stroke-width="2" /><path d="M87,66 c-8.783,11.264 -24.943,20.26 -49,25" fill="none" stroke="#000000" stroke-width="2" /><path d="M60,44.999 c0,32.916 21.559,46.501 26,46.501 c2.407,0 5.804,-1.789 8,-13" fill="none" stroke="#000000" stroke-width="2" /><path d="M9,51.5 c15.732,-1.172 29.098,-2.993 41,-5.5" fill="none" stroke="#000000" stroke-width="2" /><path d="M6.5,78.5 c16.883,-1.385 31.228,-3.537 44,-6.5" fill="none" stroke="#000000" stroke-width="2" /><path d="M73,46.5 c5.918,3.195 10.807,6.276 16,10" fill="none" stroke="#000000" stroke-width="2" /><path d="M38,13.5 c-2.549,-3.556 -5.327,-7.034 -8,-10" fill="none" stroke="#000000" stroke-width="2" /><path d="M62,13.5 c3.024,-3.292 5.896,-6.888 8,-10" fill="none" stroke="#000000" stroke-width="2" /></svg>