<?xml version='1.0' encoding='utf-8'?>
<svg xmlns="http://www.w3.org/2000/svg" height="100px" version="1.0" viewBox="0 0 100 100" width="100px" x="0px" y="0px">
<line fill="none" stroke="#000000" stroke-width="2" x1="20" x2="81" y1="87.5" y2="87.5" /><line fill="none" stroke="#000000" stroke-width="2" x1="20" x2="81" y1="69.5" y2="69.5" /><polyline fill="none" points="82,93.5 82,52.5 19,52.5 19,93.5" stroke="#000000" stroke-width="2" /><path d="M50,43 c-1.52,3.519 -3.293,6.552 -5.5,9.5" fill="none" stroke="#000000" stroke-width="2" /><path d="M8,39 c12.818,-2.875 23.434,-6.386 31,-10" fill="none" stroke="#000000" stroke-width="2" /><path d="M30,25.5 c-4.646,-3.028 -10.341,-6.409 -17,-10" fill="none" stroke="#000000" stroke-width="2" /><path d="M7,10 h37.0 v30.5 c0,3.202 -0.258,3.5 -5.5,3.5 c-2.32,0 -8.623,-0.177 -15.5,-0.5" fill="none" stroke="#000000" stroke-width="2" /><path d="M52.5,38.5 c12.818,-2.875 23.434,-6.386 31,-10" fill="none" stroke="#000000" stroke-width="2" /><path d="M74.5,25 c-4.646,-3.028 -10.341,-6.409 -17,-10" fill="none" stroke="#000000" stroke-width="2" /><path d="M51.5,10 h37.0 v30.5 c0,3.202 -0.258,3.5 -5.5,3.5 c-2.32,0 -8.623,-0.177 -15.5,-0.5" fill="none" stroke="#000000" stroke-width="2" /></svg>