<?xml version='1.0' encoding='utf-8'?>
<svg xmlns="http://www.w3.org/2000/svg" height="100px" version="1.0" viewBox="0 0 100 100" width="100px" x="0px" y="0px">
<line fill="none" stroke="#000000" stroke-width="2" x1="40" x2="64" y1="64.5" y2="64.5" /><line fill="none" stroke="#000000" stroke-width="2" x1="31.5" x2="95" y1="38" y2="38" /><line fill="none" stroke="#000000" stroke-width="2" x1="33" x2="70.5" y1="16" y2="16" /><line fill="none" stroke="#000000" stroke-width="2" x1="52" x2="52" y1="15" y2="4" /><line fill="none" stroke="#000000" stroke-width="2" x1="8" x2="8" y1="12" y2="77" /><line fill="none" stroke="#000000" stroke-width="2" x1="33" x2="3" y1="11" y2="11" /><line fill="none" stroke="#000000" stroke-width="2" x1="28" x2="28" y1="94.5" y2="12" /><line fill="none" stroke="#000000" stroke-width="2" x1="9" x2="27" y1="53.5" y2="53.5" /><line fill="none" stroke="#000000" stroke-width="2" x1="9" x2="27" y1="31.5" y2="31.5" /><polyline fill="none" points="40,82.5 65,82.5 65,47.5 39,47.5 39,89.5" stroke="#000000" stroke-width="2" /><path d="M92,44 c-5.764,24.071 -16.26,37.835 -35,48" fill="none" stroke="#000000" stroke-width="2" /><path d="M74,4.5 c0,59.849 13.213,86.5 16.5,86.5 c1.781,0 4.375,-2.614 6,-23" fill="none" stroke="#000000" stroke-width="2" /><path d="M82,11 c4.244,5.488 8.465,11.86 12,18" fill="none" stroke="#000000" stroke-width="2" /><path d="M57.5,38 c2.552,-6.153 4.631,-13.698 6,-22" fill="none" stroke="#000000" stroke-width="2" /><path d="M46,38 c-1.691,-7.427 -3.695,-14.788 -6,-22" fill="none" stroke="#000000" stroke-width="2" /><path d="M2.5,78.5 c7.922,-1.63 16.9,-4.124 25.5,-7" fill="none" stroke="#000000" stroke-width="2" /></svg>