<?xml version='1.0' encoding='utf-8'?>
<svg xmlns="http://www.w3.org/2000/svg" height="100px" version="1.0" viewBox="0 0 100 100" width="100px" x="0px" y="0px">
<line fill="none" stroke="#000000" stroke-width="2" x1="11" x2="30.5" y1="59" y2="59" /><line fill="none" stroke="#000000" stroke-width="2" x1="12" x2="30.5" y1="33.5" y2="33.5" /><line fill="none" stroke="#000000" stroke-width="2" x1="59" x2="59" y1="92" y2="30" /><path d="M5,92.5 c4.1,-10.866 6,-23.313 6,-46.5 v-36.0 h20.5 v73.0 c0,7.724 -0.25,8 -5,8 c-1.819,0 -5.604,-0.155 -11,-0.5" fill="none" stroke="#000000" stroke-width="2" /><path d="M42,14.5 c15.144,0 34.75,-2.456 49,-6" fill="none" stroke="#000000" stroke-width="2" /><path d="M35,91 c5.15,-12.617 8,-31.265 8,-60.5 v-17.0" fill="none" stroke="#000000" stroke-width="2" /><path d="M43,30.5 c16.712,0 36.304,-2.349 50.5,-6" fill="none" stroke="#000000" stroke-width="2" /><path d="M94.5,90.5 c-11.92,-14.037 -20.5,-38.305 -20.5,-62" fill="none" stroke="#000000" stroke-width="2" /><path d="M93.5,40.5 c-4.469,5.6 -9.777,10.577 -16,15" fill="none" stroke="#000000" stroke-width="2" /></svg>