<?xml version='1.0' encoding='utf-8'?>
<svg xmlns="http://www.w3.org/2000/svg" height="100px" version="1.0" viewBox="0 0 100 100" width="100px" x="0px" y="0px">
<line fill="none" stroke="#000000" stroke-width="2" x1="71" x2="71" y1="18.5" y2="4" /><line fill="none" stroke="#000000" stroke-width="2" x1="46" x2="96" y1="18.5" y2="18.5" /><line fill="none" stroke="#000000" stroke-width="2" x1="4.5" x2="49.5" y1="51" y2="47" /><line fill="none" stroke="#000000" stroke-width="2" x1="26.5" x2="26.5" y1="49" y2="81" /><path d="M46,91.5 c7.818,-6.991 11,-16.585 11,-44.5 v-13.5 h26.0 v49.5 c0,6.714 0.296,7 5.5,7 c6.431,0 7.267,-0.887 7.5,-24" fill="none" stroke="#000000" stroke-width="2" /><path d="M4.5,92.5 c5.156,-10.463 7.5,-22.791 7.5,-46.5 v-30.5 h30.0 v67.5 c0,7.505 -0.339,8 -3.9,8 c-1.635,0 -4.753,-0.166 -9.6,-0.5" fill="none" stroke="#000000" stroke-width="2" /><path d="M31,40.5 c-2.914,-6.144 -6.154,-12.252 -9,-17" fill="none" stroke="#000000" stroke-width="2" /><path d="M26.5,4 c-0.602,4.216 -1.244,7.964 -2,11.5" fill="none" stroke="#000000" stroke-width="2" /></svg>