<?xml version='1.0' encoding='utf-8'?>
<svg xmlns="http://www.w3.org/2000/svg" height="100px" version="1.0" viewBox="0 0 100 100" width="100px" x="0px" y="0px">
<line fill="none" stroke="#000000" stroke-width="2" x1="50" x2="50" y1="93.5" y2="53" /><line fill="none" stroke="#000000" stroke-width="2" x1="92" x2="8" y1="60.5" y2="60.5" /><line fill="none" stroke="#000000" stroke-width="2" x1="7" x2="93" y1="15" y2="15" /><line fill="none" stroke="#000000" stroke-width="2" x1="32" x2="32" y1="25" y2="4" /><line fill="none" stroke="#000000" stroke-width="2" x1="68" x2="68" y1="23.5" y2="4" /><path d="M12.5,31.5 c26.042,0 51.134,-2.358 75,-7" fill="none" stroke="#000000" stroke-width="2" /><path d="M28,54.5 c-3.283,-5.853 -6.951,-11.65 -10.5,-16.5" fill="none" stroke="#000000" stroke-width="2" /><path d="M53,49.5 c-2.781,-5.151 -5.947,-10.27 -9,-14.5" fill="none" stroke="#000000" stroke-width="2" /><path d="M70,53.5 c5.549,-6.979 10.268,-14.511 13.5,-21.5" fill="none" stroke="#000000" stroke-width="2" /><path d="M6,89.5 c18.07,-6.784 33.259,-17.337 43,-29" fill="none" stroke="#000000" stroke-width="2" /><path d="M94,89.5 c-18.07,-6.784 -33.259,-17.337 -43,-29" fill="none" stroke="#000000" stroke-width="2" /></svg>