<?xml version='1.0' encoding='utf-8'?>
<svg xmlns="http://www.w3.org/2000/svg" height="100px" version="1.0" viewBox="0 0 100 100" width="100px" x="0px" y="0px">
<line fill="none" stroke="#000000" stroke-width="2" x1="42" x2="84" y1="87.5" y2="87.5" /><line fill="none" stroke="#000000" stroke-width="2" x1="49.5" x2="88" y1="27.5" y2="27.5" /><line fill="none" stroke="#000000" stroke-width="2" x1="7" x2="93" y1="14" y2="14" /><line fill="none" stroke="#000000" stroke-width="2" x1="32" x2="32" y1="22" y2="4" /><line fill="none" stroke="#000000" stroke-width="2" x1="68" x2="68" y1="22" y2="4" /><polyline fill="none" points="41,93.5 41,62 85,62 85,93.5" stroke="#000000" stroke-width="2" /><path d="M10,93 c7.514,-7.671 13.688,-16.247 18,-25" fill="none" stroke="#000000" stroke-width="2" /><path d="M28.5,34 c-4.842,-3.677 -10.543,-7.573 -17,-11.5" fill="none" stroke="#000000" stroke-width="2" /><path d="M24.5,54.5 c-5.355,-4.007 -11.389,-8.123 -18.5,-12.5" fill="none" stroke="#000000" stroke-width="2" /><path d="M32.5,39.5 c10.912,-6.188 18.918,-12.922 25,-20.5" fill="none" stroke="#000000" stroke-width="2" /><path d="M87.169,27.942 c-10.671,15.885 -27.216,27.621 -55.169,36.058" fill="none" stroke="#000000" stroke-width="2" /><path d="M44,32 c14.707,14.64 31.267,25.433 50.5,33" fill="none" stroke="#000000" stroke-width="2" /></svg>