<?xml version='1.0' encoding='utf-8'?>
<svg xmlns="http://www.w3.org/2000/svg" height="100px" version="1.0" viewBox="0 0 100 100" width="100px" x="0px" y="0px">
<line fill="none" stroke="#000000" stroke-width="2" x1="33.5" x2="66.5" y1="41" y2="41" /><line fill="none" stroke="#000000" stroke-width="2" x1="92" x2="8" y1="66.5" y2="66.5" /><line fill="none" stroke="#000000" stroke-width="2" x1="50" x2="50" y1="93.5" y2="58.5" /><line fill="none" stroke="#000000" stroke-width="2" x1="7" x2="93" y1="13.5" y2="13.5" /><line fill="none" stroke="#000000" stroke-width="2" x1="32" x2="32" y1="22" y2="4.5" /><line fill="none" stroke="#000000" stroke-width="2" x1="68" x2="68" y1="22" y2="4.5" /><polyline fill="none" points="33.5,57.5 67.5,57.5 67.5,26.5 32.5,26.5 32.5,58.5" stroke="#000000" stroke-width="2" /><path d="M25.5,35.5 c-4.729,-3.824 -10.514,-7.927 -17,-12" fill="none" stroke="#000000" stroke-width="2" /><path d="M7.5,59 c8.138,-3.788 15.102,-8.236 20,-12.5" fill="none" stroke="#000000" stroke-width="2" /><path d="M91.5,23.5 c-4.729,3.824 -10.514,7.927 -17,12" fill="none" stroke="#000000" stroke-width="2" /><path d="M72.5,46.5 c7.594,3.535 14.59,7.954 20,12.5" fill="none" stroke="#000000" stroke-width="2" /><path d="M50,16.5 c-1.16,3.631 -2.449,6.959 -4,10" fill="none" stroke="#000000" stroke-width="2" /><path d="M6,91.5 c20.75,-7.865 34.799,-16.512 43,-25" fill="none" stroke="#000000" stroke-width="2" /><path d="M94,91.5 c-20.75,-7.865 -34.799,-16.512 -43,-25" fill="none" stroke="#000000" stroke-width="2" /></svg>