<?xml version='1.0' encoding='utf-8'?>
<svg xmlns="http://www.w3.org/2000/svg" height="100px" version="1.0" viewBox="0 0 100 100" width="100px" x="0px" y="0px">
<line fill="none" stroke="#000000" stroke-width="2" x1="15" x2="15" y1="94" y2="43.5" /><line fill="none" stroke="#000000" stroke-width="2" x1="97" x2="69" y1="34" y2="34" /><line fill="none" stroke="#000000" stroke-width="2" x1="95" x2="71" y1="11" y2="11" /><line fill="none" stroke="#000000" stroke-width="2" x1="48.5" x2="48.5" y1="93" y2="7" /><line fill="none" stroke="#000000" stroke-width="2" x1="67.5" x2="29.5" y1="29.5" y2="29.5" /><path d="M26,28 c-6.155,11.01 -14.33,20.146 -24,27" fill="none" stroke="#000000" stroke-width="2" /><path d="M27,6 c-6.021,9.226 -13.919,16.872 -24,23" fill="none" stroke="#000000" stroke-width="2" /><path d="M87.5,34 v49.5 c0,7.198 -0.79,8 -7,8 c-2.85,0 -7.088,-0.144 -13,-0.5" fill="none" stroke="#000000" stroke-width="2" /><path d="M26.5,82.5 c4.335,-12.694 7.685,-27.5 9.5,-42.5" fill="none" stroke="#000000" stroke-width="2" /><path d="M70,81.5 c-2.678,-15.484 -6.023,-29.742 -10,-42" fill="none" stroke="#000000" stroke-width="2" /><path d="M55.5,9 c3.949,3.867 8.246,8.7 12,13.5" fill="none" stroke="#000000" stroke-width="2" /></svg>