<?xml version='1.0' encoding='utf-8'?>
<svg xmlns="http://www.w3.org/2000/svg" height="100px" version="1.0" viewBox="0 0 100 100" width="100px" x="0px" y="0px">
<line fill="none" stroke="#000000" stroke-width="2" x1="15" x2="15" y1="94" y2="43.5" /><line fill="none" stroke="#000000" stroke-width="2" x1="97" x2="69" y1="34" y2="34" /><line fill="none" stroke="#000000" stroke-width="2" x1="95" x2="70" y1="11" y2="11" /><line fill="none" stroke="#000000" stroke-width="2" x1="69" x2="30" y1="58" y2="58" /><line fill="none" stroke="#000000" stroke-width="2" x1="50" x2="50" y1="80.5" y2="44.5" /><line fill="none" stroke="#000000" stroke-width="2" x1="70" x2="26" y1="40.5" y2="40.5" /><line fill="none" stroke="#000000" stroke-width="2" x1="67" x2="32" y1="20" y2="20" /><line fill="none" stroke="#000000" stroke-width="2" x1="50" x2="50" y1="40.5" y2="5.5" /><path d="M26,28 c-6.155,11.01 -14.33,20.146 -24,27" fill="none" stroke="#000000" stroke-width="2" /><path d="M27,6 c-6.021,9.226 -13.919,16.872 -24,23" fill="none" stroke="#000000" stroke-width="2" /><path d="M74,77 c-12.564,2.297 -28.998,4.401 -50,6" fill="none" stroke="#000000" stroke-width="2" /><path d="M87.5,34 v49.5 c0,7.198 -0.79,8 -7,8 c-2.85,0 -7.088,-0.144 -13,-0.5" fill="none" stroke="#000000" stroke-width="2" /></svg>