<?xml version='1.0' encoding='utf-8'?>
<svg xmlns="http://www.w3.org/2000/svg" height="100px" version="1.0" viewBox="0 0 100 100" width="100px" x="0px" y="0px">
<line fill="none" stroke="#000000" stroke-width="2" x1="14" x2="14" y1="94" y2="43.5" /><line fill="none" stroke="#000000" stroke-width="2" x1="97" x2="72" y1="34" y2="34" /><line fill="none" stroke="#000000" stroke-width="2" x1="95" x2="73" y1="11" y2="11" /><line fill="none" stroke="#000000" stroke-width="2" x1="55.5" x2="55.5" y1="94" y2="55.5" /><line fill="none" stroke="#000000" stroke-width="2" x1="26" x2="71.5" y1="65" y2="65" /><line fill="none" stroke="#000000" stroke-width="2" x1="34" x2="34" y1="79.5" y2="66" /><line fill="none" stroke="#000000" stroke-width="2" x1="73" x2="22" y1="80.5" y2="80.5" /><line fill="none" stroke="#000000" stroke-width="2" x1="27" x2="72" y1="29.5" y2="29.5" /><polyline fill="none" points="31.5,55.5 31.5,38.5 67.5,38.5 67.5,54.5 32.5,54.5" stroke="#000000" stroke-width="2" /><polyline fill="none" points="65,29.5 65,14 30,14" stroke="#000000" stroke-width="2" /><path d="M24,28 c-5.643,11.01 -13.136,20.146 -22,27" fill="none" stroke="#000000" stroke-width="2" /><path d="M25,6 c-5.519,9.226 -12.759,16.872 -22,23" fill="none" stroke="#000000" stroke-width="2" /><path d="M88,34 v49.5 c0,7.198 -0.722,8 -6,8 c-2.422,0 -5.975,-0.144 -11,-0.5" fill="none" stroke="#000000" stroke-width="2" /><path d="M40.5,29.5 c2.229,-7.489 4.159,-15.473 6,-24.5" fill="none" stroke="#000000" stroke-width="2" /></svg>