<?xml version='1.0' encoding='utf-8'?>
<svg xmlns="http://www.w3.org/2000/svg" height="100px" version="1.0" viewBox="0 0 100 100" width="100px" x="0px" y="0px">
<line fill="none" stroke="#000000" stroke-width="2" x1="22" x2="78" y1="55.5" y2="55.5" /><line fill="none" stroke="#000000" stroke-width="2" x1="22" x2="78" y1="41.5" y2="41.5" /><polyline fill="none" points="91,36 91,18 9,18 9,36" stroke="#000000" stroke-width="2" /><polyline fill="none" points="22,70 79,70 79,28 21,28 21,71" stroke="#000000" stroke-width="2" /><path d="M30,18 c-3.115,-4.695 -6.549,-9.147 -10,-13" fill="none" stroke="#000000" stroke-width="2" /><path d="M53,18 c-3.117,-5.032 -6.549,-9.873 -10,-14" fill="none" stroke="#000000" stroke-width="2" /><path d="M70,18 c3.871,-4.696 7.309,-9.527 10,-14" fill="none" stroke="#000000" stroke-width="2" /><path d="M58,71 v16.0 c0,3.697 0.758,4.554 5.5,4.8 c2.353,0.123 4.934,0.2 7.5,0.2 c2.898,0 5.412,-0.064 8,-0.2 c8.725,-0.451 9.792,-1.518 11,-22.3" fill="none" stroke="#000000" stroke-width="2" /><path d="M9,93.5 c19.253,-3.399 30.236,-12.807 31,-23.5" fill="none" stroke="#000000" stroke-width="2" /></svg>