<?xml version='1.0' encoding='utf-8'?>
<svg xmlns="http://www.w3.org/2000/svg" height="100px" version="1.0" viewBox="0 0 100 100" width="100px" x="0px" y="0px">
<line fill="none" stroke="#000000" stroke-width="2" x1="11.5" x2="11.5" y1="46.5" y2="93" /><line fill="none" stroke="#000000" stroke-width="2" x1="11.5" x2="48" y1="85" y2="85" /><line fill="none" stroke="#000000" stroke-width="2" x1="54.5" x2="89" y1="43.5" y2="43.5" /><line fill="none" stroke="#000000" stroke-width="2" x1="54.5" x2="89" y1="26.5" y2="26.5" /><line fill="none" stroke="#000000" stroke-width="2" x1="48" x2="12" y1="46" y2="46" /><line fill="none" stroke="#000000" stroke-width="2" x1="30.5" x2="30.5" y1="84" y2="46" /><line fill="none" stroke="#000000" stroke-width="2" x1="11.5" x2="47" y1="71.5" y2="71.5" /><line fill="none" stroke="#000000" stroke-width="2" x1="11.5" x2="47" y1="58.5" y2="58.5" /><line fill="none" stroke="#000000" stroke-width="2" x1="47" x2="13.5" y1="14.5" y2="14.5" /><line fill="none" stroke="#000000" stroke-width="2" x1="49" x2="4.5" y1="30.5" y2="30.5" /><polyline fill="none" points="54.5,61.5 90,61.5 90,10 53.5,10 53.5,62.5" stroke="#000000" stroke-width="2" /><path d="M77,62.5 v24.0 c0,3.697 0.832,4.554 3.5,4.8 c1.323,0.123 3.056,0.2 4.5,0.2 c1.63,0 3.044,-0.064 4.5,-0.2 c4.199,-0.387 4.84,-1.115 5.5,-21.3" fill="none" stroke="#000000" stroke-width="2" /><path d="M41.5,93 c15.305,-6.038 24,-17.696 24,-31.5" fill="none" stroke="#000000" stroke-width="2" /><path d="M36,34.5 c-1.498,4.147 -3.437,8.141 -5.5,11.5" fill="none" stroke="#000000" stroke-width="2" /><path d="M2.5,56.5 c12.893,-12.655 20.572,-26.163 24,-42" fill="none" stroke="#000000" stroke-width="2" /><path d="M5.5,25 c5.555,-5.798 9.963,-12.945 13,-21" fill="none" stroke="#000000" stroke-width="2" /></svg>