<?xml version='1.0' encoding='utf-8'?>
<svg xmlns="http://www.w3.org/2000/svg" height="100px" version="1.0" viewBox="0 0 100 100" width="100px" x="0px" y="0px">
<line fill="none" stroke="#000000" stroke-width="2" x1="48" x2="88" y1="87" y2="87" /><line fill="none" stroke="#000000" stroke-width="2" x1="7" x2="41" y1="24" y2="24" /><line fill="none" stroke="#000000" stroke-width="2" x1="10.5" x2="38.5" y1="38" y2="38" /><line fill="none" stroke="#000000" stroke-width="2" x1="10.5" x2="38.5" y1="52" y2="52" /><line fill="none" stroke="#000000" stroke-width="2" x1="10" x2="39" y1="10.5" y2="10.5" /><polyline fill="none" points="89,93.5 89,54 47,54 47,93.5" stroke="#000000" stroke-width="2" /><polyline fill="none" points="12,88.5 38,88.5 38,66 11,66 11,94.5" stroke="#000000" stroke-width="2" /><path d="M42,47 c14.371,-6.294 24.791,-21.229 26,-36" fill="none" stroke="#000000" stroke-width="2" /><path d="M43.5,11 h48.5 c0,28.422 -2.867,32.5 -8.5,32.5 c-2.782,0 -9.489,-0.233 -14,-0.5" fill="none" stroke="#000000" stroke-width="2" /></svg>