<?xml version='1.0' encoding='utf-8'?>
<svg xmlns="http://www.w3.org/2000/svg" height="100px" version="1.0" viewBox="0 0 100 100" width="100px" x="0px" y="0px">
<line fill="none" stroke="#000000" stroke-width="2" x1="6" x2="36.5" y1="24" y2="24" /><line fill="none" stroke="#000000" stroke-width="2" x1="9.5" x2="34" y1="38" y2="38" /><line fill="none" stroke="#000000" stroke-width="2" x1="9.5" x2="34" y1="52" y2="52" /><line fill="none" stroke="#000000" stroke-width="2" x1="9" x2="34.5" y1="10.5" y2="10.5" /><line fill="none" stroke="#000000" stroke-width="2" x1="39.5" x2="95.5" y1="21.5" y2="21.5" /><line fill="none" stroke="#000000" stroke-width="2" x1="54.5" x2="54.5" y1="39.5" y2="81.5" /><line fill="none" stroke="#000000" stroke-width="2" x1="72.5" x2="40.5" y1="39.5" y2="39.5" /><polyline fill="none" points="11,88.5 33.5,88.5 33.5,66 10,66 10,94.5" stroke="#000000" stroke-width="2" /><path d="M75.5,4.5 c0,59.849 10.5,86.5 14.5,86.5 c1.781,0 4.375,-2.614 6,-23" fill="none" stroke="#000000" stroke-width="2" /><path d="M80.5,6.5 c4.775,3.049 9.523,6.589 13.5,10" fill="none" stroke="#000000" stroke-width="2" /><path d="M39.5,85.5 c15.627,-3.287 29.091,-7.847 37,-12" fill="none" stroke="#000000" stroke-width="2" /></svg>