<?xml version='1.0' encoding='utf-8'?>
<svg xmlns="http://www.w3.org/2000/svg" height="100px" version="1.0" viewBox="0 0 100 100" width="100px" x="0px" y="0px">
<line fill="none" stroke="#000000" stroke-width="2" x1="7.5" x2="43.5" y1="24" y2="24" /><line fill="none" stroke="#000000" stroke-width="2" x1="10.5" x2="39.5" y1="38" y2="38" /><line fill="none" stroke="#000000" stroke-width="2" x1="10.5" x2="39.5" y1="52" y2="52" /><line fill="none" stroke="#000000" stroke-width="2" x1="10" x2="40" y1="10.5" y2="10.5" /><polyline fill="none" points="12,88.5 39,88.5 39,66 11,66 11,94.5" stroke="#000000" stroke-width="2" /><polyline fill="none" points="49.5,51 90.5,51 90.5,22.5 48.5,22.5 48.5,52" stroke="#000000" stroke-width="2" /><path d="M76,52 v32.0 c0,6.229 0.354,6.5 9,6.5 c9.435,0 9.594,-0.155 10,-25" fill="none" stroke="#000000" stroke-width="2" /><path d="M42,92 c14.408,-7.554 20,-17.507 20,-41" fill="none" stroke="#000000" stroke-width="2" /><path d="M75.5,22.5 c3.983,-4.816 7.365,-10.373 10,-16.5" fill="none" stroke="#000000" stroke-width="2" /><path d="M61.5,22.5 c-2.346,-5.368 -5,-10.693 -8,-16" fill="none" stroke="#000000" stroke-width="2" /></svg>