<?xml version='1.0' encoding='utf-8'?>
<svg xmlns="http://www.w3.org/2000/svg" height="100px" version="1.0" viewBox="0 0 100 100" width="100px" x="0px" y="0px">
<line fill="none" stroke="#000000" stroke-width="2" x1="6" x2="39" y1="24" y2="24" /><line fill="none" stroke="#000000" stroke-width="2" x1="9.5" x2="35.5" y1="38" y2="38" /><line fill="none" stroke="#000000" stroke-width="2" x1="9.5" x2="35.5" y1="52" y2="52" /><line fill="none" stroke="#000000" stroke-width="2" x1="9" x2="36" y1="10.5" y2="10.5" /><line fill="none" stroke="#000000" stroke-width="2" x1="95" x2="39" y1="56.5" y2="56.5" /><line fill="none" stroke="#000000" stroke-width="2" x1="67" x2="67" y1="11" y2="93.5" /><line fill="none" stroke="#000000" stroke-width="2" x1="45.5" x2="88.5" y1="27" y2="27" /><polyline fill="none" points="11,88.5 35,88.5 35,66 10,66 10,94.5" stroke="#000000" stroke-width="2" /><polyline fill="none" points="45.5,45.5 89.5,45.5 89.5,10 44.5,10 44.5,46.5" stroke="#000000" stroke-width="2" /><path d="M38,88.5 c12.813,-9.507 22.044,-20.193 28,-32" fill="none" stroke="#000000" stroke-width="2" /><path d="M96,88.5 c-12.813,-9.507 -22.044,-20.193 -28,-32" fill="none" stroke="#000000" stroke-width="2" /></svg>