<?xml version='1.0' encoding='utf-8'?>
<svg xmlns="http://www.w3.org/2000/svg" height="100px" version="1.0" viewBox="0 0 100 100" width="100px" x="0px" y="0px">
<line fill="none" stroke="#000000" stroke-width="2" x1="6" x2="37.5" y1="24" y2="24" /><line fill="none" stroke="#000000" stroke-width="2" x1="9.5" x2="34" y1="38" y2="38" /><line fill="none" stroke="#000000" stroke-width="2" x1="9.5" x2="34" y1="52" y2="52" /><line fill="none" stroke="#000000" stroke-width="2" x1="9" x2="34.5" y1="10.5" y2="10.5" /><line fill="none" stroke="#000000" stroke-width="2" x1="50" x2="85" y1="23" y2="23" /><line fill="none" stroke="#000000" stroke-width="2" x1="48" x2="87" y1="42" y2="42" /><line fill="none" stroke="#000000" stroke-width="2" x1="67.5" x2="67.5" y1="41" y2="10" /><polyline fill="none" points="11,88.5 33.5,88.5 33.5,66 10,66 10,94.5" stroke="#000000" stroke-width="2" /><polyline fill="none" points="54.5,79 81.5,79 81.5,53 53.5,53 53.5,86" stroke="#000000" stroke-width="2" /><path d="M38,92.5 c3.771,-10.753 5.5,-23.189 5.5,-46.5 v-36.0 h48.0 v73.0 c0,7.491 -0.434,8 -5,8 c-1.657,0 -5.586,-0.166 -10.5,-0.5" fill="none" stroke="#000000" stroke-width="2" /></svg>