<?xml version='1.0' encoding='utf-8'?>
<svg xmlns="http://www.w3.org/2000/svg" height="100px" version="1.0" viewBox="0 0 100 100" width="100px" x="0px" y="0px">
<line fill="none" stroke="#000000" stroke-width="2" x1="6" x2="39" y1="24" y2="24" /><line fill="none" stroke="#000000" stroke-width="2" x1="9.5" x2="36.5" y1="38" y2="38" /><line fill="none" stroke="#000000" stroke-width="2" x1="9.5" x2="36.5" y1="52" y2="52" /><line fill="none" stroke="#000000" stroke-width="2" x1="9" x2="37" y1="10.5" y2="10.5" /><polyline fill="none" points="11,88.5 36,88.5 36,66 10,66 10,94.5" stroke="#000000" stroke-width="2" /><path d="M51,52 c-1.324,6.972 -3.969,13.229 -8,19" fill="none" stroke="#000000" stroke-width="2" /><path d="M91.5,52.5 c-2.237,6.768 -5.678,12.666 -10.5,18" fill="none" stroke="#000000" stroke-width="2" /><path d="M39,91 c17.484,-5.519 28,-18.636 28,-35 v-14.0" fill="none" stroke="#000000" stroke-width="2" /><path d="M95,91 c-17.482,-5.518 -28,-18.636 -28,-35" fill="none" stroke="#000000" stroke-width="2" /><path d="M51.5,12.5 c-1.324,6.972 -3.969,13.229 -8,19" fill="none" stroke="#000000" stroke-width="2" /><path d="M91,11.5 c-2.237,6.768 -5.678,12.666 -10.5,18" fill="none" stroke="#000000" stroke-width="2" /><path d="M39.5,48.5 c17.484,-5.519 27.5,-18.101 27.5,-35 V6.0" fill="none" stroke="#000000" stroke-width="2" /><path d="M94.5,48.5 c-17.482,-5.518 -27.5,-18.103 -27.5,-35" fill="none" stroke="#000000" stroke-width="2" /></svg>