<?xml version='1.0' encoding='utf-8'?>
<svg xmlns="http://www.w3.org/2000/svg" height="100px" version="1.0" viewBox="0 0 100 100" width="100px" x="0px" y="0px">
<line fill="none" stroke="#000000" stroke-width="2" x1="38.5" x2="93.5" y1="13" y2="13" /><line fill="none" stroke="#000000" stroke-width="2" x1="40" x2="92" y1="25" y2="25" /><line fill="none" stroke="#000000" stroke-width="2" x1="54" x2="54" y1="36" y2="5" /><line fill="none" stroke="#000000" stroke-width="2" x1="77" x2="77" y1="36" y2="5" /><line fill="none" stroke="#000000" stroke-width="2" x1="35.5" x2="97" y1="76" y2="76" /><line fill="none" stroke="#000000" stroke-width="2" x1="42" x2="89" y1="61.5" y2="61.5" /><line fill="none" stroke="#000000" stroke-width="2" x1="65.5" x2="65.5" y1="38" y2="76" /><line fill="none" stroke="#000000" stroke-width="2" x1="96" x2="36" y1="37" y2="37" /><line fill="none" stroke="#000000" stroke-width="2" x1="5.5" x2="36" y1="24" y2="24" /><line fill="none" stroke="#000000" stroke-width="2" x1="8.5" x2="33" y1="38" y2="38" /><line fill="none" stroke="#000000" stroke-width="2" x1="8.5" x2="33" y1="52" y2="52" /><line fill="none" stroke="#000000" stroke-width="2" x1="8" x2="33.5" y1="10.5" y2="10.5" /><polyline fill="none" points="10,88.5 32.5,88.5 32.5,66 9,66 9,94.5" stroke="#000000" stroke-width="2" /><path d="M41,94 v-47.0 h49.0 v38.0 c0,6.577 -0.42,7 -5.5,7 c-1.906,0 -5.848,-0.161 -11.5,-0.5" fill="none" stroke="#000000" stroke-width="2" /></svg>