<?xml version='1.0' encoding='utf-8'?>
<svg xmlns="http://www.w3.org/2000/svg" height="100px" version="1.0" viewBox="0 0 100 100" width="100px" x="0px" y="0px">
<line fill="none" stroke="#000000" stroke-width="2" x1="5.5" x2="31.5" y1="24" y2="24" /><line fill="none" stroke="#000000" stroke-width="2" x1="7.5" x2="29.5" y1="38" y2="38" /><line fill="none" stroke="#000000" stroke-width="2" x1="7.5" x2="29.5" y1="52" y2="52" /><line fill="none" stroke="#000000" stroke-width="2" x1="7" x2="30" y1="10.5" y2="10.5" /><line fill="none" stroke="#000000" stroke-width="2" x1="96.5" x2="65.5" y1="24" y2="24" /><line fill="none" stroke="#000000" stroke-width="2" x1="38.5" x2="60.5" y1="46.5" y2="46.5" /><line fill="none" stroke="#000000" stroke-width="2" x1="38.5" x2="60.5" y1="31.5" y2="31.5" /><polyline fill="none" points="9,88.5 29,88.5 29,66 8,66 8,94.5" stroke="#000000" stroke-width="2" /><path d="M89.5,6 v75.5 c0,9.433 -0.514,10 -5,10 c-2.275,0 -7.016,-0.202 -11.5,-0.5" fill="none" stroke="#000000" stroke-width="2" /><path d="M81,67 c-2.648,-9.636 -6.613,-20.955 -10.5,-30" fill="none" stroke="#000000" stroke-width="2" /><path d="M50,4 c-0.814,4.979 -1.801,9.368 -3,13.5" fill="none" stroke="#000000" stroke-width="2" /><path d="M33,86 c15.328,-11.17 27.111,-24.875 35,-40" fill="none" stroke="#000000" stroke-width="2" /><path d="M32,63.5 c11.944,-1.497 22.29,-3.879 29.5,-6.5" fill="none" stroke="#000000" stroke-width="2" /><path d="M46,91 c4.868,0.331 8.947,0.5 10.5,0.5 c4.453,0 5,-0.643 5,-9 v-65.0 h-24.0 v45.0" fill="none" stroke="#000000" stroke-width="2" /></svg>