<?xml version='1.0' encoding='utf-8'?>
<svg xmlns="http://www.w3.org/2000/svg" height="100px" version="1.0" viewBox="0 0 100 100" width="100px" x="0px" y="0px">
<line fill="none" stroke="#000000" stroke-width="2" x1="5.5" x2="31.5" y1="24" y2="24" /><line fill="none" stroke="#000000" stroke-width="2" x1="7.5" x2="29.5" y1="38" y2="38" /><line fill="none" stroke="#000000" stroke-width="2" x1="7.5" x2="29.5" y1="52" y2="52" /><line fill="none" stroke="#000000" stroke-width="2" x1="7" x2="30" y1="10.5" y2="10.5" /><line fill="none" stroke="#000000" stroke-width="2" x1="40" x2="64" y1="64.5" y2="64.5" /><line fill="none" stroke="#000000" stroke-width="2" x1="33" x2="95" y1="38" y2="38" /><line fill="none" stroke="#000000" stroke-width="2" x1="33" x2="70.5" y1="16" y2="16" /><line fill="none" stroke="#000000" stroke-width="2" x1="52" x2="52" y1="15" y2="4" /><polyline fill="none" points="9,88.5 29,88.5 29,66 8,66 8,94.5" stroke="#000000" stroke-width="2" /><polyline fill="none" points="40,82.5 65,82.5 65,47.5 39,47.5 39,89.5" stroke="#000000" stroke-width="2" /><path d="M92,44 c-5.764,24.071 -16.26,37.835 -35,48" fill="none" stroke="#000000" stroke-width="2" /><path d="M74,4.5 c0,59.849 13.213,86.5 16.5,86.5 c1.781,0 4.375,-2.614 6,-23" fill="none" stroke="#000000" stroke-width="2" /><path d="M82,11 c4.244,5.488 8.465,11.86 12,18" fill="none" stroke="#000000" stroke-width="2" /><path d="M57.5,38 c2.552,-6.153 4.631,-13.698 6,-22" fill="none" stroke="#000000" stroke-width="2" /><path d="M46,38 c-1.691,-7.427 -3.695,-14.788 -6,-22" fill="none" stroke="#000000" stroke-width="2" /></svg>