<?xml version='1.0' encoding='utf-8'?>
<svg xmlns="http://www.w3.org/2000/svg" height="100px" version="1.0" viewBox="0 0 100 100" width="100px" x="0px" y="0px">
<line fill="none" stroke="#000000" stroke-width="2" x1="5.5" x2="35" y1="24" y2="24" /><line fill="none" stroke="#000000" stroke-width="2" x1="8.5" x2="32" y1="38" y2="38" /><line fill="none" stroke="#000000" stroke-width="2" x1="8.5" x2="32" y1="52" y2="52" /><line fill="none" stroke="#000000" stroke-width="2" x1="8" x2="32.5" y1="10.5" y2="10.5" /><line fill="none" stroke="#000000" stroke-width="2" x1="37.5" x2="93.5" y1="12" y2="12" /><line fill="none" stroke="#000000" stroke-width="2" x1="54" x2="54" y1="18.5" y2="4" /><line fill="none" stroke="#000000" stroke-width="2" x1="78.5" x2="78.5" y1="18.5" y2="4" /><line fill="none" stroke="#000000" stroke-width="2" x1="68" x2="68" y1="55.5" y2="26" /><line fill="none" stroke="#000000" stroke-width="2" x1="93" x2="44" y1="25" y2="25" /><line fill="none" stroke="#000000" stroke-width="2" x1="45" x2="91" y1="35.5" y2="35.5" /><line fill="none" stroke="#000000" stroke-width="2" x1="45" x2="91" y1="46" y2="46" /><line fill="none" stroke="#000000" stroke-width="2" x1="39" x2="89" y1="64.5" y2="64.5" /><polyline fill="none" points="10,88.5 31.5,88.5 31.5,66 9,66 9,94.5" stroke="#000000" stroke-width="2" /><polyline fill="none" points="44,25 44,56.5 93,56.5" stroke="#000000" stroke-width="2" /><path d="M35,37.5 c6.19,-7.249 10.289,-14.226 13,-22" fill="none" stroke="#000000" stroke-width="2" /><path d="M72,15.5 c-1.352,3.671 -2.391,6.123 -4,9.5" fill="none" stroke="#000000" stroke-width="2" /><path d="M36.5,90.5 c22.893,-3.578 43.559,-14.586 51.695,-25.594" fill="none" stroke="#000000" stroke-width="2" /><path d="M95,90.5 c-18.199,-2.941 -37.471,-12.462 -47,-22.5" fill="none" stroke="#000000" stroke-width="2" /></svg>