<?xml version='1.0' encoding='utf-8'?>
<svg xmlns="http://www.w3.org/2000/svg" height="100px" version="1.0" viewBox="0 0 100 100" width="100px" x="0px" y="0px">
<line fill="none" stroke="#000000" stroke-width="2" x1="51.5" x2="51.5" y1="23.5" y2="39.5" /><line fill="none" stroke="#000000" stroke-width="2" x1="29" x2="66.5" y1="11.5" y2="11.5" /><polyline fill="none" points="16.5,23 16.5,40.5 87.5,40.5 87.5,22.5 17,22.5" stroke="#000000" stroke-width="2" /><path d="M57,22.5 c3.165,-3.394 6.305,-7.217 8.684,-10.578" fill="none" stroke="#000000" stroke-width="2" /><path d="M5.5,30 c13.113,-7.27 22.717,-16.077 29,-26" fill="none" stroke="#000000" stroke-width="2" /><path d="M8.5,56 c19.344,-4.56 32.734,-9.81 41.5,-15.5" fill="none" stroke="#000000" stroke-width="2" /><path d="M36.5,90.5 c6.737,0.358 11.887,0.5 15.5,0.5 c6.291,0 8,-1.942 8,-14.5 c0,-13.079 -6.551,-24.835 -17.5,-31.5" fill="none" stroke="#000000" stroke-width="2" /><path d="M7.5,72.5 c21.103,-4.82 35.766,-11.001 45.5,-18" fill="none" stroke="#000000" stroke-width="2" /><path d="M6.5,89 c24.489,-5.927 41.204,-13.401 52.5,-22" fill="none" stroke="#000000" stroke-width="2" /><path d="M90,47 c-7.241,6.292 -15.077,11.233 -24,15" fill="none" stroke="#000000" stroke-width="2" /><path d="M54.5,40.5 c5.711,18.557 21.752,37.415 40.5,48" fill="none" stroke="#000000" stroke-width="2" /></svg>