<?xml version='1.0' encoding='utf-8'?>
<svg xmlns="http://www.w3.org/2000/svg" height="100px" version="1.0" viewBox="0 0 100 100" width="100px" x="0px" y="0px">
<line fill="none" stroke="#000000" stroke-width="2" x1="11.5" x2="36" y1="48" y2="48" /><line fill="none" stroke="#000000" stroke-width="2" x1="11.5" x2="36" y1="29" y2="29" /><line fill="none" stroke="#000000" stroke-width="2" x1="96" x2="44" y1="22" y2="22" /><polyline fill="none" points="11.5,67.5 37,67.5 37,10.5 10.5,10.5 10.5,68.5" stroke="#000000" stroke-width="2" /><path d="M3.5,92 c6.299,-4.847 12.094,-11.837 15.5,-18.5" fill="none" stroke="#000000" stroke-width="2" /><path d="M42.5,91.5 c-5.336,-7.835 -11.359,-13.821 -15.5,-17.5" fill="none" stroke="#000000" stroke-width="2" /><path d="M84.5,6 v75.5 c0,9.353 -0.62,10 -7,10 c-3.172,0 -9.749,-0.194 -16,-0.5" fill="none" stroke="#000000" stroke-width="2" /><path d="M38,77 c21.74,-15.603 37.705,-35.136 46,-55.5" fill="none" stroke="#000000" stroke-width="2" /></svg>