<?xml version='1.0' encoding='utf-8'?>
<svg xmlns="http://www.w3.org/2000/svg" height="100px" version="1.0" viewBox="0 0 100 100" width="100px" x="0px" y="0px">
<line fill="none" stroke="#000000" stroke-width="2" x1="24" x2="24" y1="32.5" y2="17" /><line fill="none" stroke="#000000" stroke-width="2" x1="17.5" x2="82.5" y1="62.5" y2="62.5" /><line fill="none" stroke="#000000" stroke-width="2" x1="17.5" x2="82.5" y1="49.5" y2="49.5" /><polyline fill="none" points="17.5,75.5 83.5,75.5 83.5,36.5 16.5,36.5 16.5,76.5" stroke="#000000" stroke-width="2" /><path d="M37,7 c-8.404,7.929 -19.408,14.528 -32,19" fill="none" stroke="#000000" stroke-width="2" /><path d="M49,6.5 v19.5 c0,2.687 0.469,3.063 7.5,3.3 c3.674,0.123 7.491,0.2 11.5,0.2 c4.15,0 7.807,-0.076 11.5,-0.2 c12.299,-0.412 12.834,-0.856 13.5,-10.3" fill="none" stroke="#000000" stroke-width="2" /><path d="M49,17 c14.804,-1.571 27.925,-3.808 42.951,-7.247" fill="none" stroke="#000000" stroke-width="2" /><path d="M8,92 c13.08,-3.282 24.369,-7.771 31,-12" fill="none" stroke="#000000" stroke-width="2" /><path d="M92,93 c-7.982,-4.208 -19.018,-8.679 -31,-12.5" fill="none" stroke="#000000" stroke-width="2" /></svg>