<?xml version='1.0' encoding='utf-8'?>
<svg xmlns="http://www.w3.org/2000/svg" height="100px" version="1.0" viewBox="0 0 100 100" width="100px" x="0px" y="0px">
<line fill="none" stroke="#000000" stroke-width="2" x1="17.5" x2="82.5" y1="63.5" y2="63.5" /><line fill="none" stroke="#000000" stroke-width="2" x1="17.5" x2="82.5" y1="51.5" y2="51.5" /><line fill="none" stroke="#000000" stroke-width="2" x1="5" x2="95" y1="20.5" y2="20.5" /><polyline fill="none" points="17.5,75.5 83.5,75.5 83.5,39.5 16.5,39.5 16.5,76.5" stroke="#000000" stroke-width="2" /><path d="M8,92 c13.08,-3.282 24.369,-7.771 31,-12" fill="none" stroke="#000000" stroke-width="2" /><path d="M92,93 c-7.982,-4.208 -19.018,-8.679 -31,-12.5" fill="none" stroke="#000000" stroke-width="2" /><path d="M48,32 c1.5,-7.063 2.988,-15.203 4,-22" fill="none" stroke="#000000" stroke-width="2" /><path d="M14.5,32 c1.5,-7.063 2.988,-15.203 4,-22 h67.0 c-1.012,6.797 -2.5,14.937 -4,22 H14.5 z" fill="none" stroke="#000000" stroke-width="2" /></svg>