<?xml version='1.0' encoding='utf-8'?>
<svg xmlns="http://www.w3.org/2000/svg" height="100px" version="1.0" viewBox="0 0 100 100" width="100px" x="0px" y="0px">
<line fill="none" stroke="#000000" stroke-width="2" x1="11.5" x2="36" y1="48" y2="48" /><line fill="none" stroke="#000000" stroke-width="2" x1="11.5" x2="36" y1="29" y2="29" /><line fill="none" stroke="#000000" stroke-width="2" x1="96" x2="42.5" y1="40.5" y2="40.5" /><line fill="none" stroke="#000000" stroke-width="2" x1="68.5" x2="68.5" y1="16.5" y2="4.5" /><polyline fill="none" points="11.5,67.5 37,67.5 37,10.5 10.5,10.5 10.5,68.5" stroke="#000000" stroke-width="2" /><polyline fill="none" points="94,34.5 94,17.5 44.5,17.5 44.5,34.5" stroke="#000000" stroke-width="2" /><path d="M3.5,92 c6.299,-4.847 12.094,-11.837 15.5,-18.5" fill="none" stroke="#000000" stroke-width="2" /><path d="M43.5,91.5 c-5.336,-7.835 -11.359,-13.821 -15.5,-17.5" fill="none" stroke="#000000" stroke-width="2" /><path d="M54.5,90.5 c6.887,0.336 10.959,0.5 12.5,0.5 c6.084,0 6.5,-0.543 6.5,-8 v-41.5" fill="none" stroke="#000000" stroke-width="2" /></svg>