<?xml version='1.0' encoding='utf-8'?>
<svg xmlns="http://www.w3.org/2000/svg" height="100px" version="1.0" viewBox="0 0 100 100" width="100px" x="0px" y="0px">
<line fill="none" stroke="#000000" stroke-width="2" x1="18.5" x2="81.5" y1="65" y2="65" /><line fill="none" stroke="#000000" stroke-width="2" x1="18.5" x2="81.5" y1="54" y2="54" /><line fill="none" stroke="#000000" stroke-width="2" x1="61" x2="61" y1="39.5" y2="5.5" /><polyline fill="none" points="18.5,76 82.5,76 82.5,43 17.5,43 17.5,77" stroke="#000000" stroke-width="2" /><path d="M8,92.5 c13.08,-3.282 24.369,-7.771 31,-12" fill="none" stroke="#000000" stroke-width="2" /><path d="M92,93.5 c-7.982,-4.208 -19.018,-8.679 -31,-12.5" fill="none" stroke="#000000" stroke-width="2" /><path d="M11.5,30 h80.0 c0,8.253 -0.717,9 -5,9 c-1.871,0 -6.046,-0.178 -10.5,-0.5" fill="none" stroke="#000000" stroke-width="2" /><path d="M8.5,12.5 h79.0 v9.0 h-72.0 c-1.445,4.184 -4.398,9.819 -7,13.5" fill="none" stroke="#000000" stroke-width="2" /><path d="M6,45.5 c24.079,-5.074 33,-13.904 33,-32 v-8.0" fill="none" stroke="#000000" stroke-width="2" /></svg>