<?xml version='1.0' encoding='utf-8'?>
<svg xmlns="http://www.w3.org/2000/svg" height="100px" version="1.0" viewBox="0 0 100 100" width="100px" x="0px" y="0px">
<line fill="none" stroke="#000000" stroke-width="2" x1="17.5" x2="82.5" y1="63" y2="63" /><line fill="none" stroke="#000000" stroke-width="2" x1="17.5" x2="82.5" y1="50.5" y2="50.5" /><polyline fill="none" points="17.5,75.5 83.5,75.5 83.5,38 16.5,38 16.5,76.5" stroke="#000000" stroke-width="2" /><polyline fill="none" points="57.5,30 89.5,30 89.5,11 56.5,11 56.5,31" stroke="#000000" stroke-width="2" /><path d="M8,92 c13.08,-3.282 24.369,-7.771 31,-12" fill="none" stroke="#000000" stroke-width="2" /><path d="M92,93 c-7.982,-4.208 -19.018,-8.679 -31,-12.5" fill="none" stroke="#000000" stroke-width="2" /><path d="M6,35.5 c14.229,-7.243 20,-16.187 20,-31.5" fill="none" stroke="#000000" stroke-width="2" /><path d="M8.5,13 h39.0 c-0.563,16.138 -1.766,17.5 -8.5,17.5 c-3.36,0 -8.539,-0.185 -13,-0.5" fill="none" stroke="#000000" stroke-width="2" /></svg>