<?xml version='1.0' encoding='utf-8'?>
<svg xmlns="http://www.w3.org/2000/svg" height="100px" version="1.0" viewBox="0 0 100 100" width="100px" x="0px" y="0px">
<line fill="none" stroke="#000000" stroke-width="2" x1="19" x2="81" y1="63.5" y2="63.5" /><line fill="none" stroke="#000000" stroke-width="2" x1="19" x2="81" y1="51.5" y2="51.5" /><line fill="none" stroke="#000000" stroke-width="2" x1="44.5" x2="91.5" y1="11.5" y2="11.5" /><polyline fill="none" points="19,75.5 82,75.5 82,39.5 18,39.5 18,76.5" stroke="#000000" stroke-width="2" /><path d="M8,92 c13.08,-3.282 24.369,-7.771 31,-12" fill="none" stroke="#000000" stroke-width="2" /><path d="M92,93 c-7.982,-4.208 -19.018,-8.679 -31,-12.5" fill="none" stroke="#000000" stroke-width="2" /><path d="M26.5,35.5 c21.086,-3.126 33.5,-12.036 33.5,-20 v-4.0" fill="none" stroke="#000000" stroke-width="2" /><path d="M93,37.5 c-20.127,-3.18 -33,-13.293 -33,-22" fill="none" stroke="#000000" stroke-width="2" /><path d="M31.5,20.5 c8.404,-4.337 14.472,-9.527 18.5,-15.5" fill="none" stroke="#000000" stroke-width="2" /><path d="M75,22.5 c6.889,-3.061 12.047,-6.662 15.766,-10.677" fill="none" stroke="#000000" stroke-width="2" /><path d="M7,35.5 c10.135,-3.034 18.463,-6.523 24.5,-10" fill="none" stroke="#000000" stroke-width="2" /><path d="M28.5,14.5 c-5.114,-2.12 -11.363,-4.344 -18.5,-6.5" fill="none" stroke="#000000" stroke-width="2" /></svg>