<?xml version='1.0' encoding='utf-8'?>
<svg xmlns="http://www.w3.org/2000/svg" height="100px" version="1.0" viewBox="0 0 100 100" width="100px" x="0px" y="0px">
<line fill="none" stroke="#000000" stroke-width="2" x1="5.5" x2="48" y1="25.5" y2="25.5" /><line fill="none" stroke="#000000" stroke-width="2" x1="52" x2="94.5" y1="25.5" y2="25.5" /><line fill="none" stroke="#000000" stroke-width="2" x1="46.5" x2="8.5" y1="13.5" y2="13.5" /><line fill="none" stroke="#000000" stroke-width="2" x1="91.5" x2="53.5" y1="13.5" y2="13.5" /><line fill="none" stroke="#000000" stroke-width="2" x1="19" x2="81" y1="64" y2="64" /><line fill="none" stroke="#000000" stroke-width="2" x1="19" x2="81" y1="52.5" y2="52.5" /><polyline fill="none" points="19,75.5 82,75.5 82,41 18,41 18,76.5" stroke="#000000" stroke-width="2" /><path d="M8,92 c13.08,-3.282 24.369,-7.771 31,-12" fill="none" stroke="#000000" stroke-width="2" /><path d="M92,93 c-7.982,-4.208 -19.018,-8.679 -31,-12.5" fill="none" stroke="#000000" stroke-width="2" /><path d="M5,45.5 c16.662,-7.821 24,-19.96 24,-40" fill="none" stroke="#000000" stroke-width="2" /><path d="M53,38 c14.127,-4.065 18,-9.886 18,-32.5" fill="none" stroke="#000000" stroke-width="2" /><path d="M45.5,38 c-5.904,-4.573 -12.709,-8.515 -20,-11.5" fill="none" stroke="#000000" stroke-width="2" /><path d="M95,44.5 c-11.664,-5.047 -20.389,-11.708 -25.5,-19" fill="none" stroke="#000000" stroke-width="2" /></svg>