<?xml version='1.0' encoding='utf-8'?>
<svg xmlns="http://www.w3.org/2000/svg" height="100px" version="1.0" viewBox="0 0 100 100" width="100px" x="0px" y="0px">
<line fill="none" stroke="#000000" stroke-width="2" x1="50" x2="50" y1="15" y2="3" /><line fill="none" stroke="#000000" stroke-width="2" x1="18" x2="82" y1="65" y2="65" /><line fill="none" stroke="#000000" stroke-width="2" x1="18" x2="82" y1="53.5" y2="53.5" /><polyline fill="none" points="90.5,32 90.5,15 9.5,15 9.5,32" stroke="#000000" stroke-width="2" /><polyline fill="none" points="23.5,35 77.5,35 77.5,22 22.5,22 22.5,36" stroke="#000000" stroke-width="2" /><polyline fill="none" points="18,76.5 83,76.5 83,42 17,42 17,77.5" stroke="#000000" stroke-width="2" /><path d="M8,92.5 c13.08,-3.282 24.369,-7.771 31,-12" fill="none" stroke="#000000" stroke-width="2" /><path d="M92,93.5 c-7.982,-4.208 -19.018,-8.679 -31,-12.5" fill="none" stroke="#000000" stroke-width="2" /><path d="M30,15 c-2.568,-3.562 -5.295,-6.981 -8,-10" fill="none" stroke="#000000" stroke-width="2" /><path d="M70.5,15 c2.842,-3.768 5.379,-7.477 7.5,-11" fill="none" stroke="#000000" stroke-width="2" /></svg>