<?xml version='1.0' encoding='utf-8'?>
<svg xmlns="http://www.w3.org/2000/svg" height="100px" version="1.0" viewBox="0 0 100 100" width="100px" x="0px" y="0px">
<line fill="none" stroke="#000000" stroke-width="2" x1="56" x2="95" y1="20.5" y2="20.5" /><line fill="none" stroke="#000000" stroke-width="2" x1="79" x2="79" y1="33.5" y2="20.5" /><line fill="none" stroke="#000000" stroke-width="2" x1="18" x2="82" y1="62.5" y2="62.5" /><line fill="none" stroke="#000000" stroke-width="2" x1="18" x2="82" y1="49.5" y2="49.5" /><line fill="none" stroke="#000000" stroke-width="2" x1="15.5" x2="52" y1="20.5" y2="20.5" /><line fill="none" stroke="#000000" stroke-width="2" x1="38.5" x2="38.5" y1="33.5" y2="20.5" /><polyline fill="none" points="18,75.5 83,75.5 83,36.5 17,36.5 17,76.5" stroke="#000000" stroke-width="2" /><path d="M50.5,33.5 c4.049,-3.972 6,-9.835 6,-22.5" fill="none" stroke="#000000" stroke-width="2" /><path d="M6,42 c6.818,-6.366 10,-14.633 10,-31" fill="none" stroke="#000000" stroke-width="2" /><path d="M8,92 c13.08,-3.282 24.369,-7.771 31,-12" fill="none" stroke="#000000" stroke-width="2" /><path d="M92,93 c-7.982,-4.208 -19.018,-8.679 -31,-12.5" fill="none" stroke="#000000" stroke-width="2" /><path d="M55.5,12 c11.947,0 24.697,-1.46 35.5,-4" fill="none" stroke="#000000" stroke-width="2" /><path d="M15,12 c11.947,0 24.697,-1.46 35.5,-4" fill="none" stroke="#000000" stroke-width="2" /></svg>