<?xml version='1.0' encoding='utf-8'?>
<svg xmlns="http://www.w3.org/2000/svg" height="100px" version="1.0" viewBox="0 0 100 100" width="100px" x="0px" y="0px">
<line fill="none" stroke="#000000" stroke-width="2" x1="26" x2="40" y1="51" y2="51" /><line fill="none" stroke="#000000" stroke-width="2" x1="25" x2="25" y1="84.5" y2="36" /><line fill="none" stroke="#000000" stroke-width="2" x1="12.5" x2="12.5" y1="89.5" y2="45" /><line fill="none" stroke="#000000" stroke-width="2" x1="50.5" x2="87.5" y1="86" y2="86" /><line fill="none" stroke="#000000" stroke-width="2" x1="56" x2="91" y1="15" y2="15" /><polyline fill="none" points="9,35 39,35 39,10 8,10 8,36" stroke="#000000" stroke-width="2" /><polyline fill="none" points="49.5,93 49.5,56 88.5,56 88.5,93" stroke="#000000" stroke-width="2" /><path d="M43,29.5 c8.249,-7.403 14.403,-15.433 19,-24.5" fill="none" stroke="#000000" stroke-width="2" /><path d="M90.113,15.538 c-9.373,17.954 -25.242,30.991 -50.113,39.962" fill="none" stroke="#000000" stroke-width="2" /><path d="M52.5,19.5 c10.879,14.866 25.203,26.76 44,36" fill="none" stroke="#000000" stroke-width="2" /><path d="M5,92 c11.521,-3.853 24.132,-8.979 37,-15" fill="none" stroke="#000000" stroke-width="2" /></svg>