<?xml version='1.0' encoding='utf-8'?>
<svg xmlns="http://www.w3.org/2000/svg" height="100px" version="1.0" viewBox="0 0 100 100" width="100px" x="0px" y="0px">
<line fill="none" stroke="#000000" stroke-width="2" x1="9" x2="36" y1="47" y2="47" /><line fill="none" stroke="#000000" stroke-width="2" x1="4" x2="40" y1="78" y2="78" /><line fill="none" stroke="#000000" stroke-width="2" x1="22.5" x2="22.5" y1="95" y2="5" /><line fill="none" stroke="#000000" stroke-width="2" x1="4" x2="40" y1="17" y2="17" /><line fill="none" stroke="#000000" stroke-width="2" x1="86" x2="51" y1="28" y2="28" /><line fill="none" stroke="#000000" stroke-width="2" x1="60" x2="60" y1="42" y2="91" /><line fill="none" stroke="#000000" stroke-width="2" x1="76" x2="76" y1="42" y2="91" /><line fill="none" stroke="#000000" stroke-width="2" x1="45" x2="91" y1="63.5" y2="63.5" /><polyline fill="none" points="9,65 37,65 37,30 8,30 8,66" stroke="#000000" stroke-width="2" /><path d="M97,33 c-10.687,-8.155 -19.71,-16.672 -28.5,-26.8 c-8.79,10.128 -17.813,18.645 -28.5,26.8" fill="none" stroke="#000000" stroke-width="2" /><path d="M81,90.5 c3.77,0.359 6.493,0.5 7.5,0.5 c2.974,0 3.5,-0.672 3.5,-8 v-42.0 H44.0 v52.0" fill="none" stroke="#000000" stroke-width="2" /></svg>