<?xml version='1.0' encoding='utf-8'?>
<svg xmlns="http://www.w3.org/2000/svg" height="100px" version="1.0" viewBox="0 0 100 100" width="100px" x="0px" y="0px">
<line fill="none" stroke="#000000" stroke-width="2" x1="43" x2="96" y1="46" y2="46" /><line fill="none" stroke="#000000" stroke-width="2" x1="70.5" x2="70.5" y1="46" y2="94.5" /><line fill="none" stroke="#000000" stroke-width="2" x1="45" x2="95" y1="68" y2="68" /><line fill="none" stroke="#000000" stroke-width="2" x1="44" x2="95" y1="16.5" y2="16.5" /><line fill="none" stroke="#000000" stroke-width="2" x1="70.5" x2="70.5" y1="16.5" y2="4.5" /><line fill="none" stroke="#000000" stroke-width="2" x1="10.5" x2="39.5" y1="85" y2="85" /><line fill="none" stroke="#000000" stroke-width="2" x1="5" x2="44.5" y1="34.5" y2="34.5" /><line fill="none" stroke="#000000" stroke-width="2" x1="24.5" x2="24.5" y1="53" y2="14" /><polyline fill="none" points="9.5,93 9.5,54 40.5,54 40.5,91" stroke="#000000" stroke-width="2" /><path d="M79,46 c3.405,-8.768 6.322,-18.712 8.5,-29.5" fill="none" stroke="#000000" stroke-width="2" /><path d="M60,46 c-1.635,-9.813 -3.678,-19.985 -6,-29.5" fill="none" stroke="#000000" stroke-width="2" /><path d="M7.5,17 c14.119,-1.771 25.398,-4.48 34.5,-8" fill="none" stroke="#000000" stroke-width="2" /></svg>