<?xml version='1.0' encoding='utf-8'?>
<svg xmlns="http://www.w3.org/2000/svg" height="100px" version="1.0" viewBox="0 0 100 100" width="100px" x="0px" y="0px">
<line fill="none" stroke="#000000" stroke-width="2" x1="14" x2="91" y1="64.5" y2="64.5" /><line fill="none" stroke="#000000" stroke-width="2" x1="30.5" x2="30.5" y1="90.5" y2="64.5" /><line fill="none" stroke="#000000" stroke-width="2" x1="21" x2="85.5" y1="54" y2="54" /><line fill="none" stroke="#000000" stroke-width="2" x1="39" x2="39" y1="4.5" y2="35" /><line fill="none" stroke="#000000" stroke-width="2" x1="62" x2="62" y1="4.5" y2="35" /><line fill="none" stroke="#000000" stroke-width="2" x1="16" x2="85" y1="24" y2="24" /><polyline fill="none" points="16,36 86,36 86,12.5 15,12.5 15,37" stroke="#000000" stroke-width="2" /><path d="M47.5,64.5 c6.275,12.87 23.41,24.483 44.5,28" fill="none" stroke="#000000" stroke-width="2" /><path d="M14.5,92 c15.51,-1.373 28.98,-3.163 45,-6" fill="none" stroke="#000000" stroke-width="2" /><path d="M63.5,81.5 c7.555,-3.417 14.569,-7.681 21.5,-13" fill="none" stroke="#000000" stroke-width="2" /><path d="M6,91.5 c5.376,-9.092 8,-19.303 8,-33 V44.0 h76.0" fill="none" stroke="#000000" stroke-width="2" /></svg>