<?xml version='1.0' encoding='utf-8'?>
<svg xmlns="http://www.w3.org/2000/svg" height="100px" version="1.0" viewBox="0 0 100 100" width="100px" x="0px" y="0px">
<line fill="none" stroke="#000000" stroke-width="2" x1="61.5" x2="61.5" y1="83" y2="6" /><line fill="none" stroke="#000000" stroke-width="2" x1="92.5" x2="30.5" y1="26" y2="26" /><polyline fill="none" points="23,75 23,45 6,45" stroke="#000000" stroke-width="2" /><path d="M9,10 c5.725,5.621 10.574,10.782 16,17" fill="none" stroke="#000000" stroke-width="2" /><path d="M6,92 c8.029,-5.713 13.36,-11.114 17,-17" fill="none" stroke="#000000" stroke-width="2" /><path d="M93,90 h-34.0 c-21.543,0 -30.148,-3.961 -36,-15" fill="none" stroke="#000000" stroke-width="2" /><path d="M31.5,73 c7.375,-11.188 12.941,-24.265 16,-37.5" fill="none" stroke="#000000" stroke-width="2" /><path d="M91.5,74 c-4.523,-14.378 -10.282,-27.617 -17,-39" fill="none" stroke="#000000" stroke-width="2" /><path d="M71,8 c5.266,3.438 10.978,7.743 16,12" fill="none" stroke="#000000" stroke-width="2" /></svg>