<?xml version='1.0' encoding='utf-8'?>
<svg xmlns="http://www.w3.org/2000/svg" height="100px" version="1.0" viewBox="0 0 100 100" width="100px" x="0px" y="0px">
<line fill="none" stroke="#000000" stroke-width="2" x1="63" x2="63" y1="85" y2="5" /><line fill="none" stroke="#000000" stroke-width="2" x1="31" x2="93" y1="15" y2="15" /><polyline fill="none" points="23,75 23,45 6,45" stroke="#000000" stroke-width="2" /><polyline fill="none" points="37,49.5 89,49.5 89,27 36,27 36,50.5" stroke="#000000" stroke-width="2" /><path d="M9,10 c5.725,5.621 10.574,10.782 16,17" fill="none" stroke="#000000" stroke-width="2" /><path d="M6,92 c8.029,-5.713 13.36,-11.114 17,-17" fill="none" stroke="#000000" stroke-width="2" /><path d="M93,90 h-34.0 c-21.543,0 -30.148,-3.961 -36,-15" fill="none" stroke="#000000" stroke-width="2" /><path d="M32,77.5 c14.398,-9.029 24.044,-18.148 30.5,-28" fill="none" stroke="#000000" stroke-width="2" /><path d="M93,77.5 c-14.318,-9.153 -23.427,-17.908 -29.5,-28" fill="none" stroke="#000000" stroke-width="2" /></svg>