<?xml version='1.0' encoding='utf-8'?>
<svg xmlns="http://www.w3.org/2000/svg" height="100px" version="1.0" viewBox="0 0 100 100" width="100px" x="0px" y="0px">
<line fill="none" stroke="#000000" stroke-width="2" x1="93" x2="68.5" y1="15" y2="15" /><line fill="none" stroke="#000000" stroke-width="2" x1="92.5" x2="64.5" y1="29" y2="29" /><line fill="none" stroke="#000000" stroke-width="2" x1="94" x2="59.5" y1="53" y2="53" /><line fill="none" stroke="#000000" stroke-width="2" x1="43" x2="43" y1="16" y2="4" /><line fill="none" stroke="#000000" stroke-width="2" x1="25" x2="60.5" y1="16" y2="16" /><polyline fill="none" points="21.5,75 21.5,45 4.5,45" stroke="#000000" stroke-width="2" /><path d="M7.5,10 c5.725,5.621 10.574,10.782 16,17" fill="none" stroke="#000000" stroke-width="2" /><path d="M4.5,92 c8.029,-5.713 13.36,-11.114 17,-17" fill="none" stroke="#000000" stroke-width="2" /><path d="M94,90 h-36.5 c-21.543,0 -30.148,-3.961 -36,-15" fill="none" stroke="#000000" stroke-width="2" /><path d="M57,29.5 c7.078,-6.902 12.98,-16.054 16.5,-25.5" fill="none" stroke="#000000" stroke-width="2" /><path d="M37,33 h18.5 c0,40.822 -2.682,46.5 -7.5,46.5 c-1.938,0 -6.279,-0.381 -10.5,-1" fill="none" stroke="#000000" stroke-width="2" /><path d="M27,78.5 c7.412,-13.327 10.5,-28.565 10.5,-61.5" fill="none" stroke="#000000" stroke-width="2" /><path d="M80,40.5 v31.0 c0,7.003 -0.49,7.5 -4.5,7.5 c-2.314,0 -7.732,-0.229 -11,-0.5" fill="none" stroke="#000000" stroke-width="2" /><path d="M91.689,29.414 c-3.824,5.295 -7.002,8.67 -11.689,12.586" fill="none" stroke="#000000" stroke-width="2" /></svg>