<?xml version='1.0' encoding='utf-8'?>
<svg xmlns="http://www.w3.org/2000/svg" height="100px" version="1.0" viewBox="0 0 100 100" width="100px" x="0px" y="0px">
<line fill="none" stroke="#000000" stroke-width="2" x1="32" x2="91" y1="46" y2="46" /><line fill="none" stroke="#000000" stroke-width="2" x1="62" x2="62" y1="46" y2="85" /><line fill="none" stroke="#000000" stroke-width="2" x1="33" x2="90" y1="59" y2="59" /><line fill="none" stroke="#000000" stroke-width="2" x1="30" x2="93" y1="72" y2="72" /><line fill="none" stroke="#000000" stroke-width="2" x1="31" x2="92" y1="26" y2="26" /><line fill="none" stroke="#000000" stroke-width="2" x1="33" x2="90" y1="13" y2="13" /><line fill="none" stroke="#000000" stroke-width="2" x1="62" x2="62" y1="26" y2="5" /><polyline fill="none" points="23,75 23,45 6,45" stroke="#000000" stroke-width="2" /><path d="M9,10 c5.725,5.621 10.574,10.782 16,17" fill="none" stroke="#000000" stroke-width="2" /><path d="M6,92 c8.029,-5.713 13.36,-11.114 17,-17" fill="none" stroke="#000000" stroke-width="2" /><path d="M93,90 h-34.0 c-21.543,0 -30.148,-3.961 -36,-15" fill="none" stroke="#000000" stroke-width="2" /><path d="M72,46 c2.892,-5.919 5.48,-12.752 7.5,-20" fill="none" stroke="#000000" stroke-width="2" /><path d="M50.5,46 c-1.646,-6.601 -3.723,-13.577 -6,-20" fill="none" stroke="#000000" stroke-width="2" /></svg>