<?xml version='1.0' encoding='utf-8'?>
<svg xmlns="http://www.w3.org/2000/svg" height="100px" version="1.0" viewBox="0 0 100 100" width="100px" x="0px" y="0px">
<line fill="none" stroke="#000000" stroke-width="2" x1="4.5" x2="61" y1="27" y2="27" /><line fill="none" stroke="#000000" stroke-width="2" x1="18.5" x2="51.5" y1="87" y2="87" /><polyline fill="none" points="8,44.5 52.5,44.5 52.5,10.5 9,10.5" stroke="#000000" stroke-width="2" /><polyline fill="none" points="17.5,93 17.5,59 52.5,59 52.5,93" stroke="#000000" stroke-width="2" /><polyline fill="none" points="95,10 65,10 65,93" stroke="#000000" stroke-width="2" /><path d="M3.5,77.5 c15.772,-16.183 24,-37.168 24,-66" fill="none" stroke="#000000" stroke-width="2" /><path d="M72.5,81 h6.5 c10.607,0 15.5,-4.166 15.5,-13 c0,-10.241 -5.379,-20.147 -16,-27.5 c6.075,-9.587 11.531,-20.068 15.576,-29.881" fill="none" stroke="#000000" stroke-width="2" /></svg>