<?xml version='1.0' encoding='utf-8'?>
<svg xmlns="http://www.w3.org/2000/svg" height="100px" version="1.0" viewBox="0 0 100 100" width="100px" x="0px" y="0px">
<line fill="none" stroke="#000000" stroke-width="2" x1="15" x2="50.5" y1="87" y2="87" /><line fill="none" stroke="#000000" stroke-width="2" x1="5.5" x2="60" y1="41.5" y2="41.5" /><line fill="none" stroke="#000000" stroke-width="2" x1="6.5" x2="59" y1="15.5" y2="15.5" /><line fill="none" stroke="#000000" stroke-width="2" x1="32" x2="32" y1="15" y2="3.5" /><polyline fill="none" points="51.5,93 51.5,55.5 14,55.5 14,93" stroke="#000000" stroke-width="2" /><polyline fill="none" points="95,10 65,10 65,93" stroke="#000000" stroke-width="2" /><path d="M42,41.5 c3.418,-7.409 6.219,-16.329 8,-26" fill="none" stroke="#000000" stroke-width="2" /><path d="M22.5,41.5 c-2.117,-8.986 -4.596,-17.603 -7.5,-26" fill="none" stroke="#000000" stroke-width="2" /><path d="M72.5,81 h6.5 c10.607,0 15.5,-4.166 15.5,-13 c0,-10.241 -5.379,-20.147 -16,-27.5 c6.075,-9.587 11.531,-20.068 15.576,-29.881" fill="none" stroke="#000000" stroke-width="2" /></svg>