<?xml version='1.0' encoding='utf-8'?>
<svg xmlns="http://www.w3.org/2000/svg" height="100px" version="1.0" viewBox="0 0 100 100" width="100px" x="0px" y="0px">
<line fill="none" stroke="#000000" stroke-width="2" x1="15.5" x2="15.5" y1="52.5" y2="93" /><line fill="none" stroke="#000000" stroke-width="2" x1="16.5" x2="54" y1="87" y2="87" /><line fill="none" stroke="#000000" stroke-width="2" x1="16.5" x2="54" y1="69" y2="69" /><line fill="none" stroke="#000000" stroke-width="2" x1="4" x2="61" y1="37" y2="37" /><line fill="none" stroke="#000000" stroke-width="2" x1="49" x2="9.5" y1="16.5" y2="16.5" /><line fill="none" stroke="#000000" stroke-width="2" x1="31" x2="31" y1="37" y2="4.5" /><polyline fill="none" points="95.5,10 66,10 66,93" stroke="#000000" stroke-width="2" /><polyline fill="none" points="55,93 55,52 16,52" stroke="#000000" stroke-width="2" /><path d="M73.5,81 h6.0 c10.607,0 15.5,-4.166 15.5,-13 c0,-10.241 -5.379,-20.147 -16,-27.5 c6.075,-9.587 11.531,-20.068 15.576,-29.881" fill="none" stroke="#000000" stroke-width="2" /><path d="M3,59.5 c24.125,-12.872 43.107,-30.326 56,-50.5" fill="none" stroke="#000000" stroke-width="2" /></svg>