<?xml version='1.0' encoding='utf-8'?>
<svg xmlns="http://www.w3.org/2000/svg" height="100px" version="1.0" viewBox="0 0 100 100" width="100px" x="0px" y="0px">
<line fill="none" stroke="#000000" stroke-width="2" x1="11" x2="45.5" y1="86" y2="86" /><line fill="none" stroke="#000000" stroke-width="2" x1="11" x2="45.5" y1="70" y2="70" /><line fill="none" stroke="#000000" stroke-width="2" x1="6.5" x2="49" y1="11" y2="11" /><polyline fill="none" points="90,51 90,11 53.5,11" stroke="#000000" stroke-width="2" /><polyline fill="none" points="46.5,93 46.5,28 10,28 10,93" stroke="#000000" stroke-width="2" /><path d="M90,43 h-34.0 v35.5 c0,10.731 0.256,10.972 6,11.5 c3.757,0.346 6.807,0.5 10.5,0.5 c3.626,0 7.518,-0.169 11.5,-0.5 c8.413,-0.704 8.562,-0.886 10,-24.5" fill="none" stroke="#000000" stroke-width="2" /><path d="M23,11 v17.0 c0,21.968 -1.558,25.633 -10,34" fill="none" stroke="#000000" stroke-width="2" /><path d="M33.5,11 v37.0 c0,5.49 0.593,6 4.5,6 h8.5" fill="none" stroke="#000000" stroke-width="2" /></svg>