<?xml version='1.0' encoding='utf-8'?>
<svg xmlns="http://www.w3.org/2000/svg" height="100px" version="1.0" viewBox="0 0 100 100" width="100px" x="0px" y="0px">
<line fill="none" stroke="#000000" stroke-width="2" x1="10" x2="41" y1="70" y2="70" /><line fill="none" stroke="#000000" stroke-width="2" x1="5.5" x2="44.5" y1="11" y2="11" /><line fill="none" stroke="#000000" stroke-width="2" x1="58.5" x2="91" y1="56" y2="56" /><polyline fill="none" points="10,86 42,86 42,28 9,28 9,93" stroke="#000000" stroke-width="2" /><path d="M20.5,12 v17.0 c0,20.538 -1.387,24.464 -10,33" fill="none" stroke="#000000" stroke-width="2" /><path d="M30,12 v36.0 c0,5.49 0.593,6 4.5,6 h6.5" fill="none" stroke="#000000" stroke-width="2" /><path d="M45.5,70 c7.64,-5.894 15.734,-16.695 18.5,-24.5" fill="none" stroke="#000000" stroke-width="2" /><path d="M90.099,56.567 c-8.329,17.34 -25.454,30.349 -47.599,35.433" fill="none" stroke="#000000" stroke-width="2" /><path d="M96.5,92 c-16.561,-6.995 -31.025,-19.355 -39.5,-34" fill="none" stroke="#000000" stroke-width="2" /><path d="M76.5,24 v19.0 c0,4.302 0.208,4.5 9,4.5 c8.393,0 8.584,-0.151 9.5,-12" fill="none" stroke="#000000" stroke-width="2" /><path d="M51.5,25.5 c4.457,-6.438 8.846,-13.655 12.5,-20.5" fill="none" stroke="#000000" stroke-width="2" /><path d="M95,29 c-4.379,-6.704 -10.359,-15.208 -15.5,-22" fill="none" stroke="#000000" stroke-width="2" /><path d="M45,26 c14.469,-0.391 30.446,-1.651 45.5,-3.5" fill="none" stroke="#000000" stroke-width="2" /><path d="M45.5,51.5 c11.721,-4.535 18.889,-14.093 19.5,-26.5" fill="none" stroke="#000000" stroke-width="2" /></svg>