<?xml version='1.0' encoding='utf-8'?>
<svg xmlns="http://www.w3.org/2000/svg" height="100px" version="1.0" viewBox="0 0 100 100" width="100px" x="0px" y="0px">
<line fill="none" stroke="#000000" stroke-width="2" x1="50" x2="50" y1="93.5" y2="43.5" /><line fill="none" stroke="#000000" stroke-width="2" x1="92" x2="8" y1="53.5" y2="53.5" /><path d="M12.5,15.5 c26.042,0 51.134,-2.358 75,-7" fill="none" stroke="#000000" stroke-width="2" /><path d="M28,43 c-3.276,-7.386 -6.878,-14.422 -10.5,-20.5" fill="none" stroke="#000000" stroke-width="2" /><path d="M53,38 c-2.773,-6.497 -5.885,-12.698 -9,-18" fill="none" stroke="#000000" stroke-width="2" /><path d="M70,45.5 c5.549,-8.854 10.201,-18.241 13.5,-27" fill="none" stroke="#000000" stroke-width="2" /><path d="M6,89 c19.857,-10.108 34.039,-22.366 43,-35.5" fill="none" stroke="#000000" stroke-width="2" /><path d="M94,89 c-19.857,-10.108 -34.039,-22.366 -43,-35.5" fill="none" stroke="#000000" stroke-width="2" /></svg>