<?xml version='1.0' encoding='utf-8'?>
<svg xmlns="http://www.w3.org/2000/svg" height="100px" version="1.0" viewBox="0 0 100 100" width="100px" x="0px" y="0px">
<line fill="none" stroke="#000000" stroke-width="2" x1="45.5" x2="6.5" y1="47" y2="47" /><line fill="none" stroke="#000000" stroke-width="2" x1="43.5" x2="11.5" y1="28" y2="28" /><line fill="none" stroke="#000000" stroke-width="2" x1="27" x2="27" y1="84.5" y2="28" /><line fill="none" stroke="#000000" stroke-width="2" x1="93" x2="55.5" y1="19" y2="19" /><line fill="none" stroke="#000000" stroke-width="2" x1="95" x2="48.5" y1="46" y2="46" /><path d="M5.5,89.5 c15.053,-2.877 27.354,-6.513 41,-12" fill="none" stroke="#000000" stroke-width="2" /><path d="M47,23 c-7.589,-4.952 -13.869,-10.14 -20,-16.5 c-6.849,8.159 -14.079,15.12 -22.5,21.5" fill="none" stroke="#000000" stroke-width="2" /><path d="M17.5,76 c-2.387,-7.582 -4.948,-14.762 -7.5,-21" fill="none" stroke="#000000" stroke-width="2" /><path d="M36.5,73 c2.857,-6.433 5.416,-12.93 7.5,-19" fill="none" stroke="#000000" stroke-width="2" /><path d="M47,40 c4.768,-9.067 8.643,-20.628 11,-33" fill="none" stroke="#000000" stroke-width="2" /><path d="M43,90 c16.768,-8.472 28,-26.928 28,-48.5 V5.0" fill="none" stroke="#000000" stroke-width="2" /><path d="M95.5,90 c-14.764,-8.173 -24.5,-25.802 -24.5,-48.5" fill="none" stroke="#000000" stroke-width="2" /></svg>