<?xml version='1.0' encoding='utf-8'?>
<svg xmlns="http://www.w3.org/2000/svg" height="100px" version="1.0" viewBox="0 0 100 100" width="100px" x="0px" y="0px">
<line fill="none" stroke="#000000" stroke-width="2" x1="71" x2="71" y1="16" y2="3" /><line fill="none" stroke="#000000" stroke-width="2" x1="43" x2="6.5" y1="47" y2="47" /><line fill="none" stroke="#000000" stroke-width="2" x1="41" x2="11" y1="28" y2="28" /><line fill="none" stroke="#000000" stroke-width="2" x1="25" x2="25" y1="84.5" y2="28" /><path d="M54,88.5 c5.196,-18.077 10.575,-39.798 15.5,-62.5" fill="none" stroke="#000000" stroke-width="2" /><path d="M96,92 c-4.285,-11.488 -10.435,-25.827 -16,-37" fill="none" stroke="#000000" stroke-width="2" /><path d="M46,89 c13.748,-0.856 29.893,-3.71 45.5,-8" fill="none" stroke="#000000" stroke-width="2" /><path d="M39.5,92 c6.048,-14.052 9,-29.832 9,-51 v-24.0 h46.5" fill="none" stroke="#000000" stroke-width="2" /><path d="M5.5,89.5 c14.318,-2.877 26.02,-6.513 39,-12" fill="none" stroke="#000000" stroke-width="2" /><path d="M44.5,23 c-7.143,-4.952 -13.203,-10.167 -19,-16.5 c-6.445,8.159 -13.143,15.038 -21,21.5" fill="none" stroke="#000000" stroke-width="2" /><path d="M17.5,76 c-2.387,-7.582 -4.948,-14.762 -7.5,-21" fill="none" stroke="#000000" stroke-width="2" /><path d="M33,73 c2.857,-6.433 5.416,-12.93 7.5,-19" fill="none" stroke="#000000" stroke-width="2" /></svg>