<?xml version='1.0' encoding='utf-8'?>
<svg xmlns="http://www.w3.org/2000/svg" height="100px" version="1.0" viewBox="0 0 100 100" width="100px" x="0px" y="0px">
<line fill="none" stroke="#000000" stroke-width="2" x1="41.5" x2="6" y1="47" y2="47" /><line fill="none" stroke="#000000" stroke-width="2" x1="40.5" x2="10.5" y1="28" y2="28" /><line fill="none" stroke="#000000" stroke-width="2" x1="24.5" x2="24.5" y1="84.5" y2="28" /><line fill="none" stroke="#000000" stroke-width="2" x1="48" x2="86.5" y1="26.5" y2="26.5" /><line fill="none" stroke="#000000" stroke-width="2" x1="43" x2="95" y1="43" y2="43" /><polyline fill="none" points="86.5,43 86.5,10.5 46.5,10.5" stroke="#000000" stroke-width="2" /><path d="M5,89.5 c14.318,-2.877 26.02,-6.513 39,-12" fill="none" stroke="#000000" stroke-width="2" /><path d="M44,23 c-7.143,-4.952 -13.203,-10.167 -19,-16.5 c-6.445,8.159 -13.143,15.038 -21,21.5" fill="none" stroke="#000000" stroke-width="2" /><path d="M17,76 c-2.387,-7.582 -4.948,-14.762 -7.5,-21" fill="none" stroke="#000000" stroke-width="2" /><path d="M32.5,73 c2.857,-6.433 5.416,-12.93 7.5,-19" fill="none" stroke="#000000" stroke-width="2" /><path d="M68.5,43 v38.698 c0,8.037 -1.134,9.302 -6,9.302 c-2.301,0 -6.198,-0.173 -11,-0.5" fill="none" stroke="#000000" stroke-width="2" /><path d="M68.5,46.069 c4.988,17.04 15.645,33.331 28,43.431" fill="none" stroke="#000000" stroke-width="2" /><path d="M92,48.5 c-3.699,7.682 -8.282,14.486 -13.5,20" fill="none" stroke="#000000" stroke-width="2" /><path d="M38.5,87.5 c12.32,-7.998 22.793,-17.592 30,-27" fill="none" stroke="#000000" stroke-width="2" /><path d="M57.5,66 c-2.785,-5.12 -6.686,-11.371 -11,-17.5" fill="none" stroke="#000000" stroke-width="2" /></svg>