<?xml version='1.0' encoding='utf-8'?>
<svg xmlns="http://www.w3.org/2000/svg" height="100px" version="1.0" viewBox="0 0 100 100" width="100px" x="0px" y="0px">
<line fill="none" stroke="#000000" stroke-width="2" x1="42" x2="5.5" y1="47" y2="47" /><line fill="none" stroke="#000000" stroke-width="2" x1="40" x2="10" y1="28" y2="28" /><line fill="none" stroke="#000000" stroke-width="2" x1="24" x2="24" y1="84.5" y2="28" /><line fill="none" stroke="#000000" stroke-width="2" x1="48.5" x2="89.5" y1="53.5" y2="53.5" /><line fill="none" stroke="#000000" stroke-width="2" x1="42" x2="96.5" y1="33" y2="33" /><line fill="none" stroke="#000000" stroke-width="2" x1="44" x2="95" y1="14.5" y2="14.5" /><line fill="none" stroke="#000000" stroke-width="2" x1="69.5" x2="69.5" y1="14.5" y2="3.5" /><polyline fill="none" points="48.5,68 90.5,68 90.5,40 47.5,40 47.5,69" stroke="#000000" stroke-width="2" /><path d="M4.5,89.5 c14.318,-2.877 26.02,-6.513 39,-12" fill="none" stroke="#000000" stroke-width="2" /><path d="M43.5,23 c-7.143,-4.952 -13.203,-10.167 -19,-16.5 c-6.445,8.159 -13.143,15.038 -21,21.5" fill="none" stroke="#000000" stroke-width="2" /><path d="M16.5,76 c-2.387,-7.582 -4.948,-14.762 -7.5,-21" fill="none" stroke="#000000" stroke-width="2" /><path d="M32,73 c2.857,-6.433 5.416,-12.93 7.5,-19" fill="none" stroke="#000000" stroke-width="2" /><path d="M76,33 c3.734,-5.242 6.832,-11.527 9,-18.5" fill="none" stroke="#000000" stroke-width="2" /><path d="M61,33 c-2.639,-6.207 -5.624,-12.364 -9,-18.5" fill="none" stroke="#000000" stroke-width="2" /><path d="M74.5,69 v17.5 c0,3.53 0.914,4.544 4,4.8 c1.47,0.123 3.469,0.2 5,0.2 c1.734,0 3.383,-0.064 5,-0.2 c4.678,-0.388 5.348,-1.325 6,-19.3" fill="none" stroke="#000000" stroke-width="2" /><path d="M33,93 c18.338,-4.922 28,-14.433 28,-25" fill="none" stroke="#000000" stroke-width="2" /></svg>