<?xml version='1.0' encoding='utf-8'?>
<svg xmlns="http://www.w3.org/2000/svg" height="100px" version="1.0" viewBox="0 0 100 100" width="100px" x="0px" y="0px">
<line fill="none" stroke="#000000" stroke-width="2" x1="76.5" x2="23.5" y1="55.5" y2="55.5" /><line fill="none" stroke="#000000" stroke-width="2" x1="78" x2="22" y1="67.5" y2="67.5" /><line fill="none" stroke="#000000" stroke-width="2" x1="56" x2="89" y1="24.5" y2="24.5" /><line fill="none" stroke="#000000" stroke-width="2" x1="43" x2="11" y1="24.5" y2="24.5" /><polyline fill="none" points="10,92.5 10,10 44,10 44,40.5 11,40.5" stroke="#000000" stroke-width="2" /><path d="M23,88.5 c17.745,-4.557 27,-12.911 27,-21 v-12.0" fill="none" stroke="#000000" stroke-width="2" /><path d="M43.5,55.5 c-2.549,-3.911 -5.327,-7.739 -8,-11" fill="none" stroke="#000000" stroke-width="2" /><path d="M56,55.5 c3.248,-3.591 6.291,-7.546 8.5,-11" fill="none" stroke="#000000" stroke-width="2" /><path d="M68,89.5 c-4.844,-6.05 -11.027,-12.15 -18.5,-18" fill="none" stroke="#000000" stroke-width="2" /><path d="M73,90 c5.385,0.371 8.107,0.5 10.5,0.5 c6.027,0 6.5,-0.449 6.5,-8 V10.0 h-35.0 v30.5 h34.0" fill="none" stroke="#000000" stroke-width="2" /></svg>