<?xml version='1.0' encoding='utf-8'?>
<svg xmlns="http://www.w3.org/2000/svg" height="100px" version="1.0" viewBox="0 0 100 100" width="100px" x="0px" y="0px">
<line fill="none" stroke="#000000" stroke-width="2" x1="44.5" x2="87.5" y1="29" y2="29" /><polyline fill="none" points="37.5,10 11.5,10 11.5,93" stroke="#000000" stroke-width="2" /><polyline fill="none" points="44.5,49 88.5,49 88.5,10.5 43.5,10.5 43.5,89.5" stroke="#000000" stroke-width="2" /><path d="M17.5,71 h5.0 c7.789,0 11,-2.928 11,-10.5 c0,-8.302 -2.023,-13.576 -10,-23.5 c5.083,-8.09 9.91,-17.88 13.063,-26.349" fill="none" stroke="#000000" stroke-width="2" /><path d="M61,49 c5.864,18.978 19.003,34.684 35,42.5" fill="none" stroke="#000000" stroke-width="2" /><path d="M30,91.5 c13.719,-1.968 25.807,-4.552 40,-8.5" fill="none" stroke="#000000" stroke-width="2" /><path d="M72.746,72 c7.556,-5.439 15.311,-13.25 21.5,-21.5" fill="none" stroke="#000000" stroke-width="2" /></svg>