<?xml version='1.0' encoding='utf-8'?>
<svg xmlns="http://www.w3.org/2000/svg" height="100px" version="1.0" viewBox="0 0 100 100" width="100px" x="0px" y="0px">
<line fill="none" stroke="#000000" stroke-width="2" x1="95" x2="28" y1="89" y2="89" /><line fill="none" stroke="#000000" stroke-width="2" x1="91" x2="35" y1="66" y2="66" /><line fill="none" stroke="#000000" stroke-width="2" x1="63" x2="63" y1="88" y2="51.5" /><line fill="none" stroke="#000000" stroke-width="2" x1="94" x2="32" y1="32.5" y2="32.5" /><line fill="none" stroke="#000000" stroke-width="2" x1="91" x2="37" y1="15.5" y2="15.5" /><line fill="none" stroke="#000000" stroke-width="2" x1="63" x2="63" y1="31.5" y2="4.5" /><polyline fill="none" points="33,10 10,10 10,93" stroke="#000000" stroke-width="2" /><path d="M14,71 h4.0 c7.789,0 11,-2.928 11,-10.5 c0,-8.302 -2.023,-13.576 -10,-23.5 c5.083,-8.09 9.91,-17.88 13.063,-26.349" fill="none" stroke="#000000" stroke-width="2" /><path d="M32.5,55.5 c15.167,-4.134 23.278,-12.696 24,-23" fill="none" stroke="#000000" stroke-width="2" /><path d="M70.5,33.5 v14.5 c0,3.714 0.619,4.255 4.5,4.399 c2.017,0.074 3.803,0.101 6,0.101 c2.079,0 3.647,-0.029 5.5,-0.101 c5.465,-0.209 5.922,-0.59 7,-11.899" fill="none" stroke="#000000" stroke-width="2" /></svg>