<?xml version='1.0' encoding='utf-8'?>
<svg xmlns="http://www.w3.org/2000/svg" height="100px" version="1.0" viewBox="0 0 100 100" width="100px" x="0px" y="0px">
<line fill="none" stroke="#000000" stroke-width="2" x1="42.5" x2="87" y1="23" y2="23" /><line fill="none" stroke="#000000" stroke-width="2" x1="34.5" x2="94.5" y1="46.5" y2="46.5" /><polyline fill="none" points="42.5,37 88,37 88,10 41.5,10 41.5,38" stroke="#000000" stroke-width="2" /><polyline fill="none" points="34.5,10 10.5,10 10.5,93" stroke="#000000" stroke-width="2" /><path d="M53,93 c11.66,-7.219 24.551,-23.232 29,-36" fill="none" stroke="#000000" stroke-width="2" /><path d="M35,87.5 c11.627,-6.923 24.864,-20.239 30.5,-30.5" fill="none" stroke="#000000" stroke-width="2" /><path d="M28.5,74.5 c10.238,-6.465 21.836,-18.537 27,-28" fill="none" stroke="#000000" stroke-width="2" /><path d="M14.5,71 h5.0 c7.789,0 11,-2.928 11,-10.5 c0,-8.302 -2.023,-13.576 -10,-23.5 c5.083,-8.09 9.91,-17.88 13.063,-26.349" fill="none" stroke="#000000" stroke-width="2" /><path d="M48,57 h42.5 c0,26.927 -3.691,34 -8.5,34 c-3.276,0 -7.634,-0.163 -12,-0.5" fill="none" stroke="#000000" stroke-width="2" /></svg>