<?xml version='1.0' encoding='utf-8'?>
<svg xmlns="http://www.w3.org/2000/svg" height="100px" version="1.0" viewBox="0 0 100 100" width="100px" x="0px" y="0px">
<line fill="none" stroke="#000000" stroke-width="2" x1="30.5" x2="96.5" y1="21.5" y2="21.5" /><polyline fill="none" points="31.5,10 8.5,10 8.5,93" stroke="#000000" stroke-width="2" /><path d="M70,21.5 c3.968,-4.538 7.365,-9.745 10,-15.5" fill="none" stroke="#000000" stroke-width="2" /><path d="M54,21.5 c-2.328,-5.04 -5,-10.024 -8,-15" fill="none" stroke="#000000" stroke-width="2" /><path d="M12.5,71 h4.0 c7.789,0 11,-2.928 11,-10.5 c0,-8.302 -2.023,-13.576 -10,-23.5 c5.083,-8.09 9.91,-17.88 13.063,-26.349" fill="none" stroke="#000000" stroke-width="2" /><path d="M28,44.5 c16.304,-6.389 26.982,-13.882 34.5,-23" fill="none" stroke="#000000" stroke-width="2" /><path d="M48,90 c5.332,0.318 11.144,0.5 14,0.5 c4.954,0 6.5,-2.185 6.5,-19 c0,-17.56 -5.441,-32.839 -14,-41.5" fill="none" stroke="#000000" stroke-width="2" /><path d="M26.5,66 c16.371,-6.521 28.318,-14.813 36,-24" fill="none" stroke="#000000" stroke-width="2" /><path d="M26,87 c19.479,-8.198 32.797,-17.983 41.5,-29" fill="none" stroke="#000000" stroke-width="2" /><path d="M92.5,33 c-5.789,7.795 -12.148,14.145 -19,19" fill="none" stroke="#000000" stroke-width="2" /><path d="M64.5,21.5 c4.352,26.727 17.482,51.873 32,65.5" fill="none" stroke="#000000" stroke-width="2" /></svg>