<?xml version='1.0' encoding='utf-8'?>
<svg xmlns="http://www.w3.org/2000/svg" height="100px" version="1.0" viewBox="0 0 100 100" width="100px" x="0px" y="0px">
<line fill="none" stroke="#000000" stroke-width="2" x1="93.5" x2="30.5" y1="59" y2="59" /><line fill="none" stroke="#000000" stroke-width="2" x1="78" x2="46" y1="43" y2="43" /><line fill="none" stroke="#000000" stroke-width="2" x1="61" x2="40" y1="13" y2="13" /><line fill="none" stroke="#000000" stroke-width="2" x1="93" x2="69" y1="13" y2="13" /><polyline fill="none" points="31,10 8,10 8,93" stroke="#000000" stroke-width="2" /><path d="M12,71 h4.0 c7.789,0 11,-2.928 11,-10.5 c0,-8.302 -2.023,-13.576 -10,-23.5 c5.083,-8.09 9.91,-17.88 13.063,-26.349" fill="none" stroke="#000000" stroke-width="2" /><path d="M26.5,28 c8.727,-7.136 14.721,-15.069 18.5,-24" fill="none" stroke="#000000" stroke-width="2" /><path d="M97.5,54.5 c-17.682,-11.128 -30.609,-29.159 -35,-48" fill="none" stroke="#000000" stroke-width="2" /><path d="M25.5,89 c9.056,-6.188 16.573,-14.335 21,-22.5" fill="none" stroke="#000000" stroke-width="2" /><path d="M94,89.5 c-4.928,-7.471 -11.452,-15.625 -18.5,-23" fill="none" stroke="#000000" stroke-width="2" /><path d="M26.5,54.5 c15.998,-9.792 28.587,-25.192 33.547,-40.802" fill="none" stroke="#000000" stroke-width="2" /><path d="M78.5,37.5 c6.135,-7.775 10.635,-15.75 13.557,-23.839" fill="none" stroke="#000000" stroke-width="2" /><path d="M52,30 c-3.167,-3.489 -7.128,-7.659 -10.5,-11" fill="none" stroke="#000000" stroke-width="2" /><path d="M43,41 c-3.166,-3.488 -7.128,-7.659 -10.5,-11" fill="none" stroke="#000000" stroke-width="2" /><path d="M63.5,59 v28.0 c0,3.546 -0.484,4 -6,4 c-2.423,0 -5.976,-0.136 -11,-0.5" fill="none" stroke="#000000" stroke-width="2" /></svg>