<?xml version='1.0' encoding='utf-8'?>
<svg xmlns="http://www.w3.org/2000/svg" height="100px" version="1.0" viewBox="0 0 100 100" width="100px" x="0px" y="0px">
<line fill="none" stroke="#000000" stroke-width="2" x1="51.5" x2="51.5" y1="52.5" y2="17" /><line fill="none" stroke="#000000" stroke-width="2" x1="87.5" x2="16.5" y1="16" y2="16" /><line fill="none" stroke="#000000" stroke-width="2" x1="17.5" x2="84.5" y1="28.5" y2="28.5" /><line fill="none" stroke="#000000" stroke-width="2" x1="17.5" x2="84.5" y1="41" y2="41" /><line fill="none" stroke="#000000" stroke-width="2" x1="10" x2="84.5" y1="62.5" y2="62.5" /><polyline fill="none" points="16.5,16 16.5,53.5 87.5,53.5" stroke="#000000" stroke-width="2" /><path d="M4.5,30 c8.624,-8.031 14.41,-16.146 18,-25" fill="none" stroke="#000000" stroke-width="2" /><path d="M57,5 c-1.955,4.184 -3.587,7.183 -6,11" fill="none" stroke="#000000" stroke-width="2" /><path d="M6,90.5 c34.609,-3.011 66.122,-15.482 77.775,-27.69" fill="none" stroke="#000000" stroke-width="2" /><path d="M94,90.5 c-28.396,-2.558 -57.398,-13.014 -71,-24" fill="none" stroke="#000000" stroke-width="2" /></svg>