<?xml version='1.0' encoding='utf-8'?>
<svg xmlns="http://www.w3.org/2000/svg" height="100px" version="1.0" viewBox="0 0 100 100" width="100px" x="0px" y="0px">
<line fill="none" stroke="#000000" stroke-width="2" x1="26.5" x2="26.5" y1="93" y2="40.5" /><line fill="none" stroke="#000000" stroke-width="2" x1="46.5" x2="5.5" y1="54.5" y2="54.5" /><line fill="none" stroke="#000000" stroke-width="2" x1="52" x2="52" y1="20.5" y2="94" /><line fill="none" stroke="#000000" stroke-width="2" x1="94.5" x2="52.5" y1="20" y2="20" /><line fill="none" stroke="#000000" stroke-width="2" x1="74.5" x2="74.5" y1="87" y2="20" /><line fill="none" stroke="#000000" stroke-width="2" x1="53" x2="96" y1="87" y2="87" /><line fill="none" stroke="#000000" stroke-width="2" x1="52" x2="92.5" y1="64" y2="64" /><line fill="none" stroke="#000000" stroke-width="2" x1="52" x2="92.5" y1="41.5" y2="41.5" /><path d="M4.5,82 c10.14,-8.779 17.218,-18.145 21.5,-28" fill="none" stroke="#000000" stroke-width="2" /><path d="M45.5,77 c-4.658,-6.542 -11.041,-14.217 -18.5,-22" fill="none" stroke="#000000" stroke-width="2" /><path d="M81.5,4 c-1.911,5.901 -4.193,11.098 -7,16" fill="none" stroke="#000000" stroke-width="2" /><path d="M40.5,33.5 c8.467,-7.635 14.479,-17.039 18.5,-29.5" fill="none" stroke="#000000" stroke-width="2" /><path d="M5,49 c12.932,-7.605 18,-17.905 18,-44" fill="none" stroke="#000000" stroke-width="2" /><path d="M6.5,16 h29.0 v23.5 c0,3.345 0.764,4 5,4 c4.65,0 5.535,-0.972 6,-9.5" fill="none" stroke="#000000" stroke-width="2" /></svg>