<?xml version='1.0' encoding='utf-8'?>
<svg xmlns="http://www.w3.org/2000/svg" height="100px" version="1.0" viewBox="0 0 100 100" width="100px" x="0px" y="0px">
<line fill="none" stroke="#000000" stroke-width="2" x1="64.5" x2="87" y1="12.5" y2="12.5" /><line fill="none" stroke="#000000" stroke-width="2" x1="51" x2="90" y1="65" y2="65" /><line fill="none" stroke="#000000" stroke-width="2" x1="47.5" x2="97.5" y1="46.5" y2="46.5" /><line fill="none" stroke="#000000" stroke-width="2" x1="5" x2="49" y1="38.5" y2="38.5" /><line fill="none" stroke="#000000" stroke-width="2" x1="48" x2="6" y1="13.5" y2="13.5" /><line fill="none" stroke="#000000" stroke-width="2" x1="46" x2="8" y1="26" y2="26" /><line fill="none" stroke="#000000" stroke-width="2" x1="26.5" x2="26.5" y1="38.5" y2="5" /><line fill="none" stroke="#000000" stroke-width="2" x1="11" x2="43" y1="73.5" y2="73.5" /><line fill="none" stroke="#000000" stroke-width="2" x1="11" x2="43" y1="61" y2="61" /><polyline fill="none" points="91,71 91,28.5 55.5,28.5" stroke="#000000" stroke-width="2" /><path d="M73,28.5 c4.551,-4.56 9.602,-10.514 13.184,-15.577" fill="none" stroke="#000000" stroke-width="2" /><path d="M46.5,33.5 c9.611,-8.23 17.295,-18.38 22.5,-29.5" fill="none" stroke="#000000" stroke-width="2" /><path d="M73.5,29.5 v53.5 c0,7.13 -0.762,8 -6,8 c-2.705,0 -6.455,-0.136 -11.5,-0.5" fill="none" stroke="#000000" stroke-width="2" /><path d="M10,92 v-43.5 h34.0 v37.46 c0,4.177 -0.359,4.54 -6.5,4.54 c-1.868,0 -4.805,-0.126 -10.5,-0.5" fill="none" stroke="#000000" stroke-width="2" /></svg>