<?xml version='1.0' encoding='utf-8'?>
<svg xmlns="http://www.w3.org/2000/svg" height="100px" version="1.0" viewBox="0 0 100 100" width="100px" x="0px" y="0px">
<line fill="none" stroke="#000000" stroke-width="2" x1="9.5" x2="39.5" y1="47" y2="47" /><line fill="none" stroke="#000000" stroke-width="2" x1="5.5" x2="41.5" y1="77" y2="77" /><line fill="none" stroke="#000000" stroke-width="2" x1="24" x2="24" y1="30" y2="5" /><line fill="none" stroke="#000000" stroke-width="2" x1="24" x2="24" y1="95" y2="65" /><line fill="none" stroke="#000000" stroke-width="2" x1="5.5" x2="42.5" y1="18" y2="18" /><line fill="none" stroke="#000000" stroke-width="2" x1="76" x2="76" y1="95" y2="55.5" /><line fill="none" stroke="#000000" stroke-width="2" x1="96" x2="42" y1="81" y2="81" /><line fill="none" stroke="#000000" stroke-width="2" x1="43.5" x2="95.5" y1="29.5" y2="29.5" /><polyline fill="none" points="9.5,64 40.5,64 40.5,31 8.5,31 8.5,65" stroke="#000000" stroke-width="2" /><polyline fill="none" points="48,80 48,65 94,65" stroke="#000000" stroke-width="2" /><polyline fill="none" points="48.5,55.5 48.5,38.5 91,38.5 91,54.5 49.5,54.5" stroke="#000000" stroke-width="2" /><polyline fill="none" points="88.5,29.5 88.5,14 47,14" stroke="#000000" stroke-width="2" /><path d="M60,29.5 c2.601,-7.489 4.852,-15.473 7,-24.5" fill="none" stroke="#000000" stroke-width="2" /></svg>