<?xml version='1.0' encoding='utf-8'?>
<svg xmlns="http://www.w3.org/2000/svg" height="100px" version="1.0" viewBox="0 0 100 100" width="100px" x="0px" y="0px">
<line fill="none" stroke="#000000" stroke-width="2" x1="45" x2="96" y1="10.5" y2="10.5" /><line fill="none" stroke="#000000" stroke-width="2" x1="51" x2="90" y1="57" y2="57" /><line fill="none" stroke="#000000" stroke-width="2" x1="51" x2="90" y1="41" y2="41" /><line fill="none" stroke="#000000" stroke-width="2" x1="39" x2="39" y1="9" y2="92" /><line fill="none" stroke="#000000" stroke-width="2" x1="24.5" x2="24.5" y1="11" y2="86" /><polyline fill="none" points="51,73.5 91,73.5 91,25.5 50,25.5 50,74.5" stroke="#000000" stroke-width="2" /><path d="M44,92.5 c7.587,-3.835 14.14,-9.067 18,-14" fill="none" stroke="#000000" stroke-width="2" /><path d="M95.5,93 c-4.649,-4.882 -11.013,-10.108 -18,-14.5" fill="none" stroke="#000000" stroke-width="2" /><path d="M69.5,10.5 c-0.84,5.553 -1.835,10.448 -3,15" fill="none" stroke="#000000" stroke-width="2" /><path d="M3.5,92.5 c4.305,-8.562 7,-23.263 7,-46.5 v-37.0" fill="none" stroke="#000000" stroke-width="2" /></svg>