<?xml version='1.0' encoding='utf-8'?>
<svg xmlns="http://www.w3.org/2000/svg" height="100px" version="1.0" viewBox="0 0 100 100" width="100px" x="0px" y="0px">
<line fill="none" stroke="#000000" stroke-width="2" x1="49" x2="95" y1="10.5" y2="10.5" /><line fill="none" stroke="#000000" stroke-width="2" x1="54.5" x2="89" y1="52.5" y2="52.5" /><line fill="none" stroke="#000000" stroke-width="2" x1="54.5" x2="89" y1="38" y2="38" /><line fill="none" stroke="#000000" stroke-width="2" x1="29" x2="46" y1="66.5" y2="66.5" /><line fill="none" stroke="#000000" stroke-width="2" x1="28" x2="28" y1="85.5" y2="49.5" /><line fill="none" stroke="#000000" stroke-width="2" x1="5" x2="48.5" y1="49.5" y2="49.5" /><line fill="none" stroke="#000000" stroke-width="2" x1="11" x2="43" y1="24.5" y2="24.5" /><polyline fill="none" points="54.5,67.5 90,67.5 90,24 53.5,24 53.5,68.5" stroke="#000000" stroke-width="2" /><polyline fill="none" points="11,40 44,40 44,10.5 10,10.5 10,41" stroke="#000000" stroke-width="2" /><path d="M46,85 c7.113,-3.269 14.026,-8.385 18,-13" fill="none" stroke="#000000" stroke-width="2" /><path d="M94.5,85 c-4.68,-4.405 -11.013,-9.009 -18,-13" fill="none" stroke="#000000" stroke-width="2" /><path d="M71,10.5 c-0.823,4.9 -1.809,9.31 -3,13.5" fill="none" stroke="#000000" stroke-width="2" /><path d="M95,89.5 h-35.0 c-29.518,0 -41.484,-5.108 -48.1,-17" fill="none" stroke="#000000" stroke-width="2" /><path d="M5,92.5 c4.717,-8.6 8.563,-23.487 9,-36" fill="none" stroke="#000000" stroke-width="2" /></svg>