<?xml version='1.0' encoding='utf-8'?>
<svg xmlns="http://www.w3.org/2000/svg" height="100px" version="1.0" viewBox="0 0 100 100" width="100px" x="0px" y="0px">
<line fill="none" stroke="#000000" stroke-width="2" x1="49.5" x2="96" y1="10.5" y2="10.5" /><line fill="none" stroke="#000000" stroke-width="2" x1="55" x2="90.5" y1="57" y2="57" /><line fill="none" stroke="#000000" stroke-width="2" x1="55" x2="90.5" y1="41" y2="41" /><line fill="none" stroke="#000000" stroke-width="2" x1="28" x2="28" y1="14" y2="4" /><line fill="none" stroke="#000000" stroke-width="2" x1="17.5" x2="43.5" y1="25.5" y2="25.5" /><polyline fill="none" points="55,73.5 91.5,73.5 91.5,25.5 54,25.5 54,74.5" stroke="#000000" stroke-width="2" /><polyline fill="none" points="48,29.5 48,15 7,15 7,29.5" stroke="#000000" stroke-width="2" /><polyline fill="none" points="14,88 42.5,88 42.5,61 13,61 13,94" stroke="#000000" stroke-width="2" /><path d="M72,10.5 c-0.84,5.553 -1.835,10.448 -3,15" fill="none" stroke="#000000" stroke-width="2" /><path d="M4.5,45 c7.16,-7.642 12.491,-16.602 16,-27" fill="none" stroke="#000000" stroke-width="2" /><path d="M42.573,26.125 c-6.919,17.136 -18.252,28.633 -38.073,37.875" fill="none" stroke="#000000" stroke-width="2" /><path d="M14.5,31.5 c7.91,13.364 18.703,23.308 36.5,32.5" fill="none" stroke="#000000" stroke-width="2" /><path d="M48,92.5 c7.587,-3.835 14.14,-9.067 18,-14" fill="none" stroke="#000000" stroke-width="2" /><path d="M96.5,93 c-4.65,-4.882 -11.013,-10.108 -18,-14.5" fill="none" stroke="#000000" stroke-width="2" /></svg>