<?xml version='1.0' encoding='utf-8'?>
<svg xmlns="http://www.w3.org/2000/svg" height="100px" version="1.0" viewBox="0 0 100 100" width="100px" x="0px" y="0px">
<line fill="none" stroke="#000000" stroke-width="2" x1="54" x2="95.5" y1="10.5" y2="10.5" /><line fill="none" stroke="#000000" stroke-width="2" x1="57.5" x2="90.5" y1="57" y2="57" /><line fill="none" stroke="#000000" stroke-width="2" x1="57.5" x2="90.5" y1="41" y2="41" /><line fill="none" stroke="#000000" stroke-width="2" x1="18.5" x2="47.5" y1="40.5" y2="40.5" /><polyline fill="none" points="57.5,73.5 91.5,73.5 91.5,25.5 56.5,25.5 56.5,74.5" stroke="#000000" stroke-width="2" /><polyline fill="none" points="18.5,57.5 48.5,57.5 48.5,24.5 17.5,24.5 17.5,58.5" stroke="#000000" stroke-width="2" /><path d="M50.5,92.5 c7.165,-3.835 13.354,-9.067 17,-14" fill="none" stroke="#000000" stroke-width="2" /><path d="M96,93 c-4.391,-4.882 -10.4,-10.108 -17,-14.5" fill="none" stroke="#000000" stroke-width="2" /><path d="M73,10.5 c-0.84,5.553 -1.835,10.448 -3,15" fill="none" stroke="#000000" stroke-width="2" /><path d="M3.5,91 c3.588,-11.255 6,-29.706 6,-51 v-29.5 h41.0" fill="none" stroke="#000000" stroke-width="2" /><path d="M34,58.5 v24.5 c0,7.423 -0.516,8 -4,8 c-1.5,0 -5.383,-0.218 -8.5,-0.5" fill="none" stroke="#000000" stroke-width="2" /><path d="M12,86.5 c4.58,-5.879 8.819,-14.271 11.5,-23" fill="none" stroke="#000000" stroke-width="2" /><path d="M49.5,82 c-2.607,-6.456 -5.718,-12.745 -9,-18" fill="none" stroke="#000000" stroke-width="2" /><path d="M33,10.5 c-0.791,5.163 -1.594,9.768 -2.5,14" fill="none" stroke="#000000" stroke-width="2" /></svg>