<?xml version='1.0' encoding='utf-8'?>
<svg xmlns="http://www.w3.org/2000/svg" height="100px" version="1.0" viewBox="0 0 100 100" width="100px" x="0px" y="0px">
<line fill="none" stroke="#000000" stroke-width="2" x1="48.5" x2="48.5" y1="92.5" y2="16" /><path d="M89,53.5 c-4.013,3.503 -8.195,6.319 -12.5,8.5" fill="none" stroke="#000000" stroke-width="2" /><path d="M93.5,75.5 c-4.491,-2.724 -9.932,-5.655 -16,-8.5" fill="none" stroke="#000000" stroke-width="2" /><path d="M88.5,9.5 c-4.082,5.116 -8.283,9.147 -13,12.5" fill="none" stroke="#000000" stroke-width="2" /><path d="M92.5,36.5 c-4.434,-3.054 -9.931,-6.37 -16,-9.5" fill="none" stroke="#000000" stroke-width="2" /><path d="M5.5,46.5 H70.0 c0,26.964 12,45 19.5,45 c2.079,0 4.21,-3.166 5.5,-13" fill="none" stroke="#000000" stroke-width="2" /><path d="M7.5,92 c12.668,-9.188 18,-21.981 18,-59 v-8.0" fill="none" stroke="#000000" stroke-width="2" /><path d="M7.5,30 c14.627,-2.948 25.064,-7.421 34,-14" fill="none" stroke="#000000" stroke-width="2" /><path d="M9.5,10.5 H69.0 c0,21.774 12.256,40 19.5,40 c1.469,0 3.52,-1.245 5,-10" fill="none" stroke="#000000" stroke-width="2" /></svg>