<?xml version='1.0' encoding='utf-8'?>
<svg xmlns="http://www.w3.org/2000/svg" height="100px" version="1.0" viewBox="0 0 100 100" width="100px" x="0px" y="0px">
<line fill="none" stroke="#000000" stroke-width="2" x1="29" x2="29" y1="15" y2="24" /><line fill="none" stroke="#000000" stroke-width="2" x1="14" x2="44" y1="41" y2="41" /><line fill="none" stroke="#000000" stroke-width="2" x1="54.5" x2="93.5" y1="34" y2="34" /><polyline fill="none" points="14,58 45,58 45,25 13,25 13,88.5" stroke="#000000" stroke-width="2" /><path d="M5.5,90.5 c13.217,-3.477 24.018,-7.87 36,-14.5" fill="none" stroke="#000000" stroke-width="2" /><path d="M50.5,22 c-8.234,-4.952 -14.957,-10.044 -21.5,-16.5 c-7.432,8.159 -15.351,15.136 -24.5,21.5" fill="none" stroke="#000000" stroke-width="2" /><path d="M47,83.5 c-4.541,-6.542 -10.735,-14.925 -16,-21.5" fill="none" stroke="#000000" stroke-width="2" /><path d="M51,91 c18.887,-8.923 34.145,-28.046 41.533,-56.253" fill="none" stroke="#000000" stroke-width="2" /><path d="M97,91 c-17.621,-9.606 -29.436,-25.804 -36.5,-52" fill="none" stroke="#000000" stroke-width="2" /><path d="M43,91 c7.728,-14.052 11.5,-29.832 11.5,-51 v-29.0 h41.0" fill="none" stroke="#000000" stroke-width="2" /></svg>