<?xml version='1.0' encoding='utf-8'?>
<svg xmlns="http://www.w3.org/2000/svg" height="100px" version="1.0" viewBox="0 0 100 100" width="100px" x="0px" y="0px">
<line fill="none" stroke="#000000" stroke-width="2" x1="29" x2="29" y1="15" y2="24" /><line fill="none" stroke="#000000" stroke-width="2" x1="14" x2="44" y1="41" y2="41" /><line fill="none" stroke="#000000" stroke-width="2" x1="83" x2="51.5" y1="27.5" y2="27.5" /><polyline fill="none" points="14,58 45,58 45,25 13,25 13,89.5" stroke="#000000" stroke-width="2" /><polyline fill="none" points="54.5,81.5 54.5,43.5 79,43.5 79,72.5 55.5,72.5" stroke="#000000" stroke-width="2" /><path d="M5.5,91.5 c13.217,-3.477 24.018,-7.87 36,-14.5" fill="none" stroke="#000000" stroke-width="2" /><path d="M50.5,22 c-8.234,-4.952 -14.957,-10.044 -21.5,-16.5 c-7.432,8.159 -15.351,15.136 -24.5,21.5" fill="none" stroke="#000000" stroke-width="2" /><path d="M49,87.5 c-5,-7.426 -12.082,-17.109 -18,-24.5" fill="none" stroke="#000000" stroke-width="2" /><path d="M48.5,11 h42.5 v71.0 c0,7.472 -0.477,8 -6.5,8 c-2.166,0 -6.078,-0.144 -12.5,-0.5" fill="none" stroke="#000000" stroke-width="2" /></svg>