<?xml version='1.0' encoding='utf-8'?>
<svg xmlns="http://www.w3.org/2000/svg" height="100px" version="1.0" viewBox="0 0 100 100" width="100px" x="0px" y="0px">
<line fill="none" stroke="#000000" stroke-width="2" x1="5.5" x2="94.5" y1="37" y2="37" /><line fill="none" stroke="#000000" stroke-width="2" x1="13.5" x2="86.5" y1="25" y2="25" /><line fill="none" stroke="#000000" stroke-width="2" x1="8.5" x2="91.5" y1="13.5" y2="13.5" /><line fill="none" stroke="#000000" stroke-width="2" x1="50" x2="50" y1="37" y2="13.5" /><line fill="none" stroke="#000000" stroke-width="2" x1="50" x2="50" y1="40" y2="47" /><line fill="none" stroke="#000000" stroke-width="2" x1="23.5" x2="76.5" y1="59" y2="59" /><polyline fill="none" points="23.5,70 77.5,70 77.5,48 22.5,48 22.5,90.5" stroke="#000000" stroke-width="2" /><path d="M38,13.5 c-2.549,-3.556 -5.327,-7.034 -8,-10" fill="none" stroke="#000000" stroke-width="2" /><path d="M62,13.5 c3.024,-3.292 5.896,-6.888 8,-10" fill="none" stroke="#000000" stroke-width="2" /><path d="M3.5,60 c12.938,-6.877 22.176,-14.41 29,-23" fill="none" stroke="#000000" stroke-width="2" /><path d="M96.5,60 c-12.938,-6.877 -22.176,-14.41 -29,-23" fill="none" stroke="#000000" stroke-width="2" /><path d="M42,70 c8.233,9.382 27.176,18.068 52,22" fill="none" stroke="#000000" stroke-width="2" /><path d="M7,92 c17.241,-1.546 32.201,-3.636 50,-7" fill="none" stroke="#000000" stroke-width="2" /><path d="M58.5,81.5 c10.834,-3.128 20.355,-6.93 29,-11.5" fill="none" stroke="#000000" stroke-width="2" /></svg>