<?xml version='1.0' encoding='utf-8'?>
<svg xmlns="http://www.w3.org/2000/svg" height="100px" version="1.0" viewBox="0 0 100 100" width="100px" x="0px" y="0px">
<line fill="none" stroke="#000000" stroke-width="2" x1="50" x2="50" y1="47.5" y2="68" /><line fill="none" stroke="#000000" stroke-width="2" x1="12.5" x2="87.5" y1="57.5" y2="57.5" /><line fill="none" stroke="#000000" stroke-width="2" x1="17" x2="83" y1="21" y2="21" /><line fill="none" stroke="#000000" stroke-width="2" x1="17" x2="83" y1="30" y2="30" /><line fill="none" stroke="#000000" stroke-width="2" x1="6" x2="94" y1="78.5" y2="78.5" /><line fill="none" stroke="#000000" stroke-width="2" x1="68" x2="68" y1="95" y2="69" /><polyline fill="none" points="12.5,69 88.5,69 88.5,46.5 11.5,46.5 11.5,70" stroke="#000000" stroke-width="2" /><polyline fill="none" points="17,39 84,39 84,12 16,12 16,40" stroke="#000000" stroke-width="2" /><path d="M51,3 c-1.357,3.319 -2.996,6.247 -5,9" fill="none" stroke="#000000" stroke-width="2" /><path d="M12,94 c16.496,-5.481 22,-11.824 22,-25" fill="none" stroke="#000000" stroke-width="2" /></svg>