<?xml version='1.0' encoding='utf-8'?>
<svg xmlns="http://www.w3.org/2000/svg" height="100px" version="1.0" viewBox="0 0 100 100" width="100px" x="0px" y="0px">
<line fill="none" stroke="#000000" stroke-width="2" x1="12.5" x2="51.5" y1="51.5" y2="51.5" /><line fill="none" stroke="#000000" stroke-width="2" x1="12.5" x2="51.5" y1="70" y2="70" /><line fill="none" stroke="#000000" stroke-width="2" x1="32" x2="32" y1="34" y2="7" /><line fill="none" stroke="#000000" stroke-width="2" x1="68" x2="68" y1="74" y2="12" /><path d="M11.5,92 v-57.0 h41.0 v47.5 c0,7.567 -0.385,8 -6,8 c-1.855,0 -5.497,-0.159 -11.5,-0.5" fill="none" stroke="#000000" stroke-width="2" /><path d="M19.5,29 c-3.266,-6.757 -6.715,-13.287 -10,-19" fill="none" stroke="#000000" stroke-width="2" /><path d="M44.5,29 c3.75,-6.333 7.305,-13.087 10,-19" fill="none" stroke="#000000" stroke-width="2" /><path d="M89.5,8 v75.0 c0,7.13 -0.866,8 -6.5,8 c-2.75,0 -6.917,-0.144 -12.5,-0.5" fill="none" stroke="#000000" stroke-width="2" /></svg>