<?xml version='1.0' encoding='utf-8'?>
<svg xmlns="http://www.w3.org/2000/svg" height="100px" version="1.0" viewBox="0 0 100 100" width="100px" x="0px" y="0px">
<line fill="none" stroke="#000000" stroke-width="2" x1="14.5" x2="45.5" y1="47.5" y2="47.5" /><line fill="none" stroke="#000000" stroke-width="2" x1="14.5" x2="45.5" y1="67" y2="67" /><line fill="none" stroke="#000000" stroke-width="2" x1="62" x2="62" y1="76" y2="30" /><line fill="none" stroke="#000000" stroke-width="2" x1="6" x2="94" y1="18" y2="18" /><path d="M13.5,92 v-63.0 h33.0 v53.5 c0,7.567 -0.385,8 -6,8 c-1.855,0 -5.498,-0.159 -11.5,-0.5" fill="none" stroke="#000000" stroke-width="2" /><path d="M87.5,26 v57.0 c0,7.13 -0.867,8 -6.5,8 c-2.75,0 -6.917,-0.144 -12.5,-0.5" fill="none" stroke="#000000" stroke-width="2" /><path d="M38,18 c-2.549,-4.979 -5.327,-9.85 -8,-14" fill="none" stroke="#000000" stroke-width="2" /><path d="M62,18 c3.021,-4.613 5.896,-9.644 8,-14" fill="none" stroke="#000000" stroke-width="2" /></svg>