<?xml version='1.0' encoding='utf-8'?>
<svg xmlns="http://www.w3.org/2000/svg" height="100px" version="1.0" viewBox="0 0 100 100" width="100px" x="0px" y="0px">
<line fill="none" stroke="#000000" stroke-width="2" x1="10.5" x2="49.5" y1="49" y2="49" /><line fill="none" stroke="#000000" stroke-width="2" x1="7" x2="51.5" y1="74.5" y2="74.5" /><line fill="none" stroke="#000000" stroke-width="2" x1="29.699" x2="29.699" y1="88.5" y2="11.5" /><line fill="none" stroke="#000000" stroke-width="2" x1="6" x2="52" y1="24.5" y2="24.5" /><polyline fill="none" points="10.5,63 50.5,63 50.5,35 9.5,35 9.5,64" stroke="#000000" stroke-width="2" /><path d="M8,13 c15.838,-0.553 31.068,-2.392 43,-5" fill="none" stroke="#000000" stroke-width="2" /><path d="M52,92 c11.84,-16.926 16,-34.719 16,-86" fill="none" stroke="#000000" stroke-width="2" /><path d="M53.5,28 h39.0 c0,56.077 -2.25,62 -8.5,62 c-2.687,0 -7.361,-0.33 -13,-1" fill="none" stroke="#000000" stroke-width="2" /><path d="M5,91 c15.18,-1.188 30.337,-3.164 46,-6" fill="none" stroke="#000000" stroke-width="2" /></svg>