<?xml version='1.0' encoding='utf-8'?>
<svg xmlns="http://www.w3.org/2000/svg" height="100px" version="1.0" viewBox="0 0 100 100" width="100px" x="0px" y="0px">
<line fill="none" stroke="#000000" stroke-width="2" x1="18" x2="79" y1="46" y2="46" /><polyline fill="none" points="91,50.5 91,32.5 9,32.5 9,50.5" stroke="#000000" stroke-width="2" /><path d="M12.5,15.5 c26.042,0 51.134,-2.358 75,-7" fill="none" stroke="#000000" stroke-width="2" /><path d="M31,32.5 c-2.773,-6.136 -5.894,-11.988 -9,-17" fill="none" stroke="#000000" stroke-width="2" /><path d="M53,32.5 c-2.773,-6.497 -5.895,-12.693 -9,-18" fill="none" stroke="#000000" stroke-width="2" /><path d="M69,32.5 c3.491,-6.029 6.578,-12.25 9,-18" fill="none" stroke="#000000" stroke-width="2" /><path d="M8,90.5 c30.303,-4.347 57.232,-21.713 70.135,-44.001" fill="none" stroke="#000000" stroke-width="2" /><path d="M92,90.5 c-26.731,-3.944 -51.362,-18.624 -65,-38" fill="none" stroke="#000000" stroke-width="2" /></svg>