<?xml version='1.0' encoding='utf-8'?>
<svg xmlns="http://www.w3.org/2000/svg" height="100px" version="1.0" viewBox="0 0 100 100" width="100px" x="0px" y="0px">
<line fill="none" stroke="#000000" stroke-width="2" x1="94" x2="6" y1="26" y2="26" /><polyline fill="none" points="32.5,86 32.5,65 67.5,65 67.5,80 33.5,80" stroke="#000000" stroke-width="2" /><polyline fill="none" points="32.5,49 68.5,49 68.5,36.5 31.5,36.5 31.5,50" stroke="#000000" stroke-width="2" /><path d="M65.5,90 c7.004,0.363 11.129,0.5 13,0.5 c6.354,0 7,-0.673 7,-8 V57.0 h-71.0 v35.0" fill="none" stroke="#000000" stroke-width="2" /><path d="M14,13.5 c25,0 49.088,-1.854 72,-5.5" fill="none" stroke="#000000" stroke-width="2" /><path d="M94,46.5 c-14.617,-3.656 -28.889,-11.784 -37,-20.5" fill="none" stroke="#000000" stroke-width="2" /><path d="M6,48 c23.05,-6.79 39.533,-21.786 42,-35.5" fill="none" stroke="#000000" stroke-width="2" /></svg>