<?xml version='1.0' encoding='utf-8'?>
<svg xmlns="http://www.w3.org/2000/svg" height="100px" version="1.0" viewBox="0 0 100 100" width="100px" x="0px" y="0px">
<line fill="none" stroke="#000000" stroke-width="2" x1="32.5" x2="94.5" y1="14" y2="14" /><line fill="none" stroke="#000000" stroke-width="2" x1="51" x2="51" y1="22" y2="4" /><line fill="none" stroke="#000000" stroke-width="2" x1="76.5" x2="76.5" y1="22" y2="4" /><line fill="none" stroke="#000000" stroke-width="2" x1="32" x2="95" y1="68" y2="68" /><line fill="none" stroke="#000000" stroke-width="2" x1="34" x2="93" y1="54.5" y2="54.5" /><polyline fill="none" points="38.5,43.5 90.5,43.5 90.5,26 37.5,26 37.5,44.5" stroke="#000000" stroke-width="2" /><polyline fill="none" points="10,82 28,82 28,13 9,13 9,90" stroke="#000000" stroke-width="2" /><path d="M31,91 c20.092,-5.015 33,-16.851 33,-26.5 V27.0" fill="none" stroke="#000000" stroke-width="2" /><path d="M94,91 c-18.154,-5.014 -30,-16.853 -30,-26.5" fill="none" stroke="#000000" stroke-width="2" /></svg>