<?xml version='1.0' encoding='utf-8'?>
<svg xmlns="http://www.w3.org/2000/svg" height="100px" version="1.0" viewBox="0 0 100 100" width="100px" x="0px" y="0px">
<line fill="none" stroke="#000000" stroke-width="2" x1="11" x2="89" y1="88.5" y2="88.5" /><line fill="none" stroke="#000000" stroke-width="2" x1="22" x2="78" y1="21.5" y2="21.5" /><line fill="none" stroke="#000000" stroke-width="2" x1="16" x2="84" y1="33.5" y2="33.5" /><line fill="none" stroke="#000000" stroke-width="2" x1="50" x2="50" y1="33.5" y2="12.5" /><line fill="none" stroke="#000000" stroke-width="2" x1="50" x2="50" y1="83" y2="62.14" /><polyline fill="none" points="90,94.5 90,9.5 10,9.5 10,94.5" stroke="#000000" stroke-width="2" /><polyline fill="none" points="28,58 73,58 73,41 27,41 27,59" stroke="#000000" stroke-width="2" /><path d="M16,81 c18.971,-7.699 30.869,-15.338 38,-23" fill="none" stroke="#000000" stroke-width="2" /><path d="M84,81 c-10.611,-6.693 -21.66,-12.56 -34,-18" fill="none" stroke="#000000" stroke-width="2" /><path d="M64.5,70 c6.119,-3.606 11.455,-7.183 16.5,-11" fill="none" stroke="#000000" stroke-width="2" /></svg>