<?xml version='1.0' encoding='utf-8'?>
<svg xmlns="http://www.w3.org/2000/svg" height="100px" version="1.0" viewBox="0 0 100 100" width="100px" x="0px" y="0px">
<line fill="none" stroke="#000000" stroke-width="2" x1="6" x2="53" y1="56" y2="56" /><line fill="none" stroke="#000000" stroke-width="2" x1="29" x2="29" y1="56" y2="94.5" /><line fill="none" stroke="#000000" stroke-width="2" x1="7.5" x2="51" y1="73.5" y2="73.5" /><line fill="none" stroke="#000000" stroke-width="2" x1="5.5" x2="53" y1="30" y2="30" /><line fill="none" stroke="#000000" stroke-width="2" x1="8.5" x2="50" y1="14" y2="14" /><line fill="none" stroke="#000000" stroke-width="2" x1="29" x2="29" y1="30" y2="4.5" /><line fill="none" stroke="#000000" stroke-width="2" x1="57.5" x2="92.68" y1="37.5" y2="37.5" /><path d="M35.5,56 c2.892,-7.695 5.455,-16.588 7.5,-26" fill="none" stroke="#000000" stroke-width="2" /><path d="M21,56 c-1.692,-8.566 -3.768,-17.633 -6,-26" fill="none" stroke="#000000" stroke-width="2" /><path d="M63,92.5 c14.639,-12.474 26.122,-33.28 28.688,-54.122" fill="none" stroke="#000000" stroke-width="2" /><path d="M95,92.5 c-13.701,-10.941 -25.009,-28.919 -30,-49" fill="none" stroke="#000000" stroke-width="2" /><path d="M87,27 c-3.799,0 -9.609,-0.161 -17,-0.5" fill="none" stroke="#000000" stroke-width="2" /><path d="M57.5,93.5 V10.0 h35.0 c-1.481,16.145 -2.188,17 -5.5,17" fill="none" stroke="#000000" stroke-width="2" /></svg>