<?xml version='1.0' encoding='utf-8'?>
<svg xmlns="http://www.w3.org/2000/svg" height="100px" version="1.0" viewBox="0 0 100 100" width="100px" x="0px" y="0px">
<line fill="none" stroke="#000000" stroke-width="2" x1="41" x2="87" y1="23" y2="23" /><line fill="none" stroke="#000000" stroke-width="2" x1="33" x2="94.5" y1="46.5" y2="46.5" /><line fill="none" stroke="#000000" stroke-width="2" x1="4.5" x2="33.5" y1="32.5" y2="32.5" /><line fill="none" stroke="#000000" stroke-width="2" x1="18.5" x2="18.5" y1="77.5" y2="8" /><polyline fill="none" points="41,37 88,37 88,10 40,10 40,38" stroke="#000000" stroke-width="2" /><path d="M50,93 c11.66,-7.219 24.551,-23.232 29,-36" fill="none" stroke="#000000" stroke-width="2" /><path d="M30.5,87.5 c11.627,-6.923 24.864,-20.239 30.5,-30.5" fill="none" stroke="#000000" stroke-width="2" /><path d="M32,64.5 c7.002,-3.944 14.507,-10.691 20,-18" fill="none" stroke="#000000" stroke-width="2" /><path d="M4.5,83 c10.252,-3.637 19.039,-7.762 30,-14" fill="none" stroke="#000000" stroke-width="2" /><path d="M42.5,57 h48.0 c0,26.927 -3.691,34 -8.5,34 c-3.276,0 -7.634,-0.163 -12,-0.5" fill="none" stroke="#000000" stroke-width="2" /></svg>