<?xml version='1.0' encoding='utf-8'?>
<svg xmlns="http://www.w3.org/2000/svg" height="100px" version="1.0" viewBox="0 0 100 100" width="100px" x="0px" y="0px">
<line fill="none" stroke="#000000" stroke-width="2" x1="8" x2="92" y1="10.5" y2="10.5" /><line fill="none" stroke="#000000" stroke-width="2" x1="19" x2="81" y1="32" y2="32" /><line fill="none" stroke="#000000" stroke-width="2" x1="19" x2="81" y1="43.5" y2="43.5" /><line fill="none" stroke="#000000" stroke-width="2" x1="29" x2="80" y1="65" y2="65" /><polyline fill="none" points="19,55 82,55 82,20.5 18,20.5 18,56" stroke="#000000" stroke-width="2" /><path d="M50,10.5 c-1.285,3.709 -2.926,6.98 -5,10" fill="none" stroke="#000000" stroke-width="2" /><path d="M8,76.5 c13.855,-5.89 25.066,-13.646 32,-21.5" fill="none" stroke="#000000" stroke-width="2" /><path d="M8,91.5 c31.659,-4.161 58.079,-14.746 71.346,-26.255" fill="none" stroke="#000000" stroke-width="2" /><path d="M92,91.5 c-25.572,-3.446 -49.002,-12.454 -63,-23" fill="none" stroke="#000000" stroke-width="2" /></svg>