<?xml version='1.0' encoding='utf-8'?>
<svg xmlns="http://www.w3.org/2000/svg" height="100px" version="1.0" viewBox="0 0 100 100" width="100px" x="0px" y="0px">
<line fill="none" stroke="#000000" stroke-width="2" x1="58.5" x2="95" y1="45" y2="45" /><line fill="none" stroke="#000000" stroke-width="2" x1="42.5" x2="75.5" y1="11.5" y2="11.5" /><path d="M22,64 c17.723,-5.631 36.834,-17.516 45,-27" fill="none" stroke="#000000" stroke-width="2" /><path d="M94.117,45.533 C81.83,68.626 57.509,84.939 21,92" fill="none" stroke="#000000" stroke-width="2" /><path d="M70,72.5 c-5.514,-4.511 -12.229,-9.604 -18.5,-14" fill="none" stroke="#000000" stroke-width="2" /><path d="M9.5,29.5 c15.979,-5.266 33.15,-16.491 40.5,-25.5" fill="none" stroke="#000000" stroke-width="2" /><path d="M74.604,12.049 c-11.091,21.966 -33.147,37.734 -66.104,44.451" fill="none" stroke="#000000" stroke-width="2" /><path d="M53,37.5 c-4.963,-4.285 -10.953,-9.196 -16.5,-13.5" fill="none" stroke="#000000" stroke-width="2" /></svg>