<?xml version='1.0' encoding='utf-8'?>
<svg xmlns="http://www.w3.org/2000/svg" height="100px" version="1.0" viewBox="0 0 100 100" width="100px" x="0px" y="0px">
<line fill="none" stroke="#000000" stroke-width="2" x1="45" x2="88.5" y1="29" y2="29" /><line fill="none" stroke="#000000" stroke-width="2" x1="16.5" x2="16.5" y1="94" y2="41.5" /><line fill="none" stroke="#000000" stroke-width="2" x1="50" x2="50" y1="14.5" y2="3.5" /><line fill="none" stroke="#000000" stroke-width="2" x1="6" x2="94" y1="14.5" y2="14.5" /><path d="M21.5,59 c12.766,-11.518 22.388,-25.549 28.5,-41.5" fill="none" stroke="#000000" stroke-width="2" /><path d="M87.539,29.724 c-8.611,29.948 -29.412,50.04 -66.039,62.276" fill="none" stroke="#000000" stroke-width="2" /><path d="M26,17.5 c-4.676,17.022 -12.729,32.225 -23,44" fill="none" stroke="#000000" stroke-width="2" /><path d="M75,56 c-6.613,-5.608 -13.842,-11.304 -21,-16.5" fill="none" stroke="#000000" stroke-width="2" /><path d="M36,43 c10.876,22.399 30.021,38.486 59,49" fill="none" stroke="#000000" stroke-width="2" /></svg>