<?xml version='1.0' encoding='utf-8'?>
<svg xmlns="http://www.w3.org/2000/svg" height="100px" version="1.0" viewBox="0 0 100 100" width="100px" x="0px" y="0px">
<line fill="none" stroke="#000000" stroke-width="2" x1="91" x2="9" y1="15.5" y2="15.5" /><line fill="none" stroke="#000000" stroke-width="2" x1="89" x2="11" y1="58" y2="58" /><line fill="none" stroke="#000000" stroke-width="2" x1="71" x2="29" y1="41" y2="41" /><path d="M94,50.5 c-15.963,-7.108 -30,-20.054 -38,-35" fill="none" stroke="#000000" stroke-width="2" /><path d="M6,50.5 c22.035,-10.865 37.688,-28.139 43,-46" fill="none" stroke="#000000" stroke-width="2" /><path d="M51,58 v28.2 c0,4.219 -0.674,4.8 -7,4.8 c-2.85,0 -7.088,-0.153 -13,-0.5" fill="none" stroke="#000000" stroke-width="2" /><path d="M9,88 c9.055,-6.188 16.573,-14.335 21,-22.5" fill="none" stroke="#000000" stroke-width="2" /><path d="M91,88.5 c-6.11,-7.479 -14.238,-15.625 -23,-23" fill="none" stroke="#000000" stroke-width="2" /></svg>