<?xml version='1.0' encoding='utf-8'?>
<svg xmlns="http://www.w3.org/2000/svg" height="100px" version="1.0" viewBox="0 0 100 100" width="100px" x="0px" y="0px">
<line fill="none" stroke="#000000" stroke-width="2" x1="46.5" x2="88.5" y1="87" y2="87" /><polyline fill="none" points="89.5,94 89.5,53 45.5,53 45.5,94" stroke="#000000" stroke-width="2" /><path d="M95.5,47.5 c-4.332,-9.48 -10.61,-20.903 -16.5,-30" fill="none" stroke="#000000" stroke-width="2" /><path d="M39.5,41 c14.748,-0.586 33.156,-2.407 50,-5" fill="none" stroke="#000000" stroke-width="2" /><path d="M47,40.5 c4.601,-10.245 9.37,-22.664 13.5,-35.5" fill="none" stroke="#000000" stroke-width="2" /><path d="M4.5,94 c18.932,-13.677 32,-41.349 32,-70 h-32.0" fill="none" stroke="#000000" stroke-width="2" /><path d="M22.5,5 c-2.859,22.511 -7.689,41.909 -14,57.5" fill="none" stroke="#000000" stroke-width="2" /><path d="M11,55 c10.214,5.896 18.182,12.53 28,23.5" fill="none" stroke="#000000" stroke-width="2" /></svg>