<?xml version='1.0' encoding='utf-8'?>
<svg xmlns="http://www.w3.org/2000/svg" height="100px" version="1.0" viewBox="0 0 100 100" width="100px" x="0px" y="0px">
<line fill="none" stroke="#000000" stroke-width="2" x1="7" x2="93" y1="26.5" y2="26.5" /><line fill="none" stroke="#000000" stroke-width="2" x1="50" x2="50" y1="47.5" y2="11.5" /><line fill="none" stroke="#000000" stroke-width="2" x1="93" x2="7" y1="55" y2="55" /><path d="M14,12.5 c25,0 49.088,-1.53 72,-4.5" fill="none" stroke="#000000" stroke-width="2" /><path d="M6,49.5 c21.002,-7.339 34.648,-15.032 43,-23" fill="none" stroke="#000000" stroke-width="2" /><path d="M94,49.5 c-21.002,-7.339 -34.648,-15.032 -43,-23" fill="none" stroke="#000000" stroke-width="2" /><path d="M10,91 c32.117,-4.28 55.781,-18.224 65.5,-36" fill="none" stroke="#000000" stroke-width="2" /><path d="M44.5,43.5 c-7.233,11.375 -16.504,21.357 -29,31" fill="none" stroke="#000000" stroke-width="2" /><path d="M20.5,70.5 c23.854,4.139 43.711,10.24 69.5,21.5" fill="none" stroke="#000000" stroke-width="2" /></svg>