<?xml version='1.0' encoding='utf-8'?>
<svg xmlns="http://www.w3.org/2000/svg" height="100px" version="1.0" viewBox="0 0 100 100" width="100px" x="0px" y="0px">
<line fill="none" stroke="#000000" stroke-width="2" x1="5" x2="95" y1="61.5" y2="61.5" /><line fill="none" stroke="#000000" stroke-width="2" x1="78" x2="22" y1="32.5" y2="32.5" /><polyline fill="none" points="89,38 89,20 11,20 11,38" stroke="#000000" stroke-width="2" /><path d="M51,49.5 v34.0 c0,7.551 -0.532,8 -7.5,8 c-3.182,0 -8.553,-0.178 -15,-0.5" fill="none" stroke="#000000" stroke-width="2" /><path d="M30,20 c-3.082,-5.053 -6.549,-9.873 -10,-14" fill="none" stroke="#000000" stroke-width="2" /><path d="M53,20 c-3.082,-5.414 -6.549,-10.578 -10,-15" fill="none" stroke="#000000" stroke-width="2" /><path d="M70,20 c3.879,-5.025 7.309,-10.208 10,-15" fill="none" stroke="#000000" stroke-width="2" /><path d="M77.332,32.754 C69.311,39.835 61.418,45.175 51,50.5" fill="none" stroke="#000000" stroke-width="2" /></svg>