<?xml version='1.0' encoding='utf-8'?>
<svg xmlns="http://www.w3.org/2000/svg" height="100px" version="1.0" viewBox="0 0 100 100" width="100px" x="0px" y="0px">
<line fill="none" stroke="#000000" stroke-width="2" x1="50" x2="50" y1="15" y2="2" /><line fill="none" stroke="#000000" stroke-width="2" x1="24" x2="49.5" y1="33" y2="33" /><polyline fill="none" points="90,31 90,15 10,15 10,32" stroke="#000000" stroke-width="2" /><path d="M6,60.5 c9.885,-10.765 17.372,-24.021 22,-39" fill="none" stroke="#000000" stroke-width="2" /><path d="M48.502,33.949 c-1.309,26.082 -17.797,48.258 -40.002,57.051" fill="none" stroke="#000000" stroke-width="2" /><path d="M92.5,69.5 c-1.319,19.638 -1.441,19.757 -11,20.6 c-2.949,0.26 -6.35,0.4 -10,0.4 c-3.471,0 -7.002,-0.145 -10,-0.4 c-5.577,-0.473 -6,-0.832 -6,-9.1 v-50.5 h28.5 v28.0 c0,6.224 -0.287,6.5 -6,6.5 c-2.028,0 -6.346,-0.146 -12.5,-0.5" fill="none" stroke="#000000" stroke-width="2" /><path d="M39.5,63.5 c-5.895,-4.466 -13.008,-9.396 -19.5,-13.5" fill="none" stroke="#000000" stroke-width="2" /></svg>