<?xml version='1.0' encoding='utf-8'?>
<svg xmlns="http://www.w3.org/2000/svg" height="100px" version="1.0" viewBox="0 0 100 100" width="100px" x="0px" y="0px">
<line fill="none" stroke="#000000" stroke-width="2" x1="16.5" x2="83.5" y1="25" y2="25" /><line fill="none" stroke="#000000" stroke-width="2" x1="50" x2="50" y1="11.5" y2="2" /><polyline fill="none" points="90.5,30.5 90.5,12.5 9.5,12.5 9.5,31.5" stroke="#000000" stroke-width="2" /><path d="M11,47 c19.226,-6.064 32.135,-13.345 41,-22" fill="none" stroke="#000000" stroke-width="2" /><path d="M37,90 c6.284,0.347 11.131,0.5 14.5,0.5 c5.842,0 7.5,-2.038 7.5,-18 c0,-16.669 -6.408,-31.278 -16.5,-39.5" fill="none" stroke="#000000" stroke-width="2" /><path d="M10,67 c19.632,-6.294 32.922,-13.763 42,-22.5" fill="none" stroke="#000000" stroke-width="2" /><path d="M9,87 c22.779,-7.719 37.966,-16.767 48.5,-27.5" fill="none" stroke="#000000" stroke-width="2" /><path d="M87,36 c-6.698,7.475 -13.921,13.391 -22,18" fill="none" stroke="#000000" stroke-width="2" /><path d="M54,25 c4.949,24.469 20.063,48.446 38,62" fill="none" stroke="#000000" stroke-width="2" /></svg>