<?xml version='1.0' encoding='utf-8'?>
<svg xmlns="http://www.w3.org/2000/svg" height="100px" version="1.0" viewBox="0 0 100 100" width="100px" x="0px" y="0px">
<line fill="none" stroke="#000000" stroke-width="2" x1="50" x2="50" y1="12.5" y2="3" /><line fill="none" stroke="#000000" stroke-width="2" x1="7" x2="93" y1="53" y2="53" /><line fill="none" stroke="#000000" stroke-width="2" x1="16" x2="84" y1="39.5" y2="39.5" /><line fill="none" stroke="#000000" stroke-width="2" x1="15" x2="85" y1="26.5" y2="26.5" /><line fill="none" stroke="#000000" stroke-width="2" x1="36" x2="36" y1="52" y2="18.5" /><line fill="none" stroke="#000000" stroke-width="2" x1="64" x2="64" y1="52" y2="18.5" /><polyline fill="none" points="90,31.5 90,13.5 10,13.5 10,31.5" stroke="#000000" stroke-width="2" /><path d="M77.5,92.5 c-19.121,-4.923 -38.068,-8.021 -57.5,-9.5" fill="none" stroke="#000000" stroke-width="2" /><path d="M71,75.5 c-12.078,-4.31 -24.067,-7.618 -36.5,-10" fill="none" stroke="#000000" stroke-width="2" /><path d="M36,53 c-7.16,10.19 -17.365,18.873 -31,26" fill="none" stroke="#000000" stroke-width="2" /><path d="M64,53 c7.16,10.19 17.365,18.873 31,26" fill="none" stroke="#000000" stroke-width="2" /></svg>