<?xml version='1.0' encoding='utf-8'?>
<svg xmlns="http://www.w3.org/2000/svg" height="100px" version="1.0" viewBox="0 0 100 100" width="100px" x="0px" y="0px">
<line fill="none" stroke="#000000" stroke-width="2" x1="26.5" x2="26.5" y1="94" y2="51.5" /><line fill="none" stroke="#000000" stroke-width="2" x1="91" x2="48" y1="30.5" y2="30.5" /><line fill="none" stroke="#000000" stroke-width="2" x1="50.5" x2="85.5" y1="67.5" y2="67.5" /><line fill="none" stroke="#000000" stroke-width="2" x1="45" x2="85" y1="49" y2="49" /><polyline fill="none" points="45,60.5 86,60.5 86,38.5 44,38.5 44,61.5" stroke="#000000" stroke-width="2" /><path d="M35,40 c-4.476,8.263 -11.043,15.43 -20,21.5" fill="none" stroke="#000000" stroke-width="2" /><path d="M36,21.5 c-4.493,7.497 -11.08,13.993 -20,19.5" fill="none" stroke="#000000" stroke-width="2" /><path d="M36.5,47.5 c6.425,-6.898 11.938,-16.479 15,-26" fill="none" stroke="#000000" stroke-width="2" /><path d="M36.5,78 c7.773,-3.778 16.137,-11.476 19.5,-17.5" fill="none" stroke="#000000" stroke-width="2" /><path d="M84.695,67.906 c-8.428,11.439 -25.638,20.493 -49.695,24.094" fill="none" stroke="#000000" stroke-width="2" /><path d="M92,92 c-17.897,-4.558 -33.856,-13.472 -43,-23.5" fill="none" stroke="#000000" stroke-width="2" /><path d="M5,91 c5.376,-14.052 8,-29.832 8,-51 v-31.0 h76.0 v12.5 h-75.0" fill="none" stroke="#000000" stroke-width="2" /></svg>