<?xml version='1.0' encoding='utf-8'?>
<svg xmlns="http://www.w3.org/2000/svg" height="100px" version="1.0" viewBox="0 0 100 100" width="100px" x="0px" y="0px">
<line fill="none" stroke="#000000" stroke-width="2" x1="92.5" x2="7.5" y1="37" y2="37" /><line fill="none" stroke="#000000" stroke-width="2" x1="11.5" x2="88.5" y1="18" y2="18" /><line fill="none" stroke="#000000" stroke-width="2" x1="33.5" x2="33.5" y1="36" y2="5" /><line fill="none" stroke="#000000" stroke-width="2" x1="66.5" x2="66.5" y1="36" y2="5" /><polyline fill="none" points="71,74.5 71,50 29,50" stroke="#000000" stroke-width="2" /><path d="M71,67.5 h-48.0 v15.5 c0,7.414 0.303,7.704 9,8.1 c5.96,0.273 10.64,0.4 16.5,0.4 c5.753,0 11.683,-0.146 18,-0.4 c14.315,-0.578 14.771,-0.953 17,-17.1" fill="none" stroke="#000000" stroke-width="2" /><path d="M4.5,67 c11.637,-7.233 23.199,-19.258 29,-30" fill="none" stroke="#000000" stroke-width="2" /><path d="M95.5,67 c-11.637,-7.233 -23.199,-19.258 -29,-30" fill="none" stroke="#000000" stroke-width="2" /></svg>