<?xml version='1.0' encoding='utf-8'?>
<svg xmlns="http://www.w3.org/2000/svg" height="100px" version="1.0" viewBox="0 0 100 100" width="100px" x="0px" y="0px">
<line fill="none" stroke="#000000" stroke-width="2" x1="93" x2="7" y1="70" y2="70" /><line fill="none" stroke="#000000" stroke-width="2" x1="11" x2="88" y1="53" y2="53" /><line fill="none" stroke="#000000" stroke-width="2" x1="33" x2="33" y1="69" y2="41" /><line fill="none" stroke="#000000" stroke-width="2" x1="67" x2="67" y1="69" y2="41" /><path d="M10,92 c13.08,-4.65 24.369,-11.01 31,-17" fill="none" stroke="#000000" stroke-width="2" /><path d="M90,93 c-7.982,-5.892 -19.018,-12.149 -31,-17.5" fill="none" stroke="#000000" stroke-width="2" /><path d="M47,31 c-1.288,9.184 -1.704,9.496 -9.5,9.8 c-3.561,0.138 -7.137,0.2 -10.5,0.2 c-3.125,0 -6.08,-0.054 -9.5,-0.2 c-4.625,-0.196 -5,-0.54 -5,-4.479 V24.5 h32.5 v-14.0 h-34.0" fill="none" stroke="#000000" stroke-width="2" /><path d="M89,31 c-1.288,9.184 -1.704,9.496 -9.5,9.8 c-3.561,0.138 -7.137,0.2 -10.5,0.2 c-3.125,0 -6.08,-0.054 -9.5,-0.2 c-4.625,-0.196 -5,-0.54 -5,-4.479 V24.5 h32.5 v-14.0 h-34.0" fill="none" stroke="#000000" stroke-width="2" /></svg>