<?xml version='1.0' encoding='utf-8'?>
<svg xmlns="http://www.w3.org/2000/svg" height="100px" version="1.0" viewBox="0 0 100 100" width="100px" x="0px" y="0px">
<path d="M8.5,11 h37.0 v18.0 H13.0 c-0.994,9.295 -2.765,18.24 -5,26" fill="none" stroke="#000000" stroke-width="2" /><path d="M10,46.5 h36.0 c-3.117,42.262 -4.774,44 -11.5,44 c-2.797,0 -10.746,-0.451 -16.5,-1" fill="none" stroke="#000000" stroke-width="2" /><path d="M8.5,82.5 c11.582,-3.587 22.004,-8.646 30.5,-14.5" fill="none" stroke="#000000" stroke-width="2" /><path d="M30.5,64.5 c-5.744,-3.566 -11.559,-6.833 -17,-9.5" fill="none" stroke="#000000" stroke-width="2" /><path d="M51.5,11 h38.5 v18.0 h-34.0 c-0.994,9.295 -2.765,18.24 -5,26" fill="none" stroke="#000000" stroke-width="2" /><path d="M53,46.5 h37.5 c-3.117,42.262 -4.774,44 -11.5,44 c-3.052,0 -11.724,-0.451 -18,-1" fill="none" stroke="#000000" stroke-width="2" /><path d="M51,82.5 c11.961,-3.587 22.726,-8.646 31.5,-14.5" fill="none" stroke="#000000" stroke-width="2" /><path d="M74.5,64.5 c-6.083,-3.566 -12.239,-6.833 -18,-9.5" fill="none" stroke="#000000" stroke-width="2" /></svg>