<?xml version='1.0' encoding='utf-8'?>
<svg xmlns="http://www.w3.org/2000/svg" height="100px" version="1.0" viewBox="0 0 100 100" width="100px" x="0px" y="0px">
<line fill="none" stroke="#000000" stroke-width="2" x1="66" x2="66" y1="87.5" y2="24.5" /><polyline fill="none" points="42,61.5 90.5,61.5 90.5,36.5 41,36.5 41,67.5" stroke="#000000" stroke-width="2" /><path d="M44.5,25.5 c4.862,-6.59 9.717,-13.694 14,-20.5" fill="none" stroke="#000000" stroke-width="2" /><path d="M94.5,93 c-3.967,-7.272 -9.404,-16.59 -14,-24" fill="none" stroke="#000000" stroke-width="2" /><path d="M36.5,90 c16.035,-0.589 34.808,-2.503 53,-5.5" fill="none" stroke="#000000" stroke-width="2" /><path d="M94.5,31 c-5.1,-7.272 -12.091,-16.59 -18,-24" fill="none" stroke="#000000" stroke-width="2" /><path d="M37.5,26 c16.146,-0.391 34.201,-1.651 51,-3.5" fill="none" stroke="#000000" stroke-width="2" /><path d="M8,11 h24.5 v23.0 H11.0 c-0.637,11.548 -1.652,22.362 -3,32" fill="none" stroke="#000000" stroke-width="2" /><path d="M9.5,56.5 h23.0 c-2.152,33.056 -3.082,34 -7.5,34 c-2.577,0 -10.963,-0.507 -16,-1" fill="none" stroke="#000000" stroke-width="2" /></svg>