<?xml version='1.0' encoding='utf-8'?>
<svg xmlns="http://www.w3.org/2000/svg" height="100px" version="1.0" viewBox="0 0 100 100" width="100px" x="0px" y="0px">
<line fill="none" stroke="#000000" stroke-width="2" x1="11" x2="90" y1="15" y2="15" /><line fill="none" stroke="#000000" stroke-width="2" x1="50" x2="50" y1="14" y2="3" /><path d="M63,34 c2.992,-5.407 5.789,-12.052 8,-19" fill="none" stroke="#000000" stroke-width="2" /><path d="M36,34 c-1.731,-6.299 -3.781,-12.867 -6,-19" fill="none" stroke="#000000" stroke-width="2" /><path d="M5,92 c5.112,-11.15 8,-24.631 8,-39.5 V34.0 h79.0" fill="none" stroke="#000000" stroke-width="2" /><path d="M25,53 c24.729,-2.785 42.651,-7.901 54,-14" fill="none" stroke="#000000" stroke-width="2" /><path d="M24,72 c28.017,-2.687 47.561,-8.324 61,-16" fill="none" stroke="#000000" stroke-width="2" /><path d="M23,91 c31.305,-2.589 52.47,-8.747 68,-18" fill="none" stroke="#000000" stroke-width="2" /></svg>