<?xml version='1.0' encoding='utf-8'?>
<svg xmlns="http://www.w3.org/2000/svg" height="100px" version="1.0" viewBox="0 0 100 100" width="100px" x="0px" y="0px">
<line fill="none" stroke="#000000" stroke-width="2" x1="17" x2="17" y1="94" y2="42" /><line fill="none" stroke="#000000" stroke-width="2" x1="45" x2="87.5" y1="58" y2="58" /><line fill="none" stroke="#000000" stroke-width="2" x1="92" x2="29" y1="46" y2="48.5" /><path d="M26.5,28 c-5.266,10.459 -12.938,19.355 -23.5,27" fill="none" stroke="#000000" stroke-width="2" /><path d="M27.5,6 c-5.256,8.887 -13.006,16.485 -23.5,23" fill="none" stroke="#000000" stroke-width="2" /><path d="M28.5,71.5 c9.952,-5.529 20.299,-15.823 24,-23.5" fill="none" stroke="#000000" stroke-width="2" /><path d="M86.658,58.46 c-10.188,15.924 -31.084,28.527 -60.158,33.54" fill="none" stroke="#000000" stroke-width="2" /><path d="M95,92 c-21.379,-6.765 -40.028,-19.067 -51,-33" fill="none" stroke="#000000" stroke-width="2" /><path d="M54.5,38.5 c-5.931,-6.081 -13.502,-13.655 -20,-20" fill="none" stroke="#000000" stroke-width="2" /><path d="M97,54 c-4.364,-7.176 -10.77,-16.813 -16,-24" fill="none" stroke="#000000" stroke-width="2" /><path d="M41,48 c16.303,-10.83 30.582,-22.04 43.5,-34" fill="none" stroke="#000000" stroke-width="2" /><path d="M41.5,25.5 c8.492,-6.427 15.94,-12.726 23,-19.5" fill="none" stroke="#000000" stroke-width="2" /></svg>