<?xml version='1.0' encoding='utf-8'?>
<svg xmlns="http://www.w3.org/2000/svg" height="100px" version="1.0" viewBox="0 0 100 100" width="100px" x="0px" y="0px">
<line fill="none" stroke="#000000" stroke-width="2" x1="18" x2="18" y1="94" y2="40" /><line fill="none" stroke="#000000" stroke-width="2" x1="94" x2="42" y1="14" y2="14" /><line fill="none" stroke="#000000" stroke-width="2" x1="41" x2="88" y1="37.5" y2="37.5" /><line fill="none" stroke="#000000" stroke-width="2" x1="46.5" x2="87.5" y1="61" y2="61" /><polyline fill="none" points="41,52 89,52 89,24 40,24 40,53" stroke="#000000" stroke-width="2" /><path d="M27.5,26 c-5.266,10.459 -12.938,19.355 -23.5,27" fill="none" stroke="#000000" stroke-width="2" /><path d="M28.5,5 c-5.256,8.887 -13.006,16.485 -23.5,23" fill="none" stroke="#000000" stroke-width="2" /><path d="M28.5,35 c7.559,-8.317 13.897,-19.521 17.5,-31" fill="none" stroke="#000000" stroke-width="2" /><path d="M30,73 c9.915,-4.911 19.99,-14.234 23.5,-21" fill="none" stroke="#000000" stroke-width="2" /><path d="M86.677,61.434 c-9.962,14.512 -30.242,25.998 -58.677,30.566" fill="none" stroke="#000000" stroke-width="2" /><path d="M95,92 c-20.959,-6.163 -39.243,-17.306 -50,-30" fill="none" stroke="#000000" stroke-width="2" /></svg>