<?xml version='1.0' encoding='utf-8'?>
<svg xmlns="http://www.w3.org/2000/svg" height="100px" version="1.0" viewBox="0 0 100 100" width="100px" x="0px" y="0px">
<line fill="none" stroke="#000000" stroke-width="2" x1="93" x2="7" y1="33" y2="33" /><path d="M14,15 c25,0 49.088,-2.359 72,-7" fill="none" stroke="#000000" stroke-width="2" /><path d="M6,65 c24.037,-11.946 38.883,-29.247 44,-52" fill="none" stroke="#000000" stroke-width="2" /><path d="M94,65 c-15.204,-8.331 -26.639,-19.113 -34,-32" fill="none" stroke="#000000" stroke-width="2" /><path d="M48.5,47 v40.5 c0,4.221 -0.269,4.5 -5.5,4.5 c-1.527,0 -5.535,-0.147 -11,-0.5" fill="none" stroke="#000000" stroke-width="2" /><path d="M15,88 c7.133,-7.56 13.036,-17.28 16.5,-27.5" fill="none" stroke="#000000" stroke-width="2" /><path d="M73.5,89 c-3.783,-9.036 -8.66,-18.171 -14.5,-27" fill="none" stroke="#000000" stroke-width="2" /><path d="M93.5,87 c-5.227,-8.526 -11.783,-17.396 -19,-25.5" fill="none" stroke="#000000" stroke-width="2" /></svg>