<?xml version='1.0' encoding='utf-8'?>
<svg xmlns="http://www.w3.org/2000/svg" height="100px" version="1.0" viewBox="0 0 100 100" width="100px" x="0px" y="0px">
<line fill="none" stroke="#000000" stroke-width="2" x1="50" x2="50" y1="11.5" y2="49.5" /><line fill="none" stroke="#000000" stroke-width="2" x1="18" x2="82" y1="30" y2="30" /><polyline fill="none" points="18,50.5 83,50.5 83,10.5 17,10.5 17,51.5" stroke="#000000" stroke-width="2" /><path d="M32.5,58.5 v21.0 c0,10.571 0.292,10.911 7,11.5 c3.618,0.317 8.079,0.5 12.5,0.5 c4.34,0 8.638,-0.161 12.5,-0.5 c11.145,-0.978 11.313,-1.124 13,-18" fill="none" stroke="#000000" stroke-width="2" /><path d="M5.5,87.5 c6.062,-7.385 11.077,-16.951 14,-27" fill="none" stroke="#000000" stroke-width="2" /><path d="M62,76.5 c-4.591,-6.125 -9.922,-12.167 -16,-18" fill="none" stroke="#000000" stroke-width="2" /><path d="M94.5,88 c-4.006,-9.688 -9.154,-19.688 -15,-29" fill="none" stroke="#000000" stroke-width="2" /></svg>