<?xml version='1.0' encoding='utf-8'?>
<svg xmlns="http://www.w3.org/2000/svg" height="100px" version="1.0" viewBox="0 0 100 100" width="100px" x="0px" y="0px">
<line fill="none" stroke="#000000" stroke-width="2" x1="91" x2="9" y1="10.5" y2="10.5" /><line fill="none" stroke="#000000" stroke-width="2" x1="62" x2="62" y1="10.5" y2="57.5" /><line fill="none" stroke="#000000" stroke-width="2" x1="38" x2="38" y1="11.5" y2="58.5" /><line fill="none" stroke="#000000" stroke-width="2" x1="8" x2="92" y1="58.5" y2="58.5" /><polyline fill="none" points="16,46 16,22.5 84,22.5 84,45 17,45" stroke="#000000" stroke-width="2" /><path d="M32.5,65 v17.0 c0,8.591 0.26,8.894 7,9.5 c3.613,0.324 8.079,0.5 12.5,0.5 c4.34,0 8.642,-0.174 12.5,-0.5 c11.141,-0.942 11.316,-1.116 13,-15" fill="none" stroke="#000000" stroke-width="2" /><path d="M5.5,89 c6.029,-6.118 11.077,-14.217 14,-22.5" fill="none" stroke="#000000" stroke-width="2" /><path d="M94.5,89.5 c-4.006,-7.985 -9.168,-16.313 -15,-24" fill="none" stroke="#000000" stroke-width="2" /><path d="M62,79.5 c-4.591,-5.048 -9.98,-10.118 -16,-15" fill="none" stroke="#000000" stroke-width="2" /></svg>