<?xml version='1.0' encoding='utf-8'?>
<svg xmlns="http://www.w3.org/2000/svg" height="100px" version="1.0" viewBox="0 0 100 100" width="100px" x="0px" y="0px">
<line fill="none" stroke="#000000" stroke-width="2" x1="32" x2="94" y1="39.5" y2="39.5" /><line fill="none" stroke="#000000" stroke-width="2" x1="92" x2="33" y1="13.5" y2="13.5" /><line fill="none" stroke="#000000" stroke-width="2" x1="88" x2="37" y1="26.5" y2="26.5" /><line fill="none" stroke="#000000" stroke-width="2" x1="63" x2="63" y1="39.5" y2="4" /><line fill="none" stroke="#000000" stroke-width="2" x1="38.5" x2="87.5" y1="76" y2="76" /><line fill="none" stroke="#000000" stroke-width="2" x1="38.5" x2="87.5" y1="63" y2="63" /><line fill="none" stroke="#000000" stroke-width="2" x1="17" x2="17" y1="94" y2="6" /><path d="M37.5,93 v-43.0 h50.0 v36.96 c0,4.303 -0.299,4.54 -7,4.54 c-2.265,0 -5.941,-0.159 -12.5,-0.5" fill="none" stroke="#000000" stroke-width="2" /><path d="M4,58 c2.624,-10.247 4.357,-21.376 5,-32" fill="none" stroke="#000000" stroke-width="2" /><path d="M27,46 c-0.573,-6.952 -1.604,-14.611 -3,-22" fill="none" stroke="#000000" stroke-width="2" /></svg>