<?xml version='1.0' encoding='utf-8'?>
<svg xmlns="http://www.w3.org/2000/svg" height="100px" version="1.0" viewBox="0 0 100 100" width="100px" x="0px" y="0px">
<line fill="none" stroke="#000000" stroke-width="2" x1="7" x2="93" y1="15" y2="15" /><polyline fill="none" points="15,44 47,44 47,24 14,24 14,45" stroke="#000000" stroke-width="2" /><path d="M84,22 c-6.289,18.945 -17.102,31.634 -32,39" fill="none" stroke="#000000" stroke-width="2" /><path d="M60,5 c0,39.43 21.559,56 26,56 c2.407,0 5.804,-1.932 8,-17" fill="none" stroke="#000000" stroke-width="2" /><path d="M68,5 c6.063,1.719 12.305,3.808 18,6" fill="none" stroke="#000000" stroke-width="2" /><path d="M9,58 c18.565,-2.325 34.564,-5.562 44,-8.5" fill="none" stroke="#000000" stroke-width="2" /><path d="M32.5,66 v14.0 c0,10.571 0.292,10.911 7,11.5 c3.618,0.317 8.079,0.5 12.5,0.5 c4.34,0 8.638,-0.161 12.5,-0.5 c11.35,-0.996 11.514,-1.125 13,-16" fill="none" stroke="#000000" stroke-width="2" /><path d="M5.5,90 c6.062,-6.017 11.077,-13.812 14,-22" fill="none" stroke="#000000" stroke-width="2" /><path d="M94.5,89.5 c-4.006,-8.018 -9.154,-16.294 -15,-24.001" fill="none" stroke="#000000" stroke-width="2" /><path d="M63,79 c-5.825,-4.966 -12.691,-9.811 -20,-14" fill="none" stroke="#000000" stroke-width="2" /></svg>