<?xml version='1.0' encoding='utf-8'?>
<svg xmlns="http://www.w3.org/2000/svg" height="100px" version="1.0" viewBox="0 0 100 100" width="100px" x="0px" y="0px">
<line fill="none" stroke="#000000" stroke-width="2" x1="29.5" x2="77" y1="60" y2="60" /><polyline fill="none" points="90,44.5 90,27.5 10,27.5 10,45.5" stroke="#000000" stroke-width="2" /><path d="M12.5,13 c26.042,0 51.093,-1.89 75,-5.5" fill="none" stroke="#000000" stroke-width="2" /><path d="M31,27.5 c-2.783,-5.236 -5.894,-10.218 -9,-14.5" fill="none" stroke="#000000" stroke-width="2" /><path d="M53,27.5 c-2.773,-5.55 -5.91,-10.955 -9,-15.5" fill="none" stroke="#000000" stroke-width="2" /><path d="M69,27.5 c3.491,-5.151 6.621,-10.566 9,-15.5" fill="none" stroke="#000000" stroke-width="2" /><path d="M8,91.5 c29.968,-4.7 54.725,-16.6 68.268,-31.181" fill="none" stroke="#000000" stroke-width="2" /><path d="M92,91.5 c-25.572,-4.097 -49.002,-14.464 -63,-27" fill="none" stroke="#000000" stroke-width="2" /><path d="M31.5,33.5 v9.5 c0,7.665 0.177,7.867 6,8.2 c3.229,0.186 7.058,0.3 11,0.3 c3.87,0 7.555,-0.103 11,-0.3 c10.129,-0.58 10.674,-0.943 12,-11.2" fill="none" stroke="#000000" stroke-width="2" /><path d="M10,54 c5.406,-4.688 9.783,-10.667 12.5,-17" fill="none" stroke="#000000" stroke-width="2" /><path d="M88.5,54 c-3.571,-6.246 -8.054,-12.773 -13,-19" fill="none" stroke="#000000" stroke-width="2" /><path d="M58.5,42.5 c-5.266,-3.313 -11.482,-6.611 -18,-9.5" fill="none" stroke="#000000" stroke-width="2" /><path d="M8,74 c12.773,-6.165 23.109,-14.281 29.5,-22.5" fill="none" stroke="#000000" stroke-width="2" /></svg>