<?xml version='1.0' encoding='utf-8'?>
<svg xmlns="http://www.w3.org/2000/svg" height="100px" version="1.0" viewBox="0 0 100 100" width="100px" x="0px" y="0px">
<line fill="none" stroke="#000000" stroke-width="2" x1="55.5" x2="19.5" y1="25" y2="25" /><polyline fill="none" points="25,54 51,54 51,35 24,35 24,60" stroke="#000000" stroke-width="2" /><path d="M83.5,22 c-6.289,18.945 -17.102,31.634 -32,39" fill="none" stroke="#000000" stroke-width="2" /><path d="M59.5,4 c0,40.43 21.559,57 26,57 c2.407,0 5.804,-1.932 8,-17" fill="none" stroke="#000000" stroke-width="2" /><path d="M67,4 c6.063,1.719 12.305,3.808 18,6" fill="none" stroke="#000000" stroke-width="2" /><path d="M32.5,66.5 v14.0 c0,10.571 0.292,10.911 7,11.5 c3.618,0.317 8.079,0.5 12.5,0.5 c4.34,0 8.638,-0.161 12.5,-0.5 c11.35,-0.996 11.514,-1.125 13,-16" fill="none" stroke="#000000" stroke-width="2" /><path d="M5.5,90.5 c6.062,-6.017 11.077,-13.812 14,-22" fill="none" stroke="#000000" stroke-width="2" /><path d="M94.5,90 c-4.006,-8.018 -9.154,-16.294 -15,-24.001" fill="none" stroke="#000000" stroke-width="2" /><path d="M63,79.5 c-5.825,-4.966 -12.691,-9.811 -20,-14" fill="none" stroke="#000000" stroke-width="2" /><path d="M5.5,65 c5.375,-9.781 8,-20.765 8,-35.5 V14.0 h77.0" fill="none" stroke="#000000" stroke-width="2" /></svg>