<?xml version='1.0' encoding='utf-8'?>
<svg xmlns="http://www.w3.org/2000/svg" height="100px" version="1.0" viewBox="0 0 100 100" width="100px" x="0px" y="0px">
<line fill="none" stroke="#000000" stroke-width="2" x1="66.5" x2="66.5" y1="16" y2="3" /><line fill="none" stroke="#000000" stroke-width="2" x1="36" x2="5" y1="26" y2="26" /><path d="M95,92 c-4.605,-11.451 -11.156,-25.827 -17,-37" fill="none" stroke="#000000" stroke-width="2" /><path d="M42.5,89 c14.436,-0.856 31.611,-3.71 48,-8" fill="none" stroke="#000000" stroke-width="2" /><path d="M51,88.5 c5.196,-18.077 10.575,-39.798 15.5,-62.5" fill="none" stroke="#000000" stroke-width="2" /><path d="M21,6 v77.0 c0,7.683 -0.373,8 -5,8 c-2.246,0 -5.661,-0.149 -10,-0.5" fill="none" stroke="#000000" stroke-width="2" /><path d="M36,50 c-10.727,5.009 -20.715,8.534 -31,11" fill="none" stroke="#000000" stroke-width="2" /><path d="M33.5,92 c6.048,-14.052 9,-29.832 9,-51 v-24.0 h51.5" fill="none" stroke="#000000" stroke-width="2" /></svg>