<?xml version='1.0' encoding='utf-8'?>
<svg xmlns="http://www.w3.org/2000/svg" height="100px" version="1.0" viewBox="0 0 100 100" width="100px" x="0px" y="0px">
<line fill="none" stroke="#000000" stroke-width="2" x1="35.5" x2="95.5" y1="37" y2="37" /><line fill="none" stroke="#000000" stroke-width="2" x1="91.5" x2="40.5" y1="17" y2="17" /><line fill="none" stroke="#000000" stroke-width="2" x1="66" x2="66" y1="37" y2="4" /><line fill="none" stroke="#000000" stroke-width="2" x1="95.5" x2="35.5" y1="54" y2="54" /><line fill="none" stroke="#000000" stroke-width="2" x1="33.5" x2="4.5" y1="26" y2="26" /><path d="M83,37 v45.5 c0,8.474 -0.459,9 -6,9 c-1.902,0 -7.039,-0.18 -13,-0.5" fill="none" stroke="#000000" stroke-width="2" /><path d="M64,81 c-4.961,-6.18 -11.874,-13.175 -19,-19" fill="none" stroke="#000000" stroke-width="2" /><path d="M19.5,6 v77.0 c0,7.683 -0.373,8 -5,8 c-2.246,0 -4.663,-0.119 -9,-0.5" fill="none" stroke="#000000" stroke-width="2" /><path d="M33.5,49 c-10.035,5.009 -19.379,8.534 -29,11" fill="none" stroke="#000000" stroke-width="2" /></svg>