<?xml version='1.0' encoding='utf-8'?>
<svg xmlns="http://www.w3.org/2000/svg" height="100px" version="1.0" viewBox="0 0 100 100" width="100px" x="0px" y="0px">
<line fill="none" stroke="#000000" stroke-width="2" x1="44" x2="88" y1="87" y2="87" /><line fill="none" stroke="#000000" stroke-width="2" x1="44" x2="88" y1="67.5" y2="67.5" /><line fill="none" stroke="#000000" stroke-width="2" x1="37" x2="6" y1="26" y2="26" /><polyline fill="none" points="89,93 89,49 43,49 43,93" stroke="#000000" stroke-width="2" /><path d="M42,7 v26.0 c0,3.614 0.495,4.044 9,4.3 c4.156,0.125 8.468,0.2 13,0.2 c4.693,0 8.822,-0.075 13,-0.2 c13.841,-0.414 14.456,-0.943 15.5,-15.3" fill="none" stroke="#000000" stroke-width="2" /><path d="M42,21 c16.732,-2.271 32.397,-5.435 49.5,-10" fill="none" stroke="#000000" stroke-width="2" /><path d="M22,6 v77.0 c0,7.683 -0.373,8 -5,8 c-2.246,0 -5.661,-0.149 -10,-0.5" fill="none" stroke="#000000" stroke-width="2" /><path d="M37,50 c-10.727,5.009 -20.715,8.534 -31,11" fill="none" stroke="#000000" stroke-width="2" /></svg>