<?xml version='1.0' encoding='utf-8'?>
<svg xmlns="http://www.w3.org/2000/svg" height="100px" version="1.0" viewBox="0 0 100 100" width="100px" x="0px" y="0px">
<line fill="none" stroke="#000000" stroke-width="2" x1="63.5" x2="63.5" y1="15" y2="4" /><line fill="none" stroke="#000000" stroke-width="2" x1="33" x2="94" y1="90" y2="90" /><line fill="none" stroke="#000000" stroke-width="2" x1="89.5" x2="38.5" y1="57" y2="57" /><line fill="none" stroke="#000000" stroke-width="2" x1="63.5" x2="63.5" y1="90" y2="57" /><line fill="none" stroke="#000000" stroke-width="2" x1="32" x2="5" y1="26" y2="26" /><polyline fill="none" points="92,30 92,15 36.5,15 36.5,33" stroke="#000000" stroke-width="2" /><path d="M69.5,16 v25.5 c0,3.86 0.718,4.563 4,4.8 c1.652,0.119 3.603,0.2 5.5,0.2 c1.839,0 3.717,-0.069 5.5,-0.2 c5.438,-0.396 5.731,-0.719 6.5,-10.8" fill="none" stroke="#000000" stroke-width="2" /><path d="M36,50.035 c14.373,-6.367 23,-18.888 23,-34.035" fill="none" stroke="#000000" stroke-width="2" /><path d="M19,6 v78.0 c0,7.575 -0.404,8 -4.5,8 c-1.832,0 -4.633,-0.139 -8.5,-0.5" fill="none" stroke="#000000" stroke-width="2" /><path d="M32,55 c-9.343,5.009 -18.042,8.534 -27,11" fill="none" stroke="#000000" stroke-width="2" /></svg>