<?xml version='1.0' encoding='utf-8'?>
<svg xmlns="http://www.w3.org/2000/svg" height="100px" version="1.0" viewBox="0 0 100 100" width="100px" x="0px" y="0px">
<line fill="none" stroke="#000000" stroke-width="2" x1="61.5" x2="97" y1="21" y2="21" /><line fill="none" stroke="#000000" stroke-width="2" x1="4" x2="52" y1="34" y2="34" /><line fill="none" stroke="#000000" stroke-width="2" x1="46" x2="7.5" y1="15" y2="15" /><line fill="none" stroke="#000000" stroke-width="2" x1="28" x2="28" y1="34" y2="4.5" /><line fill="none" stroke="#000000" stroke-width="2" x1="47" x2="16.5" y1="49.5" y2="49.5" /><path d="M4.5,70 c22.656,-0.576 41.113,-1.733 52,-3" fill="none" stroke="#000000" stroke-width="2" /><path d="M48,91 c26.635,-13.233 38.682,-30.825 43,-70" fill="none" stroke="#000000" stroke-width="2" /><path d="M51,49 c6.023,-11.971 11.155,-28.03 14,-44" fill="none" stroke="#000000" stroke-width="2" /><path d="M31,61.5 v21.0 c0,7.493 -0.55,8 -5.5,8 c-3.023,0 -6.738,-0.169 -11,-0.5" fill="none" stroke="#000000" stroke-width="2" /><path d="M46.27,49.816 c-4.995,5.336 -9.08,8.799 -15.27,12.684" fill="none" stroke="#000000" stroke-width="2" /><path d="M96,91 c-20.446,-13.722 -29.813,-31.13 -32,-63" fill="none" stroke="#000000" stroke-width="2" /><path d="M4,57 c21.284,-10.906 40.52,-28.652 52,-48" fill="none" stroke="#000000" stroke-width="2" /></svg>