<?xml version='1.0' encoding='utf-8'?>
<svg xmlns="http://www.w3.org/2000/svg" height="100px" version="1.0" viewBox="0 0 100 100" width="100px" x="0px" y="0px">
<line fill="none" stroke="#000000" stroke-width="2" x1="60.5" x2="96" y1="21" y2="21" /><line fill="none" stroke="#000000" stroke-width="2" x1="30" x2="30" y1="48.5" y2="5.5" /><line fill="none" stroke="#000000" stroke-width="2" x1="53" x2="6.5" y1="26.5" y2="26.5" /><line fill="none" stroke="#000000" stroke-width="2" x1="54" x2="6" y1="56.5" y2="56.5" /><path d="M50,91 c23.994,-15.312 34.34,-32.429 38,-70" fill="none" stroke="#000000" stroke-width="2" /><path d="M95,91 c-19.975,-14.23 -29.11,-30.512 -32.5,-63" fill="none" stroke="#000000" stroke-width="2" /><path d="M50,49 c6.023,-11.971 11.155,-28.03 14,-44" fill="none" stroke="#000000" stroke-width="2" /><path d="M6.5,49.5 c11.02,-7.336 18.412,-14.911 23,-23" fill="none" stroke="#000000" stroke-width="2" /><path d="M20,22.5 c-2.967,-4.952 -6.339,-9.911 -9.5,-14" fill="none" stroke="#000000" stroke-width="2" /><path d="M40,22.5 c3.762,-4.406 7.254,-9.569 9.5,-14" fill="none" stroke="#000000" stroke-width="2" /><path d="M7,91.5 c18.455,-4.16 33.566,-18.791 36.5,-35" fill="none" stroke="#000000" stroke-width="2" /><path d="M25.5,47.5 c-3.501,9.674 -7.774,17.963 -13,25.5 c13.39,2.401 24.118,5.747 37,11.5" fill="none" stroke="#000000" stroke-width="2" /><path d="M47,43.5 c-6.562,-7.479 -11.666,-12.712 -16.5,-17" fill="none" stroke="#000000" stroke-width="2" /></svg>