<?xml version='1.0' encoding='utf-8'?>
<svg xmlns="http://www.w3.org/2000/svg" height="100px" version="1.0" viewBox="0 0 100 100" width="100px" x="0px" y="0px">
<line fill="none" stroke="#000000" stroke-width="2" x1="57" x2="96" y1="38" y2="38" /><line fill="none" stroke="#000000" stroke-width="2" x1="81.5" x2="81.5" y1="92" y2="38" /><line fill="none" stroke="#000000" stroke-width="2" x1="28" x2="28" y1="16.5" y2="4.5" /><line fill="none" stroke="#000000" stroke-width="2" x1="28" x2="28" y1="93" y2="40.5" /><line fill="none" stroke="#000000" stroke-width="2" x1="50.5" x2="6" y1="54.5" y2="54.5" /><line fill="none" stroke="#000000" stroke-width="2" x1="51.5" x2="7" y1="16.5" y2="16.5" /><line fill="none" stroke="#000000" stroke-width="2" x1="51.5" x2="6" y1="40.5" y2="40.5" /><path d="M57.078,14.997 c14.511,-1.145 26.233,-3.555 35.422,-6.997" fill="none" stroke="#000000" stroke-width="2" /><path d="M46,90.5 c8.725,-14.665 12,-30.507 12,-76.5" fill="none" stroke="#000000" stroke-width="2" /><path d="M34.5,40.5 c3.256,-6.845 6.053,-15.088 8,-24" fill="none" stroke="#000000" stroke-width="2" /><path d="M20,40.5 c-1.642,-7.989 -3.695,-16.294 -6,-24" fill="none" stroke="#000000" stroke-width="2" /><path d="M5,82 c10.611,-8.779 18.019,-18.145 22.5,-28" fill="none" stroke="#000000" stroke-width="2" /><path d="M47,75 c-4.658,-5.947 -11.041,-12.924 -18.5,-20" fill="none" stroke="#000000" stroke-width="2" /></svg>