<?xml version='1.0' encoding='utf-8'?>
<svg xmlns="http://www.w3.org/2000/svg" height="100px" version="1.0" viewBox="0 0 100 100" width="100px" x="0px" y="0px">
<line fill="none" stroke="#000000" stroke-width="2" x1="21" x2="79" y1="23" y2="23" /><line fill="none" stroke="#000000" stroke-width="2" x1="7" x2="93" y1="46.5" y2="46.5" /><polyline fill="none" points="21,37 80,37 80,10 20,10 20,38" stroke="#000000" stroke-width="2" /><path d="M7,74.5 c11.826,-6.465 25.035,-18.537 31,-28" fill="none" stroke="#000000" stroke-width="2" /><path d="M42,93 c11.66,-7.219 24.551,-23.232 29,-36" fill="none" stroke="#000000" stroke-width="2" /><path d="M15.5,90 c13.593,-6.876 29.008,-21.64 35,-33" fill="none" stroke="#000000" stroke-width="2" /><path d="M29.5,57 H85.0 c0,27.182 -4.353,34 -11,34 c-3.276,0 -7.634,-0.163 -12,-0.5" fill="none" stroke="#000000" stroke-width="2" /></svg>