<?xml version='1.0' encoding='utf-8'?>
<svg xmlns="http://www.w3.org/2000/svg" height="100px" version="1.0" viewBox="0 0 100 100" width="100px" x="0px" y="0px">
<line fill="none" stroke="#000000" stroke-width="2" x1="11" x2="31" y1="45" y2="45" /><line fill="none" stroke="#000000" stroke-width="2" x1="43" x2="88" y1="87" y2="87" /><line fill="none" stroke="#000000" stroke-width="2" x1="43" x2="88" y1="68" y2="68" /><line fill="none" stroke="#000000" stroke-width="2" x1="37" x2="94" y1="39" y2="39" /><line fill="none" stroke="#000000" stroke-width="2" x1="38" x2="93" y1="15" y2="15" /><line fill="none" stroke="#000000" stroke-width="2" x1="65.5" x2="65.5" y1="14.5" y2="3" /><polyline fill="none" points="11,83 32,83 32,12 10,12 10,91" stroke="#000000" stroke-width="2" /><polyline fill="none" points="89,93 89,50 42,50 42,93" stroke="#000000" stroke-width="2" /><path d="M74,39 c3.356,-6.718 6.192,-14.943 8,-24" fill="none" stroke="#000000" stroke-width="2" /><path d="M56,39 c-2.078,-8.143 -4.541,-16.101 -7.5,-24" fill="none" stroke="#000000" stroke-width="2" /></svg>