<?xml version='1.0' encoding='utf-8'?>
<svg xmlns="http://www.w3.org/2000/svg" height="100px" version="1.0" viewBox="0 0 100 100" width="100px" x="0px" y="0px">
<line fill="none" stroke="#000000" stroke-width="2" x1="11" x2="29" y1="45" y2="45" /><line fill="none" stroke="#000000" stroke-width="2" x1="36" x2="59.5" y1="23" y2="23" /><line fill="none" stroke="#000000" stroke-width="2" x1="66.5" x2="90" y1="23" y2="23" /><line fill="none" stroke="#000000" stroke-width="2" x1="42" x2="42" y1="49.5" y2="94" /><line fill="none" stroke="#000000" stroke-width="2" x1="92" x2="42.5" y1="49" y2="49" /><line fill="none" stroke="#000000" stroke-width="2" x1="68.5" x2="68.5" y1="88" y2="49" /><line fill="none" stroke="#000000" stroke-width="2" x1="43" x2="94" y1="88" y2="88" /><line fill="none" stroke="#000000" stroke-width="2" x1="42" x2="90" y1="74.5" y2="74.5" /><line fill="none" stroke="#000000" stroke-width="2" x1="42" x2="90" y1="61.5" y2="61.5" /><polyline fill="none" points="11,83 30,83 30,12 10,12 10,91" stroke="#000000" stroke-width="2" /><polyline fill="none" points="35,37.5 60.5,37.5 60.5,10 35,10" stroke="#000000" stroke-width="2" /><polyline fill="none" points="65.5,37.5 91,37.5 91,10 65.5,10" stroke="#000000" stroke-width="2" /><path d="M74,37.5 c-1.629,4.241 -3.602,7.979 -6,11.5" fill="none" stroke="#000000" stroke-width="2" /><path d="M30,63.5 c7.671,-7.431 13.295,-15.469 18,-26" fill="none" stroke="#000000" stroke-width="2" /></svg>