<?xml version='1.0' encoding='utf-8'?>
<svg xmlns="http://www.w3.org/2000/svg" height="100px" version="1.0" viewBox="0 0 100 100" width="100px" x="0px" y="0px">
<line fill="none" stroke="#000000" stroke-width="2" x1="11.5" x2="45.5" y1="47" y2="47" /><line fill="none" stroke="#000000" stroke-width="2" x1="6.5" x2="48.5" y1="77" y2="77" /><line fill="none" stroke="#000000" stroke-width="2" x1="28" x2="28" y1="30" y2="5" /><line fill="none" stroke="#000000" stroke-width="2" x1="28" x2="28" y1="95" y2="65" /><line fill="none" stroke="#000000" stroke-width="2" x1="6.5" x2="49.5" y1="18" y2="18" /><line fill="none" stroke="#000000" stroke-width="2" x1="56.5" x2="88.5" y1="59" y2="59" /><line fill="none" stroke="#000000" stroke-width="2" x1="57.5" x2="88.5" y1="33.5" y2="33.5" /><polyline fill="none" points="11.5,64 46.5,64 46.5,31 10.5,31 10.5,65" stroke="#000000" stroke-width="2" /><path d="M47.5,92.5 c6.149,-10.866 9,-23.313 9,-46.5 v-36.0 h33.0 v73.0 c0,7.674 -0.266,8 -6,8 c-2.166,0 -6.576,-0.155 -13,-0.5" fill="none" stroke="#000000" stroke-width="2" /></svg>