<?xml version='1.0' encoding='utf-8'?>
<svg xmlns="http://www.w3.org/2000/svg" height="100px" version="1.0" viewBox="0 0 100 100" width="100px" x="0px" y="0px">
<line fill="none" stroke="#000000" stroke-width="2" x1="14.5" x2="14.5" y1="6.5" y2="67.5" /><line fill="none" stroke="#000000" stroke-width="2" x1="52" x2="5.5" y1="17.5" y2="17.5" /><line fill="none" stroke="#000000" stroke-width="2" x1="43.5" x2="43.5" y1="67.5" y2="6.5" /><line fill="none" stroke="#000000" stroke-width="2" x1="5" x2="52" y1="68.5" y2="68.5" /><line fill="none" stroke="#000000" stroke-width="2" x1="15.5" x2="43.5" y1="51" y2="51" /><line fill="none" stroke="#000000" stroke-width="2" x1="15.5" x2="43.5" y1="34" y2="34" /><line fill="none" stroke="#000000" stroke-width="2" x1="58" x2="89" y1="59" y2="59" /><line fill="none" stroke="#000000" stroke-width="2" x1="59" x2="89" y1="33.5" y2="33.5" /><path d="M6.5,92.5 c7.133,-5.121 13.354,-11.98 17,-18.5" fill="none" stroke="#000000" stroke-width="2" /><path d="M46,86 c-2.635,-4.064 -6.107,-8.249 -10,-12" fill="none" stroke="#000000" stroke-width="2" /><path d="M49,92.5 c6.149,-10.866 9,-23.313 9,-46.5 v-36.0 h32.0 v73.0 c0,7.674 -0.266,8 -6,8 c-2.166,0 -6.576,-0.155 -13,-0.5" fill="none" stroke="#000000" stroke-width="2" /></svg>