<?xml version='1.0' encoding='utf-8'?>
<svg xmlns="http://www.w3.org/2000/svg" height="100px" version="1.0" viewBox="0 0 100 100" width="100px" x="0px" y="0px">
<line fill="none" stroke="#000000" stroke-width="2" x1="20.5" x2="20.5" y1="94" y2="6" /><line fill="none" stroke="#000000" stroke-width="2" x1="32.5" x2="4.5" y1="25.5" y2="25.5" /><line fill="none" stroke="#000000" stroke-width="2" x1="34" x2="96" y1="18" y2="18" /><line fill="none" stroke="#000000" stroke-width="2" x1="66" x2="66" y1="17" y2="4" /><path d="M3.5,69.5 c7.954,-14.471 13.176,-28.562 16.5,-44.5" fill="none" stroke="#000000" stroke-width="2" /><path d="M33.5,58.5 c-3.983,-10.331 -8.283,-21.329 -12.5,-32" fill="none" stroke="#000000" stroke-width="2" /><path d="M33.5,92 c28.002,-10.083 41.062,-22.307 50,-47" fill="none" stroke="#000000" stroke-width="2" /><path d="M96.5,92 c-26.873,-9.854 -39.062,-21.858 -48,-47" fill="none" stroke="#000000" stroke-width="2" /><path d="M56,23 c-4.236,8.748 -11.152,17.254 -20.5,25" fill="none" stroke="#000000" stroke-width="2" /><path d="M95.5,48.5 c-5.432,-8.309 -12.319,-16.972 -20,-25" fill="none" stroke="#000000" stroke-width="2" /></svg>