<?xml version='1.0' encoding='utf-8'?>
<svg xmlns="http://www.w3.org/2000/svg" height="100px" version="1.0" viewBox="0 0 100 100" width="100px" x="0px" y="0px">
<line fill="none" stroke="#000000" stroke-width="2" x1="46.5" x2="88" y1="29" y2="29" /><line fill="none" stroke="#000000" stroke-width="2" x1="24.5" x2="24.5" y1="94" y2="6" /><line fill="none" stroke="#000000" stroke-width="2" x1="39.5" x2="7" y1="26" y2="26" /><polyline fill="none" points="46.5,49 89,49 89,10.5 45.5,10.5 45.5,89.5" stroke="#000000" stroke-width="2" /><path d="M61.5,49 c5.864,18.978 19.003,34.684 35,42.5" fill="none" stroke="#000000" stroke-width="2" /><path d="M32,91.5 c13.719,-1.968 25.807,-4.552 40,-8.5" fill="none" stroke="#000000" stroke-width="2" /><path d="M73.246,72 c7.556,-5.439 15.311,-13.25 21.5,-21.5" fill="none" stroke="#000000" stroke-width="2" /><path d="M39.5,61 c-4.582,-11.04 -9.738,-22.734 -15,-34" fill="none" stroke="#000000" stroke-width="2" /><path d="M4,73 c9.607,-15.363 16.011,-30.544 20,-47.5" fill="none" stroke="#000000" stroke-width="2" /></svg>