<?xml version='1.0' encoding='utf-8'?>
<svg xmlns="http://www.w3.org/2000/svg" height="100px" version="1.0" viewBox="0 0 100 100" width="100px" x="0px" y="0px">
<line fill="none" stroke="#000000" stroke-width="2" x1="70" x2="70" y1="94" y2="42" /><line fill="none" stroke="#000000" stroke-width="2" x1="94" x2="48" y1="54.5" y2="54.5" /><line fill="none" stroke="#000000" stroke-width="2" x1="25" x2="25" y1="94" y2="42" /><line fill="none" stroke="#000000" stroke-width="2" x1="42" x2="6" y1="54.5" y2="54.5" /><line fill="none" stroke="#000000" stroke-width="2" x1="50" x2="50" y1="47" y2="5" /><line fill="none" stroke="#000000" stroke-width="2" x1="90" x2="10" y1="15.5" y2="15.5" /><path d="M97,83.5 c-12.642,-9.436 -21.268,-19.095 -26.5,-29.5" fill="none" stroke="#000000" stroke-width="2" /><path d="M3,82 c10.328,-8.953 17.211,-18.119 21.5,-28" fill="none" stroke="#000000" stroke-width="2" /><path d="M8,43.5 c19.553,-9.133 32.766,-18.48 41,-28" fill="none" stroke="#000000" stroke-width="2" /><path d="M92,43.5 c-19.553,-9.133 -32.766,-18.48 -41,-28" fill="none" stroke="#000000" stroke-width="2" /><path d="M40,86.5 c13.906,-10.485 23.296,-21.017 29.5,-32.5" fill="none" stroke="#000000" stroke-width="2" /><path d="M43,75 c-4.94,-6.606 -10.969,-13.509 -17.5,-20" fill="none" stroke="#000000" stroke-width="2" /></svg>