<?xml version='1.0' encoding='utf-8'?>
<svg xmlns="http://www.w3.org/2000/svg" height="100px" version="1.0" viewBox="0 0 100 100" width="100px" x="0px" y="0px">
<line fill="none" stroke="#000000" stroke-width="2" x1="19.5" x2="19.5" y1="94" y2="6" /><line fill="none" stroke="#000000" stroke-width="2" x1="31.5" x2="4.5" y1="26" y2="26" /><line fill="none" stroke="#000000" stroke-width="2" x1="83.5" x2="43.5" y1="26" y2="26" /><polyline fill="none" points="38.5,62 38.5,38 88.5,38 88.5,61 39.5,61" stroke="#000000" stroke-width="2" /><path d="M3.5,70 c7.473,-14.471 12.377,-28.562 15.5,-44.5" fill="none" stroke="#000000" stroke-width="2" /><path d="M31.5,59 c-3.664,-10.331 -7.621,-21.329 -11.5,-32" fill="none" stroke="#000000" stroke-width="2" /><path d="M95.5,30 c-12.463,-7.546 -22.241,-15.2 -32,-25 c-9.759,9.8 -19.537,17.454 -32,25" fill="none" stroke="#000000" stroke-width="2" /><path d="M31.5,92 c19.482,-6.688 32,-21.03 32,-35.5 V27.0" fill="none" stroke="#000000" stroke-width="2" /><path d="M95.5,92 c-19.484,-6.689 -32,-21.029 -32,-35.5" fill="none" stroke="#000000" stroke-width="2" /></svg>