<?xml version='1.0' encoding='utf-8'?>
<svg xmlns="http://www.w3.org/2000/svg" height="100px" version="1.0" viewBox="0 0 100 100" width="100px" x="0px" y="0px">
<line fill="none" stroke="#000000" stroke-width="2" x1="92" x2="8" y1="21" y2="21" /><line fill="none" stroke="#000000" stroke-width="2" x1="41" x2="41" y1="21" y2="5" /><line fill="none" stroke="#000000" stroke-width="2" x1="59" x2="59" y1="21" y2="5" /><line fill="none" stroke="#000000" stroke-width="2" x1="50" x2="50" y1="94.5" y2="41" /><line fill="none" stroke="#000000" stroke-width="2" x1="91" x2="9" y1="67.5" y2="67.5" /><line fill="none" stroke="#000000" stroke-width="2" x1="90" x2="10" y1="41" y2="41" /><line fill="none" stroke="#000000" stroke-width="2" x1="86" x2="14" y1="54" y2="54" /><path d="M27.5,21 c-2.782,-5.049 -5.894,-9.873 -9,-14" fill="none" stroke="#000000" stroke-width="2" /><path d="M72.5,21 c3.482,-4.696 6.578,-9.527 9,-14" fill="none" stroke="#000000" stroke-width="2" /><path d="M6,89.5 c20.89,-6.741 34.423,-14.058 43,-22" fill="none" stroke="#000000" stroke-width="2" /><path d="M59.5,41 c3.941,-5.856 7.446,-12.76 10,-20" fill="none" stroke="#000000" stroke-width="2" /><path d="M39.5,41 c-2.526,-6.587 -5.652,-13.563 -9,-20" fill="none" stroke="#000000" stroke-width="2" /><path d="M94,89.5 c-20.891,-6.741 -34.423,-14.058 -43,-22" fill="none" stroke="#000000" stroke-width="2" /></svg>