<?xml version='1.0' encoding='utf-8'?>
<svg xmlns="http://www.w3.org/2000/svg" height="100px" version="1.0" viewBox="0 0 100 100" width="100px" x="0px" y="0px">
<line fill="none" stroke="#000000" stroke-width="2" x1="31.5" x2="68.5" y1="32.5" y2="32.5" /><line fill="none" stroke="#000000" stroke-width="2" x1="92" x2="8" y1="62" y2="62" /><line fill="none" stroke="#000000" stroke-width="2" x1="50" x2="50" y1="94" y2="52.5" /><polyline fill="none" points="31.5,51.5 69.5,51.5 69.5,15.5 30.5,15.5 30.5,52.5" stroke="#000000" stroke-width="2" /><path d="M23.5,26 c-4.729,-4.446 -10.527,-9.237 -17,-14" fill="none" stroke="#000000" stroke-width="2" /><path d="M5.5,53 c8.138,-4.405 14.949,-9.254 20,-14" fill="none" stroke="#000000" stroke-width="2" /><path d="M93.5,12 c-4.729,4.446 -10.527,9.237 -17,14" fill="none" stroke="#000000" stroke-width="2" /><path d="M74.5,39 c8.138,4.405 14.949,9.254 20,14" fill="none" stroke="#000000" stroke-width="2" /><path d="M50,4 c-1.16,4.222 -2.449,7.964 -4,11.5" fill="none" stroke="#000000" stroke-width="2" /><path d="M6,91 c20.882,-9.203 34.523,-18.798 43,-29" fill="none" stroke="#000000" stroke-width="2" /><path d="M94,91 c-20.882,-9.203 -34.523,-18.798 -43,-29" fill="none" stroke="#000000" stroke-width="2" /></svg>