<?xml version='1.0' encoding='utf-8'?>
<svg xmlns="http://www.w3.org/2000/svg" height="100px" version="1.0" viewBox="0 0 100 100" width="100px" x="0px" y="0px">
<line fill="none" stroke="#000000" stroke-width="2" x1="19.5" x2="19.5" y1="94" y2="6" /><line fill="none" stroke="#000000" stroke-width="2" x1="31.5" x2="4.5" y1="26" y2="26" /><line fill="none" stroke="#000000" stroke-width="2" x1="64" x2="64" y1="30" y2="70" /><line fill="none" stroke="#000000" stroke-width="2" x1="38" x2="89.5" y1="54" y2="54" /><line fill="none" stroke="#000000" stroke-width="2" x1="95" x2="33" y1="29" y2="29" /><line fill="none" stroke="#000000" stroke-width="2" x1="35" x2="92" y1="15" y2="15" /><line fill="none" stroke="#000000" stroke-width="2" x1="50.5" x2="50.5" y1="28" y2="5" /><line fill="none" stroke="#000000" stroke-width="2" x1="76" x2="76" y1="28" y2="5" /><polyline fill="none" points="38,71 90.5,71 90.5,38 37,38 37,72" stroke="#000000" stroke-width="2" /><path d="M3.5,70 c7.473,-14.471 12.377,-28.562 15.5,-44.5" fill="none" stroke="#000000" stroke-width="2" /><path d="M31.5,59 c-3.664,-10.331 -7.621,-21.329 -11.5,-32" fill="none" stroke="#000000" stroke-width="2" /><path d="M32.5,92 c10.127,-4.376 18.857,-10.394 24,-16" fill="none" stroke="#000000" stroke-width="2" /><path d="M94,93 c-5.906,-5.556 -14.106,-11.501 -23,-16.5" fill="none" stroke="#000000" stroke-width="2" /></svg>