<?xml version='1.0' encoding='utf-8'?>
<svg xmlns="http://www.w3.org/2000/svg" height="100px" version="1.0" viewBox="0 0 100 100" width="100px" x="0px" y="0px">
<line fill="none" stroke="#000000" stroke-width="2" x1="18.5" x2="18.5" y1="94" y2="6" /><line fill="none" stroke="#000000" stroke-width="2" x1="30.5" x2="4.5" y1="26" y2="26" /><line fill="none" stroke="#000000" stroke-width="2" x1="95.5" x2="33.5" y1="24.5" y2="24.5" /><polyline fill="none" points="48.5,86 48.5,65 77.5,65 77.5,80 49.5,80" stroke="#000000" stroke-width="2" /><polyline fill="none" points="48.5,49 78.5,49 78.5,35 47.5,35 47.5,50" stroke="#000000" stroke-width="2" /><path d="M3.5,70 c6.991,-14.471 11.579,-28.562 14.5,-44.5" fill="none" stroke="#000000" stroke-width="2" /><path d="M30.5,59 c-3.664,-10.331 -7.621,-21.329 -11.5,-32" fill="none" stroke="#000000" stroke-width="2" /><path d="M75.5,90 c5.605,0.363 9.002,0.5 10.5,0.5 c5.086,0 5.5,-0.673 5.5,-8 V57.0 h-57.0 v35.0" fill="none" stroke="#000000" stroke-width="2" /><path d="M36,13 c18.5,0 37.021,-1.725 54,-5" fill="none" stroke="#000000" stroke-width="2" /><path d="M95.5,44 c-9.82,-3.862 -20.299,-11.368 -27,-19.5" fill="none" stroke="#000000" stroke-width="2" /><path d="M30.5,45 c16.243,-7.007 28.243,-20.179 31,-33" fill="none" stroke="#000000" stroke-width="2" /></svg>