<?xml version='1.0' encoding='utf-8'?>
<svg xmlns="http://www.w3.org/2000/svg" height="100px" version="1.0" viewBox="0 0 100 100" width="100px" x="0px" y="0px">
<line fill="none" stroke="#000000" stroke-width="2" x1="5" x2="55" y1="11" y2="11" /><line fill="none" stroke="#000000" stroke-width="2" x1="5" x2="55" y1="52" y2="52" /><line fill="none" stroke="#000000" stroke-width="2" x1="61.5" x2="95" y1="18" y2="18" /><polyline fill="none" points="13,38.5 13,19.5 35,19.5 35,37.5 14,37.5" stroke="#000000" stroke-width="2" /><polyline fill="none" points="13,87.5 13,60.5 35,60.5 35,79.5 14,79.5" stroke="#000000" stroke-width="2" /><path d="M45,11 v26.0 c0,7.58 -0.441,8 -5,8 c-1.682,0 -5.013,-0.166 -10,-0.5" fill="none" stroke="#000000" stroke-width="2" /><path d="M45,52 v30.0 c0,7.472 -0.541,8 -5.5,8 c-1.793,0 -5.18,-0.166 -10.5,-0.5" fill="none" stroke="#000000" stroke-width="2" /><path d="M49,90 c12.492,-6.64 23.5,-28.324 23.5,-48 v-16.0" fill="none" stroke="#000000" stroke-width="2" /><path d="M96,90 c-12.49,-6.64 -23.5,-28.324 -23.5,-48" fill="none" stroke="#000000" stroke-width="2" /><path d="M50.5,45 c6.293,-11.127 11.08,-24.556 14,-40" fill="none" stroke="#000000" stroke-width="2" /><path d="M86,44.5 c3.469,-7.408 6.155,-15.891 8.022,-25.688" fill="none" stroke="#000000" stroke-width="2" /></svg>