<?xml version='1.0' encoding='utf-8'?>
<svg xmlns="http://www.w3.org/2000/svg" height="100px" version="1.0" viewBox="0 0 100 100" width="100px" x="0px" y="0px">
<line fill="none" stroke="#000000" stroke-width="2" x1="50.5" x2="50.5" y1="3.5" y2="25.5" /><line fill="none" stroke="#000000" stroke-width="2" x1="7" x2="93" y1="25.5" y2="25.5" /><line fill="none" stroke="#000000" stroke-width="2" x1="86" x2="50.5" y1="13" y2="13" /><line fill="none" stroke="#000000" stroke-width="2" x1="26" x2="26" y1="25.5" y2="6.5" /><line fill="none" stroke="#000000" stroke-width="2" x1="50" x2="50" y1="85" y2="29" /><line fill="none" stroke="#000000" stroke-width="2" x1="81" x2="19" y1="53" y2="53" /><line fill="none" stroke="#000000" stroke-width="2" x1="11.5" x2="11.5" y1="30.5" y2="94.5" /><line fill="none" stroke="#000000" stroke-width="2" x1="88.5" x2="88.5" y1="30.5" y2="94.5" /><line fill="none" stroke="#000000" stroke-width="2" x1="11.5" x2="88.5" y1="88.5" y2="88.5" /><path d="M81.5,80.5 c-12.108,-12.121 -21.564,-20.563 -30.5,-27.5" fill="none" stroke="#000000" stroke-width="2" /><path d="M18.5,79.5 c14.037,-7.812 23.963,-16.717 30.5,-26.5" fill="none" stroke="#000000" stroke-width="2" /><path d="M37.5,49.5 c-3.992,-5.657 -8.363,-11.241 -12.5,-16" fill="none" stroke="#000000" stroke-width="2" /><path d="M62.5,49.5 c5.01,-5.089 9.528,-10.915 12.5,-16" fill="none" stroke="#000000" stroke-width="2" /></svg>