<?xml version='1.0' encoding='utf-8'?>
<svg xmlns="http://www.w3.org/2000/svg" height="100px" version="1.0" viewBox="0 0 100 100" width="100px" x="0px" y="0px">
<line fill="none" stroke="#000000" stroke-width="2" x1="13" x2="93" y1="89" y2="89" /><line fill="none" stroke="#000000" stroke-width="2" x1="86" x2="55" y1="67" y2="67" /><line fill="none" stroke="#000000" stroke-width="2" x1="55" x2="55" y1="89" y2="54" /><line fill="none" stroke="#000000" stroke-width="2" x1="31" x2="31" y1="89" y2="62" /><line fill="none" stroke="#000000" stroke-width="2" x1="71.5" x2="71.5" y1="57" y2="14" /><line fill="none" stroke="#000000" stroke-width="2" x1="91" x2="53.5" y1="23.5" y2="23.5" /><line fill="none" stroke="#000000" stroke-width="2" x1="34.5" x2="34.5" y1="57" y2="14" /><line fill="none" stroke="#000000" stroke-width="2" x1="49.5" x2="18.5" y1="23.5" y2="23.5" /><path d="M47.5,50.5 c11.201,-8.718 18.537,-17.344 23.5,-27" fill="none" stroke="#000000" stroke-width="2" /><path d="M93,48.5 c-9.974,-8.108 -16.814,-16.25 -21,-25" fill="none" stroke="#000000" stroke-width="2" /><path d="M17,47 c8.156,-7.644 13.568,-15.191 17,-23.5" fill="none" stroke="#000000" stroke-width="2" /><path d="M49,41 c-4.333,-5.452 -9.449,-11.479 -14.5,-17" fill="none" stroke="#000000" stroke-width="2" /><path d="M5,91 c5.376,-14.052 8,-29.832 8,-51 v-29.0 h80.0" fill="none" stroke="#000000" stroke-width="2" /></svg>