<?xml version='1.0' encoding='utf-8'?>
<svg xmlns="http://www.w3.org/2000/svg" height="100px" version="1.0" viewBox="0 0 100 100" width="100px" x="0px" y="0px">
<line fill="none" stroke="#000000" stroke-width="2" x1="7" x2="93" y1="11.5" y2="11.5" /><line fill="none" stroke="#000000" stroke-width="2" x1="24.5" x2="49.5" y1="31" y2="31" /><path d="M58,12.5 v69.0 c0,7.667 0.463,8.104 6,8.601 c2.916,0.258 5.819,0.399 9,0.399 c3.294,0 6.07,-0.134 9,-0.399 c9.464,-0.861 9.586,-0.975 11,-24.101" fill="none" stroke="#000000" stroke-width="2" /><path d="M6,59.5 c11.665,-12.451 20.227,-29.251 24,-48" fill="none" stroke="#000000" stroke-width="2" /><path d="M48.501,31.952 c-1.309,26.995 -17.796,49.947 -40.001,59.048" fill="none" stroke="#000000" stroke-width="2" /><path d="M40,62 c-5.895,-4.645 -13.008,-9.732 -19.5,-14" fill="none" stroke="#000000" stroke-width="2" /><path d="M58.5,53 c11.016,-4.388 20.609,-10.019 32,-19" fill="none" stroke="#000000" stroke-width="2" /></svg>