<?xml version='1.0' encoding='utf-8'?>
<svg xmlns="http://www.w3.org/2000/svg" height="100px" version="1.0" viewBox="0 0 100 100" width="100px" x="0px" y="0px">
<line fill="none" stroke="#000000" stroke-width="2" x1="7.5" x2="92.5" y1="19.5" y2="19.5" /><path d="M51,4.5 v79.0 c0,7.011 -0.977,8 -7.5,8 c-3.369,0 -8.217,-0.153 -14.5,-0.5" fill="none" stroke="#000000" stroke-width="2" /><path d="M51,26.5 c7.821,22.658 24.248,44.157 43.5,57.5" fill="none" stroke="#000000" stroke-width="2" /><path d="M86,29.5 c-7.109,8.754 -14.655,15.803 -23,21.5" fill="none" stroke="#000000" stroke-width="2" /><path d="M64,4 c6.063,2.864 12.305,6.347 18,10" fill="none" stroke="#000000" stroke-width="2" /><path d="M8.5,81 c14.002,-7.233 25.643,-15.624 34,-24" fill="none" stroke="#000000" stroke-width="2" /><path d="M34,51.5 c-4.896,-6.537 -11.033,-13.725 -18,-21" fill="none" stroke="#000000" stroke-width="2" /></svg>