<?xml version='1.0' encoding='utf-8'?>
<svg xmlns="http://www.w3.org/2000/svg" height="100px" version="1.0" viewBox="0 0 100 100" width="100px" x="0px" y="0px">
<line fill="none" stroke="#000000" stroke-width="2" x1="64.5" x2="64.5" y1="72" y2="5" /><path d="M42,10.5 v72.0 c0,7.398 0.797,8 25,8 c23.901,0 24.104,-0.183 26,-25" fill="none" stroke="#000000" stroke-width="2" /><path d="M27.5,37 l61.5,-17 c0,39 -1.594,42.5 -5,42.5 c-2.127,0 -6.102,-0.191 -10,-0.5" fill="none" stroke="#000000" stroke-width="2" /><path d="M10,91.5 c7.072,-9.315 12.963,-19.819 17,-30.5" fill="none" stroke="#000000" stroke-width="2" /><path d="M27,22.5 c-4.551,-4.456 -9.955,-9.209 -16,-14" fill="none" stroke="#000000" stroke-width="2" /><path d="M23.5,45.5 c-5.014,-4.892 -10.751,-9.858 -17.5,-15" fill="none" stroke="#000000" stroke-width="2" /></svg>