<?xml version='1.0' encoding='utf-8'?>
<svg xmlns="http://www.w3.org/2000/svg" height="100px" version="1.0" viewBox="0 0 100 100" width="100px" x="0px" y="0px">
<line fill="none" stroke="#000000" stroke-width="2" x1="18.5" x2="81.5" y1="31.5" y2="31.5" /><line fill="none" stroke="#000000" stroke-width="2" x1="7" x2="43" y1="58.5" y2="58.5" /><polyline fill="none" points="18.5,49.5 82.5,49.5 82.5,15.5 17.5,15.5 17.5,50.5" stroke="#000000" stroke-width="2" /><path d="M50,4 c-1.16,4.222 -2.449,7.964 -4,11.5" fill="none" stroke="#000000" stroke-width="2" /><path d="M51,50.5 v32.5 c0,7.011 -0.977,8 -7.5,8 c-3.369,0 -8.217,-0.153 -14.5,-0.5" fill="none" stroke="#000000" stroke-width="2" /><path d="M51,50.5 c7.545,15.017 24.248,30.095 44,39.5" fill="none" stroke="#000000" stroke-width="2" /><path d="M92,51.5 c-8.235,7.163 -17.156,12.997 -27,17.5" fill="none" stroke="#000000" stroke-width="2" /><path d="M42.141,58.988 c-6.095,10.239 -19.528,20.879 -37.141,28.012" fill="none" stroke="#000000" stroke-width="2" /></svg>