<?xml version='1.0' encoding='utf-8'?>
<svg xmlns="http://www.w3.org/2000/svg" height="100px" version="1.0" viewBox="0 0 100 100" width="100px" x="0px" y="0px">
<line fill="none" stroke="#000000" stroke-width="2" x1="27.5" x2="56.5" y1="42.5" y2="42.5" /><path d="M63.034,24.761 c6.122,22.605 19.328,44.425 34.966,58.239" fill="none" stroke="#000000" stroke-width="2" /><path d="M94,25 c-6.41,10.206 -13.389,18.472 -21,25" fill="none" stroke="#000000" stroke-width="2" /><path d="M55.56,43.161 c-5.271,14.664 -16.313,29.124 -30.06,38.839" fill="none" stroke="#000000" stroke-width="2" /><path d="M42.5,6 c11.716,2.285 22.103,5.358 35,10.5" fill="none" stroke="#000000" stroke-width="2" /><path d="M35,25.5 h28.0 v58.5 c0,7.011 -0.956,8 -7,8 c-3.121,0 -7.678,-0.153 -13.5,-0.5" fill="none" stroke="#000000" stroke-width="2" /><path d="M7.5,91.5 c7.072,-9.315 12.963,-19.819 17,-30.5" fill="none" stroke="#000000" stroke-width="2" /><path d="M24.5,22.5 c-4.551,-4.456 -9.955,-9.209 -16,-14" fill="none" stroke="#000000" stroke-width="2" /><path d="M21,45.5 c-5.014,-4.892 -10.751,-9.858 -17.5,-15" fill="none" stroke="#000000" stroke-width="2" /></svg>