<?xml version='1.0' encoding='utf-8'?>
<svg xmlns="http://www.w3.org/2000/svg" height="100px" version="1.0" viewBox="0 0 100 100" width="100px" x="0px" y="0px">
<line fill="none" stroke="#000000" stroke-width="2" x1="39" x2="87.5" y1="86" y2="86" /><line fill="none" stroke="#000000" stroke-width="2" x1="94.5" x2="31" y1="45" y2="45" /><line fill="none" stroke="#000000" stroke-width="2" x1="43" x2="91.5" y1="18.5" y2="18.5" /><line fill="none" stroke="#000000" stroke-width="2" x1="65" x2="65" y1="45" y2="5.5" /><polyline fill="none" points="38,93 38,57 88.5,57 88.5,93" stroke="#000000" stroke-width="2" /><path d="M33.5,37.5 c5.615,-8.544 10.215,-19.378 13,-31" fill="none" stroke="#000000" stroke-width="2" /><path d="M9,91.5 c7.072,-9.315 12.963,-19.819 17,-30.5" fill="none" stroke="#000000" stroke-width="2" /><path d="M26,22.5 c-4.551,-4.456 -9.955,-9.209 -16,-14" fill="none" stroke="#000000" stroke-width="2" /><path d="M22.5,45.5 c-5.014,-4.892 -10.751,-9.858 -17.5,-15" fill="none" stroke="#000000" stroke-width="2" /></svg>