<?xml version='1.0' encoding='utf-8'?>
<svg xmlns="http://www.w3.org/2000/svg" height="100px" version="1.0" viewBox="0 0 100 100" width="100px" x="0px" y="0px">
<line fill="none" stroke="#000000" stroke-width="2" x1="38" x2="88.5" y1="50.5" y2="50.5" /><line fill="none" stroke="#000000" stroke-width="2" x1="38" x2="88.5" y1="69" y2="69" /><line fill="none" stroke="#000000" stroke-width="2" x1="63" x2="63" y1="33" y2="6" /><path d="M37,92 v-58.0 h52.5 v48.5 c0,7.567 -0.385,8 -6,8 c-2.227,0 -6.297,-0.159 -13.5,-0.5" fill="none" stroke="#000000" stroke-width="2" /><path d="M46,28 c-3.919,-6.757 -8.037,-13.301 -12,-19" fill="none" stroke="#000000" stroke-width="2" /><path d="M79.5,28 c4.511,-6.325 8.766,-13.087 12,-19" fill="none" stroke="#000000" stroke-width="2" /><path d="M10,91.5 c7.072,-9.315 12.963,-19.819 17,-30.5" fill="none" stroke="#000000" stroke-width="2" /><path d="M27,22.5 c-4.551,-4.456 -9.955,-9.209 -16,-14" fill="none" stroke="#000000" stroke-width="2" /><path d="M23.5,45.5 c-5.014,-4.892 -10.751,-9.858 -17.5,-15" fill="none" stroke="#000000" stroke-width="2" /></svg>