<?xml version='1.0' encoding='utf-8'?>
<svg xmlns="http://www.w3.org/2000/svg" height="100px" version="1.0" viewBox="0 0 100 100" width="100px" x="0px" y="0px">
<line fill="none" stroke="#000000" stroke-width="2" x1="93" x2="27" y1="31.5" y2="31.5" /><path d="M8.5,91.5 c5.156,-9.315 9.464,-19.845 12.5,-30.5" fill="none" stroke="#000000" stroke-width="2" /><path d="M24,22.5 c-4.127,-4.427 -9.06,-9.209 -14.5,-14" fill="none" stroke="#000000" stroke-width="2" /><path d="M21,45.5 c-4.589,-4.819 -9.926,-9.858 -16,-15" fill="none" stroke="#000000" stroke-width="2" /><path d="M30,14.5 c19.25,0 40.295,-2.417 58,-6.5" fill="none" stroke="#000000" stroke-width="2" /><path d="M27,61.5 c18.43,-11.313 30.06,-27.696 34,-49" fill="none" stroke="#000000" stroke-width="2" /><path d="M94,61.5 c-11.707,-7.8 -20.747,-17.974 -26.5,-30" fill="none" stroke="#000000" stroke-width="2" /><path d="M58.5,45 v42.62 c0,4.149 -0.239,4.38 -4.5,4.38 c-1.224,0 -4.621,-0.164 -9,-0.5" fill="none" stroke="#000000" stroke-width="2" /><path d="M30.5,88 c5.711,-7.861 10.651,-18.392 13.5,-29" fill="none" stroke="#000000" stroke-width="2" /><path d="M78.5,89 c-3.16,-9.355 -7.323,-19.317 -12,-28.5" fill="none" stroke="#000000" stroke-width="2" /><path d="M95,87 c-4.186,-8.867 -9.721,-18.571 -15.5,-27" fill="none" stroke="#000000" stroke-width="2" /></svg>