<?xml version='1.0' encoding='utf-8'?>
<svg xmlns="http://www.w3.org/2000/svg" height="100px" version="1.0" viewBox="0 0 100 100" width="100px" x="0px" y="0px">
<line fill="none" stroke="#000000" stroke-width="2" x1="50.5" x2="50.5" y1="57.5" y2="88.5" /><line fill="none" stroke="#000000" stroke-width="2" x1="69.5" x2="69.5" y1="57.5" y2="88.5" /><line fill="none" stroke="#000000" stroke-width="2" x1="22.5" x2="96.5" y1="89.5" y2="89.5" /><line fill="none" stroke="#000000" stroke-width="2" x1="38" x2="83" y1="44.5" y2="44.5" /><line fill="none" stroke="#000000" stroke-width="2" x1="38" x2="83" y1="27" y2="27" /><polyline fill="none" points="88.5,88.5 88.5,56.5 31.5,56.5 31.5,88.5" stroke="#000000" stroke-width="2" /><polyline fill="none" points="84,45.5 84,10.5 37,10.5 37,45.5" stroke="#000000" stroke-width="2" /><path d="M8,91.5 c7.072,-9.315 12.963,-19.819 17,-30.5" fill="none" stroke="#000000" stroke-width="2" /><path d="M26,22.5 c-4.551,-4.456 -9.955,-9.209 -16,-14" fill="none" stroke="#000000" stroke-width="2" /><path d="M21.5,45.5 c-5.014,-4.892 -10.751,-9.858 -17.5,-15" fill="none" stroke="#000000" stroke-width="2" /></svg>