<?xml version='1.0' encoding='utf-8'?>
<svg xmlns="http://www.w3.org/2000/svg" height="100px" version="1.0" viewBox="0 0 100 100" width="100px" x="0px" y="0px">
<line fill="none" stroke="#000000" stroke-width="2" x1="93.5" x2="29" y1="38" y2="38" /><line fill="none" stroke="#000000" stroke-width="2" x1="32" x2="90.5" y1="18" y2="18" /><line fill="none" stroke="#000000" stroke-width="2" x1="50.5" x2="50.5" y1="37" y2="5" /><line fill="none" stroke="#000000" stroke-width="2" x1="74.5" x2="74.5" y1="37" y2="5" /><polyline fill="none" points="78.5,75 78.5,51 46,51" stroke="#000000" stroke-width="2" /><path d="M29.5,62 c8.379,-5.787 16.823,-15.406 21,-24" fill="none" stroke="#000000" stroke-width="2" /><path d="M95.5,62 c-8.379,-5.787 -16.823,-15.406 -21,-24" fill="none" stroke="#000000" stroke-width="2" /><path d="M8,91.5 c7.072,-9.315 12.963,-19.819 17,-30.5" fill="none" stroke="#000000" stroke-width="2" /><path d="M26,22.5 c-4.551,-4.456 -9.955,-9.209 -16,-14" fill="none" stroke="#000000" stroke-width="2" /><path d="M22.5,45.5 c-5.014,-4.892 -10.751,-9.858 -17.5,-15" fill="none" stroke="#000000" stroke-width="2" /><path d="M77.5,68 H40.0 v15.0 c0,7.49 0.203,7.706 7,8.101 c4.687,0.273 8.393,0.399 13,0.399 c4.523,0 9.033,-0.136 14,-0.399 c12.188,-0.646 13.092,-1.496 14.5,-17.101" fill="none" stroke="#000000" stroke-width="2" /></svg>