<?xml version='1.0' encoding='utf-8'?>
<svg xmlns="http://www.w3.org/2000/svg" height="100px" version="1.0" viewBox="0 0 100 100" width="100px" x="0px" y="0px">
<line fill="none" stroke="#000000" stroke-width="2" x1="27.5" x2="60.5" y1="25.5" y2="25.5" /><line fill="none" stroke="#000000" stroke-width="2" x1="43.5" x2="43.5" y1="48" y2="6" /><line fill="none" stroke="#000000" stroke-width="2" x1="66" x2="90" y1="59" y2="59" /><line fill="none" stroke="#000000" stroke-width="2" x1="67" x2="90" y1="33.5" y2="33.5" /><polyline fill="none" points="32,81 56,81 56,49 31,49 31,90" stroke="#000000" stroke-width="2" /><path d="M57,92.5 c6.149,-10.866 9,-23.313 9,-46.5 v-36.0 h25.0 v73.0 c0,7.724 -0.25,8 -5,8 c-1.819,0 -5.604,-0.155 -11,-0.5" fill="none" stroke="#000000" stroke-width="2" /><path d="M8.5,91.5 c5.156,-9.315 9.464,-19.845 12.5,-30.5" fill="none" stroke="#000000" stroke-width="2" /><path d="M23.5,22.5 c-4.127,-4.427 -9.06,-9.209 -14.5,-14" fill="none" stroke="#000000" stroke-width="2" /><path d="M21,45.5 c-4.589,-4.819 -9.926,-9.858 -16,-15" fill="none" stroke="#000000" stroke-width="2" /></svg>