<?xml version='1.0' encoding='utf-8'?>
<svg xmlns="http://www.w3.org/2000/svg" height="100px" version="1.0" viewBox="0 0 100 100" width="100px" x="0px" y="0px">
<line fill="none" stroke="#000000" stroke-width="2" x1="30.5" x2="93" y1="14" y2="14" /><line fill="none" stroke="#000000" stroke-width="2" x1="49.5" x2="49.5" y1="22" y2="4" /><line fill="none" stroke="#000000" stroke-width="2" x1="75" x2="75" y1="22" y2="4" /><line fill="none" stroke="#000000" stroke-width="2" x1="30" x2="93.5" y1="68" y2="68" /><line fill="none" stroke="#000000" stroke-width="2" x1="32" x2="91.5" y1="54.5" y2="54.5" /><polyline fill="none" points="37,43.5 89,43.5 89,26 36,26 36,44.5" stroke="#000000" stroke-width="2" /><path d="M29.5,91 c20.092,-5.015 33,-16.851 33,-26.5 V27.0" fill="none" stroke="#000000" stroke-width="2" /><path d="M92.5,91 c-18.154,-5.014 -30,-16.853 -30,-26.5" fill="none" stroke="#000000" stroke-width="2" /><path d="M9,91.5 c7.072,-9.315 12.963,-19.819 17,-30.5" fill="none" stroke="#000000" stroke-width="2" /><path d="M26,22.5 c-4.551,-4.456 -9.955,-9.209 -16,-14" fill="none" stroke="#000000" stroke-width="2" /><path d="M22.5,45.5 c-5.014,-4.892 -10.751,-9.858 -17.5,-15" fill="none" stroke="#000000" stroke-width="2" /></svg>