<?xml version='1.0' encoding='utf-8'?>
<svg xmlns="http://www.w3.org/2000/svg" height="100px" version="1.0" viewBox="0 0 100 100" width="100px" x="0px" y="0px">
<line fill="none" stroke="#000000" stroke-width="2" x1="32.5" x2="3.5" y1="13.5" y2="13.5" /><line fill="none" stroke="#000000" stroke-width="2" x1="31.5" x2="4.5" y1="43.5" y2="43.5" /><line fill="none" stroke="#000000" stroke-width="2" x1="17.5" x2="17.5" y1="77.5" y2="14.5" /><line fill="none" stroke="#000000" stroke-width="2" x1="31.5" x2="95" y1="19.5" y2="19.5" /><path d="M3.5,83 c9.708,-3.375 18.152,-6.873 29,-12" fill="none" stroke="#000000" stroke-width="2" /><path d="M63,4.5 v79.5 c0,6.687 -1.236,8 -7,8 c-2.615,0 -6.546,-0.14 -12,-0.5" fill="none" stroke="#000000" stroke-width="2" /><path d="M63,27 c5.855,22.319 18.545,43.861 33.5,57.5" fill="none" stroke="#000000" stroke-width="2" /><path d="M92.5,30 c-6.051,8.754 -12.799,15.979 -20,21.5" fill="none" stroke="#000000" stroke-width="2" /><path d="M71.5,3.5 c5.266,2.864 10.978,6.452 16,10" fill="none" stroke="#000000" stroke-width="2" /><path d="M29.5,83.5 c10.641,-7.233 19.488,-15.624 25.84,-24" fill="none" stroke="#000000" stroke-width="2" /><path d="M51.5,52 c-4.623,-6.537 -10.42,-13.725 -17,-21" fill="none" stroke="#000000" stroke-width="2" /></svg>