<?xml version='1.0' encoding='utf-8'?>
<svg xmlns="http://www.w3.org/2000/svg" height="100px" version="1.0" viewBox="0 0 100 100" width="100px" x="0px" y="0px">
<line fill="none" stroke="#000000" stroke-width="2" x1="7" x2="93" y1="35" y2="35" /><line fill="none" stroke="#000000" stroke-width="2" x1="50" x2="50" y1="56" y2="11.5" /><line fill="none" stroke="#000000" stroke-width="2" x1="50" x2="50" y1="86.5" y2="57" /><line fill="none" stroke="#000000" stroke-width="2" x1="20" x2="80" y1="87.5" y2="87.5" /><line fill="none" stroke="#000000" stroke-width="2" x1="20" x2="80" y1="71.5" y2="71.5" /><polyline fill="none" points="81,93.5 81,56 19,56 19,93.5" stroke="#000000" stroke-width="2" /><path d="M14,12.5 c25,0 49.088,-1.53 72,-4.5" fill="none" stroke="#000000" stroke-width="2" /><path d="M6,59.5 c20.788,-7.737 34.423,-15.783 43,-24.5" fill="none" stroke="#000000" stroke-width="2" /><path d="M94,59.5 c-20.788,-7.737 -34.423,-15.783 -43,-24.5" fill="none" stroke="#000000" stroke-width="2" /><path d="M32,31 c-3.102,-5.021 -6.604,-10.134 -10,-14.5" fill="none" stroke="#000000" stroke-width="2" /><path d="M68,31 c4.106,-5.511 7.746,-11.534 10,-16.5" fill="none" stroke="#000000" stroke-width="2" /></svg>