<?xml version='1.0' encoding='utf-8'?>
<svg xmlns="http://www.w3.org/2000/svg" height="100px" version="1.0" viewBox="0 0 100 100" width="100px" x="0px" y="0px">
<line fill="none" stroke="#000000" stroke-width="2" x1="17.5" x2="47.5" y1="21" y2="21" /><line fill="none" stroke="#000000" stroke-width="2" x1="17.5" x2="17.5" y1="42.5" y2="7.5" /><line fill="none" stroke="#000000" stroke-width="2" x1="20" x2="81" y1="87.5" y2="87.5" /><line fill="none" stroke="#000000" stroke-width="2" x1="20" x2="81" y1="69" y2="69" /><polyline fill="none" points="82,93.5 82,51.5 19,51.5 19,93.5" stroke="#000000" stroke-width="2" /><path d="M56.5,7.5 v30.0 c0,4.278 0.281,4.527 6,4.8 c3.008,0.143 6.22,0.2 9.5,0.2 c3.397,0 6.478,-0.058 9.5,-0.2 c9.041,-0.43 9.183,-0.546 11,-16.8" fill="none" stroke="#000000" stroke-width="2" /><path d="M56.5,23.5 c12.069,-2.485 22.629,-5.827 35,-11" fill="none" stroke="#000000" stroke-width="2" /><path d="M4,44.5 c15.51,-1.764 29.475,-4.222 45.5,-8" fill="none" stroke="#000000" stroke-width="2" /><path d="M50,42 c-1.52,3.519 -3.293,6.552 -5.5,9.5" fill="none" stroke="#000000" stroke-width="2" /></svg>