<?xml version='1.0' encoding='utf-8'?>
<svg xmlns="http://www.w3.org/2000/svg" height="100px" version="1.0" viewBox="0 0 100 100" width="100px" x="0px" y="0px">
<line fill="none" stroke="#000000" stroke-width="2" x1="6" x2="94" y1="41" y2="41" /><line fill="none" stroke="#000000" stroke-width="2" x1="14" x2="86" y1="28" y2="28" /><line fill="none" stroke="#000000" stroke-width="2" x1="9" x2="91" y1="15.5" y2="15.5" /><line fill="none" stroke="#000000" stroke-width="2" x1="51" x2="51" y1="41" y2="15.5" /><line fill="none" stroke="#000000" stroke-width="2" x1="28" x2="83" y1="87.5" y2="87.5" /><line fill="none" stroke="#000000" stroke-width="2" x1="28" x2="83" y1="75.5" y2="75.5" /><line fill="none" stroke="#000000" stroke-width="2" x1="28" x2="83" y1="63.5" y2="63.5" /><polyline fill="none" points="83,93.5 83,51.5 27,51.5 27,93.5" stroke="#000000" stroke-width="2" /><path d="M38,15.5 c-2.549,-3.912 -5.327,-7.738 -8,-11" fill="none" stroke="#000000" stroke-width="2" /><path d="M62,15.5 c3.024,-3.622 5.896,-7.577 8,-11" fill="none" stroke="#000000" stroke-width="2" /><path d="M4,84 c13.717,-11.585 22.604,-26.832 25,-43" fill="none" stroke="#000000" stroke-width="2" /></svg>