<?xml version='1.0' encoding='utf-8'?>
<svg xmlns="http://www.w3.org/2000/svg" height="100px" version="1.0" viewBox="0 0 100 100" width="100px" x="0px" y="0px">
<line fill="none" stroke="#000000" stroke-width="2" x1="90" x2="10" y1="59" y2="59" /><line fill="none" stroke="#000000" stroke-width="2" x1="70" x2="30" y1="43" y2="43" /><line fill="none" stroke="#000000" stroke-width="2" x1="48.5" x2="22" y1="13" y2="13" /><line fill="none" stroke="#000000" stroke-width="2" x1="88.5" x2="58.5" y1="13" y2="13" /><path d="M4.5,28 c11.257,-7.136 18.827,-15.005 23.5,-24" fill="none" stroke="#000000" stroke-width="2" /><path d="M96,54.5 c-23.572,-11.338 -40.316,-29.362 -46,-48" fill="none" stroke="#000000" stroke-width="2" /><path d="M51,59 v27.2 c0,4.219 -0.674,4.8 -7,4.8 c-2.85,0 -7.088,-0.153 -13,-0.5" fill="none" stroke="#000000" stroke-width="2" /><path d="M9,89 c9.055,-6.188 16.573,-14.335 21,-22.5" fill="none" stroke="#000000" stroke-width="2" /><path d="M91,89.5 c-6.11,-7.479 -14.238,-15.625 -23,-23" fill="none" stroke="#000000" stroke-width="2" /><path d="M4,54.5 c21.301,-10.057 37.239,-25.499 43.575,-40.881" fill="none" stroke="#000000" stroke-width="2" /><path d="M70.5,37 c7.77,-7.618 13.408,-15.475 17.092,-23.42" fill="none" stroke="#000000" stroke-width="2" /><path d="M37,30 c-4.101,-3.478 -8.65,-7.159 -13,-10.5" fill="none" stroke="#000000" stroke-width="2" /><path d="M25.5,41 c-4.101,-3.478 -8.65,-7.159 -13,-10.5" fill="none" stroke="#000000" stroke-width="2" /></svg>