<?xml version='1.0' encoding='utf-8'?>
<svg xmlns="http://www.w3.org/2000/svg" height="100px" version="1.0" viewBox="0 0 100 100" width="100px" x="0px" y="0px">
<line fill="none" stroke="#000000" stroke-width="2" x1="23" x2="23" y1="94" y2="11.5" /><line fill="none" stroke="#000000" stroke-width="2" x1="40" x2="5" y1="33" y2="33" /><path d="M40,8 c-11.626,2.732 -22.837,4.682 -34,6" fill="none" stroke="#000000" stroke-width="2" /><path d="M4,72.5 c8.909,-13.023 14.701,-25.675 18.5,-40" fill="none" stroke="#000000" stroke-width="2" /><path d="M38,63 c-4.429,-9.387 -9.489,-19.466 -14.5,-29" fill="none" stroke="#000000" stroke-width="2" /><path d="M51,20.5 c-1.127,12.496 -4.092,23.593 -8.5,33" fill="none" stroke="#000000" stroke-width="2" /><path d="M37.5,91 c18.17,-10.747 29.5,-31.124 29.5,-56 v-28.0" fill="none" stroke="#000000" stroke-width="2" /><path d="M96,91 c-18.17,-10.747 -29,-31.124 -29,-56" fill="none" stroke="#000000" stroke-width="2" /><path d="M92.5,19 c-2.059,12.014 -5.759,22.612 -11,31.5" fill="none" stroke="#000000" stroke-width="2" /></svg>