<?xml version='1.0' encoding='utf-8'?>
<svg xmlns="http://www.w3.org/2000/svg" height="100px" version="1.0" viewBox="0 0 100 100" width="100px" x="0px" y="0px">
<line fill="none" stroke="#000000" stroke-width="2" x1="21.5" x2="21.5" y1="94" y2="11.5" /><line fill="none" stroke="#000000" stroke-width="2" x1="38.5" x2="5.5" y1="33" y2="33" /><line fill="none" stroke="#000000" stroke-width="2" x1="33.5" x2="96.5" y1="72" y2="62" /><line fill="none" stroke="#000000" stroke-width="2" x1="83.5" x2="83.5" y1="94" y2="6" /><path d="M4.5,72.5 c7.954,-13.023 13.176,-25.655 16.5,-40" fill="none" stroke="#000000" stroke-width="2" /><path d="M40.5,8 c-11.766,2.732 -22.704,4.682 -34,6" fill="none" stroke="#000000" stroke-width="2" /><path d="M36.5,60 c-4.586,-8.381 -9.608,-17.356 -14.5,-26" fill="none" stroke="#000000" stroke-width="2" /><path d="M74,33.5 c-5.56,-6.296 -11.952,-12.713 -19.5,-19.5" fill="none" stroke="#000000" stroke-width="2" /><path d="M64,56 c-5.541,-6.319 -12.452,-13.213 -20,-20" fill="none" stroke="#000000" stroke-width="2" /></svg>