<?xml version='1.0' encoding='utf-8'?>
<svg xmlns="http://www.w3.org/2000/svg" height="100px" version="1.0" viewBox="0 0 100 100" width="100px" x="0px" y="0px">
<line fill="none" stroke="#000000" stroke-width="2" x1="21" x2="21" y1="94" y2="11.5" /><line fill="none" stroke="#000000" stroke-width="2" x1="36" x2="5" y1="33" y2="33" /><line fill="none" stroke="#000000" stroke-width="2" x1="66" x2="96" y1="47.5" y2="47.5" /><line fill="none" stroke="#000000" stroke-width="2" x1="57" x2="88" y1="12.5" y2="12.5" /><path d="M37.5,67.5 c13.344,-5.85 28.825,-18.472 35,-28" fill="none" stroke="#000000" stroke-width="2" /><path d="M77,73.5 c-4.594,-4.464 -10.291,-9.631 -15.5,-14" fill="none" stroke="#000000" stroke-width="2" /><path d="M36,8 c-10.381,2.732 -20.033,4.682 -30,6" fill="none" stroke="#000000" stroke-width="2" /><path d="M4,72.5 c7.954,-13.023 13.176,-25.655 16.5,-40" fill="none" stroke="#000000" stroke-width="2" /><path d="M34,60 c-3.954,-8.381 -8.283,-17.356 -12.5,-26" fill="none" stroke="#000000" stroke-width="2" /><path d="M95.063,48.157 c-8.585,23.17 -30.201,39.493 -58.563,43.843" fill="none" stroke="#000000" stroke-width="2" /><path d="M38,27 c9.602,-4.738 20.031,-14.297 24.5,-22" fill="none" stroke="#000000" stroke-width="2" /><path d="M87.078,13.093 c-8.67,18.994 -26.29,32.318 -51.078,37.907" fill="none" stroke="#000000" stroke-width="2" /><path d="M70.5,34.5 c-4.407,-4.245 -9.881,-8.995 -15,-13" fill="none" stroke="#000000" stroke-width="2" /></svg>