<?xml version='1.0' encoding='utf-8'?>
<svg xmlns="http://www.w3.org/2000/svg" height="100px" version="1.0" viewBox="0 0 100 100" width="100px" x="0px" y="0px">
<line fill="none" stroke="#000000" stroke-width="2" x1="34" x2="94" y1="15" y2="15" /><line fill="none" stroke="#000000" stroke-width="2" x1="64" x2="64" y1="14" y2="5" /><line fill="none" stroke="#000000" stroke-width="2" x1="20" x2="20" y1="94" y2="11.5" /><line fill="none" stroke="#000000" stroke-width="2" x1="36" x2="5" y1="33" y2="33" /><polyline fill="none" points="49,86 49,62 79,62 79,80 50,80" stroke="#000000" stroke-width="2" /><polyline fill="none" points="45,43 45,25 83,25 83,42 46,42" stroke="#000000" stroke-width="2" /><path d="M78,91 c4.902,0.363 7.691,0.5 9,0.5 c4.684,0 5,-0.383 5,-8 V52.0 h-56.0 v41.0" fill="none" stroke="#000000" stroke-width="2" /><path d="M34,8 c-9.688,2.732 -18.697,4.682 -28,6" fill="none" stroke="#000000" stroke-width="2" /><path d="M4,72.5 c7.473,-13.023 12.377,-25.655 15.5,-40" fill="none" stroke="#000000" stroke-width="2" /><path d="M32,60 c-3.637,-8.381 -7.621,-17.356 -11.5,-26" fill="none" stroke="#000000" stroke-width="2" /></svg>