<?xml version='1.0' encoding='utf-8'?>
<svg xmlns="http://www.w3.org/2000/svg" height="100px" version="1.0" viewBox="0 0 100 100" width="100px" x="0px" y="0px">
<line fill="none" stroke="#000000" stroke-width="2" x1="50" x2="50" y1="15.5" y2="3" /><polyline fill="none" points="90,30.5 90,15.5 10,15.5 10,33.5" stroke="#000000" stroke-width="2" /><path d="M58,16.5 v23.5 c0,3.327 0.76,4.028 5.5,4.3 c2.352,0.135 4.934,0.2 7.5,0.2 c2.659,0 5.135,-0.063 7.5,-0.2 c7.811,-0.451 8.473,-1.053 9.5,-9.8" fill="none" stroke="#000000" stroke-width="2" /><path d="M10,46 c21.297,-5.941 32,-17.039 32,-29.5" fill="none" stroke="#000000" stroke-width="2" /><path d="M6,92 c24.443,-8.233 35,-22.103 35,-49" fill="none" stroke="#000000" stroke-width="2" /><path d="M12,55.5 h59.0 v30.5 c0,3.525 0.541,4 11,4 c11.334,0 12.196,-0.787 14,-17" fill="none" stroke="#000000" stroke-width="2" /></svg>