<?xml version='1.0' encoding='utf-8'?>
<svg xmlns="http://www.w3.org/2000/svg" height="100px" version="1.0" viewBox="0 0 100 100" width="100px" x="0px" y="0px">
<line fill="none" stroke="#000000" stroke-width="2" x1="50" x2="50" y1="15" y2="3" /><line fill="none" stroke="#000000" stroke-width="2" x1="8.5" x2="91.5" y1="89" y2="89" /><line fill="none" stroke="#000000" stroke-width="2" x1="83.5" x2="16.5" y1="57" y2="57" /><line fill="none" stroke="#000000" stroke-width="2" x1="50" x2="50" y1="89" y2="57" /><polyline fill="none" points="89.5,30 89.5,15 10.5,15 10.5,33" stroke="#000000" stroke-width="2" /><path d="M58,16 v25.5 c0,3.697 0.758,4.554 5.5,4.8 c2.353,0.123 4.934,0.2 7.5,0.2 c2.659,0 5.134,-0.075 7.5,-0.2 c7.767,-0.408 8.463,-0.995 9.5,-10.8" fill="none" stroke="#000000" stroke-width="2" /><path d="M10,49 c20.981,-6.504 32,-18.874 32,-33" fill="none" stroke="#000000" stroke-width="2" /></svg>