<?xml version='1.0' encoding='utf-8'?>
<svg xmlns="http://www.w3.org/2000/svg" height="100px" version="1.0" viewBox="0 0 100 100" width="100px" x="0px" y="0px">
<line fill="none" stroke="#000000" stroke-width="2" x1="6" x2="36" y1="25" y2="25" /><line fill="none" stroke="#000000" stroke-width="2" x1="21" x2="21" y1="25" y2="7" /><line fill="none" stroke="#000000" stroke-width="2" x1="66.5" x2="66.5" y1="28" y2="6" /><line fill="none" stroke="#000000" stroke-width="2" x1="95" x2="38" y1="40" y2="40" /><line fill="none" stroke="#000000" stroke-width="2" x1="57.5" x2="57.5" y1="53.5" y2="89" /><line fill="none" stroke="#000000" stroke-width="2" x1="74.5" x2="74.5" y1="53.5" y2="89" /><polyline fill="none" points="90.5,9.5 90.5,28 42.5,28 42.5,9.5" stroke="#000000" stroke-width="2" /><path d="M80.5,90 c3.959,0.349 6.686,0.5 7.5,0.5 c3.619,0 4,-0.406 4,-4.5 v-32.5 h-51.0 v38.5" fill="none" stroke="#000000" stroke-width="2" /><path d="M6,87 c10.165,-2.489 18.964,-5.403 30,-10" fill="none" stroke="#000000" stroke-width="2" /><path d="M66,40 c-0.9,5.008 -2.049,9.423 -3.5,13.5" fill="none" stroke="#000000" stroke-width="2" /><path d="M25.5,81 c2.68,-13.673 4.975,-30.976 6.5,-49.5" fill="none" stroke="#000000" stroke-width="2" /><path d="M15,73.5 c-1.303,-13.792 -2.887,-28.188 -4.5,-41.5" fill="none" stroke="#000000" stroke-width="2" /></svg>