<?xml version='1.0' encoding='utf-8'?>
<svg xmlns="http://www.w3.org/2000/svg" height="100px" version="1.0" viewBox="0 0 100 100" width="100px" x="0px" y="0px">
<line fill="none" stroke="#000000" stroke-width="2" x1="25" x2="75" y1="50" y2="50" /><line fill="none" stroke="#000000" stroke-width="2" x1="21" x2="79" y1="88" y2="88" /><line fill="none" stroke="#000000" stroke-width="2" x1="94" x2="58" y1="15.5" y2="15.5" /><line fill="none" stroke="#000000" stroke-width="2" x1="51" x2="18.5" y1="15.5" y2="15.5" /><polyline fill="none" points="80,94 80,62 20,62 20,94" stroke="#000000" stroke-width="2" /><path d="M93,54.5 c-16.781,-7.532 -29.887,-15.228 -43,-25 c-13.113,9.772 -26.219,17.468 -43,25" fill="none" stroke="#000000" stroke-width="2" /><path d="M34,32.5 c-2.138,-5.52 -4.543,-11.366 -7,-17" fill="none" stroke="#000000" stroke-width="2" /><path d="M76,32.5 c-2.139,-5.52 -4.544,-11.366 -7,-17" fill="none" stroke="#000000" stroke-width="2" /><path d="M23,4.5 c-2.729,9.845 -9.133,20.379 -17,28" fill="none" stroke="#000000" stroke-width="2" /><path d="M66,4.5 c-3.717,7.438 -11.482,15.749 -21,22" fill="none" stroke="#000000" stroke-width="2" /></svg>