<?xml version='1.0' encoding='utf-8'?>
<svg xmlns="http://www.w3.org/2000/svg" height="100px" version="1.0" viewBox="0 0 100 100" width="100px" x="0px" y="0px">
<line fill="none" stroke="#000000" stroke-width="2" x1="94" x2="56" y1="13" y2="13" /><line fill="none" stroke="#000000" stroke-width="2" x1="50" x2="17.5" y1="13" y2="13" /><line fill="none" stroke="#000000" stroke-width="2" x1="6" x2="94" y1="76.5" y2="76.5" /><line fill="none" stroke="#000000" stroke-width="2" x1="67" x2="67" y1="95" y2="66" /><line fill="none" stroke="#000000" stroke-width="2" x1="19" x2="81" y1="41" y2="41" /><line fill="none" stroke="#000000" stroke-width="2" x1="19" x2="81" y1="53" y2="53" /><polyline fill="none" points="19,65 82,65 82,29 18,29 18,66" stroke="#000000" stroke-width="2" /><path d="M34,29 c-1.833,-5.195 -3.895,-10.698 -6,-16" fill="none" stroke="#000000" stroke-width="2" /><path d="M74,29 c-1.833,-5.195 -3.895,-10.698 -6,-16" fill="none" stroke="#000000" stroke-width="2" /><path d="M23,3 c-3.148,7.932 -9.355,16.47 -17,23" fill="none" stroke="#000000" stroke-width="2" /><path d="M63,3 c-3.717,7.438 -11.482,15.749 -21,22" fill="none" stroke="#000000" stroke-width="2" /><path d="M12,94 c14.588,-4.848 22,-14.329 22,-29" fill="none" stroke="#000000" stroke-width="2" /></svg>