<?xml version='1.0' encoding='utf-8'?>
<svg xmlns="http://www.w3.org/2000/svg" height="100px" version="1.0" viewBox="0 0 100 100" width="100px" x="0px" y="0px">
<line fill="none" stroke="#000000" stroke-width="2" x1="24" x2="80" y1="88" y2="88" /><line fill="none" stroke="#000000" stroke-width="2" x1="50" x2="50" y1="31" y2="19" /><line fill="none" stroke="#000000" stroke-width="2" x1="94" x2="56" y1="13" y2="13" /><line fill="none" stroke="#000000" stroke-width="2" x1="50" x2="17.5" y1="13" y2="13" /><polyline fill="none" points="24,58 76,58 76,41 23,41 23,94" stroke="#000000" stroke-width="2" /><polyline fill="none" points="81,94 81,68 24,68" stroke="#000000" stroke-width="2" /><polyline fill="none" points="91,49 91,32 9,32 9,49" stroke="#000000" stroke-width="2" /><path d="M34,28 c-1.833,-4.87 -3.895,-10.029 -6,-15" fill="none" stroke="#000000" stroke-width="2" /><path d="M75,28 c-1.833,-4.87 -3.895,-10.029 -6,-15" fill="none" stroke="#000000" stroke-width="2" /><path d="M23,3 c-3.148,7.932 -9.355,16.47 -17,23" fill="none" stroke="#000000" stroke-width="2" /><path d="M63,3 c-3.717,7.438 -11.482,15.749 -21,22" fill="none" stroke="#000000" stroke-width="2" /></svg>