<?xml version='1.0' encoding='utf-8'?>
<svg xmlns="http://www.w3.org/2000/svg" height="100px" version="1.0" viewBox="0 0 100 100" width="100px" x="0px" y="0px">
<line fill="none" stroke="#000000" stroke-width="2" x1="27" x2="27" y1="94" y2="32" /><line fill="none" stroke="#000000" stroke-width="2" x1="46" x2="7" y1="46.5" y2="46.5" /><line fill="none" stroke="#000000" stroke-width="2" x1="51.5" x2="90.5" y1="88.5" y2="88.5" /><line fill="none" stroke="#000000" stroke-width="2" x1="51.5" x2="90.5" y1="70.5" y2="70.5" /><line fill="none" stroke="#000000" stroke-width="2" x1="51.5" x2="90.5" y1="52.5" y2="52.5" /><line fill="none" stroke="#000000" stroke-width="2" x1="94" x2="58.5" y1="16" y2="16" /><line fill="none" stroke="#000000" stroke-width="2" x1="51" x2="18.5" y1="16" y2="16" /><polyline fill="none" points="90.5,93.5 90.5,34.5 50.5,34.5 50.5,93.5" stroke="#000000" stroke-width="2" /><path d="M4,79.5 c10.543,-10.94 17.6,-21.314 22.5,-33" fill="none" stroke="#000000" stroke-width="2" /><path d="M45,71 c-5.504,-7.704 -11.63,-15.687 -18,-23.5" fill="none" stroke="#000000" stroke-width="2" /><path d="M34,31 c-1.833,-4.87 -3.895,-10.029 -6,-15" fill="none" stroke="#000000" stroke-width="2" /><path d="M75,31 c-1.833,-4.87 -3.895,-10.029 -6,-15" fill="none" stroke="#000000" stroke-width="2" /><path d="M23,5 c-2.729,9.845 -9.133,20.379 -17,28" fill="none" stroke="#000000" stroke-width="2" /><path d="M63,5 c-2.654,9.375 -9.12,19.735 -17,27" fill="none" stroke="#000000" stroke-width="2" /></svg>