<?xml version='1.0' encoding='utf-8'?>
<svg xmlns="http://www.w3.org/2000/svg" height="100px" version="1.0" viewBox="0 0 100 100" width="100px" x="0px" y="0px">
<line fill="none" stroke="#000000" stroke-width="2" x1="88.5" x2="7" y1="50.5" y2="53.5" /><line fill="none" stroke="#000000" stroke-width="2" x1="50" x2="50" y1="52" y2="92" /><path d="M40.5,42 c-7.125,-6.932 -16.472,-15.49 -24.5,-22.5" fill="none" stroke="#000000" stroke-width="2" /><path d="M95,59.5 c-5.668,-8.181 -13.436,-18.663 -20,-27" fill="none" stroke="#000000" stroke-width="2" /><path d="M9,86 c11.341,-7.637 20.633,-16.027 27.5,-24.5" fill="none" stroke="#000000" stroke-width="2" /><path d="M91,87 c-8.076,-8.33 -17.789,-16.921 -29,-25.5" fill="none" stroke="#000000" stroke-width="2" /><path d="M23.5,52.8 c19.741,-12.118 36.981,-24.665 52.5,-38.3" fill="none" stroke="#000000" stroke-width="2" /><path d="M24.5,27.5 c10.202,-7.326 19.149,-14.65 27.5,-22.5" fill="none" stroke="#000000" stroke-width="2" /></svg>