<?xml version='1.0' encoding='utf-8'?>
<svg xmlns="http://www.w3.org/2000/svg" height="100px" version="1.0" viewBox="0 0 100 100" width="100px" x="0px" y="0px">
<line fill="none" stroke="#000000" stroke-width="2" x1="88.5" x2="7" y1="55" y2="58" /><line fill="none" stroke="#000000" stroke-width="2" x1="50" x2="50" y1="56.5" y2="92" /><path d="M95,64 c-5.668,-8.181 -13.436,-18.663 -20,-27" fill="none" stroke="#000000" stroke-width="2" /><path d="M40.5,50 c-7.125,-6.932 -16.472,-15.49 -24.5,-22.5" fill="none" stroke="#000000" stroke-width="2" /><path d="M31,57 c16.653,-12.005 29.525,-22.222 43.5,-34.5" fill="none" stroke="#000000" stroke-width="2" /><path d="M24.5,35.5 c10.202,-7.326 19.149,-14.65 27.5,-22.5" fill="none" stroke="#000000" stroke-width="2" /><path d="M9,87 c11.341,-6.873 20.633,-14.374 27.5,-22" fill="none" stroke="#000000" stroke-width="2" /><path d="M91,88 c-8.076,-7.497 -17.789,-15.278 -29,-23" fill="none" stroke="#000000" stroke-width="2" /><path d="M13.5,14.5 c25.459,0 49.537,-2.101 72,-6" fill="none" stroke="#000000" stroke-width="2" /></svg>