<?xml version='1.0' encoding='utf-8'?>
<svg xmlns="http://www.w3.org/2000/svg" height="100px" version="1.0" viewBox="0 0 100 100" width="100px" x="0px" y="0px">
<line fill="none" stroke="#000000" stroke-width="2" x1="5" x2="43.5" y1="52" y2="50" /><line fill="none" stroke="#000000" stroke-width="2" x1="25.5" x2="25.5" y1="51" y2="94" /><line fill="none" stroke="#000000" stroke-width="2" x1="42" x2="84" y1="11" y2="11" /><line fill="none" stroke="#000000" stroke-width="2" x1="77" x2="94.5" y1="36" y2="36" /><path d="M45,57.5 c-1.619,-7.545 -4.385,-16.581 -7.5,-24.101" fill="none" stroke="#000000" stroke-width="2" /><path d="M7,87.5 c3.402,-9.126 5.666,-19.038 6.5,-28.5" fill="none" stroke="#000000" stroke-width="2" /><path d="M41,81.5 c-0.682,-6.759 -2.25,-15.816 -4,-23" fill="none" stroke="#000000" stroke-width="2" /><path d="M12,51.5 c10.08,-11.431 18.977,-23.412 27,-36.5" fill="none" stroke="#000000" stroke-width="2" /><path d="M20.5,41 c-3.684,-6.554 -8.887,-15.377 -13,-22" fill="none" stroke="#000000" stroke-width="2" /><path d="M12.5,27.5 c5.096,-7.057 9.62,-14.042 14,-21.5" fill="none" stroke="#000000" stroke-width="2" /><path d="M75,42 c3.575,-9.417 6.263,-19.401 8.012,-30.161" fill="none" stroke="#000000" stroke-width="2" /><path d="M40,91.5 c11.182,-16.032 17,-40.014 17,-80.5" fill="none" stroke="#000000" stroke-width="2" /><path d="M97,91.5 c-20.583,-14.808 -34.662,-41.097 -40,-80.5" fill="none" stroke="#000000" stroke-width="2" /><path d="M53,91.5 c19.277,-9.911 33.549,-28.202 40.533,-54.755" fill="none" stroke="#000000" stroke-width="2" /></svg>