<?xml version='1.0' encoding='utf-8'?>
<svg xmlns="http://www.w3.org/2000/svg" height="100px" version="1.0" viewBox="0 0 100 100" width="100px" x="0px" y="0px">
<line fill="none" stroke="#000000" stroke-width="2" x1="7" x2="93" y1="14" y2="14" /><line fill="none" stroke="#000000" stroke-width="2" x1="50" x2="50" y1="29" y2="4" /><line fill="none" stroke="#000000" stroke-width="2" x1="88.5" x2="7" y1="62" y2="64.5" /><line fill="none" stroke="#000000" stroke-width="2" x1="50" x2="50" y1="63" y2="92" /><polyline fill="none" points="88,48 88,29 12,29 12,48" stroke="#000000" stroke-width="2" /><path d="M41.5,56 c-6.285,-5.021 -14.482,-11.337 -21.5,-16.5" fill="none" stroke="#000000" stroke-width="2" /><path d="M95,68.5 c-5.668,-5.924 -13.436,-13.463 -20,-19.5" fill="none" stroke="#000000" stroke-width="2" /><path d="M9,88 c11.341,-5.529 20.537,-11.473 27.5,-17.5" fill="none" stroke="#000000" stroke-width="2" /><path d="M91,89 c-8.076,-6.033 -17.8,-12.268 -29,-18.5" fill="none" stroke="#000000" stroke-width="2" /><path d="M26.5,64 c17.381,-8.836 32.813,-18.126 46.5,-28" fill="none" stroke="#000000" stroke-width="2" /><path d="M27.5,45 c8.998,-5.304 16.59,-10.374 24,-16" fill="none" stroke="#000000" stroke-width="2" /></svg>