<?xml version='1.0' encoding='utf-8'?>
<svg xmlns="http://www.w3.org/2000/svg" height="100px" version="1.0" viewBox="0 0 100 100" width="100px" x="0px" y="0px">
<line fill="none" stroke="#000000" stroke-width="2" x1="5" x2="37.5" y1="52" y2="50" /><line fill="none" stroke="#000000" stroke-width="2" x1="22.5" x2="22.5" y1="51" y2="94" /><line fill="none" stroke="#000000" stroke-width="2" x1="47" x2="87" y1="36" y2="36" /><line fill="none" stroke="#000000" stroke-width="2" x1="94.5" x2="43.5" y1="54" y2="54" /><path d="M94.5,93 c-3.637,-9.133 -8.668,-20.736 -13,-30" fill="none" stroke="#000000" stroke-width="2" /><path d="M39,57.5 c-1.403,-7.545 -3.801,-16.481 -6.5,-24" fill="none" stroke="#000000" stroke-width="2" /><path d="M7,87.5 c2.879,-9.126 4.795,-19.038 5.5,-28.5" fill="none" stroke="#000000" stroke-width="2" /><path d="M11,51.5 c8.773,-11.431 16.518,-23.412 23.5,-36.5" fill="none" stroke="#000000" stroke-width="2" /><path d="M18.5,41 c-3.258,-6.554 -7.862,-15.377 -11.5,-22" fill="none" stroke="#000000" stroke-width="2" /><path d="M11.5,27.5 c4.367,-7.057 8.246,-14.042 12,-21.5" fill="none" stroke="#000000" stroke-width="2" /><path d="M95.5,36 c-11.157,-9.224 -19.809,-18.646 -28.5,-30.8 c-8.691,12.154 -17.343,21.576 -28.5,30.8" fill="none" stroke="#000000" stroke-width="2" /><path d="M38,90 c15.744,-0.856 34.146,-3.598 52,-8" fill="none" stroke="#000000" stroke-width="2" /><path d="M51,89 c3.236,-10.211 6.461,-22.041 9.5,-35" fill="none" stroke="#000000" stroke-width="2" /><path d="M36,84.5 c-0.682,-6.759 -2.527,-18.755 -4,-26" fill="none" stroke="#000000" stroke-width="2" /></svg>