<?xml version='1.0' encoding='utf-8'?>
<svg xmlns="http://www.w3.org/2000/svg" height="100px" version="1.0" viewBox="0 0 100 100" width="100px" x="0px" y="0px">
<line fill="none" stroke="#000000" stroke-width="2" x1="5" x2="37.5" y1="52" y2="50" /><line fill="none" stroke="#000000" stroke-width="2" x1="22.5" x2="22.5" y1="51" y2="94" /><path d="M39,57.5 c-1.403,-7.545 -3.801,-16.481 -6.5,-24" fill="none" stroke="#000000" stroke-width="2" /><path d="M7,87.5 c2.879,-9.126 4.795,-19.038 5.5,-28.5" fill="none" stroke="#000000" stroke-width="2" /><path d="M35.5,78.5 c-0.737,-6.245 -1.969,-13.349 -3.5,-20" fill="none" stroke="#000000" stroke-width="2" /><path d="M11,51.5 c8.773,-11.431 16.518,-23.412 23.5,-36.5" fill="none" stroke="#000000" stroke-width="2" /><path d="M18.5,41 c-3.258,-6.554 -7.862,-15.377 -11.5,-22" fill="none" stroke="#000000" stroke-width="2" /><path d="M11.5,27.5 c4.367,-7.057 8.246,-14.042 12,-21.5" fill="none" stroke="#000000" stroke-width="2" /><path d="M92.5,54.5 c-4.027,-7.214 -9.896,-16.434 -15,-23.5" fill="none" stroke="#000000" stroke-width="2" /><path d="M41.5,49 c13.467,-0.45 29.697,-1.902 45,-4" fill="none" stroke="#000000" stroke-width="2" /><path d="M52,48.5 c3.791,-7.886 7.668,-17.521 11,-27.5" fill="none" stroke="#000000" stroke-width="2" /><path d="M58.5,8 c-5.083,7.394 -12.014,14.263 -21,20.5" fill="none" stroke="#000000" stroke-width="2" /><path d="M74,8 c5.083,7.394 12.014,14.263 21,20.5" fill="none" stroke="#000000" stroke-width="2" /><path d="M56.5,60 v24.5 c0,5.956 0.515,6.431 4.5,6.75 c2.245,0.18 4.9,0.25 7.5,0.25 c2.844,0 5.401,-0.082 7.5,-0.25 c7.354,-0.589 7.521,-0.745 8.5,-14.25" fill="none" stroke="#000000" stroke-width="2" /><path d="M39,88 c3.637,-7.026 6.688,-16.025 8.5,-25.5" fill="none" stroke="#000000" stroke-width="2" /><path d="M95,85 c-2.732,-7.887 -6.135,-15.893 -10,-23.5" fill="none" stroke="#000000" stroke-width="2" /><path d="M60.5,54 c6.145,4.754 11.142,9.436 17,16" fill="none" stroke="#000000" stroke-width="2" /></svg>