<?xml version='1.0' encoding='utf-8'?>
<svg xmlns="http://www.w3.org/2000/svg" height="100px" version="1.0" viewBox="0 0 100 100" width="100px" x="0px" y="0px">
<line fill="none" stroke="#000000" stroke-width="2" x1="49" x2="88.5" y1="31" y2="31" /><line fill="none" stroke="#000000" stroke-width="2" x1="44" x2="65.5" y1="58.5" y2="58.5" /><line fill="none" stroke="#000000" stroke-width="2" x1="5" x2="41.5" y1="52" y2="50" /><line fill="none" stroke="#000000" stroke-width="2" x1="25" x2="25" y1="51" y2="94" /><polyline fill="none" points="49,47.5 89.5,47.5 89.5,14.5 48,14.5 48,48.5" stroke="#000000" stroke-width="2" /><path d="M69,4 c-1.05,3.778 -2.041,7.271 -3,10.5" fill="none" stroke="#000000" stroke-width="2" /><path d="M69.5,48.5 v34.5 c0,7.521 -0.467,8 -4.5,8 c-2.083,0 -6.111,-0.194 -10,-0.5" fill="none" stroke="#000000" stroke-width="2" /><path d="M69.5,48.5 c4.664,15.776 14.929,31.449 27,41.5" fill="none" stroke="#000000" stroke-width="2" /><path d="M94.5,51.5 c-4.945,6.958 -10.168,12.501 -16,17" fill="none" stroke="#000000" stroke-width="2" /><path d="M64.557,59.172 c-3.855,11.092 -14.822,23.003 -26.557,28.828" fill="none" stroke="#000000" stroke-width="2" /><path d="M64.557,59.172 c-3.855,11.092 -14.822,23.003 -26.557,28.828" fill="none" stroke="#000000" stroke-width="2" /><path d="M43,55.5 c-1.619,-7.545 -4.385,-16.48 -7.5,-24" fill="none" stroke="#000000" stroke-width="2" /><path d="M7,87.5 c3.402,-9.126 5.666,-19.038 6.5,-28.5" fill="none" stroke="#000000" stroke-width="2" /><path d="M39,81 c-0.682,-5.813 -2.549,-16.265 -4,-22.5" fill="none" stroke="#000000" stroke-width="2" /><path d="M12,51.5 c10.08,-11.431 18.977,-23.412 27,-36.5" fill="none" stroke="#000000" stroke-width="2" /><path d="M20.5,41 c-3.684,-6.554 -8.887,-15.377 -13,-22" fill="none" stroke="#000000" stroke-width="2" /><path d="M12.5,27.5 c5.096,-7.057 9.62,-14.042 14,-21.5" fill="none" stroke="#000000" stroke-width="2" /></svg>