<?xml version='1.0' encoding='utf-8'?>
<svg xmlns="http://www.w3.org/2000/svg" height="100px" version="1.0" viewBox="0 0 100 100" width="100px" x="0px" y="0px">
<line fill="none" stroke="#000000" stroke-width="2" x1="36" x2="94" y1="11" y2="11" /><line fill="none" stroke="#000000" stroke-width="2" x1="5" x2="34.5" y1="52" y2="50" /><line fill="none" stroke="#000000" stroke-width="2" x1="21" x2="21" y1="51" y2="94" /><line fill="none" stroke="#000000" stroke-width="2" x1="61.5" x2="61.5" y1="49.5" y2="91" /><line fill="none" stroke="#000000" stroke-width="2" x1="75.5" x2="75.5" y1="49.5" y2="91" /><line fill="none" stroke="#000000" stroke-width="2" x1="48.5" x2="89" y1="66.5" y2="66.5" /><path d="M33,89 c6.401,-16.146 9,-30.167 9,-49 v-19.0 h46.5 v17.0 H43.0" fill="none" stroke="#000000" stroke-width="2" /><path d="M36,57.5 c-1.279,-7.545 -3.49,-16.5 -6,-24" fill="none" stroke="#000000" stroke-width="2" /><path d="M7,87.5 c2.624,-9.126 4.357,-19.038 5,-28.5" fill="none" stroke="#000000" stroke-width="2" /><path d="M32.5,76.5 c-0.573,-5.688 -1.604,-11.954 -3,-18" fill="none" stroke="#000000" stroke-width="2" /><path d="M81,91.25 c2.709,0.166 4.616,0.25 6,0.25 c2.665,0 3,-0.333 3,-4 v-39.0 h-42.5 V93.0" fill="none" stroke="#000000" stroke-width="2" /><path d="M10.5,51.5 c8.018,-11.415 15.134,-23.412 21.5,-36.5" fill="none" stroke="#000000" stroke-width="2" /><path d="M17.5,41 c-2.955,-6.562 -7.184,-15.377 -10.5,-22" fill="none" stroke="#000000" stroke-width="2" /><path d="M11,27.5 c3.982,-7.057 7.565,-14.049 11,-21.5" fill="none" stroke="#000000" stroke-width="2" /></svg>