<?xml version='1.0' encoding='utf-8'?>
<svg xmlns="http://www.w3.org/2000/svg" height="100px" version="1.0" viewBox="0 0 100 100" width="100px" x="0px" y="0px">
<line fill="none" stroke="#000000" stroke-width="2" x1="57" x2="90" y1="87" y2="87" /><line fill="none" stroke="#000000" stroke-width="2" x1="57" x2="90" y1="64.5" y2="64.5" /><line fill="none" stroke="#000000" stroke-width="2" x1="54" x2="93" y1="26.5" y2="26.5" /><line fill="none" stroke="#000000" stroke-width="2" x1="46" x2="46" y1="93" y2="41.75" /><line fill="none" stroke="#000000" stroke-width="2" x1="65.5" x2="65.5" y1="13" y2="2" /><line fill="none" stroke="#000000" stroke-width="2" x1="5" x2="34.5" y1="52" y2="50" /><line fill="none" stroke="#000000" stroke-width="2" x1="21" x2="21" y1="51" y2="94" /><polyline fill="none" points="91,93 91,43.5 56,43.5 56,93" stroke="#000000" stroke-width="2" /><polyline fill="none" points="93,33 93,14 39,14 39,35" stroke="#000000" stroke-width="2" /><path d="M72.5,26.5 c-0.771,6.231 -1.781,11.909 -3,17" fill="none" stroke="#000000" stroke-width="2" /><path d="M51,20 c-2.64,17.097 -7.721,32.225 -14.5,44" fill="none" stroke="#000000" stroke-width="2" /><path d="M36,56.5 c-1.279,-7.545 -3.49,-16.5 -6,-24" fill="none" stroke="#000000" stroke-width="2" /><path d="M7,87.5 c2.624,-9.126 4.357,-19.038 5,-28.5" fill="none" stroke="#000000" stroke-width="2" /><path d="M32.5,82.5 c-0.547,-7.585 -1.604,-15.938 -3,-24" fill="none" stroke="#000000" stroke-width="2" /><path d="M10.5,51.5 c8.018,-11.415 15.133,-23.412 21.5,-36.5" fill="none" stroke="#000000" stroke-width="2" /><path d="M17.5,41 c-2.955,-6.562 -7.184,-15.377 -10.5,-22" fill="none" stroke="#000000" stroke-width="2" /><path d="M11,27.5 c3.982,-7.057 7.565,-14.049 11,-21.5" fill="none" stroke="#000000" stroke-width="2" /></svg>