<?xml version='1.0' encoding='utf-8'?>
<svg xmlns="http://www.w3.org/2000/svg" height="100px" version="1.0" viewBox="0 0 100 100" width="100px" x="0px" y="0px">
<path d="M8,74 c12.766,-7.233 23.434,-15.565 31,-24" fill="none" stroke="#000000" stroke-width="2" /><path d="M30,45 c-4.548,-7.405 -10.341,-15.618 -17,-24" fill="none" stroke="#000000" stroke-width="2" /><path d="M52.5,73 c12.766,-7.233 23.434,-15.565 31,-24" fill="none" stroke="#000000" stroke-width="2" /><path d="M74.5,44 c-4.548,-7.405 -10.341,-15.618 -17,-24" fill="none" stroke="#000000" stroke-width="2" /><path d="M51.5,11 h37.0 v71.0 c0,7.366 -0.695,8 -8,8 c-2.578,0 -7.353,-0.166 -15,-0.5" fill="none" stroke="#000000" stroke-width="2" /><path d="M7,11 h37.0 v71.0 c0,7.366 -0.695,8 -8,8 c-2.578,0 -7.353,-0.166 -15,-0.5" fill="none" stroke="#000000" stroke-width="2" /></svg>