<?xml version='1.0' encoding='utf-8'?>
<svg xmlns="http://www.w3.org/2000/svg" height="100px" version="1.0" viewBox="0 0 100 100" width="100px" x="0px" y="0px">
<line fill="none" stroke="#000000" stroke-width="2" x1="56" x2="89" y1="24.5" y2="24.5" /><line fill="none" stroke="#000000" stroke-width="2" x1="43" x2="11" y1="24.5" y2="24.5" /><line fill="none" stroke="#000000" stroke-width="2" x1="33" x2="33" y1="50.5" y2="83" /><line fill="none" stroke="#000000" stroke-width="2" x1="77.5" x2="22.5" y1="49.5" y2="49.5" /><line fill="none" stroke="#000000" stroke-width="2" x1="66.5" x2="66.5" y1="91" y2="50.5" /><line fill="none" stroke="#000000" stroke-width="2" x1="34" x2="65.5" y1="71" y2="71" /><line fill="none" stroke="#000000" stroke-width="2" x1="34" x2="65.5" y1="60" y2="60" /><polyline fill="none" points="10,92.5 10,10 44,10 44,40.5 11,40.5" stroke="#000000" stroke-width="2" /><path d="M72,90 c5.387,0.343 9.107,0.5 11.5,0.5 c6.027,0 6.5,-0.449 6.5,-8 V10.0 h-35.0 v30.5 h34.0" fill="none" stroke="#000000" stroke-width="2" /><path d="M21.5,83.5 c13.669,-0.464 29.411,-1.692 45,-3.5" fill="none" stroke="#000000" stroke-width="2" /></svg>