<?xml version='1.0' encoding='utf-8'?>
<svg xmlns="http://www.w3.org/2000/svg" height="100px" version="1.0" viewBox="0 0 100 100" width="100px" x="0px" y="0px">
<line fill="none" stroke="#000000" stroke-width="2" x1="50" x2="50" y1="15" y2="4" /><line fill="none" stroke="#000000" stroke-width="2" x1="6" x2="94" y1="15" y2="15" /><line fill="none" stroke="#000000" stroke-width="2" x1="19" x2="81" y1="74" y2="74" /><line fill="none" stroke="#000000" stroke-width="2" x1="19" x2="81" y1="58" y2="58" /><path d="M92,38.5 c-6.822,-5.733 -16.122,-13.134 -24,-19" fill="none" stroke="#000000" stroke-width="2" /><path d="M8,35 c22.39,-0.481 48.6,-2.107 74,-4.5" fill="none" stroke="#000000" stroke-width="2" /><path d="M25,34.5 c4.855,-5.673 9.671,-12.331 14,-19.5" fill="none" stroke="#000000" stroke-width="2" /><path d="M18,92 v-49.0 h64.0 v42.96 c0,4.177 -0.335,4.54 -8,4.54 c-2.518,0 -6.712,-0.159 -14,-0.5" fill="none" stroke="#000000" stroke-width="2" /></svg>