<?xml version='1.0' encoding='utf-8'?>
<svg xmlns="http://www.w3.org/2000/svg" height="100px" version="1.0" viewBox="0 0 100 100" width="100px" x="0px" y="0px">
<line fill="none" stroke="#000000" stroke-width="2" x1="4.5" x2="48.5" y1="51" y2="47" /><line fill="none" stroke="#000000" stroke-width="2" x1="26.5" x2="26.5" y1="49" y2="81" /><line fill="none" stroke="#000000" stroke-width="2" x1="56" x2="90" y1="86" y2="86" /><polyline fill="none" points="55,93 55,50 91,50 91,93" stroke="#000000" stroke-width="2" /><path d="M4.5,92.5 c5.156,-10.463 7.5,-22.791 7.5,-46.5 v-30.5 h30.0 v67.5 c0,7.505 -0.339,8 -3.9,8 c-1.635,0 -4.753,-0.166 -9.6,-0.5" fill="none" stroke="#000000" stroke-width="2" /><path d="M31,40.5 c-2.914,-6.144 -6.154,-12.252 -9,-17" fill="none" stroke="#000000" stroke-width="2" /><path d="M26.5,4 c-0.602,4.216 -1.244,7.964 -2,11.5" fill="none" stroke="#000000" stroke-width="2" /><path d="M78,8 c3.957,13.806 9.909,26.174 17.5,37" fill="none" stroke="#000000" stroke-width="2" /><path d="M68,8 c-3.957,13.806 -9.909,26.174 -17.5,37" fill="none" stroke="#000000" stroke-width="2" /></svg>