<?xml version='1.0' encoding='utf-8'?>
<svg xmlns="http://www.w3.org/2000/svg" height="100px" version="1.0" viewBox="0 0 100 100" width="100px" x="0px" y="0px">
<line fill="none" stroke="#000000" stroke-width="2" x1="30" x2="66.5" y1="12" y2="12" /><line fill="none" stroke="#000000" stroke-width="2" x1="18.5" x2="84.5" y1="54.5" y2="54.5" /><line fill="none" stroke="#000000" stroke-width="2" x1="52.5" x2="52.5" y1="29" y2="53.5" /><path d="M52.5,28 c4.551,-4.56 9.602,-10.514 13.184,-15.577" fill="none" stroke="#000000" stroke-width="2" /><path d="M5.5,36.5 c13.139,-9.145 22.908,-20.289 29,-33" fill="none" stroke="#000000" stroke-width="2" /><path d="M90.5,68 c-2.662,20.978 -2.91,21.181 -22,22 c-7.449,0.319 -14.216,0.5 -21,0.5 c-6.91,0 -12.473,-0.132 -19.5,-0.5 c-10.219,-0.535 -10.5,-0.816 -10.5,-11.5 V28.0 h68.0 v32.5" fill="none" stroke="#000000" stroke-width="2" /></svg>