<?xml version='1.0' encoding='utf-8'?>
<svg xmlns="http://www.w3.org/2000/svg" height="100px" version="1.0" viewBox="0 0 100 100" width="100px" x="0px" y="0px">
<line fill="none" stroke="#000000" stroke-width="2" x1="26.5" x2="26.5" y1="93" y2="46.5" /><line fill="none" stroke="#000000" stroke-width="2" x1="7" x2="93" y1="16" y2="16" /><line fill="none" stroke="#000000" stroke-width="2" x1="31" x2="31" y1="27" y2="4" /><line fill="none" stroke="#000000" stroke-width="2" x1="69" x2="69" y1="27" y2="4" /><path d="M37,29 c-6.854,15.07 -17.529,27.923 -32,38.5" fill="none" stroke="#000000" stroke-width="2" /><path d="M55,29 v53.0 c0,7.593 0.909,8.467 7,8.9 c3.169,0.224 6.047,0.3 9.5,0.3 c3.576,0 6.314,-0.085 9.5,-0.3 c10.149,-0.686 10.445,-0.979 12,-24.4" fill="none" stroke="#000000" stroke-width="2" /><path d="M55,58 c12.754,-4.349 23.83,-10.019 37,-19" fill="none" stroke="#000000" stroke-width="2" /></svg>