<?xml version='1.0' encoding='utf-8'?>
<svg xmlns="http://www.w3.org/2000/svg" height="100px" version="1.0" viewBox="0 0 100 100" width="100px" x="0px" y="0px">
<line fill="none" stroke="#000000" stroke-width="2" x1="41.5" x2="5.5" y1="47" y2="47" /><line fill="none" stroke="#000000" stroke-width="2" x1="40.5" x2="6.5" y1="24" y2="24" /><line fill="none" stroke="#000000" stroke-width="2" x1="47.5" x2="86.5" y1="44" y2="44" /><line fill="none" stroke="#000000" stroke-width="2" x1="47.5" x2="86.5" y1="27" y2="27" /><polyline fill="none" points="47.5,62 87.5,62 87.5,10.5 46.5,10.5 46.5,63" stroke="#000000" stroke-width="2" /><path d="M6,90 c12.096,-12.774 17.5,-26.587 17.5,-49 v-35.0" fill="none" stroke="#000000" stroke-width="2" /><path d="M40.5,77.5 c-4.774,-7.313 -11.016,-15.124 -18,-22.5" fill="none" stroke="#000000" stroke-width="2" /><path d="M72.5,63 v22.5 c0,3.702 0.772,4.548 4,4.8 c1.561,0.123 3.299,0.2 5,0.2 c1.922,0 3.783,-0.064 5.5,-0.2 c5.238,-0.408 6.208,-1.758 7,-22.3" fill="none" stroke="#000000" stroke-width="2" /><path d="M33,92 c17.416,-5.879 27,-17.066 27,-30" fill="none" stroke="#000000" stroke-width="2" /></svg>