<?xml version='1.0' encoding='utf-8'?>
<svg xmlns="http://www.w3.org/2000/svg" height="100px" version="1.0" viewBox="0 0 100 100" width="100px" x="0px" y="0px">
<line fill="none" stroke="#000000" stroke-width="2" x1="54.5" x2="89" y1="43" y2="43" /><line fill="none" stroke="#000000" stroke-width="2" x1="54.5" x2="89" y1="26.5" y2="26.5" /><line fill="none" stroke="#000000" stroke-width="2" x1="26.5" x2="26.5" y1="16.5" y2="4.5" /><line fill="none" stroke="#000000" stroke-width="2" x1="26.5" x2="26.5" y1="93" y2="40.5" /><line fill="none" stroke="#000000" stroke-width="2" x1="49" x2="5.5" y1="54.5" y2="54.5" /><line fill="none" stroke="#000000" stroke-width="2" x1="49" x2="6.5" y1="16.5" y2="16.5" /><line fill="none" stroke="#000000" stroke-width="2" x1="49" x2="5.5" y1="40.5" y2="40.5" /><polyline fill="none" points="54.5,60.5 90,60.5 90,10.5 53.5,10.5 53.5,61.5" stroke="#000000" stroke-width="2" /><path d="M4.5,82 c10.14,-8.779 17.218,-18.145 21.5,-28" fill="none" stroke="#000000" stroke-width="2" /><path d="M45.5,77 c-4.658,-6.542 -11.041,-14.217 -18.5,-22" fill="none" stroke="#000000" stroke-width="2" /><path d="M77,61.5 v24.0 c0,3.697 0.832,4.554 3.5,4.8 c1.323,0.123 3.056,0.2 4.5,0.2 c1.63,0 3.044,-0.064 4.5,-0.2 c4.199,-0.387 4.84,-1.115 5.5,-21.3" fill="none" stroke="#000000" stroke-width="2" /><path d="M40.5,92 c15.305,-6.038 24,-17.696 24,-31.5" fill="none" stroke="#000000" stroke-width="2" /><path d="M33.5,40.5 c3.256,-6.845 6.053,-15.088 8,-24" fill="none" stroke="#000000" stroke-width="2" /><path d="M19.5,40.5 c-1.642,-7.989 -3.695,-16.294 -6,-24" fill="none" stroke="#000000" stroke-width="2" /></svg>