<?xml version='1.0' encoding='utf-8'?>
<svg xmlns="http://www.w3.org/2000/svg" height="100px" version="1.0" viewBox="0 0 100 100" width="100px" x="0px" y="0px">
<line fill="none" stroke="#000000" stroke-width="2" x1="7" x2="43" y1="24" y2="24" /><line fill="none" stroke="#000000" stroke-width="2" x1="10.5" x2="39.5" y1="38" y2="38" /><line fill="none" stroke="#000000" stroke-width="2" x1="10.5" x2="39.5" y1="52" y2="52" /><line fill="none" stroke="#000000" stroke-width="2" x1="10" x2="40" y1="10.5" y2="10.5" /><polyline fill="none" points="12,88.5 39,88.5 39,66 11,66 11,94.5" stroke="#000000" stroke-width="2" /><polyline fill="none" points="88.5,52 88.5,12 47.5,12" stroke="#000000" stroke-width="2" /><path d="M88.5,44 h-39.0 v34.5 c0,10.792 0.225,10.996 6.5,11.5 c4.301,0.346 7.772,0.5 12,0.5 c4.15,0 8.441,-0.169 13,-0.5 c10.229,-0.747 10.354,-0.894 12,-24.5" fill="none" stroke="#000000" stroke-width="2" /></svg>