<?xml version='1.0' encoding='utf-8'?>
<svg xmlns="http://www.w3.org/2000/svg" height="100px" version="1.0" viewBox="0 0 100 100" width="100px" x="0px" y="0px">
<line fill="none" stroke="#000000" stroke-width="2" x1="7" x2="43" y1="24" y2="24" /><line fill="none" stroke="#000000" stroke-width="2" x1="10.5" x2="39.5" y1="38" y2="38" /><line fill="none" stroke="#000000" stroke-width="2" x1="10.5" x2="39.5" y1="52" y2="52" /><line fill="none" stroke="#000000" stroke-width="2" x1="10" x2="40" y1="10.5" y2="10.5" /><line fill="none" stroke="#000000" stroke-width="2" x1="45" x2="90" y1="48" y2="48" /><polyline fill="none" points="12,88.5 39,88.5 39,66 11,66 11,94.5" stroke="#000000" stroke-width="2" /><path d="M43,42.5 c9.341,-4.243 14,-11.468 14,-26 V10.0 h23.0 v26.5 c0,2.755 0.262,3 4,3 c10.421,0 10.865,-0.383 12,-13.5" fill="none" stroke="#000000" stroke-width="2" /><path d="M44,91 c23.25,-9.289 36.393,-21.942 45.079,-42.39" fill="none" stroke="#000000" stroke-width="2" /><path d="M95,91 c-18.467,-9.364 -32.851,-22.091 -42,-37.5" fill="none" stroke="#000000" stroke-width="2" /></svg>