<?xml version='1.0' encoding='utf-8'?>
<svg xmlns="http://www.w3.org/2000/svg" height="100px" version="1.0" viewBox="0 0 100 100" width="100px" x="0px" y="0px">
<line fill="none" stroke="#000000" stroke-width="2" x1="40" x2="95" y1="37" y2="37" /><line fill="none" stroke="#000000" stroke-width="2" x1="91" x2="44" y1="17" y2="17" /><line fill="none" stroke="#000000" stroke-width="2" x1="67.5" x2="67.5" y1="37" y2="4" /><line fill="none" stroke="#000000" stroke-width="2" x1="95" x2="40" y1="54" y2="54" /><line fill="none" stroke="#000000" stroke-width="2" x1="6" x2="39" y1="24" y2="24" /><line fill="none" stroke="#000000" stroke-width="2" x1="9.5" x2="35.5" y1="38" y2="38" /><line fill="none" stroke="#000000" stroke-width="2" x1="9.5" x2="35.5" y1="52" y2="52" /><line fill="none" stroke="#000000" stroke-width="2" x1="9" x2="36" y1="10.5" y2="10.5" /><polyline fill="none" points="11,88.5 35,88.5 35,66 10,66 10,94.5" stroke="#000000" stroke-width="2" /><path d="M83,37 v45.5 c0,8.474 -0.459,9 -6,9 c-1.902,0 -7.039,-0.18 -13,-0.5" fill="none" stroke="#000000" stroke-width="2" /><path d="M64,81 c-4.961,-6.18 -11.874,-13.175 -19,-19" fill="none" stroke="#000000" stroke-width="2" /></svg>