<?xml version='1.0' encoding='utf-8'?>
<svg xmlns="http://www.w3.org/2000/svg" height="100px" version="1.0" viewBox="0 0 100 100" width="100px" x="0px" y="0px">
<line fill="none" stroke="#000000" stroke-width="2" x1="7" x2="43" y1="24" y2="24" /><line fill="none" stroke="#000000" stroke-width="2" x1="10.5" x2="39.5" y1="38" y2="38" /><line fill="none" stroke="#000000" stroke-width="2" x1="10.5" x2="39.5" y1="52" y2="52" /><line fill="none" stroke="#000000" stroke-width="2" x1="10" x2="40" y1="10.5" y2="10.5" /><line fill="none" stroke="#000000" stroke-width="2" x1="43" x2="95" y1="47.5" y2="47.5" /><line fill="none" stroke="#000000" stroke-width="2" x1="92" x2="46" y1="11" y2="11" /><line fill="none" stroke="#000000" stroke-width="2" x1="66" x2="58" y1="11" y2="47.5" /><line fill="none" stroke="#000000" stroke-width="2" x1="50" x2="88" y1="86.5" y2="86.5" /><polyline fill="none" points="12,88.5 39,88.5 39,66 11,66 11,94.5" stroke="#000000" stroke-width="2" /><polyline fill="none" points="86,46.5 86,28 48,28" stroke="#000000" stroke-width="2" /><polyline fill="none" points="89,92.5 89,59 49,59 49,92.5" stroke="#000000" stroke-width="2" /></svg>