<?xml version='1.0' encoding='utf-8'?>
<svg xmlns="http://www.w3.org/2000/svg" height="100px" version="1.0" viewBox="0 0 100 100" width="100px" x="0px" y="0px">
<line fill="none" stroke="#000000" stroke-width="2" x1="6" x2="39" y1="24" y2="24" /><line fill="none" stroke="#000000" stroke-width="2" x1="9.5" x2="35.5" y1="38" y2="38" /><line fill="none" stroke="#000000" stroke-width="2" x1="9.5" x2="35.5" y1="52" y2="52" /><line fill="none" stroke="#000000" stroke-width="2" x1="9" x2="36" y1="10.5" y2="10.5" /><line fill="none" stroke="#000000" stroke-width="2" x1="43.5" x2="89.5" y1="31.5" y2="31.5" /><line fill="none" stroke="#000000" stroke-width="2" x1="93" x2="42" y1="15" y2="15" /><line fill="none" stroke="#000000" stroke-width="2" x1="66.5" x2="66.5" y1="31.5" y2="5" /><polyline fill="none" points="11,88.5 35,88.5 35,66 10,66 10,94.5" stroke="#000000" stroke-width="2" /><polyline fill="none" points="90,61 90,44 43.5,44 43.5,62" stroke="#000000" stroke-width="2" /><path d="M39,92 c13.363,-5.217 20,-15.741 20,-40" fill="none" stroke="#000000" stroke-width="2" /><path d="M73,52 v31.8 c0,6.986 0.246,7.2 9.5,7.2 c9.058,0 9.585,-0.565 10,-19" fill="none" stroke="#000000" stroke-width="2" /></svg>