<?xml version='1.0' encoding='utf-8'?>
<svg xmlns="http://www.w3.org/2000/svg" height="100px" version="1.0" viewBox="0 0 100 100" width="100px" x="0px" y="0px">
<line fill="none" stroke="#000000" stroke-width="2" x1="38.5" x2="38.5" y1="3" y2="39" /><line fill="none" stroke="#000000" stroke-width="2" x1="61.5" x2="61.5" y1="3" y2="39" /><line fill="none" stroke="#000000" stroke-width="2" x1="16" x2="84" y1="26" y2="26" /><line fill="none" stroke="#000000" stroke-width="2" x1="7" x2="93" y1="90" y2="90" /><line fill="none" stroke="#000000" stroke-width="2" x1="8" x2="92" y1="48.5" y2="48.5" /><polyline fill="none" points="16,40 85,40 85,13 15,13 15,41" stroke="#000000" stroke-width="2" /><polyline fill="none" points="20,73 20,57 80,57 80,72 21,72" stroke="#000000" stroke-width="2" /><path d="M59,90 c5.223,-5.356 9.595,-11.434 13,-18" fill="none" stroke="#000000" stroke-width="2" /><path d="M37,90 c-2.515,-5.979 -5.605,-12.193 -9,-18" fill="none" stroke="#000000" stroke-width="2" /></svg>