<?xml version='1.0' encoding='utf-8'?>
<svg xmlns="http://www.w3.org/2000/svg" height="100px" version="1.0" viewBox="0 0 100 100" width="100px" x="0px" y="0px">
<line fill="none" stroke="#000000" stroke-width="2" x1="47.5" x2="9" y1="16" y2="16" /><line fill="none" stroke="#000000" stroke-width="2" x1="29.5" x2="48" y1="59" y2="59" /><line fill="none" stroke="#000000" stroke-width="2" x1="29.5" x2="29.5" y1="85" y2="4" /><line fill="none" stroke="#000000" stroke-width="2" x1="6" x2="48.5" y1="37" y2="37" /><polyline fill="none" points="87.5,45 87.5,12 52.5,12" stroke="#000000" stroke-width="2" /><path d="M6,92 c4.844,-11.728 8.35,-27.343 9.5,-44" fill="none" stroke="#000000" stroke-width="2" /><path d="M93,90 h-34.0 c-29.105,0 -39.121,-6.191 -45.25,-27" fill="none" stroke="#000000" stroke-width="2" /><path d="M87.5,38.5 h-33.0 v28.09 c0,8.585 0.536,9.082 6,9.511 c3.613,0.283 6.449,0.399 10,0.399 c3.486,0 7.171,-0.128 11,-0.399 c8.646,-0.617 8.797,-0.791 9.5,-20.101" fill="none" stroke="#000000" stroke-width="2" /></svg>