<?xml version='1.0' encoding='utf-8'?>
<svg xmlns="http://www.w3.org/2000/svg" height="100px" version="1.0" viewBox="0 0 100 100" width="100px" x="0px" y="0px">
<line fill="none" stroke="#000000" stroke-width="2" x1="94" x2="50.5" y1="39" y2="39" /><line fill="none" stroke="#000000" stroke-width="2" x1="90" x2="52" y1="12" y2="12" /><line fill="none" stroke="#000000" stroke-width="2" x1="11" x2="45" y1="47" y2="47" /><line fill="none" stroke="#000000" stroke-width="2" x1="6" x2="49" y1="78" y2="78" /><line fill="none" stroke="#000000" stroke-width="2" x1="28" x2="28" y1="95" y2="4" /><line fill="none" stroke="#000000" stroke-width="2" x1="6" x2="49" y1="17" y2="17" /><polyline fill="none" points="11,65 46,65 46,30 10,30 10,66" stroke="#000000" stroke-width="2" /><path d="M94.5,92 c-3.746,-11.451 -9.203,-25.86 -14,-37" fill="none" stroke="#000000" stroke-width="2" /><path d="M47.5,89 c12.977,-1.602 27.994,-4.378 43,-8" fill="none" stroke="#000000" stroke-width="2" /><path d="M56.5,88 c3.508,-13.997 7.025,-31.088 10,-49" fill="none" stroke="#000000" stroke-width="2" /></svg>