<?xml version='1.0' encoding='utf-8'?>
<svg xmlns="http://www.w3.org/2000/svg" height="100px" version="1.0" viewBox="0 0 100 100" width="100px" x="0px" y="0px">
<line fill="none" stroke="#000000" stroke-width="2" x1="10.5" x2="42.5" y1="47" y2="47" /><line fill="none" stroke="#000000" stroke-width="2" x1="5" x2="47" y1="78" y2="78" /><line fill="none" stroke="#000000" stroke-width="2" x1="26.5" x2="26.5" y1="95" y2="5" /><line fill="none" stroke="#000000" stroke-width="2" x1="5" x2="47" y1="17" y2="17" /><line fill="none" stroke="#000000" stroke-width="2" x1="49.5" x2="92" y1="11" y2="11" /><line fill="none" stroke="#000000" stroke-width="2" x1="45" x2="96" y1="89.5" y2="89.5" /><line fill="none" stroke="#000000" stroke-width="2" x1="94" x2="50" y1="63.5" y2="63.5" /><line fill="none" stroke="#000000" stroke-width="2" x1="72" x2="72" y1="89.5" y2="47" /><polyline fill="none" points="10.5,65 43.5,65 43.5,30 9.5,30 9.5,66" stroke="#000000" stroke-width="2" /><path d="M48.5,52 c21.639,-8.721 34.312,-20.757 42.578,-40.388" fill="none" stroke="#000000" stroke-width="2" /><path d="M95,52 c-16.848,-8.913 -30,-21.421 -38.5,-36" fill="none" stroke="#000000" stroke-width="2" /></svg>