<?xml version='1.0' encoding='utf-8'?>
<svg xmlns="http://www.w3.org/2000/svg" height="100px" version="1.0" viewBox="0 0 100 100" width="100px" x="0px" y="0px">
<line fill="none" stroke="#000000" stroke-width="2" x1="38" x2="86" y1="30" y2="30" /><polyline fill="none" points="23,75 23,45 6,45" stroke="#000000" stroke-width="2" /><path d="M38.5,79 c22.234,-8.508 38.715,-25.462 46.555,-48.324" fill="none" stroke="#000000" stroke-width="2" /><path d="M92.5,79 c-21.77,-8.533 -36.071,-22.239 -44.5,-43" fill="none" stroke="#000000" stroke-width="2" /><path d="M9,10 c5.725,5.621 10.574,10.782 16,17" fill="none" stroke="#000000" stroke-width="2" /><path d="M6,92 c8.029,-5.713 13.36,-11.114 17,-17" fill="none" stroke="#000000" stroke-width="2" /><path d="M93,90 h-34.0 c-21.543,0 -30.148,-3.961 -36,-15" fill="none" stroke="#000000" stroke-width="2" /><path d="M29.5,78 c5.711,-11.71 8.5,-24.86 8.5,-42.5 V11.0 h52.0" fill="none" stroke="#000000" stroke-width="2" /></svg>