<?xml version='1.0' encoding='utf-8'?>
<svg xmlns="http://www.w3.org/2000/svg" height="100px" version="1.0" viewBox="0 0 100 100" width="100px" x="0px" y="0px">
<line fill="none" stroke="#000000" stroke-width="2" x1="61.5" x2="61.5" y1="83" y2="6" /><line fill="none" stroke="#000000" stroke-width="2" x1="92" x2="30" y1="40" y2="40" /><polyline fill="none" points="23,75 23,45 6,45" stroke="#000000" stroke-width="2" /><path d="M29.5,74.001 c14.883,-10.859 24.816,-21.96 31,-34.001" fill="none" stroke="#000000" stroke-width="2" /><path d="M92.5,74.001 c-14.4,-10.856 -24.016,-21.96 -30,-34.001" fill="none" stroke="#000000" stroke-width="2" /><path d="M49.5,33 c-4.461,-7.823 -9.334,-15.471 -14,-22" fill="none" stroke="#000000" stroke-width="2" /><path d="M73.5,33 c5.217,-6.99 9.918,-14.97 13,-22" fill="none" stroke="#000000" stroke-width="2" /><path d="M9,10 c5.725,5.621 10.574,10.782 16,17" fill="none" stroke="#000000" stroke-width="2" /><path d="M6,92 c8.029,-5.713 13.36,-11.114 17,-17" fill="none" stroke="#000000" stroke-width="2" /><path d="M93,90 h-34.0 c-21.543,0 -30.148,-3.961 -36,-15" fill="none" stroke="#000000" stroke-width="2" /></svg>