<?xml version='1.0' encoding='utf-8'?>
<svg xmlns="http://www.w3.org/2000/svg" height="100px" version="1.0" viewBox="0 0 100 100" width="100px" x="0px" y="0px">
<line fill="none" stroke="#000000" stroke-width="2" x1="89" x2="34" y1="23.5" y2="23.5" /><line fill="none" stroke="#000000" stroke-width="2" x1="91" x2="32" y1="44" y2="44" /><polyline fill="none" points="23,75 23,45 6,45" stroke="#000000" stroke-width="2" /><path d="M9,10 c5.725,5.621 10.574,10.782 16,17" fill="none" stroke="#000000" stroke-width="2" /><path d="M34,79 c18.019,-6.923 28.5,-19.677 28.5,-35 v-20.5" fill="none" stroke="#000000" stroke-width="2" /><path d="M54,19.5 c-2.549,-4.979 -5.327,-9.85 -8,-14" fill="none" stroke="#000000" stroke-width="2" /><path d="M70,23.5 c3.777,-6.096 7.37,-12.743 10,-18.5" fill="none" stroke="#000000" stroke-width="2" /><path d="M6,92 c8.029,-5.713 13.36,-11.114 17,-17" fill="none" stroke="#000000" stroke-width="2" /><path d="M93,90 h-34.0 c-21.543,0 -30.148,-3.961 -36,-15" fill="none" stroke="#000000" stroke-width="2" /><path d="M87,80.5 c-6.584,-9.882 -15.142,-20.249 -25,-30" fill="none" stroke="#000000" stroke-width="2" /></svg>