<?xml version='1.0' encoding='utf-8'?>
<svg xmlns="http://www.w3.org/2000/svg" height="100px" version="1.0" viewBox="0 0 100 100" width="100px" x="0px" y="0px">
<line fill="none" stroke="#000000" stroke-width="2" x1="36" x2="88" y1="58" y2="58" /><line fill="none" stroke="#000000" stroke-width="2" x1="36" x2="88" y1="41" y2="41" /><line fill="none" stroke="#000000" stroke-width="2" x1="33" x2="90" y1="10" y2="10" /><line fill="none" stroke="#000000" stroke-width="2" x1="62" x2="62" y1="26" y2="79" /><polyline fill="none" points="23,75 23,45 6,45" stroke="#000000" stroke-width="2" /><path d="M9,10 c5.725,5.621 10.574,10.782 16,17" fill="none" stroke="#000000" stroke-width="2" /><path d="M6,92 c8.029,-5.713 13.36,-11.114 17,-17" fill="none" stroke="#000000" stroke-width="2" /><path d="M93,90 h-34.0 c-21.543,0 -30.148,-3.961 -36,-15" fill="none" stroke="#000000" stroke-width="2" /><path d="M35,80 v-55.0 h54.0 v46.0 c0,6.833 -0.619,7.5 -6,7.5 c-1.959,0 -5.691,-0.138 -11.5,-0.5" fill="none" stroke="#000000" stroke-width="2" /><path d="M44.5,15 c5.938,3.012 12.041,6.298 18.5,10" fill="none" stroke="#000000" stroke-width="2" /><path d="M89.4,10.199 c-4.773,3.572 -16.765,10.108 -26.9,14.301" fill="none" stroke="#000000" stroke-width="2" /></svg>