<?xml version='1.0' encoding='utf-8'?>
<svg xmlns="http://www.w3.org/2000/svg" height="100px" version="1.0" viewBox="0 0 100 100" width="100px" x="0px" y="0px">
<line fill="none" stroke="#000000" stroke-width="2" x1="43" x2="82" y1="21" y2="21" /><line fill="none" stroke="#000000" stroke-width="2" x1="41" x2="84" y1="37.5" y2="37.5" /><line fill="none" stroke="#000000" stroke-width="2" x1="62.5" x2="62.5" y1="37.5" y2="10" /><polyline fill="none" points="22,75 22,45 6,45" stroke="#000000" stroke-width="2" /><polyline fill="none" points="48,69.5 78,69.5 78,47 47,47 47,75.5" stroke="#000000" stroke-width="2" /><path d="M8,10 c5.725,5.621 10.574,10.782 16,17" fill="none" stroke="#000000" stroke-width="2" /><path d="M6,92 c7.74,-6.099 12.36,-11.114 16,-17" fill="none" stroke="#000000" stroke-width="2" /><path d="M93,90 h-35.0 c-21.543,0 -30.148,-3.961 -36,-15" fill="none" stroke="#000000" stroke-width="2" /><path d="M30,79.5 c3.785,-9.137 5.5,-19.895 5.5,-40 V10.0 h54.0 v61.5 c0,6.906 -0.636,7.5 -6,7.5 c-1.893,0 -5.387,-0.164 -11,-0.5" fill="none" stroke="#000000" stroke-width="2" /></svg>