<?xml version='1.0' encoding='utf-8'?>
<svg xmlns="http://www.w3.org/2000/svg" height="100px" version="1.0" viewBox="0 0 100 100" width="100px" x="0px" y="0px">
<line fill="none" stroke="#000000" stroke-width="2" x1="90.5" x2="39.5" y1="18.5" y2="18.5" /><line fill="none" stroke="#000000" stroke-width="2" x1="64.5" x2="64.5" y1="74" y2="18.5" /><line fill="none" stroke="#000000" stroke-width="2" x1="39" x2="88.5" y1="55" y2="55" /><line fill="none" stroke="#000000" stroke-width="2" x1="39" x2="88.5" y1="36.5" y2="36.5" /><polyline fill="none" points="39,19 39,74 92,74" stroke="#000000" stroke-width="2" /><polyline fill="none" points="23,75 23,45 6,45" stroke="#000000" stroke-width="2" /><path d="M9,10 c5.725,5.621 10.574,10.782 16,17" fill="none" stroke="#000000" stroke-width="2" /><path d="M6,92 c8.029,-5.713 13.36,-11.114 17,-17" fill="none" stroke="#000000" stroke-width="2" /><path d="M93,90 h-34.0 c-21.543,0 -30.148,-3.961 -36,-15" fill="none" stroke="#000000" stroke-width="2" /><path d="M70.5,5 c-1.715,4.949 -3.702,9.311 -6,13.5" fill="none" stroke="#000000" stroke-width="2" /><path d="M27,38.5 c7.301,-9.009 12.572,-19.516 16.5,-33.5" fill="none" stroke="#000000" stroke-width="2" /></svg>