<?xml version='1.0' encoding='utf-8'?>
<svg xmlns="http://www.w3.org/2000/svg" height="100px" version="1.0" viewBox="0 0 100 100" width="100px" x="0px" y="0px">
<line fill="none" stroke="#000000" stroke-width="2" x1="36.5" x2="85" y1="45" y2="45" /><line fill="none" stroke="#000000" stroke-width="2" x1="29" x2="93" y1="71.5" y2="71.5" /><line fill="none" stroke="#000000" stroke-width="2" x1="61" x2="61" y1="85" y2="11" /><line fill="none" stroke="#000000" stroke-width="2" x1="35" x2="86" y1="21.5" y2="21.5" /><polyline fill="none" points="36.5,60 86,60 86,32 35.5,32 35.5,61" stroke="#000000" stroke-width="2" /><polyline fill="none" points="91,26 91,10 30,10 30,26" stroke="#000000" stroke-width="2" /><polyline fill="none" points="22,75 22,45 6,45" stroke="#000000" stroke-width="2" /><path d="M8,10 c5.725,5.621 10.574,10.782 16,17" fill="none" stroke="#000000" stroke-width="2" /><path d="M6,92 c7.74,-6.099 12.36,-11.114 16,-17" fill="none" stroke="#000000" stroke-width="2" /><path d="M93,90 h-35.0 c-21.543,0 -30.148,-3.961 -36,-15" fill="none" stroke="#000000" stroke-width="2" /></svg>