<?xml version='1.0' encoding='utf-8'?>
<svg xmlns="http://www.w3.org/2000/svg" height="100px" version="1.0" viewBox="0 0 100 100" width="100px" x="0px" y="0px">
<line fill="none" stroke="#000000" stroke-width="2" x1="38" x2="85" y1="60.5" y2="60.5" /><line fill="none" stroke="#000000" stroke-width="2" x1="38" x2="85" y1="45.5" y2="45.5" /><line fill="none" stroke="#000000" stroke-width="2" x1="28" x2="93" y1="18" y2="18" /><polyline fill="none" points="23,75 23,45 6,45" stroke="#000000" stroke-width="2" /><polyline fill="none" points="38,76 86,76 86,31 37,31 37,77" stroke="#000000" stroke-width="2" /><path d="M9,10 c5.725,5.621 10.574,10.782 16,17" fill="none" stroke="#000000" stroke-width="2" /><path d="M6,92 c8.029,-5.713 13.36,-11.114 17,-17" fill="none" stroke="#000000" stroke-width="2" /><path d="M93,90 h-34.0 c-21.543,0 -30.148,-3.961 -36,-15" fill="none" stroke="#000000" stroke-width="2" /><path d="M62,18 c-1.766,5.43 -2.941,8.464 -5,13" fill="none" stroke="#000000" stroke-width="2" /><path d="M51,18 c-2.549,-4.979 -5.064,-9.03 -8,-13" fill="none" stroke="#000000" stroke-width="2" /><path d="M70,18 c3.181,-4.505 5.761,-8.711 8,-13" fill="none" stroke="#000000" stroke-width="2" /></svg>