<?xml version='1.0' encoding='utf-8'?>
<svg xmlns="http://www.w3.org/2000/svg" height="100px" version="1.0" viewBox="0 0 100 100" width="100px" x="0px" y="0px">
<line fill="none" stroke="#000000" stroke-width="2" x1="34" x2="88" y1="13.5" y2="13.5" /><line fill="none" stroke="#000000" stroke-width="2" x1="31" x2="91" y1="27.5" y2="27.5" /><line fill="none" stroke="#000000" stroke-width="2" x1="61" x2="61" y1="27.5" y2="4" /><line fill="none" stroke="#000000" stroke-width="2" x1="61" x2="61" y1="84" y2="58" /><polyline fill="none" points="39,54 84,54 84,36.5 38,36.5 38,55" stroke="#000000" stroke-width="2" /><polyline fill="none" points="23,75 23,45 6,45" stroke="#000000" stroke-width="2" /><path d="M30,77 c17.263,-7.699 28.011,-15.338 34.5,-23" fill="none" stroke="#000000" stroke-width="2" /><path d="M92,77 c-9.656,-6.693 -19.771,-12.56 -31,-18" fill="none" stroke="#000000" stroke-width="2" /><path d="M74,66 c5.568,-3.606 10.798,-7.32 15.5,-11" fill="none" stroke="#000000" stroke-width="2" /><path d="M9,10 c5.725,5.621 10.574,10.782 16,17" fill="none" stroke="#000000" stroke-width="2" /><path d="M6,92 c8.029,-5.713 13.36,-11.114 17,-17" fill="none" stroke="#000000" stroke-width="2" /><path d="M93,90 h-34.0 c-21.543,0 -30.148,-3.961 -36,-15" fill="none" stroke="#000000" stroke-width="2" /></svg>