<?xml version='1.0' encoding='utf-8'?>
<svg xmlns="http://www.w3.org/2000/svg" height="100px" version="1.0" viewBox="0 0 100 100" width="100px" x="0px" y="0px">
<line fill="none" stroke="#000000" stroke-width="2" x1="93" x2="28" y1="65" y2="65" /><line fill="none" stroke="#000000" stroke-width="2" x1="32" x2="90" y1="49" y2="49" /><line fill="none" stroke="#000000" stroke-width="2" x1="48" x2="48" y1="64" y2="38" /><line fill="none" stroke="#000000" stroke-width="2" x1="74" x2="74" y1="64" y2="38" /><polyline fill="none" points="22,75 22,45 5,45" stroke="#000000" stroke-width="2" /><path d="M30.5,84.5 c9.68,-4.186 17.936,-9.757 23,-15" fill="none" stroke="#000000" stroke-width="2" /><path d="M91.5,85.5 c-6.025,-5.166 -14.133,-10.684 -23,-15.5" fill="none" stroke="#000000" stroke-width="2" /><path d="M57.5,29 c-0.949,8.227 -1.24,8.508 -7,8.8 c-2.635,0.133 -5.012,0.2 -7.5,0.2 c-2.313,0 -4.47,-0.06 -7,-0.2 c-4.599,-0.253 -5,-0.604 -5,-4.11 V22.5 h25.0 V10.0 h-26.5" fill="none" stroke="#000000" stroke-width="2" /><path d="M7.5,10 c5.725,5.621 10.574,10.782 16,17" fill="none" stroke="#000000" stroke-width="2" /><path d="M5,92 c8.029,-5.713 13.36,-11.114 17,-17" fill="none" stroke="#000000" stroke-width="2" /><path d="M93.5,90 H58.0 c-21.543,0 -30.148,-3.961 -36,-15" fill="none" stroke="#000000" stroke-width="2" /><path d="M90.5,29 c-0.949,8.227 -1.24,8.508 -7,8.8 c-2.635,0.133 -5.012,0.2 -7.5,0.2 c-2.313,0 -4.47,-0.06 -7,-0.2 c-4.599,-0.253 -5,-0.604 -5,-4.11 V22.5 h25.0 V10.0 h-26.0" fill="none" stroke="#000000" stroke-width="2" /></svg>