<?xml version='1.0' encoding='utf-8'?>
<svg xmlns="http://www.w3.org/2000/svg" height="100px" version="1.0" viewBox="0 0 100 100" width="100px" x="0px" y="0px">
<line fill="none" stroke="#000000" stroke-width="2" x1="48" x2="96" y1="43.5" y2="43.5" /><line fill="none" stroke="#000000" stroke-width="2" x1="92" x2="53" y1="11" y2="11" /><line fill="none" stroke="#000000" stroke-width="2" x1="29.5" x2="29.5" y1="11" y2="84.5" /><line fill="none" stroke="#000000" stroke-width="2" x1="11.5" x2="47" y1="28.5" y2="28.5" /><line fill="none" stroke="#000000" stroke-width="2" x1="50" x2="8.5" y1="63" y2="63" /><polyline fill="none" points="11.5,48 48,48 48,10 10.5,10 10.5,49" stroke="#000000" stroke-width="2" /><path d="M91.135,11.498 c-5.363,9.261 -10.824,16.499 -17.635,23.502" fill="none" stroke="#000000" stroke-width="2" /><path d="M81.5,43.5 c-6.072,-6.947 -13.386,-14.099 -21.5,-21" fill="none" stroke="#000000" stroke-width="2" /><path d="M6.5,89 c14.908,-2.489 27.813,-5.403 44,-10" fill="none" stroke="#000000" stroke-width="2" /><path d="M73.5,43.5 v39.0 c0,7.393 -0.51,8 -6.5,8 c-3.573,0 -7.965,-0.168 -13,-0.5" fill="none" stroke="#000000" stroke-width="2" /><path d="M82.5,64.5 c5.018,-6.154 8.901,-12.451 12.593,-20.42" fill="none" stroke="#000000" stroke-width="2" /></svg>