<?xml version='1.0' encoding='utf-8'?>
<svg xmlns="http://www.w3.org/2000/svg" height="100px" version="1.0" viewBox="0 0 100 100" width="100px" x="0px" y="0px">
<line fill="none" stroke="#000000" stroke-width="2" x1="53.5" x2="89" y1="28" y2="28" /><line fill="none" stroke="#000000" stroke-width="2" x1="46.5" x2="6.5" y1="47" y2="47" /><line fill="none" stroke="#000000" stroke-width="2" x1="43.5" x2="11.5" y1="28" y2="28" /><line fill="none" stroke="#000000" stroke-width="2" x1="27" x2="27" y1="84.5" y2="28" /><polyline fill="none" points="53.5,47 90,47 90,10.5 52.5,10.5 52.5,89" stroke="#000000" stroke-width="2" /><path d="M65.5,47 c5.309,20.312 17.035,36.434 31,44.5" fill="none" stroke="#000000" stroke-width="2" /><path d="M40,91.5 c12.518,-1.968 23.568,-4.481 36.5,-8.5" fill="none" stroke="#000000" stroke-width="2" /><path d="M75.5,70 c6.807,-4.9 13.801,-11.972 19.246,-19.5" fill="none" stroke="#000000" stroke-width="2" /><path d="M5.5,89.5 c15.053,-2.877 27.354,-6.513 41,-12" fill="none" stroke="#000000" stroke-width="2" /><path d="M47,23 c-7.589,-4.952 -13.869,-10.14 -20,-16.5 c-6.849,8.159 -14.079,15.12 -22.5,21.5" fill="none" stroke="#000000" stroke-width="2" /><path d="M17.5,76 c-2.387,-7.582 -4.948,-14.762 -7.5,-21" fill="none" stroke="#000000" stroke-width="2" /><path d="M36.5,73 c2.857,-6.433 5.416,-12.93 7.5,-19" fill="none" stroke="#000000" stroke-width="2" /></svg>