<?xml version='1.0' encoding='utf-8'?>
<svg xmlns="http://www.w3.org/2000/svg" height="100px" version="1.0" viewBox="0 0 100 100" width="100px" x="0px" y="0px">
<line fill="none" stroke="#000000" stroke-width="2" x1="56" x2="89" y1="25" y2="25" /><line fill="none" stroke="#000000" stroke-width="2" x1="43" x2="11" y1="25" y2="25" /><line fill="none" stroke="#000000" stroke-width="2" x1="23" x2="77" y1="55.5" y2="55.5" /><polyline fill="none" points="10,92.5 10,10 44,10 44,41.5 11,41.5" stroke="#000000" stroke-width="2" /><path d="M69,90 c6.262,0.361 10.217,0.5 13,0.5 c7.188,0 8,-0.666 8,-8 V10.0 h-35.0 v31.5 h34.0" fill="none" stroke="#000000" stroke-width="2" /><path d="M59,45.5 v39.5 c0,3.781 -0.719,4.5 -5,4.5 c-3.49,0 -7.846,-0.202 -11,-0.5" fill="none" stroke="#000000" stroke-width="2" /><path d="M22.5,82 c12.871,-6.136 27.742,-17.063 36.5,-26.5" fill="none" stroke="#000000" stroke-width="2" /></svg>