<?xml version='1.0' encoding='utf-8'?>
<svg xmlns="http://www.w3.org/2000/svg" height="100px" version="1.0" viewBox="0 0 100 100" width="100px" x="0px" y="0px">
<line fill="none" stroke="#000000" stroke-width="2" x1="77" x2="22.5" y1="66" y2="66" /><line fill="none" stroke="#000000" stroke-width="2" x1="25" x2="75" y1="50.5" y2="50.5" /><line fill="none" stroke="#000000" stroke-width="2" x1="56" x2="89" y1="25" y2="25" /><line fill="none" stroke="#000000" stroke-width="2" x1="43" x2="11" y1="25" y2="25" /><line fill="none" stroke="#000000" stroke-width="2" x1="60.5" x2="60.5" y1="50.5" y2="89.5" /><polyline fill="none" points="10,92.5 10,10 44,10 44,41.5 11,41.5" stroke="#000000" stroke-width="2" /><path d="M69,90 c6.263,0.361 10.218,0.5 13,0.5 c7.188,0 8,-0.666 8,-8 V10.0 h-35.0 v31.5 h34.0" fill="none" stroke="#000000" stroke-width="2" /><path d="M24.5,89.5 c10.566,-5.702 16,-14.614 16,-28.5 v-9.5" fill="none" stroke="#000000" stroke-width="2" /></svg>