<?xml version='1.0' encoding='utf-8'?>
<svg xmlns="http://www.w3.org/2000/svg" height="100px" version="1.0" viewBox="0 0 100 100" width="100px" x="0px" y="0px">
<line fill="none" stroke="#000000" stroke-width="2" x1="92" x2="35" y1="50" y2="50" /><line fill="none" stroke="#000000" stroke-width="2" x1="83.5" x2="43.5" y1="31" y2="31" /><line fill="none" stroke="#000000" stroke-width="2" x1="63" x2="63" y1="16" y2="4" /><polyline fill="none" points="34,10 10,10 10,93" stroke="#000000" stroke-width="2" /><polyline fill="none" points="90.5,34 90.5,16 36.5,16 36.5,34" stroke="#000000" stroke-width="2" /><path d="M15,71 h4.0 c7.789,0 11,-2.928 11,-10.5 c0,-8.302 -2.023,-13.576 -10,-23.5 c5.083,-8.09 9.91,-17.88 13.063,-26.349" fill="none" stroke="#000000" stroke-width="2" /><path d="M25.5,91.5 c21.745,-6.462 29,-15.771 29,-41.5" fill="none" stroke="#000000" stroke-width="2" /><path d="M71.5,50 v34.5 c0,5.396 0.592,6 10.5,6 c10.795,0 11.02,-0.242 11.5,-22.5" fill="none" stroke="#000000" stroke-width="2" /></svg>