<?xml version='1.0' encoding='utf-8'?>
<svg xmlns="http://www.w3.org/2000/svg" height="100px" version="1.0" viewBox="0 0 100 100" width="100px" x="0px" y="0px">
<line fill="none" stroke="#000000" stroke-width="2" x1="37.5" x2="61" y1="21" y2="21" /><line fill="none" stroke="#000000" stroke-width="2" x1="37.5" x2="37.5" y1="43" y2="7.5" /><line fill="none" stroke="#000000" stroke-width="2" x1="38" x2="88.5" y1="87" y2="87" /><line fill="none" stroke="#000000" stroke-width="2" x1="38" x2="88.5" y1="68.5" y2="68.5" /><polyline fill="none" points="89.5,93 89.5,51.5 37,51.5 37,93" stroke="#000000" stroke-width="2" /><polyline fill="none" points="32,10 10,10 10,93" stroke="#000000" stroke-width="2" /><path d="M66.5,7.5 v30.0 c0,4.079 0.479,4.513 5,4.8 c2.252,0.143 4.545,0.2 7,0.2 c2.544,0 4.736,-0.058 7,-0.2 c6.502,-0.412 6.643,-0.576 8,-16.8" fill="none" stroke="#000000" stroke-width="2" /><path d="M66.5,23.5 c9.05,-2.438 17.237,-5.827 26.5,-11" fill="none" stroke="#000000" stroke-width="2" /><path d="M30,44.5 c10.702,-1.652 20.96,-4.222 32,-8" fill="none" stroke="#000000" stroke-width="2" /><path d="M62.5,42 c-1.52,3.519 -3.293,6.552 -5.5,9.5" fill="none" stroke="#000000" stroke-width="2" /><path d="M14,71 h4.0 c7.789,0 11,-2.928 11,-10.5 c0,-8.302 -2.023,-13.576 -10,-23.5 c5.074,-8.07 9.492,-17.637 12.041,-26.283" fill="none" stroke="#000000" stroke-width="2" /></svg>