<?xml version='1.0' encoding='utf-8'?>
<svg xmlns="http://www.w3.org/2000/svg" height="100px" version="1.0" viewBox="0 0 100 100" width="100px" x="0px" y="0px">
<line fill="none" stroke="#000000" stroke-width="2" x1="51" x2="51" y1="54" y2="17" /><line fill="none" stroke="#000000" stroke-width="2" x1="50" x2="50" y1="94" y2="56" /><line fill="none" stroke="#000000" stroke-width="2" x1="92.5" x2="6.5" y1="66" y2="66" /><line fill="none" stroke="#000000" stroke-width="2" x1="87" x2="17" y1="16" y2="16" /><line fill="none" stroke="#000000" stroke-width="2" x1="18" x2="84" y1="29" y2="29" /><line fill="none" stroke="#000000" stroke-width="2" x1="18" x2="84" y1="42" y2="42" /><polyline fill="none" points="17,16 17,55 87,55" stroke="#000000" stroke-width="2" /><path d="M5,30 c8.624,-8.031 14.41,-16.146 18,-25" fill="none" stroke="#000000" stroke-width="2" /><path d="M6,89.5 c20.602,-7.556 34.025,-15.1 43,-23" fill="none" stroke="#000000" stroke-width="2" /><path d="M94,89.5 c-20.602,-7.556 -34.025,-15.1 -43,-23" fill="none" stroke="#000000" stroke-width="2" /><path d="M56.5,5 c-1.955,4.184 -3.587,7.183 -6,11" fill="none" stroke="#000000" stroke-width="2" /></svg>