<?xml version='1.0' encoding='utf-8'?>
<svg xmlns="http://www.w3.org/2000/svg" height="100px" version="1.0" viewBox="0 0 100 100" width="100px" x="0px" y="0px">
<line fill="none" stroke="#000000" stroke-width="2" x1="50" x2="50" y1="89" y2="11" /><line fill="none" stroke="#000000" stroke-width="2" x1="8" x2="92" y1="11" y2="11" /><path d="M67,89 c7.633,0.348 12.432,0.5 15,0.5 c6.958,0 8,-0.989 8,-8 V28.0 h-80.0 v63.0" fill="none" stroke="#000000" stroke-width="2" /><path d="M40,51.5 c-6.602,-5.277 -13.515,-10.086 -20,-14" fill="none" stroke="#000000" stroke-width="2" /><path d="M40,73.5 c-6.602,-5.277 -13.515,-10.086 -20,-14" fill="none" stroke="#000000" stroke-width="2" /><path d="M80,51 c-6.602,-5.277 -13.515,-10.086 -20,-14" fill="none" stroke="#000000" stroke-width="2" /><path d="M80,73 c-6.602,-5.277 -13.515,-10.086 -20,-14" fill="none" stroke="#000000" stroke-width="2" /></svg>