<?xml version='1.0' encoding='utf-8'?>
<svg xmlns="http://www.w3.org/2000/svg" height="100px" version="1.0" viewBox="0 0 100 100" width="100px" x="0px" y="0px">
<line fill="none" stroke="#000000" stroke-width="2" x1="50" x2="50" y1="48" y2="10" /><line fill="none" stroke="#000000" stroke-width="2" x1="12.5" x2="87.5" y1="10" y2="10" /><line fill="none" stroke="#000000" stroke-width="2" x1="18.5" x2="42" y1="31" y2="31" /><line fill="none" stroke="#000000" stroke-width="2" x1="18.5" x2="42" y1="42" y2="42" /><line fill="none" stroke="#000000" stroke-width="2" x1="58" x2="81.5" y1="31" y2="31" /><line fill="none" stroke="#000000" stroke-width="2" x1="58" x2="81.5" y1="42" y2="42" /><line fill="none" stroke="#000000" stroke-width="2" x1="92.5" x2="7.5" y1="67" y2="67" /><line fill="none" stroke="#000000" stroke-width="2" x1="85.5" x2="14.5" y1="54" y2="54" /><polyline fill="none" points="89.5,41 89.5,21 10.5,21 10.5,41" stroke="#000000" stroke-width="2" /><path d="M89,93 c-5.229,-6.326 -12.994,-14.506 -20,-21" fill="none" stroke="#000000" stroke-width="2" /><path d="M25,89.5 c6.35,-6.422 12.645,-14.304 18,-22.5" fill="none" stroke="#000000" stroke-width="2" /><path d="M11,90 c21.783,-0.375 47.295,-1.574 72,-3.5" fill="none" stroke="#000000" stroke-width="2" /></svg>