<?xml version='1.0' encoding='utf-8'?>
<svg xmlns="http://www.w3.org/2000/svg" height="100px" version="1.0" viewBox="0 0 100 100" width="100px" x="0px" y="0px">
<line fill="none" stroke="#000000" stroke-width="2" x1="50" x2="50" y1="46.5" y2="10" /><line fill="none" stroke="#000000" stroke-width="2" x1="12" x2="88" y1="10" y2="10" /><line fill="none" stroke="#000000" stroke-width="2" x1="18" x2="42" y1="30" y2="30" /><line fill="none" stroke="#000000" stroke-width="2" x1="18" x2="42" y1="40.5" y2="40.5" /><line fill="none" stroke="#000000" stroke-width="2" x1="58" x2="82" y1="30" y2="30" /><line fill="none" stroke="#000000" stroke-width="2" x1="58" x2="82" y1="40.5" y2="40.5" /><line fill="none" stroke="#000000" stroke-width="2" x1="17" x2="83" y1="64" y2="64" /><polyline fill="none" points="90,40.5 90,21 10,21 10,40.5" stroke="#000000" stroke-width="2" /><polyline fill="none" points="16,86 16,50.5 84,50.5 84,78 17,78" stroke="#000000" stroke-width="2" /><path d="M50,51.5 v28.5 c0,10.792 0.225,10.996 6.5,11.5 c4.301,0.346 7.772,0.5 12,0.5 c4.15,0 8.441,-0.169 13,-0.5 c10.543,-0.766 10.727,-0.92 12,-19" fill="none" stroke="#000000" stroke-width="2" /></svg>