<?xml version='1.0' encoding='utf-8'?>
<svg xmlns="http://www.w3.org/2000/svg" height="100px" version="1.0" viewBox="0 0 100 100" width="100px" x="0px" y="0px">
<line fill="none" stroke="#000000" stroke-width="2" x1="7" x2="48" y1="15" y2="15" /><line fill="none" stroke="#000000" stroke-width="2" x1="28" x2="28" y1="14" y2="4.5" /><line fill="none" stroke="#000000" stroke-width="2" x1="50" x2="96.5" y1="10.5" y2="10.5" /><line fill="none" stroke="#000000" stroke-width="2" x1="56" x2="91.5" y1="57" y2="57" /><line fill="none" stroke="#000000" stroke-width="2" x1="56" x2="91.5" y1="41" y2="41" /><polyline fill="none" points="56,73.5 92.5,73.5 92.5,25.5 55,25.5 55,74.5" stroke="#000000" stroke-width="2" /><path d="M33.5,36.5 c2.618,-5.122 5.099,-11.407 7,-18" fill="none" stroke="#000000" stroke-width="2" /><path d="M20.5,33.5 c-1.142,-4.976 -2.521,-10.158 -4,-15" fill="none" stroke="#000000" stroke-width="2" /><path d="M4,92 c2.909,-7.926 5,-21.714 5,-35.5 V37.0 h40.0" fill="none" stroke="#000000" stroke-width="2" /><path d="M15,55 c12.124,-3.299 21.464,-8.128 28,-14" fill="none" stroke="#000000" stroke-width="2" /><path d="M13.5,73 c14.123,-3.368 25.197,-8.924 33,-16" fill="none" stroke="#000000" stroke-width="2" /><path d="M12,91 c16.121,-3.437 28.93,-9.72 38,-18" fill="none" stroke="#000000" stroke-width="2" /><path d="M49.5,92.5 c7.165,-3.835 13.354,-9.067 17,-14" fill="none" stroke="#000000" stroke-width="2" /><path d="M97,93 c-4.391,-4.882 -10.4,-10.108 -17,-14.5" fill="none" stroke="#000000" stroke-width="2" /><path d="M72.5,10.5 c-0.84,5.553 -1.835,10.448 -3,15" fill="none" stroke="#000000" stroke-width="2" /></svg>