<?xml version='1.0' encoding='utf-8'?>
<svg xmlns="http://www.w3.org/2000/svg" height="100px" version="1.0" viewBox="0 0 100 100" width="100px" x="0px" y="0px">
<line fill="none" stroke="#000000" stroke-width="2" x1="49" x2="49" y1="85.5" y2="19.5" /><polyline fill="none" points="28,59.5 71,59.5 71,35.5 27,35.5 27,65.5" stroke="#000000" stroke-width="2" /><path d="M4.5,92.5 c6.738,-10.179 10.5,-25.519 10.5,-50.5 v-32.0 h68.0 c0,64.188 4.436,82 8,82 c1.634,0 3.873,-4.224 5,-22" fill="none" stroke="#000000" stroke-width="2" /><path d="M82,91 c-4.363,-7.272 -10.395,-16.625 -15.5,-24" fill="none" stroke="#000000" stroke-width="2" /><path d="M18,88 c16.641,-0.589 39.586,-2.734 58.5,-5.5" fill="none" stroke="#000000" stroke-width="2" /><path d="M22.5,20.5 c15.723,-0.374 35.159,-1.697 53,-3.5" fill="none" stroke="#000000" stroke-width="2" /></svg>