<?xml version='1.0' encoding='utf-8'?>
<svg xmlns="http://www.w3.org/2000/svg" height="100px" version="1.0" viewBox="0 0 100 100" width="100px" x="0px" y="0px">
<line fill="none" stroke="#000000" stroke-width="2" x1="50" x2="50" y1="10.5" y2="21.5" /><line fill="none" stroke="#000000" stroke-width="2" x1="22.5" x2="77.5" y1="39" y2="39" /><polyline fill="none" points="22.5,56.5 78.5,56.5 78.5,22.5 21.5,22.5 21.5,90" stroke="#000000" stroke-width="2" /><path d="M41,56.5 c8.715,15.731 28.153,29.017 52,35" fill="none" stroke="#000000" stroke-width="2" /><path d="M7,91.5 c17.241,-1.656 32.201,-3.895 50,-7.5" fill="none" stroke="#000000" stroke-width="2" /><path d="M57,74.5 c10.874,-4.283 20.84,-9.951 29.5,-16.5" fill="none" stroke="#000000" stroke-width="2" /><path d="M94.5,28 c-16.943,-6.879 -31.083,-14.302 -44.5,-23.3 c-13.417,8.998 -27.557,16.421 -44.5,23.3" fill="none" stroke="#000000" stroke-width="2" /></svg>