<?xml version='1.0' encoding='utf-8'?>
<svg xmlns="http://www.w3.org/2000/svg" height="100px" version="1.0" viewBox="0 0 100 100" width="100px" x="0px" y="0px">
<line fill="none" stroke="#000000" stroke-width="2" x1="29" x2="29" y1="15" y2="24" /><line fill="none" stroke="#000000" stroke-width="2" x1="14" x2="44" y1="41" y2="41" /><line fill="none" stroke="#000000" stroke-width="2" x1="61.5" x2="95" y1="18" y2="18" /><polyline fill="none" points="14,58 45,58 45,25 13,25 13,88.5" stroke="#000000" stroke-width="2" /><path d="M5.5,90.5 c13.217,-3.477 24.018,-7.87 36,-14.5" fill="none" stroke="#000000" stroke-width="2" /><path d="M50.5,22 c-8.234,-4.952 -14.957,-10.044 -21.5,-16.5 c-7.432,8.159 -15.351,15.136 -24.5,21.5" fill="none" stroke="#000000" stroke-width="2" /><path d="M44,90 c14.713,-6.563 28,-28.181 28,-48 v-16.0" fill="none" stroke="#000000" stroke-width="2" /><path d="M96,90 c-12.271,-6.388 -24,-27.952 -24,-48" fill="none" stroke="#000000" stroke-width="2" /><path d="M50.5,45 c6.293,-11.127 11.08,-24.556 14,-40" fill="none" stroke="#000000" stroke-width="2" /><path d="M86,44.5 c3.469,-7.408 6.155,-15.891 8.022,-25.688" fill="none" stroke="#000000" stroke-width="2" /><path d="M46.5,83 c-4.311,-6.401 -10.398,-14.629 -15.5,-21" fill="none" stroke="#000000" stroke-width="2" /></svg>