<?xml version='1.0' encoding='utf-8'?>
<svg xmlns="http://www.w3.org/2000/svg" height="100px" version="1.0" viewBox="0 0 100 100" width="100px" x="0px" y="0px">
<line fill="none" stroke="#000000" stroke-width="2" x1="49" x2="49" y1="11.5" y2="59" /><line fill="none" stroke="#000000" stroke-width="2" x1="17" x2="82.5" y1="43" y2="43" /><line fill="none" stroke="#000000" stroke-width="2" x1="17" x2="82.5" y1="26.5" y2="26.5" /><path d="M76,80.5 c-2.305,-4.33 -4.893,-8.891 -8,-14" fill="none" stroke="#000000" stroke-width="2" /><path d="M55,84.75 c-1.569,-5.326 -3.503,-10.941 -6,-17.25" fill="none" stroke="#000000" stroke-width="2" /><path d="M34,89 c-0.834,-6.323 -2.113,-12.991 -4,-20.5" fill="none" stroke="#000000" stroke-width="2" /><path d="M6,91.5 c3.813,-6.981 7.045,-14.53 10,-23.5" fill="none" stroke="#000000" stroke-width="2" /><path d="M85.5,10.5 H16.0 v49.5 h73.0 c0,26.32 -3.858,31.5 -10.5,31.5 c-3.191,0 -7.766,-0.321 -13.5,-1" fill="none" stroke="#000000" stroke-width="2" /></svg>