<?xml version='1.0' encoding='utf-8'?>
<svg xmlns="http://www.w3.org/2000/svg" height="100px" version="1.0" viewBox="0 0 100 100" width="100px" x="0px" y="0px">
<line fill="none" stroke="#000000" stroke-width="2" x1="30" x2="65.5" y1="11" y2="11" /><line fill="none" stroke="#000000" stroke-width="2" x1="20.5" x2="83.5" y1="44.5" y2="44.5" /><line fill="none" stroke="#000000" stroke-width="2" x1="51" x2="51" y1="27" y2="63" /><polyline fill="none" points="19.5,65 19.5,26 84.5,26 84.5,64 20.5,64" stroke="#000000" stroke-width="2" /><path d="M51.5,26 c4.648,-4.483 9.363,-9.736 13.214,-14.618" fill="none" stroke="#000000" stroke-width="2" /><path d="M7.5,35.5 c12.232,-9.145 21.328,-20.289 27,-33" fill="none" stroke="#000000" stroke-width="2" /><path d="M92,92 c-4.17,-6.97 -9.068,-14.214 -15,-22" fill="none" stroke="#000000" stroke-width="2" /><path d="M67,92.5 c-2.486,-6.864 -5.578,-14.102 -9.5,-22" fill="none" stroke="#000000" stroke-width="2" /><path d="M42,93 c-0.803,-6.759 -2.088,-13.988 -4,-22" fill="none" stroke="#000000" stroke-width="2" /><path d="M8,92.5 c5.24,-6.205 10.214,-13.462 15,-22" fill="none" stroke="#000000" stroke-width="2" /></svg>