<?xml version='1.0' encoding='utf-8'?>
<svg xmlns="http://www.w3.org/2000/svg" height="100px" version="1.0" viewBox="0 0 100 100" width="100px" x="0px" y="0px">
<line fill="none" stroke="#000000" stroke-width="2" x1="19" x2="78.5" y1="27.5" y2="27.5" /><line fill="none" stroke="#000000" stroke-width="2" x1="19" x2="93" y1="51.5" y2="51.5" /><path d="M76,82 c-2.305,-4.021 -4.893,-8.256 -8,-13" fill="none" stroke="#000000" stroke-width="2" /><path d="M55,86 c-1.569,-4.946 -3.49,-10.145 -6,-16" fill="none" stroke="#000000" stroke-width="2" /><path d="M34,90 c-0.834,-5.872 -2.088,-12.033 -4,-19" fill="none" stroke="#000000" stroke-width="2" /><path d="M6,92.5 c3.813,-6.483 7.107,-13.652 10,-22" fill="none" stroke="#000000" stroke-width="2" /><path d="M19,41 h60.5 v-26.5 H18.0 v49.0 h71.0 c0,22.716 -3.737,28 -10.5,28 c-3.191,0 -7.766,-0.321 -13.5,-1" fill="none" stroke="#000000" stroke-width="2" /><path d="M46,3 c-1.16,4.222 -2.449,7.964 -4,11.5" fill="none" stroke="#000000" stroke-width="2" /></svg>