<?xml version='1.0' encoding='utf-8'?>
<svg xmlns="http://www.w3.org/2000/svg" height="100px" version="1.0" viewBox="0 0 100 100" width="100px" x="0px" y="0px">
<line fill="none" stroke="#000000" stroke-width="2" x1="42" x2="87" y1="27" y2="27" /><line fill="none" stroke="#000000" stroke-width="2" x1="42" x2="96" y1="51" y2="51" /><polyline fill="none" points="10.5,79 30,79 30,13 9.5,13 9.5,87" stroke="#000000" stroke-width="2" /><path d="M83.5,81.5 c-1.74,-4.006 -3.701,-8.256 -6,-13" fill="none" stroke="#000000" stroke-width="2" /><path d="M68,85.5 c-1.184,-4.938 -2.643,-10.145 -4.5,-16" fill="none" stroke="#000000" stroke-width="2" /><path d="M52.5,89.5 c-0.627,-5.871 -1.585,-12.033 -3,-19" fill="none" stroke="#000000" stroke-width="2" /><path d="M31.5,92 c2.822,-6.483 5.301,-13.668 7.5,-22" fill="none" stroke="#000000" stroke-width="2" /><path d="M42,40.5 h46.0 V14.0 h-47.0 v49.0 h52.0 c0,23.392 -3.272,28.5 -8,28.5 c-2.361,0 -5.755,-0.328 -10,-1" fill="none" stroke="#000000" stroke-width="2" /><path d="M61,2.5 c-0.881,4.218 -1.853,7.964 -3,11.5" fill="none" stroke="#000000" stroke-width="2" /></svg>