<?xml version='1.0' encoding='utf-8'?>
<svg xmlns="http://www.w3.org/2000/svg" height="100px" version="1.0" viewBox="0 0 100 100" width="100px" x="0px" y="0px">
<line fill="none" stroke="#000000" stroke-width="2" x1="50" x2="50" y1="11.5" y2="68" /><line fill="none" stroke="#000000" stroke-width="2" x1="19" x2="81" y1="26" y2="26" /><line fill="none" stroke="#000000" stroke-width="2" x1="8" x2="92" y1="68" y2="68" /><line fill="none" stroke="#000000" stroke-width="2" x1="87" x2="13" y1="54.5" y2="54.5" /><polyline fill="none" points="19,42.5 82,42.5 82,10.5 18,10.5 18,43.5" stroke="#000000" stroke-width="2" /><path d="M92.5,92 c-4.201,-6.038 -9.068,-12.229 -15,-19" fill="none" stroke="#000000" stroke-width="2" /><path d="M67,92.25 c-2.518,-5.955 -5.578,-12.131 -9.5,-19" fill="none" stroke="#000000" stroke-width="2" /><path d="M41.5,92.5 c-0.834,-5.872 -2.088,-12.033 -4,-19" fill="none" stroke="#000000" stroke-width="2" /><path d="M7.5,92 c5.269,-5.368 10.214,-11.575 15,-19" fill="none" stroke="#000000" stroke-width="2" /></svg>