<?xml version='1.0' encoding='utf-8'?>
<svg xmlns="http://www.w3.org/2000/svg" height="100px" version="1.0" viewBox="0 0 100 100" width="100px" x="0px" y="0px">
<line fill="none" stroke="#000000" stroke-width="2" x1="13" x2="13" y1="94" y2="30.75" /><line fill="none" stroke="#000000" stroke-width="2" x1="28" x2="52" y1="85" y2="85" /><line fill="none" stroke="#000000" stroke-width="2" x1="54.5" x2="97.5" y1="46" y2="46" /><line fill="none" stroke="#000000" stroke-width="2" x1="77" x2="77" y1="46" y2="94" /><line fill="none" stroke="#000000" stroke-width="2" x1="55.5" x2="96.5" y1="68" y2="68" /><line fill="none" stroke="#000000" stroke-width="2" x1="55.5" x2="96.5" y1="16.5" y2="16.5" /><line fill="none" stroke="#000000" stroke-width="2" x1="77" x2="77" y1="16.5" y2="4.5" /><polyline fill="none" points="27,93 27,54 52,54 52,91" stroke="#000000" stroke-width="2" /><path d="M19.5,6 c-3.602,19.29 -9.888,36.252 -18,49.5" fill="none" stroke="#000000" stroke-width="2" /><path d="M18,87.5 c5.408,-14.138 8,-29.393 8,-48.5 v-28.0 h25.0 v25.5 H26.0" fill="none" stroke="#000000" stroke-width="2" /><path d="M83.5,46 c2.805,-8.768 5.207,-18.712 7,-29.5" fill="none" stroke="#000000" stroke-width="2" /><path d="M69.5,46 c-1.771,-9.813 -3.984,-19.985 -6.5,-29.5" fill="none" stroke="#000000" stroke-width="2" /></svg>