<?xml version='1.0' encoding='utf-8'?>
<svg xmlns="http://www.w3.org/2000/svg" height="100px" version="1.0" viewBox="0 0 100 100" width="100px" x="0px" y="0px">
<path d="M61,45.5 V86.0 c0,3.726 0.738,4.556 5,4.8 c2.131,0.123 4.674,0.2 7,0.2 c2.626,0 4.654,-0.064 7,-0.2 c7.845,-0.448 8.904,-1.487 10,-22.3" fill="none" stroke="#000000" stroke-width="2" /><path d="M9,92.5 c18.561,-7.162 29,-22.962 29,-47" fill="none" stroke="#000000" stroke-width="2" /><path d="M93,47 c-7.211,-9.318 -17.653,-20.996 -27,-30" fill="none" stroke="#000000" stroke-width="2" /><path d="M7,40.5 c22.595,-0.584 50.705,-2.477 76.5,-5" fill="none" stroke="#000000" stroke-width="2" /><path d="M21,40 c7.333,-10.101 14.777,-22.664 21,-35.5" fill="none" stroke="#000000" stroke-width="2" /></svg>