<?xml version='1.0' encoding='utf-8'?>
<svg xmlns="http://www.w3.org/2000/svg" height="100px" version="1.0" viewBox="0 0 100 100" width="100px" x="0px" y="0px">
<line fill="none" stroke="#000000" stroke-width="2" x1="68" x2="68" y1="74" y2="12" /><line fill="none" stroke="#000000" stroke-width="2" x1="57" x2="10" y1="12" y2="12" /><line fill="none" stroke="#000000" stroke-width="2" x1="4.5" x2="62.5" y1="22" y2="22" /><line fill="none" stroke="#000000" stroke-width="2" x1="5" x2="62" y1="52" y2="52" /><line fill="none" stroke="#000000" stroke-width="2" x1="9" x2="58" y1="42" y2="42" /><line fill="none" stroke="#000000" stroke-width="2" x1="33.5" x2="33.5" y1="52" y2="4" /><line fill="none" stroke="#000000" stroke-width="2" x1="33.5" x2="33.5" y1="80" y2="60" /><line fill="none" stroke="#000000" stroke-width="2" x1="12.5" x2="55.5" y1="70.5" y2="70.5" /><polyline fill="none" points="10,32 56,32 56,13" stroke="#000000" stroke-width="2" /><polyline fill="none" points="12.5,81 55.5,81 55.5,60 11.5,60 11.5,82" stroke="#000000" stroke-width="2" /><path d="M4.5,91 c21.186,-0.804 39.224,-2.042 59,-4" fill="none" stroke="#000000" stroke-width="2" /><path d="M91,8 v75.0 c0,7.13 -0.866,8 -6.5,8 c-2.75,0 -6.917,-0.144 -12.5,-0.5" fill="none" stroke="#000000" stroke-width="2" /></svg>