<?xml version='1.0' encoding='utf-8'?>
<svg xmlns="http://www.w3.org/2000/svg" height="100px" version="1.0" viewBox="0 0 100 100" width="100px" x="0px" y="0px">
<line fill="none" stroke="#000000" stroke-width="2" x1="72.5" x2="72.5" y1="74" y2="12" /><line fill="none" stroke="#000000" stroke-width="2" x1="64" x2="7.5" y1="69.5" y2="69.5" /><line fill="none" stroke="#000000" stroke-width="2" x1="57.5" x2="19" y1="55.5" y2="55.5" /><line fill="none" stroke="#000000" stroke-width="2" x1="37" x2="37" y1="89" y2="55.5" /><path d="M65,55.5 c-10.616,-4.863 -19.281,-9.761 -28,-15.8 c-9.646,7.88 -20.078,14.729 -32,20.8" fill="none" stroke="#000000" stroke-width="2" /><path d="M91.5,8 v75.0 c0,7.317 -0.645,8 -5,8 c-2.243,0 -5.943,-0.167 -10.5,-0.5" fill="none" stroke="#000000" stroke-width="2" /><path d="M36.5,37 c7.275,-5.413 12.15,-14.95 12.5,-25.5" fill="none" stroke="#000000" stroke-width="2" /><path d="M36.5,11.5 h27.0 c-0.545,23.19 -2.131,26.5 -5.5,26.5 c-1.746,0 -6.677,-0.485 -9.5,-1" fill="none" stroke="#000000" stroke-width="2" /><path d="M5,43.5 c9.66,-3.008 17.512,-6.817 26,-12.5" fill="none" stroke="#000000" stroke-width="2" /><path d="M34,6.5 c-7.789,3.637 -15.438,6.349 -24,8.5 l1,26.5" fill="none" stroke="#000000" stroke-width="2" /><path d="M34,37 c-2.523,-5.554 -6.275,-12.712 -9.5,-18" fill="none" stroke="#000000" stroke-width="2" /><path d="M6.5,92 c21.662,-1.798 39.362,-4.07 59,-7.5" fill="none" stroke="#000000" stroke-width="2" /><path d="M27.5,86.5 c-3.184,-4.694 -6.591,-9.146 -10,-13" fill="none" stroke="#000000" stroke-width="2" /><path d="M45,88 c3.811,-5.078 7.23,-10.202 10,-15" fill="none" stroke="#000000" stroke-width="2" /></svg>