<?xml version='1.0' encoding='utf-8'?>
<svg xmlns="http://www.w3.org/2000/svg" height="100px" version="1.0" viewBox="0 0 100 100" width="100px" x="0px" y="0px">
<line fill="none" stroke="#000000" stroke-width="2" x1="30.5" x2="48" y1="66.5" y2="66.5" /><line fill="none" stroke="#000000" stroke-width="2" x1="29.5" x2="29.5" y1="86" y2="49.5" /><line fill="none" stroke="#000000" stroke-width="2" x1="6" x2="50.5" y1="49.5" y2="49.5" /><line fill="none" stroke="#000000" stroke-width="2" x1="12" x2="45" y1="24.5" y2="24.5" /><polyline fill="none" points="12,40 46,40 46,10.5 11,10.5 11,41" stroke="#000000" stroke-width="2" /><path d="M94,89.5 h-33.0 c-29.518,0 -41.484,-5.108 -48.1,-17" fill="none" stroke="#000000" stroke-width="2" /><path d="M6,92.5 c4.717,-8.601 8.563,-23.487 9,-36" fill="none" stroke="#000000" stroke-width="2" /><path d="M59,7 v61.5 c0,7.797 0.217,8 14,8 c16.57,0 16.791,-0.198 18,-24" fill="none" stroke="#000000" stroke-width="2" /><path d="M59,40 c10.69,-4.97 20.059,-11.571 31,-22" fill="none" stroke="#000000" stroke-width="2" /></svg>