<?xml version='1.0' encoding='utf-8'?>
<svg xmlns="http://www.w3.org/2000/svg" height="100px" version="1.0" viewBox="0 0 100 100" width="100px" x="0px" y="0px">
<polyline fill="none" points="10,82 31,82 31,13 9,13 9,90" stroke="#000000" stroke-width="2" /><polyline fill="none" points="44,54.5 76.5,54.5 76.5,28.5 45,28.5" stroke="#000000" stroke-width="2" /><path d="M85,62 c-2.523,0 -6.672,-0.167 -11,-0.5" fill="none" stroke="#000000" stroke-width="2" /><path d="M45,15 h47.5 c-1.432,42.487 -3.448,47 -7.5,47" fill="none" stroke="#000000" stroke-width="2" /><path d="M35,37.5 c5.658,-9.718 10.379,-22.011 13,-34.5" fill="none" stroke="#000000" stroke-width="2" /><path d="M95,66.5 c-2.187,24.755 -2.464,25 -29.783,25 c-20.916,0 -21.217,-0.234 -21.217,-12 v-52.0" fill="none" stroke="#000000" stroke-width="2" /></svg>