<?xml version='1.0' encoding='utf-8'?>
<svg xmlns="http://www.w3.org/2000/svg" height="100px" version="1.0" viewBox="0 0 100 100" width="100px" x="0px" y="0px">
<line fill="none" stroke="#000000" stroke-width="2" x1="91" x2="39.5" y1="87" y2="87" /><line fill="none" stroke="#000000" stroke-width="2" x1="69.5" x2="91" y1="68" y2="68" /><line fill="none" stroke="#000000" stroke-width="2" x1="39.5" x2="61" y1="68" y2="68" /><polyline fill="none" points="10,79 30,79 30,13 9,13 9,87" stroke="#000000" stroke-width="2" /><polyline fill="none" points="67,49.5 91,49.5 91,93" stroke="#000000" stroke-width="2" /><path d="M34.5,43.5 c10.482,-11.61 17.53,-24.411 22,-40" fill="none" stroke="#000000" stroke-width="2" /><path d="M53.5,12 h38.0 c-0.68,22.472 -3.289,26 -10.5,26 c-4.002,0 -9.811,-0.321 -17,-1" fill="none" stroke="#000000" stroke-width="2" /><path d="M39.5,93 V51.5 c8.56,-1.325 16.326,-3.591 23,-6.5" fill="none" stroke="#000000" stroke-width="2" /></svg>