<?xml version='1.0' encoding='utf-8'?>
<svg xmlns="http://www.w3.org/2000/svg" height="100px" version="1.0" viewBox="0 0 100 100" width="100px" x="0px" y="0px">
<line fill="none" stroke="#000000" stroke-width="2" x1="68.5" x2="42.5" y1="30" y2="30" /><polyline fill="none" points="10,82 28,82 28,13 9,13 9,90" stroke="#000000" stroke-width="2" /><polyline fill="none" points="46,69 66.5,69 66.5,42 45,42 45,77" stroke="#000000" stroke-width="2" /><path d="M73,3.5 c0,54.161 10.104,87.5 16.5,87.5 c1.947,0 4.221,-4.644 5.5,-23" fill="none" stroke="#000000" stroke-width="2" /><path d="M91,31 c-5.409,30.089 -20.314,50.847 -39,60" fill="none" stroke="#000000" stroke-width="2" /><path d="M78,3 c4.883,2.864 9.918,6.339 14.5,10" fill="none" stroke="#000000" stroke-width="2" /><path d="M29,91.5 c4.966,-14.026 7.5,-29.832 7.5,-51 V17.0 h57.5" fill="none" stroke="#000000" stroke-width="2" /></svg>