<?xml version='1.0' encoding='utf-8'?>
<svg xmlns="http://www.w3.org/2000/svg" height="100px" version="1.0" viewBox="0 0 100 100" width="100px" x="0px" y="0px">
<line fill="none" stroke="#000000" stroke-width="2" x1="39.5" x2="89.5" y1="88" y2="88" /><line fill="none" stroke="#000000" stroke-width="2" x1="39.5" x2="89.5" y1="74" y2="74" /><line fill="none" stroke="#000000" stroke-width="2" x1="32" x2="97" y1="27" y2="27" /><line fill="none" stroke="#000000" stroke-width="2" x1="80.5" x2="38" y1="13" y2="13" /><line fill="none" stroke="#000000" stroke-width="2" x1="61" x2="61" y1="27" y2="4.5" /><polyline fill="none" points="89.5,94 89.5,60 38.5,60 38.5,94" stroke="#000000" stroke-width="2" /><polyline fill="none" points="9.5,82 28,82 28,13 8.5,13 8.5,90" stroke="#000000" stroke-width="2" /><path d="M31.5,45 c25.896,-8.05 47.805,-22.245 60.5,-38" fill="none" stroke="#000000" stroke-width="2" /><path d="M47.5,39 v7.5 c0,5.13 0.596,5.5 20,5.5 c22.877,0 22.975,-0.073 24.5,-11" fill="none" stroke="#000000" stroke-width="2" /><path d="M47.5,43 c13.988,-2.008 27.211,-4.892 41.5,-9" fill="none" stroke="#000000" stroke-width="2" /></svg>