<?xml version='1.0' encoding='utf-8'?>
<svg xmlns="http://www.w3.org/2000/svg" height="100px" version="1.0" viewBox="0 0 100 100" width="100px" x="0px" y="0px">
<line fill="none" stroke="#000000" stroke-width="2" x1="53.5" x2="90.5" y1="41" y2="41" /><line fill="none" stroke="#000000" stroke-width="2" x1="47.5" x2="95.5" y1="70.5" y2="70.5" /><line fill="none" stroke="#000000" stroke-width="2" x1="72" x2="72" y1="85" y2="5" /><line fill="none" stroke="#000000" stroke-width="2" x1="47" x2="95.5" y1="14" y2="14" /><polyline fill="none" points="9.5,82 27.5,82 27.5,13 8.5,13 8.5,90" stroke="#000000" stroke-width="2" /><polyline fill="none" points="43,75 43,52 31.5,52" stroke="#000000" stroke-width="2" /><polyline fill="none" points="53.5,58.5 91.5,58.5 91.5,25.5 52.5,25.5 52.5,59.5" stroke="#000000" stroke-width="2" /><path d="M32,8 c4.946,3.745 9.197,7.229 14,11.5" fill="none" stroke="#000000" stroke-width="2" /><path d="M32,28.5 c4.946,3.745 9.197,7.229 14,11.5" fill="none" stroke="#000000" stroke-width="2" /><path d="M30.5,92 c5.881,-5.611 9.879,-11.114 12.5,-17" fill="none" stroke="#000000" stroke-width="2" /><path d="M95.5,90 H69.0 c-15.129,0 -21.704,-3.743 -26,-15" fill="none" stroke="#000000" stroke-width="2" /></svg>