<?xml version='1.0' encoding='utf-8'?>
<svg xmlns="http://www.w3.org/2000/svg" height="100px" version="1.0" viewBox="0 0 100 100" width="100px" x="0px" y="0px">
<line fill="none" stroke="#000000" stroke-width="2" x1="19" x2="82" y1="88.5" y2="88.5" /><line fill="none" stroke="#000000" stroke-width="2" x1="19" x2="82" y1="75.5" y2="75.5" /><line fill="none" stroke="#000000" stroke-width="2" x1="50" x2="50" y1="15" y2="3" /><polyline fill="none" points="82,94.5 82,63 18,63 18,94.5" stroke="#000000" stroke-width="2" /><polyline fill="none" points="90.5,32 90.5,15 9.5,15 9.5,32" stroke="#000000" stroke-width="2" /><polyline fill="none" points="23.5,35.5 77.5,35.5 77.5,22.5 22.5,22.5 22.5,36.5" stroke="#000000" stroke-width="2" /><path d="M30,15 c-2.568,-3.562 -5.295,-6.981 -8,-10" fill="none" stroke="#000000" stroke-width="2" /><path d="M70.5,15 c2.842,-3.768 5.379,-7.477 7.5,-11" fill="none" stroke="#000000" stroke-width="2" /><path d="M16,36 v15.5 c0,3.136 1.035,4 31,4 c39.133,0 39.172,-0.034 40.5,-9.5" fill="none" stroke="#000000" stroke-width="2" /><path d="M16,46.5 c23.906,-1.435 45.602,-3.474 70,-6.5" fill="none" stroke="#000000" stroke-width="2" /></svg>