<?xml version='1.0' encoding='utf-8'?>
<svg xmlns="http://www.w3.org/2000/svg" height="100px" version="1.0" viewBox="0 0 100 100" width="100px" x="0px" y="0px">
<line fill="none" stroke="#000000" stroke-width="2" x1="31.5" x2="97.5" y1="25" y2="25" /><line fill="none" stroke="#000000" stroke-width="2" x1="63.5" x2="63.5" y1="13" y2="3.5" /><line fill="none" stroke="#000000" stroke-width="2" x1="63.5" x2="63.5" y1="93.5" y2="14" /><line fill="none" stroke="#000000" stroke-width="2" x1="91.5" x2="35.5" y1="65.5" y2="65.5" /><line fill="none" stroke="#000000" stroke-width="2" x1="91.5" x2="91.5" y1="41.5" y2="93.5" /><polyline fill="none" points="9.5,82 27.5,82 27.5,13 8.5,13 8.5,90" stroke="#000000" stroke-width="2" /><polyline fill="none" points="37,37 88.5,37 88.5,13 37,13" stroke="#000000" stroke-width="2" /><polyline fill="none" points="91.5,54.5 75,54.5 75,41.5" stroke="#000000" stroke-width="2" /><polyline fill="none" points="91.5,76.5 75,76.5 75,93" stroke="#000000" stroke-width="2" /><polyline fill="none" points="35.5,54.5 52,54.5 52,41.5" stroke="#000000" stroke-width="2" /><polyline fill="none" points="34.5,76.5 52,76.5 52,93" stroke="#000000" stroke-width="2" /><path d="M28.5,93.5 c4.405,-7.128 7,-17.853 7,-32.5 v-19.5" fill="none" stroke="#000000" stroke-width="2" /></svg>