<?xml version='1.0' encoding='utf-8'?>
<svg xmlns="http://www.w3.org/2000/svg" height="100px" version="1.0" viewBox="0 0 100 100" width="100px" x="0px" y="0px">
<line fill="none" stroke="#000000" stroke-width="2" x1="7" x2="23" y1="82" y2="82" /><line fill="none" stroke="#000000" stroke-width="2" x1="61" x2="96.5" y1="10.5" y2="10.5" /><line fill="none" stroke="#000000" stroke-width="2" x1="65.5" x2="92" y1="57" y2="57" /><line fill="none" stroke="#000000" stroke-width="2" x1="65.5" x2="92" y1="41" y2="41" /><line fill="none" stroke="#000000" stroke-width="2" x1="31" x2="31" y1="31" y2="71.5" /><polyline fill="none" points="24,83 24,13 7,13 7,90" stroke="#000000" stroke-width="2" /><polyline fill="none" points="65.5,73.5 93,73.5 93,25.5 64.5,25.5 64.5,74.5" stroke="#000000" stroke-width="2" /><polyline fill="none" points="31,58.5 57,58.5 57,30" stroke="#000000" stroke-width="2" /><path d="M57.5,92.5 c7.049,-3.951 13.026,-9.159 16.5,-14" fill="none" stroke="#000000" stroke-width="2" /><path d="M96.5,93 c-3.873,-4.882 -9.199,-10.079 -15,-14.5" fill="none" stroke="#000000" stroke-width="2" /><path d="M78,10.5 c-0.7,5.553 -1.529,10.448 -2.5,15" fill="none" stroke="#000000" stroke-width="2" /><path d="M44,6 v74.0 c0,6.769 0.295,7 7.5,7 c7.344,0 7.448,-0.083 8,-22" fill="none" stroke="#000000" stroke-width="2" /><path d="M28,23 c14.408,-2.085 23.811,-5.464 30.5,-10" fill="none" stroke="#000000" stroke-width="2" /></svg>