<?xml version='1.0' encoding='utf-8'?>
<svg xmlns="http://www.w3.org/2000/svg" height="100px" version="1.0" viewBox="0 0 100 100" width="100px" x="0px" y="0px">
<line fill="none" stroke="#000000" stroke-width="2" x1="69.5" x2="98" y1="38" y2="38" /><line fill="none" stroke="#000000" stroke-width="2" x1="87" x2="87" y1="92.5" y2="38" /><line fill="none" stroke="#000000" stroke-width="2" x1="47.5" x2="47.5" y1="16.5" y2="4.5" /><line fill="none" stroke="#000000" stroke-width="2" x1="47.5" x2="47.5" y1="93" y2="40.5" /><line fill="none" stroke="#000000" stroke-width="2" x1="64.5" x2="31" y1="54.5" y2="54.5" /><line fill="none" stroke="#000000" stroke-width="2" x1="65.5" x2="31.5" y1="16.5" y2="16.5" /><line fill="none" stroke="#000000" stroke-width="2" x1="65.5" x2="31" y1="40.5" y2="40.5" /><polyline fill="none" points="9.5,82 26.5,82 26.5,13 8.5,13 8.5,90" stroke="#000000" stroke-width="2" /><path d="M69.107,14.994 c10.605,-1.145 19.176,-3.553 25.893,-6.994" fill="none" stroke="#000000" stroke-width="2" /><path d="M61,90.5 c6.629,-14.657 9,-30.057 9,-76.5" fill="none" stroke="#000000" stroke-width="2" /><path d="M53,40.5 c2.441,-6.845 4.539,-15.088 6,-24" fill="none" stroke="#000000" stroke-width="2" /><path d="M42,40.5 c-1.491,-7.991 -3.389,-16.294 -5.5,-24" fill="none" stroke="#000000" stroke-width="2" /><path d="M29,85 c8.271,-9.792 14.047,-20.063 17.5,-31" fill="none" stroke="#000000" stroke-width="2" /><path d="M62.5,76 c-3.396,-6.045 -8.794,-13.924 -14.5,-21" fill="none" stroke="#000000" stroke-width="2" /></svg>