<?xml version='1.0' encoding='utf-8'?>
<svg xmlns="http://www.w3.org/2000/svg" height="100px" version="1.0" viewBox="0 0 100 100" width="100px" x="0px" y="0px">
<line fill="none" stroke="#000000" stroke-width="2" x1="78.5" x2="78.5" y1="74" y2="12" /><line fill="none" stroke="#000000" stroke-width="2" x1="73.5" x2="27.5" y1="69.5" y2="69.5" /><line fill="none" stroke="#000000" stroke-width="2" x1="68" x2="37.5" y1="55.5" y2="55.5" /><line fill="none" stroke="#000000" stroke-width="2" x1="51" x2="51" y1="89" y2="55.5" /><line fill="none" stroke="#000000" stroke-width="2" x1="6.5" x2="21.5" y1="82" y2="82" /><polyline fill="none" points="22.5,83 22.5,13 6.5,13 6.5,90" stroke="#000000" stroke-width="2" /><path d="M75,55.5 c-8.758,-4.863 -16.219,-9.886 -23.5,-15.8 c-7.906,8.039 -16.165,14.729 -26,20.8" fill="none" stroke="#000000" stroke-width="2" /><path d="M93.5,8 v75.0 c0,7.317 -0.422,8 -4.5,8 c-1.881,0 -4.682,-0.14 -8.5,-0.5" fill="none" stroke="#000000" stroke-width="2" /><path d="M51.5,37 c5.182,-5.468 8.748,-14.95 9,-25.5" fill="none" stroke="#000000" stroke-width="2" /><path d="M50.5,11.5 h22.5 c-0.445,23.45 -1.83,26.5 -4.5,26.5 c-1.77,0 -6.217,-0.493 -8.5,-1" fill="none" stroke="#000000" stroke-width="2" /><path d="M25.5,43.5 c7.803,-3.008 14.154,-6.806 21,-12.5" fill="none" stroke="#000000" stroke-width="2" /><path d="M48.5,6.5 c-6.383,3.482 -13.078,6.349 -20,8.5 l1,27" fill="none" stroke="#000000" stroke-width="2" /><path d="M49,37 c-1.992,-5.554 -4.953,-12.712 -7.5,-18" fill="none" stroke="#000000" stroke-width="2" /><path d="M25,92 c18.726,-1.798 34.023,-4.07 51,-7.5" fill="none" stroke="#000000" stroke-width="2" /><path d="M42.5,86.5 c-2.529,-4.703 -5.271,-9.146 -8,-13" fill="none" stroke="#000000" stroke-width="2" /><path d="M59,87.5 c2.857,-4.909 5.422,-9.862 7.5,-14.5" fill="none" stroke="#000000" stroke-width="2" /></svg>