<?xml version='1.0' encoding='utf-8'?>
<svg xmlns="http://www.w3.org/2000/svg" height="100px" version="1.0" viewBox="0 0 100 100" width="100px" x="0px" y="0px">
<line fill="none" stroke="#000000" stroke-width="2" x1="63.5" x2="94" y1="45" y2="45" /><line fill="none" stroke="#000000" stroke-width="2" x1="23" x2="23" y1="50" y2="86" /><line fill="none" stroke="#000000" stroke-width="2" x1="36.5" x2="36.5" y1="38.5" y2="50" /><line fill="none" stroke="#000000" stroke-width="2" x1="57" x2="16" y1="50" y2="50" /><line fill="none" stroke="#000000" stroke-width="2" x1="54" x2="19" y1="38.5" y2="38.5" /><line fill="none" stroke="#000000" stroke-width="2" x1="50" x2="50" y1="95" y2="50" /><line fill="none" stroke="#000000" stroke-width="2" x1="24" x2="50" y1="73" y2="73" /><line fill="none" stroke="#000000" stroke-width="2" x1="24" x2="50" y1="61.5" y2="61.5" /><polyline fill="none" points="15,22.5 46,22.5 46,9 14,9 14,23.5" stroke="#000000" stroke-width="2" /><polyline fill="none" points="57,22.5 88,22.5 88,9 56,9 56,23.5" stroke="#000000" stroke-width="2" /><path d="M4,93 c5.313,-11.966 8,-25.515 8,-43.5 V30.0 h81.0" fill="none" stroke="#000000" stroke-width="2" /><path d="M54.5,92.5 c20.893,-9.853 29.524,-20.917 33,-47.5" fill="none" stroke="#000000" stroke-width="2" /><path d="M54.5,64 c5.163,-8.163 9.562,-19.112 12,-30" fill="none" stroke="#000000" stroke-width="2" /><path d="M95.5,92.5 c-19.168,-9.257 -27.949,-21.001 -30,-42.5" fill="none" stroke="#000000" stroke-width="2" /><path d="M14,87 c11.16,-1.09 23.984,-2.879 36,-5" fill="none" stroke="#000000" stroke-width="2" /></svg>