<?xml version='1.0' encoding='utf-8'?>
<svg xmlns="http://www.w3.org/2000/svg" height="100px" version="1.0" viewBox="0 0 100 100" width="100px" x="0px" y="0px">
<line fill="none" stroke="#000000" stroke-width="2" x1="5" x2="35" y1="29.5" y2="29.5" /><line fill="none" stroke="#000000" stroke-width="2" x1="20" x2="20" y1="81.5" y2="8" /><polyline fill="none" points="45,54.5 77,54.5 77,28.5 46,28.5" stroke="#000000" stroke-width="2" /><path d="M5,87 c11.276,-3.637 20.943,-7.762 33,-14" fill="none" stroke="#000000" stroke-width="2" /><path d="M85,62 c-2.523,0 -6.672,-0.167 -11,-0.5" fill="none" stroke="#000000" stroke-width="2" /><path d="M46,15 h46.5 c-1.432,42.487 -3.448,47 -7.5,47" fill="none" stroke="#000000" stroke-width="2" /><path d="M36,37.5 c5.658,-9.718 10.379,-22.011 13,-34.5" fill="none" stroke="#000000" stroke-width="2" /><path d="M95,66.5 c-2.187,24.755 -2.464,25 -28.783,25 c-20.916,0 -21.217,-0.234 -21.217,-12 v-52.0" fill="none" stroke="#000000" stroke-width="2" /></svg>