<?xml version='1.0' encoding='utf-8'?>
<svg xmlns="http://www.w3.org/2000/svg" height="100px" version="1.0" viewBox="0 0 100 100" width="100px" x="0px" y="0px">
<line fill="none" stroke="#000000" stroke-width="2" x1="7" x2="93" y1="89" y2="89" /><line fill="none" stroke="#000000" stroke-width="2" x1="86" x2="14" y1="67.5" y2="67.5" /><line fill="none" stroke="#000000" stroke-width="2" x1="50" x2="50" y1="89" y2="54" /><line fill="none" stroke="#000000" stroke-width="2" x1="67.5" x2="67.5" y1="56" y2="6" /><line fill="none" stroke="#000000" stroke-width="2" x1="93" x2="48" y1="17.5" y2="17.5" /><line fill="none" stroke="#000000" stroke-width="2" x1="27.5" x2="27.5" y1="56" y2="6" /><line fill="none" stroke="#000000" stroke-width="2" x1="44" x2="7" y1="17.5" y2="17.5" /><path d="M94.5,51 c-12.254,-11.31 -20.732,-22.257 -26.5,-34" fill="none" stroke="#000000" stroke-width="2" /><path d="M5.5,51 c10.002,-10.528 17.222,-22.031 21.5,-34" fill="none" stroke="#000000" stroke-width="2" /><path d="M40.5,51 c12.682,-10.75 21.211,-21.87 26.5,-34" fill="none" stroke="#000000" stroke-width="2" /><path d="M44.5,40.5 c-4.52,-7.078 -10.21,-14.909 -16.5,-22.5" fill="none" stroke="#000000" stroke-width="2" /></svg>