<?xml version='1.0' encoding='utf-8'?>
<svg xmlns="http://www.w3.org/2000/svg" height="100px" version="1.0" viewBox="0 0 100 100" width="100px" x="0px" y="0px">
<line fill="none" stroke="#000000" stroke-width="2" x1="4.5" x2="32" y1="32.5" y2="32.5" /><line fill="none" stroke="#000000" stroke-width="2" x1="18.5" x2="18.5" y1="76.5" y2="8" /><line fill="none" stroke="#000000" stroke-width="2" x1="67.5" x2="67.5" y1="14" y2="52.5" /><line fill="none" stroke="#000000" stroke-width="2" x1="36" x2="95.5" y1="39" y2="39" /><line fill="none" stroke="#000000" stroke-width="2" x1="65" x2="65" y1="14" y2="4" /><line fill="none" stroke="#000000" stroke-width="2" x1="44.689" x2="90.311" y1="87" y2="87" /><polyline fill="none" points="42,53.5 89.5,53.5 89.5,25 42,25" stroke="#000000" stroke-width="2" /><polyline fill="none" points="90,94 90,64 44,64 44,94" stroke="#000000" stroke-width="2" /><path d="M4.5,82.5 c9.91,-3.637 18.404,-7.762 29,-14" fill="none" stroke="#000000" stroke-width="2" /><path d="M27,91.5 c6.048,-14.052 9,-29.832 9,-51 V14.0 h59.0" fill="none" stroke="#000000" stroke-width="2" /></svg>