<?xml version='1.0' encoding='utf-8'?>
<svg xmlns="http://www.w3.org/2000/svg" height="100px" version="1.0" viewBox="0 0 100 100" width="100px" x="0px" y="0px">
<line fill="none" stroke="#000000" stroke-width="2" x1="7" x2="93" y1="14" y2="14" /><line fill="none" stroke="#000000" stroke-width="2" x1="24" x2="24" y1="59" y2="93.5" /><line fill="none" stroke="#000000" stroke-width="2" x1="24" x2="84" y1="88.5" y2="88.5" /><line fill="none" stroke="#000000" stroke-width="2" x1="25" x2="84" y1="74" y2="74" /><line fill="none" stroke="#000000" stroke-width="2" x1="6.5" x2="93.5" y1="45.5" y2="45.5" /><line fill="none" stroke="#000000" stroke-width="2" x1="78" x2="21" y1="30.5" y2="30.5" /><line fill="none" stroke="#000000" stroke-width="2" x1="47" x2="47" y1="45.5" y2="19.5" /><polyline fill="none" points="84,93.5 84,60 24.5,60" stroke="#000000" stroke-width="2" /><path d="M50,3 c-8.054,12.027 -23.936,23.007 -45,29.5" fill="none" stroke="#000000" stroke-width="2" /><path d="M57,14 c9.457,8.448 22.354,15.591 38,20.5" fill="none" stroke="#000000" stroke-width="2" /><path d="M5,65.5 c31.598,-8.966 57.576,-22.073 75,-36.5" fill="none" stroke="#000000" stroke-width="2" /><path d="M79,57 c-3.456,-2.628 -7.329,-5.405 -12,-8.5" fill="none" stroke="#000000" stroke-width="2" /></svg>