<?xml version='1.0' encoding='utf-8'?>
<svg xmlns="http://www.w3.org/2000/svg" height="100px" version="1.0" viewBox="0 0 100 100" width="100px" x="0px" y="0px">
<line fill="none" stroke="#000000" stroke-width="2" x1="6.5" x2="93.5" y1="44" y2="44" /><line fill="none" stroke="#000000" stroke-width="2" x1="14.5" x2="85.5" y1="29.5" y2="29.5" /><line fill="none" stroke="#000000" stroke-width="2" x1="9.5" x2="90.5" y1="15.5" y2="15.5" /><line fill="none" stroke="#000000" stroke-width="2" x1="50" x2="50" y1="44" y2="15.5" /><line fill="none" stroke="#000000" stroke-width="2" x1="93" x2="7" y1="55.5" y2="55.5" /><path d="M38,15.5 c-2.549,-4.268 -5.327,-8.441 -8,-12" fill="none" stroke="#000000" stroke-width="2" /><path d="M62,15.5 c3.024,-3.951 5.896,-8.266 8,-12" fill="none" stroke="#000000" stroke-width="2" /><path d="M10,91.5 c32.117,-4.28 55.781,-18.224 65.5,-36" fill="none" stroke="#000000" stroke-width="2" /><path d="M44.5,44 c-7.233,11.375 -16.504,21.357 -29,31" fill="none" stroke="#000000" stroke-width="2" /><path d="M20.5,71 c23.854,4.139 43.711,10.24 69.5,21.5" fill="none" stroke="#000000" stroke-width="2" /></svg>