<?xml version='1.0' encoding='utf-8'?>
<svg xmlns="http://www.w3.org/2000/svg" height="100px" version="1.0" viewBox="0 0 100 100" width="100px" x="0px" y="0px">
<line fill="none" stroke="#000000" stroke-width="2" x1="40.5" x2="90.5" y1="28.5" y2="28.5" /><polyline fill="none" points="40.5,47.5 90.5,47.5 90.5,10.5 39.5,10.5 39.5,48.5" stroke="#000000" stroke-width="2" /><path d="M3.5,94 c16.564,-13.677 28,-40.016 28,-70 h-28.0" fill="none" stroke="#000000" stroke-width="2" /><path d="M19.5,5 c-2.479,22.511 -6.868,41.968 -12.5,57.5" fill="none" stroke="#000000" stroke-width="2" /><path d="M9.5,55 c8.402,6.791 14.943,14.458 23.5,28" fill="none" stroke="#000000" stroke-width="2" /><path d="M34,59.5 h60.0 c-0.791,27.472 -3.222,31 -10.5,31 c-3.975,0 -9.859,-0.321 -17,-1" fill="none" stroke="#000000" stroke-width="2" /><path d="M33.5,92 c20.031,-9.347 31.5,-25.923 31.5,-45.5 v-35.0" fill="none" stroke="#000000" stroke-width="2" /></svg>