<?xml version='1.0' encoding='utf-8'?>
<svg xmlns="http://www.w3.org/2000/svg" height="100px" version="1.0" viewBox="0 0 100 100" width="100px" x="0px" y="0px">
<line fill="none" stroke="#000000" stroke-width="2" x1="93" x2="7" y1="55" y2="55" /><line fill="none" stroke="#000000" stroke-width="2" x1="67.5" x2="67.5" y1="48.5" y2="5.5" /><line fill="none" stroke="#000000" stroke-width="2" x1="93" x2="48" y1="17" y2="17" /><line fill="none" stroke="#000000" stroke-width="2" x1="27.5" x2="27.5" y1="48.5" y2="5.5" /><line fill="none" stroke="#000000" stroke-width="2" x1="44" x2="7" y1="17" y2="17" /><path d="M10,91 c32.117,-4.28 55.781,-18.224 65.5,-36" fill="none" stroke="#000000" stroke-width="2" /><path d="M42,47 c-6.865,9.998 -15.264,18.829 -26.5,27.5" fill="none" stroke="#000000" stroke-width="2" /><path d="M20.5,70.5 c23.854,4.139 43.711,10.24 69.5,21.5" fill="none" stroke="#000000" stroke-width="2" /><path d="M94.5,44.5 c-12.642,-8.955 -21.25,-18.132 -26.5,-28" fill="none" stroke="#000000" stroke-width="2" /><path d="M5.5,44.5 c10.328,-8.953 17.211,-18.119 21.5,-28" fill="none" stroke="#000000" stroke-width="2" /><path d="M42,43 c11.785,-8.55 19.732,-17.149 25,-26.5" fill="none" stroke="#000000" stroke-width="2" /><path d="M44.5,36 c-4.701,-6.063 -10.426,-12.463 -16.5,-18.5" fill="none" stroke="#000000" stroke-width="2" /></svg>