<?xml version='1.0' encoding='utf-8'?>
<svg xmlns="http://www.w3.org/2000/svg" height="100px" version="1.0" viewBox="0 0 100 100" width="100px" x="0px" y="0px">
<line fill="none" stroke="#000000" stroke-width="2" x1="7" x2="93" y1="65.5" y2="65.5" /><line fill="none" stroke="#000000" stroke-width="2" x1="76" x2="29.5" y1="41.5" y2="41.5" /><path d="M51,56.5 v29.5 c0,4.427 -0.683,5 -7.5,5 c-4,0 -8.863,-0.169 -14.5,-0.5" fill="none" stroke="#000000" stroke-width="2" /><path d="M75.299,41.788 c-7.234,7.129 -14.521,12.088 -24.299,16.212" fill="none" stroke="#000000" stroke-width="2" /><path d="M62.5,24 h28.5 c-1.23,22.982 -3.475,26.5 -8,26.5 c-2.822,0 -6.761,-0.317 -10.5,-1" fill="none" stroke="#000000" stroke-width="2" /><path d="M7,53 c18.262,-7.005 28.626,-20.792 30,-42.5" fill="none" stroke="#000000" stroke-width="2" /><path d="M10,10.5 h56.0 c-1.443,5.8 -3.562,13.349 -5.5,19.5" fill="none" stroke="#000000" stroke-width="2" /></svg>