<?xml version='1.0' encoding='utf-8'?>
<svg xmlns="http://www.w3.org/2000/svg" height="100px" version="1.0" viewBox="0 0 100 100" width="100px" x="0px" y="0px">
<line fill="none" stroke="#000000" stroke-width="2" x1="4" x2="39.5" y1="52.5" y2="44.5" /><line fill="none" stroke="#000000" stroke-width="2" x1="43" x2="5.5" y1="11" y2="11" /><line fill="none" stroke="#000000" stroke-width="2" x1="53.5" x2="97" y1="20" y2="20" /><path d="M23.5,30 v52.5 c0,7.552 -0.469,8 -5.5,8 c-2.689,0 -6.988,-0.175 -11.5,-0.5" fill="none" stroke="#000000" stroke-width="2" /><path d="M42.18,11.427 c-5.6,8.027 -11.344,14.17 -18.68,20.073" fill="none" stroke="#000000" stroke-width="2" /><path d="M38,92 c30.733,-12.386 46.927,-33.761 50,-72" fill="none" stroke="#000000" stroke-width="2" /><path d="M96,92 c-24.829,-14.778 -36.005,-32.015 -40,-64" fill="none" stroke="#000000" stroke-width="2" /><path d="M41.5,49 c6.867,-11.971 12.757,-28.03 16,-44" fill="none" stroke="#000000" stroke-width="2" /></svg>