<?xml version='1.0' encoding='utf-8'?>
<svg xmlns="http://www.w3.org/2000/svg" height="100px" version="1.0" viewBox="0 0 100 100" width="100px" x="0px" y="0px">
<line fill="none" stroke="#000000" stroke-width="2" x1="14.5" x2="93.5" y1="38.5" y2="38.5" /><line fill="none" stroke="#000000" stroke-width="2" x1="31.5" x2="54.5" y1="51.5" y2="51.5" /><path d="M5.5,91 c6.048,-14.052 9,-29.832 9,-51 v-30.0 h72.5 v16.0 h-71.5" fill="none" stroke="#000000" stroke-width="2" /><path d="M62,38.5 v47.5 c0,5.875 0.156,6 13.5,6 c16.34,0 16.559,-0.211 18,-18" fill="none" stroke="#000000" stroke-width="2" /><path d="M15,71 c10.693,-8.431 18.408,-19.843 22,-32.5" fill="none" stroke="#000000" stroke-width="2" /><path d="M53.502,52.436 c-1.127,17.506 -15.202,33.637 -36.002,40.064" fill="none" stroke="#000000" stroke-width="2" /><path d="M45.5,73.5 c-4.939,-3.537 -10.952,-7.376 -16.5,-10.5" fill="none" stroke="#000000" stroke-width="2" /><path d="M62,67 c10.328,-3.463 19.321,-7.909 30,-15" fill="none" stroke="#000000" stroke-width="2" /></svg>