<?xml version='1.0' encoding='utf-8'?>
<svg xmlns="http://www.w3.org/2000/svg" height="100px" version="1.0" viewBox="0 0 100 100" width="100px" x="0px" y="0px">
<line fill="none" stroke="#000000" stroke-width="2" x1="92" x2="19" y1="63" y2="63" /><line fill="none" stroke="#000000" stroke-width="2" x1="56" x2="56" y1="57" y2="20.5" /><line fill="none" stroke="#000000" stroke-width="2" x1="92" x2="19" y1="38.5" y2="38.5" /><path d="M5,91 c5.376,-14.052 8,-29.832 8,-51 v-31.0 h77.0 v11.5 h-76.0" fill="none" stroke="#000000" stroke-width="2" /><path d="M15,91.5 c30.889,-3.172 54.866,-14.739 64,-28.5" fill="none" stroke="#000000" stroke-width="2" /><path d="M49.5,54 c-6.438,9.187 -15.152,17.708 -26.5,25.5" fill="none" stroke="#000000" stroke-width="2" /><path d="M28.5,75.5 c22.074,3.225 39.939,7.946 63.5,17" fill="none" stroke="#000000" stroke-width="2" /><path d="M42,35 c-5.398,-3.925 -11.307,-7.769 -17,-11" fill="none" stroke="#000000" stroke-width="2" /><path d="M70,35 c6.834,-3.472 12.934,-7.505 17,-11" fill="none" stroke="#000000" stroke-width="2" /><path d="M18.5,56 c17.468,-5.166 29.135,-10.937 36.5,-17" fill="none" stroke="#000000" stroke-width="2" /><path d="M92.5,56 c-17.121,-5.321 -28.258,-10.935 -35.5,-17" fill="none" stroke="#000000" stroke-width="2" /></svg>