<?xml version='1.0' encoding='utf-8'?>
<svg xmlns="http://www.w3.org/2000/svg" height="100px" version="1.0" viewBox="0 0 100 100" width="100px" x="0px" y="0px">
<line fill="none" stroke="#000000" stroke-width="2" x1="51" x2="51" y1="19" y2="4" /><line fill="none" stroke="#000000" stroke-width="2" x1="63.5" x2="94" y1="46.5" y2="46.5" /><line fill="none" stroke="#000000" stroke-width="2" x1="23" x2="23" y1="52.5" y2="87" /><line fill="none" stroke="#000000" stroke-width="2" x1="36.5" x2="36.5" y1="41.5" y2="52.5" /><line fill="none" stroke="#000000" stroke-width="2" x1="57" x2="16" y1="52.5" y2="52.5" /><line fill="none" stroke="#000000" stroke-width="2" x1="54" x2="19" y1="41.5" y2="41.5" /><line fill="none" stroke="#000000" stroke-width="2" x1="50" x2="50" y1="95.5" y2="52.5" /><line fill="none" stroke="#000000" stroke-width="2" x1="24" x2="50" y1="74.5" y2="74.5" /><line fill="none" stroke="#000000" stroke-width="2" x1="24" x2="50" y1="63.5" y2="63.5" /><polyline fill="none" points="13,7 13,19 89,19 89,7" stroke="#000000" stroke-width="2" /><path d="M4,93.5 c5.313,-11.966 8,-25.515 8,-43.5 v-17.0 h81.0" fill="none" stroke="#000000" stroke-width="2" /><path d="M54.5,93 c20.893,-9.646 29.524,-20.477 33,-46.5" fill="none" stroke="#000000" stroke-width="2" /><path d="M54.5,66 c5.163,-8.163 9.562,-19.112 12,-30" fill="none" stroke="#000000" stroke-width="2" /><path d="M95.5,93 c-19.168,-9.039 -27.949,-20.507 -30,-41.5" fill="none" stroke="#000000" stroke-width="2" /><path d="M14,88 c11.16,-1.09 23.984,-2.879 36,-5" fill="none" stroke="#000000" stroke-width="2" /><path d="M55.5,33 c-3.117,-5.032 -6.549,-9.873 -10,-14" fill="none" stroke="#000000" stroke-width="2" /><path d="M31.5,33 c-3.117,-5.032 -6.549,-9.873 -10,-14" fill="none" stroke="#000000" stroke-width="2" /><path d="M71.5,33 c3.871,-4.696 7.309,-9.527 10,-14" fill="none" stroke="#000000" stroke-width="2" /></svg>