<?xml version='1.0' encoding='utf-8'?>
<svg xmlns="http://www.w3.org/2000/svg" height="100px" version="1.0" viewBox="0 0 100 100" width="100px" x="0px" y="0px">
<line fill="none" stroke="#000000" stroke-width="2" x1="50" x2="50" y1="20.5" y2="4.5" /><line fill="none" stroke="#000000" stroke-width="2" x1="24.5" x2="24.5" y1="57" y2="28" /><line fill="none" stroke="#000000" stroke-width="2" x1="43" x2="5.5" y1="39" y2="39" /><line fill="none" stroke="#000000" stroke-width="2" x1="69" x2="69" y1="31.5" y2="61.5" /><line fill="none" stroke="#000000" stroke-width="2" x1="48" x2="91" y1="46" y2="46" /><line fill="none" stroke="#000000" stroke-width="2" x1="45.5" x2="5.5" y1="65.501" y2="65.501" /><polyline fill="none" points="12,7.5 12,20.5 88,20.5 88,7.5" stroke="#000000" stroke-width="2" /><polyline fill="none" points="48,61.5 91,61.5 91,30.5 47,30.5 47,62.5" stroke="#000000" stroke-width="2" /><path d="M6,59.5 c8.464,-6.812 13.946,-13.541 17.5,-21" fill="none" stroke="#000000" stroke-width="2" /><path d="M41,25 c-11.439,2.314 -22.008,3.921 -33,5" fill="none" stroke="#000000" stroke-width="2" /><path d="M43,55 c-5.48,-5.173 -11.878,-10.853 -18,-16" fill="none" stroke="#000000" stroke-width="2" /><path d="M59,30.5 c3.021,-3.294 5.887,-6.892 8,-10" fill="none" stroke="#000000" stroke-width="2" /><path d="M69,61.5 V87.0 c0,4.526 0.82,5 11,5 c13.91,0 14.146,-0.229 15,-15" fill="none" stroke="#000000" stroke-width="2" /><path d="M34,93.5 c15.703,-5.933 24.5,-17.667 24.5,-32" fill="none" stroke="#000000" stroke-width="2" /><path d="M92,83 c-1.828,-4.229 -4.519,-9.449 -7,-13.5" fill="none" stroke="#000000" stroke-width="2" /><path d="M71,82.5 c5.814,-0.626 12.386,-1.818 19,-3.5" fill="none" stroke="#000000" stroke-width="2" /><path d="M74,82 c2.352,-4.723 4.707,-10.813 6.5,-17" fill="none" stroke="#000000" stroke-width="2" /><path d="M6,93.5 c18.16,-3.272 32.721,-14.843 35.525,-27.221" fill="none" stroke="#000000" stroke-width="2" /><path d="M23.5,59.5 c-3.145,7.208 -6.98,13.302 -12,19 c11.108,1.6 20.412,3.874 30.5,7.5" fill="none" stroke="#000000" stroke-width="2" /></svg>