<?xml version='1.0' encoding='utf-8'?>
<svg xmlns="http://www.w3.org/2000/svg" height="100px" version="1.0" viewBox="0 0 100 100" width="100px" x="0px" y="0px">
<line fill="none" stroke="#000000" stroke-width="2" x1="51.5" x2="51.5" y1="13.5" y2="3" /><line fill="none" stroke="#000000" stroke-width="2" x1="38.5" x2="38.5" y1="27" y2="17" /><line fill="none" stroke="#000000" stroke-width="2" x1="17.5" x2="59" y1="27" y2="27" /><line fill="none" stroke="#000000" stroke-width="2" x1="56.5" x2="19.5" y1="60.5" y2="60.5" /><polyline fill="none" points="93,23 64,23 64,94" stroke="#000000" stroke-width="2" /><polyline fill="none" points="23,52 54.5,52 54.5,35.5 22,35.5 22,53" stroke="#000000" stroke-width="2" /><path d="M71.5,83.5 h7.5 c9.281,0 13.5,-3.608 13.5,-11 c0,-8.73 -4.709,-16.854 -14,-23 c5.272,-8.175 10.111,-17.467 13.575,-25.881" fill="none" stroke="#000000" stroke-width="2" /><path d="M3.5,92 c4.898,-10.415 9,-30.94 9,-47 v-31.5 h80.5" fill="none" stroke="#000000" stroke-width="2" /><path d="M15.5,77 c19.165,-0.8 34.789,-1.914 44,-3" fill="none" stroke="#000000" stroke-width="2" /><path d="M38.5,70 v16.0 c0,5.734 -0.268,6 -4.5,6 c-2.714,0 -6.178,-0.14 -10,-0.5" fill="none" stroke="#000000" stroke-width="2" /><path d="M55.895,60.705 c-5.691,4.33 -10.343,7.141 -17.395,10.295" fill="none" stroke="#000000" stroke-width="2" /></svg>