<?xml version='1.0' encoding='utf-8'?>
<svg xmlns="http://www.w3.org/2000/svg" height="100px" version="1.0" viewBox="0 0 100 100" width="100px" x="0px" y="0px">
<line fill="none" stroke="#000000" stroke-width="2" x1="51.5" x2="51.5" y1="12.5" y2="2" /><line fill="none" stroke="#000000" stroke-width="2" x1="54.5" x2="54.5" y1="64.5" y2="90.5" /><line fill="none" stroke="#000000" stroke-width="2" x1="14" x2="94" y1="90.5" y2="90.5" /><line fill="none" stroke="#000000" stroke-width="2" x1="88.5" x2="19.5" y1="78.5" y2="78.5" /><line fill="none" stroke="#000000" stroke-width="2" x1="25" x2="84" y1="40" y2="40" /><line fill="none" stroke="#000000" stroke-width="2" x1="25" x2="84" y1="30" y2="30" /><line fill="none" stroke="#000000" stroke-width="2" x1="18.5" x2="89.5" y1="49" y2="49" /><line fill="none" stroke="#000000" stroke-width="2" x1="15" x2="93" y1="58.5" y2="58.5" /><line fill="none" stroke="#000000" stroke-width="2" x1="54.5" x2="54.5" y1="58.5" y2="20" /><polyline fill="none" points="85,41 85,20 24,20 24,41" stroke="#000000" stroke-width="2" /><path d="M3.5,91.5 c4.898,-10.415 9,-30.94 9,-47 v-32.0 h80.5" fill="none" stroke="#000000" stroke-width="2" /><path d="M64,58.5 v7.804 c0,3.541 0.213,3.696 14,3.696 c13.222,0 13.412,-0.144 14,-7.5" fill="none" stroke="#000000" stroke-width="2" /><path d="M14.5,73.5 c16.798,-1.944 28.094,-8.036 31.5,-15" fill="none" stroke="#000000" stroke-width="2" /></svg>