<?xml version='1.0' encoding='utf-8'?>
<svg xmlns="http://www.w3.org/2000/svg" height="100px" version="1.0" viewBox="0 0 100 100" width="100px" x="0px" y="0px">
<line fill="none" stroke="#000000" stroke-width="2" x1="37.5" x2="64" y1="85.5" y2="85.5" /><line fill="none" stroke="#000000" stroke-width="2" x1="37.5" x2="64" y1="57.5" y2="57.5" /><line fill="none" stroke="#000000" stroke-width="2" x1="34" x2="66.5" y1="11" y2="11" /><polyline fill="none" points="64,92.5 64,32 36.5,32 36.5,92.5" stroke="#000000" stroke-width="2" /><path d="M50.5,11 c-0.771,7.789 -1.756,14.659 -3,21" fill="none" stroke="#000000" stroke-width="2" /><path d="M7,11 h21.5 v23.0 h-19.0 c-0.563,11.548 -1.41,22.351 -2.5,32" fill="none" stroke="#000000" stroke-width="2" /><path d="M8,56.5 h20.5 c-1.902,33.056 -2.595,34 -6.5,34 c-2.278,0 -9.547,-0.507 -14,-1" fill="none" stroke="#000000" stroke-width="2" /><path d="M70.5,11 h21.5 v23.0 h-19.0 c-0.563,11.548 -1.41,22.351 -2.5,32" fill="none" stroke="#000000" stroke-width="2" /><path d="M71.5,56.5 h20.5 c-1.902,33.056 -2.595,34 -6.5,34 c-2.278,0 -9.547,-0.507 -14,-1" fill="none" stroke="#000000" stroke-width="2" /></svg>