<?xml version='1.0' encoding='utf-8'?>
<svg xmlns="http://www.w3.org/2000/svg" height="100px" version="1.0" viewBox="0 0 100 100" width="100px" x="0px" y="0px">
<line fill="none" stroke="#000000" stroke-width="2" x1="29" x2="29" y1="21.5" y2="3" /><line fill="none" stroke="#000000" stroke-width="2" x1="10" x2="43.5" y1="37" y2="32.5" /><line fill="none" stroke="#000000" stroke-width="2" x1="29" x2="51" y1="11.5" y2="11.5" /><path d="M24.5,25.5 v18.5 c0,5.317 0.203,5.5 12,5.5 c15.676,0 15.939,-0.255 16.5,-11.5" fill="none" stroke="#000000" stroke-width="2" /><path d="M47,35 c2.521,-3.973 4.408,-7.921 6.053,-12.818" fill="none" stroke="#000000" stroke-width="2" /><path d="M3.5,91 c4.434,-11.884 6.5,-25.925 6.5,-51 v-18.5 h44.0" fill="none" stroke="#000000" stroke-width="2" /><path d="M41,55 v28.5 c0,5.964 1.266,7 18.5,7 h11.0 c21.984,0 22.357,-0.333 23.5,-17.5" fill="none" stroke="#000000" stroke-width="2" /><path d="M10.5,91.5 c9.77,-6.318 15,-17.284 15,-36.5" fill="none" stroke="#000000" stroke-width="2" /><path d="M57.5,24 c13.784,-4.106 24.571,-9.559 32,-15.5" fill="none" stroke="#000000" stroke-width="2" /><path d="M58,50.5 c15.023,-4.792 25.56,-10.888 34,-19" fill="none" stroke="#000000" stroke-width="2" /><path d="M54.5,78.5 c17.383,-5.077 29.432,-12.087 40,-22.5" fill="none" stroke="#000000" stroke-width="2" /></svg>