<?xml version='1.0' encoding='utf-8'?>
<svg xmlns="http://www.w3.org/2000/svg" height="100px" version="1.0" viewBox="0 0 100 100" width="100px" x="0px" y="0px">
<line fill="none" stroke="#000000" stroke-width="2" x1="15" x2="15" y1="94" y2="43.5" /><line fill="none" stroke="#000000" stroke-width="2" x1="46.5" x2="46.5" y1="30" y2="5.5" /><line fill="none" stroke="#000000" stroke-width="2" x1="72" x2="98" y1="21" y2="21" /><line fill="none" stroke="#000000" stroke-width="2" x1="66" x2="24.5" y1="63" y2="65" /><line fill="none" stroke="#000000" stroke-width="2" x1="46.5" x2="46.5" y1="64" y2="93" /><polyline fill="none" points="31,11 31,30 62,30 62,11" stroke="#000000" stroke-width="2" /><path d="M26,28 c-6.155,11.01 -14.33,20.146 -24,27" fill="none" stroke="#000000" stroke-width="2" /><path d="M27,6 c-6.021,9.226 -13.919,16.872 -24,23" fill="none" stroke="#000000" stroke-width="2" /><path d="M61,91 c20.207,-15.312 28.916,-32.429 32,-70" fill="none" stroke="#000000" stroke-width="2" /><path d="M97.5,91 c-14.58,-14.065 -21.473,-30.208 -24,-63" fill="none" stroke="#000000" stroke-width="2" /><path d="M64.5,41 c4.733,-9.815 8.766,-22.903 11,-36" fill="none" stroke="#000000" stroke-width="2" /><path d="M41.5,59.5 c-4.188,-4.842 -9.816,-11.044 -14.5,-16" fill="none" stroke="#000000" stroke-width="2" /><path d="M35.5,64.5 c9.936,-8.254 17.728,-15.478 26,-24" fill="none" stroke="#000000" stroke-width="2" /><path d="M32,49 c5.965,-4.932 11.064,-9.771 16,-15" fill="none" stroke="#000000" stroke-width="2" /><path d="M26,88.5 c4.338,-5.696 7.857,-11.756 10.5,-18" fill="none" stroke="#000000" stroke-width="2" /><path d="M69.5,69.5 c-2.85,-5.629 -6.682,-12.762 -10,-18.5" fill="none" stroke="#000000" stroke-width="2" /><path d="M64,82.5 c-2.224,-4.331 -4.629,-8.569 -7.5,-13" fill="none" stroke="#000000" stroke-width="2" /></svg>