<?xml version='1.0' encoding='utf-8'?>
<svg xmlns="http://www.w3.org/2000/svg" height="100px" version="1.0" viewBox="0 0 100 100" width="100px" x="0px" y="0px">
<line fill="none" stroke="#000000" stroke-width="2" x1="17.5" x2="17.5" y1="94" y2="6" /><line fill="none" stroke="#000000" stroke-width="2" x1="26" x2="94" y1="89" y2="89" /><line fill="none" stroke="#000000" stroke-width="2" x1="93.5" x2="26.5" y1="11" y2="11" /><path d="M4,58 c2.624,-10.247 4.357,-21.376 5,-32" fill="none" stroke="#000000" stroke-width="2" /><path d="M30,47.5 c-0.859,-6.952 -2.405,-14.611 -4.5,-22" fill="none" stroke="#000000" stroke-width="2" /><path d="M31.5,70 c9.051,-19.434 14.836,-39.157 17.5,-59" fill="none" stroke="#000000" stroke-width="2" /><path d="M74.5,89 c7.124,-19.697 11.734,-39.153 14,-59 h-43.0" fill="none" stroke="#000000" stroke-width="2" /><path d="M78.5,52 c-9.432,-4.525 -18.68,-8.126 -28.5,-11" fill="none" stroke="#000000" stroke-width="2" /><path d="M72,71 c-9.432,-4.525 -18.68,-8.126 -28.5,-11" fill="none" stroke="#000000" stroke-width="2" /></svg>