<?xml version='1.0' encoding='utf-8'?>
<svg xmlns="http://www.w3.org/2000/svg" height="100px" version="1.0" viewBox="0 0 100 100" width="100px" x="0px" y="0px">
<line fill="none" stroke="#000000" stroke-width="2" x1="16.5" x2="16.5" y1="94" y2="6" /><path d="M4,58 c2.624,-10.247 4.357,-21.376 5,-32" fill="none" stroke="#000000" stroke-width="2" /><path d="M26.5,47.5 c-0.573,-6.952 -1.604,-14.611 -3,-22" fill="none" stroke="#000000" stroke-width="2" /><path d="M24.5,91.5 c6.72,-14.052 10,-29.832 10,-51 v-30.0 h59.5" fill="none" stroke="#000000" stroke-width="2" /><path d="M49,26.5 c-1.146,11.062 -4.252,20.892 -9,29" fill="none" stroke="#000000" stroke-width="2" /><path d="M90,26 c-2.01,10.903 -5.799,20.384 -11,28" fill="none" stroke="#000000" stroke-width="2" /><path d="M35.5,91.5 c18.332,-10.651 29.5,-30.604 29.5,-55 v-20.0" fill="none" stroke="#000000" stroke-width="2" /><path d="M94.5,91.5 c-18.332,-10.651 -29.5,-30.604 -29.5,-55" fill="none" stroke="#000000" stroke-width="2" /></svg>