<?xml version='1.0' encoding='utf-8'?>
<svg xmlns="http://www.w3.org/2000/svg" height="100px" version="1.0" viewBox="0 0 100 100" width="100px" x="0px" y="0px">
<line fill="none" stroke="#000000" stroke-width="2" x1="7" x2="93" y1="35" y2="35" /><line fill="none" stroke="#000000" stroke-width="2" x1="50" x2="50" y1="59" y2="11.5" /><path d="M14,12.5 c25,0 49.088,-1.53 72,-4.5" fill="none" stroke="#000000" stroke-width="2" /><path d="M6,59.5 c20.788,-7.737 34.423,-15.783 43,-24.5" fill="none" stroke="#000000" stroke-width="2" /><path d="M94,59.5 c-20.788,-7.737 -34.423,-15.783 -43,-24.5" fill="none" stroke="#000000" stroke-width="2" /><path d="M32,31 c-3.102,-5.021 -6.604,-10.134 -10,-14.5" fill="none" stroke="#000000" stroke-width="2" /><path d="M68,31 c4.106,-5.511 7.746,-11.534 10,-16.5" fill="none" stroke="#000000" stroke-width="2" /><path d="M63,75.5 c-5.825,-4.966 -12.691,-9.811 -20,-14" fill="none" stroke="#000000" stroke-width="2" /><path d="M32.5,62.5 v17.5 c0,10.571 0.292,10.911 7,11.5 c3.618,0.317 8.079,0.5 12.5,0.5 c4.34,0 8.638,-0.161 12.5,-0.5 c11.145,-0.978 11.313,-1.124 13,-18" fill="none" stroke="#000000" stroke-width="2" /><path d="M5.5,89.5 c6.062,-6.838 11.077,-15.696 14,-25" fill="none" stroke="#000000" stroke-width="2" /><path d="M94.5,90 c-4.006,-9.021 -9.154,-18.33 -15,-27" fill="none" stroke="#000000" stroke-width="2" /></svg>