<?xml version='1.0' encoding='utf-8'?>
<svg xmlns="http://www.w3.org/2000/svg" height="100px" version="1.0" viewBox="0 0 100 100" width="100px" x="0px" y="0px">
<line fill="none" stroke="#000000" stroke-width="2" x1="29.5" x2="70.5" y1="19.5" y2="19.5" /><line fill="none" stroke="#000000" stroke-width="2" x1="14" x2="46" y1="39.5" y2="39.5" /><line fill="none" stroke="#000000" stroke-width="2" x1="14" x2="46" y1="52" y2="52" /><line fill="none" stroke="#000000" stroke-width="2" x1="61.5" x2="61.5" y1="57.5" y2="29" /><path d="M94.5,26 c-16.952,-6.522 -31.083,-13.719 -44.5,-22.3 c-13.417,8.581 -27.548,15.777 -44.5,22.3" fill="none" stroke="#000000" stroke-width="2" /><path d="M32.5,73 v10.0 c0,8.819 0.27,9.127 7,9.601 c3.619,0.254 8.079,0.399 12.5,0.399 c4.34,0 8.635,-0.144 12.5,-0.399 c11.255,-0.752 11.504,-1.02 13,-13.601" fill="none" stroke="#000000" stroke-width="2" /><path d="M5.5,91.5 c5.881,-5.263 10.793,-11.75 14,-18.5" fill="none" stroke="#000000" stroke-width="2" /><path d="M94.5,91.5 c-4.018,-6.167 -9.154,-12.565 -15,-18.5" fill="none" stroke="#000000" stroke-width="2" /><path d="M63,82.5 c-5.825,-4.171 -12.754,-8.354 -20,-12" fill="none" stroke="#000000" stroke-width="2" /><path d="M13,67 v-39.0 h33.0 V57.5 c0,7.567 -0.385,8 -6,8 c-1.855,0 -5.498,-0.159 -11.5,-0.5" fill="none" stroke="#000000" stroke-width="2" /><path d="M87,27 V58.0 c0,7.13 -0.867,8 -6.5,8 c-2.75,0 -6.917,-0.144 -12.5,-0.5" fill="none" stroke="#000000" stroke-width="2" /></svg>