<?xml version='1.0' encoding='utf-8'?>
<svg xmlns="http://www.w3.org/2000/svg" height="100px" version="1.0" viewBox="0 0 100 100" width="100px" x="0px" y="0px">
<line fill="none" stroke="#000000" stroke-width="2" x1="61.5" x2="93.5" y1="14" y2="14" /><polyline fill="none" points="14,60 45,60 45,38 13,38 13,66" stroke="#000000" stroke-width="2" /><path d="M49.5,59.5 c12.338,-4.265 23,-18.313 23,-31 v-9.5" fill="none" stroke="#000000" stroke-width="2" /><path d="M94.5,60 c-11.277,-4.254 -22,-18.705 -22,-31.5" fill="none" stroke="#000000" stroke-width="2" /><path d="M52.5,31.5 c5.338,-7.433 9.514,-16.726 12,-27" fill="none" stroke="#000000" stroke-width="2" /><path d="M85.5,33.5 c3.038,-5.4 5.392,-11.581 7.025,-18.723" fill="none" stroke="#000000" stroke-width="2" /><path d="M32.5,66.5 v14.0 c0,10.571 0.292,10.911 7,11.5 c3.618,0.317 8.079,0.5 12.5,0.5 c4.34,0 8.638,-0.161 12.5,-0.5 c11.35,-0.996 11.514,-1.125 13,-16" fill="none" stroke="#000000" stroke-width="2" /><path d="M5.5,90.5 c6.062,-6.017 11.077,-13.812 14,-22" fill="none" stroke="#000000" stroke-width="2" /><path d="M94.5,90 c-4.006,-8.018 -9.154,-16.294 -15,-24.001" fill="none" stroke="#000000" stroke-width="2" /><path d="M63,79.5 c-5.825,-4.966 -12.691,-9.811 -20,-14" fill="none" stroke="#000000" stroke-width="2" /><path d="M52,39 c-8.945,-5.882 -15.977,-11.81 -23,-19.5 c-7.472,8.269 -14.654,14.134 -24.5,20" fill="none" stroke="#000000" stroke-width="2" /><path d="M21.5,7 c-3.598,6.49 -9.008,12.646 -16,18" fill="none" stroke="#000000" stroke-width="2" /><path d="M51,24 c-4.465,-5.784 -9.961,-11.657 -16,-17" fill="none" stroke="#000000" stroke-width="2" /></svg>