<?xml version='1.0' encoding='utf-8'?>
<svg xmlns="http://www.w3.org/2000/svg" height="100px" version="1.0" viewBox="0 0 100 100" width="100px" x="0px" y="0px">
<line fill="none" stroke="#000000" stroke-width="2" x1="60.5" x2="60.5" y1="9.5" y2="41.5" /><line fill="none" stroke="#000000" stroke-width="2" x1="34.5" x2="86.5" y1="31" y2="31" /><line fill="none" stroke="#000000" stroke-width="2" x1="34.5" x2="86.5" y1="20" y2="20" /><path d="M31.5,69.5 v11.0 c0,10.571 0.292,10.911 7,11.5 c3.618,0.317 8.079,0.5 12.5,0.5 c4.34,0 8.638,-0.161 12.5,-0.5 c11.35,-0.996 11.514,-1.125 13,-16" fill="none" stroke="#000000" stroke-width="2" /><path d="M5.5,90.5 c6.062,-5.47 11.027,-12.577 14,-20" fill="none" stroke="#000000" stroke-width="2" /><path d="M94.5,91 c-4.006,-7.016 -9.133,-14.279 -15,-21" fill="none" stroke="#000000" stroke-width="2" /><path d="M63,80.5 c-5.825,-4.257 -12.686,-8.422 -20,-12" fill="none" stroke="#000000" stroke-width="2" /><path d="M7,64 c8.342,-7.322 15.191,-15.63 20,-24" fill="none" stroke="#000000" stroke-width="2" /><path d="M24.5,23.5 c-4.577,-4.65 -10.034,-9.292 -16.5,-14" fill="none" stroke="#000000" stroke-width="2" /><path d="M89,9.5 h-54.5 v33.0 h57.0 c0,18.804 -3.102,22.5 -11,22.5 c-3.279,0 -8.385,-0.143 -14,-0.5" fill="none" stroke="#000000" stroke-width="2" /><path d="M83.5,56.5 c-1.74,-3.083 -3.682,-6.362 -6,-10" fill="none" stroke="#000000" stroke-width="2" /><path d="M66.75,59.75 c-1.182,-3.859 -2.634,-7.932 -4.5,-12.5" fill="none" stroke="#000000" stroke-width="2" /><path d="M50,63 c-0.623,-4.636 -1.585,-9.501 -3,-15" fill="none" stroke="#000000" stroke-width="2" /><path d="M27.5,64 c2.839,-4.853 5.316,-10.249 7.5,-16.5" fill="none" stroke="#000000" stroke-width="2" /></svg>