<?xml version='1.0' encoding='utf-8'?>
<svg xmlns="http://www.w3.org/2000/svg" height="100px" version="1.0" viewBox="0 0 100 100" width="100px" x="0px" y="0px">
<line fill="none" stroke="#000000" stroke-width="2" x1="33" x2="5" y1="26" y2="26" /><path d="M20,6 v77.0 c0,7.683 -0.373,8 -5,8 c-2.246,0 -4.663,-0.119 -9,-0.5" fill="none" stroke="#000000" stroke-width="2" /><path d="M33,53 c-9.689,5.009 -18.711,8.534 -28,11" fill="none" stroke="#000000" stroke-width="2" /><path d="M50.5,13.5 c-4.251,12.196 -10.809,23.085 -19.5,32.5" fill="none" stroke="#000000" stroke-width="2" /><path d="M54.5,10 h19.0 c5.501,13.356 13.467,25.425 23.5,36" fill="none" stroke="#000000" stroke-width="2" /><path d="M26.5,91.5 c18.755,-9.876 29.277,-25.528 31,-50.5" fill="none" stroke="#000000" stroke-width="2" /><path d="M40,41 h47.0 c0,43.327 -3.451,49 -13,49 c-4.367,0 -10.684,-0.168 -16.5,-0.5" fill="none" stroke="#000000" stroke-width="2" /></svg>