<?xml version='1.0' encoding='utf-8'?>
<svg xmlns="http://www.w3.org/2000/svg" height="100px" version="1.0" viewBox="0 0 100 100" width="100px" x="0px" y="0px">
<line fill="none" stroke="#000000" stroke-width="2" x1="27.5" x2="3.5" y1="26" y2="26" /><path d="M16.5,6 v78.0 c0,7.575 -0.404,8 -4.5,8 c-1.832,0 -4.133,-0.132 -8,-0.5" fill="none" stroke="#000000" stroke-width="2" /><path d="M27.5,51 c-8.305,5.009 -16.037,8.534 -24,11" fill="none" stroke="#000000" stroke-width="2" /><path d="M56,92 c12.578,-16.923 17,-34.723 17,-86.5" fill="none" stroke="#000000" stroke-width="2" /><path d="M61,25 h32.5 c0,59.537 -2.099,65 -8,65 c-2.599,0 -7.546,-0.345 -13,-1" fill="none" stroke="#000000" stroke-width="2" /><path d="M44,58 c-5.561,-9.465 -12.716,-20.173 -19,-28.5" fill="none" stroke="#000000" stroke-width="2" /><path d="M29,87.5 c10.454,-18.874 19.71,-38.699 28,-60" fill="none" stroke="#000000" stroke-width="2" /><path d="M31.5,38.5 c4.686,-9.069 9.017,-19.29 13,-31" fill="none" stroke="#000000" stroke-width="2" /><path d="M61.5,83.5 c-2.296,-6.729 -6.416,-16.456 -10.5,-24.5" fill="none" stroke="#000000" stroke-width="2" /><path d="M24,88.5 c10.738,-1.962 23.199,-5.443 35.5,-10" fill="none" stroke="#000000" stroke-width="2" /></svg>