<?xml version='1.0' encoding='utf-8'?>
<svg xmlns="http://www.w3.org/2000/svg" height="100px" version="1.0" viewBox="0 0 100 100" width="100px" x="0px" y="0px">
<line fill="none" stroke="#000000" stroke-width="2" x1="63.5" x2="91.5" y1="69.5" y2="69.5" /><line fill="none" stroke="#000000" stroke-width="2" x1="63.5" x2="63.5" y1="53" y2="4.5" /><line fill="none" stroke="#000000" stroke-width="2" x1="63.5" x2="63.5" y1="87.5" y2="55" /><line fill="none" stroke="#000000" stroke-width="2" x1="33.5" x2="4.5" y1="26" y2="26" /><line fill="none" stroke="#000000" stroke-width="2" x1="95" x2="33.5" y1="13.5" y2="13.5" /><line fill="none" stroke="#000000" stroke-width="2" x1="32.5" x2="96" y1="39" y2="39" /><polyline fill="none" points="38,54 88,54 88,24.5 38,24.5" stroke="#000000" stroke-width="2" /><path d="M26.5,92 c8.592,-8.688 14.881,-21.052 17,-33.5" fill="none" stroke="#000000" stroke-width="2" /><path d="M94.5,90 h-5.0 c-28.348,0 -40.623,-4.971 -50,-18" fill="none" stroke="#000000" stroke-width="2" /><path d="M19.5,6 v77.0 c0,7.683 -0.373,8 -5,8 c-2.246,0 -4.663,-0.119 -9,-0.5" fill="none" stroke="#000000" stroke-width="2" /><path d="M33.5,52 c-10.035,5.009 -19.379,8.534 -29,11" fill="none" stroke="#000000" stroke-width="2" /></svg>