<?xml version='1.0' encoding='utf-8'?>
<svg xmlns="http://www.w3.org/2000/svg" height="100px" version="1.0" viewBox="0 0 100 100" width="100px" x="0px" y="0px">
<line fill="none" stroke="#000000" stroke-width="2" x1="29" x2="4" y1="25" y2="25" /><line fill="none" stroke="#000000" stroke-width="2" x1="94" x2="28" y1="16" y2="16" /><line fill="none" stroke="#000000" stroke-width="2" x1="92.5" x2="29.5" y1="58.5" y2="58.5" /><line fill="none" stroke="#000000" stroke-width="2" x1="78" x2="44" y1="41.5" y2="41.5" /><path d="M18,6 v78.0 c0,7.575 -0.404,8 -4.5,8 c-1.832,0 -4.633,-0.139 -8.5,-0.5" fill="none" stroke="#000000" stroke-width="2" /><path d="M28,55 c-8.305,5.009 -16.239,8.958 -24,12" fill="none" stroke="#000000" stroke-width="2" /><path d="M96.5,51 c-12.712,-7.286 -24.079,-20.054 -30.5,-35" fill="none" stroke="#000000" stroke-width="2" /><path d="M25.5,51 c17.584,-11.02 30.238,-28.139 34.5,-46" fill="none" stroke="#000000" stroke-width="2" /><path d="M62,58.5 v28.2 c0,4.219 -0.547,4.8 -5.5,4.8 c-2.352,0 -6.123,-0.153 -11,-0.5" fill="none" stroke="#000000" stroke-width="2" /><path d="M28,88.5 c7.545,-6.188 13.84,-14.321 17.5,-22.5" fill="none" stroke="#000000" stroke-width="2" /><path d="M94,89 c-5.047,-7.479 -11.748,-15.638 -19,-23" fill="none" stroke="#000000" stroke-width="2" /></svg>