<?xml version='1.0' encoding='utf-8'?>
<svg xmlns="http://www.w3.org/2000/svg" height="100px" version="1.0" viewBox="0 0 100 100" width="100px" x="0px" y="0px">
<line fill="none" stroke="#000000" stroke-width="2" x1="28.5" x2="4" y1="25" y2="25" /><line fill="none" stroke="#000000" stroke-width="2" x1="58.5" x2="58.5" y1="91.5" y2="20.5" /><line fill="none" stroke="#000000" stroke-width="2" x1="84.5" x2="32.5" y1="50.5" y2="50.5" /><path d="M17.5,6 v78.0 c0,7.575 -0.404,8 -4.5,8 c-1.832,0 -4.633,-0.139 -8.5,-0.5" fill="none" stroke="#000000" stroke-width="2" /><path d="M30,53.5 c-8.997,5.009 -17.374,8.534 -26,11" fill="none" stroke="#000000" stroke-width="2" /><path d="M24.5,38.5 c8.803,-8.975 16.149,-21.559 20,-34" fill="none" stroke="#000000" stroke-width="2" /><path d="M82,79.5 c-8.867,-12.707 -15.92,-21.757 -22.5,-29" fill="none" stroke="#000000" stroke-width="2" /><path d="M27.5,86 c13.417,-10.343 23.158,-22.161 29.5,-35" fill="none" stroke="#000000" stroke-width="2" /><path d="M50,45 c-3.193,-6.895 -6.68,-13.706 -10,-19.5" fill="none" stroke="#000000" stroke-width="2" /><path d="M67,45 c4.809,-6.839 9.146,-14.667 12,-21.5" fill="none" stroke="#000000" stroke-width="2" /><path d="M40.5,15 h52.5 c-2.301,74.787 -2.512,75 -13.5,75 c-3.853,0 -7.61,-0.157 -11.5,-0.5" fill="none" stroke="#000000" stroke-width="2" /></svg>