<?xml version='1.0' encoding='utf-8'?>
<svg xmlns="http://www.w3.org/2000/svg" height="100px" version="1.0" viewBox="0 0 100 100" width="100px" x="0px" y="0px">
<line fill="none" stroke="#000000" stroke-width="2" x1="29.5" x2="4" y1="26" y2="26" /><line fill="none" stroke="#000000" stroke-width="2" x1="35" x2="35" y1="10" y2="76.5" /><line fill="none" stroke="#000000" stroke-width="2" x1="65.5" x2="28.5" y1="10" y2="10" /><line fill="none" stroke="#000000" stroke-width="2" x1="59" x2="59" y1="94" y2="10" /><line fill="none" stroke="#000000" stroke-width="2" x1="36" x2="59" y1="52.5" y2="52.5" /><line fill="none" stroke="#000000" stroke-width="2" x1="36" x2="59" y1="30.5" y2="30.5" /><polyline fill="none" points="96,10 70,10 70,94" stroke="#000000" stroke-width="2" /><path d="M18,6 v78.0 c0,7.575 -0.404,8 -4.5,8 c-1.832,0 -4.633,-0.139 -8.5,-0.5" fill="none" stroke="#000000" stroke-width="2" /><path d="M29,52 c-8.65,5.009 -16.705,8.534 -25,11" fill="none" stroke="#000000" stroke-width="2" /><path d="M76.5,81 h5.5 c9.122,0 13.5,-4.097 13.5,-13 c0,-10.243 -4.936,-20.204 -14,-27.5 c5.289,-9.574 10.037,-20.04 13.559,-29.838" fill="none" stroke="#000000" stroke-width="2" /><path d="M28.5,77.5 c9.475,-1.63 20.219,-4.106 30.5,-7" fill="none" stroke="#000000" stroke-width="2" /></svg>