<?xml version='1.0' encoding='utf-8'?>
<svg xmlns="http://www.w3.org/2000/svg" height="100px" version="1.0" viewBox="0 0 100 100" width="100px" x="0px" y="0px">
<line fill="none" stroke="#000000" stroke-width="2" x1="27" x2="4" y1="26" y2="26" /><line fill="none" stroke="#000000" stroke-width="2" x1="95.5" x2="26.5" y1="70" y2="70" /><line fill="none" stroke="#000000" stroke-width="2" x1="30" x2="92" y1="53" y2="53" /><line fill="none" stroke="#000000" stroke-width="2" x1="47" x2="47" y1="70" y2="41" /><line fill="none" stroke="#000000" stroke-width="2" x1="75" x2="75" y1="70" y2="41" /><path d="M18,6 v78.0 c0,7.575 -0.404,8 -4.5,8 c-1.832,0 -4.633,-0.139 -8.5,-0.5" fill="none" stroke="#000000" stroke-width="2" /><path d="M29,49 c-8.65,5.009 -16.705,8.534 -25,11" fill="none" stroke="#000000" stroke-width="2" /><path d="M59,31 c-1.11,9.828 -1.324,10 -16,10 c-11.83,0 -12,-0.133 -12,-4.5 v-12.0 h26.5 v-14.0 h-28.0" fill="none" stroke="#000000" stroke-width="2" /><path d="M92.5,31 c-1.11,9.828 -1.324,10 -16,10 c-11.83,0 -12,-0.133 -12,-4.5 v-12.0 h26.5 v-14.0 h-28.0" fill="none" stroke="#000000" stroke-width="2" /><path d="M28.5,92 c10.76,-4.65 20.045,-11.01 25.5,-17" fill="none" stroke="#000000" stroke-width="2" /><path d="M93.5,93 c-6.566,-5.892 -15.645,-12.149 -25.5,-17.5" fill="none" stroke="#000000" stroke-width="2" /></svg>