<?xml version='1.0' encoding='utf-8'?>
<svg xmlns="http://www.w3.org/2000/svg" height="100px" version="1.0" viewBox="0 0 100 100" width="100px" x="0px" y="0px">
<line fill="none" stroke="#000000" stroke-width="2" x1="27" x2="4" y1="26" y2="26" /><line fill="none" stroke="#000000" stroke-width="2" x1="33.5" x2="58.5" y1="60.5" y2="60.5" /><line fill="none" stroke="#000000" stroke-width="2" x1="33.5" x2="58.5" y1="75" y2="75" /><line fill="none" stroke="#000000" stroke-width="2" x1="71" x2="71" y1="83" y2="47" /><line fill="none" stroke="#000000" stroke-width="2" x1="27.5" x2="95.5" y1="37" y2="37" /><line fill="none" stroke="#000000" stroke-width="2" x1="95.5" x2="68" y1="14" y2="14" /><line fill="none" stroke="#000000" stroke-width="2" x1="63.5" x2="37.5" y1="14" y2="14" /><path d="M17.5,6 v78.0 c0,7.575 -0.404,8 -4.5,8 c-1.832,0 -4.633,-0.139 -8.5,-0.5" fill="none" stroke="#000000" stroke-width="2" /><path d="M28,51 c-8.305,5.009 -16.037,8.534 -24,11" fill="none" stroke="#000000" stroke-width="2" /><path d="M32.5,92.5 V47.0 h26.0 v36.0 c0,7.605 -0.402,8 -5.5,8 c-1.696,0 -5.012,-0.159 -10.5,-0.5" fill="none" stroke="#000000" stroke-width="2" /><path d="M90.5,45 v38.5 c0,7.224 -0.75,8 -6,8 c-2.605,0 -6.712,-0.144 -12,-0.5" fill="none" stroke="#000000" stroke-width="2" /><path d="M52,37 c-2.23,-4.268 -4.661,-8.442 -7,-12" fill="none" stroke="#000000" stroke-width="2" /><path d="M70,37 c2.644,-3.954 5.159,-8.267 7,-12" fill="none" stroke="#000000" stroke-width="2" /><path d="M52.5,27 c-1.528,-4.222 -3.245,-8.692 -5,-13" fill="none" stroke="#000000" stroke-width="2" /><path d="M82,27 c-1.528,-4.222 -3.246,-8.692 -5,-13" fill="none" stroke="#000000" stroke-width="2" /><path d="M41.5,4 c-2.223,7.932 -6.65,16.433 -12,23" fill="none" stroke="#000000" stroke-width="2" /><path d="M73,4 c-2.654,7.438 -8.224,15.726 -15,22" fill="none" stroke="#000000" stroke-width="2" /></svg>