<?xml version='1.0' encoding='utf-8'?>
<svg xmlns="http://www.w3.org/2000/svg" height="100px" version="1.0" viewBox="0 0 100 100" width="100px" x="0px" y="0px">
<line fill="none" stroke="#000000" stroke-width="2" x1="28.5" x2="4" y1="27" y2="27" /><line fill="none" stroke="#000000" stroke-width="2" x1="41.5" x2="83.5" y1="69" y2="69" /><line fill="none" stroke="#000000" stroke-width="2" x1="26" x2="94" y1="10.5" y2="10.5" /><line fill="none" stroke="#000000" stroke-width="2" x1="35.5" x2="84.5" y1="27.5" y2="27.5" /><line fill="none" stroke="#000000" stroke-width="2" x1="35.5" x2="84.5" y1="36.5" y2="36.5" /><polyline fill="none" points="94,58.5 94,45.5 26,45.5 26,58.5" stroke="#000000" stroke-width="2" /><polyline fill="none" points="85.5,44.5 85.5,18.5 34.5,18.5 34.5,44.5" stroke="#000000" stroke-width="2" /><path d="M17,6 v78.0 c0,7.575 -0.404,8 -3.5,8 c-1.832,0 -4.633,-0.139 -8.5,-0.5" fill="none" stroke="#000000" stroke-width="2" /><path d="M26,53 c-7.614,5.009 -14.7,8.534 -22,11" fill="none" stroke="#000000" stroke-width="2" /><path d="M23.5,91.5 c26.511,-3.411 47.93,-12.164 59.338,-22.249" fill="none" stroke="#000000" stroke-width="2" /><path d="M96,91.5 c-22.102,-2.956 -42.584,-10.589 -54.5,-19.5" fill="none" stroke="#000000" stroke-width="2" /><path d="M43.5,49 v8.5 c0,4.863 0.17,5 15,5 c18.344,0 18.531,-0.146 19.5,-10.5" fill="none" stroke="#000000" stroke-width="2" /><path d="M26,65 c4.545,-3.687 8.737,-9.063 11,-14" fill="none" stroke="#000000" stroke-width="2" /><path d="M93,65 c-2.97,-4.325 -6.902,-9.177 -11.5,-14" fill="none" stroke="#000000" stroke-width="2" /><path d="M67,56 c-4.681,-2.441 -10.206,-4.872 -16,-7" fill="none" stroke="#000000" stroke-width="2" /><path d="M23.5,79 c10.811,-4.425 20.175,-10.689 25.5,-16.5" fill="none" stroke="#000000" stroke-width="2" /><path d="M60,10.5 c-1.156,2.968 -2.633,5.585 -4.5,8" fill="none" stroke="#000000" stroke-width="2" /></svg>