<?xml version='1.0' encoding='utf-8'?>
<svg xmlns="http://www.w3.org/2000/svg" height="100px" version="1.0" viewBox="0 0 100 100" width="100px" x="0px" y="0px">
<line fill="none" stroke="#000000" stroke-width="2" x1="5" x2="52" y1="18" y2="18" /><line fill="none" stroke="#000000" stroke-width="2" x1="29" x2="29" y1="18" y2="5" /><line fill="none" stroke="#000000" stroke-width="2" x1="61" x2="96.5" y1="21" y2="21" /><path d="M4.5,92 c16.691,-10.196 32.495,-31.084 38.5,-52" fill="none" stroke="#000000" stroke-width="2" /><path d="M21.5,23 c-3.301,8.342 -8.541,16.563 -15.5,24" fill="none" stroke="#000000" stroke-width="2" /><path d="M50,43 c-3.619,-6.901 -7.689,-13.421 -12.5,-20" fill="none" stroke="#000000" stroke-width="2" /><path d="M43,83.5 c-7.721,-12.79 -17.521,-26.169 -28.5,-38.5" fill="none" stroke="#000000" stroke-width="2" /><path d="M46.5,91 c27.135,-14.429 39.303,-32.792 42,-70" fill="none" stroke="#000000" stroke-width="2" /><path d="M95.5,91 c-19.975,-14.23 -29.11,-30.512 -32.5,-63" fill="none" stroke="#000000" stroke-width="2" /><path d="M50.5,49 c6.023,-11.971 11.155,-28.03 14,-44" fill="none" stroke="#000000" stroke-width="2" /></svg>