<?xml version='1.0' encoding='utf-8'?>
<svg xmlns="http://www.w3.org/2000/svg" height="100px" version="1.0" viewBox="0 0 100 100" width="100px" x="0px" y="0px">
<line fill="none" stroke="#000000" stroke-width="2" x1="47" x2="5.5" y1="49" y2="49" /><line fill="none" stroke="#000000" stroke-width="2" x1="45" x2="12.5" y1="30" y2="30" /><line fill="none" stroke="#000000" stroke-width="2" x1="61.5" x2="96" y1="21" y2="21" /><path d="M49,27 c-7.651,-6.599 -13.832,-12.808 -20.5,-20.8 c-7.978,10.951 -15.663,19.394 -25.5,27.8" fill="none" stroke="#000000" stroke-width="2" /><path d="M29,30 v53.0 c0,7.595 -0.388,8 -4.5,8 c-1.201,0 -4.58,-0.144 -9.5,-0.5" fill="none" stroke="#000000" stroke-width="2" /><path d="M5.5,87 c5.147,-8.204 9.507,-18.876 12,-30" fill="none" stroke="#000000" stroke-width="2" /><path d="M46.5,84.5 c-1.844,-9.112 -4.278,-18.722 -7,-27.5" fill="none" stroke="#000000" stroke-width="2" /><path d="M47,91 c25.889,-15.312 37.051,-32.429 41,-70" fill="none" stroke="#000000" stroke-width="2" /><path d="M95,91 c-19.359,-14.23 -28.215,-30.512 -31.5,-63" fill="none" stroke="#000000" stroke-width="2" /><path d="M51,49 c6.023,-11.971 11.155,-28.03 14,-44" fill="none" stroke="#000000" stroke-width="2" /></svg>