<?xml version='1.0' encoding='utf-8'?>
<svg xmlns="http://www.w3.org/2000/svg" height="100px" version="1.0" viewBox="0 0 100 100" width="100px" x="0px" y="0px">
<line fill="none" stroke="#000000" stroke-width="2" x1="5" x2="52" y1="15" y2="15" /><line fill="none" stroke="#000000" stroke-width="2" x1="28.5" x2="28.5" y1="15" y2="5" /><line fill="none" stroke="#000000" stroke-width="2" x1="50" x2="93.5" y1="41" y2="41" /><line fill="none" stroke="#000000" stroke-width="2" x1="71.5" x2="96" y1="20" y2="20" /><line fill="none" stroke="#000000" stroke-width="2" x1="71.5" x2="71.5" y1="41" y2="5" /><polyline fill="none" points="18,86 18,62 39,62 39,80 19,80" stroke="#000000" stroke-width="2" /><polyline fill="none" points="14,43 14,25 43,25 43,42 15,42" stroke="#000000" stroke-width="2" /><path d="M36.5,91 c4.201,0.37 6.879,0.5 8,0.5 c3.664,0 4,-0.383 4,-8 V52.0 h-40.0 v41.0" fill="none" stroke="#000000" stroke-width="2" /><path d="M51,91 c20.983,-8.345 34.352,-23.944 41.538,-49.273" fill="none" stroke="#000000" stroke-width="2" /><path d="M96,91 c-16.992,-9.64 -30.689,-25.635 -38,-44.5" fill="none" stroke="#000000" stroke-width="2" /></svg>