<?xml version='1.0' encoding='utf-8'?>
<svg xmlns="http://www.w3.org/2000/svg" height="100px" version="1.0" viewBox="0 0 100 100" width="100px" x="0px" y="0px">
<line fill="none" stroke="#000000" stroke-width="2" x1="14.5" x2="14.5" y1="6.5" y2="67.5" /><line fill="none" stroke="#000000" stroke-width="2" x1="52" x2="5.5" y1="17.5" y2="17.5" /><line fill="none" stroke="#000000" stroke-width="2" x1="43.5" x2="43.5" y1="67.5" y2="6.5" /><line fill="none" stroke="#000000" stroke-width="2" x1="5" x2="52" y1="68.5" y2="68.5" /><line fill="none" stroke="#000000" stroke-width="2" x1="15.5" x2="43.5" y1="51" y2="51" /><line fill="none" stroke="#000000" stroke-width="2" x1="15.5" x2="43.5" y1="34" y2="34" /><line fill="none" stroke="#000000" stroke-width="2" x1="56.5" x2="96" y1="38" y2="38" /><line fill="none" stroke="#000000" stroke-width="2" x1="81" x2="81" y1="93" y2="38" /><path d="M6.5,92.5 c7.133,-5.121 13.354,-11.98 17,-18.5" fill="none" stroke="#000000" stroke-width="2" /><path d="M46,86 c-2.635,-4.064 -6.107,-8.249 -10,-12" fill="none" stroke="#000000" stroke-width="2" /><path d="M56.578,14.997 c14.511,-1.145 26.233,-3.555 35.422,-6.997" fill="none" stroke="#000000" stroke-width="2" /><path d="M49,90.5 c6.359,-12.476 8.5,-25.458 8.5,-76.5" fill="none" stroke="#000000" stroke-width="2" /></svg>