<?xml version='1.0' encoding='utf-8'?>
<svg xmlns="http://www.w3.org/2000/svg" height="100px" version="1.0" viewBox="0 0 100 100" width="100px" x="0px" y="0px">
<line fill="none" stroke="#000000" stroke-width="2" x1="94.5" x2="49.5" y1="15.5" y2="15.5" /><line fill="none" stroke="#000000" stroke-width="2" x1="46" x2="46" y1="93" y2="27" /><line fill="none" stroke="#000000" stroke-width="2" x1="67.5" x2="67.5" y1="61" y2="28" /><line fill="none" stroke="#000000" stroke-width="2" x1="38.5" x2="97" y1="62" y2="62" /><line fill="none" stroke="#000000" stroke-width="2" x1="21.5" x2="21.5" y1="20" y2="4" /><line fill="none" stroke="#000000" stroke-width="2" x1="3.5" x2="39.5" y1="20" y2="20" /><path d="M36.5,36 c7.314,-8.612 13.5,-20.151 17,-32" fill="none" stroke="#000000" stroke-width="2" /><path d="M47,28 h42.0 v59.0 c0,4.016 -0.469,4.5 -7.5,4.5 c-2.172,0 -5.876,-0.137 -12.5,-0.5" fill="none" stroke="#000000" stroke-width="2" /><path d="M3.5,92 c8.286,-14.518 12,-31.673 12,-71" fill="none" stroke="#000000" stroke-width="2" /><path d="M15,39 h20.0 c0,45.82 -2.874,51 -8,51 c-2.062,0 -6.498,-0.386 -11,-1" fill="none" stroke="#000000" stroke-width="2" /></svg>