<?xml version='1.0' encoding='utf-8'?>
<svg xmlns="http://www.w3.org/2000/svg" height="100px" version="1.0" viewBox="0 0 100 100" width="100px" x="0px" y="0px">
<line fill="none" stroke="#000000" stroke-width="2" x1="21.5" x2="21.5" y1="94" y2="6" /><line fill="none" stroke="#000000" stroke-width="2" x1="36.5" x2="5" y1="26" y2="26" /><path d="M3.5,73 c8.406,-15.363 14.009,-30.544 17.5,-47.5" fill="none" stroke="#000000" stroke-width="2" /><path d="M36.5,61 c-4.582,-11.04 -9.738,-22.734 -15,-34" fill="none" stroke="#000000" stroke-width="2" /><path d="M52.5,13.5 c-4.033,12.196 -10.255,23.085 -18.5,32.5" fill="none" stroke="#000000" stroke-width="2" /><path d="M56.5,10 h18.5 c5.266,13.356 12.895,25.425 22.5,36" fill="none" stroke="#000000" stroke-width="2" /><path d="M29.5,91.5 c18.149,-9.876 28.332,-25.528 30,-50.5" fill="none" stroke="#000000" stroke-width="2" /><path d="M42.5,41 h45.5 c0,43.327 -3.312,49 -12.5,49 c-4.201,0 -10.404,-0.168 -16,-0.5" fill="none" stroke="#000000" stroke-width="2" /></svg>