<?xml version='1.0' encoding='utf-8'?>
<svg xmlns="http://www.w3.org/2000/svg" height="100px" version="1.0" viewBox="0 0 100 100" width="100px" x="0px" y="0px">
<line fill="none" stroke="#000000" stroke-width="2" x1="93.5" x2="44.5" y1="15.5" y2="15.5" /><line fill="none" stroke="#000000" stroke-width="2" x1="20.5" x2="20.5" y1="94" y2="6" /><line fill="none" stroke="#000000" stroke-width="2" x1="34.5" x2="4.5" y1="25.5" y2="25.5" /><line fill="none" stroke="#000000" stroke-width="2" x1="42" x2="42" y1="93" y2="27" /><line fill="none" stroke="#000000" stroke-width="2" x1="65" x2="65" y1="61" y2="28" /><line fill="none" stroke="#000000" stroke-width="2" x1="31.5" x2="96.5" y1="62" y2="62" /><path d="M31,40 c7.295,-9.923 13.277,-22.526 17,-36" fill="none" stroke="#000000" stroke-width="2" /><path d="M3.5,69.5 c7.954,-14.471 13.176,-28.562 16.5,-44.5" fill="none" stroke="#000000" stroke-width="2" /><path d="M33,57.5 c-3.824,-10.009 -7.952,-20.663 -12,-31" fill="none" stroke="#000000" stroke-width="2" /><path d="M43,28 h45.0 v59.0 c0,4.016 -0.469,4.5 -7.5,4.5 c-2.172,0 -5.876,-0.137 -12.5,-0.5" fill="none" stroke="#000000" stroke-width="2" /></svg>