<?xml version='1.0' encoding='utf-8'?>
<svg xmlns="http://www.w3.org/2000/svg" height="100px" version="1.0" viewBox="0 0 100 100" width="100px" x="0px" y="0px">
<line fill="none" stroke="#000000" stroke-width="2" x1="38.5" x2="60.5" y1="18.5" y2="18.5" /><line fill="none" stroke="#000000" stroke-width="2" x1="54.5" x2="97.5" y1="65.5" y2="65.5" /><line fill="none" stroke="#000000" stroke-width="2" x1="85" x2="85" y1="94" y2="6" /><line fill="none" stroke="#000000" stroke-width="2" x1="17.5" x2="17.5" y1="94" y2="6" /><line fill="none" stroke="#000000" stroke-width="2" x1="31.5" x2="3.5" y1="26" y2="26" /><polyline fill="none" points="96.5,22 66,22 66,64.5" stroke="#000000" stroke-width="2" /><path d="M26.5,51 c6.664,-13.033 11.731,-28.271 15,-45.5" fill="none" stroke="#000000" stroke-width="2" /><path d="M53,55 c-4.877,-4.728 -10.576,-9.723 -16,-14" fill="none" stroke="#000000" stroke-width="2" /><path d="M59.5,19.467 c-1.117,33.441 -15.082,61.097 -33.5,72.033" fill="none" stroke="#000000" stroke-width="2" /><path d="M2.5,70 c6.99,-14.471 11.578,-28.562 14.5,-44.5" fill="none" stroke="#000000" stroke-width="2" /><path d="M28.5,57 c-3.289,-9.809 -6.919,-20.15 -10.5,-30" fill="none" stroke="#000000" stroke-width="2" /></svg>