<?xml version='1.0' encoding='utf-8'?>
<svg xmlns="http://www.w3.org/2000/svg" height="100px" version="1.0" viewBox="0 0 100 100" width="100px" x="0px" y="0px">
<line fill="none" stroke="#000000" stroke-width="2" x1="19.5" x2="19.5" y1="94" y2="6" /><line fill="none" stroke="#000000" stroke-width="2" x1="32.5" x2="4.5" y1="26" y2="26" /><line fill="none" stroke="#000000" stroke-width="2" x1="41" x2="85" y1="36" y2="36" /><line fill="none" stroke="#000000" stroke-width="2" x1="93.5" x2="36.5" y1="54" y2="54" /><path d="M95,36 c-12.519,-9.243 -22.285,-18.729 -32,-31 c-9.717,12.271 -19.466,21.779 -32,31" fill="none" stroke="#000000" stroke-width="2" /><path d="M3.5,70 c7.473,-14.471 12.377,-28.562 15.5,-44.5" fill="none" stroke="#000000" stroke-width="2" /><path d="M31.5,59 c-3.664,-10.331 -7.621,-21.329 -11.5,-32" fill="none" stroke="#000000" stroke-width="2" /><path d="M94,93 c-4.195,-9.133 -9.969,-20.754 -15,-30" fill="none" stroke="#000000" stroke-width="2" /><path d="M31,90 c17.561,-0.856 38.071,-3.667 58,-8" fill="none" stroke="#000000" stroke-width="2" /><path d="M45,89 c3.748,-10.211 7.525,-22.029 11,-35" fill="none" stroke="#000000" stroke-width="2" /></svg>