<?xml version='1.0' encoding='utf-8'?>
<svg xmlns="http://www.w3.org/2000/svg" height="100px" version="1.0" viewBox="0 0 100 100" width="100px" x="0px" y="0px">
<line fill="none" stroke="#000000" stroke-width="2" x1="37.5" x2="84.5" y1="54" y2="54" /><line fill="none" stroke="#000000" stroke-width="2" x1="67.5" x2="67.5" y1="48" y2="5" /><line fill="none" stroke="#000000" stroke-width="2" x1="93" x2="48" y1="16.5" y2="16.5" /><line fill="none" stroke="#000000" stroke-width="2" x1="27.5" x2="27.5" y1="48" y2="5" /><line fill="none" stroke="#000000" stroke-width="2" x1="44" x2="7" y1="16.5" y2="16.5" /><path d="M12.5,69 c16.107,-6.921 27.314,-15.251 34,-24" fill="none" stroke="#000000" stroke-width="2" /><path d="M62,77.5 c-8.12,-5.571 -17.873,-11.383 -27,-16" fill="none" stroke="#000000" stroke-width="2" /><path d="M83.605,54.554 c-9.37,18.813 -31.877,32.827 -66.605,37.446" fill="none" stroke="#000000" stroke-width="2" /><path d="M94.5,44 c-12.642,-8.955 -21.25,-18.132 -26.5,-28" fill="none" stroke="#000000" stroke-width="2" /><path d="M5.5,44 c10.328,-8.953 17.211,-18.119 21.5,-28" fill="none" stroke="#000000" stroke-width="2" /><path d="M42,42.5 c11.785,-8.55 19.732,-17.149 25,-26.5" fill="none" stroke="#000000" stroke-width="2" /><path d="M44.5,35.5 c-4.701,-6.063 -10.426,-12.463 -16.5,-18.5" fill="none" stroke="#000000" stroke-width="2" /></svg>