<?xml version='1.0' encoding='utf-8'?>
<svg xmlns="http://www.w3.org/2000/svg" height="100px" version="1.0" viewBox="0 0 100 100" width="100px" x="0px" y="0px">
<line fill="none" stroke="#000000" stroke-width="2" x1="67.5" x2="67.5" y1="45" y2="5" /><line fill="none" stroke="#000000" stroke-width="2" x1="93" x2="48" y1="16.5" y2="16.5" /><line fill="none" stroke="#000000" stroke-width="2" x1="27.5" x2="27.5" y1="45" y2="5" /><line fill="none" stroke="#000000" stroke-width="2" x1="44" x2="7" y1="16.5" y2="16.5" /><path d="M62.5,78.5 c-6.908,-5.947 -16.07,-12.419 -25,-17.5" fill="none" stroke="#000000" stroke-width="2" /><path d="M7,91.5 c13.84,-5.452 21,-15.737 21,-31.5 v-9.0 h45.0 v34.5 c0,4.535 0.664,5 10,5 c11.246,0 11.468,-0.216 12,-20" fill="none" stroke="#000000" stroke-width="2" /><path d="M94.5,44 c-12.642,-8.955 -21.25,-18.132 -26.5,-28" fill="none" stroke="#000000" stroke-width="2" /><path d="M5.5,44 c10.328,-8.953 17.211,-18.119 21.5,-28" fill="none" stroke="#000000" stroke-width="2" /><path d="M40.5,44 c12.492,-9.034 20.916,-18.12 26.5,-28" fill="none" stroke="#000000" stroke-width="2" /><path d="M44.5,35.5 c-4.701,-6.063 -10.426,-12.463 -16.5,-18.5" fill="none" stroke="#000000" stroke-width="2" /></svg>