<?xml version='1.0' encoding='utf-8'?>
<svg xmlns="http://www.w3.org/2000/svg" height="100px" version="1.0" viewBox="0 0 100 100" width="100px" x="0px" y="0px">
<line fill="none" stroke="#000000" stroke-width="2" x1="7" x2="93" y1="55" y2="55" /><line fill="none" stroke="#000000" stroke-width="2" x1="49" x2="49" y1="55" y2="94" /><line fill="none" stroke="#000000" stroke-width="2" x1="67.5" x2="67.5" y1="48.5" y2="5.5" /><line fill="none" stroke="#000000" stroke-width="2" x1="93" x2="48" y1="17" y2="17" /><line fill="none" stroke="#000000" stroke-width="2" x1="27.5" x2="27.5" y1="48.5" y2="5.5" /><line fill="none" stroke="#000000" stroke-width="2" x1="44" x2="7" y1="17" y2="17" /><path d="M49,63.5 c11.826,4.457 22.067,9.571 36,18" fill="none" stroke="#000000" stroke-width="2" /><path d="M94.5,44.5 c-12.642,-8.955 -21.25,-18.132 -26.5,-28" fill="none" stroke="#000000" stroke-width="2" /><path d="M5.5,44.5 c10.328,-8.953 17.211,-18.119 21.5,-28" fill="none" stroke="#000000" stroke-width="2" /><path d="M40.5,44.5 c12.492,-9.034 20.916,-18.12 26.5,-28" fill="none" stroke="#000000" stroke-width="2" /><path d="M44.5,36 c-4.701,-6.063 -10.426,-12.463 -16.5,-18.5" fill="none" stroke="#000000" stroke-width="2" /></svg>