<?xml version='1.0' encoding='utf-8'?>
<svg xmlns="http://www.w3.org/2000/svg" height="100px" version="1.0" viewBox="0 0 100 100" width="100px" x="0px" y="0px">
<line fill="none" stroke="#000000" stroke-width="2" x1="19" x2="19" y1="94" y2="6" /><line fill="none" stroke="#000000" stroke-width="2" x1="31.5" x2="4" y1="26" y2="26" /><line fill="none" stroke="#000000" stroke-width="2" x1="60" x2="60" y1="91.5" y2="20.5" /><line fill="none" stroke="#000000" stroke-width="2" x1="86" x2="34" y1="50.5" y2="50.5" /><path d="M3,70 c7.231,-14.471 11.978,-28.562 15,-44.5" fill="none" stroke="#000000" stroke-width="2" /><path d="M31,56 c-3.664,-9.37 -7.604,-19.328 -11.5,-29" fill="none" stroke="#000000" stroke-width="2" /><path d="M29,38.5 c7.262,-8.975 13.367,-21.548 16.5,-34" fill="none" stroke="#000000" stroke-width="2" /><path d="M83.5,79.5 c-8.867,-12.707 -15.92,-21.757 -22.5,-29" fill="none" stroke="#000000" stroke-width="2" /><path d="M29,86 c13.417,-10.343 23.158,-22.161 29.5,-35" fill="none" stroke="#000000" stroke-width="2" /><path d="M51.5,45 c-3.193,-6.895 -6.68,-13.706 -10,-19.5" fill="none" stroke="#000000" stroke-width="2" /><path d="M68.5,45 c4.809,-6.839 9.146,-14.667 12,-21.5" fill="none" stroke="#000000" stroke-width="2" /><path d="M42,15 h51.5 c-2.297,74.682 -2.619,75 -12.5,75 c-3.853,0 -7.61,-0.157 -11.5,-0.5" fill="none" stroke="#000000" stroke-width="2" /></svg>