<?xml version='1.0' encoding='utf-8'?>
<svg xmlns="http://www.w3.org/2000/svg" height="100px" version="1.0" viewBox="0 0 100 100" width="100px" x="0px" y="0px">
<line fill="none" stroke="#000000" stroke-width="2" x1="19.5" x2="19.5" y1="94" y2="6" /><line fill="none" stroke="#000000" stroke-width="2" x1="31.5" x2="4.5" y1="26" y2="26" /><line fill="none" stroke="#000000" stroke-width="2" x1="36.5" x2="36.5" y1="10" y2="76.5" /><line fill="none" stroke="#000000" stroke-width="2" x1="66.5" x2="30" y1="10" y2="10" /><line fill="none" stroke="#000000" stroke-width="2" x1="60" x2="60" y1="94" y2="10" /><line fill="none" stroke="#000000" stroke-width="2" x1="37.5" x2="60" y1="52.5" y2="52.5" /><line fill="none" stroke="#000000" stroke-width="2" x1="37.5" x2="60" y1="30.5" y2="30.5" /><polyline fill="none" points="96,10 70.5,10 70.5,94" stroke="#000000" stroke-width="2" /><path d="M3.5,70 c7.473,-14.471 12.377,-28.562 15.5,-44.5" fill="none" stroke="#000000" stroke-width="2" /><path d="M31.5,59 c-3.664,-10.331 -7.621,-21.329 -11.5,-32" fill="none" stroke="#000000" stroke-width="2" /><path d="M77,81 h5.0 c9.122,0 13.5,-4.097 13.5,-13 c0,-10.243 -4.936,-20.204 -14,-27.5 c5.289,-9.574 10.037,-20.04 13.559,-29.838" fill="none" stroke="#000000" stroke-width="2" /><path d="M29.5,77.5 c9.475,-1.63 20.219,-4.106 30.5,-7" fill="none" stroke="#000000" stroke-width="2" /></svg>