<?xml version='1.0' encoding='utf-8'?>
<svg xmlns="http://www.w3.org/2000/svg" height="100px" version="1.0" viewBox="0 0 100 100" width="100px" x="0px" y="0px">
<line fill="none" stroke="#000000" stroke-width="2" x1="17.5" x2="17.5" y1="94" y2="6" /><line fill="none" stroke="#000000" stroke-width="2" x1="28.5" x2="3.5" y1="26" y2="26" /><line fill="none" stroke="#000000" stroke-width="2" x1="59.5" x2="92.5" y1="48" y2="48" /><line fill="none" stroke="#000000" stroke-width="2" x1="56" x2="32.5" y1="50" y2="50" /><line fill="none" stroke="#000000" stroke-width="2" x1="56" x2="32.5" y1="30.5" y2="30.5" /><path d="M2.5,70 c6.99,-14.471 11.578,-28.562 14.5,-44.5" fill="none" stroke="#000000" stroke-width="2" /><path d="M27,53 c-2.801,-8.549 -5.887,-17.435 -9,-26" fill="none" stroke="#000000" stroke-width="2" /><path d="M57,42.5 c6.199,-5.351 8.5,-11.285 8.5,-26 v-6.5 h19.5 v26.5 c0,2.646 0.509,3 3.5,3 c6.972,0 7.133,-0.151 8,-13.5" fill="none" stroke="#000000" stroke-width="2" /><path d="M50.5,91 c21.191,-8.808 33.117,-20.936 41.063,-42.348" fill="none" stroke="#000000" stroke-width="2" /><path d="M97,91 c-15.263,-9.575 -27.2,-22.547 -34.5,-37.5" fill="none" stroke="#000000" stroke-width="2" /><path d="M58,7 c-8.717,3.985 -17.215,6.982 -25.5,9 v78.0" fill="none" stroke="#000000" stroke-width="2" /><path d="M58,64.5 c-11.955,4.06 -23.056,6.983 -34.5,9" fill="none" stroke="#000000" stroke-width="2" /></svg>