<?xml version='1.0' encoding='utf-8'?>
<svg xmlns="http://www.w3.org/2000/svg" height="100px" version="1.0" viewBox="0 0 100 100" width="100px" x="0px" y="0px">
<line fill="none" stroke="#000000" stroke-width="2" x1="17.5" x2="17.5" y1="94" y2="6" /><line fill="none" stroke="#000000" stroke-width="2" x1="30.5" x2="3.5" y1="26" y2="26" /><line fill="none" stroke="#000000" stroke-width="2" x1="52.5" x2="52.5" y1="63.5" y2="89" /><line fill="none" stroke="#000000" stroke-width="2" x1="70" x2="70" y1="63.5" y2="89" /><line fill="none" stroke="#000000" stroke-width="2" x1="26" x2="95" y1="90" y2="90" /><line fill="none" stroke="#000000" stroke-width="2" x1="41" x2="70.5" y1="26.5" y2="26.5" /><polyline fill="none" points="87.5,89 87.5,63.5 35,63.5 35,89" stroke="#000000" stroke-width="2" /><path d="M2.5,70 c6.99,-14.471 11.578,-28.562 14.5,-44.5" fill="none" stroke="#000000" stroke-width="2" /><path d="M27,53 c-2.801,-8.549 -5.887,-17.435 -9,-26" fill="none" stroke="#000000" stroke-width="2" /><path d="M27,59 c9.05,-7.745 14.776,-23.472 15.5,-49" fill="none" stroke="#000000" stroke-width="2" /><path d="M29,10 h47.5 c-0.787,4.908 -1.943,11.296 -3,16.5 h19.0 c-1.34,25.958 -3.145,29 -7.5,29 c-2.722,0 -6.887,-0.354 -10.5,-1" fill="none" stroke="#000000" stroke-width="2" /><path d="M39.5,56.5 c14.898,-5.039 24.361,-14.204 30.064,-29.353" fill="none" stroke="#000000" stroke-width="2" /><path d="M70,55.5 c-6.283,-6.988 -15.135,-15.183 -24,-22" fill="none" stroke="#000000" stroke-width="2" /></svg>