<?xml version='1.0' encoding='utf-8'?>
<svg xmlns="http://www.w3.org/2000/svg" height="100px" version="1.0" viewBox="0 0 100 100" width="100px" x="0px" y="0px">
<line fill="none" stroke="#000000" stroke-width="2" x1="19.5" x2="19.5" y1="94" y2="6" /><line fill="none" stroke="#000000" stroke-width="2" x1="31.5" x2="4.5" y1="26" y2="26" /><line fill="none" stroke="#000000" stroke-width="2" x1="37" x2="62" y1="35" y2="35" /><line fill="none" stroke="#000000" stroke-width="2" x1="49" x2="49" y1="5" y2="17" /><polyline fill="none" points="96,10 70.5,10 70.5,94" stroke="#000000" stroke-width="2" /><polyline fill="none" points="37,54.5 62,54.5 62,17 36,17 36,87" stroke="#000000" stroke-width="2" /><path d="M3.5,70 c7.473,-14.471 12.377,-28.562 15.5,-44.5" fill="none" stroke="#000000" stroke-width="2" /><path d="M31.5,59 c-3.664,-10.331 -7.621,-21.329 -11.5,-32" fill="none" stroke="#000000" stroke-width="2" /><path d="M77,81 h5.0 c9.122,0 13.5,-4.097 13.5,-13 c0,-10.243 -4.936,-20.204 -14,-27.5 c5.289,-9.574 10.037,-20.04 13.559,-29.838" fill="none" stroke="#000000" stroke-width="2" /><path d="M27,89.5 c11.158,-2.706 20.984,-6.327 32.5,-12" fill="none" stroke="#000000" stroke-width="2" /><path d="M65.5,89.5 c-4.063,-8.849 -9.96,-19.52 -15.5,-28" fill="none" stroke="#000000" stroke-width="2" /></svg>