<?xml version='1.0' encoding='utf-8'?>
<svg xmlns="http://www.w3.org/2000/svg" height="100px" version="1.0" viewBox="0 0 100 100" width="100px" x="0px" y="0px">
<line fill="none" stroke="#000000" stroke-width="2" x1="22.5" x2="22.5" y1="94" y2="6" /><line fill="none" stroke="#000000" stroke-width="2" x1="37.5" x2="5" y1="26" y2="26" /><line fill="none" stroke="#000000" stroke-width="2" x1="67" x2="67" y1="24.5" y2="5" /><line fill="none" stroke="#000000" stroke-width="2" x1="33.5" x2="96.5" y1="89.5" y2="89.5" /><line fill="none" stroke="#000000" stroke-width="2" x1="36.5" x2="96" y1="36.5" y2="36.5" /><polyline fill="none" points="42,8.5 42,24.5 92,24.5 92,8.5" stroke="#000000" stroke-width="2" /><polyline fill="none" points="43.5,68 43.5,48.5 89.5,48.5 89.5,67 44.5,67" stroke="#000000" stroke-width="2" /><path d="M35.5,57 c-3.904,-9.768 -8.369,-20.086 -13,-30" fill="none" stroke="#000000" stroke-width="2" /><path d="M3,73 c9.127,-15.363 15.211,-30.544 19,-47.5" fill="none" stroke="#000000" stroke-width="2" /><path d="M74.5,89.5 c3.615,-6.655 6.672,-14.324 9,-22.5" fill="none" stroke="#000000" stroke-width="2" /><path d="M56,89.5 c-1.797,-7.437 -4.049,-15.286 -6.5,-22.5" fill="none" stroke="#000000" stroke-width="2" /></svg>