<?xml version='1.0' encoding='utf-8'?>
<svg xmlns="http://www.w3.org/2000/svg" height="100px" version="1.0" viewBox="0 0 100 100" width="100px" x="0px" y="0px">
<line fill="none" stroke="#000000" stroke-width="2" x1="18.5" x2="18.5" y1="94" y2="6" /><line fill="none" stroke="#000000" stroke-width="2" x1="29.5" x2="4.5" y1="26" y2="26" /><line fill="none" stroke="#000000" stroke-width="2" x1="63.5" x2="63.5" y1="44" y2="10" /><line fill="none" stroke="#000000" stroke-width="2" x1="35" x2="92" y1="10" y2="10" /><line fill="none" stroke="#000000" stroke-width="2" x1="40" x2="56.5" y1="29.5" y2="29.5" /><line fill="none" stroke="#000000" stroke-width="2" x1="40" x2="56.5" y1="39" y2="39" /><line fill="none" stroke="#000000" stroke-width="2" x1="70.5" x2="87" y1="29.5" y2="29.5" /><line fill="none" stroke="#000000" stroke-width="2" x1="70.5" x2="87" y1="39" y2="39" /><line fill="none" stroke="#000000" stroke-width="2" x1="95.5" x2="30" y1="60.5" y2="60.5" /><line fill="none" stroke="#000000" stroke-width="2" x1="90.5" x2="36" y1="49" y2="49" /><polyline fill="none" points="93.5,39 93.5,21 33.5,21 33.5,39" stroke="#000000" stroke-width="2" /><path d="M3.5,70 c6.99,-14.471 11.578,-28.562 14.5,-44.5" fill="none" stroke="#000000" stroke-width="2" /><path d="M30.5,56 c-3.582,-9.394 -7.52,-19.37 -11.5,-29" fill="none" stroke="#000000" stroke-width="2" /><path d="M46.5,60.5 c-2.052,8.312 -5.551,17.847 -9,25" fill="none" stroke="#000000" stroke-width="2" /><path d="M43,72.5 h46.5 c-2.41,18.69 -3.871,20 -9.5,20 c-3.021,0 -10.614,-0.451 -16.5,-1" fill="none" stroke="#000000" stroke-width="2" /></svg>