<?xml version='1.0' encoding='utf-8'?>
<svg xmlns="http://www.w3.org/2000/svg" height="100px" version="1.0" viewBox="0 0 100 100" width="100px" x="0px" y="0px">
<line fill="none" stroke="#000000" stroke-width="2" x1="19.5" x2="19.5" y1="94" y2="6" /><line fill="none" stroke="#000000" stroke-width="2" x1="33" x2="4.5" y1="26" y2="26" /><line fill="none" stroke="#000000" stroke-width="2" x1="33" x2="95" y1="40.5" y2="40.5" /><line fill="none" stroke="#000000" stroke-width="2" x1="38" x2="92" y1="27" y2="27" /><line fill="none" stroke="#000000" stroke-width="2" x1="34.5" x2="93.5" y1="14" y2="14" /><line fill="none" stroke="#000000" stroke-width="2" x1="64.5" x2="64.5" y1="40.5" y2="14" /><line fill="none" stroke="#000000" stroke-width="2" x1="32.5" x2="59.5" y1="67" y2="67" /><path d="M3.5,70 c7.473,-14.471 12.377,-28.562 15.5,-44.5" fill="none" stroke="#000000" stroke-width="2" /><path d="M31.5,59 c-3.664,-10.331 -7.621,-21.329 -11.5,-32" fill="none" stroke="#000000" stroke-width="2" /><path d="M53,14 c-1.753,-3.556 -3.662,-7.034 -5.5,-10" fill="none" stroke="#000000" stroke-width="2" /><path d="M75.5,14 c2.08,-3.292 4.053,-6.888 5.5,-10" fill="none" stroke="#000000" stroke-width="2" /><path d="M66.074,55.88 c5.396,13.151 17.139,26.082 30.926,34.12" fill="none" stroke="#000000" stroke-width="2" /><path d="M94,56.5 c-5.578,6.168 -11.759,11.224 -18.5,15" fill="none" stroke="#000000" stroke-width="2" /><path d="M58.637,67.496 c-4.87,8.348 -15.069,16.753 -27.637,22.004" fill="none" stroke="#000000" stroke-width="2" /><path d="M47.5,45.5 c10.826,1.341 20.151,3.128 31.5,6" fill="none" stroke="#000000" stroke-width="2" /><path d="M38.5,56.5 h27.5 v30.5 c0,4.722 -0.25,5 -6.5,5 c-2.822,0 -6.744,-0.132 -12,-0.5" fill="none" stroke="#000000" stroke-width="2" /></svg>