<?xml version='1.0' encoding='utf-8'?>
<svg xmlns="http://www.w3.org/2000/svg" height="100px" version="1.0" viewBox="0 0 100 100" width="100px" x="0px" y="0px">
<line fill="none" stroke="#000000" stroke-width="2" x1="45" x2="96" y1="31" y2="31" /><line fill="none" stroke="#000000" stroke-width="2" x1="71.5" x2="71.5" y1="31" y2="58" /><line fill="none" stroke="#000000" stroke-width="2" x1="47" x2="95" y1="43.5" y2="43.5" /><line fill="none" stroke="#000000" stroke-width="2" x1="46" x2="95" y1="13.5" y2="13.5" /><line fill="none" stroke="#000000" stroke-width="2" x1="71.5" x2="71.5" y1="13.5" y2="5" /><line fill="none" stroke="#000000" stroke-width="2" x1="50" x2="50" y1="94" y2="54" /><line fill="none" stroke="#000000" stroke-width="2" x1="92" x2="8" y1="63" y2="63" /><polyline fill="none" points="14.5,55.5 42.5,55.5 42.5,36 13.5,36 13.5,56.5" stroke="#000000" stroke-width="2" /><path d="M79.5,31 c3.414,-5.11 6.395,-11.183 8.5,-17.5" fill="none" stroke="#000000" stroke-width="2" /><path d="M61.5,31 c-1.57,-5.743 -3.678,-11.948 -6,-17.5" fill="none" stroke="#000000" stroke-width="2" /><path d="M4.5,53.5 c5.33,-7.966 8,-16.791 8,-27.5 v-17.0 h29.0 v17.5 h-29.0" fill="none" stroke="#000000" stroke-width="2" /><path d="M6,91 c18.07,-6.55 33.259,-16.739 43,-28" fill="none" stroke="#000000" stroke-width="2" /><path d="M94,91 c-18.07,-6.55 -33.259,-16.739 -43,-28" fill="none" stroke="#000000" stroke-width="2" /></svg>