<?xml version='1.0' encoding='utf-8'?>
<svg xmlns="http://www.w3.org/2000/svg" height="100px" version="1.0" viewBox="0 0 100 100" width="100px" x="0px" y="0px">
<line fill="none" stroke="#000000" stroke-width="2" x1="19.5" x2="19.5" y1="94" y2="6" /><line fill="none" stroke="#000000" stroke-width="2" x1="31.5" x2="4.5" y1="26" y2="26" /><line fill="none" stroke="#000000" stroke-width="2" x1="35.5" x2="97" y1="89" y2="89" /><line fill="none" stroke="#000000" stroke-width="2" x1="39" x2="96" y1="37.5" y2="37.5" /><line fill="none" stroke="#000000" stroke-width="2" x1="46.5" x2="89.5" y1="30.5" y2="30.5" /><line fill="none" stroke="#000000" stroke-width="2" x1="68" x2="68" y1="37.5" y2="13" /><line fill="none" stroke="#000000" stroke-width="2" x1="47.5" x2="89.5" y1="62.5" y2="62.5" /><line fill="none" stroke="#000000" stroke-width="2" x1="47.5" x2="89.5" y1="53.5" y2="53.5" /><polyline fill="none" points="96.5,10 35.5,10 35.5,95.5" stroke="#000000" stroke-width="2" /><polyline fill="none" points="90.5,31.5 90.5,19.5 45.5,19.5 45.5,31.5" stroke="#000000" stroke-width="2" /><polyline fill="none" points="47.5,71.5 89.5,71.5 89.5,44.5 46.5,44.5 46.5,72.5" stroke="#000000" stroke-width="2" /><path d="M3.5,70 c7.473,-14.471 12.377,-28.562 15.5,-44.5" fill="none" stroke="#000000" stroke-width="2" /><path d="M31.5,59 c-3.664,-10.331 -7.621,-21.329 -11.5,-32" fill="none" stroke="#000000" stroke-width="2" /><path d="M42,84 c8.034,-2.374 15.104,-5.637 20,-9" fill="none" stroke="#000000" stroke-width="2" /><path d="M95,85 c-5.022,-3.284 -12.134,-6.889 -20,-10" fill="none" stroke="#000000" stroke-width="2" /></svg>