<?xml version='1.0' encoding='utf-8'?>
<svg xmlns="http://www.w3.org/2000/svg" height="100px" version="1.0" viewBox="0 0 100 100" width="100px" x="0px" y="0px">
<line fill="none" stroke="#000000" stroke-width="2" x1="19" x2="19" y1="94" y2="6" /><line fill="none" stroke="#000000" stroke-width="2" x1="29" x2="4" y1="26" y2="26" /><line fill="none" stroke="#000000" stroke-width="2" x1="42" x2="75.5" y1="8.5" y2="8.5" /><line fill="none" stroke="#000000" stroke-width="2" x1="35" x2="91" y1="33" y2="33" /><line fill="none" stroke="#000000" stroke-width="2" x1="62.5" x2="62.5" y1="19.5" y2="46" /><line fill="none" stroke="#000000" stroke-width="2" x1="35.5" x2="35.5" y1="61.5" y2="94" /><line fill="none" stroke="#000000" stroke-width="2" x1="35.5" x2="88.5" y1="88" y2="88" /><line fill="none" stroke="#000000" stroke-width="2" x1="36.5" x2="88.5" y1="75" y2="75" /><polyline fill="none" points="34,48 34,19.5 91,19.5 91,47 35,47" stroke="#000000" stroke-width="2" /><polyline fill="none" points="88.5,94 88.5,62.5 36.5,62.5" stroke="#000000" stroke-width="2" /><path d="M3,70 c7.473,-14.471 12.377,-28.562 15.5,-44.5" fill="none" stroke="#000000" stroke-width="2" /><path d="M31,59 c-3.664,-10.331 -7.621,-21.329 -11.5,-32" fill="none" stroke="#000000" stroke-width="2" /><path d="M64,19.5 c3.781,-3.27 7.619,-7.101 10.752,-10.661" fill="none" stroke="#000000" stroke-width="2" /><path d="M28.5,22.5 c7.688,-5.816 13.436,-12.466 17.5,-20" fill="none" stroke="#000000" stroke-width="2" /><path d="M97.5,64 c-3.641,-4.449 -7.846,-9.034 -13,-14" fill="none" stroke="#000000" stroke-width="2" /><path d="M75.5,62.5 c-2.236,-3.765 -4.965,-7.677 -8.5,-12" fill="none" stroke="#000000" stroke-width="2" /><path d="M53.5,62.5 c-0.834,-3.71 -2.088,-7.601 -4,-12" fill="none" stroke="#000000" stroke-width="2" /><path d="M26,64 c4.572,-3.946 8.854,-8.529 13,-14" fill="none" stroke="#000000" stroke-width="2" /></svg>