<?xml version='1.0' encoding='utf-8'?>
<svg xmlns="http://www.w3.org/2000/svg" height="100px" version="1.0" viewBox="0 0 100 100" width="100px" x="0px" y="0px">
<line fill="none" stroke="#000000" stroke-width="2" x1="17.5" x2="17.5" y1="94" y2="6" /><line fill="none" stroke="#000000" stroke-width="2" x1="27.5" x2="3.5" y1="26" y2="26" /><line fill="none" stroke="#000000" stroke-width="2" x1="33.5" x2="60" y1="45.5" y2="45.5" /><line fill="none" stroke="#000000" stroke-width="2" x1="96.5" x2="68" y1="14" y2="14" /><line fill="none" stroke="#000000" stroke-width="2" x1="63.5" x2="37.5" y1="14" y2="14" /><polyline fill="none" points="33.5,62.5 60,62.5 60,30 32.5,30 32.5,88.5" stroke="#000000" stroke-width="2" /><path d="M2.5,70 c6.99,-14.471 11.578,-28.562 14.5,-44.5" fill="none" stroke="#000000" stroke-width="2" /><path d="M28,53 c-3.108,-8.549 -6.529,-17.44 -10,-26" fill="none" stroke="#000000" stroke-width="2" /><path d="M26,90.5 c10.818,-2.687 20.341,-6.327 31.5,-12" fill="none" stroke="#000000" stroke-width="2" /><path d="M68,93.5 V30.0 h25.0 v45.0 c0,7.69 -0.313,8 -4.5,8 c-1.463,0 -7.949,-0.225 -13,-0.5" fill="none" stroke="#000000" stroke-width="2" /><path d="M63.5,90.5 c-3.375,-7.787 -8.273,-17.177 -13,-24.5" fill="none" stroke="#000000" stroke-width="2" /><path d="M50,30 c-1.528,-5.195 -3.245,-10.698 -5,-16" fill="none" stroke="#000000" stroke-width="2" /><path d="M80.5,30 c-1.528,-5.195 -3.246,-10.698 -5,-16" fill="none" stroke="#000000" stroke-width="2" /><path d="M41.5,4 c-2.223,7.932 -6.65,16.433 -12,23" fill="none" stroke="#000000" stroke-width="2" /><path d="M73,4 c-2.654,7.438 -8.224,15.725 -15,22" fill="none" stroke="#000000" stroke-width="2" /></svg>