<?xml version='1.0' encoding='utf-8'?>
<svg xmlns="http://www.w3.org/2000/svg" height="100px" version="1.0" viewBox="0 0 100 100" width="100px" x="0px" y="0px">
<line fill="none" stroke="#000000" stroke-width="2" x1="63" x2="63" y1="38" y2="49" /><line fill="none" stroke="#000000" stroke-width="2" x1="37" x2="37" y1="38" y2="49" /><line fill="none" stroke="#000000" stroke-width="2" x1="14.5" x2="48.5" y1="65.5" y2="65.5" /><line fill="none" stroke="#000000" stroke-width="2" x1="96.5" x2="52" y1="61.5" y2="61.5" /><line fill="none" stroke="#000000" stroke-width="2" x1="77" x2="77" y1="34" y2="4" /><line fill="none" stroke="#000000" stroke-width="2" x1="94" x2="62.5" y1="12" y2="12" /><line fill="none" stroke="#000000" stroke-width="2" x1="23" x2="23" y1="34" y2="4" /><line fill="none" stroke="#000000" stroke-width="2" x1="37.5" x2="6" y1="12" y2="12" /><polyline fill="none" points="11,51 11,38 89,38 89,50 12,50" stroke="#000000" stroke-width="2" /><polyline fill="none" points="14.5,74.5 48.5,74.5 48.5,56.5 13.5,56.5 13.5,90.5" stroke="#000000" stroke-width="2" /><path d="M5.5,91.5 c13.736,-1.668 25.828,-3.955 40,-7.5" fill="none" stroke="#000000" stroke-width="2" /><path d="M53.5,91.5 c-4.383,-4.45 -10.847,-9.837 -17,-14" fill="none" stroke="#000000" stroke-width="2" /><path d="M84,53.5 v32.5 c0,4.021 -0.5,4.5 -5.5,4.5 c-2.537,0 -8.006,-0.199 -13,-0.5" fill="none" stroke="#000000" stroke-width="2" /><path d="M72.5,81 c-3.75,-4.114 -9.365,-9.019 -15,-13" fill="none" stroke="#000000" stroke-width="2" /><path d="M62,28 c6.909,-5.28 11.25,-10.354 14.5,-16.5" fill="none" stroke="#000000" stroke-width="2" /><path d="M37.5,27 c-3.924,-4.724 -8.847,-9.852 -14,-14.5" fill="none" stroke="#000000" stroke-width="2" /><path d="M36,17.5 c10.589,-3.09 19.662,-8.187 25,-13.5" fill="none" stroke="#000000" stroke-width="2" /><path d="M36,33 c10.589,-3.091 19.662,-8.187 25,-13.5" fill="none" stroke="#000000" stroke-width="2" /><path d="M38,5.5 c7.657,2.659 14.588,5.968 24,11.499" fill="none" stroke="#000000" stroke-width="2" /><path d="M38,21 c7.657,2.659 14.588,5.968 24,11.5" fill="none" stroke="#000000" stroke-width="2" /><path d="M6.5,33.5 c7.335,-6.977 12.468,-14.38 15.5,-22" fill="none" stroke="#000000" stroke-width="2" /><path d="M93.5,33.5 c-7.335,-6.977 -12.468,-14.38 -15.5,-22" fill="none" stroke="#000000" stroke-width="2" /></svg>