<?xml version='1.0' encoding='utf-8'?>
<svg xmlns="http://www.w3.org/2000/svg" height="100px" version="1.0" viewBox="0 0 100 100" width="100px" x="0px" y="0px">
<line fill="none" stroke="#000000" stroke-width="2" x1="6" x2="52.5" y1="14.5" y2="14.5" /><line fill="none" stroke="#000000" stroke-width="2" x1="19" x2="19" y1="22.5" y2="4.5" /><line fill="none" stroke="#000000" stroke-width="2" x1="39" x2="39" y1="22.5" y2="4.5" /><line fill="none" stroke="#000000" stroke-width="2" x1="6" x2="52" y1="67.5" y2="67.5" /><line fill="none" stroke="#000000" stroke-width="2" x1="8" x2="50" y1="54.5" y2="54.5" /><line fill="none" stroke="#000000" stroke-width="2" x1="63" x2="96.5" y1="18" y2="18" /><polyline fill="none" points="10.5,44 48.5,44 48.5,26.5 9.5,26.5 9.5,45" stroke="#000000" stroke-width="2" /><path d="M52,45 c6.293,-11.127 11.08,-24.556 14,-40" fill="none" stroke="#000000" stroke-width="2" /><path d="M6,91.5 c14.961,-6.008 22.5,-15.589 22.5,-27.5 v-36.5" fill="none" stroke="#000000" stroke-width="2" /><path d="M47.5,84 c-7.983,-3.824 -14.561,-9.538 -19,-16.5" fill="none" stroke="#000000" stroke-width="2" /><path d="M47.5,90.5 c14.901,-8.268 25.5,-27.397 25.5,-48.5 v-16.5" fill="none" stroke="#000000" stroke-width="2" /><path d="M96.5,90.5 c-14.161,-8.173 -23.5,-25.802 -23.5,-48.5" fill="none" stroke="#000000" stroke-width="2" /><path d="M87.5,44.5 c3.469,-7.408 6.155,-15.891 8.022,-25.688" fill="none" stroke="#000000" stroke-width="2" /></svg>