<?xml version='1.0' encoding='utf-8'?>
<svg xmlns="http://www.w3.org/2000/svg" height="100px" version="1.0" viewBox="0 0 100 100" width="100px" x="0px" y="0px">
<line fill="none" stroke="#000000" stroke-width="2" x1="10" x2="42.5" y1="34" y2="34" /><line fill="none" stroke="#000000" stroke-width="2" x1="46.5" x2="91" y1="48" y2="48" /><polyline fill="none" points="10,48 42.5,48 42.5,20.5 10,20.5" stroke="#000000" stroke-width="2" /><path d="M46.5,42.5 c8.801,-5.272 12,-11.468 12,-26 V10.0 h21.5 v26.5 c0,2.755 0.262,3 4,3 c10.421,0 10.865,-0.383 12,-13.5" fill="none" stroke="#000000" stroke-width="2" /><path d="M44.5,91 c23.521,-8.813 36.758,-20.951 45.575,-42.381" fill="none" stroke="#000000" stroke-width="2" /><path d="M95,91 c-18.662,-9.464 -33.121,-22.547 -42,-37.5" fill="none" stroke="#000000" stroke-width="2" /><path d="M43,6.5 c-11.42,3.197 -22.045,5.464 -33,7 V46.0 c0,23.709 -2.031,36.037 -6.5,46.5" fill="none" stroke="#000000" stroke-width="2" /><path d="M9.5,61 h32.5 c0,22.752 -3.744,30 -9,30 c-2.786,0 -7.925,-0.337 -14,-1" fill="none" stroke="#000000" stroke-width="2" /></svg>