<?xml version='1.0' encoding='utf-8'?>
<svg xmlns="http://www.w3.org/2000/svg" height="100px" version="1.0" viewBox="0 0 100 100" width="100px" x="0px" y="0px">
<path d="M11,91.5 c6.273,-9.294 11.438,-19.819 15,-30.5" fill="none" stroke="#000000" stroke-width="2" /><path d="M28,22.5 c-4.551,-4.456 -9.955,-9.209 -16,-14" fill="none" stroke="#000000" stroke-width="2" /><path d="M24.5,45.5 c-5.014,-4.892 -10.751,-9.858 -17.5,-15" fill="none" stroke="#000000" stroke-width="2" /><path d="M50,13.5 c-4.251,12.196 -10.809,23.085 -19.5,32.5" fill="none" stroke="#000000" stroke-width="2" /><path d="M54,10 h19.0 c5.501,13.356 13.467,25.425 23.5,36" fill="none" stroke="#000000" stroke-width="2" /><path d="M26,91.5 c18.755,-9.876 29.277,-25.528 31,-50.5" fill="none" stroke="#000000" stroke-width="2" /><path d="M39.5,41 h47.0 c0,43.327 -3.451,49 -13,49 c-4.367,0 -10.684,-0.168 -16.5,-0.5" fill="none" stroke="#000000" stroke-width="2" /></svg>