<?xml version='1.0' encoding='utf-8'?>
<svg xmlns="http://www.w3.org/2000/svg" height="100px" version="1.0" viewBox="0 0 100 100" width="100px" x="0px" y="0px">
<line fill="none" stroke="#000000" stroke-width="2" x1="47.5" x2="26" y1="42" y2="42" /><line fill="none" stroke="#000000" stroke-width="2" x1="47" x2="26" y1="12" y2="12" /><line fill="none" stroke="#000000" stroke-width="2" x1="74" x2="95.5" y1="42" y2="42" /><line fill="none" stroke="#000000" stroke-width="2" x1="74" x2="74" y1="75.5" y2="13.5" /><path d="M24,92 c11.818,-12.493 19.793,-29.507 22.51,-49.137" fill="none" stroke="#000000" stroke-width="2" /><path d="M26.759,41.651 c8.06,-9.375 14.273,-18.75 19.343,-29.093" fill="none" stroke="#000000" stroke-width="2" /><path d="M95.5,90 H81.0 c-33.801,0 -45.92,-7.303 -54.5,-34" fill="none" stroke="#000000" stroke-width="2" /><path d="M50.5,16.5 c16.854,-1.208 31.807,-3.942 43,-7.5" fill="none" stroke="#000000" stroke-width="2" /><path d="M8,91.5 c5.156,-9.315 9.464,-19.845 12.5,-30.5" fill="none" stroke="#000000" stroke-width="2" /><path d="M23,22.5 c-4.127,-4.427 -9.06,-9.209 -14.5,-14" fill="none" stroke="#000000" stroke-width="2" /><path d="M20.5,45.5 c-4.589,-4.819 -9.926,-9.858 -16,-15" fill="none" stroke="#000000" stroke-width="2" /><path d="M55.5,28 v35.5 c0,11.794 0.201,12 21,12 h17.5" fill="none" stroke="#000000" stroke-width="2" /></svg>