<?xml version='1.0' encoding='utf-8'?>
<svg xmlns="http://www.w3.org/2000/svg" height="100px" version="1.0" viewBox="0 0 100 100" width="100px" x="0px" y="0px">
<line fill="none" stroke="#000000" stroke-width="2" x1="31.5" x2="89.5" y1="31.5" y2="31.5" /><line fill="none" stroke="#000000" stroke-width="2" x1="93.5" x2="28" y1="15" y2="15" /><line fill="none" stroke="#000000" stroke-width="2" x1="60.5" x2="60.5" y1="31.5" y2="5" /><polyline fill="none" points="90,61 90,44 31,44 31,62" stroke="#000000" stroke-width="2" /><path d="M8.5,91.5 c7.072,-9.315 12.963,-19.819 17,-30.5" fill="none" stroke="#000000" stroke-width="2" /><path d="M25.5,22.5 c-4.551,-4.456 -9.955,-9.209 -16,-14" fill="none" stroke="#000000" stroke-width="2" /><path d="M22,45.5 c-5.014,-4.892 -10.751,-9.858 -17.5,-15" fill="none" stroke="#000000" stroke-width="2" /><path d="M26,92 c17.216,-5.356 25,-16.565 25,-40" fill="none" stroke="#000000" stroke-width="2" /><path d="M68.5,52 v31.8 c0,6.986 0.293,7.2 12,7.2 c11.381,0 11.979,-0.565 12.5,-19" fill="none" stroke="#000000" stroke-width="2" /></svg>