<?xml version='1.0' encoding='utf-8'?>
<svg xmlns="http://www.w3.org/2000/svg" height="100px" version="1.0" viewBox="0 0 100 100" width="100px" x="0px" y="0px">
<line fill="none" stroke="#000000" stroke-width="2" x1="50" x2="50" y1="93.5" y2="52.5" /><line fill="none" stroke="#000000" stroke-width="2" x1="92" x2="8" y1="62.5" y2="62.5" /><polyline fill="none" points="91,11 38.5,11 38.5,49 92,49" stroke="#000000" stroke-width="2" /><polyline fill="none" points="38.5,23.5 87,23.5 87,36.5 39.5,36.5" stroke="#000000" stroke-width="2" /><path d="M6,91.5 c18.07,-6.784 33.259,-17.337 43,-29" fill="none" stroke="#000000" stroke-width="2" /><path d="M94,91.5 c-18.07,-6.784 -33.259,-17.337 -43,-29" fill="none" stroke="#000000" stroke-width="2" /><path d="M9,55.5 c9.955,-5.681 18.33,-12.447 24,-19" fill="none" stroke="#000000" stroke-width="2" /><path d="M29.5,16.5 c-5.046,-2.769 -11.16,-5.665 -18,-8.5" fill="none" stroke="#000000" stroke-width="2" /><path d="M24,32 c-5.221,-3.19 -11.317,-6.316 -18.5,-9.5" fill="none" stroke="#000000" stroke-width="2" /></svg>