<?xml version='1.0' encoding='utf-8'?>
<svg xmlns="http://www.w3.org/2000/svg" height="100px" version="1.0" viewBox="0 0 100 100" width="100px" x="0px" y="0px">
<line fill="none" stroke="#000000" stroke-width="2" x1="37.5" x2="87.5" y1="75" y2="75" /><line fill="none" stroke="#000000" stroke-width="2" x1="37.5" x2="87.5" y1="61" y2="61" /><line fill="none" stroke="#000000" stroke-width="2" x1="62" x2="62" y1="38" y2="10.5" /><line fill="none" stroke="#000000" stroke-width="2" x1="33.5" x2="91.5" y1="23.5" y2="23.5" /><polyline fill="none" points="33.5,38 91.5,38 91.5,9.5 32.5,9.5 32.5,39" stroke="#000000" stroke-width="2" /><path d="M36.5,92 V47.0 h51.0 v38.96 c0,4.177 -0.469,4.54 -7.5,4.54 c-2.172,0 -5.876,-0.137 -12.5,-0.5" fill="none" stroke="#000000" stroke-width="2" /><path d="M9,91.5 c7.072,-9.315 12.963,-19.819 17,-30.5" fill="none" stroke="#000000" stroke-width="2" /><path d="M26,22.5 c-4.551,-4.456 -9.955,-9.209 -16,-14" fill="none" stroke="#000000" stroke-width="2" /><path d="M22.5,45.5 c-5.014,-4.892 -10.751,-9.858 -17.5,-15" fill="none" stroke="#000000" stroke-width="2" /></svg>