<?xml version='1.0' encoding='utf-8'?>
<svg xmlns="http://www.w3.org/2000/svg" height="100px" version="1.0" viewBox="0 0 100 100" width="100px" x="0px" y="0px">
<line fill="none" stroke="#000000" stroke-width="2" x1="61" x2="33" y1="10" y2="10" /><line fill="none" stroke="#000000" stroke-width="2" x1="37.5" x2="82.5" y1="45" y2="45" /><line fill="none" stroke="#000000" stroke-width="2" x1="26.5" x2="93.5" y1="64.5" y2="64.5" /><path d="M8,91.5 c6.24,-9.315 11.438,-19.819 15,-30.5" fill="none" stroke="#000000" stroke-width="2" /><path d="M25,22.5 c-4.551,-4.456 -9.955,-9.209 -16,-14" fill="none" stroke="#000000" stroke-width="2" /><path d="M21.5,45.5 c-5.014,-4.892 -10.751,-9.858 -17.5,-15" fill="none" stroke="#000000" stroke-width="2" /><path d="M96,50.5 c-16.256,-9.646 -30.152,-25.378 -35.939,-41.155" fill="none" stroke="#000000" stroke-width="2" /><path d="M24,50.5 c16.256,-9.646 30.152,-25.378 35.939,-41.155" fill="none" stroke="#000000" stroke-width="2" /><path d="M83.5,11.5 c-4.191,5.085 -9.545,10.44 -14.5,14.5" fill="none" stroke="#000000" stroke-width="2" /><path d="M94.5,22.5 c-4.535,5.306 -10.186,10.775 -15.5,15" fill="none" stroke="#000000" stroke-width="2" /><path d="M46.5,31.5 c-4.803,-4.549 -10.027,-9.089 -15.251,-13.222" fill="none" stroke="#000000" stroke-width="2" /><path d="M69.5,45 v41.0 c0,4.573 0.625,5 9.5,5 c12.049,0 12.253,-0.206 13,-18.5" fill="none" stroke="#000000" stroke-width="2" /><path d="M27,92.5 c14.475,-5.935 22,-17.481 22,-40 V45.0" fill="none" stroke="#000000" stroke-width="2" /></svg>