<?xml version='1.0' encoding='utf-8'?>
<svg xmlns="http://www.w3.org/2000/svg" height="100px" version="1.0" viewBox="0 0 100 100" width="100px" x="0px" y="0px">
<line fill="none" stroke="#000000" stroke-width="2" x1="66.5" x2="66.5" y1="14" y2="51" /><line fill="none" stroke="#000000" stroke-width="2" x1="33.5" x2="95.5" y1="38" y2="38" /><line fill="none" stroke="#000000" stroke-width="2" x1="64" x2="64" y1="14" y2="4" /><line fill="none" stroke="#000000" stroke-width="2" x1="66.5" x2="66.5" y1="64" y2="52" /><line fill="none" stroke="#000000" stroke-width="2" x1="42.689" x2="90.311" y1="87" y2="87" /><polyline fill="none" points="40,52 89.5,52 89.5,24.5 40,24.5" stroke="#000000" stroke-width="2" /><polyline fill="none" points="90,94 90,64 42,64 42,94" stroke="#000000" stroke-width="2" /><path d="M8.5,91.5 c7.072,-9.315 12.963,-19.819 17,-30.5" fill="none" stroke="#000000" stroke-width="2" /><path d="M25.5,22.5 c-4.551,-4.456 -9.955,-9.209 -16,-14" fill="none" stroke="#000000" stroke-width="2" /><path d="M22,45.5 c-5.014,-4.892 -10.751,-9.858 -17.5,-15" fill="none" stroke="#000000" stroke-width="2" /><path d="M24.5,91.5 c6.048,-14.052 9,-29.832 9,-51 V14.0 H95.0" fill="none" stroke="#000000" stroke-width="2" /></svg>