<?xml version='1.0' encoding='utf-8'?>
<svg xmlns="http://www.w3.org/2000/svg" height="100px" version="1.0" viewBox="0 0 100 100" width="100px" x="0px" y="0px">
<line fill="none" stroke="#000000" stroke-width="2" x1="70" x2="70" y1="14.5" y2="47" /><line fill="none" stroke="#000000" stroke-width="2" x1="50" x2="50" y1="14.5" y2="47" /><line fill="none" stroke="#000000" stroke-width="2" x1="61" x2="61" y1="13.5" y2="3" /><line fill="none" stroke="#000000" stroke-width="2" x1="41.5" x2="64" y1="65.5" y2="65.5" /><line fill="none" stroke="#000000" stroke-width="2" x1="41.5" x2="41.5" y1="89.5" y2="52.5" /><polyline fill="none" points="30,48 90,48 90,28 30,28" stroke="#000000" stroke-width="2" /><path d="M7.5,91.5 c5.156,-9.315 9.464,-19.845 12.5,-30.5" fill="none" stroke="#000000" stroke-width="2" /><path d="M22.5,22.5 c-4.127,-4.427 -9.06,-9.209 -14.5,-14" fill="none" stroke="#000000" stroke-width="2" /><path d="M20,45.5 c-4.589,-4.819 -9.926,-9.858 -16,-15" fill="none" stroke="#000000" stroke-width="2" /><path d="M22,92 c4.354,-9.75 8,-28.422 8,-44 v-34.5 h64.0" fill="none" stroke="#000000" stroke-width="2" /><path d="M70,52.5 v33.0 c0,4.844 0.211,5 11,5 c12.951,0 13.166,-0.206 14.5,-17" fill="none" stroke="#000000" stroke-width="2" /><path d="M70,68 c8.764,-2.535 16.367,-5.869 25,-11" fill="none" stroke="#000000" stroke-width="2" /><path d="M30,91.5 c11.931,-1.764 22.674,-4.222 35,-8" fill="none" stroke="#000000" stroke-width="2" /></svg>