<?xml version='1.0' encoding='utf-8'?>
<svg xmlns="http://www.w3.org/2000/svg" height="100px" version="1.0" viewBox="0 0 100 100" width="100px" x="0px" y="0px">
<line fill="none" stroke="#000000" stroke-width="2" x1="48.5" x2="89.5" y1="41" y2="41" /><line fill="none" stroke="#000000" stroke-width="2" x1="42" x2="95" y1="70.5" y2="70.5" /><line fill="none" stroke="#000000" stroke-width="2" x1="69" x2="69" y1="85" y2="5" /><line fill="none" stroke="#000000" stroke-width="2" x1="41.5" x2="95" y1="14" y2="14" /><polyline fill="none" points="36,75 36,45 23.5,45" stroke="#000000" stroke-width="2" /><polyline fill="none" points="48.5,58.5 90.5,58.5 90.5,25.5 47.5,25.5 47.5,59.5" stroke="#000000" stroke-width="2" /><path d="M7,91.5 c5.156,-9.315 9.464,-19.845 12.5,-30.5" fill="none" stroke="#000000" stroke-width="2" /><path d="M22,22.5 c-4.127,-4.427 -9.06,-9.209 -14.5,-14" fill="none" stroke="#000000" stroke-width="2" /><path d="M19.5,45.5 c-4.589,-4.819 -9.926,-9.858 -16,-15" fill="none" stroke="#000000" stroke-width="2" /><path d="M26,10 c4.851,5.604 8.934,10.774 13.5,17" fill="none" stroke="#000000" stroke-width="2" /><path d="M22,92 c6.576,-5.554 11.091,-11.114 14,-17" fill="none" stroke="#000000" stroke-width="2" /><path d="M95,90 h-30.0 c-16.911,0 -24.301,-3.907 -29,-15" fill="none" stroke="#000000" stroke-width="2" /></svg>