<?xml version='1.0' encoding='utf-8'?>
<svg xmlns="http://www.w3.org/2000/svg" height="100px" version="1.0" viewBox="0 0 100 100" width="100px" x="0px" y="0px">
<line fill="none" stroke="#000000" stroke-width="2" x1="38" x2="38" y1="46.5" y2="94" /><line fill="none" stroke="#000000" stroke-width="2" x1="38" x2="96" y1="88" y2="88" /><line fill="none" stroke="#000000" stroke-width="2" x1="93" x2="38.5" y1="46" y2="46" /><line fill="none" stroke="#000000" stroke-width="2" x1="66.5" x2="66.5" y1="87" y2="46" /><line fill="none" stroke="#000000" stroke-width="2" x1="38" x2="91.5" y1="73.5" y2="73.5" /><line fill="none" stroke="#000000" stroke-width="2" x1="38" x2="91.5" y1="59.5" y2="59.5" /><line fill="none" stroke="#000000" stroke-width="2" x1="91.5" x2="41" y1="14.5" y2="14.5" /><line fill="none" stroke="#000000" stroke-width="2" x1="94.5" x2="30" y1="30.5" y2="30.5" /><path d="M9,91.5 c7.072,-9.315 12.963,-19.819 17,-30.5" fill="none" stroke="#000000" stroke-width="2" /><path d="M26,22.5 c-4.551,-4.456 -9.955,-9.209 -16,-14" fill="none" stroke="#000000" stroke-width="2" /><path d="M22.5,45.5 c-5.014,-4.892 -10.751,-9.858 -17.5,-15" fill="none" stroke="#000000" stroke-width="2" /><path d="M72.5,34.5 c-1.648,4.142 -3.749,8.141 -6,11.5" fill="none" stroke="#000000" stroke-width="2" /><path d="M26,56 c17.689,-12.476 28.125,-25.935 33,-41.5" fill="none" stroke="#000000" stroke-width="2" /><path d="M32,25 c6.389,-5.819 11.496,-12.945 15,-21" fill="none" stroke="#000000" stroke-width="2" /></svg>