<?xml version='1.0' encoding='utf-8'?>
<svg xmlns="http://www.w3.org/2000/svg" height="100px" version="1.0" viewBox="0 0 100 100" width="100px" x="0px" y="0px">
<line fill="none" stroke="#000000" stroke-width="2" x1="59.5" x2="59.5" y1="53.5" y2="93.5" /><line fill="none" stroke="#000000" stroke-width="2" x1="59.5" x2="92" y1="87.5" y2="87.5" /><line fill="none" stroke="#000000" stroke-width="2" x1="60.5" x2="92" y1="70" y2="70" /><line fill="none" stroke="#000000" stroke-width="2" x1="50" x2="97" y1="36.5" y2="36.5" /><line fill="none" stroke="#000000" stroke-width="2" x1="90.5" x2="53" y1="16.5" y2="16.5" /><line fill="none" stroke="#000000" stroke-width="2" x1="70" x2="70" y1="36.5" y2="4" /><polyline fill="none" points="92,93.5 92,53 60,53" stroke="#000000" stroke-width="2" /><path d="M7,91.5 c5.156,-9.315 9.464,-19.845 12.5,-30.5" fill="none" stroke="#000000" stroke-width="2" /><path d="M22,22.5 c-4.127,-4.427 -9.06,-9.209 -14.5,-14" fill="none" stroke="#000000" stroke-width="2" /><path d="M19.5,45.5 c-4.589,-4.819 -9.926,-9.858 -16,-15" fill="none" stroke="#000000" stroke-width="2" /><path d="M48,61.5 c19.954,-13.35 35.822,-31.204 46.5,-52" fill="none" stroke="#000000" stroke-width="2" /><path d="M31.5,8 c9.348,15.786 14,33.95 14,56.5 c0,19.396 -4.178,26.5 -7.5,26.5 c-2.443,0 -6.15,-0.629 -10.5,-2" fill="none" stroke="#000000" stroke-width="2" /><path d="M51,6 c-6.912,10.59 -16.088,19.923 -26,26.5" fill="none" stroke="#000000" stroke-width="2" /><path d="M44.5,44.5 c-5.061,6.809 -11.912,13.013 -19.5,17.5" fill="none" stroke="#000000" stroke-width="2" /><path d="M97.5,51.5 c-4.082,-4.054 -8.73,-8.05 -13.5,-11.5" fill="none" stroke="#000000" stroke-width="2" /></svg>