<?xml version='1.0' encoding='utf-8'?>
<svg xmlns="http://www.w3.org/2000/svg" height="100px" version="1.0" viewBox="0 0 100 100" width="100px" x="0px" y="0px">
<line fill="none" stroke="#000000" stroke-width="2" x1="59.5" x2="59.5" y1="90" y2="10.5" /><line fill="none" stroke="#000000" stroke-width="2" x1="25" x2="94" y1="10.5" y2="10.5" /><path d="M7,91.5 c5.156,-9.315 9.464,-19.845 12.5,-30.5" fill="none" stroke="#000000" stroke-width="2" /><path d="M22,22.5 c-4.127,-4.427 -9.06,-9.209 -14.5,-14" fill="none" stroke="#000000" stroke-width="2" /><path d="M19.5,45.5 c-4.589,-4.819 -9.926,-9.858 -16,-15" fill="none" stroke="#000000" stroke-width="2" /><path d="M73,90 c6.201,0.358 10.413,0.5 12.5,0.5 c5.653,0 6.5,-0.989 6.5,-8 V29.0 h-65.0 v63.0" fill="none" stroke="#000000" stroke-width="2" /><path d="M46.5,15 c-5.718,5.933 -14.023,11.439 -25,16" fill="none" stroke="#000000" stroke-width="2" /><path d="M97.5,31 c-6.753,-5.33 -15.398,-10.909 -25,-16" fill="none" stroke="#000000" stroke-width="2" /><path d="M31,55.5 c9.602,-4.833 18.408,-13.089 23.5,-22" fill="none" stroke="#000000" stroke-width="2" /><path d="M32.5,36 c7.133,4.483 13.477,9.931 22,19" fill="none" stroke="#000000" stroke-width="2" /><path d="M31,81 c9.602,-4.833 18.408,-13.089 23.5,-22" fill="none" stroke="#000000" stroke-width="2" /><path d="M32.5,61.5 c7.133,4.483 13.477,9.931 22,19" fill="none" stroke="#000000" stroke-width="2" /><path d="M63.5,55.5 c9.602,-4.833 18.408,-13.089 23.5,-22" fill="none" stroke="#000000" stroke-width="2" /><path d="M65,36 c7.133,4.483 13.477,9.931 22,19" fill="none" stroke="#000000" stroke-width="2" /><path d="M63.5,81 c9.602,-4.833 18.408,-13.089 23.5,-22" fill="none" stroke="#000000" stroke-width="2" /><path d="M65,61.5 c7.133,4.483 13.477,9.931 22,19" fill="none" stroke="#000000" stroke-width="2" /></svg>