<?xml version='1.0' encoding='utf-8'?>
<svg xmlns="http://www.w3.org/2000/svg" height="100px" version="1.0" viewBox="0 0 100 100" width="100px" x="0px" y="0px">
<line fill="none" stroke="#000000" stroke-width="2" x1="78" x2="78" y1="74" y2="12" /><line fill="none" stroke="#000000" stroke-width="2" x1="71.5" x2="24.5" y1="69.5" y2="69.5" /><line fill="none" stroke="#000000" stroke-width="2" x1="66" x2="34.5" y1="55.5" y2="55.5" /><line fill="none" stroke="#000000" stroke-width="2" x1="49" x2="49" y1="89" y2="55.5" /><path d="M6.5,91.5 c5.156,-9.315 9.464,-19.845 12.5,-30.5" fill="none" stroke="#000000" stroke-width="2" /><path d="M21.5,22.5 c-4.127,-4.427 -9.06,-9.209 -14.5,-14" fill="none" stroke="#000000" stroke-width="2" /><path d="M19,45.5 c-4.589,-4.819 -9.926,-9.858 -16,-15" fill="none" stroke="#000000" stroke-width="2" /><path d="M72.5,55.5 c-8.846,-4.863 -16.221,-9.782 -23.5,-15.8 c-8,7.923 -16.566,14.729 -26.5,20.8" fill="none" stroke="#000000" stroke-width="2" /><path d="M93.5,8 v75.0 c0,7.317 -0.422,8 -4.5,8 c-1.881,0 -4.682,-0.14 -8.5,-0.5" fill="none" stroke="#000000" stroke-width="2" /><path d="M49,37 c5.529,-5.413 9.234,-14.95 9.5,-25.5" fill="none" stroke="#000000" stroke-width="2" /><path d="M48,11.5 h23.0 c-0.458,23.45 -1.758,26.5 -4.5,26.5 c-1.818,0 -6.156,-0.485 -8.5,-1" fill="none" stroke="#000000" stroke-width="2" /><path d="M22.5,43.5 c7.988,-3.008 14.492,-6.806 21.5,-12.5" fill="none" stroke="#000000" stroke-width="2" /><path d="M46.5,6.5 c-6.48,3.614 -12.891,6.349 -20,8.5 l1,26.5" fill="none" stroke="#000000" stroke-width="2" /><path d="M46.5,37 c-2.125,-5.554 -5.284,-12.712 -8,-18" fill="none" stroke="#000000" stroke-width="2" /><path d="M22,92 c19.093,-1.798 34.691,-4.07 52,-7.5" fill="none" stroke="#000000" stroke-width="2" /><path d="M40.5,86.5 c-2.705,-4.694 -5.602,-9.146 -8.5,-13" fill="none" stroke="#000000" stroke-width="2" /><path d="M57,87.5 c3.048,-4.909 5.783,-9.862 8,-14.5" fill="none" stroke="#000000" stroke-width="2" /></svg>