<?xml version='1.0' encoding='utf-8'?>
<svg xmlns="http://www.w3.org/2000/svg" height="100px" version="1.0" viewBox="0 0 100 100" width="100px" x="0px" y="0px">
<line fill="none" stroke="#000000" stroke-width="2" x1="57" x2="57" y1="19" y2="3" /><line fill="none" stroke="#000000" stroke-width="2" x1="32.5" x2="80.5" y1="32" y2="26" /><line fill="none" stroke="#000000" stroke-width="2" x1="57" x2="88" y1="10.5" y2="10.5" /><line fill="none" stroke="#000000" stroke-width="2" x1="63.5" x2="63.5" y1="65" y2="44" /><line fill="none" stroke="#000000" stroke-width="2" x1="38.5" x2="89.5" y1="55" y2="55" /><line fill="none" stroke="#000000" stroke-width="2" x1="34.5" x2="34.5" y1="74" y2="91.5" /><line fill="none" stroke="#000000" stroke-width="2" x1="53.5" x2="53.5" y1="73" y2="90.5" /><line fill="none" stroke="#000000" stroke-width="2" x1="72.5" x2="72.5" y1="73" y2="90.5" /><line fill="none" stroke="#000000" stroke-width="2" x1="28" x2="97.5" y1="91.5" y2="91.5" /><polyline fill="none" points="38.5,66 89.5,66 89.5,44 37.5,44 37.5,67" stroke="#000000" stroke-width="2" /><polyline fill="none" points="91.5,91.5 91.5,73 33.5,73" stroke="#000000" stroke-width="2" /><path d="M7,91.5 c5.156,-9.315 9.464,-19.845 12.5,-30.5" fill="none" stroke="#000000" stroke-width="2" /><path d="M22,22.5 c-4.127,-4.427 -9.06,-9.209 -14.5,-14" fill="none" stroke="#000000" stroke-width="2" /><path d="M19.5,45.5 c-4.589,-4.819 -9.926,-9.858 -16,-15" fill="none" stroke="#000000" stroke-width="2" /><path d="M83,30.5 c4.234,-3.426 7.377,-6.835 10.166,-11.052" fill="none" stroke="#000000" stroke-width="2" /><path d="M20,91 c5.68,-14.112 8.5,-29.671 8.5,-51 v-21.0 h65.5" fill="none" stroke="#000000" stroke-width="2" /><path d="M51.5,19 v13.5 c0,5.37 0.119,5.5 17,5.5 c22.113,0 22.275,-0.132 23,-10.5" fill="none" stroke="#000000" stroke-width="2" /></svg>