<?xml version='1.0' encoding='utf-8'?>
<svg xmlns="http://www.w3.org/2000/svg" height="100px" version="1.0" viewBox="0 0 100 100" width="100px" x="0px" y="0px">
<line fill="none" stroke="#000000" stroke-width="2" x1="24.5" x2="95.5" y1="11.5" y2="11.5" /><line fill="none" stroke="#000000" stroke-width="2" x1="45" x2="45" y1="18" y2="3" /><line fill="none" stroke="#000000" stroke-width="2" x1="76" x2="76" y1="18" y2="3" /><line fill="none" stroke="#000000" stroke-width="2" x1="22.5" x2="97.5" y1="32" y2="32" /><line fill="none" stroke="#000000" stroke-width="2" x1="60.5" x2="60.5" y1="21.5" y2="15" /><line fill="none" stroke="#000000" stroke-width="2" x1="60.5" x2="60.5" y1="94" y2="22.5" /><line fill="none" stroke="#000000" stroke-width="2" x1="91.5" x2="29.5" y1="69" y2="69" /><line fill="none" stroke="#000000" stroke-width="2" x1="91.5" x2="91.5" y1="47" y2="94" /><polyline fill="none" points="31,43 88.5,43 88.5,21.5 31,21.5" stroke="#000000" stroke-width="2" /><polyline fill="none" points="91.5,58.5 73,58.5 73,47" stroke="#000000" stroke-width="2" /><polyline fill="none" points="91.5,79.5 73,79.5 73,93.5" stroke="#000000" stroke-width="2" /><polyline fill="none" points="29.5,58.5 48,58.5 48,47" stroke="#000000" stroke-width="2" /><polyline fill="none" points="28,79.5 48,79.5 48,93.5" stroke="#000000" stroke-width="2" /><path d="M7,91.5 c5.156,-9.315 9.464,-19.845 12.5,-30.5" fill="none" stroke="#000000" stroke-width="2" /><path d="M22,22.5 c-4.127,-4.427 -9.06,-9.209 -14.5,-14" fill="none" stroke="#000000" stroke-width="2" /><path d="M19.5,45.5 c-4.589,-4.819 -9.926,-9.858 -16,-15" fill="none" stroke="#000000" stroke-width="2" /><path d="M21.5,94 c5.034,-6.415 8,-16.317 8,-29.5 V47.0" fill="none" stroke="#000000" stroke-width="2" /></svg>