<?xml version='1.0' encoding='utf-8'?>
<svg xmlns="http://www.w3.org/2000/svg" height="100px" version="1.0" viewBox="0 0 100 100" width="100px" x="0px" y="0px">
<line fill="none" stroke="#000000" stroke-width="2" x1="63" x2="63" y1="53" y2="93.5" /><line fill="none" stroke="#000000" stroke-width="2" x1="63" x2="92.5" y1="87.5" y2="87.5" /><line fill="none" stroke="#000000" stroke-width="2" x1="64" x2="92.5" y1="69.5" y2="69.5" /><line fill="none" stroke="#000000" stroke-width="2" x1="56.5" x2="97" y1="37.5" y2="37.5" /><line fill="none" stroke="#000000" stroke-width="2" x1="91" x2="58.5" y1="17" y2="17" /><line fill="none" stroke="#000000" stroke-width="2" x1="75" x2="75" y1="37.5" y2="4" /><line fill="none" stroke="#000000" stroke-width="2" x1="23.5" x2="57.5" y1="11" y2="11" /><polyline fill="none" points="92.5,93.5 92.5,52.5 63.5,52.5" stroke="#000000" stroke-width="2" /><path d="M7,91.5 c5.156,-9.315 9.464,-19.845 12.5,-30.5" fill="none" stroke="#000000" stroke-width="2" /><path d="M22,22.5 c-4.127,-4.427 -9.06,-9.209 -14.5,-14" fill="none" stroke="#000000" stroke-width="2" /><path d="M19.5,45.5 c-4.589,-4.819 -9.926,-9.858 -16,-15" fill="none" stroke="#000000" stroke-width="2" /><path d="M52.5,61.5 c18.238,-13.35 32.741,-31.204 42.5,-52" fill="none" stroke="#000000" stroke-width="2" /><path d="M22,37 c9.027,-6.9 15.48,-15.303 20,-26" fill="none" stroke="#000000" stroke-width="2" /><path d="M23,58 c8.386,-6.743 14.768,-14.91 19,-24" fill="none" stroke="#000000" stroke-width="2" /><path d="M22,82.5 c11.356,-8.968 19.635,-19.327 25.5,-31.5" fill="none" stroke="#000000" stroke-width="2" /><path d="M55,20 c-3.48,6.329 -7.858,12.222 -12,16.5" fill="none" stroke="#000000" stroke-width="2" /><path d="M44,35.5 c3.79,5.381 8.563,10.137 15,15" fill="none" stroke="#000000" stroke-width="2" /><path d="M30,90.5 c5.118,0.34 9.264,0.5 12,0.5 c4.201,0 7,-4.528 7,-20 c0,-22.177 -4.751,-37.163 -14,-47.5" fill="none" stroke="#000000" stroke-width="2" /></svg>