<?xml version='1.0' encoding='utf-8'?>
<svg xmlns="http://www.w3.org/2000/svg" height="100px" version="1.0" viewBox="0 0 100 100" width="100px" x="0px" y="0px">
<line fill="none" stroke="#000000" stroke-width="2" x1="31.5" x2="78.5" y1="13.5" y2="13.5" /><path d="M77.796,13.79 c-16.25,16.162 -36.942,26.931 -70.796,34.71" fill="none" stroke="#000000" stroke-width="2" /><path d="M8,33.5 c13.577,-8.087 23.534,-17.9 30,-29" fill="none" stroke="#000000" stroke-width="2" /><path d="M61,27.5 c8.142,9.208 17.573,16.347 33,24.5" fill="none" stroke="#000000" stroke-width="2" /><path d="M27,52 c-2.184,6.953 -6.31,13.229 -12.5,19" fill="none" stroke="#000000" stroke-width="2" /><path d="M85.5,52.5 c-3.617,6.728 -9.01,12.717 -16.5,18" fill="none" stroke="#000000" stroke-width="2" /><path d="M7,91 c27.129,-4.905 43,-19.437 43,-35 v-14.0" fill="none" stroke="#000000" stroke-width="2" /><path d="M93,91 c-27.129,-4.904 -43,-19.437 -43,-35" fill="none" stroke="#000000" stroke-width="2" /></svg>