<?xml version='1.0' encoding='utf-8'?>
<svg xmlns="http://www.w3.org/2000/svg" height="100px" version="1.0" viewBox="0 0 100 100" width="100px" x="0px" y="0px">
<line fill="none" stroke="#000000" stroke-width="2" x1="89" x2="11" y1="47" y2="47" /><line fill="none" stroke="#000000" stroke-width="2" x1="50" x2="50" y1="13.5" y2="3" /><line fill="none" stroke="#000000" stroke-width="2" x1="6" x2="94" y1="13.5" y2="13.5" /><polyline fill="none" points="20,38.5 81,38.5 81,22 19,22 19,39.5" stroke="#000000" stroke-width="2" /><path d="M92.5,92 c-4.201,-6.038 -9.068,-12.229 -15,-19" fill="none" stroke="#000000" stroke-width="2" /><path d="M67,92.25 c-2.518,-5.955 -5.578,-12.132 -9.5,-19" fill="none" stroke="#000000" stroke-width="2" /><path d="M41.5,92.5 c-0.834,-5.872 -2.088,-12.033 -4,-19" fill="none" stroke="#000000" stroke-width="2" /><path d="M7.5,92 c5.269,-5.368 10.214,-11.575 15,-19" fill="none" stroke="#000000" stroke-width="2" /><path d="M51,56 v5.0 c0,5.672 -0.832,6.5 -8,6.5 c-4,0 -9.544,-0.169 -15.5,-0.5" fill="none" stroke="#000000" stroke-width="2" /><path d="M88.637,47.068 c-11.203,4.365 -22.498,7.422 -37.637,9.932" fill="none" stroke="#000000" stroke-width="2" /></svg>