<?xml version='1.0' encoding='utf-8'?>
<svg xmlns="http://www.w3.org/2000/svg" height="100px" version="1.0" viewBox="0 0 100 100" width="100px" x="0px" y="0px">
<line fill="none" stroke="#000000" stroke-width="2" x1="7" x2="93" y1="37.5" y2="37.5" /><line fill="none" stroke="#000000" stroke-width="2" x1="10" x2="90" y1="10.5" y2="10.5" /><line fill="none" stroke="#000000" stroke-width="2" x1="85" x2="50" y1="23.5" y2="23.5" /><line fill="none" stroke="#000000" stroke-width="2" x1="50" x2="50" y1="37.5" y2="10.5" /><line fill="none" stroke="#000000" stroke-width="2" x1="26" x2="26" y1="37.5" y2="17" /><line fill="none" stroke="#000000" stroke-width="2" x1="24" x2="88" y1="50.5" y2="50.5" /><path d="M76,82.5 c-2.305,-4.021 -4.893,-8.256 -8,-13" fill="none" stroke="#000000" stroke-width="2" /><path d="M55,86.5 c-1.569,-4.946 -3.49,-10.145 -6,-16" fill="none" stroke="#000000" stroke-width="2" /><path d="M34,90.5 c-0.834,-5.872 -2.088,-12.033 -4,-19" fill="none" stroke="#000000" stroke-width="2" /><path d="M6,93 c3.813,-6.483 7.107,-13.652 10,-22" fill="none" stroke="#000000" stroke-width="2" /><path d="M30,37.5 l-12,26.5 h71.0 c0,22.716 -3.737,28 -10.5,28 c-3.191,0 -7.766,-0.321 -13.5,-1" fill="none" stroke="#000000" stroke-width="2" /></svg>