<?xml version='1.0' encoding='utf-8'?>
<svg xmlns="http://www.w3.org/2000/svg" height="100px" version="1.0" viewBox="0 0 100 100" width="100px" x="0px" y="0px">
<line fill="none" stroke="#000000" stroke-width="2" x1="60" x2="60" y1="19" y2="3" /><line fill="none" stroke="#000000" stroke-width="2" x1="60" x2="89.5" y1="10.5" y2="10.5" /><line fill="none" stroke="#000000" stroke-width="2" x1="37.5" x2="82.5" y1="32" y2="26" /><line fill="none" stroke="#000000" stroke-width="2" x1="65.5" x2="65.5" y1="65" y2="44" /><line fill="none" stroke="#000000" stroke-width="2" x1="42" x2="90" y1="55" y2="55" /><line fill="none" stroke="#000000" stroke-width="2" x1="38" x2="38" y1="74" y2="91.5" /><line fill="none" stroke="#000000" stroke-width="2" x1="56" x2="56" y1="73" y2="90.5" /><line fill="none" stroke="#000000" stroke-width="2" x1="74" x2="74" y1="73" y2="90.5" /><line fill="none" stroke="#000000" stroke-width="2" x1="31.5" x2="97.5" y1="91.5" y2="91.5" /><polyline fill="none" points="42,66 90,66 90,44 41,44 41,67" stroke="#000000" stroke-width="2" /><polyline fill="none" points="92,91.5 92,73 37,73" stroke="#000000" stroke-width="2" /><path d="M29,78.5 c-2.977,-8.073 -7.473,-17.312 -12,-24.5" fill="none" stroke="#000000" stroke-width="2" /><path d="M9,20 c0,13.128 -1.453,24.476 -4,33.5" fill="none" stroke="#000000" stroke-width="2" /><path d="M30.5,27 c-4.057,6.208 -8.38,11.515 -12.5,15.5" fill="none" stroke="#000000" stroke-width="2" /><path d="M4.5,91 c7.869,-10.161 13.5,-30.425 13.5,-56 v-28.0" fill="none" stroke="#000000" stroke-width="2" /><path d="M25,91 c5.381,-14.112 8,-29.671 8,-51 v-21.0 h62.0" fill="none" stroke="#000000" stroke-width="2" /><path d="M84.5,30.5 c4.021,-3.42 7.004,-6.823 9.654,-11.033" fill="none" stroke="#000000" stroke-width="2" /><path d="M55,19 v13.5 c0,5.37 0.156,5.5 16,5.5 c21.176,0 21.312,-0.132 22,-10.5" fill="none" stroke="#000000" stroke-width="2" /></svg>