<?xml version='1.0' encoding='utf-8'?>
<svg xmlns="http://www.w3.org/2000/svg" height="100px" version="1.0" viewBox="0 0 100 100" width="100px" x="0px" y="0px">
<line fill="none" stroke="#000000" stroke-width="2" x1="32" x2="96" y1="18" y2="18" /><line fill="none" stroke="#000000" stroke-width="2" x1="65" x2="65" y1="18" y2="4" /><path d="M12,8 c9.348,15.786 14,33.95 14,56.5 c0,19.396 -4.178,26.5 -8.5,26.5 c-2.443,0 -6.626,-0.706 -11,-2" fill="none" stroke="#000000" stroke-width="2" /><path d="M33,6 c-7.71,10.59 -17.906,19.975 -29,26.5" fill="none" stroke="#000000" stroke-width="2" /><path d="M24.5,44 c-5.32,7.003 -12.523,13.385 -20.5,18" fill="none" stroke="#000000" stroke-width="2" /><path d="M31.5,92 c29.549,-10.23 42.875,-22.761 52,-47" fill="none" stroke="#000000" stroke-width="2" /><path d="M96.5,92 c-27.993,-9.854 -40.689,-21.858 -50,-47" fill="none" stroke="#000000" stroke-width="2" /><path d="M54,23 c-4.236,8.748 -11.152,17.254 -20.5,25" fill="none" stroke="#000000" stroke-width="2" /><path d="M95.5,48.5 c-5.432,-8.309 -12.319,-16.972 -20,-25" fill="none" stroke="#000000" stroke-width="2" /></svg>