<?xml version='1.0' encoding='utf-8'?>
<svg xmlns="http://www.w3.org/2000/svg" height="100px" version="1.0" viewBox="0 0 100 100" width="100px" x="0px" y="0px">
<line fill="none" stroke="#000000" stroke-width="2" x1="31" x2="95" y1="54.5" y2="54.5" /><line fill="none" stroke="#000000" stroke-width="2" x1="43" x2="43" y1="89.5" y2="54.5" /><line fill="none" stroke="#000000" stroke-width="2" x1="63.5" x2="63.5" y1="11" y2="43.5" /><line fill="none" stroke="#000000" stroke-width="2" x1="38" x2="90" y1="26.5" y2="26.5" /><polyline fill="none" points="38,43.5 90,43.5 90,10 37,10 37,44.5" stroke="#000000" stroke-width="2" /><path d="M12,8 c9.348,15.786 14,33.95 14,56.5 c0,19.396 -4.178,26.5 -8.5,26.5 c-2.443,0 -6.626,-0.706 -11,-2" fill="none" stroke="#000000" stroke-width="2" /><path d="M33,6 c-7.71,10.59 -17.906,19.975 -29,26.5" fill="none" stroke="#000000" stroke-width="2" /><path d="M24.5,44 c-5.32,7.003 -12.523,13.385 -20.5,18" fill="none" stroke="#000000" stroke-width="2" /><path d="M60.5,54.5 c6.059,17.247 19.647,31.551 36,38" fill="none" stroke="#000000" stroke-width="2" /><path d="M28.5,92.5 c13.629,-2.38 25.426,-5.523 39.5,-10.5" fill="none" stroke="#000000" stroke-width="2" /><path d="M73.5,76 c6.41,-4.646 12.216,-10.325 17,-16.5" fill="none" stroke="#000000" stroke-width="2" /></svg>