<?xml version='1.0' encoding='utf-8'?>
<svg xmlns="http://www.w3.org/2000/svg" height="100px" version="1.0" viewBox="0 0 100 100" width="100px" x="0px" y="0px">
<line fill="none" stroke="#000000" stroke-width="2" x1="9.5" x2="49.5" y1="71.5" y2="71.5" /><line fill="none" stroke="#000000" stroke-width="2" x1="5" x2="53" y1="18" y2="18" /><line fill="none" stroke="#000000" stroke-width="2" x1="96.5" x2="52.5" y1="29" y2="29" /><polyline fill="none" points="9.5,86.5 49.5,86.5 49.5,32 8.5,32 8.5,93" stroke="#000000" stroke-width="2" /><path d="M22.5,19 v14.0 c0,18.968 -2.443,24.431 -11,31" fill="none" stroke="#000000" stroke-width="2" /><path d="M34.5,19 v29.5 c0,7.378 0.619,8 5.5,8 h8.5" fill="none" stroke="#000000" stroke-width="2" /><path d="M22.5,18 c-2.401,-4.438 -4.994,-8.795 -7.5,-12.5" fill="none" stroke="#000000" stroke-width="2" /><path d="M34.5,18 c2.834,-4.119 5.518,-8.616 7.5,-12.5" fill="none" stroke="#000000" stroke-width="2" /><path d="M82,5 c4.123,5.938 7.605,11.413 11.5,18" fill="none" stroke="#000000" stroke-width="2" /><path d="M52.5,91 c13.178,-12.927 22,-36.344 22,-62 v-22.0" fill="none" stroke="#000000" stroke-width="2" /><path d="M96.5,91 c-13.178,-12.927 -22,-36.343 -22,-62" fill="none" stroke="#000000" stroke-width="2" /></svg>