<?xml version='1.0' encoding='utf-8'?>
<svg xmlns="http://www.w3.org/2000/svg" height="100px" version="1.0" viewBox="0 0 100 100" width="100px" x="0px" y="0px">
<line fill="none" stroke="#000000" stroke-width="2" x1="32" x2="4" y1="12.5" y2="12.5" /><line fill="none" stroke="#000000" stroke-width="2" x1="30" x2="5" y1="43.5" y2="43.5" /><line fill="none" stroke="#000000" stroke-width="2" x1="18.5" x2="18.5" y1="80.5" y2="12.5" /><line fill="none" stroke="#000000" stroke-width="2" x1="52" x2="95" y1="46" y2="46" /><line fill="none" stroke="#000000" stroke-width="2" x1="92" x2="55" y1="20" y2="20" /><line fill="none" stroke="#000000" stroke-width="2" x1="73.5" x2="73.5" y1="46" y2="6" /><path d="M4,85 c9.039,-2.672 16.906,-5.423 27,-9.5" fill="none" stroke="#000000" stroke-width="2" /><path d="M33.5,91.5 c7.072,-9.315 12.963,-19.819 17,-30.5" fill="none" stroke="#000000" stroke-width="2" /><path d="M50.5,22.5 c-4.266,-4.456 -9.333,-9.209 -15,-14" fill="none" stroke="#000000" stroke-width="2" /><path d="M47.5,45.5 c-4.576,-4.899 -9.83,-9.858 -16,-15" fill="none" stroke="#000000" stroke-width="2" /><path d="M94.5,92 c-3.316,-10.136 -8.148,-22.747 -12.5,-32.5" fill="none" stroke="#000000" stroke-width="2" /><path d="M50.5,89 c12.242,-0.739 26.617,-3.201 40.5,-7" fill="none" stroke="#000000" stroke-width="2" /><path d="M61,88 c3.53,-12.036 7.036,-26.597 10,-42" fill="none" stroke="#000000" stroke-width="2" /></svg>