<?xml version='1.0' encoding='utf-8'?>
<svg xmlns="http://www.w3.org/2000/svg" height="100px" version="1.0" viewBox="0 0 100 100" width="100px" x="0px" y="0px">
<line fill="none" stroke="#000000" stroke-width="2" x1="45" x2="77.5" y1="23" y2="23" /><line fill="none" stroke="#000000" stroke-width="2" x1="26.5" x2="3.5" y1="12.5" y2="12.5" /><line fill="none" stroke="#000000" stroke-width="2" x1="26.5" x2="4.5" y1="45" y2="45" /><line fill="none" stroke="#000000" stroke-width="2" x1="16" x2="16" y1="81.5" y2="12.5" /><path d="M61.5,6 c-10.907,9.603 -22.664,17.737 -36.5,25" fill="none" stroke="#000000" stroke-width="2" /><path d="M31,92 v-58.0 h26.5 v48.5 c0,7.474 -0.5,8 -5,8 c-1.472,0 -4.734,-0.159 -9.5,-0.5" fill="none" stroke="#000000" stroke-width="2" /><path d="M76,32.5 c-3.521,11.123 -7.23,19.182 -12.5,28 c5.957,9.645 9.854,19.074 13,31.5" fill="none" stroke="#000000" stroke-width="2" /><path d="M93.5,32.5 c-3.521,11.123 -7.23,19.182 -12.5,28 c5.957,9.645 9.854,19.074 13,31.5" fill="none" stroke="#000000" stroke-width="2" /><path d="M35,6 h26.5 c10.906,9.603 22.307,17.474 36,25" fill="none" stroke="#000000" stroke-width="2" /><path d="M52,55 c-5.117,-4.146 -10.453,-7.96 -15.5,-11" fill="none" stroke="#000000" stroke-width="2" /><path d="M52,74 c-5.117,-4.146 -10.453,-7.96 -15.5,-11" fill="none" stroke="#000000" stroke-width="2" /><path d="M3.5,86 c7.867,-2.672 14.715,-5.423 23.5,-9.5" fill="none" stroke="#000000" stroke-width="2" /></svg>