<?xml version='1.0' encoding='utf-8'?>
<svg xmlns="http://www.w3.org/2000/svg" height="100px" version="1.0" viewBox="0 0 100 100" width="100px" x="0px" y="0px">
<line fill="none" stroke="#000000" stroke-width="2" x1="35.5" x2="61.5" y1="35" y2="35" /><line fill="none" stroke="#000000" stroke-width="2" x1="48" x2="48" y1="5" y2="17" /><line fill="none" stroke="#000000" stroke-width="2" x1="29" x2="3.5" y1="12.5" y2="12.5" /><line fill="none" stroke="#000000" stroke-width="2" x1="28.5" x2="4.5" y1="45" y2="45" /><line fill="none" stroke="#000000" stroke-width="2" x1="17" x2="17" y1="81.5" y2="12.5" /><polyline fill="none" points="96,10 70.5,10 70.5,94" stroke="#000000" stroke-width="2" /><polyline fill="none" points="35.5,54.5 61.5,54.5 61.5,17 34.5,17 34.5,87.5" stroke="#000000" stroke-width="2" /><path d="M77,81 h5.0 c9.122,0 13.5,-4.097 13.5,-13 c0,-10.243 -4.936,-20.204 -14,-27.5 c5.289,-9.574 10.037,-20.04 13.559,-29.838" fill="none" stroke="#000000" stroke-width="2" /><path d="M27,89.5 c10.813,-2.622 20.439,-6.126 31.5,-11.5" fill="none" stroke="#000000" stroke-width="2" /><path d="M65.5,89.5 c-4.98,-8.849 -12.209,-19.52 -19,-28" fill="none" stroke="#000000" stroke-width="2" /><path d="M3.5,86 c8.536,-2.672 15.968,-5.423 25.5,-9.5" fill="none" stroke="#000000" stroke-width="2" /><path d="M55,73 c4.016,-3.746 7.791,-8.085 10.5,-12" fill="none" stroke="#000000" stroke-width="2" /></svg>