<?xml version='1.0' encoding='utf-8'?>
<svg xmlns="http://www.w3.org/2000/svg" height="100px" version="1.0" viewBox="0 0 100 100" width="100px" x="0px" y="0px">
<line fill="none" stroke="#000000" stroke-width="2" x1="41.5" x2="90.5" y1="28.5" y2="28.5" /><line fill="none" stroke="#000000" stroke-width="2" x1="11" x2="36" y1="23.5" y2="23.5" /><line fill="none" stroke="#000000" stroke-width="2" x1="8.5" x2="36" y1="50.5" y2="50.5" /><line fill="none" stroke="#000000" stroke-width="2" x1="23" x2="23" y1="81" y2="6" /><polyline fill="none" points="41.5,47.5 90.5,47.5 90.5,10.5 40.5,10.5 40.5,48.5" stroke="#000000" stroke-width="2" /><path d="M35,59.5 h59.0 c-0.791,27.472 -3.222,31 -10.5,31 c-3.975,0 -9.859,-0.321 -17,-1" fill="none" stroke="#000000" stroke-width="2" /><path d="M34,92 c20.031,-9.347 31.5,-25.923 31.5,-45.5 v-35.0" fill="none" stroke="#000000" stroke-width="2" /><path d="M4,86.5 c11.193,-2.858 23.23,-6.763 34,-11" fill="none" stroke="#000000" stroke-width="2" /><path d="M4,46 c4.318,-9.923 7.531,-22.423 9,-36" fill="none" stroke="#000000" stroke-width="2" /></svg>