<?xml version='1.0' encoding='utf-8'?>
<svg xmlns="http://www.w3.org/2000/svg" height="100px" version="1.0" viewBox="0 0 100 100" width="100px" x="0px" y="0px">
<line fill="none" stroke="#000000" stroke-width="2" x1="56.5" x2="56.5" y1="12.5" y2="3" /><line fill="none" stroke="#000000" stroke-width="2" x1="33.5" x2="90.5" y1="40" y2="40" /><line fill="none" stroke="#000000" stroke-width="2" x1="94" x2="22.5" y1="75" y2="75" /><line fill="none" stroke="#000000" stroke-width="2" x1="68" x2="68" y1="61" y2="94.5" /><polyline fill="none" points="33.5,57.5 90.5,57.5 90.5,23 32.5,23 32.5,58.5" stroke="#000000" stroke-width="2" /><path d="M7,91 c8.727,-9.241 12.5,-20.743 12.5,-47 v-30.5 h75.0" fill="none" stroke="#000000" stroke-width="2" /><path d="M2.5,67 c6.793,-3.015 12.445,-6.519 16.5,-10" fill="none" stroke="#000000" stroke-width="2" /><path d="M15.5,41 c-2.875,-5.722 -6.672,-12.311 -11,-19" fill="none" stroke="#000000" stroke-width="2" /><path d="M51.5,23 c2.834,-3.13 5.518,-6.548 7.5,-9.5" fill="none" stroke="#000000" stroke-width="2" /><path d="M61.5,23 v16.5 c0,17.505 -8.945,26.804 -30.5,31.5" fill="none" stroke="#000000" stroke-width="2" /></svg>