<?xml version='1.0' encoding='utf-8'?>
<svg xmlns="http://www.w3.org/2000/svg" height="100px" version="1.0" viewBox="0 0 100 100" width="100px" x="0px" y="0px">
<line fill="none" stroke="#000000" stroke-width="2" x1="9" x2="9" y1="19" y2="91.5" /><line fill="none" stroke="#000000" stroke-width="2" x1="10" x2="31.5" y1="50.5" y2="50.5" /><line fill="none" stroke="#000000" stroke-width="2" x1="66" x2="66" y1="18" y2="4" /><line fill="none" stroke="#000000" stroke-width="2" x1="35.5" x2="96" y1="18" y2="18" /><polyline fill="none" points="9,82.5 31.5,82.5 31.5,20 10,20" stroke="#000000" stroke-width="2" /><path d="M23,5 c-1.357,5.532 -3.001,10.408 -5,15" fill="none" stroke="#000000" stroke-width="2" /><path d="M56,23 c-4.236,8.748 -11.152,17.254 -20.5,25" fill="none" stroke="#000000" stroke-width="2" /><path d="M95.5,48.5 c-5.432,-8.309 -12.319,-16.972 -20,-25" fill="none" stroke="#000000" stroke-width="2" /><path d="M33.5,92 c28.002,-10.083 41.062,-22.307 50,-47" fill="none" stroke="#000000" stroke-width="2" /><path d="M96.5,92 c-26.873,-9.854 -39.062,-21.858 -48,-47" fill="none" stroke="#000000" stroke-width="2" /></svg>