<?xml version='1.0' encoding='utf-8'?>
<svg xmlns="http://www.w3.org/2000/svg" height="100px" version="1.0" viewBox="0 0 100 100" width="100px" x="0px" y="0px">
<line fill="none" stroke="#000000" stroke-width="2" x1="10.5" x2="32.5" y1="50.5" y2="50.5" /><line fill="none" stroke="#000000" stroke-width="2" x1="67" x2="67" y1="24.5" y2="5" /><line fill="none" stroke="#000000" stroke-width="2" x1="35" x2="96.5" y1="89.5" y2="89.5" /><line fill="none" stroke="#000000" stroke-width="2" x1="38" x2="96" y1="36.5" y2="36.5" /><polyline fill="none" points="10.5,82.5 33.5,82.5 33.5,20 9.5,20 9.5,91.5" stroke="#000000" stroke-width="2" /><polyline fill="none" points="42,8.5 42,24.5 92,24.5 92,8.5" stroke="#000000" stroke-width="2" /><polyline fill="none" points="43.5,68 43.5,48.5 89.5,48.5 89.5,67 44.5,67" stroke="#000000" stroke-width="2" /><path d="M24,5 c-1.357,5.532 -3.001,10.408 -5,15" fill="none" stroke="#000000" stroke-width="2" /><path d="M74.5,89.5 c3.615,-6.655 6.672,-14.324 9,-22.5" fill="none" stroke="#000000" stroke-width="2" /><path d="M56,89.5 c-1.797,-7.437 -4.049,-15.286 -6.5,-22.5" fill="none" stroke="#000000" stroke-width="2" /></svg>