<?xml version='1.0' encoding='utf-8'?>
<svg xmlns="http://www.w3.org/2000/svg" height="100px" version="1.0" viewBox="0 0 100 100" width="100px" x="0px" y="0px">
<line fill="none" stroke="#000000" stroke-width="2" x1="8.5" x2="45" y1="39.5" y2="39.5" /><line fill="none" stroke="#000000" stroke-width="2" x1="27.5" x2="27.5" y1="39.5" y2="5.5" /><polyline fill="none" points="52,54.5 81.5,54.5 81.5,28.5 53,28.5" stroke="#000000" stroke-width="2" /><path d="M40.5,33.5 c2.537,-4.967 4.426,-9.986 6.029,-16.248" fill="none" stroke="#000000" stroke-width="2" /><path d="M8,91.5 c16.463,-7.008 30.439,-24.906 36.022,-51.208" fill="none" stroke="#000000" stroke-width="2" /><path d="M48,84.5 c-16.938,-9.451 -27.196,-21.731 -33,-40" fill="none" stroke="#000000" stroke-width="2" /><path d="M2.5,89 c3.994,-13.696 6,-29.448 6,-51 v-21.5 h39.0" fill="none" stroke="#000000" stroke-width="2" /><path d="M86,62 c-2.523,0 -6.672,-0.167 -11,-0.5" fill="none" stroke="#000000" stroke-width="2" /><path d="M55.5,15 h38.0 c-1.432,42.487 -3.448,47 -7.5,47" fill="none" stroke="#000000" stroke-width="2" /><path d="M46,36.5 c5.441,-9.436 9.98,-21.373 12.5,-33.5" fill="none" stroke="#000000" stroke-width="2" /><path d="M96,66.5 c-2.187,24.755 -2.464,25 -22.783,25 c-20.916,0 -21.217,-0.234 -21.217,-12 v-52.0" fill="none" stroke="#000000" stroke-width="2" /></svg>