<?xml version='1.0' encoding='utf-8'?>
<svg xmlns="http://www.w3.org/2000/svg" height="100px" version="1.0" viewBox="0 0 100 100" width="100px" x="0px" y="0px">
<line fill="none" stroke="#000000" stroke-width="2" x1="39" x2="39" y1="64.5" y2="89" /><line fill="none" stroke="#000000" stroke-width="2" x1="61" x2="61" y1="64.5" y2="89" /><line fill="none" stroke="#000000" stroke-width="2" x1="6" x2="94" y1="90" y2="90" /><line fill="none" stroke="#000000" stroke-width="2" x1="30" x2="63" y1="26.5" y2="26.5" /><polyline fill="none" points="83,89 83,63.5 17,63.5 17,89" stroke="#000000" stroke-width="2" /><path d="M7,59 c15.219,-8.076 23.855,-23.972 25,-49" fill="none" stroke="#000000" stroke-width="2" /><path d="M10,10 h60.0 c-0.918,4.908 -2.267,11.296 -3.5,16.5 h24.5 c-1.379,25.753 -3.391,29 -8,29 c-2.822,0 -6.761,-0.317 -10.5,-1" fill="none" stroke="#000000" stroke-width="2" /><path d="M23.5,56.5 c19.937,-5.267 31.447,-14.595 38.599,-29.435" fill="none" stroke="#000000" stroke-width="2" /><path d="M63.5,55.5 c-7.986,-6.988 -19.234,-15.183 -30.5,-22" fill="none" stroke="#000000" stroke-width="2" /></svg>