<?xml version='1.0' encoding='utf-8'?>
<svg xmlns="http://www.w3.org/2000/svg" height="100px" version="1.0" viewBox="0 0 100 100" width="100px" x="0px" y="0px">
<line fill="none" stroke="#000000" stroke-width="2" x1="68" x2="89.5" y1="30" y2="30" /><line fill="none" stroke="#000000" stroke-width="2" x1="37.5" x2="59" y1="30" y2="30" /><line fill="none" stroke="#000000" stroke-width="2" x1="9.5" x2="29.5" y1="58.5" y2="58.5" /><line fill="none" stroke="#000000" stroke-width="2" x1="9.5" x2="29.5" y1="35" y2="35" /><polyline fill="none" points="9.5,82.5 29.5,82.5 29.5,12 8.5,12 8.5,90.5" stroke="#000000" stroke-width="2" /><path d="M70.5,50 v36.5 c0,4.62 0.484,5 10,5 c12.813,0 13.024,-0.205 14,-22.5" fill="none" stroke="#000000" stroke-width="2" /><path d="M28.5,93 c15.09,-6.232 25,-21.435 25,-43" fill="none" stroke="#000000" stroke-width="2" /><path d="M66,10.5 h23.5 v39.5 h-52.0 v-37.0 c7.795,-1.953 14.867,-5.012 21,-9" fill="none" stroke="#000000" stroke-width="2" /></svg>