<?xml version='1.0' encoding='utf-8'?>
<svg xmlns="http://www.w3.org/2000/svg" height="100px" version="1.0" viewBox="0 0 100 100" width="100px" x="0px" y="0px">
<line fill="none" stroke="#000000" stroke-width="2" x1="41" x2="15" y1="16" y2="16" /><line fill="none" stroke="#000000" stroke-width="2" x1="42" x2="5" y1="44" y2="44" /><line fill="none" stroke="#000000" stroke-width="2" x1="90.5" x2="90.5" y1="93" y2="7" /><path d="M6,38 c5.182,-9.372 9.429,-21.253 12,-34" fill="none" stroke="#000000" stroke-width="2" /><path d="M5.5,90 c11.652,-8.756 20,-27.479 20,-48.5 V16.0" fill="none" stroke="#000000" stroke-width="2" /><path d="M44,81.5 c-5.744,-10.022 -12.361,-20.79 -19,-31" fill="none" stroke="#000000" stroke-width="2" /><path d="M45.5,11 h28.5 v23.0 h-25.5 c-0.637,11.548 -1.652,22.362 -3,32" fill="none" stroke="#000000" stroke-width="2" /><path d="M47,56.5 h27.0 c-2.152,33.055 -3.082,34 -11.5,34 c-2.577,0 -10.963,-0.507 -16,-1" fill="none" stroke="#000000" stroke-width="2" /></svg>