<?xml version='1.0' encoding='utf-8'?>
<svg xmlns="http://www.w3.org/2000/svg" height="100px" version="1.0" viewBox="0 0 100 100" width="100px" x="0px" y="0px">
<line fill="none" stroke="#000000" stroke-width="2" x1="38" x2="6" y1="11" y2="11" /><line fill="none" stroke="#000000" stroke-width="2" x1="68" x2="68" y1="16" y2="3" /><polyline fill="none" points="15,81 34,81 34,42.5 14,42.5 14,91" stroke="#000000" stroke-width="2" /><path d="M3,63 c8.673,-11.171 14.006,-26.27 16.5,-52" fill="none" stroke="#000000" stroke-width="2" /><path d="M96,92 c-4.605,-11.451 -11.156,-25.827 -17,-37" fill="none" stroke="#000000" stroke-width="2" /><path d="M43.5,89 c14.436,-0.856 31.611,-3.71 48,-8" fill="none" stroke="#000000" stroke-width="2" /><path d="M52,88.5 c5.196,-18.077 10.575,-39.798 15.5,-62.5" fill="none" stroke="#000000" stroke-width="2" /><path d="M35,92 c6.048,-14.052 9,-29.832 9,-51 v-24.0 h51.0" fill="none" stroke="#000000" stroke-width="2" /></svg>