<?xml version='1.0' encoding='utf-8'?>
<svg xmlns="http://www.w3.org/2000/svg" height="100px" version="1.0" viewBox="0 0 100 100" width="100px" x="0px" y="0px">
<line fill="none" stroke="#000000" stroke-width="2" x1="40.5" x2="6" y1="11" y2="11" /><line fill="none" stroke="#000000" stroke-width="2" x1="48" x2="89" y1="43" y2="43" /><line fill="none" stroke="#000000" stroke-width="2" x1="48" x2="89" y1="26.5" y2="26.5" /><polyline fill="none" points="15,81 38,81 38,42.5 14,42.5 14,91" stroke="#000000" stroke-width="2" /><polyline fill="none" points="48,60.5 89,60.5 89,10.5 47,10.5 47,61.5" stroke="#000000" stroke-width="2" /><path d="M3,63 c8.673,-11.171 14.006,-26.27 16.5,-52" fill="none" stroke="#000000" stroke-width="2" /><path d="M73.5,60.5 v25.0 c0,4.802 0.227,5 9,5 c11.464,0 11.638,-0.136 12.5,-22.5" fill="none" stroke="#000000" stroke-width="2" /><path d="M36.5,92 c15.305,-6.038 24,-17.696 24,-31.5" fill="none" stroke="#000000" stroke-width="2" /></svg>