<?xml version='1.0' encoding='utf-8'?>
<svg xmlns="http://www.w3.org/2000/svg" height="100px" version="1.0" viewBox="0 0 100 100" width="100px" x="0px" y="0px">
<line fill="none" stroke="#000000" stroke-width="2" x1="36" x2="5.5" y1="11" y2="11" /><line fill="none" stroke="#000000" stroke-width="2" x1="67.5" x2="67.5" y1="24.5" y2="5" /><line fill="none" stroke="#000000" stroke-width="2" x1="35.5" x2="97" y1="89.5" y2="89.5" /><line fill="none" stroke="#000000" stroke-width="2" x1="38.5" x2="96.5" y1="36.5" y2="36.5" /><polyline fill="none" points="14.5,83 33,83 33,42.5 13.5,42.5 13.5,93" stroke="#000000" stroke-width="2" /><polyline fill="none" points="42.5,8.5 42.5,24.5 92.5,24.5 92.5,8.5" stroke="#000000" stroke-width="2" /><polyline fill="none" points="44,68 44,48.5 90,48.5 90,67 45,67" stroke="#000000" stroke-width="2" /><path d="M2.5,63 c8.673,-11.171 14.006,-26.27 16.5,-52" fill="none" stroke="#000000" stroke-width="2" /><path d="M75,89.5 c3.615,-6.655 6.672,-14.324 9,-22.5" fill="none" stroke="#000000" stroke-width="2" /><path d="M56.5,89.5 c-1.797,-7.437 -4.049,-15.286 -6.5,-22.5" fill="none" stroke="#000000" stroke-width="2" /></svg>