<?xml version='1.0' encoding='utf-8'?>
<svg xmlns="http://www.w3.org/2000/svg" height="100px" version="1.0" viewBox="0 0 100 100" width="100px" x="0px" y="0px">
<line fill="none" stroke="#000000" stroke-width="2" x1="50.5" x2="91.5" y1="28.5" y2="28.5" /><line fill="none" stroke="#000000" stroke-width="2" x1="8.5" x2="48.5" y1="20" y2="20" /><line fill="none" stroke="#000000" stroke-width="2" x1="51.5" x2="5.5" y1="11" y2="11" /><line fill="none" stroke="#000000" stroke-width="2" x1="28.5" x2="28.5" y1="20" y2="5" /><line fill="none" stroke="#000000" stroke-width="2" x1="28.5" x2="28.5" y1="27.5" y2="40.5" /><line fill="none" stroke="#000000" stroke-width="2" x1="94" x2="12" y1="56" y2="56" /><line fill="none" stroke="#000000" stroke-width="2" x1="23" x2="23" y1="94.5" y2="69.5" /><line fill="none" stroke="#000000" stroke-width="2" x1="23" x2="85" y1="89.5" y2="89.5" /><polyline fill="none" points="23.5,69 85,69 85,94.5" stroke="#000000" stroke-width="2" /><path d="M50.48,24.979 c5.697,-2.676 8.5,-6.994 8.5,-14 v-3.0 h24.0 v13.0 c0,1.99 0.841,2.5 5,2.5 c7.25,0 7.514,-0.227 8,-7.5" fill="none" stroke="#000000" stroke-width="2" /><path d="M47.5,50 c22.303,-4.634 34.684,-11.171 43.24,-21.15" fill="none" stroke="#000000" stroke-width="2" /><path d="M95.5,50.5 c-15.96,-4.156 -30.008,-11.271 -38.5,-19" fill="none" stroke="#000000" stroke-width="2" /><path d="M6,58.8 c3.537,-5.176 5.5,-12.727 5.5,-23.3 v-8.0 h34.0 v14.0 h-34.0" fill="none" stroke="#000000" stroke-width="2" /><path d="M5,80 c13.183,-5.558 24.515,-14.493 31,-24" fill="none" stroke="#000000" stroke-width="2" /></svg>