<?xml version='1.0' encoding='utf-8'?>
<svg xmlns="http://www.w3.org/2000/svg" height="100px" version="1.0" viewBox="0 0 100 100" width="100px" x="0px" y="0px">
<line fill="none" stroke="#000000" stroke-width="2" x1="47.5" x2="47.5" y1="10.5" y2="46.5" /><line fill="none" stroke="#000000" stroke-width="2" x1="31.5" x2="31.5" y1="28" y2="48" /><line fill="none" stroke="#000000" stroke-width="2" x1="67" x2="47.5" y1="34" y2="34" /><line fill="none" stroke="#000000" stroke-width="2" x1="69" x2="27" y1="23.5" y2="23.5" /><line fill="none" stroke="#000000" stroke-width="2" x1="67" x2="35.5" y1="10.5" y2="10.5" /><line fill="none" stroke="#000000" stroke-width="2" x1="15" x2="15" y1="51.5" y2="28.5" /><line fill="none" stroke="#000000" stroke-width="2" x1="92" x2="8" y1="66.5" y2="66.5" /><line fill="none" stroke="#000000" stroke-width="2" x1="84" x2="16" y1="55.5" y2="55.5" /><path d="M22.5,49 c19.582,-1.821 36.469,-4.071 46.5,-6" fill="none" stroke="#000000" stroke-width="2" /><path d="M40.5,4 c-2.662,4.839 -7.832,10.108 -14,14" fill="none" stroke="#000000" stroke-width="2" /><path d="M74,51.5 v-44.0 h19.0 v33.0 c0,3.509 -1.009,4.5 -5,4.5 h-8.5" fill="none" stroke="#000000" stroke-width="2" /><path d="M25,20 c-5.643,6.116 -13.09,11.301 -22,15" fill="none" stroke="#000000" stroke-width="2" /><path d="M26,4.5 c-5.519,5.015 -12.73,9.251 -22,12.5" fill="none" stroke="#000000" stroke-width="2" /><path d="M51,66.5 v21.804 c0,3.277 -0.674,3.696 -7,3.696 c-2.85,0 -7.088,-0.153 -13,-0.5" fill="none" stroke="#000000" stroke-width="2" /><path d="M9,90 c9.055,-4.813 16.503,-11.192 21,-17.5" fill="none" stroke="#000000" stroke-width="2" /><path d="M91,90.5 c-6.143,-5.823 -14.238,-12.229 -23,-18" fill="none" stroke="#000000" stroke-width="2" /></svg>