<?xml version='1.0' encoding='utf-8'?>
<svg xmlns="http://www.w3.org/2000/svg" height="100px" version="1.0" viewBox="0 0 100 100" width="100px" x="0px" y="0px">
<line fill="none" stroke="#000000" stroke-width="2" x1="30.5" x2="4" y1="24" y2="24" /><line fill="none" stroke="#000000" stroke-width="2" x1="17" x2="17" y1="24" y2="6" /><line fill="none" stroke="#000000" stroke-width="2" x1="17" x2="17" y1="94" y2="50.5" /><line fill="none" stroke="#000000" stroke-width="2" x1="62.5" x2="62.5" y1="90" y2="10.5" /><line fill="none" stroke="#000000" stroke-width="2" x1="30.5" x2="94.5" y1="10.5" y2="10.5" /><path d="M30,65 c-2.961,-4.671 -7.697,-11.511 -11.5,-16.5" fill="none" stroke="#000000" stroke-width="2" /><path d="M2.5,65.5 c12.918,-10.133 21.121,-22.261 27.047,-40.804" fill="none" stroke="#000000" stroke-width="2" /><path d="M74.961,90 c5.725,0.358 9.613,0.5 11.539,0.5 c5.219,0 6,-0.989 6,-8 V29.0 h-60.0 v63.0" fill="none" stroke="#000000" stroke-width="2" /><path d="M50.5,15 c-5.268,5.933 -12.891,11.439 -23,16" fill="none" stroke="#000000" stroke-width="2" /><path d="M97.5,31 c-6.221,-5.33 -14.156,-10.909 -23,-16" fill="none" stroke="#000000" stroke-width="2" /><path d="M36,55.5 c8.988,-4.833 17.232,-13.089 22,-22" fill="none" stroke="#000000" stroke-width="2" /><path d="M37.5,36 c6.646,4.483 12.559,9.931 20.5,19" fill="none" stroke="#000000" stroke-width="2" /><path d="M36,81 c8.988,-4.833 17.232,-13.089 22,-22" fill="none" stroke="#000000" stroke-width="2" /><path d="M37.5,61.5 c6.646,4.483 12.559,9.931 20.5,19" fill="none" stroke="#000000" stroke-width="2" /><path d="M66,55.5 c8.988,-4.833 17.232,-13.089 22,-22" fill="none" stroke="#000000" stroke-width="2" /><path d="M67.5,36 c6.646,4.483 12.559,9.931 20.5,19" fill="none" stroke="#000000" stroke-width="2" /><path d="M66,81 c8.988,-4.833 17.232,-13.089 22,-22" fill="none" stroke="#000000" stroke-width="2" /><path d="M67.5,61.5 c6.646,4.483 12.559,9.931 20.5,19" fill="none" stroke="#000000" stroke-width="2" /></svg>