<?xml version='1.0' encoding='utf-8'?>
<svg xmlns="http://www.w3.org/2000/svg" height="100px" version="1.0" viewBox="0 0 100 100" width="100px" x="0px" y="0px">
<line fill="none" stroke="#000000" stroke-width="2" x1="20" x2="20" y1="94" y2="11.5" /><line fill="none" stroke="#000000" stroke-width="2" x1="36" x2="5" y1="33" y2="33" /><line fill="none" stroke="#000000" stroke-width="2" x1="42" x2="90" y1="25.5" y2="25.5" /><line fill="none" stroke="#000000" stroke-width="2" x1="65.5" x2="65.5" y1="58.5" y2="39" /><polyline fill="none" points="42,39 90,39 90,13 41,13 41,40" stroke="#000000" stroke-width="2" /><path d="M34,8 c-9.688,2.732 -18.697,4.682 -28,6" fill="none" stroke="#000000" stroke-width="2" /><path d="M4,72.5 c7.473,-13.023 12.377,-25.655 15.5,-40" fill="none" stroke="#000000" stroke-width="2" /><path d="M32,60 c-3.637,-8.381 -7.621,-17.356 -11.5,-26" fill="none" stroke="#000000" stroke-width="2" /><path d="M36,63.5 c18.447,-1.71 35.107,-5.685 46,-10.5" fill="none" stroke="#000000" stroke-width="2" /><path d="M35.5,77.5 c23.071,-1.99 41.242,-6.821 53.5,-13.25" fill="none" stroke="#000000" stroke-width="2" /><path d="M35,91.5 c27.695,-2.271 47.376,-7.958 61,-16" fill="none" stroke="#000000" stroke-width="2" /><path d="M66.5,3 c-1.629,3.688 -3.594,6.941 -6,10" fill="none" stroke="#000000" stroke-width="2" /><path d="M36.5,56 c7.898,-3.158 14.521,-7.782 19,-13" fill="none" stroke="#000000" stroke-width="2" /><path d="M96,57 c-5.561,-5.054 -12.373,-10.001 -19.5,-14" fill="none" stroke="#000000" stroke-width="2" /></svg>