<?xml version='1.0' encoding='utf-8'?>
<svg xmlns="http://www.w3.org/2000/svg" height="100px" version="1.0" viewBox="0 0 100 100" width="100px" x="0px" y="0px">
<line fill="none" stroke="#000000" stroke-width="2" x1="20" x2="20" y1="94" y2="11.5" /><line fill="none" stroke="#000000" stroke-width="2" x1="33.5" x2="5" y1="33.5" y2="33.5" /><line fill="none" stroke="#000000" stroke-width="2" x1="36" x2="93" y1="66.5" y2="66.5" /><line fill="none" stroke="#000000" stroke-width="2" x1="92" x2="36" y1="79.5" y2="79.5" /><line fill="none" stroke="#000000" stroke-width="2" x1="47.5" x2="76" y1="8" y2="8" /><line fill="none" stroke="#000000" stroke-width="2" x1="40" x2="88" y1="32" y2="32" /><line fill="none" stroke="#000000" stroke-width="2" x1="88" x2="40" y1="44.5" y2="44.5" /><polyline fill="none" points="35,87.5 35,53.5 93,53.5 93,80.5" stroke="#000000" stroke-width="2" /><polyline fill="none" points="39,45.5 39,19.5 89,19.5 89,45.5" stroke="#000000" stroke-width="2" /><path d="M34,8 c-9.688,2.732 -18.697,4.682 -28,6" fill="none" stroke="#000000" stroke-width="2" /><path d="M4,73 c7.473,-13.023 12.377,-25.655 15.5,-40" fill="none" stroke="#000000" stroke-width="2" /><path d="M33.5,63.5 c-4.037,-9.303 -8.594,-19.45 -13,-29" fill="none" stroke="#000000" stroke-width="2" /><path d="M64.5,19.5 c3.775,-3.417 7.618,-7.41 10.732,-11.14" fill="none" stroke="#000000" stroke-width="2" /><path d="M29.5,27 c9.527,-6.96 16.57,-15.37 21,-25" fill="none" stroke="#000000" stroke-width="2" /><path d="M64,19.5 v66.0 c0,6.677 0.469,7 14.5,7 c18.191,0 18.424,-0.231 19.5,-19.5" fill="none" stroke="#000000" stroke-width="2" /></svg>