<?xml version='1.0' encoding='utf-8'?>
<svg xmlns="http://www.w3.org/2000/svg" height="100px" version="1.0" viewBox="0 0 100 100" width="100px" x="0px" y="0px">
<line fill="none" stroke="#000000" stroke-width="2" x1="50" x2="50" y1="14" y2="3" /><line fill="none" stroke="#000000" stroke-width="2" x1="94" x2="6" y1="61.5" y2="61.5" /><polyline fill="none" points="89.5,30 89.5,14 10.5,14 10.5,30" stroke="#000000" stroke-width="2" /><polyline fill="none" points="22,61.5 22,43 90,43" stroke="#000000" stroke-width="2" /><path d="M56.5,14 v18.38 c0,3.319 0.416,3.62 12,3.62 c13.594,0 13.783,-0.138 15.5,-13.5" fill="none" stroke="#000000" stroke-width="2" /><path d="M12,40 c19.094,-4.975 29.202,-14.595 30,-26" fill="none" stroke="#000000" stroke-width="2" /><path d="M71,43 v39.5 c0,6.784 -0.709,7.5 -8,7.5 c-2.503,0 -9.157,-0.18 -17,-0.5" fill="none" stroke="#000000" stroke-width="2" /><path d="M9,87 c22.17,-6.195 42.49,-14.806 61,-25.5" fill="none" stroke="#000000" stroke-width="2" /></svg>