<?xml version='1.0' encoding='utf-8'?>
<svg xmlns="http://www.w3.org/2000/svg" height="100px" version="1.0" viewBox="0 0 100 100" width="100px" x="0px" y="0px">
<line fill="none" stroke="#000000" stroke-width="2" x1="50" x2="50" y1="14.5" y2="3.5" /><line fill="none" stroke="#000000" stroke-width="2" x1="48" x2="88" y1="62.5" y2="62.5" /><line fill="none" stroke="#000000" stroke-width="2" x1="88" x2="48" y1="78" y2="78" /><line fill="none" stroke="#000000" stroke-width="2" x1="29" x2="92" y1="47.5" y2="47.5" /><line fill="none" stroke="#000000" stroke-width="2" x1="48" x2="48" y1="94.5" y2="47.5" /><polyline fill="none" points="89.5,30.5 89.5,14.5 10.5,14.5 10.5,30.5" stroke="#000000" stroke-width="2" /><path d="M56.5,14.5 v18.38 c0,3.319 0.416,3.62 12,3.62 c13.594,0 13.783,-0.138 15.5,-13.5" fill="none" stroke="#000000" stroke-width="2" /><path d="M12,40.5 c19.094,-4.975 29.202,-14.595 30,-26" fill="none" stroke="#000000" stroke-width="2" /><path d="M7,72 c12.631,-10.068 22.788,-23.128 29,-37" fill="none" stroke="#000000" stroke-width="2" /></svg>