<?xml version='1.0' encoding='utf-8'?>
<svg xmlns="http://www.w3.org/2000/svg" height="100px" version="1.0" viewBox="0 0 100 100" width="100px" x="0px" y="0px">
<line fill="none" stroke="#000000" stroke-width="2" x1="70.5" x2="70.5" y1="23" y2="89" /><line fill="none" stroke="#000000" stroke-width="2" x1="50.5" x2="90.5" y1="57" y2="57" /><line fill="none" stroke="#000000" stroke-width="2" x1="50.5" x2="90.5" y1="39" y2="39" /><line fill="none" stroke="#000000" stroke-width="2" x1="93.5" x2="47" y1="72" y2="72" /><line fill="none" stroke="#000000" stroke-width="2" x1="41.5" x2="96" y1="89" y2="89" /><line fill="none" stroke="#000000" stroke-width="2" x1="6" x2="36" y1="25" y2="25" /><line fill="none" stroke="#000000" stroke-width="2" x1="21" x2="21" y1="25" y2="7" /><polyline fill="none" points="91.5,58 91.5,22 49.5,22 49.5,58" stroke="#000000" stroke-width="2" /><path d="M33,91 c4.398,-10.385 8,-30.94 8,-47 v-33.0 h55.0" fill="none" stroke="#000000" stroke-width="2" /><path d="M6,87 c9.487,-2.364 17.699,-5.134 28,-9.5" fill="none" stroke="#000000" stroke-width="2" /><path d="M25.5,81 c2.68,-13.673 4.975,-30.976 6.5,-49.5" fill="none" stroke="#000000" stroke-width="2" /><path d="M15,73.5 c-1.303,-13.792 -2.887,-28.188 -4.5,-41.5" fill="none" stroke="#000000" stroke-width="2" /></svg>