<?xml version='1.0' encoding='utf-8'?>
<svg xmlns="http://www.w3.org/2000/svg" height="100px" version="1.0" viewBox="0 0 100 100" width="100px" x="0px" y="0px">
<line fill="none" stroke="#000000" stroke-width="2" x1="53" x2="19" y1="15.5" y2="15.5" /><line fill="none" stroke="#000000" stroke-width="2" x1="95" x2="61.5" y1="15.5" y2="15.5" /><line fill="none" stroke="#000000" stroke-width="2" x1="12" x2="69.5" y1="33.5" y2="33.5" /><line fill="none" stroke="#000000" stroke-width="2" x1="63" x2="89" y1="51.5" y2="51.5" /><path d="M23,5 c-2.729,9.845 -9.133,20.379 -17,28" fill="none" stroke="#000000" stroke-width="2" /><path d="M76.5,30.5 c-1.833,-4.87 -3.895,-10.028 -6,-15" fill="none" stroke="#000000" stroke-width="2" /><path d="M35.5,30.5 c-1.833,-4.87 -3.895,-10.028 -6,-15" fill="none" stroke="#000000" stroke-width="2" /><path d="M68,5 c-3.766,8.562 -11.55,17.947 -21,25" fill="none" stroke="#000000" stroke-width="2" /><path d="M5.5,91.5 c14.112,-10.116 24.5,-33.112 24.5,-58" fill="none" stroke="#000000" stroke-width="2" /><path d="M60.5,57 c3.604,-7.077 6.271,-14.608 8.021,-22.712" fill="none" stroke="#000000" stroke-width="2" /><path d="M92.5,91.5 c-33.529,-10.718 -54.439,-30.565 -62.5,-58" fill="none" stroke="#000000" stroke-width="2" /><path d="M23.5,91.5 c31.857,-6.78 53.868,-20.986 64.636,-39.503" fill="none" stroke="#000000" stroke-width="2" /></svg>