<?xml version='1.0' encoding='utf-8'?>
<svg xmlns="http://www.w3.org/2000/svg" height="100px" version="1.0" viewBox="0 0 100 100" width="100px" x="0px" y="0px">
<line fill="none" stroke="#000000" stroke-width="2" x1="50" x2="50" y1="63" y2="34" /><line fill="none" stroke="#000000" stroke-width="2" x1="50" x2="16.5" y1="14" y2="14" /><line fill="none" stroke="#000000" stroke-width="2" x1="94" x2="56" y1="14" y2="14" /><line fill="none" stroke="#000000" stroke-width="2" x1="20" x2="81" y1="88" y2="88" /><line fill="none" stroke="#000000" stroke-width="2" x1="93.5" x2="6.5" y1="49" y2="49" /><polyline fill="none" points="81,94 81,63 19,63 19,94" stroke="#000000" stroke-width="2" /><path d="M22,4 c-3.148,7.932 -9.355,16.47 -17,23" fill="none" stroke="#000000" stroke-width="2" /><path d="M34,30 c-1.833,-5.195 -3.895,-10.698 -6,-16" fill="none" stroke="#000000" stroke-width="2" /><path d="M63,4 c-3.717,7.438 -11.482,15.749 -21,22" fill="none" stroke="#000000" stroke-width="2" /><path d="M74,30 c-1.833,-5.195 -3.895,-10.698 -6,-16" fill="none" stroke="#000000" stroke-width="2" /><path d="M15,36 c24.494,0 47.915,-2.741 70,-8" fill="none" stroke="#000000" stroke-width="2" /></svg>