<?xml version='1.0' encoding='utf-8'?>
<svg xmlns="http://www.w3.org/2000/svg" height="100px" version="1.0" viewBox="0 0 100 100" width="100px" x="0px" y="0px">
<line fill="none" stroke="#000000" stroke-width="2" x1="16.5" x2="16.5" y1="94" y2="48.5" /><line fill="none" stroke="#000000" stroke-width="2" x1="25" x2="94" y1="51.5" y2="46.5" /><line fill="none" stroke="#000000" stroke-width="2" x1="94" x2="58.5" y1="16" y2="16" /><line fill="none" stroke="#000000" stroke-width="2" x1="51" x2="18.5" y1="16" y2="16" /><path d="M73.5,34.5 c5.736,2.804 10.578,5.382 16,8.5" fill="none" stroke="#000000" stroke-width="2" /><path d="M24.5,30 c-4.303,14.029 -11.811,26.364 -21.5,36" fill="none" stroke="#000000" stroke-width="2" /><path d="M84.5,53 c-10.442,17.206 -30.715,30.425 -59.5,37.5" fill="none" stroke="#000000" stroke-width="2" /><path d="M53,30 c0,39.508 24.167,62 33,62 c3.4,0 6.918,-4.507 9,-17" fill="none" stroke="#000000" stroke-width="2" /><path d="M34,31 c-1.833,-4.87 -3.895,-10.029 -6,-15" fill="none" stroke="#000000" stroke-width="2" /><path d="M75,31 c-1.833,-4.87 -3.895,-10.029 -6,-15" fill="none" stroke="#000000" stroke-width="2" /><path d="M23,5 c-2.729,9.845 -9.133,20.379 -17,28" fill="none" stroke="#000000" stroke-width="2" /><path d="M63,5 c-2.654,9.375 -9.12,19.735 -17,27" fill="none" stroke="#000000" stroke-width="2" /></svg>