<?xml version='1.0' encoding='utf-8'?>
<svg xmlns="http://www.w3.org/2000/svg" height="100px" version="1.0" viewBox="0 0 100 100" width="100px" x="0px" y="0px">
<line fill="none" stroke="#000000" stroke-width="2" x1="94" x2="56" y1="13" y2="13" /><line fill="none" stroke="#000000" stroke-width="2" x1="50" x2="17.5" y1="13" y2="13" /><line fill="none" stroke="#000000" stroke-width="2" x1="88" x2="20" y1="78.5" y2="78.5" /><line fill="none" stroke="#000000" stroke-width="2" x1="86" x2="22" y1="39" y2="39" /><line fill="none" stroke="#000000" stroke-width="2" x1="82.5" x2="25.5" y1="58" y2="58" /><line fill="none" stroke="#000000" stroke-width="2" x1="54" x2="54" y1="78.5" y2="39" /><line fill="none" stroke="#000000" stroke-width="2" x1="12.5" x2="91.5" y1="88.5" y2="88.5" /><polyline fill="none" points="90.5,29 12.5,29 12.5,94.5" stroke="#000000" stroke-width="2" /><path d="M34,29 c-1.833,-5.195 -3.895,-10.698 -6,-16" fill="none" stroke="#000000" stroke-width="2" /><path d="M74,29 c-1.833,-5.195 -3.895,-10.698 -6,-16" fill="none" stroke="#000000" stroke-width="2" /><path d="M23,3 c-3.148,7.932 -9.355,16.47 -17,23" fill="none" stroke="#000000" stroke-width="2" /><path d="M63,3 c-3.717,7.438 -11.482,15.749 -21,22" fill="none" stroke="#000000" stroke-width="2" /></svg>