<?xml version='1.0' encoding='utf-8'?>
<svg xmlns="http://www.w3.org/2000/svg" height="100px" version="1.0" viewBox="0 0 100 100" width="100px" x="0px" y="0px">
<line fill="none" stroke="#000000" stroke-width="2" x1="50" x2="16.5" y1="14" y2="14" /><line fill="none" stroke="#000000" stroke-width="2" x1="94" x2="56" y1="14" y2="14" /><line fill="none" stroke="#000000" stroke-width="2" x1="17.5" x2="47.5" y1="67" y2="67" /><line fill="none" stroke="#000000" stroke-width="2" x1="17.5" x2="17.5" y1="90.5" y2="57.5" /><polyline fill="none" points="86,54.5 86,30 14,30 14,54.5" stroke="#000000" stroke-width="2" /><path d="M22,4 c-3.148,7.932 -9.355,16.47 -17,23" fill="none" stroke="#000000" stroke-width="2" /><path d="M34,30 c-1.833,-5.195 -3.895,-10.698 -6,-16" fill="none" stroke="#000000" stroke-width="2" /><path d="M63,4 c-3.717,7.438 -11.482,15.749 -21,22" fill="none" stroke="#000000" stroke-width="2" /><path d="M74,30 c-1.833,-5.195 -3.895,-10.698 -6,-16" fill="none" stroke="#000000" stroke-width="2" /><path d="M56.5,55.5 v30.5 c0,4.278 0.281,4.527 6,4.8 c3.008,0.143 6.219,0.2 9.5,0.2 c3.397,0 6.478,-0.058 9.5,-0.2 c9.041,-0.43 9.182,-0.546 11,-16.8" fill="none" stroke="#000000" stroke-width="2" /><path d="M56.5,69.5 c12.068,-2.485 22.629,-5.827 35,-11" fill="none" stroke="#000000" stroke-width="2" /><path d="M5.5,92 c14.999,-1.764 28.503,-4.222 44,-8" fill="none" stroke="#000000" stroke-width="2" /><path d="M21.5,52.5 c17.551,-5.765 25.824,-13.001 28,-22.5" fill="none" stroke="#000000" stroke-width="2" /><path d="M78.5,53 c-8.73,-6.433 -20.231,-11.997 -32.5,-15.5" fill="none" stroke="#000000" stroke-width="2" /></svg>