<?xml version='1.0' encoding='utf-8'?>
<svg xmlns="http://www.w3.org/2000/svg" height="100px" version="1.0" viewBox="0 0 100 100" width="100px" x="0px" y="0px">
<line fill="none" stroke="#000000" stroke-width="2" x1="94" x2="58.5" y1="16" y2="16" /><line fill="none" stroke="#000000" stroke-width="2" x1="51" x2="18.5" y1="16" y2="16" /><line fill="none" stroke="#000000" stroke-width="2" x1="41" x2="90.5" y1="87.5" y2="87.5" /><line fill="none" stroke="#000000" stroke-width="2" x1="41" x2="90.5" y1="62.5" y2="62.5" /><polyline fill="none" points="90.5,93.5 90.5,38.5 40,38.5 40,93.5" stroke="#000000" stroke-width="2" /><path d="M34,31 c-1.833,-4.87 -3.895,-10.029 -6,-15" fill="none" stroke="#000000" stroke-width="2" /><path d="M75,31 c-1.833,-4.87 -3.895,-10.029 -6,-15" fill="none" stroke="#000000" stroke-width="2" /><path d="M23,5 c-2.729,9.845 -9.133,20.379 -17,28" fill="none" stroke="#000000" stroke-width="2" /><path d="M63,5 c-2.654,9.375 -9.12,19.735 -17,27" fill="none" stroke="#000000" stroke-width="2" /><path d="M10,93 c9.81,-7.671 17.839,-16.267 23.5,-25" fill="none" stroke="#000000" stroke-width="2" /><path d="M32.5,43 c-4.842,-3.677 -10.543,-7.573 -17,-11.5" fill="none" stroke="#000000" stroke-width="2" /><path d="M24.5,60 c-5.355,-4.007 -11.389,-8.123 -18.5,-12.5" fill="none" stroke="#000000" stroke-width="2" /><path d="M65,25 c-1.781,4.973 -3.915,9.357 -6.5,13.5" fill="none" stroke="#000000" stroke-width="2" /></svg>