<?xml version='1.0' encoding='utf-8'?>
<svg xmlns="http://www.w3.org/2000/svg" height="100px" version="1.0" viewBox="0 0 100 100" width="100px" x="0px" y="0px">
<line fill="none" stroke="#000000" stroke-width="2" x1="6" x2="94" y1="37" y2="37" /><line fill="none" stroke="#000000" stroke-width="2" x1="14.5" x2="46.5" y1="60.5" y2="60.5" /><line fill="none" stroke="#000000" stroke-width="2" x1="14.5" x2="46.5" y1="75" y2="75" /><line fill="none" stroke="#000000" stroke-width="2" x1="62" x2="62" y1="83" y2="47" /><line fill="none" stroke="#000000" stroke-width="2" x1="50" x2="16.5" y1="14" y2="14" /><line fill="none" stroke="#000000" stroke-width="2" x1="94" x2="56" y1="14" y2="14" /><path d="M37,37 c-2.549,-4.268 -5.327,-8.442 -8,-12" fill="none" stroke="#000000" stroke-width="2" /><path d="M63,37 c3.028,-3.949 5.896,-8.267 8,-12" fill="none" stroke="#000000" stroke-width="2" /><path d="M13.5,92.5 V47.0 h33.0 v36.0 c0,7.567 -0.385,8 -6,8 c-1.855,0 -5.498,-0.159 -11.5,-0.5" fill="none" stroke="#000000" stroke-width="2" /><path d="M87.5,45 v38.5 c0,7.13 -0.867,8 -6.5,8 c-2.75,0 -6.917,-0.144 -12.5,-0.5" fill="none" stroke="#000000" stroke-width="2" /><path d="M22,4 c-3.148,7.932 -9.355,16.47 -17,23" fill="none" stroke="#000000" stroke-width="2" /><path d="M37,27 c-1.833,-4.222 -3.895,-8.692 -6,-13" fill="none" stroke="#000000" stroke-width="2" /><path d="M63,4 c-3.717,7.438 -11.482,15.749 -21,22" fill="none" stroke="#000000" stroke-width="2" /><path d="M76,27 c-1.833,-4.222 -3.895,-8.692 -6,-13" fill="none" stroke="#000000" stroke-width="2" /></svg>