<?xml version='1.0' encoding='utf-8'?>
<svg xmlns="http://www.w3.org/2000/svg" height="100px" version="1.0" viewBox="0 0 100 100" width="100px" x="0px" y="0px">
<line fill="none" stroke="#000000" stroke-width="2" x1="94" x2="57" y1="13" y2="13" /><line fill="none" stroke="#000000" stroke-width="2" x1="51" x2="17.5" y1="13" y2="13" /><line fill="none" stroke="#000000" stroke-width="2" x1="60.5" x2="93" y1="34.5" y2="34.5" /><line fill="none" stroke="#000000" stroke-width="2" x1="14" x2="14" y1="28" y2="94" /><line fill="none" stroke="#000000" stroke-width="2" x1="52.5" x2="6" y1="39" y2="39" /><line fill="none" stroke="#000000" stroke-width="2" x1="15" x2="44.5" y1="62" y2="62" /><polyline fill="none" points="15,88 44.5,88 44.5,28" stroke="#000000" stroke-width="2" /><path d="M34,28 c-1.833,-4.87 -3.895,-10.03 -6,-15" fill="none" stroke="#000000" stroke-width="2" /><path d="M74,28 c-1.833,-4.87 -3.895,-10.03 -6,-15" fill="none" stroke="#000000" stroke-width="2" /><path d="M23,3 c-3.148,7.932 -9.355,16.47 -17,23" fill="none" stroke="#000000" stroke-width="2" /><path d="M63,3 c-3.098,7.269 -9.568,15.392 -17.5,21.5" fill="none" stroke="#000000" stroke-width="2" /><path d="M46.5,92 c13.41,-5.436 25,-23.331 25,-39.5 V41.0" fill="none" stroke="#000000" stroke-width="2" /><path d="M93.5,92 c-11.277,-5.335 -22,-23.457 -22,-39.5" fill="none" stroke="#000000" stroke-width="2" /><path d="M51,55 c5.338,-8.259 9.496,-18.588 12,-30" fill="none" stroke="#000000" stroke-width="2" /><path d="M85,54.5 c3.037,-5.543 5.39,-11.887 7.023,-19.218" fill="none" stroke="#000000" stroke-width="2" /></svg>