<?xml version='1.0' encoding='utf-8'?>
<svg xmlns="http://www.w3.org/2000/svg" height="100px" version="1.0" viewBox="0 0 100 100" width="100px" x="0px" y="0px">
<line fill="none" stroke="#000000" stroke-width="2" x1="94" x2="56" y1="12" y2="12" /><line fill="none" stroke="#000000" stroke-width="2" x1="50" x2="17.5" y1="12" y2="12" /><line fill="none" stroke="#000000" stroke-width="2" x1="10" x2="90" y1="27.5" y2="27.5" /><line fill="none" stroke="#000000" stroke-width="2" x1="12" x2="88" y1="37" y2="37" /><line fill="none" stroke="#000000" stroke-width="2" x1="34" x2="34" y1="46.5" y2="23" /><line fill="none" stroke="#000000" stroke-width="2" x1="66" x2="66" y1="46.5" y2="21" /><line fill="none" stroke="#000000" stroke-width="2" x1="4" x2="96" y1="78" y2="78" /><line fill="none" stroke="#000000" stroke-width="2" x1="17.5" x2="82.5" y1="66.5" y2="66.5" /><line fill="none" stroke="#000000" stroke-width="2" x1="49" x2="49" y1="46.5" y2="78" /><line fill="none" stroke="#000000" stroke-width="2" x1="93" x2="7" y1="46.5" y2="46.5" /><path d="M35.5,23 c-1.833,-3.571 -3.895,-7.356 -6,-11" fill="none" stroke="#000000" stroke-width="2" /><path d="M74,23 c-1.833,-3.571 -3.895,-7.356 -6,-11" fill="none" stroke="#000000" stroke-width="2" /><path d="M23,3 c-3.148,7.242 -9.377,15.011 -17,21" fill="none" stroke="#000000" stroke-width="2" /><path d="M63,3 c-3.74,6.749 -11.482,14.317 -21,20" fill="none" stroke="#000000" stroke-width="2" /><path d="M16.5,92.5 V55.0 h67.0 v30.0 c0,5.317 -0.695,6 -8,6 c-2.578,0 -7.355,-0.142 -15,-0.5" fill="none" stroke="#000000" stroke-width="2" /></svg>