<?xml version='1.0' encoding='utf-8'?>
<svg xmlns="http://www.w3.org/2000/svg" height="100px" version="1.0" viewBox="0 0 100 100" width="100px" x="0px" y="0px">
<line fill="none" stroke="#000000" stroke-width="2" x1="94" x2="56" y1="12" y2="12" /><line fill="none" stroke="#000000" stroke-width="2" x1="50" x2="17.5" y1="12" y2="12" /><line fill="none" stroke="#000000" stroke-width="2" x1="15.5" x2="84.5" y1="47.5" y2="47.5" /><line fill="none" stroke="#000000" stroke-width="2" x1="50" x2="50" y1="26.5" y2="96" /><line fill="none" stroke="#000000" stroke-width="2" x1="15.5" x2="84.5" y1="37" y2="37" /><line fill="none" stroke="#000000" stroke-width="2" x1="25" x2="25" y1="48.5" y2="73" /><line fill="none" stroke="#000000" stroke-width="2" x1="75" x2="75" y1="73" y2="48.5" /><line fill="none" stroke="#000000" stroke-width="2" x1="9" x2="91" y1="73" y2="73" /><line fill="none" stroke="#000000" stroke-width="2" x1="4.5" x2="95.5" y1="60" y2="60" /><line fill="none" stroke="#000000" stroke-width="2" x1="6" x2="94" y1="84" y2="84" /><polyline fill="none" points="85.5,48.5 85.5,26.5 14.5,26.5 14.5,48.5" stroke="#000000" stroke-width="2" /><path d="M34,23 c-1.833,-3.571 -3.895,-7.356 -6,-11" fill="none" stroke="#000000" stroke-width="2" /><path d="M74,23 c-1.833,-3.571 -3.895,-7.356 -6,-11" fill="none" stroke="#000000" stroke-width="2" /><path d="M23,3 c-3.148,7.242 -9.377,15.011 -17,21" fill="none" stroke="#000000" stroke-width="2" /><path d="M63,3 c-3.74,6.749 -11.482,14.317 -21,20" fill="none" stroke="#000000" stroke-width="2" /></svg>