<?xml version='1.0' encoding='utf-8'?>
<svg xmlns="http://www.w3.org/2000/svg" height="100px" version="1.0" viewBox="0 0 100 100" width="100px" x="0px" y="0px">
<line fill="none" stroke="#000000" stroke-width="2" x1="94" x2="58" y1="13" y2="13" /><line fill="none" stroke="#000000" stroke-width="2" x1="52" x2="17.5" y1="13" y2="13" /><line fill="none" stroke="#000000" stroke-width="2" x1="14" x2="14" y1="26" y2="74" /><line fill="none" stroke="#000000" stroke-width="2" x1="14" x2="5.5" y1="35" y2="35" /><line fill="none" stroke="#000000" stroke-width="2" x1="50" x2="15" y1="35" y2="35" /><line fill="none" stroke="#000000" stroke-width="2" x1="42" x2="42" y1="74" y2="26" /><line fill="none" stroke="#000000" stroke-width="2" x1="5" x2="50" y1="74" y2="74" /><line fill="none" stroke="#000000" stroke-width="2" x1="15" x2="42" y1="61" y2="61" /><line fill="none" stroke="#000000" stroke-width="2" x1="15" x2="42" y1="48" y2="48" /><line fill="none" stroke="#000000" stroke-width="2" x1="55" x2="92" y1="51" y2="51" /><line fill="none" stroke="#000000" stroke-width="2" x1="74" x2="74" y1="51" y2="24.5" /><path d="M37,26 c-1.818,-4.228 -3.895,-8.692 -6,-13" fill="none" stroke="#000000" stroke-width="2" /><path d="M78,26 c-1.833,-4.221 -3.895,-8.692 -6,-13" fill="none" stroke="#000000" stroke-width="2" /><path d="M23,3 c-3.148,7.932 -9.355,16.47 -17,23" fill="none" stroke="#000000" stroke-width="2" /><path d="M64,3 c-3.271,7.606 -10.125,16.106 -18.5,22.5" fill="none" stroke="#000000" stroke-width="2" /><path d="M6.5,93 c6.713,-4.152 12.568,-9.714 16,-15" fill="none" stroke="#000000" stroke-width="2" /><path d="M45,88 c-3.197,-3.354 -7.329,-6.874 -12,-10" fill="none" stroke="#000000" stroke-width="2" /><path d="M88.5,46.5 c2.545,-3.916 4.44,-7.873 6.051,-12.811" fill="none" stroke="#000000" stroke-width="2" /><path d="M54,91.5 c15.684,-5.172 28.668,-18.302 37.068,-39.863" fill="none" stroke="#000000" stroke-width="2" /><path d="M96,91.5 c-15.713,-5.282 -27.42,-17.022 -34.5,-36.5" fill="none" stroke="#000000" stroke-width="2" /><path d="M48,92 c4.479,-9.931 7,-22.892 7,-40 v-19.0 h40.5" fill="none" stroke="#000000" stroke-width="2" /></svg>