<?xml version='1.0' encoding='utf-8'?>
<svg xmlns="http://www.w3.org/2000/svg" height="100px" version="1.0" viewBox="0 0 100 100" width="100px" x="0px" y="0px">
<line fill="none" stroke="#000000" stroke-width="2" x1="94" x2="56" y1="12" y2="12" /><line fill="none" stroke="#000000" stroke-width="2" x1="50" x2="17.5" y1="12" y2="12" /><line fill="none" stroke="#000000" stroke-width="2" x1="51.5" x2="51.5" y1="28.5" y2="20" /><line fill="none" stroke="#000000" stroke-width="2" x1="18" x2="93" y1="40.5" y2="40.5" /><line fill="none" stroke="#000000" stroke-width="2" x1="17" x2="94" y1="62.5" y2="62.5" /><line fill="none" stroke="#000000" stroke-width="2" x1="43" x2="43" y1="51" y2="41.5" /><line fill="none" stroke="#000000" stroke-width="2" x1="43" x2="43" y1="94.5" y2="52" /><line fill="none" stroke="#000000" stroke-width="2" x1="63.5" x2="63.5" y1="51" y2="40.5" /><line fill="none" stroke="#000000" stroke-width="2" x1="63.5" x2="63.5" y1="94.5" y2="52" /><polyline fill="none" points="20,74 83.5,74 83.5,51 20,51" stroke="#000000" stroke-width="2" /><path d="M34,23 c-1.833,-3.571 -3.895,-7.355 -6,-11" fill="none" stroke="#000000" stroke-width="2" /><path d="M74,23 c-1.833,-3.571 -3.895,-7.355 -6,-11" fill="none" stroke="#000000" stroke-width="2" /><path d="M23,3 c-3.148,7.242 -9.377,15.01 -17,21" fill="none" stroke="#000000" stroke-width="2" /><path d="M63,3 c-3.74,6.749 -11.482,14.317 -21,20" fill="none" stroke="#000000" stroke-width="2" /><path d="M4.5,92.5 c4.816,-9.519 9,-28.387 9,-43 v-21.0 h80.0" fill="none" stroke="#000000" stroke-width="2" /><path d="M43,40.5 c-2.549,-3.378 -5.328,-6.685 -8,-9.5" fill="none" stroke="#000000" stroke-width="2" /><path d="M63.5,40.5 c3.021,-3.13 5.896,-6.544 8,-9.5" fill="none" stroke="#000000" stroke-width="2" /><path d="M12.5,91.5 c14.564,-5.528 23.906,-11.243 30,-17.5" fill="none" stroke="#000000" stroke-width="2" /><path d="M94,91.5 c-14.545,-5.579 -23.906,-11.243 -30,-17.5" fill="none" stroke="#000000" stroke-width="2" /></svg>