<?xml version='1.0' encoding='utf-8'?>
<svg xmlns="http://www.w3.org/2000/svg" height="100px" version="1.0" viewBox="0 0 100 100" width="100px" x="0px" y="0px">
<line fill="none" stroke="#000000" stroke-width="2" x1="31.5" x2="78.5" y1="13.5" y2="13.5" /><line fill="none" stroke="#000000" stroke-width="2" x1="92" x2="8" y1="63" y2="63" /><line fill="none" stroke="#000000" stroke-width="2" x1="50" x2="50" y1="93.5" y2="40.5" /><path d="M77.796,13.79 c-16.25,16.162 -36.942,26.931 -70.796,34.71" fill="none" stroke="#000000" stroke-width="2" /><path d="M8,33.5 c13.577,-8.087 23.534,-17.9 30,-29" fill="none" stroke="#000000" stroke-width="2" /><path d="M61,27.5 c8.142,9.208 17.573,16.347 33,24.5" fill="none" stroke="#000000" stroke-width="2" /><path d="M94,90 c-20.882,-8.638 -34.489,-17.453 -43,-27" fill="none" stroke="#000000" stroke-width="2" /><path d="M38.5,63 c-5.387,-5.718 -11.32,-11.257 -17,-16" fill="none" stroke="#000000" stroke-width="2" /><path d="M61.5,63 c6.869,-5.063 12.969,-10.887 17,-16" fill="none" stroke="#000000" stroke-width="2" /><path d="M6,90 c20.881,-8.638 34.489,-17.453 43,-27" fill="none" stroke="#000000" stroke-width="2" /></svg>