<?xml version='1.0' encoding='utf-8'?>
<svg xmlns="http://www.w3.org/2000/svg" height="100px" version="1.0" viewBox="0 0 100 100" width="100px" x="0px" y="0px">
<line fill="none" stroke="#000000" stroke-width="2" x1="20.5" x2="20.5" y1="94" y2="6" /><line fill="none" stroke="#000000" stroke-width="2" x1="35.5" x2="4" y1="39" y2="39" /><line fill="none" stroke="#000000" stroke-width="2" x1="70" x2="70" y1="23" y2="89" /><line fill="none" stroke="#000000" stroke-width="2" x1="49.5" x2="90.5" y1="57" y2="57" /><line fill="none" stroke="#000000" stroke-width="2" x1="49.5" x2="90.5" y1="39" y2="39" /><line fill="none" stroke="#000000" stroke-width="2" x1="93.5" x2="46" y1="72" y2="72" /><line fill="none" stroke="#000000" stroke-width="2" x1="40.5" x2="96" y1="89" y2="89" /><polyline fill="none" points="91.5,58 91.5,22 48.5,22 48.5,58" stroke="#000000" stroke-width="2" /><path d="M32,91 c4.398,-10.385 8,-30.94 8,-47 v-33.0 h56.0" fill="none" stroke="#000000" stroke-width="2" /><path d="M3,79.5 c8.184,-13.373 13.541,-26.336 17,-41" fill="none" stroke="#000000" stroke-width="2" /><path d="M34,71 c-3.898,-10.039 -8.42,-20.818 -13,-31" fill="none" stroke="#000000" stroke-width="2" /><path d="M15,34 c-2.652,-7.823 -5.872,-15.646 -9,-22" fill="none" stroke="#000000" stroke-width="2" /><path d="M26,34 c3.673,-7.122 7.027,-15.65 9,-23" fill="none" stroke="#000000" stroke-width="2" /></svg>