<?xml version='1.0' encoding='utf-8'?>
<svg xmlns="http://www.w3.org/2000/svg" height="100px" version="1.0" viewBox="0 0 100 100" width="100px" x="0px" y="0px">
<line fill="none" stroke="#000000" stroke-width="2" x1="68" x2="68" y1="16" y2="3" /><line fill="none" stroke="#000000" stroke-width="2" x1="4.5" x2="36" y1="52" y2="50" /><line fill="none" stroke="#000000" stroke-width="2" x1="22" x2="22" y1="51" y2="94" /><path d="M96,92 c-4.605,-11.451 -11.156,-25.827 -17,-37" fill="none" stroke="#000000" stroke-width="2" /><path d="M43.5,89 c14.436,-0.856 31.611,-3.71 48,-8" fill="none" stroke="#000000" stroke-width="2" /><path d="M52,88.5 c5.196,-18.077 10.575,-39.798 15.5,-62.5" fill="none" stroke="#000000" stroke-width="2" /><path d="M35,92 c6.048,-14.052 9,-29.832 9,-51 v-24.0 h51.0" fill="none" stroke="#000000" stroke-width="2" /><path d="M37.5,57.5 c-1.403,-7.545 -3.801,-16.481 -6.5,-24" fill="none" stroke="#000000" stroke-width="2" /><path d="M6.5,87.5 c2.879,-9.126 4.795,-19.038 5.5,-28.5" fill="none" stroke="#000000" stroke-width="2" /><path d="M35,78.5 c-0.596,-5.877 -1.969,-13.753 -3.5,-20" fill="none" stroke="#000000" stroke-width="2" /><path d="M10.5,51.5 c8.773,-11.431 16.518,-23.412 23.5,-36.5" fill="none" stroke="#000000" stroke-width="2" /><path d="M18,41 c-3.258,-6.554 -7.862,-15.377 -11.5,-22" fill="none" stroke="#000000" stroke-width="2" /><path d="M11,27.5 c4.367,-7.057 8.246,-14.042 12,-21.5" fill="none" stroke="#000000" stroke-width="2" /></svg>