<?xml version='1.0' encoding='utf-8'?>
<svg xmlns="http://www.w3.org/2000/svg" height="100px" version="1.0" viewBox="0 0 100 100" width="100px" x="0px" y="0px">
<line fill="none" stroke="#000000" stroke-width="2" x1="70" x2="45.5" y1="30" y2="30" /><line fill="none" stroke="#000000" stroke-width="2" x1="3.5" x2="33" y1="52" y2="50" /><line fill="none" stroke="#000000" stroke-width="2" x1="19.5" x2="19.5" y1="51" y2="94" /><polyline fill="none" points="49,69 68.5,69 68.5,42 48,42 48,77" stroke="#000000" stroke-width="2" /><path d="M74.5,3.5 c0,54.161 9.54,87.5 15.5,87.5 c1.814,0 3.809,-4.644 5,-23" fill="none" stroke="#000000" stroke-width="2" /><path d="M91.5,31 c-5.132,30.089 -19.273,50.847 -37,60" fill="none" stroke="#000000" stroke-width="2" /><path d="M79,3 c4.734,2.831 9.576,6.339 14,10" fill="none" stroke="#000000" stroke-width="2" /><path d="M33,91.5 c4.668,-14.026 7,-29.832 7,-51 V17.0 h54.0" fill="none" stroke="#000000" stroke-width="2" /><path d="M34,56.5 c-1.279,-7.545 -3.49,-16.5 -6,-24" fill="none" stroke="#000000" stroke-width="2" /><path d="M5.5,87.5 c2.624,-9.126 4.357,-19.038 5,-28.5" fill="none" stroke="#000000" stroke-width="2" /><path d="M31,82.5 c-0.547,-7.585 -1.604,-15.938 -3,-24" fill="none" stroke="#000000" stroke-width="2" /><path d="M9,51.5 c8.018,-11.415 15.133,-23.412 21.5,-36.5" fill="none" stroke="#000000" stroke-width="2" /><path d="M16,41 c-2.955,-6.562 -7.184,-15.377 -10.5,-22" fill="none" stroke="#000000" stroke-width="2" /><path d="M9.5,27.5 c3.982,-7.057 7.565,-14.049 11,-21.5" fill="none" stroke="#000000" stroke-width="2" /></svg>