<?xml version='1.0' encoding='utf-8'?>
<svg xmlns="http://www.w3.org/2000/svg" height="100px" version="1.0" viewBox="0 0 100 100" width="100px" x="0px" y="0px">
<line fill="none" stroke="#000000" stroke-width="2" x1="3.5" x2="33" y1="52" y2="50" /><line fill="none" stroke="#000000" stroke-width="2" x1="19.5" x2="19.5" y1="51" y2="94" /><line fill="none" stroke="#000000" stroke-width="2" x1="38.5" x2="38.5" y1="30" y2="93.5" /><line fill="none" stroke="#000000" stroke-width="2" x1="76.5" x2="55" y1="48" y2="48" /><line fill="none" stroke="#000000" stroke-width="2" x1="76.5" x2="55" y1="67.5" y2="67.5" /><line fill="none" stroke="#000000" stroke-width="2" x1="54" x2="54" y1="29" y2="86.5" /><line fill="none" stroke="#000000" stroke-width="2" x1="76.5" x2="76.5" y1="87.5" y2="30" /><line fill="none" stroke="#000000" stroke-width="2" x1="38.5" x2="92" y1="87.5" y2="87.5" /><line fill="none" stroke="#000000" stroke-width="2" x1="35.5" x2="95" y1="10" y2="10" /><polyline fill="none" points="92,93.5 92,29 37.5,29" stroke="#000000" stroke-width="2" /><path d="M34,56.5 c-1.279,-7.545 -3.49,-16.5 -6,-24" fill="none" stroke="#000000" stroke-width="2" /><path d="M5.5,87.5 c2.624,-9.126 4.357,-19.038 5,-28.5" fill="none" stroke="#000000" stroke-width="2" /><path d="M31,82.5 c-0.547,-7.585 -1.604,-15.938 -3,-24" fill="none" stroke="#000000" stroke-width="2" /><path d="M9,51.5 c8.018,-11.415 15.133,-23.412 21.5,-36.5" fill="none" stroke="#000000" stroke-width="2" /><path d="M16,41 c-2.955,-6.562 -7.184,-15.377 -10.5,-22" fill="none" stroke="#000000" stroke-width="2" /><path d="M9.5,27.5 c3.982,-7.057 7.565,-14.049 11,-21.5" fill="none" stroke="#000000" stroke-width="2" /><path d="M65.5,10 c-1.028,7.048 -2.34,13.264 -4,19" fill="none" stroke="#000000" stroke-width="2" /></svg>