<?xml version='1.0' encoding='utf-8'?>
<svg xmlns="http://www.w3.org/2000/svg" height="100px" version="1.0" viewBox="0 0 100 100" width="100px" x="0px" y="0px">
<line fill="none" stroke="#000000" stroke-width="2" x1="3" x2="32.5" y1="52" y2="50" /><line fill="none" stroke="#000000" stroke-width="2" x1="19" x2="19" y1="51" y2="94" /><line fill="none" stroke="#000000" stroke-width="2" x1="55.5" x2="90.5" y1="41" y2="41" /><line fill="none" stroke="#000000" stroke-width="2" x1="49.5" x2="95.5" y1="70.5" y2="70.5" /><line fill="none" stroke="#000000" stroke-width="2" x1="73" x2="73" y1="85" y2="5" /><line fill="none" stroke="#000000" stroke-width="2" x1="49" x2="95.5" y1="14" y2="14" /><polyline fill="none" points="45.5,75 45.5,52 32.5,52" stroke="#000000" stroke-width="2" /><polyline fill="none" points="55.5,58.5 91.5,58.5 91.5,25.5 54.5,25.5 54.5,59.5" stroke="#000000" stroke-width="2" /><path d="M33.5,56.5 c-1.279,-7.545 -3.49,-16.5 -6,-24" fill="none" stroke="#000000" stroke-width="2" /><path d="M5,87.5 c2.624,-9.126 4.357,-19.038 5,-28.5" fill="none" stroke="#000000" stroke-width="2" /><path d="M30.5,82.5 c-0.547,-7.585 -1.604,-15.938 -3,-24" fill="none" stroke="#000000" stroke-width="2" /><path d="M8.5,51.5 c8.018,-11.415 15.133,-23.412 21.5,-36.5" fill="none" stroke="#000000" stroke-width="2" /><path d="M15.5,41 c-2.955,-6.562 -7.184,-15.377 -10.5,-22" fill="none" stroke="#000000" stroke-width="2" /><path d="M9,27.5 c3.982,-7.057 7.565,-14.049 11,-21.5" fill="none" stroke="#000000" stroke-width="2" /><path d="M33,8 c4.946,3.745 9.197,7.229 14,11.5" fill="none" stroke="#000000" stroke-width="2" /><path d="M33,28.5 c4.946,3.745 9.197,7.229 14,11.5" fill="none" stroke="#000000" stroke-width="2" /><path d="M33,92 c5.881,-5.611 9.879,-11.114 12.5,-17" fill="none" stroke="#000000" stroke-width="2" /><path d="M95.5,90 h-24.0 c-15.129,0 -21.704,-3.743 -26,-15" fill="none" stroke="#000000" stroke-width="2" /></svg>