<?xml version='1.0' encoding='utf-8'?>
<svg xmlns="http://www.w3.org/2000/svg" height="100px" version="1.0" viewBox="0 0 100 100" width="100px" x="0px" y="0px">
<line fill="none" stroke="#000000" stroke-width="2" x1="63.5" x2="63.5" y1="22" y2="9" /><line fill="none" stroke="#000000" stroke-width="2" x1="36.5" x2="36.5" y1="22" y2="9" /><line fill="none" stroke="#000000" stroke-width="2" x1="71.5" x2="71.5" y1="30.5" y2="65.5" /><line fill="none" stroke="#000000" stroke-width="2" x1="53" x2="90" y1="54.5" y2="54.5" /><line fill="none" stroke="#000000" stroke-width="2" x1="53" x2="90" y1="42.5" y2="42.5" /><line fill="none" stroke="#000000" stroke-width="2" x1="7" x2="49" y1="35" y2="35" /><line fill="none" stroke="#000000" stroke-width="2" x1="12" x2="44" y1="69.5" y2="69.5" /><line fill="none" stroke="#000000" stroke-width="2" x1="7" x2="47" y1="79.5" y2="79.5" /><line fill="none" stroke="#000000" stroke-width="2" x1="28" x2="28" y1="95.5" y2="44.5" /><polyline fill="none" points="10.5,23 90.5,23 90.5,9 9.5,9 9.5,24" stroke="#000000" stroke-width="2" /><polyline fill="none" points="41.5,27.5 41.5,44.5 14.5,44.5 14.5,27.5" stroke="#000000" stroke-width="2" /><polyline fill="none" points="45,70.5 45,53.5 11,53.5 11,70.5" stroke="#000000" stroke-width="2" /><path d="M85.5,84.5 c-1.213,-3.978 -2.752,-8.403 -4.5,-13" fill="none" stroke="#000000" stroke-width="2" /><path d="M74.25,88 c-0.85,-4.811 -2.036,-10.105 -3.5,-15.75" fill="none" stroke="#000000" stroke-width="2" /><path d="M63,91.5 c-0.486,-5.643 -1.32,-11.809 -2.5,-18.5" fill="none" stroke="#000000" stroke-width="2" /><path d="M47,93 c2.289,-5.99 4.297,-12.766 6,-20.5" fill="none" stroke="#000000" stroke-width="2" /><path d="M92,30.5 h-39.0 v36.0 h39.0 c0,21.043 -2.447,26 -6.5,26 c-2.084,0 -5.249,-0.135 -9,-0.5" fill="none" stroke="#000000" stroke-width="2" /></svg>