<?xml version='1.0' encoding='utf-8'?>
<svg xmlns="http://www.w3.org/2000/svg" height="100px" version="1.0" viewBox="0 0 100 100" width="100px" x="0px" y="0px">
<line fill="none" stroke="#000000" stroke-width="2" x1="10.5" x2="45.5" y1="69.5" y2="69.5" /><line fill="none" stroke="#000000" stroke-width="2" x1="94" x2="52.5" y1="38" y2="38" /><line fill="none" stroke="#000000" stroke-width="2" x1="91.5" x2="55.5" y1="11" y2="11" /><polyline fill="none" points="10.5,87.5 45.5,87.5 45.5,52.5 9.5,52.5 9.5,93.5" stroke="#000000" stroke-width="2" /><path d="M28.5,43 c-1.106,3.519 -2.395,6.552 -4,9.5" fill="none" stroke="#000000" stroke-width="2" /><path d="M4,10 h20.5 v30.5 c0,3.202 -0.281,3.5 -3,3.5 c-1.266,0 -4.75,-0.164 -8.5,-0.5" fill="none" stroke="#000000" stroke-width="2" /><path d="M79.5,38 v45.5 c0,6.755 0.291,7 7,7 c7.916,0 8.139,-0.271 8.5,-28" fill="none" stroke="#000000" stroke-width="2" /><path d="M47.5,91.5 c12.496,-7.852 18.1,-20.188 18.1,-53.5" fill="none" stroke="#000000" stroke-width="2" /><path d="M17,25 c-2.723,-3.038 -6.083,-6.409 -10,-10" fill="none" stroke="#000000" stroke-width="2" /><path d="M4.5,38.5 c7.03,-2.875 12.852,-6.386 17,-10" fill="none" stroke="#000000" stroke-width="2" /><path d="M28,10 h20.5 v30.5 c0,3.202 -0.281,3.5 -3,3.5 c-1.266,0 -4.75,-0.164 -8.5,-0.5" fill="none" stroke="#000000" stroke-width="2" /><path d="M41,25 c-2.723,-3.038 -6.083,-6.409 -10,-10" fill="none" stroke="#000000" stroke-width="2" /><path d="M28.5,38.5 c7.03,-2.875 12.852,-6.386 17,-10" fill="none" stroke="#000000" stroke-width="2" /></svg>