<?xml version='1.0' encoding='utf-8'?>
<svg xmlns="http://www.w3.org/2000/svg" height="100px" version="1.0" viewBox="0 0 100 100" width="100px" x="0px" y="0px">
<line fill="none" stroke="#000000" stroke-width="2" x1="51.5" x2="90.5" y1="27.5" y2="27.5" /><line fill="none" stroke="#000000" stroke-width="2" x1="46" x2="18.5" y1="15.5" y2="15.5" /><line fill="none" stroke="#000000" stroke-width="2" x1="47.5" x2="12.5" y1="27.5" y2="27.5" /><polyline fill="none" points="49,8 9,8 9,47.5 48,47.5" stroke="#000000" stroke-width="2" /><path d="M51.5,48.5 c19.438,-3.627 30.892,-10.26 38.184,-20.576" fill="none" stroke="#000000" stroke-width="2" /><path d="M93.5,48.5 c-15.672,-3.556 -28.913,-10.017 -37,-17.5" fill="none" stroke="#000000" stroke-width="2" /><path d="M50,22.5 c6.698,-2.371 10,-6.646 10,-13 v-2.5 h20.5 v12.5 c0,2.317 0.215,2.5 6.5,2.5 c6.615,0 6.832,-0.195 7.5,-8" fill="none" stroke="#000000" stroke-width="2" /><path d="M13,22.5 c3.933,-4.04 7.047,-9.001 9,-14.5" fill="none" stroke="#000000" stroke-width="2" /><path d="M12.5,42.5 c10.955,-3.572 17.5,-10.736 17.5,-18.5 v-8.5" fill="none" stroke="#000000" stroke-width="2" /><path d="M47.5,42.5 c-10.955,-3.572 -17.5,-10.736 -17.5,-18.5" fill="none" stroke="#000000" stroke-width="2" /><path d="M6.5,56 h39.0 v32.0 c0,3.202 -0.258,3.5 -5.5,3.5 c-2.32,0 -8.623,-0.177 -15.5,-0.5" fill="none" stroke="#000000" stroke-width="2" /><path d="M7.5,88 c15.713,-5.75 28.725,-12.772 38,-20" fill="none" stroke="#000000" stroke-width="2" /><path d="M7.5,72 c12.793,-4.682 23.847,-10.208 32.5,-16" fill="none" stroke="#000000" stroke-width="2" /><path d="M51,56 h39.0 v32.0 c0,3.202 -0.258,3.5 -5.5,3.5 c-2.32,0 -8.623,-0.177 -15.5,-0.5" fill="none" stroke="#000000" stroke-width="2" /><path d="M52,87.5 c15.713,-5.75 28.725,-12.772 38,-20" fill="none" stroke="#000000" stroke-width="2" /><path d="M52,72 c12.793,-4.682 23.847,-10.208 32.5,-16" fill="none" stroke="#000000" stroke-width="2" /></svg>