<?xml version='1.0' encoding='utf-8'?>
<svg xmlns="http://www.w3.org/2000/svg" height="100px" version="1.0" viewBox="0 0 100 100" width="100px" x="0px" y="0px">
<line fill="none" stroke="#000000" stroke-width="2" x1="20.5" x2="20.5" y1="43.5" y2="6" /><line fill="none" stroke="#000000" stroke-width="2" x1="26" x2="26" y1="82" y2="43.5" /><line fill="none" stroke="#000000" stroke-width="2" x1="37" x2="4" y1="43.5" y2="43.5" /><line fill="none" stroke="#000000" stroke-width="2" x1="39" x2="61.5" y1="23" y2="23" /><line fill="none" stroke="#000000" stroke-width="2" x1="68.5" x2="91" y1="23" y2="23" /><line fill="none" stroke="#000000" stroke-width="2" x1="43" x2="43" y1="49.5" y2="94" /><line fill="none" stroke="#000000" stroke-width="2" x1="93" x2="43.5" y1="49" y2="49" /><line fill="none" stroke="#000000" stroke-width="2" x1="69.5" x2="69.5" y1="88" y2="49" /><line fill="none" stroke="#000000" stroke-width="2" x1="44" x2="95" y1="88" y2="88" /><line fill="none" stroke="#000000" stroke-width="2" x1="43" x2="91" y1="74.5" y2="74.5" /><line fill="none" stroke="#000000" stroke-width="2" x1="43" x2="91" y1="61.5" y2="61.5" /><polyline fill="none" points="38,37.5 62.5,37.5 62.5,10 38,10" stroke="#000000" stroke-width="2" /><polyline fill="none" points="67.5,37.5 92,37.5 92,10 67.5,10" stroke="#000000" stroke-width="2" /><path d="M14,38 c-2.357,-9.246 -5.193,-18.501 -8,-26" fill="none" stroke="#000000" stroke-width="2" /><path d="M27,38 c2.887,-8.351 5.466,-18.372 7,-27" fill="none" stroke="#000000" stroke-width="2" /><path d="M4,93.5 c6.945,-7.28 11,-21.915 11,-50" fill="none" stroke="#000000" stroke-width="2" /><path d="M15.5,86.5 c7.965,-2.966 14.507,-6.228 22,-11" fill="none" stroke="#000000" stroke-width="2" /><path d="M75.5,37.5 c-1.629,4.241 -3.602,7.979 -6,11.5" fill="none" stroke="#000000" stroke-width="2" /><path d="M31,63.5 c7.671,-7.431 13.295,-15.469 18,-26" fill="none" stroke="#000000" stroke-width="2" /></svg>