<?xml version='1.0' encoding='utf-8'?>
<svg xmlns="http://www.w3.org/2000/svg" height="100px" version="1.0" viewBox="0 0 100 100" width="100px" x="0px" y="0px">
<line fill="none" stroke="#000000" stroke-width="2" x1="8" x2="8" y1="12" y2="77" /><line fill="none" stroke="#000000" stroke-width="2" x1="33" x2="3" y1="11" y2="11" /><line fill="none" stroke="#000000" stroke-width="2" x1="28" x2="28" y1="94.5" y2="12" /><line fill="none" stroke="#000000" stroke-width="2" x1="9" x2="27" y1="53.5" y2="53.5" /><line fill="none" stroke="#000000" stroke-width="2" x1="71.5" x2="93" y1="77.5" y2="77.5" /><line fill="none" stroke="#000000" stroke-width="2" x1="9" x2="27" y1="31.5" y2="31.5" /><line fill="none" stroke="#000000" stroke-width="2" x1="71.5" x2="71.5" y1="94.5" y2="53.5" /><line fill="none" stroke="#000000" stroke-width="2" x1="93" x2="93" y1="83.5" y2="54.5" /><line fill="none" stroke="#000000" stroke-width="2" x1="60.5" x2="30.5" y1="45.5" y2="48" /><line fill="none" stroke="#000000" stroke-width="2" x1="94.5" x2="64.5" y1="45.5" y2="48" /><polyline fill="none" points="56.5,77.5 37,77.5 37,54.5" stroke="#000000" stroke-width="2" /><path d="M2.5,78.5 c7.922,-1.63 16.9,-4.124 25.5,-7" fill="none" stroke="#000000" stroke-width="2" /><path d="M36,23 c4.303,-5.384 8.018,-10.737 11.5,-16.5" fill="none" stroke="#000000" stroke-width="2" /><path d="M38.5,94.5 c12.802,-4.709 20,-14.579 20,-29 v-11.0" fill="none" stroke="#000000" stroke-width="2" /><path d="M46,33.5 c-4.369,-4.692 -9.669,-10.169 -14.5,-15" fill="none" stroke="#000000" stroke-width="2" /><path d="M35,47.5 c8.936,-10.499 16.907,-21.399 24,-33" fill="none" stroke="#000000" stroke-width="2" /><path d="M63,53 c-1.98,-6.971 -4.938,-16.11 -7.5,-23" fill="none" stroke="#000000" stroke-width="2" /><path d="M70,23 c4.303,-5.384 8.018,-10.737 11.5,-16.5" fill="none" stroke="#000000" stroke-width="2" /><path d="M80,33.5 c-4.369,-4.692 -9.669,-10.169 -14.5,-15" fill="none" stroke="#000000" stroke-width="2" /><path d="M69,47.5 c8.936,-10.499 16.907,-21.399 24,-33" fill="none" stroke="#000000" stroke-width="2" /><path d="M97,53 c-1.98,-6.971 -4.938,-16.11 -7.5,-23" fill="none" stroke="#000000" stroke-width="2" /></svg>