<?xml version='1.0' encoding='utf-8'?>
<svg xmlns="http://www.w3.org/2000/svg" height="100px" version="1.0" viewBox="0 0 100 100" width="100px" x="0px" y="0px">
<line fill="none" stroke="#000000" stroke-width="2" x1="19" x2="19" y1="54.5" y2="87.5" /><line fill="none" stroke="#000000" stroke-width="2" x1="94" x2="12" y1="54.5" y2="54.5" /><line fill="none" stroke="#000000" stroke-width="2" x1="80" x2="80" y1="95.5" y2="54.5" /><line fill="none" stroke="#000000" stroke-width="2" x1="20" x2="80" y1="76" y2="76" /><line fill="none" stroke="#000000" stroke-width="2" x1="20" x2="80" y1="65" y2="65" /><line fill="none" stroke="#000000" stroke-width="2" x1="50.5" x2="91.5" y1="28.5" y2="28.5" /><line fill="none" stroke="#000000" stroke-width="2" x1="8.5" x2="48.5" y1="20" y2="20" /><line fill="none" stroke="#000000" stroke-width="2" x1="51.5" x2="5.5" y1="11" y2="11" /><line fill="none" stroke="#000000" stroke-width="2" x1="28.5" x2="28.5" y1="20" y2="5" /><line fill="none" stroke="#000000" stroke-width="2" x1="28.5" x2="28.5" y1="27.5" y2="40.5" /><path d="M5,88 c27.23,-0.51 59.127,-2.17 90,-5" fill="none" stroke="#000000" stroke-width="2" /><path d="M50.48,24.979 c5.697,-2.676 8.5,-6.994 8.5,-14 v-3.0 h24.0 v13.0 c0,1.99 0.841,2.5 5,2.5 c7.25,0 7.514,-0.227 8,-7.5" fill="none" stroke="#000000" stroke-width="2" /><path d="M47.5,50 c22.303,-4.634 34.684,-11.171 43.24,-21.15" fill="none" stroke="#000000" stroke-width="2" /><path d="M95.5,50.5 c-15.96,-4.156 -30.008,-11.271 -38.5,-19" fill="none" stroke="#000000" stroke-width="2" /><path d="M6,58.8 c3.537,-5.176 5.5,-12.727 5.5,-23.3 v-8.0 h34.0 v14.0 h-34.0" fill="none" stroke="#000000" stroke-width="2" /></svg>