<?xml version='1.0' encoding='utf-8'?>
<svg xmlns="http://www.w3.org/2000/svg" height="100px" version="1.0" viewBox="0 0 100 100" width="100px" x="0px" y="0px">
<line fill="none" stroke="#000000" stroke-width="2" x1="93" x2="7" y1="35.5" y2="35.5" /><line fill="none" stroke="#000000" stroke-width="2" x1="25" x2="25" y1="94" y2="49" /><line fill="none" stroke="#000000" stroke-width="2" x1="25" x2="84.5" y1="77.5" y2="77.5" /><line fill="none" stroke="#000000" stroke-width="2" x1="26" x2="84.5" y1="63" y2="63" /><path d="M11.5,30 c27.307,-6.026 51.639,-15.64 69,-26.5" fill="none" stroke="#000000" stroke-width="2" /><path d="M21.5,7.5 c23.112,5.519 43.061,11.992 69,22.5" fill="none" stroke="#000000" stroke-width="2" /><path d="M4.5,68 c16.295,-11.532 25.521,-23.099 32.5,-40.5" fill="none" stroke="#000000" stroke-width="2" /><path d="M25.5,49 h59.0 v39.0 c0,4.177 -0.335,4.5 -8,4.5 c-2.518,0 -6.712,-0.159 -14,-0.5" fill="none" stroke="#000000" stroke-width="2" /></svg>