<?xml version='1.0' encoding='utf-8'?>
<svg xmlns="http://www.w3.org/2000/svg" height="100px" version="1.0" viewBox="0 0 100 100" width="100px" x="0px" y="0px">
<line fill="none" stroke="#000000" stroke-width="2" x1="27" x2="68" y1="76" y2="76" /><line fill="none" stroke="#000000" stroke-width="2" x1="27" x2="68" y1="63.5" y2="63.5" /><line fill="none" stroke="#000000" stroke-width="2" x1="71" x2="21.5" y1="41.5" y2="44" /><path d="M4.5,92.5 c6.738,-10.179 10.5,-25.519 10.5,-50.5 v-34.0" fill="none" stroke="#000000" stroke-width="2" /><path d="M81,8 v77.0 c0,5.792 0.334,6 6.5,6 c7.824,0 7.932,-0.122 8.5,-29" fill="none" stroke="#000000" stroke-width="2" /><path d="M26,92.5 V51.0 h42.0 v35.0 c0,4.263 -0.245,4.5 -6.5,4.5 c-2.09,0 -5.445,-0.159 -11.5,-0.5" fill="none" stroke="#000000" stroke-width="2" /><path d="M46.5,32 c-6.793,-4.626 -15.445,-10.273 -23,-15" fill="none" stroke="#000000" stroke-width="2" /><path d="M74.5,48.5 c-3.318,-6.355 -8.264,-14.725 -12.5,-21" fill="none" stroke="#000000" stroke-width="2" /><path d="M31,43.5 c13.482,-9.435 25.412,-19.454 36,-30" fill="none" stroke="#000000" stroke-width="2" /><path d="M30.5,21.5 c6.365,-4.896 12.131,-9.823 17.5,-15" fill="none" stroke="#000000" stroke-width="2" /></svg>