<?xml version='1.0' encoding='utf-8'?>
<svg xmlns="http://www.w3.org/2000/svg" height="100px" version="1.0" viewBox="0 0 100 100" width="100px" x="0px" y="0px">
<line fill="none" stroke="#000000" stroke-width="2" x1="9" x2="26.5" y1="59" y2="59" /><line fill="none" stroke="#000000" stroke-width="2" x1="10" x2="26.5" y1="33.5" y2="33.5" /><line fill="none" stroke="#000000" stroke-width="2" x1="61.5" x2="61.5" y1="19" y2="3" /><line fill="none" stroke="#000000" stroke-width="2" x1="61.5" x2="90" y1="10.5" y2="10.5" /><line fill="none" stroke="#000000" stroke-width="2" x1="40.5" x2="82.5" y1="32" y2="26" /><line fill="none" stroke="#000000" stroke-width="2" x1="67" x2="67" y1="65" y2="44" /><line fill="none" stroke="#000000" stroke-width="2" x1="45" x2="90" y1="55" y2="55" /><line fill="none" stroke="#000000" stroke-width="2" x1="41" x2="41" y1="74" y2="91.5" /><line fill="none" stroke="#000000" stroke-width="2" x1="58" x2="58" y1="73" y2="90.5" /><line fill="none" stroke="#000000" stroke-width="2" x1="75" x2="75" y1="73" y2="90.5" /><line fill="none" stroke="#000000" stroke-width="2" x1="34.5" x2="97.5" y1="91.5" y2="91.5" /><polyline fill="none" points="45,66 90,66 90,44 44,44 44,67" stroke="#000000" stroke-width="2" /><polyline fill="none" points="92,91.5 92,73 40,73" stroke="#000000" stroke-width="2" /><path d="M4.5,92.5 c3.238,-8.584 4.5,-17.869 4.5,-46.5 v-36.0 h18.5 v73.0 c0,7.724 -0.25,8 -5,8 c-1.488,0 -4.585,-0.155 -9,-0.5" fill="none" stroke="#000000" stroke-width="2" /><path d="M30,91 c4.372,-14.112 6.5,-29.671 6.5,-51 v-21.0 h58.5" fill="none" stroke="#000000" stroke-width="2" /><path d="M85,30.5 c3.808,-3.414 6.633,-6.811 9.142,-11.013" fill="none" stroke="#000000" stroke-width="2" /><path d="M56,19 v13.5 c0,5.37 0.156,5.5 15.5,5.5 c20.676,0 20.812,-0.133 21.5,-10.5" fill="none" stroke="#000000" stroke-width="2" /></svg>