<?xml version='1.0' encoding='utf-8'?>
<svg xmlns="http://www.w3.org/2000/svg" height="100px" version="1.0" viewBox="0 0 100 100" width="100px" x="0px" y="0px">
<line fill="none" stroke="#000000" stroke-width="2" x1="6.5" x2="93.5" y1="14" y2="14" /><line fill="none" stroke="#000000" stroke-width="2" x1="33" x2="33" y1="21.5" y2="3.5" /><line fill="none" stroke="#000000" stroke-width="2" x1="67" x2="67" y1="21.5" y2="3.5" /><line fill="none" stroke="#000000" stroke-width="2" x1="30.5" x2="95.5" y1="42.5" y2="42.5" /><line fill="none" stroke="#000000" stroke-width="2" x1="24.5" x2="95" y1="81.5" y2="81.5" /><line fill="none" stroke="#000000" stroke-width="2" x1="29.5" x2="91" y1="68.5" y2="68.5" /><line fill="none" stroke="#000000" stroke-width="2" x1="62" x2="62" y1="29" y2="21" /><line fill="none" stroke="#000000" stroke-width="2" x1="62" x2="62" y1="95.5" y2="30" /><line fill="none" stroke="#000000" stroke-width="2" x1="17" x2="17" y1="94.5" y2="54" /><polyline fill="none" points="33,56 88,56 88,29 33,29" stroke="#000000" stroke-width="2" /><path d="M28,41 c-6.209,9.325 -14.33,17.161 -24,23" fill="none" stroke="#000000" stroke-width="2" /><path d="M27,22 c-5.556,7.976 -12.76,14.673 -22,20" fill="none" stroke="#000000" stroke-width="2" /></svg>