<?xml version='1.0' encoding='utf-8'?>
<svg xmlns="http://www.w3.org/2000/svg" height="100px" version="1.0" viewBox="0 0 100 100" width="100px" x="0px" y="0px">
<line fill="none" stroke="#000000" stroke-width="2" x1="6.5" x2="93.5" y1="14.5" y2="14.5" /><line fill="none" stroke="#000000" stroke-width="2" x1="32" x2="32" y1="23.5" y2="5" /><line fill="none" stroke="#000000" stroke-width="2" x1="68" x2="68" y1="23.5" y2="5" /><line fill="none" stroke="#000000" stroke-width="2" x1="50" x2="50" y1="29" y2="19" /><line fill="none" stroke="#000000" stroke-width="2" x1="22" x2="79" y1="88" y2="88" /><polyline fill="none" points="91,46 91,29 9,29 9,46" stroke="#000000" stroke-width="2" /><polyline fill="none" points="79,94 79,65 21,65 21,94" stroke="#000000" stroke-width="2" /><path d="M93,70 c-16.834,-7.577 -29.887,-15.317 -43,-25.3 c-13.113,9.982 -26.166,17.723 -43,25.3" fill="none" stroke="#000000" stroke-width="2" /><path d="M39,34 c-6.321,7.462 -15.553,14.229 -28,20" fill="none" stroke="#000000" stroke-width="2" /><path d="M88,53.5 c-7.865,-6.474 -17.862,-13.237 -29,-19.5" fill="none" stroke="#000000" stroke-width="2" /></svg>