<?xml version='1.0' encoding='utf-8'?>
<svg xmlns="http://www.w3.org/2000/svg" height="100px" version="1.0" viewBox="0 0 100 100" width="100px" x="0px" y="0px">
<line fill="none" stroke="#000000" stroke-width="2" x1="7" x2="93" y1="14" y2="14" /><line fill="none" stroke="#000000" stroke-width="2" x1="32" x2="32" y1="22" y2="3.5" /><line fill="none" stroke="#000000" stroke-width="2" x1="68" x2="68" y1="22" y2="3.5" /><line fill="none" stroke="#000000" stroke-width="2" x1="30.5" x2="30.5" y1="89.5" y2="70" /><line fill="none" stroke="#000000" stroke-width="2" x1="20" x2="93" y1="47.5" y2="47.5" /><line fill="none" stroke="#000000" stroke-width="2" x1="7" x2="19" y1="47.5" y2="47.5" /><line fill="none" stroke="#000000" stroke-width="2" x1="7" x2="93" y1="27" y2="27" /><line fill="none" stroke="#000000" stroke-width="2" x1="50" x2="50" y1="27" y2="18" /><polyline fill="none" points="19,61.5 19,35 81,35 81,60.5 20,60.5" stroke="#000000" stroke-width="2" /><path d="M49,60.5 c-9.934,6.644 -24.104,12.612 -44,17.5" fill="none" stroke="#000000" stroke-width="2" /><path d="M51,60.5 c7.319,14.048 23.418,25.703 44,31.5" fill="none" stroke="#000000" stroke-width="2" /><path d="M11,92 c17.232,-1.945 32.201,-4.481 50,-8.5" fill="none" stroke="#000000" stroke-width="2" /><path d="M65.5,77.5 c8.092,-3.718 15.371,-8.162 21.5,-13" fill="none" stroke="#000000" stroke-width="2" /></svg>