<?xml version='1.0' encoding='utf-8'?>
<svg xmlns="http://www.w3.org/2000/svg" height="100px" version="1.0" viewBox="0 0 100 100" width="100px" x="0px" y="0px">
<line fill="none" stroke="#000000" stroke-width="2" x1="6" x2="94" y1="13" y2="13" /><line fill="none" stroke="#000000" stroke-width="2" x1="32" x2="32" y1="21.5" y2="4.5" /><line fill="none" stroke="#000000" stroke-width="2" x1="68" x2="68" y1="22.5" y2="4.5" /><line fill="none" stroke="#000000" stroke-width="2" x1="95.5" x2="54" y1="37.5" y2="37.5" /><line fill="none" stroke="#000000" stroke-width="2" x1="53" x2="11" y1="63.5" y2="63.5" /><line fill="none" stroke="#000000" stroke-width="2" x1="48.5" x2="16.5" y1="52" y2="52" /><polyline fill="none" points="12.5,25.5 50,25.5 50,41.5 11.5,41.5" stroke="#000000" stroke-width="2" /><path d="M85.5,22 v63.0 c0,5.925 -0.561,6.5 -5.5,6.5 c-2.537,0 -8.003,-0.206 -13,-0.5" fill="none" stroke="#000000" stroke-width="2" /><path d="M74,73.5 c-3.75,-7.905 -9.365,-17.35 -15,-25" fill="none" stroke="#000000" stroke-width="2" /><path d="M4.5,91.5 c4.545,-9.704 7,-22.437 7,-41.5 v-25.5" fill="none" stroke="#000000" stroke-width="2" /><path d="M35,63.5 v25.5 c0,2.987 -0.553,3.5 -4.5,3.5 c-1.891,0 -5.094,-0.172 -9,-0.5" fill="none" stroke="#000000" stroke-width="2" /><path d="M13,89 c4.57,-5.234 8.255,-11.896 10.5,-19" fill="none" stroke="#000000" stroke-width="2" /><path d="M55,89 c-2.813,-6.277 -6.455,-12.966 -10.5,-19" fill="none" stroke="#000000" stroke-width="2" /></svg>