<?xml version='1.0' encoding='utf-8'?>
<svg xmlns="http://www.w3.org/2000/svg" height="100px" version="1.0" viewBox="0 0 100 100" width="100px" x="0px" y="0px">
<line fill="none" stroke="#000000" stroke-width="2" x1="7" x2="93" y1="14" y2="14" /><line fill="none" stroke="#000000" stroke-width="2" x1="32" x2="32" y1="22.5" y2="3.5" /><line fill="none" stroke="#000000" stroke-width="2" x1="68" x2="68" y1="22.5" y2="3.5" /><line fill="none" stroke="#000000" stroke-width="2" x1="19.5" x2="79" y1="38.5" y2="38.5" /><line fill="none" stroke="#000000" stroke-width="2" x1="18.5" x2="93" y1="59" y2="59" /><path d="M6,92.5 c3.813,-5.305 7.107,-11.171 10,-18" fill="none" stroke="#000000" stroke-width="2" /><path d="M19.5,49.5 h59.5 v-22.0 h-60.5 v41.5 h70.5 c0,17.249 -3.814,23 -10.5,23 c-3.191,0 -7.799,-0.302 -13.5,-1" fill="none" stroke="#000000" stroke-width="2" /><path d="M44.5,18 c-1.16,3.487 -2.449,6.579 -4,9.5" fill="none" stroke="#000000" stroke-width="2" /><path d="M76,84.5 c-2.305,-3.401 -4.89,-6.989 -8,-11" fill="none" stroke="#000000" stroke-width="2" /><path d="M55,87.75 c-1.569,-4.173 -3.488,-8.562 -6,-13.5" fill="none" stroke="#000000" stroke-width="2" /><path d="M34,91 c-0.834,-4.945 -2.088,-10.134 -4,-16" fill="none" stroke="#000000" stroke-width="2" /></svg>