<?xml version='1.0' encoding='utf-8'?>
<svg xmlns="http://www.w3.org/2000/svg" height="100px" version="1.0" viewBox="0 0 100 100" width="100px" x="0px" y="0px">
<line fill="none" stroke="#000000" stroke-width="2" x1="6.5" x2="93.5" y1="13.5" y2="13.5" /><line fill="none" stroke="#000000" stroke-width="2" x1="32" x2="32" y1="25" y2="5" /><line fill="none" stroke="#000000" stroke-width="2" x1="68" x2="68" y1="23" y2="5" /><line fill="none" stroke="#000000" stroke-width="2" x1="7" x2="93" y1="42" y2="42" /><line fill="none" stroke="#000000" stroke-width="2" x1="50" x2="50" y1="60.5" y2="24" /><line fill="none" stroke="#000000" stroke-width="2" x1="50" x2="50" y1="88" y2="61.5" /><line fill="none" stroke="#000000" stroke-width="2" x1="18.5" x2="82.5" y1="89" y2="89" /><line fill="none" stroke="#000000" stroke-width="2" x1="18.5" x2="82.5" y1="74.5" y2="74.5" /><polyline fill="none" points="82.5,94 82.5,60.5 17.5,60.5 17.5,94" stroke="#000000" stroke-width="2" /><path d="M14,25 c25,0 49.089,-1.36 72,-4" fill="none" stroke="#000000" stroke-width="2" /><path d="M6,63.5 c20.788,-6.79 34.356,-13.927 43,-21.5" fill="none" stroke="#000000" stroke-width="2" /><path d="M94,63.5 c-20.788,-6.79 -34.383,-13.896 -43,-21.5" fill="none" stroke="#000000" stroke-width="2" /><path d="M32,42 c-3.102,-4.502 -6.604,-9.086 -10,-13" fill="none" stroke="#000000" stroke-width="2" /><path d="M68,42 c4.106,-5.01 7.746,-10.485 10,-15" fill="none" stroke="#000000" stroke-width="2" /></svg>