<?xml version='1.0' encoding='utf-8'?>
<svg xmlns="http://www.w3.org/2000/svg" height="100px" version="1.0" viewBox="0 0 100 100" width="100px" x="0px" y="0px">
<line fill="none" stroke="#000000" stroke-width="2" x1="6" x2="94" y1="13" y2="13" /><line fill="none" stroke="#000000" stroke-width="2" x1="32" x2="32" y1="21.5" y2="4.5" /><line fill="none" stroke="#000000" stroke-width="2" x1="68" x2="68" y1="21.5" y2="4.5" /><line fill="none" stroke="#000000" stroke-width="2" x1="25.5" x2="41" y1="59.5" y2="59.5" /><line fill="none" stroke="#000000" stroke-width="2" x1="25.5" x2="25.5" y1="87" y2="46.5" /><line fill="none" stroke="#000000" stroke-width="2" x1="13" x2="13" y1="91" y2="55" /><line fill="none" stroke="#000000" stroke-width="2" x1="52" x2="88.5" y1="88" y2="88" /><line fill="none" stroke="#000000" stroke-width="2" x1="57" x2="91" y1="28" y2="28" /><polyline fill="none" points="9.5,46.5 41,46.5 41,25.5 8.5,25.5 8.5,47.5" stroke="#000000" stroke-width="2" /><polyline fill="none" points="51,94 51,62.5 88.5,62.5 88.5,94" stroke="#000000" stroke-width="2" /><path d="M45,40.5 c7.792,-6.524 13.646,-13.543 18,-21.5" fill="none" stroke="#000000" stroke-width="2" /><path d="M90.129,28.508 c-8.9,15.765 -24.404,27.578 -48.129,35.492" fill="none" stroke="#000000" stroke-width="2" /><path d="M53,32.5 c10.631,13.009 24.631,23.415 43,31.5" fill="none" stroke="#000000" stroke-width="2" /><path d="M5.5,93 c11.833,-3.21 24.784,-7.483 38,-12.5" fill="none" stroke="#000000" stroke-width="2" /></svg>