<?xml version='1.0' encoding='utf-8'?>
<svg xmlns="http://www.w3.org/2000/svg" height="100px" version="1.0" viewBox="0 0 100 100" width="100px" x="0px" y="0px">
<line fill="none" stroke="#000000" stroke-width="2" x1="6.5" x2="93.5" y1="11.5" y2="11.5" /><line fill="none" stroke="#000000" stroke-width="2" x1="33" x2="33" y1="18" y2="3.5" /><line fill="none" stroke="#000000" stroke-width="2" x1="67" x2="67" y1="18" y2="3.5" /><line fill="none" stroke="#000000" stroke-width="2" x1="34" x2="85" y1="33" y2="33" /><line fill="none" stroke="#000000" stroke-width="2" x1="25.5" x2="95" y1="53" y2="53" /><polyline fill="none" points="34,45 86,45 86,21.5 33,21.5 33,46" stroke="#000000" stroke-width="2" /><path d="M9,92 c5.438,-7.595 9.913,-16.249 13,-25" fill="none" stroke="#000000" stroke-width="2" /><path d="M26,33.5 c-4.551,-3.661 -9.941,-7.585 -16,-11.5" fill="none" stroke="#000000" stroke-width="2" /><path d="M22.5,55 c-5.014,-3.913 -10.751,-7.887 -17.5,-12" fill="none" stroke="#000000" stroke-width="2" /><path d="M50.5,93.5 c11.66,-6.316 24.551,-20.328 29,-31.5" fill="none" stroke="#000000" stroke-width="2" /><path d="M30.5,88 c11.627,-5.901 24.864,-17.253 30.5,-26" fill="none" stroke="#000000" stroke-width="2" /><path d="M41,62 h50.0 c0,23.362 -3.691,29.5 -8.5,29.5 c-3.276,0 -7.634,-0.163 -12,-0.5" fill="none" stroke="#000000" stroke-width="2" /><path d="M21.5,77 c10.238,-5.542 21.836,-15.89 27,-24" fill="none" stroke="#000000" stroke-width="2" /></svg>