<?xml version='1.0' encoding='utf-8'?>
<svg xmlns="http://www.w3.org/2000/svg" height="100px" version="1.0" viewBox="0 0 100 100" width="100px" x="0px" y="0px">
<line fill="none" stroke="#000000" stroke-width="2" x1="7" x2="93" y1="11.5" y2="11.5" /><line fill="none" stroke="#000000" stroke-width="2" x1="32" x2="32" y1="18" y2="3" /><line fill="none" stroke="#000000" stroke-width="2" x1="68" x2="68" y1="18" y2="3" /><line fill="none" stroke="#000000" stroke-width="2" x1="4.5" x2="95.5" y1="32" y2="32" /><line fill="none" stroke="#000000" stroke-width="2" x1="50" x2="50" y1="21.5" y2="15" /><line fill="none" stroke="#000000" stroke-width="2" x1="50" x2="50" y1="94" y2="22.5" /><line fill="none" stroke="#000000" stroke-width="2" x1="86.5" x2="13.5" y1="69" y2="69" /><line fill="none" stroke="#000000" stroke-width="2" x1="86.5" x2="86.5" y1="47" y2="94" /><polyline fill="none" points="15.5,43 82.5,43 82.5,21.5 15.5,21.5" stroke="#000000" stroke-width="2" /><polyline fill="none" points="86.5,58.5 64.5,58.5 64.5,47" stroke="#000000" stroke-width="2" /><polyline fill="none" points="86.5,79.5 64.5,79.5 64.5,93.5" stroke="#000000" stroke-width="2" /><polyline fill="none" points="13.5,58.5 35.5,58.5 35.5,47" stroke="#000000" stroke-width="2" /><polyline fill="none" points="12,79.5 35.5,79.5 35.5,93.5" stroke="#000000" stroke-width="2" /><path d="M4.5,94 c5.664,-6.415 9,-16.317 9,-29.5 V47.0" fill="none" stroke="#000000" stroke-width="2" /></svg>