<?xml version='1.0' encoding='utf-8'?>
<svg xmlns="http://www.w3.org/2000/svg" height="100px" version="1.0" viewBox="0 0 100 100" width="100px" x="0px" y="0px">
<line fill="none" stroke="#000000" stroke-width="2" x1="16" x2="16" y1="95" y2="52.5" /><line fill="none" stroke="#000000" stroke-width="2" x1="61.5" x2="28" y1="52.5" y2="52.5" /><line fill="none" stroke="#000000" stroke-width="2" x1="46.5" x2="46.5" y1="42" y2="19.5" /><line fill="none" stroke="#000000" stroke-width="2" x1="71" x2="97" y1="32.5" y2="32.5" /><line fill="none" stroke="#000000" stroke-width="2" x1="6" x2="94" y1="12" y2="12" /><line fill="none" stroke="#000000" stroke-width="2" x1="32" x2="32" y1="20" y2="3.5" /><line fill="none" stroke="#000000" stroke-width="2" x1="68" x2="68" y1="20" y2="3.5" /><polyline fill="none" points="32,25 32,42 61,42 61,25" stroke="#000000" stroke-width="2" /><path d="M27,39.5 c-6.209,9.326 -14.33,17.162 -24,23" fill="none" stroke="#000000" stroke-width="2" /><path d="M26,20.5 c-5.556,7.976 -12.76,14.672 -22,20" fill="none" stroke="#000000" stroke-width="2" /><path d="M60,93.5 c20.207,-13.277 28.916,-28.422 32,-61" fill="none" stroke="#000000" stroke-width="2" /><path d="M96.5,93.5 c-14.371,-12.055 -21.105,-26.017 -24,-54.5" fill="none" stroke="#000000" stroke-width="2" /><path d="M63.5,50 c4.709,-8.474 8.766,-19.722 11,-31" fill="none" stroke="#000000" stroke-width="2" /><path d="M69,76.5 c-6.223,3.749 -13.896,6.95 -23,9.5" fill="none" stroke="#000000" stroke-width="2" /><path d="M25,92 c6.736,-6.091 10,-14.579 10,-29 h22.5 v19.0" fill="none" stroke="#000000" stroke-width="2" /></svg>