<?xml version='1.0' encoding='utf-8'?>
<svg xmlns="http://www.w3.org/2000/svg" height="100px" version="1.0" viewBox="0 0 100 100" width="100px" x="0px" y="0px">
<line fill="none" stroke="#000000" stroke-width="2" x1="7" x2="93" y1="12" y2="12" /><line fill="none" stroke="#000000" stroke-width="2" x1="32" x2="32" y1="20" y2="3.5" /><line fill="none" stroke="#000000" stroke-width="2" x1="68" x2="68" y1="20" y2="3.5" /><line fill="none" stroke="#000000" stroke-width="2" x1="50" x2="50" y1="51" y2="16" /><line fill="none" stroke="#000000" stroke-width="2" x1="6.5" x2="93.5" y1="24" y2="24" /><line fill="none" stroke="#000000" stroke-width="2" x1="95" x2="5" y1="51" y2="51" /><line fill="none" stroke="#000000" stroke-width="2" x1="13.5" x2="86.5" y1="90" y2="90" /><line fill="none" stroke="#000000" stroke-width="2" x1="13.5" x2="13.5" y1="59" y2="95" /><polyline fill="none" points="30,81.5 71,81.5 71,68.5 29,68.5 29,82.5" stroke="#000000" stroke-width="2" /><polyline fill="none" points="86.5,95 86.5,60 14.5,60" stroke="#000000" stroke-width="2" /><path d="M7,47.5 c11.914,-5.263 19.669,-12.492 23,-20.5" fill="none" stroke="#000000" stroke-width="2" /><path d="M45,46 c-6.043,-4.265 -12.98,-7.854 -20.5,-10.5" fill="none" stroke="#000000" stroke-width="2" /><path d="M55,46 c9.135,-5.23 15.167,-11.852 18,-19" fill="none" stroke="#000000" stroke-width="2" /><path d="M93,47.5 c-7.369,-4.872 -15.842,-8.946 -25,-12" fill="none" stroke="#000000" stroke-width="2" /></svg>