<?xml version='1.0' encoding='utf-8'?>
<svg xmlns="http://www.w3.org/2000/svg" height="100px" version="1.0" viewBox="0 0 100 100" width="100px" x="0px" y="0px">
<line fill="none" stroke="#000000" stroke-width="2" x1="6" x2="94" y1="14" y2="14" /><line fill="none" stroke="#000000" stroke-width="2" x1="33" x2="33" y1="22.5" y2="3.5" /><line fill="none" stroke="#000000" stroke-width="2" x1="67" x2="67" y1="22.5" y2="3.5" /><line fill="none" stroke="#000000" stroke-width="2" x1="50" x2="50" y1="35" y2="94.5" /><line fill="none" stroke="#000000" stroke-width="2" x1="92.5" x2="50.5" y1="34.5" y2="34.5" /><line fill="none" stroke="#000000" stroke-width="2" x1="72.5" x2="72.5" y1="88.5" y2="34.5" /><line fill="none" stroke="#000000" stroke-width="2" x1="51" x2="94.5" y1="88.5" y2="88.5" /><line fill="none" stroke="#000000" stroke-width="2" x1="50" x2="91" y1="70" y2="70" /><line fill="none" stroke="#000000" stroke-width="2" x1="50" x2="91" y1="52" y2="52" /><line fill="none" stroke="#000000" stroke-width="2" x1="42.5" x2="16.5" y1="31" y2="31" /><line fill="none" stroke="#000000" stroke-width="2" x1="44" x2="7.5" y1="54.5" y2="54.5" /><path d="M79,20.5 c-1.9,5.163 -4.201,9.714 -7,14" fill="none" stroke="#000000" stroke-width="2" /><path d="M40,49.5 c6.996,-8.004 11.897,-17.06 15.5,-29" fill="none" stroke="#000000" stroke-width="2" /><path d="M8.5,48.5 c4.624,-7.091 8.395,-16.665 11,-28.5" fill="none" stroke="#000000" stroke-width="2" /><path d="M5.5,91 c12.727,-7.243 22,-23.167 22,-40.5 V31.0" fill="none" stroke="#000000" stroke-width="2" /><path d="M44,86.5 c-5.135,-9.281 -10.982,-19.1 -17,-28.5" fill="none" stroke="#000000" stroke-width="2" /></svg>