<?xml version='1.0' encoding='utf-8'?>
<svg xmlns="http://www.w3.org/2000/svg" height="100px" version="1.0" viewBox="0 0 100 100" width="100px" x="0px" y="0px">
<line fill="none" stroke="#000000" stroke-width="2" x1="7" x2="93" y1="12" y2="12" /><line fill="none" stroke="#000000" stroke-width="2" x1="32" x2="32" y1="20.5" y2="3" /><line fill="none" stroke="#000000" stroke-width="2" x1="68" x2="68" y1="20.5" y2="3" /><line fill="none" stroke="#000000" stroke-width="2" x1="24" x2="24" y1="65.5" y2="94.5" /><line fill="none" stroke="#000000" stroke-width="2" x1="24" x2="84" y1="90" y2="90" /><line fill="none" stroke="#000000" stroke-width="2" x1="25" x2="84" y1="77.5" y2="77.5" /><line fill="none" stroke="#000000" stroke-width="2" x1="5" x2="95" y1="55" y2="55" /><line fill="none" stroke="#000000" stroke-width="2" x1="77.5" x2="14" y1="44.5" y2="44.5" /><line fill="none" stroke="#000000" stroke-width="2" x1="47" x2="47" y1="55" y2="34.5" /><line fill="none" stroke="#000000" stroke-width="2" x1="62" x2="62" y1="33.5" y2="20.5" /><line fill="none" stroke="#000000" stroke-width="2" x1="38" x2="38" y1="33.5" y2="20.5" /><polyline fill="none" points="84,94.5 84,65.5 24,65.5" stroke="#000000" stroke-width="2" /><polyline fill="none" points="15,34.5 86,34.5 86,20.5 14,20.5 14,35.5" stroke="#000000" stroke-width="2" /><path d="M5,70 c37.08,-7.771 66.109,-19.839 83,-32.5" fill="none" stroke="#000000" stroke-width="2" /></svg>