<?xml version='1.0' encoding='utf-8'?>
<svg xmlns="http://www.w3.org/2000/svg" height="100px" version="1.0" viewBox="0 0 100 100" width="100px" x="0px" y="0px">
<line fill="none" stroke="#000000" stroke-width="2" x1="6.5" x2="93.5" y1="14" y2="14" /><line fill="none" stroke="#000000" stroke-width="2" x1="33" x2="33" y1="21.5" y2="3.5" /><line fill="none" stroke="#000000" stroke-width="2" x1="67" x2="67" y1="19" y2="3.5" /><line fill="none" stroke="#000000" stroke-width="2" x1="6" x2="39" y1="37.5" y2="37.5" /><line fill="none" stroke="#000000" stroke-width="2" x1="9.5" x2="35.5" y1="49" y2="49" /><line fill="none" stroke="#000000" stroke-width="2" x1="9.5" x2="35.5" y1="60.5" y2="60.5" /><line fill="none" stroke="#000000" stroke-width="2" x1="9" x2="36" y1="26" y2="26" /><line fill="none" stroke="#000000" stroke-width="2" x1="50" x2="50" y1="60" y2="94" /><line fill="none" stroke="#000000" stroke-width="2" x1="51" x2="89.5" y1="89" y2="89" /><line fill="none" stroke="#000000" stroke-width="2" x1="51" x2="89.5" y1="74" y2="74" /><line fill="none" stroke="#000000" stroke-width="2" x1="39" x2="96" y1="47" y2="47" /><line fill="none" stroke="#000000" stroke-width="2" x1="88.5" x2="44" y1="29.5" y2="29.5" /><line fill="none" stroke="#000000" stroke-width="2" x1="66" x2="66" y1="47" y2="21.5" /><polyline fill="none" points="11,90 35,90 35,72.5 10,72.5 10,95" stroke="#000000" stroke-width="2" /><polyline fill="none" points="89.5,94 89.5,59.5 50.5,59.5" stroke="#000000" stroke-width="2" /><path d="M35.5,67 c24.986,-11.087 44.562,-26.196 58,-43.5" fill="none" stroke="#000000" stroke-width="2" /></svg>