<?xml version='1.0' encoding='utf-8'?>
<svg xmlns="http://www.w3.org/2000/svg" height="100px" version="1.0" viewBox="0 0 100 100" width="100px" x="0px" y="0px">
<line fill="none" stroke="#000000" stroke-width="2" x1="66.5" x2="66.5" y1="21.5" y2="3" /><line fill="none" stroke="#000000" stroke-width="2" x1="46.5" x2="84" y1="39.5" y2="33" /><line fill="none" stroke="#000000" stroke-width="2" x1="66.5" x2="91" y1="11.5" y2="11.5" /><line fill="none" stroke="#000000" stroke-width="2" x1="40.5" x2="3.5" y1="45" y2="45" /><polyline fill="none" points="9.405,33.5 37,33.5 37,10 8.5,10 8.5,34.5" stroke="#000000" stroke-width="2" /><path d="M86.5,35.5 c2.733,-4.133 4.761,-8.247 6.561,-13.335" fill="none" stroke="#000000" stroke-width="2" /><path d="M38,91 c5.656,-14.072 8.5,-29.671 8.5,-51 v-18.5 H94.0" fill="none" stroke="#000000" stroke-width="2" /><path d="M62,25.5 v20.5 c0,5.372 0.151,5.5 13,5.5 c16.433,0 16.689,-0.222 17.5,-16" fill="none" stroke="#000000" stroke-width="2" /><path d="M76,58.5 v24.3 c0,6.793 0.563,7.2 9,7.2 c8.422,0 8.605,-0.164 9,-19" fill="none" stroke="#000000" stroke-width="2" /><path d="M45,91 c12.408,-5.126 17.5,-13.229 17.5,-32.5" fill="none" stroke="#000000" stroke-width="2" /><path d="M14,45 c-1.537,10.319 -4.266,22.159 -7,31" fill="none" stroke="#000000" stroke-width="2" /><path d="M11,59.5 h25.0 c-1.776,29.046 -3.351,31.5 -7.5,31.5 c-2.227,0 -8.164,-0.433 -12.5,-1" fill="none" stroke="#000000" stroke-width="2" /></svg>