<?xml version='1.0' encoding='utf-8'?>
<svg xmlns="http://www.w3.org/2000/svg" height="100px" version="1.0" viewBox="0 0 100 100" width="100px" x="0px" y="0px">
<line fill="none" stroke="#000000" stroke-width="2" x1="10.5" x2="89.5" y1="11" y2="11" /><line fill="none" stroke="#000000" stroke-width="2" x1="50" x2="50" y1="87.5" y2="41" /><polyline fill="none" points="17,69.5 84,69.5 84,51.5 16,51.5 16,76.5" stroke="#000000" stroke-width="2" /><path d="M8,45 c36.297,-5.448 66.545,-19.242 80.787,-33.702" fill="none" stroke="#000000" stroke-width="2" /><path d="M92,45 c-28.106,-4.912 -49.679,-15.12 -66,-30" fill="none" stroke="#000000" stroke-width="2" /><path d="M12.5,37.5 c5.178,-5.497 8.904,-11.95 10.5,-18" fill="none" stroke="#000000" stroke-width="2" /><path d="M60,24.5 c-3.812,-3.141 -9.233,-6.616 -15,-9.5" fill="none" stroke="#000000" stroke-width="2" /><path d="M94,93 c-5.668,-6.06 -13.436,-13.824 -20,-20" fill="none" stroke="#000000" stroke-width="2" /><path d="M8,91 c23.123,-0.979 50.211,-3.814 76.5,-8" fill="none" stroke="#000000" stroke-width="2" /></svg>