<?xml version='1.0' encoding='utf-8'?>
<svg xmlns="http://www.w3.org/2000/svg" height="100px" version="1.0" viewBox="0 0 100 100" width="100px" x="0px" y="0px">
<line fill="none" stroke="#000000" stroke-width="2" x1="20.5" x2="20.5" y1="85" y2="6" /><polyline fill="none" points="7,52 35,52 35,21 6,21 6,60" stroke="#000000" stroke-width="2" /><polyline fill="none" points="47.5,54.5 79,54.5 79,28.5 48.5,28.5" stroke="#000000" stroke-width="2" /><path d="M41,89 c-1.764,-8.9 -4.873,-20.247 -8,-29" fill="none" stroke="#000000" stroke-width="2" /><path d="M3,90 c10.628,-2.313 23.305,-6.738 35.5,-12.5" fill="none" stroke="#000000" stroke-width="2" /><path d="M85.5,62 c-2.523,0 -6.672,-0.167 -11,-0.5" fill="none" stroke="#000000" stroke-width="2" /><path d="M48.5,15 H93.0 c-1.432,42.487 -3.448,47 -7.5,47" fill="none" stroke="#000000" stroke-width="2" /><path d="M38.5,37.5 c5.658,-9.718 10.379,-22.011 13,-34.5" fill="none" stroke="#000000" stroke-width="2" /><path d="M95.5,66.5 c-2.187,24.755 -2.464,25 -25.783,25 c-21.916,0 -22.217,-0.234 -22.217,-12 v-52.0" fill="none" stroke="#000000" stroke-width="2" /></svg>