<?xml version='1.0' encoding='utf-8'?>
<svg xmlns="http://www.w3.org/2000/svg" height="100px" version="1.0" viewBox="0 0 100 100" width="100px" x="0px" y="0px">
<line fill="none" stroke="#000000" stroke-width="2" x1="21.5" x2="21.5" y1="84.5" y2="6" /><line fill="none" stroke="#000000" stroke-width="2" x1="68" x2="68" y1="18" y2="4" /><line fill="none" stroke="#000000" stroke-width="2" x1="40.5" x2="96" y1="18" y2="18" /><polyline fill="none" points="7.5,52 36.5,52 36.5,21 6.5,21 6.5,60" stroke="#000000" stroke-width="2" /><path d="M40.5,86.5 c-1.764,-8.44 -4.873,-19.2 -8,-27.5" fill="none" stroke="#000000" stroke-width="2" /><path d="M3.5,90 c10.329,-2.313 22.648,-6.738 34.5,-12.5" fill="none" stroke="#000000" stroke-width="2" /><path d="M59,23 c-3.822,8.748 -10.064,17.254 -18.5,25" fill="none" stroke="#000000" stroke-width="2" /><path d="M95.5,48.5 c-5.024,-8.309 -11.396,-16.972 -18.5,-25" fill="none" stroke="#000000" stroke-width="2" /><path d="M39,92 c25.498,-9.979 37.76,-22.255 46,-47" fill="none" stroke="#000000" stroke-width="2" /><path d="M96.5,92 c-24.914,-9.854 -36.214,-21.858 -44.5,-47" fill="none" stroke="#000000" stroke-width="2" /></svg>