<?xml version='1.0' encoding='utf-8'?>
<svg xmlns="http://www.w3.org/2000/svg" height="100px" version="1.0" viewBox="0 0 100 100" width="100px" x="0px" y="0px">
<line fill="none" stroke="#000000" stroke-width="2" x1="46" x2="89" y1="43" y2="43" /><line fill="none" stroke="#000000" stroke-width="2" x1="46" x2="89" y1="26.5" y2="26.5" /><line fill="none" stroke="#000000" stroke-width="2" x1="21" x2="21" y1="84.5" y2="6" /><polyline fill="none" points="46,60.5 89,60.5 89,10.5 45,10.5 45,61.5" stroke="#000000" stroke-width="2" /><polyline fill="none" points="7,52 36,52 36,21 6,21 6,60" stroke="#000000" stroke-width="2" /><path d="M73.5,60.5 v25.0 c0,4.802 0.227,5 9,5 c11.464,0 11.638,-0.136 12.5,-22.5" fill="none" stroke="#000000" stroke-width="2" /><path d="M36.5,92 c15.305,-6.038 24,-17.696 24,-31.5" fill="none" stroke="#000000" stroke-width="2" /><path d="M39.5,86.5 c-1.764,-8.134 -4.873,-18.501 -8,-26.5" fill="none" stroke="#000000" stroke-width="2" /><path d="M2.5,90 c10.329,-2.313 22.648,-6.738 34.5,-12.5" fill="none" stroke="#000000" stroke-width="2" /></svg>