<?xml version='1.0' encoding='utf-8'?>
<svg xmlns="http://www.w3.org/2000/svg" height="100px" version="1.0" viewBox="0 0 100 100" width="100px" x="0px" y="0px">
<line fill="none" stroke="#000000" stroke-width="2" x1="20.5" x2="20.5" y1="84.5" y2="6" /><line fill="none" stroke="#000000" stroke-width="2" x1="45.5" x2="89.5" y1="75" y2="75" /><line fill="none" stroke="#000000" stroke-width="2" x1="45.5" x2="89.5" y1="61" y2="61" /><line fill="none" stroke="#000000" stroke-width="2" x1="67" x2="67" y1="38" y2="10.5" /><line fill="none" stroke="#000000" stroke-width="2" x1="42" x2="93" y1="23.5" y2="23.5" /><polyline fill="none" points="7,52 35,52 35,21 6,21 6,60" stroke="#000000" stroke-width="2" /><polyline fill="none" points="42,38 93,38 93,9.5 41,9.5 41,39" stroke="#000000" stroke-width="2" /><path d="M39.5,89 c-1.764,-8.9 -4.873,-20.247 -8,-29" fill="none" stroke="#000000" stroke-width="2" /><path d="M3,90 c10.18,-2.313 22.321,-6.738 34,-12.5" fill="none" stroke="#000000" stroke-width="2" /><path d="M44.5,92 V47.0 h45.0 v38.96 c0,4.177 -0.469,4.54 -7.5,4.54 c-2.172,0 -5.876,-0.137 -12.5,-0.5" fill="none" stroke="#000000" stroke-width="2" /></svg>