<?xml version='1.0' encoding='utf-8'?>
<svg xmlns="http://www.w3.org/2000/svg" height="100px" version="1.0" viewBox="0 0 100 100" width="100px" x="0px" y="0px">
<line fill="none" stroke="#000000" stroke-width="2" x1="8" x2="49" y1="45" y2="45" /><line fill="none" stroke="#000000" stroke-width="2" x1="7" x2="50" y1="35" y2="35" /><line fill="none" stroke="#000000" stroke-width="2" x1="28.5" x2="28.5" y1="35" y2="53.5" /><line fill="none" stroke="#000000" stroke-width="2" x1="6.5" x2="50.5" y1="21.5" y2="21.5" /><line fill="none" stroke="#000000" stroke-width="2" x1="9" x2="48" y1="12" y2="12" /><line fill="none" stroke="#000000" stroke-width="2" x1="28.5" x2="28.5" y1="21.5" y2="4.5" /><line fill="none" stroke="#000000" stroke-width="2" x1="50" x2="50" y1="89" y2="52" /><polyline fill="none" points="17,74 84,74 84,59 16,59 16,80.5" stroke="#000000" stroke-width="2" /><path d="M54.5,25 c8.657,4.243 16.641,9.812 27,19" fill="none" stroke="#000000" stroke-width="2" /><path d="M50.5,49 c12.129,-7.121 18,-16.945 18,-33 v-11.5" fill="none" stroke="#000000" stroke-width="2" /><path d="M51,13.5 h35.0 c0,31.552 3.063,38.5 6.5,38.5 c1.752,0 3.137,-2.419 4.5,-14.5" fill="none" stroke="#000000" stroke-width="2" /><path d="M35,35 c3.315,-4.214 6.091,-8.614 8.5,-13.5" fill="none" stroke="#000000" stroke-width="2" /><path d="M20.5,35 c-1.959,-4.451 -4.396,-9.156 -7,-13.5" fill="none" stroke="#000000" stroke-width="2" /><path d="M94,93.5 c-5.668,-4.544 -13.432,-10.374 -20,-15" fill="none" stroke="#000000" stroke-width="2" /><path d="M8,91.5 c23.123,-0.733 49.219,-2.792 75.5,-6" fill="none" stroke="#000000" stroke-width="2" /></svg>