<?xml version='1.0' encoding='utf-8'?>
<svg xmlns="http://www.w3.org/2000/svg" height="100px" version="1.0" viewBox="0 0 100 100" width="100px" x="0px" y="0px">
<line fill="none" stroke="#000000" stroke-width="2" x1="38.5" x2="4.5" y1="24" y2="24" /><line fill="none" stroke="#000000" stroke-width="2" x1="21.5" x2="21.5" y1="24" y2="6" /><line fill="none" stroke="#000000" stroke-width="2" x1="21.5" x2="21.5" y1="94" y2="50" /><polyline fill="none" points="47,54.5 78,54.5 78,28.5 48,28.5" stroke="#000000" stroke-width="2" /><path d="M33,59 c3.371,-3.937 6.654,-8.925 9.5,-14.5" fill="none" stroke="#000000" stroke-width="2" /><path d="M40,67 c-4.434,-5.175 -11.332,-12.456 -17,-18" fill="none" stroke="#000000" stroke-width="2" /><path d="M2.5,65.5 c16.756,-10.153 27.396,-22.303 35.077,-40.882" fill="none" stroke="#000000" stroke-width="2" /><path d="M85,62 c-2.523,0 -6.672,-0.167 -11,-0.5" fill="none" stroke="#000000" stroke-width="2" /><path d="M48,15 h44.5 c-1.432,42.487 -3.448,47 -7.5,47" fill="none" stroke="#000000" stroke-width="2" /><path d="M38,37.5 c5.658,-9.718 10.379,-22.011 13,-34.5" fill="none" stroke="#000000" stroke-width="2" /><path d="M95,66.5 c-2.187,24.755 -2.464,25 -26.783,25 c-20.916,0 -21.217,-0.234 -21.217,-12 v-52.0" fill="none" stroke="#000000" stroke-width="2" /></svg>