<?xml version='1.0' encoding='utf-8'?>
<svg xmlns="http://www.w3.org/2000/svg" height="100px" version="1.0" viewBox="0 0 100 100" width="100px" x="0px" y="0px">
<line fill="none" stroke="#000000" stroke-width="2" x1="50" x2="50" y1="15.5" y2="3.5" /><line fill="none" stroke="#000000" stroke-width="2" x1="50" x2="50" y1="56" y2="45" /><line fill="none" stroke="#000000" stroke-width="2" x1="7" x2="93" y1="56" y2="56" /><line fill="none" stroke="#000000" stroke-width="2" x1="30.5" x2="30.5" y1="89" y2="67" /><polyline fill="none" points="90.5,32.5 90.5,15.5 9.5,15.5 9.5,32.5" stroke="#000000" stroke-width="2" /><polyline fill="none" points="23.5,45 77.5,45 77.5,25.5 22.5,25.5 22.5,46" stroke="#000000" stroke-width="2" /><path d="M30,15.5 c-2.568,-3.562 -5.295,-6.981 -8,-10" fill="none" stroke="#000000" stroke-width="2" /><path d="M70.5,15.5 c2.842,-3.768 5.379,-7.477 7.5,-11" fill="none" stroke="#000000" stroke-width="2" /><path d="M49,56 c-9.934,7.651 -24.082,14.437 -44,20" fill="none" stroke="#000000" stroke-width="2" /><path d="M51,56 c7.448,16.339 23.893,29.89 44,36" fill="none" stroke="#000000" stroke-width="2" /><path d="M11,92 c17.236,-2.266 32.201,-5.261 50,-10" fill="none" stroke="#000000" stroke-width="2" /><path d="M65.5,75.5 c8.107,-4.224 15.449,-9.387 21.5,-15" fill="none" stroke="#000000" stroke-width="2" /></svg>