<?xml version='1.0' encoding='utf-8'?>
<svg xmlns="http://www.w3.org/2000/svg" height="100px" version="1.0" viewBox="0 0 100 100" width="100px" x="0px" y="0px">
<line fill="none" stroke="#000000" stroke-width="2" x1="5.5" x2="37.5" y1="24" y2="24" /><line fill="none" stroke="#000000" stroke-width="2" x1="9" x2="35" y1="38" y2="38" /><line fill="none" stroke="#000000" stroke-width="2" x1="9" x2="35" y1="52" y2="52" /><line fill="none" stroke="#000000" stroke-width="2" x1="8.5" x2="35.5" y1="10.5" y2="10.5" /><polyline fill="none" points="10.5,88.5 34.5,88.5 34.5,66 9.5,66 9.5,94.5" stroke="#000000" stroke-width="2" /><path d="M41,10 h43.0 c0,64.368 4.363,82 8,82 c2,0 3.873,-4.224 5,-22" fill="none" stroke="#000000" stroke-width="2" /><path d="M41,51.5 c11.063,-2.248 24.633,-5.935 37,-10" fill="none" stroke="#000000" stroke-width="2" /><path d="M56.5,10 v12.0 c0,39.741 -5.398,56.241 -18,69" fill="none" stroke="#000000" stroke-width="2" /></svg>