<?xml version='1.0' encoding='utf-8'?>
<svg xmlns="http://www.w3.org/2000/svg" height="100px" version="1.0" viewBox="0 0 100 100" width="100px" x="0px" y="0px">
<line fill="none" stroke="#000000" stroke-width="2" x1="6" x2="38.5" y1="24" y2="24" /><line fill="none" stroke="#000000" stroke-width="2" x1="9.5" x2="35.5" y1="38" y2="38" /><line fill="none" stroke="#000000" stroke-width="2" x1="9.5" x2="35.5" y1="52" y2="52" /><line fill="none" stroke="#000000" stroke-width="2" x1="9" x2="36" y1="10.5" y2="10.5" /><line fill="none" stroke="#000000" stroke-width="2" x1="91" x2="44" y1="87" y2="87" /><line fill="none" stroke="#000000" stroke-width="2" x1="71.5" x2="91" y1="68" y2="68" /><line fill="none" stroke="#000000" stroke-width="2" x1="44" x2="63.5" y1="68" y2="68" /><polyline fill="none" points="11,88.5 35,88.5 35,66 10,66 10,94.5" stroke="#000000" stroke-width="2" /><polyline fill="none" points="68.5,49.5 91,49.5 91,93" stroke="#000000" stroke-width="2" /><path d="M39,43.5 c10.482,-11.61 17.53,-24.411 22,-40" fill="none" stroke="#000000" stroke-width="2" /><path d="M58,12 h33.5 c-0.68,22.472 -3.289,26 -10.5,26 c-4.002,0 -9.811,-0.321 -17,-1" fill="none" stroke="#000000" stroke-width="2" /><path d="M44,93 V51.5 c7.331,-1.306 14.114,-3.549 20,-6.5" fill="none" stroke="#000000" stroke-width="2" /></svg>