<?xml version='1.0' encoding='utf-8'?>
<svg xmlns="http://www.w3.org/2000/svg" height="100px" version="1.0" viewBox="0 0 100 100" width="100px" x="0px" y="0px">
<line fill="none" stroke="#000000" stroke-width="2" x1="6" x2="37.5" y1="24" y2="24" /><line fill="none" stroke="#000000" stroke-width="2" x1="9.5" x2="34" y1="38" y2="38" /><line fill="none" stroke="#000000" stroke-width="2" x1="9.5" x2="34" y1="52" y2="52" /><line fill="none" stroke="#000000" stroke-width="2" x1="9" x2="34.5" y1="10.5" y2="10.5" /><line fill="none" stroke="#000000" stroke-width="2" x1="39.5" x2="93" y1="13.5" y2="13.5" /><line fill="none" stroke="#000000" stroke-width="2" x1="67" x2="67" y1="13.5" y2="3" /><polyline fill="none" points="11,88.5 33.5,88.5 33.5,66 10,66 10,94.5" stroke="#000000" stroke-width="2" /><path d="M38,92 c3.771,-10.753 5.5,-23.189 5.5,-46.5 v-10.0 h50.5" fill="none" stroke="#000000" stroke-width="2" /><path d="M51.5,53.5 c14.859,-3.33 26.268,-8.28 34,-14" fill="none" stroke="#000000" stroke-width="2" /><path d="M49.5,72.25 c17.293,-3.383 30.834,-9 40.25,-16" fill="none" stroke="#000000" stroke-width="2" /><path d="M47.5,91 c19.728,-3.437 35.4,-9.72 46.5,-18" fill="none" stroke="#000000" stroke-width="2" /><path d="M76.5,35.5 c2.244,-6.262 4.342,-13.955 6,-22" fill="none" stroke="#000000" stroke-width="2" /><path d="M57,35.5 c-1.426,-7.298 -3.151,-14.899 -5,-22" fill="none" stroke="#000000" stroke-width="2" /></svg>