<?xml version='1.0' encoding='utf-8'?>
<svg xmlns="http://www.w3.org/2000/svg" height="100px" version="1.0" viewBox="0 0 100 100" width="100px" x="0px" y="0px">
<line fill="none" stroke="#000000" stroke-width="2" x1="6" x2="36.5" y1="24" y2="24" /><line fill="none" stroke="#000000" stroke-width="2" x1="9.5" x2="34.5" y1="38" y2="38" /><line fill="none" stroke="#000000" stroke-width="2" x1="9.5" x2="34.5" y1="52" y2="52" /><line fill="none" stroke="#000000" stroke-width="2" x1="9" x2="35" y1="10.5" y2="10.5" /><line fill="none" stroke="#000000" stroke-width="2" x1="45" x2="89" y1="75" y2="75" /><line fill="none" stroke="#000000" stroke-width="2" x1="45" x2="89" y1="61" y2="61" /><line fill="none" stroke="#000000" stroke-width="2" x1="66.5" x2="66.5" y1="38" y2="10.5" /><line fill="none" stroke="#000000" stroke-width="2" x1="41.5" x2="92.5" y1="23.5" y2="23.5" /><polyline fill="none" points="11,88.5 34,88.5 34,66 10,66 10,94.5" stroke="#000000" stroke-width="2" /><polyline fill="none" points="41.5,38 92.5,38 92.5,9.5 40.5,9.5 40.5,39" stroke="#000000" stroke-width="2" /><path d="M44,92 V47.0 h45.0 v38.96 c0,4.177 -0.469,4.54 -7.5,4.54 c-2.172,0 -5.876,-0.137 -12.5,-0.5" fill="none" stroke="#000000" stroke-width="2" /></svg>