<?xml version='1.0' encoding='utf-8'?>
<svg xmlns="http://www.w3.org/2000/svg" height="100px" version="1.0" viewBox="0 0 100 100" width="100px" x="0px" y="0px">
<line fill="none" stroke="#000000" stroke-width="2" x1="19.5" x2="81.5" y1="90.5" y2="90.5" /><line fill="none" stroke="#000000" stroke-width="2" x1="8" x2="92" y1="57" y2="57" /><line fill="none" stroke="#000000" stroke-width="2" x1="18.5" x2="81.5" y1="64.5" y2="64.5" /><line fill="none" stroke="#000000" stroke-width="2" x1="18.5" x2="81.5" y1="72" y2="72" /><line fill="none" stroke="#000000" stroke-width="2" x1="17.5" x2="82.5" y1="50" y2="50" /><line fill="none" stroke="#000000" stroke-width="2" x1="50.5" x2="91.5" y1="26.5" y2="26.5" /><line fill="none" stroke="#000000" stroke-width="2" x1="8.5" x2="48.5" y1="19.5" y2="19.5" /><line fill="none" stroke="#000000" stroke-width="2" x1="51.5" x2="5.5" y1="10.5" y2="10.5" /><line fill="none" stroke="#000000" stroke-width="2" x1="28.5" x2="28.5" y1="19.5" y2="4.5" /><line fill="none" stroke="#000000" stroke-width="2" x1="28.5" x2="28.5" y1="26.5" y2="39" /><polyline fill="none" points="81.5,95 81.5,79.5 18.5,79.5 18.5,95" stroke="#000000" stroke-width="2" /><path d="M50.5,23 c5.697,-2.676 8.5,-6.994 8.5,-14 v-1.5 h24.0 V19.0 c0,1.99 0.841,2.5 5,2.5 c7.25,0 7.514,-0.227 8,-7.5" fill="none" stroke="#000000" stroke-width="2" /><path d="M47.5,45.5 c22.509,-4.13 34.811,-9.971 43.282,-18.695" fill="none" stroke="#000000" stroke-width="2" /><path d="M95.5,48.5 c-15.96,-4.156 -30.008,-11.271 -38.5,-19" fill="none" stroke="#000000" stroke-width="2" /><path d="M6,53.8 c3.537,-5.176 5.5,-12.727 5.5,-23.3 v-4.0 h34.0 V40.0 h-34.0" fill="none" stroke="#000000" stroke-width="2" /></svg>