<?xml version='1.0' encoding='utf-8'?>
<svg xmlns="http://www.w3.org/2000/svg" height="100px" version="1.0" viewBox="0 0 100 100" width="100px" x="0px" y="0px">
<line fill="none" stroke="#000000" stroke-width="2" x1="50.5" x2="15" y1="13" y2="13" /><line fill="none" stroke="#000000" stroke-width="2" x1="33" x2="33" y1="42" y2="13" /><line fill="none" stroke="#000000" stroke-width="2" x1="14.5" x2="48" y1="33" y2="33" /><line fill="none" stroke="#000000" stroke-width="2" x1="14.5" x2="48" y1="23" y2="23" /><line fill="none" stroke="#000000" stroke-width="2" x1="92" x2="56.5" y1="13" y2="13" /><line fill="none" stroke="#000000" stroke-width="2" x1="74.5" x2="74.5" y1="42" y2="13" /><line fill="none" stroke="#000000" stroke-width="2" x1="56" x2="89.5" y1="33" y2="33" /><line fill="none" stroke="#000000" stroke-width="2" x1="56" x2="89.5" y1="23" y2="23" /><line fill="none" stroke="#000000" stroke-width="2" x1="19.5" x2="81.5" y1="90.5" y2="90.5" /><line fill="none" stroke="#000000" stroke-width="2" x1="8" x2="92" y1="57" y2="57" /><line fill="none" stroke="#000000" stroke-width="2" x1="18.5" x2="81.5" y1="64.5" y2="64.5" /><line fill="none" stroke="#000000" stroke-width="2" x1="18.5" x2="81.5" y1="72" y2="72" /><line fill="none" stroke="#000000" stroke-width="2" x1="17.5" x2="82.5" y1="50" y2="50" /><polyline fill="none" points="14.5,13.386 14.5,43 51.5,43" stroke="#000000" stroke-width="2" /><polyline fill="none" points="56,13.386 56,43 93,43" stroke="#000000" stroke-width="2" /><polyline fill="none" points="81.5,95 81.5,79.5 18.5,79.5 18.5,95" stroke="#000000" stroke-width="2" /><path d="M6,27.5 c4.982,-6.063 8.592,-13.395 11,-23" fill="none" stroke="#000000" stroke-width="2" /><path d="M37,4.5 c-1.058,3.078 -2.375,5.858 -4,8.5" fill="none" stroke="#000000" stroke-width="2" /><path d="M47.5,27.5 c4.982,-6.063 8.592,-13.395 11,-23" fill="none" stroke="#000000" stroke-width="2" /><path d="M78.5,4.5 c-1.058,3.078 -2.375,5.858 -4,8.5" fill="none" stroke="#000000" stroke-width="2" /></svg>