<?xml version='1.0' encoding='utf-8'?>
<svg xmlns="http://www.w3.org/2000/svg" height="100px" version="1.0" viewBox="0 0 100 100" width="100px" x="0px" y="0px">
<path d="M6,49 c18.515,-7.208 32.739,-17.112 41.5,-28.5" fill="none" stroke="#000000" stroke-width="2" /><path d="M7,21 c17.045,-3.802 29.974,-9.237 38,-15" fill="none" stroke="#000000" stroke-width="2" /><path d="M5.5,68 c15.061,-5.985 26.338,-13.72 33.5,-22" fill="none" stroke="#000000" stroke-width="2" /><path d="M5,87 c17.93,-7.343 30.755,-16.423 39,-27" fill="none" stroke="#000000" stroke-width="2" /><path d="M35.5,33 c-1.97,-5.097 -4.185,-9.854 -6.5,-14" fill="none" stroke="#000000" stroke-width="2" /><path d="M19.5,43 c-2.352,-6.189 -4.992,-12.364 -7.5,-17.5" fill="none" stroke="#000000" stroke-width="2" /><path d="M25.5,91.5 c4.939,0.328 9.352,0.5 12,0.5 c6.031,0 8,-2.249 8,-18 c0,-15.268 -5.528,-29.902 -14,-38.5" fill="none" stroke="#000000" stroke-width="2" /><path d="M73.5,63 c-4.463,-8.851 -10.309,-18.39 -16,-26" fill="none" stroke="#000000" stroke-width="2" /><path d="M44.5,43 c6.244,-10.258 11.622,-24.816 14,-38" fill="none" stroke="#000000" stroke-width="2" /><path d="M83,90 c-4.365,0 -11.515,-0.34 -19,-1" fill="none" stroke="#000000" stroke-width="2" /><path d="M55,18 h37.5 c-1.842,65.929 -4.283,72 -9.5,72" fill="none" stroke="#000000" stroke-width="2" /></svg>