<?xml version='1.0' encoding='utf-8'?>
<svg xmlns="http://www.w3.org/2000/svg" height="100px" version="1.0" viewBox="0 0 100 100" width="100px" x="0px" y="0px">
<line fill="none" stroke="#000000" stroke-width="2" x1="72.5" x2="90.5" y1="30" y2="30" /><line fill="none" stroke="#000000" stroke-width="2" x1="47" x2="65" y1="30" y2="30" /><path d="M6,49 c16.531,-7.208 29.179,-17.112 37,-28.5" fill="none" stroke="#000000" stroke-width="2" /><path d="M7,21 c15.219,-3.802 26.834,-9.237 34,-15" fill="none" stroke="#000000" stroke-width="2" /><path d="M5.5,68 c13.447,-5.985 23.605,-13.72 30,-22" fill="none" stroke="#000000" stroke-width="2" /><path d="M5,87 c16.009,-7.343 27.138,-16.423 34.5,-27" fill="none" stroke="#000000" stroke-width="2" /><path d="M32,33 c-1.667,-5.097 -3.553,-9.846 -5.5,-14" fill="none" stroke="#000000" stroke-width="2" /><path d="M18,43 c-2.037,-6.189 -4.326,-12.364 -6.5,-17.5" fill="none" stroke="#000000" stroke-width="2" /><path d="M23.5,91.5 c4.41,0.337 8.136,0.5 10.5,0.5 c5.386,0 7,-2.249 7,-18 c0,-15.268 -4.936,-29.902 -12.5,-38.5" fill="none" stroke="#000000" stroke-width="2" /><path d="M75.5,50 v36.5 c0,4.62 0.499,5 8,5 c10.505,0 10.707,-0.205 11.5,-22.5" fill="none" stroke="#000000" stroke-width="2" /><path d="M42,93 c11.096,-6.192 18.5,-21.143 18.5,-43" fill="none" stroke="#000000" stroke-width="2" /><path d="M71,10.5 h19.5 v39.5 H47.0 v-37.0 c6.521,-1.953 12.393,-4.969 17.5,-9" fill="none" stroke="#000000" stroke-width="2" /></svg>