<?xml version='1.0' encoding='utf-8'?>
<svg xmlns="http://www.w3.org/2000/svg" height="100px" version="1.0" viewBox="0 0 100 100" width="100px" x="0px" y="0px">
<line fill="none" stroke="#000000" stroke-width="2" x1="68" x2="68" y1="42" y2="19" /><line fill="none" stroke="#000000" stroke-width="2" x1="92" x2="44.5" y1="19" y2="19" /><line fill="none" stroke="#000000" stroke-width="2" x1="44" x2="91" y1="27" y2="27" /><line fill="none" stroke="#000000" stroke-width="2" x1="44" x2="91" y1="35" y2="35" /><line fill="none" stroke="#000000" stroke-width="2" x1="28" x2="28" y1="45.5" y2="22.5" /><line fill="none" stroke="#000000" stroke-width="2" x1="24.5" x2="86.5" y1="69.5" y2="69.5" /><line fill="none" stroke="#000000" stroke-width="2" x1="24.5" x2="86.5" y1="60" y2="60" /><polyline fill="none" points="44,19.5 44,43 93,43" stroke="#000000" stroke-width="2" /><polyline fill="none" points="24.5,79 86.5,79 86.5,50.5 23.5,50.5 23.5,80" stroke="#000000" stroke-width="2" /><path d="M72,10 c-1.352,3.479 -2.381,5.805 -4,9" fill="none" stroke="#000000" stroke-width="2" /><path d="M35.5,10 c-4.104,9.407 -11.069,17.919 -20,24.5" fill="none" stroke="#000000" stroke-width="2" /><path d="M48,10 c-3.393,9.411 -9.133,17.919 -16.5,24.5" fill="none" stroke="#000000" stroke-width="2" /><path d="M3.5,91.5 c4.898,-10.415 9,-30.94 9,-47 V10.0 h80.5" fill="none" stroke="#000000" stroke-width="2" /><path d="M14.5,93 c13.095,-2.804 24.369,-6.801 31,-10.5" fill="none" stroke="#000000" stroke-width="2" /><path d="M95.5,93.5 c-7.982,-3.702 -19.006,-7.679 -31,-11" fill="none" stroke="#000000" stroke-width="2" /></svg>