<?xml version='1.0' encoding='utf-8'?>
<svg xmlns="http://www.w3.org/2000/svg" height="100px" version="1.0" viewBox="0 0 100 100" width="100px" x="0px" y="0px">
<line fill="none" stroke="#000000" stroke-width="2" x1="20.5" x2="33" y1="53" y2="53" /><line fill="none" stroke="#000000" stroke-width="2" x1="20.5" x2="20.5" y1="85" y2="35" /><line fill="none" stroke="#000000" stroke-width="2" x1="9.5" x2="9.5" y1="90" y2="45" /><line fill="none" stroke="#000000" stroke-width="2" x1="66" x2="66" y1="12.5" y2="2" /><line fill="none" stroke="#000000" stroke-width="2" x1="68" x2="68" y1="64.5" y2="90.5" /><line fill="none" stroke="#000000" stroke-width="2" x1="39" x2="95.5" y1="90.5" y2="90.5" /><line fill="none" stroke="#000000" stroke-width="2" x1="92" x2="43" y1="78.5" y2="78.5" /><line fill="none" stroke="#000000" stroke-width="2" x1="47.5" x2="88.5" y1="40" y2="40" /><line fill="none" stroke="#000000" stroke-width="2" x1="47.5" x2="88.5" y1="30" y2="30" /><line fill="none" stroke="#000000" stroke-width="2" x1="43" x2="92.5" y1="49" y2="49" /><line fill="none" stroke="#000000" stroke-width="2" x1="40.5" x2="95" y1="58.5" y2="58.5" /><line fill="none" stroke="#000000" stroke-width="2" x1="68" x2="68" y1="58.5" y2="20" /><polyline fill="none" points="7.5,35 30.5,35 30.5,10 6.5,10 6.5,36" stroke="#000000" stroke-width="2" /><polyline fill="none" points="89.5,41 89.5,20 46.5,20 46.5,41" stroke="#000000" stroke-width="2" /><path d="M4.5,92 c8.873,-3.596 18.588,-8.381 28.5,-14" fill="none" stroke="#000000" stroke-width="2" /><path d="M32,91.5 c3.266,-10.415 6,-30.94 6,-47 v-32.0 h57.0" fill="none" stroke="#000000" stroke-width="2" /><path d="M74,58.5 v7.804 c0,3.541 0.152,3.696 10,3.696 c9.36,0 9.586,-0.222 10,-7.5" fill="none" stroke="#000000" stroke-width="2" /><path d="M40,73.5 c11.484,-1.903 19.574,-7.9 22,-15" fill="none" stroke="#000000" stroke-width="2" /></svg>