<?xml version='1.0' encoding='utf-8'?>
<svg xmlns="http://www.w3.org/2000/svg" height="100px" version="1.0" viewBox="0 0 100 100" width="100px" x="0px" y="0px">
<line fill="none" stroke="#000000" stroke-width="2" x1="7.5" x2="33.5" y1="47" y2="47" /><line fill="none" stroke="#000000" stroke-width="2" x1="2.5" x2="37" y1="78" y2="78" /><line fill="none" stroke="#000000" stroke-width="2" x1="20.5" x2="20.5" y1="95" y2="5" /><line fill="none" stroke="#000000" stroke-width="2" x1="2.5" x2="37" y1="17" y2="17" /><line fill="none" stroke="#000000" stroke-width="2" x1="75" x2="75" y1="14.5" y2="47" /><line fill="none" stroke="#000000" stroke-width="2" x1="58.5" x2="58.5" y1="14.5" y2="47" /><line fill="none" stroke="#000000" stroke-width="2" x1="67.5" x2="67.5" y1="13.5" y2="3" /><line fill="none" stroke="#000000" stroke-width="2" x1="51.5" x2="70" y1="65.5" y2="65.5" /><line fill="none" stroke="#000000" stroke-width="2" x1="51.5" x2="51.5" y1="89.5" y2="52.5" /><polyline fill="none" points="7.5,65 34.5,65 34.5,30 6.5,30 6.5,66" stroke="#000000" stroke-width="2" /><polyline fill="none" points="42,48 91.5,48 91.5,28 42,28" stroke="#000000" stroke-width="2" /><path d="M35.5,92 c3.606,-9.743 6.5,-28.422 6.5,-44 v-34.5 h53.0" fill="none" stroke="#000000" stroke-width="2" /><path d="M75,52.5 v33.0 c0,4.808 0.222,5 9,5 c10.692,0 10.901,-0.206 12,-17" fill="none" stroke="#000000" stroke-width="2" /><path d="M75,68 c7.217,-2.535 13.391,-5.869 20.5,-11" fill="none" stroke="#000000" stroke-width="2" /><path d="M42,91.5 c9.715,-1.764 18.477,-4.187 28.5,-8" fill="none" stroke="#000000" stroke-width="2" /></svg>