<?xml version='1.0' encoding='utf-8'?>
<svg xmlns="http://www.w3.org/2000/svg" height="100px" version="1.0" viewBox="0 0 100 100" width="100px" x="0px" y="0px">
<line fill="none" stroke="#000000" stroke-width="2" x1="8" x2="31" y1="47" y2="47" /><line fill="none" stroke="#000000" stroke-width="2" x1="3" x2="34.5" y1="78" y2="78" /><line fill="none" stroke="#000000" stroke-width="2" x1="19.5" x2="19.5" y1="95" y2="5" /><line fill="none" stroke="#000000" stroke-width="2" x1="3" x2="33.5" y1="17" y2="17" /><line fill="none" stroke="#000000" stroke-width="2" x1="73" x2="98" y1="21" y2="21" /><line fill="none" stroke="#000000" stroke-width="2" x1="39.5" x2="64" y1="74" y2="74" /><line fill="none" stroke="#000000" stroke-width="2" x1="39.5" x2="64" y1="58" y2="58" /><line fill="none" stroke="#000000" stroke-width="2" x1="51.5" x2="51.5" y1="15" y2="4" /><line fill="none" stroke="#000000" stroke-width="2" x1="35.5" x2="67.5" y1="15" y2="15" /><polyline fill="none" points="8,65 32,65 32,30 7,30 7,66" stroke="#000000" stroke-width="2" /><path d="M66.5,91 c16.787,-15.29 24.396,-32.398 27,-70" fill="none" stroke="#000000" stroke-width="2" /><path d="M97.5,91 c-13.881,-13.949 -20.576,-30.239 -23,-63" fill="none" stroke="#000000" stroke-width="2" /><path d="M66,41 c4.518,-9.815 8.367,-22.903 10.5,-36" fill="none" stroke="#000000" stroke-width="2" /><path d="M38.5,92 v-49.0 H64.0 v42.96 c0,4.177 -0.281,4.54 -4,4.54 c-1.248,0 -3.883,-0.159 -7.5,-0.5" fill="none" stroke="#000000" stroke-width="2" /><path d="M65.5,35.5 c-2.125,-4.831 -5.039,-11.061 -7.5,-16" fill="none" stroke="#000000" stroke-width="2" /><path d="M35.5,35 c8.48,-0.49 18.211,-2.085 27.5,-4.5" fill="none" stroke="#000000" stroke-width="2" /><path d="M41.5,34.5 c2.1,-5.665 4.145,-12.331 6,-19.5" fill="none" stroke="#000000" stroke-width="2" /></svg>