<?xml version='1.0' encoding='utf-8'?>
<svg xmlns="http://www.w3.org/2000/svg" height="100px" version="1.0" viewBox="0 0 100 100" width="100px" x="0px" y="0px">
<line fill="none" stroke="#000000" stroke-width="2" x1="4.5" x2="33" y1="37.5" y2="35.5" /><line fill="none" stroke="#000000" stroke-width="2" x1="20.5" x2="20.5" y1="36.5" y2="61" /><line fill="none" stroke="#000000" stroke-width="2" x1="63.5" x2="92" y1="37.5" y2="35.5" /><line fill="none" stroke="#000000" stroke-width="2" x1="79.5" x2="79.5" y1="36.5" y2="61" /><line fill="none" stroke="#000000" stroke-width="2" x1="37.5" x2="63.5" y1="30" y2="30" /><line fill="none" stroke="#000000" stroke-width="2" x1="34" x2="66" y1="49.5" y2="49.5" /><line fill="none" stroke="#000000" stroke-width="2" x1="50" x2="50" y1="40" y2="4" /><line fill="none" stroke="#000000" stroke-width="2" x1="50" x2="50" y1="61" y2="41" /><line fill="none" stroke="#000000" stroke-width="2" x1="34" x2="66" y1="11" y2="11" /><line fill="none" stroke="#000000" stroke-width="2" x1="19" x2="82" y1="88.5" y2="88.5" /><polyline fill="none" points="37.5,41 63.5,41 63.5,19.5 36.5,19.5 36.5,42" stroke="#000000" stroke-width="2" /><polyline fill="none" points="82,94.5 82,65 18,65 18,94.5" stroke="#000000" stroke-width="2" /><path d="M35,44 c-1.183,-5.819 -3.49,-13.232 -6,-19" fill="none" stroke="#000000" stroke-width="2" /><path d="M6.5,61.5 c2.606,-6.119 4.357,-12.669 5,-19" fill="none" stroke="#000000" stroke-width="2" /><path d="M32,58.5 c-0.572,-5.13 -1.565,-10.556 -3,-16" fill="none" stroke="#000000" stroke-width="2" /><path d="M10.5,37 c7.759,-8.115 14.727,-16.575 21,-25.5" fill="none" stroke="#000000" stroke-width="2" /><path d="M18,29 c-2.983,-4.33 -7.938,-10.812 -11.5,-15" fill="none" stroke="#000000" stroke-width="2" /><path d="M10.5,19 c4.283,-4.466 7.565,-8.456 11,-13.5" fill="none" stroke="#000000" stroke-width="2" /><path d="M94,44 c-1.183,-5.819 -3.49,-13.232 -6,-19" fill="none" stroke="#000000" stroke-width="2" /><path d="M65.5,58.5 c2.606,-5.153 4.357,-10.669 5,-16" fill="none" stroke="#000000" stroke-width="2" /><path d="M91,61.5 c-0.572,-6.092 -1.565,-12.534 -3,-19" fill="none" stroke="#000000" stroke-width="2" /><path d="M69.5,37 c7.759,-8.115 14.727,-16.575 21,-25.5" fill="none" stroke="#000000" stroke-width="2" /><path d="M77,29 c-2.983,-4.33 -7.938,-10.812 -11.5,-15" fill="none" stroke="#000000" stroke-width="2" /><path d="M69.5,19 c4.283,-4.466 7.565,-8.456 11,-13.5" fill="none" stroke="#000000" stroke-width="2" /></svg>