<?xml version='1.0' encoding='utf-8'?>
<svg xmlns="http://www.w3.org/2000/svg" height="100px" version="1.0" viewBox="0 0 100 100" width="100px" x="0px" y="0px">
<line fill="none" stroke="#000000" stroke-width="2" x1="92.5" x2="39" y1="19.5" y2="19.5" /><polyline fill="none" points="23,75 23,45 6,45" stroke="#000000" stroke-width="2" /><path d="M31.5,71 c7.375,-11.188 12.941,-24.265 16,-37.5" fill="none" stroke="#000000" stroke-width="2" /><path d="M91.5,72 c-4.523,-14.378 -10.282,-27.617 -17,-39" fill="none" stroke="#000000" stroke-width="2" /><path d="M9,10 c5.725,5.621 10.574,10.782 16,17" fill="none" stroke="#000000" stroke-width="2" /><path d="M6,92 c8.029,-5.713 13.36,-11.114 17,-17" fill="none" stroke="#000000" stroke-width="2" /><path d="M93,90 h-34.0 c-21.543,0 -30.148,-3.961 -36,-15" fill="none" stroke="#000000" stroke-width="2" /><path d="M63.5,19.5 v51.5 c0,7.385 -0.594,8 -6,8 c-2.565,0 -6.678,-0.164 -12,-0.5" fill="none" stroke="#000000" stroke-width="2" /><path d="M29.5,40.5 c6.047,-9.923 11,-22.503 14,-36" fill="none" stroke="#000000" stroke-width="2" /></svg>