<?xml version='1.0' encoding='utf-8'?>
<svg xmlns="http://www.w3.org/2000/svg" height="100px" version="1.0" viewBox="0 0 100 100" width="100px" x="0px" y="0px">
<line fill="none" stroke="#000000" stroke-width="2" x1="43" x2="87.5" y1="64" y2="64" /><line fill="none" stroke="#000000" stroke-width="2" x1="43" x2="87.5" y1="50.5" y2="50.5" /><line fill="none" stroke="#000000" stroke-width="2" x1="93" x2="34" y1="25" y2="25" /><polyline fill="none" points="23,75 23,45 6,45" stroke="#000000" stroke-width="2" /><polyline fill="none" points="43,77.5 87.5,77.5 87.5,37 42,37 42,78.5" stroke="#000000" stroke-width="2" /><path d="M9,10 c5.725,5.621 10.574,10.782 16,17" fill="none" stroke="#000000" stroke-width="2" /><path d="M6,92 c8.029,-5.713 13.36,-11.114 17,-17" fill="none" stroke="#000000" stroke-width="2" /><path d="M93,90 h-34.0 c-21.543,0 -30.148,-3.961 -36,-15" fill="none" stroke="#000000" stroke-width="2" /><path d="M28,76.5 c3.648,-8.397 6,-21.847 6,-39 v-24.0 c17.181,0 35.638,-2.212 54.5,-6.5" fill="none" stroke="#000000" stroke-width="2" /><path d="M60,37 c2.377,-7.15 4.34,-16.251 5.5,-26" fill="none" stroke="#000000" stroke-width="2" /></svg>