<?xml version='1.0' encoding='utf-8'?>
<svg xmlns="http://www.w3.org/2000/svg" height="100px" version="1.0" viewBox="0 0 100 100" width="100px" x="0px" y="0px">
<line fill="none" stroke="#000000" stroke-width="2" x1="9.5" x2="58" y1="48" y2="48" /><line fill="none" stroke="#000000" stroke-width="2" x1="4" x2="62" y1="14" y2="14" /><line fill="none" stroke="#000000" stroke-width="2" x1="4" x2="62" y1="70" y2="70" /><polyline fill="none" points="9.5,58.5 58,58.5 58,24.5 8.5,24.5 8.5,59.5" stroke="#000000" stroke-width="2" /><polyline fill="none" points="96,10 67.5,10 67.5,93" stroke="#000000" stroke-width="2" /><path d="M25.5,15 v9.5 c0,9.692 -4.695,15.778 -14,19" fill="none" stroke="#000000" stroke-width="2" /><path d="M38.5,14 v18.5 c0,5.782 0.828,6.5 7.5,6.5 h11.0" fill="none" stroke="#000000" stroke-width="2" /><path d="M24.5,14 c-1.91,-3.378 -3.995,-6.685 -6,-9.5" fill="none" stroke="#000000" stroke-width="2" /><path d="M40,14 c2.271,-3.126 4.423,-6.544 6,-9.5" fill="none" stroke="#000000" stroke-width="2" /><path d="M5,92.5 c14.981,-2.844 28,-15.367 28,-25 v-9.0" fill="none" stroke="#000000" stroke-width="2" /><path d="M61,92.5 c-14.566,-2.83 -28,-15.444 -28,-25" fill="none" stroke="#000000" stroke-width="2" /><path d="M74,81 h6.0 c10.607,0 15.5,-4.166 15.5,-13 c0,-10.241 -5.379,-20.147 -16,-27.5 c6.075,-9.587 11.531,-20.068 15.576,-29.881" fill="none" stroke="#000000" stroke-width="2" /></svg>