<?xml version='1.0' encoding='utf-8'?>
<svg xmlns="http://www.w3.org/2000/svg" height="100px" version="1.0" viewBox="0 0 100 100" width="100px" x="0px" y="0px">
<line fill="none" stroke="#000000" stroke-width="2" x1="45.5" x2="6.5" y1="47" y2="47" /><line fill="none" stroke="#000000" stroke-width="2" x1="43.5" x2="11.5" y1="28" y2="28" /><line fill="none" stroke="#000000" stroke-width="2" x1="27" x2="27" y1="84.5" y2="28" /><path d="M5.5,89.5 c15.053,-2.877 27.354,-6.513 41,-12" fill="none" stroke="#000000" stroke-width="2" /><path d="M47,23 c-7.589,-4.952 -13.869,-10.14 -20,-16.5 c-6.849,8.159 -14.079,15.12 -22.5,21.5" fill="none" stroke="#000000" stroke-width="2" /><path d="M17.5,76 c-2.387,-7.582 -4.948,-14.762 -7.5,-21" fill="none" stroke="#000000" stroke-width="2" /><path d="M36.5,73 c2.857,-6.433 5.416,-12.93 7.5,-19" fill="none" stroke="#000000" stroke-width="2" /><path d="M44.5,36 c6.244,-8.368 11.622,-20.245 14,-31" fill="none" stroke="#000000" stroke-width="2" /><path d="M54.5,18 h38.0 c-1.855,66.43 -4.27,72.5 -9.5,72.5 c-4.365,0 -11.515,-0.34 -19,-1" fill="none" stroke="#000000" stroke-width="2" /><path d="M84,73.5 c-3.184,-9.668 -7.823,-21.697 -12,-31" fill="none" stroke="#000000" stroke-width="2" /><path d="M45,70.5 c10.623,-1.003 22.418,-4.254 34.5,-9.5" fill="none" stroke="#000000" stroke-width="2" /><path d="M52,69.5 c4.235,-11.319 8.443,-25.014 12,-39.5" fill="none" stroke="#000000" stroke-width="2" /></svg>