<?xml version='1.0' encoding='utf-8'?>
<svg xmlns="http://www.w3.org/2000/svg" height="100px" version="1.0" viewBox="0 0 100 100" width="100px" x="0px" y="0px">
<line fill="none" stroke="#000000" stroke-width="2" x1="35" x2="4.5" y1="47" y2="47" /><line fill="none" stroke="#000000" stroke-width="2" x1="34" x2="8.5" y1="28" y2="28" /><line fill="none" stroke="#000000" stroke-width="2" x1="20.5" x2="20.5" y1="85" y2="28" /><line fill="none" stroke="#000000" stroke-width="2" x1="41" x2="61" y1="60" y2="60" /><line fill="none" stroke="#000000" stroke-width="2" x1="41" x2="61" y1="36" y2="36" /><polyline fill="none" points="61,77 61,13 40,13 40,86" stroke="#000000" stroke-width="2" /><path d="M4,89.5 c11.742,-2.657 21.349,-5.97 32,-11" fill="none" stroke="#000000" stroke-width="2" /><path d="M36,23 c-5.84,-5.014 -10.718,-10.167 -15.5,-16.5 c-5.317,8.159 -10.951,15.108 -17.5,21.5" fill="none" stroke="#000000" stroke-width="2" /><path d="M14,76 c-2.068,-7.582 -4.289,-14.762 -6.5,-21" fill="none" stroke="#000000" stroke-width="2" /><path d="M26,73 c2.477,-6.433 4.693,-12.93 6.5,-19" fill="none" stroke="#000000" stroke-width="2" /><path d="M58.5,92 c12.906,-16.214 18,-34.587 18,-86" fill="none" stroke="#000000" stroke-width="2" /><path d="M64.5,28 h29.0 c0,57.409 -2.133,62 -9,62 c-2.203,0 -6.373,-0.347 -11,-1" fill="none" stroke="#000000" stroke-width="2" /><path d="M33,88.5 c11.275,-3.556 21.018,-7.774 32.5,-14" fill="none" stroke="#000000" stroke-width="2" /></svg>