<?xml version='1.0' encoding='utf-8'?>
<svg xmlns="http://www.w3.org/2000/svg" height="100px" version="1.0" viewBox="0 0 100 100" width="100px" x="0px" y="0px">
<line fill="none" stroke="#000000" stroke-width="2" x1="34" x2="5" y1="47" y2="47" /><line fill="none" stroke="#000000" stroke-width="2" x1="33" x2="9" y1="28" y2="28" /><line fill="none" stroke="#000000" stroke-width="2" x1="21" x2="21" y1="84.5" y2="28" /><line fill="none" stroke="#000000" stroke-width="2" x1="70" x2="46" y1="30" y2="30" /><polyline fill="none" points="49.5,69 68.5,69 68.5,42 48.5,42 48.5,77" stroke="#000000" stroke-width="2" /><path d="M4.5,89.5 c11.376,-2.657 20.682,-5.97 31,-11" fill="none" stroke="#000000" stroke-width="2" /><path d="M36.5,23 c-5.84,-5.014 -10.718,-10.167 -15.5,-16.5 c-5.317,8.159 -10.951,15.108 -17.5,21.5" fill="none" stroke="#000000" stroke-width="2" /><path d="M14.5,76 c-2.068,-7.582 -4.289,-14.762 -6.5,-21" fill="none" stroke="#000000" stroke-width="2" /><path d="M26.5,73 c2.477,-6.433 4.693,-12.93 6.5,-19" fill="none" stroke="#000000" stroke-width="2" /><path d="M74.5,3.5 c0,54.161 9.54,87.5 15.5,87.5 c1.814,0 3.809,-4.644 5,-23" fill="none" stroke="#000000" stroke-width="2" /><path d="M91.5,31 c-5.132,30.089 -19.273,50.847 -37,60" fill="none" stroke="#000000" stroke-width="2" /><path d="M79,3 c4.734,2.831 9.576,6.339 14,10" fill="none" stroke="#000000" stroke-width="2" /><path d="M35,91.5 c3.556,-12.535 5.5,-28.418 5.5,-51 V17.0 h53.5" fill="none" stroke="#000000" stroke-width="2" /></svg>