<?xml version='1.0' encoding='utf-8'?>
<svg xmlns="http://www.w3.org/2000/svg" height="100px" version="1.0" viewBox="0 0 100 100" width="100px" x="0px" y="0px">
<line fill="none" stroke="#000000" stroke-width="2" x1="34" x2="5" y1="47" y2="47" /><line fill="none" stroke="#000000" stroke-width="2" x1="33" x2="9" y1="28" y2="28" /><line fill="none" stroke="#000000" stroke-width="2" x1="21" x2="21" y1="84.5" y2="28" /><line fill="none" stroke="#000000" stroke-width="2" x1="55.5" x2="90.5" y1="41" y2="41" /><line fill="none" stroke="#000000" stroke-width="2" x1="49.5" x2="95.5" y1="70.5" y2="70.5" /><line fill="none" stroke="#000000" stroke-width="2" x1="73" x2="73" y1="85" y2="5" /><line fill="none" stroke="#000000" stroke-width="2" x1="49" x2="95.5" y1="14" y2="14" /><polyline fill="none" points="45.5,75 45.5,50.5 35,50.5" stroke="#000000" stroke-width="2" /><polyline fill="none" points="55.5,58.5 91.5,58.5 91.5,25.5 54.5,25.5 54.5,59.5" stroke="#000000" stroke-width="2" /><path d="M4.5,89.5 c11.376,-2.657 20.682,-5.97 31,-11" fill="none" stroke="#000000" stroke-width="2" /><path d="M36.5,23 c-5.84,-5.014 -10.718,-10.167 -15.5,-16.5 c-5.317,8.159 -10.951,15.108 -17.5,21.5" fill="none" stroke="#000000" stroke-width="2" /><path d="M14.5,76 c-2.068,-7.582 -4.289,-14.762 -6.5,-21" fill="none" stroke="#000000" stroke-width="2" /><path d="M26.5,73 c2.477,-6.433 4.693,-12.93 6.5,-19" fill="none" stroke="#000000" stroke-width="2" /><path d="M33,92 c5.881,-5.611 9.879,-11.114 12.5,-17" fill="none" stroke="#000000" stroke-width="2" /><path d="M95.5,90 h-24.0 c-15.129,0 -21.704,-3.743 -26,-15" fill="none" stroke="#000000" stroke-width="2" /><path d="M33,8 c4.946,3.745 9.197,7.229 14,11.5" fill="none" stroke="#000000" stroke-width="2" /><path d="M36,30.5 c4.521,3.279 8.212,6.415 12.5,10.5" fill="none" stroke="#000000" stroke-width="2" /></svg>