<?xml version='1.0' encoding='utf-8'?>
<svg xmlns="http://www.w3.org/2000/svg" height="100px" version="1.0" viewBox="0 0 100 100" width="100px" x="0px" y="0px">
<line fill="none" stroke="#000000" stroke-width="2" x1="68" x2="45" y1="10" y2="10" /><line fill="none" stroke="#000000" stroke-width="2" x1="37" x2="94.5" y1="90" y2="90" /><line fill="none" stroke="#000000" stroke-width="2" x1="54.5" x2="79.5" y1="38.5" y2="38.5" /><line fill="none" stroke="#000000" stroke-width="2" x1="37" x2="5" y1="47" y2="47" /><line fill="none" stroke="#000000" stroke-width="2" x1="36.5" x2="9.5" y1="28" y2="28" /><line fill="none" stroke="#000000" stroke-width="2" x1="23" x2="23" y1="84.5" y2="28" /><polyline fill="none" points="48.5,71 48.5,51 85.5,51 85.5,70 49.5,70" stroke="#000000" stroke-width="2" /><path d="M96,50.5 c-13.098,-9.655 -24.149,-25.467 -28.956,-41.209" fill="none" stroke="#000000" stroke-width="2" /><path d="M87.5,11 c-3.846,4.827 -9.063,10.25 -13.5,14" fill="none" stroke="#000000" stroke-width="2" /><path d="M96.5,22.5 c-4.158,5.02 -9.75,10.606 -14.5,14.5" fill="none" stroke="#000000" stroke-width="2" /><path d="M56.5,30.5 c-4.136,-4.483 -8.92,-9.071 -13.5,-13" fill="none" stroke="#000000" stroke-width="2" /><path d="M72.5,90 c3.396,-5.966 6.273,-12.704 8.5,-20" fill="none" stroke="#000000" stroke-width="2" /><path d="M60.5,90 c-2.09,-6.645 -4.672,-13.548 -7.5,-20" fill="none" stroke="#000000" stroke-width="2" /><path d="M4,89.5 c12.85,-2.638 23.35,-5.97 35,-11" fill="none" stroke="#000000" stroke-width="2" /><path d="M41,23 c-6.785,-4.952 -12.493,-10.167 -18,-16.5 c-6.123,8.159 -12.523,15.052 -20,21.5" fill="none" stroke="#000000" stroke-width="2" /><path d="M16,76 c-2.387,-7.582 -4.948,-14.762 -7.5,-21" fill="none" stroke="#000000" stroke-width="2" /><path d="M29.5,73 c2.857,-6.433 5.416,-12.93 7.5,-19" fill="none" stroke="#000000" stroke-width="2" /><path d="M38,50.5 c13.098,-9.655 24.149,-25.467 28.956,-41.209" fill="none" stroke="#000000" stroke-width="2" /></svg>