<?xml version='1.0' encoding='utf-8'?>
<svg xmlns="http://www.w3.org/2000/svg" height="100px" version="1.0" viewBox="0 0 100 100" width="100px" x="0px" y="0px">
<line fill="none" stroke="#000000" stroke-width="2" x1="63" x2="63" y1="19" y2="3" /><line fill="none" stroke="#000000" stroke-width="2" x1="63" x2="90.5" y1="10.5" y2="10.5" /><line fill="none" stroke="#000000" stroke-width="2" x1="43.5" x2="82.5" y1="32" y2="26" /><line fill="none" stroke="#000000" stroke-width="2" x1="68.5" x2="68.5" y1="65" y2="44" /><line fill="none" stroke="#000000" stroke-width="2" x1="48" x2="90" y1="55" y2="55" /><line fill="none" stroke="#000000" stroke-width="2" x1="44" x2="44" y1="74" y2="91.5" /><line fill="none" stroke="#000000" stroke-width="2" x1="60" x2="60" y1="73" y2="90.5" /><line fill="none" stroke="#000000" stroke-width="2" x1="76" x2="76" y1="73" y2="90.5" /><line fill="none" stroke="#000000" stroke-width="2" x1="37.5" x2="97.5" y1="91.5" y2="91.5" /><line fill="none" stroke="#000000" stroke-width="2" x1="34" x2="5" y1="47" y2="47" /><line fill="none" stroke="#000000" stroke-width="2" x1="33" x2="9" y1="28" y2="28" /><line fill="none" stroke="#000000" stroke-width="2" x1="21" x2="21" y1="84.5" y2="28" /><polyline fill="none" points="48,66 90,66 90,44 47,44 47,67" stroke="#000000" stroke-width="2" /><polyline fill="none" points="92,91.5 92,73 43,73" stroke="#000000" stroke-width="2" /><path d="M32,91 c4.996,-14.13 7.5,-29.671 7.5,-51 v-21.0 h55.5" fill="none" stroke="#000000" stroke-width="2" /><path d="M85,30.5 c3.808,-3.414 6.633,-6.811 9.142,-11.013" fill="none" stroke="#000000" stroke-width="2" /><path d="M57,19 v13.5 c0,5.37 0.156,5.5 15,5.5 c20.176,0 20.312,-0.133 21,-10.5" fill="none" stroke="#000000" stroke-width="2" /><path d="M4.5,89.5 c11.376,-2.657 20.682,-5.97 31,-11" fill="none" stroke="#000000" stroke-width="2" /><path d="M36.5,23 c-5.84,-5.014 -10.718,-10.167 -15.5,-16.5 c-5.317,8.159 -10.951,15.108 -17.5,21.5" fill="none" stroke="#000000" stroke-width="2" /><path d="M14.5,76 c-2.068,-7.582 -4.289,-14.762 -6.5,-21" fill="none" stroke="#000000" stroke-width="2" /><path d="M26.5,73 c2.477,-6.433 4.693,-12.93 6.5,-19" fill="none" stroke="#000000" stroke-width="2" /></svg>