<?xml version='1.0' encoding='utf-8'?>
<svg xmlns="http://www.w3.org/2000/svg" height="100px" version="1.0" viewBox="0 0 100 100" width="100px" x="0px" y="0px">
<line fill="none" stroke="#000000" stroke-width="2" x1="56" x2="89" y1="24.5" y2="24.5" /><line fill="none" stroke="#000000" stroke-width="2" x1="43" x2="11" y1="24.5" y2="24.5" /><line fill="none" stroke="#000000" stroke-width="2" x1="53.5" x2="70.5" y1="75" y2="75" /><line fill="none" stroke="#000000" stroke-width="2" x1="29.5" x2="46.5" y1="75" y2="75" /><polyline fill="none" points="10,92.5 10,10 44,10 44,40.5 11,40.5" stroke="#000000" stroke-width="2" /><polyline fill="none" points="51.5,64.5 70.5,64.5 70.5,86 29.5,86" stroke="#000000" stroke-width="2" /><path d="M22,62 c9.02,-6.064 15.592,-13.288 20,-21.5" fill="none" stroke="#000000" stroke-width="2" /><path d="M72,90 c5.387,0.343 9.107,0.5 11.5,0.5 c6.027,0 6.5,-0.449 6.5,-8 V10.0 h-35.0 v30.5 h34.0" fill="none" stroke="#000000" stroke-width="2" /><path d="M37.5,47.5 h33.5 c-0.518,9.062 -2.314,11 -7.5,11 c-3.201,0 -7.253,-0.132 -13,-0.5" fill="none" stroke="#000000" stroke-width="2" /><path d="M29.5,90 V66.0 c6.39,-0.94 12.349,-2.331 17.5,-4" fill="none" stroke="#000000" stroke-width="2" /></svg>