<?xml version='1.0' encoding='utf-8'?>
<svg xmlns="http://www.w3.org/2000/svg" height="100px" version="1.0" viewBox="0 0 100 100" width="100px" x="0px" y="0px">
<line fill="none" stroke="#000000" stroke-width="2" x1="91" x2="38.5" y1="87" y2="87" /><line fill="none" stroke="#000000" stroke-width="2" x1="69" x2="91" y1="68" y2="68" /><line fill="none" stroke="#000000" stroke-width="2" x1="38.5" x2="60.5" y1="68" y2="68" /><polyline fill="none" points="35,10 10,10 10,94" stroke="#000000" stroke-width="2" /><polyline fill="none" points="66.5,49.5 91,49.5 91,93" stroke="#000000" stroke-width="2" /><path d="M15,71 h5.0 c7.789,0 11,-2.928 11,-10.5 c0,-8.302 -2.023,-13.576 -10,-23.5 c5.083,-8.09 9.91,-17.88 13.063,-26.349" fill="none" stroke="#000000" stroke-width="2" /><path d="M33.5,43.5 c10.482,-11.61 17.53,-24.411 22,-40" fill="none" stroke="#000000" stroke-width="2" /><path d="M52.5,12 h39.0 c-0.68,22.471 -3.289,26 -10.5,26 c-4.002,0 -9.811,-0.321 -17,-1" fill="none" stroke="#000000" stroke-width="2" /><path d="M38.5,93 V51.5 c8.932,-1.325 17.035,-3.591 24,-6.5" fill="none" stroke="#000000" stroke-width="2" /></svg>