<?xml version='1.0' encoding='utf-8'?>
<svg xmlns="http://www.w3.org/2000/svg" height="100px" version="1.0" viewBox="0 0 100 100" width="100px" x="0px" y="0px">
<line fill="none" stroke="#000000" stroke-width="2" x1="33" x2="95" y1="54.5" y2="54.5" /><line fill="none" stroke="#000000" stroke-width="2" x1="44" x2="44" y1="89.5" y2="54.5" /><line fill="none" stroke="#000000" stroke-width="2" x1="64" x2="64" y1="11" y2="43.5" /><line fill="none" stroke="#000000" stroke-width="2" x1="40" x2="89" y1="26.5" y2="26.5" /><polyline fill="none" points="34.5,10 10.5,10 10.5,93" stroke="#000000" stroke-width="2" /><polyline fill="none" points="40,43.5 89,43.5 89,10 39,10 39,44.5" stroke="#000000" stroke-width="2" /><path d="M61.5,54.5 c5.89,17.247 19.102,31.551 35,38" fill="none" stroke="#000000" stroke-width="2" /><path d="M28.5,92.5 c13.629,-2.379 25.426,-5.523 39.5,-10.5" fill="none" stroke="#000000" stroke-width="2" /><path d="M73.5,75.5 c6.41,-4.505 12.216,-10.013 17,-16" fill="none" stroke="#000000" stroke-width="2" /><path d="M14.5,71 h5.0 c7.789,0 11,-2.928 11,-10.5 c0,-8.302 -2.023,-13.576 -10,-23.5 c5.083,-8.09 9.91,-17.88 13.063,-26.349" fill="none" stroke="#000000" stroke-width="2" /></svg>