<?xml version='1.0' encoding='utf-8'?>
<svg xmlns="http://www.w3.org/2000/svg" height="100px" version="1.0" viewBox="0 0 100 100" width="100px" x="0px" y="0px">
<line fill="none" stroke="#000000" stroke-width="2" x1="67" x2="67" y1="91.5" y2="20.5" /><line fill="none" stroke="#000000" stroke-width="2" x1="87.5" x2="47" y1="50.5" y2="50.5" /><line fill="none" stroke="#000000" stroke-width="2" x1="4" x2="45.5" y1="18" y2="18" /><line fill="none" stroke="#000000" stroke-width="2" x1="9.5" x2="40.5" y1="63" y2="63" /><line fill="none" stroke="#000000" stroke-width="2" x1="3.5" x2="45" y1="75.5" y2="75.5" /><line fill="none" stroke="#000000" stroke-width="2" x1="25" x2="25" y1="94" y2="30.5" /><polyline fill="none" points="36,6.5 36,30.5 14,30.5 14,6.5" stroke="#000000" stroke-width="2" /><polyline fill="none" points="41.5,64 41.5,41 8.5,41 8.5,64" stroke="#000000" stroke-width="2" /><path d="M43,38.5 c5.281,-8.975 9.787,-21.536 12,-34" fill="none" stroke="#000000" stroke-width="2" /><path d="M85.5,79.5 c-6.896,-12.707 -12.383,-21.757 -17.5,-29" fill="none" stroke="#000000" stroke-width="2" /><path d="M42.5,86 c10.465,-10.343 18.053,-22.161 23,-35" fill="none" stroke="#000000" stroke-width="2" /><path d="M60.5,45 c-2.543,-6.899 -5.344,-13.706 -8,-19.5" fill="none" stroke="#000000" stroke-width="2" /><path d="M73.5,45 c3.807,-6.839 7.265,-14.659 9.5,-21.5" fill="none" stroke="#000000" stroke-width="2" /><path d="M52.5,15 h41.0 c-1.785,74.393 -2.278,75 -10,75 c-3.005,0 -5.967,-0.157 -9,-0.5" fill="none" stroke="#000000" stroke-width="2" /></svg>