<?xml version='1.0' encoding='utf-8'?>
<svg xmlns="http://www.w3.org/2000/svg" height="100px" version="1.0" viewBox="0 0 100 100" width="100px" x="0px" y="0px">
<line fill="none" stroke="#000000" stroke-width="2" x1="51.5" x2="96" y1="10.5" y2="10.5" /><line fill="none" stroke="#000000" stroke-width="2" x1="54.5" x2="91" y1="57" y2="57" /><line fill="none" stroke="#000000" stroke-width="2" x1="54.5" x2="91" y1="41" y2="41" /><line fill="none" stroke="#000000" stroke-width="2" x1="28" x2="28" y1="46.5" y2="86" /><line fill="none" stroke="#000000" stroke-width="2" x1="47.5" x2="8" y1="61.5" y2="61.5" /><line fill="none" stroke="#000000" stroke-width="2" x1="6.5" x2="47.5" y1="10.5" y2="10.5" /><polyline fill="none" points="54.5,73.5 92,73.5 92,25.5 53.5,25.5 53.5,74.5" stroke="#000000" stroke-width="2" /><path d="M47,92.5 c8.147,-3.901 15,-9.159 19,-14" fill="none" stroke="#000000" stroke-width="2" /><path d="M96.5,93 c-4.391,-4.882 -10.4,-10.108 -17,-14.5" fill="none" stroke="#000000" stroke-width="2" /><path d="M71.5,10.5 c-0.84,5.553 -1.835,10.448 -3,15" fill="none" stroke="#000000" stroke-width="2" /><path d="M6.5,90.5 c18.373,-3.287 34.195,-7.9 43.5,-12" fill="none" stroke="#000000" stroke-width="2" /><path d="M5.5,48.5 c20.27,-6.242 34.841,-19.606 41.055,-37.33" fill="none" stroke="#000000" stroke-width="2" /><path d="M49.5,46.5 c-19.309,-7.349 -30.728,-17.502 -37,-32" fill="none" stroke="#000000" stroke-width="2" /></svg>