<?xml version='1.0' encoding='utf-8'?>
<svg xmlns="http://www.w3.org/2000/svg" height="100px" version="1.0" viewBox="0 0 100 100" width="100px" x="0px" y="0px">
<line fill="none" stroke="#000000" stroke-width="2" x1="47.5" x2="6" y1="60" y2="60" /><line fill="none" stroke="#000000" stroke-width="2" x1="45.5" x2="8.5" y1="47" y2="47" /><line fill="none" stroke="#000000" stroke-width="2" x1="49" x2="96" y1="10.5" y2="10.5" /><line fill="none" stroke="#000000" stroke-width="2" x1="54" x2="90" y1="57" y2="57" /><line fill="none" stroke="#000000" stroke-width="2" x1="54" x2="90" y1="41" y2="41" /><polyline fill="none" points="54,73.5 91,73.5 91,25.5 53,25.5 53,74.5" stroke="#000000" stroke-width="2" /><path d="M28,60 v26.0 c0,4.521 -0.41,5 -4.5,5 c-2.01,0 -5.49,-0.173 -9.5,-0.5" fill="none" stroke="#000000" stroke-width="2" /><path d="M5,86.5 c4.57,-5.647 8.297,-12.813 10.5,-20.5" fill="none" stroke="#000000" stroke-width="2" /><path d="M47.5,84 c-2.25,-5.946 -5.219,-12.303 -8.5,-18" fill="none" stroke="#000000" stroke-width="2" /><path d="M46,92.5 c7.587,-3.835 14.14,-9.067 18,-14" fill="none" stroke="#000000" stroke-width="2" /><path d="M95.5,93 c-4.649,-4.882 -11.013,-10.108 -18,-14.5" fill="none" stroke="#000000" stroke-width="2" /><path d="M71,10.5 c-0.84,5.553 -1.835,10.448 -3,15" fill="none" stroke="#000000" stroke-width="2" /><path d="M10,7.5 v24.5 c0,3.841 0.222,4 15,4 c18.194,0 18.409,-0.153 20,-14" fill="none" stroke="#000000" stroke-width="2" /><path d="M10,20.5 c11.844,-2.057 22.086,-4.798 34,-9" fill="none" stroke="#000000" stroke-width="2" /></svg>