<?xml version='1.0' encoding='utf-8'?>
<svg xmlns="http://www.w3.org/2000/svg" height="100px" version="1.0" viewBox="0 0 100 100" width="100px" x="0px" y="0px">
<line fill="none" stroke="#000000" stroke-width="2" x1="11" x2="38" y1="43" y2="43" /><line fill="none" stroke="#000000" stroke-width="2" x1="10" x2="41" y1="68" y2="68" /><line fill="none" stroke="#000000" stroke-width="2" x1="10" x2="41" y1="81" y2="81" /><line fill="none" stroke="#000000" stroke-width="2" x1="14.5" x2="34.5" y1="22" y2="22" /><line fill="none" stroke="#000000" stroke-width="2" x1="41.5" x2="96" y1="18" y2="18" /><line fill="none" stroke="#000000" stroke-width="2" x1="69" x2="69" y1="17" y2="4" /><polyline fill="none" points="11,56 38,56 38,31 10,31 10,94" stroke="#000000" stroke-width="2" /><path d="M40.5,22 c-6.387,-5.089 -11.688,-10.214 -17,-16.5 c-5.83,8.159 -12.289,15.255 -19.5,21.5" fill="none" stroke="#000000" stroke-width="2" /><path d="M38,92 c26.012,-9.501 38.56,-22.096 47,-47" fill="none" stroke="#000000" stroke-width="2" /><path d="M96.5,92 c-23.877,-9.674 -34.835,-21.624 -43,-47" fill="none" stroke="#000000" stroke-width="2" /><path d="M60,23 c-3.776,8.976 -9.803,17.659 -17.5,25" fill="none" stroke="#000000" stroke-width="2" /><path d="M95.5,48.5 c-5.111,-8.679 -11.301,-17.298 -18,-25" fill="none" stroke="#000000" stroke-width="2" /></svg>