<?xml version='1.0' encoding='utf-8'?>
<svg xmlns="http://www.w3.org/2000/svg" height="100px" version="1.0" viewBox="0 0 100 100" width="100px" x="0px" y="0px">
<line fill="none" stroke="#000000" stroke-width="2" x1="50" x2="50" y1="40.5" y2="49" /><line fill="none" stroke="#000000" stroke-width="2" x1="22.5" x2="78.5" y1="60" y2="60" /><line fill="none" stroke="#000000" stroke-width="2" x1="52" x2="93" y1="8.5" y2="8.5" /><line fill="none" stroke="#000000" stroke-width="2" x1="17.5" x2="49" y1="19" y2="19" /><line fill="none" stroke="#000000" stroke-width="2" x1="30" x2="30" y1="19" y2="3.5" /><line fill="none" stroke="#000000" stroke-width="2" x1="30" x2="48" y1="9.5" y2="9.5" /><polyline fill="none" points="22.5,71.5 78.5,71.5 78.5,49 21.5,49 21.5,91" stroke="#000000" stroke-width="2" /><path d="M41,71.5 c9.028,9.013 28.153,17.425 52,21" fill="none" stroke="#000000" stroke-width="2" /><path d="M62.5,84.5 c8.916,-3.424 17.295,-8.124 24,-13.5" fill="none" stroke="#000000" stroke-width="2" /><path d="M94.5,53 c-16.957,-4.875 -31.088,-10.269 -44.5,-16.75 c-13.412,6.481 -27.543,11.875 -44.5,16.75" fill="none" stroke="#000000" stroke-width="2" /><path d="M7,92.5 c15.336,-1.361 28.686,-3.205 44,-6" fill="none" stroke="#000000" stroke-width="2" /><path d="M50.5,32.5 c20.926,-3.749 35.492,-12.632 41.629,-23.492" fill="none" stroke="#000000" stroke-width="2" /><path d="M95,42.5 c-19.634,-6.252 -31.553,-16.589 -37,-31" fill="none" stroke="#000000" stroke-width="2" /><path d="M5,28.5 c7.768,-4.085 13.632,-9.558 17,-15.5" fill="none" stroke="#000000" stroke-width="2" /><path d="M48.068,19.635 c-3.535,9.023 -17.063,18.031 -40.068,22.365" fill="none" stroke="#000000" stroke-width="2" /><path d="M35.5,32.5 c-4.915,-2.819 -11.117,-5.837 -16.5,-8" fill="none" stroke="#000000" stroke-width="2" /></svg>