<?xml version='1.0' encoding='utf-8'?>
<svg xmlns="http://www.w3.org/2000/svg" height="100px" version="1.0" viewBox="0 0 100 100" width="100px" x="0px" y="0px">
<line fill="none" stroke="#000000" stroke-width="2" x1="11" x2="38" y1="43" y2="43" /><line fill="none" stroke="#000000" stroke-width="2" x1="10" x2="41" y1="68" y2="68" /><line fill="none" stroke="#000000" stroke-width="2" x1="10" x2="41" y1="81" y2="81" /><line fill="none" stroke="#000000" stroke-width="2" x1="14.5" x2="34.5" y1="22" y2="22" /><line fill="none" stroke="#000000" stroke-width="2" x1="91.5" x2="47" y1="87" y2="87" /><line fill="none" stroke="#000000" stroke-width="2" x1="73" x2="91.5" y1="68" y2="68" /><line fill="none" stroke="#000000" stroke-width="2" x1="47" x2="65.5" y1="68" y2="68" /><polyline fill="none" points="11,56 38,56 38,31 10,31 10,94" stroke="#000000" stroke-width="2" /><polyline fill="none" points="70.5,49.5 91.5,49.5 91.5,93" stroke="#000000" stroke-width="2" /><path d="M42,23.5 c-6.95,-5.552 -12.719,-11.143 -18.5,-18 c-5.83,8.159 -12.289,15.255 -19.5,21.5" fill="none" stroke="#000000" stroke-width="2" /><path d="M43.5,43.5 c9.529,-11.61 15.937,-24.411 20,-40" fill="none" stroke="#000000" stroke-width="2" /><path d="M61,12 h31.0 c-0.664,21.959 -3.168,26 -9.5,26 c-4.002,0 -9.311,-0.321 -16.5,-1" fill="none" stroke="#000000" stroke-width="2" /><path d="M47,93 V51.5 c6.965,-1.306 13.408,-3.55 19,-6.5" fill="none" stroke="#000000" stroke-width="2" /></svg>