<?xml version='1.0' encoding='utf-8'?>
<svg xmlns="http://www.w3.org/2000/svg" height="100px" version="1.0" viewBox="0 0 100 100" width="100px" x="0px" y="0px">
<line fill="none" stroke="#000000" stroke-width="2" x1="11" x2="38" y1="43" y2="43" /><line fill="none" stroke="#000000" stroke-width="2" x1="10" x2="41" y1="68" y2="68" /><line fill="none" stroke="#000000" stroke-width="2" x1="10" x2="41" y1="81" y2="81" /><line fill="none" stroke="#000000" stroke-width="2" x1="14.5" x2="34.5" y1="22" y2="22" /><line fill="none" stroke="#000000" stroke-width="2" x1="61" x2="61" y1="53.5" y2="40.5" /><line fill="none" stroke="#000000" stroke-width="2" x1="78" x2="78" y1="53.5" y2="40.5" /><line fill="none" stroke="#000000" stroke-width="2" x1="48" x2="89.5" y1="21" y2="21" /><line fill="none" stroke="#000000" stroke-width="2" x1="43" x2="93.5" y1="62.5" y2="62.5" /><polyline fill="none" points="11,56 38,56 38,31 10,31 10,94" stroke="#000000" stroke-width="2" /><polyline fill="none" points="45,54.5 95,54.5 95,39.5 44,39.5 44,55.5" stroke="#000000" stroke-width="2" /><polyline fill="none" points="48,32 90.5,32 90.5,10 47,10 47,33" stroke="#000000" stroke-width="2" /><path d="M42,23.5 c-6.95,-5.552 -12.719,-11.143 -18.5,-18 c-5.83,8.159 -12.289,15.255 -19.5,21.5" fill="none" stroke="#000000" stroke-width="2" /><path d="M38,91 c26.045,-5.12 45.195,-15.801 54.709,-28.111" fill="none" stroke="#000000" stroke-width="2" /><path d="M96,91 c-20.598,-4.211 -35.883,-12.618 -46.5,-25" fill="none" stroke="#000000" stroke-width="2" /></svg>