<?xml version='1.0' encoding='utf-8'?>
<svg xmlns="http://www.w3.org/2000/svg" height="100px" version="1.0" viewBox="0 0 100 100" width="100px" x="0px" y="0px">
<line fill="none" stroke="#000000" stroke-width="2" x1="50" x2="50" y1="48" y2="55" /><line fill="none" stroke="#000000" stroke-width="2" x1="22.5" x2="78.5" y1="64.5" y2="64.5" /><line fill="none" stroke="#000000" stroke-width="2" x1="38.5" x2="62" y1="18" y2="18" /><line fill="none" stroke="#000000" stroke-width="2" x1="3" x2="29.5" y1="35" y2="32" /><polyline fill="none" points="22.5,74.5 78.5,74.5 78.5,55 21.5,55 21.5,91" stroke="#000000" stroke-width="2" /><polyline fill="none" points="38.5,27.5 63,27.5 63,9 37.5,9 37.5,42" stroke="#000000" stroke-width="2" /><polyline fill="none" points="96,8.5 70.5,8.5 70.5,47.5" stroke="#000000" stroke-width="2" /><path d="M41,74.5 c9.028,7.76 28.153,14.923 52,18" fill="none" stroke="#000000" stroke-width="2" /><path d="M62,85.5 c8.916,-2.948 17.603,-7.087 24.5,-11.5" fill="none" stroke="#000000" stroke-width="2" /><path d="M94.5,58.5 c-16.957,-4.075 -31.083,-8.593 -44.5,-14 c-13.417,5.407 -27.543,9.925 -44.5,14" fill="none" stroke="#000000" stroke-width="2" /><path d="M26,43.5 c11.84,-1.25 22.277,-2.9 34.5,-5.5" fill="none" stroke="#000000" stroke-width="2" /><path d="M66.5,44.5 c-3.671,-4.424 -9.011,-9.754 -14,-14" fill="none" stroke="#000000" stroke-width="2" /><path d="M8,34.5 c9.295,-6.365 17.752,-13.558 25,-21" fill="none" stroke="#000000" stroke-width="2" /><path d="M20.5,25 c-4.48,-3.453 -10.59,-7.804 -15.5,-11" fill="none" stroke="#000000" stroke-width="2" /><path d="M10.5,18 c4.476,-3.638 8.651,-7.495 12.5,-11.5" fill="none" stroke="#000000" stroke-width="2" /><path d="M5,49.5 c13.406,-5.165 24.05,-14.525 28,-23.5" fill="none" stroke="#000000" stroke-width="2" /><path d="M77,42.5 h5.0 c11.082,0 13.5,-1.811 13.5,-7.5 c0,-4.688 -4.773,-9.641 -14,-12.5 c5.357,-4.361 10.155,-9.151 13.718,-13.623" fill="none" stroke="#000000" stroke-width="2" /><path d="M7,92.5 c15.336,-1.474 28.686,-3.472 44,-6.5" fill="none" stroke="#000000" stroke-width="2" /></svg>