<?xml version='1.0' encoding='utf-8'?>
<svg xmlns="http://www.w3.org/2000/svg" height="100px" version="1.0" viewBox="0 0 100 100" width="100px" x="0px" y="0px">
<line fill="none" stroke="#000000" stroke-width="2" x1="7" x2="93" y1="58" y2="58" /><line fill="none" stroke="#000000" stroke-width="2" x1="50" x2="50" y1="70" y2="50" /><line fill="none" stroke="#000000" stroke-width="2" x1="20" x2="81" y1="90.5" y2="90.5" /><line fill="none" stroke="#000000" stroke-width="2" x1="20" x2="81" y1="80" y2="80" /><line fill="none" stroke="#000000" stroke-width="2" x1="50.5" x2="91.5" y1="26.5" y2="26.5" /><line fill="none" stroke="#000000" stroke-width="2" x1="8.5" x2="48.5" y1="20" y2="20" /><line fill="none" stroke="#000000" stroke-width="2" x1="51.5" x2="5.5" y1="10.5" y2="10.5" /><line fill="none" stroke="#000000" stroke-width="2" x1="28.5" x2="28.5" y1="20" y2="4.5" /><line fill="none" stroke="#000000" stroke-width="2" x1="28.5" x2="28.5" y1="27" y2="40.5" /><polyline fill="none" points="81,95 81,70 19,70 19,95" stroke="#000000" stroke-width="2" /><path d="M16,51 c23.438,0 46.02,-1.191 67.5,-3.5" fill="none" stroke="#000000" stroke-width="2" /><path d="M6,72.5 c20.788,-4.58 34.387,-9.401 43,-14.5" fill="none" stroke="#000000" stroke-width="2" /><path d="M94,72.5 c-20.788,-4.58 -34.396,-9.386 -43,-14.5" fill="none" stroke="#000000" stroke-width="2" /><path d="M50.5,23 c5.697,-2.676 8.5,-6.994 8.5,-14 v-1.5 h24.0 V19.0 c0,1.99 0.841,2.5 5,2.5 c7.25,0 7.514,-0.227 8,-7.5" fill="none" stroke="#000000" stroke-width="2" /><path d="M47.5,45.5 c22.509,-4.13 34.811,-9.971 43.282,-18.695" fill="none" stroke="#000000" stroke-width="2" /><path d="M95.5,48.5 c-15.96,-4.156 -30.008,-11.271 -38.5,-19" fill="none" stroke="#000000" stroke-width="2" /><path d="M6,53.8 c3.537,-5.176 5.5,-12.727 5.5,-23.3 V27.0 h34.0 v14.5 h-35.0" fill="none" stroke="#000000" stroke-width="2" /></svg>