<?xml version='1.0' encoding='utf-8'?>
<svg xmlns="http://www.w3.org/2000/svg" height="100px" version="1.0" viewBox="0 0 100 100" width="100px" x="0px" y="0px">
<line fill="none" stroke="#000000" stroke-width="2" x1="61" x2="61" y1="10" y2="57" /><line fill="none" stroke="#000000" stroke-width="2" x1="34" x2="88" y1="41.5" y2="41.5" /><line fill="none" stroke="#000000" stroke-width="2" x1="34" x2="88" y1="25.5" y2="25.5" /><path d="M5.5,89.5 c8.342,-10.068 15.25,-21.444 20,-33" fill="none" stroke="#000000" stroke-width="2" /><path d="M23,30 c-4.577,-6.477 -10.034,-12.941 -16.5,-19.5" fill="none" stroke="#000000" stroke-width="2" /><path d="M90.5,10 H34.0 v48.0 h59.0 c0,28.757 -3.117,33.5 -11,33.5 c-3.279,0 -8.379,-0.161 -14,-0.5" fill="none" stroke="#000000" stroke-width="2" /><path d="M85,77.5 c-1.74,-4.469 -3.701,-9.208 -6,-14.5" fill="none" stroke="#000000" stroke-width="2" /><path d="M67.5,82.5 c-1.189,-5.478 -2.643,-11.254 -4.5,-17.75" fill="none" stroke="#000000" stroke-width="2" /><path d="M50,87.5 c-0.639,-6.487 -1.585,-13.3 -3,-21" fill="none" stroke="#000000" stroke-width="2" /><path d="M27,90.5 c2.822,-7.073 5.316,-14.907 7.5,-24" fill="none" stroke="#000000" stroke-width="2" /></svg>