<?xml version='1.0' encoding='utf-8'?>
<svg xmlns="http://www.w3.org/2000/svg" height="100px" version="1.0" viewBox="0 0 100 100" width="100px" x="0px" y="0px">
<line fill="none" stroke="#000000" stroke-width="2" x1="26" x2="26" y1="11.5" y2="56" /><line fill="none" stroke="#000000" stroke-width="2" x1="11" x2="40" y1="41" y2="41" /><line fill="none" stroke="#000000" stroke-width="2" x1="11" x2="40" y1="25.5" y2="25.5" /><line fill="none" stroke="#000000" stroke-width="2" x1="69.5" x2="69.5" y1="18" y2="4" /><line fill="none" stroke="#000000" stroke-width="2" x1="43.5" x2="96" y1="18" y2="18" /><path d="M36,78 c-1.045,-4.762 -2.381,-9.932 -4,-15.5" fill="none" stroke="#000000" stroke-width="2" /><path d="M27.25,82.25 c-0.666,-5.847 -1.643,-12.114 -3,-19" fill="none" stroke="#000000" stroke-width="2" /><path d="M18.5,86.5 c-0.287,-6.932 -0.904,-14.298 -2,-22.5" fill="none" stroke="#000000" stroke-width="2" /><path d="M5.5,89.5 c2.229,-7.541 3.926,-16.133 5,-26" fill="none" stroke="#000000" stroke-width="2" /><path d="M42.5,10.5 H10.0 v46.5 h31.0 c0,30.181 -2.043,34.5 -5,34.5 c-2.813,0 -6.941,-0.3 -12,-1" fill="none" stroke="#000000" stroke-width="2" /><path d="M61.5,23 c-3.719,8.748 -9.793,17.254 -18,25" fill="none" stroke="#000000" stroke-width="2" /><path d="M95.5,48.5 c-4.889,-8.309 -11.088,-16.972 -18,-25" fill="none" stroke="#000000" stroke-width="2" /><path d="M42,92 c24.39,-9.979 36.118,-22.255 44,-47" fill="none" stroke="#000000" stroke-width="2" /><path d="M96.5,92 c-23.795,-9.854 -34.586,-21.858 -42.5,-47" fill="none" stroke="#000000" stroke-width="2" /></svg>