<?xml version='1.0' encoding='utf-8'?>
<svg xmlns="http://www.w3.org/2000/svg" height="100px" version="1.0" viewBox="0 0 100 100" width="100px" x="0px" y="0px">
<line fill="none" stroke="#000000" stroke-width="2" x1="24" x2="24" y1="11.5" y2="56" /><line fill="none" stroke="#000000" stroke-width="2" x1="9" x2="38" y1="41" y2="41" /><line fill="none" stroke="#000000" stroke-width="2" x1="9" x2="38" y1="25.5" y2="25.5" /><line fill="none" stroke="#000000" stroke-width="2" x1="64.5" x2="64.5" y1="19" y2="3" /><line fill="none" stroke="#000000" stroke-width="2" x1="64.5" x2="91.5" y1="10.5" y2="10.5" /><line fill="none" stroke="#000000" stroke-width="2" x1="48.5" x2="83" y1="32" y2="26" /><line fill="none" stroke="#000000" stroke-width="2" x1="71.5" x2="71.5" y1="65" y2="44" /><line fill="none" stroke="#000000" stroke-width="2" x1="53" x2="91" y1="55" y2="55" /><line fill="none" stroke="#000000" stroke-width="2" x1="49.5" x2="49.5" y1="74" y2="91.5" /><line fill="none" stroke="#000000" stroke-width="2" x1="64" x2="64" y1="73" y2="90.5" /><line fill="none" stroke="#000000" stroke-width="2" x1="78.5" x2="78.5" y1="73" y2="90.5" /><line fill="none" stroke="#000000" stroke-width="2" x1="43.5" x2="98" y1="91.5" y2="91.5" /><polyline fill="none" points="53,66 91,66 91,44 52,44 52,67" stroke="#000000" stroke-width="2" /><polyline fill="none" points="93,91.5 93,73 48.5,73" stroke="#000000" stroke-width="2" /><path d="M34,78 c-1.045,-4.762 -2.381,-9.932 -4,-15.5" fill="none" stroke="#000000" stroke-width="2" /><path d="M25.25,82.25 c-0.666,-5.847 -1.643,-12.114 -3,-19" fill="none" stroke="#000000" stroke-width="2" /><path d="M16.5,86.5 c-0.287,-6.932 -0.904,-14.298 -2,-22.5" fill="none" stroke="#000000" stroke-width="2" /><path d="M3.5,89.5 c2.229,-7.541 3.926,-16.133 5,-26" fill="none" stroke="#000000" stroke-width="2" /><path d="M39,10.5 h-31.0 v46.5 h29.5 c0,30.181 -2.043,34.5 -5,34.5 c-2.813,0 -6.941,-0.3 -12,-1" fill="none" stroke="#000000" stroke-width="2" /><path d="M39.5,91 c3.664,-14.13 5.5,-29.671 5.5,-51 v-21.0 h50.5" fill="none" stroke="#000000" stroke-width="2" /><path d="M85.5,30.5 c3.808,-3.414 6.633,-6.811 9.142,-11.013" fill="none" stroke="#000000" stroke-width="2" /><path d="M57.5,19 v13.5 c0,5.37 0.156,5.5 15,5.5 c20.176,0 20.312,-0.133 21,-10.5" fill="none" stroke="#000000" stroke-width="2" /></svg>