<?xml version='1.0' encoding='utf-8'?>
<svg xmlns="http://www.w3.org/2000/svg" height="100px" version="1.0" viewBox="0 0 100 100" width="100px" x="0px" y="0px">
<line fill="none" stroke="#000000" stroke-width="2" x1="6" x2="53" y1="35.5" y2="35.5" /><line fill="none" stroke="#000000" stroke-width="2" x1="15.5" x2="49" y1="17.5" y2="17.5" /><line fill="none" stroke="#000000" stroke-width="2" x1="15.5" x2="49" y1="26.5" y2="26.5" /><line fill="none" stroke="#000000" stroke-width="2" x1="29.5" x2="29.5" y1="54" y2="88" /><line fill="none" stroke="#000000" stroke-width="2" x1="14" x2="14" y1="60.5" y2="91" /><line fill="none" stroke="#000000" stroke-width="2" x1="51" x2="29.5" y1="67.5" y2="67.5" /><polyline fill="none" points="15.5,35.5 15.5,8.5 51,8.5" stroke="#000000" stroke-width="2" /><path d="M56,16.5 c14.216,-2.384 25.34,-5.55 33,-9" fill="none" stroke="#000000" stroke-width="2" /><path d="M56,32.5 c15.823,-2.891 26.667,-6.495 35,-11" fill="none" stroke="#000000" stroke-width="2" /><path d="M55,49.5 c16.514,-2.933 27.96,-6.983 38,-13" fill="none" stroke="#000000" stroke-width="2" /><path d="M52,52.5 c-3.581,-4.366 -8.791,-9.806 -13.5,-14" fill="none" stroke="#000000" stroke-width="2" /><path d="M6.5,51 C18.512,50.524 32.378,48.941 46,46.5" fill="none" stroke="#000000" stroke-width="2" /><path d="M13.5,50.5 c2.876,-4.344 5.607,-9.426 8,-15" fill="none" stroke="#000000" stroke-width="2" /><path d="M7,92 c18.746,-2.888 34.885,-6.233 44.5,-9" fill="none" stroke="#000000" stroke-width="2" /><path d="M57,54 v31.5 c0,3.896 0.834,4.5 15,4.5 c17.707,0 17.926,-0.154 20,-16" fill="none" stroke="#000000" stroke-width="2" /><path d="M57,71 c11.74,-2.677 21.984,-6.337 34,-12" fill="none" stroke="#000000" stroke-width="2" /></svg>