<?xml version='1.0' encoding='utf-8'?>
<svg xmlns="http://www.w3.org/2000/svg" height="100px" version="1.0" viewBox="0 0 100 100" width="100px" x="0px" y="0px">
<line fill="none" stroke="#000000" stroke-width="2" x1="6" x2="53" y1="33" y2="33" /><line fill="none" stroke="#000000" stroke-width="2" x1="15.5" x2="49" y1="16" y2="16" /><line fill="none" stroke="#000000" stroke-width="2" x1="15.5" x2="49" y1="24.5" y2="24.5" /><line fill="none" stroke="#000000" stroke-width="2" x1="27" x2="27" y1="94" y2="46" /><line fill="none" stroke="#000000" stroke-width="2" x1="44.5" x2="7" y1="58" y2="58" /><polyline fill="none" points="15.5,33 15.5,7.5 51,7.5" stroke="#000000" stroke-width="2" /><path d="M56,15.5 c14.216,-2.384 25.34,-5.55 33,-9" fill="none" stroke="#000000" stroke-width="2" /><path d="M56,30 c15.823,-2.891 26.667,-6.495 35,-11" fill="none" stroke="#000000" stroke-width="2" /><path d="M55,45.5 c16.514,-2.933 27.96,-6.983 38,-13" fill="none" stroke="#000000" stroke-width="2" /><path d="M52,50 c-3.581,-4.366 -8.791,-9.806 -13.5,-14" fill="none" stroke="#000000" stroke-width="2" /><path d="M6.5,47.5 c12.012,-0.476 25.879,-2.059 39.5,-4.5" fill="none" stroke="#000000" stroke-width="2" /><path d="M13.5,47 c2.877,-4.054 5.607,-8.797 8,-14" fill="none" stroke="#000000" stroke-width="2" /><path d="M4,86.5 c10.543,-9.33 17.6,-18.388 22.5,-28.353" fill="none" stroke="#000000" stroke-width="2" /><path d="M42,78.5 c-4.586,-6.57 -9.663,-13.37 -15,-20" fill="none" stroke="#000000" stroke-width="2" /><path d="M92.575,94.5 c-4.297,-7.214 -10.604,-16.452 -16.075,-23.5" fill="none" stroke="#000000" stroke-width="2" /><path d="M38.5,91 c14.793,-0.45 32.691,-1.902 49.5,-4" fill="none" stroke="#000000" stroke-width="2" /><path d="M49.895,90.5 c4.012,-7.886 8.113,-17.521 11.641,-27.5" fill="none" stroke="#000000" stroke-width="2" /><path d="M57,50 c-4.069,7.423 -9.717,14.263 -17,20.5" fill="none" stroke="#000000" stroke-width="2" /><path d="M61,50 h15.5 c4.479,7.394 10.615,14.222 18.5,20.5" fill="none" stroke="#000000" stroke-width="2" /></svg>