<?xml version='1.0' encoding='utf-8'?>
<svg xmlns="http://www.w3.org/2000/svg" height="100px" version="1.0" viewBox="0 0 100 100" width="100px" x="0px" y="0px">
<line fill="none" stroke="#000000" stroke-width="2" x1="24.5" x2="24.5" y1="47.5" y2="11.5" /><line fill="none" stroke="#000000" stroke-width="2" x1="43" x2="5.5" y1="26" y2="26" /><line fill="none" stroke="#000000" stroke-width="2" x1="69" x2="69" y1="16.5" y2="52.5" /><line fill="none" stroke="#000000" stroke-width="2" x1="48" x2="90" y1="34" y2="34" /><line fill="none" stroke="#000000" stroke-width="2" x1="46.5" x2="5.5" y1="58" y2="58" /><polyline fill="none" points="48,53.5 91,53.5 91,15.5 47,15.5 47,54.5" stroke="#000000" stroke-width="2" /><path d="M6,51 c8.487,-8.315 13.946,-16.355 17.5,-25.5" fill="none" stroke="#000000" stroke-width="2" /><path d="M41,8 c-11.439,2.777 -22.01,4.682 -33,6" fill="none" stroke="#000000" stroke-width="2" /><path d="M43,45.5 c-5.518,-6.295 -11.878,-13.188 -18,-19.5" fill="none" stroke="#000000" stroke-width="2" /><path d="M59,15.5 c3.021,-3.953 5.887,-8.271 8,-12" fill="none" stroke="#000000" stroke-width="2" /><path d="M69,54.5 v32.0 c0,4.291 0.898,5 11,5 c13.916,0 14.137,-0.209 15,-18.5" fill="none" stroke="#000000" stroke-width="2" /><path d="M34,93 c15.432,-7.194 24.5,-21.46 24.5,-39.5" fill="none" stroke="#000000" stroke-width="2" /><path d="M92,80.5 c-1.828,-5.17 -4.519,-11.548 -7,-16.5" fill="none" stroke="#000000" stroke-width="2" /><path d="M71,79 c5.814,-0.716 12.386,-2.078 19,-4" fill="none" stroke="#000000" stroke-width="2" /><path d="M74,78.5 c2.352,-5.835 4.707,-13.357 6.5,-21" fill="none" stroke="#000000" stroke-width="2" /><path d="M6,93 c17.958,-4.063 32.66,-18.35 35.516,-34.178" fill="none" stroke="#000000" stroke-width="2" /><path d="M23.5,50.5 c-3.145,9.011 -7.109,16.921 -12,24 c11.108,1.999 20.327,4.776 30.5,9" fill="none" stroke="#000000" stroke-width="2" /></svg>