<?xml version='1.0' encoding='utf-8'?>
<svg xmlns="http://www.w3.org/2000/svg" height="100px" version="1.0" viewBox="0 0 100 100" width="100px" x="0px" y="0px">
<line fill="none" stroke="#000000" stroke-width="2" x1="26" x2="66" y1="8.5" y2="8.5" /><line fill="none" stroke="#000000" stroke-width="2" x1="17" x2="85" y1="33" y2="33" /><line fill="none" stroke="#000000" stroke-width="2" x1="50.5" x2="50.5" y1="19.5" y2="46" /><line fill="none" stroke="#000000" stroke-width="2" x1="18" x2="18" y1="61.5" y2="94" /><line fill="none" stroke="#000000" stroke-width="2" x1="18" x2="82" y1="88" y2="88" /><line fill="none" stroke="#000000" stroke-width="2" x1="19" x2="82" y1="75" y2="75" /><polyline fill="none" points="16,48 16,19.5 85,19.5 85,47 17,47" stroke="#000000" stroke-width="2" /><polyline fill="none" points="82,94 82,62.5 19,62.5" stroke="#000000" stroke-width="2" /><path d="M52,19.5 c4.686,-3.291 9.439,-7.147 13.32,-10.731" fill="none" stroke="#000000" stroke-width="2" /><path d="M3.5,26.5 c12.232,-6.65 21.216,-14.826 27,-24" fill="none" stroke="#000000" stroke-width="2" /><path d="M95,64 c-4.48,-4.449 -9.656,-9.034 -16,-14" fill="none" stroke="#000000" stroke-width="2" /><path d="M67,62.5 c-2.762,-3.765 -6.133,-7.677 -10.5,-12" fill="none" stroke="#000000" stroke-width="2" /><path d="M39.5,62.5 c-1.043,-3.709 -2.61,-7.6 -5,-12" fill="none" stroke="#000000" stroke-width="2" /><path d="M5,64 c5.627,-3.946 10.896,-8.529 16,-14" fill="none" stroke="#000000" stroke-width="2" /></svg>