<?xml version='1.0' encoding='utf-8'?>
<svg xmlns="http://www.w3.org/2000/svg" height="100px" version="1.0" viewBox="0 0 100 100" width="100px" x="0px" y="0px">
<line fill="none" stroke="#000000" stroke-width="2" x1="14.5" x2="28.5" y1="11" y2="11" /><line fill="none" stroke="#000000" stroke-width="2" x1="9" x2="33" y1="45" y2="45" /><line fill="none" stroke="#000000" stroke-width="2" x1="21" x2="21" y1="27" y2="64" /><line fill="none" stroke="#000000" stroke-width="2" x1="70" x2="47" y1="30" y2="30" /><polyline fill="none" points="8,66 8,26 34,26 34,65 9,65" stroke="#000000" stroke-width="2" /><polyline fill="none" points="50.5,69 68.5,69 68.5,42 49.5,42 49.5,77" stroke="#000000" stroke-width="2" /><path d="M36,85 c-1.068,-5.149 -2.33,-10.234 -4,-16" fill="none" stroke="#000000" stroke-width="2" /><path d="M26.5,89.25 c-0.586,-6.128 -1.451,-12.415 -2.75,-19.5" fill="none" stroke="#000000" stroke-width="2" /><path d="M17,93.5 c-0.103,-7.107 -0.572,-14.597 -1.5,-23" fill="none" stroke="#000000" stroke-width="2" /><path d="M4,94.5 c2.512,-7.089 4.387,-15.212 5.5,-24.5" fill="none" stroke="#000000" stroke-width="2" /><path d="M21,26 c2.311,-4.407 4.655,-9.57 6.57,-14.37" fill="none" stroke="#000000" stroke-width="2" /><path d="M3.5,32.5 c5.917,-9.088 10.051,-18.157 13.5,-30" fill="none" stroke="#000000" stroke-width="2" /><path d="M74.5,3.5 c0,54.161 9.54,87.5 15.5,87.5 c1.814,0 3.809,-4.644 5,-23" fill="none" stroke="#000000" stroke-width="2" /><path d="M91.5,31 c-5.132,30.089 -19.273,50.847 -37,60" fill="none" stroke="#000000" stroke-width="2" /><path d="M79,3 c4.734,2.831 9.576,6.339 14,10" fill="none" stroke="#000000" stroke-width="2" /><path d="M36,91.5 c3.556,-12.535 5.5,-28.418 5.5,-51 V17.0 h52.5" fill="none" stroke="#000000" stroke-width="2" /></svg>