<?xml version='1.0' encoding='utf-8'?>
<svg xmlns="http://www.w3.org/2000/svg" height="100px" version="1.0" viewBox="0 0 100 100" width="100px" x="0px" y="0px">
<line fill="none" stroke="#000000" stroke-width="2" x1="14.5" x2="28.5" y1="11" y2="11" /><line fill="none" stroke="#000000" stroke-width="2" x1="9" x2="34" y1="45" y2="45" /><line fill="none" stroke="#000000" stroke-width="2" x1="21.5" x2="21.5" y1="27" y2="64" /><line fill="none" stroke="#000000" stroke-width="2" x1="46.5" x2="91.5" y1="88" y2="88" /><line fill="none" stroke="#000000" stroke-width="2" x1="46.5" x2="91.5" y1="74" y2="74" /><line fill="none" stroke="#000000" stroke-width="2" x1="39" x2="97" y1="27" y2="27" /><line fill="none" stroke="#000000" stroke-width="2" x1="82.5" x2="44" y1="13" y2="13" /><line fill="none" stroke="#000000" stroke-width="2" x1="64.5" x2="64.5" y1="27" y2="4.5" /><polyline fill="none" points="8,66 8,26 35,26 35,65 9,65" stroke="#000000" stroke-width="2" /><polyline fill="none" points="91.5,94 91.5,60 45.5,60 45.5,94" stroke="#000000" stroke-width="2" /><path d="M21,26 c2.311,-4.407 4.655,-9.57 6.57,-14.37" fill="none" stroke="#000000" stroke-width="2" /><path d="M3.5,32.5 c5.917,-9.088 10.051,-18.157 13.5,-30" fill="none" stroke="#000000" stroke-width="2" /><path d="M38.5,87.5 c-0.941,-5.596 -2.322,-12.039 -4,-18.5" fill="none" stroke="#000000" stroke-width="2" /><path d="M28,90.5 c-0.521,-6.352 -1.447,-13.317 -2.75,-20.75" fill="none" stroke="#000000" stroke-width="2" /><path d="M17.5,93.5 c-0.103,-7.107 -0.572,-14.597 -1.5,-23" fill="none" stroke="#000000" stroke-width="2" /><path d="M4,94.5 c2.512,-7.089 4.387,-15.212 5.5,-24.5" fill="none" stroke="#000000" stroke-width="2" /><path d="M38.5,45 c23.328,-8.05 43.064,-22.245 54.5,-38" fill="none" stroke="#000000" stroke-width="2" /><path d="M52.5,39 v7.5 c0,5.13 0.516,5.5 18.5,5.5 c20.473,0 20.615,-0.112 22,-11" fill="none" stroke="#000000" stroke-width="2" /><path d="M52.5,43 c12.734,-1.985 24.996,-4.892 38,-9" fill="none" stroke="#000000" stroke-width="2" /></svg>