<?xml version='1.0' encoding='utf-8'?>
<svg xmlns="http://www.w3.org/2000/svg" height="100px" version="1.0" viewBox="0 0 100 100" width="100px" x="0px" y="0px">
<line fill="none" stroke="#000000" stroke-width="2" x1="68" x2="68" y1="50" y2="10" /><line fill="none" stroke="#000000" stroke-width="2" x1="44" x2="94" y1="10" y2="10" /><line fill="none" stroke="#000000" stroke-width="2" x1="48" x2="61.5" y1="32" y2="32" /><line fill="none" stroke="#000000" stroke-width="2" x1="48" x2="61.5" y1="44" y2="44" /><line fill="none" stroke="#000000" stroke-width="2" x1="74.5" x2="88" y1="32" y2="32" /><line fill="none" stroke="#000000" stroke-width="2" x1="74.5" x2="88" y1="44" y2="44" /><line fill="none" stroke="#000000" stroke-width="2" x1="14.5" x2="29.5" y1="11" y2="11" /><line fill="none" stroke="#000000" stroke-width="2" x1="9" x2="35" y1="45" y2="45" /><line fill="none" stroke="#000000" stroke-width="2" x1="22" x2="22" y1="27" y2="64" /><line fill="none" stroke="#000000" stroke-width="2" x1="44" x2="91.5" y1="87.5" y2="87.5" /><line fill="none" stroke="#000000" stroke-width="2" x1="46" x2="91.5" y1="72" y2="72" /><polyline fill="none" points="94,42 94,21 42,21 42,42" stroke="#000000" stroke-width="2" /><polyline fill="none" points="8,66 8,26 36,26 36,65 9,65" stroke="#000000" stroke-width="2" /><polyline fill="none" points="91.5,93.5 91.5,57 44.5,57" stroke="#000000" stroke-width="2" /><path d="M22,26 c2.311,-4.407 4.655,-9.57 6.57,-14.37" fill="none" stroke="#000000" stroke-width="2" /><path d="M3.5,32.5 c5.917,-9.088 10.051,-18.157 13.5,-30" fill="none" stroke="#000000" stroke-width="2" /><path d="M39,87.5 c-0.941,-5.596 -2.322,-12.039 -4,-18.5" fill="none" stroke="#000000" stroke-width="2" /><path d="M28.5,90.5 c-0.521,-6.352 -1.447,-13.317 -2.75,-20.75" fill="none" stroke="#000000" stroke-width="2" /><path d="M18,93.5 c-0.103,-7.107 -0.572,-14.597 -1.5,-23" fill="none" stroke="#000000" stroke-width="2" /><path d="M4,94.5 c2.512,-7.089 4.387,-15.212 5.5,-24.5" fill="none" stroke="#000000" stroke-width="2" /></svg>