<?xml version='1.0' encoding='utf-8'?>
<svg xmlns="http://www.w3.org/2000/svg" height="100px" version="1.0" viewBox="0 0 100 100" width="100px" x="0px" y="0px">
<line fill="none" stroke="#000000" stroke-width="2" x1="64" x2="64" y1="19" y2="3" /><line fill="none" stroke="#000000" stroke-width="2" x1="64" x2="91" y1="10.5" y2="10.5" /><line fill="none" stroke="#000000" stroke-width="2" x1="45.5" x2="82.5" y1="32" y2="26" /><line fill="none" stroke="#000000" stroke-width="2" x1="69.5" x2="69.5" y1="65" y2="44" /><line fill="none" stroke="#000000" stroke-width="2" x1="49.5" x2="90.5" y1="55" y2="55" /><line fill="none" stroke="#000000" stroke-width="2" x1="46" x2="46" y1="74" y2="91.5" /><line fill="none" stroke="#000000" stroke-width="2" x1="61.5" x2="61.5" y1="73" y2="90.5" /><line fill="none" stroke="#000000" stroke-width="2" x1="77" x2="77" y1="73" y2="90.5" /><line fill="none" stroke="#000000" stroke-width="2" x1="40" x2="97.5" y1="91.5" y2="91.5" /><line fill="none" stroke="#000000" stroke-width="2" x1="14.5" x2="28.5" y1="11" y2="11" /><line fill="none" stroke="#000000" stroke-width="2" x1="9" x2="33" y1="45" y2="45" /><line fill="none" stroke="#000000" stroke-width="2" x1="21" x2="21" y1="27" y2="64" /><polyline fill="none" points="49.5,66 90.5,66 90.5,44 48.5,44 48.5,67" stroke="#000000" stroke-width="2" /><polyline fill="none" points="92.5,91.5 92.5,73 45,73" stroke="#000000" stroke-width="2" /><polyline fill="none" points="8,66 8,26 34,26 34,65 9,65" stroke="#000000" stroke-width="2" /><path d="M36,85 c-1.068,-5.149 -2.33,-10.234 -4,-16" fill="none" stroke="#000000" stroke-width="2" /><path d="M26.5,89.25 c-0.586,-6.128 -1.451,-12.415 -2.75,-19.5" fill="none" stroke="#000000" stroke-width="2" /><path d="M17,93.5 c-0.103,-7.107 -0.572,-14.597 -1.5,-23" fill="none" stroke="#000000" stroke-width="2" /><path d="M4,94.5 c2.512,-7.089 4.387,-15.212 5.5,-24.5" fill="none" stroke="#000000" stroke-width="2" /><path d="M34,91 c4.996,-14.13 7.5,-29.671 7.5,-51 v-21.0 h53.5" fill="none" stroke="#000000" stroke-width="2" /><path d="M85,30.5 c3.808,-3.414 6.633,-6.811 9.142,-11.013" fill="none" stroke="#000000" stroke-width="2" /><path d="M57,19 v13.5 c0,5.37 0.156,5.5 15,5.5 c20.176,0 20.312,-0.133 21,-10.5" fill="none" stroke="#000000" stroke-width="2" /><path d="M21,26 c2.311,-4.407 4.655,-9.57 6.57,-14.37" fill="none" stroke="#000000" stroke-width="2" /><path d="M3.5,32.5 c5.917,-9.088 10.051,-18.157 13.5,-30" fill="none" stroke="#000000" stroke-width="2" /></svg>