<?xml version='1.0' encoding='utf-8'?>
<svg xmlns="http://www.w3.org/2000/svg" height="100px" version="1.0" viewBox="0 0 100 100" width="100px" x="0px" y="0px">
<line fill="none" stroke="#000000" stroke-width="2" x1="19.5" x2="79" y1="40.5" y2="40.5" /><line fill="none" stroke="#000000" stroke-width="2" x1="18.5" x2="93" y1="60" y2="60" /><polyline fill="none" points="91,35 91,17.5 9,17.5 9,35" stroke="#000000" stroke-width="2" /><path d="M6,92.5 c3.813,-5.305 7.107,-11.171 10,-18" fill="none" stroke="#000000" stroke-width="2" /><path d="M19.5,51 h59.5 v-21.0 h-60.5 v39.5 h70.5 c0,16.749 -3.814,22.5 -10.5,22.5 c-3.191,0 -7.799,-0.302 -13.5,-1" fill="none" stroke="#000000" stroke-width="2" /><path d="M44.5,20.5 c-1.16,3.487 -2.449,6.579 -4,9.5" fill="none" stroke="#000000" stroke-width="2" /><path d="M76,85 c-2.305,-3.401 -4.89,-6.989 -8,-11" fill="none" stroke="#000000" stroke-width="2" /><path d="M55,88.25 c-1.569,-4.174 -3.488,-8.562 -6,-13.5" fill="none" stroke="#000000" stroke-width="2" /><path d="M34,91.5 c-0.834,-4.945 -2.088,-10.134 -4,-16" fill="none" stroke="#000000" stroke-width="2" /><path d="M30,17.5 c-3.115,-4.515 -6.539,-8.805 -10,-12.5" fill="none" stroke="#000000" stroke-width="2" /><path d="M53,17.5 c-3.101,-4.862 -6.549,-9.521 -10,-13.5" fill="none" stroke="#000000" stroke-width="2" /><path d="M70,17.5 c3.871,-4.528 7.309,-9.187 10,-13.5" fill="none" stroke="#000000" stroke-width="2" /></svg>