<?xml version='1.0' encoding='utf-8'?>
<svg xmlns="http://www.w3.org/2000/svg" height="100px" version="1.0" viewBox="0 0 100 100" width="100px" x="0px" y="0px">
<line fill="none" stroke="#000000" stroke-width="2" x1="51" x2="89.5" y1="27" y2="27" /><line fill="none" stroke="#000000" stroke-width="2" x1="51" x2="96" y1="51" y2="51" /><line fill="none" stroke="#000000" stroke-width="2" x1="4" x2="45.5" y1="27" y2="27" /><line fill="none" stroke="#000000" stroke-width="2" x1="20" x2="20" y1="33" y2="83.5" /><line fill="none" stroke="#000000" stroke-width="2" x1="8.5" x2="8.5" y1="43" y2="87.5" /><line fill="none" stroke="#000000" stroke-width="2" x1="26.5" x2="7" y1="13.5" y2="13.5" /><line fill="none" stroke="#000000" stroke-width="2" x1="30" x2="20" y1="51.5" y2="51.5" /><path d="M86,81.5 c-1.595,-4.006 -3.402,-8.252 -5.5,-13" fill="none" stroke="#000000" stroke-width="2" /><path d="M73.5,85.5 c-1.111,-4.938 -2.499,-10.142 -4.25,-16" fill="none" stroke="#000000" stroke-width="2" /><path d="M61,89.5 c-0.627,-5.871 -1.596,-12.03 -3,-19" fill="none" stroke="#000000" stroke-width="2" /><path d="M44,92 c2.445,-6.483 4.594,-13.668 6.5,-22" fill="none" stroke="#000000" stroke-width="2" /><path d="M51,40.5 h39.5 V14.0 H50.0 v49.0 h43.5 c0,22.796 -3.273,28.5 -8.5,28.5 c-2.529,0 -6.451,-0.328 -11,-1" fill="none" stroke="#000000" stroke-width="2" /><path d="M67.5,2.5 c-0.889,4.216 -1.853,7.964 -3,11.5" fill="none" stroke="#000000" stroke-width="2" /><path d="M32,4.5 c0,56.349 4.74,75.5 8.5,75.5 c2.029,0 4.024,-4.087 5.5,-20" fill="none" stroke="#000000" stroke-width="2" /><path d="M36.5,8.5 c3.03,3.437 6.158,7.608 9,12" fill="none" stroke="#000000" stroke-width="2" /><path d="M3,89 c12.698,-3.362 23.563,-7.906 30,-12" fill="none" stroke="#000000" stroke-width="2" /></svg>