<?xml version='1.0' encoding='utf-8'?>
<svg xmlns="http://www.w3.org/2000/svg" height="100px" version="1.0" viewBox="0 0 100 100" width="100px" x="0px" y="0px">
<line fill="none" stroke="#000000" stroke-width="2" x1="53" x2="91" y1="27" y2="27" /><line fill="none" stroke="#000000" stroke-width="2" x1="52" x2="96" y1="51" y2="51" /><line fill="none" stroke="#000000" stroke-width="2" x1="8" x2="23.5" y1="59" y2="59" /><line fill="none" stroke="#000000" stroke-width="2" x1="9" x2="23.5" y1="33.5" y2="33.5" /><line fill="none" stroke="#000000" stroke-width="2" x1="30" x2="45.5" y1="59" y2="59" /><line fill="none" stroke="#000000" stroke-width="2" x1="31" x2="45.5" y1="33.5" y2="33.5" /><path d="M87,81.5 c-1.449,-4.006 -3.093,-8.252 -5,-13" fill="none" stroke="#000000" stroke-width="2" /><path d="M76,85.5 c-1.038,-4.938 -2.344,-10.141 -4,-16" fill="none" stroke="#000000" stroke-width="2" /><path d="M65,89.5 c-0.627,-5.871 -1.596,-12.03 -3,-19" fill="none" stroke="#000000" stroke-width="2" /><path d="M48.5,92 c2.257,-6.483 4.24,-13.668 6,-22" fill="none" stroke="#000000" stroke-width="2" /><path d="M53,40.5 h38.0 V14.0 h-39.0 v49.0 h41.5 c0,22.796 -2.93,28.5 -8,28.5 c-2.453,0 -6.09,-0.313 -10.5,-1" fill="none" stroke="#000000" stroke-width="2" /><path d="M69.5,2.5 c-0.889,4.216 -1.852,7.964 -3,11.5" fill="none" stroke="#000000" stroke-width="2" /><path d="M4,92.5 c2.867,-8.646 4,-17.869 4,-46.5 v-36.0 h15.5 v73.0 c0,7.724 -0.297,8 -4,8 c-1.248,0 -4.301,-0.168 -8,-0.5" fill="none" stroke="#000000" stroke-width="2" /><path d="M26,92.5 c2.867,-8.646 4,-17.869 4,-46.5 v-36.0 h15.5 v73.0 c0,7.724 -0.297,8 -4,8 c-1.248,0 -4.301,-0.168 -8,-0.5" fill="none" stroke="#000000" stroke-width="2" /></svg>