<?xml version='1.0' encoding='utf-8'?>
<svg xmlns="http://www.w3.org/2000/svg" height="100px" version="1.0" viewBox="0 0 100 100" width="100px" x="0px" y="0px">
<line fill="none" stroke="#000000" stroke-width="2" x1="27.5" x2="47.5" y1="29" y2="29" /><line fill="none" stroke="#000000" stroke-width="2" x1="10.936" x2="10.936" y1="94" y2="43" /><line fill="none" stroke="#000000" stroke-width="2" x1="27.494" x2="27.494" y1="14.5" y2="3.5" /><line fill="none" stroke="#000000" stroke-width="2" x1="4.5" x2="48" y1="14.5" y2="14.5" /><line fill="none" stroke="#000000" stroke-width="2" x1="53" x2="91" y1="27" y2="27" /><line fill="none" stroke="#000000" stroke-width="2" x1="52" x2="96" y1="51" y2="51" /><path d="M14.5,59 c7.129,-11.518 12.613,-25.543 16,-41.5" fill="none" stroke="#000000" stroke-width="2" /><path d="M46.511,29.862 c-4.247,30.408 -15.873,50.826 -32.011,62.138" fill="none" stroke="#000000" stroke-width="2" /><path d="M19,17.5 c-2.921,14.199 -8.594,28.793 -16,41" fill="none" stroke="#000000" stroke-width="2" /><path d="M41,53.5 c-3.656,-4.679 -7.603,-9.351 -11.5,-13.5" fill="none" stroke="#000000" stroke-width="2" /><path d="M21.5,46 c5.124,17.813 13.451,30.665 25,40" fill="none" stroke="#000000" stroke-width="2" /><path d="M87,81.5 c-1.449,-4.006 -3.093,-8.252 -5,-13" fill="none" stroke="#000000" stroke-width="2" /><path d="M76,85.5 c-1.038,-4.938 -2.344,-10.142 -4,-16" fill="none" stroke="#000000" stroke-width="2" /><path d="M65,89.5 c-0.627,-5.871 -1.596,-12.03 -3,-19" fill="none" stroke="#000000" stroke-width="2" /><path d="M48.5,92 c2.257,-6.483 4.24,-13.668 6,-22" fill="none" stroke="#000000" stroke-width="2" /><path d="M53,40.5 h38.0 V14.0 h-39.0 v49.0 h41.5 c0,22.796 -2.93,28.5 -8,28.5 c-2.453,0 -6.09,-0.313 -10.5,-1" fill="none" stroke="#000000" stroke-width="2" /><path d="M69.5,2.5 c-0.889,4.216 -1.852,7.964 -3,11.5" fill="none" stroke="#000000" stroke-width="2" /></svg>