<?xml version='1.0' encoding='utf-8'?>
<svg xmlns="http://www.w3.org/2000/svg" height="100px" version="1.0" viewBox="0 0 100 100" width="100px" x="0px" y="0px">
<line fill="none" stroke="#000000" stroke-width="2" x1="21.5" x2="21.5" y1="3.5" y2="28" /><line fill="none" stroke="#000000" stroke-width="2" x1="39.5" x2="21.5" y1="13" y2="13" /><line fill="none" stroke="#000000" stroke-width="2" x1="7" x2="36" y1="88.5" y2="88.5" /><line fill="none" stroke="#000000" stroke-width="2" x1="52" x2="69.5" y1="69" y2="69" /><line fill="none" stroke="#000000" stroke-width="2" x1="72" x2="50" y1="30" y2="30" /><polyline fill="none" points="37,89.5 37,28 7,28 7,94.5" stroke="#000000" stroke-width="2" /><polyline fill="none" points="70.5,70 70.5,42 52,42 52,77" stroke="#000000" stroke-width="2" /><path d="M34.5,78 c-9.925,-16.97 -17.676,-28.789 -25,-38.5" fill="none" stroke="#000000" stroke-width="2" /><path d="M9.5,83.5 c10.404,-15.055 18.154,-31.843 23,-50.5" fill="none" stroke="#000000" stroke-width="2" /><path d="M23,44 c-2.026,-4.388 -4.299,-8.751 -6.5,-12.5" fill="none" stroke="#000000" stroke-width="2" /><path d="M27.5,85 c-2.026,-4.388 -4.299,-8.751 -6.5,-12.5" fill="none" stroke="#000000" stroke-width="2" /><path d="M14,67 c-1.715,-5.088 -3.637,-10.149 -5.5,-14.5" fill="none" stroke="#000000" stroke-width="2" /><path d="M35.5,65 c-1.715,-5.088 -3.637,-10.149 -5.5,-14.5" fill="none" stroke="#000000" stroke-width="2" /><path d="M76,3.5 c0,54.161 8.831,87.5 14.5,87.5 c1.859,0 3.867,-4.644 5,-23" fill="none" stroke="#000000" stroke-width="2" /><path d="M92.5,31 c-4.924,30.089 -18.492,50.847 -35.5,60" fill="none" stroke="#000000" stroke-width="2" /><path d="M80.5,3 c4.564,2.831 9.247,6.323 13.5,10" fill="none" stroke="#000000" stroke-width="2" /><path d="M40,91.5 c3.269,-12.563 5,-28.418 5,-51 V17.0 h49.5" fill="none" stroke="#000000" stroke-width="2" /></svg>