<?xml version='1.0' encoding='utf-8'?>
<svg xmlns="http://www.w3.org/2000/svg" height="100px" version="1.0" viewBox="0 0 100 100" width="100px" x="0px" y="0px">
<line fill="none" stroke="#000000" stroke-width="2" x1="24" x2="24" y1="29" y2="16" /><line fill="none" stroke="#000000" stroke-width="2" x1="30" x2="93" y1="20" y2="15" /><line fill="none" stroke="#000000" stroke-width="2" x1="18" x2="82" y1="54.5" y2="54.5" /><line fill="none" stroke="#000000" stroke-width="2" x1="18" x2="82" y1="43.5" y2="43.5" /><line fill="none" stroke="#000000" stroke-width="2" x1="13" x2="87" y1="64" y2="64" /><line fill="none" stroke="#000000" stroke-width="2" x1="6.5" x2="93.5" y1="74" y2="74" /><line fill="none" stroke="#000000" stroke-width="2" x1="50" x2="50" y1="74" y2="33.5" /><polyline fill="none" points="83,55.5 83,32.5 17,32.5 17,55.5" stroke="#000000" stroke-width="2" /><path d="M37,6 c-8.404,7.929 -19.408,14.528 -32,19" fill="none" stroke="#000000" stroke-width="2" /><path d="M51.5,5.5 c3.78,14.608 23.155,26 34.5,26 c2.452,0 4.838,-2.588 7,-10.5" fill="none" stroke="#000000" stroke-width="2" /><path d="M68,6 c6.027,1.548 12.662,3.589 18,5.5" fill="none" stroke="#000000" stroke-width="2" /><path d="M92.5,92.5 c-4.201,-4.449 -9.068,-9.012 -15,-14" fill="none" stroke="#000000" stroke-width="2" /><path d="M67,92.5 c-2.518,-4.312 -5.578,-8.78 -9.5,-13.75" fill="none" stroke="#000000" stroke-width="2" /><path d="M41.5,92.5 c-0.834,-4.173 -2.088,-8.55 -4,-13.5" fill="none" stroke="#000000" stroke-width="2" /><path d="M7.5,92.5 c5.269,-3.956 10.214,-8.529 15,-14" fill="none" stroke="#000000" stroke-width="2" /></svg>