<?xml version='1.0' encoding='utf-8'?>
<svg xmlns="http://www.w3.org/2000/svg" height="100px" version="1.0" viewBox="0 0 100 100" width="100px" x="0px" y="0px">
<line fill="none" stroke="#000000" stroke-width="2" x1="9" x2="42" y1="47" y2="47" /><line fill="none" stroke="#000000" stroke-width="2" x1="5" x2="47" y1="77" y2="77" /><line fill="none" stroke="#000000" stroke-width="2" x1="25.5" x2="25.5" y1="30" y2="5" /><line fill="none" stroke="#000000" stroke-width="2" x1="25.5" x2="25.5" y1="95" y2="65" /><line fill="none" stroke="#000000" stroke-width="2" x1="5" x2="47" y1="18" y2="18" /><line fill="none" stroke="#000000" stroke-width="2" x1="96.5" x2="57.5" y1="15" y2="15" /><line fill="none" stroke="#000000" stroke-width="2" x1="93" x2="55" y1="31.5" y2="31.5" /><polyline fill="none" points="9,64 43,64 43,31 8,31 8,65" stroke="#000000" stroke-width="2" /><path d="M47,40 c5.58,-9.942 10.215,-22.503 13,-36" fill="none" stroke="#000000" stroke-width="2" /><path d="M51,81 c0,-8.105 14.676,-27.865 41.374,-49.28" fill="none" stroke="#000000" stroke-width="2" /><path d="M94.5,63.5 c-1.32,25.511 -2.195,26.5 -21.5,26.5 c-16.995,0 -22,-3.136 -22,-9" fill="none" stroke="#000000" stroke-width="2" /></svg>