<?xml version='1.0' encoding='utf-8'?>
<svg xmlns="http://www.w3.org/2000/svg" height="100px" version="1.0" viewBox="0 0 100 100" width="100px" x="0px" y="0px">
<line fill="none" stroke="#000000" stroke-width="2" x1="16.5" x2="16.5" y1="94" y2="31.3" /><line fill="none" stroke="#000000" stroke-width="2" x1="26.5" x2="94" y1="19" y2="19" /><line fill="none" stroke="#000000" stroke-width="2" x1="42" x2="42" y1="88" y2="43" /><line fill="none" stroke="#000000" stroke-width="2" x1="60.5" x2="60.5" y1="19" y2="4" /><path d="M24.5,6 c-4.303,19.29 -11.811,36.252 -21.5,49.5" fill="none" stroke="#000000" stroke-width="2" /><path d="M60,19 c-8.231,15.591 -20.816,29.011 -38,40" fill="none" stroke="#000000" stroke-width="2" /><path d="M61,19 c2.475,30.008 15.824,57.446 34,73" fill="none" stroke="#000000" stroke-width="2" /><path d="M27,92 c13.959,-3.204 26.084,-7.382 40.5,-14" fill="none" stroke="#000000" stroke-width="2" /><path d="M70.5,57 c8.233,-5.677 16.605,-13.467 23.5,-22" fill="none" stroke="#000000" stroke-width="2" /></svg>