<?xml version='1.0' encoding='utf-8'?>
<svg xmlns="http://www.w3.org/2000/svg" height="100px" version="1.0" viewBox="0 0 100 100" width="100px" x="0px" y="0px">
<line fill="none" stroke="#000000" stroke-width="2" x1="16.5" x2="16.5" y1="94" y2="28.8" /><line fill="none" stroke="#000000" stroke-width="2" x1="24.5" x2="93.5" y1="36" y2="36" /><path d="M23.5,6 c-4.303,19.29 -11.811,36.252 -21.5,49.5" fill="none" stroke="#000000" stroke-width="2" /><path d="M43,13 v69.5 c0,7.67 -0.369,8 -5.5,8 c-2.316,0 -6.522,-0.188 -11,-0.5" fill="none" stroke="#000000" stroke-width="2" /><path d="M89,43.5 c-6.087,20.759 -19.985,36.681 -39,46" fill="none" stroke="#000000" stroke-width="2" /><path d="M66,5.5 c0,48.484 13.953,85.5 20.5,85.5 c2.701,0 5.967,-5.826 7.5,-23" fill="none" stroke="#000000" stroke-width="2" /><path d="M25,66 c14.807,-3.357 28.711,-7.851 38,-12" fill="none" stroke="#000000" stroke-width="2" /><path d="M25.5,17.5 c13.789,-2.935 25.021,-6.616 33,-10.5" fill="none" stroke="#000000" stroke-width="2" /><path d="M77.5,8 c5.166,5.737 9.42,11.202 14,18" fill="none" stroke="#000000" stroke-width="2" /></svg>