<?xml version='1.0' encoding='utf-8'?>
<svg xmlns="http://www.w3.org/2000/svg" height="100px" version="1.0" viewBox="0 0 100 100" width="100px" x="0px" y="0px">
<line fill="none" stroke="#000000" stroke-width="2" x1="22.5" x2="95.5" y1="46" y2="46" /><line fill="none" stroke="#000000" stroke-width="2" x1="34" x2="34" y1="87" y2="55" /><line fill="none" stroke="#000000" stroke-width="2" x1="27" x2="93" y1="15" y2="15" /><line fill="none" stroke="#000000" stroke-width="2" x1="16.5" x2="16.5" y1="94" y2="28.8" /><polyline fill="none" points="35,56 66,56 66,79 35,79" stroke="#000000" stroke-width="2" /><path d="M93.5,42 c-10.479,-6.854 -25.192,-14.729 -37.5,-20" fill="none" stroke="#000000" stroke-width="2" /><path d="M85.5,46 v37.0 c0,7.252 -0.739,8 -7,8 c-2.186,0 -6.017,-0.166 -12.5,-0.5" fill="none" stroke="#000000" stroke-width="2" /><path d="M26.5,41 c22.037,-4.649 33.5,-17.392 33.5,-37" fill="none" stroke="#000000" stroke-width="2" /><path d="M23.5,6 c-4.303,19.29 -11.811,36.252 -21.5,49.5" fill="none" stroke="#000000" stroke-width="2" /></svg>