<?xml version='1.0' encoding='utf-8'?>
<svg xmlns="http://www.w3.org/2000/svg" height="100px" version="1.0" viewBox="0 0 100 100" width="100px" x="0px" y="0px">
<line fill="none" stroke="#000000" stroke-width="2" x1="58" x2="90.5" y1="48" y2="48" /><line fill="none" stroke="#000000" stroke-width="2" x1="30.5" x2="30.5" y1="9.5" y2="94" /><line fill="none" stroke="#000000" stroke-width="2" x1="30.5" x2="56.5" y1="54" y2="54" /><line fill="none" stroke="#000000" stroke-width="2" x1="30.5" x2="56.5" y1="73.5" y2="73.5" /><line fill="none" stroke="#000000" stroke-width="2" x1="16" x2="16" y1="94" y2="31.3" /><polyline fill="none" points="31.5,36.5 58,36.5 58,10.5 31.5,10.5" stroke="#000000" stroke-width="2" /><polyline fill="none" points="64.5,36.5 89.5,36.5 89.5,10.5 64.5,10.5" stroke="#000000" stroke-width="2" /><path d="M52.5,91 c18.991,-9.496 30.039,-21.852 37.053,-42.324" fill="none" stroke="#000000" stroke-width="2" /><path d="M94,91 c-13.017,-8.099 -24.907,-21.82 -32,-37.5" fill="none" stroke="#000000" stroke-width="2" /><path d="M24,6 c-4.303,19.29 -11.811,36.252 -21.5,49.5" fill="none" stroke="#000000" stroke-width="2" /></svg>