<?xml version='1.0' encoding='utf-8'?>
<svg xmlns="http://www.w3.org/2000/svg" height="100px" version="1.0" viewBox="0 0 100 100" width="100px" x="0px" y="0px">
<line fill="none" stroke="#000000" stroke-width="2" x1="7" x2="93" y1="15" y2="15" /><line fill="none" stroke="#000000" stroke-width="2" x1="6" x2="94" y1="44.5" y2="44.5" /><line fill="none" stroke="#000000" stroke-width="2" x1="39" x2="39" y1="94" y2="16" /><line fill="none" stroke="#000000" stroke-width="2" x1="61" x2="61" y1="94" y2="16" /><polyline fill="none" points="13,61.5 82.5,61.5 82.5,28.5 13,28.5" stroke="#000000" stroke-width="2" /><path d="M39,15 c-2.549,-3.912 -5.327,-7.739 -8,-11" fill="none" stroke="#000000" stroke-width="2" /><path d="M61,15 c3.021,-3.625 5.896,-7.577 8,-11" fill="none" stroke="#000000" stroke-width="2" /><path d="M6,90.5 c15.662,-9.306 25.906,-18.726 32.5,-29" fill="none" stroke="#000000" stroke-width="2" /><path d="M94,90.5 c-15.662,-9.306 -25.906,-18.726 -32.5,-29" fill="none" stroke="#000000" stroke-width="2" /></svg>