<?xml version='1.0' encoding='utf-8'?>
<svg xmlns="http://www.w3.org/2000/svg" height="100px" version="1.0" viewBox="0 0 100 100" width="100px" x="0px" y="0px">
<line fill="none" stroke="#000000" stroke-width="2" x1="8" x2="60" y1="12" y2="12" /><line fill="none" stroke="#000000" stroke-width="2" x1="59.5" x2="9" y1="60.5" y2="60.5" /><line fill="none" stroke="#000000" stroke-width="2" x1="34" x2="34" y1="85.5" y2="45" /><line fill="none" stroke="#000000" stroke-width="2" x1="68" x2="68" y1="74" y2="12" /><path d="M61.5,48.999 c-4.605,-8.726 -11.644,-19.707 -18,-27.999" fill="none" stroke="#000000" stroke-width="2" /><path d="M7.5,43.5 c14.07,-1.316 30.406,-3.926 46.5,-7.5" fill="none" stroke="#000000" stroke-width="2" /><path d="M7,89.5 c16.457,-1.646 35.703,-5.123 54.5,-10" fill="none" stroke="#000000" stroke-width="2" /><path d="M19,42 c3.496,-9.168 6.617,-18.502 10,-30" fill="none" stroke="#000000" stroke-width="2" /><path d="M90,8 v75.0 c0,7.13 -0.866,8 -6.5,8 c-2.75,0 -6.917,-0.144 -12.5,-0.5" fill="none" stroke="#000000" stroke-width="2" /></svg>