<?xml version='1.0' encoding='utf-8'?>
<svg xmlns="http://www.w3.org/2000/svg" height="100px" version="1.0" viewBox="0 0 100 100" width="100px" x="0px" y="0px">
<line fill="none" stroke="#000000" stroke-width="2" x1="67.5" x2="67.5" y1="74" y2="12" /><line fill="none" stroke="#000000" stroke-width="2" x1="34" x2="34" y1="15" y2="3.5" /><line fill="none" stroke="#000000" stroke-width="2" x1="62" x2="7" y1="15" y2="15" /><line fill="none" stroke="#000000" stroke-width="2" x1="53.5" x2="53.5" y1="42" y2="92" /><line fill="none" stroke="#000000" stroke-width="2" x1="17" x2="53.5" y1="51.5" y2="51.5" /><line fill="none" stroke="#000000" stroke-width="2" x1="16.5" x2="53.5" y1="69.5" y2="69.5" /><path d="M89,8 v75.0 c0,7.13 -0.866,8 -6.5,8 c-2.75,0 -6.917,-0.144 -12.5,-0.5" fill="none" stroke="#000000" stroke-width="2" /><path d="M53,15 c-8.208,13.211 -22.879,23.229 -47,30" fill="none" stroke="#000000" stroke-width="2" /><path d="M16,18 c12.443,13.603 27.037,21.937 47,27" fill="none" stroke="#000000" stroke-width="2" /><path d="M6,92 c6.943,-6.287 11,-16.95 11,-33 v-17.5" fill="none" stroke="#000000" stroke-width="2" /></svg>