<?xml version='1.0' encoding='utf-8'?>
<svg xmlns="http://www.w3.org/2000/svg" height="100px" version="1.0" viewBox="0 0 100 100" width="100px" x="0px" y="0px">
<line fill="none" stroke="#000000" stroke-width="2" x1="66" x2="66" y1="74" y2="12" /><line fill="none" stroke="#000000" stroke-width="2" x1="12" x2="50" y1="26.5" y2="26.5" /><line fill="none" stroke="#000000" stroke-width="2" x1="6" x2="61" y1="43" y2="43" /><polyline fill="none" points="48.5,43 51.5,10.5 10.5,10.5" stroke="#000000" stroke-width="2" /><path d="M89,8 v75.0 c0,7.13 -0.866,8 -6.5,8 c-2.75,0 -6.917,-0.144 -12.5,-0.5" fill="none" stroke="#000000" stroke-width="2" /><path d="M34,43 v38.698 c0,8.037 -1.134,9.302 -6,9.302 c-2.301,0 -6.198,-0.173 -11,-0.5" fill="none" stroke="#000000" stroke-width="2" /><path d="M57,49.5 c-4.506,5.636 -9.613,10.382 -15,13.999" fill="none" stroke="#000000" stroke-width="2" /><path d="M6,83 c8.242,-3.955 15.745,-8.772 22,-14" fill="none" stroke="#000000" stroke-width="2" /><path d="M61,85.5 c-6.747,-6.498 -13.908,-11.979 -21,-16" fill="none" stroke="#000000" stroke-width="2" /><path d="M25,63.5 c-3.854,-4.301 -9.205,-9.316 -15,-14" fill="none" stroke="#000000" stroke-width="2" /></svg>