<?xml version='1.0' encoding='utf-8'?>
<svg xmlns="http://www.w3.org/2000/svg" height="100px" version="1.0" viewBox="0 0 100 100" width="100px" x="0px" y="0px">
<path d="M50.5,6 v19.0 c0,9.528 -0.412,10 -7,10 c-1.973,0 -6.432,-0.14 -13.5,-0.5" fill="none" stroke="#000000" stroke-width="2" /><path d="M7,38 c8.1,-7.667 14.973,-17.844 19,-28" fill="none" stroke="#000000" stroke-width="2" /><path d="M93.5,38.5 c-5.666,-9.941 -12.741,-20.003 -20.5,-29" fill="none" stroke="#000000" stroke-width="2" /><path d="M76.5,23 c-15.576,13.548 -38.67,24.546 -74,33" fill="none" stroke="#000000" stroke-width="2" /><path d="M15,59 h70.0 c-1.008,27.472 -4.224,31 -13.5,31 c-5.066,0 -12.398,-0.321 -21.5,-1" fill="none" stroke="#000000" stroke-width="2" /><path d="M10,91.5 c26.129,-9.812 40.555,-27.454 42,-49" fill="none" stroke="#000000" stroke-width="2" /></svg>