<?xml version='1.0' encoding='utf-8'?>
<svg xmlns="http://www.w3.org/2000/svg" height="100px" version="1.0" viewBox="0 0 100 100" width="100px" x="0px" y="0px">
<line fill="none" stroke="#000000" stroke-width="2" x1="7" x2="93" y1="13.5" y2="13.5" /><line fill="none" stroke="#000000" stroke-width="2" x1="32" x2="32" y1="21.5" y2="3.5" /><line fill="none" stroke="#000000" stroke-width="2" x1="68" x2="68" y1="21.5" y2="3.5" /><line fill="none" stroke="#000000" stroke-width="2" x1="18.5" x2="81.5" y1="34" y2="34" /><line fill="none" stroke="#000000" stroke-width="2" x1="7" x2="93" y1="54" y2="54" /><polyline fill="none" points="18.5,45.5 82.5,45.5 82.5,22.5 17.5,22.5 17.5,46.5" stroke="#000000" stroke-width="2" /><path d="M44,45.5 c-9.094,10.239 -21.556,18.44 -39,25" fill="none" stroke="#000000" stroke-width="2" /><path d="M61,54 c6.694,4.786 17.67,10.246 34,16.5" fill="none" stroke="#000000" stroke-width="2" /><path d="M18,67.5 h62.0 c-0.766,19.865 -3.016,23 -10.5,23 c-3.951,0 -9.9,-0.321 -17,-1" fill="none" stroke="#000000" stroke-width="2" /><path d="M11.5,92.5 c24.645,-6.479 37,-19.169 37,-35" fill="none" stroke="#000000" stroke-width="2" /></svg>