<?xml version='1.0' encoding='utf-8'?>
<svg xmlns="http://www.w3.org/2000/svg" height="100px" version="1.0" viewBox="0 0 100 100" width="100px" x="0px" y="0px">
<line fill="none" stroke="#000000" stroke-width="2" x1="11.5" x2="11.5" y1="46.5" y2="93" /><line fill="none" stroke="#000000" stroke-width="2" x1="11.5" x2="49.5" y1="85" y2="85" /><line fill="none" stroke="#000000" stroke-width="2" x1="49.5" x2="12" y1="46" y2="46" /><line fill="none" stroke="#000000" stroke-width="2" x1="31" x2="31" y1="84" y2="46" /><line fill="none" stroke="#000000" stroke-width="2" x1="11.5" x2="48.5" y1="71.5" y2="71.5" /><line fill="none" stroke="#000000" stroke-width="2" x1="11.5" x2="48.5" y1="58.5" y2="58.5" /><line fill="none" stroke="#000000" stroke-width="2" x1="49.5" x2="13.5" y1="14.5" y2="14.5" /><line fill="none" stroke="#000000" stroke-width="2" x1="50.5" x2="4.5" y1="30.5" y2="30.5" /><path d="M36.5,34.5 c-1.498,4.147 -3.437,8.141 -5.5,11.5" fill="none" stroke="#000000" stroke-width="2" /><path d="M2.5,56.5 c12.893,-12.655 20.572,-26.163 24,-42" fill="none" stroke="#000000" stroke-width="2" /><path d="M5.5,25 c5.555,-5.798 9.963,-12.945 13,-21" fill="none" stroke="#000000" stroke-width="2" /><path d="M49,92 c14.06,-16.926 19,-34.719 19,-86" fill="none" stroke="#000000" stroke-width="2" /><path d="M53.5,28 h39.0 c0,56.077 -2.25,62 -8.5,62 c-2.687,0 -7.361,-0.33 -13,-1" fill="none" stroke="#000000" stroke-width="2" /></svg>