<?xml version='1.0' encoding='utf-8'?>
<svg xmlns="http://www.w3.org/2000/svg" height="100px" version="1.0" viewBox="0 0 100 100" width="100px" x="0px" y="0px">
<line fill="none" stroke="#000000" stroke-width="2" x1="32" x2="94.5" y1="36" y2="36" /><polyline fill="none" points="9,82 27,82 27,13 8,13 8,90" stroke="#000000" stroke-width="2" /><path d="M48,13 v69.5 c0,7.67 -0.336,8 -5,8 c-2.105,0 -5.93,-0.188 -10,-0.5" fill="none" stroke="#000000" stroke-width="2" /><path d="M90.5,43.5 c-5.537,20.583 -18.275,36.53 -36,46" fill="none" stroke="#000000" stroke-width="2" /><path d="M69,5.5 c0,48.484 12.921,85.5 19,85.5 c2.509,0 5.576,-5.826 7,-23" fill="none" stroke="#000000" stroke-width="2" /><path d="M31.5,66 c13.493,-3.335 26.394,-7.81 35,-12" fill="none" stroke="#000000" stroke-width="2" /><path d="M32,17.5 c12.333,-2.86 22.389,-6.462 30,-10.5" fill="none" stroke="#000000" stroke-width="2" /><path d="M80,8 c4.668,5.806 8.457,11.28 12.5,18" fill="none" stroke="#000000" stroke-width="2" /></svg>