<?xml version='1.0' encoding='utf-8'?>
<svg xmlns="http://www.w3.org/2000/svg" height="100px" version="1.0" viewBox="0 0 100 100" width="100px" x="0px" y="0px">
<line fill="none" stroke="#000000" stroke-width="2" x1="20" x2="80" y1="86.5" y2="86.5" /><line fill="none" stroke="#000000" stroke-width="2" x1="44.5" x2="6" y1="16.5" y2="16.5" /><line fill="none" stroke="#000000" stroke-width="2" x1="52.5" x2="95" y1="24.5" y2="24.5" /><line fill="none" stroke="#000000" stroke-width="2" x1="80" x2="80" y1="53" y2="24.5" /><polyline fill="none" points="81,92.5 81,59 19,59 19,92.5" stroke="#000000" stroke-width="2" /><path d="M27,6 v41.5 c0,4.1 -0.42,4.5 -5.5,4.5 c-2.396,0 -5.882,-0.141 -10.5,-0.5" fill="none" stroke="#000000" stroke-width="2" /><path d="M45,30 c-13.494,2.732 -26.061,4.655 -39,6" fill="none" stroke="#000000" stroke-width="2" /><path d="M52.043,10.974 c15.548,-0.65 28.11,-2.019 37.957,-3.974" fill="none" stroke="#000000" stroke-width="2" /><path d="M36,53 c12.58,-8.372 17,-17.438 17,-43" fill="none" stroke="#000000" stroke-width="2" /></svg>