<?xml version='1.0' encoding='utf-8'?>
<svg xmlns="http://www.w3.org/2000/svg" height="100px" version="1.0" viewBox="0 0 100 100" width="100px" x="0px" y="0px">
<line fill="none" stroke="#000000" stroke-width="2" x1="42" x2="89" y1="23.5" y2="23.5" /><polyline fill="none" points="10.5,82 29.5,82 29.5,13 9.5,13 9.5,90" stroke="#000000" stroke-width="2" /><polyline fill="none" points="42,38.5 90,38.5 90,9.5 41,9.5 41,39.5" stroke="#000000" stroke-width="2" /><path d="M44.5,51.5 H93.0 c0,31.825 -4.266,39.5 -11,39.5 c-2.811,0 -7.183,-0.151 -12,-0.5" fill="none" stroke="#000000" stroke-width="2" /><path d="M32.5,61.5 c8.532,-5.501 18.023,-15.556 22,-23" fill="none" stroke="#000000" stroke-width="2" /><path d="M46,56 v19.25 c0,6.035 0.973,6.75 17,6.75 c16.979,0 17.278,-0.255 18,-13" fill="none" stroke="#000000" stroke-width="2" /><path d="M46,68.5 c11.115,-1.884 21.847,-5.149 33,-10" fill="none" stroke="#000000" stroke-width="2" /></svg>