<?xml version='1.0' encoding='utf-8'?>
<svg xmlns="http://www.w3.org/2000/svg" height="100px" version="1.0" viewBox="0 0 100 100" width="100px" x="0px" y="0px">
<line fill="none" stroke="#000000" stroke-width="2" x1="15.5" x2="84.5" y1="25" y2="25" /><line fill="none" stroke="#000000" stroke-width="2" x1="11" x2="89" y1="88.5" y2="88.5" /><polyline fill="none" points="24,59 50,59 50,35 23,35 23,60" stroke="#000000" stroke-width="2" /><polyline fill="none" points="90,94.5 90,9.5 10,9.5 10,94.5" stroke="#000000" stroke-width="2" /><path d="M77,33 c-5.113,24.286 -14.111,40.122 -25.5,49" fill="none" stroke="#000000" stroke-width="2" /><path d="M57.5,14 c0,47.527 17.842,67.5 21.5,67.5 c1.982,0 4.691,-2.337 6.5,-20.5" fill="none" stroke="#000000" stroke-width="2" /><path d="M63.5,14.5 c5.389,2.005 10.938,4.442 16,7" fill="none" stroke="#000000" stroke-width="2" /><path d="M15.5,76 c16.878,-2.735 31.422,-6.543 40,-10" fill="none" stroke="#000000" stroke-width="2" /></svg>