<?xml version='1.0' encoding='utf-8'?>
<svg xmlns="http://www.w3.org/2000/svg" height="100px" version="1.0" viewBox="0 0 100 100" width="100px" x="0px" y="0px">
<line fill="none" stroke="#000000" stroke-width="2" x1="27.5" x2="95.5" y1="46" y2="46" /><line fill="none" stroke="#000000" stroke-width="2" x1="39.5" x2="39.5" y1="87" y2="55" /><line fill="none" stroke="#000000" stroke-width="2" x1="31.5" x2="93" y1="15" y2="15" /><line fill="none" stroke="#000000" stroke-width="2" x1="4" x2="32" y1="31.5" y2="31.5" /><line fill="none" stroke="#000000" stroke-width="2" x1="18" x2="18" y1="79.5" y2="8" /><polyline fill="none" points="40.5,56 71,56 71,79 40.5,79" stroke="#000000" stroke-width="2" /><path d="M93.5,42 c-9.779,-6.854 -23.514,-14.729 -35,-20" fill="none" stroke="#000000" stroke-width="2" /><path d="M86,46 v37.0 c0,7.252 -0.739,8 -7,8 c-2.186,0 -6.017,-0.166 -12.5,-0.5" fill="none" stroke="#000000" stroke-width="2" /><path d="M30,41 c20.61,-4.481 32.5,-17.041 32.5,-37" fill="none" stroke="#000000" stroke-width="2" /><path d="M4,85 c10.238,-3.671 19.039,-7.762 30,-14" fill="none" stroke="#000000" stroke-width="2" /></svg>