<?xml version='1.0' encoding='utf-8'?>
<svg xmlns="http://www.w3.org/2000/svg" height="100px" version="1.0" viewBox="0 0 100 100" width="100px" x="0px" y="0px">
<line fill="none" stroke="#000000" stroke-width="2" x1="4.5" x2="31.5" y1="31.5" y2="31.5" /><line fill="none" stroke="#000000" stroke-width="2" x1="18" x2="18" y1="78.5" y2="8" /><polyline fill="none" points="48.5,86 48.5,54.5 79,54.5 79,77.5 49.5,77.5" stroke="#000000" stroke-width="2" /><polyline fill="none" points="41,42 41,9.5 86.5,9.5 86.5,42" stroke="#000000" stroke-width="2" /><polyline fill="none" points="61.5,42 61.5,24 85.604,24" stroke="#000000" stroke-width="2" /><path d="M4.5,85 c9.056,-3.637 16.817,-7.762 26.5,-14" fill="none" stroke="#000000" stroke-width="2" /><path d="M34.5,92 v-49.0 H93.0 v39.0 c0,7.546 -0.45,8 -5.5,8 c-1.848,0 -6.018,-0.166 -11.5,-0.5" fill="none" stroke="#000000" stroke-width="2" /></svg>