<?xml version='1.0' encoding='utf-8'?>
<svg xmlns="http://www.w3.org/2000/svg" height="100px" version="1.0" viewBox="0 0 100 100" width="100px" x="0px" y="0px">
<line fill="none" stroke="#000000" stroke-width="2" x1="3.5" x2="31" y1="32" y2="32" /><line fill="none" stroke="#000000" stroke-width="2" x1="17.5" x2="17.5" y1="72" y2="8" /><line fill="none" stroke="#000000" stroke-width="2" x1="63" x2="63" y1="10.5" y2="47" /><line fill="none" stroke="#000000" stroke-width="2" x1="35.5" x2="90.5" y1="28" y2="28" /><line fill="none" stroke="#000000" stroke-width="2" x1="78" x2="78" y1="93.5" y2="58.5" /><polyline fill="none" points="35.5,48 91.5,48 91.5,9.5 34.5,9.5 34.5,49" stroke="#000000" stroke-width="2" /><path d="M3.5,79 c10.252,-4.415 19.045,-9.415 30,-17" fill="none" stroke="#000000" stroke-width="2" /><path d="M28.5,72 c11.492,-6.286 21.508,-14.341 30,-24" fill="none" stroke="#000000" stroke-width="2" /><path d="M97.5,72 c-11.492,-6.286 -21.508,-14.341 -30,-24" fill="none" stroke="#000000" stroke-width="2" /><path d="M28.5,93.5 c13.631,-4.636 21.5,-14.741 21.5,-29 v-8.0" fill="none" stroke="#000000" stroke-width="2" /></svg>