<?xml version='1.0' encoding='utf-8'?>
<svg xmlns="http://www.w3.org/2000/svg" height="100px" version="1.0" viewBox="0 0 100 100" width="100px" x="0px" y="0px">
<line fill="none" stroke="#000000" stroke-width="2" x1="7" x2="93" y1="90" y2="90" /><line fill="none" stroke="#000000" stroke-width="2" x1="86" x2="14" y1="72" y2="72" /><line fill="none" stroke="#000000" stroke-width="2" x1="50" x2="50" y1="90" y2="62.5" /><line fill="none" stroke="#000000" stroke-width="2" x1="92" x2="34" y1="36.5" y2="36.5" /><line fill="none" stroke="#000000" stroke-width="2" x1="81.5" x2="42.5" y1="21.5" y2="21.5" /><path d="M9,63 c8.486,-7.069 15.656,-15.396 20.5,-23.5" fill="none" stroke="#000000" stroke-width="2" /><path d="M26.5,17 c-4.495,-3.239 -9.92,-6.666 -16,-10" fill="none" stroke="#000000" stroke-width="2" /><path d="M23,34 c-4.95,-3.674 -10.705,-7.313 -17.5,-11" fill="none" stroke="#000000" stroke-width="2" /><path d="M93.5,24 c-12.385,-5.604 -21.895,-11.358 -31.5,-18.851 c-9.605,7.492 -19.105,13.269 -31.5,18.851" fill="none" stroke="#000000" stroke-width="2" /><path d="M63,21.5 v33.0 c0,4.712 -0.31,5 -6,5 c-1.542,0 -5.677,-0.139 -12,-0.5" fill="none" stroke="#000000" stroke-width="2" /><path d="M30,60 c7.938,-4.921 14.451,-11.374 18.5,-18" fill="none" stroke="#000000" stroke-width="2" /><path d="M93.5,60.5 c-4.98,-6.152 -11.357,-12.56 -18.5,-18.5" fill="none" stroke="#000000" stroke-width="2" /></svg>