<?xml version='1.0' encoding='utf-8'?>
<svg xmlns="http://www.w3.org/2000/svg" height="100px" version="1.0" viewBox="0 0 100 100" width="100px" x="0px" y="0px">
<line fill="none" stroke="#000000" stroke-width="2" x1="3.5" x2="31.5" y1="34.5" y2="34.5" /><line fill="none" stroke="#000000" stroke-width="2" x1="17.5" x2="17.5" y1="80.5" y2="8" /><line fill="none" stroke="#000000" stroke-width="2" x1="37" x2="89.5" y1="24.5" y2="24.5" /><polyline fill="none" points="94,29.5 94,10.5 32.5,10.5 32.5,29.5" stroke="#000000" stroke-width="2" /><path d="M3.5,86 c10.252,-3.637 19.039,-7.762 30,-14" fill="none" stroke="#000000" stroke-width="2" /><path d="M30.5,49.5 c16.082,-7.37 27.815,-15.817 35.5,-25" fill="none" stroke="#000000" stroke-width="2" /><path d="M52,91 c5.9,0.356 10.336,0.5 13.5,0.5 c5.4,0 7.5,-2.372 7.5,-18 c0,-15.491 -6.143,-31.98 -15,-41" fill="none" stroke="#000000" stroke-width="2" /><path d="M33,68 c15.164,-7.114 25.734,-14.913 33,-23.5" fill="none" stroke="#000000" stroke-width="2" /><path d="M32,89.5 c18.086,-8.036 31.072,-17.767 39.5,-28.5" fill="none" stroke="#000000" stroke-width="2" /><path d="M94,36 c-5.359,7.475 -11.077,13.335 -17.5,18" fill="none" stroke="#000000" stroke-width="2" /><path d="M68,24.5 c4.031,25.52 16.086,50.041 30,63.5" fill="none" stroke="#000000" stroke-width="2" /></svg>