<?xml version='1.0' encoding='utf-8'?>
<svg xmlns="http://www.w3.org/2000/svg" height="100px" version="1.0" viewBox="0 0 100 100" width="100px" x="0px" y="0px">
<line fill="none" stroke="#000000" stroke-width="2" x1="60" x2="60" y1="23" y2="5" /><line fill="none" stroke="#000000" stroke-width="2" x1="25" x2="95" y1="14" y2="14" /><line fill="none" stroke="#000000" stroke-width="2" x1="96" x2="25" y1="71" y2="71" /><line fill="none" stroke="#000000" stroke-width="2" x1="35.5" x2="86.5" y1="48.5" y2="48.5" /><line fill="none" stroke="#000000" stroke-width="2" x1="35.5" x2="86.5" y1="36" y2="36" /><line fill="none" stroke="#000000" stroke-width="2" x1="4" x2="30" y1="31" y2="31" /><line fill="none" stroke="#000000" stroke-width="2" x1="17" x2="17" y1="71" y2="8" /><polyline fill="none" points="35.5,61.5 87.5,61.5 87.5,24 34.5,24 34.5,62.5" stroke="#000000" stroke-width="2" /><path d="M22,92 c12.009,-4.104 22.38,-9.762 28.5,-15" fill="none" stroke="#000000" stroke-width="2" /><path d="M94,93 c-7.353,-5.194 -17.48,-10.821 -28.5,-15.5" fill="none" stroke="#000000" stroke-width="2" /><path d="M4,77 c9.207,-3.685 17.135,-7.762 27,-14" fill="none" stroke="#000000" stroke-width="2" /></svg>