<?xml version='1.0' encoding='utf-8'?>
<svg xmlns="http://www.w3.org/2000/svg" height="100px" version="1.0" viewBox="0 0 100 100" width="100px" x="0px" y="0px">
<line fill="none" stroke="#000000" stroke-width="2" x1="56.5" x2="20.5" y1="30.5" y2="30.5" /><line fill="none" stroke="#000000" stroke-width="2" x1="59.5" x2="18.5" y1="45" y2="45" /><path d="M16,91 c20.605,-8.84 33.98,-25.873 35.5,-46" fill="none" stroke="#000000" stroke-width="2" /><path d="M35.5,30.5 c-2.902,14.78 -8.365,28.465 -15.5,39.5" fill="none" stroke="#000000" stroke-width="2" /><path d="M23.5,64 c11.159,3.312 19.057,6.721 29,12.5" fill="none" stroke="#000000" stroke-width="2" /><path d="M60.5,3.5 c0,60.849 21.559,87.5 26,87.5 c2.407,0 5.804,-2.614 8,-23" fill="none" stroke="#000000" stroke-width="2" /><path d="M84.5,31 c-6.657,30.089 -24.717,51.339 -48,60" fill="none" stroke="#000000" stroke-width="2" /><path d="M66.5,4 c6.063,2.864 12.305,6.347 18,10" fill="none" stroke="#000000" stroke-width="2" /><path d="M5.5,91.5 c5.376,-14.052 8,-29.832 8,-51 V18.0 h78.0" fill="none" stroke="#000000" stroke-width="2" /></svg>