<?xml version='1.0' encoding='utf-8'?>
<svg xmlns="http://www.w3.org/2000/svg" height="100px" version="1.0" viewBox="0 0 100 100" width="100px" x="0px" y="0px">
<line fill="none" stroke="#000000" stroke-width="2" x1="39.5" x2="94.5" y1="44.5" y2="44.5" /><line fill="none" stroke="#000000" stroke-width="2" x1="54" x2="54" y1="88.5" y2="44.5" /><line fill="none" stroke="#000000" stroke-width="2" x1="46" x2="90.5" y1="27" y2="27" /><path d="M4,94 c16.564,-13.677 28,-40.016 28,-70 h-28.0" fill="none" stroke="#000000" stroke-width="2" /><path d="M20,5 c-2.479,22.511 -6.868,41.968 -12.5,57.5" fill="none" stroke="#000000" stroke-width="2" /><path d="M10,55 c8.581,6.791 15.262,14.458 24,28" fill="none" stroke="#000000" stroke-width="2" /><path d="M31,91 c5.586,-14.091 8.5,-29.832 8.5,-51 v-30.0 h53.5" fill="none" stroke="#000000" stroke-width="2" /><path d="M67.5,44.5 c4.393,21.823 14.544,38.691 27.5,48" fill="none" stroke="#000000" stroke-width="2" /><path d="M39.5,92 c12.406,-2.517 23.185,-5.799 36,-11" fill="none" stroke="#000000" stroke-width="2" /><path d="M76,69.5 c6.199,-4.79 12.172,-11.049 18,-19" fill="none" stroke="#000000" stroke-width="2" /></svg>