<?xml version='1.0' encoding='utf-8'?>
<svg xmlns="http://www.w3.org/2000/svg" height="100px" version="1.0" viewBox="0 0 100 100" width="100px" x="0px" y="0px">
<line fill="none" stroke="#000000" stroke-width="2" x1="35" x2="94.5" y1="36" y2="36" /><path d="M4,94 c16.564,-13.677 28,-40.016 28,-70 h-28.0" fill="none" stroke="#000000" stroke-width="2" /><path d="M20,5 c-2.479,22.511 -6.868,41.968 -12.5,57.5" fill="none" stroke="#000000" stroke-width="2" /><path d="M10,55 c8.402,6.791 14.943,14.458 23.5,28" fill="none" stroke="#000000" stroke-width="2" /><path d="M50,13 v69.5 c0,7.683 -0.373,8 -5,8 c-2.035,0 -5.565,-0.188 -9.5,-0.5" fill="none" stroke="#000000" stroke-width="2" /><path d="M90.5,43.5 c-5.372,20.868 -17.669,36.603 -34.5,46" fill="none" stroke="#000000" stroke-width="2" /><path d="M70,5.5 c0,48.484 12.683,85.5 18.5,85.5 c2.351,0 5.09,-5.235 6.5,-23" fill="none" stroke="#000000" stroke-width="2" /><path d="M34,66 c12.912,-3.335 25.264,-7.81 33.5,-12" fill="none" stroke="#000000" stroke-width="2" /><path d="M35,17.5 c11.694,-2.834 21.114,-6.405 28.5,-10.5" fill="none" stroke="#000000" stroke-width="2" /><path d="M80.5,8 c4.43,5.757 8.102,11.229 12,18" fill="none" stroke="#000000" stroke-width="2" /></svg>