<?xml version='1.0' encoding='utf-8'?>
<svg xmlns="http://www.w3.org/2000/svg" height="100px" version="1.0" viewBox="0 0 100 100" width="100px" x="0px" y="0px">
<line fill="none" stroke="#000000" stroke-width="2" x1="43" x2="84" y1="32.5" y2="32.5" /><line fill="none" stroke="#000000" stroke-width="2" x1="96" x2="31" y1="62" y2="62" /><line fill="none" stroke="#000000" stroke-width="2" x1="96" x2="31" y1="15" y2="15" /><line fill="none" stroke="#000000" stroke-width="2" x1="63.5" x2="63.5" y1="94" y2="52.5" /><polyline fill="none" points="42,6 42,51.5 85,51.5 85,6" stroke="#000000" stroke-width="2" /><path d="M4.5,94 c16.564,-13.677 28,-40.016 28,-70 h-28.0" fill="none" stroke="#000000" stroke-width="2" /><path d="M20.5,5 c-2.479,22.511 -6.868,41.968 -12.5,57.5" fill="none" stroke="#000000" stroke-width="2" /><path d="M10.5,55 c8.402,6.791 14.943,14.458 23.5,28" fill="none" stroke="#000000" stroke-width="2" /><path d="M30,91 c15.803,-9.494 26.009,-18.798 32.5,-29" fill="none" stroke="#000000" stroke-width="2" /><path d="M97,91 c-15.803,-9.494 -26.009,-18.798 -32.5,-29" fill="none" stroke="#000000" stroke-width="2" /></svg>