<?xml version='1.0' encoding='utf-8'?>
<svg xmlns="http://www.w3.org/2000/svg" height="100px" version="1.0" viewBox="0 0 100 100" width="100px" x="0px" y="0px">
<line fill="none" stroke="#000000" stroke-width="2" x1="19" x2="81" y1="61.5" y2="61.5" /><line fill="none" stroke="#000000" stroke-width="2" x1="19" x2="81" y1="49" y2="49" /><line fill="none" stroke="#000000" stroke-width="2" x1="16" x2="84" y1="24" y2="24" /><line fill="none" stroke="#000000" stroke-width="2" x1="50" x2="50" y1="12.5" y2="3" /><line fill="none" stroke="#000000" stroke-width="2" x1="34" x2="34" y1="31.5" y2="16.5" /><line fill="none" stroke="#000000" stroke-width="2" x1="66" x2="66" y1="31.5" y2="16.5" /><polyline fill="none" points="19,74 82,74 82,36.5 18,36.5 18,75" stroke="#000000" stroke-width="2" /><polyline fill="none" points="90,28 90,12.5 10,12.5 10,28" stroke="#000000" stroke-width="2" /><path d="M58,75 v12.5 c0,4.659 0.434,5 16,5 c14.402,0 14.596,-0.156 16,-19" fill="none" stroke="#000000" stroke-width="2" /><path d="M9,93.5 c19.295,-2.456 30.236,-10.628 31,-19.5" fill="none" stroke="#000000" stroke-width="2" /></svg>