<?xml version='1.0' encoding='utf-8'?>
<svg xmlns="http://www.w3.org/2000/svg" height="100px" version="1.0" viewBox="0 0 100 100" width="100px" x="0px" y="0px">
<line fill="none" stroke="#000000" stroke-width="2" x1="18.5" x2="81.5" y1="20.5" y2="20.5" /><line fill="none" stroke="#000000" stroke-width="2" x1="50" x2="50" y1="11" y2="2" /><line fill="none" stroke="#000000" stroke-width="2" x1="21" x2="21" y1="28.5" y2="57" /><line fill="none" stroke="#000000" stroke-width="2" x1="6.5" x2="93.5" y1="58" y2="58" /><line fill="none" stroke="#000000" stroke-width="2" x1="22" x2="78" y1="39" y2="39" /><line fill="none" stroke="#000000" stroke-width="2" x1="22" x2="78" y1="48.5" y2="48.5" /><polyline fill="none" points="89.5,28 89.5,12 10.5,12 10.5,28" stroke="#000000" stroke-width="2" /><polyline fill="none" points="79,57 79,29.5 22,29.5" stroke="#000000" stroke-width="2" /><path d="M50,20.5 c-1.285,3.338 -2.926,6.282 -5,9" fill="none" stroke="#000000" stroke-width="2" /><path d="M5,75 c15.272,-4.604 27.373,-10.718 35,-17" fill="none" stroke="#000000" stroke-width="2" /><path d="M13.5,92.5 c16.896,-3.418 27.541,-11.702 32,-24" fill="none" stroke="#000000" stroke-width="2" /><path d="M22.5,68.5 h54.5 c0,19.241 -2.922,22.5 -12,22.5 c-4.032,0 -9.641,-0.202 -15,-0.5" fill="none" stroke="#000000" stroke-width="2" /><path d="M95,74 c-17.338,-5.228 -28.467,-10.618 -35,-16" fill="none" stroke="#000000" stroke-width="2" /></svg>