<?xml version='1.0' encoding='utf-8'?>
<svg xmlns="http://www.w3.org/2000/svg" height="100px" version="1.0" viewBox="0 0 100 100" width="100px" x="0px" y="0px">
<line fill="none" stroke="#000000" stroke-width="2" x1="97.5" x2="55" y1="24" y2="24" /><line fill="none" stroke="#000000" stroke-width="2" x1="54" x2="11" y1="57" y2="57" /><line fill="none" stroke="#000000" stroke-width="2" x1="49.5" x2="16.5" y1="42.5" y2="42.5" /><path d="M4.5,90 c4.545,-11.881 7,-27.663 7,-51 v-29.0 h39.5 v19.0 h-38.5" fill="none" stroke="#000000" stroke-width="2" /><path d="M87.5,6 v75.0 c0,9.353 -0.566,10 -6.5,10 c-2.949,0 -9.187,-0.194 -15,-0.5" fill="none" stroke="#000000" stroke-width="2" /><path d="M74.5,67 c-3.807,-9.632 -9.448,-20.955 -15,-30" fill="none" stroke="#000000" stroke-width="2" /><path d="M35,57 v30.0 c0,4.521 -0.429,5 -4.5,5 c-1.891,0 -5.085,-0.169 -9,-0.5" fill="none" stroke="#000000" stroke-width="2" /><path d="M13,87.5 c4.57,-6.198 8.297,-14.063 10.5,-22.5" fill="none" stroke="#000000" stroke-width="2" /><path d="M55.5,87.5 c-2.813,-7.433 -6.473,-15.335 -10.5,-22.5" fill="none" stroke="#000000" stroke-width="2" /></svg>