<?xml version='1.0' encoding='utf-8'?>
<svg xmlns="http://www.w3.org/2000/svg" height="100px" version="1.0" viewBox="0 0 100 100" width="100px" x="0px" y="0px">
<line fill="none" stroke="#000000" stroke-width="2" x1="38.5" x2="82" y1="88" y2="88" /><line fill="none" stroke="#000000" stroke-width="2" x1="45" x2="92.5" y1="39" y2="39" /><line fill="none" stroke="#000000" stroke-width="2" x1="44" x2="44" y1="75.5" y2="13.5" /><line fill="none" stroke="#000000" stroke-width="2" x1="8.5" x2="8.5" y1="20" y2="92" /><line fill="none" stroke="#000000" stroke-width="2" x1="20.5" x2="20.5" y1="84" y2="6.5" /><polyline fill="none" points="9.5,84 32.5,84 32.5,20" stroke="#000000" stroke-width="2" /><path d="M43,14.5 c15.467,0 31.776,-2.374 45.5,-6.5" fill="none" stroke="#000000" stroke-width="2" /><path d="M35,78 c12.122,-2.812 22.469,-6.347 35,-12" fill="none" stroke="#000000" stroke-width="2" /><path d="M70,12.5 c0,43.784 12.797,73.5 20.5,73.5 c2.063,0 4.188,-4.235 5.5,-20.5" fill="none" stroke="#000000" stroke-width="2" /></svg>