<?xml version='1.0' encoding='utf-8'?>
<svg xmlns="http://www.w3.org/2000/svg" height="100px" version="1.0" viewBox="0 0 100 100" width="100px" x="0px" y="0px">
<line fill="none" stroke="#000000" stroke-width="2" x1="7" x2="7" y1="20" y2="92" /><line fill="none" stroke="#000000" stroke-width="2" x1="19.5" x2="19.5" y1="84" y2="6.5" /><line fill="none" stroke="#000000" stroke-width="2" x1="46.5" x2="86.5" y1="86" y2="86" /><polyline fill="none" points="8,84 32,84 32,20" stroke="#000000" stroke-width="2" /><polyline fill="none" points="87.5,93 87.5,54 45.5,54 45.5,93" stroke="#000000" stroke-width="2" /><path d="M96.5,56 c-11.729,-8.875 -20.852,-17.831 -30,-29.5 c-9.148,11.669 -18.271,20.625 -30,29.5" fill="none" stroke="#000000" stroke-width="2" /><path d="M57.5,9.5 c-4.651,8.724 -11.969,16.979 -21.5,24" fill="none" stroke="#000000" stroke-width="2" /><path d="M95,33 c-6.058,-8.054 -13.588,-16.36 -22,-24" fill="none" stroke="#000000" stroke-width="2" /></svg>