<?xml version='1.0' encoding='utf-8'?>
<svg xmlns="http://www.w3.org/2000/svg" height="100px" version="1.0" viewBox="0 0 100 100" width="100px" x="0px" y="0px">
<line fill="none" stroke="#000000" stroke-width="2" x1="19.5" x2="19.5" y1="94" y2="6" /><line fill="none" stroke="#000000" stroke-width="2" x1="65" x2="65" y1="60" y2="39.5" /><line fill="none" stroke="#000000" stroke-width="2" x1="95" x2="32" y1="60" y2="60" /><line fill="none" stroke="#000000" stroke-width="2" x1="40.5" x2="89.5" y1="23.5" y2="23.5" /><polyline fill="none" points="40.5,38.5 90.5,38.5 90.5,10 39.5,10 39.5,39.5" stroke="#000000" stroke-width="2" /><path d="M24,75 h3.0 c4.664,0 5,-0.355 5,-7 v-46.0 h-25.0 v55.0" fill="none" stroke="#000000" stroke-width="2" /><path d="M53.5,60 c-3.186,-6.046 -6.66,-11.962 -10,-17" fill="none" stroke="#000000" stroke-width="2" /><path d="M76.5,60 c4.004,-5.408 7.629,-11.567 10,-17" fill="none" stroke="#000000" stroke-width="2" /><path d="M71.5,60 v24.5 c0,6.046 0.627,6.5 11,6.5 c11.707,0 11.996,-0.282 12.5,-17.5" fill="none" stroke="#000000" stroke-width="2" /><path d="M29.5,92 c18.16,-5.109 26.059,-14.4 27,-32" fill="none" stroke="#000000" stroke-width="2" /></svg>