<?xml version='1.0' encoding='utf-8'?>
<svg xmlns="http://www.w3.org/2000/svg" height="100px" version="1.0" viewBox="0 0 100 100" width="100px" x="0px" y="0px">
<line fill="none" stroke="#000000" stroke-width="2" x1="95.5" x2="48" y1="19" y2="19" /><path d="M6,11 h28.5 v23.0 H9.0 c-0.637,11.548 -1.652,22.362 -3,32" fill="none" stroke="#000000" stroke-width="2" /><path d="M7.5,56.5 h27.0 c-2.152,33.055 -3.082,34 -11.5,34 c-2.577,0 -10.963,-0.507 -16,-1" fill="none" stroke="#000000" stroke-width="2" /><path d="M69.5,19 v64.5 c0,7.385 -0.594,8 -6,8 c-2.565,0 -6.678,-0.164 -12,-0.5" fill="none" stroke="#000000" stroke-width="2" /><path d="M37.5,81.5 c7.84,-12.223 14.22,-27.864 18,-44.5" fill="none" stroke="#000000" stroke-width="2" /><path d="M97,83 c-3.996,-15.282 -9.171,-31.308 -15,-46" fill="none" stroke="#000000" stroke-width="2" /><path d="M38.5,40 c6.047,-9.923 11,-22.503 14,-36" fill="none" stroke="#000000" stroke-width="2" /></svg>