<?xml version='1.0' encoding='utf-8'?>
<svg xmlns="http://www.w3.org/2000/svg" height="100px" version="1.0" viewBox="0 0 100 100" width="100px" x="0px" y="0px">
<line fill="none" stroke="#000000" stroke-width="2" x1="32" x2="32" y1="42" y2="34" /><line fill="none" stroke="#000000" stroke-width="2" x1="3.5" x2="59.5" y1="42" y2="42" /><line fill="none" stroke="#000000" stroke-width="2" x1="10.5" x2="53.5" y1="21" y2="21" /><polyline fill="none" points="12.5,68.5 52.5,68.5 52.5,50.5 11.5,50.5 11.5,69.5" stroke="#000000" stroke-width="2" /><polyline fill="none" points="10.5,33 54.5,33 54.5,9.5 9.5,9.5 9.5,34" stroke="#000000" stroke-width="2" /><path d="M32,69.5 V87.0 c0,4.741 -0.65,5.5 -5,5.5 c-1.994,0 -4.861,-0.143 -9,-0.5" fill="none" stroke="#000000" stroke-width="2" /><path d="M3,90 c7.204,-4.218 13.765,-10.307 18,-16.5" fill="none" stroke="#000000" stroke-width="2" /><path d="M53,88.5 c-3.438,-5.288 -7.65,-10.58 -12,-15" fill="none" stroke="#000000" stroke-width="2" /><path d="M59.5,27 c13.784,-4.769 24.571,-11.101 32,-18" fill="none" stroke="#000000" stroke-width="2" /><path d="M59.5,58 c14.998,-5.64 25.56,-12.606 34,-22" fill="none" stroke="#000000" stroke-width="2" /><path d="M55.5,91 c17.383,-5.866 29.432,-13.968 40,-26" fill="none" stroke="#000000" stroke-width="2" /></svg>