<?xml version='1.0' encoding='utf-8'?>
<svg xmlns="http://www.w3.org/2000/svg" height="100px" version="1.0" viewBox="0 0 100 100" width="100px" x="0px" y="0px">
<line fill="none" stroke="#000000" stroke-width="2" x1="15" x2="15" y1="94" y2="43.5" /><line fill="none" stroke="#000000" stroke-width="2" x1="63" x2="29" y1="62" y2="62" /><line fill="none" stroke="#000000" stroke-width="2" x1="65" x2="27" y1="45" y2="45" /><line fill="none" stroke="#000000" stroke-width="2" x1="46.5" x2="46.5" y1="80.5" y2="45" /><line fill="none" stroke="#000000" stroke-width="2" x1="46.5" x2="46.5" y1="33.5" y2="5.5" /><line fill="none" stroke="#000000" stroke-width="2" x1="72" x2="98" y1="21" y2="21" /><polyline fill="none" points="31,11.5 31,33.5 62,33.5 62,11.5" stroke="#000000" stroke-width="2" /><path d="M26,28 c-6.155,11.01 -14.33,20.146 -24,27" fill="none" stroke="#000000" stroke-width="2" /><path d="M27,6 c-6.021,9.226 -13.919,16.872 -24,23" fill="none" stroke="#000000" stroke-width="2" /><path d="M66,77 c-10.42,2.333 -24.068,4.401 -41.5,6" fill="none" stroke="#000000" stroke-width="2" /><path d="M61,91 c20.207,-15.312 28.916,-32.429 32,-70" fill="none" stroke="#000000" stroke-width="2" /><path d="M97.5,91 c-14.58,-14.065 -21.473,-30.208 -24,-63" fill="none" stroke="#000000" stroke-width="2" /><path d="M64.5,41 c4.733,-9.815 8.766,-22.903 11,-36" fill="none" stroke="#000000" stroke-width="2" /></svg>