<?xml version='1.0' encoding='utf-8'?>
<svg xmlns="http://www.w3.org/2000/svg" height="100px" version="1.0" viewBox="0 0 100 100" width="100px" x="0px" y="0px">
<line fill="none" stroke="#000000" stroke-width="2" x1="67.5" x2="67.5" y1="94" y2="47" /><line fill="none" stroke="#000000" stroke-width="2" x1="97" x2="29" y1="62" y2="62" /><line fill="none" stroke="#000000" stroke-width="2" x1="59" x2="59" y1="17.5" y2="6" /><line fill="none" stroke="#000000" stroke-width="2" x1="17" x2="17" y1="94" y2="6" /><path d="M31,51.5 c18.363,-7.615 28,-19.137 28,-32" fill="none" stroke="#000000" stroke-width="2" /><path d="M35.5,18.5 h45.0 V44.0 c0,3.559 0.639,4 6.5,4 c8.084,0 8.5,-0.487 8.5,-19.5" fill="none" stroke="#000000" stroke-width="2" /><path d="M4,58 c2.624,-10.247 4.357,-21.376 5,-32" fill="none" stroke="#000000" stroke-width="2" /><path d="M29,46 c-1.146,-6.952 -3.207,-14.611 -6,-22" fill="none" stroke="#000000" stroke-width="2" /></svg>