<?xml version='1.0' encoding='utf-8'?>
<svg xmlns="http://www.w3.org/2000/svg" height="100px" version="1.0" viewBox="0 0 100 100" width="100px" x="0px" y="0px">
<line fill="none" stroke="#000000" stroke-width="2" x1="82" x2="41" y1="31.5" y2="31.5" /><line fill="none" stroke="#000000" stroke-width="2" x1="57" x2="57" y1="94" y2="50" /><line fill="none" stroke="#000000" stroke-width="2" x1="17" x2="17" y1="94" y2="6" /><path d="M95.5,36 c-13.021,-9.226 -23.889,-19.126 -34,-30.8 c-10.575,12.147 -21.88,22.263 -35.5,31.8" fill="none" stroke="#000000" stroke-width="2" /><path d="M29,50 h60.5 v26.0 c0,7.636 -0.346,8 -5,8 c-1.521,0 -8.252,-0.225 -13.5,-0.5" fill="none" stroke="#000000" stroke-width="2" /><path d="M4,58 c2.624,-10.247 4.357,-21.376 5,-32" fill="none" stroke="#000000" stroke-width="2" /><path d="M27,46 c-0.573,-6.952 -1.604,-14.611 -3,-22" fill="none" stroke="#000000" stroke-width="2" /></svg>