<?xml version='1.0' encoding='utf-8'?>
<svg xmlns="http://www.w3.org/2000/svg" height="100px" version="1.0" viewBox="0 0 100 100" width="100px" x="0px" y="0px">
<line fill="none" stroke="#000000" stroke-width="2" x1="40.5" x2="86.5" y1="87" y2="87" /><line fill="none" stroke="#000000" stroke-width="2" x1="17" x2="17" y1="94" y2="6" /><polyline fill="none" points="87.5,94 87.5,53 39.5,53 39.5,94" stroke="#000000" stroke-width="2" /><path d="M96.5,47.5 c-5.111,-9.48 -12.551,-20.903 -19.5,-30" fill="none" stroke="#000000" stroke-width="2" /><path d="M30.5,41 c17.403,-0.586 39.121,-2.442 59,-5" fill="none" stroke="#000000" stroke-width="2" /><path d="M39.5,40.5 c5.5,-10.206 11.127,-22.664 16,-35.5" fill="none" stroke="#000000" stroke-width="2" /><path d="M4,58 c2.624,-10.247 4.357,-21.376 5,-32" fill="none" stroke="#000000" stroke-width="2" /><path d="M27,46 c-0.573,-6.952 -1.604,-14.611 -3,-22" fill="none" stroke="#000000" stroke-width="2" /></svg>