<?xml version='1.0' encoding='utf-8'?>
<svg xmlns="http://www.w3.org/2000/svg" height="100px" version="1.0" viewBox="0 0 100 100" width="100px" x="0px" y="0px">
<line fill="none" stroke="#000000" stroke-width="2" x1="17" x2="17" y1="94" y2="6" /><line fill="none" stroke="#000000" stroke-width="2" x1="41" x2="85" y1="86" y2="86" /><line fill="none" stroke="#000000" stroke-width="2" x1="46.5" x2="89.5" y1="15" y2="15" /><polyline fill="none" points="40,93 40,56 86,56 86,93" stroke="#000000" stroke-width="2" /><path d="M4,58 c2.624,-10.247 4.357,-21.376 5,-32" fill="none" stroke="#000000" stroke-width="2" /><path d="M27.5,46 c-0.573,-6.952 -1.604,-14.611 -3,-22" fill="none" stroke="#000000" stroke-width="2" /><path d="M30.5,29.5 c9.991,-7.403 17.433,-15.433 23,-24.5" fill="none" stroke="#000000" stroke-width="2" /><path d="M88.646,15.477 c-10.969,17.881 -28.765,30.084 -61.146,40.023" fill="none" stroke="#000000" stroke-width="2" /><path d="M42.5,19 c13.339,15.268 30.258,26.863 54,36.5" fill="none" stroke="#000000" stroke-width="2" /></svg>