<?xml version='1.0' encoding='utf-8'?>
<svg xmlns="http://www.w3.org/2000/svg" height="100px" version="1.0" viewBox="0 0 100 100" width="100px" x="0px" y="0px">
<line fill="none" stroke="#000000" stroke-width="2" x1="50" x2="50" y1="62.5" y2="4.5" /><polyline fill="none" points="14.5,56.5 86.5,56.5 86.5,38.5 13.5,38.5 13.5,57.5" stroke="#000000" stroke-width="2" /><polyline fill="none" points="17.5,29.5 83.5,29.5 83.5,12 16.5,12 16.5,30.5" stroke="#000000" stroke-width="2" /><path d="M32.5,66 v19.0 c0,5.63 1.854,7 19.5,7 c23.769,0 24.205,-0.438 25.5,-15.5" fill="none" stroke="#000000" stroke-width="2" /><path d="M5.5,89 c6.029,-6.118 11.077,-14.217 14,-22.5" fill="none" stroke="#000000" stroke-width="2" /><path d="M94.5,89.5 c-4.006,-7.985 -9.168,-16.313 -15,-24" fill="none" stroke="#000000" stroke-width="2" /><path d="M62,80.5 c-4.591,-5.048 -9.98,-10.118 -16,-15" fill="none" stroke="#000000" stroke-width="2" /></svg>