<?xml version='1.0' encoding='utf-8'?>
<svg xmlns="http://www.w3.org/2000/svg" height="100px" version="1.0" viewBox="0 0 100 100" width="100px" x="0px" y="0px">
<line fill="none" stroke="#000000" stroke-width="2" x1="17" x2="17" y1="94" y2="6" /><line fill="none" stroke="#000000" stroke-width="2" x1="64" x2="64" y1="34.5" y2="50" /><line fill="none" stroke="#000000" stroke-width="2" x1="40" x2="88" y1="34.5" y2="34.5" /><path d="M4,58 c2.624,-10.247 4.357,-21.376 5,-32" fill="none" stroke="#000000" stroke-width="2" /><path d="M27.5,47.5 c-0.573,-6.952 -1.604,-14.611 -3,-22" fill="none" stroke="#000000" stroke-width="2" /><path d="M71,34.5 c3.164,-5.549 5.955,-12.122 8,-19" fill="none" stroke="#000000" stroke-width="2" /><path d="M57,34.5 c-2.235,-6.097 -5.024,-12.546 -8,-18.5" fill="none" stroke="#000000" stroke-width="2" /><path d="M35,92 v-82.0 h58.0 v72.0 c0,7.565 -0.27,8 -6,8 c-2.145,0 -6.641,-0.155 -13,-0.5" fill="none" stroke="#000000" stroke-width="2" /><path d="M82.5,76 c-5.607,0.329 -11.05,0.5 -16,0.5 c-16.973,0 -18,-0.665 -18,-6 V50.0 H85.0" fill="none" stroke="#000000" stroke-width="2" /></svg>