<?xml version='1.0' encoding='utf-8'?>
<svg xmlns="http://www.w3.org/2000/svg" height="100px" version="1.0" viewBox="0 0 100 100" width="100px" x="0px" y="0px">
<line fill="none" stroke="#000000" stroke-width="2" x1="50" x2="50" y1="56" y2="10.5" /><line fill="none" stroke="#000000" stroke-width="2" x1="81.5" x2="18.5" y1="35.5" y2="35.5" /><line fill="none" stroke="#000000" stroke-width="2" x1="81.5" x2="18.5" y1="22.5" y2="22.5" /><polyline fill="none" points="17.5,36.5 17.5,9.5 82.5,9.5 82.5,36.5" stroke="#000000" stroke-width="2" /><path d="M82,60.5 c-3.685,-4.242 -8.732,-9.677 -13,-14" fill="none" stroke="#000000" stroke-width="2" /><path d="M18.5,58 c18.109,-0.581 38.354,-2.361 57,-5" fill="none" stroke="#000000" stroke-width="2" /><path d="M32.5,66 v17.0 c0,8.614 0.509,9 19.5,9 c23.645,0 23.871,-0.202 25.5,-16.5" fill="none" stroke="#000000" stroke-width="2" /><path d="M5.5,90 c6.062,-6.017 11.077,-13.812 14,-22" fill="none" stroke="#000000" stroke-width="2" /><path d="M94.5,90 c-3.324,-6.815 -7.648,-13.949 -12.5,-20.5" fill="none" stroke="#000000" stroke-width="2" /><path d="M63,79 c-5.825,-4.966 -12.691,-9.811 -20,-14" fill="none" stroke="#000000" stroke-width="2" /><path d="M69,65.5 c7.004,0.363 11.129,0.5 13,0.5 c6.354,0 7,-0.792 7,-6 v-16.5 h-78.0 v23.5" fill="none" stroke="#000000" stroke-width="2" /></svg>