<?xml version='1.0' encoding='utf-8'?>
<svg xmlns="http://www.w3.org/2000/svg" height="100px" version="1.0" viewBox="0 0 100 100" width="100px" x="0px" y="0px">
<line fill="none" stroke="#000000" stroke-width="2" x1="16.5" x2="16.5" y1="94" y2="6" /><line fill="none" stroke="#000000" stroke-width="2" x1="61" x2="61" y1="16.5" y2="52.5" /><line fill="none" stroke="#000000" stroke-width="2" x1="33" x2="89" y1="34" y2="34" /><polyline fill="none" points="33,53.5 90,53.5 90,15.5 32,15.5 32,54.5" stroke="#000000" stroke-width="2" /><path d="M4,58 c2.624,-10.247 4.357,-21.376 5,-32" fill="none" stroke="#000000" stroke-width="2" /><path d="M26.5,47.5 c-0.573,-6.952 -1.604,-14.611 -3,-22" fill="none" stroke="#000000" stroke-width="2" /><path d="M49.5,15.5 c3.021,-3.953 5.887,-8.271 8,-12" fill="none" stroke="#000000" stroke-width="2" /><path d="M64,54.5 v32.0 c0,4.331 0.898,5 13,5 c16.744,0 16.971,-0.209 18,-18.5" fill="none" stroke="#000000" stroke-width="2" /><path d="M23,93 c18.346,-7.226 29,-21.708 29,-39.5" fill="none" stroke="#000000" stroke-width="2" /><path d="M91.5,80.5 c-2.234,-5.11 -5.58,-11.599 -8.5,-16.5" fill="none" stroke="#000000" stroke-width="2" /><path d="M66.5,79 c7.152,-0.751 15.07,-2.159 22.5,-4" fill="none" stroke="#000000" stroke-width="2" /><path d="M70.5,78.5 c2.729,-5.832 5.43,-13.357 7.5,-21" fill="none" stroke="#000000" stroke-width="2" /></svg>