<?xml version='1.0' encoding='utf-8'?>
<svg xmlns="http://www.w3.org/2000/svg" height="100px" version="1.0" viewBox="0 0 100 100" width="100px" x="0px" y="0px">
<line fill="none" stroke="#000000" stroke-width="2" x1="95.5" x2="54" y1="17" y2="17" /><line fill="none" stroke="#000000" stroke-width="2" x1="53" x2="11" y1="38" y2="38" /><line fill="none" stroke="#000000" stroke-width="2" x1="48.5" x2="16.5" y1="28.5" y2="28.5" /><path d="M32.5,66.5 v14.0 c0,10.571 0.292,10.911 7,11.5 c3.618,0.317 8.079,0.5 12.5,0.5 c4.34,0 8.638,-0.161 12.5,-0.5 c11.35,-0.996 11.514,-1.125 13,-16" fill="none" stroke="#000000" stroke-width="2" /><path d="M5.5,90.5 c6.062,-6.017 11.077,-13.812 14,-22" fill="none" stroke="#000000" stroke-width="2" /><path d="M94.5,90 c-4.006,-8.018 -9.154,-16.294 -15,-24.001" fill="none" stroke="#000000" stroke-width="2" /><path d="M63,79.5 c-5.825,-4.966 -12.691,-9.811 -20,-14" fill="none" stroke="#000000" stroke-width="2" /><path d="M4.5,60 c4.545,-7.756 7,-17.835 7,-33.069 V8.0 h38.5 v12.0 h-37.5" fill="none" stroke="#000000" stroke-width="2" /><path d="M85.5,6 v46.0 c0,5.924 -0.561,6.5 -5.5,6.5 c-2.537,0 -8.003,-0.206 -13,-0.5" fill="none" stroke="#000000" stroke-width="2" /><path d="M74,44.5 c-3.75,-6.009 -9.365,-13.185 -15,-19" fill="none" stroke="#000000" stroke-width="2" /><path d="M35,38 V56.0 c0,2.987 -0.553,3.5 -4.5,3.5 c-1.891,0 -5.094,-0.172 -9,-0.5" fill="none" stroke="#000000" stroke-width="2" /><path d="M13,59 c4.57,-4.408 8.255,-10.016 10.5,-16" fill="none" stroke="#000000" stroke-width="2" /><path d="M55,59 c-2.813,-5.286 -6.455,-10.918 -10.5,-16" fill="none" stroke="#000000" stroke-width="2" /></svg>