<?xml version='1.0' encoding='utf-8'?>
<svg xmlns="http://www.w3.org/2000/svg" height="100px" version="1.0" viewBox="0 0 100 100" width="100px" x="0px" y="0px">
<line fill="none" stroke="#000000" stroke-width="2" x1="15.5" x2="15.5" y1="94" y2="6" /><line fill="none" stroke="#000000" stroke-width="2" x1="32.5" x2="87.5" y1="52" y2="52" /><line fill="none" stroke="#000000" stroke-width="2" x1="24" x2="95.5" y1="32" y2="32" /><line fill="none" stroke="#000000" stroke-width="2" x1="27" x2="93" y1="14.5" y2="14.5" /><line fill="none" stroke="#000000" stroke-width="2" x1="59.5" x2="59.5" y1="14.5" y2="3.5" /><polyline fill="none" points="32.5,66 88.5,66 88.5,39 31.5,39 31.5,67" stroke="#000000" stroke-width="2" /><path d="M3,58 c2.624,-10.247 4.357,-21.376 5,-32" fill="none" stroke="#000000" stroke-width="2" /><path d="M26,47.5 c-0.573,-6.952 -1.604,-14.611 -3,-22" fill="none" stroke="#000000" stroke-width="2" /><path d="M42,72 v9.5 c0,10.258 0.345,10.5 17,10.5 c20.362,0 20.847,-0.383 22,-14" fill="none" stroke="#000000" stroke-width="2" /><path d="M21.5,90.5 c5.058,-5.263 9.24,-11.75 12,-18.5" fill="none" stroke="#000000" stroke-width="2" /><path d="M97,90.5 c-3.486,-6.149 -7.973,-12.565 -13,-18.5" fill="none" stroke="#000000" stroke-width="2" /><path d="M69.5,83 c-5.09,-4.073 -11.27,-8.354 -17.5,-12" fill="none" stroke="#000000" stroke-width="2" /><path d="M68,32 c4.389,-4.94 7.971,-10.904 10.5,-17.5" fill="none" stroke="#000000" stroke-width="2" /><path d="M49,32 c-3.078,-5.871 -6.536,-11.707 -10.5,-17.5" fill="none" stroke="#000000" stroke-width="2" /></svg>