<?xml version='1.0' encoding='utf-8'?>
<svg xmlns="http://www.w3.org/2000/svg" height="100px" version="1.0" viewBox="0 0 100 100" width="100px" x="0px" y="0px">
<line fill="none" stroke="#000000" stroke-width="2" x1="61.5" x2="61.5" y1="18.5" y2="4" /><line fill="none" stroke="#000000" stroke-width="2" x1="31" x2="95.5" y1="18.5" y2="18.5" /><line fill="none" stroke="#000000" stroke-width="2" x1="35" x2="4" y1="28" y2="28" /><path d="M20,6 v77.0 c0,7.683 -0.373,8 -5,8 c-2.246,0 -5.661,-0.149 -10,-0.5" fill="none" stroke="#000000" stroke-width="2" /><path d="M35,52 c-10.727,5.009 -20.715,8.534 -31,11" fill="none" stroke="#000000" stroke-width="2" /><path d="M26.5,91.5 c13.998,-7.062 19.5,-16.919 19.5,-44.5 v-13.5 h32.0 v49.5 c0,6.714 0.432,7 7.5,7 c8.722,0 9.688,-1.04 10,-24" fill="none" stroke="#000000" stroke-width="2" /></svg>