<?xml version='1.0' encoding='utf-8'?>
<svg xmlns="http://www.w3.org/2000/svg" height="100px" version="1.0" viewBox="0 0 100 100" width="100px" x="0px" y="0px">
<line fill="none" stroke="#000000" stroke-width="2" x1="30.5" x2="4.5" y1="26" y2="26" /><line fill="none" stroke="#000000" stroke-width="2" x1="40.5" x2="86.5" y1="87" y2="87" /><polyline fill="none" points="87.5,94 87.5,53 39.5,53 39.5,94" stroke="#000000" stroke-width="2" /><path d="M19,6 v77.0 c0,7.683 -0.373,8 -5,8 c-2.246,0 -4.663,-0.119 -9,-0.5" fill="none" stroke="#000000" stroke-width="2" /><path d="M32,52 c-9.605,5.057 -18.479,8.562 -27.5,11" fill="none" stroke="#000000" stroke-width="2" /><path d="M96.5,47.5 c-5.111,-9.48 -12.551,-20.903 -19.5,-30" fill="none" stroke="#000000" stroke-width="2" /><path d="M30.5,41 c17.403,-0.586 39.121,-2.442 59,-5" fill="none" stroke="#000000" stroke-width="2" /><path d="M39.5,40.5 c5.5,-10.206 11.127,-22.664 16,-35.5" fill="none" stroke="#000000" stroke-width="2" /></svg>