<?xml version='1.0' encoding='utf-8'?>
<svg xmlns="http://www.w3.org/2000/svg" height="100px" version="1.0" viewBox="0 0 100 100" width="100px" x="0px" y="0px">
<line fill="none" stroke="#000000" stroke-width="2" x1="31.5" x2="80" y1="88" y2="88" /><line fill="none" stroke="#000000" stroke-width="2" x1="39" x2="91" y1="39" y2="39" /><line fill="none" stroke="#000000" stroke-width="2" x1="38" x2="38" y1="75.5" y2="13.5" /><line fill="none" stroke="#000000" stroke-width="2" x1="33" x2="5" y1="26" y2="26" /><path d="M37,14.5 c17.383,0 34.607,-2.276 50,-6.5" fill="none" stroke="#000000" stroke-width="2" /><path d="M27.5,78 c13.508,-2.812 25.036,-6.347 39,-12" fill="none" stroke="#000000" stroke-width="2" /><path d="M66,12.5 c0,43.784 15.112,73.5 24,73.5 c2.338,0 4.453,-3.888 6,-20.5" fill="none" stroke="#000000" stroke-width="2" /><path d="M20,6 v77.0 c0,7.683 -0.373,8 -5,8 c-2.246,0 -4.663,-0.119 -9,-0.5" fill="none" stroke="#000000" stroke-width="2" /><path d="M33,49 c-9.689,5.009 -18.711,8.534 -28,11" fill="none" stroke="#000000" stroke-width="2" /></svg>