<?xml version='1.0' encoding='utf-8'?>
<svg xmlns="http://www.w3.org/2000/svg" height="100px" version="1.0" viewBox="0 0 100 100" width="100px" x="0px" y="0px">
<line fill="none" stroke="#000000" stroke-width="2" x1="97" x2="47" y1="22" y2="22" /><line fill="none" stroke="#000000" stroke-width="2" x1="39.5" x2="39.5" y1="94" y2="32.8" /><line fill="none" stroke="#000000" stroke-width="2" x1="31" x2="4" y1="26" y2="26" /><path d="M88.5,6 v75.5 c0,9.415 -0.512,10 -6,10 c-2.757,0 -8.564,-0.194 -14,-0.5" fill="none" stroke="#000000" stroke-width="2" /><path d="M71,67 c-4.262,-9.086 -10.27,-19.665 -16,-28" fill="none" stroke="#000000" stroke-width="2" /><path d="M46.5,6 c-3.613,19.812 -9.962,37.308 -18,51" fill="none" stroke="#000000" stroke-width="2" /><path d="M18,6 v78.0 c0,7.575 -0.404,8 -4.5,8 c-1.832,0 -4.633,-0.139 -8.5,-0.5" fill="none" stroke="#000000" stroke-width="2" /><path d="M31,47 c-9.343,5.009 -18.042,8.534 -27,11" fill="none" stroke="#000000" stroke-width="2" /></svg>