<?xml version='1.0' encoding='utf-8'?>
<svg xmlns="http://www.w3.org/2000/svg" height="100px" version="1.0" viewBox="0 0 100 100" width="100px" x="0px" y="0px">
<line fill="none" stroke="#000000" stroke-width="2" x1="31.5" x2="4.5" y1="26" y2="26" /><line fill="none" stroke="#000000" stroke-width="2" x1="36" x2="94.5" y1="44.5" y2="44.5" /><line fill="none" stroke="#000000" stroke-width="2" x1="51.5" x2="51.5" y1="88.5" y2="44.5" /><line fill="none" stroke="#000000" stroke-width="2" x1="43" x2="90" y1="27" y2="27" /><path d="M19.5,6 v77.0 c0,7.683 -0.373,8 -5,8 c-2.246,0 -4.663,-0.119 -9,-0.5" fill="none" stroke="#000000" stroke-width="2" /><path d="M31.5,52 c-9.432,5.057 -18.143,8.562 -27,11" fill="none" stroke="#000000" stroke-width="2" /><path d="M27,91 c6.048,-14.052 9,-29.832 9,-51 v-30.0 h57.0" fill="none" stroke="#000000" stroke-width="2" /><path d="M66,44.5 c4.633,21.823 15.27,38.782 29,48" fill="none" stroke="#000000" stroke-width="2" /><path d="M36,92 c13.096,-2.517 24.473,-5.799 38,-11" fill="none" stroke="#000000" stroke-width="2" /><path d="M75,69.5 c6.543,-4.79 12.848,-11.049 19,-19" fill="none" stroke="#000000" stroke-width="2" /></svg>