<?xml version='1.0' encoding='utf-8'?>
<svg xmlns="http://www.w3.org/2000/svg" height="100px" version="1.0" viewBox="0 0 100 100" width="100px" x="0px" y="0px">
<line fill="none" stroke="#000000" stroke-width="2" x1="37.5" x2="90" y1="55.5" y2="55.5" /><line fill="none" stroke="#000000" stroke-width="2" x1="64" x2="64" y1="94" y2="12" /><line fill="none" stroke="#000000" stroke-width="2" x1="33" x2="95" y1="26.5" y2="26.5" /><line fill="none" stroke="#000000" stroke-width="2" x1="30" x2="4" y1="26.5" y2="26.5" /><polyline fill="none" points="37.5,72.5 91,72.5 91,38.5 36.5,38.5 36.5,73.5" stroke="#000000" stroke-width="2" /><path d="M35.5,14 c22.773,-0.794 40.792,-2.943 54,-6" fill="none" stroke="#000000" stroke-width="2" /><path d="M18,6 v78.0 c0,7.575 -0.404,8 -4.5,8 c-1.832,0 -4.633,-0.139 -8.5,-0.5" fill="none" stroke="#000000" stroke-width="2" /><path d="M31,51.5 c-9.343,5.009 -18.042,8.534 -27,11" fill="none" stroke="#000000" stroke-width="2" /></svg>