<?xml version='1.0' encoding='utf-8'?>
<svg xmlns="http://www.w3.org/2000/svg" height="100px" version="1.0" viewBox="0 0 100 100" width="100px" x="0px" y="0px">
<line fill="none" stroke="#000000" stroke-width="2" x1="33.5" x2="4.5" y1="26" y2="26" /><line fill="none" stroke="#000000" stroke-width="2" x1="65" x2="92.5" y1="58" y2="58" /><line fill="none" stroke="#000000" stroke-width="2" x1="64" x2="64" y1="87" y2="39" /><polyline fill="none" points="39.5,38 88.5,38 88.5,10.5 38.5,10.5 38.5,39" stroke="#000000" stroke-width="2" /><path d="M19.5,6 v77.0 c0,7.683 -0.373,8 -5,8 c-2.246,0 -4.663,-0.119 -9,-0.5" fill="none" stroke="#000000" stroke-width="2" /><path d="M33.5,49 c-10.035,5.009 -19.379,8.534 -29,11" fill="none" stroke="#000000" stroke-width="2" /><path d="M26,92 c7.329,-11.881 13.15,-27.394 16,-44" fill="none" stroke="#000000" stroke-width="2" /><path d="M96,90 h-6.0 c-29.852,0 -42.447,-6.911 -51.5,-27" fill="none" stroke="#000000" stroke-width="2" /></svg>