<?xml version='1.0' encoding='utf-8'?>
<svg xmlns="http://www.w3.org/2000/svg" height="100px" version="1.0" viewBox="0 0 100 100" width="100px" x="0px" y="0px">
<line fill="none" stroke="#000000" stroke-width="2" x1="31" x2="4" y1="26" y2="26" /><line fill="none" stroke="#000000" stroke-width="2" x1="40" x2="40" y1="87" y2="55" /><line fill="none" stroke="#000000" stroke-width="2" x1="30.5" x2="95.5" y1="46" y2="46" /><line fill="none" stroke="#000000" stroke-width="2" x1="33.5" x2="93" y1="15" y2="15" /><polyline fill="none" points="41,56 71.5,56 71.5,79 41,79" stroke="#000000" stroke-width="2" /><path d="M18,6 v78.0 c0,7.575 -0.404,8 -4.5,8 c-1.832,0 -4.633,-0.139 -8.5,-0.5" fill="none" stroke="#000000" stroke-width="2" /><path d="M31,51 c-9.343,5.009 -18.042,8.534 -27,11" fill="none" stroke="#000000" stroke-width="2" /><path d="M93.5,42 c-9.64,-6.854 -23.159,-14.769 -34.5,-20" fill="none" stroke="#000000" stroke-width="2" /><path d="M86,46 v37.0 c0,7.252 -0.739,8 -7,8 c-2.186,0 -6.017,-0.166 -12.5,-0.5" fill="none" stroke="#000000" stroke-width="2" /><path d="M31,41 c20.475,-4.521 32,-17.371 32,-37" fill="none" stroke="#000000" stroke-width="2" /></svg>