<?xml version='1.0' encoding='utf-8'?>
<svg xmlns="http://www.w3.org/2000/svg" height="100px" version="1.0" viewBox="0 0 100 100" width="100px" x="0px" y="0px">
<line fill="none" stroke="#000000" stroke-width="2" x1="31.5" x2="4.5" y1="26" y2="26" /><line fill="none" stroke="#000000" stroke-width="2" x1="42.5" x2="42.5" y1="64.5" y2="93.5" /><line fill="none" stroke="#000000" stroke-width="2" x1="67" x2="67" y1="27.5" y2="86.5" /><line fill="none" stroke="#000000" stroke-width="2" x1="42.5" x2="91.5" y1="86.5" y2="86.5" /><line fill="none" stroke="#000000" stroke-width="2" x1="91.5" x2="91.5" y1="93.5" y2="64.5" /><polyline fill="none" points="44.5,36.5 44.5,58 89.5,58 89.5,36.5" stroke="#000000" stroke-width="2" /><path d="M19.5,6 v77.0 c0,7.683 -0.373,8 -5,8 c-2.246,0 -4.663,-0.119 -9,-0.5" fill="none" stroke="#000000" stroke-width="2" /><path d="M31.5,52 c-9.432,5.057 -18.143,8.562 -27,11" fill="none" stroke="#000000" stroke-width="2" /><path d="M27,91 c6.048,-14.052 9,-29.832 9,-51 v-30.0 h55.5 v17.5 H37.0" fill="none" stroke="#000000" stroke-width="2" /></svg>