<?xml version='1.0' encoding='utf-8'?>
<svg xmlns="http://www.w3.org/2000/svg" height="100px" version="1.0" viewBox="0 0 100 100" width="100px" x="0px" y="0px">
<line fill="none" stroke="#000000" stroke-width="2" x1="71" x2="30" y1="61.5" y2="61.5" /><line fill="none" stroke="#000000" stroke-width="2" x1="50.5" x2="50.5" y1="85.5" y2="47" /><line fill="none" stroke="#000000" stroke-width="2" x1="74.5" x2="26.5" y1="43" y2="43" /><line fill="none" stroke="#000000" stroke-width="2" x1="70" x2="31" y1="20" y2="20" /><line fill="none" stroke="#000000" stroke-width="2" x1="50.5" x2="50.5" y1="43" y2="5.5" /><line fill="none" stroke="#000000" stroke-width="2" x1="27.5" x2="3.5" y1="26" y2="26" /><line fill="none" stroke="#000000" stroke-width="2" x1="81.5" x2="81.5" y1="94" y2="6" /><path d="M74.5,82 c-12.564,2.297 -29.001,4.364 -50,6" fill="none" stroke="#000000" stroke-width="2" /><path d="M16.5,6 v78.0 c0,7.575 -0.404,8 -4.5,8 c-1.832,0 -4.133,-0.132 -8,-0.5" fill="none" stroke="#000000" stroke-width="2" /><path d="M27.5,51 c-8.305,5.009 -16.037,8.534 -24,11" fill="none" stroke="#000000" stroke-width="2" /><path d="M98.5,60 c-5.713,-8.229 -11.77,-15.332 -17,-20" fill="none" stroke="#000000" stroke-width="2" /></svg>