<?xml version='1.0' encoding='utf-8'?>
<svg xmlns="http://www.w3.org/2000/svg" height="100px" version="1.0" viewBox="0 0 100 100" width="100px" x="0px" y="0px">
<line fill="none" stroke="#000000" stroke-width="2" x1="35" x2="85" y1="56.5" y2="56.5" /><line fill="none" stroke="#000000" stroke-width="2" x1="85" x2="35" y1="75" y2="75" /><line fill="none" stroke="#000000" stroke-width="2" x1="93.5" x2="26.5" y1="14.5" y2="14.5" /><line fill="none" stroke="#000000" stroke-width="2" x1="30.5" x2="3.5" y1="26" y2="26" /><polyline fill="none" points="34,83 34,38.5 86,38.5 86,76" stroke="#000000" stroke-width="2" /><path d="M95.5,72 c-1.055,19.269 -1.313,19.5 -20,19.5 c-15.093,0 -15.5,-0.302 -15.5,-9 v-58.0" fill="none" stroke="#000000" stroke-width="2" /><path d="M96,43.5 c-13.022,-5.89 -24.474,-16.615 -31,-29" fill="none" stroke="#000000" stroke-width="2" /><path d="M24,44 c17.834,-9.754 30.676,-24.774 35,-40.5" fill="none" stroke="#000000" stroke-width="2" /><path d="M17.5,6 v78.0 c0,7.575 -0.404,8 -4.5,8 c-1.832,0 -4.633,-0.139 -8.5,-0.5" fill="none" stroke="#000000" stroke-width="2" /><path d="M30.5,53 c-9.343,5.009 -18.042,8.534 -27,11" fill="none" stroke="#000000" stroke-width="2" /></svg>