<?xml version='1.0' encoding='utf-8'?>
<svg xmlns="http://www.w3.org/2000/svg" height="100px" version="1.0" viewBox="0 0 100 100" width="100px" x="0px" y="0px">
<line fill="none" stroke="#000000" stroke-width="2" x1="38" x2="88.5" y1="23.5" y2="23.5" /><line fill="none" stroke="#000000" stroke-width="2" x1="32" x2="4" y1="26" y2="26" /><polyline fill="none" points="38,38.5 89.5,38.5 89.5,9.5 37,9.5 37,39.5" stroke="#000000" stroke-width="2" /><path d="M42,51.5 h51.0 c0,31.825 -4.266,39.5 -11,39.5 c-3.279,0 -8.379,-0.161 -14,-0.5" fill="none" stroke="#000000" stroke-width="2" /><path d="M30,61.5 c8.532,-5.501 18.023,-15.556 22,-23" fill="none" stroke="#000000" stroke-width="2" /><path d="M42.5,56 v19.25 c0,6.035 1.058,6.75 18,6.75 c17.95,0 18.236,-0.255 19,-13" fill="none" stroke="#000000" stroke-width="2" /><path d="M42.5,68.5 c11.789,-1.884 23.171,-5.149 35,-10" fill="none" stroke="#000000" stroke-width="2" /><path d="M18.5,6 v77.0 c0,7.683 -0.373,8 -5,8 c-2.246,0 -4.663,-0.119 -9,-0.5" fill="none" stroke="#000000" stroke-width="2" /><path d="M33,52 c-10.13,5.057 -19.486,8.562 -29,11" fill="none" stroke="#000000" stroke-width="2" /></svg>