<?xml version='1.0' encoding='utf-8'?>
<svg xmlns="http://www.w3.org/2000/svg" height="100px" version="1.0" viewBox="0 0 100 100" width="100px" x="0px" y="0px">
<line fill="none" stroke="#000000" stroke-width="2" x1="38" x2="90" y1="61.5" y2="61.5" /><line fill="none" stroke="#000000" stroke-width="2" x1="64" x2="64" y1="86" y2="38" /><line fill="none" stroke="#000000" stroke-width="2" x1="33" x2="95" y1="17.5" y2="17.5" /><line fill="none" stroke="#000000" stroke-width="2" x1="49.5" x2="49.5" y1="31" y2="4" /><line fill="none" stroke="#000000" stroke-width="2" x1="78.5" x2="78.5" y1="31" y2="4" /><line fill="none" stroke="#000000" stroke-width="2" x1="38" x2="90" y1="87" y2="87" /><line fill="none" stroke="#000000" stroke-width="2" x1="37" x2="6" y1="26" y2="26" /><polyline fill="none" points="91,94 91,37 37,37 37,94" stroke="#000000" stroke-width="2" /><path d="M22,6 v77.0 c0,7.683 -0.373,8 -5,8 c-2.246,0 -5.661,-0.149 -10,-0.5" fill="none" stroke="#000000" stroke-width="2" /><path d="M37,50 c-10.727,5.009 -20.715,8.534 -31,11" fill="none" stroke="#000000" stroke-width="2" /></svg>