<?xml version='1.0' encoding='utf-8'?>
<svg xmlns="http://www.w3.org/2000/svg" height="100px" version="1.0" viewBox="0 0 100 100" width="100px" x="0px" y="0px">
<line fill="none" stroke="#000000" stroke-width="2" x1="31.5" x2="4.5" y1="26" y2="26" /><line fill="none" stroke="#000000" stroke-width="2" x1="36" x2="94" y1="37.5" y2="37.5" /><line fill="none" stroke="#000000" stroke-width="2" x1="34.5" x2="95.5" y1="90" y2="90" /><line fill="none" stroke="#000000" stroke-width="2" x1="90.5" x2="39.5" y1="72" y2="72" /><line fill="none" stroke="#000000" stroke-width="2" x1="65.5" x2="65.5" y1="90" y2="61" /><path d="M19.5,6 v77.0 c0,7.683 -0.373,8 -5,8 c-2.246,0 -4.663,-0.119 -9,-0.5" fill="none" stroke="#000000" stroke-width="2" /><path d="M31.5,52 c-9.432,5.057 -18.143,8.562 -27,11" fill="none" stroke="#000000" stroke-width="2" /><path d="M27,91 c6.048,-14.052 9,-29.832 9,-51 v-30.0 h55.0 v15.5 h-54.0" fill="none" stroke="#000000" stroke-width="2" /><path d="M93,62.5 c-4.645,-6.009 -11.131,-13.827 -16.5,-20" fill="none" stroke="#000000" stroke-width="2" /><path d="M39.5,58.5 c14.157,-0.491 30.442,-2.039 46.5,-4.5" fill="none" stroke="#000000" stroke-width="2" /><path d="M48,58 c2.984,-5.938 6.174,-13.129 9,-20.5" fill="none" stroke="#000000" stroke-width="2" /></svg>