<?xml version='1.0' encoding='utf-8'?>
<svg xmlns="http://www.w3.org/2000/svg" height="100px" version="1.0" viewBox="0 0 100 100" width="100px" x="0px" y="0px">
<line fill="none" stroke="#000000" stroke-width="2" x1="25" x2="3" y1="26" y2="26" /><line fill="none" stroke="#000000" stroke-width="2" x1="24.5" x2="59" y1="51" y2="47" /><line fill="none" stroke="#000000" stroke-width="2" x1="41.5" x2="41.5" y1="49" y2="81" /><line fill="none" stroke="#000000" stroke-width="2" x1="61" x2="93.5" y1="48" y2="48" /><path d="M15,6 v78.0 c0,7.672 -0.32,8 -3.5,8 c-1.691,0 -4.43,-0.151 -8,-0.5" fill="none" stroke="#000000" stroke-width="2" /><path d="M25,47 c-7.959,5.009 -14.46,8.271 -22,11" fill="none" stroke="#000000" stroke-width="2" /><path d="M42,4 c-0.602,4.216 -1.244,7.964 -2,11.5" fill="none" stroke="#000000" stroke-width="2" /><path d="M46,40.5 c-2.752,-6.144 -5.813,-12.252 -8.5,-17" fill="none" stroke="#000000" stroke-width="2" /><path d="M57.5,42.5 c6.816,-5.272 9,-11.468 9,-26 v-6.5 H85.0 v26.5 c0,2.646 0.41,3 3.5,3 c7.382,0 7.606,-0.178 8.5,-13.5" fill="none" stroke="#000000" stroke-width="2" /><path d="M57,91 c18.346,-8.799 28.67,-20.915 35.548,-42.307" fill="none" stroke="#000000" stroke-width="2" /><path d="M96.5,91 c-14.635,-9.528 -26.018,-22.547 -33,-37.5" fill="none" stroke="#000000" stroke-width="2" /><path d="M22.5,92.5 c5.156,-10.463 7.5,-22.791 7.5,-46.5 v-30.5 h24.5 v67.5 c0,7.636 -0.389,8 -3.5,8 c-1.575,0 -4.834,-0.146 -9.5,-0.5" fill="none" stroke="#000000" stroke-width="2" /></svg>