<?xml version='1.0' encoding='utf-8'?>
<svg xmlns="http://www.w3.org/2000/svg" height="100px" version="1.0" viewBox="0 0 100 100" width="100px" x="0px" y="0px">
<line fill="none" stroke="#000000" stroke-width="2" x1="26.5" x2="95.5" y1="68.5" y2="68.5" /><line fill="none" stroke="#000000" stroke-width="2" x1="27.5" x2="94" y1="15.5" y2="15.5" /><line fill="none" stroke="#000000" stroke-width="2" x1="47.5" x2="47.5" y1="25.5" y2="4.5" /><line fill="none" stroke="#000000" stroke-width="2" x1="75.5" x2="75.5" y1="25.5" y2="4.5" /><line fill="none" stroke="#000000" stroke-width="2" x1="36.5" x2="87.5" y1="41.5" y2="41.5" /><line fill="none" stroke="#000000" stroke-width="2" x1="29" x2="4" y1="25" y2="25" /><polyline fill="none" points="36.5,57.5 88.5,57.5 88.5,26.5 35.5,26.5 35.5,58.5" stroke="#000000" stroke-width="2" /><path d="M25.5,92.5 c21.766,-3.76 36,-15.209 36,-25 v-9.0" fill="none" stroke="#000000" stroke-width="2" /><path d="M94.5,92.5 c-19.456,-3.564 -33,-15.256 -33,-25" fill="none" stroke="#000000" stroke-width="2" /><path d="M18,6 v78.0 c0,7.575 -0.404,8 -4.5,8 c-1.832,0 -4.633,-0.139 -8.5,-0.5" fill="none" stroke="#000000" stroke-width="2" /><path d="M30,53 c-8.998,5.009 -17.373,8.534 -26,11" fill="none" stroke="#000000" stroke-width="2" /></svg>