<?xml version='1.0' encoding='utf-8'?>
<svg xmlns="http://www.w3.org/2000/svg" height="100px" version="1.0" viewBox="0 0 100 100" width="100px" x="0px" y="0px">
<line fill="none" stroke="#000000" stroke-width="2" x1="93" x2="29" y1="64" y2="64" /><line fill="none" stroke="#000000" stroke-width="2" x1="77" x2="45" y1="50" y2="50" /><line fill="none" stroke="#000000" stroke-width="2" x1="61" x2="61" y1="13" y2="3.5" /><line fill="none" stroke="#000000" stroke-width="2" x1="60" x2="39.5" y1="23.5" y2="23.5" /><line fill="none" stroke="#000000" stroke-width="2" x1="90" x2="67.5" y1="23.5" y2="23.5" /><line fill="none" stroke="#000000" stroke-width="2" x1="25" x2="3" y1="26" y2="26" /><polyline fill="none" points="93.5,28 93.5,13 29,13 29,28" stroke="#000000" stroke-width="2" /><path d="M61,64 v23.2 c0,4.219 -0.574,4.8 -5.975,4.8 c-2.432,0 -6.051,-0.153 -11.098,-0.5" fill="none" stroke="#000000" stroke-width="2" /><path d="M26,36.5 c8.84,-6.302 14.756,-13.146 18.5,-21" fill="none" stroke="#000000" stroke-width="2" /><path d="M97.5,60 c-18.704,-9.963 -31.99,-26.123 -36.5,-42.5" fill="none" stroke="#000000" stroke-width="2" /><path d="M24,90.5 c9.467,-5.47 17.363,-12.825 22,-20" fill="none" stroke="#000000" stroke-width="2" /><path d="M96,91 c-6.254,-7.031 -14.176,-14.437 -22,-20.5" fill="none" stroke="#000000" stroke-width="2" /><path d="M24.5,60 c16.896,-8.819 29.537,-22.36 34.563,-35.849" fill="none" stroke="#000000" stroke-width="2" /><path d="M76.5,44 c5.68,-6.477 9.83,-13.141 12.574,-19.878" fill="none" stroke="#000000" stroke-width="2" /><path d="M51,38.5 c-3.269,-3.128 -7.016,-6.51 -10.5,-9.5" fill="none" stroke="#000000" stroke-width="2" /><path d="M42,48 c-3.269,-3.127 -7.016,-6.512 -10.5,-9.5" fill="none" stroke="#000000" stroke-width="2" /><path d="M15,6 v78.0 c0,7.672 -0.32,8 -3.5,8 c-1.691,0 -4.43,-0.151 -8,-0.5" fill="none" stroke="#000000" stroke-width="2" /><path d="M25,49 c-7.959,5.009 -14.46,8.271 -22,11" fill="none" stroke="#000000" stroke-width="2" /></svg>