<?xml version='1.0' encoding='utf-8'?>
<svg xmlns="http://www.w3.org/2000/svg" height="100px" version="1.0" viewBox="0 0 100 100" width="100px" x="0px" y="0px">
<line fill="none" stroke="#000000" stroke-width="2" x1="75.5" x2="26.5" y1="60" y2="60" /><line fill="none" stroke="#000000" stroke-width="2" x1="72.5" x2="29.5" y1="46" y2="46" /><line fill="none" stroke="#000000" stroke-width="2" x1="50" x2="50" y1="13" y2="2.5" /><line fill="none" stroke="#000000" stroke-width="2" x1="91" x2="9" y1="13" y2="13" /><line fill="none" stroke="#000000" stroke-width="2" x1="79.5" x2="79.5" y1="41.5" y2="93" /><path d="M50.5,60 v27.0 c0,4.521 -0.477,5 -5,5 c-2.101,0 -5.65,-0.169 -10,-0.5" fill="none" stroke="#000000" stroke-width="2" /><path d="M26.5,89 c4.57,-6.198 8.297,-14.063 10.5,-22.5" fill="none" stroke="#000000" stroke-width="2" /><path d="M71.5,90 c-2.813,-7.763 -6.473,-16.017 -10.5,-23.5" fill="none" stroke="#000000" stroke-width="2" /><path d="M77.5,13 c-12.793,14.337 -34.518,24.998 -72,32" fill="none" stroke="#000000" stroke-width="2" /><path d="M22.5,16 c19.063,14.61 41.32,23.806 72,29" fill="none" stroke="#000000" stroke-width="2" /><path d="M9.5,93 c8.207,-6.287 13,-16.95 13,-33 v-19.0" fill="none" stroke="#000000" stroke-width="2" /></svg>