<?xml version='1.0' encoding='utf-8'?>
<svg xmlns="http://www.w3.org/2000/svg" height="100px" version="1.0" viewBox="0 0 100 100" width="100px" x="0px" y="0px">
<line fill="none" stroke="#000000" stroke-width="2" x1="22" x2="78" y1="88" y2="88" /><line fill="none" stroke="#000000" stroke-width="2" x1="22" x2="78" y1="71.5" y2="71.5" /><line fill="none" stroke="#000000" stroke-width="2" x1="41" x2="41" y1="44" y2="16" /><line fill="none" stroke="#000000" stroke-width="2" x1="59" x2="59" y1="44" y2="16" /><line fill="none" stroke="#000000" stroke-width="2" x1="6" x2="94" y1="45" y2="45" /><line fill="none" stroke="#000000" stroke-width="2" x1="9" x2="91" y1="15" y2="15" /><polyline fill="none" points="79,94 79,55 21,55 21,94" stroke="#000000" stroke-width="2" /><path d="M38,15 c-3.202,-4.083 -6.659,-8.091 -10,-11.5" fill="none" stroke="#000000" stroke-width="2" /><path d="M62,15 c3.777,-3.789 7.357,-7.926 10,-11.5" fill="none" stroke="#000000" stroke-width="2" /><path d="M70,40 c5.104,-5.593 9.261,-12.452 12,-20" fill="none" stroke="#000000" stroke-width="2" /><path d="M29,40 c-3.384,-6.751 -7.391,-13.442 -12,-20" fill="none" stroke="#000000" stroke-width="2" /></svg>