<?xml version='1.0' encoding='utf-8'?>
<svg xmlns="http://www.w3.org/2000/svg" height="100px" version="1.0" viewBox="0 0 100 100" width="100px" x="0px" y="0px">
<line fill="none" stroke="#000000" stroke-width="2" x1="60.5" x2="92" y1="48" y2="48" /><line fill="none" stroke="#000000" stroke-width="2" x1="10" x2="28.5" y1="45" y2="45" /><line fill="none" stroke="#000000" stroke-width="2" x1="38.5" x2="38.5" y1="9.5" y2="94" /><line fill="none" stroke="#000000" stroke-width="2" x1="38.5" x2="61" y1="54" y2="54" /><line fill="none" stroke="#000000" stroke-width="2" x1="38.5" x2="61" y1="73.5" y2="73.5" /><polyline fill="none" points="10,83 29.5,83 29.5,12 9,12 9,91" stroke="#000000" stroke-width="2" /><polyline fill="none" points="39.5,36.5 63,36.5 63,10.5 39.5,10.5" stroke="#000000" stroke-width="2" /><polyline fill="none" points="69.5,36.5 91,36.5 91,10.5 69.5,10.5" stroke="#000000" stroke-width="2" /><path d="M56,91 c17.964,-9.493 28.414,-21.844 35.049,-42.309" fill="none" stroke="#000000" stroke-width="2" /><path d="M95.5,91 c-12.203,-8.099 -23.351,-21.82 -30,-37.5" fill="none" stroke="#000000" stroke-width="2" /></svg>