<?xml version='1.0' encoding='utf-8'?>
<svg xmlns="http://www.w3.org/2000/svg" height="100px" version="1.0" viewBox="0 0 100 100" width="100px" x="0px" y="0px">
<line fill="none" stroke="#000000" stroke-width="2" x1="72" x2="72" y1="53" y2="13.5" /><line fill="none" stroke="#000000" stroke-width="2" x1="91.5" x2="54" y1="22" y2="22" /><line fill="none" stroke="#000000" stroke-width="2" x1="34" x2="34" y1="53" y2="13.5" /><line fill="none" stroke="#000000" stroke-width="2" x1="50" x2="18" y1="22" y2="22" /><line fill="none" stroke="#000000" stroke-width="2" x1="24.5" x2="84.5" y1="87.5" y2="87.5" /><line fill="none" stroke="#000000" stroke-width="2" x1="24.5" x2="84.5" y1="71.5" y2="71.5" /><polyline fill="none" points="85.5,93.5 85.5,56.5 23.5,56.5 23.5,93.5" stroke="#000000" stroke-width="2" /><path d="M48,49 c11.201,-8.718 18.537,-17.344 23.5,-27" fill="none" stroke="#000000" stroke-width="2" /><path d="M93.5,47 c-9.974,-8.108 -16.814,-16.25 -21,-25" fill="none" stroke="#000000" stroke-width="2" /><path d="M16.5,45.5 c8.156,-7.644 13.568,-15.191 17,-23.5" fill="none" stroke="#000000" stroke-width="2" /><path d="M48.5,39.5 c-4.333,-5.452 -9.449,-11.479 -14.5,-17" fill="none" stroke="#000000" stroke-width="2" /><path d="M4.5,90.5 c5.376,-14.052 8,-29.832 8,-51 v-29.0 h81.0" fill="none" stroke="#000000" stroke-width="2" /></svg>