<?xml version='1.0' encoding='utf-8'?>
<svg xmlns="http://www.w3.org/2000/svg" height="100px" version="1.0" viewBox="0 0 100 100" width="100px" x="0px" y="0px">
<line fill="none" stroke="#000000" stroke-width="2" x1="17" x2="83" y1="16.5" y2="16.5" /><line fill="none" stroke="#000000" stroke-width="2" x1="50" x2="50" y1="60.5" y2="32.5" /><line fill="none" stroke="#000000" stroke-width="2" x1="12.5" x2="87.5" y1="32.5" y2="32.5" /><line fill="none" stroke="#000000" stroke-width="2" x1="18.5" x2="42" y1="48.5" y2="48.5" /><line fill="none" stroke="#000000" stroke-width="2" x1="18.5" x2="42" y1="57" y2="57" /><line fill="none" stroke="#000000" stroke-width="2" x1="58" x2="81.5" y1="48.5" y2="48.5" /><line fill="none" stroke="#000000" stroke-width="2" x1="58" x2="81.5" y1="57" y2="57" /><line fill="none" stroke="#000000" stroke-width="2" x1="92.5" x2="7.5" y1="74.5" y2="74.5" /><line fill="none" stroke="#000000" stroke-width="2" x1="85.5" x2="14.5" y1="65.5" y2="65.5" /><polyline fill="none" points="17,24.5 84,24.5 84,8.5 16,8.5 16,25.5" stroke="#000000" stroke-width="2" /><polyline fill="none" points="89.5,55.298 89.5,40.5 10.5,40.5 10.5,55.298" stroke="#000000" stroke-width="2" /><path d="M89,95 c-5.229,-5.273 -12.984,-12.101 -20,-17.5" fill="none" stroke="#000000" stroke-width="2" /><path d="M25,92 c6.35,-4.994 12.645,-11.125 18,-17.5" fill="none" stroke="#000000" stroke-width="2" /><path d="M11,92 c21.783,-0.321 47.295,-1.35 72,-3" fill="none" stroke="#000000" stroke-width="2" /></svg>