<?xml version='1.0' encoding='utf-8'?>
<svg xmlns="http://www.w3.org/2000/svg" height="100px" version="1.0" viewBox="0 0 100 100" width="100px" x="0px" y="0px">
<line fill="none" stroke="#000000" stroke-width="2" x1="20" x2="80" y1="88.5" y2="88.5" /><line fill="none" stroke="#000000" stroke-width="2" x1="50" x2="50" y1="48" y2="23" /><line fill="none" stroke="#000000" stroke-width="2" x1="20" x2="80" y1="73" y2="73" /><polyline fill="none" points="81,94.5 81,57.5 19,57.5 19,94.5" stroke="#000000" stroke-width="2" /><polyline fill="none" points="15,49 86,49 86,22 14,22 14,50" stroke="#000000" stroke-width="2" /><path d="M62,44.5 c5.104,-5.034 9.261,-11.207 12,-18" fill="none" stroke="#000000" stroke-width="2" /><path d="M37,44.5 c-3.384,-6.076 -7.391,-12.099 -12,-18" fill="none" stroke="#000000" stroke-width="2" /><path d="M31,8 c-6.572,6.983 -16.482,13.812 -28,19" fill="none" stroke="#000000" stroke-width="2" /><path d="M37,8 h32.0 c6.572,6.983 16.482,13.812 28,19" fill="none" stroke="#000000" stroke-width="2" /></svg>