<?xml version='1.0' encoding='utf-8'?>
<svg xmlns="http://www.w3.org/2000/svg" height="100px" version="1.0" viewBox="0 0 100 100" width="100px" x="0px" y="0px">
<line fill="none" stroke="#000000" stroke-width="2" x1="5.5" x2="48" y1="30.5" y2="30.5" /><line fill="none" stroke="#000000" stroke-width="2" x1="52" x2="94.5" y1="30.5" y2="30.5" /><line fill="none" stroke="#000000" stroke-width="2" x1="46.5" x2="8.5" y1="15.5" y2="15.5" /><line fill="none" stroke="#000000" stroke-width="2" x1="91.5" x2="53.5" y1="15.5" y2="15.5" /><line fill="none" stroke="#000000" stroke-width="2" x1="20" x2="80" y1="87" y2="87" /><line fill="none" stroke="#000000" stroke-width="2" x1="20" x2="80" y1="69.5" y2="69.5" /><polyline fill="none" points="81,93 81,52.5 19,52.5 19,93" stroke="#000000" stroke-width="2" /><path d="M5,55.5 c15.931,-9.349 24,-24.196 24,-50" fill="none" stroke="#000000" stroke-width="2" /><path d="M53,48 c13.719,-7.853 18,-15.504 18,-42.5" fill="none" stroke="#000000" stroke-width="2" /><path d="M45.5,48 c-5.904,-6.562 -12.709,-12.217 -20,-16.5" fill="none" stroke="#000000" stroke-width="2" /><path d="M95,55.5 c-11.664,-6.641 -20.389,-15.404 -25.5,-25" fill="none" stroke="#000000" stroke-width="2" /></svg>