<?xml version='1.0' encoding='utf-8'?>
<svg xmlns="http://www.w3.org/2000/svg" height="100px" version="1.0" viewBox="0 0 100 100" width="100px" x="0px" y="0px">
<line fill="none" stroke="#000000" stroke-width="2" x1="68.5" x2="68.5" y1="94" y2="47" /><line fill="none" stroke="#000000" stroke-width="2" x1="97" x2="36" y1="62" y2="62" /><line fill="none" stroke="#000000" stroke-width="2" x1="62.5" x2="62.5" y1="17.5" y2="6" /><line fill="none" stroke="#000000" stroke-width="2" x1="24" x2="24" y1="94" y2="6" /><line fill="none" stroke="#000000" stroke-width="2" x1="38" x2="5.5" y1="26" y2="26" /><path d="M39,51.5 c15.412,-7.615 23.5,-19.137 23.5,-32" fill="none" stroke="#000000" stroke-width="2" /><path d="M40.5,18.5 h41.0 V44.0 c0,3.559 0.639,4 6,4 c7.584,0 8,-0.486 8,-19.5" fill="none" stroke="#000000" stroke-width="2" /><path d="M35.5,55.5 c-3.58,-9.504 -7.508,-19.393 -11.5,-29" fill="none" stroke="#000000" stroke-width="2" /><path d="M3.5,73 c9.607,-15.363 16.011,-30.544 20,-47.5" fill="none" stroke="#000000" stroke-width="2" /></svg>