<?xml version='1.0' encoding='utf-8'?>
<svg xmlns="http://www.w3.org/2000/svg" height="100px" version="1.0" viewBox="0 0 100 100" width="100px" x="0px" y="0px">
<line fill="none" stroke="#000000" stroke-width="2" x1="97" x2="47.5" y1="22" y2="22" /><line fill="none" stroke="#000000" stroke-width="2" x1="40" x2="40" y1="94" y2="32.8" /><line fill="none" stroke="#000000" stroke-width="2" x1="18.5" x2="18.5" y1="94" y2="6" /><line fill="none" stroke="#000000" stroke-width="2" x1="31" x2="4.5" y1="26" y2="26" /><path d="M88.5,6 v75.5 c0,9.415 -0.512,10 -6,10 c-2.757,0 -8.564,-0.194 -14,-0.5" fill="none" stroke="#000000" stroke-width="2" /><path d="M71,67 c-4.262,-9.086 -10.27,-19.665 -16,-28" fill="none" stroke="#000000" stroke-width="2" /><path d="M47,6 c-3.613,19.812 -9.962,37.308 -18,51" fill="none" stroke="#000000" stroke-width="2" /><path d="M3.5,70 c6.99,-14.471 11.578,-28.562 14.5,-44.5" fill="none" stroke="#000000" stroke-width="2" /><path d="M30.5,62 c-3.664,-11.3 -7.621,-23.329 -11.5,-35" fill="none" stroke="#000000" stroke-width="2" /></svg>