<?xml version='1.0' encoding='utf-8'?>
<svg xmlns="http://www.w3.org/2000/svg" height="100px" version="1.0" viewBox="0 0 100 100" width="100px" x="0px" y="0px">
<line fill="none" stroke="#000000" stroke-width="2" x1="92" x2="9" y1="29" y2="29" /><line fill="none" stroke="#000000" stroke-width="2" x1="16.5" x2="84.5" y1="10" y2="10" /><line fill="none" stroke="#000000" stroke-width="2" x1="50" x2="50" y1="93.5" y2="51.5" /><line fill="none" stroke="#000000" stroke-width="2" x1="92" x2="8" y1="60.5" y2="60.5" /><path d="M7.5,51 c16.525,-5.356 31.693,-12.812 45.5,-22" fill="none" stroke="#000000" stroke-width="2" /><path d="M27,14.5 c9.036,3.989 18.518,8.916 28,14.5" fill="none" stroke="#000000" stroke-width="2" /><path d="M91.336,29.253 c-6.752,6.004 -14.69,11.168 -24.336,15.747" fill="none" stroke="#000000" stroke-width="2" /><path d="M6,89.5 c18.07,-6.784 33.259,-17.337 43,-29" fill="none" stroke="#000000" stroke-width="2" /><path d="M94,89.5 c-18.07,-6.784 -33.259,-17.337 -43,-29" fill="none" stroke="#000000" stroke-width="2" /><path d="M54,29 v17.25 c0,4.321 -1.017,5.25 -7,5.25 c-2.252,0 -7.943,-0.155 -15,-0.5" fill="none" stroke="#000000" stroke-width="2" /><path d="M84.002,10.133 c-10.578,6.077 -21.811,11.086 -35.002,15.367" fill="none" stroke="#000000" stroke-width="2" /></svg>