<?xml version='1.0' encoding='utf-8'?>
<svg xmlns="http://www.w3.org/2000/svg" height="100px" version="1.0" viewBox="0 0 100 100" width="100px" x="0px" y="0px">
<line fill="none" stroke="#000000" stroke-width="2" x1="33.5" x2="80.5" y1="88" y2="88" /><line fill="none" stroke="#000000" stroke-width="2" x1="40.5" x2="91.5" y1="39" y2="39" /><line fill="none" stroke="#000000" stroke-width="2" x1="39.5" x2="39.5" y1="75.5" y2="13.5" /><line fill="none" stroke="#000000" stroke-width="2" x1="19.5" x2="19.5" y1="94" y2="6" /><line fill="none" stroke="#000000" stroke-width="2" x1="34" x2="4.5" y1="26" y2="26" /><path d="M38.5,14.5 c16.861,0 34.063,-2.302 49,-6.5" fill="none" stroke="#000000" stroke-width="2" /><path d="M29.5,78 c13.162,-2.812 24.395,-6.347 38,-12" fill="none" stroke="#000000" stroke-width="2" /><path d="M67,12.5 c0,43.784 14.408,73.5 23,73.5 c2.26,0 4.505,-3.888 6,-20.5" fill="none" stroke="#000000" stroke-width="2" /><path d="M3.5,70 c7.473,-14.471 12.377,-28.562 15.5,-44.5" fill="none" stroke="#000000" stroke-width="2" /><path d="M34,59 c-4.46,-10.331 -9.277,-21.329 -14,-32" fill="none" stroke="#000000" stroke-width="2" /></svg>