<?xml version='1.0' encoding='utf-8'?>
<svg xmlns="http://www.w3.org/2000/svg" height="100px" version="1.0" viewBox="0 0 100 100" width="100px" x="0px" y="0px">
<line fill="none" stroke="#000000" stroke-width="2" x1="19" x2="19" y1="94" y2="6" /><line fill="none" stroke="#000000" stroke-width="2" x1="32.5" x2="4" y1="26" y2="26" /><line fill="none" stroke="#000000" stroke-width="2" x1="37.5" x2="37.5" y1="15" y2="70" /><path d="M3,70 c7.18,-14.333 11.977,-28.24 15,-44" fill="none" stroke="#000000" stroke-width="2" /><path d="M31.5,53 c-3.734,-8.549 -7.849,-17.435 -12,-26" fill="none" stroke="#000000" stroke-width="2" /><path d="M36.715,15.977 c9.013,-1.983 16.958,-4.539 26.285,-8.477" fill="none" stroke="#000000" stroke-width="2" /><path d="M70.5,94 v-82.5 h23.0 v59.5 c0,7.578 -0.438,8 -5,8 c-1.364,0 -7.294,-0.225 -12,-0.5" fill="none" stroke="#000000" stroke-width="2" /><path d="M27.5,74 c10.867,-3.784 20.188,-8.086 32,-15" fill="none" stroke="#000000" stroke-width="2" /><path d="M33,93.5 c20.068,-8.087 27,-18.806 27,-47.5 v-27.5" fill="none" stroke="#000000" stroke-width="2" /></svg>