<?xml version='1.0' encoding='utf-8'?>
<svg xmlns="http://www.w3.org/2000/svg" height="100px" version="1.0" viewBox="0 0 100 100" width="100px" x="0px" y="0px">
<line fill="none" stroke="#000000" stroke-width="2" x1="29.5" x2="29.5" y1="6.5" y2="47" /><line fill="none" stroke="#000000" stroke-width="2" x1="14" x2="14" y1="13.5" y2="49.5" /><line fill="none" stroke="#000000" stroke-width="2" x1="51" x2="29.5" y1="22.64" y2="22.64" /><line fill="none" stroke="#000000" stroke-width="2" x1="92" x2="8" y1="59" y2="59" /><line fill="none" stroke="#000000" stroke-width="2" x1="50" x2="50" y1="94" y2="48.5" /><path d="M7,50.5 c18.746,-2.728 34.885,-5.887 44.5,-8.5" fill="none" stroke="#000000" stroke-width="2" /><path d="M57,6.5 v36.0 c0,4.424 0.834,5 15,5 c17.908,0 18.175,-0.203 20,-17" fill="none" stroke="#000000" stroke-width="2" /><path d="M57,26.5 c11.726,-3.194 21.984,-7.395 34,-14" fill="none" stroke="#000000" stroke-width="2" /><path d="M6,90 c21.834,-10.667 35.053,-20.897 43,-31.5" fill="none" stroke="#000000" stroke-width="2" /><path d="M94,90 c-21.834,-10.667 -35.053,-20.897 -43,-31.5" fill="none" stroke="#000000" stroke-width="2" /></svg>