<?xml version='1.0' encoding='utf-8'?>
<svg xmlns="http://www.w3.org/2000/svg" height="100px" version="1.0" viewBox="0 0 100 100" width="100px" x="0px" y="0px">
<line fill="none" stroke="#000000" stroke-width="2" x1="21.5" x2="21.5" y1="94" y2="6" /><line fill="none" stroke="#000000" stroke-width="2" x1="36.5" x2="5" y1="26" y2="26" /><line fill="none" stroke="#000000" stroke-width="2" x1="43.5" x2="94.5" y1="30.5" y2="30.5" /><path d="M3.5,73 c8.406,-15.363 14.009,-30.544 17.5,-47.5" fill="none" stroke="#000000" stroke-width="2" /><path d="M36.5,61 c-4.582,-11.04 -9.738,-22.734 -15,-34" fill="none" stroke="#000000" stroke-width="2" /><path d="M45,91 c12.15,-13.671 17,-28.185 17,-59.5" fill="none" stroke="#000000" stroke-width="2" /><path d="M61.5,49 h29.5 c0,34.705 -3.717,41 -11,41 c-2.961,0 -8.543,-0.356 -15,-1" fill="none" stroke="#000000" stroke-width="2" /><path d="M32,91 c7.728,-14.052 11.5,-29.832 11.5,-51 v-26.5 c17.701,0 33.555,-1.923 47.5,-5.5" fill="none" stroke="#000000" stroke-width="2" /></svg>