<?xml version='1.0' encoding='utf-8'?>
<svg xmlns="http://www.w3.org/2000/svg" height="100px" version="1.0" viewBox="0 0 100 100" width="100px" x="0px" y="0px">
<line fill="none" stroke="#000000" stroke-width="2" x1="17.5" x2="17.5" y1="94" y2="6" /><line fill="none" stroke="#000000" stroke-width="2" x1="29.5" x2="3.5" y1="26" y2="26" /><line fill="none" stroke="#000000" stroke-width="2" x1="96.5" x2="59" y1="35" y2="35" /><line fill="none" stroke="#000000" stroke-width="2" x1="94.5" x2="60" y1="11" y2="11" /><line fill="none" stroke="#000000" stroke-width="2" x1="46.5" x2="46.5" y1="94" y2="41.5" /><path d="M2.5,70 c6.99,-14.471 11.578,-28.562 14.5,-44.5" fill="none" stroke="#000000" stroke-width="2" /><path d="M28,54.5 c-3.112,-9.042 -6.541,-18.44 -10,-27.5" fill="none" stroke="#000000" stroke-width="2" /><path d="M86,35 v48.5 c0,7.198 -0.79,8 -7,8 c-2.85,0 -7.088,-0.144 -13,-0.5" fill="none" stroke="#000000" stroke-width="2" /><path d="M56,28 c-6.155,11.01 -14.33,20.146 -24,27" fill="none" stroke="#000000" stroke-width="2" /><path d="M57,6 c-6.021,9.226 -13.919,16.872 -24,23" fill="none" stroke="#000000" stroke-width="2" /></svg>