<?xml version='1.0' encoding='utf-8'?>
<svg xmlns="http://www.w3.org/2000/svg" height="100px" version="1.0" viewBox="0 0 100 100" width="100px" x="0px" y="0px">
<line fill="none" stroke="#000000" stroke-width="2" x1="51.5" x2="90" y1="37.5" y2="37.5" /><line fill="none" stroke="#000000" stroke-width="2" x1="13.5" x2="86.5" y1="10.5" y2="10.5" /><line fill="none" stroke="#000000" stroke-width="2" x1="9" x2="47.5" y1="37.5" y2="37.5" /><line fill="none" stroke="#000000" stroke-width="2" x1="92" x2="8" y1="64" y2="64" /><line fill="none" stroke="#000000" stroke-width="2" x1="50" x2="50" y1="94" y2="54.5" /><path d="M55,60 c16.049,-3.576 28.24,-11.973 34.138,-22.007" fill="none" stroke="#000000" stroke-width="2" /><path d="M93.5,60 c-15.845,-3.26 -27.125,-9.286 -36.5,-19.5" fill="none" stroke="#000000" stroke-width="2" /><path d="M11,33.5 c33.68,-3.558 61.698,-13.021 74.904,-22.804" fill="none" stroke="#000000" stroke-width="2" /><path d="M89,33.5 c-28.063,-3.274 -49.757,-10.042 -66,-20" fill="none" stroke="#000000" stroke-width="2" /><path d="M6.5,60 c18.82,-3.586 33.303,-12.029 40.174,-22.064" fill="none" stroke="#000000" stroke-width="2" /><path d="M45,60 c-9.395,-7.962 -19.142,-14.21 -30.5,-19.5" fill="none" stroke="#000000" stroke-width="2" /><path d="M6,91 c20.881,-8.568 34.457,-17.561 43,-27" fill="none" stroke="#000000" stroke-width="2" /><path d="M94,91 c-20.882,-8.568 -34.457,-17.561 -43,-27" fill="none" stroke="#000000" stroke-width="2" /></svg>