<?xml version='1.0' encoding='utf-8'?>
<svg xmlns="http://www.w3.org/2000/svg" height="100px" version="1.0" viewBox="0 0 100 100" width="100px" x="0px" y="0px">
<line fill="none" stroke="#000000" stroke-width="2" x1="41.5" x2="90" y1="50.5" y2="50.5" /><line fill="none" stroke="#000000" stroke-width="2" x1="41.5" x2="90" y1="69" y2="69" /><line fill="none" stroke="#000000" stroke-width="2" x1="65.5" x2="65.5" y1="33" y2="6" /><line fill="none" stroke="#000000" stroke-width="2" x1="21.5" x2="21.5" y1="94" y2="6" /><line fill="none" stroke="#000000" stroke-width="2" x1="36.5" x2="5" y1="26" y2="26" /><path d="M40.5,92 v-58.0 h50.5 v48.5 c0,7.567 -0.385,8 -6,8 c-2.227,0 -6.297,-0.159 -13.5,-0.5" fill="none" stroke="#000000" stroke-width="2" /><path d="M49.5,28 c-3.919,-6.757 -8.037,-13.301 -12,-19" fill="none" stroke="#000000" stroke-width="2" /><path d="M81,28 c4.511,-6.325 8.766,-13.087 12,-19" fill="none" stroke="#000000" stroke-width="2" /><path d="M3.5,73 c8.406,-15.363 14.009,-30.544 17.5,-47.5" fill="none" stroke="#000000" stroke-width="2" /><path d="M35.5,59 c-4.276,-10.391 -9.089,-21.397 -14,-32" fill="none" stroke="#000000" stroke-width="2" /></svg>