<?xml version='1.0' encoding='utf-8'?>
<svg xmlns="http://www.w3.org/2000/svg" height="100px" version="1.0" viewBox="0 0 100 100" width="100px" x="0px" y="0px">
<line fill="none" stroke="#000000" stroke-width="2" x1="92" x2="8" y1="62" y2="62" /><line fill="none" stroke="#000000" stroke-width="2" x1="50" x2="50" y1="94" y2="51" /><line fill="none" stroke="#000000" stroke-width="2" x1="30.5" x2="30.5" y1="54.5" y2="11.5" /><line fill="none" stroke="#000000" stroke-width="2" x1="54" x2="7.5" y1="26" y2="26" /><line fill="none" stroke="#000000" stroke-width="2" x1="62.5" x2="62.5" y1="43" y2="10.5" /><path d="M6,91 c20.882,-9.203 34.523,-18.798 43,-29" fill="none" stroke="#000000" stroke-width="2" /><path d="M94,91 c-20.882,-9.203 -34.523,-18.798 -43,-29" fill="none" stroke="#000000" stroke-width="2" /><path d="M7,51 c10.941,-8.315 17.92,-16.355 22.5,-25.5" fill="none" stroke="#000000" stroke-width="2" /><path d="M52.5,8 c-14.916,2.733 -28.679,4.682 -43,6" fill="none" stroke="#000000" stroke-width="2" /><path d="M54.5,45.5 c-7.231,-6.178 -15.66,-13.188 -23.5,-19.5" fill="none" stroke="#000000" stroke-width="2" /><path d="M89,8 v40.0 c0,4.114 -0.97,5 -6.5,5 c-2.75,0 -6.925,-0.143 -12.5,-0.5" fill="none" stroke="#000000" stroke-width="2" /></svg>