<?xml version='1.0' encoding='utf-8'?>
<svg xmlns="http://www.w3.org/2000/svg" height="100px" version="1.0" viewBox="0 0 100 100" width="100px" x="0px" y="0px">
<line fill="none" stroke="#000000" stroke-width="2" x1="21.5" x2="21.5" y1="94" y2="6" /><line fill="none" stroke="#000000" stroke-width="2" x1="36.5" x2="5" y1="26" y2="26" /><line fill="none" stroke="#000000" stroke-width="2" x1="41.5" x2="93" y1="29.5" y2="29.5" /><line fill="none" stroke="#000000" stroke-width="2" x1="77.5" x2="77.5" y1="62.5" y2="29.5" /><line fill="none" stroke="#000000" stroke-width="2" x1="41.5" x2="41.5" y1="62.5" y2="14" /><line fill="none" stroke="#000000" stroke-width="2" x1="96" x2="30.5" y1="63.5" y2="63.5" /><path d="M3.5,73 c8.406,-15.363 14.009,-30.544 17.5,-47.5" fill="none" stroke="#000000" stroke-width="2" /><path d="M35.5,59 c-4.276,-10.391 -9.089,-21.397 -14,-32" fill="none" stroke="#000000" stroke-width="2" /><path d="M40.5,15 c18.803,0 36.466,-2.884 47,-7" fill="none" stroke="#000000" stroke-width="2" /><path d="M28,92 c10.268,-5.591 19.787,-13.788 25,-21" fill="none" stroke="#000000" stroke-width="2" /><path d="M93.5,93 c-6.438,-7.238 -15.318,-14.969 -25,-21.5" fill="none" stroke="#000000" stroke-width="2" /></svg>