<?xml version='1.0' encoding='utf-8'?>
<svg xmlns="http://www.w3.org/2000/svg" height="100px" version="1.0" viewBox="0 0 100 100" width="100px" x="0px" y="0px">
<line fill="none" stroke="#000000" stroke-width="2" x1="17.5" x2="17.5" y1="94" y2="6" /><line fill="none" stroke="#000000" stroke-width="2" x1="28" x2="3.5" y1="25.5" y2="25.5" /><line fill="none" stroke="#000000" stroke-width="2" x1="67" x2="91.5" y1="27" y2="27" /><line fill="none" stroke="#000000" stroke-width="2" x1="57.5" x2="33" y1="27" y2="27" /><polyline fill="none" points="32,93 32,9.5 58.5,9.5 58.5,46 33,46" stroke="#000000" stroke-width="2" /><path d="M2.5,69.5 c6.99,-14.471 11.578,-28.562 14.5,-44.5" fill="none" stroke="#000000" stroke-width="2" /><path d="M27,52.5 c-2.801,-8.549 -5.887,-17.435 -9,-26" fill="none" stroke="#000000" stroke-width="2" /><path d="M72.5,90.5 c6.93,0.36 11.051,0.5 13,0.5 c6.251,0 7,-0.666 7,-8 v-73.5 H66.0 V46.0 h25.5" fill="none" stroke="#000000" stroke-width="2" /></svg>