<?xml version='1.0' encoding='utf-8'?>
<svg xmlns="http://www.w3.org/2000/svg" height="100px" version="1.0" viewBox="0 0 100 100" width="100px" x="0px" y="0px">
<line fill="none" stroke="#000000" stroke-width="2" x1="67.5" x2="67.5" y1="48" y2="5" /><line fill="none" stroke="#000000" stroke-width="2" x1="93" x2="48" y1="16.5" y2="16.5" /><line fill="none" stroke="#000000" stroke-width="2" x1="27.5" x2="27.5" y1="48" y2="5" /><line fill="none" stroke="#000000" stroke-width="2" x1="44" x2="7" y1="16.5" y2="16.5" /><line fill="none" stroke="#000000" stroke-width="2" x1="51" x2="77" y1="69.5" y2="69.5" /><line fill="none" stroke="#000000" stroke-width="2" x1="50" x2="50" y1="87.5" y2="54" /><line fill="none" stroke="#000000" stroke-width="2" x1="8" x2="92" y1="53" y2="53" /><path d="M94.5,44 c-12.642,-8.955 -21.25,-18.132 -26.5,-28" fill="none" stroke="#000000" stroke-width="2" /><path d="M5.5,44 c10.328,-8.953 17.211,-18.119 21.5,-28" fill="none" stroke="#000000" stroke-width="2" /><path d="M40.5,44 c12.492,-9.034 20.916,-18.12 26.5,-28" fill="none" stroke="#000000" stroke-width="2" /><path d="M44.5,35.5 c-4.701,-6.063 -10.426,-12.463 -16.5,-18.5" fill="none" stroke="#000000" stroke-width="2" /><path d="M8,92 c9.098,-8.688 15.757,-21.052 18,-33.5" fill="none" stroke="#000000" stroke-width="2" /><path d="M92,90 h-4.0 c-41.418,0 -56.16,-5.219 -66,-18.5" fill="none" stroke="#000000" stroke-width="2" /><path d="M91.182,53.423 c-3.379,4.795 -7.354,8.919 -12.182,12.577" fill="none" stroke="#000000" stroke-width="2" /></svg>