<?xml version='1.0' encoding='utf-8'?>
<svg xmlns="http://www.w3.org/2000/svg" height="100px" version="1.0" viewBox="0 0 100 100" width="100px" x="0px" y="0px">
<line fill="none" stroke="#000000" stroke-width="2" x1="42.5" x2="83.5" y1="32.5" y2="32.5" /><line fill="none" stroke="#000000" stroke-width="2" x1="95.5" x2="30.5" y1="62" y2="62" /><line fill="none" stroke="#000000" stroke-width="2" x1="95.5" x2="30.5" y1="15" y2="15" /><line fill="none" stroke="#000000" stroke-width="2" x1="63" x2="63" y1="94" y2="52.5" /><line fill="none" stroke="#000000" stroke-width="2" x1="20" x2="20" y1="94" y2="6" /><line fill="none" stroke="#000000" stroke-width="2" x1="34.5" x2="4.5" y1="25.5" y2="25.5" /><polyline fill="none" points="41.5,6 41.5,51.5 84.5,51.5 84.5,6" stroke="#000000" stroke-width="2" /><path d="M29.5,91 c15.803,-9.494 26.009,-18.798 32.5,-29" fill="none" stroke="#000000" stroke-width="2" /><path d="M96.5,91 c-15.803,-9.494 -26.009,-18.798 -32.5,-29" fill="none" stroke="#000000" stroke-width="2" /><path d="M4,69.5 c7.473,-14.471 12.377,-28.562 15.5,-44.5" fill="none" stroke="#000000" stroke-width="2" /><path d="M33,58.5 c-3.983,-10.331 -8.283,-21.329 -12.5,-32" fill="none" stroke="#000000" stroke-width="2" /></svg>