<?xml version='1.0' encoding='utf-8'?>
<svg xmlns="http://www.w3.org/2000/svg" height="100px" version="1.0" viewBox="0 0 100 100" width="100px" x="0px" y="0px">
<line fill="none" stroke="#000000" stroke-width="2" x1="16.5" x2="16.5" y1="94" y2="6" /><line fill="none" stroke="#000000" stroke-width="2" x1="27" x2="2.5" y1="26" y2="26" /><line fill="none" stroke="#000000" stroke-width="2" x1="94.5" x2="61" y1="11" y2="11" /><line fill="none" stroke="#000000" stroke-width="2" x1="60" x2="95.5" y1="46" y2="46" /><line fill="none" stroke="#000000" stroke-width="2" x1="68" x2="68" y1="46" y2="11" /><line fill="none" stroke="#000000" stroke-width="2" x1="31.5" x2="55.5" y1="30.5" y2="30.5" /><polyline fill="none" points="31.5,51.5 56.5,51.5 56.5,11 30.5,11 30.5,81" stroke="#000000" stroke-width="2" /><path d="M1.5,70 c6.99,-14.471 11.578,-28.562 14.5,-44.5" fill="none" stroke="#000000" stroke-width="2" /><path d="M26,53 c-2.801,-8.549 -5.887,-17.435 -9,-26" fill="none" stroke="#000000" stroke-width="2" /><path d="M22,84.5 c10.672,-4.066 20.253,-9.181 31,-16.5" fill="none" stroke="#000000" stroke-width="2" /><path d="M58.5,77.5 c-3.603,-6.913 -8.968,-15.231 -14,-21.5" fill="none" stroke="#000000" stroke-width="2" /><path d="M80,56.5 v29.0 c0,4.38 0.631,5 7,5 c7.625,0 7.838,-0.177 8.496,-23.5" fill="none" stroke="#000000" stroke-width="2" /><path d="M45,93 c25.77,-13.536 42.5,-43.212 42.5,-81" fill="none" stroke="#000000" stroke-width="2" /></svg>