<?xml version='1.0' encoding='utf-8'?>
<svg xmlns="http://www.w3.org/2000/svg" height="100px" version="1.0" viewBox="0 0 100 100" width="100px" x="0px" y="0px">
<line fill="none" stroke="#000000" stroke-width="2" x1="19" x2="19" y1="94" y2="6" /><line fill="none" stroke="#000000" stroke-width="2" x1="31" x2="4" y1="26" y2="26" /><line fill="none" stroke="#000000" stroke-width="2" x1="63" x2="63" y1="14" y2="2" /><line fill="none" stroke="#000000" stroke-width="2" x1="40" x2="86" y1="87" y2="87" /><polyline fill="none" points="92,32 92,14 34,14 34,32.5" stroke="#000000" stroke-width="2" /><polyline fill="none" points="87,94 87,59 39,59 39,94" stroke="#000000" stroke-width="2" /><path d="M3,70 c7.473,-14.471 12.377,-28.562 15.5,-44.5" fill="none" stroke="#000000" stroke-width="2" /><path d="M31,59 c-3.664,-10.331 -7.621,-21.329 -11.5,-32" fill="none" stroke="#000000" stroke-width="2" /><path d="M96,65 c-12.82,-9.378 -22.895,-18.681 -33,-30.8 c-9.882,12.281 -20.021,21.673 -33,30.8" fill="none" stroke="#000000" stroke-width="2" /><path d="M55.5,19.5 c-5.171,9.354 -12.813,17.732 -23,25" fill="none" stroke="#000000" stroke-width="2" /><path d="M93.5,44 c-6.509,-8.3 -14.783,-16.972 -24,-25" fill="none" stroke="#000000" stroke-width="2" /></svg>