<?xml version='1.0' encoding='utf-8'?>
<svg xmlns="http://www.w3.org/2000/svg" height="100px" version="1.0" viewBox="0 0 100 100" width="100px" x="0px" y="0px">
<line fill="none" stroke="#000000" stroke-width="2" x1="19.5" x2="19.5" y1="94" y2="6" /><line fill="none" stroke="#000000" stroke-width="2" x1="31" x2="4.5" y1="26" y2="26" /><line fill="none" stroke="#000000" stroke-width="2" x1="62" x2="62" y1="16.5" y2="52.5" /><line fill="none" stroke="#000000" stroke-width="2" x1="35" x2="89" y1="34" y2="34" /><polyline fill="none" points="35,53.5 90,53.5 90,15.5 34,15.5 34,54.5" stroke="#000000" stroke-width="2" /><path d="M3.5,70 c7.473,-14.471 12.377,-28.562 15.5,-44.5" fill="none" stroke="#000000" stroke-width="2" /><path d="M31.5,59 c-3.664,-10.331 -7.621,-21.329 -11.5,-32" fill="none" stroke="#000000" stroke-width="2" /><path d="M50.5,15.5 c3.021,-3.953 5.887,-8.271 8,-12" fill="none" stroke="#000000" stroke-width="2" /><path d="M66,54.5 v32.0 c0,4.38 0.908,5 12,5 c15.749,0 16.039,-0.251 17,-18.5" fill="none" stroke="#000000" stroke-width="2" /><path d="M27,93 c17.006,-7.194 27,-21.46 27,-39.5" fill="none" stroke="#000000" stroke-width="2" /><path d="M91.5,80.5 c-1.969,-5.167 -4.842,-11.548 -7.5,-16.5" fill="none" stroke="#000000" stroke-width="2" /><path d="M68.5,79 c6.273,-0.716 13.363,-2.078 20.5,-4" fill="none" stroke="#000000" stroke-width="2" /><path d="M72,78.5 c2.556,-5.827 5.068,-13.357 7,-21" fill="none" stroke="#000000" stroke-width="2" /></svg>