<?xml version='1.0' encoding='utf-8'?>
<svg xmlns="http://www.w3.org/2000/svg" height="100px" version="1.0" viewBox="0 0 100 100" width="100px" x="0px" y="0px">
<line fill="none" stroke="#000000" stroke-width="2" x1="19.5" x2="19.5" y1="94" y2="6" /><line fill="none" stroke="#000000" stroke-width="2" x1="31.5" x2="4.5" y1="26" y2="26" /><line fill="none" stroke="#000000" stroke-width="2" x1="28" x2="96" y1="34" y2="34" /><line fill="none" stroke="#000000" stroke-width="2" x1="31.5" x2="92.5" y1="14" y2="14" /><line fill="none" stroke="#000000" stroke-width="2" x1="62" x2="62" y1="14" y2="3" /><line fill="none" stroke="#000000" stroke-width="2" x1="37" x2="87" y1="59.5" y2="59.5" /><line fill="none" stroke="#000000" stroke-width="2" x1="87" x2="37" y1="76" y2="76" /><polyline fill="none" points="36,84 36,43.5 88,43.5 88,77" stroke="#000000" stroke-width="2" /><path d="M3.5,70 c7.473,-14.471 12.377,-28.562 15.5,-44.5" fill="none" stroke="#000000" stroke-width="2" /><path d="M31.5,59 c-3.664,-10.331 -7.621,-21.329 -11.5,-32" fill="none" stroke="#000000" stroke-width="2" /><path d="M71,34 c4.01,-5.669 7.257,-12.424 9.5,-20" fill="none" stroke="#000000" stroke-width="2" /><path d="M52,34 c-2.73,-6.776 -5.85,-13.381 -9.5,-20" fill="none" stroke="#000000" stroke-width="2" /><path d="M95.5,72 c-1.055,19.268 -1.312,19.5 -19,19.5 c-14.193,0 -14.5,-0.303 -14.5,-9 v-38.0" fill="none" stroke="#000000" stroke-width="2" /></svg>