<?xml version='1.0' encoding='utf-8'?>
<svg xmlns="http://www.w3.org/2000/svg" height="100px" version="1.0" viewBox="0 0 100 100" width="100px" x="0px" y="0px">
<line fill="none" stroke="#000000" stroke-width="2" x1="17" x2="17" y1="94" y2="6" /><line fill="none" stroke="#000000" stroke-width="2" x1="27.5" x2="3" y1="25.5" y2="25.5" /><line fill="none" stroke="#000000" stroke-width="2" x1="66.5" x2="92" y1="23.5" y2="23.5" /><line fill="none" stroke="#000000" stroke-width="2" x1="57.5" x2="32" y1="23.5" y2="23.5" /><line fill="none" stroke="#000000" stroke-width="2" x1="45" x2="79" y1="63.5" y2="63.5" /><line fill="none" stroke="#000000" stroke-width="2" x1="62" x2="62" y1="92.5" y2="38.5" /><line fill="none" stroke="#000000" stroke-width="2" x1="37.5" x2="86.5" y1="46.5" y2="46.5" /><polyline fill="none" points="31,93 31,9.5 58.5,9.5 58.5,37.5 32,37.5" stroke="#000000" stroke-width="2" /><polyline fill="none" points="45,72.5 80,72.5 80,54.5 44,54.5 44,73.5" stroke="#000000" stroke-width="2" /><path d="M2,69.5 c6.99,-14.471 11.578,-28.562 14.5,-44.5" fill="none" stroke="#000000" stroke-width="2" /><path d="M26.5,52.5 c-2.801,-8.549 -5.887,-17.435 -9,-26" fill="none" stroke="#000000" stroke-width="2" /><path d="M75,90.5 c6.236,0.36 9.746,0.5 11.5,0.5 c5.719,0 6.5,-0.745 6.5,-8 v-73.5 h-27.5 v28.0 h26.5" fill="none" stroke="#000000" stroke-width="2" /><path d="M37,86.5 c12.041,-4.844 19.766,-9.604 24,-14" fill="none" stroke="#000000" stroke-width="2" /><path d="M86,86.5 c-9.986,-3.933 -16.828,-8.183 -23,-14" fill="none" stroke="#000000" stroke-width="2" /></svg>