<?xml version='1.0' encoding='utf-8'?>
<svg xmlns="http://www.w3.org/2000/svg" height="100px" version="1.0" viewBox="0 0 100 100" width="100px" x="0px" y="0px">
<line fill="none" stroke="#000000" stroke-width="2" x1="60" x2="19" y1="47.5" y2="47.5" /><line fill="none" stroke="#000000" stroke-width="2" x1="50.5" x2="50.5" y1="2.5" y2="22.5" /><line fill="none" stroke="#000000" stroke-width="2" x1="7" x2="93" y1="22.5" y2="22.5" /><line fill="none" stroke="#000000" stroke-width="2" x1="86" x2="50.5" y1="11" y2="11" /><line fill="none" stroke="#000000" stroke-width="2" x1="26" x2="26" y1="22.5" y2="5.5" /><path d="M41.5,47.5 v34.5 c0,4.973 -0.521,5.5 -5,5.5 c-2.08,0 -5.691,-0.166 -10,-0.5" fill="none" stroke="#000000" stroke-width="2" /><path d="M17,82 c5.223,-6.888 9.482,-15.626 12,-25" fill="none" stroke="#000000" stroke-width="2" /><path d="M60.5,75 c-2.411,-5.946 -5.548,-12.269 -9,-18" fill="none" stroke="#000000" stroke-width="2" /><path d="M64.5,22.5 c0,44.867 16.334,70.5 22.5,70.5 c2.619,0 5.594,-3.526 7.5,-19" fill="none" stroke="#000000" stroke-width="2" /><path d="M76.5,26 c2.525,2.579 5.127,5.712 7.5,9" fill="none" stroke="#000000" stroke-width="2" /><path d="M5.5,93.5 c5.376,-12.618 8,-26.491 8,-45.5 v-13.0 h78.5" fill="none" stroke="#000000" stroke-width="2" /><path d="M86.5,41 c-6.598,25.157 -21.775,42.966 -42,52" fill="none" stroke="#000000" stroke-width="2" /></svg>