<?xml version='1.0' encoding='utf-8'?>
<svg xmlns="http://www.w3.org/2000/svg" height="100px" version="1.0" viewBox="0 0 100 100" width="100px" x="0px" y="0px">
<line fill="none" stroke="#000000" stroke-width="2" x1="46" x2="89" y1="87" y2="87" /><line fill="none" stroke="#000000" stroke-width="2" x1="5" x2="43" y1="11.5" y2="11.5" /><line fill="none" stroke="#000000" stroke-width="2" x1="17" x2="39" y1="29" y2="29" /><polyline fill="none" points="90,94 90,53 45,53 45,94" stroke="#000000" stroke-width="2" /><path d="M96,47.5 c-4.332,-9.48 -10.61,-20.903 -16.5,-30" fill="none" stroke="#000000" stroke-width="2" /><path d="M40,41 c14.748,-0.586 33.156,-2.407 50,-5" fill="none" stroke="#000000" stroke-width="2" /><path d="M47.5,40.5 c4.601,-10.245 9.37,-22.664 13.5,-35.5" fill="none" stroke="#000000" stroke-width="2" /><path d="M4,59.5 c7.936,-12.451 13.933,-29.251 16.5,-48" fill="none" stroke="#000000" stroke-width="2" /><path d="M37.998,29.962 c-1.046,27.905 -14.447,51.284 -31.998,61.038" fill="none" stroke="#000000" stroke-width="2" /><path d="M32,59.5 c-5.092,-4.024 -11.314,-8.422 -17,-12" fill="none" stroke="#000000" stroke-width="2" /></svg>