<?xml version='1.0' encoding='utf-8'?>
<svg xmlns="http://www.w3.org/2000/svg" height="100px" version="1.0" viewBox="0 0 100 100" width="100px" x="0px" y="0px">
<line fill="none" stroke="#000000" stroke-width="2" x1="5.5" x2="51.5" y1="36.5" y2="36.5" /><line fill="none" stroke="#000000" stroke-width="2" x1="50.5" x2="7.5" y1="16" y2="16" /><line fill="none" stroke="#000000" stroke-width="2" x1="28.5" x2="28.5" y1="16" y2="6" /><line fill="none" stroke="#000000" stroke-width="2" x1="52" x2="92" y1="48" y2="48" /><path d="M53.5,42.5 c5.412,-5.153 8,-12.41 8,-26 v-6.5 h22.5 v26.5 c0,2.521 0.612,3 4.5,3 c7.141,0 7.572,-0.359 8,-13.5" fill="none" stroke="#000000" stroke-width="2" /><path d="M48.5,91 c21.956,-9.284 34.51,-21.875 42.568,-42.367" fill="none" stroke="#000000" stroke-width="2" /><path d="M96,91 c-15.119,-8.014 -28.799,-21.82 -37,-37.5" fill="none" stroke="#000000" stroke-width="2" /><path d="M35,36.5 c2.629,-5.828 5.099,-12.991 7,-20.5" fill="none" stroke="#000000" stroke-width="2" /><path d="M21,36.5 c-1.713,-6.801 -3.781,-13.884 -6,-20.5" fill="none" stroke="#000000" stroke-width="2" /><path d="M6,54.5 c12.303,-4.914 20.66,-10.779 26.5,-18" fill="none" stroke="#000000" stroke-width="2" /><path d="M5,71.5 c12.854,-5.281 22.051,-11.747 28,-19" fill="none" stroke="#000000" stroke-width="2" /><path d="M4.5,88.5 c14.931,-6.408 25.143,-14.055 32,-23" fill="none" stroke="#000000" stroke-width="2" /><path d="M50.5,43 c-4.535,5.467 -10.157,10.509 -15.5,14" fill="none" stroke="#000000" stroke-width="2" /><path d="M35,56.5 c4.926,8.608 12.871,16.876 22.5,23.5" fill="none" stroke="#000000" stroke-width="2" /><path d="M19,90.5 c5.773,0.339 10.408,0.5 13.5,0.5 c3.758,0 5,-1.721 5,-15 c0,-13.933 -4.495,-26.787 -11,-33.5" fill="none" stroke="#000000" stroke-width="2" /></svg>