<?xml version='1.0' encoding='utf-8'?>
<svg xmlns="http://www.w3.org/2000/svg" height="100px" version="1.0" viewBox="0 0 100 100" width="100px" x="0px" y="0px">
<path d="M8.5,91.5 c7.072,-9.315 12.963,-19.819 17,-30.5" fill="none" stroke="#000000" stroke-width="2" /><path d="M25.5,22.5 c-4.551,-4.456 -9.955,-9.209 -16,-14" fill="none" stroke="#000000" stroke-width="2" /><path d="M22,45.5 c-5.014,-4.892 -10.751,-9.858 -17.5,-15" fill="none" stroke="#000000" stroke-width="2" /><path d="M84,62 c-2.523,0 -6.672,-0.167 -11,-0.5" fill="none" stroke="#000000" stroke-width="2" /><path d="M40.5,15 h51.0 c-1.432,42.487 -3.448,47 -7.5,47" fill="none" stroke="#000000" stroke-width="2" /><path d="M26.5,44.5 c7.53,-10.382 14.203,-25.795 17.5,-41.5" fill="none" stroke="#000000" stroke-width="2" /><path d="M94,66.5 c-2.187,24.756 -2.465,25 -31.783,25 c-22.917,0 -23.217,-0.233 -23.217,-12 v-25.0 h34.0 v-26.0 h-32.5" fill="none" stroke="#000000" stroke-width="2" /></svg>