<?xml version='1.0' encoding='utf-8'?>
<svg xmlns="http://www.w3.org/2000/svg" height="100px" version="1.0" viewBox="0 0 100 100" width="100px" x="0px" y="0px">
<line fill="none" stroke="#000000" stroke-width="2" x1="39.5" x2="92.5" y1="29.5" y2="29.5" /><line fill="none" stroke="#000000" stroke-width="2" x1="76.5" x2="76.5" y1="62.5" y2="29.5" /><line fill="none" stroke="#000000" stroke-width="2" x1="39.5" x2="39.5" y1="62.5" y2="14" /><line fill="none" stroke="#000000" stroke-width="2" x1="96" x2="28" y1="63.5" y2="63.5" /><path d="M9.5,91.5 c6.273,-9.294 11.438,-19.819 15,-30.5" fill="none" stroke="#000000" stroke-width="2" /><path d="M26.5,22.5 c-4.551,-4.456 -9.955,-9.209 -16,-14" fill="none" stroke="#000000" stroke-width="2" /><path d="M23,45.5 c-5.014,-4.892 -10.751,-9.858 -17.5,-15" fill="none" stroke="#000000" stroke-width="2" /><path d="M38.5,15 c19.402,0 37.63,-2.884 48.5,-7" fill="none" stroke="#000000" stroke-width="2" /><path d="M25,92 c10.679,-5.591 20.579,-13.788 26,-21" fill="none" stroke="#000000" stroke-width="2" /><path d="M93.5,93 c-6.695,-7.238 -15.931,-14.969 -26,-21.5" fill="none" stroke="#000000" stroke-width="2" /></svg>