<?xml version='1.0' encoding='utf-8'?>
<svg xmlns="http://www.w3.org/2000/svg" height="100px" version="1.0" viewBox="0 0 100 100" width="100px" x="0px" y="0px">
<line fill="none" stroke="#000000" stroke-width="2" x1="94.5" x2="24.5" y1="89" y2="89" /><line fill="none" stroke="#000000" stroke-width="2" x1="90.5" x2="31.5" y1="66" y2="66" /><line fill="none" stroke="#000000" stroke-width="2" x1="61" x2="61" y1="88" y2="51.5" /><line fill="none" stroke="#000000" stroke-width="2" x1="93.5" x2="28.5" y1="32.5" y2="32.5" /><line fill="none" stroke="#000000" stroke-width="2" x1="90.5" x2="33.5" y1="15.5" y2="15.5" /><line fill="none" stroke="#000000" stroke-width="2" x1="61" x2="61" y1="31.5" y2="4.5" /><path d="M29,55.5 c15.799,-4.134 24.248,-12.696 25,-23" fill="none" stroke="#000000" stroke-width="2" /><path d="M69,33.5 v14.5 c0,3.731 0.619,4.236 5,4.399 c2.017,0.074 3.803,0.101 6,0.101 c2.079,0 3.647,-0.029 5.5,-0.101 c5.967,-0.229 6.42,-0.57 7.5,-11.899" fill="none" stroke="#000000" stroke-width="2" /><path d="M9,91.5 c7.072,-9.315 12.963,-19.819 17,-30.5" fill="none" stroke="#000000" stroke-width="2" /><path d="M26,22.5 c-4.551,-4.456 -9.955,-9.209 -16,-14" fill="none" stroke="#000000" stroke-width="2" /><path d="M22.5,45.5 c-5.014,-4.892 -10.751,-9.858 -17.5,-15" fill="none" stroke="#000000" stroke-width="2" /></svg>