<?xml version='1.0' encoding='utf-8'?>
<svg xmlns="http://www.w3.org/2000/svg" height="100px" version="1.0" viewBox="0 0 100 100" width="100px" x="0px" y="0px">
<line fill="none" stroke="#000000" stroke-width="2" x1="29" x2="95" y1="67" y2="67" /><line fill="none" stroke="#000000" stroke-width="2" x1="32" x2="92" y1="89" y2="89" /><line fill="none" stroke="#000000" stroke-width="2" x1="62.5" x2="62.5" y1="89" y2="49" /><path d="M9,91.5 c7.072,-9.315 12.963,-19.819 17,-30.5" fill="none" stroke="#000000" stroke-width="2" /><path d="M26,22.5 c-4.551,-4.456 -9.955,-9.209 -16,-14" fill="none" stroke="#000000" stroke-width="2" /><path d="M22.5,45.5 c-5.014,-4.892 -10.751,-9.858 -17.5,-15" fill="none" stroke="#000000" stroke-width="2" /><path d="M44.5,42 c-3.137,-8.168 -6.611,-15.462 -10,-21" fill="none" stroke="#000000" stroke-width="2" /><path d="M64,39 c-2.93,-8.138 -6.166,-15.27 -9.5,-21" fill="none" stroke="#000000" stroke-width="2" /><path d="M74.5,42 c5.387,-7.078 10.671,-16.66 15,-27.5" fill="none" stroke="#000000" stroke-width="2" /><path d="M30,14 c23.387,-0.575 44.107,-2.499 62,-5.5" fill="none" stroke="#000000" stroke-width="2" /><path d="M33,50.5 c23.557,-0.568 42.756,-2.715 58,-6" fill="none" stroke="#000000" stroke-width="2" /></svg>