<?xml version='1.0' encoding='utf-8'?>
<svg xmlns="http://www.w3.org/2000/svg" height="100px" version="1.0" viewBox="0 0 100 100" width="100px" x="0px" y="0px">
<line fill="none" stroke="#000000" stroke-width="2" x1="37" x2="87.5" y1="23.5" y2="23.5" /><polyline fill="none" points="37,38.5 88.5,38.5 88.5,9.5 36,9.5 36,39.5" stroke="#000000" stroke-width="2" /><path d="M8.5,91.5 c7.072,-9.315 12.963,-19.819 17,-30.5" fill="none" stroke="#000000" stroke-width="2" /><path d="M26.5,22.5 c-4.551,-4.456 -9.955,-9.209 -16,-14" fill="none" stroke="#000000" stroke-width="2" /><path d="M22,45.5 c-5.014,-4.892 -10.751,-9.858 -17.5,-15" fill="none" stroke="#000000" stroke-width="2" /><path d="M41,51.5 h52.0 c0,31.825 -4.266,39.5 -11,39.5 c-3.279,0 -8.379,-0.161 -14,-0.5" fill="none" stroke="#000000" stroke-width="2" /><path d="M29,61.5 c8.532,-5.501 18.023,-15.556 22,-23" fill="none" stroke="#000000" stroke-width="2" /><path d="M41.5,56 v19.25 c0,6.035 1.058,6.75 18,6.75 c17.95,0 18.236,-0.255 19,-13" fill="none" stroke="#000000" stroke-width="2" /><path d="M41.5,68.5 c11.789,-1.884 23.171,-5.149 35,-10" fill="none" stroke="#000000" stroke-width="2" /></svg>