<?xml version='1.0' encoding='utf-8'?>
<svg xmlns="http://www.w3.org/2000/svg" height="100px" version="1.0" viewBox="0 0 100 100" width="100px" x="0px" y="0px">
<line fill="none" stroke="#000000" stroke-width="2" x1="62.5" x2="62.5" y1="4" y2="42" /><line fill="none" stroke="#000000" stroke-width="2" x1="28" x2="96" y1="42" y2="42" /><line fill="none" stroke="#000000" stroke-width="2" x1="92" x2="62.5" y1="19.5" y2="19.5" /><line fill="none" stroke="#000000" stroke-width="2" x1="41" x2="41" y1="42" y2="9.5" /><path d="M25,92.5 c11.179,-4.774 22.484,-12.497 28.5,-19" fill="none" stroke="#000000" stroke-width="2" /><path d="M93.5,92.5 c-7.396,-6.433 -17.416,-13.199 -28.5,-19" fill="none" stroke="#000000" stroke-width="2" /><path d="M9.5,91.5 c6.273,-9.294 11.438,-19.819 15,-30.5" fill="none" stroke="#000000" stroke-width="2" /><path d="M26.5,22.5 c-4.551,-4.456 -9.955,-9.209 -16,-14" fill="none" stroke="#000000" stroke-width="2" /><path d="M23,45.5 c-5.014,-4.892 -10.751,-9.858 -17.5,-15" fill="none" stroke="#000000" stroke-width="2" /><path d="M53.5,64 c-6.379,-6.076 -13.895,-11.992 -21,-16.5" fill="none" stroke="#000000" stroke-width="2" /><path d="M65,64 c9.523,-5.08 18.41,-11.241 24,-16.5" fill="none" stroke="#000000" stroke-width="2" /></svg>