<?xml version='1.0' encoding='utf-8'?>
<svg xmlns="http://www.w3.org/2000/svg" height="100px" version="1.0" viewBox="0 0 100 100" width="100px" x="0px" y="0px">
<line fill="none" stroke="#000000" stroke-width="2" x1="64" x2="64" y1="12.5" y2="3" /><line fill="none" stroke="#000000" stroke-width="2" x1="33.5" x2="95.5" y1="27.5" y2="27.5" /><line fill="none" stroke="#000000" stroke-width="2" x1="37.5" x2="90.5" y1="55.5" y2="55.5" /><polyline fill="none" points="48.5,13.5 48.5,46.5 82.5,46.5 82.5,13.5" stroke="#000000" stroke-width="2" /><path d="M33.5,91 c27.666,-5.985 47.215,-19.403 56.133,-34.997" fill="none" stroke="#000000" stroke-width="2" /><path d="M96,91 c-25.243,-5.99 -40.88,-16.278 -50,-31" fill="none" stroke="#000000" stroke-width="2" /><path d="M24.5,91 c6.048,-14.052 9,-29.832 9,-51 v-26.5 h62.0" fill="none" stroke="#000000" stroke-width="2" /><path d="M8.5,91.5 c7.072,-9.315 12.963,-19.819 17,-30.5" fill="none" stroke="#000000" stroke-width="2" /><path d="M25.5,22.5 c-4.551,-4.456 -9.955,-9.209 -16,-14" fill="none" stroke="#000000" stroke-width="2" /><path d="M22,45.5 c-5.014,-4.892 -10.751,-9.858 -17.5,-15" fill="none" stroke="#000000" stroke-width="2" /></svg>