<?xml version='1.0' encoding='utf-8'?>
<svg xmlns="http://www.w3.org/2000/svg" height="100px" version="1.0" viewBox="0 0 100 100" width="100px" x="0px" y="0px">
<line fill="none" stroke="#000000" stroke-width="2" x1="34" x2="94" y1="37.5" y2="37.5" /><line fill="none" stroke="#000000" stroke-width="2" x1="32.5" x2="95.5" y1="90" y2="90" /><line fill="none" stroke="#000000" stroke-width="2" x1="90.5" x2="37.5" y1="72" y2="72" /><line fill="none" stroke="#000000" stroke-width="2" x1="64.5" x2="64.5" y1="90" y2="61" /><path d="M25,91 c6.048,-14.052 9,-29.832 9,-51 v-30.0 h57.0 v15.5 h-56.0" fill="none" stroke="#000000" stroke-width="2" /><path d="M93,62.5 c-4.645,-6.009 -11.131,-13.827 -16.5,-20" fill="none" stroke="#000000" stroke-width="2" /><path d="M37.5,58.5 c14.766,-0.491 31.752,-2.039 48.5,-4.5" fill="none" stroke="#000000" stroke-width="2" /><path d="M47.5,58 c2.984,-5.938 6.174,-13.129 9,-20.5" fill="none" stroke="#000000" stroke-width="2" /><path d="M9,91.5 c7.072,-9.315 12.963,-19.819 17,-30.5" fill="none" stroke="#000000" stroke-width="2" /><path d="M26,22.5 c-4.551,-4.456 -9.955,-9.209 -16,-14" fill="none" stroke="#000000" stroke-width="2" /><path d="M22.5,45.5 c-5.014,-4.892 -10.751,-9.858 -17.5,-15" fill="none" stroke="#000000" stroke-width="2" /></svg>