<?xml version='1.0' encoding='utf-8'?>
<svg xmlns="http://www.w3.org/2000/svg" height="100px" version="1.0" viewBox="0 0 100 100" width="100px" x="0px" y="0px">
<line fill="none" stroke="#000000" stroke-width="2" x1="61" x2="61" y1="14" y2="2" /><line fill="none" stroke="#000000" stroke-width="2" x1="36.5" x2="85" y1="87" y2="87" /><polyline fill="none" points="92,32 92,14 29.5,14 29.5,32.5" stroke="#000000" stroke-width="2" /><polyline fill="none" points="86,94 86,59 35.5,59 35.5,94" stroke="#000000" stroke-width="2" /><path d="M96,65 c-13.711,-9.356 -24.25,-18.646 -35,-30.8 c-10.75,12.154 -21.636,21.673 -35.5,30.8" fill="none" stroke="#000000" stroke-width="2" /><path d="M8,91.5 c6.24,-9.315 11.438,-19.819 15,-30.5" fill="none" stroke="#000000" stroke-width="2" /><path d="M25,22.5 c-4.551,-4.456 -9.955,-9.209 -16,-14" fill="none" stroke="#000000" stroke-width="2" /><path d="M21.5,45.5 c-5.014,-4.892 -10.751,-9.858 -17.5,-15" fill="none" stroke="#000000" stroke-width="2" /><path d="M52,19.5 c-5.283,9.354 -13.053,17.786 -23.5,25" fill="none" stroke="#000000" stroke-width="2" /><path d="M93,44 c-6.645,-8.3 -15.091,-16.972 -24.5,-25" fill="none" stroke="#000000" stroke-width="2" /></svg>