<?xml version='1.0' encoding='utf-8'?>
<svg xmlns="http://www.w3.org/2000/svg" height="100px" version="1.0" viewBox="0 0 100 100" width="100px" x="0px" y="0px">
<path d="M7.5,91.5 c6.188,-9.315 11.356,-19.845 15,-30.5" fill="none" stroke="#000000" stroke-width="2" /><path d="M23,22.5 c-4.127,-4.427 -9.06,-9.209 -14.5,-14" fill="none" stroke="#000000" stroke-width="2" /><path d="M20,45.5 c-4.589,-4.819 -9.926,-9.858 -16,-15" fill="none" stroke="#000000" stroke-width="2" /><path d="M26.5,82.5 c9.304,-3.587 17.676,-8.646 24.5,-14.5" fill="none" stroke="#000000" stroke-width="2" /><path d="M44.5,64.5 c-4.562,-3.566 -9.18,-6.833 -13.5,-9.5" fill="none" stroke="#000000" stroke-width="2" /><path d="M61.5,11 h30.5 v18.0 h-27.0 c-0.795,9.295 -2.212,18.24 -4,26" fill="none" stroke="#000000" stroke-width="2" /><path d="M27,11 h29.5 v18.0 h-26.0 c-0.795,9.295 -2.212,18.24 -4,26" fill="none" stroke="#000000" stroke-width="2" /><path d="M62.5,46.5 h30.0 c-2.494,42.262 -3.619,44 -9,44 c-2.694,0 -9.724,-0.478 -14.5,-1" fill="none" stroke="#000000" stroke-width="2" /><path d="M28,46.5 h29.0 c-2.494,42.262 -3.619,44 -9,44 c-2.694,0 -8.731,-0.411 -13.5,-1" fill="none" stroke="#000000" stroke-width="2" /><path d="M61,82.5 c9.492,-3.587 18.036,-8.646 25,-14.5" fill="none" stroke="#000000" stroke-width="2" /><path d="M80,64.5 c-4.9,-3.566 -9.859,-6.833 -14.5,-9.5" fill="none" stroke="#000000" stroke-width="2" /></svg>