<?xml version='1.0' encoding='utf-8'?>
<svg xmlns="http://www.w3.org/2000/svg" height="100px" version="1.0" viewBox="0 0 100 100" width="100px" x="0px" y="0px">
<line fill="none" stroke="#000000" stroke-width="2" x1="66" x2="37" y1="27" y2="27" /><path d="M8,91.5 c5.156,-9.315 9.464,-19.845 12.5,-30.5" fill="none" stroke="#000000" stroke-width="2" /><path d="M23.5,22.5 c-4.127,-4.427 -9.06,-9.209 -14.5,-14" fill="none" stroke="#000000" stroke-width="2" /><path d="M20.5,45.5 c-4.589,-4.819 -9.926,-9.858 -16,-15" fill="none" stroke="#000000" stroke-width="2" /><path d="M71,3.5 c0,51.433 12.834,87.5 18,87.5 c2.125,0 4.604,-4.644 6,-23" fill="none" stroke="#000000" stroke-width="2" /><path d="M90.5,31 c-5.895,30.089 -21.883,51.339 -42.5,60" fill="none" stroke="#000000" stroke-width="2" /><path d="M76,3 c5.389,2.864 10.938,6.347 16,10" fill="none" stroke="#000000" stroke-width="2" /><path d="M23,91.5 c5.376,-14.052 8,-29.832 8,-51 V17.0 h63.0" fill="none" stroke="#000000" stroke-width="2" /><path d="M64.5,75.5 c-3.983,-5.214 -9.466,-11.125 -15,-16" fill="none" stroke="#000000" stroke-width="2" /><path d="M41,37 c0,8.621 -1.636,16.074 -4.5,22" fill="none" stroke="#000000" stroke-width="2" /><path d="M65.5,36 c-2.094,7.858 -5.521,14.556 -10,20" fill="none" stroke="#000000" stroke-width="2" /><path d="M33,88 c9.909,-6.532 17,-19.56 17,-36 v-21.0" fill="none" stroke="#000000" stroke-width="2" /></svg>