<?xml version='1.0' encoding='utf-8'?>
<svg xmlns="http://www.w3.org/2000/svg" height="100px" version="1.0" viewBox="0 0 100 100" width="100px" x="0px" y="0px">
<line fill="none" stroke="#000000" stroke-width="2" x1="61.5" x2="61.5" y1="60" y2="39.5" /><line fill="none" stroke="#000000" stroke-width="2" x1="93.5" x2="29.5" y1="60" y2="60" /><line fill="none" stroke="#000000" stroke-width="2" x1="36" x2="87" y1="23.5" y2="23.5" /><polyline fill="none" points="36,38.5 88,38.5 88,10 35,10 35,39.5" stroke="#000000" stroke-width="2" /><path d="M49,60 c-3.186,-6.046 -6.66,-11.962 -10,-17" fill="none" stroke="#000000" stroke-width="2" /><path d="M74,60 c4.004,-5.408 7.629,-11.567 10,-17" fill="none" stroke="#000000" stroke-width="2" /><path d="M70,60 v24.5 c0,6.046 0.627,6.5 11,6.5 c11.707,0 11.996,-0.282 12.5,-17.5" fill="none" stroke="#000000" stroke-width="2" /><path d="M27,92 c18.16,-5.109 26.059,-14.4 27,-32" fill="none" stroke="#000000" stroke-width="2" /><path d="M8,91.5 c7.072,-9.315 12.963,-19.819 17,-30.5" fill="none" stroke="#000000" stroke-width="2" /><path d="M25,22.5 c-4.551,-4.456 -9.955,-9.209 -16,-14" fill="none" stroke="#000000" stroke-width="2" /><path d="M21.5,45.5 c-5.014,-4.892 -10.751,-9.858 -17.5,-15" fill="none" stroke="#000000" stroke-width="2" /></svg>