<?xml version='1.0' encoding='utf-8'?>
<svg xmlns="http://www.w3.org/2000/svg" height="100px" version="1.0" viewBox="0 0 100 100" width="100px" x="0px" y="0px">
<line fill="none" stroke="#000000" stroke-width="2" x1="27.5" x2="95.5" y1="18.5" y2="18.5" /><line fill="none" stroke="#000000" stroke-width="2" x1="94.5" x2="63" y1="85.5" y2="89" /><line fill="none" stroke="#000000" stroke-width="2" x1="61.5" x2="23.5" y1="85.5" y2="89.5" /><path d="M8.5,91.5 c6.188,-9.315 11.356,-19.845 15,-30.5" fill="none" stroke="#000000" stroke-width="2" /><path d="M24,22.5 c-4.127,-4.427 -9.06,-9.209 -14.5,-14" fill="none" stroke="#000000" stroke-width="2" /><path d="M21,45.5 c-4.589,-4.819 -9.926,-9.858 -16,-15" fill="none" stroke="#000000" stroke-width="2" /><path d="M51,18.5 c-2.23,-4.979 -4.661,-9.85 -7,-14" fill="none" stroke="#000000" stroke-width="2" /><path d="M71,18.5 c2.644,-4.613 5.159,-9.644 7,-14" fill="none" stroke="#000000" stroke-width="2" /><path d="M96.5,93.5 c-2.621,-10.005 -6.584,-23.115 -10,-33" fill="none" stroke="#000000" stroke-width="2" /><path d="M66.5,88.5 c9.347,-17.369 17.608,-35.305 25,-54.5" fill="none" stroke="#000000" stroke-width="2" /><path d="M45,66.5 c-5.739,-8.065 -12.678,-17.407 -19,-25.5" fill="none" stroke="#000000" stroke-width="2" /><path d="M64,93.5 c-2.621,-10.005 -6.584,-23.115 -10,-33" fill="none" stroke="#000000" stroke-width="2" /><path d="M34,88.5 c9.347,-17.369 17.608,-35.305 25,-54.5" fill="none" stroke="#000000" stroke-width="2" /><path d="M33,50 c4.832,-9.745 8.791,-19.046 12.5,-29.5" fill="none" stroke="#000000" stroke-width="2" /><path d="M77.5,66.5 c-5.438,-7.749 -12.01,-16.726 -18,-24.5" fill="none" stroke="#000000" stroke-width="2" /><path d="M65.5,50 c4.832,-9.745 8.791,-19.046 12.5,-29.5" fill="none" stroke="#000000" stroke-width="2" /></svg>