<?xml version='1.0' encoding='utf-8'?>
<svg xmlns="http://www.w3.org/2000/svg" height="100px" version="1.0" viewBox="0 0 100 100" width="100px" x="0px" y="0px">
<line fill="none" stroke="#000000" stroke-width="2" x1="25" x2="96" y1="34" y2="34" /><line fill="none" stroke="#000000" stroke-width="2" x1="29" x2="92" y1="14" y2="14" /><line fill="none" stroke="#000000" stroke-width="2" x1="60.5" x2="60.5" y1="14" y2="3" /><line fill="none" stroke="#000000" stroke-width="2" x1="34.5" x2="86.5" y1="59.5" y2="59.5" /><line fill="none" stroke="#000000" stroke-width="2" x1="86.5" x2="34.5" y1="76" y2="76" /><polyline fill="none" points="33.5,84 33.5,43.5 87.5,43.5 87.5,77" stroke="#000000" stroke-width="2" /><path d="M9,91.5 c7.072,-9.315 12.963,-19.819 17,-30.5" fill="none" stroke="#000000" stroke-width="2" /><path d="M25,22.5 c-4.551,-4.456 -9.955,-9.209 -16,-14" fill="none" stroke="#000000" stroke-width="2" /><path d="M22.5,45.5 c-5.014,-4.892 -10.751,-9.858 -17.5,-15" fill="none" stroke="#000000" stroke-width="2" /><path d="M69.5,34 c4.252,-5.647 7.639,-12.424 10,-20" fill="none" stroke="#000000" stroke-width="2" /><path d="M50.5,34 c-2.873,-6.776 -6.158,-13.381 -10,-20" fill="none" stroke="#000000" stroke-width="2" /><path d="M95.5,72 c-1.099,19.268 -1.343,19.5 -20,19.5 c-14.682,0 -15,-0.303 -15,-9 v-38.0" fill="none" stroke="#000000" stroke-width="2" /></svg>