<?xml version='1.0' encoding='utf-8'?>
<svg xmlns="http://www.w3.org/2000/svg" height="100px" version="1.0" viewBox="0 0 100 100" width="100px" x="0px" y="0px">
<line fill="none" stroke="#000000" stroke-width="2" x1="32" x2="94" y1="36.5" y2="36.5" /><line fill="none" stroke="#000000" stroke-width="2" x1="65" x2="65" y1="91" y2="36.5" /><path d="M23,91 c6.048,-14.052 9,-29.832 9,-51 v-30.0 h59.5 v15.5 H33.0" fill="none" stroke="#000000" stroke-width="2" /><path d="M7,91.5 c7.072,-9.315 12.963,-19.819 17,-30.5" fill="none" stroke="#000000" stroke-width="2" /><path d="M24,22.5 c-4.551,-4.456 -9.955,-9.209 -16,-14" fill="none" stroke="#000000" stroke-width="2" /><path d="M20.5,45.5 c-5.014,-4.892 -10.751,-9.858 -17.5,-15" fill="none" stroke="#000000" stroke-width="2" /><path d="M76.5,90 c4.859,0.346 8.363,0.5 10,0.5 c4.436,0 5,-0.59 5,-5.5 v-37.5 h-53.0 v44.5" fill="none" stroke="#000000" stroke-width="2" /><path d="M59.5,66 c-5.116,-4.146 -10.452,-7.96 -15.5,-11" fill="none" stroke="#000000" stroke-width="2" /><path d="M59.5,81.5 c-5.116,-4.146 -10.452,-7.96 -15.5,-11" fill="none" stroke="#000000" stroke-width="2" /><path d="M86,66 c-5.116,-4.146 -10.452,-7.96 -15.5,-11" fill="none" stroke="#000000" stroke-width="2" /><path d="M86,81.5 c-5.116,-4.146 -10.452,-7.96 -15.5,-11" fill="none" stroke="#000000" stroke-width="2" /></svg>