<?xml version='1.0' encoding='utf-8'?>
<svg xmlns="http://www.w3.org/2000/svg" height="100px" version="1.0" viewBox="0 0 100 100" width="100px" x="0px" y="0px">
<line fill="none" stroke="#000000" stroke-width="2" x1="26.5" x2="95.5" y1="68.5" y2="68.5" /><line fill="none" stroke="#000000" stroke-width="2" x1="27.5" x2="94" y1="15.5" y2="15.5" /><line fill="none" stroke="#000000" stroke-width="2" x1="46.5" x2="46.5" y1="25.5" y2="4.5" /><line fill="none" stroke="#000000" stroke-width="2" x1="75.5" x2="75.5" y1="25.5" y2="4.5" /><line fill="none" stroke="#000000" stroke-width="2" x1="34.5" x2="87.5" y1="41.5" y2="41.5" /><polyline fill="none" points="34.5,57.5 88.5,57.5 88.5,26.5 33.5,26.5 33.5,58.5" stroke="#000000" stroke-width="2" /><path d="M8,91.5 c7.072,-9.315 12.963,-19.819 17,-30.5" fill="none" stroke="#000000" stroke-width="2" /><path d="M25,22.5 c-4.551,-4.456 -9.955,-9.209 -16,-14" fill="none" stroke="#000000" stroke-width="2" /><path d="M21.5,45.5 c-5.014,-4.892 -10.751,-9.858 -17.5,-15" fill="none" stroke="#000000" stroke-width="2" /><path d="M26,92.5 c20.766,-3.587 35,-15.383 35,-25 v-9.0" fill="none" stroke="#000000" stroke-width="2" /><path d="M94.5,92.5 c-19.751,-3.564 -33.5,-15.256 -33.5,-25" fill="none" stroke="#000000" stroke-width="2" /></svg>