<?xml version='1.0' encoding='utf-8'?>
<svg xmlns="http://www.w3.org/2000/svg" height="100px" version="1.0" viewBox="0 0 100 100" width="100px" x="0px" y="0px">
<line fill="none" stroke="#000000" stroke-width="2" x1="66" x2="87.5" y1="27.5" y2="27.5" /><line fill="none" stroke="#000000" stroke-width="2" x1="35" x2="56.5" y1="27.5" y2="27.5" /><path d="M8.5,91.5 c7.072,-9.315 12.963,-19.819 17,-30.5" fill="none" stroke="#000000" stroke-width="2" /><path d="M26.5,22.5 c-4.551,-4.456 -9.955,-9.209 -16,-14" fill="none" stroke="#000000" stroke-width="2" /><path d="M22,45.5 c-5.014,-4.892 -10.751,-9.858 -17.5,-15" fill="none" stroke="#000000" stroke-width="2" /><path d="M64,11.5 h24.5 v33.0 H34.0 v-31.0 c8.932,-1.325 17.035,-3.591 24,-6.5" fill="none" stroke="#000000" stroke-width="2" /><path d="M41,57.5 h52.0 c0,28.757 -3.117,33.5 -11,33.5 c-3.279,0 -8.379,-0.161 -14,-0.5" fill="none" stroke="#000000" stroke-width="2" /><path d="M29,67.5 c8.532,-5.501 18.023,-15.556 22,-23" fill="none" stroke="#000000" stroke-width="2" /><path d="M85.5,77 c-1.74,-4.469 -3.701,-9.208 -6,-14.5" fill="none" stroke="#000000" stroke-width="2" /><path d="M70,82 c-1.189,-5.478 -2.643,-11.254 -4.5,-17.75" fill="none" stroke="#000000" stroke-width="2" /><path d="M54.5,87 c-0.639,-6.487 -1.585,-13.3 -3,-21" fill="none" stroke="#000000" stroke-width="2" /><path d="M33.5,90 c2.822,-7.073 5.316,-14.907 7.5,-24" fill="none" stroke="#000000" stroke-width="2" /></svg>