<?xml version='1.0' encoding='utf-8'?>
<svg xmlns="http://www.w3.org/2000/svg" height="100px" version="1.0" viewBox="0 0 100 100" width="100px" x="0px" y="0px">
<line fill="none" stroke="#000000" stroke-width="2" x1="61.5" x2="93.5" y1="40.5" y2="40.5" /><line fill="none" stroke="#000000" stroke-width="2" x1="93.5" x2="61.5" y1="66" y2="66" /><line fill="none" stroke="#000000" stroke-width="2" x1="50" x2="96.5" y1="16" y2="16" /><line fill="none" stroke="#000000" stroke-width="2" x1="61.5" x2="61.5" y1="94" y2="16" /><path d="M37,45 c6.868,-10.96 12.561,-24.955 16,-40" fill="none" stroke="#000000" stroke-width="2" /><path d="M39.5,87.5 c-5.543,-11.133 -13.102,-23.239 -21,-33.5" fill="none" stroke="#000000" stroke-width="2" /><path d="M10,20 c0,13.128 -1.636,24.476 -4.5,33.5" fill="none" stroke="#000000" stroke-width="2" /><path d="M35.5,19.5 c-2.094,12.181 -5.521,22.562 -10,31" fill="none" stroke="#000000" stroke-width="2" /><path d="M5,91 c8.744,-10.161 15,-30.425 15,-56 v-28.0" fill="none" stroke="#000000" stroke-width="2" /></svg>