<?xml version='1.0' encoding='utf-8'?>
<svg xmlns="http://www.w3.org/2000/svg" height="100px" version="1.0" viewBox="0 0 100 100" width="100px" x="0px" y="0px">
<line fill="none" stroke="#000000" stroke-width="2" x1="46" x2="88" y1="86" y2="86" /><line fill="none" stroke="#000000" stroke-width="2" x1="52.5" x2="90.5" y1="15" y2="15" /><polyline fill="none" points="45,93 45,56 89,56 89,93" stroke="#000000" stroke-width="2" /><path d="M36,87.5 c-4.619,-11.133 -10.918,-23.239 -17.5,-33.5" fill="none" stroke="#000000" stroke-width="2" /><path d="M37,32 c9.551,-8.159 16.678,-17.007 22,-27" fill="none" stroke="#000000" stroke-width="2" /><path d="M89.635,15.498 c-10.389,17.891 -27.521,31.023 -54.635,40.002" fill="none" stroke="#000000" stroke-width="2" /><path d="M49,20 c11.493,14.431 27.342,26.404 47.5,35.5" fill="none" stroke="#000000" stroke-width="2" /><path d="M10,20 c0,13.128 -1.636,24.476 -4.5,33.5" fill="none" stroke="#000000" stroke-width="2" /><path d="M35.5,19.5 c-2.094,12.181 -5.521,22.562 -10,31" fill="none" stroke="#000000" stroke-width="2" /><path d="M5,91 c8.744,-10.161 15,-30.425 15,-56 v-28.0" fill="none" stroke="#000000" stroke-width="2" /></svg>