<?xml version='1.0' encoding='utf-8'?>
<svg xmlns="http://www.w3.org/2000/svg" height="100px" version="1.0" viewBox="0 0 100 100" width="100px" x="0px" y="0px">
<line fill="none" stroke="#000000" stroke-width="2" x1="38.5" x2="38.5" y1="94" y2="39" /><line fill="none" stroke="#000000" stroke-width="2" x1="52" x2="91" y1="88" y2="88" /><line fill="none" stroke="#000000" stroke-width="2" x1="52" x2="91" y1="63.5" y2="63.5" /><line fill="none" stroke="#000000" stroke-width="2" x1="56" x2="90.5" y1="11" y2="11" /><polyline fill="none" points="92,94 92,40 51,40 51,94" stroke="#000000" stroke-width="2" /><path d="M72,40 c6.498,-8.506 12.814,-18.775 17.604,-28.444" fill="none" stroke="#000000" stroke-width="2" /><path d="M36.5,35.5 c10.482,-9.517 18.507,-20.492 24,-33" fill="none" stroke="#000000" stroke-width="2" /><path d="M35,87.5 c-4.355,-11.133 -10.295,-23.239 -16.5,-33.5" fill="none" stroke="#000000" stroke-width="2" /><path d="M10,20 c0,13.128 -1.636,24.476 -4.5,33.5" fill="none" stroke="#000000" stroke-width="2" /><path d="M35,19.5 c-2.094,12.181 -5.521,22.562 -10,31" fill="none" stroke="#000000" stroke-width="2" /><path d="M5,91 c8.744,-10.161 15,-30.425 15,-56 v-28.0" fill="none" stroke="#000000" stroke-width="2" /></svg>