<?xml version='1.0' encoding='utf-8'?>
<svg xmlns="http://www.w3.org/2000/svg" height="100px" version="1.0" viewBox="0 0 100 100" width="100px" x="0px" y="0px">
<line fill="none" stroke="#000000" stroke-width="2" x1="51" x2="51" y1="63" y2="17" /><line fill="none" stroke="#000000" stroke-width="2" x1="87" x2="17" y1="16" y2="16" /><line fill="none" stroke="#000000" stroke-width="2" x1="18" x2="84" y1="32" y2="32" /><line fill="none" stroke="#000000" stroke-width="2" x1="18" x2="84" y1="48" y2="48" /><polyline fill="none" points="17,16 17,64 87,64" stroke="#000000" stroke-width="2" /><path d="M5,32.5 c8.145,-8.835 13.609,-17.761 17,-27.5" fill="none" stroke="#000000" stroke-width="2" /><path d="M56.5,5 c-1.955,4.184 -3.587,7.183 -6,11" fill="none" stroke="#000000" stroke-width="2" /><path d="M92,92 c-4.17,-6.97 -9.068,-14.214 -15,-22" fill="none" stroke="#000000" stroke-width="2" /><path d="M67,92.5 c-2.486,-6.864 -5.578,-14.101 -9.5,-22" fill="none" stroke="#000000" stroke-width="2" /><path d="M42,93 c-0.803,-6.759 -2.088,-13.988 -4,-22" fill="none" stroke="#000000" stroke-width="2" /><path d="M8,92.5 c5.24,-6.205 10.214,-13.462 15,-22" fill="none" stroke="#000000" stroke-width="2" /></svg>