<?xml version='1.0' encoding='utf-8'?>
<svg xmlns="http://www.w3.org/2000/svg" height="100px" version="1.0" viewBox="0 0 100 100" width="100px" x="0px" y="0px">
<line fill="none" stroke="#000000" stroke-width="2" x1="95" x2="29.5" y1="11" y2="11" /><line fill="none" stroke="#000000" stroke-width="2" x1="72" x2="72" y1="12" y2="51.5" /><line fill="none" stroke="#000000" stroke-width="2" x1="53" x2="53" y1="12" y2="51.5" /><line fill="none" stroke="#000000" stroke-width="2" x1="95" x2="27" y1="89" y2="89" /><line fill="none" stroke="#000000" stroke-width="2" x1="91" x2="34" y1="68.5" y2="68.5" /><line fill="none" stroke="#000000" stroke-width="2" x1="62.5" x2="62.5" y1="89" y2="53.5" /><polyline fill="none" points="34,53.5 34,27.5 91,27.5 91,52.5 35,52.5" stroke="#000000" stroke-width="2" /><path d="M30.5,82 c-3.42,-9.306 -8.124,-19.425 -13,-28" fill="none" stroke="#000000" stroke-width="2" /><path d="M9.5,20 c0,13.128 -1.453,24.476 -4,33.5" fill="none" stroke="#000000" stroke-width="2" /><path d="M32.5,17.5 c-2.094,12.181 -5.521,22.562 -10,31" fill="none" stroke="#000000" stroke-width="2" /><path d="M5,91 c7.869,-10.161 13.5,-30.425 13.5,-56 v-28.0" fill="none" stroke="#000000" stroke-width="2" /></svg>