<?xml version='1.0' encoding='utf-8'?>
<svg xmlns="http://www.w3.org/2000/svg" height="100px" version="1.0" viewBox="0 0 100 100" width="100px" x="0px" y="0px">
<line fill="none" stroke="#000000" stroke-width="2" x1="45.5" x2="83.5" y1="32.5" y2="32.5" /><line fill="none" stroke="#000000" stroke-width="2" x1="95.5" x2="33.5" y1="62" y2="62" /><line fill="none" stroke="#000000" stroke-width="2" x1="95.5" x2="33.5" y1="15" y2="15" /><line fill="none" stroke="#000000" stroke-width="2" x1="64.5" x2="64.5" y1="94" y2="52.5" /><polyline fill="none" points="44.5,6 44.5,51.5 84.5,51.5 84.5,6" stroke="#000000" stroke-width="2" /><path d="M35.77,82.14 c-4.412,-9.352 -10.48,-19.521 -16.77,-28.14" fill="none" stroke="#000000" stroke-width="2" /><path d="M10,20 c0,13.128 -1.636,24.476 -4.5,33.5" fill="none" stroke="#000000" stroke-width="2" /><path d="M35.5,19.5 c-2.094,12.181 -5.521,22.562 -10,31" fill="none" stroke="#000000" stroke-width="2" /><path d="M5,91 c8.744,-10.161 15,-30.425 15,-56 v-28.0" fill="none" stroke="#000000" stroke-width="2" /><path d="M32.5,91 c15.096,-9.494 24.799,-18.798 31,-29" fill="none" stroke="#000000" stroke-width="2" /><path d="M96.5,91 c-15.096,-9.494 -24.799,-18.798 -31,-29" fill="none" stroke="#000000" stroke-width="2" /></svg>