<?xml version='1.0' encoding='utf-8'?>
<svg xmlns="http://www.w3.org/2000/svg" height="100px" version="1.0" viewBox="0 0 100 100" width="100px" x="0px" y="0px">
<line fill="none" stroke="#000000" stroke-width="2" x1="62.5" x2="62.5" y1="14" y2="2" /><line fill="none" stroke="#000000" stroke-width="2" x1="39" x2="86" y1="87" y2="87" /><polyline fill="none" points="92,32 92,14 33,14 33,32.5" stroke="#000000" stroke-width="2" /><polyline fill="none" points="87,94 87,59 38,59 38,94" stroke="#000000" stroke-width="2" /><path d="M96,65 c-13.03,-9.356 -23.241,-18.681 -33.5,-30.8 c-10.131,12.225 -20.324,21.673 -33.5,30.8" fill="none" stroke="#000000" stroke-width="2" /><path d="M54.5,19.5 c-5.171,9.354 -12.813,17.732 -23,25" fill="none" stroke="#000000" stroke-width="2" /><path d="M93.5,44 c-6.509,-8.3 -14.783,-16.972 -24,-25" fill="none" stroke="#000000" stroke-width="2" /><path d="M30.5,82 c-3.42,-9.306 -8.124,-19.425 -13,-28" fill="none" stroke="#000000" stroke-width="2" /><path d="M9.5,20 c0,13.128 -1.453,24.476 -4,33.5" fill="none" stroke="#000000" stroke-width="2" /><path d="M29.5,24.5 c-1.705,9.053 -4.137,17.288 -7,24" fill="none" stroke="#000000" stroke-width="2" /><path d="M5,91 c7.869,-10.161 13.5,-30.425 13.5,-56 v-28.0" fill="none" stroke="#000000" stroke-width="2" /></svg>