<?xml version='1.0' encoding='utf-8'?>
<svg xmlns="http://www.w3.org/2000/svg" height="100px" version="1.0" viewBox="0 0 100 100" width="100px" x="0px" y="0px">
<line fill="none" stroke="#000000" stroke-width="2" x1="63.5" x2="63.5" y1="11" y2="89.5" /><line fill="none" stroke="#000000" stroke-width="2" x1="38" x2="89" y1="29.5" y2="29.5" /><line fill="none" stroke="#000000" stroke-width="2" x1="29" x2="95" y1="89" y2="89" /><line fill="none" stroke="#000000" stroke-width="2" x1="93" x2="35" y1="68" y2="68" /><polyline fill="none" points="38,50 90,50 90,10 37,10 37,51" stroke="#000000" stroke-width="2" /><path d="M12.5,8 c9.348,15.786 14,33.95 14,56.5 c0,19.396 -4.178,26.5 -8.5,26.5 c-2.443,0 -6.626,-0.706 -11,-2" fill="none" stroke="#000000" stroke-width="2" /><path d="M33.5,6 c-7.71,10.59 -17.906,19.975 -29,26.5" fill="none" stroke="#000000" stroke-width="2" /><path d="M25,44 c-5.32,7.003 -12.523,13.385 -20.5,18" fill="none" stroke="#000000" stroke-width="2" /></svg>