<?xml version='1.0' encoding='utf-8'?>
<svg xmlns="http://www.w3.org/2000/svg" height="100px" version="1.0" viewBox="0 0 100 100" width="100px" x="0px" y="0px">
<line fill="none" stroke="#000000" stroke-width="2" x1="37" x2="90" y1="61.5" y2="61.5" /><line fill="none" stroke="#000000" stroke-width="2" x1="63.5" x2="63.5" y1="86" y2="38" /><line fill="none" stroke="#000000" stroke-width="2" x1="32" x2="95" y1="17.5" y2="17.5" /><line fill="none" stroke="#000000" stroke-width="2" x1="48.5" x2="48.5" y1="31" y2="4" /><line fill="none" stroke="#000000" stroke-width="2" x1="78.5" x2="78.5" y1="31" y2="4" /><line fill="none" stroke="#000000" stroke-width="2" x1="37" x2="90" y1="87" y2="87" /><polyline fill="none" points="91,94 91,37 36,37 36,94" stroke="#000000" stroke-width="2" /><path d="M12.5,8 c9.348,15.786 14,33.95 14,56.5 c0,19.396 -4.178,26.5 -8.5,26.5 c-2.443,0 -6.626,-0.706 -11,-2" fill="none" stroke="#000000" stroke-width="2" /><path d="M33.5,6 c-7.71,10.59 -17.906,19.975 -29,26.5" fill="none" stroke="#000000" stroke-width="2" /><path d="M25,44 c-5.32,7.003 -12.523,13.385 -20.5,18" fill="none" stroke="#000000" stroke-width="2" /></svg>