<?xml version='1.0' encoding='utf-8'?>
<svg xmlns="http://www.w3.org/2000/svg" height="100px" version="1.0" viewBox="0 0 100 100" width="100px" x="0px" y="0px">
<line fill="none" stroke="#000000" stroke-width="2" x1="61.5" x2="61.5" y1="27" y2="4" /><line fill="none" stroke="#000000" stroke-width="2" x1="33.5" x2="90.5" y1="13" y2="13" /><line fill="none" stroke="#000000" stroke-width="2" x1="27.5" x2="95.5" y1="27" y2="27" /><line fill="none" stroke="#000000" stroke-width="2" x1="46.5" x2="46.5" y1="89" y2="66.5" /><polyline fill="none" points="37,56.5 87,56.5 87,36 36,36 36,57.5" stroke="#000000" stroke-width="2" /><path d="M12,8 c9.348,15.786 14,33.95 14,56.5 c0,19.396 -4.178,26.5 -8.5,26.5 c-2.443,0 -6.626,-0.706 -11,-2" fill="none" stroke="#000000" stroke-width="2" /><path d="M33,6 c-7.71,10.59 -17.906,19.975 -29,26.5" fill="none" stroke="#000000" stroke-width="2" /><path d="M24.5,44 c-5.32,7.003 -12.523,13.385 -20.5,18" fill="none" stroke="#000000" stroke-width="2" /><path d="M73.5,76 c7.165,-5.362 13.505,-11.576 19,-18.5" fill="none" stroke="#000000" stroke-width="2" /><path d="M60.5,56.5 c-7.949,7.419 -19.412,14.067 -35,19.5" fill="none" stroke="#000000" stroke-width="2" /><path d="M62.5,56.5 c5.855,16.901 18.283,30.114 33,36" fill="none" stroke="#000000" stroke-width="2" /><path d="M30.5,92.5 c13.082,-2.324 24.491,-5.313 38,-10" fill="none" stroke="#000000" stroke-width="2" /></svg>