<?xml version='1.0' encoding='utf-8'?>
<svg xmlns="http://www.w3.org/2000/svg" height="100px" version="1.0" viewBox="0 0 100 100" width="100px" x="0px" y="0px">
<line fill="none" stroke="#000000" stroke-width="2" x1="30" x2="96" y1="68.5" y2="68.5" /><line fill="none" stroke="#000000" stroke-width="2" x1="31" x2="94.5" y1="15.5" y2="15.5" /><line fill="none" stroke="#000000" stroke-width="2" x1="50" x2="50" y1="25.5" y2="4.5" /><line fill="none" stroke="#000000" stroke-width="2" x1="76" x2="76" y1="25.5" y2="4.5" /><line fill="none" stroke="#000000" stroke-width="2" x1="38" x2="88" y1="41.5" y2="41.5" /><polyline fill="none" points="38,57.5 89,57.5 89,26.5 37,26.5 37,58.5" stroke="#000000" stroke-width="2" /><path d="M28,92.5 c20.766,-3.587 35,-15.383 35,-25 v-9.0" fill="none" stroke="#000000" stroke-width="2" /><path d="M95,92.5 c-18.455,-3.382 -32,-15.438 -32,-25" fill="none" stroke="#000000" stroke-width="2" /><path d="M12,8 c9.348,15.786 14,33.95 14,56.5 c0,19.396 -4.178,26.5 -8.5,26.5 c-2.443,0 -6.626,-0.706 -11,-2" fill="none" stroke="#000000" stroke-width="2" /><path d="M33,6 c-7.71,10.59 -17.906,19.975 -29,26.5" fill="none" stroke="#000000" stroke-width="2" /><path d="M24.5,44 c-5.32,7.003 -12.523,13.385 -20.5,18" fill="none" stroke="#000000" stroke-width="2" /></svg>