<?xml version='1.0' encoding='utf-8'?>
<svg xmlns="http://www.w3.org/2000/svg" height="100px" version="1.0" viewBox="0 0 100 100" width="100px" x="0px" y="0px">
<line fill="none" stroke="#000000" stroke-width="2" x1="82.5" x2="44" y1="31.5" y2="31.5" /><line fill="none" stroke="#000000" stroke-width="2" x1="58.5" x2="58.5" y1="94" y2="50" /><line fill="none" stroke="#000000" stroke-width="2" x1="33" x2="4" y1="12.5" y2="12.5" /><line fill="none" stroke="#000000" stroke-width="2" x1="31" x2="5" y1="45.5" y2="45.5" /><line fill="none" stroke="#000000" stroke-width="2" x1="18" x2="18" y1="82" y2="13.5" /><path d="M95.5,36 c-12.178,-9.226 -23.166,-19.417 -33,-30.8 c-9.75,12.342 -19.458,22.008 -32,31.8" fill="none" stroke="#000000" stroke-width="2" /><path d="M32,50 h57.5 v26.0 c0,7.636 -0.319,8 -5,8 c-1.438,0 -7.535,-0.225 -12.5,-0.5" fill="none" stroke="#000000" stroke-width="2" /><path d="M4,87 c10.043,-3.375 18.778,-6.873 30,-12" fill="none" stroke="#000000" stroke-width="2" /></svg>