<?xml version='1.0' encoding='utf-8'?>
<svg xmlns="http://www.w3.org/2000/svg" height="100px" version="1.0" viewBox="0 0 100 100" width="100px" x="0px" y="0px">
<line fill="none" stroke="#000000" stroke-width="2" x1="95.5" x2="46" y1="19.5" y2="19.5" /><line fill="none" stroke="#000000" stroke-width="2" x1="35" x2="4" y1="12.5" y2="12.5" /><line fill="none" stroke="#000000" stroke-width="2" x1="33" x2="5" y1="46.5" y2="46.5" /><line fill="none" stroke="#000000" stroke-width="2" x1="19" x2="19" y1="83.5" y2="13.5" /><path d="M69.5,19.5 v64.5 c0,7.385 -0.594,8 -6,8 c-2.565,0 -6.678,-0.164 -12,-0.5" fill="none" stroke="#000000" stroke-width="2" /><path d="M37.5,82 c7.84,-12.223 14.22,-27.864 18,-44.5" fill="none" stroke="#000000" stroke-width="2" /><path d="M97,83.5 c-3.996,-15.282 -9.171,-31.308 -15,-46" fill="none" stroke="#000000" stroke-width="2" /><path d="M36.5,40.5 c6.047,-9.923 11,-22.503 14,-36" fill="none" stroke="#000000" stroke-width="2" /><path d="M4,89 c10.378,-3.656 19.404,-7.446 31,-13" fill="none" stroke="#000000" stroke-width="2" /></svg>