<?xml version='1.0' encoding='utf-8'?>
<svg xmlns="http://www.w3.org/2000/svg" height="100px" version="1.0" viewBox="0 0 100 100" width="100px" x="0px" y="0px">
<line fill="none" stroke="#000000" stroke-width="2" x1="42.5" x2="87.5" y1="86" y2="86" /><line fill="none" stroke="#000000" stroke-width="2" x1="49.5" x2="90" y1="15" y2="15" /><line fill="none" stroke="#000000" stroke-width="2" x1="34" x2="4" y1="12.5" y2="12.5" /><line fill="none" stroke="#000000" stroke-width="2" x1="32" x2="5" y1="44.5" y2="44.5" /><line fill="none" stroke="#000000" stroke-width="2" x1="18.5" x2="18.5" y1="81.5" y2="13.5" /><polyline fill="none" points="41.5,93 41.5,56 88.5,56 88.5,93" stroke="#000000" stroke-width="2" /><path d="M32.5,32.5 c10.066,-8.171 17.764,-17.269 23.5,-27.5" fill="none" stroke="#000000" stroke-width="2" /><path d="M89.139,15.49 c-10.375,17.515 -28.477,31.239 -57.639,40.51" fill="none" stroke="#000000" stroke-width="2" /><path d="M45.5,20 c12.729,14.72 29.824,26.592 51,35.5" fill="none" stroke="#000000" stroke-width="2" /><path d="M4,87 c10.043,-3.375 18.778,-6.873 30,-12" fill="none" stroke="#000000" stroke-width="2" /></svg>