<?xml version='1.0' encoding='utf-8'?>
<svg xmlns="http://www.w3.org/2000/svg" height="100px" version="1.0" viewBox="0 0 100 100" width="100px" x="0px" y="0px">
<line fill="none" stroke="#000000" stroke-width="2" x1="4" x2="46" y1="54" y2="54" /><line fill="none" stroke="#000000" stroke-width="2" x1="5.5" x2="45.5" y1="24" y2="24" /><line fill="none" stroke="#000000" stroke-width="2" x1="35.5" x2="35.5" y1="93" y2="25" /><line fill="none" stroke="#000000" stroke-width="2" x1="94.5" x2="42.5" y1="12.5" y2="12.5" /><path d="M20,20.5 c-1.906,-5.692 -3.995,-11.258 -6,-16" fill="none" stroke="#000000" stroke-width="2" /><path d="M32,24 c2.266,-6.426 4.414,-13.44 6,-19.5" fill="none" stroke="#000000" stroke-width="2" /><path d="M7.5,93 c8.32,-13.278 10.5,-23.14 10.5,-59.5 v-8.5" fill="none" stroke="#000000" stroke-width="2" /><path d="M55.5,12.5 c-1.556,28.326 -4.416,52.456 -9,76.5" fill="none" stroke="#000000" stroke-width="2" /><path d="M54,32 h28.0 v52.5 c0,5.188 0.279,5.5 6.5,5.5 c6.693,0 6.979,-0.37 8,-28" fill="none" stroke="#000000" stroke-width="2" /><path d="M39,90.5 c18.035,-3.374 33.797,-7.958 43,-12" fill="none" stroke="#000000" stroke-width="2" /><path d="M72,69 c-3.824,-9.247 -7.99,-18.293 -12,-26" fill="none" stroke="#000000" stroke-width="2" /></svg>