<?xml version='1.0' encoding='utf-8'?>
<svg xmlns="http://www.w3.org/2000/svg" height="100px" version="1.0" viewBox="0 0 100 100" width="100px" x="0px" y="0px">
<line fill="none" stroke="#000000" stroke-width="2" x1="39" x2="93.5" y1="15" y2="15" /><line fill="none" stroke="#000000" stroke-width="2" x1="45" x2="45" y1="87" y2="55" /><line fill="none" stroke="#000000" stroke-width="2" x1="33.5" x2="96" y1="46" y2="46" /><line fill="none" stroke="#000000" stroke-width="2" x1="21.5" x2="21.5" y1="82.5" y2="12.5" /><line fill="none" stroke="#000000" stroke-width="2" x1="9.5" x2="33.5" y1="46" y2="46" /><polyline fill="none" points="46,56 74,56 74,79 46,79" stroke="#000000" stroke-width="2" /><polyline fill="none" points="9.5,83.5 34.5,83.5 34.5,11.5 8.5,11.5 8.5,91.5" stroke="#000000" stroke-width="2" /><path d="M38,41 c17.597,-4.44 28,-17.106 28,-37" fill="none" stroke="#000000" stroke-width="2" /><path d="M94,42 c-8.801,-6.854 -21.146,-14.769 -31.5,-20" fill="none" stroke="#000000" stroke-width="2" /><path d="M86.5,46 v37.0 c0,7.253 -0.74,8 -6.5,8 c-2.186,0 -5.52,-0.121 -12,-0.5" fill="none" stroke="#000000" stroke-width="2" /></svg>