<?xml version='1.0' encoding='utf-8'?>
<svg xmlns="http://www.w3.org/2000/svg" height="100px" version="1.0" viewBox="0 0 100 100" width="100px" x="0px" y="0px">
<line fill="none" stroke="#000000" stroke-width="2" x1="56.5" x2="56.5" y1="13" y2="3" /><line fill="none" stroke="#000000" stroke-width="2" x1="26.5" x2="87" y1="52.5" y2="52.5" /><path d="M7,91 c8.727,-9.241 12.5,-20.743 12.5,-47 v-30.0 h75.0" fill="none" stroke="#000000" stroke-width="2" /><path d="M2.5,67 c6.793,-3.015 12.445,-6.519 16.5,-10" fill="none" stroke="#000000" stroke-width="2" /><path d="M15.5,41 c-2.875,-5.722 -6.672,-12.311 -11,-19" fill="none" stroke="#000000" stroke-width="2" /><path d="M26.5,47.5 c12.424,-3.543 18,-9.891 18,-20.5 v-5.0 h29.0 v18.0 c0,4.704 0.373,5 10,5 c9.308,0 9.635,-0.229 10,-11.5" fill="none" stroke="#000000" stroke-width="2" /><path d="M25.5,91 c31.369,-6.295 50.313,-18.791 60.619,-37.974" fill="none" stroke="#000000" stroke-width="2" /><path d="M94,91 c-24.749,-6.939 -44.219,-19.035 -55,-33.5" fill="none" stroke="#000000" stroke-width="2" /></svg>