<?xml version='1.0' encoding='utf-8'?>
<svg xmlns="http://www.w3.org/2000/svg" height="100px" version="1.0" viewBox="0 0 100 100" width="100px" x="0px" y="0px">
<line fill="none" stroke="#000000" stroke-width="2" x1="56.5" x2="56.5" y1="12.5" y2="3" /><line fill="none" stroke="#000000" stroke-width="2" x1="55.5" x2="95" y1="51" y2="51" /><line fill="none" stroke="#000000" stroke-width="2" x1="76" x2="76" y1="51" y2="93" /><line fill="none" stroke="#000000" stroke-width="2" x1="56.5" x2="94.5" y1="69.5" y2="69.5" /><line fill="none" stroke="#000000" stroke-width="2" x1="56.5" x2="94.5" y1="26" y2="26" /><line fill="none" stroke="#000000" stroke-width="2" x1="76" x2="76" y1="26" y2="16.5" /><line fill="none" stroke="#000000" stroke-width="2" x1="30.5" x2="52" y1="85" y2="85" /><polyline fill="none" points="29.5,92 29.5,59 53,59 53,90.5" stroke="#000000" stroke-width="2" /><path d="M7,91 c8.727,-9.241 12.5,-20.743 12.5,-47 v-30.5 h75.0" fill="none" stroke="#000000" stroke-width="2" /><path d="M2.5,67 c6.793,-3.015 12.445,-6.519 16.5,-10" fill="none" stroke="#000000" stroke-width="2" /><path d="M15.5,41 c-2.875,-5.722 -6.672,-12.311 -11,-19" fill="none" stroke="#000000" stroke-width="2" /><path d="M82,51 c2.805,-7.43 5.206,-15.857 7,-25" fill="none" stroke="#000000" stroke-width="2" /><path d="M67.5,51 c-1.34,-8.319 -3.064,-16.937 -5,-25" fill="none" stroke="#000000" stroke-width="2" /><path d="M21,87 c5.072,-11.894 7.5,-24.45 7.5,-40.5 V22.0 h24.0 v23.0 h-23.0" fill="none" stroke="#000000" stroke-width="2" /></svg>