<?xml version='1.0' encoding='utf-8'?>
<svg xmlns="http://www.w3.org/2000/svg" height="100px" version="1.0" viewBox="0 0 100 100" width="100px" x="0px" y="0px">
<line fill="none" stroke="#000000" stroke-width="2" x1="70" x2="70" y1="94" y2="47" /><line fill="none" stroke="#000000" stroke-width="2" x1="97.5" x2="42" y1="62" y2="62" /><line fill="none" stroke="#000000" stroke-width="2" x1="63" x2="63" y1="17.5" y2="6" /><line fill="none" stroke="#000000" stroke-width="2" x1="41" x2="5.5" y1="12" y2="12" /><polyline fill="none" points="14.5,86 38,86 38,43.5 13.5,43.5 13.5,94" stroke="#000000" stroke-width="2" /><path d="M42,51.5 c13.417,-7.418 21,-18.975 21,-32" fill="none" stroke="#000000" stroke-width="2" /><path d="M44,18.5 h38.0 V44.0 c0,3.559 0.639,4 6,4 c7.584,0 8,-0.486 8,-19.5" fill="none" stroke="#000000" stroke-width="2" /><path d="M2.5,64 c8.673,-11.171 14.006,-26.27 16.5,-52" fill="none" stroke="#000000" stroke-width="2" /></svg>