<?xml version='1.0' encoding='utf-8'?>
<svg xmlns="http://www.w3.org/2000/svg" height="100px" version="1.0" viewBox="0 0 100 100" width="100px" x="0px" y="0px">
<line fill="none" stroke="#000000" stroke-width="2" x1="36.5" x2="81.5" y1="88" y2="88" /><line fill="none" stroke="#000000" stroke-width="2" x1="43.422" x2="92" y1="39" y2="39" /><line fill="none" stroke="#000000" stroke-width="2" x1="42.5" x2="42.5" y1="75.5" y2="13.5" /><line fill="none" stroke="#000000" stroke-width="2" x1="36" x2="5.5" y1="11" y2="11" /><polyline fill="none" points="14.5,83 33,83 33,42.5 13.5,42.5 13.5,93" stroke="#000000" stroke-width="2" /><path d="M41.5,14.5 c15.975,0 32.349,-2.302 46.5,-6.5" fill="none" stroke="#000000" stroke-width="2" /><path d="M33,78 c12.469,-2.812 23.11,-6.347 36,-12" fill="none" stroke="#000000" stroke-width="2" /><path d="M69,12.5 c0,43.784 13.5,73.5 21.5,73.5 c2.104,0 4.108,-3.888 5.5,-20.5" fill="none" stroke="#000000" stroke-width="2" /><path d="M2.5,63 c8.673,-11.171 14.006,-26.27 16.5,-52" fill="none" stroke="#000000" stroke-width="2" /></svg>