<?xml version='1.0' encoding='utf-8'?>
<svg xmlns="http://www.w3.org/2000/svg" height="100px" version="1.0" viewBox="0 0 100 100" width="100px" x="0px" y="0px">
<line fill="none" stroke="#000000" stroke-width="2" x1="38" x2="6" y1="11" y2="11" /><polyline fill="none" points="15,83 34,83 34,42.5 14,42.5 14,93" stroke="#000000" stroke-width="2" /><path d="M3,63 c8.673,-11.171 14.006,-26.27 16.5,-52" fill="none" stroke="#000000" stroke-width="2" /><path d="M85,62 c-2.523,0 -6.672,-0.167 -11,-0.5" fill="none" stroke="#000000" stroke-width="2" /><path d="M45.5,15 h47.0 c-1.432,42.487 -3.448,47 -7.5,47" fill="none" stroke="#000000" stroke-width="2" /><path d="M35.5,37.5 c5.658,-9.718 10.379,-22.011 13,-34.5" fill="none" stroke="#000000" stroke-width="2" /><path d="M95,66.5 c-2.187,24.755 -2.464,25 -29.783,25 c-20.916,0 -21.217,-0.234 -21.217,-12 v-25.0 h32.5 v-26.0 H45.0" fill="none" stroke="#000000" stroke-width="2" /></svg>