<?xml version='1.0' encoding='utf-8'?>
<svg xmlns="http://www.w3.org/2000/svg" height="100px" version="1.0" viewBox="0 0 100 100" width="100px" x="0px" y="0px">
<line fill="none" stroke="#000000" stroke-width="2" x1="36.5" x2="6" y1="11" y2="11" /><line fill="none" stroke="#000000" stroke-width="2" x1="43.5" x2="90" y1="50.5" y2="50.5" /><line fill="none" stroke="#000000" stroke-width="2" x1="43.5" x2="90" y1="69" y2="69" /><line fill="none" stroke="#000000" stroke-width="2" x1="67" x2="67" y1="33" y2="6" /><polyline fill="none" points="15,81 34,81 34,42.5 14,42.5 14,91" stroke="#000000" stroke-width="2" /><path d="M3,63 c8.673,-11.171 14.006,-26.27 16.5,-52" fill="none" stroke="#000000" stroke-width="2" /><path d="M42.5,92 v-58.0 h48.5 v48.5 c0,7.567 -0.385,8 -6,8 c-2.227,0 -6.297,-0.159 -13.5,-0.5" fill="none" stroke="#000000" stroke-width="2" /><path d="M51.5,28 c-3.592,-6.757 -7.367,-13.301 -11,-19" fill="none" stroke="#000000" stroke-width="2" /><path d="M82,28 c4.135,-6.325 8.035,-13.087 11,-19" fill="none" stroke="#000000" stroke-width="2" /></svg>