<?xml version='1.0' encoding='utf-8'?>
<svg xmlns="http://www.w3.org/2000/svg" height="100px" version="1.0" viewBox="0 0 100 100" width="100px" x="0px" y="0px">
<line fill="none" stroke="#000000" stroke-width="2" x1="38" x2="93.5" y1="15" y2="15" /><line fill="none" stroke="#000000" stroke-width="2" x1="35" x2="5.5" y1="11" y2="11" /><line fill="none" stroke="#000000" stroke-width="2" x1="43.5" x2="43.5" y1="87" y2="55" /><line fill="none" stroke="#000000" stroke-width="2" x1="36" x2="96" y1="46" y2="46" /><polyline fill="none" points="14.5,83 32,83 32,42.5 13.5,42.5 13.5,93" stroke="#000000" stroke-width="2" /><polyline fill="none" points="44.5,56 73.5,56 73.5,79 44.5,79" stroke="#000000" stroke-width="2" /><path d="M36,41 c18.875,-4.521 29.5,-17.371 29.5,-37" fill="none" stroke="#000000" stroke-width="2" /><path d="M2.5,63 c8.673,-11.171 14.006,-26.27 16.5,-52" fill="none" stroke="#000000" stroke-width="2" /><path d="M94,42 c-9.08,-6.854 -21.816,-14.769 -32.5,-20" fill="none" stroke="#000000" stroke-width="2" /><path d="M86.5,46 v37.0 c0,7.253 -0.74,8 -6.5,8 c-2.186,0 -5.52,-0.121 -12,-0.5" fill="none" stroke="#000000" stroke-width="2" /></svg>