<?xml version='1.0' encoding='utf-8'?>
<svg xmlns="http://www.w3.org/2000/svg" height="100px" version="1.0" viewBox="0 0 100 100" width="100px" x="0px" y="0px">
<line fill="none" stroke="#000000" stroke-width="2" x1="38.5" x2="4.5" y1="24" y2="24" /><line fill="none" stroke="#000000" stroke-width="2" x1="21.5" x2="21.5" y1="24" y2="6" /><line fill="none" stroke="#000000" stroke-width="2" x1="21.5" x2="21.5" y1="94" y2="50" /><line fill="none" stroke="#000000" stroke-width="2" x1="45.5" x2="93.5" y1="43" y2="43" /><line fill="none" stroke="#000000" stroke-width="2" x1="45.5" x2="45.5" y1="87" y2="13" /><path d="M40,67 c-4.434,-5.175 -11.332,-12.456 -17,-18" fill="none" stroke="#000000" stroke-width="2" /><path d="M2.5,65.5 c16.756,-10.153 27.396,-22.303 35.077,-40.882" fill="none" stroke="#000000" stroke-width="2" /><path d="M44.571,13.997 c16.213,-1.156 31.933,-3.189 46.929,-5.997" fill="none" stroke="#000000" stroke-width="2" /><path d="M31.5,91 c13.613,-3.204 25.439,-7.382 39.5,-14" fill="none" stroke="#000000" stroke-width="2" /><path d="M71,11 c0,48.54 12.73,80 19.5,80 c2.111,0 4.152,-4.618 5.5,-22" fill="none" stroke="#000000" stroke-width="2" /></svg>