<?xml version='1.0' encoding='utf-8'?>
<svg xmlns="http://www.w3.org/2000/svg" height="100px" version="1.0" viewBox="0 0 100 100" width="100px" x="0px" y="0px">
<line fill="none" stroke="#000000" stroke-width="2" x1="95.5" x2="48" y1="19.5" y2="19.5" /><line fill="none" stroke="#000000" stroke-width="2" x1="38.5" x2="4.5" y1="24" y2="24" /><line fill="none" stroke="#000000" stroke-width="2" x1="21.5" x2="21.5" y1="24" y2="6" /><line fill="none" stroke="#000000" stroke-width="2" x1="21.5" x2="21.5" y1="94" y2="50" /><path d="M69.5,19.5 v64.5 c0,7.385 -0.594,8 -6,8 c-2.565,0 -6.678,-0.164 -12,-0.5" fill="none" stroke="#000000" stroke-width="2" /><path d="M37.5,82 c7.84,-12.223 14.22,-27.864 18,-44.5" fill="none" stroke="#000000" stroke-width="2" /><path d="M97,83.5 c-3.996,-15.282 -9.171,-31.308 -15,-46" fill="none" stroke="#000000" stroke-width="2" /><path d="M38.5,40.5 c6.047,-9.923 11,-22.503 14,-36" fill="none" stroke="#000000" stroke-width="2" /><path d="M40,67 c-4.434,-5.175 -11.332,-12.456 -17,-18" fill="none" stroke="#000000" stroke-width="2" /><path d="M2.5,65.5 c16.756,-10.153 27.396,-22.303 35.077,-40.882" fill="none" stroke="#000000" stroke-width="2" /></svg>