<?xml version='1.0' encoding='utf-8'?>
<svg xmlns="http://www.w3.org/2000/svg" height="100px" version="1.0" viewBox="0 0 100 100" width="100px" x="0px" y="0px">
<line fill="none" stroke="#000000" stroke-width="2" x1="7" x2="93" y1="27.5" y2="27.5" /><line fill="none" stroke="#000000" stroke-width="2" x1="50" x2="50" y1="49.5" y2="12" /><path d="M14,13 c25,0 49.088,-1.53 72,-4.5" fill="none" stroke="#000000" stroke-width="2" /><path d="M6,52.5 c21.002,-7.977 34.648,-16.339 43,-25" fill="none" stroke="#000000" stroke-width="2" /><path d="M94,52.5 c-21.002,-7.977 -34.648,-16.339 -43,-25" fill="none" stroke="#000000" stroke-width="2" /><path d="M65,65 h23.0 c-2.104,20.013 -6.373,24.5 -15,24.5 c-5.04,0 -11.823,-0.317 -18.5,-1" fill="none" stroke="#000000" stroke-width="2" /><path d="M12,91 c18.614,-6.301 28.627,-18.362 30,-37.5" fill="none" stroke="#000000" stroke-width="2" /><path d="M17.5,53.5 h50.5 c-1.443,5.8 -3.562,13.349 -5.5,19.5" fill="none" stroke="#000000" stroke-width="2" /></svg>