<?xml version='1.0' encoding='utf-8'?>
<svg xmlns="http://www.w3.org/2000/svg" height="100px" version="1.0" viewBox="0 0 100 100" width="100px" x="0px" y="0px">
<line fill="none" stroke="#000000" stroke-width="2" x1="23" x2="23" y1="94" y2="11.5" /><line fill="none" stroke="#000000" stroke-width="2" x1="38" x2="5" y1="33" y2="33" /><line fill="none" stroke="#000000" stroke-width="2" x1="95.5" x2="48" y1="19.5" y2="19.5" /><path d="M40,8 c-11.626,2.732 -22.837,4.682 -34,6" fill="none" stroke="#000000" stroke-width="2" /><path d="M4,72.5 c8.909,-13.023 14.701,-25.675 18.5,-40" fill="none" stroke="#000000" stroke-width="2" /><path d="M38,63 c-4.429,-9.387 -9.489,-19.466 -14.5,-29" fill="none" stroke="#000000" stroke-width="2" /><path d="M69.5,19.5 v64.5 c0,7.385 -0.594,8 -6,8 c-2.565,0 -6.678,-0.164 -12,-0.5" fill="none" stroke="#000000" stroke-width="2" /><path d="M37.5,82 c7.84,-12.223 14.22,-27.864 18,-44.5" fill="none" stroke="#000000" stroke-width="2" /><path d="M97,83.5 c-3.996,-15.282 -9.171,-31.308 -15,-46" fill="none" stroke="#000000" stroke-width="2" /><path d="M38.5,40.5 c6.047,-9.923 11,-22.503 14,-36" fill="none" stroke="#000000" stroke-width="2" /></svg>