<?xml version='1.0' encoding='utf-8'?>
<svg xmlns="http://www.w3.org/2000/svg" height="100px" version="1.0" viewBox="0 0 100 100" width="100px" x="0px" y="0px">
<line fill="none" stroke="#000000" stroke-width="2" x1="19.5" x2="19.5" y1="94" y2="11.5" /><line fill="none" stroke="#000000" stroke-width="2" x1="33.5" x2="4.5" y1="33" y2="33" /><line fill="none" stroke="#000000" stroke-width="2" x1="37" x2="37" y1="94" y2="43" /><line fill="none" stroke="#000000" stroke-width="2" x1="51" x2="90" y1="88" y2="88" /><line fill="none" stroke="#000000" stroke-width="2" x1="51" x2="90" y1="65.5" y2="65.5" /><polyline fill="none" points="91,94 91,44 50,44 50,94" stroke="#000000" stroke-width="2" /><path d="M32.5,14 c20.68,0 40.53,-1.901 59,-5.5" fill="none" stroke="#000000" stroke-width="2" /><path d="M46,38.5 c-2.143,-7.223 -4.555,-14.117 -7,-20" fill="none" stroke="#000000" stroke-width="2" /><path d="M67.5,37.5 c-2.143,-7.223 -4.555,-14.117 -7,-20" fill="none" stroke="#000000" stroke-width="2" /><path d="M81,40 c4.773,-8.58 8.74,-17.604 11.5,-26" fill="none" stroke="#000000" stroke-width="2" /><path d="M33.5,8 c-9.688,2.732 -18.697,4.682 -28,6" fill="none" stroke="#000000" stroke-width="2" /><path d="M3.5,72.5 c7.473,-13.023 12.377,-25.655 15.5,-40" fill="none" stroke="#000000" stroke-width="2" /><path d="M31.5,60 c-3.638,-8.381 -7.621,-17.356 -11.5,-26" fill="none" stroke="#000000" stroke-width="2" /></svg>