<?xml version='1.0' encoding='utf-8'?>
<svg xmlns="http://www.w3.org/2000/svg" height="100px" version="1.0" viewBox="0 0 100 100" width="100px" x="0px" y="0px">
<line fill="none" stroke="#000000" stroke-width="2" x1="20" x2="20" y1="94" y2="11.5" /><line fill="none" stroke="#000000" stroke-width="2" x1="33.5" x2="5" y1="33.5" y2="33.5" /><line fill="none" stroke="#000000" stroke-width="2" x1="41" x2="90" y1="26" y2="26" /><line fill="none" stroke="#000000" stroke-width="2" x1="65.5" x2="65.5" y1="12.5" y2="3" /><polyline fill="none" points="94,31.5 94,13.5 37,13.5 37,32.5" stroke="#000000" stroke-width="2" /><path d="M34,8 c-9.688,2.732 -18.697,4.682 -28,6" fill="none" stroke="#000000" stroke-width="2" /><path d="M4,73 c7.473,-13.023 12.377,-25.655 15.5,-40" fill="none" stroke="#000000" stroke-width="2" /><path d="M33.5,63.5 c-4.037,-9.303 -8.594,-19.45 -13,-29" fill="none" stroke="#000000" stroke-width="2" /><path d="M33,49.5 c15.03,-6.888 25.908,-14.845 33,-23.5" fill="none" stroke="#000000" stroke-width="2" /><path d="M52,91 c5.9,0.356 10.336,0.5 13.5,0.5 c5.401,0 7.5,-2.373 7.5,-16.5 c0,-15.491 -6.143,-31.98 -15,-41" fill="none" stroke="#000000" stroke-width="2" /><path d="M32.5,69.5 c15.317,-7.187 26.237,-15.263 33.5,-24" fill="none" stroke="#000000" stroke-width="2" /><path d="M32,89.5 c18.086,-8.036 31.072,-17.767 39.5,-28.5" fill="none" stroke="#000000" stroke-width="2" /><path d="M94,37 c-5.359,7.475 -11.077,13.335 -17.5,18" fill="none" stroke="#000000" stroke-width="2" /><path d="M68,26 c4.031,24.917 16.086,48.858 30,62" fill="none" stroke="#000000" stroke-width="2" /></svg>