<?xml version='1.0' encoding='utf-8'?>
<svg xmlns="http://www.w3.org/2000/svg" height="100px" version="1.0" viewBox="0 0 100 100" width="100px" x="0px" y="0px">
<line fill="none" stroke="#000000" stroke-width="2" x1="17.5" x2="17.5" y1="94" y2="11" /><line fill="none" stroke="#000000" stroke-width="2" x1="29" x2="3.5" y1="33" y2="33" /><line fill="none" stroke="#000000" stroke-width="2" x1="44.5" x2="44.5" y1="90" y2="72" /><line fill="none" stroke="#000000" stroke-width="2" x1="50.863" x2="50.863" y1="37.5" y2="62" /><line fill="none" stroke="#000000" stroke-width="2" x1="72.412" x2="72.412" y1="37.5" y2="62" /><line fill="none" stroke="#000000" stroke-width="2" x1="29" x2="94" y1="43" y2="43" /><line fill="none" stroke="#000000" stroke-width="2" x1="27.5" x2="95.5" y1="63" y2="63" /><line fill="none" stroke="#000000" stroke-width="2" x1="92" x2="31" y1="53" y2="53" /><line fill="none" stroke="#000000" stroke-width="2" x1="61.5" x2="61.5" y1="13" y2="4" /><line fill="none" stroke="#000000" stroke-width="2" x1="27.5" x2="95.5" y1="13" y2="13" /><polyline fill="none" points="33.5,34.5 58,34.5 58,20 32.5,20 32.5,35.5" stroke="#000000" stroke-width="2" /><polyline fill="none" points="66,34.5 90.5,34.5 90.5,20 65,20 65,35.5" stroke="#000000" stroke-width="2" /><path d="M28,8 c-8.131,2.732 -15.691,4.682 -23.5,6" fill="none" stroke="#000000" stroke-width="2" /><path d="M2.5,72.5 c6.99,-13.023 11.578,-25.655 14.5,-40" fill="none" stroke="#000000" stroke-width="2" /><path d="M28,58 c-3.163,-7.735 -6.627,-16.021 -10,-24" fill="none" stroke="#000000" stroke-width="2" /><path d="M59.5,63 c-7.947,6.3 -19.225,11.907 -35,16.5" fill="none" stroke="#000000" stroke-width="2" /><path d="M61.5,63 c5.756,13.002 18.567,24.052 35,29.5" fill="none" stroke="#000000" stroke-width="2" /><path d="M29,92.5 c13.8,-1.83 25.747,-4.218 40,-8" fill="none" stroke="#000000" stroke-width="2" /><path d="M73,79 c6.473,-3.563 12.593,-7.97 17.5,-12.5" fill="none" stroke="#000000" stroke-width="2" /></svg>