<?xml version='1.0' encoding='utf-8'?>
<svg xmlns="http://www.w3.org/2000/svg" height="100px" version="1.0" viewBox="0 0 100 100" width="100px" x="0px" y="0px">
<line fill="none" stroke="#000000" stroke-width="2" x1="50" x2="50" y1="13.5" y2="3" /><line fill="none" stroke="#000000" stroke-width="2" x1="9.5" x2="90.5" y1="39" y2="39" /><line fill="none" stroke="#000000" stroke-width="2" x1="7" x2="93" y1="90" y2="90" /><line fill="none" stroke="#000000" stroke-width="2" x1="86" x2="14" y1="72" y2="72" /><line fill="none" stroke="#000000" stroke-width="2" x1="50" x2="50" y1="90" y2="56.5" /><polyline fill="none" points="89.5,29.5 89.5,13.5 10.5,13.5 10.5,29.5" stroke="#000000" stroke-width="2" /><path d="M56.5,13.5 v15.38 c0,3.318 0.416,3.62 12,3.62 c12.594,0 12.783,-0.138 14.5,-13.5" fill="none" stroke="#000000" stroke-width="2" /><path d="M14,34.5 c17.485,-3.755 27.246,-12.116 28,-21" fill="none" stroke="#000000" stroke-width="2" /><path d="M90,62.5 c-6.961,-5.952 -16.576,-13.827 -24.5,-20" fill="none" stroke="#000000" stroke-width="2" /><path d="M12,58.5 c20.777,-0.491 44.432,-2.039 68,-4.5" fill="none" stroke="#000000" stroke-width="2" /><path d="M24.5,58 c4.476,-5.606 8.862,-11.997 13,-19" fill="none" stroke="#000000" stroke-width="2" /></svg>