<?xml version='1.0' encoding='utf-8'?>
<svg xmlns="http://www.w3.org/2000/svg" height="100px" version="1.0" viewBox="0 0 100 100" width="100px" x="0px" y="0px">
<line fill="none" stroke="#000000" stroke-width="2" x1="5" x2="38" y1="25" y2="25" /><line fill="none" stroke="#000000" stroke-width="2" x1="21.5" x2="21.5" y1="25" y2="7" /><line fill="none" stroke="#000000" stroke-width="2" x1="94.5" x2="39" y1="55.5" y2="63" /><line fill="none" stroke="#000000" stroke-width="2" x1="91.5" x2="42" y1="33.5" y2="40" /><path d="M5,87 c11.859,-2.489 22.125,-5.403 35,-10" fill="none" stroke="#000000" stroke-width="2" /><path d="M26.5,81.5 c3.021,-13.688 5.74,-31.476 7.5,-50" fill="none" stroke="#000000" stroke-width="2" /><path d="M15,73.5 c-1.593,-13.792 -3.482,-28.195 -5.5,-41.5" fill="none" stroke="#000000" stroke-width="2" /><path d="M60,16 v65.0 c0,8.958 0.625,9.5 14,9.5 c17.374,0 17.733,-0.208 19,-25" fill="none" stroke="#000000" stroke-width="2" /><path d="M43,18 c19.023,-1.359 34.217,-4.495 46,-9" fill="none" stroke="#000000" stroke-width="2" /></svg>