<?xml version='1.0' encoding='utf-8'?>
<svg xmlns="http://www.w3.org/2000/svg" height="100px" version="1.0" viewBox="0 0 100 100" width="100px" x="0px" y="0px">
<line fill="none" stroke="#000000" stroke-width="2" x1="6" x2="94" y1="34" y2="34" /><line fill="none" stroke="#000000" stroke-width="2" x1="11" x2="89" y1="14" y2="14" /><line fill="none" stroke="#000000" stroke-width="2" x1="50" x2="50" y1="14" y2="3" /><line fill="none" stroke="#000000" stroke-width="2" x1="17.5" x2="82.5" y1="59.5" y2="59.5" /><line fill="none" stroke="#000000" stroke-width="2" x1="82.5" x2="17.5" y1="76" y2="76" /><polyline fill="none" points="16.5,84 16.5,43.5 83.5,43.5 83.5,77" stroke="#000000" stroke-width="2" /><path d="M61,34 c5.104,-5.647 9.166,-12.424 12,-20" fill="none" stroke="#000000" stroke-width="2" /><path d="M38,34 c-3.447,-6.776 -7.391,-13.381 -12,-20" fill="none" stroke="#000000" stroke-width="2" /><path d="M93.5,72 c-1.359,19.312 -1.568,19.5 -25,19.5 c-18.108,0 -18.5,-0.303 -18.5,-9 v-38.0" fill="none" stroke="#000000" stroke-width="2" /></svg>