<?xml version='1.0' encoding='utf-8'?>
<svg xmlns="http://www.w3.org/2000/svg" height="100px" version="1.0" viewBox="0 0 100 100" width="100px" x="0px" y="0px">
<line fill="none" stroke="#000000" stroke-width="2" x1="6" x2="42" y1="25" y2="25" /><line fill="none" stroke="#000000" stroke-width="2" x1="24" x2="24" y1="25" y2="7" /><line fill="none" stroke="#000000" stroke-width="2" x1="36" x2="95" y1="89" y2="89" /><line fill="none" stroke="#000000" stroke-width="2" x1="41" x2="94" y1="19" y2="19" /><line fill="none" stroke="#000000" stroke-width="2" x1="66" x2="66" y1="18" y2="4" /><path d="M6,87 c12.876,-2.489 24.021,-5.403 38,-10" fill="none" stroke="#000000" stroke-width="2" /><path d="M29,81.5 c3.625,-13.688 6.889,-31.476 9,-50" fill="none" stroke="#000000" stroke-width="2" /><path d="M17.5,73.5 c-2.004,-13.796 -4.434,-28.195 -7,-41.5" fill="none" stroke="#000000" stroke-width="2" /><path d="M70.5,88.5 c7.656,-16.3 14.105,-37.403 18,-59.5" fill="none" stroke="#000000" stroke-width="2" /><path d="M58.5,79 c-3.242,-16.32 -7.391,-33.265 -12,-49" fill="none" stroke="#000000" stroke-width="2" /></svg>