<?xml version='1.0' encoding='utf-8'?>
<svg xmlns="http://www.w3.org/2000/svg" height="100px" version="1.0" viewBox="0 0 100 100" width="100px" x="0px" y="0px">
<line fill="none" stroke="#000000" stroke-width="2" x1="94" x2="58.5" y1="15.5" y2="15.5" /><line fill="none" stroke="#000000" stroke-width="2" x1="51" x2="18.5" y1="15.5" y2="15.5" /><line fill="none" stroke="#000000" stroke-width="2" x1="11" x2="46" y1="59.5" y2="59.5" /><line fill="none" stroke="#000000" stroke-width="2" x1="5.5" x2="51.5" y1="81.5" y2="81.5" /><line fill="none" stroke="#000000" stroke-width="2" x1="28.5" x2="28.5" y1="94" y2="29" /><line fill="none" stroke="#000000" stroke-width="2" x1="6" x2="51" y1="37.5" y2="37.5" /><polyline fill="none" points="11,71.5 47,71.5 47,47.5 10,47.5 10,72.5" stroke="#000000" stroke-width="2" /><path d="M34,30.5 c-1.833,-4.87 -3.895,-10.029 -6,-15" fill="none" stroke="#000000" stroke-width="2" /><path d="M75,30.5 c-1.833,-4.87 -3.895,-10.029 -6,-15" fill="none" stroke="#000000" stroke-width="2" /><path d="M23,4.5 c-2.729,9.845 -9.133,20.379 -17,28" fill="none" stroke="#000000" stroke-width="2" /><path d="M63,4.5 c-2.654,9.375 -9.12,19.735 -17,27" fill="none" stroke="#000000" stroke-width="2" /><path d="M93.5,70.5 c-1.392,20.714 -1.691,21 -21,21 c-15.433,0 -16,-0.461 -16,-9.5 v-48.0 h31.5 V60.5 c0,6.224 -0.287,6.5 -6,6.5 c-2.515,0 -7.868,-0.146 -15.5,-0.5" fill="none" stroke="#000000" stroke-width="2" /></svg>