<?xml version='1.0' encoding='utf-8'?>
<svg xmlns="http://www.w3.org/2000/svg" height="100px" version="1.0" viewBox="0 0 100 100" width="100px" x="0px" y="0px">
<line fill="none" stroke="#000000" stroke-width="2" x1="22.5" x2="22.5" y1="94" y2="6" /><line fill="none" stroke="#000000" stroke-width="2" x1="39.5" x2="4.5" y1="39" y2="39" /><line fill="none" stroke="#000000" stroke-width="2" x1="69.5" x2="69.5" y1="94" y2="47" /><line fill="none" stroke="#000000" stroke-width="2" x1="97" x2="40" y1="62" y2="62" /><line fill="none" stroke="#000000" stroke-width="2" x1="63.5" x2="63.5" y1="17.5" y2="6" /><path d="M3.5,79.5 c8.893,-13.39 14.733,-26.336 18.5,-41" fill="none" stroke="#000000" stroke-width="2" /><path d="M38.5,71 c-4.819,-9.969 -10.215,-20.774 -15.5,-31" fill="none" stroke="#000000" stroke-width="2" /><path d="M16,34 c-2.897,-7.817 -6.243,-15.581 -9.5,-22" fill="none" stroke="#000000" stroke-width="2" /><path d="M29,34 c3.858,-7.186 7.354,-15.65 9.5,-23" fill="none" stroke="#000000" stroke-width="2" /><path d="M40,51.5 c15.412,-7.615 23.5,-19.137 23.5,-32" fill="none" stroke="#000000" stroke-width="2" /><path d="M43.5,18.5 h38.0 V44.0 c0,3.559 0.639,4 6,4 c7.584,0 8,-0.486 8,-19.5" fill="none" stroke="#000000" stroke-width="2" /></svg>