<?xml version='1.0' encoding='utf-8'?>
<svg xmlns="http://www.w3.org/2000/svg" height="100px" version="1.0" viewBox="0 0 100 100" width="100px" x="0px" y="0px">
<line fill="none" stroke="#000000" stroke-width="2" x1="22.5" x2="22.5" y1="94" y2="6" /><line fill="none" stroke="#000000" stroke-width="2" x1="39.5" x2="4.5" y1="39" y2="39" /><line fill="none" stroke="#000000" stroke-width="2" x1="29.5" x2="95" y1="89" y2="89" /><line fill="none" stroke="#000000" stroke-width="2" x1="35.5" x2="94" y1="20" y2="20" /><line fill="none" stroke="#000000" stroke-width="2" x1="63" x2="63" y1="19" y2="4" /><path d="M3.5,79.5 c8.893,-13.39 14.733,-26.336 18.5,-41" fill="none" stroke="#000000" stroke-width="2" /><path d="M38.5,71 c-4.819,-9.969 -10.215,-20.774 -15.5,-31" fill="none" stroke="#000000" stroke-width="2" /><path d="M16,34 c-2.898,-7.817 -6.243,-15.581 -9.5,-22" fill="none" stroke="#000000" stroke-width="2" /><path d="M29,34 c3.858,-7.186 7.354,-15.65 9.5,-23" fill="none" stroke="#000000" stroke-width="2" /><path d="M69,88.5 c7.656,-16.162 14.105,-37.089 18,-59" fill="none" stroke="#000000" stroke-width="2" /><path d="M53,79.5 c-3.242,-16.32 -7.391,-33.265 -12,-49" fill="none" stroke="#000000" stroke-width="2" /></svg>