<?xml version='1.0' encoding='utf-8'?>
<svg xmlns="http://www.w3.org/2000/svg" height="100px" version="1.0" viewBox="0 0 100 100" width="100px" x="0px" y="0px">
<line fill="none" stroke="#000000" stroke-width="2" x1="37" x2="96.5" y1="68.5" y2="68.5" /><line fill="none" stroke="#000000" stroke-width="2" x1="37" x2="95.5" y1="15.5" y2="15.5" /><line fill="none" stroke="#000000" stroke-width="2" x1="52.5" x2="52.5" y1="25.5" y2="4.5" /><line fill="none" stroke="#000000" stroke-width="2" x1="79.5" x2="79.5" y1="25.5" y2="4.5" /><line fill="none" stroke="#000000" stroke-width="2" x1="43" x2="89" y1="41.5" y2="41.5" /><line fill="none" stroke="#000000" stroke-width="2" x1="20.5" x2="20.5" y1="94" y2="6" /><line fill="none" stroke="#000000" stroke-width="2" x1="35.5" x2="4" y1="39" y2="39" /><polyline fill="none" points="43,57.5 90,57.5 90,26.5 42,26.5 42,58.5" stroke="#000000" stroke-width="2" /><path d="M35,92.5 c16.475,-2.845 31,-15.985 31,-25 v-9.0" fill="none" stroke="#000000" stroke-width="2" /><path d="M95.5,92.5 c-15.455,-2.831 -29.5,-15.608 -29.5,-25" fill="none" stroke="#000000" stroke-width="2" /><path d="M3,79.5 c8.184,-13.373 13.541,-26.336 17,-41" fill="none" stroke="#000000" stroke-width="2" /><path d="M34,71 c-3.898,-10.039 -8.42,-20.818 -13,-31" fill="none" stroke="#000000" stroke-width="2" /><path d="M15,34 c-2.652,-7.823 -5.872,-15.646 -9,-22" fill="none" stroke="#000000" stroke-width="2" /><path d="M26,34 c3.673,-7.122 7.027,-15.65 9,-23" fill="none" stroke="#000000" stroke-width="2" /></svg>