<?xml version='1.0' encoding='utf-8'?>
<svg xmlns="http://www.w3.org/2000/svg" height="100px" version="1.0" viewBox="0 0 100 100" width="100px" x="0px" y="0px">
<line fill="none" stroke="#000000" stroke-width="2" x1="41" x2="96.5" y1="20.5" y2="20.5" /><line fill="none" stroke="#000000" stroke-width="2" x1="68.5" x2="68.5" y1="20.5" y2="4.5" /><line fill="none" stroke="#000000" stroke-width="2" x1="5" x2="42.5" y1="52" y2="50" /><line fill="none" stroke="#000000" stroke-width="2" x1="25" x2="25" y1="51" y2="94" /><path d="M39,91 c30.49,-12.851 44.717,-32.452 48,-70.5" fill="none" stroke="#000000" stroke-width="2" /><path d="M96,91 c-30.145,-16.772 -42.542,-34.671 -47,-65.5" fill="none" stroke="#000000" stroke-width="2" /><path d="M44,57.5 c-1.619,-7.545 -4.385,-16.581 -7.5,-24.101" fill="none" stroke="#000000" stroke-width="2" /><path d="M7,87.5 c3.402,-9.126 5.666,-19.038 6.5,-28.5" fill="none" stroke="#000000" stroke-width="2" /><path d="M40,81.5 c-0.682,-6.759 -2.25,-15.816 -4,-23" fill="none" stroke="#000000" stroke-width="2" /><path d="M12,51.5 c10.08,-11.431 18.977,-23.412 27,-36.5" fill="none" stroke="#000000" stroke-width="2" /><path d="M20.5,41 c-3.684,-6.554 -8.887,-15.377 -13,-22" fill="none" stroke="#000000" stroke-width="2" /><path d="M12.5,27.5 c5.096,-7.057 9.62,-14.042 14,-21.5" fill="none" stroke="#000000" stroke-width="2" /></svg>