<?xml version='1.0' encoding='utf-8'?>
<svg xmlns="http://www.w3.org/2000/svg" height="100px" version="1.0" viewBox="0 0 100 100" width="100px" x="0px" y="0px">
<line fill="none" stroke="#000000" stroke-width="2" x1="69.5" x2="69.5" y1="6" y2="94" /><line fill="none" stroke="#000000" stroke-width="2" x1="47" x2="92" y1="67" y2="67" /><line fill="none" stroke="#000000" stroke-width="2" x1="47" x2="92" y1="43" y2="43" /><line fill="none" stroke="#000000" stroke-width="2" x1="4.5" x2="41" y1="52" y2="50" /><line fill="none" stroke="#000000" stroke-width="2" x1="24.5" x2="24.5" y1="51" y2="94" /><polyline fill="none" points="93,75 93,20 46,20 46,75" stroke="#000000" stroke-width="2" /><path d="M42.5,55.5 c-1.619,-7.545 -4.385,-16.48 -7.5,-24" fill="none" stroke="#000000" stroke-width="2" /><path d="M6.5,87.5 c3.402,-9.126 5.666,-19.038 6.5,-28.5" fill="none" stroke="#000000" stroke-width="2" /><path d="M11.5,51.5 c10.08,-11.431 18.977,-23.412 27,-36.5" fill="none" stroke="#000000" stroke-width="2" /><path d="M20,41 c-3.684,-6.554 -8.887,-15.377 -13,-22" fill="none" stroke="#000000" stroke-width="2" /><path d="M12,27.5 c5.096,-7.057 9.62,-14.042 14,-21.5" fill="none" stroke="#000000" stroke-width="2" /><path d="M38.5,84.5 c-0.682,-6.759 -2.527,-18.755 -4,-26" fill="none" stroke="#000000" stroke-width="2" /></svg>