<?xml version='1.0' encoding='utf-8'?>
<svg xmlns="http://www.w3.org/2000/svg" height="100px" version="1.0" viewBox="0 0 100 100" width="100px" x="0px" y="0px">
<line fill="none" stroke="#000000" stroke-width="2" x1="5" x2="37.5" y1="52" y2="50" /><line fill="none" stroke="#000000" stroke-width="2" x1="22.5" x2="22.5" y1="51" y2="94" /><line fill="none" stroke="#000000" stroke-width="2" x1="35.5" x2="95.5" y1="27.5" y2="27.5" /><line fill="none" stroke="#000000" stroke-width="2" x1="65.5" x2="65.5" y1="49.5" y2="12" /><path d="M39,57.5 c-1.403,-7.545 -3.801,-16.481 -6.5,-24" fill="none" stroke="#000000" stroke-width="2" /><path d="M7,87.5 c2.879,-9.126 4.795,-19.038 5.5,-28.5" fill="none" stroke="#000000" stroke-width="2" /><path d="M35.5,84.5 c-0.596,-7.641 -1.969,-17.879 -3.5,-26" fill="none" stroke="#000000" stroke-width="2" /><path d="M11,51.5 c8.773,-11.431 16.518,-23.412 23.5,-36.5" fill="none" stroke="#000000" stroke-width="2" /><path d="M18.5,41 c-3.258,-6.554 -7.862,-15.377 -11.5,-22" fill="none" stroke="#000000" stroke-width="2" /><path d="M11.5,27.5 c4.367,-7.057 8.246,-14.042 12,-21.5" fill="none" stroke="#000000" stroke-width="2" /><path d="M40,13 c17.5,0 34.462,-1.53 50.5,-4.5" fill="none" stroke="#000000" stroke-width="2" /><path d="M38,52 c12.788,-7.555 21.627,-15.833 27,-24.5" fill="none" stroke="#000000" stroke-width="2" /><path d="M96,52.5 c-14.137,-7.696 -24.116,-16.254 -30,-25" fill="none" stroke="#000000" stroke-width="2" /><path d="M76,65 h16.0 c-1.604,20.013 -4.918,24.5 -11.5,24.5 c-3.846,0 -8.902,-0.335 -14,-1" fill="none" stroke="#000000" stroke-width="2" /><path d="M36,91 c12.596,-6.083 21.024,-18.942 22,-37.5" fill="none" stroke="#000000" stroke-width="2" /><path d="M42.5,53.5 h35.5 c-1.011,5.8 -2.547,13.371 -4,19.5" fill="none" stroke="#000000" stroke-width="2" /></svg>