<?xml version='1.0' encoding='utf-8'?>
<svg xmlns="http://www.w3.org/2000/svg" height="100px" version="1.0" viewBox="0 0 100 100" width="100px" x="0px" y="0px">
<line fill="none" stroke="#000000" stroke-width="2" x1="67" x2="67" y1="34.5" y2="50" /><line fill="none" stroke="#000000" stroke-width="2" x1="45.5" x2="88.5" y1="34.5" y2="34.5" /><line fill="none" stroke="#000000" stroke-width="2" x1="45.5" x2="88.5" y1="50" y2="50" /><line fill="none" stroke="#000000" stroke-width="2" x1="3.5" x2="36" y1="52" y2="50" /><line fill="none" stroke="#000000" stroke-width="2" x1="21" x2="21" y1="51" y2="94" /><path d="M73.5,34.5 c2.769,-5.549 5.21,-12.122 7,-19" fill="none" stroke="#000000" stroke-width="2" /><path d="M60.5,34.5 c-1.956,-6.097 -4.396,-12.546 -7,-18.5" fill="none" stroke="#000000" stroke-width="2" /><path d="M41,92 v-82.0 h52.0 v72.0 c0,7.565 -0.406,8 -5.5,8 c-1.906,0 -5.848,-0.155 -11.5,-0.5" fill="none" stroke="#000000" stroke-width="2" /><path d="M37.5,57.5 c-1.403,-7.545 -3.801,-16.481 -6.5,-24" fill="none" stroke="#000000" stroke-width="2" /><path d="M5.5,87.5 c2.879,-9.126 4.795,-19.038 5.5,-28.5" fill="none" stroke="#000000" stroke-width="2" /><path d="M34,84.5 c-0.596,-7.641 -1.969,-17.879 -3.5,-26" fill="none" stroke="#000000" stroke-width="2" /><path d="M9.5,51.5 c8.773,-11.431 16.518,-23.412 23.5,-36.5" fill="none" stroke="#000000" stroke-width="2" /><path d="M17,41 c-3.258,-6.554 -7.862,-15.377 -11.5,-22" fill="none" stroke="#000000" stroke-width="2" /><path d="M10,27.5 c4.367,-7.057 8.246,-14.042 12,-21.5" fill="none" stroke="#000000" stroke-width="2" /><path d="M84.5,76 c-4.45,0.329 -8.571,0.5 -12.5,0.5 c-13.471,0 -14.5,-0.665 -14.5,-6 V50.0" fill="none" stroke="#000000" stroke-width="2" /></svg>