<?xml version='1.0' encoding='utf-8'?>
<svg xmlns="http://www.w3.org/2000/svg" height="100px" version="1.0" viewBox="0 0 100 100" width="100px" x="0px" y="0px">
<line fill="none" stroke="#000000" stroke-width="2" x1="5" x2="37.5" y1="52" y2="50" /><line fill="none" stroke="#000000" stroke-width="2" x1="22.5" x2="22.5" y1="51" y2="94" /><line fill="none" stroke="#000000" stroke-width="2" x1="39" x2="93.5" y1="15" y2="15" /><line fill="none" stroke="#000000" stroke-width="2" x1="45" x2="45" y1="87" y2="55" /><line fill="none" stroke="#000000" stroke-width="2" x1="36.5" x2="96" y1="46" y2="46" /><polyline fill="none" points="46,56 74,56 74,79 46,79" stroke="#000000" stroke-width="2" /><path d="M39,57.5 c-1.403,-7.545 -3.801,-16.481 -6.5,-24" fill="none" stroke="#000000" stroke-width="2" /><path d="M7,87.5 c2.879,-9.126 4.795,-19.038 5.5,-28.5" fill="none" stroke="#000000" stroke-width="2" /><path d="M35.5,84.5 c-0.596,-7.641 -1.969,-17.879 -3.5,-26" fill="none" stroke="#000000" stroke-width="2" /><path d="M11,51.5 c8.773,-11.431 16.518,-23.412 23.5,-36.5" fill="none" stroke="#000000" stroke-width="2" /><path d="M18.5,41 c-3.258,-6.554 -7.862,-15.377 -11.5,-22" fill="none" stroke="#000000" stroke-width="2" /><path d="M11.5,27.5 c4.367,-7.057 8.246,-14.042 12,-21.5" fill="none" stroke="#000000" stroke-width="2" /><path d="M39.5,41 c16.653,-4.44 26.5,-17.106 26.5,-37" fill="none" stroke="#000000" stroke-width="2" /><path d="M94,42 c-8.801,-6.854 -21.146,-14.769 -31.5,-20" fill="none" stroke="#000000" stroke-width="2" /><path d="M86.5,46 v37.0 c0,7.253 -0.74,8 -6.5,8 c-2.186,0 -5.52,-0.121 -12,-0.5" fill="none" stroke="#000000" stroke-width="2" /></svg>