<?xml version='1.0' encoding='utf-8'?>
<svg xmlns="http://www.w3.org/2000/svg" height="100px" version="1.0" viewBox="0 0 100 100" width="100px" x="0px" y="0px">
<line fill="none" stroke="#000000" stroke-width="2" x1="37.5" x2="94.5" y1="15" y2="15" /><line fill="none" stroke="#000000" stroke-width="2" x1="66" x2="66" y1="15" y2="3" /><line fill="none" stroke="#000000" stroke-width="2" x1="66" x2="66" y1="95" y2="43" /><line fill="none" stroke="#000000" stroke-width="2" x1="4.5" x2="34" y1="52" y2="50" /><line fill="none" stroke="#000000" stroke-width="2" x1="20.5" x2="20.5" y1="51" y2="94" /><polyline fill="none" points="94.5,59 94.5,39 38.5,39 38.5,59" stroke="#000000" stroke-width="2" /><path d="M75.5,39 c3.828,-6.712 6.945,-14.943 9,-24" fill="none" stroke="#000000" stroke-width="2" /><path d="M55,39 c-2.538,-8.102 -5.543,-16.132 -9,-24" fill="none" stroke="#000000" stroke-width="2" /><path d="M44,86 v-29.0 h44.0 v23.0 c0,4.266 -0.237,4.5 -4,4.5 c-1.717,0 -5.027,-0.159 -10,-0.5" fill="none" stroke="#000000" stroke-width="2" /><path d="M35.5,56.5 c-1.279,-7.545 -3.49,-16.5 -6,-24" fill="none" stroke="#000000" stroke-width="2" /><path d="M6.5,87.5 c2.624,-9.126 4.357,-19.038 5,-28.5" fill="none" stroke="#000000" stroke-width="2" /><path d="M32,82.5 c-0.57,-7.583 -1.604,-15.938 -3,-24" fill="none" stroke="#000000" stroke-width="2" /><path d="M10,51.5 c8.018,-11.415 15.133,-23.412 21.5,-36.5" fill="none" stroke="#000000" stroke-width="2" /><path d="M17,41 c-2.955,-6.562 -7.184,-15.377 -10.5,-22" fill="none" stroke="#000000" stroke-width="2" /><path d="M10.5,27.5 c3.982,-7.057 7.565,-14.049 11,-21.5" fill="none" stroke="#000000" stroke-width="2" /></svg>