<?xml version='1.0' encoding='utf-8'?>
<svg xmlns="http://www.w3.org/2000/svg" height="100px" version="1.0" viewBox="0 0 100 100" width="100px" x="0px" y="0px">
<line fill="none" stroke="#000000" stroke-width="2" x1="5" x2="41.5" y1="52" y2="50" /><line fill="none" stroke="#000000" stroke-width="2" x1="25" x2="25" y1="51" y2="94" /><line fill="none" stroke="#000000" stroke-width="2" x1="48" x2="86.5" y1="25" y2="25" /><line fill="none" stroke="#000000" stroke-width="2" x1="44" x2="95" y1="40" y2="40" /><polyline fill="none" points="86.5,40 86.5,10.5 46.5,10.5" stroke="#000000" stroke-width="2" /><path d="M45.5,56 c10.543,-4.064 17.833,-9.237 23.5,-16" fill="none" stroke="#000000" stroke-width="2" /><path d="M58,91 c4.176,0.31 8.761,0.5 11,0.5 c4.086,0 5.5,-1.907 5.5,-14 c0,-12.734 -4.662,-24.913 -11.5,-31.5" fill="none" stroke="#000000" stroke-width="2" /><path d="M41.5,73 c12.834,-4.866 21.859,-10.749 28,-17.5" fill="none" stroke="#000000" stroke-width="2" /><path d="M41,89 c15.271,-6.12 25.677,-13.277 32.5,-21.5" fill="none" stroke="#000000" stroke-width="2" /><path d="M93.5,47 c-4.814,5.975 -9.914,10.73 -15.5,14.5" fill="none" stroke="#000000" stroke-width="2" /><path d="M71.5,40 c3.316,19.39 13.541,38.759 25,49" fill="none" stroke="#000000" stroke-width="2" /><path d="M43,56.5 c-1.619,-7.545 -4.385,-16.48 -7.5,-24" fill="none" stroke="#000000" stroke-width="2" /><path d="M7,87.5 c3.402,-9.126 5.666,-19.038 6.5,-28.5" fill="none" stroke="#000000" stroke-width="2" /><path d="M39,81 c-0.682,-5.813 -2.549,-16.265 -4,-22.5" fill="none" stroke="#000000" stroke-width="2" /><path d="M12,51.5 c10.08,-11.431 18.977,-23.412 27,-36.5" fill="none" stroke="#000000" stroke-width="2" /><path d="M20.5,41 c-3.684,-6.554 -8.887,-15.377 -13,-22" fill="none" stroke="#000000" stroke-width="2" /><path d="M12.5,27.5 c5.096,-7.057 9.62,-14.042 14,-21.5" fill="none" stroke="#000000" stroke-width="2" /></svg>