<?xml version='1.0' encoding='utf-8'?>
<svg xmlns="http://www.w3.org/2000/svg" height="100px" version="1.0" viewBox="0 0 100 100" width="100px" x="0px" y="0px">
<line fill="none" stroke="#000000" stroke-width="2" x1="5" x2="34.5" y1="52" y2="50" /><line fill="none" stroke="#000000" stroke-width="2" x1="21" x2="21" y1="51" y2="94" /><line fill="none" stroke="#000000" stroke-width="2" x1="41.5" x2="90.5" y1="62" y2="62" /><line fill="none" stroke="#000000" stroke-width="2" x1="90.5" x2="41.5" y1="78" y2="78" /><line fill="none" stroke="#000000" stroke-width="2" x1="88.5" x2="43" y1="38" y2="38" /><line fill="none" stroke="#000000" stroke-width="2" x1="43" x2="88.5" y1="24" y2="24" /><polyline fill="none" points="40.5,86 40.5,46.5 91.5,46.5 91.5,79" stroke="#000000" stroke-width="2" /><polyline fill="none" points="42,39 42,10 89.5,10 89.5,39" stroke="#000000" stroke-width="2" /><path d="M36,56.5 c-1.279,-7.545 -3.49,-16.5 -6,-24" fill="none" stroke="#000000" stroke-width="2" /><path d="M7,87.5 c2.624,-9.126 4.357,-19.038 5,-28.5" fill="none" stroke="#000000" stroke-width="2" /><path d="M32.5,82.5 c-0.547,-7.585 -1.604,-15.938 -3,-24" fill="none" stroke="#000000" stroke-width="2" /><path d="M10.5,51.5 c8.018,-11.415 15.133,-23.412 21.5,-36.5" fill="none" stroke="#000000" stroke-width="2" /><path d="M17.5,41 c-2.955,-6.562 -7.184,-15.377 -10.5,-22" fill="none" stroke="#000000" stroke-width="2" /><path d="M11,27.5 c3.982,-7.057 7.565,-14.049 11,-21.5" fill="none" stroke="#000000" stroke-width="2" /><path d="M96,72 c-0.93,19.268 -1.143,19.5 -16.5,19.5 c-13.177,0 -13.5,-0.302 -13.5,-9 V11.0" fill="none" stroke="#000000" stroke-width="2" /></svg>