<?xml version='1.0' encoding='utf-8'?>
<svg xmlns="http://www.w3.org/2000/svg" height="100px" version="1.0" viewBox="0 0 100 100" width="100px" x="0px" y="0px">
<line fill="none" stroke="#000000" stroke-width="2" x1="38" x2="96" y1="59.5" y2="59.5" /><line fill="none" stroke="#000000" stroke-width="2" x1="96" x2="37" y1="41.5" y2="41.5" /><line fill="none" stroke="#000000" stroke-width="2" x1="37.5" x2="94.5" y1="14.5" y2="14.5" /><line fill="none" stroke="#000000" stroke-width="2" x1="41.5" x2="91.5" y1="28" y2="28" /><line fill="none" stroke="#000000" stroke-width="2" x1="66" x2="66" y1="59.5" y2="14.5" /><line fill="none" stroke="#000000" stroke-width="2" x1="43" x2="89" y1="88" y2="88" /><line fill="none" stroke="#000000" stroke-width="2" x1="3.5" x2="35.5" y1="52" y2="50" /><line fill="none" stroke="#000000" stroke-width="2" x1="21" x2="21" y1="51" y2="94" /><polyline fill="none" points="90,94 90,68 42,68 42,94" stroke="#000000" stroke-width="2" /><path d="M77.5,59.5 c2.611,-3.571 4.789,-7.628 6.5,-12" fill="none" stroke="#000000" stroke-width="2" /><path d="M54.5,59.5 c-1.816,-3.986 -4.054,-8.124 -6.5,-12" fill="none" stroke="#000000" stroke-width="2" /><path d="M57,14.5 c-1.908,-3.911 -3.995,-7.739 -6,-11" fill="none" stroke="#000000" stroke-width="2" /><path d="M75,14.5 c2.267,-3.625 4.42,-7.579 6,-11" fill="none" stroke="#000000" stroke-width="2" /><path d="M37,57.5 c-1.403,-7.545 -3.801,-16.481 -6.5,-24" fill="none" stroke="#000000" stroke-width="2" /><path d="M5.5,87.5 c2.879,-9.126 4.795,-19.038 5.5,-28.5" fill="none" stroke="#000000" stroke-width="2" /><path d="M9.5,51.5 c8.773,-11.431 16.518,-23.412 23.5,-36.5" fill="none" stroke="#000000" stroke-width="2" /><path d="M17,41 c-3.258,-6.554 -7.862,-15.377 -11.5,-22" fill="none" stroke="#000000" stroke-width="2" /><path d="M10,27.5 c4.367,-7.057 8.246,-14.042 12,-21.5" fill="none" stroke="#000000" stroke-width="2" /><path d="M34.5,84.5 c-0.682,-6.759 -2.527,-18.755 -4,-26" fill="none" stroke="#000000" stroke-width="2" /></svg>