<?xml version='1.0' encoding='utf-8'?>
<svg xmlns="http://www.w3.org/2000/svg" height="100px" version="1.0" viewBox="0 0 100 100" width="100px" x="0px" y="0px">
<line fill="none" stroke="#000000" stroke-width="2" x1="50" x2="50" y1="34.5" y2="50" /><line fill="none" stroke="#000000" stroke-width="2" x1="19" x2="81" y1="34.5" y2="34.5" /><path d="M11.5,92 v-82.0 h77.0 v72.0 c0,7.366 -0.695,8 -8,8 c-2.578,0 -7.353,-0.166 -15,-0.5" fill="none" stroke="#000000" stroke-width="2" /><path d="M59,34.5 c3.561,-5.549 6.699,-12.122 9,-19" fill="none" stroke="#000000" stroke-width="2" /><path d="M41,34.5 c-2.515,-6.097 -5.651,-12.546 -9,-18.5" fill="none" stroke="#000000" stroke-width="2" /><path d="M75.5,76.5 c-8.898,0.688 -17.143,1 -25,1 c-23.321,0 -24.5,-0.785 -24.5,-6 V50.0 h51.0" fill="none" stroke="#000000" stroke-width="2" /></svg>