<?xml version='1.0' encoding='utf-8'?>
<svg xmlns="http://www.w3.org/2000/svg" height="100px" version="1.0" viewBox="0 0 100 100" width="100px" x="0px" y="0px">
<line fill="none" stroke="#000000" stroke-width="2" x1="63" x2="63" y1="24" y2="10.5" /><line fill="none" stroke="#000000" stroke-width="2" x1="37" x2="37" y1="24" y2="10.5" /><line fill="none" stroke="#000000" stroke-width="2" x1="59.5" x2="11" y1="71" y2="71" /><line fill="none" stroke="#000000" stroke-width="2" x1="34.5" x2="34.5" y1="89" y2="60.5" /><line fill="none" stroke="#000000" stroke-width="2" x1="62" x2="7" y1="57.5" y2="57.5" /><line fill="none" stroke="#000000" stroke-width="2" x1="58.5" x2="12" y1="40" y2="40" /><line fill="none" stroke="#000000" stroke-width="2" x1="34.5" x2="34.5" y1="57.5" y2="29" /><line fill="none" stroke="#000000" stroke-width="2" x1="70" x2="70" y1="94.5" y2="29" /><polyline fill="none" points="12,25 89,25 89,9.5 11,9.5 11,26" stroke="#000000" stroke-width="2" /><path d="M63.5,85.5 c-13.302,2.121 -33.82,4.401 -56,6" fill="none" stroke="#000000" stroke-width="2" /><path d="M97,69.5 c-9.072,-6.172 -18.692,-11.499 -27,-15" fill="none" stroke="#000000" stroke-width="2" /></svg>