<?xml version='1.0' encoding='utf-8'?>
<svg xmlns="http://www.w3.org/2000/svg" height="100px" version="1.0" viewBox="0 0 100 100" width="100px" x="0px" y="0px">
<line fill="none" stroke="#000000" stroke-width="2" x1="50" x2="50" y1="40.5" y2="94" /><line fill="none" stroke="#000000" stroke-width="2" x1="93" x2="50.5" y1="39.5" y2="39.5" /><line fill="none" stroke="#000000" stroke-width="2" x1="73" x2="73" y1="89" y2="39.5" /><line fill="none" stroke="#000000" stroke-width="2" x1="51" x2="95" y1="89" y2="89" /><line fill="none" stroke="#000000" stroke-width="2" x1="50" x2="91" y1="72" y2="72" /><line fill="none" stroke="#000000" stroke-width="2" x1="50" x2="91" y1="55.5" y2="55.5" /><line fill="none" stroke="#000000" stroke-width="2" x1="6" x2="42.5" y1="63" y2="61" /><line fill="none" stroke="#000000" stroke-width="2" x1="26" x2="26" y1="62" y2="94" /><line fill="none" stroke="#000000" stroke-width="2" x1="63" x2="63" y1="24" y2="10.5" /><line fill="none" stroke="#000000" stroke-width="2" x1="37" x2="37" y1="24" y2="10.5" /><polyline fill="none" points="13,25 88,25 88,9.5 12,9.5 12,26" stroke="#000000" stroke-width="2" /><path d="M80.5,28.5 c-2.172,4.058 -4.801,7.632 -8,11" fill="none" stroke="#000000" stroke-width="2" /><path d="M39.5,53.5 c6.954,-6.952 12.179,-14.813 16.5,-25" fill="none" stroke="#000000" stroke-width="2" /><path d="M44.5,67 c-1.619,-5.659 -4.385,-12.36 -7.5,-18" fill="none" stroke="#000000" stroke-width="2" /><path d="M8,89 c3.391,-6.731 5.666,-14.028 6.5,-21" fill="none" stroke="#000000" stroke-width="2" /><path d="M13,62.5 c10.009,-8.546 19.011,-17.754 27,-27.5" fill="none" stroke="#000000" stroke-width="2" /><path d="M21.5,54.5 c-3.771,-4.847 -9.294,-11.606 -13.5,-16.5" fill="none" stroke="#000000" stroke-width="2" /><path d="M13.5,44.5 c4.997,-5.254 9.303,-10.372 13.5,-16" fill="none" stroke="#000000" stroke-width="2" /><path d="M43,87 c-1.135,-5.628 -3.476,-13.706 -5.5,-19" fill="none" stroke="#000000" stroke-width="2" /></svg>