<?xml version='1.0' encoding='utf-8'?>
<svg xmlns="http://www.w3.org/2000/svg" height="100px" version="1.0" viewBox="0 0 100 100" width="100px" x="0px" y="0px">
<path d="M39.5,6.5 c-7.981,6.8 -19.967,13.519 -34,18.5" fill="none" stroke="#000000" stroke-width="2" /><path d="M7,81 c12.818,-2.875 23.434,-6.386 31,-10" fill="none" stroke="#000000" stroke-width="2" /><path d="M29,65 c-4.646,-3.028 -10.341,-6.409 -17,-10" fill="none" stroke="#000000" stroke-width="2" /><path d="M6,48 h39.0 v38.5 c0,3.202 -0.258,3.5 -5.5,3.5 c-2.32,0 -8.623,-0.177 -15.5,-0.5" fill="none" stroke="#000000" stroke-width="2" /><path d="M51.5,80.5 c12.818,-2.875 23.434,-6.386 31,-10" fill="none" stroke="#000000" stroke-width="2" /><path d="M73.5,64.5 c-4.646,-3.028 -10.341,-6.409 -17,-10" fill="none" stroke="#000000" stroke-width="2" /><path d="M50.5,48 h39.0 v38.5 c0,3.202 -0.258,3.5 -5.5,3.5 c-2.32,0 -8.623,-0.177 -15.5,-0.5" fill="none" stroke="#000000" stroke-width="2" /><path d="M60.5,6.5 c7.981,6.8 19.967,13.519 34,18.5" fill="none" stroke="#000000" stroke-width="2" /><path d="M29.5,37.5 c5.588,-6.679 11.243,-14.991 16,-23.5" fill="none" stroke="#000000" stroke-width="2" /><path d="M14,38 c18.961,-0.208 41.416,-1.272 63,-3" fill="none" stroke="#000000" stroke-width="2" /><path d="M84.5,41.5 c-7.163,-6.271 -17.432,-14.196 -26.5,-20.5" fill="none" stroke="#000000" stroke-width="2" /></svg>