<?xml version='1.0' encoding='utf-8'?>
<svg xmlns="http://www.w3.org/2000/svg" height="100px" version="1.0" viewBox="0 0 100 100" width="100px" x="0px" y="0px">
<line fill="none" stroke="#000000" stroke-width="2" x1="54.5" x2="4" y1="10.5" y2="10.5" /><line fill="none" stroke="#000000" stroke-width="2" x1="22.5" x2="22.5" y1="27.5" y2="88.5" /><line fill="none" stroke="#000000" stroke-width="2" x1="36" x2="36" y1="27.5" y2="86.5" /><line fill="none" stroke="#000000" stroke-width="2" x1="97.5" x2="55" y1="23.5" y2="23.5" /><path d="M27.5,10.5 c-1.285,6.306 -2.926,11.866 -5,17" fill="none" stroke="#000000" stroke-width="2" /><path d="M36.5,90.5 c4.402,0.335 7.597,0.5 8.5,0.5 c3.844,0 4.5,-0.57 4.5,-6 v-57.5 H9.0 v65.0" fill="none" stroke="#000000" stroke-width="2" /><path d="M87.5,6 v75.0 c0,9.353 -0.566,10 -6.5,10 c-2.949,0 -9.187,-0.194 -15,-0.5" fill="none" stroke="#000000" stroke-width="2" /><path d="M74.5,66.5 c-3.807,-9.632 -9.448,-20.955 -15,-30" fill="none" stroke="#000000" stroke-width="2" /></svg>