<?xml version='1.0' encoding='utf-8'?>
<svg xmlns="http://www.w3.org/2000/svg" height="100px" version="1.0" viewBox="0 0 100 100" width="100px" x="0px" y="0px">
<line fill="none" stroke="#000000" stroke-width="2" x1="25" x2="25" y1="94" y2="6" /><line fill="none" stroke="#000000" stroke-width="2" x1="44.5" x2="4.5" y1="50" y2="50" /><line fill="none" stroke="#000000" stroke-width="2" x1="43.5" x2="6" y1="20" y2="20" /><line fill="none" stroke="#000000" stroke-width="2" x1="42.5" x2="7.5" y1="35" y2="35" /><line fill="none" stroke="#000000" stroke-width="2" x1="96" x2="42.5" y1="55.5" y2="62.5" /><line fill="none" stroke="#000000" stroke-width="2" x1="93" x2="45.5" y1="33.5" y2="39.5" /><path d="M3.5,84.5 c10.113,-11.396 16.687,-22.466 21,-35" fill="none" stroke="#000000" stroke-width="2" /><path d="M42.5,76 c-5.191,-8.093 -11.067,-16.822 -17,-25" fill="none" stroke="#000000" stroke-width="2" /><path d="M62.5,16 v65.0 c0,8.959 0.626,9.5 13.5,9.5 c16.873,0 17.233,-0.208 18.5,-25" fill="none" stroke="#000000" stroke-width="2" /><path d="M46.5,18 c18.196,-1.359 32.728,-4.495 44,-9" fill="none" stroke="#000000" stroke-width="2" /></svg>