<?xml version='1.0' encoding='utf-8'?>
<svg xmlns="http://www.w3.org/2000/svg" height="100px" version="1.0" viewBox="0 0 100 100" width="100px" x="0px" y="0px">
<line fill="none" stroke="#000000" stroke-width="2" x1="84.5" x2="48" y1="31.5" y2="31.5" /><line fill="none" stroke="#000000" stroke-width="2" x1="61.5" x2="61.5" y1="94" y2="50" /><line fill="none" stroke="#000000" stroke-width="2" x1="9.5" x2="9.5" y1="12" y2="77" /><line fill="none" stroke="#000000" stroke-width="2" x1="38" x2="3.5" y1="11" y2="11" /><line fill="none" stroke="#000000" stroke-width="2" x1="32" x2="32" y1="94.5" y2="12" /><line fill="none" stroke="#000000" stroke-width="2" x1="10.5" x2="31" y1="53.5" y2="53.5" /><line fill="none" stroke="#000000" stroke-width="2" x1="10.5" x2="31" y1="31.5" y2="31.5" /><path d="M97,36 c-11.648,-9.185 -22.119,-19.417 -31.5,-30.8 c-9.188,12.508 -18.063,21.945 -30,31.8" fill="none" stroke="#000000" stroke-width="2" /><path d="M36.5,50 h54.5 v26.0 c0,7.636 -0.319,8 -5,8 c-1.438,0 -7.036,-0.208 -12,-0.5" fill="none" stroke="#000000" stroke-width="2" /><path d="M3,78.5 c9.004,-1.661 19.22,-4.124 29,-7" fill="none" stroke="#000000" stroke-width="2" /></svg>