<?xml version='1.0' encoding='utf-8'?>
<svg xmlns="http://www.w3.org/2000/svg" height="100px" version="1.0" viewBox="0 0 100 100" width="100px" x="0px" y="0px">
<line fill="none" stroke="#000000" stroke-width="2" x1="41" x2="41" y1="15" y2="71" /><line fill="none" stroke="#000000" stroke-width="2" x1="9" x2="9" y1="12" y2="77" /><line fill="none" stroke="#000000" stroke-width="2" x1="36.5" x2="3.5" y1="11" y2="11" /><line fill="none" stroke="#000000" stroke-width="2" x1="31" x2="31" y1="94.5" y2="12" /><line fill="none" stroke="#000000" stroke-width="2" x1="10" x2="30" y1="53.5" y2="53.5" /><line fill="none" stroke="#000000" stroke-width="2" x1="10" x2="30" y1="31.5" y2="31.5" /><path d="M40.223,15.975 c8.667,-1.982 16.307,-4.538 25.277,-8.475" fill="none" stroke="#000000" stroke-width="2" /><path d="M71.5,94 v-82.5 h22.0 v59.5 c0,7.578 -0.438,8 -5,8 c-1.364,0 -6.795,-0.208 -11.5,-0.5" fill="none" stroke="#000000" stroke-width="2" /><path d="M34,74 c9.521,-3.751 17.664,-8.086 28,-15" fill="none" stroke="#000000" stroke-width="2" /><path d="M35.5,93.5 c20.068,-8.087 27,-18.806 27,-47.5 v-27.5" fill="none" stroke="#000000" stroke-width="2" /><path d="M3,78.5 c8.693,-1.661 18.557,-4.124 28,-7" fill="none" stroke="#000000" stroke-width="2" /></svg>