<?xml version='1.0' encoding='utf-8'?>
<svg xmlns="http://www.w3.org/2000/svg" height="100px" version="1.0" viewBox="0 0 100 100" width="100px" x="0px" y="0px">
<line fill="none" stroke="#000000" stroke-width="2" x1="47" x2="89" y1="87" y2="87" /><line fill="none" stroke="#000000" stroke-width="2" x1="12" x2="33.5" y1="59" y2="59" /><line fill="none" stroke="#000000" stroke-width="2" x1="13" x2="33.5" y1="33.5" y2="33.5" /><polyline fill="none" points="90,94 90,53 46,53 46,94" stroke="#000000" stroke-width="2" /><path d="M96,47.5 c-4.332,-9.48 -10.61,-20.903 -16.5,-30" fill="none" stroke="#000000" stroke-width="2" /><path d="M40,41 c14.748,-0.586 33.156,-2.407 50,-5" fill="none" stroke="#000000" stroke-width="2" /><path d="M47.5,40.5 c4.601,-10.245 9.37,-22.664 13.5,-35.5" fill="none" stroke="#000000" stroke-width="2" /><path d="M4.5,92.5 c5.182,-10.79 7.5,-23.128 7.5,-46.5 v-36.0 h22.5 v73.0 c0,7.677 -0.295,8 -4.5,8 c-1.769,0 -5.755,-0.169 -11,-0.5" fill="none" stroke="#000000" stroke-width="2" /></svg>