<?xml version='1.0' encoding='utf-8'?>
<svg xmlns="http://www.w3.org/2000/svg" height="100px" version="1.0" viewBox="0 0 100 100" width="100px" x="0px" y="0px">
<line fill="none" stroke="#000000" stroke-width="2" x1="36.5" x2="81.5" y1="88" y2="88" /><line fill="none" stroke="#000000" stroke-width="2" x1="43.422" x2="92" y1="39" y2="39" /><line fill="none" stroke="#000000" stroke-width="2" x1="42.5" x2="42.5" y1="75.5" y2="13.5" /><line fill="none" stroke="#000000" stroke-width="2" x1="12" x2="30.5" y1="59" y2="59" /><line fill="none" stroke="#000000" stroke-width="2" x1="13" x2="30.5" y1="33.5" y2="33.5" /><path d="M41.5,14.5 c15.975,0 32.349,-2.302 46.5,-6.5" fill="none" stroke="#000000" stroke-width="2" /><path d="M31.5,78 c12.988,-2.812 24.073,-6.347 37.5,-12" fill="none" stroke="#000000" stroke-width="2" /><path d="M69,12.5 c0,43.784 13.5,73.5 21.5,73.5 c2.104,0 4.108,-3.888 5.5,-20.5" fill="none" stroke="#000000" stroke-width="2" /><path d="M5,92.5 c4.782,-10.866 7,-23.313 7,-46.5 v-36.0 h19.5 v73.0 c0,7.724 -0.25,8 -5,8 c-1.488,0 -4.584,-0.155 -9,-0.5" fill="none" stroke="#000000" stroke-width="2" /></svg>