<?xml version='1.0' encoding='utf-8'?>
<svg xmlns="http://www.w3.org/2000/svg" height="100px" version="1.0" viewBox="0 0 100 100" width="100px" x="0px" y="0px">
<line fill="none" stroke="#000000" stroke-width="2" x1="32" x2="96.5" y1="54" y2="54" /><line fill="none" stroke="#000000" stroke-width="2" x1="34.5" x2="95.5" y1="24" y2="24" /><line fill="none" stroke="#000000" stroke-width="2" x1="80.5" x2="80.5" y1="93" y2="25" /><line fill="none" stroke="#000000" stroke-width="2" x1="10.5" x2="28" y1="59" y2="59" /><line fill="none" stroke="#000000" stroke-width="2" x1="11.5" x2="28" y1="33.5" y2="33.5" /><path d="M54,20.5 c-3.177,-5.692 -6.658,-11.258 -10,-16" fill="none" stroke="#000000" stroke-width="2" /><path d="M75,24 c3.777,-6.426 7.357,-13.44 10,-19.5" fill="none" stroke="#000000" stroke-width="2" /><path d="M33,93 c14.264,-13.278 18,-23.14 18,-59.5 v-8.5" fill="none" stroke="#000000" stroke-width="2" /><path d="M4.5,92.5 c4.1,-10.866 6,-23.313 6,-46.5 v-36.0 h18.5 v73.0 c0,7.798 -0.24,8 -4.5,8 c-1.705,0 -5.44,-0.164 -10.5,-0.5" fill="none" stroke="#000000" stroke-width="2" /></svg>