<?xml version='1.0' encoding='utf-8'?>
<svg xmlns="http://www.w3.org/2000/svg" height="100px" version="1.0" viewBox="0 0 100 100" width="100px" x="0px" y="0px">
<line fill="none" stroke="#000000" stroke-width="2" x1="9" x2="26.5" y1="59" y2="59" /><line fill="none" stroke="#000000" stroke-width="2" x1="10" x2="26.5" y1="33.5" y2="33.5" /><line fill="none" stroke="#000000" stroke-width="2" x1="63" x2="63" y1="71.5" y2="91.5" /><line fill="none" stroke="#000000" stroke-width="2" x1="45.5" x2="81" y1="71.5" y2="71.5" /><line fill="none" stroke="#000000" stroke-width="2" x1="32.5" x2="94.5" y1="10.5" y2="10.5" /><polyline fill="none" points="38.5,38.5 38.5,20.5 88.5,20.5 88.5,37.5 39.5,37.5" stroke="#000000" stroke-width="2" /><path d="M4.5,92.5 c3.238,-8.584 4.5,-17.869 4.5,-46.5 v-36.0 h18.5 v73.0 c0,7.724 -0.25,8 -5,8 c-1.488,0 -4.585,-0.155 -9,-0.5" fill="none" stroke="#000000" stroke-width="2" /><path d="M76,90.5 c5.624,0.363 8.998,0.5 10.5,0.5 c4.994,0 5.5,-0.614 5.5,-8 v-35.5 h-57.5 v45.0" fill="none" stroke="#000000" stroke-width="2" /><path d="M56.5,48.5 c0,11.462 -4.148,16.246 -18,20" fill="none" stroke="#000000" stroke-width="2" /><path d="M69,48.5 v8.5 c0,6.616 0.427,7 8,7 h14.0" fill="none" stroke="#000000" stroke-width="2" /></svg>