<?xml version='1.0' encoding='utf-8'?>
<svg xmlns="http://www.w3.org/2000/svg" height="100px" version="1.0" viewBox="0 0 100 100" width="100px" x="0px" y="0px">
<line fill="none" stroke="#000000" stroke-width="2" x1="32" x2="96" y1="68.5" y2="68.5" /><line fill="none" stroke="#000000" stroke-width="2" x1="33" x2="95" y1="15.5" y2="15.5" /><line fill="none" stroke="#000000" stroke-width="2" x1="50.5" x2="50.5" y1="25.5" y2="4.5" /><line fill="none" stroke="#000000" stroke-width="2" x1="77.5" x2="77.5" y1="25.5" y2="4.5" /><line fill="none" stroke="#000000" stroke-width="2" x1="40" x2="88" y1="41.5" y2="41.5" /><line fill="none" stroke="#000000" stroke-width="2" x1="9" x2="27.5" y1="59" y2="59" /><line fill="none" stroke="#000000" stroke-width="2" x1="10" x2="27.5" y1="33.5" y2="33.5" /><polyline fill="none" points="40,57.5 89,57.5 89,26.5 39,26.5 39,58.5" stroke="#000000" stroke-width="2" /><path d="M31,92.5 c18.191,-3.142 33,-15.423 33,-25 v-9.0" fill="none" stroke="#000000" stroke-width="2" /><path d="M95,92.5 c-16.955,-3.106 -31,-15.334 -31,-25" fill="none" stroke="#000000" stroke-width="2" /><path d="M4.5,92.5 c3.238,-8.584 4.5,-17.869 4.5,-46.5 v-36.0 h19.5 v73.0 c0,7.724 -0.25,8 -5,8 c-1.488,0 -4.585,-0.155 -9,-0.5" fill="none" stroke="#000000" stroke-width="2" /></svg>