<?xml version='1.0' encoding='utf-8'?>
<svg xmlns="http://www.w3.org/2000/svg" height="100px" version="1.0" viewBox="0 0 100 100" width="100px" x="0px" y="0px">
<line fill="none" stroke="#000000" stroke-width="2" x1="9" x2="27.5" y1="59" y2="59" /><line fill="none" stroke="#000000" stroke-width="2" x1="10" x2="27.5" y1="33.5" y2="33.5" /><line fill="none" stroke="#000000" stroke-width="2" x1="34" x2="96" y1="59.5" y2="59.5" /><line fill="none" stroke="#000000" stroke-width="2" x1="96" x2="34" y1="41.5" y2="41.5" /><line fill="none" stroke="#000000" stroke-width="2" x1="34.5" x2="94.5" y1="14.5" y2="14.5" /><line fill="none" stroke="#000000" stroke-width="2" x1="38.5" x2="91.5" y1="28" y2="28" /><line fill="none" stroke="#000000" stroke-width="2" x1="65.5" x2="65.5" y1="59.5" y2="14.5" /><line fill="none" stroke="#000000" stroke-width="2" x1="41" x2="88" y1="88" y2="88" /><polyline fill="none" points="89,94 89,68 40,68 40,94" stroke="#000000" stroke-width="2" /><path d="M4.5,92.5 c3.238,-8.584 4.5,-17.869 4.5,-46.5 v-36.0 h19.5 v73.0 c0,7.724 -0.25,8 -5,8 c-1.488,0 -4.585,-0.155 -9,-0.5" fill="none" stroke="#000000" stroke-width="2" /><path d="M77.5,59.5 c2.611,-3.571 4.789,-7.628 6.5,-12" fill="none" stroke="#000000" stroke-width="2" /><path d="M53.5,59.5 c-1.816,-3.986 -4.054,-8.124 -6.5,-12" fill="none" stroke="#000000" stroke-width="2" /><path d="M56,14.5 c-1.908,-3.911 -3.995,-7.739 -6,-11" fill="none" stroke="#000000" stroke-width="2" /><path d="M75,14.5 c2.267,-3.625 4.42,-7.579 6,-11" fill="none" stroke="#000000" stroke-width="2" /></svg>