<?xml version='1.0' encoding='utf-8'?>
<svg xmlns="http://www.w3.org/2000/svg" height="100px" version="1.0" viewBox="0 0 100 100" width="100px" x="0px" y="0px">
<line fill="none" stroke="#000000" stroke-width="2" x1="38.5" x2="88" y1="52" y2="52" /><line fill="none" stroke="#000000" stroke-width="2" x1="30.5" x2="95.5" y1="32" y2="32" /><line fill="none" stroke="#000000" stroke-width="2" x1="33" x2="93.5" y1="14.5" y2="14.5" /><line fill="none" stroke="#000000" stroke-width="2" x1="63" x2="63" y1="14.5" y2="3.5" /><line fill="none" stroke="#000000" stroke-width="2" x1="9" x2="26.5" y1="59" y2="59" /><line fill="none" stroke="#000000" stroke-width="2" x1="10" x2="26.5" y1="33.5" y2="33.5" /><polyline fill="none" points="38.5,66 89,66 89,39 37.5,39 37.5,67" stroke="#000000" stroke-width="2" /><path d="M48,72 v9.5 c0,10.211 0.32,10.5 15,10.5 c18.346,0 18.973,-0.486 20,-14" fill="none" stroke="#000000" stroke-width="2" /><path d="M30,90.5 c4.617,-5.278 8.471,-11.75 11,-18.5" fill="none" stroke="#000000" stroke-width="2" /><path d="M97,90.5 c-3.218,-6.149 -7.359,-12.565 -12,-18.5" fill="none" stroke="#000000" stroke-width="2" /><path d="M72.5,83 c-4.653,-4.073 -10.304,-8.354 -16,-12" fill="none" stroke="#000000" stroke-width="2" /><path d="M70.5,32 c4.18,-4.94 7.592,-10.904 10,-17.5" fill="none" stroke="#000000" stroke-width="2" /><path d="M53.5,32 c-2.932,-5.871 -6.225,-11.707 -10,-17.5" fill="none" stroke="#000000" stroke-width="2" /><path d="M4.5,92.5 c3.238,-8.584 4.5,-17.869 4.5,-46.5 v-36.0 h18.5 v73.0 c0,7.724 -0.25,8 -5,8 c-1.488,0 -4.585,-0.155 -9,-0.5" fill="none" stroke="#000000" stroke-width="2" /></svg>