<?xml version='1.0' encoding='utf-8'?>
<svg xmlns="http://www.w3.org/2000/svg" height="100px" version="1.0" viewBox="0 0 100 100" width="100px" x="0px" y="0px">
<line fill="none" stroke="#000000" stroke-width="2" x1="58" x2="97" y1="21" y2="21" /><line fill="none" stroke="#000000" stroke-width="2" x1="6.5" x2="53.5" y1="12" y2="12" /><line fill="none" stroke="#000000" stroke-width="2" x1="52" x2="7.5" y1="60.5" y2="60.5" /><line fill="none" stroke="#000000" stroke-width="2" x1="29.5" x2="29.5" y1="84.5" y2="45" /><path d="M44.5,91 c28.232,-14.364 40.58,-32.823 43.5,-70" fill="none" stroke="#000000" stroke-width="2" /><path d="M96,91 c-22.135,-13.833 -32.11,-30.296 -36,-63" fill="none" stroke="#000000" stroke-width="2" /><path d="M47,49 c6.438,-11.971 11.959,-28.03 15,-44" fill="none" stroke="#000000" stroke-width="2" /><path d="M50,43 c-3.77,-7.446 -8.542,-15.544 -13,-22" fill="none" stroke="#000000" stroke-width="2" /><path d="M6,43.5 c17.488,-1.879 31.547,-4.218 40.5,-6.5" fill="none" stroke="#000000" stroke-width="2" /><path d="M5.5,89.5 c14.641,-2.037 31.261,-6.176 48,-12" fill="none" stroke="#000000" stroke-width="2" /><path d="M16.5,42 c3.496,-9.168 6.617,-18.503 10,-30" fill="none" stroke="#000000" stroke-width="2" /></svg>