<?xml version='1.0' encoding='utf-8'?>
<svg xmlns="http://www.w3.org/2000/svg" height="100px" version="1.0" viewBox="0 0 100 100" width="100px" x="0px" y="0px">
<line fill="none" stroke="#000000" stroke-width="2" x1="50" x2="94" y1="43" y2="43" /><line fill="none" stroke="#000000" stroke-width="2" x1="50" x2="50" y1="87" y2="13" /><line fill="none" stroke="#000000" stroke-width="2" x1="5" x2="44.5" y1="34.5" y2="34.5" /><line fill="none" stroke="#000000" stroke-width="2" x1="24.5" x2="24.5" y1="53" y2="14" /><polyline fill="none" points="10.5,85 40.5,85 40.5,54 9.5,54 9.5,93" stroke="#000000" stroke-width="2" /><path d="M49,14 c14.855,-1.158 29.26,-3.192 43,-6" fill="none" stroke="#000000" stroke-width="2" /><path d="M37.5,91 c12.407,-3.204 23.186,-7.382 36,-14" fill="none" stroke="#000000" stroke-width="2" /><path d="M73,11 c0,48.54 11.846,80 18,80 c1.92,0 3.775,-4.618 5,-22" fill="none" stroke="#000000" stroke-width="2" /><path d="M7.5,17 c14.119,-1.771 25.398,-4.48 34.5,-8" fill="none" stroke="#000000" stroke-width="2" /></svg>