<?xml version='1.0' encoding='utf-8'?>
<svg xmlns="http://www.w3.org/2000/svg" height="100px" version="1.0" viewBox="0 0 100 100" width="100px" x="0px" y="0px">
<line fill="none" stroke="#000000" stroke-width="2" x1="22.5" x2="22.5" y1="3" y2="38" /><line fill="none" stroke="#000000" stroke-width="2" x1="36.5" x2="36.5" y1="3" y2="38" /><line fill="none" stroke="#000000" stroke-width="2" x1="9.5" x2="49.5" y1="25.5" y2="25.5" /><line fill="none" stroke="#000000" stroke-width="2" x1="4.5" x2="53" y1="47.5" y2="47.5" /><line fill="none" stroke="#000000" stroke-width="2" x1="63.5" x2="84" y1="12.5" y2="12.5" /><line fill="none" stroke="#000000" stroke-width="2" x1="58" x2="92" y1="55.5" y2="55.5" /><line fill="none" stroke="#000000" stroke-width="2" x1="75.5" x2="75.5" y1="29.5" y2="54.5" /><polyline fill="none" points="9.5,39 50.5,39 50.5,12.5 8.5,12.5 8.5,40" stroke="#000000" stroke-width="2" /><polyline fill="none" points="11.5,71.5 11.5,56 47.5,56 47.5,70.5 12.5,70.5" stroke="#000000" stroke-width="2" /><path d="M34.5,88.5 c3.011,-5.245 5.648,-11.537 7.5,-18" fill="none" stroke="#000000" stroke-width="2" /><path d="M22.5,90.5 c-1.609,-6.497 -3.773,-13.707 -6,-20" fill="none" stroke="#000000" stroke-width="2" /><path d="M5,93 c16.26,-1.991 30.346,-4.323 48,-8" fill="none" stroke="#000000" stroke-width="2" /><path d="M75.826,28.5 c2.502,-4.499 5.277,-10.373 7.247,-15.368" fill="none" stroke="#000000" stroke-width="2" /><path d="M50.5,37 c6.822,-9.34 12.305,-20.504 16,-33" fill="none" stroke="#000000" stroke-width="2" /><path d="M96,69 c-1.52,22.305 -1.719,22.5 -20.5,22.5 c-18.016,0 -18.5,-0.364 -18.5,-9 v-54.0 h36.0 v33.0" fill="none" stroke="#000000" stroke-width="2" /></svg>