<?xml version='1.0' encoding='utf-8'?>
<svg xmlns="http://www.w3.org/2000/svg" height="100px" version="1.0" viewBox="0 0 100 100" width="100px" x="0px" y="0px">
<line fill="none" stroke="#000000" stroke-width="2" x1="7" x2="93" y1="16" y2="16" /><line fill="none" stroke="#000000" stroke-width="2" x1="31" x2="31" y1="27" y2="4" /><line fill="none" stroke="#000000" stroke-width="2" x1="69" x2="69" y1="27" y2="4" /><line fill="none" stroke="#000000" stroke-width="2" x1="45.5" x2="92.5" y1="34.5" y2="34.5" /><path d="M26,91.5 c18.072,-5.209 34,-23.096 34,-38 v-13.0" fill="none" stroke="#000000" stroke-width="2" /><path d="M94,91.5 c-18.072,-5.209 -34,-23.096 -34,-38" fill="none" stroke="#000000" stroke-width="2" /><path d="M31,55 c8.607,-8.589 15.055,-19.03 19,-31" fill="none" stroke="#000000" stroke-width="2" /><path d="M76,55 c6.814,-5.713 12.016,-12.326 15.595,-19.926" fill="none" stroke="#000000" stroke-width="2" /><path d="M6,83 c10.295,-5.727 18.898,-12.322 25,-19" fill="none" stroke="#000000" stroke-width="2" /><path d="M28,42.5 c-5.285,-3.811 -11.757,-7.928 -19,-12" fill="none" stroke="#000000" stroke-width="2" /></svg>