<?xml version='1.0' encoding='utf-8'?>
<svg xmlns="http://www.w3.org/2000/svg" height="100px" version="1.0" viewBox="0 0 100 100" width="100px" x="0px" y="0px">
<line fill="none" stroke="#000000" stroke-width="2" x1="7.5" x2="92.5" y1="15" y2="15" /><line fill="none" stroke="#000000" stroke-width="2" x1="32" x2="32" y1="24.5" y2="4" /><line fill="none" stroke="#000000" stroke-width="2" x1="68" x2="68" y1="24.5" y2="4" /><line fill="none" stroke="#000000" stroke-width="2" x1="8" x2="92" y1="30.5" y2="30.5" /><line fill="none" stroke="#000000" stroke-width="2" x1="50" x2="50" y1="30.5" y2="20" /><line fill="none" stroke="#000000" stroke-width="2" x1="50" x2="50" y1="59.5" y2="92.5" /><path d="M84.5,52.5 c-11.727,1.005 -22.805,1.5 -33.5,1.5 c-28.279,0 -28.5,-0.178 -28.5,-9.5 v-14.0" fill="none" stroke="#000000" stroke-width="2" /><path d="M72,58.5 v28.5 c0,4.716 0.359,5 8.5,5 c10.504,0 10.728,-0.186 11.5,-22.5" fill="none" stroke="#000000" stroke-width="2" /><path d="M8,93.5 c13.657,-5.286 22,-17.714 22,-35" fill="none" stroke="#000000" stroke-width="2" /></svg>