<?xml version='1.0' encoding='utf-8'?>
<svg xmlns="http://www.w3.org/2000/svg" height="100px" version="1.0" viewBox="0 0 100 100" width="100px" x="0px" y="0px">
<line fill="none" stroke="#000000" stroke-width="2" x1="45.5" x2="45.5" y1="93" y2="37" /><line fill="none" stroke="#000000" stroke-width="2" x1="78.5" x2="11.5" y1="59.5" y2="59.5" /><line fill="none" stroke="#000000" stroke-width="2" x1="7" x2="93" y1="15.5" y2="15.5" /><line fill="none" stroke="#000000" stroke-width="2" x1="31" x2="31" y1="26.5" y2="4.5" /><line fill="none" stroke="#000000" stroke-width="2" x1="69" x2="69" y1="26.5" y2="4.5" /><path d="M74,84.5 c-10.865,-10.941 -19.458,-18.757 -27.5,-25" fill="none" stroke="#000000" stroke-width="2" /><path d="M11,88.5 c15.301,-8.515 26.374,-18.336 33.5,-29" fill="none" stroke="#000000" stroke-width="2" /><path d="M35,55.5 c-3.832,-5.48 -8.029,-10.89 -12,-15.5" fill="none" stroke="#000000" stroke-width="2" /><path d="M56,55.5 c5.01,-5.089 9.528,-10.915 12.5,-16" fill="none" stroke="#000000" stroke-width="2" /><path d="M3.5,55.5 c9.656,-9.01 17.44,-21.107 21,-32" fill="none" stroke="#000000" stroke-width="2" /><path d="M21,31.5 h68.5 c-2.307,54.253 -5.467,60 -12,60" fill="none" stroke="#000000" stroke-width="2" /><path d="M77.5,91.5 c-4.302,0 -11.125,-0.347 -18.5,-1" fill="none" stroke="#000000" stroke-width="2" /></svg>