<?xml version='1.0' encoding='utf-8'?>
<svg xmlns="http://www.w3.org/2000/svg" height="100px" version="1.0" viewBox="0 0 100 100" width="100px" x="0px" y="0px">
<line fill="none" stroke="#000000" stroke-width="2" x1="7" x2="93" y1="12" y2="12" /><line fill="none" stroke="#000000" stroke-width="2" x1="32" x2="32" y1="21.5" y2="3" /><line fill="none" stroke="#000000" stroke-width="2" x1="68" x2="68" y1="20" y2="3" /><line fill="none" stroke="#000000" stroke-width="2" x1="18" x2="82" y1="47.5" y2="47.5" /><line fill="none" stroke="#000000" stroke-width="2" x1="13" x2="87" y1="66" y2="66" /><line fill="none" stroke="#000000" stroke-width="2" x1="6.5" x2="93.5" y1="75" y2="75" /><line fill="none" stroke="#000000" stroke-width="2" x1="50" x2="50" y1="75" y2="20.5" /><line fill="none" stroke="#000000" stroke-width="2" x1="9.5" x2="90.5" y1="29.5" y2="29.5" /><polyline fill="none" points="18,57.5 83,57.5 83,37.5 17,37.5 17,58.5" stroke="#000000" stroke-width="2" /><path d="M92.5,93.5 c-4.201,-4.449 -9.068,-9.012 -15,-14" fill="none" stroke="#000000" stroke-width="2" /><path d="M67,93.5 c-2.518,-4.312 -5.578,-8.78 -9.5,-13.75" fill="none" stroke="#000000" stroke-width="2" /><path d="M41.5,93.5 c-0.834,-4.173 -2.088,-8.55 -4,-13.5" fill="none" stroke="#000000" stroke-width="2" /><path d="M7.5,93.5 c5.269,-3.956 10.214,-8.529 15,-14" fill="none" stroke="#000000" stroke-width="2" /><path d="M15,21.5 c24.306,0 47.725,-1.011 70,-3" fill="none" stroke="#000000" stroke-width="2" /></svg>