<?xml version='1.0' encoding='utf-8'?>
<svg xmlns="http://www.w3.org/2000/svg" height="100px" version="1.0" viewBox="0 0 100 100" width="100px" x="0px" y="0px">
<line fill="none" stroke="#000000" stroke-width="2" x1="6.5" x2="93.5" y1="13.5" y2="13.5" /><line fill="none" stroke="#000000" stroke-width="2" x1="32" x2="32" y1="22" y2="4.5" /><line fill="none" stroke="#000000" stroke-width="2" x1="68" x2="68" y1="21" y2="4.5" /><line fill="none" stroke="#000000" stroke-width="2" x1="36.5" x2="93.5" y1="52" y2="52" /><line fill="none" stroke="#000000" stroke-width="2" x1="92" x2="38" y1="37" y2="37" /><line fill="none" stroke="#000000" stroke-width="2" x1="11.5" x2="31.5" y1="65.5" y2="65.5" /><line fill="none" stroke="#000000" stroke-width="2" x1="11.5" x2="31.5" y1="45" y2="45" /><path d="M35.5,70.5 c15.238,-8.557 28.056,-28.397 30,-49" fill="none" stroke="#000000" stroke-width="2" /><path d="M52.5,37 c-2.745,-4.979 -5.693,-9.817 -8.5,-14" fill="none" stroke="#000000" stroke-width="2" /><path d="M77.5,37 c3.191,-4.64 6.234,-9.644 8.5,-14" fill="none" stroke="#000000" stroke-width="2" /><path d="M5.5,92.5 c4.1,-8.692 6,-18.95 6,-37.5 v-29.0 h21.0 v58.601 c0,6.136 -0.246,6.399 -4,6.399 c-1.726,0 -5.385,-0.159 -10.5,-0.5" fill="none" stroke="#000000" stroke-width="2" /><path d="M65,57.5 v29.5 c0,4.207 -0.334,4.5 -4.5,4.5 c-1.297,0 -4.863,-0.147 -9.5,-0.5" fill="none" stroke="#000000" stroke-width="2" /><path d="M36.5,90 c7.936,-3.163 16.621,-8.727 23.5,-15" fill="none" stroke="#000000" stroke-width="2" /><path d="M93.5,91 c-7.88,-6.807 -16.07,-12.228 -23.5,-15.5" fill="none" stroke="#000000" stroke-width="2" /><path d="M58,72 c-3.238,-3.758 -6.947,-7.317 -11,-10.5" fill="none" stroke="#000000" stroke-width="2" /><path d="M83,61 c-3.371,3.742 -7.245,7.304 -11.5,10.5" fill="none" stroke="#000000" stroke-width="2" /><path d="M94.5,70.5 c-11.18,-6.692 -21.172,-18.964 -26.5,-33.5" fill="none" stroke="#000000" stroke-width="2" /></svg>