<?xml version='1.0' encoding='utf-8'?>
<svg xmlns="http://www.w3.org/2000/svg" height="100px" version="1.0" viewBox="0 0 100 100" width="100px" x="0px" y="0px">
<line fill="none" stroke="#000000" stroke-width="2" x1="64" x2="64" y1="94" y2="50" /><line fill="none" stroke="#000000" stroke-width="2" x1="85.5" x2="51.5" y1="31.5" y2="31.5" /><line fill="none" stroke="#000000" stroke-width="2" x1="21.5" x2="21.5" y1="85" y2="6" /><polyline fill="none" points="7.5,52 36.5,52 36.5,21 6.5,21 6.5,60" stroke="#000000" stroke-width="2" /><path d="M41,50 h50.0 v26.0 c0,7.636 -0.4,8 -5,8 c-1.319,0 -6.446,-0.208 -11,-0.5" fill="none" stroke="#000000" stroke-width="2" /><path d="M97,36 c-10.797,-9.185 -20.742,-19.487 -29.5,-30.8 c-8.412,12.623 -16.436,21.945 -27.5,31.8" fill="none" stroke="#000000" stroke-width="2" /><path d="M42.5,88 c-1.764,-8.9 -4.873,-20.247 -8,-29" fill="none" stroke="#000000" stroke-width="2" /><path d="M3.5,90 c10.928,-2.313 23.961,-6.738 36.5,-12.5" fill="none" stroke="#000000" stroke-width="2" /></svg>