<?xml version='1.0' encoding='utf-8'?>
<svg xmlns="http://www.w3.org/2000/svg" height="100px" version="1.0" viewBox="0 0 100 100" width="100px" x="0px" y="0px">
<line fill="none" stroke="#000000" stroke-width="2" x1="21.5" x2="21.5" y1="84.5" y2="6" /><line fill="none" stroke="#000000" stroke-width="2" x1="46.5" x2="91" y1="50.5" y2="50.5" /><line fill="none" stroke="#000000" stroke-width="2" x1="46.5" x2="91" y1="69" y2="69" /><line fill="none" stroke="#000000" stroke-width="2" x1="69" x2="69" y1="33" y2="6" /><polyline fill="none" points="7.5,52 36.5,52 36.5,21 6.5,21 6.5,60" stroke="#000000" stroke-width="2" /><path d="M40.5,88 c-1.764,-8.9 -4.873,-20.247 -8,-29" fill="none" stroke="#000000" stroke-width="2" /><path d="M3.5,90 c10.329,-2.313 22.648,-6.738 34.5,-12.5" fill="none" stroke="#000000" stroke-width="2" /><path d="M45.5,92 v-58.0 h46.5 v48.5 c0,7.567 -0.385,8 -6,8 c-2.227,0 -6.297,-0.159 -13.5,-0.5" fill="none" stroke="#000000" stroke-width="2" /><path d="M54.5,28 c-3.592,-6.757 -7.367,-13.301 -11,-19" fill="none" stroke="#000000" stroke-width="2" /><path d="M83,28 c4.135,-6.325 8.035,-13.087 11,-19" fill="none" stroke="#000000" stroke-width="2" /></svg>