<?xml version='1.0' encoding='utf-8'?>
<svg xmlns="http://www.w3.org/2000/svg" height="100px" version="1.0" viewBox="0 0 100 100" width="100px" x="0px" y="0px">
<line fill="none" stroke="#000000" stroke-width="2" x1="37.5" x2="94.5" y1="36" y2="36" /><line fill="none" stroke="#000000" stroke-width="2" x1="20" x2="20" y1="84.5" y2="6" /><polyline fill="none" points="6.5,52 34.5,52 34.5,21 5.5,21 5.5,60" stroke="#000000" stroke-width="2" /><path d="M51.5,13 v69.5 c0,7.683 -0.33,8 -5,8 c-1.957,0 -5.217,-0.188 -9,-0.5" fill="none" stroke="#000000" stroke-width="2" /><path d="M90.299,43.5 c-5.218,21.081 -16.896,36.703 -32.906,46" fill="none" stroke="#000000" stroke-width="2" /><path d="M71,5.5 c0,48.484 12.406,85.5 18,85.5 c2.161,0 4.607,-4.751 6,-23" fill="none" stroke="#000000" stroke-width="2" /><path d="M36.5,66 c12.416,-3.335 24.08,-7.81 32,-12" fill="none" stroke="#000000" stroke-width="2" /><path d="M37.5,17.5 c11.245,-2.834 20.398,-6.405 27.5,-10.5" fill="none" stroke="#000000" stroke-width="2" /><path d="M81,8 c4.259,5.757 7.751,11.229 11.5,18" fill="none" stroke="#000000" stroke-width="2" /><path d="M37.5,86.5 c-1.764,-8.134 -4.873,-18.501 -8,-26.5" fill="none" stroke="#000000" stroke-width="2" /><path d="M2.5,90 c9.73,-2.313 21.336,-6.738 32.5,-12.5" fill="none" stroke="#000000" stroke-width="2" /></svg>