<?xml version='1.0' encoding='utf-8'?>
<svg xmlns="http://www.w3.org/2000/svg" height="100px" version="1.0" viewBox="0 0 100 100" width="100px" x="0px" y="0px">
<line fill="none" stroke="#000000" stroke-width="2" x1="42.5" x2="42.5" y1="9.5" y2="94" /><line fill="none" stroke="#000000" stroke-width="2" x1="62" x2="93" y1="48" y2="48" /><line fill="none" stroke="#000000" stroke-width="2" x1="42.5" x2="62.5" y1="54" y2="54" /><line fill="none" stroke="#000000" stroke-width="2" x1="42.5" x2="62.5" y1="73.5" y2="73.5" /><line fill="none" stroke="#000000" stroke-width="2" x1="20.5" x2="20.5" y1="84.5" y2="6" /><polyline fill="none" points="43.5,36.5 65,36.5 65,10.5 43.5,10.5" stroke="#000000" stroke-width="2" /><polyline fill="none" points="71,36.5 92,36.5 92,10.5 71,10.5" stroke="#000000" stroke-width="2" /><polyline fill="none" points="7,52 35,52 35,21 6,21 6,60" stroke="#000000" stroke-width="2" /><path d="M57,91 c17.964,-9.493 28.414,-21.844 35.049,-42.309" fill="none" stroke="#000000" stroke-width="2" /><path d="M96.5,91 c-12.203,-8.099 -23.351,-21.82 -30,-37.5" fill="none" stroke="#000000" stroke-width="2" /><path d="M38,89 c-1.764,-8.9 -4.873,-20.247 -8,-29" fill="none" stroke="#000000" stroke-width="2" /><path d="M3,90 c9.73,-2.313 21.335,-6.738 32.5,-12.5" fill="none" stroke="#000000" stroke-width="2" /></svg>