<?xml version='1.0' encoding='utf-8'?>
<svg xmlns="http://www.w3.org/2000/svg" height="100px" version="1.0" viewBox="0 0 100 100" width="100px" x="0px" y="0px">
<line fill="none" stroke="#000000" stroke-width="2" x1="20.5" x2="20.5" y1="84.5" y2="6" /><polyline fill="none" points="7,52 35,52 35,21 6,21 6,60" stroke="#000000" stroke-width="2" /><polyline fill="none" points="54,86 54,54.5 81,54.5 81,77.5 55,77.5" stroke="#000000" stroke-width="2" /><polyline fill="none" points="47.5,42 47.5,9.5 87.5,9.5 87.5,42" stroke="#000000" stroke-width="2" /><polyline fill="none" points="64.5,42 64.5,24 86.604,24" stroke="#000000" stroke-width="2" /><path d="M38,89 c-1.764,-8.9 -4.873,-20.247 -8,-29" fill="none" stroke="#000000" stroke-width="2" /><path d="M3,90 c9.73,-2.313 21.336,-6.738 32.5,-12.5" fill="none" stroke="#000000" stroke-width="2" /><path d="M41.5,92 v-49.0 h52.0 v39.0 c0,7.546 -0.45,8 -5.5,8 c-1.848,0 -6.018,-0.166 -11.5,-0.5" fill="none" stroke="#000000" stroke-width="2" /></svg>