<?xml version='1.0' encoding='utf-8'?>
<svg xmlns="http://www.w3.org/2000/svg" height="100px" version="1.0" viewBox="0 0 100 100" width="100px" x="0px" y="0px">
<line fill="none" stroke="#000000" stroke-width="2" x1="42" x2="90.5" y1="62" y2="62" /><line fill="none" stroke="#000000" stroke-width="2" x1="90.5" x2="42" y1="78" y2="78" /><line fill="none" stroke="#000000" stroke-width="2" x1="88.5" x2="43.5" y1="38" y2="38" /><line fill="none" stroke="#000000" stroke-width="2" x1="43.5" x2="88.5" y1="24" y2="24" /><line fill="none" stroke="#000000" stroke-width="2" x1="20.5" x2="20.5" y1="84.5" y2="6" /><polyline fill="none" points="41,86 41,46.5 91.5,46.5 91.5,79" stroke="#000000" stroke-width="2" /><polyline fill="none" points="42.5,39 42.5,10 89.5,10 89.5,39" stroke="#000000" stroke-width="2" /><polyline fill="none" points="7,52 35,52 35,21 6,21 6,60" stroke="#000000" stroke-width="2" /><path d="M96,72 c-0.93,19.268 -1.143,19.5 -16.5,19.5 c-13.177,0 -13.5,-0.302 -13.5,-9 V11.0" fill="none" stroke="#000000" stroke-width="2" /><path d="M38,89 c-1.764,-8.9 -4.873,-20.247 -8,-29" fill="none" stroke="#000000" stroke-width="2" /><path d="M3,90 c9.73,-2.313 21.336,-6.738 32.5,-12.5" fill="none" stroke="#000000" stroke-width="2" /></svg>