<?xml version='1.0' encoding='utf-8'?>
<svg xmlns="http://www.w3.org/2000/svg" height="100px" version="1.0" viewBox="0 0 100 100" width="100px" x="0px" y="0px">
<line fill="none" stroke="#000000" stroke-width="2" x1="27" x2="27" y1="71.5" y2="91.5" /><line fill="none" stroke="#000000" stroke-width="2" x1="13" x2="41" y1="71.5" y2="71.5" /><line fill="none" stroke="#000000" stroke-width="2" x1="5" x2="49.5" y1="10.5" y2="10.5" /><line fill="none" stroke="#000000" stroke-width="2" x1="54" x2="54" y1="23" y2="61" /><line fill="none" stroke="#000000" stroke-width="2" x1="73" x2="73" y1="87" y2="5.5" /><polyline fill="none" points="8.5,38.5 8.5,20.5 45.5,20.5 45.5,37.5 9.5,37.5" stroke="#000000" stroke-width="2" /><polyline fill="none" points="55,53 92,53 92,22 53,22" stroke="#000000" stroke-width="2" /><path d="M34,90.5 c4.691,0.363 7.747,0.5 9,0.5 c4.069,0 4.5,-0.543 4.5,-8 v-35.5 h-41.0 v45.0" fill="none" stroke="#000000" stroke-width="2" /><path d="M22,48.5 c0,10.79 -4.162,16.685 -13,20" fill="none" stroke="#000000" stroke-width="2" /><path d="M31,48.5 v9.5 c0,5.617 0.363,6 6.5,6 h9.0" fill="none" stroke="#000000" stroke-width="2" /><path d="M97,93 c-2.969,-9.197 -7.418,-20.88 -11.5,-30" fill="none" stroke="#000000" stroke-width="2" /><path d="M51,90 c12.776,-0.902 27.615,-3.683 42.166,-8" fill="none" stroke="#000000" stroke-width="2" /></svg>