<?xml version='1.0' encoding='utf-8'?>
<svg xmlns="http://www.w3.org/2000/svg" height="100px" version="1.0" viewBox="0 0 100 100" width="100px" x="0px" y="0px">
<line fill="none" stroke="#000000" stroke-width="2" x1="36" x2="96.5" y1="68.5" y2="68.5" /><line fill="none" stroke="#000000" stroke-width="2" x1="36" x2="95.5" y1="15.5" y2="15.5" /><line fill="none" stroke="#000000" stroke-width="2" x1="52.5" x2="52.5" y1="25.5" y2="4.5" /><line fill="none" stroke="#000000" stroke-width="2" x1="79.5" x2="79.5" y1="25.5" y2="4.5" /><line fill="none" stroke="#000000" stroke-width="2" x1="43" x2="89" y1="41.5" y2="41.5" /><line fill="none" stroke="#000000" stroke-width="2" x1="20" x2="20" y1="84.5" y2="6" /><polyline fill="none" points="43,57.5 90,57.5 90,26.5 42,26.5 42,58.5" stroke="#000000" stroke-width="2" /><polyline fill="none" points="7,52 34,52 34,21 6,21 6,60" stroke="#000000" stroke-width="2" /><path d="M35,92.5 c16.475,-2.845 31,-15.985 31,-25 v-9.0" fill="none" stroke="#000000" stroke-width="2" /><path d="M95.5,92.5 c-15.455,-2.831 -29.5,-15.608 -29.5,-25" fill="none" stroke="#000000" stroke-width="2" /><path d="M37.5,86.5 c-1.764,-8.134 -4.873,-18.501 -8,-26.5" fill="none" stroke="#000000" stroke-width="2" /><path d="M2.5,90 c9.73,-2.313 21.336,-6.738 32.5,-12.5" fill="none" stroke="#000000" stroke-width="2" /></svg>