<?xml version='1.0' encoding='utf-8'?>
<svg xmlns="http://www.w3.org/2000/svg" height="100px" version="1.0" viewBox="0 0 100 100" width="100px" x="0px" y="0px">
<line fill="none" stroke="#000000" stroke-width="2" x1="40.5" x2="4.5" y1="24" y2="24" /><line fill="none" stroke="#000000" stroke-width="2" x1="23" x2="23" y1="24" y2="6" /><line fill="none" stroke="#000000" stroke-width="2" x1="23" x2="23" y1="94" y2="50" /><path d="M47.5,27 c17.872,-4.71 32.255,-11.104 42,-18" fill="none" stroke="#000000" stroke-width="2" /><path d="M46.5,57.5 c20.308,-5.645 34.937,-12.899 46,-22" fill="none" stroke="#000000" stroke-width="2" /><path d="M39,90 c24.336,-5.866 41.204,-13.968 56,-26" fill="none" stroke="#000000" stroke-width="2" /><path d="M42,67 c-4.699,-5.175 -11.992,-12.456 -18,-18" fill="none" stroke="#000000" stroke-width="2" /><path d="M2.5,65.5 c17.714,-10.158 28.963,-22.313 37.084,-40.9" fill="none" stroke="#000000" stroke-width="2" /><path d="M33.5,58 c4.515,-4.479 9.337,-10.365 13.5,-16.5" fill="none" stroke="#000000" stroke-width="2" /></svg>