<?xml version='1.0' encoding='utf-8'?>
<svg xmlns="http://www.w3.org/2000/svg" height="100px" version="1.0" viewBox="0 0 100 100" width="100px" x="0px" y="0px">
<line fill="none" stroke="#000000" stroke-width="2" x1="50" x2="50" y1="27" y2="4" /><line fill="none" stroke="#000000" stroke-width="2" x1="13" x2="87" y1="13" y2="13" /><line fill="none" stroke="#000000" stroke-width="2" x1="5.5" x2="94.5" y1="27" y2="27" /><line fill="none" stroke="#000000" stroke-width="2" x1="30.5" x2="30.5" y1="89.5" y2="67" /><polyline fill="none" points="20,56.5 81,56.5 81,36 19,36 19,57.5" stroke="#000000" stroke-width="2" /><path d="M65.5,76 c9.051,-5.362 17.059,-11.576 24,-18.5" fill="none" stroke="#000000" stroke-width="2" /><path d="M49,56.5 c-10.039,7.453 -24.082,13.979 -44,19.5" fill="none" stroke="#000000" stroke-width="2" /><path d="M51,56.5 c7.448,16.339 23.893,29.889 44,36" fill="none" stroke="#000000" stroke-width="2" /><path d="M11,92.5 c17.213,-2.324 32.226,-5.313 50,-10" fill="none" stroke="#000000" stroke-width="2" /></svg>