<?xml version='1.0' encoding='utf-8'?>
<svg xmlns="http://www.w3.org/2000/svg" height="100px" version="1.0" viewBox="0 0 100 100" width="100px" x="0px" y="0px">
<line fill="none" stroke="#000000" stroke-width="2" x1="65.5" x2="65.5" y1="5" y2="84" /><line fill="none" stroke="#000000" stroke-width="2" x1="39.5" x2="91.5" y1="85" y2="85" /><line fill="none" stroke="#000000" stroke-width="2" x1="39.5" x2="91.5" y1="53.5" y2="53.5" /><line fill="none" stroke="#000000" stroke-width="2" x1="33.5" x2="4" y1="24" y2="24" /><line fill="none" stroke="#000000" stroke-width="2" x1="18.5" x2="18.5" y1="24" y2="6" /><line fill="none" stroke="#000000" stroke-width="2" x1="18.5" x2="18.5" y1="94" y2="50.5" /><polyline fill="none" points="92.5,93 92.5,24 38.5,24 38.5,93" stroke="#000000" stroke-width="2" /><path d="M34.5,66.5 c-3.854,-5.102 -10.039,-12.558 -15,-18" fill="none" stroke="#000000" stroke-width="2" /><path d="M2.5,65.5 c14.356,-10.141 23.476,-22.278 30.059,-40.834" fill="none" stroke="#000000" stroke-width="2" /><path d="M26,56 c3.371,-3.937 6.654,-8.925 9.5,-14.5" fill="none" stroke="#000000" stroke-width="2" /></svg>