<?xml version='1.0' encoding='utf-8'?>
<svg xmlns="http://www.w3.org/2000/svg" height="100px" version="1.0" viewBox="0 0 100 100" width="100px" x="0px" y="0px">
<line fill="none" stroke="#000000" stroke-width="2" x1="43" x2="91" y1="84.5" y2="84.5" /><line fill="none" stroke="#000000" stroke-width="2" x1="43" x2="91" y1="51.5" y2="51.5" /><line fill="none" stroke="#000000" stroke-width="2" x1="34.5" x2="4.5" y1="24" y2="24" /><line fill="none" stroke="#000000" stroke-width="2" x1="19.5" x2="19.5" y1="24" y2="6" /><line fill="none" stroke="#000000" stroke-width="2" x1="19.5" x2="19.5" y1="94" y2="50" /><polyline fill="none" points="92,92.5 92,20.5 42,20.5 42,92.5" stroke="#000000" stroke-width="2" /><path d="M69.5,4.5 c-1.918,5.894 -4.201,11.102 -7,16" fill="none" stroke="#000000" stroke-width="2" /><path d="M36.5,66 c-4.111,-4.961 -10.709,-12.209 -16,-17.5" fill="none" stroke="#000000" stroke-width="2" /><path d="M2.5,65.5 c14.835,-10.144 24.258,-22.283 31.061,-40.844" fill="none" stroke="#000000" stroke-width="2" /><path d="M27.5,55.5 c3.204,-3.921 6.245,-8.603 9,-14" fill="none" stroke="#000000" stroke-width="2" /></svg>