<?xml version='1.0' encoding='utf-8'?>
<svg xmlns="http://www.w3.org/2000/svg" height="100px" version="1.0" viewBox="0 0 100 100" width="100px" x="0px" y="0px">
<line fill="none" stroke="#000000" stroke-width="2" x1="32" x2="4" y1="24" y2="24" /><line fill="none" stroke="#000000" stroke-width="2" x1="17.5" x2="17.5" y1="24" y2="6" /><line fill="none" stroke="#000000" stroke-width="2" x1="17.5" x2="17.5" y1="94" y2="51" /><line fill="none" stroke="#000000" stroke-width="2" x1="96.5" x2="61.5" y1="35" y2="35" /><line fill="none" stroke="#000000" stroke-width="2" x1="94.5" x2="62.5" y1="11" y2="11" /><line fill="none" stroke="#000000" stroke-width="2" x1="49" x2="49" y1="94" y2="41.5" /><path d="M33,65 c-3.469,-4.677 -9.035,-11.511 -13.5,-16.5" fill="none" stroke="#000000" stroke-width="2" /><path d="M26,56 c3.371,-3.937 6.654,-8.925 9.5,-14.5" fill="none" stroke="#000000" stroke-width="2" /><path d="M2.5,65.5 c13.637,-10.137 22.299,-22.271 28.553,-40.82" fill="none" stroke="#000000" stroke-width="2" /><path d="M86,35 v48.5 c0,7.031 -0.848,8 -6.5,8 c-2.564,0 -6.179,-0.144 -11.5,-0.5" fill="none" stroke="#000000" stroke-width="2" /><path d="M58.5,28 c-6.155,11.01 -14.33,20.146 -24,27" fill="none" stroke="#000000" stroke-width="2" /><path d="M59.5,6 c-6.021,9.226 -13.919,16.872 -24,23" fill="none" stroke="#000000" stroke-width="2" /></svg>