<?xml version='1.0' encoding='utf-8'?>
<svg xmlns="http://www.w3.org/2000/svg" height="100px" version="1.0" viewBox="0 0 100 100" width="100px" x="0px" y="0px">
<line fill="none" stroke="#000000" stroke-width="2" x1="33.5" x2="4" y1="24" y2="24" /><line fill="none" stroke="#000000" stroke-width="2" x1="18.5" x2="18.5" y1="24" y2="6" /><line fill="none" stroke="#000000" stroke-width="2" x1="18.5" x2="18.5" y1="94" y2="50.5" /><line fill="none" stroke="#000000" stroke-width="2" x1="43.5" x2="85.5" y1="86" y2="86" /><polyline fill="none" points="86.5,93 86.5,54 42.5,54 42.5,93" stroke="#000000" stroke-width="2" /><path d="M33,65 c-3.469,-4.677 -9.035,-11.511 -13.5,-16.5" fill="none" stroke="#000000" stroke-width="2" /><path d="M2.5,65.5 c14.356,-10.141 23.476,-22.278 30.059,-40.834" fill="none" stroke="#000000" stroke-width="2" /><path d="M26,56 c3.371,-3.937 6.654,-8.925 9.5,-14.5" fill="none" stroke="#000000" stroke-width="2" /><path d="M96,56 c-12.331,-8.854 -21.894,-17.831 -31.5,-29.5 c-9.606,11.669 -19.169,20.646 -31.5,29.5" fill="none" stroke="#000000" stroke-width="2" /><path d="M56,9.5 c-4.76,8.724 -12.222,17.013 -22,24" fill="none" stroke="#000000" stroke-width="2" /><path d="M94.5,33 c-6.195,-8.054 -13.896,-16.36 -22.5,-24" fill="none" stroke="#000000" stroke-width="2" /></svg>