<?xml version='1.0' encoding='utf-8'?>
<svg xmlns="http://www.w3.org/2000/svg" height="100px" version="1.0" viewBox="0 0 100 100" width="100px" x="0px" y="0px">
<line fill="none" stroke="#000000" stroke-width="2" x1="64.5" x2="64.5" y1="11" y2="89.5" /><line fill="none" stroke="#000000" stroke-width="2" x1="40" x2="89" y1="29.5" y2="29.5" /><line fill="none" stroke="#000000" stroke-width="2" x1="31" x2="95" y1="89" y2="89" /><line fill="none" stroke="#000000" stroke-width="2" x1="93" x2="37" y1="68" y2="68" /><line fill="none" stroke="#000000" stroke-width="2" x1="33.5" x2="4" y1="24" y2="24" /><line fill="none" stroke="#000000" stroke-width="2" x1="18.5" x2="18.5" y1="24" y2="6" /><line fill="none" stroke="#000000" stroke-width="2" x1="18.5" x2="18.5" y1="94" y2="50.5" /><polyline fill="none" points="40,50 90,50 90,10 39,10 39,51" stroke="#000000" stroke-width="2" /><path d="M34,66 c-3.598,-4.818 -9.369,-11.859 -14,-17" fill="none" stroke="#000000" stroke-width="2" /><path d="M2.5,65.5 c14.356,-10.141 23.476,-22.278 30.059,-40.834" fill="none" stroke="#000000" stroke-width="2" /><path d="M26,56 c3.371,-3.937 6.654,-8.925 9.5,-14.5" fill="none" stroke="#000000" stroke-width="2" /></svg>