<?xml version='1.0' encoding='utf-8'?>
<svg xmlns="http://www.w3.org/2000/svg" height="100px" version="1.0" viewBox="0 0 100 100" width="100px" x="0px" y="0px">
<line fill="none" stroke="#000000" stroke-width="2" x1="33.5" x2="4" y1="24" y2="24" /><line fill="none" stroke="#000000" stroke-width="2" x1="18.5" x2="18.5" y1="24" y2="6" /><line fill="none" stroke="#000000" stroke-width="2" x1="18.5" x2="18.5" y1="94" y2="50.5" /><line fill="none" stroke="#000000" stroke-width="2" x1="42" x2="89" y1="23.5" y2="23.5" /><polyline fill="none" points="42,38.5 90,38.5 90,9.5 41,9.5 41,39.5" stroke="#000000" stroke-width="2" /><path d="M33,65 c-3.469,-4.677 -9.035,-11.511 -13.5,-16.5" fill="none" stroke="#000000" stroke-width="2" /><path d="M2.5,65.5 c14.356,-10.141 23.476,-22.278 30.059,-40.834" fill="none" stroke="#000000" stroke-width="2" /><path d="M26,56 c3.371,-3.937 6.654,-8.925 9.5,-14.5" fill="none" stroke="#000000" stroke-width="2" /><path d="M46,51.5 h47.0 c0,31.825 -4.266,39.5 -11,39.5 c-2.811,0 -7.183,-0.151 -12,-0.5" fill="none" stroke="#000000" stroke-width="2" /><path d="M28.5,68.5 c10.083,-7.175 21.301,-20.29 26,-30" fill="none" stroke="#000000" stroke-width="2" /><path d="M45.5,56 v19.25 c0,6.035 0.973,6.75 17,6.75 c16.979,0 17.278,-0.255 18,-13" fill="none" stroke="#000000" stroke-width="2" /><path d="M45.5,68.5 c11.115,-1.884 21.847,-5.149 33,-10" fill="none" stroke="#000000" stroke-width="2" /></svg>