<?xml version='1.0' encoding='utf-8'?>
<svg xmlns="http://www.w3.org/2000/svg" height="100px" version="1.0" viewBox="0 0 100 100" width="100px" x="0px" y="0px">
<line fill="none" stroke="#000000" stroke-width="2" x1="30.5" x2="30.5" y1="90" y2="72" /><line fill="none" stroke="#000000" stroke-width="2" x1="36" x2="36" y1="37.5" y2="62" /><line fill="none" stroke="#000000" stroke-width="2" x1="64" x2="64" y1="37.5" y2="62" /><line fill="none" stroke="#000000" stroke-width="2" x1="9" x2="91" y1="43" y2="43" /><line fill="none" stroke="#000000" stroke-width="2" x1="7" x2="93" y1="63" y2="63" /><line fill="none" stroke="#000000" stroke-width="2" x1="88" x2="12" y1="53" y2="53" /><line fill="none" stroke="#000000" stroke-width="2" x1="50" x2="50" y1="13" y2="4" /><line fill="none" stroke="#000000" stroke-width="2" x1="6" x2="94" y1="13" y2="13" /><polyline fill="none" points="15,34.5 45,34.5 45,20 14,20 14,35.5" stroke="#000000" stroke-width="2" /><polyline fill="none" points="56,34.5 86,34.5 86,20 55,20 55,35.5" stroke="#000000" stroke-width="2" /><path d="M49,63 c-9.99,6.3 -24.168,11.907 -44,16.5" fill="none" stroke="#000000" stroke-width="2" /><path d="M51,63 c7.221,12.978 23.111,23.99 44,29.5" fill="none" stroke="#000000" stroke-width="2" /><path d="M11,92.5 c17.232,-1.83 32.201,-4.218 50,-8" fill="none" stroke="#000000" stroke-width="2" /><path d="M65.5,79 c8.011,-3.664 15.371,-7.97 21.5,-12.5" fill="none" stroke="#000000" stroke-width="2" /></svg>