<?xml version='1.0' encoding='utf-8'?>
<svg xmlns="http://www.w3.org/2000/svg" height="100px" version="1.0" viewBox="0 0 100 100" width="100px" x="0px" y="0px">
<line fill="none" stroke="#000000" stroke-width="2" x1="93" x2="7" y1="10" y2="10" /><line fill="none" stroke="#000000" stroke-width="2" x1="62" x2="62" y1="11" y2="33" /><line fill="none" stroke="#000000" stroke-width="2" x1="38" x2="38" y1="11" y2="33" /><line fill="none" stroke="#000000" stroke-width="2" x1="57" x2="88.5" y1="73.5" y2="73.5" /><line fill="none" stroke="#000000" stroke-width="2" x1="58.5" x2="88.5" y1="57.5" y2="57.5" /><line fill="none" stroke="#000000" stroke-width="2" x1="7" x2="53" y1="45" y2="45" /><line fill="none" stroke="#000000" stroke-width="2" x1="7" x2="51" y1="82" y2="82" /><line fill="none" stroke="#000000" stroke-width="2" x1="30" x2="30" y1="95.5" y2="53.5" /><polyline fill="none" points="14.5,35 14.5,20.5 85.5,20.5 85.5,34 15.5,34" stroke="#000000" stroke-width="2" /><polyline fill="none" points="45,38.5 45,52.5 15,52.5 15,38.5" stroke="#000000" stroke-width="2" /><polyline fill="none" points="12,74 49,74 49,60.5 11,60.5 11,75" stroke="#000000" stroke-width="2" /><path d="M48.5,94 c6.149,-6.852 9,-14.88 9,-29.5 V42.0 h32.0 v46.0 c0,4.235 -0.836,5 -6,5 c-2.166,0 -6.576,-0.155 -13,-0.5" fill="none" stroke="#000000" stroke-width="2" /></svg>