<?xml version='1.0' encoding='utf-8'?>
<svg xmlns="http://www.w3.org/2000/svg" height="100px" version="1.0" viewBox="0 0 100 100" width="100px" x="0px" y="0px">
<line fill="none" stroke="#000000" stroke-width="2" x1="44" x2="84" y1="88" y2="88" /><line fill="none" stroke="#000000" stroke-width="2" x1="50" x2="93.5" y1="39" y2="39" /><line fill="none" stroke="#000000" stroke-width="2" x1="49" x2="49" y1="75.5" y2="13.5" /><line fill="none" stroke="#000000" stroke-width="2" x1="16.5" x2="32" y1="11" y2="11" /><line fill="none" stroke="#000000" stroke-width="2" x1="9.5" x2="37" y1="66" y2="66" /><line fill="none" stroke="#000000" stroke-width="2" x1="10" x2="37" y1="45.5" y2="45.5" /><line fill="none" stroke="#000000" stroke-width="2" x1="24" x2="24" y1="27" y2="65" /><path d="M48,14.5 c14.072,0 29.492,-2.44 42,-6.5" fill="none" stroke="#000000" stroke-width="2" /><path d="M41,78 c11.082,-2.812 20.543,-6.347 32,-12" fill="none" stroke="#000000" stroke-width="2" /><path d="M73,12.5 c0,44.222 11.711,73.5 18.5,73.5 c1.863,0 3.813,-4.235 5,-20.5" fill="none" stroke="#000000" stroke-width="2" /><path d="M24,26 c2.49,-4.415 5.021,-9.583 7.08,-14.394" fill="none" stroke="#000000" stroke-width="2" /><path d="M5,33 c5.873,-8.756 10.994,-19.415 14.5,-30.5" fill="none" stroke="#000000" stroke-width="2" /><path d="M5.5,92.5 c3.111,-9.464 4.5,-20.622 4.5,-46.5 v-20.0 h28.0 v57.0 c0,7.533 -0.453,8 -5,8 c-1.688,0 -4.993,-0.14 -10,-0.5" fill="none" stroke="#000000" stroke-width="2" /></svg>