<?xml version='1.0' encoding='utf-8'?>
<svg xmlns="http://www.w3.org/2000/svg" height="100px" version="1.0" viewBox="0 0 100 100" width="100px" x="0px" y="0px">
<line fill="none" stroke="#000000" stroke-width="2" x1="18.5" x2="37" y1="11" y2="11" /><line fill="none" stroke="#000000" stroke-width="2" x1="11" x2="43" y1="66" y2="66" /><line fill="none" stroke="#000000" stroke-width="2" x1="11.5" x2="43" y1="45.5" y2="45.5" /><line fill="none" stroke="#000000" stroke-width="2" x1="27.5" x2="27.5" y1="27" y2="65" /><line fill="none" stroke="#000000" stroke-width="2" x1="96.5" x2="48.5" y1="68" y2="68" /><line fill="none" stroke="#000000" stroke-width="2" x1="95.5" x2="49" y1="22" y2="22" /><line fill="none" stroke="#000000" stroke-width="2" x1="94" x2="51" y1="44.5" y2="44.5" /><line fill="none" stroke="#000000" stroke-width="2" x1="73" x2="73" y1="94" y2="23" /><path d="M29,26 c2.492,-4.415 5.027,-9.584 7.086,-14.395" fill="none" stroke="#000000" stroke-width="2" /><path d="M6,33 c7.038,-8.735 12.346,-19.179 15.5,-30.5" fill="none" stroke="#000000" stroke-width="2" /><path d="M6,92.5 c3.793,-9.42 5.5,-20.622 5.5,-46.5 v-20.0 H44.0 v57.0 c0,7.533 -0.553,8 -6,8 c-1.975,0 -5.645,-0.166 -11.5,-0.5" fill="none" stroke="#000000" stroke-width="2" /><path d="M64.5,19 c-1.911,-4.979 -3.995,-9.85 -6,-14" fill="none" stroke="#000000" stroke-width="2" /><path d="M80.5,22 c2.645,-5.603 5.16,-11.711 7,-17" fill="none" stroke="#000000" stroke-width="2" /></svg>