<?xml version='1.0' encoding='utf-8'?>
<svg xmlns="http://www.w3.org/2000/svg" height="100px" version="1.0" viewBox="0 0 100 100" width="100px" x="0px" y="0px">
<line fill="none" stroke="#000000" stroke-width="2" x1="6" x2="43" y1="24" y2="24" /><line fill="none" stroke="#000000" stroke-width="2" x1="9.5" x2="39.5" y1="38" y2="38" /><line fill="none" stroke="#000000" stroke-width="2" x1="9.5" x2="39.5" y1="52" y2="52" /><line fill="none" stroke="#000000" stroke-width="2" x1="9" x2="40" y1="10.5" y2="10.5" /><line fill="none" stroke="#000000" stroke-width="2" x1="95.5" x2="53" y1="15" y2="15" /><line fill="none" stroke="#000000" stroke-width="2" x1="92" x2="50.5" y1="31.5" y2="31.5" /><polyline fill="none" points="11,88.5 39,88.5 39,66 10,66 10,94.5" stroke="#000000" stroke-width="2" /><path d="M42.5,40 c5.581,-9.942 10.215,-22.503 13,-36" fill="none" stroke="#000000" stroke-width="2" /><path d="M48,81 c0,-8.019 11.849,-23.995 43.374,-49.281" fill="none" stroke="#000000" stroke-width="2" /><path d="M93.5,63.5 c-1.32,25.511 -2.197,26.5 -22.5,26.5 c-17.994,0 -23,-3.136 -23,-9" fill="none" stroke="#000000" stroke-width="2" /></svg>