<?xml version='1.0' encoding='utf-8'?>
<svg xmlns="http://www.w3.org/2000/svg" height="100px" version="1.0" viewBox="0 0 100 100" width="100px" x="0px" y="0px">
<line fill="none" stroke="#000000" stroke-width="2" x1="41.5" x2="96.5" y1="11" y2="11" /><line fill="none" stroke="#000000" stroke-width="2" x1="46" x2="46" y1="74.5" y2="30" /><line fill="none" stroke="#000000" stroke-width="2" x1="6" x2="39" y1="24" y2="24" /><line fill="none" stroke="#000000" stroke-width="2" x1="9.5" x2="35.5" y1="38" y2="38" /><line fill="none" stroke="#000000" stroke-width="2" x1="9.5" x2="35.5" y1="52" y2="52" /><line fill="none" stroke="#000000" stroke-width="2" x1="9" x2="36" y1="10.5" y2="10.5" /><polyline fill="none" points="47,31 72,31 72,65.5 47,65.5" stroke="#000000" stroke-width="2" /><polyline fill="none" points="11,88.5 35,88.5 35,66 10,66 10,94.5" stroke="#000000" stroke-width="2" /><path d="M89,11 v72.5 c0,7.202 -0.816,8 -7.75,8 c-2.578,0 -7.104,-0.14 -14.75,-0.5" fill="none" stroke="#000000" stroke-width="2" /></svg>