<?xml version='1.0' encoding='utf-8'?>
<svg xmlns="http://www.w3.org/2000/svg" height="100px" version="1.0" viewBox="0 0 100 100" width="100px" x="0px" y="0px">
<line fill="none" stroke="#000000" stroke-width="2" x1="38.5" x2="82" y1="88" y2="88" /><line fill="none" stroke="#000000" stroke-width="2" x1="45" x2="92.5" y1="39" y2="39" /><line fill="none" stroke="#000000" stroke-width="2" x1="44" x2="44" y1="75.5" y2="13.5" /><line fill="none" stroke="#000000" stroke-width="2" x1="5" x2="36" y1="24" y2="24" /><line fill="none" stroke="#000000" stroke-width="2" x1="8.5" x2="32.5" y1="38" y2="38" /><line fill="none" stroke="#000000" stroke-width="2" x1="8.5" x2="32.5" y1="52" y2="52" /><line fill="none" stroke="#000000" stroke-width="2" x1="8" x2="33" y1="10.5" y2="10.5" /><polyline fill="none" points="10,88.5 32,88.5 32,66 9,66 9,94.5" stroke="#000000" stroke-width="2" /><path d="M43,14.5 c15.467,0 31.776,-2.374 45.5,-6.5" fill="none" stroke="#000000" stroke-width="2" /><path d="M35,78 c12.122,-2.812 22.469,-6.347 35,-12" fill="none" stroke="#000000" stroke-width="2" /><path d="M70,12.5 c0,43.784 12.797,73.5 20.5,73.5 c2.063,0 4.188,-4.235 5.5,-20.5" fill="none" stroke="#000000" stroke-width="2" /></svg>