<?xml version='1.0' encoding='utf-8'?>
<svg xmlns="http://www.w3.org/2000/svg" height="100px" version="1.0" viewBox="0 0 100 100" width="100px" x="0px" y="0px">
<line fill="none" stroke="#000000" stroke-width="2" x1="46.5" x2="88.5" y1="87" y2="87" /><line fill="none" stroke="#000000" stroke-width="2" x1="6" x2="38.5" y1="24" y2="24" /><line fill="none" stroke="#000000" stroke-width="2" x1="9.5" x2="35.5" y1="38" y2="38" /><line fill="none" stroke="#000000" stroke-width="2" x1="9.5" x2="35.5" y1="52" y2="52" /><line fill="none" stroke="#000000" stroke-width="2" x1="9" x2="36" y1="10.5" y2="10.5" /><polyline fill="none" points="89.5,94 89.5,53 45.5,53 45.5,94" stroke="#000000" stroke-width="2" /><polyline fill="none" points="11,88.5 35,88.5 35,66 10,66 10,94.5" stroke="#000000" stroke-width="2" /><path d="M95.5,47.5 c-4.332,-9.48 -10.61,-20.903 -16.5,-30" fill="none" stroke="#000000" stroke-width="2" /><path d="M39.5,41 c14.748,-0.586 33.156,-2.407 50,-5" fill="none" stroke="#000000" stroke-width="2" /><path d="M47,40.5 c4.601,-10.245 9.37,-22.664 13.5,-35.5" fill="none" stroke="#000000" stroke-width="2" /></svg>