<?xml version='1.0' encoding='utf-8'?>
<svg xmlns="http://www.w3.org/2000/svg" height="100px" version="1.0" viewBox="0 0 100 100" width="100px" x="0px" y="0px">
<line fill="none" stroke="#000000" stroke-width="2" x1="4.5" x2="35" y1="24" y2="24" /><line fill="none" stroke="#000000" stroke-width="2" x1="7.5" x2="32" y1="38" y2="38" /><line fill="none" stroke="#000000" stroke-width="2" x1="7.5" x2="32" y1="52" y2="52" /><line fill="none" stroke="#000000" stroke-width="2" x1="7" x2="32.5" y1="10.5" y2="10.5" /><line fill="none" stroke="#000000" stroke-width="2" x1="35.5" x2="62" y1="42.5" y2="42.5" /><polyline fill="none" points="9,88.5 31.5,88.5 31.5,66 8,66 8,94.5" stroke="#000000" stroke-width="2" /><path d="M68.025,24.726 C73.273,47.345 84.594,69.177 98,83" fill="none" stroke="#000000" stroke-width="2" /><path d="M95,25 c-5.761,10.068 -11.955,18.472 -18.5,25" fill="none" stroke="#000000" stroke-width="2" /><path d="M61.045,43.202 c-4.59,14.72 -14.294,29.171 -26.045,38.798" fill="none" stroke="#000000" stroke-width="2" /><path d="M50,6 c10.482,2.347 19.512,5.474 30.5,10.5" fill="none" stroke="#000000" stroke-width="2" /><path d="M41.5,25.5 H68.0 V84.0 c0,6.892 -0.954,8 -6.5,8 c-2.74,0 -6.389,-0.136 -11.5,-0.5" fill="none" stroke="#000000" stroke-width="2" /></svg>