<?xml version='1.0' encoding='utf-8'?>
<svg xmlns="http://www.w3.org/2000/svg" height="100px" version="1.0" viewBox="0 0 100 100" width="100px" x="0px" y="0px">
<line fill="none" stroke="#000000" stroke-width="2" x1="96" x2="38.5" y1="68" y2="68" /><line fill="none" stroke="#000000" stroke-width="2" x1="94.5" x2="40" y1="22" y2="22" /><line fill="none" stroke="#000000" stroke-width="2" x1="92.5" x2="42" y1="44.5" y2="44.5" /><line fill="none" stroke="#000000" stroke-width="2" x1="68.5" x2="68.5" y1="94" y2="23" /><line fill="none" stroke="#000000" stroke-width="2" x1="5.5" x2="37.5" y1="24" y2="24" /><line fill="none" stroke="#000000" stroke-width="2" x1="9" x2="35" y1="38" y2="38" /><line fill="none" stroke="#000000" stroke-width="2" x1="9" x2="35" y1="52" y2="52" /><line fill="none" stroke="#000000" stroke-width="2" x1="8.5" x2="35.5" y1="10.5" y2="10.5" /><polyline fill="none" points="10.5,88.5 34.5,88.5 34.5,66 9.5,66 9.5,94.5" stroke="#000000" stroke-width="2" /><path d="M58,19 c-2.213,-4.986 -4.65,-9.86 -7,-14" fill="none" stroke="#000000" stroke-width="2" /><path d="M78,22 c3.415,-5.588 6.652,-11.703 9,-17" fill="none" stroke="#000000" stroke-width="2" /></svg>