<?xml version='1.0' encoding='utf-8'?>
<svg xmlns="http://www.w3.org/2000/svg" height="100px" version="1.0" viewBox="0 0 100 100" width="100px" x="0px" y="0px">
<line fill="none" stroke="#000000" stroke-width="2" x1="19.5" x2="80.5" y1="89.5" y2="89.5" /><line fill="none" stroke="#000000" stroke-width="2" x1="8" x2="92" y1="53.5" y2="53.5" /><line fill="none" stroke="#000000" stroke-width="2" x1="18.5" x2="81.5" y1="61.5" y2="61.5" /><line fill="none" stroke="#000000" stroke-width="2" x1="18.5" x2="81.5" y1="69.5" y2="69.5" /><line fill="none" stroke="#000000" stroke-width="2" x1="23.5" x2="76.5" y1="46" y2="46" /><line fill="none" stroke="#000000" stroke-width="2" x1="44.5" x2="6" y1="13.5" y2="13.5" /><line fill="none" stroke="#000000" stroke-width="2" x1="52.5" x2="95" y1="20.5" y2="20.5" /><line fill="none" stroke="#000000" stroke-width="2" x1="80" x2="80" y1="45.5" y2="20.5" /><polyline fill="none" points="81.5,94 81.5,77.5 18.5,77.5 18.5,94" stroke="#000000" stroke-width="2" /><path d="M27,5 v33.5 c0,3.552 -0.42,4 -5.5,4 c-2.396,0 -5.885,-0.165 -10.5,-0.5" fill="none" stroke="#000000" stroke-width="2" /><path d="M45,24.5 c-13.494,2.277 -26.061,3.88 -39,5" fill="none" stroke="#000000" stroke-width="2" /><path d="M52.032,8.97 c15.552,-0.486 28.118,-1.508 37.968,-2.97" fill="none" stroke="#000000" stroke-width="2" /><path d="M36,42 c12.58,-6.62 17,-13.788 17,-34" fill="none" stroke="#000000" stroke-width="2" /></svg>