<?xml version='1.0' encoding='utf-8'?>
<svg xmlns="http://www.w3.org/2000/svg" height="100px" version="1.0" viewBox="0 0 100 100" width="100px" x="0px" y="0px">
<line fill="none" stroke="#000000" stroke-width="2" x1="38" x2="95.5" y1="27.5" y2="27.5" /><line fill="none" stroke="#000000" stroke-width="2" x1="66.5" x2="66.5" y1="49.5" y2="12" /><line fill="none" stroke="#000000" stroke-width="2" x1="5.5" x2="38.5" y1="24" y2="24" /><line fill="none" stroke="#000000" stroke-width="2" x1="9" x2="35" y1="38" y2="38" /><line fill="none" stroke="#000000" stroke-width="2" x1="9" x2="35" y1="52" y2="52" /><line fill="none" stroke="#000000" stroke-width="2" x1="8.5" x2="35.5" y1="10.5" y2="10.5" /><polyline fill="none" points="10.5,88.5 34.5,88.5 34.5,66 9.5,66 9.5,94.5" stroke="#000000" stroke-width="2" /><path d="M40.5,13 c17.5,0 34.462,-1.53 50.5,-4.5" fill="none" stroke="#000000" stroke-width="2" /><path d="M96,52.5 c-13.665,-7.696 -23.313,-16.254 -29,-25" fill="none" stroke="#000000" stroke-width="2" /><path d="M37.5,52.5 c13.514,-7.744 23.021,-16.427 28.5,-25" fill="none" stroke="#000000" stroke-width="2" /><path d="M76,65 h16.0 c-1.604,20.013 -4.918,24.5 -11.5,24.5 c-3.846,0 -8.902,-0.335 -14,-1" fill="none" stroke="#000000" stroke-width="2" /><path d="M37,91 c12.596,-6.083 21.024,-18.942 22,-37.5" fill="none" stroke="#000000" stroke-width="2" /><path d="M43,53.5 h35.0 c-1.011,5.8 -2.547,13.371 -4,19.5" fill="none" stroke="#000000" stroke-width="2" /></svg>