<?xml version='1.0' encoding='utf-8'?>
<svg xmlns="http://www.w3.org/2000/svg" height="100px" version="1.0" viewBox="0 0 100 100" width="100px" x="0px" y="0px">
<line fill="none" stroke="#000000" stroke-width="2" x1="37.5" x2="94.5" y1="15" y2="15" /><line fill="none" stroke="#000000" stroke-width="2" x1="66" x2="66" y1="15" y2="3" /><line fill="none" stroke="#000000" stroke-width="2" x1="66" x2="66" y1="95" y2="43" /><line fill="none" stroke="#000000" stroke-width="2" x1="5" x2="36.5" y1="24" y2="24" /><line fill="none" stroke="#000000" stroke-width="2" x1="8.5" x2="33" y1="38" y2="38" /><line fill="none" stroke="#000000" stroke-width="2" x1="8.5" x2="33" y1="52" y2="52" /><line fill="none" stroke="#000000" stroke-width="2" x1="8" x2="33.5" y1="10.5" y2="10.5" /><polyline fill="none" points="94.5,59 94.5,39 38.5,39 38.5,59" stroke="#000000" stroke-width="2" /><polyline fill="none" points="10,88.5 32.5,88.5 32.5,66 9,66 9,94.5" stroke="#000000" stroke-width="2" /><path d="M75.5,39 c3.828,-6.712 6.945,-14.943 9,-24" fill="none" stroke="#000000" stroke-width="2" /><path d="M55,39 c-2.538,-8.102 -5.543,-16.132 -9,-24" fill="none" stroke="#000000" stroke-width="2" /><path d="M44,86 v-29.0 h44.0 v23.0 c0,4.266 -0.237,4.5 -4,4.5 c-1.717,0 -5.027,-0.159 -10,-0.5" fill="none" stroke="#000000" stroke-width="2" /></svg>