<?xml version='1.0' encoding='utf-8'?>
<svg xmlns="http://www.w3.org/2000/svg" height="100px" version="1.0" viewBox="0 0 100 100" width="100px" x="0px" y="0px">
<line fill="none" stroke="#000000" stroke-width="2" x1="5.5" x2="35" y1="24" y2="24" /><line fill="none" stroke="#000000" stroke-width="2" x1="8.5" x2="32" y1="38" y2="38" /><line fill="none" stroke="#000000" stroke-width="2" x1="8.5" x2="32" y1="52" y2="52" /><line fill="none" stroke="#000000" stroke-width="2" x1="8" x2="32.5" y1="10.5" y2="10.5" /><line fill="none" stroke="#000000" stroke-width="2" x1="46.5" x2="84.5" y1="32.5" y2="32.5" /><line fill="none" stroke="#000000" stroke-width="2" x1="95.5" x2="35.5" y1="62" y2="62" /><line fill="none" stroke="#000000" stroke-width="2" x1="95.5" x2="35.5" y1="15" y2="15" /><line fill="none" stroke="#000000" stroke-width="2" x1="65.5" x2="65.5" y1="94" y2="52.5" /><polyline fill="none" points="10,88.5 31.5,88.5 31.5,66 9,66 9,94.5" stroke="#000000" stroke-width="2" /><polyline fill="none" points="45.5,6 45.5,51.5 85.5,51.5 85.5,6" stroke="#000000" stroke-width="2" /><path d="M34.5,91 c14.609,-9.494 23.999,-18.798 30,-29" fill="none" stroke="#000000" stroke-width="2" /><path d="M96.5,91 c-14.608,-9.494 -23.998,-18.798 -30,-29" fill="none" stroke="#000000" stroke-width="2" /></svg>