<?xml version='1.0' encoding='utf-8'?>
<svg xmlns="http://www.w3.org/2000/svg" height="100px" version="1.0" viewBox="0 0 100 100" width="100px" x="0px" y="0px">
<line fill="none" stroke="#000000" stroke-width="2" x1="6" x2="39" y1="24" y2="24" /><line fill="none" stroke="#000000" stroke-width="2" x1="9.5" x2="35.5" y1="38" y2="38" /><line fill="none" stroke="#000000" stroke-width="2" x1="9.5" x2="35.5" y1="52" y2="52" /><line fill="none" stroke="#000000" stroke-width="2" x1="9" x2="36" y1="10.5" y2="10.5" /><line fill="none" stroke="#000000" stroke-width="2" x1="46.5" x2="89" y1="23.5" y2="23.5" /><polyline fill="none" points="11,88.5 35,88.5 35,66 10,66 10,94.5" stroke="#000000" stroke-width="2" /><polyline fill="none" points="46.5,38.5 90,38.5 90,9.5 45.5,9.5 45.5,39.5" stroke="#000000" stroke-width="2" /><path d="M48,51.5 h45.0 c0,31.825 -4.266,39.5 -11,39.5 c-2.811,0 -7.183,-0.151 -12,-0.5" fill="none" stroke="#000000" stroke-width="2" /><path d="M36,61.5 c8.532,-5.501 18.023,-15.556 22,-23" fill="none" stroke="#000000" stroke-width="2" /><path d="M46,56 v19.25 c0,6.035 0.973,6.75 17,6.75 c16.979,0 17.278,-0.255 18,-13" fill="none" stroke="#000000" stroke-width="2" /><path d="M46,68.5 c11.115,-1.884 21.847,-5.149 33,-10" fill="none" stroke="#000000" stroke-width="2" /></svg>