<?xml version='1.0' encoding='utf-8'?>
<svg xmlns="http://www.w3.org/2000/svg" height="100px" version="1.0" viewBox="0 0 100 100" width="100px" x="0px" y="0px">
<line fill="none" stroke="#000000" stroke-width="2" x1="34.5" x2="96.5" y1="68.5" y2="68.5" /><line fill="none" stroke="#000000" stroke-width="2" x1="34.5" x2="95.5" y1="15.5" y2="15.5" /><line fill="none" stroke="#000000" stroke-width="2" x1="51.5" x2="51.5" y1="25.5" y2="4.5" /><line fill="none" stroke="#000000" stroke-width="2" x1="78.5" x2="78.5" y1="25.5" y2="4.5" /><line fill="none" stroke="#000000" stroke-width="2" x1="41.5" x2="88.5" y1="41.5" y2="41.5" /><line fill="none" stroke="#000000" stroke-width="2" x1="5" x2="34.5" y1="24" y2="24" /><line fill="none" stroke="#000000" stroke-width="2" x1="8" x2="31.5" y1="38" y2="38" /><line fill="none" stroke="#000000" stroke-width="2" x1="8" x2="31.5" y1="52" y2="52" /><line fill="none" stroke="#000000" stroke-width="2" x1="7.5" x2="32" y1="10.5" y2="10.5" /><polyline fill="none" points="41.5,57.5 89.5,57.5 89.5,26.5 40.5,26.5 40.5,58.5" stroke="#000000" stroke-width="2" /><polyline fill="none" points="9.5,88.5 31,88.5 31,66 8.5,66 8.5,94.5" stroke="#000000" stroke-width="2" /><path d="M33.5,92.5 c16.475,-2.845 31,-15.985 31,-25 v-9.0" fill="none" stroke="#000000" stroke-width="2" /><path d="M95.5,92.5 c-16.955,-3.106 -31,-15.334 -31,-25" fill="none" stroke="#000000" stroke-width="2" /></svg>