<?xml version='1.0' encoding='utf-8'?>
<svg xmlns="http://www.w3.org/2000/svg" height="100px" version="1.0" viewBox="0 0 100 100" width="100px" x="0px" y="0px">
<line fill="none" stroke="#000000" stroke-width="2" x1="9" x2="91" y1="11.5" y2="11.5" /><path d="M9,37.5 c19.397,-6.797 33.135,-15.627 42,-26" fill="none" stroke="#000000" stroke-width="2" /><path d="M34,89.5 c6.284,0.347 11.131,0.5 14.5,0.5 c7.721,0 9.5,-2.219 9.5,-21.5 c0,-19.604 -6.741,-37.483 -17,-47.5" fill="none" stroke="#000000" stroke-width="2" /><path d="M8,62 c19.658,-7.475 33.705,-16.722 43,-27" fill="none" stroke="#000000" stroke-width="2" /><path d="M7,86 c22.906,-8.932 38.966,-20.136 49.5,-33" fill="none" stroke="#000000" stroke-width="2" /><path d="M89,24.5 c-7.053,8.683 -14.921,15.977 -23,21.5" fill="none" stroke="#000000" stroke-width="2" /><path d="M55,11.5 c4.777,28.306 20.549,57.791 39,74.5" fill="none" stroke="#000000" stroke-width="2" /></svg>