<?xml version='1.0' encoding='utf-8'?>
<svg xmlns="http://www.w3.org/2000/svg" height="100px" version="1.0" viewBox="0 0 100 100" width="100px" x="0px" y="0px">
<line fill="none" stroke="#000000" stroke-width="2" x1="47" x2="89" y1="87" y2="87" /><line fill="none" stroke="#000000" stroke-width="2" x1="11" x2="34.5" y1="48" y2="48" /><line fill="none" stroke="#000000" stroke-width="2" x1="11" x2="34.5" y1="29" y2="29" /><polyline fill="none" points="90,94 90,53 46,53 46,94" stroke="#000000" stroke-width="2" /><polyline fill="none" points="11,67.5 35.5,67.5 35.5,10.5 10,10.5 10,68.5" stroke="#000000" stroke-width="2" /><path d="M96,47.5 c-4.332,-9.48 -10.61,-20.903 -16.5,-30" fill="none" stroke="#000000" stroke-width="2" /><path d="M40,41 c14.748,-0.586 33.156,-2.407 50,-5" fill="none" stroke="#000000" stroke-width="2" /><path d="M47.5,40.5 c4.601,-10.245 9.37,-22.664 13.5,-35.5" fill="none" stroke="#000000" stroke-width="2" /><path d="M3.5,92 c6.299,-4.847 12.094,-11.837 15.5,-18.5" fill="none" stroke="#000000" stroke-width="2" /><path d="M39.5,91.5 c-3.175,-6.021 -7.396,-12.218 -12,-17.5" fill="none" stroke="#000000" stroke-width="2" /></svg>