<?xml version='1.0' encoding='utf-8'?>
<svg xmlns="http://www.w3.org/2000/svg" height="100px" version="1.0" viewBox="0 0 100 100" width="100px" x="0px" y="0px">
<line fill="none" stroke="#000000" stroke-width="2" x1="50" x2="88" y1="86" y2="86" /><line fill="none" stroke="#000000" stroke-width="2" x1="56" x2="91" y1="15" y2="15" /><line fill="none" stroke="#000000" stroke-width="2" x1="11.5" x2="36" y1="48" y2="48" /><line fill="none" stroke="#000000" stroke-width="2" x1="11.5" x2="36" y1="29" y2="29" /><polyline fill="none" points="49,93 49,56 89,56 89,93" stroke="#000000" stroke-width="2" /><polyline fill="none" points="11.5,67.5 37,67.5 37,10.5 10.5,10.5 10.5,68.5" stroke="#000000" stroke-width="2" /><path d="M41,32 c9.117,-8.159 15.92,-17.007 21,-27" fill="none" stroke="#000000" stroke-width="2" /><path d="M90.119,15.526 c-9.625,17.877 -25.498,31 -50.619,39.974" fill="none" stroke="#000000" stroke-width="2" /><path d="M52.5,20 c10.86,14.728 25.215,26.347 44,35.5" fill="none" stroke="#000000" stroke-width="2" /><path d="M3.5,92 c6.299,-4.847 12.094,-11.837 15.5,-18.5" fill="none" stroke="#000000" stroke-width="2" /><path d="M43.5,91.5 c-5.336,-7.835 -11.359,-13.821 -15.5,-17.5" fill="none" stroke="#000000" stroke-width="2" /></svg>