<?xml version='1.0' encoding='utf-8'?>
<svg xmlns="http://www.w3.org/2000/svg" height="100px" version="1.0" viewBox="0 0 100 100" width="100px" x="0px" y="0px">
<line fill="none" stroke="#000000" stroke-width="2" x1="51.5" x2="51.5" y1="53" y2="93.5" /><line fill="none" stroke="#000000" stroke-width="2" x1="52.5" x2="90" y1="87.5" y2="87.5" /><line fill="none" stroke="#000000" stroke-width="2" x1="52.5" x2="90" y1="69.5" y2="69.5" /><line fill="none" stroke="#000000" stroke-width="2" x1="42" x2="96.5" y1="37.5" y2="37.5" /><line fill="none" stroke="#000000" stroke-width="2" x1="89" x2="45.5" y1="17" y2="17" /><line fill="none" stroke="#000000" stroke-width="2" x1="66.5" x2="66.5" y1="37.5" y2="4" /><line fill="none" stroke="#000000" stroke-width="2" x1="11" x2="34.5" y1="48" y2="48" /><line fill="none" stroke="#000000" stroke-width="2" x1="11" x2="34.5" y1="29" y2="29" /><polyline fill="none" points="91,93.5 91,52.5 52,52.5" stroke="#000000" stroke-width="2" /><polyline fill="none" points="11,67.5 35.5,67.5 35.5,10.5 10,10.5 10,68.5" stroke="#000000" stroke-width="2" /><path d="M39,61 c23.111,-13.772 41.771,-31.361 55,-51.5" fill="none" stroke="#000000" stroke-width="2" /><path d="M3.5,92 c6.299,-4.847 12.094,-11.837 15.5,-18.5" fill="none" stroke="#000000" stroke-width="2" /><path d="M39.5,91.5 c-3.175,-6.021 -7.396,-12.218 -12,-17.5" fill="none" stroke="#000000" stroke-width="2" /></svg>