<?xml version='1.0' encoding='utf-8'?>
<svg xmlns="http://www.w3.org/2000/svg" height="100px" version="1.0" viewBox="0 0 100 100" width="100px" x="0px" y="0px">
<line fill="none" stroke="#000000" stroke-width="2" x1="47.5" x2="9" y1="16" y2="16" /><line fill="none" stroke="#000000" stroke-width="2" x1="29.5" x2="48" y1="59" y2="59" /><line fill="none" stroke="#000000" stroke-width="2" x1="29.5" x2="29.5" y1="85" y2="4" /><line fill="none" stroke="#000000" stroke-width="2" x1="6" x2="48.5" y1="37" y2="37" /><polyline fill="none" points="54.5,76.5 89,76.5 89,47.5 53.5,47.5 53.5,77.5" stroke="#000000" stroke-width="2" /><path d="M6,92 c4.844,-11.728 8.35,-27.343 9.5,-44" fill="none" stroke="#000000" stroke-width="2" /><path d="M93,90 h-34.0 c-29.105,0 -39.121,-6.191 -45.25,-27" fill="none" stroke="#000000" stroke-width="2" /><path d="M49,42 c10.958,-4.266 18.5,-15.618 18.5,-30" fill="none" stroke="#000000" stroke-width="2" /><path d="M50,12 h41.5 c0,22.735 -2.416,26.5 -7.5,26.5 c-2.505,0 -8.443,-0.217 -12.5,-0.5" fill="none" stroke="#000000" stroke-width="2" /></svg>