<?xml version='1.0' encoding='utf-8'?>
<svg xmlns="http://www.w3.org/2000/svg" height="100px" version="1.0" viewBox="0 0 100 100" width="100px" x="0px" y="0px">
<line fill="none" stroke="#000000" stroke-width="2" x1="46" x2="9" y1="16" y2="16" /><line fill="none" stroke="#000000" stroke-width="2" x1="28.5" x2="46.5" y1="59" y2="59" /><line fill="none" stroke="#000000" stroke-width="2" x1="28.5" x2="28.5" y1="85" y2="4" /><line fill="none" stroke="#000000" stroke-width="2" x1="6" x2="47" y1="37" y2="37" /><polyline fill="none" points="51.5,69 51.5,16 93.5,16" stroke="#000000" stroke-width="2" /><path d="M6,92 c4.844,-11.728 8.35,-27.343 9.5,-44" fill="none" stroke="#000000" stroke-width="2" /><path d="M93,90 h-34.0 c-29.105,0 -39.121,-6.191 -45.25,-27" fill="none" stroke="#000000" stroke-width="2" /><path d="M89,25 c-6.797,27.964 -17.522,46.263 -31,57" fill="none" stroke="#000000" stroke-width="2" /><path d="M70,4 c0,47.117 13.856,78.5 19,78.5 c1.908,0 3.906,-4.458 5,-21" fill="none" stroke="#000000" stroke-width="2" /><path d="M77,4 c4.041,2.605 8.191,5.688 12,9" fill="none" stroke="#000000" stroke-width="2" /><path d="M41.5,73.5 c9.011,-3.497 17.166,-8.097 26.5,-15" fill="none" stroke="#000000" stroke-width="2" /></svg>