<?xml version='1.0' encoding='utf-8'?>
<svg xmlns="http://www.w3.org/2000/svg" height="100px" version="1.0" viewBox="0 0 100 100" width="100px" x="0px" y="0px">
<line fill="none" stroke="#000000" stroke-width="2" x1="38.5" x2="91.5" y1="41" y2="41" /><line fill="none" stroke="#000000" stroke-width="2" x1="36.5" x2="95" y1="20" y2="20" /><line fill="none" stroke="#000000" stroke-width="2" x1="67" x2="67" y1="41" y2="5" /><line fill="none" stroke="#000000" stroke-width="2" x1="23.5" x2="39.5" y1="54" y2="54" /><line fill="none" stroke="#000000" stroke-width="2" x1="23.5" x2="23.5" y1="84.5" y2="36" /><line fill="none" stroke="#000000" stroke-width="2" x1="11.5" x2="11.5" y1="89.5" y2="45" /><polyline fill="none" points="10,35 36.5,35 36.5,10 9,10 9,36" stroke="#000000" stroke-width="2" /><path d="M35,91 c28.201,-8.022 45.951,-23.984 55.564,-49.355" fill="none" stroke="#000000" stroke-width="2" /><path d="M95,91 c-22.253,-9.442 -39.977,-25.635 -49.5,-44.5" fill="none" stroke="#000000" stroke-width="2" /><path d="M6,92 c10.587,-3.853 22.182,-8.97 34,-15" fill="none" stroke="#000000" stroke-width="2" /></svg>