<?xml version='1.0' encoding='utf-8'?>
<svg xmlns="http://www.w3.org/2000/svg" height="100px" version="1.0" viewBox="0 0 100 100" width="100px" x="0px" y="0px">
<line fill="none" stroke="#000000" stroke-width="2" x1="37.5" x2="94.5" y1="15" y2="15" /><line fill="none" stroke="#000000" stroke-width="2" x1="66" x2="66" y1="15" y2="3" /><line fill="none" stroke="#000000" stroke-width="2" x1="66" x2="66" y1="95" y2="43" /><line fill="none" stroke="#000000" stroke-width="2" x1="22" x2="35.5" y1="54" y2="54" /><line fill="none" stroke="#000000" stroke-width="2" x1="22" x2="22" y1="84.5" y2="36" /><line fill="none" stroke="#000000" stroke-width="2" x1="11" x2="11" y1="89.5" y2="45" /><polyline fill="none" points="94.5,59 94.5,39 38.5,39 38.5,59" stroke="#000000" stroke-width="2" /><polyline fill="none" points="8.5,35 32.5,35 32.5,10 7.5,10 7.5,36" stroke="#000000" stroke-width="2" /><path d="M75.5,39 c3.828,-6.712 6.945,-14.943 9,-24" fill="none" stroke="#000000" stroke-width="2" /><path d="M55,39 c-2.538,-8.102 -5.543,-16.132 -9,-24" fill="none" stroke="#000000" stroke-width="2" /><path d="M44,86 v-29.0 h44.0 v23.0 c0,4.266 -0.237,4.5 -4,4.5 c-1.717,0 -5.027,-0.159 -10,-0.5" fill="none" stroke="#000000" stroke-width="2" /><path d="M5,92 c10.119,-3.853 21.197,-8.979 32.5,-15" fill="none" stroke="#000000" stroke-width="2" /></svg>