<?xml version='1.0' encoding='utf-8'?>
<svg xmlns="http://www.w3.org/2000/svg" height="100px" version="1.0" viewBox="0 0 100 100" width="100px" x="0px" y="0px">
<line fill="none" stroke="#000000" stroke-width="2" x1="50.5" x2="50.5" y1="74.5" y2="30" /><line fill="none" stroke="#000000" stroke-width="2" x1="43" x2="97.5" y1="11" y2="11" /><line fill="none" stroke="#000000" stroke-width="2" x1="9" x2="38" y1="47" y2="47" /><line fill="none" stroke="#000000" stroke-width="2" x1="4" x2="42.5" y1="78" y2="78" /><line fill="none" stroke="#000000" stroke-width="2" x1="23.5" x2="23.5" y1="95" y2="5" /><line fill="none" stroke="#000000" stroke-width="2" x1="4" x2="42.5" y1="17" y2="17" /><polyline fill="none" points="51.5,31 76.5,31 76.5,65.5 51.5,65.5" stroke="#000000" stroke-width="2" /><polyline fill="none" points="9,65 39,65 39,30 8,30 8,66" stroke="#000000" stroke-width="2" /><path d="M90.5,11 v72.5 c0,7.203 -0.816,8 -7.75,8 c-2.578,0 -7.104,-0.14 -14.75,-0.5" fill="none" stroke="#000000" stroke-width="2" /></svg>