<?xml version='1.0' encoding='utf-8'?>
<svg xmlns="http://www.w3.org/2000/svg" height="100px" version="1.0" viewBox="0 0 100 100" width="100px" x="0px" y="0px">
<line fill="none" stroke="#000000" stroke-width="2" x1="50" x2="88" y1="86" y2="86" /><line fill="none" stroke="#000000" stroke-width="2" x1="56" x2="91" y1="15" y2="15" /><line fill="none" stroke="#000000" stroke-width="2" x1="9" x2="38" y1="47" y2="47" /><line fill="none" stroke="#000000" stroke-width="2" x1="4" x2="42.5" y1="78" y2="78" /><line fill="none" stroke="#000000" stroke-width="2" x1="23.5" x2="23.5" y1="95" y2="5" /><line fill="none" stroke="#000000" stroke-width="2" x1="4" x2="42.5" y1="17" y2="17" /><polyline fill="none" points="49,93 49,56 89,56 89,93" stroke="#000000" stroke-width="2" /><polyline fill="none" points="9,65 39,65 39,30 8,30 8,66" stroke="#000000" stroke-width="2" /><path d="M42.5,30.5 c8.273,-7.851 14.639,-16.184 19.5,-25.5" fill="none" stroke="#000000" stroke-width="2" /><path d="M90.119,15.526 c-9.625,17.877 -25.498,31 -50.619,39.974" fill="none" stroke="#000000" stroke-width="2" /><path d="M52.5,20 c10.86,14.728 25.215,26.347 44,35.5" fill="none" stroke="#000000" stroke-width="2" /></svg>