<?xml version='1.0' encoding='utf-8'?>
<svg xmlns="http://www.w3.org/2000/svg" height="100px" version="1.0" viewBox="0 0 100 100" width="100px" x="0px" y="0px">
<line fill="none" stroke="#000000" stroke-width="2" x1="12" x2="52" y1="71" y2="71" /><line fill="none" stroke="#000000" stroke-width="2" x1="12" x2="52" y1="59.5" y2="59.5" /><line fill="none" stroke="#000000" stroke-width="2" x1="6" x2="55" y1="80.5" y2="80.5" /><line fill="none" stroke="#000000" stroke-width="2" x1="31.5" x2="31.5" y1="93.5" y2="5.5" /><line fill="none" stroke="#000000" stroke-width="2" x1="7" x2="57" y1="38.5" y2="38.5" /><line fill="none" stroke="#000000" stroke-width="2" x1="6" x2="94" y1="28.5" y2="28.5" /><line fill="none" stroke="#000000" stroke-width="2" x1="54" x2="9" y1="16" y2="16" /><polyline fill="none" points="53,72 53,48 11,48 11,72" stroke="#000000" stroke-width="2" /><path d="M88,37 c-7.349,25.864 -21.754,43.801 -42,54.5" fill="none" stroke="#000000" stroke-width="2" /><path d="M64,5 c0,59.849 18.559,86.5 23,86.5 c2.407,0 5.804,-2.614 8,-23" fill="none" stroke="#000000" stroke-width="2" /><path d="M75,8 c4.715,4.153 9.57,9.203 14,14.5" fill="none" stroke="#000000" stroke-width="2" /></svg>