<?xml version='1.0' encoding='utf-8'?>
<svg xmlns="http://www.w3.org/2000/svg" height="100px" version="1.0" viewBox="0 0 100 100" width="100px" x="0px" y="0px">
<line fill="none" stroke="#000000" stroke-width="2" x1="45" x2="96" y1="46" y2="46" /><line fill="none" stroke="#000000" stroke-width="2" x1="71.5" x2="71.5" y1="46" y2="94.5" /><line fill="none" stroke="#000000" stroke-width="2" x1="47" x2="95" y1="68" y2="68" /><line fill="none" stroke="#000000" stroke-width="2" x1="46" x2="95" y1="16.5" y2="16.5" /><line fill="none" stroke="#000000" stroke-width="2" x1="71.5" x2="71.5" y1="16.5" y2="4.5" /><line fill="none" stroke="#000000" stroke-width="2" x1="14.5" x2="41.5" y1="85" y2="85" /><polyline fill="none" points="13.5,93 13.5,54 42.5,54 42.5,91" stroke="#000000" stroke-width="2" /><path d="M79.5,46 c3.405,-8.768 6.322,-18.712 8.5,-29.5" fill="none" stroke="#000000" stroke-width="2" /><path d="M61.5,46 c-1.635,-9.813 -3.678,-19.985 -6,-29.5" fill="none" stroke="#000000" stroke-width="2" /><path d="M4.5,87.5 c5.408,-14.138 8,-29.393 8,-48.5 v-28.0 h29.0 v25.5 h-29.0" fill="none" stroke="#000000" stroke-width="2" /></svg>