<?xml version='1.0' encoding='utf-8'?>
<svg xmlns="http://www.w3.org/2000/svg" height="100px" version="1.0" viewBox="0 0 100 100" width="100px" x="0px" y="0px">
<line fill="none" stroke="#000000" stroke-width="2" x1="31" x2="92.5" y1="26.5" y2="26.5" /><line fill="none" stroke="#000000" stroke-width="2" x1="61.5" x2="61.5" y1="47" y2="12" /><polyline fill="none" points="23,75 23,45 6,45" stroke="#000000" stroke-width="2" /><path d="M9,10 c5.725,5.621 10.574,10.782 16,17" fill="none" stroke="#000000" stroke-width="2" /><path d="M6,92 c8.029,-5.713 13.36,-11.114 17,-17" fill="none" stroke="#000000" stroke-width="2" /><path d="M93,90 h-34.0 c-21.543,0 -30.148,-3.961 -36,-15" fill="none" stroke="#000000" stroke-width="2" /><path d="M35,13 c18.713,0 36.851,-1.53 54,-4.5" fill="none" stroke="#000000" stroke-width="2" /><path d="M93,50 c-14.607,-7.235 -24.92,-15.279 -31,-23.5" fill="none" stroke="#000000" stroke-width="2" /><path d="M30,50 c14.699,-7.279 25.04,-15.441 31,-23.5" fill="none" stroke="#000000" stroke-width="2" /><path d="M34,82 c12.092,-4.94 20.063,-15.929 21,-31" fill="none" stroke="#000000" stroke-width="2" /><path d="M37,51 h38.0 l-3,12 h17.0 c-1.617,14.508 -5.002,18.5 -11.5,18.5 c-3.846,0 -8.914,-0.34 -14,-1" fill="none" stroke="#000000" stroke-width="2" /></svg>