<?xml version='1.0' encoding='utf-8'?>
<svg xmlns="http://www.w3.org/2000/svg" height="100px" version="1.0" viewBox="0 0 100 100" width="100px" x="0px" y="0px">
<line fill="none" stroke="#000000" stroke-width="2" x1="94" x2="29.5" y1="44.5" y2="44.5" /><line fill="none" stroke="#000000" stroke-width="2" x1="82.5" x2="43.5" y1="26.5" y2="26.5" /><polyline fill="none" points="23,75 23,45 6,45" stroke="#000000" stroke-width="2" /><path d="M9,10 c5.725,5.621 10.574,10.782 16,17" fill="none" stroke="#000000" stroke-width="2" /><path d="M6,92 c8.029,-5.713 13.36,-11.114 17,-17" fill="none" stroke="#000000" stroke-width="2" /><path d="M93,90 h-34.0 c-21.543,0 -30.148,-3.961 -36,-15" fill="none" stroke="#000000" stroke-width="2" /><path d="M94.5,29.5 c-12.569,-7.413 -21.611,-14.198 -31.5,-23.7 c-9.889,9.502 -20.482,17.079 -33.5,23.7" fill="none" stroke="#000000" stroke-width="2" /><path d="M64.5,26.5 V71.0 c0,6.497 -0.558,7 -6,7 c-2.451,0 -6.301,-0.149 -11.5,-0.5" fill="none" stroke="#000000" stroke-width="2" /><path d="M31,76 c7.734,-6.452 14.168,-15.089 18,-24" fill="none" stroke="#000000" stroke-width="2" /><path d="M94,77 c-4.636,-8.375 -10.643,-16.991 -17.5,-25" fill="none" stroke="#000000" stroke-width="2" /></svg>