<?xml version='1.0' encoding='utf-8'?>
<svg xmlns="http://www.w3.org/2000/svg" height="100px" version="1.0" viewBox="0 0 100 100" width="100px" x="0px" y="0px">
<line fill="none" stroke="#000000" stroke-width="2" x1="46" x2="74.5" y1="11" y2="11" /><line fill="none" stroke="#000000" stroke-width="2" x1="62.5" x2="62.5" y1="26" y2="48.5" /><polyline fill="none" points="23,75 23,45 6,45" stroke="#000000" stroke-width="2" /><polyline fill="none" points="35.5,57.5 35.5,25 89.5,25 89.5,49.5 36.5,49.5" stroke="#000000" stroke-width="2" /><path d="M9,10 c5.725,5.621 10.574,10.782 16,17" fill="none" stroke="#000000" stroke-width="2" /><path d="M6,92 c8.029,-5.713 13.36,-11.114 17,-17" fill="none" stroke="#000000" stroke-width="2" /><path d="M93,90 h-34.0 c-21.543,0 -30.148,-3.961 -36,-15" fill="none" stroke="#000000" stroke-width="2" /><path d="M63,25 c3.688,-3.96 7.766,-9.144 10.664,-13.549" fill="none" stroke="#000000" stroke-width="2" /><path d="M27.5,31.5 c10.193,-7.76 17.773,-17.215 22.5,-28" fill="none" stroke="#000000" stroke-width="2" /><path d="M67,50.5 v24.199 c0,3.943 0.555,4.301 12.5,4.301 c11.75,0 11.969,-0.21 13,-19.357" fill="none" stroke="#000000" stroke-width="2" /><path d="M31.5,80.5 c14.064,-5.856 22,-17.042 22,-31" fill="none" stroke="#000000" stroke-width="2" /></svg>