<?xml version='1.0' encoding='utf-8'?>
<svg xmlns="http://www.w3.org/2000/svg" height="100px" version="1.0" viewBox="0 0 100 100" width="100px" x="0px" y="0px">
<line fill="none" stroke="#000000" stroke-width="2" x1="28" x2="93" y1="18" y2="18" /><polyline fill="none" points="23,75 23,45 6,45" stroke="#000000" stroke-width="2" /><path d="M28.5,40 c17.141,-6.112 28.106,-13.192 36,-22" fill="none" stroke="#000000" stroke-width="2" /><path d="M67,42.5 c9.945,-5.362 16.67,-10.883 22.5,-18" fill="none" stroke="#000000" stroke-width="2" /><path d="M50,81 c5.33,0.312 11.144,0.5 14,0.5 c5.109,0 6.5,-2.351 6.5,-17.5 c0,-16.251 -5.609,-30.688 -14,-38.5" fill="none" stroke="#000000" stroke-width="2" /><path d="M29,58.5 c16.207,-5.938 27.939,-13.593 35.5,-22" fill="none" stroke="#000000" stroke-width="2" /><path d="M29.5,77.5 c18.932,-7.216 31.559,-15.669 40,-25.5" fill="none" stroke="#000000" stroke-width="2" /><path d="M92,78.5 c-6.688,-14.13 -14.31,-24.144 -23.5,-31" fill="none" stroke="#000000" stroke-width="2" /><path d="M9,10 c5.725,5.621 10.574,10.782 16,17" fill="none" stroke="#000000" stroke-width="2" /><path d="M6,92 c8.029,-5.713 13.36,-11.114 17,-17" fill="none" stroke="#000000" stroke-width="2" /><path d="M93,90 h-34.0 c-21.543,0 -30.148,-3.961 -36,-15" fill="none" stroke="#000000" stroke-width="2" /><path d="M51,18 c-2.549,-4.979 -5.064,-9.03 -8,-13" fill="none" stroke="#000000" stroke-width="2" /><path d="M70,18 c3.181,-4.505 5.761,-8.711 8,-13" fill="none" stroke="#000000" stroke-width="2" /></svg>