<?xml version='1.0' encoding='utf-8'?>
<svg xmlns="http://www.w3.org/2000/svg" height="100px" version="1.0" viewBox="0 0 100 100" width="100px" x="0px" y="0px">
<line fill="none" stroke="#000000" stroke-width="2" x1="93" x2="39" y1="69.5" y2="69.5" /><line fill="none" stroke="#000000" stroke-width="2" x1="91" x2="41" y1="40.5" y2="40.5" /><line fill="none" stroke="#000000" stroke-width="2" x1="89" x2="43" y1="55" y2="55" /><line fill="none" stroke="#000000" stroke-width="2" x1="67" x2="67" y1="86" y2="40.5" /><polyline fill="none" points="22,75 22,45 6,45" stroke="#000000" stroke-width="2" /><path d="M8,10 c5.725,5.621 10.574,10.782 16,17" fill="none" stroke="#000000" stroke-width="2" /><path d="M6,92 c7.74,-6.099 12.36,-11.114 16,-17" fill="none" stroke="#000000" stroke-width="2" /><path d="M93,90 h-35.0 c-21.543,0 -30.148,-3.961 -36,-15" fill="none" stroke="#000000" stroke-width="2" /><path d="M30,79.5 c3.785,-9.137 5.5,-19.895 5.5,-40 V10.0 h54.0 v15.0 h-53.0" fill="none" stroke="#000000" stroke-width="2" /><path d="M58,40.5 c-2.529,-4.274 -5.315,-8.452 -8,-12" fill="none" stroke="#000000" stroke-width="2" /><path d="M75.5,40.5 c3.035,-3.944 5.914,-8.261 8,-12" fill="none" stroke="#000000" stroke-width="2" /></svg>