<?xml version='1.0' encoding='utf-8'?>
<svg xmlns="http://www.w3.org/2000/svg" height="100px" version="1.0" viewBox="0 0 100 100" width="100px" x="0px" y="0px">
<line fill="none" stroke="#000000" stroke-width="2" x1="70.5" x2="70.5" y1="25" y2="11" /><line fill="none" stroke="#000000" stroke-width="2" x1="52" x2="52" y1="25" y2="11" /><line fill="none" stroke="#000000" stroke-width="2" x1="30.5" x2="91" y1="34" y2="34" /><line fill="none" stroke="#000000" stroke-width="2" x1="61" x2="61" y1="86" y2="60" /><polyline fill="none" points="34.5,26 89,26 89,10 33.5,10 33.5,27" stroke="#000000" stroke-width="2" /><polyline fill="none" points="39,56 84,56 84,42 38,42 38,57" stroke="#000000" stroke-width="2" /><polyline fill="none" points="23,75 23,45 6,45" stroke="#000000" stroke-width="2" /><path d="M30,79 c17.264,-7.699 28.011,-15.338 34.5,-23" fill="none" stroke="#000000" stroke-width="2" /><path d="M92,79 c-9.656,-6.693 -19.771,-12.56 -31,-18" fill="none" stroke="#000000" stroke-width="2" /><path d="M74,68 c5.568,-3.606 10.799,-7.32 15.5,-11" fill="none" stroke="#000000" stroke-width="2" /><path d="M9,10 c5.725,5.621 10.574,10.782 16,17" fill="none" stroke="#000000" stroke-width="2" /><path d="M6,92 c8.029,-5.713 13.36,-11.114 17,-17" fill="none" stroke="#000000" stroke-width="2" /><path d="M93,90 h-34.0 c-21.543,0 -30.148,-3.961 -36,-15" fill="none" stroke="#000000" stroke-width="2" /></svg>