<?xml version='1.0' encoding='utf-8'?>
<svg xmlns="http://www.w3.org/2000/svg" height="100px" version="1.0" viewBox="0 0 100 100" width="100px" x="0px" y="0px">
<line fill="none" stroke="#000000" stroke-width="2" x1="9.5" x2="50.5" y1="33" y2="33" /><line fill="none" stroke="#000000" stroke-width="2" x1="8.5" x2="50" y1="55" y2="55" /><polyline fill="none" points="93,10 63,10 63,93" stroke="#000000" stroke-width="2" /><path d="M7.5,92 c14.498,-13.694 21,-33.894 21,-81" fill="none" stroke="#000000" stroke-width="2" /><path d="M7.5,11 h43.0 c0,74 -3.25,78 -11,78 c-3.764,0 -8.994,-0.359 -14,-1" fill="none" stroke="#000000" stroke-width="2" /><path d="M70.5,81 h6.5 c10.607,0 15.5,-4.166 15.5,-13 c0,-10.241 -5.379,-20.147 -16,-27.5 c6.075,-9.587 11.531,-20.068 15.576,-29.881" fill="none" stroke="#000000" stroke-width="2" /></svg>