<?xml version='1.0' encoding='utf-8'?>
<svg xmlns="http://www.w3.org/2000/svg" height="100px" version="1.0" viewBox="0 0 100 100" width="100px" x="0px" y="0px">
<line fill="none" stroke="#000000" stroke-width="2" x1="5" x2="58" y1="18" y2="18" /><line fill="none" stroke="#000000" stroke-width="2" x1="32" x2="32" y1="17" y2="5" /><polyline fill="none" points="95,10 65,10 65,93" stroke="#000000" stroke-width="2" /><path d="M4.5,92 c18.676,-10.302 36,-31.552 42.5,-52" fill="none" stroke="#000000" stroke-width="2" /><path d="M23,23 c-3.783,8.634 -9.656,16.914 -17,24" fill="none" stroke="#000000" stroke-width="2" /><path d="M57.5,47 c-4.65,-8.281 -10.332,-16.604 -16.5,-24" fill="none" stroke="#000000" stroke-width="2" /><path d="M51.5,89.5 c-9.662,-14.708 -22.213,-30.367 -36,-44.5" fill="none" stroke="#000000" stroke-width="2" /><path d="M72.5,81 h6.5 c10.607,0 15.5,-4.166 15.5,-13 c0,-10.241 -5.379,-20.147 -16,-27.5 c6.075,-9.587 11.531,-20.068 15.576,-29.881" fill="none" stroke="#000000" stroke-width="2" /></svg>