<?xml version='1.0' encoding='utf-8'?>
<svg xmlns="http://www.w3.org/2000/svg" height="100px" version="1.0" viewBox="0 0 100 100" width="100px" x="0px" y="0px">
<line fill="none" stroke="#000000" stroke-width="2" x1="11" x2="45.5" y1="86" y2="86" /><line fill="none" stroke="#000000" stroke-width="2" x1="11" x2="45.5" y1="70" y2="70" /><line fill="none" stroke="#000000" stroke-width="2" x1="6.5" x2="49" y1="11" y2="11" /><line fill="none" stroke="#000000" stroke-width="2" x1="97.5" x2="53" y1="13" y2="13" /><polyline fill="none" points="46.5,93 46.5,28 10,28 10,93" stroke="#000000" stroke-width="2" /><path d="M23,11 v17.0 c0,21.968 -1.558,25.633 -10,34" fill="none" stroke="#000000" stroke-width="2" /><path d="M33.5,11 v37.0 c0,5.49 0.593,6 4.5,6 h8.5" fill="none" stroke="#000000" stroke-width="2" /><path d="M83.5,13 v69.0 c0,7.453 -0.5,8 -7.5,8 c-2.904,0 -9.801,-0.425 -15,-1" fill="none" stroke="#000000" stroke-width="2" /></svg>