<?xml version='1.0' encoding='utf-8'?>
<svg xmlns="http://www.w3.org/2000/svg" height="100px" version="1.0" viewBox="0 0 100 100" width="100px" x="0px" y="0px">
<line fill="none" stroke="#000000" stroke-width="2" x1="9.5" x2="40.5" y1="86" y2="86" /><line fill="none" stroke="#000000" stroke-width="2" x1="9.5" x2="40.5" y1="70" y2="70" /><line fill="none" stroke="#000000" stroke-width="2" x1="5" x2="44.5" y1="11" y2="11" /><line fill="none" stroke="#000000" stroke-width="2" x1="72" x2="72" y1="94" y2="47" /><line fill="none" stroke="#000000" stroke-width="2" x1="97" x2="46" y1="62" y2="62" /><line fill="none" stroke="#000000" stroke-width="2" x1="66" x2="66" y1="17.5" y2="6" /><polyline fill="none" points="41.5,93 41.5,28 8.5,28 8.5,93" stroke="#000000" stroke-width="2" /><path d="M20,12 v17.0 c0,20.538 -1.387,24.464 -10,33" fill="none" stroke="#000000" stroke-width="2" /><path d="M29.5,12 v36.0 c0,5.49 0.593,6 4.5,6 h6.5" fill="none" stroke="#000000" stroke-width="2" /><path d="M46,51.5 c13.399,-7.092 20,-17.082 20,-32" fill="none" stroke="#000000" stroke-width="2" /><path d="M48,18.5 h35.0 V44.0 c0,3.468 0.586,4 5.5,4 c6.693,0 7,-0.407 7,-19.5" fill="none" stroke="#000000" stroke-width="2" /></svg>