<?xml version='1.0' encoding='utf-8'?>
<svg xmlns="http://www.w3.org/2000/svg" height="100px" version="1.0" viewBox="0 0 100 100" width="100px" x="0px" y="0px">
<line fill="none" stroke="#000000" stroke-width="2" x1="63" x2="93.5" y1="40.5" y2="40.5" /><line fill="none" stroke="#000000" stroke-width="2" x1="93.5" x2="63" y1="66" y2="66" /><line fill="none" stroke="#000000" stroke-width="2" x1="54.5" x2="96.5" y1="16" y2="16" /><line fill="none" stroke="#000000" stroke-width="2" x1="63" x2="63" y1="94" y2="16" /><line fill="none" stroke="#000000" stroke-width="2" x1="9.5" x2="40.5" y1="86" y2="86" /><line fill="none" stroke="#000000" stroke-width="2" x1="9.5" x2="40.5" y1="70" y2="70" /><line fill="none" stroke="#000000" stroke-width="2" x1="5" x2="44.5" y1="11" y2="11" /><polyline fill="none" points="41.5,93 41.5,28 8.5,28 8.5,93" stroke="#000000" stroke-width="2" /><path d="M41.5,45 c6.868,-10.96 12.561,-24.955 16,-40" fill="none" stroke="#000000" stroke-width="2" /><path d="M20,12 v17.0 c0,20.538 -1.387,24.464 -10,33" fill="none" stroke="#000000" stroke-width="2" /><path d="M29.5,12 v36.0 c0,5.49 0.593,6 4.5,6 h6.5" fill="none" stroke="#000000" stroke-width="2" /></svg>