<?xml version='1.0' encoding='utf-8'?>
<svg xmlns="http://www.w3.org/2000/svg" height="100px" version="1.0" viewBox="0 0 100 100" width="100px" x="0px" y="0px">
<line fill="none" stroke="#000000" stroke-width="2" x1="50.5" x2="87.5" y1="86" y2="86" /><line fill="none" stroke="#000000" stroke-width="2" x1="56" x2="91" y1="15" y2="15" /><line fill="none" stroke="#000000" stroke-width="2" x1="10" x2="39" y1="86" y2="86" /><line fill="none" stroke="#000000" stroke-width="2" x1="10" x2="39" y1="70" y2="70" /><line fill="none" stroke="#000000" stroke-width="2" x1="5.5" x2="43" y1="11" y2="11" /><polyline fill="none" points="49.5,93 49.5,56 88.5,56 88.5,93" stroke="#000000" stroke-width="2" /><polyline fill="none" points="40,93 40,28 9,28 9,93" stroke="#000000" stroke-width="2" /><path d="M43,29.5 c8.249,-7.403 14.403,-15.433 19,-24.5" fill="none" stroke="#000000" stroke-width="2" /><path d="M90.113,15.538 c-9.373,17.954 -25.242,30.991 -50.113,39.962" fill="none" stroke="#000000" stroke-width="2" /><path d="M52.5,19.5 c10.879,14.866 25.203,26.76 44,36" fill="none" stroke="#000000" stroke-width="2" /><path d="M19.5,12 v17.0 c0,21.329 -1.225,24.875 -9,33" fill="none" stroke="#000000" stroke-width="2" /><path d="M29,12 v34.0 c0,5.49 0.633,6 5,6 h5.0" fill="none" stroke="#000000" stroke-width="2" /></svg>