<?xml version='1.0' encoding='utf-8'?>
<svg xmlns="http://www.w3.org/2000/svg" height="100px" version="1.0" viewBox="0 0 100 100" width="100px" x="0px" y="0px">
<line fill="none" stroke="#000000" stroke-width="2" x1="10" x2="36" y1="86" y2="86" /><line fill="none" stroke="#000000" stroke-width="2" x1="10" x2="36" y1="70" y2="70" /><line fill="none" stroke="#000000" stroke-width="2" x1="5.5" x2="40" y1="11" y2="11" /><line fill="none" stroke="#000000" stroke-width="2" x1="67.5" x2="67.5" y1="16.5" y2="52.5" /><line fill="none" stroke="#000000" stroke-width="2" x1="45" x2="90" y1="34" y2="34" /><polyline fill="none" points="37,87 37,28 9,28 9,93" stroke="#000000" stroke-width="2" /><polyline fill="none" points="45,53.5 91,53.5 91,15.5 44,15.5 44,54.5" stroke="#000000" stroke-width="2" /><path d="M18.5,12 v17.0 c0,21.329 -1.043,24.875 -8,33" fill="none" stroke="#000000" stroke-width="2" /><path d="M56,15.5 c3.021,-3.953 5.887,-8.271 8,-12" fill="none" stroke="#000000" stroke-width="2" /><path d="M69,54.5 v32.0 c0,4.291 0.898,5 11,5 c13.916,0 14.137,-0.209 15,-18.5" fill="none" stroke="#000000" stroke-width="2" /><path d="M34,93 c15.432,-7.194 24.5,-21.46 24.5,-39.5" fill="none" stroke="#000000" stroke-width="2" /><path d="M92,80.5 c-1.828,-5.17 -4.519,-11.548 -7,-16.5" fill="none" stroke="#000000" stroke-width="2" /><path d="M71,79 c5.814,-0.716 12.386,-2.078 19,-4" fill="none" stroke="#000000" stroke-width="2" /><path d="M74,78.5 c2.352,-5.835 4.707,-13.357 6.5,-21" fill="none" stroke="#000000" stroke-width="2" /><path d="M27,12 v36.0 c0,5.49 0.593,6 4.5,6 h4.5" fill="none" stroke="#000000" stroke-width="2" /></svg>