<?xml version='1.0' encoding='utf-8'?>
<svg xmlns="http://www.w3.org/2000/svg" height="100px" version="1.0" viewBox="0 0 100 100" width="100px" x="0px" y="0px">
<line fill="none" stroke="#000000" stroke-width="2" x1="26" x2="26" y1="94" y2="11.5" /><line fill="none" stroke="#000000" stroke-width="2" x1="45.5" x2="5.5" y1="43.5" y2="43.5" /><line fill="none" stroke="#000000" stroke-width="2" x1="71" x2="71" y1="5" y2="84" /><line fill="none" stroke="#000000" stroke-width="2" x1="50.5" x2="91.5" y1="85" y2="85" /><line fill="none" stroke="#000000" stroke-width="2" x1="50.5" x2="91.5" y1="53.5" y2="53.5" /><polyline fill="none" points="92.5,93 92.5,24 49.5,24 49.5,93" stroke="#000000" stroke-width="2" /><path d="M45.5,8 c-13.335,2.732 -26.195,4.682 -39,6" fill="none" stroke="#000000" stroke-width="2" /><path d="M4.5,81 c10.113,-12.372 16.688,-24.392 21,-38" fill="none" stroke="#000000" stroke-width="2" /><path d="M43.5,71.5 c-5.192,-8.739 -11.1,-18.138 -17,-27" fill="none" stroke="#000000" stroke-width="2" /><path d="M17.5,38.5 c-2.439,-7.106 -5.258,-14.165 -8,-20" fill="none" stroke="#000000" stroke-width="2" /><path d="M33.5,38.5 c3.858,-6.873 7.354,-14.97 9.5,-22" fill="none" stroke="#000000" stroke-width="2" /></svg>