<?xml version='1.0' encoding='utf-8'?>
<svg xmlns="http://www.w3.org/2000/svg" height="100px" version="1.0" viewBox="0 0 100 100" width="100px" x="0px" y="0px">
<line fill="none" stroke="#000000" stroke-width="2" x1="48.5" x2="6.5" y1="47" y2="47" /><line fill="none" stroke="#000000" stroke-width="2" x1="46.5" x2="11.5" y1="28" y2="28" /><line fill="none" stroke="#000000" stroke-width="2" x1="29" x2="29" y1="84.5" y2="28" /><line fill="none" stroke="#000000" stroke-width="2" x1="55.5" x2="90.5" y1="83.5" y2="83.5" /><polyline fill="none" points="91.5,91.5 91.5,13.5 54.5,13.5 54.5,91.5" stroke="#000000" stroke-width="2" /><path d="M5.5,89.5 c16.521,-2.877 30.021,-6.513 45,-12" fill="none" stroke="#000000" stroke-width="2" /><path d="M49.5,23 c-7.982,-5.036 -14.508,-10.14 -21,-16.5 c-7.252,8.159 -15.061,15.151 -24,21.5" fill="none" stroke="#000000" stroke-width="2" /><path d="M19.5,76 c-2.865,-7.582 -5.938,-14.762 -9,-21" fill="none" stroke="#000000" stroke-width="2" /><path d="M37.5,73 c3.429,-6.433 6.499,-12.93 9,-19" fill="none" stroke="#000000" stroke-width="2" /></svg>