<?xml version='1.0' encoding='utf-8'?>
<svg xmlns="http://www.w3.org/2000/svg" height="100px" version="1.0" viewBox="0 0 100 100" width="100px" x="0px" y="0px">
<line fill="none" stroke="#000000" stroke-width="2" x1="44" x2="6.5" y1="47" y2="47" /><line fill="none" stroke="#000000" stroke-width="2" x1="42" x2="11" y1="28" y2="28" /><line fill="none" stroke="#000000" stroke-width="2" x1="25.5" x2="25.5" y1="84.5" y2="28" /><path d="M5.5,89.5 c14.318,-2.877 26.02,-6.513 39,-12" fill="none" stroke="#000000" stroke-width="2" /><path d="M44.5,23 c-7.143,-4.952 -13.203,-10.167 -19,-16.5 c-6.445,8.159 -13.143,15.038 -21,21.5" fill="none" stroke="#000000" stroke-width="2" /><path d="M17.5,76 c-2.387,-7.582 -4.948,-14.762 -7.5,-21" fill="none" stroke="#000000" stroke-width="2" /><path d="M33.5,73 c2.857,-6.433 5.416,-12.93 7.5,-19" fill="none" stroke="#000000" stroke-width="2" /><path d="M53.5,42 h38.0 v-30.5 h-39.0 V42.0 c0,22.843 -4.239,38.206 -12,50" fill="none" stroke="#000000" stroke-width="2" /><path d="M94,92 c-11.482,-13.488 -19.708,-31.046 -23,-50" fill="none" stroke="#000000" stroke-width="2" /></svg>