<?xml version='1.0' encoding='utf-8'?>
<svg xmlns="http://www.w3.org/2000/svg" height="100px" version="1.0" viewBox="0 0 100 100" width="100px" x="0px" y="0px">
<line fill="none" stroke="#000000" stroke-width="2" x1="37" x2="4.5" y1="47" y2="47" /><line fill="none" stroke="#000000" stroke-width="2" x1="35" x2="9" y1="28" y2="28" /><line fill="none" stroke="#000000" stroke-width="2" x1="22" x2="22" y1="84.5" y2="28" /><line fill="none" stroke="#000000" stroke-width="2" x1="42.5" x2="42.5" y1="15" y2="70.5" /><path d="M3.5,89.5 c12.482,-2.638 22.683,-5.97 34,-11" fill="none" stroke="#000000" stroke-width="2" /><path d="M37.5,23 c-6.141,-5.731 -9.766,-9.683 -15,-16.5 c-6.123,8.159 -12.523,15.052 -20,21.5" fill="none" stroke="#000000" stroke-width="2" /><path d="M15,76 c-2.387,-7.582 -4.948,-14.762 -7.5,-21" fill="none" stroke="#000000" stroke-width="2" /><path d="M28.5,73 c2.857,-6.433 5.416,-12.93 7.5,-19" fill="none" stroke="#000000" stroke-width="2" /><path d="M41.723,15.975 c8.667,-1.982 16.307,-4.538 25.277,-8.475" fill="none" stroke="#000000" stroke-width="2" /><path d="M72.5,94 v-82.5 h21.5 v59.5 c0,7.578 -0.438,8 -5,8 c-1.364,0 -6.795,-0.208 -11.5,-0.5" fill="none" stroke="#000000" stroke-width="2" /><path d="M36,73.5 c9.182,-3.751 17.033,-8.086 27,-15" fill="none" stroke="#000000" stroke-width="2" /><path d="M36.5,93.5 c20.068,-8.087 27,-18.806 27,-47.5 v-27.5" fill="none" stroke="#000000" stroke-width="2" /></svg>