<?xml version='1.0' encoding='utf-8'?>
<svg xmlns="http://www.w3.org/2000/svg" height="100px" version="1.0" viewBox="0 0 100 100" width="100px" x="0px" y="0px">
<line fill="none" stroke="#000000" stroke-width="2" x1="41.5" x2="6" y1="47" y2="47" /><line fill="none" stroke="#000000" stroke-width="2" x1="40.5" x2="10.5" y1="28" y2="28" /><line fill="none" stroke="#000000" stroke-width="2" x1="24.5" x2="24.5" y1="84.5" y2="28" /><polyline fill="none" points="49,82.5 49,18.5 94.5,18.5" stroke="#000000" stroke-width="2" /><path d="M5,89.5 c13.584,-2.877 24.686,-6.513 37,-12" fill="none" stroke="#000000" stroke-width="2" /><path d="M44,23 c-7.143,-4.952 -13.203,-10.167 -19,-16.5 c-6.445,8.159 -13.143,15.038 -21,21.5" fill="none" stroke="#000000" stroke-width="2" /><path d="M17,76 c-2.387,-7.582 -4.948,-14.762 -7.5,-21" fill="none" stroke="#000000" stroke-width="2" /><path d="M32.5,73 c2.857,-6.433 5.416,-12.93 7.5,-19" fill="none" stroke="#000000" stroke-width="2" /><path d="M90,30 c-5.691,29.567 -16.515,49.241 -30.5,60" fill="none" stroke="#000000" stroke-width="2" /><path d="M70,4.5 c0,56.74 16.168,86.5 20.5,86.5 c2.061,0 4.318,-4.822 5.5,-23" fill="none" stroke="#000000" stroke-width="2" /><path d="M78,4.5 c4.041,2.863 8.203,6.346 12,10" fill="none" stroke="#000000" stroke-width="2" /><path d="M40,88 c9.191,-4.803 17.617,-11.273 27,-21" fill="none" stroke="#000000" stroke-width="2" /></svg>