<?xml version='1.0' encoding='utf-8'?>
<svg xmlns="http://www.w3.org/2000/svg" height="100px" version="1.0" viewBox="0 0 100 100" width="100px" x="0px" y="0px">
<line fill="none" stroke="#000000" stroke-width="2" x1="40.5" x2="6" y1="47" y2="47" /><line fill="none" stroke="#000000" stroke-width="2" x1="38" x2="10.5" y1="28" y2="28" /><line fill="none" stroke="#000000" stroke-width="2" x1="24.5" x2="24.5" y1="84.5" y2="28" /><line fill="none" stroke="#000000" stroke-width="2" x1="41.5" x2="96" y1="27.5" y2="27.5" /><line fill="none" stroke="#000000" stroke-width="2" x1="67.5" x2="67.5" y1="49.5" y2="12" /><path d="M5,89.5 c14.318,-2.877 26.02,-6.513 39,-12" fill="none" stroke="#000000" stroke-width="2" /><path d="M44,23 c-7.143,-4.952 -13.203,-10.167 -19,-16.5 c-6.445,8.159 -13.143,15.038 -21,21.5" fill="none" stroke="#000000" stroke-width="2" /><path d="M17,76 c-2.387,-7.582 -4.948,-14.762 -7.5,-21" fill="none" stroke="#000000" stroke-width="2" /><path d="M32.5,73 c2.857,-6.433 5.416,-12.93 7.5,-19" fill="none" stroke="#000000" stroke-width="2" /><path d="M43.5,13 c16.98,0 33.438,-1.53 49,-4.5" fill="none" stroke="#000000" stroke-width="2" /><path d="M96,52.5 c-13.193,-7.696 -22.509,-16.254 -28,-25" fill="none" stroke="#000000" stroke-width="2" /><path d="M41.5,51.5 c11.878,-7.32 20.563,-15.694 25.5,-24" fill="none" stroke="#000000" stroke-width="2" /><path d="M77.5,65 h16.0 c-1.604,20.013 -4.918,24.5 -11.5,24.5 c-3.846,0 -8.902,-0.335 -14,-1" fill="none" stroke="#000000" stroke-width="2" /><path d="M39,91 c12.596,-6.083 21.024,-18.942 22,-37.5" fill="none" stroke="#000000" stroke-width="2" /><path d="M46.5,53.5 h33.0 c-1.011,5.8 -2.547,13.371 -4,19.5" fill="none" stroke="#000000" stroke-width="2" /></svg>