<?xml version='1.0' encoding='utf-8'?>
<svg xmlns="http://www.w3.org/2000/svg" height="100px" version="1.0" viewBox="0 0 100 100" width="100px" x="0px" y="0px">
<line fill="none" stroke="#000000" stroke-width="2" x1="41.5" x2="6" y1="47" y2="47" /><line fill="none" stroke="#000000" stroke-width="2" x1="40.5" x2="10.5" y1="28" y2="28" /><line fill="none" stroke="#000000" stroke-width="2" x1="24.5" x2="24.5" y1="84.5" y2="28" /><line fill="none" stroke="#000000" stroke-width="2" x1="49.5" x2="94" y1="29.5" y2="29.5" /><line fill="none" stroke="#000000" stroke-width="2" x1="80" x2="80" y1="62.5" y2="29.5" /><line fill="none" stroke="#000000" stroke-width="2" x1="49.5" x2="49.5" y1="62.5" y2="14" /><line fill="none" stroke="#000000" stroke-width="2" x1="96.5" x2="40.5" y1="63.5" y2="63.5" /><path d="M5,89.5 c13.584,-2.877 24.686,-6.513 37,-12" fill="none" stroke="#000000" stroke-width="2" /><path d="M44,23 c-7.143,-4.952 -13.203,-10.167 -19,-16.5 c-6.445,8.159 -13.143,15.038 -21,21.5" fill="none" stroke="#000000" stroke-width="2" /><path d="M17,76 c-2.387,-7.582 -4.948,-14.762 -7.5,-21" fill="none" stroke="#000000" stroke-width="2" /><path d="M32.5,73 c2.857,-6.433 5.416,-12.93 7.5,-19" fill="none" stroke="#000000" stroke-width="2" /><path d="M48.5,15 c15.926,0 31.287,-2.923 40.5,-7" fill="none" stroke="#000000" stroke-width="2" /><path d="M34,92 c9.446,-5.591 18.204,-13.788 23,-21" fill="none" stroke="#000000" stroke-width="2" /><path d="M94,93 c-5.922,-7.238 -14.093,-14.969 -23,-21.5" fill="none" stroke="#000000" stroke-width="2" /></svg>