<?xml version='1.0' encoding='utf-8'?>
<svg xmlns="http://www.w3.org/2000/svg" height="100px" version="1.0" viewBox="0 0 100 100" width="100px" x="0px" y="0px">
<line fill="none" stroke="#000000" stroke-width="2" x1="38.5" x2="5" y1="47" y2="47" /><line fill="none" stroke="#000000" stroke-width="2" x1="36.5" x2="9.5" y1="28" y2="28" /><line fill="none" stroke="#000000" stroke-width="2" x1="23" x2="23" y1="84.5" y2="28" /><polyline fill="none" points="55,86 55,54.5 81.5,54.5 81.5,77.5 56,77.5" stroke="#000000" stroke-width="2" /><polyline fill="none" points="48.5,42 48.5,9.5 88,9.5 88,42" stroke="#000000" stroke-width="2" /><polyline fill="none" points="65.5,42 65.5,24 87.104,24" stroke="#000000" stroke-width="2" /><path d="M42.5,92 v-49.0 H94.0 v39.0 c0,7.546 -0.45,8 -5.5,8 c-1.848,0 -6.018,-0.166 -11.5,-0.5" fill="none" stroke="#000000" stroke-width="2" /><path d="M4,89.5 c12.85,-2.638 23.35,-5.97 35,-11" fill="none" stroke="#000000" stroke-width="2" /><path d="M41,23 c-6.785,-4.952 -12.493,-10.167 -18,-16.5 c-6.123,8.159 -12.523,15.052 -20,21.5" fill="none" stroke="#000000" stroke-width="2" /><path d="M16,76 c-2.387,-7.582 -4.948,-14.762 -7.5,-21" fill="none" stroke="#000000" stroke-width="2" /><path d="M29.5,73 c2.857,-6.433 5.416,-12.93 7.5,-19" fill="none" stroke="#000000" stroke-width="2" /></svg>