<?xml version='1.0' encoding='utf-8'?>
<svg xmlns="http://www.w3.org/2000/svg" height="100px" version="1.0" viewBox="0 0 100 100" width="100px" x="0px" y="0px">
<line fill="none" stroke="#000000" stroke-width="2" x1="38.5" x2="5" y1="47" y2="47" /><line fill="none" stroke="#000000" stroke-width="2" x1="36.5" x2="9.5" y1="28" y2="28" /><line fill="none" stroke="#000000" stroke-width="2" x1="23" x2="23" y1="84.5" y2="28" /><line fill="none" stroke="#000000" stroke-width="2" x1="43.5" x2="43.5" y1="9.5" y2="94" /><line fill="none" stroke="#000000" stroke-width="2" x1="63.5" x2="94" y1="48" y2="48" /><line fill="none" stroke="#000000" stroke-width="2" x1="43.5" x2="64" y1="54" y2="54" /><line fill="none" stroke="#000000" stroke-width="2" x1="43.5" x2="64" y1="73.5" y2="73.5" /><polyline fill="none" points="44.5,36.5 66.5,36.5 66.5,10.5 44.5,10.5" stroke="#000000" stroke-width="2" /><polyline fill="none" points="72.5,36.5 93,36.5 93,10.5 72.5,10.5" stroke="#000000" stroke-width="2" /><path d="M4,89.5 c12.85,-2.638 23.35,-5.97 35,-11" fill="none" stroke="#000000" stroke-width="2" /><path d="M41,23 c-6.785,-4.952 -12.493,-10.167 -18,-16.5 c-6.123,8.159 -12.523,15.052 -20,21.5" fill="none" stroke="#000000" stroke-width="2" /><path d="M16,76 c-2.387,-7.582 -4.948,-14.762 -7.5,-21" fill="none" stroke="#000000" stroke-width="2" /><path d="M29.5,73 c2.857,-6.433 5.416,-12.93 7.5,-19" fill="none" stroke="#000000" stroke-width="2" /><path d="M58,91 c17.964,-9.493 28.414,-21.844 35.049,-42.309" fill="none" stroke="#000000" stroke-width="2" /><path d="M97.5,91 c-12.203,-8.099 -23.351,-21.82 -30,-37.5" fill="none" stroke="#000000" stroke-width="2" /></svg>