<?xml version='1.0' encoding='utf-8'?>
<svg xmlns="http://www.w3.org/2000/svg" height="100px" version="1.0" viewBox="0 0 100 100" width="100px" x="0px" y="0px">
<line fill="none" stroke="#000000" stroke-width="2" x1="67" x2="67" y1="14" y2="2" /><line fill="none" stroke="#000000" stroke-width="2" x1="46.5" x2="87.5" y1="87" y2="87" /><line fill="none" stroke="#000000" stroke-width="2" x1="37" x2="4.5" y1="47" y2="47" /><line fill="none" stroke="#000000" stroke-width="2" x1="35" x2="9" y1="28" y2="28" /><line fill="none" stroke="#000000" stroke-width="2" x1="22" x2="22" y1="84.5" y2="28" /><polyline fill="none" points="93,32 93,14 41,14 41,32.5" stroke="#000000" stroke-width="2" /><polyline fill="none" points="88.5,94 88.5,59 45.5,59 45.5,94" stroke="#000000" stroke-width="2" /><path d="M96.5,65 c-11.313,-9.601 -19.924,-18.712 -29,-30.8 c-8.834,12.281 -18.23,21.946 -30,30.8" fill="none" stroke="#000000" stroke-width="2" /><path d="M60.5,19.5 c-4.721,9.354 -11.699,17.732 -21,25" fill="none" stroke="#000000" stroke-width="2" /><path d="M94.5,44 c-6.102,-8.3 -13.859,-16.972 -22.5,-25" fill="none" stroke="#000000" stroke-width="2" /><path d="M3.5,89.5 c12.482,-2.638 22.683,-5.97 34,-11" fill="none" stroke="#000000" stroke-width="2" /><path d="M37.5,23 c-6.141,-5.731 -9.766,-9.683 -15,-16.5 c-6.123,8.159 -12.523,15.052 -20,21.5" fill="none" stroke="#000000" stroke-width="2" /><path d="M15,76 c-2.387,-7.582 -4.948,-14.762 -7.5,-21" fill="none" stroke="#000000" stroke-width="2" /><path d="M28.5,73 c2.857,-6.433 5.416,-12.93 7.5,-19" fill="none" stroke="#000000" stroke-width="2" /></svg>