<?xml version='1.0' encoding='utf-8'?>
<svg xmlns="http://www.w3.org/2000/svg" height="100px" version="1.0" viewBox="0 0 100 100" width="100px" x="0px" y="0px">
<line fill="none" stroke="#000000" stroke-width="2" x1="97" x2="47" y1="22" y2="22" /><line fill="none" stroke="#000000" stroke-width="2" x1="39.5" x2="39.5" y1="94" y2="32.8" /><polyline fill="none" points="32.5,10 9.5,10 9.5,94" stroke="#000000" stroke-width="2" /><path d="M13.5,71 h4.0 c7.789,0 11,-2.928 11,-10.5 c0,-8.302 -2.023,-13.576 -10,-23.5 c5.083,-8.09 9.91,-17.88 13.063,-26.349" fill="none" stroke="#000000" stroke-width="2" /><path d="M88.5,6 v75.5 c0,9.415 -0.512,10 -6,10 c-2.757,0 -8.564,-0.194 -14,-0.5" fill="none" stroke="#000000" stroke-width="2" /><path d="M71,67 c-4.262,-9.086 -10.27,-19.665 -16,-28" fill="none" stroke="#000000" stroke-width="2" /><path d="M46.5,6 c-3.613,19.812 -9.962,37.308 -18,51" fill="none" stroke="#000000" stroke-width="2" /></svg>