<?xml version='1.0' encoding='utf-8'?>
<svg xmlns="http://www.w3.org/2000/svg" height="100px" version="1.0" viewBox="0 0 100 100" width="100px" x="0px" y="0px">
<line fill="none" stroke="#000000" stroke-width="2" x1="38.5" x2="38.5" y1="94" y2="39" /><line fill="none" stroke="#000000" stroke-width="2" x1="52" x2="91" y1="88" y2="88" /><line fill="none" stroke="#000000" stroke-width="2" x1="52" x2="91" y1="63.5" y2="63.5" /><line fill="none" stroke="#000000" stroke-width="2" x1="56" x2="90.5" y1="11" y2="11" /><polyline fill="none" points="35,10 10,10 10,94" stroke="#000000" stroke-width="2" /><polyline fill="none" points="92,94 92,40 51,40 51,94" stroke="#000000" stroke-width="2" /><path d="M15,71 h5.0 c7.789,0 11,-2.928 11,-10.5 c0,-8.302 -2.023,-13.576 -10,-23.5 c5.083,-8.09 9.91,-17.88 13.063,-26.349" fill="none" stroke="#000000" stroke-width="2" /><path d="M72,40 c6.498,-8.506 12.814,-18.775 17.604,-28.444" fill="none" stroke="#000000" stroke-width="2" /><path d="M36.5,35.5 c10.482,-9.517 18.507,-20.492 24,-33" fill="none" stroke="#000000" stroke-width="2" /></svg>