<?xml version='1.0' encoding='utf-8'?>
<svg xmlns="http://www.w3.org/2000/svg" height="100px" version="1.0" viewBox="0 0 100 100" width="100px" x="0px" y="0px">
<line fill="none" stroke="#000000" stroke-width="2" x1="87" x2="36.5" y1="36" y2="36" /><line fill="none" stroke="#000000" stroke-width="2" x1="77.5" x2="46.5" y1="24" y2="24" /><line fill="none" stroke="#000000" stroke-width="2" x1="93.5" x2="33" y1="67" y2="67" /><line fill="none" stroke="#000000" stroke-width="2" x1="88.5" x2="37" y1="53" y2="53" /><polyline fill="none" points="33,10 10,10 10,93" stroke="#000000" stroke-width="2" /><path d="M95,32 c-12.975,-8.265 -22.19,-15.479 -33,-25.8 c-10.81,10.321 -20.025,17.535 -33,25.8" fill="none" stroke="#000000" stroke-width="2" /><path d="M14,71 h4.0 c7.789,0 11,-2.928 11,-10.5 c0,-8.302 -2.023,-13.576 -10,-23.5 c5.083,-8.09 9.91,-17.88 13.063,-26.349" fill="none" stroke="#000000" stroke-width="2" /><path d="M73.5,53 c4.758,-5.271 9.025,-10.852 12.66,-16.539" fill="none" stroke="#000000" stroke-width="2" /><path d="M92,93 c-4.445,-6.326 -11.046,-14.506 -17,-21" fill="none" stroke="#000000" stroke-width="2" /><path d="M39,89.5 c5.292,-6.422 10.537,-14.304 15,-22.5" fill="none" stroke="#000000" stroke-width="2" /><path d="M28,90 c17.85,-0.375 38.756,-1.574 59,-3.5" fill="none" stroke="#000000" stroke-width="2" /></svg>