<?xml version='1.0' encoding='utf-8'?>
<svg xmlns="http://www.w3.org/2000/svg" height="100px" version="1.0" viewBox="0 0 100 100" width="100px" x="0px" y="0px">
<line fill="none" stroke="#000000" stroke-width="2" x1="51.5" x2="90" y1="13.5" y2="13.5" /><line fill="none" stroke="#000000" stroke-width="2" x1="28.5" x2="95.5" y1="89.5" y2="89.5" /><line fill="none" stroke="#000000" stroke-width="2" x1="91.5" x2="45.5" y1="53.5" y2="53.5" /><line fill="none" stroke="#000000" stroke-width="2" x1="90" x2="42" y1="70.5" y2="70.5" /><line fill="none" stroke="#000000" stroke-width="2" x1="67" x2="67" y1="89.5" y2="41" /><polyline fill="none" points="35,10 10,10 10,93" stroke="#000000" stroke-width="2" /><path d="M15,71 h5.0 c7.789,0 11,-2.928 11,-10.5 c0,-8.302 -2.023,-13.576 -10,-23.5 c5.083,-8.09 9.91,-17.88 13.063,-26.349" fill="none" stroke="#000000" stroke-width="2" /><path d="M34,29 c10.344,-7.206 18.278,-15.241 24,-24" fill="none" stroke="#000000" stroke-width="2" /><path d="M89.17,13.942 c-9.969,14.865 -27.463,26.638 -55.67,34.558" fill="none" stroke="#000000" stroke-width="2" /><path d="M48,17.5 c11.863,12.811 27.39,23.079 48,31" fill="none" stroke="#000000" stroke-width="2" /><path d="M35.5,68.5 c6.047,-6.837 11.033,-15.692 14,-25" fill="none" stroke="#000000" stroke-width="2" /></svg>