<?xml version='1.0' encoding='utf-8'?>
<svg xmlns="http://www.w3.org/2000/svg" height="100px" version="1.0" viewBox="0 0 100 100" width="100px" x="0px" y="0px">
<line fill="none" stroke="#000000" stroke-width="2" x1="63" x2="63" y1="71.5" y2="91.5" /><line fill="none" stroke="#000000" stroke-width="2" x1="45.5" x2="81" y1="71.5" y2="71.5" /><line fill="none" stroke="#000000" stroke-width="2" x1="36" x2="94.5" y1="10.5" y2="10.5" /><polyline fill="none" points="34,10 10,10 10,93" stroke="#000000" stroke-width="2" /><polyline fill="none" points="39,38.5 39,20.5 88.5,20.5 88.5,37.5 40,37.5" stroke="#000000" stroke-width="2" /><path d="M76,90.5 c5.624,0.363 8.998,0.5 10.5,0.5 c4.994,0 5.5,-0.614 5.5,-8 v-35.5 h-57.5 v45.0" fill="none" stroke="#000000" stroke-width="2" /><path d="M14,71 h5.0 c7.789,0 11,-2.928 11,-10.5 c0,-8.302 -2.023,-13.576 -10,-23.5 c5.083,-8.09 9.91,-17.88 13.063,-26.349" fill="none" stroke="#000000" stroke-width="2" /><path d="M56.5,48.5 c0,11.462 -4.148,16.246 -18,20" fill="none" stroke="#000000" stroke-width="2" /><path d="M69,48.5 v8.5 c0,6.616 0.427,7 8,7 h14.0" fill="none" stroke="#000000" stroke-width="2" /></svg>