<?xml version='1.0' encoding='utf-8'?>
<svg xmlns="http://www.w3.org/2000/svg" height="100px" version="1.0" viewBox="0 0 100 100" width="100px" x="0px" y="0px">
<line fill="none" stroke="#000000" stroke-width="2" x1="48.5" x2="48.5" y1="20.5" y2="94" /><line fill="none" stroke="#000000" stroke-width="2" x1="94" x2="49" y1="20" y2="20" /><line fill="none" stroke="#000000" stroke-width="2" x1="72.5" x2="72.5" y1="87" y2="20" /><line fill="none" stroke="#000000" stroke-width="2" x1="49.5" x2="95.5" y1="87" y2="87" /><line fill="none" stroke="#000000" stroke-width="2" x1="48.5" x2="92" y1="64" y2="64" /><line fill="none" stroke="#000000" stroke-width="2" x1="48.5" x2="92" y1="41.5" y2="41.5" /><line fill="none" stroke="#000000" stroke-width="2" x1="6" x2="41.5" y1="11.5" y2="11.5" /><line fill="none" stroke="#000000" stroke-width="2" x1="13.5" x2="13.5" y1="43.5" y2="11.5" /><line fill="none" stroke="#000000" stroke-width="2" x1="42.5" x2="4.5" y1="43.5" y2="43.5" /><path d="M39,33.5 c7.322,-7.635 12.523,-17.039 16,-29.5" fill="none" stroke="#000000" stroke-width="2" /><path d="M80,4 c-2.172,5.901 -4.801,11.103 -8,16" fill="none" stroke="#000000" stroke-width="2" /><path d="M34,12.5 v68.5 c0,8.384 -0.664,9 -5.5,9 c-1.701,0 -6.168,-0.171 -11.5,-0.5" fill="none" stroke="#000000" stroke-width="2" /><path d="M4.5,80.5 c10.334,-9.195 19.949,-21.586 28.5,-37" fill="none" stroke="#000000" stroke-width="2" /></svg>