<?xml version='1.0' encoding='utf-8'?>
<svg xmlns="http://www.w3.org/2000/svg" height="100px" version="1.0" viewBox="0 0 100 100" width="100px" x="0px" y="0px">
<line fill="none" stroke="#000000" stroke-width="2" x1="57" x2="57" y1="20.5" y2="94" /><line fill="none" stroke="#000000" stroke-width="2" x1="94.5" x2="57.5" y1="20" y2="20" /><line fill="none" stroke="#000000" stroke-width="2" x1="77" x2="77" y1="87" y2="20" /><line fill="none" stroke="#000000" stroke-width="2" x1="58" x2="96" y1="87" y2="87" /><line fill="none" stroke="#000000" stroke-width="2" x1="57" x2="93" y1="64" y2="64" /><line fill="none" stroke="#000000" stroke-width="2" x1="57" x2="93" y1="41.5" y2="41.5" /><line fill="none" stroke="#000000" stroke-width="2" x1="5.5" x2="53" y1="14.5" y2="14.5" /><line fill="none" stroke="#000000" stroke-width="2" x1="28.5" x2="28.5" y1="14.5" y2="3.5" /><polyline fill="none" points="46,18.5 46,46.5 10.5,46.5 10.5,18.5" stroke="#000000" stroke-width="2" /><path d="M83,4 c-1.638,5.899 -3.596,11.101 -6,16" fill="none" stroke="#000000" stroke-width="2" /><path d="M48.5,34 c6.116,-7.41 11.057,-17.736 14,-30" fill="none" stroke="#000000" stroke-width="2" /><path d="M17,78.5 c3.856,-9.988 7.514,-21.213 10.5,-32" fill="none" stroke="#000000" stroke-width="2" /><path d="M44.5,82.5 c-2.72,-7.152 -6.643,-16.397 -10,-23.5" fill="none" stroke="#000000" stroke-width="2" /><path d="M11.5,78.5 c9.686,-0.522 19.871,-1.701 30,-3.5" fill="none" stroke="#000000" stroke-width="2" /><path d="M8,93 v-37.5 h40.5 v31.46 c0,4.282 -0.293,4.54 -5.5,4.54 c-1.858,0 -5.118,-0.159 -10.5,-0.5" fill="none" stroke="#000000" stroke-width="2" /><path d="M15,42.5 c10.596,-5.582 19.821,-14.661 25,-24.5" fill="none" stroke="#000000" stroke-width="2" /><path d="M15,21 c8.441,4.895 16.116,10.863 26.5,21" fill="none" stroke="#000000" stroke-width="2" /></svg>