<?xml version='1.0' encoding='utf-8'?>
<svg xmlns="http://www.w3.org/2000/svg" height="100px" version="1.0" viewBox="0 0 100 100" width="100px" x="0px" y="0px">
<line fill="none" stroke="#000000" stroke-width="2" x1="74" x2="26" y1="56.5" y2="56.5" /><line fill="none" stroke="#000000" stroke-width="2" x1="50" x2="50" y1="41" y2="10" /><line fill="none" stroke="#000000" stroke-width="2" x1="12" x2="88" y1="10" y2="10" /><line fill="none" stroke="#000000" stroke-width="2" x1="18" x2="42" y1="30" y2="30" /><line fill="none" stroke="#000000" stroke-width="2" x1="18" x2="42" y1="40.5" y2="40.5" /><line fill="none" stroke="#000000" stroke-width="2" x1="58" x2="82" y1="30" y2="30" /><line fill="none" stroke="#000000" stroke-width="2" x1="58" x2="82" y1="40.5" y2="40.5" /><line fill="none" stroke="#000000" stroke-width="2" x1="45" x2="45" y1="94" y2="68" /><polyline fill="none" points="90,40.5 90,21 10,21 10,40.5" stroke="#000000" stroke-width="2" /><path d="M10.5,68 h75.0 v13.0 c0,7.578 -0.471,8 -6.5,8 c-1.942,0 -10.297,-0.225 -17,-0.5" fill="none" stroke="#000000" stroke-width="2" /><path d="M94.5,61.5 c-16.906,-6.243 -31.083,-12.935 -44.5,-21 c-13.417,8.065 -27.594,14.757 -44.5,21" fill="none" stroke="#000000" stroke-width="2" /></svg>