<?xml version='1.0' encoding='utf-8'?>
<svg xmlns="http://www.w3.org/2000/svg" height="100px" version="1.0" viewBox="0 0 100 100" width="100px" x="0px" y="0px">
<line fill="none" stroke="#000000" stroke-width="2" x1="50" x2="50" y1="46.5" y2="10" /><line fill="none" stroke="#000000" stroke-width="2" x1="12" x2="88" y1="10" y2="10" /><line fill="none" stroke="#000000" stroke-width="2" x1="18" x2="42" y1="30" y2="30" /><line fill="none" stroke="#000000" stroke-width="2" x1="18" x2="42" y1="40.5" y2="40.5" /><line fill="none" stroke="#000000" stroke-width="2" x1="58" x2="82" y1="30" y2="30" /><line fill="none" stroke="#000000" stroke-width="2" x1="58" x2="82" y1="40.5" y2="40.5" /><line fill="none" stroke="#000000" stroke-width="2" x1="92" x2="8" y1="50.5" y2="50.5" /><line fill="none" stroke="#000000" stroke-width="2" x1="38" x2="38" y1="61.5" y2="90.5" /><line fill="none" stroke="#000000" stroke-width="2" x1="62" x2="62" y1="61.5" y2="90.5" /><polyline fill="none" points="90,40.5 90,21 10,21 10,40.5" stroke="#000000" stroke-width="2" /><path d="M70,90.5 c5.666,0.358 9.336,0.5 10.5,0.5 c5.458,0 6,-0.57 6,-6 v-23.5 h-73.0 v31.0" fill="none" stroke="#000000" stroke-width="2" /><path d="M50,50.5 c-1.285,4.079 -2.926,7.679 -5,11" fill="none" stroke="#000000" stroke-width="2" /></svg>