<?xml version='1.0' encoding='utf-8'?>
<svg xmlns="http://www.w3.org/2000/svg" height="100px" version="1.0" viewBox="0 0 100 100" width="100px" x="0px" y="0px">
<line fill="none" stroke="#000000" stroke-width="2" x1="50" x2="50" y1="46.5" y2="10" /><line fill="none" stroke="#000000" stroke-width="2" x1="12" x2="88" y1="10" y2="10" /><line fill="none" stroke="#000000" stroke-width="2" x1="18" x2="42" y1="30" y2="30" /><line fill="none" stroke="#000000" stroke-width="2" x1="18" x2="42" y1="40.5" y2="40.5" /><line fill="none" stroke="#000000" stroke-width="2" x1="58" x2="82" y1="30" y2="30" /><line fill="none" stroke="#000000" stroke-width="2" x1="58" x2="82" y1="40.5" y2="40.5" /><line fill="none" stroke="#000000" stroke-width="2" x1="27" x2="27" y1="94" y2="46" /><line fill="none" stroke="#000000" stroke-width="2" x1="46" x2="7" y1="55.5" y2="55.5" /><line fill="none" stroke="#000000" stroke-width="2" x1="51.5" x2="90.5" y1="89" y2="89" /><line fill="none" stroke="#000000" stroke-width="2" x1="51.5" x2="90.5" y1="76" y2="76" /><line fill="none" stroke="#000000" stroke-width="2" x1="51.5" x2="90.5" y1="63" y2="63" /><polyline fill="none" points="90,40.5 90,21 10,21 10,40.5" stroke="#000000" stroke-width="2" /><polyline fill="none" points="90.5,93.5 90.5,50 50.5,50 50.5,93.5" stroke="#000000" stroke-width="2" /><path d="M4,84 c10.543,-9.33 17.6,-18.388 22.5,-28.353" fill="none" stroke="#000000" stroke-width="2" /><path d="M45,76 c-5.504,-6.57 -11.596,-13.37 -18,-20" fill="none" stroke="#000000" stroke-width="2" /></svg>