<?xml version='1.0' encoding='utf-8'?>
<svg xmlns="http://www.w3.org/2000/svg" height="100px" version="1.0" viewBox="0 0 100 100" width="100px" x="0px" y="0px">
<line fill="none" stroke="#000000" stroke-width="2" x1="4.5" x2="48.5" y1="18" y2="18" /><line fill="none" stroke="#000000" stroke-width="2" x1="10" x2="43" y1="63" y2="63" /><line fill="none" stroke="#000000" stroke-width="2" x1="4" x2="48" y1="75.5" y2="75.5" /><line fill="none" stroke="#000000" stroke-width="2" x1="26.5" x2="26.5" y1="94" y2="30.5" /><polyline fill="none" points="38.5,6.5 38.5,30.5 14.5,30.5 14.5,6.5" stroke="#000000" stroke-width="2" /><polyline fill="none" points="44,64 44,41 9,41 9,64" stroke="#000000" stroke-width="2" /><path d="M85.5,62 c-2.523,0 -6.672,-0.167 -11,-0.5" fill="none" stroke="#000000" stroke-width="2" /><path d="M56,15 h37.0 c-1.432,42.487 -3.448,47 -7.5,47" fill="none" stroke="#000000" stroke-width="2" /><path d="M46,37.5 c5.658,-9.718 10.379,-22.011 13,-34.5" fill="none" stroke="#000000" stroke-width="2" /><path d="M95.5,66.5 c-2.187,24.755 -2.464,25 -23.783,25 c-18.916,0 -19.217,-0.234 -19.217,-12 v-25.0 h26.5 v-26.0 h-24.5" fill="none" stroke="#000000" stroke-width="2" /></svg>