<?xml version='1.0' encoding='utf-8'?>
<svg xmlns="http://www.w3.org/2000/svg" height="100px" version="1.0" viewBox="0 0 100 100" width="100px" x="0px" y="0px">
<line fill="none" stroke="#000000" stroke-width="2" x1="4.5" x2="46" y1="18" y2="18" /><line fill="none" stroke="#000000" stroke-width="2" x1="10" x2="41" y1="63" y2="63" /><line fill="none" stroke="#000000" stroke-width="2" x1="4" x2="45.5" y1="75.5" y2="75.5" /><line fill="none" stroke="#000000" stroke-width="2" x1="25.5" x2="25.5" y1="94" y2="30.5" /><line fill="none" stroke="#000000" stroke-width="2" x1="50.5" x2="91" y1="50.5" y2="50.5" /><line fill="none" stroke="#000000" stroke-width="2" x1="50.5" x2="91" y1="69" y2="69" /><line fill="none" stroke="#000000" stroke-width="2" x1="70.5" x2="70.5" y1="33" y2="6" /><polyline fill="none" points="36.5,6.5 36.5,30.5 14.5,30.5 14.5,6.5" stroke="#000000" stroke-width="2" /><polyline fill="none" points="42,64 42,41 9,41 9,64" stroke="#000000" stroke-width="2" /><path d="M49.5,92 v-58.0 h42.5 v48.5 c0,7.567 -0.385,8 -6,8 c-2.227,0 -6.297,-0.159 -13.5,-0.5" fill="none" stroke="#000000" stroke-width="2" /><path d="M57.5,28 c-3.592,-6.757 -7.367,-13.301 -11,-19" fill="none" stroke="#000000" stroke-width="2" /><path d="M83,28 c4.135,-6.325 8.035,-13.087 11,-19" fill="none" stroke="#000000" stroke-width="2" /></svg>