<?xml version='1.0' encoding='utf-8'?>
<svg xmlns="http://www.w3.org/2000/svg" height="100px" version="1.0" viewBox="0 0 100 100" width="100px" x="0px" y="0px">
<line fill="none" stroke="#000000" stroke-width="2" x1="10.5" x2="40.5" y1="87" y2="87" /><line fill="none" stroke="#000000" stroke-width="2" x1="10.5" x2="40.5" y1="68" y2="68" /><line fill="none" stroke="#000000" stroke-width="2" x1="5" x2="45" y1="39" y2="39" /><line fill="none" stroke="#000000" stroke-width="2" x1="6" x2="45" y1="15" y2="15" /><line fill="none" stroke="#000000" stroke-width="2" x1="25.5" x2="25.5" y1="15" y2="3" /><line fill="none" stroke="#000000" stroke-width="2" x1="51" x2="91.5" y1="61.5" y2="61.5" /><line fill="none" stroke="#000000" stroke-width="2" x1="51" x2="91.5" y1="47.5" y2="47.5" /><polyline fill="none" points="41.5,93 41.5,50 9.5,50 9.5,93" stroke="#000000" stroke-width="2" /><polyline fill="none" points="52.5,25 90.5,25 90.5,10 51.5,10 51.5,26" stroke="#000000" stroke-width="2" /><polyline fill="none" points="51,75.5 92.5,75.5 92.5,33.5 50,33.5 50,76.5" stroke="#000000" stroke-width="2" /><path d="M32,39 c2.309,-6.718 4.257,-14.943 5.5,-24" fill="none" stroke="#000000" stroke-width="2" /><path d="M18.5,39 c-1.386,-8.143 -3.027,-16.101 -5,-24" fill="none" stroke="#000000" stroke-width="2" /><path d="M46,92 c8.303,-3.229 15.732,-7.827 20,-12" fill="none" stroke="#000000" stroke-width="2" /><path d="M96,93 c-5.192,-4.242 -12.307,-8.757 -20,-12.5" fill="none" stroke="#000000" stroke-width="2" /></svg>