<?xml version='1.0' encoding='utf-8'?>
<svg xmlns="http://www.w3.org/2000/svg" height="100px" version="1.0" viewBox="0 0 100 100" width="100px" x="0px" y="0px">
<line fill="none" stroke="#000000" stroke-width="2" x1="38.5" x2="62" y1="18" y2="18" /><line fill="none" stroke="#000000" stroke-width="2" x1="3" x2="30" y1="33" y2="30" /><line fill="none" stroke="#000000" stroke-width="2" x1="21" x2="79" y1="90" y2="90" /><line fill="none" stroke="#000000" stroke-width="2" x1="21" x2="79" y1="79.5" y2="79.5" /><line fill="none" stroke="#000000" stroke-width="2" x1="6" x2="94" y1="62" y2="62" /><line fill="none" stroke="#000000" stroke-width="2" x1="9" x2="91" y1="49.5" y2="49.5" /><line fill="none" stroke="#000000" stroke-width="2" x1="50" x2="50" y1="49.5" y2="42.5" /><polyline fill="none" points="38.5,27.5 63,27.5 63,9 37.5,9 37.5,42" stroke="#000000" stroke-width="2" /><polyline fill="none" points="96,8.5 70.5,8.5 70.5,46" stroke="#000000" stroke-width="2" /><polyline fill="none" points="80,94 80,69 20,69 20,94" stroke="#000000" stroke-width="2" /><path d="M26,43.5 c11.84,-1.25 22.277,-2.9 34.5,-5.5" fill="none" stroke="#000000" stroke-width="2" /><path d="M66.5,44.5 c-3.671,-4.424 -9.011,-9.754 -14,-14" fill="none" stroke="#000000" stroke-width="2" /><path d="M8,32.5 c9.295,-5.921 17.752,-12.576 25,-19.5" fill="none" stroke="#000000" stroke-width="2" /><path d="M20.5,23.5 c-4.541,-3.14 -10.59,-7.026 -15.5,-10" fill="none" stroke="#000000" stroke-width="2" /><path d="M10.5,17 c4.476,-3.384 8.582,-6.839 12.5,-10.5" fill="none" stroke="#000000" stroke-width="2" /><path d="M5,46.5 c13.406,-4.616 24.05,-12.98 28,-21" fill="none" stroke="#000000" stroke-width="2" /><path d="M77,41 h5.0 c10.986,0 13.5,-1.735 13.5,-6 c0,-4.688 -4.773,-9.641 -14,-12.5 c5.357,-4.361 10.155,-9.151 13.718,-13.623" fill="none" stroke="#000000" stroke-width="2" /><path d="M60,62 c5.104,-3.495 9.261,-7.782 12,-12.5" fill="none" stroke="#000000" stroke-width="2" /><path d="M39,62 c-3.384,-4.219 -7.391,-8.401 -12,-12.5" fill="none" stroke="#000000" stroke-width="2" /></svg>