<?xml version='1.0' encoding='utf-8'?>
<svg xmlns="http://www.w3.org/2000/svg" height="100px" version="1.0" viewBox="0 0 100 100" width="100px" x="0px" y="0px">
<line fill="none" stroke="#000000" stroke-width="2" x1="54.5" x2="89.5" y1="87" y2="87" /><line fill="none" stroke="#000000" stroke-width="2" x1="28.5" x2="28.5" y1="15" y2="24" /><line fill="none" stroke="#000000" stroke-width="2" x1="13.5" x2="44" y1="41" y2="41" /><polyline fill="none" points="90.5,94 90.5,53 53.5,53 53.5,94" stroke="#000000" stroke-width="2" /><polyline fill="none" points="13.5,58 45,58 45,25 12.5,25 12.5,89.5" stroke="#000000" stroke-width="2" /><path d="M96,47.5 c-3.676,-9.48 -9.003,-20.903 -14,-30" fill="none" stroke="#000000" stroke-width="2" /><path d="M49,41 c12.41,-0.586 27.826,-2.407 42,-5" fill="none" stroke="#000000" stroke-width="2" /><path d="M55,40.5 c4.089,-10.245 8.329,-22.664 12,-35.5" fill="none" stroke="#000000" stroke-width="2" /><path d="M5,91.5 c13.584,-3.477 24.686,-7.87 37,-14.5" fill="none" stroke="#000000" stroke-width="2" /><path d="M48.5,22 c-7.789,-5.089 -14.078,-10.183 -20.5,-16.5 c-7.109,8.159 -15.088,15.369 -24,21.5" fill="none" stroke="#000000" stroke-width="2" /><path d="M48.5,86 c-5,-6.971 -12.082,-16.062 -18,-23" fill="none" stroke="#000000" stroke-width="2" /></svg>