<?xml version='1.0' encoding='utf-8'?>
<svg xmlns="http://www.w3.org/2000/svg" height="100px" version="1.0" viewBox="0 0 100 100" width="100px" x="0px" y="0px">
<line fill="none" stroke="#000000" stroke-width="2" x1="28.5" x2="28.5" y1="15" y2="24" /><line fill="none" stroke="#000000" stroke-width="2" x1="13.5" x2="44" y1="41" y2="41" /><polyline fill="none" points="13.5,58 45,58 45,25 12.5,25 12.5,89.5" stroke="#000000" stroke-width="2" /><path d="M85.5,62 c-2.523,0 -6.672,-0.167 -11,-0.5" fill="none" stroke="#000000" stroke-width="2" /><path d="M58,15 h35.0 c-1.432,42.487 -3.448,47 -7.5,47" fill="none" stroke="#000000" stroke-width="2" /><path d="M48,37.5 c5.658,-9.718 10.379,-22.011 13,-34.5" fill="none" stroke="#000000" stroke-width="2" /><path d="M95.5,66.5 c-2.187,24.755 -2.464,25 -23.783,25 c-16.916,0 -17.217,-0.234 -17.217,-12 v-25.0 h25.0 v-26.0 h-23.0" fill="none" stroke="#000000" stroke-width="2" /><path d="M5,91.5 c13.584,-3.477 24.686,-7.87 37,-14.5" fill="none" stroke="#000000" stroke-width="2" /><path d="M48.5,22 c-7.789,-5.089 -14.078,-10.183 -20.5,-16.5 c-7.109,8.159 -15.088,15.369 -24,21.5" fill="none" stroke="#000000" stroke-width="2" /><path d="M48.5,86 c-5,-6.971 -12.082,-16.062 -18,-23" fill="none" stroke="#000000" stroke-width="2" /></svg>