<?xml version='1.0' encoding='utf-8'?>
<svg xmlns="http://www.w3.org/2000/svg" height="100px" version="1.0" viewBox="0 0 100 100" width="100px" x="0px" y="0px">
<line fill="none" stroke="#000000" stroke-width="2" x1="29" x2="29" y1="15" y2="24" /><line fill="none" stroke="#000000" stroke-width="2" x1="14" x2="44" y1="41" y2="41" /><line fill="none" stroke="#000000" stroke-width="2" x1="73" x2="73" y1="95" y2="15" /><line fill="none" stroke="#000000" stroke-width="2" x1="59" x2="95.5" y1="15" y2="15" /><polyline fill="none" points="14,58 45,58 45,25 13,25 13,89.5" stroke="#000000" stroke-width="2" /><path d="M5.5,91.5 c13.217,-3.477 24.018,-7.87 36,-14.5" fill="none" stroke="#000000" stroke-width="2" /><path d="M50.5,22 c-8.234,-4.952 -14.957,-10.044 -21.5,-16.5 c-7.432,8.159 -15.351,15.136 -24.5,21.5" fill="none" stroke="#000000" stroke-width="2" /><path d="M49,87.5 c-5,-7.426 -12.082,-17.109 -18,-24.5" fill="none" stroke="#000000" stroke-width="2" /><path d="M50,31 c5.411,-7.021 9.938,-16.273 12.5,-26" fill="none" stroke="#000000" stroke-width="2" /><path d="M79,83.5 c4.394,0.358 7.326,0.5 8.5,0.5 c4.094,0 4.5,-0.542 4.5,-8 v-43.0 h-38.0 v52.0" fill="none" stroke="#000000" stroke-width="2" /></svg>