<?xml version='1.0' encoding='utf-8'?>
<svg xmlns="http://www.w3.org/2000/svg" height="100px" version="1.0" viewBox="0 0 100 100" width="100px" x="0px" y="0px">
<line fill="none" stroke="#000000" stroke-width="2" x1="23.59" x2="23.59" y1="15" y2="24" /><line fill="none" stroke="#000000" stroke-width="2" x1="12" x2="34.5" y1="58" y2="58" /><line fill="none" stroke="#000000" stroke-width="2" x1="12" x2="34.5" y1="41" y2="41" /><line fill="none" stroke="#000000" stroke-width="2" x1="39" x2="94.5" y1="36" y2="36" /><polyline fill="none" points="35.5,59 35.5,25 11,25 11,89.5" stroke="#000000" stroke-width="2" /><path d="M4.5,91.5 c11.473,-3.477 21.076,-7.906 31.5,-14.5" fill="none" stroke="#000000" stroke-width="2" /><path d="M40.5,22 c-6.387,-5.089 -11.688,-10.214 -17,-16.5 c-5.83,8.159 -12.289,15.255 -19.5,21.5" fill="none" stroke="#000000" stroke-width="2" /><path d="M41.5,86 c-4.137,-7.021 -10.002,-16.062 -15,-23" fill="none" stroke="#000000" stroke-width="2" /><path d="M53.5,13 v69.5 c0,7.683 -0.434,8 -4.5,8 c-1.887,0 -5.352,-0.194 -9,-0.5" fill="none" stroke="#000000" stroke-width="2" /><path d="M90.5,43.5 c-4.995,21.081 -16.174,36.703 -31.5,46" fill="none" stroke="#000000" stroke-width="2" /><path d="M72,5.5 c0,48.484 12.146,85.5 17.5,85.5 c1.99,0 4.133,-4.294 5.5,-23" fill="none" stroke="#000000" stroke-width="2" /><path d="M39,66 c11.833,-3.335 22.951,-7.81 30.5,-12" fill="none" stroke="#000000" stroke-width="2" /><path d="M40,17.5 c10.836,-2.834 19.656,-6.405 26.5,-10.5" fill="none" stroke="#000000" stroke-width="2" /><path d="M81.5,8 c4.105,5.734 7.411,11.229 11,18" fill="none" stroke="#000000" stroke-width="2" /></svg>