<?xml version='1.0' encoding='utf-8'?>
<svg xmlns="http://www.w3.org/2000/svg" height="100px" version="1.0" viewBox="0 0 100 100" width="100px" x="0px" y="0px">
<line fill="none" stroke="#000000" stroke-width="2" x1="25.5" x2="25.5" y1="11.5" y2="56" /><line fill="none" stroke="#000000" stroke-width="2" x1="10.5" x2="39.5" y1="41" y2="41" /><line fill="none" stroke="#000000" stroke-width="2" x1="10.5" x2="39.5" y1="25.5" y2="25.5" /><line fill="none" stroke="#000000" stroke-width="2" x1="43.5" x2="94.5" y1="15" y2="15" /><line fill="none" stroke="#000000" stroke-width="2" x1="49.5" x2="49.5" y1="87" y2="55" /><line fill="none" stroke="#000000" stroke-width="2" x1="40.5" x2="97" y1="46" y2="46" /><polyline fill="none" points="50.5,56 76.5,56 76.5,79 50.5,79" stroke="#000000" stroke-width="2" /><path d="M35.5,78 c-1.045,-4.762 -2.381,-9.932 -4,-15.5" fill="none" stroke="#000000" stroke-width="2" /><path d="M26.75,82.25 c-0.666,-5.847 -1.643,-12.114 -3,-19" fill="none" stroke="#000000" stroke-width="2" /><path d="M18,86.5 c-0.287,-6.932 -0.904,-14.298 -2,-22.5" fill="none" stroke="#000000" stroke-width="2" /><path d="M5,89.5 c2.229,-7.541 3.926,-16.133 5,-26" fill="none" stroke="#000000" stroke-width="2" /><path d="M42,10.5 h-32.5 v46.5 h31.0 c0,30.181 -2.043,34.5 -5,34.5 c-2.813,0 -6.941,-0.3 -12,-1" fill="none" stroke="#000000" stroke-width="2" /><path d="M42,41 c16.654,-4.44 26.5,-17.106 26.5,-37" fill="none" stroke="#000000" stroke-width="2" /><path d="M95,42 c-8.381,-6.854 -20.139,-14.769 -30,-20" fill="none" stroke="#000000" stroke-width="2" /><path d="M88,46 v37.0 c0,7.253 -0.74,8 -6.5,8 c-2.186,0 -5.52,-0.121 -12,-0.5" fill="none" stroke="#000000" stroke-width="2" /></svg>