<?xml version='1.0' encoding='utf-8'?>
<svg xmlns="http://www.w3.org/2000/svg" height="100px" version="1.0" viewBox="0 0 100 100" width="100px" x="0px" y="0px">
<line fill="none" stroke="#000000" stroke-width="2" x1="7" x2="93" y1="10.5" y2="10.5" /><line fill="none" stroke="#000000" stroke-width="2" x1="50" x2="50" y1="71.5" y2="91.5" /><line fill="none" stroke="#000000" stroke-width="2" x1="26" x2="74" y1="71.5" y2="71.5" /><polyline fill="none" points="23,38.5 23,20.5 77,20.5 77,37.5 24,37.5" stroke="#000000" stroke-width="2" /><path d="M69,90.5 c7.004,0.363 11.129,0.5 13,0.5 c6.354,0 7,-0.673 7,-8 v-35.5 h-78.0 v45.0" fill="none" stroke="#000000" stroke-width="2" /><path d="M40,48.5 c0,11.284 -5.133,16.165 -24,20" fill="none" stroke="#000000" stroke-width="2" /><path d="M57,48.5 v8.313 c0,6.616 0.727,7.187 11,7.187 c7.107,0 14.104,-0.177 21,-0.5" fill="none" stroke="#000000" stroke-width="2" /></svg>