<?xml version='1.0' encoding='utf-8'?>
<svg xmlns="http://www.w3.org/2000/svg" height="100px" version="1.0" viewBox="0 0 100 100" width="100px" x="0px" y="0px">
<line fill="none" stroke="#000000" stroke-width="2" x1="50" x2="50" y1="17" y2="53" /><line fill="none" stroke="#000000" stroke-width="2" x1="16" x2="84" y1="34.5" y2="34.5" /><polyline fill="none" points="16,54 85,54 85,16 15,16 15,55" stroke="#000000" stroke-width="2" /><path d="M36,16 c3.777,-3.953 7.357,-8.271 10,-12" fill="none" stroke="#000000" stroke-width="2" /><path d="M55,55 v30.5 c0,4.438 1.07,5 15.5,5 c20.622,0 21.237,-0.203 22.5,-18.5" fill="none" stroke="#000000" stroke-width="2" /><path d="M8,92 c19.755,-7.279 31,-21.34 31,-38" fill="none" stroke="#000000" stroke-width="2" /><path d="M88,81 c-2.651,-5.146 -6.518,-11.548 -10,-16.5" fill="none" stroke="#000000" stroke-width="2" /><path d="M58,79.5 c8.266,-0.694 17.6,-2.078 27,-4" fill="none" stroke="#000000" stroke-width="2" /><path d="M63,79 c3.201,-5.875 6.469,-13.357 9,-21" fill="none" stroke="#000000" stroke-width="2" /></svg>