<?xml version='1.0' encoding='utf-8'?>
<svg xmlns="http://www.w3.org/2000/svg" height="100px" version="1.0" viewBox="0 0 100 100" width="100px" x="0px" y="0px">
<line fill="none" stroke="#000000" stroke-width="2" x1="63.5" x2="63.5" y1="16.5" y2="52.5" /><line fill="none" stroke="#000000" stroke-width="2" x1="37.5" x2="89.5" y1="34" y2="34" /><line fill="none" stroke="#000000" stroke-width="2" x1="33" x2="4.5" y1="38" y2="38" /><line fill="none" stroke="#000000" stroke-width="2" x1="32" x2="6" y1="12" y2="12" /><polyline fill="none" points="37.5,53.5 90.5,53.5 90.5,15.5 36.5,15.5 36.5,54.5" stroke="#000000" stroke-width="2" /><path d="M27,93 c17.006,-7.194 27,-21.46 27,-39.5" fill="none" stroke="#000000" stroke-width="2" /><path d="M52,15.5 c3.021,-3.953 5.887,-8.271 8,-12" fill="none" stroke="#000000" stroke-width="2" /><path d="M66,54.5 v32.0 c0,4.38 0.908,5 12,5 c15.749,0 16.039,-0.251 17,-18.5" fill="none" stroke="#000000" stroke-width="2" /><path d="M91.5,80.5 c-1.969,-5.167 -4.842,-11.548 -7.5,-16.5" fill="none" stroke="#000000" stroke-width="2" /><path d="M68.5,79 c6.273,-0.716 13.363,-2.078 20.5,-4" fill="none" stroke="#000000" stroke-width="2" /><path d="M72,78.5 c2.556,-5.827 5.068,-13.357 7,-21" fill="none" stroke="#000000" stroke-width="2" /><path d="M39,82 c-3.142,-9.151 -7.625,-20.64 -11.5,-29.5" fill="none" stroke="#000000" stroke-width="2" /><path d="M3,83 c10.243,-1.376 22.162,-3.807 34,-7" fill="none" stroke="#000000" stroke-width="2" /><path d="M10,82 c2.807,-12.597 5.62,-27.879 8,-44" fill="none" stroke="#000000" stroke-width="2" /></svg>