<?xml version='1.0' encoding='utf-8'?>
<svg xmlns="http://www.w3.org/2000/svg" height="100px" version="1.0" viewBox="0 0 100 100" width="100px" x="0px" y="0px">
<line fill="none" stroke="#000000" stroke-width="2" x1="15.5" x2="31.5" y1="11" y2="11" /><line fill="none" stroke="#000000" stroke-width="2" x1="10" x2="38" y1="45" y2="45" /><line fill="none" stroke="#000000" stroke-width="2" x1="24" x2="24" y1="27" y2="64" /><line fill="none" stroke="#000000" stroke-width="2" x1="69" x2="69" y1="95" y2="5" /><line fill="none" stroke="#000000" stroke-width="2" x1="95.5" x2="42.5" y1="45" y2="45" /><line fill="none" stroke="#000000" stroke-width="2" x1="94" x2="44" y1="20" y2="20" /><polyline fill="none" points="9,66 9,26 39,26 39,65 10,65" stroke="#000000" stroke-width="2" /><path d="M24,26 c2.311,-4.407 4.655,-9.57 6.57,-14.37" fill="none" stroke="#000000" stroke-width="2" /><path d="M3.5,33.5 c6.199,-8.898 11.051,-19.157 14.5,-31" fill="none" stroke="#000000" stroke-width="2" /><path d="M42.5,87.5 c-1.178,-5.596 -2.902,-12.039 -5,-18.5" fill="none" stroke="#000000" stroke-width="2" /><path d="M31,90.5 c-0.657,-6.352 -1.833,-13.318 -3.5,-20.75" fill="none" stroke="#000000" stroke-width="2" /><path d="M19.5,93.5 c-0.137,-7.107 -0.764,-14.597 -2,-23" fill="none" stroke="#000000" stroke-width="2" /><path d="M4,94.5 c2.512,-7.089 4.387,-15.212 5.5,-24.5" fill="none" stroke="#000000" stroke-width="2" /><path d="M96.5,86.5 c-12.642,-13.729 -20.816,-26.626 -26.25,-41.5" fill="none" stroke="#000000" stroke-width="2" /><path d="M41.5,81.5 c12.142,-12.194 20.285,-23.478 26.5,-36.5" fill="none" stroke="#000000" stroke-width="2" /></svg>