<?xml version='1.0' encoding='utf-8'?>
<svg xmlns="http://www.w3.org/2000/svg" height="100px" version="1.0" viewBox="0 0 100 100" width="100px" x="0px" y="0px">
<line fill="none" stroke="#000000" stroke-width="2" x1="61.5" x2="93.5" y1="40.5" y2="40.5" /><line fill="none" stroke="#000000" stroke-width="2" x1="93.5" x2="61.5" y1="66" y2="66" /><line fill="none" stroke="#000000" stroke-width="2" x1="52" x2="96.5" y1="16" y2="16" /><line fill="none" stroke="#000000" stroke-width="2" x1="61.5" x2="61.5" y1="94" y2="16" /><line fill="none" stroke="#000000" stroke-width="2" x1="15.5" x2="31.5" y1="11" y2="11" /><line fill="none" stroke="#000000" stroke-width="2" x1="10" x2="38" y1="45" y2="45" /><line fill="none" stroke="#000000" stroke-width="2" x1="24" x2="24" y1="27" y2="64" /><polyline fill="none" points="9,66 9,26 39,26 39,65 10,65" stroke="#000000" stroke-width="2" /><path d="M39,45 c6.868,-10.96 12.561,-24.955 16,-40" fill="none" stroke="#000000" stroke-width="2" /><path d="M24,26 c2.311,-4.407 4.655,-9.57 6.57,-14.37" fill="none" stroke="#000000" stroke-width="2" /><path d="M3.5,33.5 c6.199,-8.898 11.051,-19.157 14.5,-31" fill="none" stroke="#000000" stroke-width="2" /><path d="M44.5,87.5 c-1.178,-5.596 -2.902,-12.039 -5,-18.5" fill="none" stroke="#000000" stroke-width="2" /><path d="M32,90.5 c-0.657,-6.352 -1.833,-13.318 -3.5,-20.75" fill="none" stroke="#000000" stroke-width="2" /><path d="M19.5,93.5 c-0.137,-7.107 -0.764,-14.597 -2,-23" fill="none" stroke="#000000" stroke-width="2" /><path d="M4,94.5 c2.512,-7.089 4.387,-15.212 5.5,-24.5" fill="none" stroke="#000000" stroke-width="2" /></svg>