<?xml version='1.0' encoding='utf-8'?>
<svg xmlns="http://www.w3.org/2000/svg" height="100px" version="1.0" viewBox="0 0 100 100" width="100px" x="0px" y="0px">
<line fill="none" stroke="#000000" stroke-width="2" x1="62.5" x2="62.5" y1="14.5" y2="47" /><line fill="none" stroke="#000000" stroke-width="2" x1="38" x2="38" y1="14.5" y2="47" /><line fill="none" stroke="#000000" stroke-width="2" x1="51.5" x2="51.5" y1="13.5" y2="3" /><line fill="none" stroke="#000000" stroke-width="2" x1="28" x2="55.5" y1="65.5" y2="65.5" /><line fill="none" stroke="#000000" stroke-width="2" x1="28" x2="28" y1="89.5" y2="52.5" /><polyline fill="none" points="13.5,48 87,48 87,28 13.5,28" stroke="#000000" stroke-width="2" /><path d="M4.5,92 c4.898,-10.415 9,-30.94 9,-47 v-31.5 h78.5" fill="none" stroke="#000000" stroke-width="2" /><path d="M62.5,52.5 v33.0 c0,4.844 0.156,5 13.5,5 c16.146,0 16.349,-0.167 18,-17" fill="none" stroke="#000000" stroke-width="2" /><path d="M62.5,68 c10.826,-2.535 20.304,-5.914 31,-11" fill="none" stroke="#000000" stroke-width="2" /><path d="M13,91.5 c14.828,-1.764 28.18,-4.222 43.5,-8" fill="none" stroke="#000000" stroke-width="2" /></svg>