<?xml version='1.0' encoding='utf-8'?>
<svg xmlns="http://www.w3.org/2000/svg" height="100px" version="1.0" viewBox="0 0 100 100" width="100px" x="0px" y="0px">
<line fill="none" stroke="#000000" stroke-width="2" x1="27" x2="27" y1="3.5" y2="25.5" /><line fill="none" stroke="#000000" stroke-width="2" x1="5.5" x2="48.5" y1="25.5" y2="25.5" /><line fill="none" stroke="#000000" stroke-width="2" x1="45" x2="27" y1="13" y2="13" /><line fill="none" stroke="#000000" stroke-width="2" x1="15" x2="15" y1="25.5" y2="6.5" /><line fill="none" stroke="#000000" stroke-width="2" x1="27" x2="27" y1="85.5" y2="29" /><line fill="none" stroke="#000000" stroke-width="2" x1="42.5" x2="11.5" y1="53" y2="53" /><line fill="none" stroke="#000000" stroke-width="2" x1="8.5" x2="8.5" y1="30.5" y2="94.5" /><line fill="none" stroke="#000000" stroke-width="2" x1="45.5" x2="45.5" y1="30.5" y2="94.5" /><line fill="none" stroke="#000000" stroke-width="2" x1="8.5" x2="45.5" y1="88.5" y2="88.5" /><line fill="none" stroke="#000000" stroke-width="2" x1="87.5" x2="57.5" y1="31.5" y2="31.5" /><line fill="none" stroke="#000000" stroke-width="2" x1="69.5" x2="69.5" y1="94" y2="50" /><path d="M42.5,80.5 c-5.955,-12.121 -10.605,-20.563 -15,-27.5" fill="none" stroke="#000000" stroke-width="2" /><path d="M11.5,79.5 c6.592,-7.881 11.393,-16.717 14.5,-26.5" fill="none" stroke="#000000" stroke-width="2" /><path d="M22,49.5 c-2.556,-5.657 -5.352,-11.241 -8,-16" fill="none" stroke="#000000" stroke-width="2" /><path d="M32,49.5 c3.207,-5.089 6.099,-10.915 8,-16" fill="none" stroke="#000000" stroke-width="2" /><path d="M97,36 c-9.234,-9.233 -18.094,-19.665 -26,-30.8 c-7.23,12.623 -13.78,21.609 -23,31.8" fill="none" stroke="#000000" stroke-width="2" /><path d="M51.5,50 h41.0 v26.0 c0,7.636 -0.333,8 -5,8 c-1.081,0 -5.77,-0.208 -9.5,-0.5" fill="none" stroke="#000000" stroke-width="2" /></svg>