<?xml version='1.0' encoding='utf-8'?>
<svg xmlns="http://www.w3.org/2000/svg" height="100px" version="1.0" viewBox="0 0 100 100" width="100px" x="0px" y="0px">
<line fill="none" stroke="#000000" stroke-width="2" x1="16" x2="16" y1="94" y2="34.3" /><line fill="none" stroke="#000000" stroke-width="2" x1="51" x2="51" y1="41" y2="91" /><line fill="none" stroke="#000000" stroke-width="2" x1="71" x2="71" y1="41" y2="91" /><line fill="none" stroke="#000000" stroke-width="2" x1="32" x2="91" y1="63.5" y2="63.5" /><line fill="none" stroke="#000000" stroke-width="2" x1="83" x2="39" y1="28" y2="28" /><path d="M78,90.5 c4.477,0.359 7.305,0.5 8.5,0.5 c3.977,0 4.5,-0.672 4.5,-8 v-42.0 h-60.0 v52.0" fill="none" stroke="#000000" stroke-width="2" /><path d="M96.5,33 c-13.311,-8.155 -24.552,-16.672 -35.5,-26.8 c-10.949,10.128 -22.188,18.645 -35.5,26.8" fill="none" stroke="#000000" stroke-width="2" /><path d="M26.5,6 c-5.018,19.812 -13.809,37.326 -25,51" fill="none" stroke="#000000" stroke-width="2" /></svg>