<?xml version='1.0' encoding='utf-8'?>
<svg xmlns="http://www.w3.org/2000/svg" height="100px" version="1.0" viewBox="0 0 100 100" width="100px" x="0px" y="0px">
<line fill="none" stroke="#000000" stroke-width="2" x1="14" x2="14" y1="94" y2="33" /><line fill="none" stroke="#000000" stroke-width="2" x1="23.5" x2="94.5" y1="27" y2="27" /><line fill="none" stroke="#000000" stroke-width="2" x1="59" x2="59" y1="48" y2="12" /><line fill="none" stroke="#000000" stroke-width="2" x1="95" x2="23" y1="55.5" y2="55.5" /><path d="M22,6 c-4.002,19.29 -10.986,36.252 -20,49.5" fill="none" stroke="#000000" stroke-width="2" /><path d="M28.5,13 c21.002,0 41.163,-1.563 60,-4.5" fill="none" stroke="#000000" stroke-width="2" /><path d="M23,50 c17.005,-7.173 28.58,-15.031 35.5,-23" fill="none" stroke="#000000" stroke-width="2" /><path d="M95,50 c-16.682,-7.081 -28.557,-14.954 -35.5,-23" fill="none" stroke="#000000" stroke-width="2" /><path d="M21.5,91.5 c28.623,-4.132 51.711,-18.591 60.5,-36" fill="none" stroke="#000000" stroke-width="2" /><path d="M53,44 c-6.025,11.427 -13.736,21.636 -24,31.5" fill="none" stroke="#000000" stroke-width="2" /><path d="M33.5,71 c20.346,3.868 37.854,10.151 60,21.5" fill="none" stroke="#000000" stroke-width="2" /></svg>