<?xml version='1.0' encoding='utf-8'?>
<svg xmlns="http://www.w3.org/2000/svg" height="100px" version="1.0" viewBox="0 0 100 100" width="100px" x="0px" y="0px">
<line fill="none" stroke="#000000" stroke-width="2" x1="16.5" x2="16.5" y1="94" y2="28.8" /><line fill="none" stroke="#000000" stroke-width="2" x1="82" x2="37" y1="26" y2="26" /><polyline fill="none" points="31,62 31,38 88,38 88,61 32,61" stroke="#000000" stroke-width="2" /><path d="M23.5,6 c-4.303,19.29 -11.811,36.252 -21.5,49.5" fill="none" stroke="#000000" stroke-width="2" /><path d="M95.5,30 c-14.021,-7.546 -25.02,-15.2 -36,-25 c-10.979,9.8 -21.979,17.454 -36,25" fill="none" stroke="#000000" stroke-width="2" /><path d="M23.5,92 c22.307,-6.507 36.5,-21.03 36.5,-35.5 V26.0" fill="none" stroke="#000000" stroke-width="2" /><path d="M95.5,92 c-21.654,-6.514 -35.5,-21.029 -35.5,-35.5" fill="none" stroke="#000000" stroke-width="2" /></svg>