<?xml version='1.0' encoding='utf-8'?>
<svg xmlns="http://www.w3.org/2000/svg" height="100px" version="1.0" viewBox="0 0 100 100" width="100px" x="0px" y="0px">
<line fill="none" stroke="#000000" stroke-width="2" x1="15.5" x2="15.5" y1="94" y2="33.3" /><line fill="none" stroke="#000000" stroke-width="2" x1="33" x2="58.5" y1="21" y2="21" /><line fill="none" stroke="#000000" stroke-width="2" x1="33" x2="33" y1="43" y2="7.5" /><line fill="none" stroke="#000000" stroke-width="2" x1="33.5" x2="89" y1="87" y2="87" /><line fill="none" stroke="#000000" stroke-width="2" x1="33.5" x2="89" y1="68.5" y2="68.5" /><polyline fill="none" points="89,93 89,51.5 32.5,51.5 32.5,93" stroke="#000000" stroke-width="2" /><path d="M25.5,6 c-4.404,18.067 -13.146,35.925 -24,49.5" fill="none" stroke="#000000" stroke-width="2" /><path d="M64.5,7.5 v30.0 c0,4.886 0.127,5 13,5 c14.152,0 14.39,-0.227 15.5,-17" fill="none" stroke="#000000" stroke-width="2" /><path d="M64.5,23.5 c9.562,-2.438 18.213,-5.827 28,-11" fill="none" stroke="#000000" stroke-width="2" /><path d="M25.5,44.5 c11.371,-1.652 22.27,-4.222 34,-8" fill="none" stroke="#000000" stroke-width="2" /><path d="M60,42 c-1.52,3.519 -3.293,6.552 -5.5,9.5" fill="none" stroke="#000000" stroke-width="2" /></svg>