<?xml version='1.0' encoding='utf-8'?>
<svg xmlns="http://www.w3.org/2000/svg" height="100px" version="1.0" viewBox="0 0 100 100" width="100px" x="0px" y="0px">
<line fill="none" stroke="#000000" stroke-width="2" x1="60.5" x2="60.5" y1="11.5" y2="50.5" /><line fill="none" stroke="#000000" stroke-width="2" x1="32.5" x2="89.5" y1="30" y2="30" /><line fill="none" stroke="#000000" stroke-width="2" x1="16.5" x2="16.5" y1="94" y2="30.8" /><polyline fill="none" points="32.5,50.5 89.5,50.5 89.5,10.5 31.5,10.5 31.5,51.5" stroke="#000000" stroke-width="2" /><path d="M45.5,58.5 v21.0 c0,11.755 0.258,12 16,12 c19.549,0 19.818,-0.224 21,-18.5" fill="none" stroke="#000000" stroke-width="2" /><path d="M24,87.5 c4.953,-7.342 9.1,-17.061 11.5,-27" fill="none" stroke="#000000" stroke-width="2" /><path d="M96,88 c-3.322,-9.656 -7.641,-19.713 -12.5,-29" fill="none" stroke="#000000" stroke-width="2" /><path d="M70,76.5 c-4.447,-6.058 -9.67,-12.142 -15.5,-18" fill="none" stroke="#000000" stroke-width="2" /><path d="M25,5 c-4.616,19.812 -12.729,37.308 -23,51" fill="none" stroke="#000000" stroke-width="2" /></svg>