<?xml version='1.0' encoding='utf-8'?>
<svg xmlns="http://www.w3.org/2000/svg" height="100px" version="1.0" viewBox="0 0 100 100" width="100px" x="0px" y="0px">
<line fill="none" stroke="#000000" stroke-width="2" x1="14" x2="14" y1="94" y2="33" /><line fill="none" stroke="#000000" stroke-width="2" x1="58.5" x2="58.5" y1="93.5" y2="50" /><line fill="none" stroke="#000000" stroke-width="2" x1="94.5" x2="23.5" y1="62" y2="62" /><line fill="none" stroke="#000000" stroke-width="2" x1="36.5" x2="57.5" y1="14" y2="14" /><line fill="none" stroke="#000000" stroke-width="2" x1="83" x2="83" y1="57.5" y2="6.5" /><line fill="none" stroke="#000000" stroke-width="2" x1="59.5" x2="94.5" y1="17.5" y2="17.5" /><line fill="none" stroke="#000000" stroke-width="2" x1="65" x2="65" y1="43" y2="18.5" /><line fill="none" stroke="#000000" stroke-width="2" x1="96.5" x2="53" y1="43" y2="43" /><path d="M22,6 c-4.002,19.29 -10.986,36.252 -20,49.5" fill="none" stroke="#000000" stroke-width="2" /><path d="M19.5,88 c16.874,-7.159 30.601,-16.962 38,-26" fill="none" stroke="#000000" stroke-width="2" /><path d="M96,88 c-16.611,-7.785 -28.564,-16.469 -36.5,-26" fill="none" stroke="#000000" stroke-width="2" /><path d="M21.5,32.5 c8.428,-7.294 14.609,-16.166 18.5,-26.5" fill="none" stroke="#000000" stroke-width="2" /><path d="M56.502,14.943 c-1.068,18.774 -14.568,35.11 -33.002,41.557" fill="none" stroke="#000000" stroke-width="2" /><path d="M49.5,36.5 c-4.488,-3.849 -10.313,-8.214 -15.5,-11.5" fill="none" stroke="#000000" stroke-width="2" /></svg>