<?xml version='1.0' encoding='utf-8'?>
<svg xmlns="http://www.w3.org/2000/svg" height="100px" version="1.0" viewBox="0 0 100 100" width="100px" x="0px" y="0px">
<line fill="none" stroke="#000000" stroke-width="2" x1="13" x2="13" y1="94" y2="34" /><line fill="none" stroke="#000000" stroke-width="2" x1="59.5" x2="59.5" y1="46.5" y2="10" /><line fill="none" stroke="#000000" stroke-width="2" x1="27" x2="92" y1="10" y2="10" /><line fill="none" stroke="#000000" stroke-width="2" x1="32" x2="52.5" y1="30" y2="30" /><line fill="none" stroke="#000000" stroke-width="2" x1="32" x2="52.5" y1="40.5" y2="40.5" /><line fill="none" stroke="#000000" stroke-width="2" x1="66.5" x2="87" y1="30" y2="30" /><line fill="none" stroke="#000000" stroke-width="2" x1="66.5" x2="87" y1="40.5" y2="40.5" /><line fill="none" stroke="#000000" stroke-width="2" x1="95" x2="24" y1="50.5" y2="50.5" /><line fill="none" stroke="#000000" stroke-width="2" x1="49" x2="49" y1="61.5" y2="90.5" /><line fill="none" stroke="#000000" stroke-width="2" x1="70" x2="70" y1="61.5" y2="90.5" /><polyline fill="none" points="93.5,40.5 93.5,21 25.5,21 25.5,40.5" stroke="#000000" stroke-width="2" /><path d="M21.5,6 c-4.002,19.29 -10.986,36.252 -20,49.5" fill="none" stroke="#000000" stroke-width="2" /><path d="M76.5,90.5 c4.904,0.354 8.412,0.5 9.5,0.5 c4.65,0 5,-0.396 5,-6 V61.5 H28.0 v31.0" fill="none" stroke="#000000" stroke-width="2" /><path d="M60,50.5 c-1.285,4.079 -2.926,7.679 -5,11" fill="none" stroke="#000000" stroke-width="2" /></svg>