<?xml version='1.0' encoding='utf-8'?>
<svg xmlns="http://www.w3.org/2000/svg" height="100px" version="1.0" viewBox="0 0 100 100" width="100px" x="0px" y="0px">
<line fill="none" stroke="#000000" stroke-width="2" x1="30" x2="70" y1="23" y2="23" /><path d="M50,6 c-13.869,9.603 -28.523,17.569 -46,25" fill="none" stroke="#000000" stroke-width="2" /><path d="M12.5,92 v-58.0 h33.5 v48.5 c0,7.567 -0.385,8 -6,8 c-1.855,0 -5.498,-0.159 -11.5,-0.5" fill="none" stroke="#000000" stroke-width="2" /><path d="M89.5,32.5 c-3.978,11.204 -7.919,19.001 -14,28 c6.752,9.901 11.094,19.074 15,31.5" fill="none" stroke="#000000" stroke-width="2" /><path d="M67.5,32.5 c-3.978,11.204 -7.919,19.001 -14,28 c6.752,9.901 11.094,19.074 15,31.5" fill="none" stroke="#000000" stroke-width="2" /><path d="M17.5,6 h32.5 c13.869,9.603 28.523,17.569 46,25" fill="none" stroke="#000000" stroke-width="2" /><path d="M39,55 c-6.437,-4.146 -13.149,-7.96 -19.5,-11" fill="none" stroke="#000000" stroke-width="2" /><path d="M39,74 c-6.438,-4.146 -13.15,-7.96 -19.5,-11" fill="none" stroke="#000000" stroke-width="2" /></svg>