<?xml version='1.0' encoding='utf-8'?>
<svg xmlns="http://www.w3.org/2000/svg" height="100px" version="1.0" viewBox="0 0 100 100" width="100px" x="0px" y="0px">
<line fill="none" stroke="#000000" stroke-width="2" x1="93.5" x2="28.5" y1="30.5" y2="30.5" /><line fill="none" stroke="#000000" stroke-width="2" x1="90.5" x2="32.5" y1="14.5" y2="14.5" /><line fill="none" stroke="#000000" stroke-width="2" x1="61" x2="61" y1="30.5" y2="4" /><line fill="none" stroke="#000000" stroke-width="2" x1="44" x2="88.5" y1="58" y2="58" /><path d="M5.5,89.5 c8.342,-10.068 15.25,-21.444 20,-33" fill="none" stroke="#000000" stroke-width="2" /><path d="M23,30 c-4.577,-6.477 -10.034,-12.941 -16.5,-19.5" fill="none" stroke="#000000" stroke-width="2" /><path d="M29,52 c15.799,-3.886 24.13,-11.825 25,-21.5" fill="none" stroke="#000000" stroke-width="2" /><path d="M69,30.5 v14.5 c0,3.856 0.133,4 11,4 c11.616,0 11.853,-0.192 13,-11.5" fill="none" stroke="#000000" stroke-width="2" /><path d="M26.5,71.5 c10.512,-5.596 21.727,-16.307 25.5,-23.5" fill="none" stroke="#000000" stroke-width="2" /><path d="M87.682,58.426 c-11.057,15.757 -34.085,28.719 -64.182,33.574" fill="none" stroke="#000000" stroke-width="2" /><path d="M95.5,92 c-22.384,-6.612 -41.781,-18.635 -53,-32" fill="none" stroke="#000000" stroke-width="2" /></svg>