<?xml version='1.0' encoding='utf-8'?>
<svg xmlns="http://www.w3.org/2000/svg" height="100px" version="1.0" viewBox="0 0 100 100" width="100px" x="0px" y="0px">
<line fill="none" stroke="#000000" stroke-width="2" x1="28" x2="71" y1="34" y2="34" /><line fill="none" stroke="#000000" stroke-width="2" x1="78" x2="19" y1="87.5" y2="87.5" /><line fill="none" stroke="#000000" stroke-width="2" x1="75" x2="23" y1="57.5" y2="57.5" /><line fill="none" stroke="#000000" stroke-width="2" x1="71.5" x2="26.5" y1="72" y2="72" /><line fill="none" stroke="#000000" stroke-width="2" x1="49" x2="49" y1="87.5" y2="57.5" /><polyline fill="none" points="28,47.5 71,47.5 71,21 27,21 27,48.5" stroke="#000000" stroke-width="2" /><path d="M4.5,92.5 c6.738,-10.179 10.5,-25.519 10.5,-50.5 v-32.0 h68.0 c0,64.188 4.436,82 8,82 c1.634,0 3.873,-4.224 5,-22" fill="none" stroke="#000000" stroke-width="2" /><path d="M49.5,10 c-1.085,4.058 -2.396,7.636 -4,11" fill="none" stroke="#000000" stroke-width="2" /><path d="M75.27,57.382" fill="none" stroke="#000000" stroke-width="2" /></svg>