<?xml version='1.0' encoding='utf-8'?>
<svg xmlns="http://www.w3.org/2000/svg" height="100px" version="1.0" viewBox="0 0 100 100" width="100px" x="0px" y="0px">
<line fill="none" stroke="#000000" stroke-width="2" x1="11.5" x2="11.5" y1="29" y2="93" /><line fill="none" stroke="#000000" stroke-width="2" x1="88.5" x2="88.5" y1="93" y2="29" /><line fill="none" stroke="#000000" stroke-width="2" x1="11.5" x2="88.5" y1="86" y2="86" /><line fill="none" stroke="#000000" stroke-width="2" x1="92.5" x2="7.5" y1="11" y2="11" /><path d="M41.5,11 c-1.12,9.261 -2.506,18.178 -4,26" fill="none" stroke="#000000" stroke-width="2" /><path d="M38.5,30.5 h18.0 c-2.793,46.794 -3.043,47 -9,47 c-2.646,0 -7.553,-0.359 -13,-1" fill="none" stroke="#000000" stroke-width="2" /><path d="M17.5,73 c10.197,-4.774 20.512,-12.497 26,-19" fill="none" stroke="#000000" stroke-width="2" /><path d="M35.5,49 c-4.568,-6.468 -10.105,-12.929 -15.5,-18" fill="none" stroke="#000000" stroke-width="2" /><path d="M82.5,73 c-5.709,-6.433 -13.443,-13.199 -22,-19" fill="none" stroke="#000000" stroke-width="2" /><path d="M62.5,46.5 c7.539,-5.08 14.574,-11.241 19,-16.5" fill="none" stroke="#000000" stroke-width="2" /></svg>