<?xml version='1.0' encoding='utf-8'?>
<svg xmlns="http://www.w3.org/2000/svg" height="100px" version="1.0" viewBox="0 0 100 100" width="100px" x="0px" y="0px">
<line fill="none" stroke="#000000" stroke-width="2" x1="61" x2="61" y1="74" y2="12" /><line fill="none" stroke="#000000" stroke-width="2" x1="31" x2="31" y1="93" y2="34" /><line fill="none" stroke="#000000" stroke-width="2" x1="53" x2="6.5" y1="49" y2="49" /><path d="M89.5,8 v75.0 c0,7.224 -0.888,8 -7,8 c-3.04,0 -7.829,-0.144 -14,-0.5" fill="none" stroke="#000000" stroke-width="2" /><path d="M5.5,82 c11.796,-10.491 20.032,-21.674 25,-33.5" fill="none" stroke="#000000" stroke-width="2" /><path d="M54,78 c-5.628,-8.347 -13.564,-18.511 -22.5,-28.5" fill="none" stroke="#000000" stroke-width="2" /><path d="M6,38.5 c19.625,-7.61 36.258,-19.697 45,-31.5" fill="none" stroke="#000000" stroke-width="2" /><path d="M11,11 c13.286,5.897 25.236,12.801 40.5,23.5" fill="none" stroke="#000000" stroke-width="2" /></svg>