<?xml version='1.0' encoding='utf-8'?>
<svg xmlns="http://www.w3.org/2000/svg" height="100px" version="1.0" viewBox="0 0 100 100" width="100px" x="0px" y="0px">
<line fill="none" stroke="#000000" stroke-width="2" x1="31.5" x2="31.5" y1="94" y2="18.5" /><line fill="none" stroke="#000000" stroke-width="2" x1="68.5" x2="68.5" y1="74" y2="12" /><path d="M8,57 h50.0 c0,27.763 -1.123,29.5 -6,29.5 c-2.152,0 -6.873,-0.341 -12,-1" fill="none" stroke="#000000" stroke-width="2" /><path d="M6,18.5 h50.0 v19.5 h-45.5 c-0.84,9.931 -2.396,19.277 -4.5,27.5" fill="none" stroke="#000000" stroke-width="2" /><path d="M3,90.5 c12.658,-9.981 21.502,-20.851 27.5,-33.5" fill="none" stroke="#000000" stroke-width="2" /><path d="M23,18.5 c-1.913,-4.796 -3.995,-9.498 -6,-13.5" fill="none" stroke="#000000" stroke-width="2" /><path d="M40,18.5 c2.266,-4.448 4.43,-9.299 6,-13.5" fill="none" stroke="#000000" stroke-width="2" /><path d="M91,8 v75.0 c0,7.13 -0.867,8 -6.5,8 c-2.75,0 -6.917,-0.144 -12.5,-0.5" fill="none" stroke="#000000" stroke-width="2" /></svg>