<?xml version='1.0' encoding='utf-8'?>
<svg xmlns="http://www.w3.org/2000/svg" height="100px" version="1.0" viewBox="0 0 100 100" width="100px" x="0px" y="0px">
<line fill="none" stroke="#000000" stroke-width="2" x1="15" x2="52.5" y1="87" y2="87" /><line fill="none" stroke="#000000" stroke-width="2" x1="5.5" x2="62" y1="41.5" y2="41.5" /><line fill="none" stroke="#000000" stroke-width="2" x1="6.5" x2="61" y1="15.5" y2="15.5" /><line fill="none" stroke="#000000" stroke-width="2" x1="33" x2="33" y1="15" y2="3.5" /><line fill="none" stroke="#000000" stroke-width="2" x1="68.5" x2="68.5" y1="74" y2="12" /><polyline fill="none" points="53.5,93 53.5,55.5 14,55.5 14,93" stroke="#000000" stroke-width="2" /><path d="M44,41.5 c3.418,-7.409 6.219,-16.329 8,-26" fill="none" stroke="#000000" stroke-width="2" /><path d="M22.5,41.5 c-2.117,-8.986 -4.596,-17.603 -7.5,-26" fill="none" stroke="#000000" stroke-width="2" /><path d="M90,8 v75.0 c0,7.13 -0.867,8 -6.5,8 c-2.75,0 -6.917,-0.144 -12.5,-0.5" fill="none" stroke="#000000" stroke-width="2" /></svg>