<?xml version='1.0' encoding='utf-8'?>
<svg xmlns="http://www.w3.org/2000/svg" height="100px" version="1.0" viewBox="0 0 100 100" width="100px" x="0px" y="0px">
<line fill="none" stroke="#000000" stroke-width="2" x1="66" x2="66" y1="74" y2="12" /><line fill="none" stroke="#000000" stroke-width="2" x1="6" x2="61" y1="45" y2="45" /><path d="M89,8 v75.0 c0,7.13 -0.867,8 -6.5,8 c-2.75,0 -6.917,-0.144 -12.5,-0.5" fill="none" stroke="#000000" stroke-width="2" /><path d="M34,45 v36.698 c0,8.037 -1.134,9.302 -6,9.302 c-2.301,0 -6.199,-0.173 -11,-0.5" fill="none" stroke="#000000" stroke-width="2" /><path d="M57,51 c-4.506,5.636 -9.613,10.382 -15,13.999" fill="none" stroke="#000000" stroke-width="2" /><path d="M6,84 c8.242,-3.955 15.745,-8.772 22,-14" fill="none" stroke="#000000" stroke-width="2" /><path d="M61,86.5 c-6.748,-6.498 -13.908,-11.979 -21,-16" fill="none" stroke="#000000" stroke-width="2" /><path d="M25,65 c-3.854,-4.301 -9.205,-9.316 -15,-14" fill="none" stroke="#000000" stroke-width="2" /><path d="M47.5,45 c4.127,-14.093 5.896,-21.236 8,-32 H18.0" fill="none" stroke="#000000" stroke-width="2" /><path d="M51.5,30 H12.0 c4.12,-10.572 5.883,-15.931 8,-24" fill="none" stroke="#000000" stroke-width="2" /></svg>