<?xml version='1.0' encoding='utf-8'?>
<svg xmlns="http://www.w3.org/2000/svg" height="100px" version="1.0" viewBox="0 0 100 100" width="100px" x="0px" y="0px">
<line fill="none" stroke="#000000" stroke-width="2" x1="5" x2="49" y1="46" y2="46" /><line fill="none" stroke="#000000" stroke-width="2" x1="48.5" x2="7" y1="20" y2="20" /><line fill="none" stroke="#000000" stroke-width="2" x1="26" x2="26" y1="46" y2="6" /><path d="M48.5,80 c-3.252,-8.35 -7.311,-17.532 -11,-25" fill="none" stroke="#000000" stroke-width="2" /><path d="M3.5,86.5 c12.296,-1.345 28.011,-6.365 42,-13.5" fill="none" stroke="#000000" stroke-width="2" /><path d="M12,85 c4.59,-11.177 9.147,-24.697 13,-39" fill="none" stroke="#000000" stroke-width="2" /><path d="M43,92 c17.021,-16.926 23,-34.719 23,-86" fill="none" stroke="#000000" stroke-width="2" /><path d="M51,26 h40.5 c0,58.538 -2.684,64 -10,64 c-3.222,0 -9.236,-0.354 -16,-1" fill="none" stroke="#000000" stroke-width="2" /></svg>