<?xml version='1.0' encoding='utf-8'?>
<svg xmlns="http://www.w3.org/2000/svg" height="100px" version="1.0" viewBox="0 0 100 100" width="100px" x="0px" y="0px">
<line fill="none" stroke="#000000" stroke-width="2" x1="51" x2="5" y1="17" y2="17" /><line fill="none" stroke="#000000" stroke-width="2" x1="28" x2="28" y1="31.5" y2="6" /><line fill="none" stroke="#000000" stroke-width="2" x1="45" x2="11" y1="45" y2="45" /><polyline fill="none" points="49,47.5 49,31.5 6.5,31.5 6.5,47.5" stroke="#000000" stroke-width="2" /><path d="M4.5,69 c20.428,-1.83 37.16,-4.467 47,-7" fill="none" stroke="#000000" stroke-width="2" /><path d="M29,57 v25.5 c0,7.493 -0.55,8 -5.5,8 c-3.023,0 -6.738,-0.169 -11,-0.5" fill="none" stroke="#000000" stroke-width="2" /><path d="M44.27,45.316 c-4.995,5.336 -9.08,8.799 -15.27,12.684" fill="none" stroke="#000000" stroke-width="2" /><path d="M42.5,92 c17.021,-16.926 23,-34.719 23,-86" fill="none" stroke="#000000" stroke-width="2" /><path d="M51.5,28 h41.0 c0,56.537 -2.684,62 -10,62 c-3.222,0 -9.236,-0.354 -16,-1" fill="none" stroke="#000000" stroke-width="2" /></svg>