<?xml version='1.0' encoding='utf-8'?>
<svg xmlns="http://www.w3.org/2000/svg" height="100px" version="1.0" viewBox="0 0 100 100" width="100px" x="0px" y="0px">
<line fill="none" stroke="#000000" stroke-width="2" x1="28.5" x2="28.5" y1="94" y2="5" /><line fill="none" stroke="#000000" stroke-width="2" x1="4" x2="53" y1="16" y2="16" /><polyline fill="none" points="10.5,54 47.5,54 47.5,30 9.5,30 9.5,55" stroke="#000000" stroke-width="2" /><path d="M4,85 c11.534,-10.031 19.114,-20.017 24,-31" fill="none" stroke="#000000" stroke-width="2" /><path d="M49,75 c-8.839,-6.392 -15.894,-13.829 -20,-21" fill="none" stroke="#000000" stroke-width="2" /><path d="M43,92 c17.021,-16.926 23,-34.719 23,-86" fill="none" stroke="#000000" stroke-width="2" /><path d="M51,26 h40.5 c0,58.538 -2.684,64 -10,64 c-3.222,0 -9.236,-0.354 -16,-1" fill="none" stroke="#000000" stroke-width="2" /></svg>