<?xml version='1.0' encoding='utf-8'?>
<svg xmlns="http://www.w3.org/2000/svg" height="100px" version="1.0" viewBox="0 0 100 100" width="100px" x="0px" y="0px">
<line fill="none" stroke="#000000" stroke-width="2" x1="28.5" x2="28.5" y1="17" y2="5" /><line fill="none" stroke="#000000" stroke-width="2" x1="5" x2="51" y1="17" y2="17" /><polyline fill="none" points="12.5,52 45.5,52 45.5,28 11.5,28 11.5,53" stroke="#000000" stroke-width="2" /><path d="M29,53 v30.5 c0,6.974 -0.512,7.5 -4.5,7.5 c-1.734,0 -4.658,-0.144 -8.5,-0.5" fill="none" stroke="#000000" stroke-width="2" /><path d="M6,84 c4.762,-6.359 9.215,-15.513 12,-25" fill="none" stroke="#000000" stroke-width="2" /><path d="M47.5,77.5 c-2.729,-6.824 -6.025,-13.476 -9.5,-19" fill="none" stroke="#000000" stroke-width="2" /><path d="M43,92 c17.021,-16.926 23,-34.719 23,-86" fill="none" stroke="#000000" stroke-width="2" /><path d="M51,26 h40.5 c0,58.538 -2.684,64 -10,64 c-3.222,0 -9.236,-0.354 -16,-1" fill="none" stroke="#000000" stroke-width="2" /></svg>