<?xml version='1.0' encoding='utf-8'?>
<svg xmlns="http://www.w3.org/2000/svg" height="100px" version="1.0" viewBox="0 0 100 100" width="100px" x="0px" y="0px">
<line fill="none" stroke="#000000" stroke-width="2" x1="50" x2="5.5" y1="49" y2="49" /><line fill="none" stroke="#000000" stroke-width="2" x1="45" x2="12.5" y1="30" y2="30" /><line fill="none" stroke="#000000" stroke-width="2" x1="48.5" x2="95.5" y1="13.5" y2="13.5" /><path d="M49,27 c-7.651,-6.599 -13.832,-12.808 -20.5,-20.8 c-7.978,10.951 -15.663,19.394 -25.5,27.8" fill="none" stroke="#000000" stroke-width="2" /><path d="M29,30 v53.0 c0,7.595 -0.388,8 -4.5,8 c-1.201,0 -4.58,-0.144 -9.5,-0.5" fill="none" stroke="#000000" stroke-width="2" /><path d="M5.5,87 c5.147,-8.204 9.507,-18.876 12,-30" fill="none" stroke="#000000" stroke-width="2" /><path d="M46.5,84.5 c-1.844,-9.112 -4.278,-18.722 -7,-27.5" fill="none" stroke="#000000" stroke-width="2" /><path d="M46,91.5 c24.072,-12.154 42.744,-39.438 48.51,-77.151" fill="none" stroke="#000000" stroke-width="2" /><path d="M97.5,91.5 c-22.036,-13.207 -36.896,-37.763 -41,-72.5" fill="none" stroke="#000000" stroke-width="2" /></svg>