<?xml version='1.0' encoding='utf-8'?>
<svg xmlns="http://www.w3.org/2000/svg" height="100px" version="1.0" viewBox="0 0 100 100" width="100px" x="0px" y="0px">
<line fill="none" stroke="#000000" stroke-width="2" x1="44.5" x2="4.5" y1="42" y2="42" /><line fill="none" stroke="#000000" stroke-width="2" x1="50" x2="92" y1="34" y2="34" /><path d="M16,36.5 c-3.018,-8.899 -6.306,-17.599 -9.5,-25" fill="none" stroke="#000000" stroke-width="2" /><path d="M33.5,36.5 c3.83,-7.923 7.281,-17.001 9.5,-25" fill="none" stroke="#000000" stroke-width="2" /><path d="M10,92 c9.375,-8.802 15,-24.74 15,-51 v-34.0" fill="none" stroke="#000000" stroke-width="2" /><path d="M4.5,65 c14.685,-1.918 26.687,-4.342 40,-8" fill="none" stroke="#000000" stroke-width="2" /><path d="M35,92 c9.837,-11.396 15,-27.611 15,-51 v-30.0 h45.5" fill="none" stroke="#000000" stroke-width="2" /><path d="M47,91 c20.709,-9.229 36.346,-28.561 44.037,-56.268" fill="none" stroke="#000000" stroke-width="2" /><path d="M97,91 c-19.991,-9.931 -33.119,-25.981 -41,-52" fill="none" stroke="#000000" stroke-width="2" /></svg>