<?xml version='1.0' encoding='utf-8'?>
<svg xmlns="http://www.w3.org/2000/svg" height="100px" version="1.0" viewBox="0 0 100 100" width="100px" x="0px" y="0px">
<line fill="none" stroke="#000000" stroke-width="2" x1="47" x2="91.5" y1="13" y2="13" /><line fill="none" stroke="#000000" stroke-width="2" x1="8" x2="32" y1="12.5" y2="12.5" /><line fill="none" stroke="#000000" stroke-width="2" x1="20" x2="80" y1="86.5" y2="86.5" /><polyline fill="none" points="81,92.5 81,59 19,59 19,92.5" stroke="#000000" stroke-width="2" /><path d="M27,53.5 c18.158,-4.072 32.5,-17.272 32.5,-28 v-7.5" fill="none" stroke="#000000" stroke-width="2" /><path d="M92,55.5 c-18.5,-4.399 -32.5,-18.883 -32.5,-30" fill="none" stroke="#000000" stroke-width="2" /><path d="M33,29 c8.178,-6.813 14.203,-15.024 18,-24.5" fill="none" stroke="#000000" stroke-width="2" /><path d="M75.5,30.5 c6.609,-4.867 11.577,-10.549 15.124,-16.98" fill="none" stroke="#000000" stroke-width="2" /><path d="M8,51 c9.883,-4.521 18.125,-9.749 24,-15" fill="none" stroke="#000000" stroke-width="2" /></svg>