<?xml version='1.0' encoding='utf-8'?>
<svg xmlns="http://www.w3.org/2000/svg" height="100px" version="1.0" viewBox="0 0 100 100" width="100px" x="0px" y="0px">
<line fill="none" stroke="#000000" stroke-width="2" x1="33.5" x2="96" y1="34" y2="34" /><line fill="none" stroke="#000000" stroke-width="2" x1="33.5" x2="96" y1="69" y2="69" /><line fill="none" stroke="#000000" stroke-width="2" x1="83.5" x2="38" y1="15" y2="15" /><line fill="none" stroke="#000000" stroke-width="2" x1="65.5" x2="65.5" y1="34" y2="4.5" /><line fill="none" stroke="#000000" stroke-width="2" x1="92" x2="39.5" y1="49.5" y2="49.5" /><polyline fill="none" points="9,79 29,79 29,13 8,13 8,87" stroke="#000000" stroke-width="2" /><path d="M70.5,61.5 v21.0 c0,7.364 -0.579,8 -7,8 c-3.847,0 -8.577,-0.159 -14,-0.5" fill="none" stroke="#000000" stroke-width="2" /><path d="M91.379,49.717 c-6.812,5.401 -12.416,8.868 -20.879,12.783" fill="none" stroke="#000000" stroke-width="2" /><path d="M33.5,64 c24.967,-12.497 47.533,-32.831 61,-55" fill="none" stroke="#000000" stroke-width="2" /></svg>