<?xml version='1.0' encoding='utf-8'?>
<svg xmlns="http://www.w3.org/2000/svg" height="100px" version="1.0" viewBox="0 0 100 100" width="100px" x="0px" y="0px">
<line fill="none" stroke="#000000" stroke-width="2" x1="7" x2="50" y1="11.5" y2="11.5" /><line fill="none" stroke="#000000" stroke-width="2" x1="59.5" x2="94" y1="13" y2="13" /><line fill="none" stroke="#000000" stroke-width="2" x1="20" x2="81" y1="86.5" y2="86.5" /><polyline fill="none" points="81,92.5 81,59 19,59 19,92.5" stroke="#000000" stroke-width="2" /><path d="M4.5,64 c5.238,-6.697 7.5,-13.669 7.5,-24 v-18.5 h34.0 v22.0 h-34.0" fill="none" stroke="#000000" stroke-width="2" /><path d="M49,54 c22.77,-8.238 34.173,-20.687 38,-41" fill="none" stroke="#000000" stroke-width="2" /><path d="M50.5,30 c5.163,-6.998 9.562,-16.665 12,-26" fill="none" stroke="#000000" stroke-width="2" /><path d="M95.5,56.5 c-20.194,-7.821 -32.592,-21.529 -35,-37" fill="none" stroke="#000000" stroke-width="2" /></svg>