<?xml version='1.0' encoding='utf-8'?>
<svg xmlns="http://www.w3.org/2000/svg" height="100px" version="1.0" viewBox="0 0 100 100" width="100px" x="0px" y="0px">
<line fill="none" stroke="#000000" stroke-width="2" x1="32" x2="60.5" y1="10" y2="10" /><line fill="none" stroke="#000000" stroke-width="2" x1="63" x2="95" y1="10" y2="10" /><line fill="none" stroke="#000000" stroke-width="2" x1="32" x2="60.5" y1="50" y2="50" /><line fill="none" stroke="#000000" stroke-width="2" x1="63" x2="95" y1="50" y2="50" /><polyline fill="none" points="9.5,78 28,78 28,13 8.5,13 8.5,89" stroke="#000000" stroke-width="2" /><path d="M31.5,45 c13.978,-6.121 24.478,-18.808 28.025,-34.224" fill="none" stroke="#000000" stroke-width="2" /><path d="M61,38.5 c-7.619,-8.479 -17.459,-16.809 -26,-22" fill="none" stroke="#000000" stroke-width="2" /><path d="M60.5,45 c16.973,-5.879 29.152,-18.285 33.536,-34.265" fill="none" stroke="#000000" stroke-width="2" /><path d="M29.5,91 c15.097,-6.545 26.712,-21.624 30.016,-40.176" fill="none" stroke="#000000" stroke-width="2" /><path d="M61,82.5 c-7.658,-9.856 -17.531,-19.533 -26,-25.5" fill="none" stroke="#000000" stroke-width="2" /><path d="M56,91 c19.471,-6.206 33.719,-21.397 38.025,-40.223" fill="none" stroke="#000000" stroke-width="2" /><path d="M96.5,45 c-15.62,-6.261 -25.621,-16.762 -29,-31" fill="none" stroke="#000000" stroke-width="2" /><path d="M96.5,91 c-15.201,-7.2 -25.517,-19.956 -29,-37" fill="none" stroke="#000000" stroke-width="2" /></svg>