<?xml version='1.0' encoding='utf-8'?>
<svg xmlns="http://www.w3.org/2000/svg" height="100px" version="1.0" viewBox="0 0 100 100" width="100px" x="0px" y="0px">
<line fill="none" stroke="#000000" stroke-width="2" x1="93.5" x2="53" y1="43.5" y2="43.5" /><line fill="none" stroke="#000000" stroke-width="2" x1="96" x2="43" y1="63.5" y2="63.5" /><line fill="none" stroke="#000000" stroke-width="2" x1="43.5" x2="96" y1="31" y2="31" /><line fill="none" stroke="#000000" stroke-width="2" x1="37.5" x2="37.5" y1="94" y2="29.75" /><polyline fill="none" points="84.5,31 86.5,10 49,10" stroke="#000000" stroke-width="2" /><polyline fill="none" points="9,82 28,82 28,13 8,13 8,90" stroke="#000000" stroke-width="2" /><path d="M44.5,57 c5.695,-6.683 10.875,-16.618 13.5,-26" fill="none" stroke="#000000" stroke-width="2" /><path d="M42,92.5 c17.563,-5.458 28.5,-18.251 28.5,-32 v-17.0" fill="none" stroke="#000000" stroke-width="2" /><path d="M96.5,92.5 c-16.338,-6.088 -26,-18.563 -26,-32" fill="none" stroke="#000000" stroke-width="2" /><path d="M44,6 c-3.521,17.112 -9.082,32.64 -16,46" fill="none" stroke="#000000" stroke-width="2" /></svg>