<?xml version='1.0' encoding='utf-8'?>
<svg xmlns="http://www.w3.org/2000/svg" height="100px" version="1.0" viewBox="0 0 100 100" width="100px" x="0px" y="0px">
<line fill="none" stroke="#000000" stroke-width="2" x1="48" x2="79" y1="23" y2="23" /><polyline fill="none" points="8,82 26,82 26,13 7,13 7,90" stroke="#000000" stroke-width="2" /><path d="M63.5,6 c-10.251,9.603 -21.082,17.569 -34,25" fill="none" stroke="#000000" stroke-width="2" /><path d="M35,92 v-58.0 h25.0 v48.5 c0,7.567 -0.309,8 -4.5,8 c-1.384,0 -4.52,-0.159 -9,-0.5" fill="none" stroke="#000000" stroke-width="2" /><path d="M93.5,32.5 c-3.251,11.123 -6.637,19.182 -11.5,28 c5.499,9.645 9.096,19.074 12,31.5" fill="none" stroke="#000000" stroke-width="2" /><path d="M77,32.5 c-3.251,11.123 -6.637,19.182 -11.5,28 c5.499,9.645 9.096,19.074 12,31.5" fill="none" stroke="#000000" stroke-width="2" /><path d="M39,6 h24.5 c10.251,9.603 21.082,17.569 34,25" fill="none" stroke="#000000" stroke-width="2" /><path d="M55,55 c-4.951,-4.146 -10.115,-7.96 -15,-11" fill="none" stroke="#000000" stroke-width="2" /><path d="M55,74 c-4.952,-4.146 -10.116,-7.96 -15,-11" fill="none" stroke="#000000" stroke-width="2" /></svg>