<?xml version='1.0' encoding='utf-8'?>
<svg xmlns="http://www.w3.org/2000/svg" height="100px" version="1.0" viewBox="0 0 100 100" width="100px" x="0px" y="0px">
<line fill="none" stroke="#000000" stroke-width="2" x1="50" x2="50" y1="53" y2="4" /><line fill="none" stroke="#000000" stroke-width="2" x1="8" x2="92" y1="13.5" y2="13.5" /><line fill="none" stroke="#000000" stroke-width="2" x1="7" x2="93" y1="53" y2="53" /><line fill="none" stroke="#000000" stroke-width="2" x1="27.5" x2="27.5" y1="89" y2="53" /><polyline fill="none" points="13.5,43 40.5,43 40.5,23 12.5,23 12.5,44" stroke="#000000" stroke-width="2" /><polyline fill="none" points="60.5,43 87.5,43 87.5,23 59.5,23 59.5,44" stroke="#000000" stroke-width="2" /><path d="M50,53 c7.448,17.7 23.893,32.38 44,39" fill="none" stroke="#000000" stroke-width="2" /><path d="M8,92 c17.236,-2.379 32.201,-5.524 50,-10.5" fill="none" stroke="#000000" stroke-width="2" /><path d="M64.5,74 c8.107,-4.575 15.371,-10.011 21.5,-16" fill="none" stroke="#000000" stroke-width="2" /></svg>