<?xml version='1.0' encoding='utf-8'?>
<svg xmlns="http://www.w3.org/2000/svg" height="100px" version="1.0" viewBox="0 0 100 100" width="100px" x="0px" y="0px">
<line fill="none" stroke="#000000" stroke-width="2" x1="40.5" x2="89.5" y1="43" y2="43" /><line fill="none" stroke="#000000" stroke-width="2" x1="40.5" x2="89.5" y1="29" y2="29" /><line fill="none" stroke="#000000" stroke-width="2" x1="33" x2="96" y1="68" y2="68" /><polyline fill="none" points="9.5,79 29.5,79 29.5,13 8.5,13 8.5,87" stroke="#000000" stroke-width="2" /><polyline fill="none" points="40.5,57 89.5,57 89.5,15 39.5,15 39.5,58" stroke="#000000" stroke-width="2" /><path d="M65,2.5 c-1.641,4.603 -3.601,8.674 -6,12.5" fill="none" stroke="#000000" stroke-width="2" /><path d="M29.5,92 c21.257,-3.709 35,-15.15 35,-25 v-10.0" fill="none" stroke="#000000" stroke-width="2" /><path d="M96,92 c-19.229,-4.181 -31.5,-15.687 -31.5,-25" fill="none" stroke="#000000" stroke-width="2" /><path d="M77,60 c4.042,2.292 8.203,5.077 12,8" fill="none" stroke="#000000" stroke-width="2" /></svg>