<?xml version='1.0' encoding='utf-8'?>
<svg xmlns="http://www.w3.org/2000/svg" height="100px" version="1.0" viewBox="0 0 100 100" width="100px" x="0px" y="0px">
<line fill="none" stroke="#000000" stroke-width="2" x1="38" x2="95" y1="89" y2="89" /><line fill="none" stroke="#000000" stroke-width="2" x1="92" x2="44.5" y1="63" y2="63" /><line fill="none" stroke="#000000" stroke-width="2" x1="66.5" x2="66.5" y1="89" y2="63" /><line fill="none" stroke="#000000" stroke-width="2" x1="33" x2="95" y1="48" y2="48" /><line fill="none" stroke="#000000" stroke-width="2" x1="37.5" x2="90.5" y1="32.5" y2="32.5" /><line fill="none" stroke="#000000" stroke-width="2" x1="34.5" x2="93.5" y1="18" y2="18" /><line fill="none" stroke="#000000" stroke-width="2" x1="64" x2="64" y1="48" y2="18" /><polyline fill="none" points="10,79 29.5,79 29.5,13 9,13 9,87" stroke="#000000" stroke-width="2" /><path d="M53.5,18 c-1.912,-4.979 -3.995,-9.85 -6,-14" fill="none" stroke="#000000" stroke-width="2" /><path d="M73.5,18 c2.266,-4.613 4.422,-9.644 6,-14" fill="none" stroke="#000000" stroke-width="2" /><path d="M26,91 c12.07,-11.585 19.893,-26.832 22,-43" fill="none" stroke="#000000" stroke-width="2" /></svg>