<?xml version='1.0' encoding='utf-8'?>
<svg xmlns="http://www.w3.org/2000/svg" height="100px" version="1.0" viewBox="0 0 100 100" width="100px" x="0px" y="0px">
<line fill="none" stroke="#000000" stroke-width="2" x1="21.5" x2="21.5" y1="41" y2="89.5" /><line fill="none" stroke="#000000" stroke-width="2" x1="34.5" x2="34.5" y1="41" y2="89.5" /><line fill="none" stroke="#000000" stroke-width="2" x1="9.5" x2="47.5" y1="62.5" y2="62.5" /><line fill="none" stroke="#000000" stroke-width="2" x1="84.5" x2="53" y1="27.5" y2="27.5" /><polyline fill="none" points="57.5,81.5 57.5,43.5 80,43.5 80,72.5 58.5,72.5" stroke="#000000" stroke-width="2" /><polyline fill="none" points="10,31 10,11 46,11 46,30 11,30" stroke="#000000" stroke-width="2" /><path d="M38.5,89.75 c2.707,0.201 4.116,0.25 5.5,0.25 c3.164,0 3.5,-0.333 3.5,-4 v-45.0 h-39.0 v50.5" fill="none" stroke="#000000" stroke-width="2" /><path d="M51,11 h40.0 v71.0 c0,7.472 -0.477,8 -6.5,8 c-2.166,0 -6.078,-0.144 -12.5,-0.5" fill="none" stroke="#000000" stroke-width="2" /></svg>