<?xml version='1.0' encoding='utf-8'?>
<svg xmlns="http://www.w3.org/2000/svg" height="100px" version="1.0" viewBox="0 0 100 100" width="100px" x="0px" y="0px">
<line fill="none" stroke="#000000" stroke-width="2" x1="6" x2="94" y1="59.5" y2="59.5" /><line fill="none" stroke="#000000" stroke-width="2" x1="7" x2="93" y1="12.5" y2="12.5" /><line fill="none" stroke="#000000" stroke-width="2" x1="13" x2="87" y1="25.5" y2="25.5" /><line fill="none" stroke="#000000" stroke-width="2" x1="50" x2="50" y1="25.5" y2="3.5" /><line fill="none" stroke="#000000" stroke-width="2" x1="56" x2="86" y1="88" y2="88" /><polyline fill="none" points="20,49 20,34 80,34 80,48 21,48" stroke="#000000" stroke-width="2" /><polyline fill="none" points="86,94 86,68 55,68 55,94" stroke="#000000" stroke-width="2" /><path d="M61,59.5 c3.615,-3.423 6.631,-7.311 9,-11.5" fill="none" stroke="#000000" stroke-width="2" /><path d="M38,59.5 c-2.235,-3.82 -4.989,-7.786 -8,-11.5" fill="none" stroke="#000000" stroke-width="2" /><path d="M7,93 c14.229,-7.703 20,-17.215 20,-33.5" fill="none" stroke="#000000" stroke-width="2" /><path d="M8.5,71 h39.0 c-0.667,19.138 -1.661,20.5 -8.5,20.5 c-3.36,0 -8.539,-0.185 -13,-0.5" fill="none" stroke="#000000" stroke-width="2" /></svg>