<?xml version='1.0' encoding='utf-8'?>
<svg xmlns="http://www.w3.org/2000/svg" height="100px" version="1.0" viewBox="0 0 100 100" width="100px" x="0px" y="0px">
<line fill="none" stroke="#000000" stroke-width="2" x1="66.5" x2="66.5" y1="78.5" y2="29" /><line fill="none" stroke="#000000" stroke-width="2" x1="88.5" x2="44.5" y1="55" y2="55" /><line fill="none" stroke="#000000" stroke-width="2" x1="91.5" x2="37" y1="22" y2="22" /><polyline fill="none" points="10,82 28,82 28,13 9,13 9,90" stroke="#000000" stroke-width="2" /><polyline fill="none" points="43.5,56 43.5,38 89.5,38 89.5,56" stroke="#000000" stroke-width="2" /><path d="M41.5,30 c17.408,0 33.989,-1.374 50,-4" fill="none" stroke="#000000" stroke-width="2" /><path d="M76.5,90.5 c5.594,0.363 9.005,0.5 10.5,0.5 c5.557,0 6,-0.524 6,-6 v-22.5 h-53.0 v30.0" fill="none" stroke="#000000" stroke-width="2" /><path d="M89,84.5 c-2.775,-5.457 -6.668,-12.529 -10,-18" fill="none" stroke="#000000" stroke-width="2" /><path d="M45,80.5 c12.244,-0.636 26.357,-2.617 39,-5.5" fill="none" stroke="#000000" stroke-width="2" /><path d="M26,91 c6.74,-14.092 10,-29.671 10,-51 v-30.5 h56.5 v13.5" fill="none" stroke="#000000" stroke-width="2" /></svg>