<?xml version='1.0' encoding='utf-8'?>
<svg xmlns="http://www.w3.org/2000/svg" height="100px" version="1.0" viewBox="0 0 100 100" width="100px" x="0px" y="0px">
<line fill="none" stroke="#000000" stroke-width="2" x1="7" x2="25" y1="82" y2="82" /><line fill="none" stroke="#000000" stroke-width="2" x1="69.5" x2="93" y1="59" y2="59" /><line fill="none" stroke="#000000" stroke-width="2" x1="70.5" x2="93" y1="33.5" y2="33.5" /><line fill="none" stroke="#000000" stroke-width="2" x1="34.5" x2="60.5" y1="46.5" y2="46.5" /><line fill="none" stroke="#000000" stroke-width="2" x1="29.5" x2="63" y1="76.5" y2="76.5" /><line fill="none" stroke="#000000" stroke-width="2" x1="47.5" x2="47.5" y1="29.5" y2="5.5" /><line fill="none" stroke="#000000" stroke-width="2" x1="47.5" x2="47.5" y1="94.5" y2="64.5" /><line fill="none" stroke="#000000" stroke-width="2" x1="30" x2="65" y1="17.5" y2="17.5" /><polyline fill="none" points="26,83 26,13 7,13 7,90" stroke="#000000" stroke-width="2" /><polyline fill="none" points="34.5,63.5 61.5,63.5 61.5,30.5 33.5,30.5 33.5,64.5" stroke="#000000" stroke-width="2" /><path d="M60.5,92.5 c6.149,-10.866 9,-23.313 9,-46.5 v-36.0 h23.5 v73.0 c0,7.724 -0.25,8 -5,8 c-1.819,0 -5.604,-0.155 -11,-0.5" fill="none" stroke="#000000" stroke-width="2" /></svg>