<?xml version='1.0' encoding='utf-8'?>
<svg xmlns="http://www.w3.org/2000/svg" height="100px" version="1.0" viewBox="0 0 100 100" width="100px" x="0px" y="0px">
<line fill="none" stroke="#000000" stroke-width="2" x1="95" x2="31.5" y1="63.5" y2="63.5" /><line fill="none" stroke="#000000" stroke-width="2" x1="96.5" x2="30" y1="38.5" y2="38.5" /><line fill="none" stroke="#000000" stroke-width="2" x1="40" x2="95" y1="14.5" y2="14.5" /><line fill="none" stroke="#000000" stroke-width="2" x1="40" x2="40" y1="62.5" y2="15" /><line fill="none" stroke="#000000" stroke-width="2" x1="55.5" x2="55.5" y1="62.5" y2="15.5" /><line fill="none" stroke="#000000" stroke-width="2" x1="71.5" x2="71.5" y1="62.5" y2="15.5" /><line fill="none" stroke="#000000" stroke-width="2" x1="87" x2="87" y1="62.5" y2="15.5" /><polyline fill="none" points="8.5,82 26.5,82 26.5,13 7.5,13 7.5,90" stroke="#000000" stroke-width="2" /><path d="M94.5,92 c-3.324,-6.976 -7.255,-14.214 -12,-22" fill="none" stroke="#000000" stroke-width="2" /><path d="M74.75,92.5 c-2.014,-6.867 -4.541,-14.101 -7.75,-22" fill="none" stroke="#000000" stroke-width="2" /><path d="M55,93 c-0.703,-6.759 -1.827,-13.988 -3.5,-22" fill="none" stroke="#000000" stroke-width="2" /><path d="M28,92.5 c4.191,-6.205 8.172,-13.462 12,-22" fill="none" stroke="#000000" stroke-width="2" /><path d="M29.5,32.5 c6.479,-8.269 11.786,-18.753 15,-30" fill="none" stroke="#000000" stroke-width="2" /></svg>