<?xml version='1.0' encoding='utf-8'?>
<svg xmlns="http://www.w3.org/2000/svg" height="100px" version="1.0" viewBox="0 0 100 100" width="100px" x="0px" y="0px">
<line fill="none" stroke="#000000" stroke-width="2" x1="30.5" x2="30.5" y1="91" y2="76" /><line fill="none" stroke="#000000" stroke-width="2" x1="36" x2="36" y1="41.5" y2="68.5" /><line fill="none" stroke="#000000" stroke-width="2" x1="64" x2="64" y1="41.5" y2="68.5" /><line fill="none" stroke="#000000" stroke-width="2" x1="17" x2="83" y1="27.5" y2="27.5" /><line fill="none" stroke="#000000" stroke-width="2" x1="9" x2="91" y1="48.5" y2="48.5" /><line fill="none" stroke="#000000" stroke-width="2" x1="7" x2="93" y1="68.5" y2="68.5" /><line fill="none" stroke="#000000" stroke-width="2" x1="88" x2="12" y1="58.5" y2="58.5" /><line fill="none" stroke="#000000" stroke-width="2" x1="50" x2="50" y1="34.5" y2="3" /><line fill="none" stroke="#000000" stroke-width="2" x1="6" x2="94" y1="10.5" y2="10.5" /><polyline fill="none" points="84,28.5 84,17.5 16,17.5 16,28.5" stroke="#000000" stroke-width="2" /><polyline fill="none" points="92,42.5 92,34.5 8,34.5 8,42.5" stroke="#000000" stroke-width="2" /><path d="M13.5,45 c11.814,-2.188 22.011,-5.181 28,-8" fill="none" stroke="#000000" stroke-width="2" /><path d="M86.5,45 c-7.21,-2.693 -17.177,-5.555 -28,-8" fill="none" stroke="#000000" stroke-width="2" /><path d="M11,93.5 c17.232,-1.83 32.201,-4.218 50,-8" fill="none" stroke="#000000" stroke-width="2" /><path d="M49,68.5 c-9.99,5.346 -24.168,10.103 -44,14" fill="none" stroke="#000000" stroke-width="2" /><path d="M51,68.5 c7.354,10.908 23.111,20.33 44,25" fill="none" stroke="#000000" stroke-width="2" /><path d="M65.5,82 c8.033,-3.048 15.371,-6.66 21.5,-10.5" fill="none" stroke="#000000" stroke-width="2" /></svg>