<?xml version='1.0' encoding='utf-8'?>
<svg xmlns="http://www.w3.org/2000/svg" height="100px" version="1.0" viewBox="0 0 100 100" width="100px" x="0px" y="0px">
<line fill="none" stroke="#000000" stroke-width="2" x1="34" x2="4" y1="33.5" y2="33.5" /><line fill="none" stroke="#000000" stroke-width="2" x1="18.5" x2="18.5" y1="77.5" y2="8" /><line fill="none" stroke="#000000" stroke-width="2" x1="33" x2="93" y1="12" y2="12" /><line fill="none" stroke="#000000" stroke-width="2" x1="92" x2="35" y1="61.5" y2="61.5" /><line fill="none" stroke="#000000" stroke-width="2" x1="96" x2="29.5" y1="88.5" y2="88.5" /><line fill="none" stroke="#000000" stroke-width="2" x1="63.5" x2="63.5" y1="88.5" y2="46" /><path d="M4,83 c9.742,-3.272 19.09,-7.007 30,-12" fill="none" stroke="#000000" stroke-width="2" /><path d="M94.5,49 c-5.25,-8.726 -13.268,-19.695 -20.5,-28" fill="none" stroke="#000000" stroke-width="2" /><path d="M34.5,43.5 c15.562,-1.29 33.703,-3.927 51.5,-7.5" fill="none" stroke="#000000" stroke-width="2" /><path d="M45,42.5 c4.354,-9.094 8.44,-19.003 12.5,-30.5" fill="none" stroke="#000000" stroke-width="2" /></svg>