<?xml version='1.0' encoding='utf-8'?>
<svg xmlns="http://www.w3.org/2000/svg" height="100px" version="1.0" viewBox="0 0 100 100" width="100px" x="0px" y="0px">
<line fill="none" stroke="#000000" stroke-width="2" x1="7" x2="93" y1="90" y2="90" /><line fill="none" stroke="#000000" stroke-width="2" x1="86" x2="14" y1="72" y2="72" /><line fill="none" stroke="#000000" stroke-width="2" x1="50" x2="50" y1="90" y2="64" /><line fill="none" stroke="#000000" stroke-width="2" x1="93.5" x2="39.5" y1="12" y2="12" /><line fill="none" stroke="#000000" stroke-width="2" x1="51" x2="51" y1="61.5" y2="24" /><line fill="none" stroke="#000000" stroke-width="2" x1="51" x2="89.5" y1="48" y2="48" /><line fill="none" stroke="#000000" stroke-width="2" x1="52" x2="89.5" y1="35.5" y2="35.5" /><polyline fill="none" points="37,9.5 10.5,9.5 10.5,65" stroke="#000000" stroke-width="2" /><path d="M15,55 h5.5 c11.78,0 14.5,-2.038 14.5,-8 c0,-6.127 -2.678,-10.14 -14,-17.5 c6.553,-6.816 11.406,-13.227 15.141,-19.511" fill="none" stroke="#000000" stroke-width="2" /><path d="M35.5,36.5 c12.913,-7.768 21.088,-17.554 26.5,-32" fill="none" stroke="#000000" stroke-width="2" /><path d="M51.5,23.5 h38.0 v32.5 c0,4.542 -0.381,5 -7,5 c-2.221,0 -5.76,-0.129 -12,-0.5" fill="none" stroke="#000000" stroke-width="2" /></svg>