<?xml version='1.0' encoding='utf-8'?>
<svg xmlns="http://www.w3.org/2000/svg" height="100px" version="1.0" viewBox="0 0 100 100" width="100px" x="0px" y="0px">
<line fill="none" stroke="#000000" stroke-width="2" x1="4.5" x2="32" y1="32.5" y2="32.5" /><line fill="none" stroke="#000000" stroke-width="2" x1="18.5" x2="18.5" y1="76.5" y2="8" /><line fill="none" stroke="#000000" stroke-width="2" x1="38" x2="95.5" y1="68" y2="68" /><line fill="none" stroke="#000000" stroke-width="2" x1="39.5" x2="95" y1="45.5" y2="45.5" /><line fill="none" stroke="#000000" stroke-width="2" x1="81" x2="81" y1="93.5" y2="45.5" /><path d="M4.5,82.5 c9.91,-3.637 18.404,-7.762 29,-14" fill="none" stroke="#000000" stroke-width="2" /><path d="M27,91 c6.048,-14.052 9,-29.832 9,-51 v-30.0 h56.5 v17.5 H37.0" fill="none" stroke="#000000" stroke-width="2" /><path d="M57,42.5 c-2.541,-4.259 -5.225,-8.078 -8,-11.5" fill="none" stroke="#000000" stroke-width="2" /><path d="M76.5,45.5 c3.035,-4.794 5.886,-9.968 8,-14.5" fill="none" stroke="#000000" stroke-width="2" /><path d="M40.5,93.5 c11.311,-8.216 14,-14.411 14,-36 v-12.0" fill="none" stroke="#000000" stroke-width="2" /></svg>