<?xml version='1.0' encoding='utf-8'?>
<svg xmlns="http://www.w3.org/2000/svg" height="100px" version="1.0" viewBox="0 0 100 100" width="100px" x="0px" y="0px">
<line fill="none" stroke="#000000" stroke-width="2" x1="6" x2="49.5" y1="20" y2="20" /><line fill="none" stroke="#000000" stroke-width="2" x1="10.5" x2="10.5" y1="26" y2="53.5" /><line fill="none" stroke="#000000" stroke-width="2" x1="45.5" x2="45.5" y1="51" y2="26" /><line fill="none" stroke="#000000" stroke-width="2" x1="10.5" x2="45.5" y1="46" y2="46" /><line fill="none" stroke="#000000" stroke-width="2" x1="57.5" x2="89.5" y1="42" y2="42" /><line fill="none" stroke="#000000" stroke-width="2" x1="59.5" x2="89.5" y1="26" y2="26" /><line fill="none" stroke="#000000" stroke-width="2" x1="7" x2="93" y1="90" y2="90" /><line fill="none" stroke="#000000" stroke-width="2" x1="86" x2="14" y1="71.5" y2="71.5" /><line fill="none" stroke="#000000" stroke-width="2" x1="50" x2="50" y1="90" y2="63.5" /><line fill="none" stroke="#000000" stroke-width="2" x1="28" x2="28" y1="46" y2="20" /><path d="M22,17.5 c-2.701,-3.944 -5.645,-7.723 -8.5,-11" fill="none" stroke="#000000" stroke-width="2" /><path d="M33.5,20 c3.211,-4.6 6.27,-9.655 8.5,-14" fill="none" stroke="#000000" stroke-width="2" /><path d="M47.5,61 c7.186,-6.287 11,-15.774 11,-29 v-21.5 h31.0 v45.0 c0,4.25 -0.292,4.5 -6,4.5 c-2.166,0 -6.576,-0.155 -13,-0.5" fill="none" stroke="#000000" stroke-width="2" /><path d="M9.5,69 c11.623,-3.857 18.5,-12.138 18.5,-23" fill="none" stroke="#000000" stroke-width="2" /></svg>