<?xml version='1.0' encoding='utf-8'?>
<svg xmlns="http://www.w3.org/2000/svg" height="100px" version="1.0" viewBox="0 0 100 100" width="100px" x="0px" y="0px">
<line fill="none" stroke="#000000" stroke-width="2" x1="4" x2="30" y1="31" y2="31" /><line fill="none" stroke="#000000" stroke-width="2" x1="17" x2="17" y1="76" y2="8" /><line fill="none" stroke="#000000" stroke-width="2" x1="46.5" x2="88.5" y1="44" y2="44" /><line fill="none" stroke="#000000" stroke-width="2" x1="46.5" x2="88.5" y1="55.5" y2="55.5" /><polyline fill="none" points="46.5,67 88.5,67 88.5,32.5 45.5,32.5 45.5,68" stroke="#000000" stroke-width="2" /><polyline fill="none" points="34.5,33 34.5,75.5 96,75.5" stroke="#000000" stroke-width="2" /><path d="M23.5,92 c12.009,-3.282 22.38,-7.81 28.5,-12" fill="none" stroke="#000000" stroke-width="2" /><path d="M95.5,93 c-7.353,-4.188 -17.48,-8.727 -28.5,-12.5" fill="none" stroke="#000000" stroke-width="2" /><path d="M4,82 c9.207,-3.685 17.135,-7.762 27,-14" fill="none" stroke="#000000" stroke-width="2" /><path d="M36.5,6 v14.0 c0,3.136 1.01,4 24,4 c30.415,0 30.469,-0.034 31.5,-9.5" fill="none" stroke="#000000" stroke-width="2" /><path d="M36.5,15 c18.557,-1.435 35.562,-3.474 54.5,-6.5" fill="none" stroke="#000000" stroke-width="2" /></svg>