<?xml version='1.0' encoding='utf-8'?>
<svg xmlns="http://www.w3.org/2000/svg" height="100px" version="1.0" viewBox="0 0 100 100" width="100px" x="0px" y="0px">
<line fill="none" stroke="#000000" stroke-width="2" x1="7" x2="93" y1="90" y2="90" /><line fill="none" stroke="#000000" stroke-width="2" x1="86" x2="14" y1="72" y2="72" /><line fill="none" stroke="#000000" stroke-width="2" x1="50" x2="50" y1="90" y2="62.5" /><line fill="none" stroke="#000000" stroke-width="2" x1="37" x2="93.5" y1="15" y2="15" /><polyline fill="none" points="35.5,9.5 10.5,9.5 10.5,65" stroke="#000000" stroke-width="2" /><path d="M15,55 h4.0 c11.78,0 14.5,-2.038 14.5,-8 c0,-6.127 -2.678,-10.14 -14,-17.5 c6.553,-6.816 11.406,-13.227 15.141,-19.511" fill="none" stroke="#000000" stroke-width="2" /><path d="M73,15 c3.174,-3.074 5.893,-6.603 8,-10.5" fill="none" stroke="#000000" stroke-width="2" /><path d="M59,15 c-2.037,-3.528 -4.375,-7.017 -7,-10.5" fill="none" stroke="#000000" stroke-width="2" /><path d="M35,31.5 c14.816,-4.626 24.576,-9.995 31.5,-16.5" fill="none" stroke="#000000" stroke-width="2" /><path d="M54.5,61 c4.398,0.315 9.141,0.5 11.5,0.5 c4.28,0 5.5,-1.548 5.5,-12.5 c0,-11.354 -4.744,-22.485 -12,-28.5" fill="none" stroke="#000000" stroke-width="2" /><path d="M36.5,45 c13.615,-4.128 23.653,-9.784 30,-16" fill="none" stroke="#000000" stroke-width="2" /><path d="M36,59.5 c16.15,-5.378 27.31,-12.047 34.5,-19.5" fill="none" stroke="#000000" stroke-width="2" /><path d="M91.5,22.5 c-4.643,5.397 -10.339,10.215 -16,13.5" fill="none" stroke="#000000" stroke-width="2" /><path d="M68,15 c3.658,18.069 14.426,35.386 26.5,44.5" fill="none" stroke="#000000" stroke-width="2" /></svg>