<?xml version='1.0' encoding='utf-8'?>
<svg xmlns="http://www.w3.org/2000/svg" height="100px" version="1.0" viewBox="0 0 100 100" width="100px" x="0px" y="0px">
<line fill="none" stroke="#000000" stroke-width="2" x1="4" x2="29.83" y1="31.5" y2="31.5" /><line fill="none" stroke="#000000" stroke-width="2" x1="17.5" x2="17.5" y1="79" y2="8" /><line fill="none" stroke="#000000" stroke-width="2" x1="27.5" x2="95.5" y1="12" y2="12" /><line fill="none" stroke="#000000" stroke-width="2" x1="62" x2="62" y1="12" y2="3.5" /><line fill="none" stroke="#000000" stroke-width="2" x1="27" x2="96" y1="90" y2="90" /><line fill="none" stroke="#000000" stroke-width="2" x1="38" x2="87" y1="68" y2="68" /><polyline fill="none" points="33.5,47.5 33.5,20 90.5,20 90.5,46.5 34.5,46.5" stroke="#000000" stroke-width="2" /><polyline fill="none" points="44.5,39.5 44.5,28 79.5,28 79.5,38.5 45.5,38.5" stroke="#000000" stroke-width="2" /><polyline fill="none" points="38,81 87,81 87,55 37,55 37,82" stroke="#000000" stroke-width="2" /><path d="M4,85 c9.556,-3.671 17.77,-7.762 28,-14" fill="none" stroke="#000000" stroke-width="2" /></svg>