<?xml version='1.0' encoding='utf-8'?>
<svg xmlns="http://www.w3.org/2000/svg" height="100px" version="1.0" viewBox="0 0 100 100" width="100px" x="0px" y="0px">
<line fill="none" stroke="#000000" stroke-width="2" x1="31.5" x2="96" y1="40" y2="40" /><line fill="none" stroke="#000000" stroke-width="2" x1="80.5" x2="39" y1="17.5" y2="17.5" /><line fill="none" stroke="#000000" stroke-width="2" x1="61" x2="61" y1="40" y2="4.5" /><path d="M4.5,94 c16.564,-13.677 28,-40.016 28,-70 H4.0" fill="none" stroke="#000000" stroke-width="2" /><path d="M20,5 c-2.479,22.511 -6.868,41.968 -12.5,57.5" fill="none" stroke="#000000" stroke-width="2" /><path d="M10,55 c8.402,6.791 14.943,14.458 23.5,28" fill="none" stroke="#000000" stroke-width="2" /><path d="M31.5,64 c26.445,-12.612 47.795,-32.503 60,-55" fill="none" stroke="#000000" stroke-width="2" /><path d="M45,48.5 v34.5 c0,8.281 0.284,8.5 20.5,8.5 c23.987,0 24.224,-0.227 25.5,-19.5" fill="none" stroke="#000000" stroke-width="2" /><path d="M45,70.5 c15.162,-3.794 29.512,-9.238 45,-17" fill="none" stroke="#000000" stroke-width="2" /></svg>