<?xml version='1.0' encoding='utf-8'?>
<svg xmlns="http://www.w3.org/2000/svg" height="100px" version="1.0" viewBox="0 0 100 100" width="100px" x="0px" y="0px">
<line fill="none" stroke="#000000" stroke-width="2" x1="35" x2="93" y1="12" y2="12" /><line fill="none" stroke="#000000" stroke-width="2" x1="92" x2="37" y1="61.5" y2="61.5" /><line fill="none" stroke="#000000" stroke-width="2" x1="96" x2="31.5" y1="88.5" y2="88.5" /><line fill="none" stroke="#000000" stroke-width="2" x1="64.5" x2="64.5" y1="88.5" y2="46" /><path d="M4.5,94 c18.932,-13.677 32,-41.349 32,-70 h-32.0" fill="none" stroke="#000000" stroke-width="2" /><path d="M22.5,5 c-2.859,22.511 -7.689,41.909 -14,57.5" fill="none" stroke="#000000" stroke-width="2" /><path d="M11,55 c9.428,6.397 17.021,14 26.5,27" fill="none" stroke="#000000" stroke-width="2" /><path d="M94.5,49 c-4.482,-8.726 -11.326,-19.695 -17.5,-28" fill="none" stroke="#000000" stroke-width="2" /><path d="M37.5,43.5 c14.957,-1.29 32.395,-3.927 49.5,-7.5" fill="none" stroke="#000000" stroke-width="2" /><path d="M46,42.5 c4.354,-9.094 8.44,-19.003 12.5,-30.5" fill="none" stroke="#000000" stroke-width="2" /></svg>