<?xml version='1.0' encoding='utf-8'?>
<svg xmlns="http://www.w3.org/2000/svg" height="100px" version="1.0" viewBox="0 0 100 100" width="100px" x="0px" y="0px">
<line fill="none" stroke="#000000" stroke-width="2" x1="38.5" x2="38.5" y1="10.5" y2="84" /><line fill="none" stroke="#000000" stroke-width="2" x1="62" x2="62" y1="95" y2="10.5" /><line fill="none" stroke="#000000" stroke-width="2" x1="96.5" x2="30.5" y1="10.5" y2="10.5" /><line fill="none" stroke="#000000" stroke-width="2" x1="39.5" x2="62" y1="58" y2="58" /><line fill="none" stroke="#000000" stroke-width="2" x1="39.5" x2="62" y1="33.5" y2="33.5" /><line fill="none" stroke="#000000" stroke-width="2" x1="62" x2="95" y1="25.5" y2="25.5" /><path d="M4,94 c15.284,-13.426 26.5,-39.927 26.5,-70 H4.0" fill="none" stroke="#000000" stroke-width="2" /><path d="M19,5 c-2.479,22.511 -6.868,41.968 -12.5,57.5" fill="none" stroke="#000000" stroke-width="2" /><path d="M9,55 c8.76,6.185 15.579,13.167 24.5,25.5" fill="none" stroke="#000000" stroke-width="2" /><path d="M32.5,85 c9.222,-1.308 19.58,-3.407 29.5,-6" fill="none" stroke="#000000" stroke-width="2" /><path d="M66.5,93 c12.918,-11.993 22.899,-33.815 27.51,-66.64" fill="none" stroke="#000000" stroke-width="2" /><path d="M96,93 c-13.527,-12.81 -22.543,-32.31 -26.5,-62.5" fill="none" stroke="#000000" stroke-width="2" /></svg>