<?xml version='1.0' encoding='utf-8'?>
<svg xmlns="http://www.w3.org/2000/svg" height="100px" version="1.0" viewBox="0 0 100 100" width="100px" x="0px" y="0px">
<line fill="none" stroke="#000000" stroke-width="2" x1="69" x2="69" y1="15" y2="4" /><line fill="none" stroke="#000000" stroke-width="2" x1="92" x2="57.5" y1="30" y2="30" /><line fill="none" stroke="#000000" stroke-width="2" x1="94.5" x2="49" y1="54.5" y2="54.5" /><path d="M3.5,94 c16.564,-13.677 28,-40.016 28,-70 h-28.0" fill="none" stroke="#000000" stroke-width="2" /><path d="M19.5,5 c-2.479,22.511 -6.868,41.968 -12.5,57.5" fill="none" stroke="#000000" stroke-width="2" /><path d="M9.5,55 c8.402,6.791 14.943,14.458 23.5,28" fill="none" stroke="#000000" stroke-width="2" /><path d="M30,68 c5.959,-3.015 10.943,-6.519 14.5,-10" fill="none" stroke="#000000" stroke-width="2" /><path d="M43.5,41 c-2.088,-5.799 -4.797,-12.25 -8,-19" fill="none" stroke="#000000" stroke-width="2" /><path d="M49,49 c4.874,-8.402 9.049,-19.329 11.5,-30.5" fill="none" stroke="#000000" stroke-width="2" /><path d="M46,92 c15.544,-7.392 26.5,-24.483 26.5,-42 v-20.0" fill="none" stroke="#000000" stroke-width="2" /><path d="M94.5,92 c-13.016,-8.572 -22,-25.321 -22,-42" fill="none" stroke="#000000" stroke-width="2" /><path d="M32.5,92 c8.727,-9.241 12.5,-20.743 12.5,-47 v-30.0 h49.5" fill="none" stroke="#000000" stroke-width="2" /></svg>