<?xml version='1.0' encoding='utf-8'?>
<svg xmlns="http://www.w3.org/2000/svg" height="100px" version="1.0" viewBox="0 0 100 100" width="100px" x="0px" y="0px">
<line fill="none" stroke="#000000" stroke-width="2" x1="43" x2="91" y1="65" y2="65" /><line fill="none" stroke="#000000" stroke-width="2" x1="43" x2="91" y1="54.5" y2="54.5" /><line fill="none" stroke="#000000" stroke-width="2" x1="41.5" x2="89" y1="22.5" y2="22.5" /><line fill="none" stroke="#000000" stroke-width="2" x1="65" x2="65" y1="12" y2="3" /><line fill="none" stroke="#000000" stroke-width="2" x1="65" x2="65" y1="39" y2="22.5" /><polyline fill="none" points="42,45 42,75.5 91,75.5 91,44 47.5,44" stroke="#000000" stroke-width="2" /><polyline fill="none" points="93.5,29 93.5,12 37,12 37,29" stroke="#000000" stroke-width="2" /><path d="M4,94 c16.564,-13.677 28,-40.016 28,-70 h-28.0" fill="none" stroke="#000000" stroke-width="2" /><path d="M20,5 c-2.479,22.511 -6.868,41.968 -12.5,57.5" fill="none" stroke="#000000" stroke-width="2" /><path d="M10,55 c8.402,6.791 14.943,14.458 23.5,28" fill="none" stroke="#000000" stroke-width="2" /><path d="M33,92.5 c10.338,-3.419 19.229,-8.134 24.5,-12.5" fill="none" stroke="#000000" stroke-width="2" /><path d="M95,93 c-6.315,-4.196 -15.01,-8.728 -24.5,-12.5" fill="none" stroke="#000000" stroke-width="2" /><path d="M36,38 c7.924,-2.892 14.58,-7.011 18.5,-11" fill="none" stroke="#000000" stroke-width="2" /><path d="M89,27 c-11.682,8.211 -28.986,14.978 -55.5,20" fill="none" stroke="#000000" stroke-width="2" /></svg>