<?xml version='1.0' encoding='utf-8'?>
<svg xmlns="http://www.w3.org/2000/svg" height="100px" version="1.0" viewBox="0 0 100 100" width="100px" x="0px" y="0px">
<line fill="none" stroke="#000000" stroke-width="2" x1="65.5" x2="65.5" y1="46.5" y2="10" /><line fill="none" stroke="#000000" stroke-width="2" x1="38" x2="93" y1="10" y2="10" /><line fill="none" stroke="#000000" stroke-width="2" x1="43" x2="59" y1="30" y2="30" /><line fill="none" stroke="#000000" stroke-width="2" x1="43" x2="59" y1="40.5" y2="40.5" /><line fill="none" stroke="#000000" stroke-width="2" x1="72" x2="88" y1="30" y2="30" /><line fill="none" stroke="#000000" stroke-width="2" x1="72" x2="88" y1="40.5" y2="40.5" /><line fill="none" stroke="#000000" stroke-width="2" x1="95.5" x2="35.5" y1="50.5" y2="50.5" /><line fill="none" stroke="#000000" stroke-width="2" x1="56.5" x2="56.5" y1="61.5" y2="90.5" /><line fill="none" stroke="#000000" stroke-width="2" x1="74.5" x2="74.5" y1="61.5" y2="90.5" /><polyline fill="none" points="94,40.5 94,21 37,21 37,40.5" stroke="#000000" stroke-width="2" /><path d="M4,94 c16.564,-13.677 28,-40.016 28,-70 h-28.0" fill="none" stroke="#000000" stroke-width="2" /><path d="M20,5 c-2.479,22.511 -6.868,41.968 -12.5,57.5" fill="none" stroke="#000000" stroke-width="2" /><path d="M10,55 c8.402,6.791 14.943,14.458 23.5,28" fill="none" stroke="#000000" stroke-width="2" /><path d="M80,90.5 c4.289,0.366 7.348,0.5 8.5,0.5 c3.65,0 4,-0.396 4,-6 V61.5 h-54.0 v31.0" fill="none" stroke="#000000" stroke-width="2" /><path d="M66,50.5 c-1.285,4.079 -2.926,7.679 -5,11" fill="none" stroke="#000000" stroke-width="2" /></svg>