<?xml version='1.0' encoding='utf-8'?>
<svg xmlns="http://www.w3.org/2000/svg" height="100px" version="1.0" viewBox="0 0 100 100" width="100px" x="0px" y="0px">
<line fill="none" stroke="#000000" stroke-width="2" x1="3.5" x2="30.5" y1="52.5" y2="44.5" /><line fill="none" stroke="#000000" stroke-width="2" x1="30" x2="4" y1="11" y2="11" /><line fill="none" stroke="#000000" stroke-width="2" x1="62.5" x2="62.5" y1="46.5" y2="10" /><line fill="none" stroke="#000000" stroke-width="2" x1="33" x2="92" y1="10" y2="10" /><line fill="none" stroke="#000000" stroke-width="2" x1="38" x2="55.5" y1="30" y2="30" /><line fill="none" stroke="#000000" stroke-width="2" x1="38" x2="55.5" y1="40.5" y2="40.5" /><line fill="none" stroke="#000000" stroke-width="2" x1="69.5" x2="87" y1="30" y2="30" /><line fill="none" stroke="#000000" stroke-width="2" x1="69.5" x2="87" y1="40.5" y2="40.5" /><line fill="none" stroke="#000000" stroke-width="2" x1="95" x2="30" y1="50.5" y2="50.5" /><line fill="none" stroke="#000000" stroke-width="2" x1="53" x2="53" y1="61.5" y2="90.5" /><line fill="none" stroke="#000000" stroke-width="2" x1="72" x2="72" y1="61.5" y2="90.5" /><polyline fill="none" points="93.5,40.5 93.5,21 31.5,21 31.5,40.5" stroke="#000000" stroke-width="2" /><path d="M17,30 v52.5 c0,7.552 -0.416,8 -4.5,8 c-2.109,0 -4.895,-0.134 -8.5,-0.5" fill="none" stroke="#000000" stroke-width="2" /><path d="M29.091,11.586 C25.467,19.55 21.748,25.644 17,31.5" fill="none" stroke="#000000" stroke-width="2" /><path d="M77.5,90.5 c4.839,0.366 7.848,0.5 9,0.5 c4.15,0 4.5,-0.396 4.5,-6 V61.5 h-57.0 v31.0" fill="none" stroke="#000000" stroke-width="2" /><path d="M63,50.5 c-1.285,4.079 -2.926,7.679 -5,11" fill="none" stroke="#000000" stroke-width="2" /></svg>