<?xml version='1.0' encoding='utf-8'?>
<svg xmlns="http://www.w3.org/2000/svg" height="100px" version="1.0" viewBox="0 0 100 100" width="100px" x="0px" y="0px">
<line fill="none" stroke="#000000" stroke-width="2" x1="50" x2="50" y1="14" y2="3.5" /><line fill="none" stroke="#000000" stroke-width="2" x1="18.5" x2="82.5" y1="72.5" y2="72.5" /><line fill="none" stroke="#000000" stroke-width="2" x1="18.5" x2="82.5" y1="57" y2="57" /><line fill="none" stroke="#000000" stroke-width="2" x1="50" x2="50" y1="41.5" y2="18" /><polyline fill="none" points="90.5,33 90.5,14 9.5,14 9.5,34" stroke="#000000" stroke-width="2" /><path d="M17.5,92 v-50.5 h65.0 v44.46 c0,4.177 -0.335,4.54 -8,4.54 c-2.518,0 -6.712,-0.159 -14,-0.5" fill="none" stroke="#000000" stroke-width="2" /><path d="M33.5,36.5 c-4.461,-6.046 -9.322,-11.961 -14,-17" fill="none" stroke="#000000" stroke-width="2" /><path d="M66.5,36.5 c5.287,-5.602 10.318,-11.71 14,-17" fill="none" stroke="#000000" stroke-width="2" /></svg>