<?xml version='1.0' encoding='utf-8'?>
<svg xmlns="http://www.w3.org/2000/svg" height="100px" version="1.0" viewBox="0 0 100 100" width="100px" x="0px" y="0px">
<line fill="none" stroke="#000000" stroke-width="2" x1="25.5" x2="86.5" y1="60.5" y2="60.5" /><line fill="none" stroke="#000000" stroke-width="2" x1="25.5" x2="86.5" y1="75" y2="75" /><line fill="none" stroke="#000000" stroke-width="2" x1="55.5" x2="55.5" y1="47" y2="26" /><path d="M6,91 c6.048,-14.052 9,-29.832 9,-51 v-30.5 h73.5 v13.5 H15.0" fill="none" stroke="#000000" stroke-width="2" /><path d="M24.5,92.5 V47.0 h62.0 v37.5 c0,6.117 -0.385,6.5 -6,6.5 c-2.639,0 -7.463,-0.159 -16,-0.5" fill="none" stroke="#000000" stroke-width="2" /><path d="M39,42.5 c-3.919,-5.335 -8.037,-10.501 -12,-15" fill="none" stroke="#000000" stroke-width="2" /><path d="M71.5,42.5 c4.511,-4.993 8.766,-10.331 12,-15" fill="none" stroke="#000000" stroke-width="2" /></svg>