<?xml version='1.0' encoding='utf-8'?>
<svg xmlns="http://www.w3.org/2000/svg" height="100px" version="1.0" viewBox="0 0 100 100" width="100px" x="0px" y="0px">
<line fill="none" stroke="#000000" stroke-width="2" x1="7.5" x2="7.5" y1="20" y2="92" /><line fill="none" stroke="#000000" stroke-width="2" x1="19.5" x2="19.5" y1="84" y2="6.5" /><line fill="none" stroke="#000000" stroke-width="2" x1="85.5" x2="47.5" y1="28" y2="28" /><line fill="none" stroke="#000000" stroke-width="2" x1="58" x2="58" y1="41" y2="91" /><line fill="none" stroke="#000000" stroke-width="2" x1="75" x2="75" y1="41" y2="91" /><line fill="none" stroke="#000000" stroke-width="2" x1="42" x2="92" y1="63.5" y2="63.5" /><polyline fill="none" points="8.5,84 31.5,84 31.5,20" stroke="#000000" stroke-width="2" /><path d="M97,33 c-11.437,-8.155 -21.094,-16.672 -30.5,-26.8 c-9.408,10.128 -19.063,18.645 -30.5,26.8" fill="none" stroke="#000000" stroke-width="2" /><path d="M80.5,90.5 c4.006,0.345 6.93,0.5 8,0.5 c3,0 3.5,-0.672 3.5,-8 v-42.0 h-51.0 v52.0" fill="none" stroke="#000000" stroke-width="2" /></svg>