<?xml version='1.0' encoding='utf-8'?>
<svg xmlns="http://www.w3.org/2000/svg" height="100px" version="1.0" viewBox="0 0 100 100" width="100px" x="0px" y="0px">
<line fill="none" stroke="#000000" stroke-width="2" x1="7.5" x2="7.5" y1="20" y2="92" /><line fill="none" stroke="#000000" stroke-width="2" x1="19.5" x2="19.5" y1="84" y2="6.5" /><line fill="none" stroke="#000000" stroke-width="2" x1="95.5" x2="35" y1="30.5" y2="30.5" /><line fill="none" stroke="#000000" stroke-width="2" x1="92.5" x2="38.5" y1="14.5" y2="14.5" /><line fill="none" stroke="#000000" stroke-width="2" x1="64.5" x2="64.5" y1="30.5" y2="4" /><line fill="none" stroke="#000000" stroke-width="2" x1="48" x2="90.5" y1="58" y2="58" /><polyline fill="none" points="8.5,84 31.5,84 31.5,20" stroke="#000000" stroke-width="2" /><path d="M34.5,52 c14.466,-3.82 22.691,-11.853 23.5,-21.5" fill="none" stroke="#000000" stroke-width="2" /><path d="M72,30.5 v14.5 c0,3.856 0.191,4 10,4 c11.199,0 11.424,-0.219 12.5,-11.5" fill="none" stroke="#000000" stroke-width="2" /><path d="M31.5,71.5 c9.887,-5.596 20.524,-16.269 24,-23.5" fill="none" stroke="#000000" stroke-width="2" /><path d="M89.668,58.443 c-10.537,15.749 -32.485,28.702 -61.168,33.557" fill="none" stroke="#000000" stroke-width="2" /><path d="M96.5,92 c-21.053,-6.612 -39.449,-18.635 -50,-32" fill="none" stroke="#000000" stroke-width="2" /></svg>