<?xml version='1.0' encoding='utf-8'?>
<svg xmlns="http://www.w3.org/2000/svg" height="100px" version="1.0" viewBox="0 0 100 100" width="100px" x="0px" y="0px">
<line fill="none" stroke="#000000" stroke-width="2" x1="50" x2="50" y1="20.5" y2="4.5" /><line fill="none" stroke="#000000" stroke-width="2" x1="49" x2="49" y1="87.5" y2="39.5" /><polyline fill="none" points="13.5,7.5 13.5,20.5 86.5,20.5 86.5,7.5" stroke="#000000" stroke-width="2" /><polyline fill="none" points="28,69.5 71,69.5 71,51 27,51 27,75" stroke="#000000" stroke-width="2" /><path d="M4.5,93 c6.711,-7.81 10.5,-19.89 10.5,-39 v-24.0 h68.0 c0,49.104 4.436,62.5 8,62.5 c1.766,0 3.627,-3.679 5,-20.5" fill="none" stroke="#000000" stroke-width="2" /><path d="M82,93 c-4.363,-6.06 -10.373,-13.872 -15.5,-20" fill="none" stroke="#000000" stroke-width="2" /><path d="M18,89.5 c16.319,-0.577 38.821,-2.683 57.5,-5.5" fill="none" stroke="#000000" stroke-width="2" /><path d="M22.5,41 c15.723,-0.428 35.159,-1.939 53,-4" fill="none" stroke="#000000" stroke-width="2" /></svg>