<?xml version='1.0' encoding='utf-8'?>
<svg xmlns="http://www.w3.org/2000/svg" height="100px" version="1.0" viewBox="0 0 100 100" width="100px" x="0px" y="0px">
<line fill="none" stroke="#000000" stroke-width="2" x1="44.5" x2="96" y1="29" y2="29" /><line fill="none" stroke="#000000" stroke-width="2" x1="50.5" x2="91" y1="65.5" y2="65.5" /><line fill="none" stroke="#000000" stroke-width="2" x1="50.5" x2="91" y1="53" y2="53" /><line fill="none" stroke="#000000" stroke-width="2" x1="39.5" x2="11.5" y1="46" y2="46" /><line fill="none" stroke="#000000" stroke-width="2" x1="19.5" x2="19.5" y1="94.5" y2="58" /><line fill="none" stroke="#000000" stroke-width="2" x1="50" x2="50" y1="20.5" y2="4.5" /><polyline fill="none" points="50.5,78 91,78 91,40.5 49.5,40.5 49.5,79" stroke="#000000" stroke-width="2" /><polyline fill="none" points="12,7.5 12,20.5 88,20.5 88,7.5" stroke="#000000" stroke-width="2" /><path d="M40.5,93.5 c8.851,-3.021 16.448,-7.17 21,-11" fill="none" stroke="#000000" stroke-width="2" /><path d="M95.5,94 c-5.425,-3.872 -12.849,-8.017 -21,-11.5" fill="none" stroke="#000000" stroke-width="2" /><path d="M69.5,29 c-1,4.372 -2.115,7.923 -3.5,11.5" fill="none" stroke="#000000" stroke-width="2" /><path d="M45,47.5 c-7.803,-7.43 -13.469,-13.599 -20.5,-22.5 c-6.325,9.62 -13.34,17.915 -21.5,25.5" fill="none" stroke="#000000" stroke-width="2" /><path d="M4,58 h37.0 v20.0 c0,5.984 -0.4,6.5 -4,6.5 c-1.15,0 -6.033,-0.222 -10,-0.5" fill="none" stroke="#000000" stroke-width="2" /></svg>