<?xml version='1.0' encoding='utf-8'?>
<svg xmlns="http://www.w3.org/2000/svg" height="100px" version="1.0" viewBox="0 0 100 100" width="100px" x="0px" y="0px">
<line fill="none" stroke="#000000" stroke-width="2" x1="18" x2="18" y1="94" y2="6" /><line fill="none" stroke="#000000" stroke-width="2" x1="33.5" x2="96.5" y1="35" y2="35" /><line fill="none" stroke="#000000" stroke-width="2" x1="64.5" x2="64.5" y1="56" y2="11.5" /><line fill="none" stroke="#000000" stroke-width="2" x1="39.5" x2="39.5" y1="55" y2="93.5" /><line fill="none" stroke="#000000" stroke-width="2" x1="64.5" x2="64.5" y1="86.5" y2="57" /><line fill="none" stroke="#000000" stroke-width="2" x1="39.5" x2="89.5" y1="87.5" y2="87.5" /><line fill="none" stroke="#000000" stroke-width="2" x1="40.5" x2="89.5" y1="71.5" y2="71.5" /><polyline fill="none" points="89.5,93.5 89.5,56 40.5,56" stroke="#000000" stroke-width="2" /><path d="M22,75 h3.0 c4.664,0 5,-0.355 5,-7 v-46.0 h-24.0 v55.0" fill="none" stroke="#000000" stroke-width="2" /><path d="M52,31 c-3.102,-5.021 -6.604,-10.134 -10,-14.5" fill="none" stroke="#000000" stroke-width="2" /><path d="M77,31 c4.106,-5.511 7.746,-11.534 10,-16.5" fill="none" stroke="#000000" stroke-width="2" /><path d="M35.5,12.5 c19.792,0 38.861,-1.53 57,-4.5" fill="none" stroke="#000000" stroke-width="2" /><path d="M97,58 c-15.424,-7.622 -25.001,-14.878 -31.5,-23" fill="none" stroke="#000000" stroke-width="2" /><path d="M32,58 c15.424,-7.622 25.001,-14.878 31.5,-23" fill="none" stroke="#000000" stroke-width="2" /></svg>