<?xml version='1.0' encoding='utf-8'?>
<svg xmlns="http://www.w3.org/2000/svg" height="100px" version="1.0" viewBox="0 0 100 100" width="100px" x="0px" y="0px">
<line fill="none" stroke="#000000" stroke-width="2" x1="50" x2="50" y1="94.5" y2="54.5" /><line fill="none" stroke="#000000" stroke-width="2" x1="62.5" x2="94" y1="13" y2="13" /><line fill="none" stroke="#000000" stroke-width="2" x1="30.5" x2="30.5" y1="52" y2="4" /><path d="M65,87.5 c8.055,0.381 11.848,0.5 14,0.5 c5.308,0 6,-0.672 6,-8 V61.0 h-70.0 v29.0" fill="none" stroke="#000000" stroke-width="2" /><path d="M53.5,52 c22.213,-8.418 30.543,-17.75 34,-39" fill="none" stroke="#000000" stroke-width="2" /><path d="M53.5,28.5 c5.163,-6.665 9.562,-15.61 12,-24.5" fill="none" stroke="#000000" stroke-width="2" /><path d="M95.5,52.5 c-20.689,-8.084 -28.967,-18.256 -31,-35.5" fill="none" stroke="#000000" stroke-width="2" /><path d="M37.5,51 c4.017,0.375 6.424,0.5 7.5,0.5 c4.531,0 5,-0.444 5,-5.5 v-26.0 h-39.0 V53.0" fill="none" stroke="#000000" stroke-width="2" /><path d="M21,16.5 c-2.863,-3.937 -6.191,-7.795 -9.5,-11" fill="none" stroke="#000000" stroke-width="2" /><path d="M40,16.5 c3.852,-3.571 7.352,-7.85 9.5,-11.5" fill="none" stroke="#000000" stroke-width="2" /><path d="M16,44.5 c3.267,-5.117 6.034,-12.012 7.5,-19" fill="none" stroke="#000000" stroke-width="2" /><path d="M45,43.5 c-2.073,-5.803 -5.197,-12.49 -8.5,-18" fill="none" stroke="#000000" stroke-width="2" /></svg>