<?xml version='1.0' encoding='utf-8'?>
<svg xmlns="http://www.w3.org/2000/svg" height="100px" version="1.0" viewBox="0 0 100 100" width="100px" x="0px" y="0px">
<line fill="none" stroke="#000000" stroke-width="2" x1="9" x2="9" y1="10.5" y2="93.5" /><line fill="none" stroke="#000000" stroke-width="2" x1="50" x2="50" y1="6.5" y2="86.5" /><line fill="none" stroke="#000000" stroke-width="2" x1="91" x2="91" y1="93.5" y2="10.5" /><line fill="none" stroke="#000000" stroke-width="2" x1="9" x2="91" y1="86.5" y2="86.5" /><line fill="none" stroke="#000000" stroke-width="2" x1="44" x2="13.5" y1="72" y2="75.5" /><line fill="none" stroke="#000000" stroke-width="2" x1="85" x2="54.5" y1="72" y2="75.5" /><path d="M29,54.5 c-4.707,-7.771 -10.178,-16.226 -15.5,-24" fill="none" stroke="#000000" stroke-width="2" /><path d="M46,79.5 c-2.358,-9.204 -5.877,-20.921 -9,-30" fill="none" stroke="#000000" stroke-width="2" /><path d="M19,75 c8.44,-15.965 15.848,-32.341 22.5,-50" fill="none" stroke="#000000" stroke-width="2" /><path d="M19,38.5 c3.93,-8.344 7.467,-17.077 10.5,-26" fill="none" stroke="#000000" stroke-width="2" /><path d="M70,54.5 c-4.707,-7.771 -10.178,-16.226 -15.5,-24" fill="none" stroke="#000000" stroke-width="2" /><path d="M87,79.5 c-2.358,-9.204 -5.877,-20.921 -9,-30" fill="none" stroke="#000000" stroke-width="2" /><path d="M60,75 c8.44,-15.965 15.848,-32.341 22.5,-50" fill="none" stroke="#000000" stroke-width="2" /><path d="M60,38.5 c3.93,-8.344 7.467,-17.077 10.5,-26" fill="none" stroke="#000000" stroke-width="2" /></svg>