<?xml version='1.0' encoding='utf-8'?>
<svg xmlns="http://www.w3.org/2000/svg" height="100px" version="1.0" viewBox="0 0 100 100" width="100px" x="0px" y="0px">
<line fill="none" stroke="#000000" stroke-width="2" x1="17" x2="94" y1="34.5" y2="34.5" /><line fill="none" stroke="#000000" stroke-width="2" x1="51.5" x2="51.5" y1="13" y2="2.5" /><line fill="none" stroke="#000000" stroke-width="2" x1="55.5" x2="55.5" y1="24" y2="92.5" /><line fill="none" stroke="#000000" stroke-width="2" x1="89" x2="23" y1="67" y2="67" /><line fill="none" stroke="#000000" stroke-width="2" x1="89" x2="23" y1="78.5" y2="78.5" /><line fill="none" stroke="#000000" stroke-width="2" x1="55.5" x2="55.5" y1="23" y2="13" /><polyline fill="none" points="21,46 86,46 86,23 21,23" stroke="#000000" stroke-width="2" /><path d="M3.5,92 c4.898,-10.415 9,-30.94 9,-47 v-32.0 H93.0" fill="none" stroke="#000000" stroke-width="2" /><path d="M66,91.5 c8.056,0.339 12.848,0.5 15,0.5 c7.308,0 8,-0.673 8,-8 v-28.5 h-67.0 v37.5" fill="none" stroke="#000000" stroke-width="2" /></svg>