<?xml version='1.0' encoding='utf-8'?>
<svg xmlns="http://www.w3.org/2000/svg" height="100px" version="1.0" viewBox="0 0 100 100" width="100px" x="0px" y="0px">
<line fill="none" stroke="#000000" stroke-width="2" x1="51.5" x2="51.5" y1="13" y2="2.5" /><line fill="none" stroke="#000000" stroke-width="2" x1="18" x2="93" y1="25.5" y2="25.5" /><line fill="none" stroke="#000000" stroke-width="2" x1="17" x2="94" y1="51.5" y2="51.5" /><line fill="none" stroke="#000000" stroke-width="2" x1="43" x2="43" y1="94" y2="26.5" /><line fill="none" stroke="#000000" stroke-width="2" x1="63.5" x2="63.5" y1="94" y2="26.5" /><polyline fill="none" points="20,66 83.5,66 83.5,37.5 20,37.5" stroke="#000000" stroke-width="2" /><path d="M4.5,91.5 c4.898,-10.415 9,-30.94 9,-47 V13.0 h80.0" fill="none" stroke="#000000" stroke-width="2" /><path d="M43,25.5 c-2.549,-3.556 -5.327,-7.035 -7.999,-9.999" fill="none" stroke="#000000" stroke-width="2" /><path d="M63.5,25.5 c3.021,-3.295 5.896,-6.888 8,-9.999" fill="none" stroke="#000000" stroke-width="2" /><path d="M12.5,91 c14.545,-7.969 23.906,-16.062 30,-25" fill="none" stroke="#000000" stroke-width="2" /><path d="M94,91 c-14.545,-7.969 -23.906,-16.062 -30,-25" fill="none" stroke="#000000" stroke-width="2" /></svg>