<?xml version='1.0' encoding='utf-8'?>
<svg xmlns="http://www.w3.org/2000/svg" height="100px" version="1.0" viewBox="0 0 100 100" width="100px" x="0px" y="0px">
<line fill="none" stroke="#000000" stroke-width="2" x1="23" x2="54" y1="43" y2="43" /><line fill="none" stroke="#000000" stroke-width="2" x1="38" x2="38" y1="17" y2="27" /><line fill="none" stroke="#000000" stroke-width="2" x1="51.5" x2="51.5" y1="13.5" y2="3" /><polyline fill="none" points="23,60 54,60 54,27 22,27 22,89" stroke="#000000" stroke-width="2" /><polyline fill="none" points="93,23 63,23 63,94" stroke="#000000" stroke-width="2" /><path d="M12,91 c13.418,-2.237 25.68,-5.518 39.5,-10.5" fill="none" stroke="#000000" stroke-width="2" /><path d="M58,91 c-4.325,-7.899 -10.619,-17.419 -16.5,-25" fill="none" stroke="#000000" stroke-width="2" /><path d="M71.5,83.5 h7.5 c9.281,0 13.5,-3.608 13.5,-11 c0,-8.73 -4.709,-16.854 -14,-23 c5.272,-8.175 10.111,-17.467 13.575,-25.881" fill="none" stroke="#000000" stroke-width="2" /><path d="M3.5,92 c4.898,-10.415 9,-30.94 9,-47 v-31.5 h80.5" fill="none" stroke="#000000" stroke-width="2" /></svg>