<?xml version='1.0' encoding='utf-8'?>
<svg xmlns="http://www.w3.org/2000/svg" height="100px" version="1.0" viewBox="0 0 100 100" width="100px" x="0px" y="0px">
<line fill="none" stroke="#000000" stroke-width="2" x1="94.5" x2="5.5" y1="27" y2="27" /><line fill="none" stroke="#000000" stroke-width="2" x1="94.5" x2="5.5" y1="73" y2="73" /><line fill="none" stroke="#000000" stroke-width="2" x1="50" x2="50" y1="65" y2="94.5" /><line fill="none" stroke="#000000" stroke-width="2" x1="50" x2="50" y1="43" y2="64" /><line fill="none" stroke="#000000" stroke-width="2" x1="17" x2="84" y1="54" y2="54" /><polyline fill="none" points="17,65 84,65 84,43 16,43 16,66" stroke="#000000" stroke-width="2" /><polyline fill="none" points="91,46 91,35 9,35 9,46" stroke="#000000" stroke-width="2" /><path d="M6.5,91 c18.07,-4.21 33.259,-10.761 43,-18" fill="none" stroke="#000000" stroke-width="2" /><path d="M93.5,91 c-18.07,-4.21 -33.259,-10.761 -43,-18" fill="none" stroke="#000000" stroke-width="2" /><path d="M72,27 c4.127,-7.706 5.896,-11.612 8,-17.499 h-55.0" fill="none" stroke="#000000" stroke-width="2" /><path d="M76,19 h-56.0 c4.12,-7.049 5.896,-10.618 8,-16" fill="none" stroke="#000000" stroke-width="2" /></svg>