<?xml version='1.0' encoding='utf-8'?>
<svg xmlns="http://www.w3.org/2000/svg" height="100px" version="1.0" viewBox="0 0 100 100" width="100px" x="0px" y="0px">
<line fill="none" stroke="#000000" stroke-width="2" x1="17.5" x2="17.5" y1="94" y2="43" /><line fill="none" stroke="#000000" stroke-width="2" x1="40" x2="88" y1="29" y2="29" /><polyline fill="none" points="40,49 88,49 88,10.5 39,10.5 39,89.5" stroke="#000000" stroke-width="2" /><path d="M27,29 c-5.266,10.459 -12.938,19.355 -23.5,27" fill="none" stroke="#000000" stroke-width="2" /><path d="M28,7 c-5.256,8.887 -13.006,16.485 -23.5,23" fill="none" stroke="#000000" stroke-width="2" /><path d="M58,49 c6.367,18.978 20.633,34.684 38,42.5" fill="none" stroke="#000000" stroke-width="2" /><path d="M25,91.5 c14.748,-1.968 27.748,-4.525 43,-8.5" fill="none" stroke="#000000" stroke-width="2" /><path d="M71,72 c8.207,-5.368 16.815,-13.25 23.5,-21.5" fill="none" stroke="#000000" stroke-width="2" /></svg>