<?xml version='1.0' encoding='utf-8'?>
<svg xmlns="http://www.w3.org/2000/svg" height="100px" version="1.0" viewBox="0 0 100 100" width="100px" x="0px" y="0px">
<line fill="none" stroke="#000000" stroke-width="2" x1="18" x2="18" y1="94" y2="41" /><line fill="none" stroke="#000000" stroke-width="2" x1="36.5" x2="88.5" y1="29.5" y2="29.5" /><line fill="none" stroke="#000000" stroke-width="2" x1="96" x2="28" y1="89.5" y2="89.5" /><line fill="none" stroke="#000000" stroke-width="2" x1="93" x2="31" y1="57" y2="57" /><line fill="none" stroke="#000000" stroke-width="2" x1="90" x2="34" y1="72.5" y2="72.5" /><line fill="none" stroke="#000000" stroke-width="2" x1="62" x2="62" y1="89.5" y2="57" /><polyline fill="none" points="36.5,46 88.5,46 88.5,14 35.5,14 35.5,47" stroke="#000000" stroke-width="2" /><path d="M27.5,27 c-5.266,10.459 -12.938,19.355 -23.5,27" fill="none" stroke="#000000" stroke-width="2" /><path d="M28.5,6 c-5.256,8.887 -13.006,16.485 -23.5,23" fill="none" stroke="#000000" stroke-width="2" /><path d="M63,3 c-1.629,4.058 -3.594,7.636 -6,11" fill="none" stroke="#000000" stroke-width="2" /></svg>