<?xml version='1.0' encoding='utf-8'?>
<svg xmlns="http://www.w3.org/2000/svg" height="100px" version="1.0" viewBox="0 0 100 100" width="100px" x="0px" y="0px">
<path d="M32.5,58.5 v21.0 c0,10.571 0.292,10.911 7,11.5 c3.618,0.317 8.079,0.5 12.5,0.5 c4.34,0 8.638,-0.161 12.5,-0.5 c11.145,-0.978 11.313,-1.124 13,-18" fill="none" stroke="#000000" stroke-width="2" /><path d="M5.5,87.5 c6.062,-7.385 11.077,-16.951 14,-27" fill="none" stroke="#000000" stroke-width="2" /><path d="M62,76.5 c-4.591,-6.125 -9.922,-12.167 -16,-18" fill="none" stroke="#000000" stroke-width="2" /><path d="M94.5,88 c-4.006,-9.688 -9.154,-19.688 -15,-29" fill="none" stroke="#000000" stroke-width="2" /><path d="M25,13 h64.0 c0,30.308 -4.227,38.5 -11,38.5 c-2.828,0 -7.154,-0.144 -12,-0.5" fill="none" stroke="#000000" stroke-width="2" /><path d="M6.5,32.5 c9.324,-6.728 19.787,-19.198 24.5,-29" fill="none" stroke="#000000" stroke-width="2" /><path d="M45,53.5 c11.355,-8.087 22.998,-25.737 26.5,-40.5" fill="none" stroke="#000000" stroke-width="2" /><path d="M17,50 c11.752,-7.729 25.666,-24.249 31,-37" fill="none" stroke="#000000" stroke-width="2" /></svg>