<?xml version='1.0' encoding='utf-8'?>
<svg xmlns="http://www.w3.org/2000/svg" height="100px" version="1.0" viewBox="0 0 100 100" width="100px" x="0px" y="0px">
<line fill="none" stroke="#000000" stroke-width="2" x1="23" x2="49.5" y1="12.5" y2="12.5" /><path d="M6,32.5 c9.885,-8.021 17.372,-17.837 22,-29" fill="none" stroke="#000000" stroke-width="2" /><path d="M48.502,13.438 c-1.27,20.649 -17.377,39.249 -40.002,46.562" fill="none" stroke="#000000" stroke-width="2" /><path d="M92.5,37.5 c-0.657,17.773 -0.905,18 -21,18 c-14.9,0 -16,-0.865 -16,-7.5 v-36.5 h31.0 c-0.308,24.999 -0.781,25.5 -8,25.5 c-2.13,0 -6.557,-0.155 -13,-0.5" fill="none" stroke="#000000" stroke-width="2" /><path d="M39.5,38.5 c-5.895,-4.299 -13.008,-9.049 -19.5,-13" fill="none" stroke="#000000" stroke-width="2" /><path d="M32.5,58.5 v21.0 c0,10.571 0.292,10.911 7,11.5 c3.618,0.317 8.079,0.5 12.5,0.5 c4.34,0 8.638,-0.161 12.5,-0.5 c11.145,-0.978 11.313,-1.124 13,-18" fill="none" stroke="#000000" stroke-width="2" /><path d="M5.5,87.5 c6.062,-7.385 11.077,-16.951 14,-27" fill="none" stroke="#000000" stroke-width="2" /><path d="M62,76.5 c-4.591,-6.125 -9.922,-12.167 -16,-18" fill="none" stroke="#000000" stroke-width="2" /><path d="M94.5,88 c-4.006,-9.688 -9.154,-19.688 -15,-29" fill="none" stroke="#000000" stroke-width="2" /></svg>