<?xml version='1.0' encoding='utf-8'?>
<svg xmlns="http://www.w3.org/2000/svg" height="100px" version="1.0" viewBox="0 0 100 100" width="100px" x="0px" y="0px">
<line fill="none" stroke="#000000" stroke-width="2" x1="17" x2="17" y1="94" y2="6" /><line fill="none" stroke="#000000" stroke-width="2" x1="31.5" x2="94.5" y1="46" y2="46" /><line fill="none" stroke="#000000" stroke-width="2" x1="90" x2="33" y1="20" y2="20" /><line fill="none" stroke="#000000" stroke-width="2" x1="61" x2="61" y1="46" y2="6" /><path d="M4,58 c2.624,-10.247 4.357,-21.376 5,-32" fill="none" stroke="#000000" stroke-width="2" /><path d="M27.5,46 c-0.573,-6.952 -1.604,-14.611 -3,-22" fill="none" stroke="#000000" stroke-width="2" /><path d="M94,92 c-5.04,-10.136 -12.385,-22.747 -19,-32.5" fill="none" stroke="#000000" stroke-width="2" /><path d="M25.5,89 c19.158,-0.739 41.274,-3.201 63,-7" fill="none" stroke="#000000" stroke-width="2" /><path d="M42,88 c5.295,-12.036 10.555,-26.597 15,-42" fill="none" stroke="#000000" stroke-width="2" /></svg>