<?xml version='1.0' encoding='utf-8'?>
<svg xmlns="http://www.w3.org/2000/svg" height="100px" version="1.0" viewBox="0 0 100 100" width="100px" x="0px" y="0px">
<line fill="none" stroke="#000000" stroke-width="2" x1="15.5" x2="15.5" y1="94" y2="6" /><path d="M3,58 c2.624,-10.247 4.357,-21.376 5,-32" fill="none" stroke="#000000" stroke-width="2" /><path d="M26,47.5 c-0.573,-6.952 -1.604,-14.611 -3,-22" fill="none" stroke="#000000" stroke-width="2" /><path d="M59.5,92 c9.978,-9.717 14,-21.085 14,-50" fill="none" stroke="#000000" stroke-width="2" /><path d="M60.5,53 h32.0 c0,34.468 -1.584,37 -7.5,37 c-2.89,0 -7.652,-0.192 -11.5,-0.5" fill="none" stroke="#000000" stroke-width="2" /><path d="M24.5,92 c9.978,-9.717 14,-21.085 14,-50" fill="none" stroke="#000000" stroke-width="2" /><path d="M24.5,53 h32.0 c0,34.468 -1.584,37 -7.5,37 c-2.89,0 -6.654,-0.165 -10.5,-0.5" fill="none" stroke="#000000" stroke-width="2" /><path d="M31,40 c19.361,-6.208 30,-18.911 30,-36" fill="none" stroke="#000000" stroke-width="2" /><path d="M32,14 h57.5 c0,20.82 -2.244,23.5 -10,23.5 c-3.063,0 -9.179,-0.214 -14,-0.5" fill="none" stroke="#000000" stroke-width="2" /></svg>