<?xml version='1.0' encoding='utf-8'?>
<svg xmlns="http://www.w3.org/2000/svg" height="100px" version="1.0" viewBox="0 0 100 100" width="100px" x="0px" y="0px">
<line fill="none" stroke="#000000" stroke-width="2" x1="17" x2="17" y1="94" y2="6" /><line fill="none" stroke="#000000" stroke-width="2" x1="60.5" x2="60.5" y1="44" y2="6" /><line fill="none" stroke="#000000" stroke-width="2" x1="94" x2="31.5" y1="44" y2="44" /><path d="M4,58 c2.624,-10.247 4.357,-21.376 5,-32" fill="none" stroke="#000000" stroke-width="2" /><path d="M27.5,43 c-0.573,-6.004 -1.604,-12.618 -3,-19" fill="none" stroke="#000000" stroke-width="2" /><path d="M47,38 c-4.779,-8.891 -9.988,-17.59 -15,-25" fill="none" stroke="#000000" stroke-width="2" /><path d="M74,38 c6.061,-7.912 11.471,-16.999 15,-25" fill="none" stroke="#000000" stroke-width="2" /><path d="M69.5,44 v38.0 c0,6.474 0.594,7 11.5,7 c12.251,0 12.437,-0.227 13,-28" fill="none" stroke="#000000" stroke-width="2" /><path d="M25,90.5 c18.97,-7.099 25.5,-17.663 25.5,-46.5" fill="none" stroke="#000000" stroke-width="2" /></svg>