<?xml version='1.0' encoding='utf-8'?>
<svg xmlns="http://www.w3.org/2000/svg" height="100px" version="1.0" viewBox="0 0 100 100" width="100px" x="0px" y="0px">
<line fill="none" stroke="#000000" stroke-width="2" x1="56" x2="89" y1="25" y2="25" /><line fill="none" stroke="#000000" stroke-width="2" x1="43" x2="11" y1="25" y2="25" /><polyline fill="none" points="10,92.5 10,10 44,10 44,41.5 11,41.5" stroke="#000000" stroke-width="2" /><path d="M69,90 c6.263,0.361 10.217,0.5 13,0.5 c7.188,0 8,-0.666 8,-8 V10.0 h-35.0 v31.5 h34.0" fill="none" stroke="#000000" stroke-width="2" /><path d="M38,54.5 v26.0 c0,4.071 1.27,5 12.5,5 c15.106,0 15.35,-0.198 16.5,-17.5" fill="none" stroke="#000000" stroke-width="2" /><path d="M18.5,82.5 c4.982,-6.289 9.115,-14.771 11,-23" fill="none" stroke="#000000" stroke-width="2" /><path d="M80.5,81 c-2.504,-7.089 -6.11,-15.077 -10,-22" fill="none" stroke="#000000" stroke-width="2" /><path d="M36,48.5 c8.805,1.571 17.389,4.203 28.5,9" fill="none" stroke="#000000" stroke-width="2" /></svg>