<?xml version='1.0' encoding='utf-8'?>
<svg xmlns="http://www.w3.org/2000/svg" height="100px" version="1.0" viewBox="0 0 100 100" width="100px" x="0px" y="0px">
<line fill="none" stroke="#000000" stroke-width="2" x1="15.5" x2="15.5" y1="94" y2="6" /><line fill="none" stroke="#000000" stroke-width="2" x1="25.5" x2="96.5" y1="70.5" y2="70.5" /><line fill="none" stroke="#000000" stroke-width="2" x1="61" x2="61" y1="14.5" y2="4" /><line fill="none" stroke="#000000" stroke-width="2" x1="26" x2="96" y1="14.5" y2="14.5" /><line fill="none" stroke="#000000" stroke-width="2" x1="90" x2="32" y1="52.5" y2="52.5" /><polyline fill="none" points="37,42.5 86,42.5 86,24 36,24 36,43.5" stroke="#000000" stroke-width="2" /><path d="M3,58 c2.624,-10.247 4.357,-21.376 5,-32" fill="none" stroke="#000000" stroke-width="2" /><path d="M27,47.5 c-0.765,-6.952 -2.138,-14.611 -4,-22" fill="none" stroke="#000000" stroke-width="2" /><path d="M63,63.5 v21.0 c0,6.671 -0.74,7.5 -7,7.5 c-3.405,0 -7.933,-0.142 -13,-0.5" fill="none" stroke="#000000" stroke-width="2" /><path d="M89.458,52.659 c-7.82,5.043 -15.954,8.741 -26.458,11.841" fill="none" stroke="#000000" stroke-width="2" /></svg>