<?xml version='1.0' encoding='utf-8'?>
<svg xmlns="http://www.w3.org/2000/svg" height="100px" version="1.0" viewBox="0 0 100 100" width="100px" x="0px" y="0px">
<line fill="none" stroke="#000000" stroke-width="2" x1="17" x2="17" y1="94" y2="6" /><path d="M4,58 c2.624,-10.247 4.357,-21.376 5,-32" fill="none" stroke="#000000" stroke-width="2" /><path d="M27.5,47.5 c-0.573,-6.952 -1.604,-14.611 -3,-22" fill="none" stroke="#000000" stroke-width="2" /><path d="M46,58.5 v21.0 c0,11.755 0.244,12 16,12 c19.579,0 19.818,-0.223 21,-18.5" fill="none" stroke="#000000" stroke-width="2" /><path d="M24.5,87.5 c4.979,-7.385 9.099,-16.951 11.5,-27" fill="none" stroke="#000000" stroke-width="2" /><path d="M70.5,76.5 c-4.447,-6.125 -9.611,-12.167 -15.5,-18" fill="none" stroke="#000000" stroke-width="2" /><path d="M96.5,88 c-3.338,-9.688 -7.629,-19.688 -12.5,-29" fill="none" stroke="#000000" stroke-width="2" /><path d="M43.5,13 h49.0 c0,30.308 -3.823,38.5 -10,38.5 c-2.611,0 -6.609,-0.146 -11,-0.5" fill="none" stroke="#000000" stroke-width="2" /><path d="M29.5,32.5 c7.041,-6.728 14.941,-19.198 18.5,-29" fill="none" stroke="#000000" stroke-width="2" /><path d="M58.5,53.5 c8.885,-8.212 18.225,-25.737 21,-40.5" fill="none" stroke="#000000" stroke-width="2" /><path d="M37,50 c9.288,-7.729 20.285,-24.249 24.5,-37" fill="none" stroke="#000000" stroke-width="2" /></svg>