<?xml version='1.0' encoding='utf-8'?>
<svg xmlns="http://www.w3.org/2000/svg" height="100px" version="1.0" viewBox="0 0 100 100" width="100px" x="0px" y="0px">
<line fill="none" stroke="#000000" stroke-width="2" x1="17" x2="17" y1="94" y2="6" /><line fill="none" stroke="#000000" stroke-width="2" x1="26" x2="96" y1="70" y2="70" /><line fill="none" stroke="#000000" stroke-width="2" x1="37" x2="86" y1="55" y2="55" /><line fill="none" stroke="#000000" stroke-width="2" x1="37" x2="86" y1="25" y2="25" /><line fill="none" stroke="#000000" stroke-width="2" x1="37" x2="86" y1="40" y2="40" /><polyline fill="none" points="86,69 86,10 36,10 36,69" stroke="#000000" stroke-width="2" /><path d="M4,58 c2.624,-10.247 4.357,-21.376 5,-32" fill="none" stroke="#000000" stroke-width="2" /><path d="M29,47.5 c-0.859,-6.952 -2.406,-14.611 -4.5,-22" fill="none" stroke="#000000" stroke-width="2" /><path d="M26.5,92 c10.971,-4.65 20.439,-11.01 26,-17" fill="none" stroke="#000000" stroke-width="2" /><path d="M94.5,93 c-6.694,-5.892 -15.932,-12.185 -26,-17.5" fill="none" stroke="#000000" stroke-width="2" /></svg>