<?xml version='1.0' encoding='utf-8'?>
<svg xmlns="http://www.w3.org/2000/svg" height="100px" version="1.0" viewBox="0 0 100 100" width="100px" x="0px" y="0px">
<line fill="none" stroke="#000000" stroke-width="2" x1="38.5" x2="87.5" y1="76" y2="76" /><line fill="none" stroke="#000000" stroke-width="2" x1="38.5" x2="87.5" y1="63" y2="63" /><line fill="none" stroke="#000000" stroke-width="2" x1="17" x2="17" y1="94" y2="6" /><line fill="none" stroke="#000000" stroke-width="2" x1="94" x2="41" y1="40" y2="40" /><line fill="none" stroke="#000000" stroke-width="2" x1="66.5" x2="66.5" y1="25" y2="40" /><line fill="none" stroke="#000000" stroke-width="2" x1="44.5" x2="90.5" y1="25" y2="25" /><line fill="none" stroke="#000000" stroke-width="2" x1="93.5" x2="29.5" y1="13.5" y2="13.5" /><path d="M37.5,93 v-43.0 h50.0 v36.96 c0,4.303 -0.299,4.54 -7,4.54 c-2.265,0 -5.941,-0.159 -12.5,-0.5" fill="none" stroke="#000000" stroke-width="2" /><path d="M4,58 c2.624,-10.247 4.357,-21.376 5,-32" fill="none" stroke="#000000" stroke-width="2" /><path d="M27,46 c-0.573,-6.952 -1.604,-14.611 -3,-22" fill="none" stroke="#000000" stroke-width="2" /><path d="M29.5,51.5 c10.361,-12.487 17.24,-28.413 20,-47.5" fill="none" stroke="#000000" stroke-width="2" /></svg>