<?xml version='1.0' encoding='utf-8'?>
<svg xmlns="http://www.w3.org/2000/svg" height="100px" version="1.0" viewBox="0 0 100 100" width="100px" x="0px" y="0px">
<line fill="none" stroke="#000000" stroke-width="2" x1="26.5" x2="26.5" y1="59" y2="11" /><line fill="none" stroke="#000000" stroke-width="2" x1="46" x2="7" y1="25.5" y2="25.5" /><path d="M32.5,61 v18.5 c0,10.571 0.292,10.911 7,11.5 c3.618,0.317 8.079,0.5 12.5,0.5 c4.34,0 8.638,-0.161 12.5,-0.5 c11.145,-0.978 11.313,-1.124 13,-18" fill="none" stroke="#000000" stroke-width="2" /><path d="M5.5,88 c6.062,-6.564 11.077,-15.068 14,-24" fill="none" stroke="#000000" stroke-width="2" /><path d="M94.5,88.5 c-4.006,-9.02 -9.154,-18.329 -15,-27" fill="none" stroke="#000000" stroke-width="2" /><path d="M62,78 c-4.591,-6.125 -9.922,-12.167 -16,-18" fill="none" stroke="#000000" stroke-width="2" /><path d="M6.5,50.5 c9.238,-8.315 15.133,-16.355 19,-25.5" fill="none" stroke="#000000" stroke-width="2" /><path d="M44.5,7.5 c-12.479,2.777 -24.01,4.682 -36,6" fill="none" stroke="#000000" stroke-width="2" /><path d="M47,45 c-6.154,-6.178 -13.328,-13.188 -20,-19.5" fill="none" stroke="#000000" stroke-width="2" /><path d="M54.5,16 c-1.323,7.36 -3.968,13.909 -8,20" fill="none" stroke="#000000" stroke-width="2" /><path d="M92,16.5 c-2.131,7.144 -5.407,13.37 -10,19" fill="none" stroke="#000000" stroke-width="2" /><path d="M42.5,58 c16.445,-6.032 26.5,-20.397 26.5,-37.429 V6.0" fill="none" stroke="#000000" stroke-width="2" /><path d="M95.5,58 c-16.443,-6.03 -26.5,-20.397 -26.5,-37.429" fill="none" stroke="#000000" stroke-width="2" /></svg>