<?xml version='1.0' encoding='utf-8'?>
<svg xmlns="http://www.w3.org/2000/svg" height="100px" version="1.0" viewBox="0 0 100 100" width="100px" x="0px" y="0px">
<line fill="none" stroke="#000000" stroke-width="2" x1="15.5" x2="15.5" y1="94" y2="6" /><line fill="none" stroke="#000000" stroke-width="2" x1="94.5" x2="27" y1="11" y2="11" /><line fill="none" stroke="#000000" stroke-width="2" x1="71" x2="71" y1="12" y2="46" /><line fill="none" stroke="#000000" stroke-width="2" x1="51" x2="51" y1="12" y2="46" /><line fill="none" stroke="#000000" stroke-width="2" x1="61.5" x2="61.5" y1="93.5" y2="47" /><line fill="none" stroke="#000000" stroke-width="2" x1="95" x2="27" y1="59" y2="59" /><polyline fill="none" points="31.5,48 31.5,25 90.5,25 90.5,47 32.5,47" stroke="#000000" stroke-width="2" /><path d="M3,58 c2.624,-10.247 4.357,-21.376 5,-32" fill="none" stroke="#000000" stroke-width="2" /><path d="M26,47.5 c-0.573,-6.952 -1.604,-14.611 -3,-22" fill="none" stroke="#000000" stroke-width="2" /><path d="M25,87 c15.764,-7.71 28.587,-18.267 35.5,-28" fill="none" stroke="#000000" stroke-width="2" /><path d="M96.5,87 c-15.474,-8.385 -26.607,-17.736 -34,-28" fill="none" stroke="#000000" stroke-width="2" /></svg>