<?xml version='1.0' encoding='utf-8'?>
<svg xmlns="http://www.w3.org/2000/svg" height="100px" version="1.0" viewBox="0 0 100 100" width="100px" x="0px" y="0px">
<line fill="none" stroke="#000000" stroke-width="2" x1="7" x2="93" y1="14" y2="14" /><line fill="none" stroke="#000000" stroke-width="2" x1="32" x2="32" y1="22" y2="3.5" /><line fill="none" stroke="#000000" stroke-width="2" x1="68" x2="68" y1="22" y2="3.5" /><line fill="none" stroke="#000000" stroke-width="2" x1="19" x2="81" y1="35" y2="35" /><line fill="none" stroke="#000000" stroke-width="2" x1="7" x2="93" y1="56.5" y2="56.5" /><polyline fill="none" points="19,47 82,47 82,23 18,23 18,48" stroke="#000000" stroke-width="2" /><path d="M46.5,47 c-9.677,11.469 -22.938,20.653 -41.5,28" fill="none" stroke="#000000" stroke-width="2" /><path d="M63,56.5 c8.423,7.191 18.887,13.305 32,18.5" fill="none" stroke="#000000" stroke-width="2" /><path d="M46,60.5 v28.0 c0,4.221 -0.27,4.5 -5.5,4.5 c-1.527,0 -5.535,-0.147 -11,-0.5" fill="none" stroke="#000000" stroke-width="2" /><path d="M12.5,90 c7.175,-5.997 13.036,-13.824 16.5,-22" fill="none" stroke="#000000" stroke-width="2" /><path d="M68.5,91 c-3.131,-7.53 -7.167,-15.143 -12,-22.5" fill="none" stroke="#000000" stroke-width="2" /><path d="M89,89 c-4.264,-6.854 -9.613,-13.985 -15.5,-20.5" fill="none" stroke="#000000" stroke-width="2" /></svg>