<?xml version='1.0' encoding='utf-8'?>
<svg xmlns="http://www.w3.org/2000/svg" height="100px" version="1.0" viewBox="0 0 100 100" width="100px" x="0px" y="0px">
<line fill="none" stroke="#000000" stroke-width="2" x1="17" x2="17" y1="94" y2="6" /><line fill="none" stroke="#000000" stroke-width="2" x1="33" x2="95" y1="38.5" y2="38.5" /><line fill="none" stroke="#000000" stroke-width="2" x1="63" x2="63" y1="13.5" y2="3" /><polyline fill="none" points="39.5,53 89,53 89,24.5 39.5,24.5" stroke="#000000" stroke-width="2" /><path d="M4,58 c2.624,-10.247 4.357,-21.376 5,-32" fill="none" stroke="#000000" stroke-width="2" /><path d="M27.5,47.5 c-0.573,-6.952 -1.604,-14.611 -3,-22" fill="none" stroke="#000000" stroke-width="2" /><path d="M65.5,13.5 v70.5 c0,6.687 -1.032,8 -5.5,8 c-2.026,0 -5.771,-0.169 -10,-0.5" fill="none" stroke="#000000" stroke-width="2" /><path d="M65.5,55.5 c5.055,12.632 16.508,25.729 29.5,33.5" fill="none" stroke="#000000" stroke-width="2" /><path d="M91,57.5 c-4.288,5.628 -9.518,10.865 -15,15" fill="none" stroke="#000000" stroke-width="2" /><path d="M34,87.5 c12.139,-5.765 23.334,-13.319 31.493,-21" fill="none" stroke="#000000" stroke-width="2" /><path d="M52,72 c-3.033,-4.096 -7.317,-9.115 -12,-14" fill="none" stroke="#000000" stroke-width="2" /><path d="M25.5,92 c4.082,-10.415 7.5,-30.94 7.5,-47 v-31.5 h61.0" fill="none" stroke="#000000" stroke-width="2" /></svg>