<?xml version='1.0' encoding='utf-8'?>
<svg xmlns="http://www.w3.org/2000/svg" height="100px" version="1.0" viewBox="0 0 100 100" width="100px" x="0px" y="0px">
<line fill="none" stroke="#000000" stroke-width="2" x1="17" x2="17" y1="94" y2="6" /><line fill="none" stroke="#000000" stroke-width="2" x1="62.5" x2="62.5" y1="42" y2="33" /><line fill="none" stroke="#000000" stroke-width="2" x1="27" x2="96" y1="42" y2="42" /><line fill="none" stroke="#000000" stroke-width="2" x1="35" x2="90" y1="21" y2="21" /><polyline fill="none" points="37.5,68.5 87.5,68.5 87.5,50.5 36.5,50.5 36.5,69.5" stroke="#000000" stroke-width="2" /><polyline fill="none" points="35,33 90,33 90,9.5 34,9.5 34,34" stroke="#000000" stroke-width="2" /><path d="M4,58 c2.624,-10.247 4.357,-21.376 5,-32" fill="none" stroke="#000000" stroke-width="2" /><path d="M27.5,47.5 c-0.573,-6.952 -1.604,-14.611 -3,-22" fill="none" stroke="#000000" stroke-width="2" /><path d="M63.5,68.5 v18.5 c0,4.741 -0.71,5.5 -6,5.5 c-2.473,0 -5.868,-0.143 -11,-0.5" fill="none" stroke="#000000" stroke-width="2" /><path d="M26,90 c8.983,-4.108 17.248,-10.307 22.5,-16.5" fill="none" stroke="#000000" stroke-width="2" /><path d="M94.5,90 c-6.039,-5.817 -13.775,-11.773 -21.5,-16.5" fill="none" stroke="#000000" stroke-width="2" /></svg>