<?xml version='1.0' encoding='utf-8'?>
<svg xmlns="http://www.w3.org/2000/svg" height="100px" version="1.0" viewBox="0 0 100 100" width="100px" x="0px" y="0px">
<line fill="none" stroke="#000000" stroke-width="2" x1="15.5" x2="15.5" y1="94" y2="6" /><line fill="none" stroke="#000000" stroke-width="2" x1="94" x2="27" y1="63.5" y2="63.5" /><line fill="none" stroke="#000000" stroke-width="2" x1="96" x2="25" y1="38.5" y2="38.5" /><line fill="none" stroke="#000000" stroke-width="2" x1="37.5" x2="94" y1="14.5" y2="14.5" /><line fill="none" stroke="#000000" stroke-width="2" x1="37.5" x2="37.5" y1="62.5" y2="15" /><line fill="none" stroke="#000000" stroke-width="2" x1="53.5" x2="53.5" y1="62.5" y2="15.5" /><line fill="none" stroke="#000000" stroke-width="2" x1="70" x2="70" y1="62.5" y2="15.5" /><line fill="none" stroke="#000000" stroke-width="2" x1="86" x2="86" y1="62.5" y2="15.5" /><path d="M3,58 c2.624,-10.247 4.357,-21.376 5,-32" fill="none" stroke="#000000" stroke-width="2" /><path d="M26,47.5 c-0.573,-6.952 -1.604,-14.611 -3,-22" fill="none" stroke="#000000" stroke-width="2" /><path d="M94,92 c-3.324,-6.976 -7.255,-14.214 -12,-22" fill="none" stroke="#000000" stroke-width="2" /><path d="M73.75,92.5 c-2.014,-6.867 -4.541,-14.101 -7.75,-22" fill="none" stroke="#000000" stroke-width="2" /><path d="M53.5,93 c-0.703,-6.759 -1.827,-13.988 -3.5,-22" fill="none" stroke="#000000" stroke-width="2" /><path d="M26,92.5 c4.191,-6.205 8.172,-13.462 12,-22" fill="none" stroke="#000000" stroke-width="2" /><path d="M27,32.5 c6.479,-8.269 11.786,-18.753 15,-30" fill="none" stroke="#000000" stroke-width="2" /></svg>