<?xml version='1.0' encoding='utf-8'?>
<svg xmlns="http://www.w3.org/2000/svg" height="100px" version="1.0" viewBox="0 0 100 100" width="100px" x="0px" y="0px">
<line fill="none" stroke="#000000" stroke-width="2" x1="15.5" x2="15.5" y1="94" y2="6" /><line fill="none" stroke="#000000" stroke-width="2" x1="62" x2="62" y1="46.5" y2="10" /><line fill="none" stroke="#000000" stroke-width="2" x1="32" x2="92" y1="10" y2="10" /><line fill="none" stroke="#000000" stroke-width="2" x1="37" x2="55" y1="30" y2="30" /><line fill="none" stroke="#000000" stroke-width="2" x1="37" x2="55" y1="40.5" y2="40.5" /><line fill="none" stroke="#000000" stroke-width="2" x1="69" x2="87" y1="30" y2="30" /><line fill="none" stroke="#000000" stroke-width="2" x1="69" x2="87" y1="40.5" y2="40.5" /><line fill="none" stroke="#000000" stroke-width="2" x1="95" x2="29" y1="50.5" y2="50.5" /><line fill="none" stroke="#000000" stroke-width="2" x1="52.5" x2="52.5" y1="61.5" y2="90.5" /><line fill="none" stroke="#000000" stroke-width="2" x1="71.5" x2="71.5" y1="61.5" y2="90.5" /><polyline fill="none" points="93.5,40.5 93.5,21 30.5,21 30.5,40.5" stroke="#000000" stroke-width="2" /><path d="M3,58 c2.624,-10.247 4.357,-21.376 5,-32" fill="none" stroke="#000000" stroke-width="2" /><path d="M26,47.5 c-0.573,-6.952 -1.604,-14.611 -3,-22" fill="none" stroke="#000000" stroke-width="2" /><path d="M77.5,90.5 c4.839,0.366 7.848,0.5 9,0.5 c4.151,0 4.5,-0.396 4.5,-6 V61.5 h-58.0 v31.0" fill="none" stroke="#000000" stroke-width="2" /><path d="M62.5,50.5 c-1.285,4.079 -2.926,7.679 -5,11" fill="none" stroke="#000000" stroke-width="2" /></svg>