<?xml version='1.0' encoding='utf-8'?>
<svg xmlns="http://www.w3.org/2000/svg" height="100px" version="1.0" viewBox="0 0 100 100" width="100px" x="0px" y="0px">
<line fill="none" stroke="#000000" stroke-width="2" x1="34.5" x2="5.5" y1="26" y2="26" /><polyline fill="none" points="42,38.5 89,38.5 89,10.5 41,10.5 41,39.5" stroke="#000000" stroke-width="2" /><path d="M20.5,6 v77.0 c0,7.683 -0.373,8 -5,8 c-2.246,0 -4.663,-0.119 -9,-0.5" fill="none" stroke="#000000" stroke-width="2" /><path d="M34.5,49 c-10.035,5.919 -19.379,10.085 -29,13" fill="none" stroke="#000000" stroke-width="2" /><path d="M31.5,92 c16.484,-5.845 27.279,-20.38 28,-41" fill="none" stroke="#000000" stroke-width="2" /><path d="M37,51 h54.0 c0,34.741 -3.209,40 -9.5,40 c-3.05,0 -10.574,-0.46 -15.5,-1" fill="none" stroke="#000000" stroke-width="2" /></svg>