<?xml version='1.0' encoding='utf-8'?>
<svg xmlns="http://www.w3.org/2000/svg" height="100px" version="1.0" viewBox="0 0 100 100" width="100px" x="0px" y="0px">
<line fill="none" stroke="#000000" stroke-width="2" x1="6.5" x2="93.5" y1="39.5" y2="39.5" /><line fill="none" stroke="#000000" stroke-width="2" x1="89.5" x2="10.5" y1="24.5" y2="24.5" /><line fill="none" stroke="#000000" stroke-width="2" x1="93.5" x2="6.5" y1="77.5" y2="77.5" /><line fill="none" stroke="#000000" stroke-width="2" x1="84.5" x2="15.5" y1="63.5" y2="63.5" /><path d="M6,61.5 c22.985,-10.134 40.891,-33.548 44,-57.5" fill="none" stroke="#000000" stroke-width="2" /><path d="M94,61.5 c-15.004,-6.989 -28.863,-20.719 -37,-37" fill="none" stroke="#000000" stroke-width="2" /><path d="M31,24.5 c-3.742,-5.804 -8,-11.701 -12,-16.5" fill="none" stroke="#000000" stroke-width="2" /><path d="M69,24.5 c4.532,-5.329 8.916,-11.424 12,-16.5" fill="none" stroke="#000000" stroke-width="2" /><path d="M51,50 v37.0 c0,5.177 -0.977,6 -7.5,6 c-3.409,0 -9.286,-0.18 -15.5,-0.5" fill="none" stroke="#000000" stroke-width="2" /><path d="M26.5,51.5 c18.316,-0.48 32.967,-1.92 44,-4" fill="none" stroke="#000000" stroke-width="2" /></svg>