<?xml version='1.0' encoding='utf-8'?>
<svg xmlns="http://www.w3.org/2000/svg" height="100px" version="1.0" viewBox="0 0 100 100" width="100px" x="0px" y="0px">
<line fill="none" stroke="#000000" stroke-width="2" x1="30" x2="4.5" y1="26" y2="26" /><line fill="none" stroke="#000000" stroke-width="2" x1="26.5" x2="96.5" y1="35" y2="35" /><line fill="none" stroke="#000000" stroke-width="2" x1="82" x2="33.5" y1="16" y2="16" /><line fill="none" stroke="#000000" stroke-width="2" x1="59" x2="59" y1="35" y2="5.5" /><path d="M18.5,6 v78.0 c0,7.575 -0.404,8 -4.5,8 c-1.832,0 -4.633,-0.139 -8.5,-0.5" fill="none" stroke="#000000" stroke-width="2" /><path d="M29.5,48.5 c-8.65,5.009 -16.706,8.534 -25,11" fill="none" stroke="#000000" stroke-width="2" /><path d="M25.5,58 c29.275,-10.377 52.933,-27.732 67,-48" fill="none" stroke="#000000" stroke-width="2" /><path d="M41,56 c23.586,-2.038 42.644,-5.86 54,-10" fill="none" stroke="#000000" stroke-width="2" /><path d="M42,51 c-1.371,8.686 -3.695,18.673 -6,26" fill="none" stroke="#000000" stroke-width="2" /><path d="M39,65 h50.0 c-2.729,24.802 -4.221,26.5 -10.5,26.5 c-3.396,0 -11.883,-0.451 -18.5,-1" fill="none" stroke="#000000" stroke-width="2" /></svg>