<?xml version='1.0' encoding='utf-8'?>
<svg xmlns="http://www.w3.org/2000/svg" height="100px" version="1.0" viewBox="0 0 100 100" width="100px" x="0px" y="0px">
<line fill="none" stroke="#000000" stroke-width="2" x1="31.5" x2="4.5" y1="26" y2="26" /><line fill="none" stroke="#000000" stroke-width="2" x1="27.5" x2="96" y1="89" y2="89" /><line fill="none" stroke="#000000" stroke-width="2" x1="90.5" x2="33.5" y1="66" y2="66" /><line fill="none" stroke="#000000" stroke-width="2" x1="62" x2="62" y1="89" y2="5.5" /><path d="M19.5,6 v77.0 c0,7.683 -0.373,8 -5,8 c-2.246,0 -4.663,-0.119 -9,-0.5" fill="none" stroke="#000000" stroke-width="2" /><path d="M29.5,48 c-8.709,5.931 -16.852,10.118 -25,13" fill="none" stroke="#000000" stroke-width="2" /><path d="M28.5,57 c8.661,-11.727 14.721,-27.22 17,-45" fill="none" stroke="#000000" stroke-width="2" /><path d="M56,57 c-4.205,-11.286 -9.089,-21.312 -14,-29" fill="none" stroke="#000000" stroke-width="2" /><path d="M95.5,57 c-4.728,-11.104 -10.279,-21.16 -16,-29" fill="none" stroke="#000000" stroke-width="2" /><path d="M68,57 c7.451,-12.191 12.367,-27.663 14,-45" fill="none" stroke="#000000" stroke-width="2" /></svg>