<?xml version='1.0' encoding='utf-8'?>
<svg xmlns="http://www.w3.org/2000/svg" height="100px" version="1.0" viewBox="0 0 100 100" width="100px" x="0px" y="0px">
<line fill="none" stroke="#000000" stroke-width="2" x1="33.5" x2="4.5" y1="26" y2="26" /><line fill="none" stroke="#000000" stroke-width="2" x1="61.5" x2="93.5" y1="16" y2="16" /><line fill="none" stroke="#000000" stroke-width="2" x1="61.5" x2="61.5" y1="29" y2="4.5" /><line fill="none" stroke="#000000" stroke-width="2" x1="38" x2="88" y1="46" y2="46" /><line fill="none" stroke="#000000" stroke-width="2" x1="28.5" x2="96.5" y1="77.5" y2="77.5" /><line fill="none" stroke="#000000" stroke-width="2" x1="62.5" x2="62.5" y1="94.5" y2="64" /><polyline fill="none" points="38,64 88,64 88,29 37,29 37,65" stroke="#000000" stroke-width="2" /><path d="M19.5,6 v77.0 c0,7.683 -0.373,8 -5,8 c-2.246,0 -4.663,-0.119 -9,-0.5" fill="none" stroke="#000000" stroke-width="2" /><path d="M33.5,51.5 c-10.035,5.009 -19.379,8.534 -29,11" fill="none" stroke="#000000" stroke-width="2" /></svg>