<?xml version='1.0' encoding='utf-8'?>
<svg xmlns="http://www.w3.org/2000/svg" height="100px" version="1.0" viewBox="0 0 100 100" width="100px" x="0px" y="0px">
<line fill="none" stroke="#000000" stroke-width="2" x1="34.5" x2="34.5" y1="10.5" y2="81" /><line fill="none" stroke="#000000" stroke-width="2" x1="60" x2="60" y1="95" y2="10.5" /><line fill="none" stroke="#000000" stroke-width="2" x1="96.5" x2="26.5" y1="10.5" y2="10.5" /><line fill="none" stroke="#000000" stroke-width="2" x1="35.5" x2="60" y1="56" y2="56" /><line fill="none" stroke="#000000" stroke-width="2" x1="35.5" x2="60" y1="32.5" y2="32.5" /><line fill="none" stroke="#000000" stroke-width="2" x1="60" x2="95" y1="25.5" y2="25.5" /><line fill="none" stroke="#000000" stroke-width="2" x1="29.5" x2="3.5" y1="25.5" y2="25.5" /><path d="M27,82 c10.315,-1.308 21.903,-3.407 33,-6" fill="none" stroke="#000000" stroke-width="2" /><path d="M65,93 c13.622,-11.994 24.148,-33.818 29.009,-66.646" fill="none" stroke="#000000" stroke-width="2" /><path d="M96,93 c-14.293,-12.81 -23.819,-32.31 -28,-62.5" fill="none" stroke="#000000" stroke-width="2" /><path d="M17,6 v78.0 c0,7.575 -0.404,8 -4.5,8 c-1.832,0 -4.633,-0.139 -8.5,-0.5" fill="none" stroke="#000000" stroke-width="2" /><path d="M29.5,52 c-8.996,5.009 -17.373,8.534 -26,11" fill="none" stroke="#000000" stroke-width="2" /></svg>