<?xml version='1.0' encoding='utf-8'?>
<svg xmlns="http://www.w3.org/2000/svg" height="100px" version="1.0" viewBox="0 0 100 100" width="100px" x="0px" y="0px">
<line fill="none" stroke="#000000" stroke-width="2" x1="31" x2="4" y1="26" y2="26" /><line fill="none" stroke="#000000" stroke-width="2" x1="96" x2="32" y1="29" y2="29" /><line fill="none" stroke="#000000" stroke-width="2" x1="35.5" x2="90.5" y1="10" y2="10" /><line fill="none" stroke="#000000" stroke-width="2" x1="62.5" x2="62.5" y1="93.5" y2="51.5" /><line fill="none" stroke="#000000" stroke-width="2" x1="96" x2="29" y1="60.5" y2="60.5" /><path d="M18.5,6 v77.0 c0,7.683 -0.373,8 -5,8 c-2.246,0 -4.663,-0.119 -9,-0.5" fill="none" stroke="#000000" stroke-width="2" /><path d="M29,55 c-8.732,5.057 -16.799,8.562 -25,11" fill="none" stroke="#000000" stroke-width="2" /><path d="M28.5,51 c13.256,-5.356 25.456,-12.772 36.5,-22" fill="none" stroke="#000000" stroke-width="2" /><path d="M44,14.5 c7.423,3.989 15.211,8.916 23,14.5" fill="none" stroke="#000000" stroke-width="2" /><path d="M95.256,29.333 c-5.344,5.973 -11.624,11.11 -19.256,15.667" fill="none" stroke="#000000" stroke-width="2" /><path d="M27.5,89.5 c14.293,-7.034 26.23,-17.337 34,-29" fill="none" stroke="#000000" stroke-width="2" /><path d="M97.5,89.5 c-14.293,-7.035 -26.23,-17.337 -34,-29" fill="none" stroke="#000000" stroke-width="2" /><path d="M66,29 v17.25 c0,4.321 -0.813,5.25 -5.5,5.25 c-2.051,0 -6.934,-0.167 -12.5,-0.5" fill="none" stroke="#000000" stroke-width="2" /><path d="M89.916,10.188 c-8.427,6.069 -17.396,11.046 -27.916,15.312" fill="none" stroke="#000000" stroke-width="2" /></svg>