<?xml version='1.0' encoding='utf-8'?>
<svg xmlns="http://www.w3.org/2000/svg" height="100px" version="1.0" viewBox="0 0 100 100" width="100px" x="0px" y="0px">
<line fill="none" stroke="#000000" stroke-width="2" x1="29.5" x2="4.5" y1="25" y2="25" /><line fill="none" stroke="#000000" stroke-width="2" x1="35.5" x2="95" y1="89" y2="89" /><line fill="none" stroke="#000000" stroke-width="2" x1="92" x2="42" y1="63" y2="63" /><line fill="none" stroke="#000000" stroke-width="2" x1="65.5" x2="65.5" y1="89" y2="63" /><line fill="none" stroke="#000000" stroke-width="2" x1="30.5" x2="95" y1="48" y2="48" /><line fill="none" stroke="#000000" stroke-width="2" x1="35" x2="90.5" y1="32.5" y2="32.5" /><line fill="none" stroke="#000000" stroke-width="2" x1="32" x2="93.5" y1="18" y2="18" /><line fill="none" stroke="#000000" stroke-width="2" x1="63" x2="63" y1="48" y2="18" /><path d="M18.5,6 v78.0 c0,7.575 -0.404,8 -4.5,8 c-1.832,0 -4.633,-0.139 -8.5,-0.5" fill="none" stroke="#000000" stroke-width="2" /><path d="M28.5,50.5 c-8.305,5.009 -16.239,8.958 -24,12" fill="none" stroke="#000000" stroke-width="2" /><path d="M52.5,18 c-1.912,-4.979 -3.995,-9.85 -6,-14" fill="none" stroke="#000000" stroke-width="2" /><path d="M72.5,18 c2.266,-4.613 4.422,-9.644 6,-14" fill="none" stroke="#000000" stroke-width="2" /><path d="M23.5,91 c12.07,-11.585 19.893,-26.832 22,-43" fill="none" stroke="#000000" stroke-width="2" /></svg>