<?xml version='1.0' encoding='utf-8'?>
<svg xmlns="http://www.w3.org/2000/svg" height="100px" version="1.0" viewBox="0 0 100 100" width="100px" x="0px" y="0px">
<line fill="none" stroke="#000000" stroke-width="2" x1="29" x2="4" y1="26" y2="26" /><line fill="none" stroke="#000000" stroke-width="2" x1="36" x2="89" y1="87.5" y2="87.5" /><line fill="none" stroke="#000000" stroke-width="2" x1="36" x2="89" y1="69.5" y2="69.5" /><polyline fill="none" points="89,93.5 89,52.5 35,52.5 35,93.5" stroke="#000000" stroke-width="2" /><path d="M18,6 v78.0 c0,7.575 -0.404,8 -4.5,8 c-1.832,0 -4.633,-0.139 -8.5,-0.5" fill="none" stroke="#000000" stroke-width="2" /><path d="M29,49.5 c-8.65,5.009 -16.705,8.534 -25,11" fill="none" stroke="#000000" stroke-width="2" /><path d="M62,43 c-1.382,3.519 -2.994,6.552 -5,9.5" fill="none" stroke="#000000" stroke-width="2" /><path d="M27.5,38.5 c10.545,-2.875 19.276,-6.386 25.5,-10" fill="none" stroke="#000000" stroke-width="2" /><path d="M45.5,25 c-3.826,-3.028 -8.516,-6.409 -14,-10" fill="none" stroke="#000000" stroke-width="2" /><path d="M64,38.5 c10.545,-2.875 19.276,-6.386 25.5,-10" fill="none" stroke="#000000" stroke-width="2" /><path d="M82,25 c-3.826,-3.028 -8.516,-6.409 -14,-10" fill="none" stroke="#000000" stroke-width="2" /><path d="M63,10 h30.5 v30.5 c0,3.202 -0.281,3.5 -4.5,3.5 c-1.908,0 -6.843,-0.177 -12.5,-0.5" fill="none" stroke="#000000" stroke-width="2" /><path d="M26.5,10 h30.5 v30.5 c0,3.202 -0.281,3.5 -4.5,3.5 c-1.908,0 -6.843,-0.177 -12.5,-0.5" fill="none" stroke="#000000" stroke-width="2" /></svg>