<?xml version='1.0' encoding='utf-8'?>
<svg xmlns="http://www.w3.org/2000/svg" height="100px" version="1.0" viewBox="0 0 100 100" width="100px" x="0px" y="0px">
<line fill="none" stroke="#000000" stroke-width="2" x1="30" x2="4" y1="26" y2="26" /><line fill="none" stroke="#000000" stroke-width="2" x1="94" x2="26" y1="63.5" y2="63.5" /><line fill="none" stroke="#000000" stroke-width="2" x1="96" x2="24" y1="38.5" y2="38.5" /><line fill="none" stroke="#000000" stroke-width="2" x1="36" x2="94" y1="14.5" y2="14.5" /><line fill="none" stroke="#000000" stroke-width="2" x1="36" x2="36" y1="62.5" y2="15" /><line fill="none" stroke="#000000" stroke-width="2" x1="52" x2="52" y1="62.5" y2="15.5" /><line fill="none" stroke="#000000" stroke-width="2" x1="68.5" x2="68.5" y1="62.5" y2="15.5" /><line fill="none" stroke="#000000" stroke-width="2" x1="84.5" x2="84.5" y1="62.5" y2="15.5" /><path d="M18,6 v78.0 c0,7.575 -0.404,8 -4.5,8 c-1.832,0 -4.633,-0.139 -8.5,-0.5" fill="none" stroke="#000000" stroke-width="2" /><path d="M30,51 c-8.997,5.009 -17.374,8.534 -26,11" fill="none" stroke="#000000" stroke-width="2" /><path d="M94,92 c-3.324,-6.976 -7.255,-14.214 -12,-22" fill="none" stroke="#000000" stroke-width="2" /><path d="M73.75,92.5 c-2.014,-6.867 -4.541,-14.101 -7.75,-22" fill="none" stroke="#000000" stroke-width="2" /><path d="M53.5,93 c-0.703,-6.759 -1.827,-13.988 -3.5,-22" fill="none" stroke="#000000" stroke-width="2" /><path d="M26,92.5 c4.191,-6.205 8.172,-13.462 12,-22" fill="none" stroke="#000000" stroke-width="2" /><path d="M25.5,32.5 c6.479,-8.269 11.786,-18.753 15,-30" fill="none" stroke="#000000" stroke-width="2" /></svg>