<?xml version='1.0' encoding='utf-8'?>
<svg xmlns="http://www.w3.org/2000/svg" height="100px" version="1.0" viewBox="0 0 100 100" width="100px" x="0px" y="0px">
<line fill="none" stroke="#000000" stroke-width="2" x1="31" x2="4" y1="26" y2="26" /><line fill="none" stroke="#000000" stroke-width="2" x1="28" x2="96" y1="35" y2="35" /><line fill="none" stroke="#000000" stroke-width="2" x1="62" x2="62" y1="56" y2="11.5" /><line fill="none" stroke="#000000" stroke-width="2" x1="36" x2="36" y1="55" y2="93.5" /><line fill="none" stroke="#000000" stroke-width="2" x1="62" x2="62" y1="86.5" y2="57" /><line fill="none" stroke="#000000" stroke-width="2" x1="36" x2="88" y1="87.5" y2="87.5" /><line fill="none" stroke="#000000" stroke-width="2" x1="37" x2="88" y1="71.5" y2="71.5" /><polyline fill="none" points="88,93.5 88,56 37,56" stroke="#000000" stroke-width="2" /><path d="M18,6 v78.0 c0,7.575 -0.404,8 -4.5,8 c-1.832,0 -4.633,-0.139 -8.5,-0.5" fill="none" stroke="#000000" stroke-width="2" /><path d="M31,49 c-9.343,5.009 -18.042,8.534 -27,11" fill="none" stroke="#000000" stroke-width="2" /><path d="M49,31 c-3.102,-5.021 -6.604,-10.134 -10,-14.5" fill="none" stroke="#000000" stroke-width="2" /><path d="M75,31 c4.106,-5.511 7.746,-11.534 10,-16.5" fill="none" stroke="#000000" stroke-width="2" /><path d="M32.5,12.5 c20.486,0 40.225,-1.53 59,-4.5" fill="none" stroke="#000000" stroke-width="2" /><path d="M27.5,58 c16.248,-7.377 26.705,-14.878 33.5,-23" fill="none" stroke="#000000" stroke-width="2" /><path d="M96.5,58 c-16.248,-7.377 -26.705,-14.878 -33.5,-23" fill="none" stroke="#000000" stroke-width="2" /></svg>