<?xml version='1.0' encoding='utf-8'?>
<svg xmlns="http://www.w3.org/2000/svg" height="100px" version="1.0" viewBox="0 0 100 100" width="100px" x="0px" y="0px">
<line fill="none" stroke="#000000" stroke-width="2" x1="29.5" x2="4" y1="26" y2="26" /><line fill="none" stroke="#000000" stroke-width="2" x1="39.5" x2="83.5" y1="55.5" y2="55.5" /><line fill="none" stroke="#000000" stroke-width="2" x1="39.5" x2="83.5" y1="41.5" y2="41.5" /><polyline fill="none" points="92.5,36 92.5,18 29.5,18 29.5,36" stroke="#000000" stroke-width="2" /><polyline fill="none" points="39.5,70 83.5,70 83.5,28 38.5,28 38.5,71" stroke="#000000" stroke-width="2" /><path d="M18,6 v78.0 c0,7.575 -0.404,8 -4.5,8 c-1.832,0 -4.633,-0.139 -8.5,-0.5" fill="none" stroke="#000000" stroke-width="2" /><path d="M31,52 c-9.343,5.009 -18.042,8.534 -27,11" fill="none" stroke="#000000" stroke-width="2" /><path d="M45.5,18 c-2.492,-4.695 -5.227,-9.157 -8,-13" fill="none" stroke="#000000" stroke-width="2" /><path d="M63,18 c-2.476,-5.04 -5.239,-9.873 -8,-14" fill="none" stroke="#000000" stroke-width="2" /><path d="M76.5,18 c3.096,-4.696 5.846,-9.527 8,-14" fill="none" stroke="#000000" stroke-width="2" /><path d="M68.5,70 v17.0 c0,4.493 0.658,5 12,5 c11.787,0 11.987,-0.185 13,-22.5" fill="none" stroke="#000000" stroke-width="2" /><path d="M26.5,93.5 c17.012,-3.325 27.303,-12.682 28,-23.5" fill="none" stroke="#000000" stroke-width="2" /></svg>