<?xml version='1.0' encoding='utf-8'?>
<svg xmlns="http://www.w3.org/2000/svg" height="100px" version="1.0" viewBox="0 0 100 100" width="100px" x="0px" y="0px">
<line fill="none" stroke="#000000" stroke-width="2" x1="28" x2="3.5" y1="26" y2="26" /><line fill="none" stroke="#000000" stroke-width="2" x1="22" x2="51" y1="68.5" y2="63" /><line fill="none" stroke="#000000" stroke-width="2" x1="60" x2="60" y1="14.5" y2="4" /><line fill="none" stroke="#000000" stroke-width="2" x1="23.5" x2="96.5" y1="14.5" y2="14.5" /><line fill="none" stroke="#000000" stroke-width="2" x1="59" x2="59" y1="33.5" y2="94.5" /><line fill="none" stroke="#000000" stroke-width="2" x1="95" x2="59.5" y1="33" y2="33" /><line fill="none" stroke="#000000" stroke-width="2" x1="78" x2="78" y1="88.5" y2="33" /><line fill="none" stroke="#000000" stroke-width="2" x1="60" x2="96.5" y1="88.5" y2="88.5" /><line fill="none" stroke="#000000" stroke-width="2" x1="59" x2="93.5" y1="69.5" y2="69.5" /><line fill="none" stroke="#000000" stroke-width="2" x1="59" x2="93.5" y1="51" y2="51" /><path d="M15.5,6 v78.0 c0,7.672 -0.32,8 -3.5,8 c-1.691,0 -4.43,-0.151 -8,-0.5" fill="none" stroke="#000000" stroke-width="2" /><path d="M27.5,51 c-8.683,5.009 -15.775,8.271 -24,11" fill="none" stroke="#000000" stroke-width="2" /><path d="M27,67.5 c9.301,-10.728 17.752,-22.524 25,-35" fill="none" stroke="#000000" stroke-width="2" /><path d="M40,51 c-4.694,-5.82 -10.777,-12.88 -16,-18.5" fill="none" stroke="#000000" stroke-width="2" /><path d="M30,39 c4.68,-6.46 8.685,-12.86 12.5,-20" fill="none" stroke="#000000" stroke-width="2" /><path d="M24,93.5 c13.89,-8.189 25.507,-22.874 30,-38.5" fill="none" stroke="#000000" stroke-width="2" /><path d="M84,19 c-1.629,5.163 -3.601,9.714 -6,14" fill="none" stroke="#000000" stroke-width="2" /><path d="M48.5,52.5 c6.535,-8.925 11.609,-20.011 15,-33.5" fill="none" stroke="#000000" stroke-width="2" /></svg>