<?xml version='1.0' encoding='utf-8'?>
<svg xmlns="http://www.w3.org/2000/svg" height="100px" version="1.0" viewBox="0 0 100 100" width="100px" x="0px" y="0px">
<line fill="none" stroke="#000000" stroke-width="2" x1="29" x2="4" y1="25.5" y2="25.5" /><line fill="none" stroke="#000000" stroke-width="2" x1="40" x2="90.5" y1="65" y2="65" /><line fill="none" stroke="#000000" stroke-width="2" x1="40" x2="90.5" y1="54.5" y2="54.5" /><line fill="none" stroke="#000000" stroke-width="2" x1="38" x2="88" y1="22.5" y2="22.5" /><line fill="none" stroke="#000000" stroke-width="2" x1="63" x2="63" y1="12" y2="3" /><line fill="none" stroke="#000000" stroke-width="2" x1="63" x2="63" y1="38.5" y2="22.5" /><polyline fill="none" points="39,45 39,75.5 90.5,75.5 90.5,44 43,44" stroke="#000000" stroke-width="2" /><polyline fill="none" points="93,29 93,12 33,12 33,29" stroke="#000000" stroke-width="2" /><path d="M17.5,6 v78.0 c0,7.575 -0.404,8 -4.5,8 c-1.832,0 -4.633,-0.139 -8.5,-0.5" fill="none" stroke="#000000" stroke-width="2" /><path d="M31,53 c-9.343,5.009 -18.042,8.534 -27,11" fill="none" stroke="#000000" stroke-width="2" /><path d="M30.5,92.5 c10.76,-3.419 20.014,-8.134 25.5,-12.5" fill="none" stroke="#000000" stroke-width="2" /><path d="M95,93 c-6.573,-4.196 -15.622,-8.728 -25.5,-12.5" fill="none" stroke="#000000" stroke-width="2" /><path d="M32,38 c8.566,-2.892 15.762,-7.011 20,-11" fill="none" stroke="#000000" stroke-width="2" /><path d="M88.5,27 c-12.734,8.211 -31.598,14.978 -60.5,20" fill="none" stroke="#000000" stroke-width="2" /></svg>