<?xml version='1.0' encoding='utf-8'?>
<svg xmlns="http://www.w3.org/2000/svg" height="100px" version="1.0" viewBox="0 0 100 100" width="100px" x="0px" y="0px">
<line fill="none" stroke="#000000" stroke-width="2" x1="25" x2="3" y1="26" y2="26" /><line fill="none" stroke="#000000" stroke-width="2" x1="51" x2="71" y1="32.5" y2="32.5" /><line fill="none" stroke="#000000" stroke-width="2" x1="94.5" x2="25.5" y1="62" y2="62" /><line fill="none" stroke="#000000" stroke-width="2" x1="60.5" x2="60.5" y1="94" y2="51.5" /><line fill="none" stroke="#000000" stroke-width="2" x1="46.5" x2="24" y1="48.5" y2="51.5" /><line fill="none" stroke="#000000" stroke-width="2" x1="95" x2="73.5" y1="48.5" y2="51.5" /><polyline fill="none" points="51,51.5 71,51.5 71,15.5 50,15.5 50,52.5" stroke="#000000" stroke-width="2" /><path d="M16,6 v78.0 c0,7.575 -0.404,8 -4.5,8 c-1.832,0 -4.135,-0.122 -8,-0.5" fill="none" stroke="#000000" stroke-width="2" /><path d="M27,55 c-8.304,4.099 -16.037,6.983 -24,9" fill="none" stroke="#000000" stroke-width="2" /><path d="M62.5,4 c-1.16,4.222 -2.449,7.964 -4,11.5" fill="none" stroke="#000000" stroke-width="2" /><path d="M24,91 c17.264,-9.321 28.465,-18.798 35.5,-29" fill="none" stroke="#000000" stroke-width="2" /><path d="M96,91 c-16.752,-9.366 -27.664,-18.798 -34.5,-29" fill="none" stroke="#000000" stroke-width="2" /><path d="M28,24.5 c3.158,-5.858 5.949,-11.737 8.5,-18" fill="none" stroke="#000000" stroke-width="2" /><path d="M76.5,24.5 c3.158,-5.858 5.949,-11.737 8.5,-18" fill="none" stroke="#000000" stroke-width="2" /><path d="M84,37 c-3.093,-5.326 -7.088,-12.003 -10.5,-17.5" fill="none" stroke="#000000" stroke-width="2" /><path d="M35.5,37 c-3.093,-5.326 -7.088,-12.003 -10.5,-17.5" fill="none" stroke="#000000" stroke-width="2" /><path d="M28,51 c6.506,-11.231 12.447,-23.437 17.5,-36" fill="none" stroke="#000000" stroke-width="2" /><path d="M76.5,51 c6.506,-11.231 12.447,-23.437 17.5,-36" fill="none" stroke="#000000" stroke-width="2" /><path d="M97,56.5 c-1.689,-7.474 -4.243,-17.114 -6.5,-24.5" fill="none" stroke="#000000" stroke-width="2" /><path d="M48.5,56.5 c-1.689,-7.474 -4.243,-17.114 -6.5,-24.5" fill="none" stroke="#000000" stroke-width="2" /></svg>