<?xml version='1.0' encoding='utf-8'?>
<svg xmlns="http://www.w3.org/2000/svg" height="100px" version="1.0" viewBox="0 0 100 100" width="100px" x="0px" y="0px">
<line fill="none" stroke="#000000" stroke-width="2" x1="27.5" x2="27.5" y1="15" y2="4.5" /><line fill="none" stroke="#000000" stroke-width="2" x1="4.5" x2="50.5" y1="15" y2="15" /><line fill="none" stroke="#000000" stroke-width="2" x1="47.5" x2="7" y1="52" y2="52" /><line fill="none" stroke="#000000" stroke-width="2" x1="60.5" x2="96" y1="21" y2="21" /><polyline fill="none" points="11,42 45,42 45,24.5 10,24.5 10,43" stroke="#000000" stroke-width="2" /><path d="M3.5,71.5 c20.914,-0.576 37.951,-1.733 48,-3" fill="none" stroke="#000000" stroke-width="2" /><path d="M28.5,64 v19.5 c0,7.493 -0.55,8 -5.5,8 c-3.023,0 -6.738,-0.169 -11,-0.5" fill="none" stroke="#000000" stroke-width="2" /><path d="M46.832,52.255 c-5.996,5.362 -10.9,8.841 -18.332,12.745" fill="none" stroke="#000000" stroke-width="2" /><path d="M47.5,91 c25.566,-15.089 36.62,-32.429 40.5,-70" fill="none" stroke="#000000" stroke-width="2" /><path d="M95,91 c-19.975,-14.23 -29.11,-30.512 -32.5,-63" fill="none" stroke="#000000" stroke-width="2" /><path d="M50,49 c6.023,-11.971 11.155,-28.03 14,-44" fill="none" stroke="#000000" stroke-width="2" /></svg>