<?xml version='1.0' encoding='utf-8'?>
<svg xmlns="http://www.w3.org/2000/svg" height="100px" version="1.0" viewBox="0 0 100 100" width="100px" x="0px" y="0px">
<line fill="none" stroke="#000000" stroke-width="2" x1="2.5" x2="38.5" y1="21" y2="21" /><line fill="none" stroke="#000000" stroke-width="2" x1="21" x2="21" y1="21" y2="5" /><line fill="none" stroke="#000000" stroke-width="2" x1="38" x2="96.5" y1="27.5" y2="27.5" /><line fill="none" stroke="#000000" stroke-width="2" x1="60.5" x2="60.5" y1="33.5" y2="85.5" /><line fill="none" stroke="#000000" stroke-width="2" x1="44.5" x2="44.5" y1="44" y2="89" /><line fill="none" stroke="#000000" stroke-width="2" x1="70.5" x2="43.5" y1="13.5" y2="13.5" /><line fill="none" stroke="#000000" stroke-width="2" x1="76" x2="60.5" y1="52.5" y2="52.5" /><path d="M2.5,90 c17.196,-14.995 25.652,-34.566 27,-69" fill="none" stroke="#000000" stroke-width="2" /><path d="M6.5,33 c10.987,14.536 20.473,30.333 30,50" fill="none" stroke="#000000" stroke-width="2" /><path d="M77,4.5 c0,59.849 10.626,86.5 15,86.5 c1.917,0 3.995,-2.614 5.5,-23" fill="none" stroke="#000000" stroke-width="2" /><path d="M82,8.5 c4.041,3.437 8.211,7.608 12,12" fill="none" stroke="#000000" stroke-width="2" /><path d="M36.5,90.5 c17.733,-3.317 33.018,-7.906 42,-12" fill="none" stroke="#000000" stroke-width="2" /></svg>