<?xml version='1.0' encoding='utf-8'?>
<svg xmlns="http://www.w3.org/2000/svg" height="100px" version="1.0" viewBox="0 0 100 100" width="100px" x="0px" y="0px">
<line fill="none" stroke="#000000" stroke-width="2" x1="19.5" x2="19.5" y1="20" y2="4" /><line fill="none" stroke="#000000" stroke-width="2" x1="3.5" x2="36" y1="20" y2="20" /><line fill="none" stroke="#000000" stroke-width="2" x1="35.5" x2="96.5" y1="35" y2="35" /><line fill="none" stroke="#000000" stroke-width="2" x1="66" x2="66" y1="56" y2="11.5" /><line fill="none" stroke="#000000" stroke-width="2" x1="41.5" x2="41.5" y1="55" y2="93.5" /><line fill="none" stroke="#000000" stroke-width="2" x1="66" x2="66" y1="86.5" y2="57" /><line fill="none" stroke="#000000" stroke-width="2" x1="41.5" x2="90.5" y1="87.5" y2="87.5" /><line fill="none" stroke="#000000" stroke-width="2" x1="42.5" x2="90.5" y1="71.5" y2="71.5" /><polyline fill="none" points="90.5,93.5 90.5,56 42.5,56" stroke="#000000" stroke-width="2" /><path d="M3.5,92 c7.25,-14.518 10.5,-31.673 10.5,-71" fill="none" stroke="#000000" stroke-width="2" /><path d="M13.5,39 h18.5 c0,45.191 -2.747,51 -7.5,51 c-1.857,0 -5.945,-0.372 -10,-1" fill="none" stroke="#000000" stroke-width="2" /><path d="M54,31 c-3.102,-5.021 -6.604,-10.134 -10,-14.5" fill="none" stroke="#000000" stroke-width="2" /><path d="M78,31 c4.106,-5.511 7.746,-11.534 10,-16.5" fill="none" stroke="#000000" stroke-width="2" /><path d="M38,12.5 c19.098,0 37.498,-1.53 55,-4.5" fill="none" stroke="#000000" stroke-width="2" /><path d="M97,58 c-14.689,-7.622 -23.811,-14.878 -30,-23" fill="none" stroke="#000000" stroke-width="2" /><path d="M35,58 c14.689,-7.622 23.811,-14.878 30,-23" fill="none" stroke="#000000" stroke-width="2" /></svg>