<?xml version='1.0' encoding='utf-8'?>
<svg xmlns="http://www.w3.org/2000/svg" height="100px" version="1.0" viewBox="0 0 100 100" width="100px" x="0px" y="0px">
<line fill="none" stroke="#000000" stroke-width="2" x1="94.5" x2="47" y1="14" y2="14" /><line fill="none" stroke="#000000" stroke-width="2" x1="21.5" x2="21.5" y1="20" y2="4" /><line fill="none" stroke="#000000" stroke-width="2" x1="3.5" x2="39.5" y1="20" y2="20" /><line fill="none" stroke="#000000" stroke-width="2" x1="39.5" x2="95.5" y1="42" y2="42" /><line fill="none" stroke="#000000" stroke-width="2" x1="67.5" x2="67.5" y1="59.5" y2="23.5" /><line fill="none" stroke="#000000" stroke-width="2" x1="44" x2="44" y1="58.5" y2="94" /><line fill="none" stroke="#000000" stroke-width="2" x1="67.5" x2="67.5" y1="88" y2="60.5" /><line fill="none" stroke="#000000" stroke-width="2" x1="44" x2="91" y1="89" y2="89" /><line fill="none" stroke="#000000" stroke-width="2" x1="45" x2="91" y1="74" y2="74" /><polyline fill="none" points="91,94 91,59.5 45,59.5" stroke="#000000" stroke-width="2" /><path d="M33.5,33 c7.529,-7.806 13.897,-18.263 17.5,-29" fill="none" stroke="#000000" stroke-width="2" /><path d="M3.5,92 c8.286,-14.518 12,-31.673 12,-71" fill="none" stroke="#000000" stroke-width="2" /><path d="M15,39 h20.0 c0,45.82 -2.874,51 -8,51 c-2.062,0 -6.498,-0.386 -11,-1" fill="none" stroke="#000000" stroke-width="2" /><path d="M44.5,24 c17.014,0 33.408,-1.19 49,-3.5" fill="none" stroke="#000000" stroke-width="2" /><path d="M56,42 c-2.791,-4.675 -5.943,-9.435 -9,-13.5" fill="none" stroke="#000000" stroke-width="2" /><path d="M79,42 c3.696,-5.178 6.972,-10.835 9,-15.5" fill="none" stroke="#000000" stroke-width="2" /><path d="M38,61.5 c14.065,-6.255 23.118,-12.614 29,-19.5" fill="none" stroke="#000000" stroke-width="2" /><path d="M97,61.5 c-14.066,-6.255 -23.118,-12.614 -29,-19.5" fill="none" stroke="#000000" stroke-width="2" /></svg>