<?xml version='1.0' encoding='utf-8'?>
<svg xmlns="http://www.w3.org/2000/svg" height="100px" version="1.0" viewBox="0 0 100 100" width="100px" x="0px" y="0px">
<line fill="none" stroke="#000000" stroke-width="2" x1="10" x2="30" y1="45" y2="45" /><line fill="none" stroke="#000000" stroke-width="2" x1="64" x2="64" y1="44" y2="6" /><line fill="none" stroke="#000000" stroke-width="2" x1="94" x2="35" y1="44" y2="44" /><polyline fill="none" points="10,83 31,83 31,12 9,12 9,91" stroke="#000000" stroke-width="2" /><path d="M51,38 c-4.62,-8.891 -9.654,-17.59 -14.5,-25" fill="none" stroke="#000000" stroke-width="2" /><path d="M77,38 c5.859,-7.912 11.115,-16.987 14.5,-25" fill="none" stroke="#000000" stroke-width="2" /><path d="M71.5,44 v38.0 c0,6.474 0.484,7 10.5,7 c11.251,0 11.482,-0.227 12,-28" fill="none" stroke="#000000" stroke-width="2" /><path d="M30,90.5 c17.482,-7.099 23.5,-17.663 23.5,-46.5" fill="none" stroke="#000000" stroke-width="2" /></svg>