<?xml version='1.0' encoding='utf-8'?>
<svg xmlns="http://www.w3.org/2000/svg" height="100px" version="1.0" viewBox="0 0 100 100" width="100px" x="0px" y="0px">
<line fill="none" stroke="#000000" stroke-width="2" x1="21.5" x2="21.5" y1="94" y2="6" /><line fill="none" stroke="#000000" stroke-width="2" x1="36.5" x2="5" y1="26" y2="26" /><polyline fill="none" points="43,38.5 89,38.5 89,10.5 42,10.5 42,39.5" stroke="#000000" stroke-width="2" /><path d="M3.5,73 c8.406,-15.363 14.009,-30.544 17.5,-47.5" fill="none" stroke="#000000" stroke-width="2" /><path d="M36.5,61 c-4.582,-11.04 -9.738,-22.734 -15,-34" fill="none" stroke="#000000" stroke-width="2" /><path d="M32,92 c16.484,-5.845 27.279,-20.38 28,-41" fill="none" stroke="#000000" stroke-width="2" /><path d="M38,51 h53.0 c0,34.741 -3.209,40 -9.5,40 c-3.05,0 -10.574,-0.46 -15.5,-1" fill="none" stroke="#000000" stroke-width="2" /></svg>