<?xml version='1.0' encoding='utf-8'?>
<svg xmlns="http://www.w3.org/2000/svg" height="100px" version="1.0" viewBox="0 0 100 100" width="100px" x="0px" y="0px">
<line fill="none" stroke="#000000" stroke-width="2" x1="20.5" x2="20.5" y1="94" y2="6" /><line fill="none" stroke="#000000" stroke-width="2" x1="32.5" x2="4.5" y1="25.5" y2="25.5" /><line fill="none" stroke="#000000" stroke-width="2" x1="65" x2="65" y1="16" y2="4" /><polyline fill="none" points="93,34 93,16 37,16 37,34" stroke="#000000" stroke-width="2" /><path d="M3.5,69.5 c7.954,-14.471 13.176,-28.562 16.5,-44.5" fill="none" stroke="#000000" stroke-width="2" /><path d="M33.5,58.5 c-3.983,-10.331 -8.283,-21.329 -12.5,-32" fill="none" stroke="#000000" stroke-width="2" /><path d="M45.5,24.5 V79.0 c0,10.958 0.781,11.5 21.5,11.5 c23.571,0 23.831,-0.208 25.5,-25" fill="none" stroke="#000000" stroke-width="2" /><path d="M45.5,59 c14.471,-5.243 27.771,-12.728 42.5,-24" fill="none" stroke="#000000" stroke-width="2" /></svg>