<?xml version='1.0' encoding='utf-8'?>
<svg xmlns="http://www.w3.org/2000/svg" height="100px" version="1.0" viewBox="0 0 100 100" width="100px" x="0px" y="0px">
<line fill="none" stroke="#000000" stroke-width="2" x1="18.5" x2="18.5" y1="94" y2="6" /><line fill="none" stroke="#000000" stroke-width="2" x1="31" x2="4.5" y1="26" y2="26" /><line fill="none" stroke="#000000" stroke-width="2" x1="29.5" x2="96.5" y1="35" y2="35" /><line fill="none" stroke="#000000" stroke-width="2" x1="44.5" x2="95.5" y1="50" y2="50" /><line fill="none" stroke="#000000" stroke-width="2" x1="82" x2="35.5" y1="16" y2="16" /><line fill="none" stroke="#000000" stroke-width="2" x1="59" x2="59" y1="35" y2="5.5" /><path d="M3.5,70 c6.99,-14.471 11.578,-28.562 14.5,-44.5" fill="none" stroke="#000000" stroke-width="2" /><path d="M29,52 c-3.031,-8.497 -6.271,-16.653 -10,-25" fill="none" stroke="#000000" stroke-width="2" /><path d="M25.5,58 c29.275,-10.377 52.933,-27.732 67,-48" fill="none" stroke="#000000" stroke-width="2" /><path d="M44,50 c-1.892,9.032 -4.967,19.32 -8,27" fill="none" stroke="#000000" stroke-width="2" /><path d="M40,65 h49.0 c-2.729,24.802 -4.221,26.5 -10.5,26.5 c-3.396,0 -11.883,-0.451 -18.5,-1" fill="none" stroke="#000000" stroke-width="2" /></svg>