<?xml version='1.0' encoding='utf-8'?>
<svg xmlns="http://www.w3.org/2000/svg" height="100px" version="1.0" viewBox="0 0 100 100" width="100px" x="0px" y="0px">
<line fill="none" stroke="#000000" stroke-width="2" x1="22.5" x2="22.5" y1="94" y2="6" /><line fill="none" stroke="#000000" stroke-width="2" x1="37.5" x2="5" y1="26" y2="26" /><line fill="none" stroke="#000000" stroke-width="2" x1="34" x2="93" y1="12" y2="12" /><line fill="none" stroke="#000000" stroke-width="2" x1="92" x2="36" y1="61.5" y2="61.5" /><line fill="none" stroke="#000000" stroke-width="2" x1="96" x2="30.5" y1="88.5" y2="88.5" /><line fill="none" stroke="#000000" stroke-width="2" x1="64" x2="64" y1="88.5" y2="46" /><path d="M35.5,57 c-3.904,-9.768 -8.369,-20.086 -13,-30" fill="none" stroke="#000000" stroke-width="2" /><path d="M3,73 c9.127,-15.363 15.211,-30.544 19,-47.5" fill="none" stroke="#000000" stroke-width="2" /><path d="M94.5,49 c-4.738,-8.726 -11.973,-19.695 -18.5,-28" fill="none" stroke="#000000" stroke-width="2" /><path d="M35.5,43.5 c15.562,-1.29 33.703,-3.927 51.5,-7.5" fill="none" stroke="#000000" stroke-width="2" /><path d="M45.5,42.5 c4.354,-9.094 8.44,-19.003 12.5,-30.5" fill="none" stroke="#000000" stroke-width="2" /></svg>