<?xml version='1.0' encoding='utf-8'?>
<svg xmlns="http://www.w3.org/2000/svg" height="100px" version="1.0" viewBox="0 0 100 100" width="100px" x="0px" y="0px">
<line fill="none" stroke="#000000" stroke-width="2" x1="18.5" x2="18.5" y1="94" y2="6" /><line fill="none" stroke="#000000" stroke-width="2" x1="31" x2="4.5" y1="26" y2="26" /><line fill="none" stroke="#000000" stroke-width="2" x1="97" x2="27" y1="70.5" y2="70.5" /><line fill="none" stroke="#000000" stroke-width="2" x1="37.5" x2="94.5" y1="49.5" y2="49.5" /><line fill="none" stroke="#000000" stroke-width="2" x1="69" x2="69" y1="94" y2="33.5" /><path d="M3.5,70 c6.99,-14.471 11.578,-28.562 14.5,-44.5" fill="none" stroke="#000000" stroke-width="2" /><path d="M29,52 c-3.031,-8.497 -6.271,-16.653 -10,-25" fill="none" stroke="#000000" stroke-width="2" /><path d="M95.5,35.5 c-5.342,-6.834 -13.076,-15.397 -20,-22" fill="none" stroke="#000000" stroke-width="2" /><path d="M31,31 c16.916,-0.437 38.215,-1.921 57.5,-4" fill="none" stroke="#000000" stroke-width="2" /><path d="M41,30.5 c5.598,-7.271 11.248,-16.259 16,-25.5" fill="none" stroke="#000000" stroke-width="2" /><path d="M28,64 c6.478,-7.718 11.781,-17.515 15,-28" fill="none" stroke="#000000" stroke-width="2" /></svg>