<?xml version='1.0' encoding='utf-8'?>
<svg xmlns="http://www.w3.org/2000/svg" height="100px" version="1.0" viewBox="0 0 100 100" width="100px" x="0px" y="0px">
<line fill="none" stroke="#000000" stroke-width="2" x1="33" x2="93" y1="88" y2="88" /><line fill="none" stroke="#000000" stroke-width="2" x1="17" x2="17" y1="94" y2="6" /><line fill="none" stroke="#000000" stroke-width="2" x1="28.5" x2="3" y1="25.5" y2="25.5" /><line fill="none" stroke="#000000" stroke-width="2" x1="62.5" x2="62.5" y1="83" y2="15" /><line fill="none" stroke="#000000" stroke-width="2" x1="87.5" x2="37.5" y1="31" y2="31" /><polyline fill="none" points="93,94 93,10 32,10 32,94" stroke="#000000" stroke-width="2" /><path d="M2,69.5 c6.99,-14.471 11.578,-28.562 14.5,-44.5" fill="none" stroke="#000000" stroke-width="2" /><path d="M27.5,52.5 c-3.111,-8.549 -6.541,-17.435 -10,-26" fill="none" stroke="#000000" stroke-width="2" /><path d="M36.5,73.5 c11.313,-12.933 19.941,-27.794 25,-43" fill="none" stroke="#000000" stroke-width="2" /><path d="M88.5,73.5 c-11.313,-12.933 -19.941,-27.794 -25,-43" fill="none" stroke="#000000" stroke-width="2" /></svg>