<?xml version='1.0' encoding='utf-8'?>
<svg xmlns="http://www.w3.org/2000/svg" height="100px" version="1.0" viewBox="0 0 100 100" width="100px" x="0px" y="0px">
<line fill="none" stroke="#000000" stroke-width="2" x1="19" x2="19" y1="94" y2="6" /><line fill="none" stroke="#000000" stroke-width="2" x1="32.5" x2="4" y1="26" y2="26" /><line fill="none" stroke="#000000" stroke-width="2" x1="31" x2="95.5" y1="44" y2="44" /><line fill="none" stroke="#000000" stroke-width="2" x1="94" x2="33" y1="13" y2="13" /><line fill="none" stroke="#000000" stroke-width="2" x1="91" x2="36" y1="28" y2="28" /><line fill="none" stroke="#000000" stroke-width="2" x1="95" x2="32" y1="61.5" y2="61.5" /><path d="M3,70 c7.473,-14.471 12.377,-28.562 15.5,-44.5" fill="none" stroke="#000000" stroke-width="2" /><path d="M31,59 c-3.664,-10.331 -7.621,-21.329 -11.5,-32" fill="none" stroke="#000000" stroke-width="2" /><path d="M31,86 c16.037,-15.329 28.951,-47.116 31,-83" fill="none" stroke="#000000" stroke-width="2" /><path d="M66.5,85 c-3.916,-5.855 -9.374,-12.482 -15,-18" fill="none" stroke="#000000" stroke-width="2" /><path d="M84,44 v40.5 c0,6.414 -0.625,7 -6,7 c-1.853,0 -6.696,-0.169 -12.5,-0.5" fill="none" stroke="#000000" stroke-width="2" /></svg>