<?xml version='1.0' encoding='utf-8'?>
<svg xmlns="http://www.w3.org/2000/svg" height="100px" version="1.0" viewBox="0 0 100 100" width="100px" x="0px" y="0px">
<line fill="none" stroke="#000000" stroke-width="2" x1="17.5" x2="17.5" y1="94" y2="6" /><line fill="none" stroke="#000000" stroke-width="2" x1="29.5" x2="3.5" y1="26" y2="26" /><line fill="none" stroke="#000000" stroke-width="2" x1="53.5" x2="53.5" y1="41" y2="91" /><line fill="none" stroke="#000000" stroke-width="2" x1="72.5" x2="72.5" y1="41" y2="91" /><line fill="none" stroke="#000000" stroke-width="2" x1="35.5" x2="91.5" y1="63.5" y2="63.5" /><line fill="none" stroke="#000000" stroke-width="2" x1="84" x2="42" y1="28" y2="28" /><path d="M2.5,70 c6.99,-14.471 11.578,-28.562 14.5,-44.5" fill="none" stroke="#000000" stroke-width="2" /><path d="M28.5,57 c-3.268,-9.864 -6.852,-20.124 -10.5,-30" fill="none" stroke="#000000" stroke-width="2" /><path d="M79.5,90.5 c4.475,0.375 6.805,0.5 8,0.5 c3.477,0 4,-0.672 4,-8 v-42.0 h-57.0 v52.0" fill="none" stroke="#000000" stroke-width="2" /><path d="M97,33 c-12.748,-8.155 -23.514,-16.672 -34,-26.8 c-10.486,10.128 -21.25,18.645 -34,26.8" fill="none" stroke="#000000" stroke-width="2" /></svg>