<?xml version='1.0' encoding='utf-8'?>
<svg xmlns="http://www.w3.org/2000/svg" height="100px" version="1.0" viewBox="0 0 100 100" width="100px" x="0px" y="0px">
<line fill="none" stroke="#000000" stroke-width="2" x1="20.5" x2="20.5" y1="94" y2="6" /><line fill="none" stroke="#000000" stroke-width="2" x1="32.5" x2="4.5" y1="26.5" y2="26.5" /><line fill="none" stroke="#000000" stroke-width="2" x1="44.5" x2="89" y1="86.5" y2="86.5" /><line fill="none" stroke="#000000" stroke-width="2" x1="64.5" x2="64.5" y1="13.5" y2="3.5" /><polyline fill="none" points="44.5,48 85.5,48 85.5,25.5 43.5,25.5 43.5,93.5" stroke="#000000" stroke-width="2" /><polyline fill="none" points="90,93.5 90,60 44.5,60" stroke="#000000" stroke-width="2" /><polyline fill="none" points="93,32.5 93,14.5 37,14.5 37,32.5" stroke="#000000" stroke-width="2" /><path d="M3.5,70.5 c7.954,-14.471 13.176,-28.562 16.5,-44.5" fill="none" stroke="#000000" stroke-width="2" /><path d="M35,59.5 c-4.426,-10.347 -9.277,-21.329 -14,-32" fill="none" stroke="#000000" stroke-width="2" /></svg>