<?xml version='1.0' encoding='utf-8'?>
<svg xmlns="http://www.w3.org/2000/svg" height="100px" version="1.0" viewBox="0 0 100 100" width="100px" x="0px" y="0px">
<line fill="none" stroke="#000000" stroke-width="2" x1="19.5" x2="19.5" y1="94" y2="6" /><line fill="none" stroke="#000000" stroke-width="2" x1="32.5" x2="4.5" y1="26" y2="26" /><line fill="none" stroke="#000000" stroke-width="2" x1="28.5" x2="96.5" y1="70.5" y2="70.5" /><line fill="none" stroke="#000000" stroke-width="2" x1="62.5" x2="62.5" y1="14.5" y2="4" /><line fill="none" stroke="#000000" stroke-width="2" x1="29" x2="96" y1="14.5" y2="14.5" /><line fill="none" stroke="#000000" stroke-width="2" x1="91" x2="35" y1="52.5" y2="52.5" /><polyline fill="none" points="39.5,42.5 86.5,42.5 86.5,24 38.5,24 38.5,43.5" stroke="#000000" stroke-width="2" /><path d="M3.5,70 c7.473,-14.471 12.377,-28.562 15.5,-44.5" fill="none" stroke="#000000" stroke-width="2" /><path d="M31.5,59 c-3.664,-10.331 -7.621,-21.329 -11.5,-32" fill="none" stroke="#000000" stroke-width="2" /><path d="M65,63.5 v21.0 c0,6.671 -0.74,7.5 -7,7.5 c-3.405,0 -7.934,-0.142 -13,-0.5" fill="none" stroke="#000000" stroke-width="2" /><path d="M90.443,52.67 c-7.52,5.038 -15.342,8.734 -25.443,11.83" fill="none" stroke="#000000" stroke-width="2" /></svg>