<?xml version='1.0' encoding='utf-8'?>
<svg xmlns="http://www.w3.org/2000/svg" height="100px" version="1.0" viewBox="0 0 100 100" width="100px" x="0px" y="0px">
<line fill="none" stroke="#000000" stroke-width="2" x1="19" x2="19" y1="94" y2="6" /><line fill="none" stroke="#000000" stroke-width="2" x1="32.5" x2="4" y1="25.5" y2="25.5" /><line fill="none" stroke="#000000" stroke-width="2" x1="40" x2="89" y1="76" y2="76" /><line fill="none" stroke="#000000" stroke-width="2" x1="40" x2="89" y1="63" y2="63" /><line fill="none" stroke="#000000" stroke-width="2" x1="94.5" x2="42.5" y1="40" y2="40" /><line fill="none" stroke="#000000" stroke-width="2" x1="68" x2="68" y1="25" y2="40" /><line fill="none" stroke="#000000" stroke-width="2" x1="45.5" x2="91.5" y1="25" y2="25" /><line fill="none" stroke="#000000" stroke-width="2" x1="94" x2="31" y1="13.5" y2="13.5" /><path d="M3,69.5 c7.18,-14.333 11.977,-28.24 15,-44" fill="none" stroke="#000000" stroke-width="2" /><path d="M32,52 c-3.941,-8.454 -8.141,-17.038 -12.5,-25.5" fill="none" stroke="#000000" stroke-width="2" /><path d="M39,93 v-43.0 h50.0 v36.96 c0,4.303 -0.299,4.54 -7,4.54 c-2.265,0 -5.941,-0.159 -12.5,-0.5" fill="none" stroke="#000000" stroke-width="2" /><path d="M33,46 c9.379,-10.989 15.502,-25.204 18,-42" fill="none" stroke="#000000" stroke-width="2" /></svg>