<?xml version='1.0' encoding='utf-8'?>
<svg xmlns="http://www.w3.org/2000/svg" height="100px" version="1.0" viewBox="0 0 100 100" width="100px" x="0px" y="0px">
<line fill="none" stroke="#000000" stroke-width="2" x1="20" x2="20" y1="94" y2="6" /><line fill="none" stroke="#000000" stroke-width="2" x1="34" x2="4" y1="25.5" y2="25.5" /><line fill="none" stroke="#000000" stroke-width="2" x1="37.5" x2="61" y1="21" y2="21" /><line fill="none" stroke="#000000" stroke-width="2" x1="37.5" x2="37.5" y1="43" y2="7.5" /><line fill="none" stroke="#000000" stroke-width="2" x1="38" x2="89.5" y1="87" y2="87" /><line fill="none" stroke="#000000" stroke-width="2" x1="38" x2="89.5" y1="68.5" y2="68.5" /><polyline fill="none" points="89.5,93 89.5,51.5 37,51.5 37,93" stroke="#000000" stroke-width="2" /><path d="M3,69.5 c7.954,-14.471 13.176,-28.562 16.5,-44.5" fill="none" stroke="#000000" stroke-width="2" /><path d="M31,58.5 c-3.197,-10.43 -6.789,-21.329 -10.5,-32" fill="none" stroke="#000000" stroke-width="2" /><path d="M66.5,7.5 v30.0 c0,4.886 0.127,5 12,5 c13.652,0 13.89,-0.227 15,-17" fill="none" stroke="#000000" stroke-width="2" /><path d="M66.5,23.5 c9.05,-2.438 17.237,-5.827 26.5,-11" fill="none" stroke="#000000" stroke-width="2" /><path d="M30,44.5 c10.702,-1.652 20.96,-4.222 32,-8" fill="none" stroke="#000000" stroke-width="2" /><path d="M62.5,42 c-1.52,3.519 -3.293,6.552 -5.5,9.5" fill="none" stroke="#000000" stroke-width="2" /></svg>