<?xml version='1.0' encoding='utf-8'?>
<svg xmlns="http://www.w3.org/2000/svg" height="100px" version="1.0" viewBox="0 0 100 100" width="100px" x="0px" y="0px">
<line fill="none" stroke="#000000" stroke-width="2" x1="95.5" x2="33.5" y1="56" y2="56" /><line fill="none" stroke="#000000" stroke-width="2" x1="19" x2="19" y1="94" y2="6" /><line fill="none" stroke="#000000" stroke-width="2" x1="30.5" x2="4" y1="26" y2="26" /><line fill="none" stroke="#000000" stroke-width="2" x1="63.5" x2="63.5" y1="48.5" y2="5" /><line fill="none" stroke="#000000" stroke-width="2" x1="95.5" x2="33.5" y1="26" y2="26" /><path d="M27,91.5 c27.314,-4.183 48.417,-18.511 56.5,-35.5" fill="none" stroke="#000000" stroke-width="2" /><path d="M57,45 c-5.722,11.144 -13.25,21.38 -23,31" fill="none" stroke="#000000" stroke-width="2" /><path d="M38.5,71.5 c18.966,3.981 34.717,9.976 55,21" fill="none" stroke="#000000" stroke-width="2" /><path d="M3,70 c7.473,-14.471 12.377,-28.562 15.5,-44.5" fill="none" stroke="#000000" stroke-width="2" /><path d="M31,59 c-3.664,-10.331 -7.621,-21.329 -11.5,-32" fill="none" stroke="#000000" stroke-width="2" /><path d="M51,22 c-4.764,-4.995 -9.986,-9.862 -15,-14" fill="none" stroke="#000000" stroke-width="2" /><path d="M76,22 c6.02,-4.448 11.412,-9.551 15,-14" fill="none" stroke="#000000" stroke-width="2" /><path d="M30.5,47.5 c15.354,-6.866 25.48,-14.015 32,-21.5" fill="none" stroke="#000000" stroke-width="2" /><path d="M96,47.5 c-15.088,-6.864 -25.09,-14.011 -31.5,-21.5" fill="none" stroke="#000000" stroke-width="2" /></svg>