<?xml version='1.0' encoding='utf-8'?>
<svg xmlns="http://www.w3.org/2000/svg" height="100px" version="1.0" viewBox="0 0 100 100" width="100px" x="0px" y="0px">
<line fill="none" stroke="#000000" stroke-width="2" x1="19" x2="19" y1="94" y2="6" /><line fill="none" stroke="#000000" stroke-width="2" x1="33" x2="4" y1="26" y2="26" /><line fill="none" stroke="#000000" stroke-width="2" x1="37" x2="95" y1="89" y2="89" /><line fill="none" stroke="#000000" stroke-width="2" x1="92" x2="43.5" y1="63" y2="63" /><line fill="none" stroke="#000000" stroke-width="2" x1="66" x2="66" y1="89" y2="63" /><line fill="none" stroke="#000000" stroke-width="2" x1="32" x2="95" y1="48" y2="48" /><line fill="none" stroke="#000000" stroke-width="2" x1="36.5" x2="90.5" y1="32.5" y2="32.5" /><line fill="none" stroke="#000000" stroke-width="2" x1="33.5" x2="93.5" y1="18" y2="18" /><line fill="none" stroke="#000000" stroke-width="2" x1="63.5" x2="63.5" y1="48" y2="18" /><path d="M3,70 c7.473,-14.471 12.377,-28.562 15.5,-44.5" fill="none" stroke="#000000" stroke-width="2" /><path d="M31,59 c-3.664,-10.331 -7.621,-21.329 -11.5,-32" fill="none" stroke="#000000" stroke-width="2" /><path d="M53,18 c-1.912,-4.979 -3.995,-9.85 -6,-14" fill="none" stroke="#000000" stroke-width="2" /><path d="M73,18 c2.266,-4.613 4.422,-9.644 6,-14" fill="none" stroke="#000000" stroke-width="2" /><path d="M25,91 c12.07,-11.585 19.893,-26.832 22,-43" fill="none" stroke="#000000" stroke-width="2" /></svg>