<?xml version='1.0' encoding='utf-8'?>
<svg xmlns="http://www.w3.org/2000/svg" height="100px" version="1.0" viewBox="0 0 100 100" width="100px" x="0px" y="0px">
<line fill="none" stroke="#000000" stroke-width="2" x1="38.5" x2="62.5" y1="32.5" y2="32.5" /><line fill="none" stroke="#000000" stroke-width="2" x1="92" x2="8" y1="62" y2="62" /><line fill="none" stroke="#000000" stroke-width="2" x1="50" x2="50" y1="94" y2="51.5" /><line fill="none" stroke="#000000" stroke-width="2" x1="33.5" x2="6" y1="48.5" y2="51.5" /><line fill="none" stroke="#000000" stroke-width="2" x1="93" x2="65.5" y1="48.5" y2="51.5" /><polyline fill="none" points="38.5,51.5 62.5,51.5 62.5,15.5 37.5,15.5 37.5,52.5" stroke="#000000" stroke-width="2" /><path d="M52,4 c-1.16,4.222 -2.449,7.964 -4,11.5" fill="none" stroke="#000000" stroke-width="2" /><path d="M6,91 c20.882,-9.203 34.523,-18.798 43,-29" fill="none" stroke="#000000" stroke-width="2" /><path d="M94,91 c-20.882,-9.203 -34.523,-18.798 -43,-29" fill="none" stroke="#000000" stroke-width="2" /><path d="M10.5,24.5 c3.717,-5.858 6.994,-11.739 10,-18" fill="none" stroke="#000000" stroke-width="2" /><path d="M20,37 c-3.977,-5.326 -9.113,-12.003 -13.5,-17.5" fill="none" stroke="#000000" stroke-width="2" /><path d="M11,51 c7.807,-11.231 14.937,-23.437 21,-36" fill="none" stroke="#000000" stroke-width="2" /><path d="M36,56.5 c-2.121,-7.466 -5.223,-17.114 -8,-24.5" fill="none" stroke="#000000" stroke-width="2" /><path d="M70,24.478 c3.717,-5.851 6.988,-11.727 10,-17.978" fill="none" stroke="#000000" stroke-width="2" /><path d="M79.5,37 c-3.977,-5.326 -9.113,-12.003 -13.5,-17.5" fill="none" stroke="#000000" stroke-width="2" /><path d="M70.5,51 c7.807,-11.231 14.937,-23.437 21,-36" fill="none" stroke="#000000" stroke-width="2" /><path d="M95.5,56.5 c-2.121,-7.466 -5.223,-17.114 -8,-24.5" fill="none" stroke="#000000" stroke-width="2" /></svg>