<?xml version='1.0' encoding='utf-8'?>
<svg xmlns="http://www.w3.org/2000/svg" height="100px" version="1.0" viewBox="0 0 100 100" width="100px" x="0px" y="0px">
<line fill="none" stroke="#000000" stroke-width="2" x1="17.5" x2="17.5" y1="94" y2="6" /><line fill="none" stroke="#000000" stroke-width="2" x1="29.5" x2="3.5" y1="26" y2="26" /><line fill="none" stroke="#000000" stroke-width="2" x1="46" x2="90" y1="58" y2="58" /><line fill="none" stroke="#000000" stroke-width="2" x1="46" x2="90" y1="41" y2="41" /><line fill="none" stroke="#000000" stroke-width="2" x1="43" x2="91" y1="10" y2="10" /><line fill="none" stroke="#000000" stroke-width="2" x1="67.5" x2="67.5" y1="25" y2="79" /><polyline fill="none" points="35,75 35,45 24.5,45" stroke="#000000" stroke-width="2" /><path d="M2.5,70 c6.99,-14.471 11.578,-28.562 14.5,-44.5" fill="none" stroke="#000000" stroke-width="2" /><path d="M27,53 c-2.801,-8.549 -5.887,-17.435 -9,-26" fill="none" stroke="#000000" stroke-width="2" /><path d="M25.5,10 c4.854,5.446 8.812,10.632 13,17" fill="none" stroke="#000000" stroke-width="2" /><path d="M22,92 c6.461,-5.942 10.25,-10.983 13,-17" fill="none" stroke="#000000" stroke-width="2" /><path d="M93.5,90 H65.0 c-17.881,0 -25.143,-3.961 -30,-15" fill="none" stroke="#000000" stroke-width="2" /><path d="M45,80 v-55.0 h45.0 v46.0 c0,6.808 -0.508,7.5 -5,7.5 c-1.626,0 -4.68,-0.138 -9.5,-0.5" fill="none" stroke="#000000" stroke-width="2" /><path d="M52,15 c5.135,3.012 10.416,6.293 16,10" fill="none" stroke="#000000" stroke-width="2" /><path d="M90.34,10.248 c-4.164,3.658 -14.385,10.147 -22.84,14.252" fill="none" stroke="#000000" stroke-width="2" /></svg>