<?xml version='1.0' encoding='utf-8'?>
<svg xmlns="http://www.w3.org/2000/svg" height="100px" version="1.0" viewBox="0 0 100 100" width="100px" x="0px" y="0px">
<line fill="none" stroke="#000000" stroke-width="2" x1="19.5" x2="19.5" y1="94" y2="6" /><line fill="none" stroke="#000000" stroke-width="2" x1="31.5" x2="4.5" y1="26" y2="26" /><line fill="none" stroke="#000000" stroke-width="2" x1="36" x2="90.5" y1="49" y2="49" /><line fill="none" stroke="#000000" stroke-width="2" x1="29" x2="96" y1="14" y2="14" /><line fill="none" stroke="#000000" stroke-width="2" x1="96" x2="29" y1="70.5" y2="70.5" /><polyline fill="none" points="36,60 90.5,60 90.5,24.5 35,24.5 35,61" stroke="#000000" stroke-width="2" /><path d="M3.5,70 c7.473,-14.471 12.377,-28.562 15.5,-44.5" fill="none" stroke="#000000" stroke-width="2" /><path d="M31.5,59 c-3.664,-10.331 -7.621,-21.329 -11.5,-32" fill="none" stroke="#000000" stroke-width="2" /><path d="M54,15 v10.5 c0,9.507 -4.948,15.7 -15.5,19" fill="none" stroke="#000000" stroke-width="2" /><path d="M68,14 v19.5 c0,5.782 0.79,6.5 8.5,6.5 h13.0" fill="none" stroke="#000000" stroke-width="2" /><path d="M53.5,14 c-2.068,-3.378 -4.328,-6.685 -6.5,-9.5" fill="none" stroke="#000000" stroke-width="2" /><path d="M72,14 c2.461,-3.126 4.791,-6.544 6.5,-9.5" fill="none" stroke="#000000" stroke-width="2" /><path d="M58,90 c-4.113,-4.959 -9.736,-10.474 -15.5,-15" fill="none" stroke="#000000" stroke-width="2" /><path d="M83,60 v24.0 c0,7.005 -0.5,7.5 -6.5,7.5 c-1.952,0 -6.883,-0.169 -13,-0.5" fill="none" stroke="#000000" stroke-width="2" /></svg>