<?xml version='1.0' encoding='utf-8'?>
<svg xmlns="http://www.w3.org/2000/svg" height="100px" version="1.0" viewBox="0 0 100 100" width="100px" x="0px" y="0px">
<line fill="none" stroke="#000000" stroke-width="2" x1="19.5" x2="19.5" y1="94" y2="6" /><line fill="none" stroke="#000000" stroke-width="2" x1="30.5" x2="4.5" y1="26" y2="26" /><line fill="none" stroke="#000000" stroke-width="2" x1="28.5" x2="95.5" y1="12" y2="12" /><line fill="none" stroke="#000000" stroke-width="2" x1="62.5" x2="62.5" y1="12" y2="3.5" /><line fill="none" stroke="#000000" stroke-width="2" x1="28" x2="96" y1="90" y2="90" /><line fill="none" stroke="#000000" stroke-width="2" x1="39" x2="87" y1="68" y2="68" /><polyline fill="none" points="34.5,47.5 34.5,20 90.5,20 90.5,46.5 35.5,46.5" stroke="#000000" stroke-width="2" /><polyline fill="none" points="45.5,39.5 45.5,28 79.5,28 79.5,38.5 46.5,38.5" stroke="#000000" stroke-width="2" /><polyline fill="none" points="39,81 87,81 87,55 38,55 38,82" stroke="#000000" stroke-width="2" /><path d="M3.5,70 c7.473,-14.471 12.377,-28.562 15.5,-44.5" fill="none" stroke="#000000" stroke-width="2" /><path d="M30.5,56 c-3.348,-9.408 -6.959,-19.415 -10.5,-29" fill="none" stroke="#000000" stroke-width="2" /></svg>