<?xml version='1.0' encoding='utf-8'?>
<svg xmlns="http://www.w3.org/2000/svg" height="100px" version="1.0" viewBox="0 0 100 100" width="100px" x="0px" y="0px">
<line fill="none" stroke="#000000" stroke-width="2" x1="17" x2="17" y1="94" y2="6" /><line fill="none" stroke="#000000" stroke-width="2" x1="27" x2="4" y1="26" y2="26" /><line fill="none" stroke="#000000" stroke-width="2" x1="52" x2="71" y1="32.5" y2="32.5" /><line fill="none" stroke="#000000" stroke-width="2" x1="94.5" x2="26.5" y1="62" y2="62" /><line fill="none" stroke="#000000" stroke-width="2" x1="61" x2="61" y1="94" y2="51.5" /><line fill="none" stroke="#000000" stroke-width="2" x1="47.5" x2="25" y1="48.5" y2="51.5" /><line fill="none" stroke="#000000" stroke-width="2" x1="95" x2="73.5" y1="48.5" y2="51.5" /><polyline fill="none" points="52,51.5 71,51.5 71,15.5 51,15.5 51,52.5" stroke="#000000" stroke-width="2" /><path d="M3,70 c6.457,-14.493 10.779,-28.562 13.5,-44.5" fill="none" stroke="#000000" stroke-width="2" /><path d="M27,57 c-2.956,-9.864 -6.215,-20.117 -9.5,-30" fill="none" stroke="#000000" stroke-width="2" /><path d="M63,4 c-1.16,4.222 -2.449,7.964 -4,11.5" fill="none" stroke="#000000" stroke-width="2" /><path d="M25,91 c17.021,-9.321 28.064,-18.798 35,-29" fill="none" stroke="#000000" stroke-width="2" /><path d="M96,91 c-16.51,-9.366 -27.264,-18.798 -34,-29" fill="none" stroke="#000000" stroke-width="2" /><path d="M29,24.5 c3.158,-5.858 5.949,-11.737 8.5,-18" fill="none" stroke="#000000" stroke-width="2" /><path d="M76.5,24.5 c3.158,-5.858 5.949,-11.737 8.5,-18" fill="none" stroke="#000000" stroke-width="2" /><path d="M84,37 c-3.093,-5.326 -7.088,-12.003 -10.5,-17.5" fill="none" stroke="#000000" stroke-width="2" /><path d="M36.5,37 c-3.093,-5.326 -7.088,-12.003 -10.5,-17.5" fill="none" stroke="#000000" stroke-width="2" /><path d="M29,51 c6.506,-11.231 12.447,-23.437 17.5,-36" fill="none" stroke="#000000" stroke-width="2" /><path d="M76.5,51 c6.506,-11.231 12.447,-23.437 17.5,-36" fill="none" stroke="#000000" stroke-width="2" /><path d="M97,56.5 c-1.689,-7.474 -4.243,-17.114 -6.5,-24.5" fill="none" stroke="#000000" stroke-width="2" /><path d="M49.5,56.5 c-1.689,-7.474 -4.243,-17.114 -6.5,-24.5" fill="none" stroke="#000000" stroke-width="2" /></svg>