<?xml version='1.0' encoding='utf-8'?>
<svg xmlns="http://www.w3.org/2000/svg" height="100px" version="1.0" viewBox="0 0 100 100" width="100px" x="0px" y="0px">
<line fill="none" stroke="#000000" stroke-width="2" x1="4.5" x2="38.5" y1="11.5" y2="11.5" /><line fill="none" stroke="#000000" stroke-width="2" x1="16.5" x2="36" y1="29" y2="29" /><line fill="none" stroke="#000000" stroke-width="2" x1="77" x2="49.5" y1="49.5" y2="49.5" /><polyline fill="none" points="48.5,78 48.5,30 77,30 77,70 49.5,70" stroke="#000000" stroke-width="2" /><path d="M3.5,59.5 c7.936,-12.451 13.933,-29.251 16.5,-48" fill="none" stroke="#000000" stroke-width="2" /><path d="M35,29.965 c-0.98,27.903 -13.546,51.281 -30,61.035" fill="none" stroke="#000000" stroke-width="2" /><path d="M29.5,58.5 c-4.643,-3.688 -10.316,-7.72 -15.5,-11" fill="none" stroke="#000000" stroke-width="2" /><path d="M37,38.5 c7.042,-8.975 12.92,-21.559 16,-34" fill="none" stroke="#000000" stroke-width="2" /><path d="M49,16.5 h44.0 c-1.65,67.893 -4.17,73.5 -10.5,73.5 c-4.294,0 -11.137,-0.34 -18.5,-1" fill="none" stroke="#000000" stroke-width="2" /></svg>