<?xml version='1.0' encoding='utf-8'?>
<svg xmlns="http://www.w3.org/2000/svg" height="100px" version="1.0" viewBox="0 0 100 100" width="100px" x="0px" y="0px">
<line fill="none" stroke="#000000" stroke-width="2" x1="5" x2="38.5" y1="11.5" y2="11.5" /><line fill="none" stroke="#000000" stroke-width="2" x1="17" x2="37" y1="29" y2="29" /><line fill="none" stroke="#000000" stroke-width="2" x1="55" x2="88" y1="43" y2="43" /><line fill="none" stroke="#000000" stroke-width="2" x1="55" x2="88" y1="58.5" y2="58.5" /><line fill="none" stroke="#000000" stroke-width="2" x1="40.5" x2="95.5" y1="14.5" y2="14.5" /><line fill="none" stroke="#000000" stroke-width="2" x1="42" x2="42" y1="29" y2="94" /><line fill="none" stroke="#000000" stroke-width="2" x1="43" x2="95.5" y1="87" y2="87" /><polyline fill="none" points="55,74.5 89,74.5 89,28 54,28 54,75.5" stroke="#000000" stroke-width="2" /><path d="M4,59.5 c7.936,-12.451 13.933,-29.251 16.5,-48" fill="none" stroke="#000000" stroke-width="2" /><path d="M36,29.965 c-0.98,27.903 -13.546,51.281 -30,61.035" fill="none" stroke="#000000" stroke-width="2" /><path d="M30.5,58.5 c-4.643,-3.688 -10.316,-7.72 -15.5,-11" fill="none" stroke="#000000" stroke-width="2" /><path d="M69,5 c-1.16,8.443 -2.449,15.928 -4,23" fill="none" stroke="#000000" stroke-width="2" /></svg>