<?xml version='1.0' encoding='utf-8'?>
<svg xmlns="http://www.w3.org/2000/svg" height="100px" version="1.0" viewBox="0 0 100 100" width="100px" x="0px" y="0px">
<line fill="none" stroke="#000000" stroke-width="2" x1="4.5" x2="33" y1="11.5" y2="11.5" /><line fill="none" stroke="#000000" stroke-width="2" x1="15.5" x2="33.5" y1="29" y2="29" /><line fill="none" stroke="#000000" stroke-width="2" x1="43" x2="91" y1="65" y2="65" /><line fill="none" stroke="#000000" stroke-width="2" x1="43" x2="91" y1="54.5" y2="54.5" /><line fill="none" stroke="#000000" stroke-width="2" x1="41.5" x2="89" y1="22.5" y2="22.5" /><line fill="none" stroke="#000000" stroke-width="2" x1="65" x2="65" y1="12" y2="3" /><line fill="none" stroke="#000000" stroke-width="2" x1="65" x2="65" y1="39" y2="22.5" /><polyline fill="none" points="42,45 42,75.5 91,75.5 91,44 47.5,44" stroke="#000000" stroke-width="2" /><polyline fill="none" points="93.5,29 93.5,12 37,12 37,29" stroke="#000000" stroke-width="2" /><path d="M4,59.5 c6.982,-12.451 12.24,-29.251 14.5,-48" fill="none" stroke="#000000" stroke-width="2" /><path d="M32.5,29.969 c-0.866,27.901 -11.965,51.278 -26.5,61.031" fill="none" stroke="#000000" stroke-width="2" /><path d="M28,58.5 c-4.193,-3.688 -9.307,-7.735 -14,-11" fill="none" stroke="#000000" stroke-width="2" /><path d="M33,92.5 c10.338,-3.419 19.229,-8.134 24.5,-12.5" fill="none" stroke="#000000" stroke-width="2" /><path d="M95,93 c-6.315,-4.196 -15.01,-8.728 -24.5,-12.5" fill="none" stroke="#000000" stroke-width="2" /><path d="M36,38 c7.924,-2.892 14.58,-7.011 18.5,-11" fill="none" stroke="#000000" stroke-width="2" /><path d="M89,27 c-11.682,8.211 -28.986,14.978 -55.5,20" fill="none" stroke="#000000" stroke-width="2" /></svg>