<?xml version='1.0' encoding='utf-8'?>
<svg xmlns="http://www.w3.org/2000/svg" height="100px" version="1.0" viewBox="0 0 100 100" width="100px" x="0px" y="0px">
<line fill="none" stroke="#000000" stroke-width="2" x1="31.5" x2="46.5" y1="28" y2="28" /><line fill="none" stroke="#000000" stroke-width="2" x1="9.5" x2="24.5" y1="28" y2="28" /><line fill="none" stroke="#000000" stroke-width="2" x1="50" x2="8.5" y1="63" y2="63" /><line fill="none" stroke="#000000" stroke-width="2" x1="28.5" x2="28.5" y1="85" y2="49" /><line fill="none" stroke="#000000" stroke-width="2" x1="51" x2="91.5" y1="48" y2="48" /><path d="M30,12 h16.5 v33.0 h-37.0 v-31.0 c6.609,-1.497 12.412,-3.674 17.5,-6.5" fill="none" stroke="#000000" stroke-width="2" /><path d="M6,89.5 c14.641,-2.037 31.261,-6.176 48,-12" fill="none" stroke="#000000" stroke-width="2" /><path d="M51,42.5 c5.412,-5.153 8,-12.41 8,-26 v-6.5 h24.5 v26.5 c0,2.521 0.612,3 4.5,3 c7.141,0 7.572,-0.359 8,-13.5" fill="none" stroke="#000000" stroke-width="2" /><path d="M48,91 c21.956,-9.284 34.51,-21.875 42.568,-42.367" fill="none" stroke="#000000" stroke-width="2" /><path d="M95.5,91 c-15.119,-8.014 -28.799,-21.82 -37,-37.5" fill="none" stroke="#000000" stroke-width="2" /></svg>