<?xml version='1.0' encoding='utf-8'?>
<svg xmlns="http://www.w3.org/2000/svg" height="100px" version="1.0" viewBox="0 0 100 100" width="100px" x="0px" y="0px">
<line fill="none" stroke="#000000" stroke-width="2" x1="62" x2="62" y1="16" y2="4" /><polyline fill="none" points="92.5,34 92.5,16 31.5,16 31.5,34" stroke="#000000" stroke-width="2" /><path d="M9,91.5 c7.072,-9.315 12.963,-19.819 17,-30.5" fill="none" stroke="#000000" stroke-width="2" /><path d="M26,22.5 c-4.551,-4.456 -9.955,-9.209 -16,-14" fill="none" stroke="#000000" stroke-width="2" /><path d="M22.5,45.5 c-5.014,-4.892 -10.751,-9.858 -17.5,-15" fill="none" stroke="#000000" stroke-width="2" /><path d="M42,24.5 V79.0 c0,10.958 0.781,11.5 22.5,11.5 c25.571,0 25.831,-0.208 27.5,-25" fill="none" stroke="#000000" stroke-width="2" /><path d="M42,59 c15.321,-5.243 29.404,-12.728 45,-24" fill="none" stroke="#000000" stroke-width="2" /></svg>