<?xml version='1.0' encoding='utf-8'?>
<svg xmlns="http://www.w3.org/2000/svg" height="100px" version="1.0" viewBox="0 0 100 100" width="100px" x="0px" y="0px">
<line fill="none" stroke="#000000" stroke-width="2" x1="63" x2="63" y1="94" y2="6" /><line fill="none" stroke="#000000" stroke-width="2" x1="92" x2="40" y1="19" y2="19" /><line fill="none" stroke="#000000" stroke-width="2" x1="95.5" x2="28.5" y1="46" y2="46" /><path d="M9,91.5 c7.072,-9.315 12.963,-19.819 17,-30.5" fill="none" stroke="#000000" stroke-width="2" /><path d="M26,22.5 c-4.551,-4.456 -9.955,-9.209 -16,-14" fill="none" stroke="#000000" stroke-width="2" /><path d="M22.5,45.5 c-5.014,-4.892 -10.751,-9.858 -17.5,-15" fill="none" stroke="#000000" stroke-width="2" /><path d="M29,40 c6.502,-9.067 11.786,-20.628 15,-33" fill="none" stroke="#000000" stroke-width="2" /><path d="M26.5,86 c17.216,-11.501 31.226,-27.489 36,-40" fill="none" stroke="#000000" stroke-width="2" /><path d="M95.5,86 c-15.252,-11.54 -27.756,-27.489 -32,-40" fill="none" stroke="#000000" stroke-width="2" /></svg>