<?xml version='1.0' encoding='utf-8'?>
<svg xmlns="http://www.w3.org/2000/svg" height="100px" version="1.0" viewBox="0 0 100 100" width="100px" x="0px" y="0px">
<line fill="none" stroke="#000000" stroke-width="2" x1="35" x2="90" y1="36" y2="36" /><polyline fill="none" points="35,55.5 90,55.5 90,17 34,17 34,63.5" stroke="#000000" stroke-width="2" /><path d="M9.5,91.5 c7.072,-9.315 12.963,-19.819 17,-30.5" fill="none" stroke="#000000" stroke-width="2" /><path d="M26.5,22.5 c-4.551,-4.456 -9.955,-9.209 -16,-14" fill="none" stroke="#000000" stroke-width="2" /><path d="M23,45.5 c-5.014,-4.892 -10.751,-9.858 -17.5,-15" fill="none" stroke="#000000" stroke-width="2" /><path d="M58.5,4.5 c0,51.12 18.084,87 28,87 c3.156,0 6.566,-5.569 8.5,-23" fill="none" stroke="#000000" stroke-width="2" /><path d="M86,61.5 c-8.307,11.336 -31.84,24.965 -57,30" fill="none" stroke="#000000" stroke-width="2" /></svg>