<?xml version='1.0' encoding='utf-8'?>
<svg xmlns="http://www.w3.org/2000/svg" height="100px" version="1.0" viewBox="0 0 100 100" width="100px" x="0px" y="0px">
<line fill="none" stroke="#000000" stroke-width="2" x1="73.5" x2="42.5" y1="49.5" y2="49.5" /><polyline fill="none" points="41.5,78 41.5,30 73.5,30 73.5,70 42.5,70" stroke="#000000" stroke-width="2" /><path d="M9,91.5 c6.273,-9.294 11.438,-19.819 15,-30.5" fill="none" stroke="#000000" stroke-width="2" /><path d="M26,22.5 c-4.551,-4.456 -9.955,-9.209 -16,-14" fill="none" stroke="#000000" stroke-width="2" /><path d="M22.5,45.5 c-5.014,-4.892 -10.751,-9.858 -17.5,-15" fill="none" stroke="#000000" stroke-width="2" /><path d="M25.5,38.5 c7.912,-8.975 14.637,-21.538 18,-34" fill="none" stroke="#000000" stroke-width="2" /><path d="M39,16.5 h54.0 c-1.854,67.893 -4.388,73.5 -11.5,73.5 c-4.824,0 -12.727,-0.34 -21,-1" fill="none" stroke="#000000" stroke-width="2" /></svg>