<?xml version='1.0' encoding='utf-8'?>
<svg xmlns="http://www.w3.org/2000/svg" height="100px" version="1.0" viewBox="0 0 100 100" width="100px" x="0px" y="0px">
<line fill="none" stroke="#000000" stroke-width="2" x1="60" x2="60" y1="44" y2="6" /><line fill="none" stroke="#000000" stroke-width="2" x1="93.5" x2="27" y1="44" y2="44" /><path d="M8.5,91.5 c7.072,-9.315 12.963,-19.819 17,-30.5" fill="none" stroke="#000000" stroke-width="2" /><path d="M25.5,22.5 c-4.551,-4.456 -9.955,-9.209 -16,-14" fill="none" stroke="#000000" stroke-width="2" /><path d="M22,45.5 c-5.014,-4.892 -10.751,-9.858 -17.5,-15" fill="none" stroke="#000000" stroke-width="2" /><path d="M46.5,38 c-4.779,-8.891 -9.988,-17.59 -15,-25" fill="none" stroke="#000000" stroke-width="2" /><path d="M73.5,38 c6.061,-7.912 11.471,-16.999 15,-25" fill="none" stroke="#000000" stroke-width="2" /><path d="M68,44 v38.0 c0,6.474 0.594,7 12,7 c12.751,0 12.937,-0.226 13.5,-28" fill="none" stroke="#000000" stroke-width="2" /><path d="M23.5,90.5 c18.97,-7.099 25.5,-17.663 25.5,-46.5" fill="none" stroke="#000000" stroke-width="2" /></svg>