<?xml version='1.0' encoding='utf-8'?>
<svg xmlns="http://www.w3.org/2000/svg" height="100px" version="1.0" viewBox="0 0 100 100" width="100px" x="0px" y="0px">
<line fill="none" stroke="#000000" stroke-width="2" x1="55.5" x2="25.5" y1="26" y2="26" /><line fill="none" stroke="#000000" stroke-width="2" x1="61.5" x2="96.5" y1="38" y2="38" /><line fill="none" stroke="#000000" stroke-width="2" x1="84.5" x2="84.5" y1="93" y2="38" /><path d="M8.5,91.5 c5.156,-9.315 9.464,-19.845 12.5,-30.5" fill="none" stroke="#000000" stroke-width="2" /><path d="M23.5,22.5 c-4.127,-4.427 -9.06,-9.209 -14.5,-14" fill="none" stroke="#000000" stroke-width="2" /><path d="M21,45.5 c-4.589,-4.819 -9.926,-9.858 -16,-15" fill="none" stroke="#000000" stroke-width="2" /><path d="M41,6 v77.0 c0,7.53 -0.415,8 -5,8 c-2.171,0 -5.307,-0.135 -9.5,-0.5" fill="none" stroke="#000000" stroke-width="2" /><path d="M55.5,50 c-10.305,4.923 -20.158,8.534 -30,11" fill="none" stroke="#000000" stroke-width="2" /><path d="M61.088,14.996 c12.869,-1.144 23.252,-3.581 31.412,-6.996" fill="none" stroke="#000000" stroke-width="2" /><path d="M48,90.5 c10.006,-14.385 14,-30.521 14,-76.5" fill="none" stroke="#000000" stroke-width="2" /></svg>