<?xml version='1.0' encoding='utf-8'?>
<svg xmlns="http://www.w3.org/2000/svg" height="100px" version="1.0" viewBox="0 0 100 100" width="100px" x="0px" y="0px">
<line fill="none" stroke="#000000" stroke-width="2" x1="29" x2="95.5" y1="44" y2="44" /><line fill="none" stroke="#000000" stroke-width="2" x1="93.5" x2="30.5" y1="13" y2="13" /><line fill="none" stroke="#000000" stroke-width="2" x1="90.5" x2="33.5" y1="28" y2="28" /><line fill="none" stroke="#000000" stroke-width="2" x1="95" x2="30" y1="61.5" y2="61.5" /><path d="M9,91.5 c7.072,-9.315 12.963,-19.819 17,-30.5" fill="none" stroke="#000000" stroke-width="2" /><path d="M26,22.5 c-4.551,-4.456 -9.955,-9.209 -16,-14" fill="none" stroke="#000000" stroke-width="2" /><path d="M22.5,45.5 c-5.014,-4.892 -10.751,-9.858 -17.5,-15" fill="none" stroke="#000000" stroke-width="2" /><path d="M29,86 c16.555,-15.329 29.885,-47.116 32,-83" fill="none" stroke="#000000" stroke-width="2" /><path d="M65.5,85 c-4.047,-5.855 -9.687,-12.482 -15.5,-18" fill="none" stroke="#000000" stroke-width="2" /><path d="M83.5,44 v40.5 c0,6.414 -0.547,7 -6,7 c-1.902,0 -7.039,-0.18 -13,-0.5" fill="none" stroke="#000000" stroke-width="2" /></svg>