<?xml version='1.0' encoding='utf-8'?>
<svg xmlns="http://www.w3.org/2000/svg" height="100px" version="1.0" viewBox="0 0 100 100" width="100px" x="0px" y="0px">
<line fill="none" stroke="#000000" stroke-width="2" x1="51" x2="51" y1="41" y2="91" /><line fill="none" stroke="#000000" stroke-width="2" x1="71" x2="71" y1="41" y2="91" /><line fill="none" stroke="#000000" stroke-width="2" x1="32" x2="91" y1="63.5" y2="63.5" /><line fill="none" stroke="#000000" stroke-width="2" x1="83" x2="39" y1="28" y2="28" /><path d="M9,91.5 c6.601,-9.315 12.113,-19.845 16,-30.5" fill="none" stroke="#000000" stroke-width="2" /><path d="M27.5,22.5 c-4.838,-4.427 -10.613,-9.22 -17,-14" fill="none" stroke="#000000" stroke-width="2" /><path d="M23.5,45.5 c-5.307,-4.819 -11.476,-9.858 -18.5,-15" fill="none" stroke="#000000" stroke-width="2" /><path d="M78,90.5 c4.477,0.359 7.305,0.5 8.5,0.5 c3.977,0 4.5,-0.672 4.5,-8 v-42.0 h-60.0 v52.0" fill="none" stroke="#000000" stroke-width="2" /><path d="M96.5,33 c-13.311,-8.155 -24.552,-16.672 -35.5,-26.8 c-10.949,10.128 -22.188,18.645 -35.5,26.8" fill="none" stroke="#000000" stroke-width="2" /></svg>