<?xml version='1.0' encoding='utf-8'?>
<svg xmlns="http://www.w3.org/2000/svg" height="100px" version="1.0" viewBox="0 0 100 100" width="100px" x="0px" y="0px">
<line fill="none" stroke="#000000" stroke-width="2" x1="27.5" x2="96.5" y1="70.5" y2="70.5" /><line fill="none" stroke="#000000" stroke-width="2" x1="62" x2="62" y1="14.5" y2="4" /><line fill="none" stroke="#000000" stroke-width="2" x1="28" x2="96" y1="14.5" y2="14.5" /><line fill="none" stroke="#000000" stroke-width="2" x1="90" x2="34" y1="52.5" y2="52.5" /><polyline fill="none" points="39,42.5 86,42.5 86,24 38,24 38,43.5" stroke="#000000" stroke-width="2" /><path d="M8,91.5 c7.072,-9.315 12.963,-19.819 17,-30.5" fill="none" stroke="#000000" stroke-width="2" /><path d="M26,22.5 c-4.551,-4.456 -9.955,-9.209 -16,-14" fill="none" stroke="#000000" stroke-width="2" /><path d="M21.5,45.5 c-5.014,-4.892 -10.751,-9.858 -17.5,-15" fill="none" stroke="#000000" stroke-width="2" /><path d="M64,63.5 v21.0 c0,6.671 -0.74,7.5 -7,7.5 c-3.405,0 -7.933,-0.142 -13,-0.5" fill="none" stroke="#000000" stroke-width="2" /><path d="M89.443,52.67 c-7.52,5.038 -15.342,8.734 -25.443,11.83" fill="none" stroke="#000000" stroke-width="2" /></svg>