<?xml version='1.0' encoding='utf-8'?>
<svg xmlns="http://www.w3.org/2000/svg" height="100px" version="1.0" viewBox="0 0 100 100" width="100px" x="0px" y="0px">
<line fill="none" stroke="#000000" stroke-width="2" x1="36" x2="90" y1="47.5" y2="47.5" /><line fill="none" stroke="#000000" stroke-width="2" x1="90" x2="90" y1="92.5" y2="7.5" /><polyline fill="none" points="36,32.5 55.5,32.5 55.5,7.5" stroke="#000000" stroke-width="2" /><polyline fill="none" points="90,32.5 70.5,32.5 70.5,7.5" stroke="#000000" stroke-width="2" /><polyline fill="none" points="35,62.5 55.5,62.5 55.5,91.5" stroke="#000000" stroke-width="2" /><polyline fill="none" points="90,62.5 70.5,62.5 70.5,91.5" stroke="#000000" stroke-width="2" /><path d="M8.5,91.5 c7.072,-9.315 12.963,-19.819 17,-30.5" fill="none" stroke="#000000" stroke-width="2" /><path d="M25.5,22.5 c-4.551,-4.456 -9.955,-9.209 -16,-14" fill="none" stroke="#000000" stroke-width="2" /><path d="M22,45.5 c-5.014,-4.892 -10.751,-9.858 -17.5,-15" fill="none" stroke="#000000" stroke-width="2" /><path d="M26,92.5 c6.739,-14.092 10,-29.671 10,-51 v-34.0" fill="none" stroke="#000000" stroke-width="2" /></svg>