<?xml version='1.0' encoding='utf-8'?>
<svg xmlns="http://www.w3.org/2000/svg" height="100px" version="1.0" viewBox="0 0 100 100" width="100px" x="0px" y="0px">
<line fill="none" stroke="#000000" stroke-width="2" x1="65" x2="28" y1="27" y2="27" /><line fill="none" stroke="#000000" stroke-width="2" x1="66.5" x2="26.5" y1="48" y2="48" /><line fill="none" stroke="#000000" stroke-width="2" x1="73" x2="73" y1="74" y2="12" /><path d="M23.5,90 c14.227,-9.704 23,-26.629 23,-47.5 V27.0" fill="none" stroke="#000000" stroke-width="2" /><path d="M40.5,22.5 c-2.391,-5.156 -4.994,-10.201 -7.5,-14.5" fill="none" stroke="#000000" stroke-width="2" /><path d="M51.5,27 c3.023,-6.261 5.896,-13.087 8,-19" fill="none" stroke="#000000" stroke-width="2" /><path d="M65.5,85 c-5.193,-10.185 -12.116,-20.986 -20,-31" fill="none" stroke="#000000" stroke-width="2" /><path d="M8.5,91.5 c5.156,-9.315 9.464,-19.845 12.5,-30.5" fill="none" stroke="#000000" stroke-width="2" /><path d="M24,22.5 c-4.127,-4.427 -9.06,-9.209 -14.5,-14" fill="none" stroke="#000000" stroke-width="2" /><path d="M21,45.5 c-4.589,-4.819 -9.926,-9.858 -16,-15" fill="none" stroke="#000000" stroke-width="2" /><path d="M91,8 v75.0 c0,7.317 -0.645,8 -5,8 c-2.243,0 -5.943,-0.167 -10.5,-0.5" fill="none" stroke="#000000" stroke-width="2" /></svg>