<?xml version='1.0' encoding='utf-8'?>
<svg xmlns="http://www.w3.org/2000/svg" height="100px" version="1.0" viewBox="0 0 100 100" width="100px" x="0px" y="0px">
<line fill="none" stroke="#000000" stroke-width="2" x1="95.5" x2="29.5" y1="62" y2="62" /><line fill="none" stroke="#000000" stroke-width="2" x1="96" x2="29" y1="17" y2="17" /><line fill="none" stroke="#000000" stroke-width="2" x1="62.5" x2="62.5" y1="94" y2="49.5" /><line fill="none" stroke="#000000" stroke-width="2" x1="84.5" x2="84.5" y1="37.5" y2="6" /><polyline fill="none" points="39.5,6 39.5,49.5 92.5,49.5" stroke="#000000" stroke-width="2" /><polyline fill="none" points="58.5,6 58.5,36.5 83.5,36.5" stroke="#000000" stroke-width="2" /><path d="M8,91.5 c7.072,-9.315 12.963,-19.819 17,-30.5" fill="none" stroke="#000000" stroke-width="2" /><path d="M26,22.5 c-4.551,-4.456 -9.955,-9.209 -16,-14" fill="none" stroke="#000000" stroke-width="2" /><path d="M22.5,45.5 c-5.014,-4.892 -10.751,-9.858 -17.5,-15" fill="none" stroke="#000000" stroke-width="2" /><path d="M28.5,91 c16.046,-9.494 26.409,-18.798 33,-29" fill="none" stroke="#000000" stroke-width="2" /><path d="M96.5,91 c-16.046,-9.494 -26.409,-18.798 -33,-29" fill="none" stroke="#000000" stroke-width="2" /></svg>