<?xml version='1.0' encoding='utf-8'?>
<svg xmlns="http://www.w3.org/2000/svg" height="100px" version="1.0" viewBox="0 0 100 100" width="100px" x="0px" y="0px">
<line fill="none" stroke="#000000" stroke-width="2" x1="64.5" x2="92" y1="86" y2="86" /><line fill="none" stroke="#000000" stroke-width="2" x1="64.5" x2="92" y1="60" y2="60" /><line fill="none" stroke="#000000" stroke-width="2" x1="64.5" x2="92" y1="35" y2="35" /><line fill="none" stroke="#000000" stroke-width="2" x1="45" x2="45" y1="94" y2="6" /><line fill="none" stroke="#000000" stroke-width="2" x1="59" x2="28.5" y1="26" y2="26" /><polyline fill="none" points="92,93 92,11 63.5,11 63.5,93" stroke="#000000" stroke-width="2" /><path d="M8,91.5 c5.76,-9.325 10.6,-19.845 14,-30.5" fill="none" stroke="#000000" stroke-width="2" /><path d="M25,22.5 c-4.555,-4.427 -9.998,-9.209 -16,-14" fill="none" stroke="#000000" stroke-width="2" /><path d="M21.5,45.5 c-5.163,-4.819 -11.166,-9.858 -18,-15" fill="none" stroke="#000000" stroke-width="2" /><path d="M24,73 c9.607,-15.363 16.01,-30.544 20,-47.5" fill="none" stroke="#000000" stroke-width="2" /><path d="M59.5,61 c-4.123,-11.04 -8.766,-22.734 -13.5,-34" fill="none" stroke="#000000" stroke-width="2" /></svg>