<?xml version='1.0' encoding='utf-8'?>
<svg xmlns="http://www.w3.org/2000/svg" height="100px" version="1.0" viewBox="0 0 100 100" width="100px" x="0px" y="0px">
<line fill="none" stroke="#000000" stroke-width="2" x1="35.5" x2="88.5" y1="29.5" y2="29.5" /><line fill="none" stroke="#000000" stroke-width="2" x1="96" x2="27" y1="89.5" y2="89.5" /><line fill="none" stroke="#000000" stroke-width="2" x1="93" x2="30" y1="57" y2="57" /><line fill="none" stroke="#000000" stroke-width="2" x1="90" x2="33" y1="72.5" y2="72.5" /><line fill="none" stroke="#000000" stroke-width="2" x1="61.5" x2="61.5" y1="89.5" y2="57" /><polyline fill="none" points="35.5,46 88.5,46 88.5,14 34.5,14 34.5,47" stroke="#000000" stroke-width="2" /><path d="M8,91.5 c7.072,-9.315 12.963,-19.819 17,-30.5" fill="none" stroke="#000000" stroke-width="2" /><path d="M26,22.5 c-4.551,-4.456 -9.955,-9.209 -16,-14" fill="none" stroke="#000000" stroke-width="2" /><path d="M21.5,45.5 c-5.014,-4.892 -10.751,-9.858 -17.5,-15" fill="none" stroke="#000000" stroke-width="2" /><path d="M62.5,3 c-1.629,4.058 -3.594,7.636 -6,11" fill="none" stroke="#000000" stroke-width="2" /></svg>