<?xml version='1.0' encoding='utf-8'?>
<svg xmlns="http://www.w3.org/2000/svg" height="100px" version="1.0" viewBox="0 0 100 100" width="100px" x="0px" y="0px">
<line fill="none" stroke="#000000" stroke-width="2" x1="34.5" x2="88.5" y1="39" y2="39" /><line fill="none" stroke="#000000" stroke-width="2" x1="61" x2="61" y1="54" y2="25" /><line fill="none" stroke="#000000" stroke-width="2" x1="30" x2="92" y1="10" y2="10" /><polyline fill="none" points="34.5,55 88.5,55 88.5,24 33.5,24 33.5,56" stroke="#000000" stroke-width="2" /><path d="M8,91.5 c6.24,-9.315 11.438,-19.819 15,-30.5" fill="none" stroke="#000000" stroke-width="2" /><path d="M25,22.5 c-4.551,-4.456 -9.955,-9.209 -16,-14" fill="none" stroke="#000000" stroke-width="2" /><path d="M21.5,45.5 c-5.014,-4.892 -10.751,-9.858 -17.5,-15" fill="none" stroke="#000000" stroke-width="2" /><path d="M28,65 h65.0 c-0.834,22.303 -3.344,25.5 -11.5,25.5 c-4.307,0 -10.266,-0.308 -18,-1" fill="none" stroke="#000000" stroke-width="2" /><path d="M27,92 c22.309,-7.025 34,-20.772 34,-38" fill="none" stroke="#000000" stroke-width="2" /><path d="M41.5,14.5 c6.696,2.759 13.795,5.993 21,9.5" fill="none" stroke="#000000" stroke-width="2" /><path d="M91.484,10.144 c-4.59,2.765 -18.636,8.742 -30.984,12.856" fill="none" stroke="#000000" stroke-width="2" /></svg>