<?xml version='1.0' encoding='utf-8'?>
<svg xmlns="http://www.w3.org/2000/svg" height="100px" version="1.0" viewBox="0 0 100 100" width="100px" x="0px" y="0px">
<line fill="none" stroke="#000000" stroke-width="2" x1="53" x2="53" y1="54.5" y2="89" /><line fill="none" stroke="#000000" stroke-width="2" x1="69" x2="69" y1="54.5" y2="89" /><line fill="none" stroke="#000000" stroke-width="2" x1="25" x2="95" y1="90" y2="90" /><line fill="none" stroke="#000000" stroke-width="2" x1="95" x2="29" y1="24" y2="24" /><polyline fill="none" points="85,90 85,54.5 37,54.5 37,89" stroke="#000000" stroke-width="2" /><path d="M51,20 c-2.791,-5.403 -5.895,-10.578 -9,-15" fill="none" stroke="#000000" stroke-width="2" /><path d="M69,24 c4.267,-6.364 8.048,-12.923 11,-19" fill="none" stroke="#000000" stroke-width="2" /><path d="M26,64 c11.039,-8.029 21.232,-22.698 27,-40" fill="none" stroke="#000000" stroke-width="2" /><path d="M96,64 c-11.04,-8.029 -21.232,-22.698 -27,-40" fill="none" stroke="#000000" stroke-width="2" /><path d="M8,91.5 c6.24,-9.315 11.438,-19.819 15,-30.5" fill="none" stroke="#000000" stroke-width="2" /><path d="M26,22.5 c-4.551,-4.456 -9.955,-9.209 -16,-14" fill="none" stroke="#000000" stroke-width="2" /><path d="M21.5,45.5 c-5.014,-4.892 -10.751,-9.858 -17.5,-15" fill="none" stroke="#000000" stroke-width="2" /></svg>