<?xml version='1.0' encoding='utf-8'?>
<svg xmlns="http://www.w3.org/2000/svg" height="100px" version="1.0" viewBox="0 0 100 100" width="100px" x="0px" y="0px">
<line fill="none" stroke="#000000" stroke-width="2" x1="25.5" x2="95.5" y1="35" y2="35" /><line fill="none" stroke="#000000" stroke-width="2" x1="60.5" x2="60.5" y1="56" y2="11.5" /><line fill="none" stroke="#000000" stroke-width="2" x1="34" x2="34" y1="55" y2="93.5" /><line fill="none" stroke="#000000" stroke-width="2" x1="60.5" x2="60.5" y1="86.5" y2="57" /><line fill="none" stroke="#000000" stroke-width="2" x1="34" x2="87" y1="87.5" y2="87.5" /><line fill="none" stroke="#000000" stroke-width="2" x1="35" x2="87" y1="71.5" y2="71.5" /><polyline fill="none" points="87,93.5 87,56 35,56" stroke="#000000" stroke-width="2" /><path d="M9,91.5 c5.408,-9.315 9.912,-19.819 13,-30.5" fill="none" stroke="#000000" stroke-width="2" /><path d="M26,22.5 c-4.551,-4.456 -9.955,-9.209 -16,-14" fill="none" stroke="#000000" stroke-width="2" /><path d="M22.5,45.5 c-5.014,-4.892 -10.751,-9.858 -17.5,-15" fill="none" stroke="#000000" stroke-width="2" /><path d="M47,31 c-3.102,-5.021 -6.604,-10.134 -10,-14.5" fill="none" stroke="#000000" stroke-width="2" /><path d="M74,31 c4.106,-5.511 7.746,-11.534 10,-16.5" fill="none" stroke="#000000" stroke-width="2" /><path d="M30,12.5 c21.181,0 41.588,-1.53 61,-4.5" fill="none" stroke="#000000" stroke-width="2" /><path d="M25,58 c16.771,-7.264 27.701,-14.878 34.693,-23" fill="none" stroke="#000000" stroke-width="2" /><path d="M96,58 c-16.771,-7.264 -27.701,-14.878 -34.693,-23" fill="none" stroke="#000000" stroke-width="2" /></svg>