<?xml version='1.0' encoding='utf-8'?>
<svg xmlns="http://www.w3.org/2000/svg" height="100px" version="1.0" viewBox="0 0 100 100" width="100px" x="0px" y="0px">
<line fill="none" stroke="#000000" stroke-width="2" x1="60.5" x2="60.5" y1="46.5" y2="10" /><line fill="none" stroke="#000000" stroke-width="2" x1="29" x2="92" y1="10" y2="10" /><line fill="none" stroke="#000000" stroke-width="2" x1="34" x2="53.5" y1="30" y2="30" /><line fill="none" stroke="#000000" stroke-width="2" x1="34" x2="53.5" y1="40.5" y2="40.5" /><line fill="none" stroke="#000000" stroke-width="2" x1="67.5" x2="87" y1="30" y2="30" /><line fill="none" stroke="#000000" stroke-width="2" x1="67.5" x2="87" y1="40.5" y2="40.5" /><line fill="none" stroke="#000000" stroke-width="2" x1="95" x2="26" y1="50.5" y2="50.5" /><line fill="none" stroke="#000000" stroke-width="2" x1="50.5" x2="50.5" y1="61.5" y2="90.5" /><line fill="none" stroke="#000000" stroke-width="2" x1="70.5" x2="70.5" y1="61.5" y2="90.5" /><polyline fill="none" points="93.5,40.5 93.5,21 27.5,21 27.5,40.5" stroke="#000000" stroke-width="2" /><path d="M8,91.5 c5.156,-9.315 9.464,-19.845 12.5,-30.5" fill="none" stroke="#000000" stroke-width="2" /><path d="M23,22.5 c-4.127,-4.427 -9.06,-9.209 -14.5,-14" fill="none" stroke="#000000" stroke-width="2" /><path d="M20.5,45.5 c-4.589,-4.819 -9.926,-9.858 -16,-15" fill="none" stroke="#000000" stroke-width="2" /><path d="M76.5,90.5 c4.904,0.354 8.412,0.5 9.5,0.5 c4.65,0 5,-0.396 5,-6 V61.5 h-61.0 v31.0" fill="none" stroke="#000000" stroke-width="2" /><path d="M61,50.5 c-1.285,4.079 -2.926,7.679 -5,11" fill="none" stroke="#000000" stroke-width="2" /></svg>