<?xml version='1.0' encoding='utf-8'?>
<svg xmlns="http://www.w3.org/2000/svg" height="100px" version="1.0" viewBox="0 0 100 100" width="100px" x="0px" y="0px">
<line fill="none" stroke="#000000" stroke-width="2" x1="37" x2="89.5" y1="65" y2="65" /><line fill="none" stroke="#000000" stroke-width="2" x1="37" x2="89.5" y1="54.5" y2="54.5" /><line fill="none" stroke="#000000" stroke-width="2" x1="35" x2="87" y1="22.5" y2="22.5" /><line fill="none" stroke="#000000" stroke-width="2" x1="61" x2="61" y1="12" y2="3" /><line fill="none" stroke="#000000" stroke-width="2" x1="61" x2="61" y1="39" y2="22.5" /><polyline fill="none" points="36,45 36,75.5 89.5,75.5 89.5,44 41.5,44" stroke="#000000" stroke-width="2" /><polyline fill="none" points="92,29 92,12 30,12 30,29" stroke="#000000" stroke-width="2" /><path d="M8.5,91.5 c7.072,-9.315 12.963,-19.819 17,-30.5" fill="none" stroke="#000000" stroke-width="2" /><path d="M25.5,22.5 c-4.551,-4.456 -9.955,-9.209 -16,-14" fill="none" stroke="#000000" stroke-width="2" /><path d="M22,45.5 c-5.014,-4.892 -10.751,-9.858 -17.5,-15" fill="none" stroke="#000000" stroke-width="2" /><path d="M27.5,92.5 c10.76,-3.419 20.014,-8.134 25.5,-12.5" fill="none" stroke="#000000" stroke-width="2" /><path d="M94,93 c-6.573,-4.196 -15.622,-8.728 -25.5,-12.5" fill="none" stroke="#000000" stroke-width="2" /><path d="M30,38 c8.566,-2.892 15.761,-7.011 20,-11" fill="none" stroke="#000000" stroke-width="2" /><path d="M87,27 c-12.734,8.211 -31.597,14.978 -60.5,20" fill="none" stroke="#000000" stroke-width="2" /></svg>