<?xml version='1.0' encoding='utf-8'?>
<svg xmlns="http://www.w3.org/2000/svg" height="100px" version="1.0" viewBox="0 0 100 100" width="100px" x="0px" y="0px">
<line fill="none" stroke="#000000" stroke-width="2" x1="21.5" x2="58.5" y1="34" y2="34" /><line fill="none" stroke="#000000" stroke-width="2" x1="22" x2="58" y1="14.5" y2="14.5" /><line fill="none" stroke="#000000" stroke-width="2" x1="40" x2="40" y1="14.5" y2="3.5" /><line fill="none" stroke="#000000" stroke-width="2" x1="63" x2="93.5" y1="52" y2="52" /><line fill="none" stroke="#000000" stroke-width="2" x1="63" x2="93.5" y1="64.5" y2="64.5" /><line fill="none" stroke="#000000" stroke-width="2" x1="63" x2="93.5" y1="77" y2="77" /><line fill="none" stroke="#000000" stroke-width="2" x1="95" x2="63" y1="14.5" y2="14.5" /><line fill="none" stroke="#000000" stroke-width="2" x1="27" x2="55" y1="72" y2="72" /><line fill="none" stroke="#000000" stroke-width="2" x1="27" x2="55" y1="58" y2="58" /><path d="M7,91.5 c5.156,-9.315 9.464,-19.845 12.5,-30.5" fill="none" stroke="#000000" stroke-width="2" /><path d="M22,22.5 c-4.127,-4.427 -9.06,-9.209 -14.5,-14" fill="none" stroke="#000000" stroke-width="2" /><path d="M19.5,45.5 c-4.589,-4.819 -9.926,-9.858 -16,-15" fill="none" stroke="#000000" stroke-width="2" /><path d="M46.5,34 c2.5,-5.521 4.556,-12.15 6,-19.5" fill="none" stroke="#000000" stroke-width="2" /><path d="M34,34 c-1.76,-6.543 -3.749,-13.032 -6,-19.5" fill="none" stroke="#000000" stroke-width="2" /><path d="M97,77.5 c-1.012,13.773 -1.199,14 -18.5,14 c-15.305,0 -15.5,-0.164 -15.5,-8 v-44.0 h30.5 V27.0 H63.0 v-23.0" fill="none" stroke="#000000" stroke-width="2" /><path d="M26,92 v-48.0 h29.0 v41.96 c0,4.177 -0.336,4.54 -5.5,4.54 c-1.635,0 -4.273,-0.131 -9,-0.5" fill="none" stroke="#000000" stroke-width="2" /></svg>