<?xml version='1.0' encoding='utf-8'?>
<svg xmlns="http://www.w3.org/2000/svg" height="100px" version="1.0" viewBox="0 0 100 100" width="100px" x="0px" y="0px">
<line fill="none" stroke="#000000" stroke-width="2" x1="63.5" x2="63.5" y1="50.5" y2="9" /><line fill="none" stroke="#000000" stroke-width="2" x1="8" x2="56" y1="11" y2="11" /><line fill="none" stroke="#000000" stroke-width="2" x1="23" x2="53" y1="24.5" y2="24.5" /><path d="M92,92 c-4.17,-7.286 -9.068,-14.859 -15,-23" fill="none" stroke="#000000" stroke-width="2" /><path d="M67,92.5 c-2.486,-7.177 -5.578,-14.741 -9.5,-23" fill="none" stroke="#000000" stroke-width="2" /><path d="M42,93 c-0.803,-7.066 -2.088,-14.624 -4,-23" fill="none" stroke="#000000" stroke-width="2" /><path d="M8,92.5 c5.24,-6.487 10.214,-14.074 15,-23" fill="none" stroke="#000000" stroke-width="2" /><path d="M88,6.5 V55.0 c0,7.13 -0.867,8 -6.5,8 c-3.189,0 -8.023,-0.144 -14.5,-0.5" fill="none" stroke="#000000" stroke-width="2" /><path d="M6,39 c11.736,-7.015 20.58,-17.034 25,-28" fill="none" stroke="#000000" stroke-width="2" /><path d="M52.021,25.295 c-3.693,17.626 -19.775,32.86 -44.021,39.705" fill="none" stroke="#000000" stroke-width="2" /><path d="M38.5,48.5 c-4.917,-4.71 -11.689,-10.507 -17,-14.5" fill="none" stroke="#000000" stroke-width="2" /></svg>