<?xml version='1.0' encoding='utf-8'?>
<svg xmlns="http://www.w3.org/2000/svg" height="100px" version="1.0" viewBox="0 0 100 100" width="100px" x="0px" y="0px">
<line fill="none" stroke="#000000" stroke-width="2" x1="39" x2="89" y1="29.5" y2="29.5" /><line fill="none" stroke="#000000" stroke-width="2" x1="96" x2="31" y1="89.5" y2="89.5" /><line fill="none" stroke="#000000" stroke-width="2" x1="93.5" x2="33.5" y1="57" y2="57" /><line fill="none" stroke="#000000" stroke-width="2" x1="90.5" x2="36.5" y1="72.5" y2="72.5" /><line fill="none" stroke="#000000" stroke-width="2" x1="63.5" x2="63.5" y1="89.5" y2="57" /><polyline fill="none" points="39,46 89,46 89,14 38,14 38,47" stroke="#000000" stroke-width="2" /><path d="M33.5,82 c-4.209,-9.306 -9.999,-19.425 -16,-28" fill="none" stroke="#000000" stroke-width="2" /><path d="M9.5,20 c0,13.128 -1.453,24.476 -4,33.5" fill="none" stroke="#000000" stroke-width="2" /><path d="M32.5,17.5 c-2.094,12.181 -5.521,22.562 -10,31" fill="none" stroke="#000000" stroke-width="2" /><path d="M5,91 c7.869,-10.161 13.5,-30.425 13.5,-56 v-28.0" fill="none" stroke="#000000" stroke-width="2" /><path d="M64.5,3 c-1.629,4.058 -3.594,7.636 -6,11" fill="none" stroke="#000000" stroke-width="2" /></svg>