<?xml version='1.0' encoding='utf-8'?>
<svg xmlns="http://www.w3.org/2000/svg" height="100px" version="1.0" viewBox="0 0 100 100" width="100px" x="0px" y="0px">
<line fill="none" stroke="#000000" stroke-width="2" x1="6" x2="94" y1="16" y2="16" /><line fill="none" stroke="#000000" stroke-width="2" x1="14.5" x2="45.5" y1="37" y2="37" /><line fill="none" stroke="#000000" stroke-width="2" x1="14.5" x2="45.5" y1="50.5" y2="50.5" /><line fill="none" stroke="#000000" stroke-width="2" x1="62" x2="62" y1="57.5" y2="24.5" /><path d="M38,16 c-2.549,-4.268 -5.327,-8.442 -8,-12" fill="none" stroke="#000000" stroke-width="2" /><path d="M62,16 c3.028,-3.949 5.896,-8.267 8,-12" fill="none" stroke="#000000" stroke-width="2" /><path d="M92.5,92 c-4.201,-6.038 -9.068,-12.229 -15,-19" fill="none" stroke="#000000" stroke-width="2" /><path d="M67,92.25 c-2.518,-5.955 -5.578,-12.132 -9.5,-19" fill="none" stroke="#000000" stroke-width="2" /><path d="M41.5,92.5 c-0.834,-5.872 -2.088,-12.033 -4,-19" fill="none" stroke="#000000" stroke-width="2" /><path d="M7.5,92 c5.269,-5.368 10.214,-11.575 15,-19" fill="none" stroke="#000000" stroke-width="2" /><path d="M13.5,67 v-42.5 h33.0 v33.0 c0,7.567 -0.385,8 -6,8 c-1.855,0 -5.498,-0.159 -11.5,-0.5" fill="none" stroke="#000000" stroke-width="2" /><path d="M87.5,22.5 v35.5 c0,7.13 -0.867,8 -6.5,8 c-2.75,0 -6.917,-0.144 -12.5,-0.5" fill="none" stroke="#000000" stroke-width="2" /></svg>