<?xml version='1.0' encoding='utf-8'?>
<svg xmlns="http://www.w3.org/2000/svg" height="100px" version="1.0" viewBox="0 0 100 100" width="100px" x="0px" y="0px">
<line fill="none" stroke="#000000" stroke-width="2" x1="31" x2="94.5" y1="10.5" y2="10.5" /><path d="M30.5,82 c-3.42,-9.306 -8.124,-19.425 -13,-28" fill="none" stroke="#000000" stroke-width="2" /><path d="M9.5,20 c0,13.128 -1.453,24.476 -4,33.5" fill="none" stroke="#000000" stroke-width="2" /><path d="M31.5,17.5 c-2.094,12.181 -5.521,22.562 -10,31" fill="none" stroke="#000000" stroke-width="2" /><path d="M5,91 c7.869,-10.161 13.5,-30.425 13.5,-56 v-28.0" fill="none" stroke="#000000" stroke-width="2" /><path d="M28,89 c6.401,-16.146 9,-30.167 9,-49 v-17.5 h52.0 v18.0 h-52.0" fill="none" stroke="#000000" stroke-width="2" /><path d="M66.5,82 c8.477,-2.875 15.49,-6.397 20.5,-10" fill="none" stroke="#000000" stroke-width="2" /><path d="M80.5,67.5 c-3.006,-3.028 -6.686,-6.419 -11,-10" fill="none" stroke="#000000" stroke-width="2" /><path d="M65.5,50.5 h25.0 v37.5 c0,3.202 -0.25,3.5 -4,3.5 c-1.613,0 -6.219,-0.177 -11,-0.5" fill="none" stroke="#000000" stroke-width="2" /><path d="M38,82 c8.477,-2.875 15.49,-6.397 20.5,-10" fill="none" stroke="#000000" stroke-width="2" /><path d="M52,67.5 c-3.006,-3.028 -6.686,-6.419 -11,-10" fill="none" stroke="#000000" stroke-width="2" /><path d="M37,50.5 h25.0 v37.5 c0,3.202 -0.25,3.5 -4,3.5 c-1.613,0 -6.219,-0.177 -11,-0.5" fill="none" stroke="#000000" stroke-width="2" /></svg>