<?xml version='1.0' encoding='utf-8'?>
<svg xmlns="http://www.w3.org/2000/svg" height="100px" version="1.0" viewBox="0 0 100 100" width="100px" x="0px" y="0px">
<line fill="none" stroke="#000000" stroke-width="2" x1="31" x2="96.5" y1="35" y2="35" /><line fill="none" stroke="#000000" stroke-width="2" x1="62.5" x2="62.5" y1="56" y2="11.5" /><line fill="none" stroke="#000000" stroke-width="2" x1="36.5" x2="36.5" y1="55" y2="93.5" /><line fill="none" stroke="#000000" stroke-width="2" x1="62.5" x2="62.5" y1="86.5" y2="57" /><line fill="none" stroke="#000000" stroke-width="2" x1="36.5" x2="88.5" y1="87.5" y2="87.5" /><line fill="none" stroke="#000000" stroke-width="2" x1="37.5" x2="88.5" y1="71.5" y2="71.5" /><polyline fill="none" points="88.5,93.5 88.5,56 37.5,56" stroke="#000000" stroke-width="2" /><path d="M29.5,82 c-3.42,-9.306 -8.124,-19.425 -13,-28" fill="none" stroke="#000000" stroke-width="2" /><path d="M8.5,20 c0,13.128 -1.453,24.476 -4,33.5" fill="none" stroke="#000000" stroke-width="2" /><path d="M31.5,17.5 c-2.094,12.181 -5.521,22.562 -10,31" fill="none" stroke="#000000" stroke-width="2" /><path d="M4,91 c7.869,-10.161 13.5,-30.425 13.5,-56 v-28.0" fill="none" stroke="#000000" stroke-width="2" /><path d="M49.5,31 c-3.102,-5.021 -6.604,-10.134 -10,-14.5" fill="none" stroke="#000000" stroke-width="2" /><path d="M75.5,31 c4.106,-5.511 7.746,-11.534 10,-16.5" fill="none" stroke="#000000" stroke-width="2" /><path d="M33,12.5 c20.486,0 40.225,-1.53 59,-4.5" fill="none" stroke="#000000" stroke-width="2" /><path d="M28,58 c16.248,-7.378 26.705,-14.878 33.5,-23" fill="none" stroke="#000000" stroke-width="2" /><path d="M97,58 c-16.248,-7.378 -26.705,-14.878 -33.5,-23" fill="none" stroke="#000000" stroke-width="2" /></svg>