<?xml version='1.0' encoding='utf-8'?>
<svg xmlns="http://www.w3.org/2000/svg" height="100px" version="1.0" viewBox="0 0 100 100" width="100px" x="0px" y="0px">
<line fill="none" stroke="#000000" stroke-width="2" x1="7" x2="93" y1="14.5" y2="14.5" /><line fill="none" stroke="#000000" stroke-width="2" x1="28.5" x2="28.5" y1="67.5" y2="26" /><line fill="none" stroke="#000000" stroke-width="2" x1="7.5" x2="28.5" y1="36" y2="36" /><polyline fill="none" points="65,3.5 65,27 35,27 35,3.5" stroke="#000000" stroke-width="2" /><polyline fill="none" points="40,64 61,64 61,36 39,36 39,65" stroke="#000000" stroke-width="2" /><path d="M92.5,92 c-4.201,-6.038 -9.068,-12.229 -15,-19" fill="none" stroke="#000000" stroke-width="2" /><path d="M67,92.25 c-2.518,-5.955 -5.578,-12.132 -9.5,-19" fill="none" stroke="#000000" stroke-width="2" /><path d="M41.5,92.5 c-0.834,-5.872 -2.088,-12.033 -4,-19" fill="none" stroke="#000000" stroke-width="2" /><path d="M7.5,92 c5.269,-5.368 10.214,-11.575 15,-19" fill="none" stroke="#000000" stroke-width="2" /><path d="M71.5,26 v33.5 c0,5.313 0.195,5.5 10.5,5.5 c9.104,0 9.281,-0.164 10,-16.5" fill="none" stroke="#000000" stroke-width="2" /><path d="M71.5,42.5 c7.028,-2.874 13.072,-6.635 20,-12.5" fill="none" stroke="#000000" stroke-width="2" /><path d="M7,62 c7.315,-1.999 13.619,-4.337 21.5,-8" fill="none" stroke="#000000" stroke-width="2" /></svg>