<?xml version='1.0' encoding='utf-8'?>
<svg xmlns="http://www.w3.org/2000/svg" height="100px" version="1.0" viewBox="0 0 100 100" width="100px" x="0px" y="0px">
<line fill="none" stroke="#000000" stroke-width="2" x1="13.5" x2="13.5" y1="39.5" y2="85.036" /><line fill="none" stroke="#000000" stroke-width="2" x1="53" x2="5" y1="39.5" y2="39.5" /><line fill="none" stroke="#000000" stroke-width="2" x1="44.5" x2="44.5" y1="94" y2="39.5" /><line fill="none" stroke="#000000" stroke-width="2" x1="14.5" x2="44.5" y1="68.5" y2="68.5" /><line fill="none" stroke="#000000" stroke-width="2" x1="14.5" x2="44.5" y1="54" y2="54" /><polyline fill="none" points="93,39.5 58.5,39.5 58.5,94" stroke="#000000" stroke-width="2" /><path d="M8,34 c32.35,-3.559 48.225,-9.009 62,-19" fill="none" stroke="#000000" stroke-width="2" /><path d="M41,6.5 c-7.707,4.226 -18.886,8.182 -34,11.5" fill="none" stroke="#000000" stroke-width="2" /><path d="M93,18 c-9.726,-3.831 -22.15,-7.868 -36,-11.5" fill="none" stroke="#000000" stroke-width="2" /><path d="M92,34 c-32.35,-3.559 -48.225,-9.009 -62,-19" fill="none" stroke="#000000" stroke-width="2" /><path d="M4.5,86 c12.433,-1.164 26.51,-2.934 40,-5" fill="none" stroke="#000000" stroke-width="2" /><path d="M68,86.5 h9.0 c11.356,0 15.5,-3.152 15.5,-8.5 c0,-6.755 -5.379,-13.65 -16,-18.5 c6.105,-6.269 11.59,-13.12 15.655,-19.535" fill="none" stroke="#000000" stroke-width="2" /></svg>