<?xml version='1.0' encoding='utf-8'?>
<svg xmlns="http://www.w3.org/2000/svg" height="100px" version="1.0" viewBox="0 0 100 100" width="100px" x="0px" y="0px">
<line fill="none" stroke="#000000" stroke-width="2" x1="7" x2="93" y1="15" y2="15" /><path d="M9,91.5 c24.885,-7.181 41,-24.228 41,-40 V3.0" fill="none" stroke="#000000" stroke-width="2" /><path d="M91,91.5 c-24.885,-7.179 -41,-24.228 -41,-40" fill="none" stroke="#000000" stroke-width="2" /><path d="M8.5,43.5 c13.553,-5.606 25.211,-14.785 32,-24.5" fill="none" stroke="#000000" stroke-width="2" /><path d="M12.5,22 c8.924,4.871 17.029,10.863 28,21" fill="none" stroke="#000000" stroke-width="2" /><path d="M58,43.5 c13.553,-5.606 25.211,-14.785 32,-24.5" fill="none" stroke="#000000" stroke-width="2" /><path d="M62,22 c8.924,4.871 17.029,10.863 28,21" fill="none" stroke="#000000" stroke-width="2" /><path d="M7.5,69 c12.705,-5.263 23.635,-13.88 30,-23" fill="none" stroke="#000000" stroke-width="2" /><path d="M11.5,48.5 c8.287,4.639 15.813,10.347 26,20" fill="none" stroke="#000000" stroke-width="2" /><path d="M61,69 c12.705,-5.263 23.635,-13.88 30,-23" fill="none" stroke="#000000" stroke-width="2" /><path d="M65,48.5 c8.287,4.639 15.813,10.347 26,20" fill="none" stroke="#000000" stroke-width="2" /></svg>