<?xml version='1.0' encoding='utf-8'?>
<svg xmlns="http://www.w3.org/2000/svg" height="100px" version="1.0" viewBox="0 0 100 100" width="100px" x="0px" y="0px">
<line fill="none" stroke="#000000" stroke-width="2" x1="50" x2="50" y1="90" y2="10.5" /><line fill="none" stroke="#000000" stroke-width="2" x1="8" x2="92" y1="10.5" y2="10.5" /><path d="M67,90 c7.633,0.348 12.432,0.5 15,0.5 c6.958,0 8,-0.989 8,-8 V29.0 h-80.0 v63.0" fill="none" stroke="#000000" stroke-width="2" /><path d="M33.5,15 c-6.861,5.933 -16.828,11.439 -30,16" fill="none" stroke="#000000" stroke-width="2" /><path d="M96.5,31 c-8.104,-5.33 -18.478,-10.909 -30,-16" fill="none" stroke="#000000" stroke-width="2" /><path d="M14.5,55.5 c12.291,-5.013 22.848,-13.276 29,-22" fill="none" stroke="#000000" stroke-width="2" /><path d="M17.5,36 c8.43,4.483 15.927,9.931 26,19" fill="none" stroke="#000000" stroke-width="2" /><path d="M14.5,81 c12.291,-5.013 22.848,-13.276 29,-22" fill="none" stroke="#000000" stroke-width="2" /><path d="M17.5,61.5 c8.43,4.483 15.927,9.931 26,19" fill="none" stroke="#000000" stroke-width="2" /><path d="M54.5,55.5 c12.291,-5.013 22.848,-13.276 29,-22" fill="none" stroke="#000000" stroke-width="2" /><path d="M57.5,36 c8.43,4.483 15.927,9.931 26,19" fill="none" stroke="#000000" stroke-width="2" /><path d="M54.5,81 c12.291,-5.013 22.848,-13.276 29,-22" fill="none" stroke="#000000" stroke-width="2" /><path d="M57.5,61.5 c8.43,4.483 15.927,9.931 26,19" fill="none" stroke="#000000" stroke-width="2" /></svg>