<?xml version='1.0' encoding='utf-8'?>
<svg xmlns="http://www.w3.org/2000/svg" height="100px" version="1.0" viewBox="0 0 100 100" width="100px" x="0px" y="0px">
<line fill="none" stroke="#000000" stroke-width="2" x1="10" x2="37" y1="34.5" y2="34.5" /><line fill="none" stroke="#000000" stroke-width="2" x1="26.5" x2="26.5" y1="34.5" y2="6.5" /><line fill="none" stroke="#000000" stroke-width="2" x1="66.5" x2="66.5" y1="17" y2="52" /><line fill="none" stroke="#000000" stroke-width="2" x1="41.5" x2="92.5" y1="34" y2="34" /><line fill="none" stroke="#000000" stroke-width="2" x1="95.5" x2="32" y1="72.5" y2="72.5" /><line fill="none" stroke="#000000" stroke-width="2" x1="72" x2="72" y1="53" y2="94" /><polyline fill="none" points="28.5,93.5 28.5,55.5 9.5,55.5" stroke="#000000" stroke-width="2" /><polyline fill="none" points="41.5,53 92.5,53 92.5,16 40.5,16 40.5,54" stroke="#000000" stroke-width="2" /><path d="M5,92.5 c3.359,-14.052 5,-29.832 5,-51 v-34.0" fill="none" stroke="#000000" stroke-width="2" /><path d="M56,16 c2.645,-3.953 5.15,-8.271 7,-12" fill="none" stroke="#000000" stroke-width="2" /><path d="M45.5,72.5 c2.653,-4.937 5.156,-10.333 7,-15" fill="none" stroke="#000000" stroke-width="2" /></svg>