<?xml version='1.0' encoding='utf-8'?>
<svg xmlns="http://www.w3.org/2000/svg" height="100px" version="1.0" viewBox="0 0 100 100" width="100px" x="0px" y="0px">
<line fill="none" stroke="#000000" stroke-width="2" x1="10" x2="37" y1="34.5" y2="34.5" /><line fill="none" stroke="#000000" stroke-width="2" x1="26.5" x2="26.5" y1="34.5" y2="6.5" /><line fill="none" stroke="#000000" stroke-width="2" x1="95.5" x2="34.5" y1="62" y2="62" /><line fill="none" stroke="#000000" stroke-width="2" x1="96" x2="34" y1="17" y2="17" /><line fill="none" stroke="#000000" stroke-width="2" x1="65" x2="65" y1="94" y2="49.5" /><line fill="none" stroke="#000000" stroke-width="2" x1="85.5" x2="85.5" y1="37.5" y2="6" /><polyline fill="none" points="28.5,93.5 28.5,55.5 9.5,55.5" stroke="#000000" stroke-width="2" /><polyline fill="none" points="43,6 43,49.5 93,49.5" stroke="#000000" stroke-width="2" /><polyline fill="none" points="61,6 61,36.5 84.5,36.5" stroke="#000000" stroke-width="2" /><path d="M5,92.5 c3.359,-14.052 5,-29.832 5,-51 v-34.0" fill="none" stroke="#000000" stroke-width="2" /><path d="M33.5,91 c14.83,-9.494 24.39,-18.809 30.5,-29" fill="none" stroke="#000000" stroke-width="2" /><path d="M96.5,91 c-14.83,-9.494 -24.391,-18.808 -30.5,-29" fill="none" stroke="#000000" stroke-width="2" /></svg>