<?xml version='1.0' encoding='utf-8'?>
<svg xmlns="http://www.w3.org/2000/svg" height="100px" version="1.0" viewBox="0 0 100 100" width="100px" x="0px" y="0px">
<line fill="none" stroke="#000000" stroke-width="2" x1="44.5" x2="87.5" y1="29" y2="29" /><polyline fill="none" points="44.5,49 88.5,49 88.5,10.5 43.5,10.5 43.5,89.5" stroke="#000000" stroke-width="2" /><path d="M61,49 c5.864,18.978 19.003,34.684 35,42.5" fill="none" stroke="#000000" stroke-width="2" /><path d="M30,91.5 c13.719,-1.968 25.807,-4.552 40,-8.5" fill="none" stroke="#000000" stroke-width="2" /><path d="M72.746,72 c7.556,-5.439 15.311,-13.25 21.5,-21.5" fill="none" stroke="#000000" stroke-width="2" /><path d="M15,8 c11.066,15.94 16.5,34.505 16.5,56.5 c0,18.948 -4.779,26.5 -10,26.5 c-2.864,0 -7.87,-0.715 -13,-2" fill="none" stroke="#000000" stroke-width="2" /><path d="M37.5,6 c-8.507,10.59 -19.759,19.975 -32,26.5" fill="none" stroke="#000000" stroke-width="2" /><path d="M29.5,44 c-6.244,7.789 -14.914,15.018 -24,20" fill="none" stroke="#000000" stroke-width="2" /></svg>