<?xml version='1.0' encoding='utf-8'?>
<svg xmlns="http://www.w3.org/2000/svg" height="100px" version="1.0" viewBox="0 0 100 100" width="100px" x="0px" y="0px">
<line fill="none" stroke="#000000" stroke-width="2" x1="54" x2="54" y1="57.5" y2="88.5" /><line fill="none" stroke="#000000" stroke-width="2" x1="71.5" x2="71.5" y1="57.5" y2="88.5" /><line fill="none" stroke="#000000" stroke-width="2" x1="27.5" x2="95.5" y1="89.5" y2="89.5" /><line fill="none" stroke="#000000" stroke-width="2" x1="31" x2="95" y1="30.5" y2="30.5" /><line fill="none" stroke="#000000" stroke-width="2" x1="90.5" x2="38" y1="10.5" y2="10.5" /><polyline fill="none" points="89,88.5 89,57.5 36.5,57.5 36.5,88.5" stroke="#000000" stroke-width="2" /><path d="M12,8 c9.348,15.786 14,33.95 14,56.5 c0,19.396 -4.178,26.5 -8.5,26.5 c-2.443,0 -6.626,-0.706 -11,-2" fill="none" stroke="#000000" stroke-width="2" /><path d="M33,6 c-7.71,10.59 -17.906,19.975 -29,26.5" fill="none" stroke="#000000" stroke-width="2" /><path d="M24.5,44 c-5.32,7.003 -12.523,13.385 -20.5,18" fill="none" stroke="#000000" stroke-width="2" /><path d="M66,24 v17.0 c0,7.036 -1.006,8 -7,8 c-3.636,0 -7.875,-0.169 -13,-0.5" fill="none" stroke="#000000" stroke-width="2" /><path d="M89.844,10.745 c-7.143,6.218 -14.266,10.572 -23.844,14.255" fill="none" stroke="#000000" stroke-width="2" /></svg>