<?xml version='1.0' encoding='utf-8'?>
<svg xmlns="http://www.w3.org/2000/svg" height="100px" version="1.0" viewBox="0 0 100 100" width="100px" x="0px" y="0px">
<line fill="none" stroke="#000000" stroke-width="2" x1="37.5" x2="86.5" y1="45" y2="45" /><line fill="none" stroke="#000000" stroke-width="2" x1="36.5" x2="87.5" y1="67" y2="67" /><line fill="none" stroke="#000000" stroke-width="2" x1="62" x2="62" y1="24" y2="93.5" /><path d="M11.5,8 c9.348,15.786 14,33.95 14,56.5 c0,19.396 -4.178,26.5 -8.5,26.5 c-2.443,0 -6.626,-0.706 -11,-2" fill="none" stroke="#000000" stroke-width="2" /><path d="M32.5,6 c-7.71,10.59 -17.906,19.975 -29,26.5" fill="none" stroke="#000000" stroke-width="2" /><path d="M24,44 c-5.32,7.003 -12.523,13.385 -20.5,18" fill="none" stroke="#000000" stroke-width="2" /><path d="M26.5,93 c6.979,-7.81 11,-19.89 11,-39 v-31.0 h49.0 c0,56.85 3.359,69.5 7,69.5 c1.979,0 3.516,-3.714 4.5,-20.5" fill="none" stroke="#000000" stroke-width="2" /><path d="M46,23 c-2.478,-6.308 -5.203,-12.36 -8,-17.5" fill="none" stroke="#000000" stroke-width="2" /><path d="M64.5,23 c-2.479,-6.667 -5.201,-13.065 -8,-18.5" fill="none" stroke="#000000" stroke-width="2" /><path d="M76,23 c3.878,-6.196 7.309,-12.591 10,-18.5" fill="none" stroke="#000000" stroke-width="2" /></svg>