<?xml version='1.0' encoding='utf-8'?>
<svg xmlns="http://www.w3.org/2000/svg" height="100px" version="1.0" viewBox="0 0 100 100" width="100px" x="0px" y="0px">
<line fill="none" stroke="#000000" stroke-width="2" x1="32.5" x2="3.5" y1="13.5" y2="13.5" /><line fill="none" stroke="#000000" stroke-width="2" x1="29.5" x2="4.5" y1="43.5" y2="43.5" /><line fill="none" stroke="#000000" stroke-width="2" x1="17.5" x2="17.5" y1="77.5" y2="13.5" /><line fill="none" stroke="#000000" stroke-width="2" x1="64.5" x2="64.5" y1="94" y2="6" /><line fill="none" stroke="#000000" stroke-width="2" x1="92" x2="43" y1="19" y2="19" /><line fill="none" stroke="#000000" stroke-width="2" x1="95.5" x2="31.5" y1="46" y2="46" /><path d="M3.5,83 c9.708,-3.375 18.152,-6.873 29,-12" fill="none" stroke="#000000" stroke-width="2" /><path d="M32,40 c6.502,-9.067 11.786,-20.628 15,-33" fill="none" stroke="#000000" stroke-width="2" /><path d="M27,86 c18.014,-11.376 32.527,-27.489 37.5,-40" fill="none" stroke="#000000" stroke-width="2" /><path d="M95.5,86 c-14.537,-11.54 -26.455,-27.489 -30.5,-40" fill="none" stroke="#000000" stroke-width="2" /></svg>