<?xml version='1.0' encoding='utf-8'?>
<svg xmlns="http://www.w3.org/2000/svg" height="100px" version="1.0" viewBox="0 0 100 100" width="100px" x="0px" y="0px">
<line fill="none" stroke="#000000" stroke-width="2" x1="32" x2="4" y1="12.5" y2="12.5" /><line fill="none" stroke="#000000" stroke-width="2" x1="31" x2="5" y1="44.5" y2="44.5" /><line fill="none" stroke="#000000" stroke-width="2" x1="18" x2="18" y1="79" y2="13.5" /><line fill="none" stroke="#000000" stroke-width="2" x1="37" x2="95" y1="89" y2="89" /><line fill="none" stroke="#000000" stroke-width="2" x1="92" x2="43.5" y1="63" y2="63" /><line fill="none" stroke="#000000" stroke-width="2" x1="66" x2="66" y1="89" y2="63" /><line fill="none" stroke="#000000" stroke-width="2" x1="32" x2="95" y1="48" y2="48" /><line fill="none" stroke="#000000" stroke-width="2" x1="36.5" x2="90.5" y1="32.5" y2="32.5" /><line fill="none" stroke="#000000" stroke-width="2" x1="33.5" x2="93.5" y1="18" y2="18" /><line fill="none" stroke="#000000" stroke-width="2" x1="63.5" x2="63.5" y1="48" y2="18" /><path d="M4,85 c10.043,-4.078 18.778,-8.305 30,-14.5" fill="none" stroke="#000000" stroke-width="2" /><path d="M53,18 c-1.912,-4.979 -3.995,-9.85 -6,-14" fill="none" stroke="#000000" stroke-width="2" /><path d="M73,18 c2.266,-4.613 4.422,-9.644 6,-14" fill="none" stroke="#000000" stroke-width="2" /><path d="M25,91 c12.07,-11.585 19.892,-26.832 22,-43" fill="none" stroke="#000000" stroke-width="2" /></svg>