<?xml version='1.0' encoding='utf-8'?>
<svg xmlns="http://www.w3.org/2000/svg" height="100px" version="1.0" viewBox="0 0 100 100" width="100px" x="0px" y="0px">
<line fill="none" stroke="#000000" stroke-width="2" x1="45" x2="96" y1="29.5" y2="29.5" /><line fill="none" stroke="#000000" stroke-width="2" x1="71.5" x2="71.5" y1="29.5" y2="56.5" /><line fill="none" stroke="#000000" stroke-width="2" x1="47" x2="95" y1="42" y2="42" /><line fill="none" stroke="#000000" stroke-width="2" x1="46" x2="95" y1="12" y2="12" /><line fill="none" stroke="#000000" stroke-width="2" x1="71.5" x2="71.5" y1="12" y2="4.5" /><line fill="none" stroke="#000000" stroke-width="2" x1="7" x2="93" y1="90" y2="90" /><line fill="none" stroke="#000000" stroke-width="2" x1="10" x2="90" y1="63" y2="63" /><line fill="none" stroke="#000000" stroke-width="2" x1="85" x2="15" y1="76" y2="76" /><line fill="none" stroke="#000000" stroke-width="2" x1="50" x2="50" y1="90" y2="63" /><polyline fill="none" points="14.5,54 42.5,54 42.5,34.5 13.5,34.5 13.5,55" stroke="#000000" stroke-width="2" /><path d="M79.5,29.5 c3.414,-5.11 6.395,-11.183 8.5,-17.5" fill="none" stroke="#000000" stroke-width="2" /><path d="M61.5,29.5 c-1.57,-5.743 -3.678,-11.948 -6,-17.5" fill="none" stroke="#000000" stroke-width="2" /><path d="M4.5,52 c5.33,-7.966 8,-16.791 8,-27.5 v-16.0 h29.0 v16.5 h-29.0" fill="none" stroke="#000000" stroke-width="2" /><path d="M66.5,79.5 c4.248,2.214 9.021,4.978 13,7.5" fill="none" stroke="#000000" stroke-width="2" /></svg>