<?xml version='1.0' encoding='utf-8'?>
<svg xmlns="http://www.w3.org/2000/svg" height="100px" version="1.0" viewBox="0 0 100 100" width="100px" x="0px" y="0px">
<line fill="none" stroke="#000000" stroke-width="2" x1="50" x2="50" y1="60.5" y2="9.5" /><line fill="none" stroke="#000000" stroke-width="2" x1="8" x2="92" y1="9.5" y2="9.5" /><line fill="none" stroke="#000000" stroke-width="2" x1="7" x2="93" y1="90.5" y2="90.5" /><line fill="none" stroke="#000000" stroke-width="2" x1="10" x2="90" y1="66.5" y2="66.5" /><line fill="none" stroke="#000000" stroke-width="2" x1="85" x2="15" y1="78" y2="78" /><line fill="none" stroke="#000000" stroke-width="2" x1="50" x2="50" y1="90.5" y2="66.5" /><polyline fill="none" points="90,61.5 90,22.5 10,22.5 10,61.5" stroke="#000000" stroke-width="2" /><path d="M33.5,12.5 c-6.861,4.264 -16.816,8.268 -30,11.5" fill="none" stroke="#000000" stroke-width="2" /><path d="M96.5,24 c-8.104,-3.831 -18.471,-7.86 -30,-11.5" fill="none" stroke="#000000" stroke-width="2" /><path d="M14.5,41.5 c12.304,-3.603 22.848,-9.655 29,-16" fill="none" stroke="#000000" stroke-width="2" /><path d="M17.5,27.5 c8.43,3.187 15.927,7.057 26,13.5" fill="none" stroke="#000000" stroke-width="2" /><path d="M14.5,59.5 c12.304,-3.603 22.848,-9.655 29,-16" fill="none" stroke="#000000" stroke-width="2" /><path d="M17.5,45.5 c8.43,3.187 15.927,7.057 26,13.5" fill="none" stroke="#000000" stroke-width="2" /><path d="M54.5,41.5 c12.304,-3.603 22.848,-9.655 29,-16" fill="none" stroke="#000000" stroke-width="2" /><path d="M57.5,27.5 c8.43,3.187 15.927,7.057 26,13.5" fill="none" stroke="#000000" stroke-width="2" /><path d="M54.5,59.5 c12.304,-3.603 22.848,-9.655 29,-16" fill="none" stroke="#000000" stroke-width="2" /><path d="M57.5,45.5 c8.43,3.187 15.927,7.057 26,13.5" fill="none" stroke="#000000" stroke-width="2" /><path d="M66.5,81.5 c4.902,2.656 10.408,5.973 15,9" fill="none" stroke="#000000" stroke-width="2" /></svg>