<?xml version='1.0' encoding='utf-8'?>
<svg xmlns="http://www.w3.org/2000/svg" height="100px" version="1.0" viewBox="0 0 100 100" width="100px" x="0px" y="0px">
<line fill="none" stroke="#000000" stroke-width="2" x1="36" x2="96" y1="44" y2="44" /><line fill="none" stroke="#000000" stroke-width="2" x1="94.5" x2="38" y1="13" y2="13" /><line fill="none" stroke="#000000" stroke-width="2" x1="91.5" x2="40" y1="28" y2="28" /><line fill="none" stroke="#000000" stroke-width="2" x1="95.5" x2="38.5" y1="61.5" y2="61.5" /><line fill="none" stroke="#000000" stroke-width="2" x1="20" x2="20" y1="82.5" y2="12.5" /><line fill="none" stroke="#000000" stroke-width="2" x1="8.5" x2="31.5" y1="46" y2="46" /><polyline fill="none" points="8.5,83.5 32.5,83.5 32.5,11.5 7.5,11.5 7.5,91.5" stroke="#000000" stroke-width="2" /><path d="M35,86 c14.65,-15.464 26.612,-47.116 28.5,-83" fill="none" stroke="#000000" stroke-width="2" /><path d="M68.5,85 c-3.785,-5.855 -9.062,-12.482 -14.5,-18" fill="none" stroke="#000000" stroke-width="2" /><path d="M85.5,44 v40.5 c0,6.414 -0.563,7 -6,7 c-1.803,0 -6.354,-0.169 -12,-0.5" fill="none" stroke="#000000" stroke-width="2" /></svg>