<?xml version='1.0' encoding='utf-8'?>
<svg xmlns="http://www.w3.org/2000/svg" height="100px" version="1.0" viewBox="0 0 100 100" width="100px" x="0px" y="0px">
<line fill="none" stroke="#000000" stroke-width="2" x1="7" x2="93" y1="52.5" y2="52.5" /><line fill="none" stroke="#000000" stroke-width="2" x1="44" x2="7.5" y1="41.5" y2="44" /><line fill="none" stroke="#000000" stroke-width="2" x1="89.5" x2="52.5" y1="40.5" y2="43" /><line fill="none" stroke="#000000" stroke-width="2" x1="31" x2="31" y1="86.5" y2="62" /><line fill="none" stroke="#000000" stroke-width="2" x1="11" x2="50" y1="87.5" y2="87.5" /><line fill="none" stroke="#000000" stroke-width="2" x1="12" x2="51" y1="74" y2="74" /><polyline fill="none" points="51,88.5 51,61 11,61 11,93.5" stroke="#000000" stroke-width="2" /><path d="M84,58 c-7.654,15.355 -18.163,26.03 -33,33.5" fill="none" stroke="#000000" stroke-width="2" /><path d="M49.5,6 c0,70.867 27.667,85.5 36.5,85.5 c2.407,0 5.804,-1.932 8,-17" fill="none" stroke="#000000" stroke-width="2" /><path d="M71.5,44.5 c3.539,2.526 7.23,5.347 10.5,8" fill="none" stroke="#000000" stroke-width="2" /><path d="M26,32 c-5.177,-4.608 -11.752,-10.273 -17.5,-15" fill="none" stroke="#000000" stroke-width="2" /><path d="M47,48.5 c-2.522,-6.355 -6.297,-14.71 -9.5,-21" fill="none" stroke="#000000" stroke-width="2" /><path d="M14.5,43.5 c10.074,-9.505 19.059,-19.454 27,-30" fill="none" stroke="#000000" stroke-width="2" /><path d="M14,21.5 c4.91,-4.896 9.352,-9.833 13.5,-15" fill="none" stroke="#000000" stroke-width="2" /><path d="M73,31 c-4.97,-4.262 -11.465,-9.645 -17,-14" fill="none" stroke="#000000" stroke-width="2" /><path d="M92.5,47 c-2.422,-6.075 -5.971,-13.969 -9,-20" fill="none" stroke="#000000" stroke-width="2" /><path d="M61.5,42.5 c9.67,-9.098 18.421,-18.881 26,-29" fill="none" stroke="#000000" stroke-width="2" /><path d="M61,21 c4.713,-4.684 9.055,-9.531 13,-14.5" fill="none" stroke="#000000" stroke-width="2" /></svg>