<?xml version='1.0' encoding='utf-8'?>
<svg xmlns="http://www.w3.org/2000/svg" height="100px" version="1.0" viewBox="0 0 100 100" width="100px" x="0px" y="0px">
<line fill="none" stroke="#000000" stroke-width="2" x1="56.5" x2="56.5" y1="12.5" y2="3" /><line fill="none" stroke="#000000" stroke-width="2" x1="45.5" x2="65" y1="48.5" y2="48.5" /><line fill="none" stroke="#000000" stroke-width="2" x1="45.5" x2="45.5" y1="87" y2="20" /><line fill="none" stroke="#000000" stroke-width="2" x1="30.5" x2="30.5" y1="90.5" y2="35" /><path d="M7,91 c8.727,-9.241 12.5,-20.743 12.5,-47 v-30.5 h75.0" fill="none" stroke="#000000" stroke-width="2" /><path d="M2.5,67 c6.793,-3.015 12.445,-6.519 16.5,-10" fill="none" stroke="#000000" stroke-width="2" /><path d="M15.5,41 c-2.875,-5.722 -6.672,-12.311 -11,-19" fill="none" stroke="#000000" stroke-width="2" /><path d="M69.5,20 v62.0 c0,9.747 0.276,10 11,10 c12.825,0 13.005,-0.21 14,-24.5" fill="none" stroke="#000000" stroke-width="2" /><path d="M69.5,53.5 c8.867,-5.337 16.334,-12.011 24.5,-22" fill="none" stroke="#000000" stroke-width="2" /><path d="M18,93 c15.851,-2.746 30.073,-6.446 46.5,-12" fill="none" stroke="#000000" stroke-width="2" /></svg>