<?xml version='1.0' encoding='utf-8'?>
<svg xmlns="http://www.w3.org/2000/svg" height="100px" version="1.0" viewBox="0 0 100 100" width="100px" x="0px" y="0px">
<line fill="none" stroke="#000000" stroke-width="2" x1="56.5" x2="56.5" y1="13" y2="3" /><line fill="none" stroke="#000000" stroke-width="2" x1="89.5" x2="38" y1="29" y2="29" /><line fill="none" stroke="#000000" stroke-width="2" x1="94.5" x2="25" y1="53.5" y2="53.5" /><path d="M7,91 c8.727,-9.241 12.5,-20.743 12.5,-47 v-30.0 h75.0" fill="none" stroke="#000000" stroke-width="2" /><path d="M2.5,67 c6.793,-3.015 12.445,-6.519 16.5,-10" fill="none" stroke="#000000" stroke-width="2" /><path d="M15.5,41 c-2.875,-5.722 -6.672,-12.311 -11,-19" fill="none" stroke="#000000" stroke-width="2" /><path d="M25,48 c7.628,-8.402 14.011,-19.351 18,-30.5" fill="none" stroke="#000000" stroke-width="2" /><path d="M21.5,91 c23.191,-9.296 37,-26.097 37,-42 v-20.0" fill="none" stroke="#000000" stroke-width="2" /><path d="M93.5,91 c-21.901,-9.066 -35,-25.981 -35,-42" fill="none" stroke="#000000" stroke-width="2" /></svg>