<?xml version='1.0' encoding='utf-8'?>
<svg xmlns="http://www.w3.org/2000/svg" height="100px" version="1.0" viewBox="0 0 100 100" width="100px" x="0px" y="0px">
<line fill="none" stroke="#000000" stroke-width="2" x1="56.5" x2="56.5" y1="12.5" y2="3" /><line fill="none" stroke="#000000" stroke-width="2" x1="32.5" x2="85.5" y1="39.5" y2="39.5" /><polyline fill="none" points="32.5,56.5 85.5,56.5 85.5,23 31.5,23 31.5,89" stroke="#000000" stroke-width="2" /><path d="M7,91 c8.727,-9.241 12.5,-20.743 12.5,-47 v-30.5 h75.0" fill="none" stroke="#000000" stroke-width="2" /><path d="M2.5,67 c6.793,-3.015 12.445,-6.519 16.5,-10" fill="none" stroke="#000000" stroke-width="2" /><path d="M15.5,41 c-2.875,-5.722 -6.672,-12.311 -11,-19" fill="none" stroke="#000000" stroke-width="2" /><path d="M53,56.5 c6.41,15.284 21.654,28.429 40.5,34.5" fill="none" stroke="#000000" stroke-width="2" /><path d="M19,91 c15.131,-2.175 28.374,-5.009 44,-9.5" fill="none" stroke="#000000" stroke-width="2" /><path d="M65.5,74.5 c8.928,-4.035 17.074,-9.53 24,-16" fill="none" stroke="#000000" stroke-width="2" /></svg>