<?xml version='1.0' encoding='utf-8'?>
<svg xmlns="http://www.w3.org/2000/svg" height="100px" version="1.0" viewBox="0 0 100 100" width="100px" x="0px" y="0px">
<line fill="none" stroke="#000000" stroke-width="2" x1="20" x2="95" y1="89" y2="89" /><line fill="none" stroke="#000000" stroke-width="2" x1="56.5" x2="56.5" y1="13" y2="3" /><line fill="none" stroke="#000000" stroke-width="2" x1="24" x2="93.5" y1="25.5" y2="25.5" /><polyline fill="none" points="32,60.5 32,38 87,38 87,59.5 33,59.5" stroke="#000000" stroke-width="2" /><path d="M7,91 c8.727,-9.241 12.5,-20.743 12.5,-47 v-30.0 h75.0" fill="none" stroke="#000000" stroke-width="2" /><path d="M2.5,67 c6.793,-3.015 12.445,-6.519 16.5,-10" fill="none" stroke="#000000" stroke-width="2" /><path d="M15.5,41 c-2.875,-5.722 -6.672,-12.311 -11,-19" fill="none" stroke="#000000" stroke-width="2" /><path d="M66,89 c5.482,-6.811 10.152,-15.401 13,-24.5" fill="none" stroke="#000000" stroke-width="2" /><path d="M49,85 c-2.643,-6.784 -5.918,-13.917 -9.5,-20.5" fill="none" stroke="#000000" stroke-width="2" /></svg>