<?xml version='1.0' encoding='utf-8'?>
<svg xmlns="http://www.w3.org/2000/svg" height="100px" version="1.0" viewBox="0 0 100 100" width="100px" x="0px" y="0px">
<line fill="none" stroke="#000000" stroke-width="2" x1="56.5" x2="56.5" y1="12.5" y2="3" /><line fill="none" stroke="#000000" stroke-width="2" x1="41.5" x2="41.5" y1="93" y2="24.5" /><line fill="none" stroke="#000000" stroke-width="2" x1="61" x2="23" y1="45" y2="45" /><line fill="none" stroke="#000000" stroke-width="2" x1="68" x2="68" y1="77.5" y2="24.5" /><path d="M7,91 c8.727,-9.241 12.5,-20.743 12.5,-47 v-30.5 h75.0" fill="none" stroke="#000000" stroke-width="2" /><path d="M2.5,67 c6.793,-3.015 12.445,-6.519 16.5,-10" fill="none" stroke="#000000" stroke-width="2" /><path d="M15.5,41 c-2.875,-5.722 -6.672,-12.311 -11,-19" fill="none" stroke="#000000" stroke-width="2" /><path d="M20,83.5 c9.936,-12.7 16.359,-24.998 20.5,-39" fill="none" stroke="#000000" stroke-width="2" /><path d="M59,21 c-11.969,2.732 -23.01,4.681 -34.5,6" fill="none" stroke="#000000" stroke-width="2" /><path d="M60.5,75.5 c-5.553,-9.572 -12.229,-20.362 -18.5,-30" fill="none" stroke="#000000" stroke-width="2" /><path d="M90.5,21 v62.5 c0,6.146 -0.762,7 -6,7 c-2.606,0 -6.713,-0.145 -12,-0.5" fill="none" stroke="#000000" stroke-width="2" /></svg>