<?xml version='1.0' encoding='utf-8'?>
<svg xmlns="http://www.w3.org/2000/svg" height="100px" version="1.0" viewBox="0 0 100 100" width="100px" x="0px" y="0px">
<line fill="none" stroke="#000000" stroke-width="2" x1="39.5" x2="39.5" y1="61" y2="88.5" /><line fill="none" stroke="#000000" stroke-width="2" x1="60.5" x2="60.5" y1="61" y2="88.5" /><line fill="none" stroke="#000000" stroke-width="2" x1="6" x2="94" y1="89.5" y2="89.5" /><polyline fill="none" points="81.5,88.5 81.5,60 18.5,60 18.5,88.5" stroke="#000000" stroke-width="2" /><path d="M5,30 c15.272,-6.578 27.279,-15.104 35,-24" fill="none" stroke="#000000" stroke-width="2" /><path d="M11.5,56 c17.582,-5.058 29.137,-16.179 34,-33.499" fill="none" stroke="#000000" stroke-width="2" /><path d="M24,22.5 h54.5 c0,25.082 -3.248,29 -12,29 c-4.032,0 -9.646,-0.348 -15,-1" fill="none" stroke="#000000" stroke-width="2" /><path d="M95,30 c-17.094,-8.14 -28.467,-16.31 -35,-24" fill="none" stroke="#000000" stroke-width="2" /></svg>