<?xml version='1.0' encoding='utf-8'?>
<svg xmlns="http://www.w3.org/2000/svg" height="100px" version="1.0" viewBox="0 0 100 100" width="100px" x="0px" y="0px">
<line fill="none" stroke="#000000" stroke-width="2" x1="28" x2="83" y1="44" y2="44" /><line fill="none" stroke="#000000" stroke-width="2" x1="28" x2="83" y1="55.5" y2="55.5" /><polyline fill="none" points="28,67 83,67 83,32.5 27,32.5 27,68" stroke="#000000" stroke-width="2" /><polyline fill="none" points="13,33 13,75.5 93,75.5" stroke="#000000" stroke-width="2" /><path d="M8,92 c13.08,-3.282 24.369,-7.771 31,-12" fill="none" stroke="#000000" stroke-width="2" /><path d="M92,93 c-7.982,-4.208 -19.018,-8.679 -31,-12.5" fill="none" stroke="#000000" stroke-width="2" /><path d="M16,6 v14.0 c0,3.136 1.035,4 31,4 c39.133,0 39.172,-0.034 40.5,-9.5" fill="none" stroke="#000000" stroke-width="2" /><path d="M16,15 c23.906,-1.435 45.602,-3.474 70,-6.5" fill="none" stroke="#000000" stroke-width="2" /></svg>