<?xml version='1.0' encoding='utf-8'?>
<svg xmlns="http://www.w3.org/2000/svg" height="100px" version="1.0" viewBox="0 0 100 100" width="100px" x="0px" y="0px">
<line fill="none" stroke="#000000" stroke-width="2" x1="10.5" x2="31.5" y1="35" y2="35" /><line fill="none" stroke="#000000" stroke-width="2" x1="10.5" x2="31.5" y1="59" y2="59" /><line fill="none" stroke="#000000" stroke-width="2" x1="97" x2="35.5" y1="70.5" y2="70.5" /><line fill="none" stroke="#000000" stroke-width="2" x1="44.5" x2="95" y1="49.5" y2="49.5" /><line fill="none" stroke="#000000" stroke-width="2" x1="72.5" x2="72.5" y1="94" y2="33.5" /><polyline fill="none" points="10.5,83 32.5,83 32.5,11 9.5,11 9.5,91" stroke="#000000" stroke-width="2" /><path d="M95.5,35.5 c-4.65,-6.851 -11.441,-15.397 -17.5,-22" fill="none" stroke="#000000" stroke-width="2" /><path d="M37.5,31 c15.184,-0.437 34.689,-1.921 52,-4" fill="none" stroke="#000000" stroke-width="2" /><path d="M46.5,30.5 c5.072,-7.271 10.193,-16.259 14.5,-25.5" fill="none" stroke="#000000" stroke-width="2" /><path d="M36.5,64 c5.573,-7.747 10.211,-17.515 13,-28" fill="none" stroke="#000000" stroke-width="2" /></svg>