<?xml version='1.0' encoding='utf-8'?>
<svg xmlns="http://www.w3.org/2000/svg" height="100px" version="1.0" viewBox="0 0 100 100" width="100px" x="0px" y="0px">
<line fill="none" stroke="#000000" stroke-width="2" x1="8" x2="92" y1="70" y2="70" /><line fill="none" stroke="#000000" stroke-width="2" x1="50" x2="50" y1="70" y2="96" /><line fill="none" stroke="#000000" stroke-width="2" x1="11" x2="89" y1="83.5" y2="83.5" /><line fill="none" stroke="#000000" stroke-width="2" x1="7" x2="93" y1="51" y2="51" /><line fill="none" stroke="#000000" stroke-width="2" x1="13" x2="87" y1="38.5" y2="38.5" /><line fill="none" stroke="#000000" stroke-width="2" x1="50" x2="50" y1="51" y2="28" /><line fill="none" stroke="#000000" stroke-width="2" x1="63" x2="63" y1="27" y2="11.5" /><line fill="none" stroke="#000000" stroke-width="2" x1="37" x2="37" y1="27" y2="11.5" /><polyline fill="none" points="13,28 88,28 88,11.5 12,11.5 12,29" stroke="#000000" stroke-width="2" /><path d="M42,11.5 c2.625,-2.832 5.113,-5.854 7,-8.5" fill="none" stroke="#000000" stroke-width="2" /><path d="M60,70 c5.869,-5.827 10.912,-12.121 15,-19" fill="none" stroke="#000000" stroke-width="2" /><path d="M36,70 c-3.103,-6.255 -6.908,-12.884 -11,-19" fill="none" stroke="#000000" stroke-width="2" /></svg>