<?xml version='1.0' encoding='utf-8'?>
<svg xmlns="http://www.w3.org/2000/svg" height="100px" version="1.0" viewBox="0 0 100 100" width="100px" x="0px" y="0px">
<line fill="none" stroke="#000000" stroke-width="2" x1="45.5" x2="5.5" y1="40.5" y2="40.5" /><line fill="none" stroke="#000000" stroke-width="2" x1="7" x2="44.5" y1="11" y2="11" /><line fill="none" stroke="#000000" stroke-width="2" x1="50" x2="87" y1="35" y2="35" /><line fill="none" stroke="#000000" stroke-width="2" x1="92.5" x2="45" y1="53" y2="53" /><path d="M28,40.5 v41.5 c0,8.442 -0.49,9 -5,9 c-1.602,0 -5.98,-0.18 -11,-0.5" fill="none" stroke="#000000" stroke-width="2" /><path d="M4.5,80.5 c8.881,-10.218 16.807,-23.728 23,-40" fill="none" stroke="#000000" stroke-width="2" /><path d="M13,18.5 c6.162,6.294 12.607,13.762 19,22" fill="none" stroke="#000000" stroke-width="2" /><path d="M43.7,11.4 c-4.967,6.632 -11.653,13.693 -19.2,20.1" fill="none" stroke="#000000" stroke-width="2" /><path d="M44.581,41.103 c-3.213,7.396 -6.991,13.756 -11.581,19.397" fill="none" stroke="#000000" stroke-width="2" /><path d="M40.5,37 c10.592,-9.283 19.525,-19.163 28,-31 c8.474,11.837 17.406,21.717 28,31" fill="none" stroke="#000000" stroke-width="2" /><path d="M66.5,93 c9.994,-10.942 18.765,-24.858 25.082,-39.399" fill="none" stroke="#000000" stroke-width="2" /></svg>