<?xml version='1.0' encoding='utf-8'?>
<svg xmlns="http://www.w3.org/2000/svg" height="100px" version="1.0" viewBox="0 0 100 100" width="100px" x="0px" y="0px">
<line fill="none" stroke="#000000" stroke-width="2" x1="34" x2="12.5" y1="21" y2="21" /><line fill="none" stroke="#000000" stroke-width="2" x1="34.5" x2="5" y1="48" y2="48" /><line fill="none" stroke="#000000" stroke-width="2" x1="34.5" x2="94.5" y1="27" y2="27" /><line fill="none" stroke="#000000" stroke-width="2" x1="64.5" x2="64.5" y1="48" y2="12" /><line fill="none" stroke="#000000" stroke-width="2" x1="95" x2="34" y1="55.5" y2="55.5" /><path d="M6,40 c4.103,-9.372 7.465,-21.253 9.5,-34" fill="none" stroke="#000000" stroke-width="2" /><path d="M5.5,90 c9.322,-8.756 16,-27.479 16,-48.5 V21.0" fill="none" stroke="#000000" stroke-width="2" /><path d="M35,81.5 c-4.254,-9.28 -9.063,-19.054 -14,-28.5" fill="none" stroke="#000000" stroke-width="2" /><path d="M38.5,13 c17.852,0 34.988,-1.563 51,-4.5" fill="none" stroke="#000000" stroke-width="2" /><path d="M37,50 c12.788,-7.093 21.627,-14.864 27,-23" fill="none" stroke="#000000" stroke-width="2" /><path d="M95,50 c-14.137,-7.081 -24.116,-14.954 -30,-23" fill="none" stroke="#000000" stroke-width="2" /><path d="M32.5,91.5 c24.365,-4.132 44.019,-18.591 51.5,-36" fill="none" stroke="#000000" stroke-width="2" /><path d="M60,44 c-5.271,11.427 -12.019,21.636 -21,31.5" fill="none" stroke="#000000" stroke-width="2" /><path d="M43,71 c16.692,3.744 31.227,9.847 50.5,21.5" fill="none" stroke="#000000" stroke-width="2" /></svg>