<?xml version='1.0' encoding='utf-8'?>
<svg xmlns="http://www.w3.org/2000/svg" height="100px" version="1.0" viewBox="0 0 100 100" width="100px" x="0px" y="0px">
<line fill="none" stroke="#000000" stroke-width="2" x1="35" x2="5.5" y1="11" y2="11" /><line fill="none" stroke="#000000" stroke-width="2" x1="66.5" x2="66.5" y1="17" y2="52" /><line fill="none" stroke="#000000" stroke-width="2" x1="41.5" x2="92.5" y1="34" y2="34" /><line fill="none" stroke="#000000" stroke-width="2" x1="95.5" x2="35.5" y1="72.5" y2="72.5" /><line fill="none" stroke="#000000" stroke-width="2" x1="72" x2="72" y1="53" y2="94" /><polyline fill="none" points="14.5,83 32,83 32,42.5 13.5,42.5 13.5,93" stroke="#000000" stroke-width="2" /><polyline fill="none" points="41.5,53 92.5,53 92.5,16 40.5,16 40.5,54" stroke="#000000" stroke-width="2" /><path d="M2.5,63 c8.673,-11.171 14.006,-26.27 16.5,-52" fill="none" stroke="#000000" stroke-width="2" /><path d="M56,16 c2.645,-3.953 5.15,-8.271 7,-12" fill="none" stroke="#000000" stroke-width="2" /><path d="M45.5,72.5 c2.653,-4.937 5.156,-10.333 7,-15" fill="none" stroke="#000000" stroke-width="2" /></svg>