<?xml version='1.0' encoding='utf-8'?>
<svg xmlns="http://www.w3.org/2000/svg" height="100px" version="1.0" viewBox="0 0 100 100" width="100px" x="0px" y="0px">
<line fill="none" stroke="#000000" stroke-width="2" x1="35" x2="5.5" y1="11" y2="11" /><line fill="none" stroke="#000000" stroke-width="2" x1="39.5" x2="95.5" y1="89" y2="89" /><line fill="none" stroke="#000000" stroke-width="2" x1="92.5" x2="46" y1="63" y2="63" /><line fill="none" stroke="#000000" stroke-width="2" x1="67.5" x2="67.5" y1="89" y2="63" /><line fill="none" stroke="#000000" stroke-width="2" x1="35" x2="95.5" y1="48" y2="48" /><line fill="none" stroke="#000000" stroke-width="2" x1="39" x2="91" y1="32.5" y2="32.5" /><line fill="none" stroke="#000000" stroke-width="2" x1="36" x2="94" y1="18" y2="18" /><line fill="none" stroke="#000000" stroke-width="2" x1="65" x2="65" y1="48" y2="18" /><polyline fill="none" points="14.5,83 32,83 32,42.5 13.5,42.5 13.5,93" stroke="#000000" stroke-width="2" /><path d="M2.5,63 c8.673,-11.171 14.006,-26.27 16.5,-52" fill="none" stroke="#000000" stroke-width="2" /><path d="M54.5,18 c-1.912,-4.979 -3.995,-9.85 -6,-14" fill="none" stroke="#000000" stroke-width="2" /><path d="M74.5,18 c2.266,-4.613 4.422,-9.644 6,-14" fill="none" stroke="#000000" stroke-width="2" /><path d="M27.5,91 c12.07,-11.585 19.893,-26.832 22,-43" fill="none" stroke="#000000" stroke-width="2" /></svg>