<?xml version='1.0' encoding='utf-8'?>
<svg xmlns="http://www.w3.org/2000/svg" height="100px" version="1.0" viewBox="0 0 100 100" width="100px" x="0px" y="0px">
<line fill="none" stroke="#000000" stroke-width="2" x1="32" x2="4.5" y1="11" y2="11" /><line fill="none" stroke="#000000" stroke-width="2" x1="11.5" x2="11.5" y1="42.5" y2="93" /><line fill="none" stroke="#000000" stroke-width="2" x1="42.5" x2="62" y1="14" y2="14" /><line fill="none" stroke="#000000" stroke-width="2" x1="84" x2="84" y1="57.5" y2="6.5" /><line fill="none" stroke="#000000" stroke-width="2" x1="63.5" x2="94.5" y1="17.5" y2="17.5" /><line fill="none" stroke="#000000" stroke-width="2" x1="68" x2="68" y1="43" y2="18.5" /><line fill="none" stroke="#000000" stroke-width="2" x1="96" x2="56.5" y1="43" y2="43" /><line fill="none" stroke="#000000" stroke-width="2" x1="61.5" x2="61.5" y1="93.5" y2="50" /><line fill="none" stroke="#000000" stroke-width="2" x1="94.5" x2="30.5" y1="62" y2="62" /><polyline fill="none" points="12.5,83 27.5,83 27.5,42.5 11.5,42.5" stroke="#000000" stroke-width="2" /><path d="M2,63 c7.358,-11.171 11.884,-26.27 14,-52" fill="none" stroke="#000000" stroke-width="2" /><path d="M28,32.5 c8.199,-7.294 14.214,-16.166 18,-26.5" fill="none" stroke="#000000" stroke-width="2" /><path d="M61.002,14.946 C60,33.719 47.316,50.054 30,56.5" fill="none" stroke="#000000" stroke-width="2" /><path d="M54.5,36.5 c-4.344,-3.849 -9.979,-8.214 -15,-11.5" fill="none" stroke="#000000" stroke-width="2" /><path d="M25.5,88 c15.318,-7.056 28.111,-16.865 35,-26" fill="none" stroke="#000000" stroke-width="2" /><path d="M96,88 c-15.246,-7.785 -26.217,-16.469 -33.5,-26" fill="none" stroke="#000000" stroke-width="2" /></svg>