<?xml version='1.0' encoding='utf-8'?>
<svg xmlns="http://www.w3.org/2000/svg" height="100px" version="1.0" viewBox="0 0 100 100" width="100px" x="0px" y="0px">
<line fill="none" stroke="#000000" stroke-width="2" x1="31.5" x2="5" y1="11" y2="11" /><line fill="none" stroke="#000000" stroke-width="2" x1="29.5" x2="96" y1="57.5" y2="57.5" /><line fill="none" stroke="#000000" stroke-width="2" x1="58" x2="29.5" y1="45.5" y2="48" /><line fill="none" stroke="#000000" stroke-width="2" x1="93.5" x2="65" y1="44" y2="46.5" /><polyline fill="none" points="13.5,81 29.5,81 29.5,42.5 12.5,42.5 12.5,91" stroke="#000000" stroke-width="2" /><path d="M2,63 c7.968,-10.263 12.822,-24.368 15.5,-52" fill="none" stroke="#000000" stroke-width="2" /><path d="M89,63 c-8.352,13.063 -20.146,22.411 -36.5,28.5" fill="none" stroke="#000000" stroke-width="2" /><path d="M42.5,57.5 c-0.16,13.493 -6.211,27.1 -14.5,34.5" fill="none" stroke="#000000" stroke-width="2" /><path d="M41.5,66 c4.872,6.251 11.547,11.772 19,15.5" fill="none" stroke="#000000" stroke-width="2" /><path d="M62.5,6 c0,70.864 19.099,85.5 27.5,85.5 c1.926,0 4.743,-1.932 6.5,-17" fill="none" stroke="#000000" stroke-width="2" /><path d="M79.5,49.5 c2.854,2.505 5.885,5.348 8.5,8" fill="none" stroke="#000000" stroke-width="2" /><path d="M44,34 c-4.227,-4.841 -9.336,-10.508 -14,-15.5" fill="none" stroke="#000000" stroke-width="2" /><path d="M60.5,53 c-1.98,-6.971 -4.938,-16.11 -7.5,-23" fill="none" stroke="#000000" stroke-width="2" /><path d="M34.5,47.5 c8.004,-10.499 15.146,-21.399 21.5,-33" fill="none" stroke="#000000" stroke-width="2" /><path d="M34,23 c3.928,-5.384 7.311,-10.743 10.5,-16.5" fill="none" stroke="#000000" stroke-width="2" /><path d="M79.5,33.5 c-3.977,-4.718 -9.118,-10.627 -13.5,-15.5" fill="none" stroke="#000000" stroke-width="2" /><path d="M95.5,51 c-1.855,-6.704 -4.576,-15.365 -7,-22" fill="none" stroke="#000000" stroke-width="2" /><path d="M70.5,46 c7.807,-9.983 14.937,-20.833 21,-32" fill="none" stroke="#000000" stroke-width="2" /><path d="M70,22.5 c3.717,-5.207 6.988,-10.437 10,-16" fill="none" stroke="#000000" stroke-width="2" /></svg>