<?xml version='1.0' encoding='utf-8'?>
<svg xmlns="http://www.w3.org/2000/svg" height="100px" version="1.0" viewBox="0 0 100 100" width="100px" x="0px" y="0px">
<line fill="none" stroke="#000000" stroke-width="2" x1="29" x2="4.5" y1="11" y2="11" /><line fill="none" stroke="#000000" stroke-width="2" x1="11.5" x2="11.5" y1="42.5" y2="93" /><line fill="none" stroke="#000000" stroke-width="2" x1="53" x2="72" y1="32.5" y2="32.5" /><line fill="none" stroke="#000000" stroke-width="2" x1="94.5" x2="30.5" y1="62" y2="62" /><line fill="none" stroke="#000000" stroke-width="2" x1="62" x2="62" y1="94" y2="51.5" /><line fill="none" stroke="#000000" stroke-width="2" x1="49" x2="27.5" y1="48.5" y2="51.5" /><line fill="none" stroke="#000000" stroke-width="2" x1="95" x2="74" y1="48.5" y2="51.5" /><polyline fill="none" points="12.5,83 27.5,83 27.5,42.5 11.5,42.5" stroke="#000000" stroke-width="2" /><polyline fill="none" points="53,51.5 72,51.5 72,15.5 52,15.5 52,52.5" stroke="#000000" stroke-width="2" /><path d="M2,63 c7.358,-11.171 11.884,-26.27 14,-52" fill="none" stroke="#000000" stroke-width="2" /><path d="M64,4 c-1.16,4.222 -2.449,7.964 -4,11.5" fill="none" stroke="#000000" stroke-width="2" /><path d="M26,91 c17.021,-9.321 28.064,-18.798 35,-29" fill="none" stroke="#000000" stroke-width="2" /><path d="M96,91 c-16.023,-9.366 -26.462,-18.798 -33,-29" fill="none" stroke="#000000" stroke-width="2" /><path d="M30.5,24.5 c3.158,-5.858 5.949,-11.737 8.5,-18" fill="none" stroke="#000000" stroke-width="2" /><path d="M76.5,24.5 c3.158,-5.858 5.949,-11.737 8.5,-18" fill="none" stroke="#000000" stroke-width="2" /><path d="M84,37 c-3.093,-5.326 -7.088,-12.003 -10.5,-17.5" fill="none" stroke="#000000" stroke-width="2" /><path d="M38,37 c-3.093,-5.326 -7.088,-12.003 -10.5,-17.5" fill="none" stroke="#000000" stroke-width="2" /><path d="M30.5,51 c6.506,-11.231 12.447,-23.437 17.5,-36" fill="none" stroke="#000000" stroke-width="2" /><path d="M76.5,51 c6.506,-11.231 12.447,-23.437 17.5,-36" fill="none" stroke="#000000" stroke-width="2" /><path d="M97,56.5 c-1.689,-7.474 -4.243,-17.114 -6.5,-24.5" fill="none" stroke="#000000" stroke-width="2" /><path d="M51,56.5 c-1.689,-7.474 -4.243,-17.114 -6.5,-24.5" fill="none" stroke="#000000" stroke-width="2" /></svg>