<?xml version='1.0' encoding='utf-8'?>
<svg xmlns="http://www.w3.org/2000/svg" height="100px" version="1.0" viewBox="0 0 100 100" width="100px" x="0px" y="0px">
<line fill="none" stroke="#000000" stroke-width="2" x1="34.5" x2="4.5" y1="24" y2="24" /><line fill="none" stroke="#000000" stroke-width="2" x1="19.5" x2="19.5" y1="24" y2="6" /><line fill="none" stroke="#000000" stroke-width="2" x1="19.5" x2="19.5" y1="94" y2="50" /><line fill="none" stroke="#000000" stroke-width="2" x1="31.5" x2="96" y1="44" y2="44" /><line fill="none" stroke="#000000" stroke-width="2" x1="94.5" x2="35" y1="13" y2="13" /><line fill="none" stroke="#000000" stroke-width="2" x1="91.5" x2="36.5" y1="28" y2="28" /><line fill="none" stroke="#000000" stroke-width="2" x1="95.5" x2="34.5" y1="61.5" y2="61.5" /><path d="M33,64 c-3.173,-4.4 -8.353,-10.839 -12.5,-15.5" fill="none" stroke="#000000" stroke-width="2" /><path d="M2.5,65.5 c14.836,-10.143 24.258,-22.283 31.061,-40.844" fill="none" stroke="#000000" stroke-width="2" /><path d="M31.5,86 c16.037,-15.329 28.951,-47.116 31,-83" fill="none" stroke="#000000" stroke-width="2" /><path d="M67,85 c-3.916,-5.855 -9.373,-12.482 -15,-18" fill="none" stroke="#000000" stroke-width="2" /><path d="M84.5,44 v40.5 c0,6.414 -0.625,7 -6,7 c-1.853,0 -6.696,-0.169 -12.5,-0.5" fill="none" stroke="#000000" stroke-width="2" /></svg>