<?xml version='1.0' encoding='utf-8'?>
<svg xmlns="http://www.w3.org/2000/svg" height="100px" version="1.0" viewBox="0 0 100 100" width="100px" x="0px" y="0px">
<line fill="none" stroke="#000000" stroke-width="2" x1="36.5" x2="4.5" y1="24" y2="24" /><line fill="none" stroke="#000000" stroke-width="2" x1="20.5" x2="20.5" y1="24" y2="6" /><line fill="none" stroke="#000000" stroke-width="2" x1="20.5" x2="20.5" y1="94" y2="50" /><line fill="none" stroke="#000000" stroke-width="2" x1="42.5" x2="85.5" y1="26.5" y2="26.5" /><line fill="none" stroke="#000000" stroke-width="2" x1="36" x2="95" y1="43" y2="43" /><polyline fill="none" points="85.5,43 85.5,10.5 40.5,10.5" stroke="#000000" stroke-width="2" /><path d="M36.5,65 c-3.734,-4.671 -9.705,-11.511 -14.5,-16.5" fill="none" stroke="#000000" stroke-width="2" /><path d="M2.5,65.5 c15.794,-10.147 25.825,-22.294 33.068,-40.863" fill="none" stroke="#000000" stroke-width="2" /><path d="M65.5,43 v38.698 c0,8.037 -1.094,9.302 -7,9.302 c-2.577,0 -6.622,-0.173 -12,-0.5" fill="none" stroke="#000000" stroke-width="2" /><path d="M65.5,46 c5.604,17.092 17.492,33.643 31,43.5" fill="none" stroke="#000000" stroke-width="2" /><path d="M91.5,48.5 c-4.063,7.724 -9.156,14.486 -15,20" fill="none" stroke="#000000" stroke-width="2" /><path d="M31.5,87.5 c13.881,-7.854 25.928,-17.592 34,-27" fill="none" stroke="#000000" stroke-width="2" /><path d="M53,66 c-3.273,-5.132 -7.9,-11.371 -13,-17.5" fill="none" stroke="#000000" stroke-width="2" /></svg>