<?xml version='1.0' encoding='utf-8'?>
<svg xmlns="http://www.w3.org/2000/svg" height="100px" version="1.0" viewBox="0 0 100 100" width="100px" x="0px" y="0px">
<line fill="none" stroke="#000000" stroke-width="2" x1="21" x2="21" y1="94" y2="11.5" /><line fill="none" stroke="#000000" stroke-width="2" x1="35.5" x2="5" y1="33" y2="33" /><line fill="none" stroke="#000000" stroke-width="2" x1="66" x2="66" y1="17" y2="52" /><line fill="none" stroke="#000000" stroke-width="2" x1="40.5" x2="92.5" y1="34" y2="34" /><line fill="none" stroke="#000000" stroke-width="2" x1="95.5" x2="29.5" y1="72.5" y2="72.5" /><line fill="none" stroke="#000000" stroke-width="2" x1="71.5" x2="71.5" y1="53" y2="94" /><polyline fill="none" points="40.5,53 92.5,53 92.5,16 39.5,16 39.5,54" stroke="#000000" stroke-width="2" /><path d="M36,8 c-10.381,2.732 -20.033,4.682 -30,6" fill="none" stroke="#000000" stroke-width="2" /><path d="M4,72.5 c7.954,-13.023 13.176,-25.655 16.5,-40" fill="none" stroke="#000000" stroke-width="2" /><path d="M36.5,60 c-4.745,-8.381 -9.939,-17.356 -15,-26" fill="none" stroke="#000000" stroke-width="2" /><path d="M55.5,16 c2.645,-3.953 5.15,-8.271 7,-12" fill="none" stroke="#000000" stroke-width="2" /><path d="M45,72.5 c2.653,-4.937 5.156,-10.333 7,-15" fill="none" stroke="#000000" stroke-width="2" /></svg>