<?xml version='1.0' encoding='utf-8'?>
<svg xmlns="http://www.w3.org/2000/svg" height="100px" version="1.0" viewBox="0 0 100 100" width="100px" x="0px" y="0px">
<line fill="none" stroke="#000000" stroke-width="2" x1="19.5" x2="19.5" y1="94" y2="11.5" /><line fill="none" stroke="#000000" stroke-width="2" x1="33.5" x2="4.5" y1="33" y2="33" /><line fill="none" stroke="#000000" stroke-width="2" x1="51" x2="88" y1="43" y2="43" /><line fill="none" stroke="#000000" stroke-width="2" x1="51" x2="88" y1="58.5" y2="58.5" /><line fill="none" stroke="#000000" stroke-width="2" x1="33.5" x2="95.5" y1="14.5" y2="14.5" /><line fill="none" stroke="#000000" stroke-width="2" x1="38" x2="38" y1="29" y2="94" /><line fill="none" stroke="#000000" stroke-width="2" x1="39" x2="95.5" y1="87" y2="87" /><polyline fill="none" points="51,74.5 89,74.5 89,28 50,28 50,75.5" stroke="#000000" stroke-width="2" /><path d="M33.5,8 c-9.688,2.732 -18.697,4.682 -28,6" fill="none" stroke="#000000" stroke-width="2" /><path d="M3.5,72.5 c7.473,-13.023 12.377,-25.655 15.5,-40" fill="none" stroke="#000000" stroke-width="2" /><path d="M31.5,60 c-3.638,-8.381 -7.621,-17.356 -11.5,-26" fill="none" stroke="#000000" stroke-width="2" /><path d="M67,5 c-1.16,8.443 -2.449,15.928 -4,23" fill="none" stroke="#000000" stroke-width="2" /></svg>