<?xml version='1.0' encoding='utf-8'?>
<svg xmlns="http://www.w3.org/2000/svg" height="100px" version="1.0" viewBox="0 0 100 100" width="100px" x="0px" y="0px">
<line fill="none" stroke="#000000" stroke-width="2" x1="17.5" x2="17.5" y1="94" y2="11.5" /><line fill="none" stroke="#000000" stroke-width="2" x1="30.5" x2="3.5" y1="33" y2="33" /><line fill="none" stroke="#000000" stroke-width="2" x1="94" x2="32.5" y1="30.5" y2="30.5" /><line fill="none" stroke="#000000" stroke-width="2" x1="91" x2="35.5" y1="14.5" y2="14.5" /><line fill="none" stroke="#000000" stroke-width="2" x1="62.5" x2="62.5" y1="30.5" y2="4" /><line fill="none" stroke="#000000" stroke-width="2" x1="46" x2="89" y1="58" y2="58" /><path d="M31,8 c-9.168,2.732 -17.694,4.682 -26.5,6" fill="none" stroke="#000000" stroke-width="2" /><path d="M2.5,72.5 c6.99,-13.023 11.578,-25.655 14.5,-40" fill="none" stroke="#000000" stroke-width="2" /><path d="M30.5,62.5 c-3.751,-9.009 -8.317,-19.284 -12.5,-28.5" fill="none" stroke="#000000" stroke-width="2" /><path d="M31.5,52 c14.913,-3.82 23.167,-11.853 24,-21.5" fill="none" stroke="#000000" stroke-width="2" /><path d="M70,30.5 v14.5 c0,3.856 0.146,4 10.5,4 c11.176,0 11.4,-0.219 12.5,-11.5" fill="none" stroke="#000000" stroke-width="2" /><path d="M29,71.5 c10.092,-5.596 20.979,-16.257 24.5,-23.5" fill="none" stroke="#000000" stroke-width="2" /><path d="M88.174,58.438 c-10.711,15.752 -33.02,28.708 -62.174,33.563" fill="none" stroke="#000000" stroke-width="2" /><path d="M95.5,92 c-21.488,-6.612 -40.23,-18.635 -51,-32" fill="none" stroke="#000000" stroke-width="2" /></svg>