<?xml version='1.0' encoding='utf-8'?>
<svg xmlns="http://www.w3.org/2000/svg" height="100px" version="1.0" viewBox="0 0 100 100" width="100px" x="0px" y="0px">
<line fill="none" stroke="#000000" stroke-width="2" x1="21" x2="21" y1="94" y2="11.5" /><line fill="none" stroke="#000000" stroke-width="2" x1="35.5" x2="5" y1="33" y2="33" /><line fill="none" stroke="#000000" stroke-width="2" x1="41" x2="92" y1="88.5" y2="88.5" /><line fill="none" stroke="#000000" stroke-width="2" x1="41" x2="92" y1="74.5" y2="74.5" /><line fill="none" stroke="#000000" stroke-width="2" x1="95.5" x2="36.5" y1="15" y2="15" /><polyline fill="none" points="92,94 92,61 40,61 40,94" stroke="#000000" stroke-width="2" /><path d="M36,8 c-10.381,2.732 -20.033,4.682 -30,6" fill="none" stroke="#000000" stroke-width="2" /><path d="M4,72.5 c7.954,-13.023 13.176,-25.655 16.5,-40" fill="none" stroke="#000000" stroke-width="2" /><path d="M36.5,60 c-4.745,-8.381 -9.939,-17.356 -15,-26" fill="none" stroke="#000000" stroke-width="2" /><path d="M42.5,36 v13.0 c0,3.474 0.766,4 22,4 c27.281,0 27.357,-0.065 28.5,-11.5" fill="none" stroke="#000000" stroke-width="2" /><path d="M42.5,41 c16.732,-1.816 32.397,-4.347 49.5,-8" fill="none" stroke="#000000" stroke-width="2" /><path d="M75,5.5 c5.736,1.979 10.574,3.806 16,6" fill="none" stroke="#000000" stroke-width="2" /><path d="M34.5,37.5 c15.986,-6.163 25.342,-17.857 26.5,-32" fill="none" stroke="#000000" stroke-width="2" /><path d="M68.5,15 v10.0 c0,2.911 0.781,3.5 11.5,3.5 c13.699,0 13.877,-0.167 14.5,-8" fill="none" stroke="#000000" stroke-width="2" /></svg>