<?xml version='1.0' encoding='utf-8'?>
<svg xmlns="http://www.w3.org/2000/svg" height="100px" version="1.0" viewBox="0 0 100 100" width="100px" x="0px" y="0px">
<line fill="none" stroke="#000000" stroke-width="2" x1="50" x2="50" y1="14.5" y2="3.5" /><line fill="none" stroke="#000000" stroke-width="2" x1="5" x2="46" y1="63" y2="53" /><polyline fill="none" points="89.5,30.5 89.5,14.5 10.5,14.5 10.5,30.5" stroke="#000000" stroke-width="2" /><path d="M56.5,14.5 v18.38 c0,3.319 0.416,3.62 12,3.62 c13.594,0 13.783,-0.138 15.5,-13.5" fill="none" stroke="#000000" stroke-width="2" /><path d="M12,40.5 c19.094,-4.975 29.202,-14.595 30,-26" fill="none" stroke="#000000" stroke-width="2" /><path d="M43.5,92.5 c13.029,-6.166 22,-22.602 22,-45.5" fill="none" stroke="#000000" stroke-width="2" /><path d="M48,47 h41.0 c0,39.241 -3.209,44.5 -9.5,44.5 c-3.05,0 -10.574,-0.46 -15.5,-1" fill="none" stroke="#000000" stroke-width="2" /><path d="M18.5,44 v37.449 c0,6.238 0.353,6.551 10.5,6.551 c13.205,0 13.602,-0.396 14.5,-22.5" fill="none" stroke="#000000" stroke-width="2" /></svg>