<?xml version='1.0' encoding='utf-8'?>
<svg xmlns="http://www.w3.org/2000/svg" height="100px" version="1.0" viewBox="0 0 100 100" width="100px" x="0px" y="0px">
<line fill="none" stroke="#000000" stroke-width="2" x1="24.5" x2="24.5" y1="75" y2="94" /><line fill="none" stroke="#000000" stroke-width="2" x1="88.5" x2="88.5" y1="94" y2="75" /><line fill="none" stroke="#000000" stroke-width="2" x1="56.5" x2="56.5" y1="53.5" y2="88.5" /><line fill="none" stroke="#000000" stroke-width="2" x1="24.5" x2="88.5" y1="88.5" y2="88.5" /><line fill="none" stroke="#000000" stroke-width="2" x1="50" x2="50" y1="13.5" y2="3" /><polyline fill="none" points="27.5,57.5 27.5,70.5 85.5,70.5 85.5,57.5" stroke="#000000" stroke-width="2" /><polyline fill="none" points="89.5,29.5 89.5,13.5 10.5,13.5 10.5,29.5" stroke="#000000" stroke-width="2" /><path d="M7,92.5 c6,-9.287 9,-20.058 9,-34 V39.0 h71.5 v14.5 H16.0" fill="none" stroke="#000000" stroke-width="2" /><path d="M56.5,13.5 v15.38 c0,3.318 0.416,3.62 12,3.62 c12.594,0 12.783,-0.138 14.5,-13.5" fill="none" stroke="#000000" stroke-width="2" /><path d="M14,34.5 c17.485,-3.755 27.246,-12.116 28,-21" fill="none" stroke="#000000" stroke-width="2" /></svg>