<?xml version='1.0' encoding='utf-8'?>
<svg xmlns="http://www.w3.org/2000/svg" height="100px" version="1.0" viewBox="0 0 100 100" width="100px" x="0px" y="0px">
<line fill="none" stroke="#000000" stroke-width="2" x1="50" x2="50" y1="13.5" y2="3" /><line fill="none" stroke="#000000" stroke-width="2" x1="92.5" x2="28" y1="90" y2="90" /><line fill="none" stroke="#000000" stroke-width="2" x1="85.5" x2="36" y1="73" y2="73" /><line fill="none" stroke="#000000" stroke-width="2" x1="61" x2="61" y1="90" y2="63" /><line fill="none" stroke="#000000" stroke-width="2" x1="91" x2="30.5" y1="59.5" y2="59.5" /><line fill="none" stroke="#000000" stroke-width="2" x1="84.5" x2="37" y1="43.5" y2="43.5" /><line fill="none" stroke="#000000" stroke-width="2" x1="61" x2="61" y1="59.5" y2="35.5" /><polyline fill="none" points="89.5,29.5 89.5,13.5 10.5,13.5 10.5,29.5" stroke="#000000" stroke-width="2" /><path d="M56.5,13.5 v15.38 c0,3.318 0.416,3.62 12,3.62 c12.594,0 12.783,-0.138 14.5,-13.5" fill="none" stroke="#000000" stroke-width="2" /><path d="M14,34.5 c17.485,-3.755 27.246,-12.116 28,-21" fill="none" stroke="#000000" stroke-width="2" /><path d="M10,93 c7.89,-6.367 15.109,-13.974 20,-21" fill="none" stroke="#000000" stroke-width="2" /><path d="M29.5,49 c-5.045,-3.113 -11.277,-6.623 -18,-10" fill="none" stroke="#000000" stroke-width="2" /><path d="M25.5,65.5 c-5.594,-3.374 -12.032,-6.867 -19.5,-10.5" fill="none" stroke="#000000" stroke-width="2" /></svg>