<?xml version='1.0' encoding='utf-8'?>
<svg xmlns="http://www.w3.org/2000/svg" height="100px" version="1.0" viewBox="0 0 100 100" width="100px" x="0px" y="0px">
<line fill="none" stroke="#000000" stroke-width="2" x1="50" x2="50" y1="13" y2="2.5" /><line fill="none" stroke="#000000" stroke-width="2" x1="13" x2="44" y1="62" y2="62" /><line fill="none" stroke="#000000" stroke-width="2" x1="13" x2="44" y1="51" y2="51" /><polyline fill="none" points="89.5,29 89.5,13 10.5,13 10.5,29" stroke="#000000" stroke-width="2" /><path d="M56.5,13 v15.38 c0,3.318 0.416,3.62 12,3.62 c12.594,0 12.783,-0.138 14.5,-13.5" fill="none" stroke="#000000" stroke-width="2" /><path d="M14,34 c17.485,-3.755 27.246,-12.116 28,-21" fill="none" stroke="#000000" stroke-width="2" /><path d="M30,30.5 c-1.11,3.53 -2.4,6.563 -4,9.5" fill="none" stroke="#000000" stroke-width="2" /><path d="M4,91.5 c22.164,-7.569 38.307,-17.233 48.5,-28" fill="none" stroke="#000000" stroke-width="2" /><path d="M3.5,75 c17.063,-1.036 30.281,-2.581 40.5,-4.5" fill="none" stroke="#000000" stroke-width="2" /><path d="M25.5,92 c5.811,0.331 10.646,0.5 12.5,0.5 c5.369,0 6,-0.616 6,-6.5 v-46.0 h-32.0 v34.5" fill="none" stroke="#000000" stroke-width="2" /><path d="M52.5,39 h36.5 v15.5 h-30.5 c-0.994,7.815 -2.825,15.951 -5,22.5" fill="none" stroke="#000000" stroke-width="2" /><path d="M55.5,69.5 h35.0 c-2.932,21.663 -4.418,23 -11,23 c-3.624,0 -12.438,-0.451 -19.5,-1" fill="none" stroke="#000000" stroke-width="2" /></svg>