<?xml version='1.0' encoding='utf-8'?>
<svg xmlns="http://www.w3.org/2000/svg" height="100px" version="1.0" viewBox="0 0 100 100" width="100px" x="0px" y="0px">
<line fill="none" stroke="#000000" stroke-width="2" x1="50" x2="50" y1="13.5" y2="2.5" /><line fill="none" stroke="#000000" stroke-width="2" x1="7" x2="93" y1="68.5" y2="68.5" /><line fill="none" stroke="#000000" stroke-width="2" x1="15" x2="85" y1="56.5" y2="56.5" /><line fill="none" stroke="#000000" stroke-width="2" x1="11" x2="89" y1="45" y2="45" /><line fill="none" stroke="#000000" stroke-width="2" x1="50" x2="50" y1="68.5" y2="45" /><polyline fill="none" points="89.5,29.5 89.5,13.5 10.5,13.5 10.5,29.5" stroke="#000000" stroke-width="2" /><path d="M56.5,13.5 v15.38 c0,3.318 0.416,3.62 12,3.62 c12.594,0 12.783,-0.138 14.5,-13.5" fill="none" stroke="#000000" stroke-width="2" /><path d="M14,34.5 c17.485,-3.755 27.246,-12.116 28,-21" fill="none" stroke="#000000" stroke-width="2" /><path d="M92.5,92.5 c-4.201,-6.038 -9.068,-12.229 -15,-19" fill="none" stroke="#000000" stroke-width="2" /><path d="M67,92.75 c-2.518,-5.955 -5.578,-12.132 -9.5,-19" fill="none" stroke="#000000" stroke-width="2" /><path d="M41.5,93 c-0.834,-5.872 -2.088,-12.033 -4,-19" fill="none" stroke="#000000" stroke-width="2" /><path d="M7.5,92.5 c5.269,-5.368 10.214,-11.575 15,-19" fill="none" stroke="#000000" stroke-width="2" /><path d="M38,45 c-2.549,-3.556 -5.327,-7.034 -8,-10" fill="none" stroke="#000000" stroke-width="2" /><path d="M62,45 c3.024,-3.292 5.896,-6.888 8,-10" fill="none" stroke="#000000" stroke-width="2" /></svg>