<?xml version='1.0' encoding='utf-8'?>
<svg xmlns="http://www.w3.org/2000/svg" height="100px" version="1.0" viewBox="0 0 100 100" width="100px" x="0px" y="0px">
<line fill="none" stroke="#000000" stroke-width="2" x1="50" x2="50" y1="13.5" y2="2.5" /><line fill="none" stroke="#000000" stroke-width="2" x1="42.5" x2="5.5" y1="62.5" y2="62.5" /><line fill="none" stroke="#000000" stroke-width="2" x1="41.5" x2="6.5" y1="45.5" y2="45.5" /><line fill="none" stroke="#000000" stroke-width="2" x1="48.5" x2="87.5" y1="61.5" y2="61.5" /><line fill="none" stroke="#000000" stroke-width="2" x1="48.5" x2="87.5" y1="50" y2="50" /><polyline fill="none" points="89.5,29.5 89.5,13.5 10.5,13.5 10.5,29.5" stroke="#000000" stroke-width="2" /><polyline fill="none" points="48.5,73 87.5,73 87.5,38.5 47.5,38.5 47.5,74" stroke="#000000" stroke-width="2" /><path d="M56.5,13.5 v15.38 c0,3.318 0.416,3.62 12,3.62 c12.594,0 12.783,-0.138 14.5,-13.5" fill="none" stroke="#000000" stroke-width="2" /><path d="M14,34.5 c17.485,-3.755 27.246,-12.116 28,-21" fill="none" stroke="#000000" stroke-width="2" /><path d="M6.5,91.5 c12.096,-8.431 17.5,-18.397 17.5,-32.5 v-22.5" fill="none" stroke="#000000" stroke-width="2" /><path d="M41,83 c-4.774,-4.875 -11.012,-10.089 -18,-15" fill="none" stroke="#000000" stroke-width="2" /><path d="M72.5,73 v14.0 c0,4.331 0.203,4.5 9,4.5 c11.408,0 11.636,-0.198 12.5,-15" fill="none" stroke="#000000" stroke-width="2" /><path d="M34,92.5 c16.291,-3.63 25.276,-10.634 27,-19.5" fill="none" stroke="#000000" stroke-width="2" /></svg>