<?xml version='1.0' encoding='utf-8'?>
<svg xmlns="http://www.w3.org/2000/svg" height="100px" version="1.0" viewBox="0 0 100 100" width="100px" x="0px" y="0px">
<line fill="none" stroke="#000000" stroke-width="2" x1="7.5" x2="92.5" y1="89.5" y2="89.5" /><line fill="none" stroke="#000000" stroke-width="2" x1="12" x2="88" y1="51.5" y2="51.5" /><line fill="none" stroke="#000000" stroke-width="2" x1="50" x2="50" y1="51.5" y2="36" /><line fill="none" stroke="#000000" stroke-width="2" x1="94" x2="58.5" y1="18" y2="18" /><line fill="none" stroke="#000000" stroke-width="2" x1="51" x2="18.5" y1="18" y2="18" /><path d="M59.5,89.5 c5.954,-9.65 10.805,-21.482 14,-34.5" fill="none" stroke="#000000" stroke-width="2" /><path d="M37.5,86 c-3.102,-10.465 -6.757,-20.845 -11,-31" fill="none" stroke="#000000" stroke-width="2" /><path d="M34,39 c-2.138,-6.823 -4.543,-14.036 -7,-21" fill="none" stroke="#000000" stroke-width="2" /><path d="M76,39 c-2.139,-6.823 -4.544,-14.036 -7,-21" fill="none" stroke="#000000" stroke-width="2" /><path d="M23,4.5 c-2.729,11.954 -9.133,24.745 -17,34" fill="none" stroke="#000000" stroke-width="2" /><path d="M66,4.5 c-3.717,9.466 -11.482,20.044 -21,28" fill="none" stroke="#000000" stroke-width="2" /></svg>