<?xml version='1.0' encoding='utf-8'?>
<svg xmlns="http://www.w3.org/2000/svg" height="100px" version="1.0" viewBox="0 0 100 100" width="100px" x="0px" y="0px">
<line fill="none" stroke="#000000" stroke-width="2" x1="94" x2="58" y1="15.5" y2="15.5" /><line fill="none" stroke="#000000" stroke-width="2" x1="51" x2="18.5" y1="15.5" y2="15.5" /><line fill="none" stroke="#000000" stroke-width="2" x1="6" x2="94" y1="46" y2="46" /><line fill="none" stroke="#000000" stroke-width="2" x1="20" x2="20" y1="34.5" y2="94.5" /><line fill="none" stroke="#000000" stroke-width="2" x1="20" x2="89" y1="87.5" y2="87.5" /><polyline fill="none" points="76,34.5 76,70.5 46,70.5 46,34.5" stroke="#000000" stroke-width="2" /><path d="M34,32.5 c-2.138,-5.52 -4.543,-11.366 -7,-17" fill="none" stroke="#000000" stroke-width="2" /><path d="M76,32.5 c-2.139,-5.52 -4.544,-11.366 -7,-17" fill="none" stroke="#000000" stroke-width="2" /><path d="M23,4.5 c-2.729,9.845 -9.133,20.379 -17,28" fill="none" stroke="#000000" stroke-width="2" /><path d="M66,4.5 c-3.717,7.438 -11.482,15.749 -21,22" fill="none" stroke="#000000" stroke-width="2" /></svg>