<?xml version='1.0' encoding='utf-8'?>
<svg xmlns="http://www.w3.org/2000/svg" height="100px" version="1.0" viewBox="0 0 100 100" width="100px" x="0px" y="0px">
<line fill="none" stroke="#000000" stroke-width="2" x1="94" x2="57.5" y1="13" y2="13" /><line fill="none" stroke="#000000" stroke-width="2" x1="51.5" x2="17.5" y1="13" y2="13" /><line fill="none" stroke="#000000" stroke-width="2" x1="25" x2="25" y1="24.5" y2="70" /><line fill="none" stroke="#000000" stroke-width="2" x1="92" x2="8" y1="33.5" y2="33.5" /><line fill="none" stroke="#000000" stroke-width="2" x1="75" x2="75" y1="70" y2="24.5" /><line fill="none" stroke="#000000" stroke-width="2" x1="7" x2="93" y1="71" y2="71" /><line fill="none" stroke="#000000" stroke-width="2" x1="26" x2="75" y1="58" y2="58" /><line fill="none" stroke="#000000" stroke-width="2" x1="26" x2="75" y1="45.5" y2="45.5" /><path d="M34,23 c-1.833,-3.247 -3.895,-6.687 -6,-10" fill="none" stroke="#000000" stroke-width="2" /><path d="M78.5,23 c-1.833,-3.247 -3.895,-6.687 -6,-10" fill="none" stroke="#000000" stroke-width="2" /><path d="M23,3 c-3.148,7.932 -9.355,16.47 -17,23" fill="none" stroke="#000000" stroke-width="2" /><path d="M64.5,3 c-3.717,7.438 -11.482,15.749 -21,22" fill="none" stroke="#000000" stroke-width="2" /><path d="M9,92 c13.08,-4.104 24.334,-9.762 31,-15" fill="none" stroke="#000000" stroke-width="2" /><path d="M91,93 c-8,-5.189 -19.018,-10.761 -31,-15.5" fill="none" stroke="#000000" stroke-width="2" /></svg>