<?xml version='1.0' encoding='utf-8'?>
<svg xmlns="http://www.w3.org/2000/svg" height="100px" version="1.0" viewBox="0 0 100 100" width="100px" x="0px" y="0px">
<line fill="none" stroke="#000000" stroke-width="2" x1="94" x2="56" y1="13" y2="13" /><line fill="none" stroke="#000000" stroke-width="2" x1="50" x2="17.5" y1="13" y2="13" /><line fill="none" stroke="#000000" stroke-width="2" x1="12" x2="92" y1="28" y2="28" /><line fill="none" stroke="#000000" stroke-width="2" x1="47" x2="47" y1="59.5" y2="92" /><line fill="none" stroke="#000000" stroke-width="2" x1="68" x2="68" y1="59.5" y2="92" /><line fill="none" stroke="#000000" stroke-width="2" x1="27" x2="89" y1="74" y2="74" /><path d="M34,28 c-1.833,-4.87 -3.895,-10.03 -6,-15" fill="none" stroke="#000000" stroke-width="2" /><path d="M74,28 c-1.833,-4.87 -3.895,-10.03 -6,-15" fill="none" stroke="#000000" stroke-width="2" /><path d="M23,3 c-3.148,7.932 -9.355,16.47 -17,23" fill="none" stroke="#000000" stroke-width="2" /><path d="M63,3 c-3.717,7.438 -11.482,15.749 -21,22" fill="none" stroke="#000000" stroke-width="2" /><path d="M5,90 c7.829,-9.563 13,-25.117 13,-41 v-12.5 h67.0 v14.5 h-66.0" fill="none" stroke="#000000" stroke-width="2" /><path d="M76,91 c4.477,0.359 7.305,0.5 8.5,0.5 c3.977,0 4.5,-0.672 4.5,-6 v-26.0 h-63.0 v34.0" fill="none" stroke="#000000" stroke-width="2" /></svg>