<?xml version='1.0' encoding='utf-8'?>
<svg xmlns="http://www.w3.org/2000/svg" height="100px" version="1.0" viewBox="0 0 100 100" width="100px" x="0px" y="0px">
<line fill="none" stroke="#000000" stroke-width="2" x1="50" x2="16.5" y1="14" y2="14" /><line fill="none" stroke="#000000" stroke-width="2" x1="94" x2="56" y1="14" y2="14" /><line fill="none" stroke="#000000" stroke-width="2" x1="49" x2="49" y1="31" y2="66.5" /><line fill="none" stroke="#000000" stroke-width="2" x1="16" x2="82.5" y1="55" y2="55" /><line fill="none" stroke="#000000" stroke-width="2" x1="16" x2="82.5" y1="42.5" y2="42.5" /><path d="M22,4 c-3.148,7.932 -9.355,16.47 -17,23" fill="none" stroke="#000000" stroke-width="2" /><path d="M34,30 c-1.833,-5.195 -3.895,-10.698 -6,-16" fill="none" stroke="#000000" stroke-width="2" /><path d="M63,4 c-3.717,7.438 -11.482,15.749 -21,22" fill="none" stroke="#000000" stroke-width="2" /><path d="M74,30 c-1.833,-5.195 -3.895,-10.698 -6,-16" fill="none" stroke="#000000" stroke-width="2" /><path d="M76,85 c-2.168,-3.976 -4.893,-8.403 -8,-13" fill="none" stroke="#000000" stroke-width="2" /><path d="M55,88.5 c-1.481,-4.809 -3.503,-10.106 -6,-15.75" fill="none" stroke="#000000" stroke-width="2" /><path d="M34,92 c-0.795,-5.642 -2.113,-11.809 -4,-18.5" fill="none" stroke="#000000" stroke-width="2" /><path d="M6,93 c3.813,-5.99 7.14,-12.769 10,-20.5" fill="none" stroke="#000000" stroke-width="2" /><path d="M85.5,30 H16.0 v37.5 h73.0 c0,18.534 -3.825,24.5 -10.5,24.5 c-3.191,0 -7.756,-0.135 -13.5,-0.5" fill="none" stroke="#000000" stroke-width="2" /></svg>