<?xml version='1.0' encoding='utf-8'?>
<svg xmlns="http://www.w3.org/2000/svg" height="100px" version="1.0" viewBox="0 0 100 100" width="100px" x="0px" y="0px">
<line fill="none" stroke="#000000" stroke-width="2" x1="94" x2="56.5" y1="13" y2="13" /><line fill="none" stroke="#000000" stroke-width="2" x1="51" x2="17.5" y1="13" y2="13" /><line fill="none" stroke="#000000" stroke-width="2" x1="36" x2="86.5" y1="50" y2="50" /><line fill="none" stroke="#000000" stroke-width="2" x1="61.5" x2="61.5" y1="61.5" y2="20.5" /><line fill="none" stroke="#000000" stroke-width="2" x1="31" x2="92.5" y1="29" y2="29" /><line fill="none" stroke="#000000" stroke-width="2" x1="94" x2="31" y1="71.5" y2="71.5" /><polyline fill="none" points="36,62.5 87.5,62.5 87.5,37.5 35,37.5 35,63.5" stroke="#000000" stroke-width="2" /><path d="M34,25 c-1.833,-3.896 -3.895,-8.024 -6,-12" fill="none" stroke="#000000" stroke-width="2" /><path d="M74,25 c-1.833,-3.896 -3.895,-8.024 -6,-12" fill="none" stroke="#000000" stroke-width="2" /><path d="M23,3 c-3.148,7.932 -9.355,16.47 -17,23" fill="none" stroke="#000000" stroke-width="2" /><path d="M63,3 c-3.363,7.438 -10.391,15.75 -19,22" fill="none" stroke="#000000" stroke-width="2" /><path d="M75.5,19 c4.412,2.066 9.367,4.646 13.5,7" fill="none" stroke="#000000" stroke-width="2" /><path d="M58,87.5 c-4.971,-3.572 -11.873,-7.627 -19,-11" fill="none" stroke="#000000" stroke-width="2" /><path d="M79,63.5 V86.0 c0,5.709 -0.375,6 -5.5,6 c-1.845,0 -6.896,-0.182 -12.5,-0.5" fill="none" stroke="#000000" stroke-width="2" /><path d="M10,93 c7.514,-7.671 13.688,-16.247 18,-25" fill="none" stroke="#000000" stroke-width="2" /><path d="M28.5,39 c-4.842,-3.677 -10.543,-7.573 -17,-11.5" fill="none" stroke="#000000" stroke-width="2" /><path d="M24.5,58 c-5.355,-4.007 -11.389,-8.123 -18.5,-12.5" fill="none" stroke="#000000" stroke-width="2" /></svg>