<?xml version='1.0' encoding='utf-8'?>
<svg xmlns="http://www.w3.org/2000/svg" height="100px" version="1.0" viewBox="0 0 100 100" width="100px" x="0px" y="0px">
<line fill="none" stroke="#000000" stroke-width="2" x1="21.5" x2="21.5" y1="94" y2="6" /><line fill="none" stroke="#000000" stroke-width="2" x1="37.5" x2="4.5" y1="39" y2="39" /><line fill="none" stroke="#000000" stroke-width="2" x1="47.5" x2="86.5" y1="36" y2="36" /><line fill="none" stroke="#000000" stroke-width="2" x1="45" x2="89" y1="86" y2="86" /><polyline fill="none" points="90,93 90,54 44,54 44,93" stroke="#000000" stroke-width="2" /><path d="M3.5,79.5 c8.455,-13.358 13.937,-26.336 17.5,-41" fill="none" stroke="#000000" stroke-width="2" /><path d="M35.5,71 c-4.197,-9.969 -8.928,-20.756 -13.5,-31" fill="none" stroke="#000000" stroke-width="2" /><path d="M15.5,34 c-2.732,-7.823 -5.915,-15.581 -9,-22" fill="none" stroke="#000000" stroke-width="2" /><path d="M27.5,34 c3.655,-7.186 6.967,-15.65 9,-23" fill="none" stroke="#000000" stroke-width="2" /><path d="M95.5,36 c-11.157,-9.224 -19.809,-18.646 -28.5,-30.8 c-8.691,12.154 -17.343,21.576 -28.5,30.8" fill="none" stroke="#000000" stroke-width="2" /></svg>