<?xml version='1.0' encoding='utf-8'?>
<svg xmlns="http://www.w3.org/2000/svg" height="100px" version="1.0" viewBox="0 0 100 100" width="100px" x="0px" y="0px">
<line fill="none" stroke="#000000" stroke-width="2" x1="20.5" x2="20.5" y1="94" y2="6" /><line fill="none" stroke="#000000" stroke-width="2" x1="35.5" x2="4" y1="39" y2="39" /><line fill="none" stroke="#000000" stroke-width="2" x1="96" x2="35" y1="29" y2="29" /><line fill="none" stroke="#000000" stroke-width="2" x1="38.5" x2="91" y1="10" y2="10" /><line fill="none" stroke="#000000" stroke-width="2" x1="64" x2="64" y1="93.5" y2="51.5" /><line fill="none" stroke="#000000" stroke-width="2" x1="96" x2="33.5" y1="60.5" y2="60.5" /><path d="M3,79.5 c8.184,-13.373 13.541,-26.336 17,-41" fill="none" stroke="#000000" stroke-width="2" /><path d="M34,71 c-3.898,-10.039 -8.42,-20.818 -13,-31" fill="none" stroke="#000000" stroke-width="2" /><path d="M15,34 c-2.652,-7.823 -5.872,-15.646 -9,-22" fill="none" stroke="#000000" stroke-width="2" /><path d="M26,34 c3.673,-7.122 7.027,-15.65 9,-23" fill="none" stroke="#000000" stroke-width="2" /><path d="M32,51 c12.529,-5.356 24.063,-12.772 34.5,-22" fill="none" stroke="#000000" stroke-width="2" /><path d="M46,14.5 c7.1,3.989 14.55,8.916 22,14.5" fill="none" stroke="#000000" stroke-width="2" /><path d="M95.246,29.343 c-5.203,5.969 -11.316,11.104 -18.746,15.657" fill="none" stroke="#000000" stroke-width="2" /><path d="M30.5,89.5 c13.681,-7.034 25.063,-17.337 32.5,-29" fill="none" stroke="#000000" stroke-width="2" /><path d="M97.5,89.5 c-13.68,-7.035 -25.063,-17.337 -32.5,-29" fill="none" stroke="#000000" stroke-width="2" /><path d="M67.5,29 v17.25 c0,4.321 -0.736,5.25 -5.5,5.25 c-2.137,0 -6.729,-0.176 -12,-0.5" fill="none" stroke="#000000" stroke-width="2" /><path d="M90.408,10.193 c-8.273,6.068 -17.079,11.043 -27.408,15.307" fill="none" stroke="#000000" stroke-width="2" /></svg>