<?xml version='1.0' encoding='utf-8'?>
<svg xmlns="http://www.w3.org/2000/svg" height="100px" version="1.0" viewBox="0 0 100 100" width="100px" x="0px" y="0px">
<line fill="none" stroke="#000000" stroke-width="2" x1="93" x2="7" y1="76" y2="76" /><line fill="none" stroke="#000000" stroke-width="2" x1="11" x2="88" y1="66" y2="66" /><line fill="none" stroke="#000000" stroke-width="2" x1="33" x2="33" y1="75" y2="57" /><line fill="none" stroke="#000000" stroke-width="2" x1="67" x2="67" y1="75" y2="57" /><line fill="none" stroke="#000000" stroke-width="2" x1="50" x2="50" y1="39" y2="56" /><line fill="none" stroke="#000000" stroke-width="2" x1="17.5" x2="82.5" y1="47.5" y2="47.5" /><line fill="none" stroke="#000000" stroke-width="2" x1="93" x2="7" y1="20" y2="20" /><line fill="none" stroke="#000000" stroke-width="2" x1="50" x2="50" y1="34.5" y2="4" /><polyline fill="none" points="17.5,57 83.5,57 83.5,38 16.5,38 16.5,58" stroke="#000000" stroke-width="2" /><path d="M10,93 c13.08,-3.419 24.369,-8.096 31,-12.5" fill="none" stroke="#000000" stroke-width="2" /><path d="M90,93.5 c-7.982,-4.376 -19.018,-9.024 -31,-13" fill="none" stroke="#000000" stroke-width="2" /><path d="M94,41 c-20.882,-6.718 -34.425,-13.649 -43,-20.999" fill="none" stroke="#000000" stroke-width="2" /><path d="M36,20 c-5.387,-4.825 -11.32,-9.499 -17,-13.5" fill="none" stroke="#000000" stroke-width="2" /><path d="M64,20 c6.869,-4.272 12.97,-9.187 17,-13.5" fill="none" stroke="#000000" stroke-width="2" /><path d="M6,41 c20.882,-6.718 34.425,-13.649 43,-20.999" fill="none" stroke="#000000" stroke-width="2" /></svg>