<?xml version='1.0' encoding='utf-8'?>
<svg xmlns="http://www.w3.org/2000/svg" height="100px" version="1.0" viewBox="0 0 100 100" width="100px" x="0px" y="0px">
<line fill="none" stroke="#000000" stroke-width="2" x1="20.5" x2="20.5" y1="94" y2="6" /><line fill="none" stroke="#000000" stroke-width="2" x1="34" x2="4" y1="39" y2="39" /><line fill="none" stroke="#000000" stroke-width="2" x1="39.254" x2="96" y1="38.5" y2="38.5" /><line fill="none" stroke="#000000" stroke-width="2" x1="66.5" x2="66.5" y1="13.5" y2="3" /><polyline fill="none" points="45,53 90.5,53 90.5,24.5 45,24.5" stroke="#000000" stroke-width="2" /><path d="M3,79.5 c8.184,-13.373 13.541,-26.336 17,-41" fill="none" stroke="#000000" stroke-width="2" /><path d="M33,69 c-3.521,-9.388 -7.753,-19.532 -12,-29" fill="none" stroke="#000000" stroke-width="2" /><path d="M15,34 c-2.652,-7.823 -5.872,-15.646 -9,-22" fill="none" stroke="#000000" stroke-width="2" /><path d="M26,34 c3.673,-7.122 7.027,-15.65 9,-23" fill="none" stroke="#000000" stroke-width="2" /><path d="M69,13.5 v70.5 c0,6.687 -0.965,8 -5,8 c-1.83,0 -5.182,-0.169 -9,-0.5" fill="none" stroke="#000000" stroke-width="2" /><path d="M69,55.5 c4.627,12.632 15.109,25.729 27,33.5" fill="none" stroke="#000000" stroke-width="2" /><path d="M92.5,57.5 c-3.924,5.628 -8.89,10.98 -14,15" fill="none" stroke="#000000" stroke-width="2" /><path d="M40,87.5 c11.178,-5.765 21.486,-13.319 29,-21" fill="none" stroke="#000000" stroke-width="2" /><path d="M56.5,72 c-2.779,-4.096 -6.708,-9.115 -11,-14" fill="none" stroke="#000000" stroke-width="2" /><path d="M32,92 c3.81,-10.415 7,-30.94 7,-47 v-31.5 h56.0" fill="none" stroke="#000000" stroke-width="2" /></svg>