<?xml version='1.0' encoding='utf-8'?>
<svg xmlns="http://www.w3.org/2000/svg" height="100px" version="1.0" viewBox="0 0 100 100" width="100px" x="0px" y="0px">
<line fill="none" stroke="#000000" stroke-width="2" x1="19.5" x2="19.5" y1="94" y2="6" /><line fill="none" stroke="#000000" stroke-width="2" x1="33" x2="4" y1="39" y2="39" /><line fill="none" stroke="#000000" stroke-width="2" x1="34.5" x2="96" y1="37.5" y2="37.5" /><line fill="none" stroke="#000000" stroke-width="2" x1="39.5" x2="91.5" y1="19" y2="19" /><line fill="none" stroke="#000000" stroke-width="2" x1="40.5" x2="89.5" y1="68.5" y2="68.5" /><line fill="none" stroke="#000000" stroke-width="2" x1="40.5" x2="89.5" y1="57" y2="57" /><line fill="none" stroke="#000000" stroke-width="2" x1="65" x2="65" y1="47" y2="90" /><line fill="none" stroke="#000000" stroke-width="2" x1="31.5" x2="96.5" y1="90" y2="90" /><line fill="none" stroke="#000000" stroke-width="2" x1="93.5" x2="35.5" y1="78.5" y2="78.5" /><polyline fill="none" points="39.5,29 91.5,29 91.5,9 38.5,9 38.5,30" stroke="#000000" stroke-width="2" /><polyline fill="none" points="90.5,69.5 90.5,46 39.5,46 39.5,69.5" stroke="#000000" stroke-width="2" /><path d="M3,79.5 c7.682,-13.428 12.714,-26.336 16,-41" fill="none" stroke="#000000" stroke-width="2" /><path d="M32,69 c-3.344,-9.388 -7.589,-19.702 -12,-29" fill="none" stroke="#000000" stroke-width="2" /><path d="M14,34 c-2.505,-7.823 -5.546,-15.646 -8.5,-22" fill="none" stroke="#000000" stroke-width="2" /><path d="M25,34 c3.469,-7.122 6.637,-15.65 8.5,-23" fill="none" stroke="#000000" stroke-width="2" /></svg>