<?xml version='1.0' encoding='utf-8'?>
<svg xmlns="http://www.w3.org/2000/svg" height="100px" version="1.0" viewBox="0 0 100 100" width="100px" x="0px" y="0px">
<line fill="none" stroke="#000000" stroke-width="2" x1="5" x2="40.5" y1="52" y2="50" /><line fill="none" stroke="#000000" stroke-width="2" x1="25" x2="25" y1="51" y2="94" /><line fill="none" stroke="#000000" stroke-width="2" x1="67.5" x2="67.5" y1="44.5" y2="6.5" /><line fill="none" stroke="#000000" stroke-width="2" x1="94" x2="42" y1="44.5" y2="44.5" /><path d="M42,56.5 c-1.619,-7.545 -4.385,-16.48 -7.5,-24" fill="none" stroke="#000000" stroke-width="2" /><path d="M7,87.5 c3.402,-9.126 5.666,-19.038 6.5,-28.5" fill="none" stroke="#000000" stroke-width="2" /><path d="M39,83 c-0.682,-6.329 -2.549,-17.711 -4,-24.5" fill="none" stroke="#000000" stroke-width="2" /><path d="M12,51.5 c10.08,-11.431 18.977,-23.412 27,-36.5" fill="none" stroke="#000000" stroke-width="2" /><path d="M20.5,41 c-3.684,-6.554 -8.887,-15.377 -13,-22" fill="none" stroke="#000000" stroke-width="2" /><path d="M12.5,27.5 c5.096,-7.057 9.62,-14.042 14,-21.5" fill="none" stroke="#000000" stroke-width="2" /><path d="M56,38.5 c-4.143,-8.891 -8.654,-17.59 -13,-25" fill="none" stroke="#000000" stroke-width="2" /><path d="M79,38.5 c5.254,-7.912 9.965,-16.987 13,-25" fill="none" stroke="#000000" stroke-width="2" /><path d="M74,44.5 v38.0 c0,6.554 0.465,7 9.5,7 c9.869,0 10.039,-0.2 10.5,-28" fill="none" stroke="#000000" stroke-width="2" /><path d="M36,91 c16.24,-7.384 22,-17.663 22,-46.5" fill="none" stroke="#000000" stroke-width="2" /></svg>