<?xml version='1.0' encoding='utf-8'?>
<svg xmlns="http://www.w3.org/2000/svg" height="100px" version="1.0" viewBox="0 0 100 100" width="100px" x="0px" y="0px">
<line fill="none" stroke="#000000" stroke-width="2" x1="5" x2="41.5" y1="52" y2="50" /><line fill="none" stroke="#000000" stroke-width="2" x1="25" x2="25" y1="51" y2="94" /><line fill="none" stroke="#000000" stroke-width="2" x1="47.5" x2="92.5" y1="85.5" y2="85.5" /><polyline fill="none" points="50,38 90,38 90,10.5 49,10.5 49,39" stroke="#000000" stroke-width="2" /><polyline fill="none" points="92.5,93.5 92.5,54 46.5,54 46.5,93.5" stroke="#000000" stroke-width="2" /><path d="M43,55.5 c-1.619,-7.545 -4.385,-16.48 -7.5,-24" fill="none" stroke="#000000" stroke-width="2" /><path d="M7,87.5 c3.402,-9.126 5.666,-19.038 6.5,-28.5" fill="none" stroke="#000000" stroke-width="2" /><path d="M12,51.5 c10.08,-11.431 18.977,-23.412 27,-36.5" fill="none" stroke="#000000" stroke-width="2" /><path d="M20.5,41 c-3.684,-6.554 -8.887,-15.377 -13,-22" fill="none" stroke="#000000" stroke-width="2" /><path d="M12.5,27.5 c5.096,-7.057 9.62,-14.042 14,-21.5" fill="none" stroke="#000000" stroke-width="2" /><path d="M39,84.5 c-0.682,-6.759 -2.527,-18.755 -4,-26" fill="none" stroke="#000000" stroke-width="2" /><path d="M68.5,38 c-1.629,5.901 -3.608,11.107 -6,16" fill="none" stroke="#000000" stroke-width="2" /></svg>