<?xml version='1.0' encoding='utf-8'?>
<svg xmlns="http://www.w3.org/2000/svg" height="100px" version="1.0" viewBox="0 0 100 100" width="100px" x="0px" y="0px">
<line fill="none" stroke="#000000" stroke-width="2" x1="52.5" x2="89" y1="86.5" y2="86.5" /><line fill="none" stroke="#000000" stroke-width="2" x1="68.5" x2="68.5" y1="13.5" y2="3.5" /><line fill="none" stroke="#000000" stroke-width="2" x1="5.5" x2="43" y1="52" y2="50" /><line fill="none" stroke="#000000" stroke-width="2" x1="25.5" x2="25.5" y1="51" y2="94" /><polyline fill="none" points="52.5,48 86.5,48 86.5,25.5 51.5,25.5 51.5,93.5" stroke="#000000" stroke-width="2" /><polyline fill="none" points="90,93.5 90,60 52.5,60" stroke="#000000" stroke-width="2" /><polyline fill="none" points="93,32.5 93,14.5 45.5,14.5 45.5,32.5" stroke="#000000" stroke-width="2" /><path d="M44.5,57.5 c-1.619,-7.545 -4.385,-16.581 -7.5,-24.101" fill="none" stroke="#000000" stroke-width="2" /><path d="M7.5,87.5 c3.402,-9.126 5.666,-19.038 6.5,-28.5" fill="none" stroke="#000000" stroke-width="2" /><path d="M40.5,84.5 c-0.695,-7.639 -2.25,-17.88 -4,-26" fill="none" stroke="#000000" stroke-width="2" /><path d="M12.5,51.5 c10.08,-11.431 18.977,-23.412 27,-36.5" fill="none" stroke="#000000" stroke-width="2" /><path d="M21,41 c-3.684,-6.554 -8.887,-15.377 -13,-22" fill="none" stroke="#000000" stroke-width="2" /><path d="M13,27.5 c5.096,-7.057 9.62,-14.042 14,-21.5" fill="none" stroke="#000000" stroke-width="2" /></svg>