<?xml version='1.0' encoding='utf-8'?>
<svg xmlns="http://www.w3.org/2000/svg" height="100px" version="1.0" viewBox="0 0 100 100" width="100px" x="0px" y="0px">
<line fill="none" stroke="#000000" stroke-width="2" x1="3" x2="31" y1="52" y2="50" /><line fill="none" stroke="#000000" stroke-width="2" x1="19" x2="19" y1="51" y2="94" /><line fill="none" stroke="#000000" stroke-width="2" x1="32" x2="61.5" y1="10" y2="10" /><line fill="none" stroke="#000000" stroke-width="2" x1="64" x2="95" y1="10" y2="10" /><line fill="none" stroke="#000000" stroke-width="2" x1="34" x2="61.5" y1="50" y2="50" /><line fill="none" stroke="#000000" stroke-width="2" x1="64" x2="95" y1="50" y2="50" /><path d="M32,56.5 c-1.279,-7.545 -3.49,-16.5 -6,-24" fill="none" stroke="#000000" stroke-width="2" /><path d="M5,87.5 c2.624,-9.126 4.357,-19.038 5,-28.5" fill="none" stroke="#000000" stroke-width="2" /><path d="M30.5,82.5 c-0.547,-7.585 -1.604,-15.938 -3,-24" fill="none" stroke="#000000" stroke-width="2" /><path d="M8.5,51.5 c8.018,-11.415 15.133,-23.412 21.5,-36.5" fill="none" stroke="#000000" stroke-width="2" /><path d="M15.5,41 c-2.955,-6.562 -7.184,-15.377 -10.5,-22" fill="none" stroke="#000000" stroke-width="2" /><path d="M9,27.5 c3.982,-7.057 7.565,-14.049 11,-21.5" fill="none" stroke="#000000" stroke-width="2" /><path d="M33.5,45 c13.479,-6.12 23.603,-18.804 27.023,-34.216" fill="none" stroke="#000000" stroke-width="2" /><path d="M62,38.5 c-7.473,-8.479 -17.124,-16.809 -25.5,-22" fill="none" stroke="#000000" stroke-width="2" /><path d="M61.5,45 c16.465,-5.876 28.281,-18.28 32.533,-34.257" fill="none" stroke="#000000" stroke-width="2" /><path d="M31.5,91 c14.594,-6.545 25.822,-21.621 29.015,-40.17" fill="none" stroke="#000000" stroke-width="2" /><path d="M62,82.5 c-7.512,-9.856 -17.194,-19.533 -25.5,-25.5" fill="none" stroke="#000000" stroke-width="2" /><path d="M57,91 c18.958,-6.205 32.83,-21.395 37.023,-40.217" fill="none" stroke="#000000" stroke-width="2" /><path d="M96.5,45 c-15.352,-6.261 -25.18,-16.762 -28.5,-31" fill="none" stroke="#000000" stroke-width="2" /><path d="M96.5,91 c-14.939,-7.2 -25.076,-19.956 -28.5,-37" fill="none" stroke="#000000" stroke-width="2" /></svg>