<?xml version='1.0' encoding='utf-8'?>
<svg xmlns="http://www.w3.org/2000/svg" height="100px" version="1.0" viewBox="0 0 100 100" width="100px" x="0px" y="0px">
<line fill="none" stroke="#000000" stroke-width="2" x1="4.5" x2="34" y1="52" y2="50" /><line fill="none" stroke="#000000" stroke-width="2" x1="20.5" x2="20.5" y1="51" y2="94" /><line fill="none" stroke="#000000" stroke-width="2" x1="85.5" x2="47.5" y1="28" y2="28" /><line fill="none" stroke="#000000" stroke-width="2" x1="58" x2="58" y1="41" y2="91" /><line fill="none" stroke="#000000" stroke-width="2" x1="75" x2="75" y1="41" y2="91" /><line fill="none" stroke="#000000" stroke-width="2" x1="42" x2="92" y1="63.5" y2="63.5" /><path d="M35.5,56.5 c-1.279,-7.545 -3.49,-16.5 -6,-24" fill="none" stroke="#000000" stroke-width="2" /><path d="M6.5,87.5 c2.624,-9.126 4.357,-19.038 5,-28.5" fill="none" stroke="#000000" stroke-width="2" /><path d="M32,82.5 c-0.57,-7.583 -1.604,-15.938 -3,-24" fill="none" stroke="#000000" stroke-width="2" /><path d="M10,51.5 c8.018,-11.415 15.133,-23.412 21.5,-36.5" fill="none" stroke="#000000" stroke-width="2" /><path d="M17,41 c-2.955,-6.562 -7.184,-15.377 -10.5,-22" fill="none" stroke="#000000" stroke-width="2" /><path d="M10.5,27.5 c3.982,-7.057 7.565,-14.049 11,-21.5" fill="none" stroke="#000000" stroke-width="2" /><path d="M97,33 c-11.437,-8.155 -21.094,-16.672 -30.5,-26.8 c-9.408,10.128 -19.063,18.645 -30.5,26.8" fill="none" stroke="#000000" stroke-width="2" /><path d="M80.5,90.5 c4.006,0.345 6.93,0.5 8,0.5 c3,0 3.5,-0.672 3.5,-8 v-42.0 h-51.0 v52.0" fill="none" stroke="#000000" stroke-width="2" /></svg>