<?xml version='1.0' encoding='utf-8'?>
<svg xmlns="http://www.w3.org/2000/svg" height="100px" version="1.0" viewBox="0 0 100 100" width="100px" x="0px" y="0px">
<line fill="none" stroke="#000000" stroke-width="2" x1="4.5" x2="34" y1="52" y2="50" /><line fill="none" stroke="#000000" stroke-width="2" x1="20.5" x2="20.5" y1="51" y2="94" /><line fill="none" stroke="#000000" stroke-width="2" x1="65.5" x2="94" y1="16" y2="16" /><line fill="none" stroke="#000000" stroke-width="2" x1="65.5" x2="65.5" y1="29" y2="4.5" /><line fill="none" stroke="#000000" stroke-width="2" x1="43.5" x2="89.5" y1="46" y2="46" /><line fill="none" stroke="#000000" stroke-width="2" x1="35.5" x2="97" y1="77.5" y2="77.5" /><line fill="none" stroke="#000000" stroke-width="2" x1="66.5" x2="66.5" y1="94.5" y2="64" /><polyline fill="none" points="43.5,64 89.5,64 89.5,29 42.5,29 42.5,65" stroke="#000000" stroke-width="2" /><path d="M35.5,56.5 c-1.279,-7.545 -3.49,-16.5 -6,-24" fill="none" stroke="#000000" stroke-width="2" /><path d="M6.5,87.5 c2.624,-9.126 4.357,-19.038 5,-28.5" fill="none" stroke="#000000" stroke-width="2" /><path d="M32,82.5 c-0.57,-7.583 -1.604,-15.938 -3,-24" fill="none" stroke="#000000" stroke-width="2" /><path d="M10,51.5 c8.018,-11.415 15.133,-23.412 21.5,-36.5" fill="none" stroke="#000000" stroke-width="2" /><path d="M17,41 c-2.955,-6.562 -7.184,-15.377 -10.5,-22" fill="none" stroke="#000000" stroke-width="2" /><path d="M10.5,27.5 c3.982,-7.057 7.565,-14.049 11,-21.5" fill="none" stroke="#000000" stroke-width="2" /></svg>