<?xml version='1.0' encoding='utf-8'?>
<svg xmlns="http://www.w3.org/2000/svg" height="100px" version="1.0" viewBox="0 0 100 100" width="100px" x="0px" y="0px">
<line fill="none" stroke="#000000" stroke-width="2" x1="96" x2="37" y1="62" y2="62" /><line fill="none" stroke="#000000" stroke-width="2" x1="96.5" x2="36.5" y1="17" y2="17" /><line fill="none" stroke="#000000" stroke-width="2" x1="66" x2="66" y1="94" y2="49.5" /><line fill="none" stroke="#000000" stroke-width="2" x1="86" x2="86" y1="37.5" y2="6" /><line fill="none" stroke="#000000" stroke-width="2" x1="4.5" x2="37" y1="52" y2="50" /><line fill="none" stroke="#000000" stroke-width="2" x1="22" x2="22" y1="51" y2="94" /><polyline fill="none" points="44.5,6 44.5,49.5 93.5,49.5" stroke="#000000" stroke-width="2" /><polyline fill="none" points="62,6 62,36.5 85,36.5" stroke="#000000" stroke-width="2" /><path d="M35,91 c14.587,-9.494 23.99,-18.809 30,-29" fill="none" stroke="#000000" stroke-width="2" /><path d="M97,91 c-14.587,-9.494 -23.99,-18.808 -30,-29" fill="none" stroke="#000000" stroke-width="2" /><path d="M38.5,57.5 c-1.403,-7.545 -3.801,-16.481 -6.5,-24" fill="none" stroke="#000000" stroke-width="2" /><path d="M6.5,87.5 c2.879,-9.126 4.795,-19.038 5.5,-28.5" fill="none" stroke="#000000" stroke-width="2" /><path d="M35,84.5 c-0.596,-7.641 -1.969,-17.879 -3.5,-26" fill="none" stroke="#000000" stroke-width="2" /><path d="M10.5,51.5 c8.773,-11.431 16.518,-23.412 23.5,-36.5" fill="none" stroke="#000000" stroke-width="2" /><path d="M18,41 c-3.258,-6.554 -7.862,-15.377 -11.5,-22" fill="none" stroke="#000000" stroke-width="2" /><path d="M11,27.5 c4.367,-7.057 8.246,-14.042 12,-21.5" fill="none" stroke="#000000" stroke-width="2" /></svg>