<?xml version='1.0' encoding='utf-8'?>
<svg xmlns="http://www.w3.org/2000/svg" height="100px" version="1.0" viewBox="0 0 100 100" width="100px" x="0px" y="0px">
<line fill="none" stroke="#000000" stroke-width="2" x1="3.5" x2="33" y1="52" y2="50" /><line fill="none" stroke="#000000" stroke-width="2" x1="19.5" x2="19.5" y1="51" y2="94" /><line fill="none" stroke="#000000" stroke-width="2" x1="38.5" x2="95.5" y1="89" y2="89" /><line fill="none" stroke="#000000" stroke-width="2" x1="92.5" x2="45" y1="63" y2="63" /><line fill="none" stroke="#000000" stroke-width="2" x1="67" x2="67" y1="89" y2="63" /><line fill="none" stroke="#000000" stroke-width="2" x1="35.5" x2="95.5" y1="48" y2="48" /><line fill="none" stroke="#000000" stroke-width="2" x1="38" x2="91" y1="32.5" y2="32.5" /><line fill="none" stroke="#000000" stroke-width="2" x1="35" x2="94" y1="18" y2="18" /><line fill="none" stroke="#000000" stroke-width="2" x1="64.5" x2="64.5" y1="48" y2="18" /><path d="M34,56.5 c-1.279,-7.545 -3.49,-16.5 -6,-24" fill="none" stroke="#000000" stroke-width="2" /><path d="M5.5,87.5 c2.624,-9.126 4.357,-19.038 5,-28.5" fill="none" stroke="#000000" stroke-width="2" /><path d="M31,78 c-0.547,-6.163 -1.604,-12.95 -3,-19.5" fill="none" stroke="#000000" stroke-width="2" /><path d="M9,51.5 c8.018,-11.415 15.133,-23.412 21.5,-36.5" fill="none" stroke="#000000" stroke-width="2" /><path d="M16,41 c-2.955,-6.562 -7.184,-15.377 -10.5,-22" fill="none" stroke="#000000" stroke-width="2" /><path d="M9.5,27.5 c3.982,-7.057 7.565,-14.049 11,-21.5" fill="none" stroke="#000000" stroke-width="2" /><path d="M54,18 c-1.912,-4.979 -3.995,-9.85 -6,-14" fill="none" stroke="#000000" stroke-width="2" /><path d="M74,18 c2.266,-4.613 4.422,-9.644 6,-14" fill="none" stroke="#000000" stroke-width="2" /><path d="M26.5,91 c12.07,-11.585 19.893,-26.832 22,-43" fill="none" stroke="#000000" stroke-width="2" /></svg>