<?xml version='1.0' encoding='utf-8'?>
<svg xmlns="http://www.w3.org/2000/svg" height="100px" version="1.0" viewBox="0 0 100 100" width="100px" x="0px" y="0px">
<line fill="none" stroke="#000000" stroke-width="2" x1="3" x2="32.5" y1="52" y2="50" /><line fill="none" stroke="#000000" stroke-width="2" x1="19" x2="19" y1="51" y2="94" /><line fill="none" stroke="#000000" stroke-width="2" x1="50" x2="95.5" y1="72" y2="72" /><line fill="none" stroke="#000000" stroke-width="2" x1="94" x2="51.5" y1="45.5" y2="45.5" /><line fill="none" stroke="#000000" stroke-width="2" x1="92" x2="53.5" y1="58.5" y2="58.5" /><line fill="none" stroke="#000000" stroke-width="2" x1="74" x2="74" y1="85" y2="34.5" /><line fill="none" stroke="#000000" stroke-width="2" x1="62.5" x2="92.5" y1="11.5" y2="11.5" /><polyline fill="none" points="45.5,75 45.5,43 34,43" stroke="#000000" stroke-width="2" /><path d="M33.5,56.5 c-1.279,-7.545 -3.49,-16.5 -6,-24" fill="none" stroke="#000000" stroke-width="2" /><path d="M5,87.5 c2.624,-9.126 4.357,-19.038 5,-28.5" fill="none" stroke="#000000" stroke-width="2" /><path d="M30.5,82.5 c-0.547,-7.585 -1.604,-15.938 -3,-24" fill="none" stroke="#000000" stroke-width="2" /><path d="M8.5,51.5 c8.018,-11.415 15.133,-23.412 21.5,-36.5" fill="none" stroke="#000000" stroke-width="2" /><path d="M15.5,41 c-2.955,-6.562 -7.184,-15.377 -10.5,-22" fill="none" stroke="#000000" stroke-width="2" /><path d="M9,27.5 c3.982,-7.057 7.565,-14.049 11,-21.5" fill="none" stroke="#000000" stroke-width="2" /><path d="M34,10 c4.294,5.621 7.931,10.782 12,17" fill="none" stroke="#000000" stroke-width="2" /><path d="M33,92 c5.881,-5.611 9.879,-11.114 12.5,-17" fill="none" stroke="#000000" stroke-width="2" /><path d="M95.5,90 h-24.0 c-15.129,0 -21.704,-3.743 -26,-15" fill="none" stroke="#000000" stroke-width="2" /><path d="M49,25.5 c7.592,-6.17 13.654,-13.384 18,-21" fill="none" stroke="#000000" stroke-width="2" /><path d="M91.66,11.955 c-8.02,12.362 -21.785,22.39 -44.16,29.045" fill="none" stroke="#000000" stroke-width="2" /><path d="M59,15.5 c9.363,10.53 21.869,19.03 38,25.5" fill="none" stroke="#000000" stroke-width="2" /></svg>