<?xml version='1.0' encoding='utf-8'?>
<svg xmlns="http://www.w3.org/2000/svg" height="100px" version="1.0" viewBox="0 0 100 100" width="100px" x="0px" y="0px">
<line fill="none" stroke="#000000" stroke-width="2" x1="6" x2="94" y1="14" y2="14" /><line fill="none" stroke="#000000" stroke-width="2" x1="32" x2="32" y1="23.5" y2="3.5" /><line fill="none" stroke="#000000" stroke-width="2" x1="68" x2="68" y1="23.5" y2="3.5" /><line fill="none" stroke="#000000" stroke-width="2" x1="50" x2="50" y1="92" y2="27.5" /><line fill="none" stroke="#000000" stroke-width="2" x1="14.5" x2="43" y1="64.5" y2="62.5" /><line fill="none" stroke="#000000" stroke-width="2" x1="30.5" x2="30.5" y1="63.5" y2="91" /><line fill="none" stroke="#000000" stroke-width="2" x1="70" x2="70" y1="83" y2="32" /><line fill="none" stroke="#000000" stroke-width="2" x1="57.5" x2="57.5" y1="41" y2="69" /><line fill="none" stroke="#000000" stroke-width="2" x1="81.5" x2="58.5" y1="42" y2="42" /><polyline fill="none" points="57.5,62 82.5,62 82.5,41" stroke="#000000" stroke-width="2" /><path d="M69,92 c7.633,0.348 12.432,0.5 15,0.5 c4.959,0 6,-0.989 6,-8 v-57.0 h-80.0 v66.5" fill="none" stroke="#000000" stroke-width="2" /><path d="M45.5,70.5 c-1.522,-5.819 -4.063,-12.712 -7,-18.5" fill="none" stroke="#000000" stroke-width="2" /><path d="M16.5,88.5 c2.606,-6.095 4.357,-12.692 5,-19" fill="none" stroke="#000000" stroke-width="2" /><path d="M42,88 c-0.572,-5.843 -1.604,-12.387 -3,-18.601" fill="none" stroke="#000000" stroke-width="2" /><path d="M20.5,64 c7.759,-8.15 14.664,-16.581 21,-25.5" fill="none" stroke="#000000" stroke-width="2" /><path d="M28,55.5 c-3.133,-4.243 -7.938,-10.294 -11.5,-14.5" fill="none" stroke="#000000" stroke-width="2" /><path d="M20.5,46 c4.158,-4.604 7.565,-8.935 11,-14" fill="none" stroke="#000000" stroke-width="2" /><path d="M86.5,84.5 c-1.764,-5.218 -4.873,-11.868 -8,-17" fill="none" stroke="#000000" stroke-width="2" /><path d="M54.5,86.5 c8.832,-1.504 19.292,-4.342 29.5,-8" fill="none" stroke="#000000" stroke-width="2" /></svg>