<?xml version='1.0' encoding='utf-8'?>
<svg xmlns="http://www.w3.org/2000/svg" height="100px" version="1.0" viewBox="0 0 100 100" width="100px" x="0px" y="0px">
<line fill="none" stroke="#000000" stroke-width="2" x1="3.5" x2="33" y1="52" y2="50" /><line fill="none" stroke="#000000" stroke-width="2" x1="19.5" x2="19.5" y1="51" y2="94" /><line fill="none" stroke="#000000" stroke-width="2" x1="66" x2="66" y1="46.5" y2="10" /><line fill="none" stroke="#000000" stroke-width="2" x1="39" x2="93" y1="10" y2="10" /><line fill="none" stroke="#000000" stroke-width="2" x1="44" x2="59.5" y1="30" y2="30" /><line fill="none" stroke="#000000" stroke-width="2" x1="44" x2="59.5" y1="40.5" y2="40.5" /><line fill="none" stroke="#000000" stroke-width="2" x1="72.5" x2="88" y1="30" y2="30" /><line fill="none" stroke="#000000" stroke-width="2" x1="72.5" x2="88" y1="40.5" y2="40.5" /><line fill="none" stroke="#000000" stroke-width="2" x1="95.5" x2="36.5" y1="50.5" y2="50.5" /><line fill="none" stroke="#000000" stroke-width="2" x1="57" x2="57" y1="61.5" y2="90.5" /><line fill="none" stroke="#000000" stroke-width="2" x1="74.5" x2="74.5" y1="61.5" y2="90.5" /><polyline fill="none" points="94,40.5 94,21 38,21 38,40.5" stroke="#000000" stroke-width="2" /><path d="M34,56.5 c-1.279,-7.545 -3.49,-16.5 -6,-24" fill="none" stroke="#000000" stroke-width="2" /><path d="M5.5,87.5 c2.624,-9.126 4.357,-19.038 5,-28.5" fill="none" stroke="#000000" stroke-width="2" /><path d="M31,82.5 c-0.547,-7.585 -1.604,-15.938 -3,-24" fill="none" stroke="#000000" stroke-width="2" /><path d="M9,51.5 c8.018,-11.415 15.133,-23.412 21.5,-36.5" fill="none" stroke="#000000" stroke-width="2" /><path d="M16,41 c-2.955,-6.562 -7.184,-15.377 -10.5,-22" fill="none" stroke="#000000" stroke-width="2" /><path d="M9.5,27.5 c3.982,-7.057 7.565,-14.049 11,-21.5" fill="none" stroke="#000000" stroke-width="2" /><path d="M80,90.5 c4.289,0.366 7.348,0.5 8.5,0.5 c3.65,0 4,-0.396 4,-6 V61.5 h-53.0 v31.0" fill="none" stroke="#000000" stroke-width="2" /><path d="M66.5,50.5 c-1.285,4.079 -2.926,7.679 -5,11" fill="none" stroke="#000000" stroke-width="2" /></svg>