<?xml version='1.0' encoding='utf-8'?>
<svg xmlns="http://www.w3.org/2000/svg" height="100px" version="1.0" viewBox="0 0 100 100" width="100px" x="0px" y="0px">
<line fill="none" stroke="#000000" stroke-width="2" x1="43.5" x2="91.5" y1="65" y2="65" /><line fill="none" stroke="#000000" stroke-width="2" x1="43.5" x2="91.5" y1="54.5" y2="54.5" /><line fill="none" stroke="#000000" stroke-width="2" x1="42" x2="89.5" y1="22.5" y2="22.5" /><line fill="none" stroke="#000000" stroke-width="2" x1="65.5" x2="65.5" y1="12" y2="3" /><line fill="none" stroke="#000000" stroke-width="2" x1="65.5" x2="65.5" y1="39" y2="22.5" /><line fill="none" stroke="#000000" stroke-width="2" x1="3.5" x2="33" y1="52" y2="50" /><line fill="none" stroke="#000000" stroke-width="2" x1="19.5" x2="19.5" y1="51" y2="94" /><polyline fill="none" points="42.5,45 42.5,75.5 91.5,75.5 91.5,44 46.5,44" stroke="#000000" stroke-width="2" /><polyline fill="none" points="94,29 94,12 37.5,12 37.5,29" stroke="#000000" stroke-width="2" /><path d="M33.5,92.5 c10.338,-3.419 19.229,-8.134 24.5,-12.5" fill="none" stroke="#000000" stroke-width="2" /><path d="M95.5,93 c-6.315,-4.196 -15.01,-8.728 -24.5,-12.5" fill="none" stroke="#000000" stroke-width="2" /><path d="M36.5,38 c7.924,-2.892 14.58,-7.011 18.5,-11" fill="none" stroke="#000000" stroke-width="2" /><path d="M89.5,27 c-12.103,8.211 -30.031,14.978 -57.5,20" fill="none" stroke="#000000" stroke-width="2" /><path d="M34,56.5 c-1.279,-7.545 -3.49,-16.5 -6,-24" fill="none" stroke="#000000" stroke-width="2" /><path d="M5.5,87.5 c2.624,-9.126 4.357,-19.038 5,-28.5" fill="none" stroke="#000000" stroke-width="2" /><path d="M31,82.5 c-0.547,-7.585 -1.604,-15.938 -3,-24" fill="none" stroke="#000000" stroke-width="2" /><path d="M9,51.5 c8.018,-11.415 15.133,-23.412 21.5,-36.5" fill="none" stroke="#000000" stroke-width="2" /><path d="M16,41 c-2.955,-6.562 -7.184,-15.377 -10.5,-22" fill="none" stroke="#000000" stroke-width="2" /><path d="M9.5,27.5 c3.982,-7.057 7.565,-14.049 11,-21.5" fill="none" stroke="#000000" stroke-width="2" /></svg>