<?xml version='1.0' encoding='utf-8'?>
<svg xmlns="http://www.w3.org/2000/svg" height="100px" version="1.0" viewBox="0 0 100 100" width="100px" x="0px" y="0px">
<line fill="none" stroke="#000000" stroke-width="2" x1="63" x2="63" y1="24.5" y2="10.5" /><line fill="none" stroke="#000000" stroke-width="2" x1="37" x2="37" y1="24.5" y2="10.5" /><line fill="none" stroke="#000000" stroke-width="2" x1="12.5" x2="44" y1="77" y2="77" /><line fill="none" stroke="#000000" stroke-width="2" x1="12.5" x2="44" y1="65" y2="65" /><polyline fill="none" points="12.5,25.5 88.5,25.5 88.5,9.5 11.5,9.5 11.5,26.5" stroke="#000000" stroke-width="2" /><path d="M12,46 c4.609,-5.334 8.946,-11.222 12.5,-17" fill="none" stroke="#000000" stroke-width="2" /><path d="M51.5,49 c-4.072,-4.862 -9.965,-11.177 -15,-16" fill="none" stroke="#000000" stroke-width="2" /><path d="M4.5,46.5 c13.721,-0.355 28.156,-1.204 42.5,-2.5" fill="none" stroke="#000000" stroke-width="2" /><path d="M11.5,92 v-39.0 h33.5 v33.5 c0,3.755 -0.245,4 -5.5,4 c-1.858,0 -5.125,-0.157 -10.5,-0.5" fill="none" stroke="#000000" stroke-width="2" /><path d="M55.5,30 v23.5 c0,4.037 0.513,4.5 15.5,4.5 c18.401,0 18.554,-0.12 20.5,-12" fill="none" stroke="#000000" stroke-width="2" /><path d="M55.5,43 c12.077,-2.118 22.641,-4.992 35,-9.5" fill="none" stroke="#000000" stroke-width="2" /><path d="M55.5,62 v24.5 c0,4.037 0.513,4.5 15.5,4.5 c18.85,0 19.006,-0.128 21,-13" fill="none" stroke="#000000" stroke-width="2" /><path d="M55.5,74 c12.077,-2.118 22.641,-4.992 35,-9.5" fill="none" stroke="#000000" stroke-width="2" /></svg>