<?xml version='1.0' encoding='utf-8'?>
<svg xmlns="http://www.w3.org/2000/svg" height="100px" version="1.0" viewBox="0 0 100 100" width="100px" x="0px" y="0px">
<line fill="none" stroke="#000000" stroke-width="2" x1="20" x2="92" y1="89" y2="89" /><line fill="none" stroke="#000000" stroke-width="2" x1="25" x2="94" y1="72.5" y2="72.5" /><line fill="none" stroke="#000000" stroke-width="2" x1="7" x2="93" y1="46.5" y2="46.5" /><line fill="none" stroke="#000000" stroke-width="2" x1="15" x2="85" y1="31.5" y2="31.5" /><line fill="none" stroke="#000000" stroke-width="2" x1="10" x2="90" y1="17.5" y2="17.5" /><line fill="none" stroke="#000000" stroke-width="2" x1="51" x2="51" y1="46.5" y2="17.5" /><path d="M38,17.5 c-2.549,-4.801 -5.327,-9.498 -8,-13.5" fill="none" stroke="#000000" stroke-width="2" /><path d="M62,17.5 c3.021,-4.448 5.896,-9.3 8,-13.5" fill="none" stroke="#000000" stroke-width="2" /><path d="M5,91 c13.717,-11.989 22.604,-27.768 25,-44.5" fill="none" stroke="#000000" stroke-width="2" /><path d="M75.5,89 c3.061,-13.718 4.398,-20.744 6,-31.5 H34.0" fill="none" stroke="#000000" stroke-width="2" /><path d="M42,89 c5.102,-13.718 7.332,-20.744 10,-31.5" fill="none" stroke="#000000" stroke-width="2" /></svg>