<?xml version='1.0' encoding='utf-8'?>
<svg xmlns="http://www.w3.org/2000/svg" height="100px" version="1.0" viewBox="0 0 100 100" width="100px" x="0px" y="0px">
<line fill="none" stroke="#000000" stroke-width="2" x1="6" x2="94" y1="41.5" y2="41.5" /><line fill="none" stroke="#000000" stroke-width="2" x1="15" x2="85" y1="27.5" y2="27.5" /><line fill="none" stroke="#000000" stroke-width="2" x1="10" x2="90" y1="14" y2="14" /><line fill="none" stroke="#000000" stroke-width="2" x1="50" x2="50" y1="41.5" y2="14" /><line fill="none" stroke="#000000" stroke-width="2" x1="44.5" x2="91.5" y1="55.5" y2="55.5" /><path d="M38,14 c-2.549,-3.733 -5.327,-7.386 -8,-10.5" fill="none" stroke="#000000" stroke-width="2" /><path d="M62,14 c3.024,-3.456 5.896,-7.231 8,-10.5" fill="none" stroke="#000000" stroke-width="2" /><path d="M9.5,92.5 c9.54,-5.681 17.566,-12.447 23,-19" fill="none" stroke="#000000" stroke-width="2" /><path d="M30.5,55.5 c-5.187,-2.769 -11.465,-5.677 -18.5,-8.5" fill="none" stroke="#000000" stroke-width="2" /><path d="M24.5,69.5 c-5.361,-3.19 -11.612,-6.343 -19,-9.5" fill="none" stroke="#000000" stroke-width="2" /><path d="M93,92 c-19.881,-3.597 -33,-15.235 -33,-25.5" fill="none" stroke="#000000" stroke-width="2" /><path d="M31.5,69 c8.404,-6.558 14.514,-14.426 18.5,-23.5" fill="none" stroke="#000000" stroke-width="2" /><path d="M75,70 c6.85,-4.031 12.018,-8.724 15.675,-14.064" fill="none" stroke="#000000" stroke-width="2" /><path d="M27,92 c19.881,-3.597 33,-15.235 33,-25.5 v-7.0" fill="none" stroke="#000000" stroke-width="2" /></svg>