<?xml version='1.0' encoding='utf-8'?>
<svg xmlns="http://www.w3.org/2000/svg" height="100px" version="1.0" viewBox="0 0 100 100" width="100px" x="0px" y="0px">
<line fill="none" stroke="#000000" stroke-width="2" x1="34.5" x2="4.5" y1="23" y2="23" /><line fill="none" stroke="#000000" stroke-width="2" x1="34" x2="5.5" y1="43" y2="43" /><line fill="none" stroke="#000000" stroke-width="2" x1="33" x2="96" y1="12" y2="12" /><line fill="none" stroke="#000000" stroke-width="2" x1="65" x2="65" y1="12" y2="3.5" /><line fill="none" stroke="#000000" stroke-width="2" x1="32.5" x2="96.5" y1="90" y2="90" /><line fill="none" stroke="#000000" stroke-width="2" x1="42.5" x2="88.5" y1="68" y2="68" /><polyline fill="none" points="38.5,47.5 38.5,20 91.5,20 91.5,46.5 39.5,46.5" stroke="#000000" stroke-width="2" /><polyline fill="none" points="49.5,39.5 49.5,28 80.5,28 80.5,38.5 50.5,38.5" stroke="#000000" stroke-width="2" /><polyline fill="none" points="42.5,81 88.5,81 88.5,55 41.5,55 41.5,82" stroke="#000000" stroke-width="2" /><path d="M15.5,20 c-1.752,-4.979 -3.662,-9.85 -5.5,-14" fill="none" stroke="#000000" stroke-width="2" /><path d="M23.5,23 c2.456,-5.603 4.792,-11.711 6.5,-17" fill="none" stroke="#000000" stroke-width="2" /><path d="M8,92 c9.617,-11.352 12.5,-20.692 12.5,-46.5 V23.0" fill="none" stroke="#000000" stroke-width="2" /><path d="M4.5,67.5 c11.771,-2.429 21.322,-5.427 32,-10" fill="none" stroke="#000000" stroke-width="2" /></svg>