<?xml version='1.0' encoding='utf-8'?>
<svg xmlns="http://www.w3.org/2000/svg" height="100px" version="1.0" viewBox="0 0 100 100" width="100px" x="0px" y="0px">
<line fill="none" stroke="#000000" stroke-width="2" x1="8.5" x2="8.5" y1="12" y2="77" /><line fill="none" stroke="#000000" stroke-width="2" x1="34.5" x2="3.5" y1="11" y2="11" /><line fill="none" stroke="#000000" stroke-width="2" x1="28.5" x2="28.5" y1="94.5" y2="12" /><line fill="none" stroke="#000000" stroke-width="2" x1="9.5" x2="27.5" y1="53.5" y2="53.5" /><line fill="none" stroke="#000000" stroke-width="2" x1="9.5" x2="27.5" y1="31.5" y2="31.5" /><path d="M51.5,60 v19.5 c0,11.769 0.3,12 14.5,12 c17.375,0 17.62,-0.222 18.5,-15.5" fill="none" stroke="#000000" stroke-width="2" /><path d="M32.5,88 c4.487,-6.959 8.309,-16.112 10.5,-25.5" fill="none" stroke="#000000" stroke-width="2" /><path d="M96.5,87.5 c-3.057,-8.657 -7.015,-17.682 -11.5,-26" fill="none" stroke="#000000" stroke-width="2" /><path d="M3,78.5 c7.922,-1.63 16.9,-4.124 25.5,-7" fill="none" stroke="#000000" stroke-width="2" /><path d="M57.5,54 c6.145,4.754 11.142,9.436 17,16" fill="none" stroke="#000000" stroke-width="2" /><path d="M92.5,54.5 c-4.43,-7.214 -10.886,-16.434 -16.5,-23.5" fill="none" stroke="#000000" stroke-width="2" /><path d="M37,49 c14.664,-0.45 32.338,-1.902 49,-4" fill="none" stroke="#000000" stroke-width="2" /><path d="M48.5,48.5 c4.135,-7.886 8.364,-17.521 12,-27.5" fill="none" stroke="#000000" stroke-width="2" /><path d="M55.5,8 c-5.446,7.394 -12.871,14.263 -22.5,20.5" fill="none" stroke="#000000" stroke-width="2" /><path d="M72.5,8 c5.447,7.394 12.871,14.263 22.5,20.5" fill="none" stroke="#000000" stroke-width="2" /></svg>