<?xml version='1.0' encoding='utf-8'?>
<svg xmlns="http://www.w3.org/2000/svg" height="100px" version="1.0" viewBox="0 0 100 100" width="100px" x="0px" y="0px">
<line fill="none" stroke="#000000" stroke-width="2" x1="4.5" x2="95.5" y1="53.5" y2="53.5" /><line fill="none" stroke="#000000" stroke-width="2" x1="6" x2="94" y1="84.5" y2="84.5" /><line fill="none" stroke="#000000" stroke-width="2" x1="12.5" x2="87.5" y1="74" y2="74" /><line fill="none" stroke="#000000" stroke-width="2" x1="50" x2="50" y1="96" y2="37.5" /><line fill="none" stroke="#000000" stroke-width="2" x1="7" x2="50" y1="10.5" y2="10.5" /><line fill="none" stroke="#000000" stroke-width="2" x1="59" x2="94" y1="11.5" y2="11.5" /><polyline fill="none" points="15.5,64 82.5,64 82.5,43.5 15.5,43.5" stroke="#000000" stroke-width="2" /><path d="M4.5,48.676 c5.135,-6.03 7.5,-12.515 7.5,-21.676 v-8.0 h34.0 v13.5 h-34.5" fill="none" stroke="#000000" stroke-width="2" /><path d="M53,37 c18.826,-4.656 29.397,-13.13 34,-25.5" fill="none" stroke="#000000" stroke-width="2" /><path d="M50.5,23.5 c5.163,-5.382 9.586,-12.812 12,-20" fill="none" stroke="#000000" stroke-width="2" /><path d="M95.5,43 c-19.014,-5.413 -31.4,-15.694 -35,-27.5" fill="none" stroke="#000000" stroke-width="2" /></svg>