<?xml version='1.0' encoding='utf-8'?>
<svg xmlns="http://www.w3.org/2000/svg" height="100px" version="1.0" viewBox="0 0 100 100" width="100px" x="0px" y="0px">
<line fill="none" stroke="#000000" stroke-width="2" x1="19" x2="82" y1="75" y2="75" /><line fill="none" stroke="#000000" stroke-width="2" x1="19" x2="82" y1="62" y2="62" /><line fill="none" stroke="#000000" stroke-width="2" x1="49.5" x2="78" y1="24.5" y2="24.5" /><line fill="none" stroke="#000000" stroke-width="2" x1="49.5" x2="49.5" y1="39" y2="10.5" /><line fill="none" stroke="#000000" stroke-width="2" x1="8" x2="92" y1="10.5" y2="10.5" /><path d="M18,92 v-43.0 h64.0 v36.96 c0,4.177 -0.335,4.54 -8,4.54 c-2.518,0 -6.712,-0.159 -14,-0.5" fill="none" stroke="#000000" stroke-width="2" /><path d="M7,49.5 c9.133,-8.089 16.794,-20.815 20,-33.5" fill="none" stroke="#000000" stroke-width="2" /><path d="M93,41 h-6.5 c-38.354,0 -52.941,-4.608 -63,-15.5" fill="none" stroke="#000000" stroke-width="2" /><path d="M80.5,21 c4.627,-3.414 7.939,-6.535 10.709,-10.113" fill="none" stroke="#000000" stroke-width="2" /></svg>