<?xml version='1.0' encoding='utf-8'?>
<svg xmlns="http://www.w3.org/2000/svg" height="100px" version="1.0" viewBox="0 0 100 100" width="100px" x="0px" y="0px">
<line fill="none" stroke="#000000" stroke-width="2" x1="11" x2="30.5" y1="59" y2="59" /><line fill="none" stroke="#000000" stroke-width="2" x1="12" x2="30.5" y1="33.5" y2="33.5" /><line fill="none" stroke="#000000" stroke-width="2" x1="65" x2="65" y1="44.5" y2="6.5" /><line fill="none" stroke="#000000" stroke-width="2" x1="94" x2="37" y1="44.5" y2="44.5" /><path d="M5,92.5 c4.1,-10.866 6,-23.313 6,-46.5 v-36.0 h20.5 v73.0 c0,7.724 -0.25,8 -5,8 c-1.819,0 -5.604,-0.155 -11,-0.5" fill="none" stroke="#000000" stroke-width="2" /><path d="M52.5,38.5 c-4.621,-8.891 -9.641,-17.599 -14.5,-25" fill="none" stroke="#000000" stroke-width="2" /><path d="M77.5,38.5 c5.861,-7.912 11.115,-16.987 14.5,-25" fill="none" stroke="#000000" stroke-width="2" /><path d="M74,44.5 v38.0 c0,6.554 0.465,7 9.5,7 c9.869,0 10.039,-0.2 10.5,-28" fill="none" stroke="#000000" stroke-width="2" /><path d="M35.5,91 c16.24,-7.384 22,-17.663 22,-46.5" fill="none" stroke="#000000" stroke-width="2" /></svg>