<?xml version='1.0' encoding='utf-8'?>
<svg xmlns="http://www.w3.org/2000/svg" height="100px" version="1.0" viewBox="0 0 100 100" width="100px" x="0px" y="0px">
<line fill="none" stroke="#000000" stroke-width="2" x1="30.5" x2="30.5" y1="10" y2="18.5" /><line fill="none" stroke="#000000" stroke-width="2" x1="30.5" x2="30.5" y1="31" y2="39.5" /><line fill="none" stroke="#000000" stroke-width="2" x1="11.5" x2="48" y1="40.5" y2="40.5" /><line fill="none" stroke="#000000" stroke-width="2" x1="52.5" x2="93.5" y1="9" y2="9" /><line fill="none" stroke="#000000" stroke-width="2" x1="19" x2="82" y1="75.5" y2="75.5" /><line fill="none" stroke="#000000" stroke-width="2" x1="19" x2="82" y1="62" y2="62" /><polyline fill="none" points="49,9 10.5,9 10.5,46.5" stroke="#000000" stroke-width="2" /><polyline fill="none" points="11.5,30 46,30 46,19.5 11.5,19.5" stroke="#000000" stroke-width="2" /><path d="M51,40.5 c20.637,-4.87 35.072,-16.363 41.588,-30.909" fill="none" stroke="#000000" stroke-width="2" /><path d="M95.5,45 c-19.634,-6.658 -31.239,-17.315 -37,-32.5" fill="none" stroke="#000000" stroke-width="2" /><path d="M18,92.5 v-44.0 h64.0 v37.5 c0,4.677 -0.335,5 -8,5 c-2.517,0 -6.712,-0.159 -14,-0.5" fill="none" stroke="#000000" stroke-width="2" /></svg>