<?xml version='1.0' encoding='utf-8'?>
<svg xmlns="http://www.w3.org/2000/svg" height="100px" version="1.0" viewBox="0 0 100 100" width="100px" x="0px" y="0px">
<line fill="none" stroke="#000000" stroke-width="2" x1="10.5" x2="28" y1="59" y2="59" /><line fill="none" stroke="#000000" stroke-width="2" x1="11.5" x2="28" y1="33.5" y2="33.5" /><line fill="none" stroke="#000000" stroke-width="2" x1="65" x2="65" y1="11.5" y2="50.5" /><line fill="none" stroke="#000000" stroke-width="2" x1="40" x2="91" y1="30" y2="30" /><polyline fill="none" points="40,50.5 91,50.5 91,10.5 39,10.5 39,51.5" stroke="#000000" stroke-width="2" /><path d="M4.5,92.5 c4.1,-10.866 6,-23.313 6,-46.5 v-36.0 h18.5 v73.0 c0,7.798 -0.24,8 -4.5,8 c-1.705,0 -5.44,-0.164 -10.5,-0.5" fill="none" stroke="#000000" stroke-width="2" /><path d="M51.5,58.5 v21.0 c0,11.755 0.271,12 14.5,12 c17.195,0 17.445,-0.224 18.5,-18.5" fill="none" stroke="#000000" stroke-width="2" /><path d="M32.5,87.5 c4.523,-7.342 8.395,-17.042 10.5,-27" fill="none" stroke="#000000" stroke-width="2" /><path d="M96.5,88 c-3.056,-9.656 -7.029,-19.713 -11.5,-29" fill="none" stroke="#000000" stroke-width="2" /><path d="M73.5,76.5 c-4.018,-6.058 -8.734,-12.142 -14,-18" fill="none" stroke="#000000" stroke-width="2" /></svg>