<?xml version='1.0' encoding='utf-8'?>
<svg xmlns="http://www.w3.org/2000/svg" height="100px" version="1.0" viewBox="0 0 100 100" width="100px" x="0px" y="0px">
<line fill="none" stroke="#000000" stroke-width="2" x1="18" x2="83" y1="79" y2="79" /><line fill="none" stroke="#000000" stroke-width="2" x1="18" x2="83" y1="69.5" y2="69.5" /><line fill="none" stroke="#000000" stroke-width="2" x1="6.5" x2="93.5" y1="11" y2="11" /><line fill="none" stroke="#000000" stroke-width="2" x1="50" x2="50" y1="11" y2="3" /><polyline fill="none" points="18,29 18,18.5 82,18.5 82,28 19,28" stroke="#000000" stroke-width="2" /><polyline fill="none" points="19,53.5 19,43 81,43 81,52.5 20,52.5" stroke="#000000" stroke-width="2" /><polyline fill="none" points="92.5,51 92.5,35.5 7.5,35.5 7.5,51" stroke="#000000" stroke-width="2" /><path d="M17,92.5 V60.0 h66.0 v26.46 c0,4.177 -0.334,4.54 -8,4.54 c-2.518,0 -6.713,-0.159 -14,-0.5" fill="none" stroke="#000000" stroke-width="2" /></svg>