<?xml version='1.0' encoding='utf-8'?>
<svg xmlns="http://www.w3.org/2000/svg" height="100px" version="1.0" viewBox="0 0 100 100" width="100px" x="0px" y="0px">
<line fill="none" stroke="#000000" stroke-width="2" x1="56.5" x2="56.5" y1="39" y2="57" /><line fill="none" stroke="#000000" stroke-width="2" x1="24.5" x2="89.5" y1="47.5" y2="47.5" /><line fill="none" stroke="#000000" stroke-width="2" x1="27" x2="87" y1="81.5" y2="81.5" /><line fill="none" stroke="#000000" stroke-width="2" x1="27" x2="87" y1="72.5" y2="72.5" /><line fill="none" stroke="#000000" stroke-width="2" x1="48.5" x2="48.5" y1="17" y2="2" /><line fill="none" stroke="#000000" stroke-width="2" x1="18.5" x2="75.5" y1="28.5" y2="22.5" /><line fill="none" stroke="#000000" stroke-width="2" x1="48.5" x2="84.5" y1="9" y2="9" /><polyline fill="none" points="24.5,57 89.5,57 89.5,38 23.5,38 23.5,58" stroke="#000000" stroke-width="2" /><path d="M26,92.5 v-29.0 h61.0 V88.0 c0,3.095 -0.459,3.5 -7,3.5 c-2.148,0 -5.789,-0.122 -12,-0.5" fill="none" stroke="#000000" stroke-width="2" /><path d="M78,25 c5.354,-2.406 9.329,-4.801 12.855,-7.765" fill="none" stroke="#000000" stroke-width="2" /><path d="M4.5,91.5 c6.739,-14.092 10,-29.671 10,-51 V17.0 h77.0" fill="none" stroke="#000000" stroke-width="2" /><path d="M41.5,17 v12.0 c0,3.188 0.328,3.5 20,3.5 c26.063,0 26.23,-0.133 27,-9.5" fill="none" stroke="#000000" stroke-width="2" /></svg>