<?xml version='1.0' encoding='utf-8'?>
<svg xmlns="http://www.w3.org/2000/svg" height="100px" version="1.0" viewBox="0 0 100 100" width="100px" x="0px" y="0px">
<line fill="none" stroke="#000000" stroke-width="2" x1="10" x2="28" y1="59" y2="59" /><line fill="none" stroke="#000000" stroke-width="2" x1="11" x2="28" y1="33.5" y2="33.5" /><line fill="none" stroke="#000000" stroke-width="2" x1="64.5" x2="64.5" y1="13.5" y2="3" /><line fill="none" stroke="#000000" stroke-width="2" x1="34.5" x2="94.5" y1="39" y2="39" /><line fill="none" stroke="#000000" stroke-width="2" x1="33" x2="96" y1="90" y2="90" /><line fill="none" stroke="#000000" stroke-width="2" x1="91" x2="38" y1="72" y2="72" /><line fill="none" stroke="#000000" stroke-width="2" x1="64.5" x2="64.5" y1="90" y2="56.5" /><polyline fill="none" points="93.5,29.5 93.5,13.5 35.5,13.5 35.5,29.5" stroke="#000000" stroke-width="2" /><path d="M4,92.5 c4.1,-10.866 6,-23.313 6,-46.5 v-36.0 h19.0 v73.0 c0,7.817 -0.205,8 -4,8 c-1.479,0 -4.615,-0.159 -9,-0.5" fill="none" stroke="#000000" stroke-width="2" /><path d="M69,13.5 v15.38 c0,3.318 0.257,3.62 9,3.62 c9.477,0 9.707,-0.164 11,-13.5" fill="none" stroke="#000000" stroke-width="2" /><path d="M37.5,34.5 c12.538,-3.59 20.416,-11.821 21,-21" fill="none" stroke="#000000" stroke-width="2" /><path d="M94,62.5 c-5.114,-5.952 -12.178,-13.827 -18,-20" fill="none" stroke="#000000" stroke-width="2" /><path d="M36.5,58.5 c15.278,-0.491 32.67,-2.039 50,-4.5" fill="none" stroke="#000000" stroke-width="2" /><path d="M46,58 c3.271,-5.606 6.476,-11.997 9.5,-19" fill="none" stroke="#000000" stroke-width="2" /></svg>