<?xml version='1.0' encoding='utf-8'?>
<svg xmlns="http://www.w3.org/2000/svg" height="100px" version="1.0" viewBox="0 0 100 100" width="100px" x="0px" y="0px">
<line fill="none" stroke="#000000" stroke-width="2" x1="9" x2="27.5" y1="59" y2="59" /><line fill="none" stroke="#000000" stroke-width="2" x1="10" x2="27.5" y1="33.5" y2="33.5" /><line fill="none" stroke="#000000" stroke-width="2" x1="31.5" x2="96.5" y1="35" y2="35" /><line fill="none" stroke="#000000" stroke-width="2" x1="64" x2="64" y1="56" y2="11.5" /><line fill="none" stroke="#000000" stroke-width="2" x1="39" x2="39" y1="55" y2="93.5" /><line fill="none" stroke="#000000" stroke-width="2" x1="64" x2="64" y1="86.5" y2="57" /><line fill="none" stroke="#000000" stroke-width="2" x1="39" x2="89" y1="87.5" y2="87.5" /><line fill="none" stroke="#000000" stroke-width="2" x1="40" x2="89" y1="71.5" y2="71.5" /><polyline fill="none" points="89,93.5 89,56 40,56" stroke="#000000" stroke-width="2" /><path d="M4.5,92.5 c3.238,-8.584 4.5,-17.869 4.5,-46.5 v-36.0 h19.5 v73.0 c0,7.724 -0.25,8 -5,8 c-1.488,0 -4.585,-0.155 -9,-0.5" fill="none" stroke="#000000" stroke-width="2" /><path d="M51.5,31 c-3.102,-5.021 -6.604,-10.134 -10,-14.5" fill="none" stroke="#000000" stroke-width="2" /><path d="M76.5,31 c4.106,-5.511 7.746,-11.534 10,-16.5" fill="none" stroke="#000000" stroke-width="2" /><path d="M35.5,12.5 c19.792,0 38.861,-1.53 57,-4.5" fill="none" stroke="#000000" stroke-width="2" /><path d="M31,58 c15.516,-7.432 25.5,-14.878 32,-23" fill="none" stroke="#000000" stroke-width="2" /><path d="M97,58 c-15.516,-7.432 -25.501,-14.878 -32,-23" fill="none" stroke="#000000" stroke-width="2" /></svg>