<?xml version='1.0' encoding='utf-8'?>
<svg xmlns="http://www.w3.org/2000/svg" height="100px" version="1.0" viewBox="0 0 100 100" width="100px" x="0px" y="0px">
<line fill="none" stroke="#000000" stroke-width="2" x1="9" x2="26.5" y1="59" y2="59" /><line fill="none" stroke="#000000" stroke-width="2" x1="10" x2="26.5" y1="33.5" y2="33.5" /><line fill="none" stroke="#000000" stroke-width="2" x1="64.5" x2="64.5" y1="46.5" y2="10" /><line fill="none" stroke="#000000" stroke-width="2" x1="36" x2="93" y1="10" y2="10" /><line fill="none" stroke="#000000" stroke-width="2" x1="41" x2="58" y1="30" y2="30" /><line fill="none" stroke="#000000" stroke-width="2" x1="41" x2="58" y1="40.5" y2="40.5" /><line fill="none" stroke="#000000" stroke-width="2" x1="71" x2="88" y1="30" y2="30" /><line fill="none" stroke="#000000" stroke-width="2" x1="71" x2="88" y1="40.5" y2="40.5" /><line fill="none" stroke="#000000" stroke-width="2" x1="95.5" x2="33.5" y1="50.5" y2="50.5" /><line fill="none" stroke="#000000" stroke-width="2" x1="55" x2="55" y1="61.5" y2="90.5" /><line fill="none" stroke="#000000" stroke-width="2" x1="73.5" x2="73.5" y1="61.5" y2="90.5" /><polyline fill="none" points="94,40.5 94,21 35,21 35,40.5" stroke="#000000" stroke-width="2" /><path d="M4.5,92.5 c3.238,-8.584 4.5,-17.869 4.5,-46.5 v-36.0 h18.5 v73.0 c0,7.724 -0.25,8 -5,8 c-1.488,0 -4.585,-0.155 -9,-0.5" fill="none" stroke="#000000" stroke-width="2" /><path d="M80,90.5 c4.289,0.366 7.348,0.5 8.5,0.5 c3.65,0 4,-0.396 4,-6 V61.5 h-56.0 v31.0" fill="none" stroke="#000000" stroke-width="2" /><path d="M65,50.5 c-1.285,4.079 -2.926,7.679 -5,11" fill="none" stroke="#000000" stroke-width="2" /></svg>