<?xml version='1.0' encoding='utf-8'?>
<svg xmlns="http://www.w3.org/2000/svg" height="100px" version="1.0" viewBox="0 0 100 100" width="100px" x="0px" y="0px">
<line fill="none" stroke="#000000" stroke-width="2" x1="43" x2="43" y1="93.5" y2="63" /><line fill="none" stroke="#000000" stroke-width="2" x1="26" x2="26" y1="62" y2="27.5" /><line fill="none" stroke="#000000" stroke-width="2" x1="46" x2="6" y1="44.5" y2="44.5" /><line fill="none" stroke="#000000" stroke-width="2" x1="43" x2="10.5" y1="27.5" y2="27.5" /><line fill="none" stroke="#000000" stroke-width="2" x1="9" x2="43" y1="86.5" y2="86.5" /><line fill="none" stroke="#000000" stroke-width="2" x1="55" x2="89" y1="86.5" y2="86.5" /><line fill="none" stroke="#000000" stroke-width="2" x1="70" x2="70" y1="13.5" y2="3.5" /><polyline fill="none" points="44,62 9,62 9,93.5" stroke="#000000" stroke-width="2" /><polyline fill="none" points="55,48 87,48 87,25.5 54,25.5 54,93.5" stroke="#000000" stroke-width="2" /><polyline fill="none" points="90,93.5 90,60 55,60" stroke="#000000" stroke-width="2" /><polyline fill="none" points="93,32.5 93,14.5 48.5,14.5 48.5,32.5" stroke="#000000" stroke-width="2" /><path d="M45,22 c-7.029,-5.139 -13.002,-10.329 -19,-16.5 c-6.363,8.238 -13.077,15.094 -21,21.5" fill="none" stroke="#000000" stroke-width="2" /></svg>