<?xml version='1.0' encoding='utf-8'?>
<svg xmlns="http://www.w3.org/2000/svg" height="100px" version="1.0" viewBox="0 0 100 100" width="100px" x="0px" y="0px">
<line fill="none" stroke="#000000" stroke-width="2" x1="3.5" x2="48.5" y1="51" y2="47" /><line fill="none" stroke="#000000" stroke-width="2" x1="25.5" x2="25.5" y1="49" y2="81" /><line fill="none" stroke="#000000" stroke-width="2" x1="70.5" x2="70.5" y1="16" y2="4" /><polyline fill="none" points="93.5,34 93.5,16 47.5,16 47.5,34" stroke="#000000" stroke-width="2" /><path d="M3.5,92.5 c5.156,-10.463 7.5,-22.791 7.5,-46.5 v-30.5 h30.0 V83.0 c0,7.505 -0.339,8 -3.9,8 c-1.635,0 -4.753,-0.166 -9.6,-0.5" fill="none" stroke="#000000" stroke-width="2" /><path d="M30,40.5 c-2.914,-6.144 -6.154,-12.252 -9,-17" fill="none" stroke="#000000" stroke-width="2" /><path d="M25.5,4 c-0.602,4.216 -1.244,7.964 -2,11.5" fill="none" stroke="#000000" stroke-width="2" /><path d="M55,24.5 V79.0 c0,10.865 0.693,11.5 18,11.5 c18.071,0 18.331,-0.209 20,-25" fill="none" stroke="#000000" stroke-width="2" /><path d="M55,59 c11.9,-5.29 22.871,-12.728 35,-24" fill="none" stroke="#000000" stroke-width="2" /></svg>