<?xml version='1.0' encoding='utf-8'?>
<svg xmlns="http://www.w3.org/2000/svg" height="100px" version="1.0" viewBox="0 0 100 100" width="100px" x="0px" y="0px">
<line fill="none" stroke="#000000" stroke-width="2" x1="3.5" x2="34.5" y1="51" y2="47" /><line fill="none" stroke="#000000" stroke-width="2" x1="19" x2="19" y1="49" y2="81" /><line fill="none" stroke="#000000" stroke-width="2" x1="55" x2="35.5" y1="42" y2="42" /><line fill="none" stroke="#000000" stroke-width="2" x1="54.5" x2="35.5" y1="12" y2="12" /><line fill="none" stroke="#000000" stroke-width="2" x1="58" x2="96" y1="42" y2="42" /><line fill="none" stroke="#000000" stroke-width="2" x1="59.5" x2="94.5" y1="74.5" y2="74.5" /><line fill="none" stroke="#000000" stroke-width="2" x1="77" x2="77" y1="74.5" y2="13.5" /><path d="M23.5,40.5 c-2.752,-6.144 -5.813,-12.252 -8.5,-17" fill="none" stroke="#000000" stroke-width="2" /><path d="M19.5,4 c-0.601,4.216 -1.245,7.964 -2,11.5" fill="none" stroke="#000000" stroke-width="2" /><path d="M2,92.5 c4.469,-10.463 6.5,-22.791 6.5,-46.5 v-30.5 h21.5 V83.0 c0,7.636 -0.33,8 -3.5,8 c-1.455,0 -4.193,-0.149 -8.5,-0.5" fill="none" stroke="#000000" stroke-width="2" /><path d="M33.5,92 c10.768,-12.49 18.032,-29.5 20.508,-49.125" fill="none" stroke="#000000" stroke-width="2" /><path d="M36.293,41.611 c7.205,-9.351 12.759,-18.699 17.292,-29.014" fill="none" stroke="#000000" stroke-width="2" /><path d="M96,90 h-5.5 c-32.465,0 -44.473,-7.802 -54.5,-39" fill="none" stroke="#000000" stroke-width="2" /><path d="M57,16.5 c14.504,-1.179 27.369,-3.942 37,-7.5" fill="none" stroke="#000000" stroke-width="2" /></svg>