<?xml version='1.0' encoding='utf-8'?>
<svg xmlns="http://www.w3.org/2000/svg" height="100px" version="1.0" viewBox="0 0 100 100" width="100px" x="0px" y="0px">
<polyline fill="none" points="19,62 19,79 74.5,79 74.5,62" stroke="#000000" stroke-width="2" /><polyline fill="none" points="19.5,20.5 19.5,37 74,37 74,20.5" stroke="#000000" stroke-width="2" /><path d="M22.5,54.5 h67.5 c0,30.142 -5.124,37 -14.5,37 c-4.406,0 -11.446,-0.175 -19,-0.5" fill="none" stroke="#000000" stroke-width="2" /><path d="M6.5,67.5 c9.309,-5.501 19.662,-15.556 24,-23" fill="none" stroke="#000000" stroke-width="2" /><path d="M23,13 h66.5 c0,27.142 -5.124,34 -14.5,34 c-4.406,0 -11.446,-0.175 -19,-0.5" fill="none" stroke="#000000" stroke-width="2" /><path d="M7,26 c9.309,-5.501 19.662,-15.556 24,-23" fill="none" stroke="#000000" stroke-width="2" /><path d="M10.5,92.5 c24.436,-3.463 37.5,-15.885 37.5,-34" fill="none" stroke="#000000" stroke-width="2" /><path d="M11,49 c24.438,-4.085 37,-15.874 37,-32" fill="none" stroke="#000000" stroke-width="2" /></svg>