<?xml version='1.0' encoding='utf-8'?>
<svg xmlns="http://www.w3.org/2000/svg" height="100px" version="1.0" viewBox="0 0 100 100" width="100px" x="0px" y="0px">
<line fill="none" stroke="#000000" stroke-width="2" x1="7" x2="93" y1="16" y2="16" /><line fill="none" stroke="#000000" stroke-width="2" x1="32" x2="32" y1="29" y2="4" /><line fill="none" stroke="#000000" stroke-width="2" x1="68" x2="68" y1="29" y2="4" /><line fill="none" stroke="#000000" stroke-width="2" x1="93" x2="7" y1="53.5" y2="53.5" /><line fill="none" stroke="#000000" stroke-width="2" x1="15" x2="86.5" y1="29" y2="29" /><path d="M7,86.5 c16.678,-8.202 32.024,-19.304 46,-33" fill="none" stroke="#000000" stroke-width="2" /><path d="M27,35 c9.885,5.388 20.354,11.676 31,18.5" fill="none" stroke="#000000" stroke-width="2" /><path d="M85.922,29.183 c-5.564,3.937 -22.373,12.36 -37.422,18.317" fill="none" stroke="#000000" stroke-width="2" /><path d="M92.204,53.896 c-6.992,9.19 -15.216,17.095 -25.204,24.104" fill="none" stroke="#000000" stroke-width="2" /><path d="M54,53.5 v30.0 c0,6.415 -0.709,7 -8,7 c-2.503,0 -9.157,-0.18 -17,-0.5" fill="none" stroke="#000000" stroke-width="2" /></svg>