<?xml version='1.0' encoding='utf-8'?>
<svg xmlns="http://www.w3.org/2000/svg" height="100px" version="1.0" viewBox="0 0 100 100" width="100px" x="0px" y="0px">
<line fill="none" stroke="#000000" stroke-width="2" x1="62.5" x2="62.5" y1="78.5" y2="30" /><line fill="none" stroke="#000000" stroke-width="2" x1="6" x2="94" y1="14.5" y2="14.5" /><line fill="none" stroke="#000000" stroke-width="2" x1="32" x2="32" y1="24.5" y2="4" /><line fill="none" stroke="#000000" stroke-width="2" x1="68" x2="68" y1="23" y2="4" /><line fill="none" stroke="#000000" stroke-width="2" x1="30.5" x2="30.5" y1="93" y2="29.5" /><line fill="none" stroke="#000000" stroke-width="2" x1="54" x2="7.5" y1="49" y2="49" /><path d="M89,26 v60.5 c0,4.114 -0.97,5 -6.5,5 c-2.75,0 -6.925,-0.143 -12.5,-0.5" fill="none" stroke="#000000" stroke-width="2" /><path d="M7,82 c10.904,-10.909 17.924,-21.485 22.5,-33.5" fill="none" stroke="#000000" stroke-width="2" /><path d="M52.5,26 c-14.917,2.732 -28.678,4.681 -43,6" fill="none" stroke="#000000" stroke-width="2" /><path d="M54.5,76.5 c-7.053,-8.615 -15.503,-18.354 -23.5,-27" fill="none" stroke="#000000" stroke-width="2" /></svg>