<?xml version='1.0' encoding='utf-8'?>
<svg xmlns="http://www.w3.org/2000/svg" height="100px" version="1.0" viewBox="0 0 100 100" width="100px" x="0px" y="0px">
<line fill="none" stroke="#000000" stroke-width="2" x1="6.5" x2="93.5" y1="14.5" y2="14.5" /><line fill="none" stroke="#000000" stroke-width="2" x1="32" x2="32" y1="24.5" y2="5" /><line fill="none" stroke="#000000" stroke-width="2" x1="68" x2="68" y1="24.5" y2="5" /><line fill="none" stroke="#000000" stroke-width="2" x1="13.5" x2="87.5" y1="88.5" y2="88.5" /><line fill="none" stroke="#000000" stroke-width="2" x1="50" x2="50" y1="83" y2="39.5" /><line fill="none" stroke="#000000" stroke-width="2" x1="80" x2="20" y1="54.5" y2="54.5" /><polyline fill="none" points="87.5,94.5 87.5,30 12.5,30 12.5,94.5" stroke="#000000" stroke-width="2" /><path d="M19,79.5 c14.184,-7.919 24.154,-16.313 30.5,-25" fill="none" stroke="#000000" stroke-width="2" /><path d="M77.5,36 c-19.077,2.733 -36.682,4.682 -55,6" fill="none" stroke="#000000" stroke-width="2" /><path d="M81,79.5 c-8.853,-8.232 -19.915,-17.164 -30.5,-24.5" fill="none" stroke="#000000" stroke-width="2" /></svg>