<?xml version='1.0' encoding='utf-8'?>
<svg xmlns="http://www.w3.org/2000/svg" height="100px" version="1.0" viewBox="0 0 100 100" width="100px" x="0px" y="0px">
<line fill="none" stroke="#000000" stroke-width="2" x1="7" x2="93" y1="16" y2="16" /><line fill="none" stroke="#000000" stroke-width="2" x1="31" x2="31" y1="26" y2="4" /><line fill="none" stroke="#000000" stroke-width="2" x1="69" x2="69" y1="26" y2="4" /><line fill="none" stroke="#000000" stroke-width="2" x1="51" x2="88.5" y1="67.5" y2="67.5" /><line fill="none" stroke="#000000" stroke-width="2" x1="52" x2="88.5" y1="48" y2="48" /><line fill="none" stroke="#000000" stroke-width="2" x1="12.5" x2="41.5" y1="52.5" y2="52.5" /><polyline fill="none" points="12.5,76 41.5,76 41.5,30.5 11.5,30.5 11.5,84" stroke="#000000" stroke-width="2" /><path d="M36,93 c11.391,-9.058 16,-19.046 16,-37 v-25.5 h36.5 v53.0 c0,7.674 -0.266,8 -6,8 c-2.166,0 -6.576,-0.155 -13,-0.5" fill="none" stroke="#000000" stroke-width="2" /></svg>