<?xml version='1.0' encoding='utf-8'?>
<svg xmlns="http://www.w3.org/2000/svg" height="100px" version="1.0" viewBox="0 0 100 100" width="100px" x="0px" y="0px">
<line fill="none" stroke="#000000" stroke-width="2" x1="6.5" x2="93.5" y1="13.5" y2="13.5" /><line fill="none" stroke="#000000" stroke-width="2" x1="32" x2="32" y1="21" y2="5" /><line fill="none" stroke="#000000" stroke-width="2" x1="68" x2="68" y1="20" y2="5" /><line fill="none" stroke="#000000" stroke-width="2" x1="7" x2="93" y1="37" y2="37" /><line fill="none" stroke="#000000" stroke-width="2" x1="50" x2="50" y1="55" y2="24" /><line fill="none" stroke="#000000" stroke-width="2" x1="93" x2="7" y1="61" y2="61" /><path d="M14,25 c25,0 49.088,-1.36 72,-4" fill="none" stroke="#000000" stroke-width="2" /><path d="M6,56.5 c21.002,-6.202 34.648,-12.765 43,-19.5" fill="none" stroke="#000000" stroke-width="2" /><path d="M94,56.5 c-21.002,-6.202 -34.648,-12.765 -43,-19.5" fill="none" stroke="#000000" stroke-width="2" /><path d="M10,91.5 c32.117,-3.618 55.469,-15.681 65.5,-30.5" fill="none" stroke="#000000" stroke-width="2" /><path d="M44.5,51 c-7.234,9.907 -16.475,18.646 -29,27" fill="none" stroke="#000000" stroke-width="2" /><path d="M20.5,74.5 c23.878,3.331 43.711,8.482 69.5,18" fill="none" stroke="#000000" stroke-width="2" /></svg>