<?xml version='1.0' encoding='utf-8'?>
<svg xmlns="http://www.w3.org/2000/svg" height="100px" version="1.0" viewBox="0 0 100 100" width="100px" x="0px" y="0px">
<line fill="none" stroke="#000000" stroke-width="2" x1="6" x2="94" y1="14.5" y2="14.5" /><line fill="none" stroke="#000000" stroke-width="2" x1="32" x2="32" y1="24.5" y2="4" /><line fill="none" stroke="#000000" stroke-width="2" x1="68" x2="68" y1="23" y2="4" /><line fill="none" stroke="#000000" stroke-width="2" x1="24.5" x2="24.5" y1="93" y2="29.5" /><line fill="none" stroke="#000000" stroke-width="2" x1="44" x2="6" y1="49" y2="49" /><path d="M52,36 c-1.088,9.8 -4.129,19.153 -8.5,26.5" fill="none" stroke="#000000" stroke-width="2" /><path d="M38.5,91.5 c17.834,-8.139 29,-24.498 29,-44 V26.0" fill="none" stroke="#000000" stroke-width="2" /><path d="M95.5,91.5 c-17.703,-8.425 -28,-24.498 -28,-44" fill="none" stroke="#000000" stroke-width="2" /><path d="M92.5,35 c-1.931,9.451 -6.213,19.031 -11.5,26" fill="none" stroke="#000000" stroke-width="2" /><path d="M5,82 c8.966,-10.909 14.764,-21.474 18.5,-33.5" fill="none" stroke="#000000" stroke-width="2" /><path d="M42,26 c-11.969,2.732 -23.01,4.681 -34.5,6" fill="none" stroke="#000000" stroke-width="2" /><path d="M41.5,76.5 c-4.952,-8.615 -10.906,-18.326 -16.5,-27" fill="none" stroke="#000000" stroke-width="2" /></svg>