<?xml version='1.0' encoding='utf-8'?>
<svg xmlns="http://www.w3.org/2000/svg" height="100px" version="1.0" viewBox="0 0 100 100" width="100px" x="0px" y="0px">
<line fill="none" stroke="#000000" stroke-width="2" x1="17.5" x2="70.5" y1="75.5" y2="75.5" /><line fill="none" stroke="#000000" stroke-width="2" x1="17.5" x2="70.5" y1="62" y2="62" /><line fill="none" stroke="#000000" stroke-width="2" x1="43.5" x2="43.5" y1="31" y2="91.5" /><line fill="none" stroke="#000000" stroke-width="2" x1="14.5" x2="75" y1="39" y2="39" /><line fill="none" stroke="#000000" stroke-width="2" x1="7" x2="93" y1="13.5" y2="13.5" /><line fill="none" stroke="#000000" stroke-width="2" x1="31" x2="31" y1="23" y2="4" /><line fill="none" stroke="#000000" stroke-width="2" x1="69" x2="69" y1="23" y2="4" /><path d="M56,31 c3.922,2.361 8.326,5.31 12,8" fill="none" stroke="#000000" stroke-width="2" /><path d="M16.5,92.5 V49.0 h54.0 v35.5 c0,5.777 -0.622,6.5 -5,6.5 c-1.717,0 -6.627,-0.169 -12,-0.5" fill="none" stroke="#000000" stroke-width="2" /><path d="M3.5,52 c9.656,-9.01 17.44,-21.107 21,-32" fill="none" stroke="#000000" stroke-width="2" /><path d="M21,28 h68.5 c-1.538,57.418 -3.802,63.5 -8,63.5 c-2.093,0 -5.412,-0.353 -9,-1" fill="none" stroke="#000000" stroke-width="2" /></svg>