<?xml version='1.0' encoding='utf-8'?>
<svg xmlns="http://www.w3.org/2000/svg" height="100px" version="1.0" viewBox="0 0 100 100" width="100px" x="0px" y="0px">
<line fill="none" stroke="#000000" stroke-width="2" x1="6.5" x2="93.5" y1="14" y2="14" /><line fill="none" stroke="#000000" stroke-width="2" x1="32" x2="32" y1="22.5" y2="5" /><line fill="none" stroke="#000000" stroke-width="2" x1="68" x2="68" y1="22.5" y2="5" /><line fill="none" stroke="#000000" stroke-width="2" x1="6" x2="94" y1="74" y2="74" /><line fill="none" stroke="#000000" stroke-width="2" x1="70.5" x2="70.5" y1="93.5" y2="62" /><line fill="none" stroke="#000000" stroke-width="2" x1="7.5" x2="92.5" y1="26" y2="26" /><line fill="none" stroke="#000000" stroke-width="2" x1="23" x2="49.5" y1="35.5" y2="35.5" /><path d="M11.5,93.5 c13.852,-4.437 21,-13.409 21,-27 v-5.0" fill="none" stroke="#000000" stroke-width="2" /><path d="M58,26 v31.0 c0,4.26 1.102,5 15,5 c17.931,0 18.16,-0.164 20,-14" fill="none" stroke="#000000" stroke-width="2" /><path d="M6,47 c11.758,-5.243 20.027,-12.892 24,-21" fill="none" stroke="#000000" stroke-width="2" /><path d="M48.52,36.299 c-2.633,12.797 -17.355,24.609 -40.02,29.201" fill="none" stroke="#000000" stroke-width="2" /><path d="M38.5,52 c-5.244,-3.148 -11.684,-6.653 -17.5,-9.5" fill="none" stroke="#000000" stroke-width="2" /><path d="M58,45.5 c11.195,-2.271 20.932,-5.273 32.5,-10" fill="none" stroke="#000000" stroke-width="2" /></svg>