<?xml version='1.0' encoding='utf-8'?>
<svg xmlns="http://www.w3.org/2000/svg" height="100px" version="1.0" viewBox="0 0 100 100" width="100px" x="0px" y="0px">
<line fill="none" stroke="#000000" stroke-width="2" x1="20.5" x2="79.5" y1="52" y2="52" /><line fill="none" stroke="#000000" stroke-width="2" x1="34" x2="66" y1="32" y2="32" /><line fill="none" stroke="#000000" stroke-width="2" x1="23" x2="83" y1="89" y2="89" /><line fill="none" stroke="#000000" stroke-width="2" x1="7" x2="93" y1="13.5" y2="13.5" /><line fill="none" stroke="#000000" stroke-width="2" x1="32" x2="32" y1="24" y2="4.5" /><line fill="none" stroke="#000000" stroke-width="2" x1="68" x2="68" y1="24" y2="4.5" /><polyline fill="none" points="83,94 83,72.5 22,72.5 22,94" stroke="#000000" stroke-width="2" /><path d="M94.5,42 c-16.943,-6.879 -31.083,-14.302 -44.5,-23.3 c-13.417,8.998 -27.557,16.421 -44.5,23.3" fill="none" stroke="#000000" stroke-width="2" /><path d="M5,91.5 c9.836,-8.498 15.5,-21.617 15.5,-39.5 v-11.5 h59.0 v23.5 h-60.0" fill="none" stroke="#000000" stroke-width="2" /></svg>