<?xml version='1.0' encoding='utf-8'?>
<svg xmlns="http://www.w3.org/2000/svg" height="100px" version="1.0" viewBox="0 0 100 100" width="100px" x="0px" y="0px">
<line fill="none" stroke="#000000" stroke-width="2" x1="7" x2="93" y1="12" y2="12" /><line fill="none" stroke="#000000" stroke-width="2" x1="32" x2="32" y1="19.5" y2="3" /><line fill="none" stroke="#000000" stroke-width="2" x1="68" x2="68" y1="19.5" y2="3" /><polyline fill="none" points="7,23 44.5,23 44.5,46" stroke="#000000" stroke-width="2" /><polyline fill="none" points="51,23 88.5,23 88.5,47" stroke="#000000" stroke-width="2" /><path d="M94.5,64 c-16.906,-6.304 -31.083,-13.058 -44.5,-21.2 c-13.417,8.143 -27.594,14.896 -44.5,21.2" fill="none" stroke="#000000" stroke-width="2" /><path d="M8,48.5 c15.277,-4.993 27.421,-10.645 36.5,-16.5" fill="none" stroke="#000000" stroke-width="2" /><path d="M19.5,65 c17.79,-1.97 33.762,-6.591 44,-12" fill="none" stroke="#000000" stroke-width="2" /><path d="M19.5,78.75 c24.547,-2.279 43.115,-7.669 56,-15" fill="none" stroke="#000000" stroke-width="2" /><path d="M19.5,92.5 c31.305,-2.589 52.469,-8.747 68,-18" fill="none" stroke="#000000" stroke-width="2" /><path d="M8,35.5 c10.172,-3.267 19.119,-7.063 26.5,-11" fill="none" stroke="#000000" stroke-width="2" /><path d="M52,35.5 c10.172,-3.267 19.119,-7.063 26.5,-11" fill="none" stroke="#000000" stroke-width="2" /><path d="M60.5,45.5 c11.32,-4.213 20.689,-8.785 28,-13.5" fill="none" stroke="#000000" stroke-width="2" /></svg>