<?xml version='1.0' encoding='utf-8'?>
<svg xmlns="http://www.w3.org/2000/svg" height="100px" version="1.0" viewBox="0 0 100 100" width="100px" x="0px" y="0px">
<line fill="none" stroke="#000000" stroke-width="2" x1="7" x2="93" y1="14.5" y2="14.5" /><line fill="none" stroke="#000000" stroke-width="2" x1="32" x2="32" y1="22.5" y2="4.5" /><line fill="none" stroke="#000000" stroke-width="2" x1="68" x2="68" y1="22.5" y2="4.5" /><line fill="none" stroke="#000000" stroke-width="2" x1="62" x2="62" y1="27" y2="41" /><line fill="none" stroke="#000000" stroke-width="2" x1="38" x2="38" y1="27" y2="41" /><polyline fill="none" points="15,43 15,26 85,26 85,42 16,42" stroke="#000000" stroke-width="2" /><path d="M6,91.5 c5.376,-7.733 8,-16.351 8,-28.001 v-9.5 h76.0" fill="none" stroke="#000000" stroke-width="2" /><path d="M82,58.999 c-9.078,14.902 -28.357,27.001 -56.5,32.501" fill="none" stroke="#000000" stroke-width="2" /><path d="M54,42 c2.438,34.854 25.705,50.5 31,50.5 c3.182,0 6.077,-3.52 8,-15.5" fill="none" stroke="#000000" stroke-width="2" /><path d="M69,45 c4.379,2.577 8.875,5.725 13,8.999" fill="none" stroke="#000000" stroke-width="2" /><path d="M45.5,76.5 c-6.095,-4.107 -13.674,-8.632 -22,-13" fill="none" stroke="#000000" stroke-width="2" /></svg>