<?xml version='1.0' encoding='utf-8'?>
<svg xmlns="http://www.w3.org/2000/svg" height="100px" version="1.0" viewBox="0 0 100 100" width="100px" x="0px" y="0px">
<line fill="none" stroke="#000000" stroke-width="2" x1="29" x2="94" y1="43" y2="43" /><line fill="none" stroke="#000000" stroke-width="2" x1="61.5" x2="61.5" y1="60.5" y2="24.5" /><line fill="none" stroke="#000000" stroke-width="2" x1="35.5" x2="35.5" y1="59.5" y2="94" /><line fill="none" stroke="#000000" stroke-width="2" x1="61.5" x2="61.5" y1="89" y2="61.5" /><line fill="none" stroke="#000000" stroke-width="2" x1="35.5" x2="87.5" y1="89" y2="89" /><line fill="none" stroke="#000000" stroke-width="2" x1="36.5" x2="87.5" y1="74.5" y2="74.5" /><line fill="none" stroke="#000000" stroke-width="2" x1="6" x2="94" y1="14" y2="14" /><line fill="none" stroke="#000000" stroke-width="2" x1="32" x2="32" y1="22" y2="3.5" /><line fill="none" stroke="#000000" stroke-width="2" x1="68" x2="68" y1="21" y2="3.5" /><polyline fill="none" points="87.5,94 87.5,60.5 36.5,60.5" stroke="#000000" stroke-width="2" /><path d="M48.5,43 c-3.102,-4.675 -6.604,-9.435 -10,-13.5" fill="none" stroke="#000000" stroke-width="2" /><path d="M74.5,43 c4.106,-5.178 7.746,-10.835 10,-15.5" fill="none" stroke="#000000" stroke-width="2" /><path d="M32,25.5 c20.486,0 40.225,-1.361 59,-4" fill="none" stroke="#000000" stroke-width="2" /><path d="M27,62.5 c16.248,-6.255 26.705,-12.614 33.5,-19.5" fill="none" stroke="#000000" stroke-width="2" /><path d="M96,62.5 c-16.248,-6.255 -26.705,-12.614 -33.5,-19.5" fill="none" stroke="#000000" stroke-width="2" /><path d="M9,93 c7.514,-7.671 13.688,-16.247 18,-25" fill="none" stroke="#000000" stroke-width="2" /><path d="M27.5,34.5 c-4.842,-3.677 -10.543,-7.573 -17,-11.5" fill="none" stroke="#000000" stroke-width="2" /><path d="M23.5,55 c-5.355,-4.007 -11.389,-8.123 -18.5,-12.5" fill="none" stroke="#000000" stroke-width="2" /></svg>