<?xml version='1.0' encoding='utf-8'?>
<svg xmlns="http://www.w3.org/2000/svg" height="100px" version="1.0" viewBox="0 0 100 100" width="100px" x="0px" y="0px">
<line fill="none" stroke="#000000" stroke-width="2" x1="6" x2="94" y1="13.5" y2="13.5" /><line fill="none" stroke="#000000" stroke-width="2" x1="32" x2="32" y1="21" y2="3" /><line fill="none" stroke="#000000" stroke-width="2" x1="68" x2="68" y1="21.5" y2="3" /><line fill="none" stroke="#000000" stroke-width="2" x1="16" x2="35.5" y1="25" y2="25" /><line fill="none" stroke="#000000" stroke-width="2" x1="11" x2="46" y1="54" y2="54" /><line fill="none" stroke="#000000" stroke-width="2" x1="28" x2="28" y1="39" y2="70.5" /><line fill="none" stroke="#000000" stroke-width="2" x1="96" x2="49" y1="74" y2="74" /><line fill="none" stroke="#000000" stroke-width="2" x1="95" x2="50" y1="35.5" y2="35.5" /><line fill="none" stroke="#000000" stroke-width="2" x1="93.5" x2="51.5" y1="54.5" y2="54.5" /><line fill="none" stroke="#000000" stroke-width="2" x1="73" x2="73" y1="94.5" y2="35.5" /><polyline fill="none" points="10,38 46,38 46,70.5 10,70.5 10,38" stroke="#000000" stroke-width="2" /><path d="M27.6,38 c2.462,-3.815 4.961,-8.285 7.002,-12.44" fill="none" stroke="#000000" stroke-width="2" /><path d="M4.5,44 c6.186,-7.458 11.051,-16.088 14.5,-26" fill="none" stroke="#000000" stroke-width="2" /><path d="M48.5,91.5 c-1.168,-5.296 -2.902,-11.388 -5,-17.5" fill="none" stroke="#000000" stroke-width="2" /><path d="M35,93 c-0.652,-5.661 -1.827,-11.883 -3.5,-18.5" fill="none" stroke="#000000" stroke-width="2" /><path d="M21.5,94.5 c-0.137,-6.027 -0.752,-12.378 -2,-19.5" fill="none" stroke="#000000" stroke-width="2" /><path d="M5,95 c2.512,-5.933 4.387,-12.726 5.5,-20.5" fill="none" stroke="#000000" stroke-width="2" /><path d="M65.5,35.5 c-2.07,-5.867 -4.328,-11.609 -6.5,-16.5" fill="none" stroke="#000000" stroke-width="2" /><path d="M80.5,35.5 c2.645,-5.438 5.16,-11.366 7,-16.5" fill="none" stroke="#000000" stroke-width="2" /></svg>