<?xml version='1.0' encoding='utf-8'?>
<svg xmlns="http://www.w3.org/2000/svg" height="100px" version="1.0" viewBox="0 0 100 100" width="100px" x="0px" y="0px">
<line fill="none" stroke="#000000" stroke-width="2" x1="7" x2="93" y1="12" y2="12" /><line fill="none" stroke="#000000" stroke-width="2" x1="32" x2="32" y1="18.5" y2="3" /><line fill="none" stroke="#000000" stroke-width="2" x1="68" x2="68" y1="18.5" y2="3" /><line fill="none" stroke="#000000" stroke-width="2" x1="55" x2="88" y1="32.5" y2="32.5" /><line fill="none" stroke="#000000" stroke-width="2" x1="45" x2="12" y1="32.5" y2="32.5" /><line fill="none" stroke="#000000" stroke-width="2" x1="28.5" x2="71.5" y1="75" y2="75" /><line fill="none" stroke="#000000" stroke-width="2" x1="28.5" x2="71.5" y1="66.5" y2="66.5" /><line fill="none" stroke="#000000" stroke-width="2" x1="50" x2="50" y1="93" y2="44" /><line fill="none" stroke="#000000" stroke-width="2" x1="21" x2="79" y1="50.5" y2="50.5" /><polyline fill="none" points="11,93.5 11,22 45,22 45,43.5 12,43.5" stroke="#000000" stroke-width="2" /><polyline fill="none" points="72.5,76 72.5,58 27.5,58 27.5,76" stroke="#000000" stroke-width="2" /><path d="M76,91 c4.701,0.365 7.678,0.5 9,0.5 c3.375,0 4,-0.759 4,-6.5 v-63.0 h-34.0 v21.5 h33.0" fill="none" stroke="#000000" stroke-width="2" /><path d="M20,89 c14.575,-4.768 23.884,-9.604 29,-14" fill="none" stroke="#000000" stroke-width="2" /><path d="M74,89 c-9.986,-3.933 -16.828,-8.183 -23,-14" fill="none" stroke="#000000" stroke-width="2" /></svg>