<?xml version='1.0' encoding='utf-8'?>
<svg xmlns="http://www.w3.org/2000/svg" height="100px" version="1.0" viewBox="0 0 100 100" width="100px" x="0px" y="0px">
<line fill="none" stroke="#000000" stroke-width="2" x1="48.5" x2="48.5" y1="18" y2="2" /><line fill="none" stroke="#000000" stroke-width="2" x1="18.5" x2="75.5" y1="31" y2="25" /><line fill="none" stroke="#000000" stroke-width="2" x1="48.5" x2="84.5" y1="9.5" y2="9.5" /><line fill="none" stroke="#000000" stroke-width="2" x1="94.5" x2="14.5" y1="77" y2="77" /><polyline fill="none" points="39.5,59 84.5,59 84.5,44.5 38.5,44.5 38.5,60" stroke="#000000" stroke-width="2" /><polyline fill="none" points="82.5,77 82.5,67.5 26.5,67.5 26.5,44.5" stroke="#000000" stroke-width="2" /><path d="M79,29.5 c4.873,-3.441 8.491,-6.866 11.701,-11.104" fill="none" stroke="#000000" stroke-width="2" /><path d="M4.5,91.5 c6.739,-14.092 10,-29.671 10,-51 V18.0 h77.0" fill="none" stroke="#000000" stroke-width="2" /><path d="M41.5,18 v13.5 c0,5.396 0.12,5.5 20,5.5 c25.984,0 26.148,-0.132 27,-10.5" fill="none" stroke="#000000" stroke-width="2" /><path d="M17.5,93 c11.832,-3.22 22.011,-7.772 28,-12" fill="none" stroke="#000000" stroke-width="2" /><path d="M91.5,93 c-7.209,-4.04 -17.146,-8.394 -28,-12" fill="none" stroke="#000000" stroke-width="2" /></svg>