<?xml version='1.0' encoding='utf-8'?>
<svg xmlns="http://www.w3.org/2000/svg" height="100px" version="1.0" viewBox="0 0 100 100" width="100px" x="0px" y="0px">
<line fill="none" stroke="#000000" stroke-width="2" x1="22" x2="22" y1="85" y2="6" /><line fill="none" stroke="#000000" stroke-width="2" x1="68" x2="68" y1="16" y2="4" /><polyline fill="none" points="7.5,52 37.5,52 37.5,21 6.5,21 6.5,60" stroke="#000000" stroke-width="2" /><polyline fill="none" points="93.5,34 93.5,16 44,16 44,34" stroke="#000000" stroke-width="2" /><path d="M44.5,88 c-2.205,-8.9 -6.092,-20.247 -10,-29" fill="none" stroke="#000000" stroke-width="2" /><path d="M3.5,90 c11.377,-2.313 24.945,-6.738 38,-12.5" fill="none" stroke="#000000" stroke-width="2" /><path d="M52,24.5 V79.0 c0,10.864 0.693,11.5 19.5,11.5 c19.571,0 19.831,-0.208 21.5,-25" fill="none" stroke="#000000" stroke-width="2" /><path d="M52,59 c12.75,-5.29 24.504,-12.728 37.5,-24" fill="none" stroke="#000000" stroke-width="2" /></svg>