<?xml version='1.0' encoding='utf-8'?>
<svg xmlns="http://www.w3.org/2000/svg" height="100px" version="1.0" viewBox="0 0 100 100" width="100px" x="0px" y="0px">
<line fill="none" stroke="#000000" stroke-width="2" x1="20" x2="20" y1="84.5" y2="6" /><line fill="none" stroke="#000000" stroke-width="2" x1="68.5" x2="68.5" y1="94" y2="6" /><line fill="none" stroke="#000000" stroke-width="2" x1="93" x2="49.5" y1="19" y2="19" /><line fill="none" stroke="#000000" stroke-width="2" x1="96" x2="39" y1="46" y2="46" /><polyline fill="none" points="7,52 34,52 34,21 6,21 6,60" stroke="#000000" stroke-width="2" /><path d="M38.5,89.5 c-1.984,-9.054 -5.482,-20.595 -9,-29.5" fill="none" stroke="#000000" stroke-width="2" /><path d="M2.5,90 c9.73,-2.313 21.336,-6.738 32.5,-12.5" fill="none" stroke="#000000" stroke-width="2" /><path d="M39.5,40 c5.852,-9.067 10.607,-20.628 13.5,-33" fill="none" stroke="#000000" stroke-width="2" /><path d="M37.5,86 c14.66,-11.501 26.522,-27.461 30.5,-40" fill="none" stroke="#000000" stroke-width="2" /><path d="M96,86 c-12.75,-11.697 -23.412,-27.989 -27,-40.5" fill="none" stroke="#000000" stroke-width="2" /></svg>