<?xml version='1.0' encoding='utf-8'?>
<svg xmlns="http://www.w3.org/2000/svg" height="100px" version="1.0" viewBox="0 0 100 100" width="100px" x="0px" y="0px">
<line fill="none" stroke="#000000" stroke-width="2" x1="21.5" x2="21.5" y1="84.5" y2="6" /><line fill="none" stroke="#000000" stroke-width="2" x1="38.5" x2="93.5" y1="12" y2="12" /><line fill="none" stroke="#000000" stroke-width="2" x1="92.5" x2="40.5" y1="61.5" y2="61.5" /><line fill="none" stroke="#000000" stroke-width="2" x1="96" x2="39.5" y1="88.5" y2="88.5" /><line fill="none" stroke="#000000" stroke-width="2" x1="66.5" x2="66.5" y1="88.5" y2="46" /><polyline fill="none" points="7.5,52 36.5,52 36.5,21 6.5,21 6.5,60" stroke="#000000" stroke-width="2" /><path d="M40.5,89 c-1.764,-8.9 -4.873,-20.247 -8,-29" fill="none" stroke="#000000" stroke-width="2" /><path d="M3.5,90 c10.329,-2.313 22.648,-6.738 34.5,-12.5" fill="none" stroke="#000000" stroke-width="2" /><path d="M94.5,49 c-4.227,-8.726 -10.68,-19.695 -16.5,-28" fill="none" stroke="#000000" stroke-width="2" /><path d="M41,43.5 c14.06,-1.29 30.421,-3.927 46.5,-7.5" fill="none" stroke="#000000" stroke-width="2" /><path d="M49,42.5 c4.18,-9.094 8.102,-19.003 12,-30.5" fill="none" stroke="#000000" stroke-width="2" /></svg>