<?xml version='1.0' encoding='utf-8'?>
<svg xmlns="http://www.w3.org/2000/svg" height="100px" version="1.0" viewBox="0 0 100 100" width="100px" x="0px" y="0px">
<line fill="none" stroke="#000000" stroke-width="2" x1="8" x2="92" y1="14" y2="14" /><line fill="none" stroke="#000000" stroke-width="2" x1="50" x2="50" y1="14" y2="3.5" /><line fill="none" stroke="#000000" stroke-width="2" x1="50" x2="50" y1="87.5" y2="44" /><polyline fill="none" points="17,69.5 84,69.5 84,51.5 16,51.5 16,76.5" stroke="#000000" stroke-width="2" /><path d="M61,14 v22.0 c0,4.533 -0.5,5 -6,5 c-2.061,0 -5.662,-0.138 -11.5,-0.5" fill="none" stroke="#000000" stroke-width="2" /><path d="M24,46 c13.176,-7.976 18,-16.431 18,-32" fill="none" stroke="#000000" stroke-width="2" /><path d="M8,43 c9.213,-5.976 16.625,-13.909 21,-22" fill="none" stroke="#000000" stroke-width="2" /><path d="M92,43 c-5.781,-7.149 -14.092,-15.19 -23,-22" fill="none" stroke="#000000" stroke-width="2" /><path d="M94,93 c-5.668,-6.06 -13.436,-13.824 -20,-20" fill="none" stroke="#000000" stroke-width="2" /><path d="M8,91 c23.123,-0.979 50.211,-3.814 76.5,-8" fill="none" stroke="#000000" stroke-width="2" /></svg>