<?xml version='1.0' encoding='utf-8'?>
<svg xmlns="http://www.w3.org/2000/svg" height="100px" version="1.0" viewBox="0 0 100 100" width="100px" x="0px" y="0px">
<line fill="none" stroke="#000000" stroke-width="2" x1="20" x2="20" y1="84.5" y2="6" /><line fill="none" stroke="#000000" stroke-width="2" x1="34" x2="97" y1="40" y2="40" /><line fill="none" stroke="#000000" stroke-width="2" x1="81.5" x2="40" y1="17.5" y2="17.5" /><line fill="none" stroke="#000000" stroke-width="2" x1="62" x2="62" y1="40" y2="4.5" /><polyline fill="none" points="7,52 34,52 34,21 6,21 6,60" stroke="#000000" stroke-width="2" /><path d="M38.5,89.5 c-1.984,-9.054 -5.482,-20.595 -9,-29.5" fill="none" stroke="#000000" stroke-width="2" /><path d="M2.5,90 c9.73,-2.313 21.336,-6.738 32.5,-12.5" fill="none" stroke="#000000" stroke-width="2" /><path d="M34.5,64 c25.564,-12.612 46.202,-32.503 58,-55" fill="none" stroke="#000000" stroke-width="2" /><path d="M47,48.5 v34.5 c0,8.281 0.284,8.5 20,8.5 c23.487,0 23.724,-0.227 25,-19.5" fill="none" stroke="#000000" stroke-width="2" /><path d="M47,70.5 c15.162,-3.794 29.512,-9.238 45,-17" fill="none" stroke="#000000" stroke-width="2" /></svg>