<?xml version='1.0' encoding='utf-8'?>
<svg xmlns="http://www.w3.org/2000/svg" height="100px" version="1.0" viewBox="0 0 100 100" width="100px" x="0px" y="0px">
<line fill="none" stroke="#000000" stroke-width="2" x1="50" x2="50" y1="89" y2="50.5" /><line fill="none" stroke="#000000" stroke-width="2" x1="50" x2="50" y1="12" y2="2" /><polyline fill="none" points="17,74 84,74 84,59 16,59 16,80.5" stroke="#000000" stroke-width="2" /><polyline fill="none" points="91,27 91,12 9,12 9,27" stroke="#000000" stroke-width="2" /><path d="M94,93.5 c-5.668,-4.544 -13.432,-10.374 -20,-15" fill="none" stroke="#000000" stroke-width="2" /><path d="M8,91.5 c23.123,-0.733 49.219,-2.792 75.5,-6" fill="none" stroke="#000000" stroke-width="2" /><path d="M29.5,19.5 v21.0 c0,6.886 0.143,7 20.5,7 c25.972,0 26.26,-0.266 27.5,-15" fill="none" stroke="#000000" stroke-width="2" /><path d="M8,43.5 c4.992,-4.53 9.554,-10.933 13,-18.5" fill="none" stroke="#000000" stroke-width="2" /><path d="M93.5,45 c-3.654,-6.315 -8.289,-13.018 -13.5,-19.5" fill="none" stroke="#000000" stroke-width="2" /><path d="M56.5,26.5 c-5.864,-3.47 -12.759,-6.96 -20,-10" fill="none" stroke="#000000" stroke-width="2" /><path d="M77,15.5 c-12.58,15.545 -35.256,28.717 -70,38" fill="none" stroke="#000000" stroke-width="2" /></svg>