<?xml version='1.0' encoding='utf-8'?>
<svg xmlns="http://www.w3.org/2000/svg" height="100px" version="1.0" viewBox="0 0 100 100" width="100px" x="0px" y="0px">
<line fill="none" stroke="#000000" stroke-width="2" x1="43" x2="88" y1="45" y2="45" /><line fill="none" stroke="#000000" stroke-width="2" x1="42" x2="89" y1="67" y2="67" /><line fill="none" stroke="#000000" stroke-width="2" x1="65.5" x2="65.5" y1="24" y2="93.5" /><line fill="none" stroke="#000000" stroke-width="2" x1="19.5" x2="19.5" y1="84.5" y2="6" /><polyline fill="none" points="6.5,52 33.5,52 33.5,21 5.5,21 5.5,60" stroke="#000000" stroke-width="2" /><path d="M50,23 c-2.478,-6.308 -5.203,-12.36 -8,-17.5" fill="none" stroke="#000000" stroke-width="2" /><path d="M68.5,23 c-2.479,-6.667 -5.201,-13.065 -8,-18.5" fill="none" stroke="#000000" stroke-width="2" /><path d="M80,23 c3.878,-6.196 7.309,-12.591 10,-18.5" fill="none" stroke="#000000" stroke-width="2" /><path d="M37,85.5 c-1.607,-7.969 -4.53,-17.903 -7.5,-25.5" fill="none" stroke="#000000" stroke-width="2" /><path d="M2.5,90 c9.73,-2.313 21.336,-6.738 32.5,-12.5" fill="none" stroke="#000000" stroke-width="2" /><path d="M32,93 c6.979,-7.81 11,-19.89 11,-39 v-31.0 H88.0 c0,58.063 3.074,69.5 6.5,69.5 c1.739,0 3.088,-3.093 3.5,-20.5" fill="none" stroke="#000000" stroke-width="2" /></svg>