<?xml version='1.0' encoding='utf-8'?>
<svg xmlns="http://www.w3.org/2000/svg" height="100px" version="1.0" viewBox="0 0 100 100" width="100px" x="0px" y="0px">
<line fill="none" stroke="#000000" stroke-width="2" x1="20.5" x2="20.5" y1="84.5" y2="6" /><line fill="none" stroke="#000000" stroke-width="2" x1="45" x2="90" y1="29.5" y2="29.5" /><line fill="none" stroke="#000000" stroke-width="2" x1="96" x2="37" y1="89.5" y2="89.5" /><line fill="none" stroke="#000000" stroke-width="2" x1="94" x2="40" y1="57" y2="57" /><line fill="none" stroke="#000000" stroke-width="2" x1="91" x2="43" y1="72.5" y2="72.5" /><line fill="none" stroke="#000000" stroke-width="2" x1="67" x2="67" y1="89.5" y2="57" /><polyline fill="none" points="7,52 35,52 35,21 6,21 6,60" stroke="#000000" stroke-width="2" /><polyline fill="none" points="45,46 90,46 90,14 44,14 44,47" stroke="#000000" stroke-width="2" /><path d="M38,86 c-1.764,-7.979 -4.873,-18.152 -8,-26" fill="none" stroke="#000000" stroke-width="2" /><path d="M3,90 c9.73,-2.313 21.336,-6.738 32.5,-12.5" fill="none" stroke="#000000" stroke-width="2" /><path d="M68,3 c-1.629,4.058 -3.594,7.636 -6,11" fill="none" stroke="#000000" stroke-width="2" /></svg>