<?xml version='1.0' encoding='utf-8'?>
<svg xmlns="http://www.w3.org/2000/svg" height="100px" version="1.0" viewBox="0 0 100 100" width="100px" x="0px" y="0px">
<line fill="none" stroke="#000000" stroke-width="2" x1="20.5" x2="20.5" y1="84.5" y2="6" /><line fill="none" stroke="#000000" stroke-width="2" x1="95.5" x2="35.5" y1="62" y2="62" /><line fill="none" stroke="#000000" stroke-width="2" x1="96" x2="35" y1="17" y2="17" /><line fill="none" stroke="#000000" stroke-width="2" x1="65.5" x2="65.5" y1="94" y2="49.5" /><line fill="none" stroke="#000000" stroke-width="2" x1="85.5" x2="85.5" y1="37.5" y2="6" /><polyline fill="none" points="7,52 35,52 35,21 6,21 6,60" stroke="#000000" stroke-width="2" /><polyline fill="none" points="44,6 44,49.5 93,49.5" stroke="#000000" stroke-width="2" /><polyline fill="none" points="61.5,6 61.5,36.5 84.5,36.5" stroke="#000000" stroke-width="2" /><path d="M38,89 c-1.764,-8.9 -4.873,-20.247 -8,-29" fill="none" stroke="#000000" stroke-width="2" /><path d="M3,90 c9.73,-2.313 21.336,-6.738 32.5,-12.5" fill="none" stroke="#000000" stroke-width="2" /><path d="M34.5,91 c14.587,-9.494 23.99,-18.809 30,-29" fill="none" stroke="#000000" stroke-width="2" /><path d="M96.5,91 c-14.587,-9.494 -23.99,-18.808 -30,-29" fill="none" stroke="#000000" stroke-width="2" /></svg>