<?xml version='1.0' encoding='utf-8'?>
<svg xmlns="http://www.w3.org/2000/svg" height="100px" version="1.0" viewBox="0 0 100 100" width="100px" x="0px" y="0px">
<line fill="none" stroke="#000000" stroke-width="2" x1="37" x2="5" y1="24" y2="24" /><line fill="none" stroke="#000000" stroke-width="2" x1="21" x2="21" y1="24" y2="6" /><line fill="none" stroke="#000000" stroke-width="2" x1="21" x2="21" y1="94" y2="50" /><line fill="none" stroke="#000000" stroke-width="2" x1="46" x2="86" y1="35" y2="35" /><line fill="none" stroke="#000000" stroke-width="2" x1="92" x2="40" y1="53" y2="53" /><path d="M36,66 c-3.734,-4.671 -9.705,-11.511 -14.5,-16.5" fill="none" stroke="#000000" stroke-width="2" /><path d="M3,65.5 c15.794,-10.147 25.825,-22.294 33.068,-40.863" fill="none" stroke="#000000" stroke-width="2" /><path d="M27.5,56 c3.578,-3.504 7.165,-7.74 10.5,-12.5" fill="none" stroke="#000000" stroke-width="2" /><path d="M35.5,37 c11.537,-9.283 21.27,-19.163 30.5,-31 c9.23,11.837 18.961,21.717 30.5,31" fill="none" stroke="#000000" stroke-width="2" /><path d="M64,93 c10.797,-10.949 20.271,-24.875 27.095,-39.425" fill="none" stroke="#000000" stroke-width="2" /></svg>