<?xml version='1.0' encoding='utf-8'?>
<svg xmlns="http://www.w3.org/2000/svg" height="100px" version="1.0" viewBox="0 0 100 100" width="100px" x="0px" y="0px">
<line fill="none" stroke="#000000" stroke-width="2" x1="50" x2="50" y1="56" y2="45.5" /><line fill="none" stroke="#000000" stroke-width="2" x1="7" x2="93" y1="56" y2="56" /><line fill="none" stroke="#000000" stroke-width="2" x1="30.5" x2="30.5" y1="89" y2="67" /><polyline fill="none" points="58,44.5 89,44.5 89,13 57,13 57,45.5" stroke="#000000" stroke-width="2" /><path d="M6,49 c14.739,-10.71 20,-21.636 20,-45" fill="none" stroke="#000000" stroke-width="2" /><path d="M9,16.5 h38.0 c0,24.909 -2.326,28.5 -9.5,28.5 c-3.36,0 -8.532,-0.192 -13,-0.5" fill="none" stroke="#000000" stroke-width="2" /><path d="M49,56 c-9.934,7.651 -24.082,14.437 -44,20" fill="none" stroke="#000000" stroke-width="2" /><path d="M51,56 c7.447,16.339 23.893,29.89 44,36" fill="none" stroke="#000000" stroke-width="2" /><path d="M11,92 c17.236,-2.266 32.201,-5.261 50,-10" fill="none" stroke="#000000" stroke-width="2" /><path d="M65.5,75.5 c8.107,-4.224 15.449,-9.387 21.5,-15" fill="none" stroke="#000000" stroke-width="2" /></svg>