<?xml version='1.0' encoding='utf-8'?>
<svg xmlns="http://www.w3.org/2000/svg" height="100px" version="1.0" viewBox="0 0 100 100" width="100px" x="0px" y="0px">
<line fill="none" stroke="#000000" stroke-width="2" x1="50" x2="50" y1="56" y2="46.5" /><line fill="none" stroke="#000000" stroke-width="2" x1="7" x2="93" y1="56" y2="56" /><line fill="none" stroke="#000000" stroke-width="2" x1="30.5" x2="30.5" y1="89" y2="67" /><path d="M49,56 c-9.934,7.651 -24.082,14.437 -44,20" fill="none" stroke="#000000" stroke-width="2" /><path d="M51,56 c7.447,16.339 23.893,29.89 44,36" fill="none" stroke="#000000" stroke-width="2" /><path d="M11,92 c17.236,-2.266 32.201,-5.261 50,-10" fill="none" stroke="#000000" stroke-width="2" /><path d="M65.5,75.5 c8.107,-4.224 15.449,-9.387 21.5,-15" fill="none" stroke="#000000" stroke-width="2" /><path d="M9,51 c9.125,-5.681 16.803,-12.447 22,-19" fill="none" stroke="#000000" stroke-width="2" /><path d="M27.5,16.5 c-4.486,-2.769 -9.92,-5.665 -16,-8.5" fill="none" stroke="#000000" stroke-width="2" /><path d="M22,30 c-4.656,-3.19 -10.094,-6.316 -16.5,-9.5" fill="none" stroke="#000000" stroke-width="2" /><path d="M66,6 v15.0 c0,9.528 -0.453,10 -5,10 c-1.442,0 -4.828,-0.14 -10,-0.5" fill="none" stroke="#000000" stroke-width="2" /><path d="M35,34 c5.969,-6.571 11.047,-15.289 14,-24" fill="none" stroke="#000000" stroke-width="2" /><path d="M95.5,35.5 c-4.033,-8.896 -9.012,-17.935 -14.5,-26" fill="none" stroke="#000000" stroke-width="2" /><path d="M86,27.5 c-13.244,9.442 -31.02,15.515 -56.5,17.5" fill="none" stroke="#000000" stroke-width="2" /></svg>