<?xml version='1.0' encoding='utf-8'?>
<svg xmlns="http://www.w3.org/2000/svg" height="100px" version="1.0" viewBox="0 0 100 100" width="100px" x="0px" y="0px">
<line fill="none" stroke="#000000" stroke-width="2" x1="50" x2="50" y1="14" y2="4" /><line fill="none" stroke="#000000" stroke-width="2" x1="6" x2="94" y1="14" y2="14" /><line fill="none" stroke="#000000" stroke-width="2" x1="30.5" x2="30.5" y1="90" y2="70.5" /><line fill="none" stroke="#000000" stroke-width="2" x1="93.5" x2="29.5" y1="43.5" y2="43.5" /><line fill="none" stroke="#000000" stroke-width="2" x1="61.5" x2="61.5" y1="63.5" y2="35.5" /><line fill="none" stroke="#000000" stroke-width="2" x1="19.5" x2="19.5" y1="65.5" y2="32.5" /><polyline fill="none" points="37,35.5 87,35.5 87,21.5 36,21.5 36,36.5" stroke="#000000" stroke-width="2" /><path d="M55.5,58.5 c-11.438,7.62 -27.619,14.38 -50.5,20" fill="none" stroke="#000000" stroke-width="2" /><path d="M51,61 c7.319,14.048 23.418,25.703 44,31.5" fill="none" stroke="#000000" stroke-width="2" /><path d="M11,92.5 c17.232,-1.945 32.201,-4.481 50,-8.5" fill="none" stroke="#000000" stroke-width="2" /><path d="M65.5,78 c8.092,-3.718 15.371,-8.162 21.5,-13" fill="none" stroke="#000000" stroke-width="2" /><path d="M28.5,18.5 c-5.379,11.217 -14.283,21.238 -26,29" fill="none" stroke="#000000" stroke-width="2" /><path d="M28.5,59.5 c9.426,-2.898 18.046,-7.446 23.5,-12" fill="none" stroke="#000000" stroke-width="2" /><path d="M94.5,60.5 c-6.747,-4.669 -14.906,-9.22 -23.5,-13" fill="none" stroke="#000000" stroke-width="2" /></svg>