<?xml version='1.0' encoding='utf-8'?>
<svg xmlns="http://www.w3.org/2000/svg" height="100px" version="1.0" viewBox="0 0 100 100" width="100px" x="0px" y="0px">
<line fill="none" stroke="#000000" stroke-width="2" x1="28" x2="3.5" y1="24" y2="24" /><line fill="none" stroke="#000000" stroke-width="2" x1="15" x2="15" y1="24" y2="6" /><line fill="none" stroke="#000000" stroke-width="2" x1="15" x2="15" y1="94" y2="51" /><line fill="none" stroke="#000000" stroke-width="2" x1="78" x2="78" y1="44" y2="4.5" /><line fill="none" stroke="#000000" stroke-width="2" x1="96.5" x2="63" y1="15" y2="15" /><line fill="none" stroke="#000000" stroke-width="2" x1="45.5" x2="45.5" y1="44" y2="4.5" /><line fill="none" stroke="#000000" stroke-width="2" x1="60" x2="28.5" y1="15" y2="15" /><line fill="none" stroke="#000000" stroke-width="2" x1="96.5" x2="30.5" y1="62" y2="62" /><line fill="none" stroke="#000000" stroke-width="2" x1="91.5" x2="36" y1="49" y2="49" /><path d="M28.5,65 c-3.083,-4.677 -8.031,-11.511 -12,-16.5" fill="none" stroke="#000000" stroke-width="2" /><path d="M23.5,58 c3.009,-3.188 5.873,-7.034 8.5,-11.5" fill="none" stroke="#000000" stroke-width="2" /><path d="M2,65.5 c11.96,-10.128 19.557,-22.25 25.041,-40.783" fill="none" stroke="#000000" stroke-width="2" /><path d="M96,42.5 c-8.344,-9 -14.016,-18.131 -17.5,-28" fill="none" stroke="#000000" stroke-width="2" /><path d="M29,42.5 c7.659,-9.015 12.808,-18.087 16,-28" fill="none" stroke="#000000" stroke-width="2" /><path d="M59,41.5 c8.677,-8.712 14.621,-17.473 18.5,-27" fill="none" stroke="#000000" stroke-width="2" /><path d="M60,34 c-3.989,-6.063 -8.847,-12.463 -14,-18.5" fill="none" stroke="#000000" stroke-width="2" /><path d="M64,62 v25.5 c0,3.546 -0.484,4 -6,4 c-2.423,0 -5.976,-0.136 -11,-0.5" fill="none" stroke="#000000" stroke-width="2" /><path d="M29,88.5 c7.896,-5.542 14.564,-12.792 18.5,-20" fill="none" stroke="#000000" stroke-width="2" /><path d="M95.5,89 c-4.887,-6.633 -11.477,-13.993 -18.5,-20.5" fill="none" stroke="#000000" stroke-width="2" /></svg>