<?xml version='1.0' encoding='utf-8'?>
<svg xmlns="http://www.w3.org/2000/svg" height="100px" version="1.0" viewBox="0 0 100 100" width="100px" x="0px" y="0px">
<line fill="none" stroke="#000000" stroke-width="2" x1="28" x2="3.5" y1="24" y2="24" /><line fill="none" stroke="#000000" stroke-width="2" x1="15" x2="15" y1="24" y2="6" /><line fill="none" stroke="#000000" stroke-width="2" x1="15" x2="15" y1="94" y2="51" /><line fill="none" stroke="#000000" stroke-width="2" x1="63" x2="63" y1="46.5" y2="10" /><line fill="none" stroke="#000000" stroke-width="2" x1="34" x2="92" y1="10" y2="10" /><line fill="none" stroke="#000000" stroke-width="2" x1="39" x2="56" y1="30" y2="30" /><line fill="none" stroke="#000000" stroke-width="2" x1="39" x2="56" y1="40.5" y2="40.5" /><line fill="none" stroke="#000000" stroke-width="2" x1="70" x2="87" y1="30" y2="30" /><line fill="none" stroke="#000000" stroke-width="2" x1="70" x2="87" y1="40.5" y2="40.5" /><line fill="none" stroke="#000000" stroke-width="2" x1="95" x2="31" y1="50.5" y2="50.5" /><line fill="none" stroke="#000000" stroke-width="2" x1="53.5" x2="53.5" y1="61.5" y2="90.5" /><line fill="none" stroke="#000000" stroke-width="2" x1="72.5" x2="72.5" y1="61.5" y2="90.5" /><polyline fill="none" points="93.5,40.5 93.5,21 32.5,21 32.5,40.5" stroke="#000000" stroke-width="2" /><path d="M28.5,65 c-3.083,-4.677 -8.031,-11.511 -12,-16.5" fill="none" stroke="#000000" stroke-width="2" /><path d="M22.5,57 c2.838,-3.937 5.604,-8.925 8,-14.5" fill="none" stroke="#000000" stroke-width="2" /><path d="M2,65.5 c11.96,-10.128 19.557,-22.25 25.041,-40.783" fill="none" stroke="#000000" stroke-width="2" /><path d="M78,90.5 c4.839,0.366 7.848,0.5 9,0.5 c4.15,0 4.5,-0.396 4.5,-6 V61.5 h-57.0 v31.0" fill="none" stroke="#000000" stroke-width="2" /><path d="M63.5,50.5 c-1.285,4.079 -2.926,7.679 -5,11" fill="none" stroke="#000000" stroke-width="2" /></svg>