<?xml version='1.0' encoding='utf-8'?>
<svg xmlns="http://www.w3.org/2000/svg" height="100px" version="1.0" viewBox="0 0 100 100" width="100px" x="0px" y="0px">
<line fill="none" stroke="#000000" stroke-width="2" x1="36.5" x2="6" y1="27.5" y2="27.5" /><line fill="none" stroke="#000000" stroke-width="2" x1="54.5" x2="89" y1="43.5" y2="43.5" /><line fill="none" stroke="#000000" stroke-width="2" x1="54.5" x2="89" y1="26.5" y2="26.5" /><polyline fill="none" points="10,81.5 10,43.5 32.5,43.5 32.5,72.5 11,72.5" stroke="#000000" stroke-width="2" /><polyline fill="none" points="54.5,61.5 90,61.5 90,10 53.5,10 53.5,62.5" stroke="#000000" stroke-width="2" /><path d="M44.5,93 c13.392,-6.038 21,-17.696 21,-31.5" fill="none" stroke="#000000" stroke-width="2" /><path d="M4,11 h39.0 v71.0 c0,7.472 -0.477,8 -6.5,8 c-2.166,0 -6.078,-0.144 -12.5,-0.5" fill="none" stroke="#000000" stroke-width="2" /><path d="M77,62.5 v24.0 c0,3.697 0.832,4.554 3.5,4.8 c1.323,0.123 3.056,0.2 4.5,0.2 c1.63,0 3.044,-0.064 4.5,-0.2 c4.199,-0.387 4.84,-1.115 5.5,-21.3" fill="none" stroke="#000000" stroke-width="2" /></svg>