<?xml version='1.0' encoding='utf-8'?>
<svg xmlns="http://www.w3.org/2000/svg" height="100px" version="1.0" viewBox="0 0 100 100" width="100px" x="0px" y="0px">
<line fill="none" stroke="#000000" stroke-width="2" x1="6" x2="38" y1="24" y2="24" /><line fill="none" stroke="#000000" stroke-width="2" x1="9.5" x2="35.5" y1="38" y2="38" /><line fill="none" stroke="#000000" stroke-width="2" x1="9.5" x2="35.5" y1="52" y2="52" /><line fill="none" stroke="#000000" stroke-width="2" x1="9" x2="36" y1="10.5" y2="10.5" /><polyline fill="none" points="11,88.5 35,88.5 35,66 10,66 10,94.5" stroke="#000000" stroke-width="2" /><path d="M96,92.5 c-3.88,-11.451 -9.512,-25.868 -14.5,-37" fill="none" stroke="#000000" stroke-width="2" /><path d="M39.5,89.5 c16.293,-0.878 34.885,-3.694 52.5,-8" fill="none" stroke="#000000" stroke-width="2" /><path d="M49.5,88.5 c4.541,-14.841 9.121,-33.013 13,-52" fill="none" stroke="#000000" stroke-width="2" /><path d="M57,10.5 c-3.887,13.806 -9.853,26.302 -17.5,37" fill="none" stroke="#000000" stroke-width="2" /><path d="M77,10.5 c4.331,13.806 10.972,26.295 19.5,37" fill="none" stroke="#000000" stroke-width="2" /></svg>