<?xml version='1.0' encoding='utf-8'?>
<svg xmlns="http://www.w3.org/2000/svg" height="100px" version="1.0" viewBox="0 0 100 100" width="100px" x="0px" y="0px">
<line fill="none" stroke="#000000" stroke-width="2" x1="5.5" x2="36.5" y1="24" y2="24" /><line fill="none" stroke="#000000" stroke-width="2" x1="9" x2="35" y1="38" y2="38" /><line fill="none" stroke="#000000" stroke-width="2" x1="9" x2="35" y1="52" y2="52" /><line fill="none" stroke="#000000" stroke-width="2" x1="8.5" x2="35.5" y1="10.5" y2="10.5" /><line fill="none" stroke="#000000" stroke-width="2" x1="66.5" x2="66.5" y1="16" y2="4" /><polyline fill="none" points="10.5,88.5 34.5,88.5 34.5,66 9.5,66 9.5,94.5" stroke="#000000" stroke-width="2" /><polyline fill="none" points="93,34 93,16 41,16 41,34" stroke="#000000" stroke-width="2" /><path d="M49.5,24.5 V79.0 c0,10.864 0.692,11.5 20.5,11.5 c20.571,0 20.831,-0.208 22.5,-25" fill="none" stroke="#000000" stroke-width="2" /><path d="M49.5,59 c13.261,-5.29 25.484,-12.728 39,-24" fill="none" stroke="#000000" stroke-width="2" /></svg>