<?xml version='1.0' encoding='utf-8'?>
<svg xmlns="http://www.w3.org/2000/svg" height="100px" version="1.0" viewBox="0 0 100 100" width="100px" x="0px" y="0px">
<line fill="none" stroke="#000000" stroke-width="2" x1="6" x2="37.5" y1="24" y2="24" /><line fill="none" stroke="#000000" stroke-width="2" x1="9.5" x2="34" y1="38" y2="38" /><line fill="none" stroke="#000000" stroke-width="2" x1="9.5" x2="34" y1="52" y2="52" /><line fill="none" stroke="#000000" stroke-width="2" x1="9" x2="34.5" y1="10.5" y2="10.5" /><line fill="none" stroke="#000000" stroke-width="2" x1="77" x2="49.5" y1="49.5" y2="49.5" /><polyline fill="none" points="11,88.5 33.5,88.5 33.5,66 10,66 10,94.5" stroke="#000000" stroke-width="2" /><polyline fill="none" points="48.5,78 48.5,30 77,30 77,70 49.5,70" stroke="#000000" stroke-width="2" /><path d="M37,38.5 c7.042,-8.975 12.92,-21.559 16,-34" fill="none" stroke="#000000" stroke-width="2" /><path d="M49,16.5 h44.0 c-1.65,67.893 -4.17,73.5 -10.5,73.5 c-4.294,0 -11.137,-0.34 -18.5,-1" fill="none" stroke="#000000" stroke-width="2" /></svg>