<?xml version='1.0' encoding='utf-8'?>
<svg xmlns="http://www.w3.org/2000/svg" height="100px" version="1.0" viewBox="0 0 100 100" width="100px" x="0px" y="0px">
<line fill="none" stroke="#000000" stroke-width="2" x1="6" x2="37.5" y1="24" y2="24" /><line fill="none" stroke="#000000" stroke-width="2" x1="9.5" x2="34.5" y1="38" y2="38" /><line fill="none" stroke="#000000" stroke-width="2" x1="9.5" x2="34.5" y1="52" y2="52" /><line fill="none" stroke="#000000" stroke-width="2" x1="9" x2="35" y1="10.5" y2="10.5" /><line fill="none" stroke="#000000" stroke-width="2" x1="66" x2="66" y1="16" y2="4" /><line fill="none" stroke="#000000" stroke-width="2" x1="95" x2="37" y1="53.5" y2="62.5" /><polyline fill="none" points="11,88.5 34,88.5 34,66 10,66 10,94.5" stroke="#000000" stroke-width="2" /><polyline fill="none" points="91.5,34 91.5,16 41,16 41,33" stroke="#000000" stroke-width="2" /><path d="M41,39 c20.146,-2.766 35.141,-7.638 46.5,-14" fill="none" stroke="#000000" stroke-width="2" /><path d="M60,35.5 v46.5 c0,7.958 0.686,8.5 14.5,8.5 c16.354,0 16.574,-0.208 18,-25" fill="none" stroke="#000000" stroke-width="2" /></svg>