<?xml version='1.0' encoding='utf-8'?>
<svg xmlns="http://www.w3.org/2000/svg" height="100px" version="1.0" viewBox="0 0 100 100" width="100px" x="0px" y="0px">
<line fill="none" stroke="#000000" stroke-width="2" x1="6" x2="37.5" y1="24" y2="24" /><line fill="none" stroke="#000000" stroke-width="2" x1="9.5" x2="34" y1="38" y2="38" /><line fill="none" stroke="#000000" stroke-width="2" x1="9.5" x2="34" y1="52" y2="52" /><line fill="none" stroke="#000000" stroke-width="2" x1="9" x2="34.5" y1="10.5" y2="10.5" /><line fill="none" stroke="#000000" stroke-width="2" x1="37.5" x2="95.5" y1="89" y2="89" /><line fill="none" stroke="#000000" stroke-width="2" x1="91" x2="42" y1="60" y2="60" /><line fill="none" stroke="#000000" stroke-width="2" x1="89.5" x2="43.5" y1="36" y2="36" /><line fill="none" stroke="#000000" stroke-width="2" x1="66.5" x2="66.5" y1="89" y2="36" /><polyline fill="none" points="11,88.5 33.5,88.5 33.5,66 10,66 10,94.5" stroke="#000000" stroke-width="2" /><path d="M95,35 c-11.148,-8.944 -19.809,-18.157 -28.5,-30 c-8.691,11.843 -17.336,21.077 -28.5,30" fill="none" stroke="#000000" stroke-width="2" /></svg>