<?xml version='1.0' encoding='utf-8'?>
<svg xmlns="http://www.w3.org/2000/svg" height="100px" version="1.0" viewBox="0 0 100 100" width="100px" x="0px" y="0px">
<line fill="none" stroke="#000000" stroke-width="2" x1="6" x2="37.5" y1="24" y2="24" /><line fill="none" stroke="#000000" stroke-width="2" x1="9.5" x2="34" y1="38" y2="38" /><line fill="none" stroke="#000000" stroke-width="2" x1="9.5" x2="34" y1="52" y2="52" /><line fill="none" stroke="#000000" stroke-width="2" x1="9" x2="34.5" y1="10.5" y2="10.5" /><line fill="none" stroke="#000000" stroke-width="2" x1="68.5" x2="68.5" y1="94" y2="6" /><line fill="none" stroke="#000000" stroke-width="2" x1="93" x2="48.5" y1="19" y2="19" /><line fill="none" stroke="#000000" stroke-width="2" x1="96" x2="38" y1="46" y2="46" /><polyline fill="none" points="11,88.5 33.5,88.5 33.5,66 10,66 10,94.5" stroke="#000000" stroke-width="2" /><path d="M38.5,40 c5.852,-9.067 10.607,-20.628 13.5,-33" fill="none" stroke="#000000" stroke-width="2" /><path d="M37.5,86 c14.66,-11.501 26.522,-27.461 30.5,-40" fill="none" stroke="#000000" stroke-width="2" /><path d="M96,86 c-12.75,-11.697 -23.412,-27.989 -27,-40.5" fill="none" stroke="#000000" stroke-width="2" /></svg>