<?xml version='1.0' encoding='utf-8'?>
<svg xmlns="http://www.w3.org/2000/svg" height="100px" version="1.0" viewBox="0 0 100 100" width="100px" x="0px" y="0px">
<line fill="none" stroke="#000000" stroke-width="2" x1="5" x2="36.5" y1="24" y2="24" /><line fill="none" stroke="#000000" stroke-width="2" x1="8.5" x2="33" y1="38" y2="38" /><line fill="none" stroke="#000000" stroke-width="2" x1="8.5" x2="33" y1="52" y2="52" /><line fill="none" stroke="#000000" stroke-width="2" x1="8" x2="33.5" y1="10.5" y2="10.5" /><line fill="none" stroke="#000000" stroke-width="2" x1="36.5" x2="96.5" y1="70.5" y2="70.5" /><line fill="none" stroke="#000000" stroke-width="2" x1="66.5" x2="66.5" y1="14.5" y2="4" /><line fill="none" stroke="#000000" stroke-width="2" x1="37" x2="96" y1="14.5" y2="14.5" /><line fill="none" stroke="#000000" stroke-width="2" x1="92" x2="42" y1="52.5" y2="52.5" /><polyline fill="none" points="10,88.5 32.5,88.5 32.5,66 9,66 9,94.5" stroke="#000000" stroke-width="2" /><polyline fill="none" points="46,42.5 88,42.5 88,24 45,24 45,43.5" stroke="#000000" stroke-width="2" /><path d="M69,63.5 v21.0 c0,6.671 -0.604,7.5 -6.5,7.5 c-3.172,0 -7.046,-0.149 -11.5,-0.5" fill="none" stroke="#000000" stroke-width="2" /><path d="M91.396,52.703 c-6.618,5.023 -13.505,8.71 -22.396,11.797" fill="none" stroke="#000000" stroke-width="2" /></svg>