<?xml version='1.0' encoding='utf-8'?>
<svg xmlns="http://www.w3.org/2000/svg" height="100px" version="1.0" viewBox="0 0 100 100" width="100px" x="0px" y="0px">
<line fill="none" stroke="#000000" stroke-width="2" x1="6" x2="32" y1="24" y2="24" /><line fill="none" stroke="#000000" stroke-width="2" x1="8" x2="30" y1="38" y2="38" /><line fill="none" stroke="#000000" stroke-width="2" x1="8" x2="30" y1="52" y2="52" /><line fill="none" stroke="#000000" stroke-width="2" x1="7.5" x2="30.5" y1="10.5" y2="10.5" /><line fill="none" stroke="#000000" stroke-width="2" x1="39.5" x2="39.5" y1="10.5" y2="81" /><line fill="none" stroke="#000000" stroke-width="2" x1="62.5" x2="62.5" y1="95" y2="10.5" /><line fill="none" stroke="#000000" stroke-width="2" x1="96.5" x2="33.5" y1="10.5" y2="10.5" /><line fill="none" stroke="#000000" stroke-width="2" x1="40.5" x2="62.5" y1="56" y2="56" /><line fill="none" stroke="#000000" stroke-width="2" x1="40.5" x2="62.5" y1="32.5" y2="32.5" /><line fill="none" stroke="#000000" stroke-width="2" x1="62.5" x2="95" y1="25.5" y2="25.5" /><polyline fill="none" points="9.5,88.5 29.5,88.5 29.5,66 8.5,66 8.5,94.5" stroke="#000000" stroke-width="2" /><path d="M33,82 c9.222,-1.308 19.58,-3.407 29.5,-6" fill="none" stroke="#000000" stroke-width="2" /><path d="M66.5,93 c12.918,-11.993 22.899,-33.815 27.51,-66.64" fill="none" stroke="#000000" stroke-width="2" /><path d="M96,93 c-13.527,-12.81 -22.543,-32.31 -26.5,-62.5" fill="none" stroke="#000000" stroke-width="2" /></svg>