<?xml version='1.0' encoding='utf-8'?>
<svg xmlns="http://www.w3.org/2000/svg" height="100px" version="1.0" viewBox="0 0 100 100" width="100px" x="0px" y="0px">
<line fill="none" stroke="#000000" stroke-width="2" x1="6" x2="38" y1="24" y2="24" /><line fill="none" stroke="#000000" stroke-width="2" x1="9.5" x2="34.5" y1="38" y2="38" /><line fill="none" stroke="#000000" stroke-width="2" x1="9.5" x2="34.5" y1="52" y2="52" /><line fill="none" stroke="#000000" stroke-width="2" x1="9" x2="35" y1="10.5" y2="10.5" /><line fill="none" stroke="#000000" stroke-width="2" x1="44" x2="65" y1="21" y2="21" /><line fill="none" stroke="#000000" stroke-width="2" x1="44" x2="44" y1="43" y2="7.5" /><line fill="none" stroke="#000000" stroke-width="2" x1="44.5" x2="90" y1="87" y2="87" /><line fill="none" stroke="#000000" stroke-width="2" x1="44.5" x2="90" y1="68.5" y2="68.5" /><polyline fill="none" points="11,88.5 34,88.5 34,66 10,66 10,94.5" stroke="#000000" stroke-width="2" /><polyline fill="none" points="90,93 90,51.5 43.5,51.5 43.5,93" stroke="#000000" stroke-width="2" /><path d="M69.5,7.5 v30.0 c0,4.859 0.154,5 11,5 c12.152,0 12.39,-0.227 13.5,-17" fill="none" stroke="#000000" stroke-width="2" /><path d="M69.5,23.5 c8.196,-2.438 15.611,-5.827 24,-11" fill="none" stroke="#000000" stroke-width="2" /><path d="M36.5,44.5 c9.866,-1.652 19.322,-4.222 29.5,-8" fill="none" stroke="#000000" stroke-width="2" /><path d="M66,42 c-1.52,3.519 -3.293,6.552 -5.5,9.5" fill="none" stroke="#000000" stroke-width="2" /></svg>