<?xml version='1.0' encoding='utf-8'?>
<svg xmlns="http://www.w3.org/2000/svg" height="100px" version="1.0" viewBox="0 0 100 100" width="100px" x="0px" y="0px">
<line fill="none" stroke="#000000" stroke-width="2" x1="5" x2="35.5" y1="24" y2="24" /><line fill="none" stroke="#000000" stroke-width="2" x1="8.5" x2="33" y1="38" y2="38" /><line fill="none" stroke="#000000" stroke-width="2" x1="8.5" x2="33" y1="52" y2="52" /><line fill="none" stroke="#000000" stroke-width="2" x1="8" x2="33.5" y1="10.5" y2="10.5" /><line fill="none" stroke="#000000" stroke-width="2" x1="63" x2="96.5" y1="13.5" y2="13.5" /><line fill="none" stroke="#000000" stroke-width="2" x1="46.5" x2="89.5" y1="87" y2="87" /><polyline fill="none" points="10,88.5 32.5,88.5 32.5,66 9,66 9,94.5" stroke="#000000" stroke-width="2" /><polyline fill="none" points="89.5,93 89.5,59.5 45.5,59.5 45.5,93" stroke="#000000" stroke-width="2" /><path d="M39.5,55.5 c17.6,-4.072 31.5,-17.272 31.5,-28 v-9.0" fill="none" stroke="#000000" stroke-width="2" /><path d="M96.5,57.5 c-13.777,-4.176 -25.5,-18.329 -25.5,-30" fill="none" stroke="#000000" stroke-width="2" /><path d="M53,29.5 c5.906,-6.813 10.258,-15.024 13,-24.5" fill="none" stroke="#000000" stroke-width="2" /><path d="M84.5,31 c4.84,-4.838 8.478,-10.484 11.074,-16.877" fill="none" stroke="#000000" stroke-width="2" /><path d="M36,44 c7,-3.015 12.838,-6.499 17,-10" fill="none" stroke="#000000" stroke-width="2" /><path d="M52,20.5 c-3.577,-3.279 -7.988,-6.728 -13,-10" fill="none" stroke="#000000" stroke-width="2" /></svg>