<?xml version='1.0' encoding='utf-8'?>
<svg xmlns="http://www.w3.org/2000/svg" height="100px" version="1.0" viewBox="0 0 100 100" width="100px" x="0px" y="0px">
<line fill="none" stroke="#000000" stroke-width="2" x1="33.5" x2="96" y1="32.5" y2="32.5" /><line fill="none" stroke="#000000" stroke-width="2" x1="93.5" x2="36" y1="20" y2="20" /><line fill="none" stroke="#000000" stroke-width="2" x1="10.5" x2="28.5" y1="59" y2="59" /><line fill="none" stroke="#000000" stroke-width="2" x1="11.5" x2="28.5" y1="33.5" y2="33.5" /><line fill="none" stroke="#000000" stroke-width="2" x1="90" x2="90" y1="94" y2="74" /><line fill="none" stroke="#000000" stroke-width="2" x1="39.5" x2="89" y1="88.5" y2="88.5" /><line fill="none" stroke="#000000" stroke-width="2" x1="38" x2="90.5" y1="49.5" y2="49.5" /><line fill="none" stroke="#000000" stroke-width="2" x1="39" x2="89.5" y1="58" y2="58" /><line fill="none" stroke="#000000" stroke-width="2" x1="39" x2="89.5" y1="66.5" y2="66.5" /><line fill="none" stroke="#000000" stroke-width="2" x1="48.5" x2="81" y1="41" y2="41" /><polyline fill="none" points="89,75 38.5,75 38.5,94" stroke="#000000" stroke-width="2" /><path d="M33,49.5 c16.365,-8.17 29.502,-26.673 31.5,-45.5" fill="none" stroke="#000000" stroke-width="2" /><path d="M50.5,20 c-2.745,-4.634 -5.693,-9.107 -8.5,-13" fill="none" stroke="#000000" stroke-width="2" /><path d="M79,20 c3.191,-4.317 6.234,-8.945 8.5,-13" fill="none" stroke="#000000" stroke-width="2" /><path d="M4.5,92.5 c4.1,-10.866 6,-23.313 6,-46.5 v-36.0 h19.0 v73.0 c0,7.817 -0.205,8 -4,8 c-1.479,0 -4.615,-0.159 -9,-0.5" fill="none" stroke="#000000" stroke-width="2" /><path d="M96.5,49.5 c-11.635,-5.808 -21.972,-16.843 -27.5,-29.5" fill="none" stroke="#000000" stroke-width="2" /></svg>