<?xml version='1.0' encoding='utf-8'?>
<svg xmlns="http://www.w3.org/2000/svg" height="100px" version="1.0" viewBox="0 0 100 100" width="100px" x="0px" y="0px">
<line fill="none" stroke="#000000" stroke-width="2" x1="5.5" x2="36" y1="24" y2="24" /><line fill="none" stroke="#000000" stroke-width="2" x1="8.5" x2="33" y1="38" y2="38" /><line fill="none" stroke="#000000" stroke-width="2" x1="8.5" x2="33" y1="52" y2="52" /><line fill="none" stroke="#000000" stroke-width="2" x1="8" x2="33.5" y1="10.5" y2="10.5" /><line fill="none" stroke="#000000" stroke-width="2" x1="42" x2="90" y1="49" y2="49" /><line fill="none" stroke="#000000" stroke-width="2" x1="42" x2="90" y1="74.5" y2="74.5" /><line fill="none" stroke="#000000" stroke-width="2" x1="39.5" x2="92.5" y1="61" y2="61" /><line fill="none" stroke="#000000" stroke-width="2" x1="66" x2="66" y1="89" y2="30" /><line fill="none" stroke="#000000" stroke-width="2" x1="37.5" x2="95.5" y1="16" y2="16" /><line fill="none" stroke="#000000" stroke-width="2" x1="36.5" x2="96.5" y1="89" y2="89" /><line fill="none" stroke="#000000" stroke-width="2" x1="54.5" x2="54.5" y1="25" y2="5" /><line fill="none" stroke="#000000" stroke-width="2" x1="78.5" x2="78.5" y1="25" y2="5" /><polyline fill="none" points="10,88.5 32.5,88.5 32.5,66 9,66 9,94.5" stroke="#000000" stroke-width="2" /><polyline fill="none" points="91,50 91,29 41,29 41,50" stroke="#000000" stroke-width="2" /></svg>