<?xml version='1.0' encoding='utf-8'?>
<svg xmlns="http://www.w3.org/2000/svg" height="100px" version="1.0" viewBox="0 0 100 100" width="100px" x="0px" y="0px">
<line fill="none" stroke="#000000" stroke-width="2" x1="17.5" x2="82.5" y1="64.5" y2="64.5" /><line fill="none" stroke="#000000" stroke-width="2" x1="17.5" x2="82.5" y1="53.5" y2="53.5" /><line fill="none" stroke="#000000" stroke-width="2" x1="85" x2="14" y1="30.5" y2="30.5" /><line fill="none" stroke="#000000" stroke-width="2" x1="71" x2="29" y1="20" y2="20" /><polyline fill="none" points="17.5,75.5 83.5,75.5 83.5,42.5 16.5,42.5 16.5,76.5" stroke="#000000" stroke-width="2" /><path d="M8,92 c13.08,-3.282 24.369,-7.771 31,-12" fill="none" stroke="#000000" stroke-width="2" /><path d="M92,93 c-7.982,-4.208 -19.018,-8.679 -31,-12.5" fill="none" stroke="#000000" stroke-width="2" /><path d="M72,42.5 c4.521,-3.775 8.636,-7.695 12.261,-11.674" fill="none" stroke="#000000" stroke-width="2" /><path d="M94.5,26.5 c-16.952,-6.522 -31.083,-13.719 -44.5,-22.3 c-13.417,8.581 -27.548,15.777 -44.5,22.3" fill="none" stroke="#000000" stroke-width="2" /></svg>