<?xml version='1.0' encoding='utf-8'?>
<svg xmlns="http://www.w3.org/2000/svg" height="100px" version="1.0" viewBox="0 0 100 100" width="100px" x="0px" y="0px">
<line fill="none" stroke="#000000" stroke-width="2" x1="11" x2="34.5" y1="48" y2="48" /><line fill="none" stroke="#000000" stroke-width="2" x1="11" x2="34.5" y1="29" y2="29" /><line fill="none" stroke="#000000" stroke-width="2" x1="96.5" x2="40" y1="16.5" y2="16.5" /><line fill="none" stroke="#000000" stroke-width="2" x1="50.5" x2="50.5" y1="93" y2="35" /><line fill="none" stroke="#000000" stroke-width="2" x1="50.5" x2="91" y1="72" y2="72" /><line fill="none" stroke="#000000" stroke-width="2" x1="51.5" x2="91" y1="53" y2="53" /><polyline fill="none" points="11,67.5 35.5,67.5 35.5,10.5 10,10.5 10,68.5" stroke="#000000" stroke-width="2" /><path d="M3.5,92 c6.299,-4.847 12.094,-11.837 15.5,-18.5" fill="none" stroke="#000000" stroke-width="2" /><path d="M39.5,91.5 c-3.175,-6.021 -7.396,-12.218 -12,-17.5" fill="none" stroke="#000000" stroke-width="2" /><path d="M35.5,53 c12.695,-11.702 21.163,-26.421 26.5,-48" fill="none" stroke="#000000" stroke-width="2" /><path d="M51,34.5 h40.0 v52.46 c0,4.178 -0.38,4.54 -6,4.54 c-2.174,0 -5.705,-0.159 -12,-0.5" fill="none" stroke="#000000" stroke-width="2" /></svg>