<?xml version='1.0' encoding='utf-8'?>
<svg xmlns="http://www.w3.org/2000/svg" height="100px" version="1.0" viewBox="0 0 100 100" width="100px" x="0px" y="0px">
<line fill="none" stroke="#000000" stroke-width="2" x1="19.5" x2="81.5" y1="64.5" y2="64.5" /><line fill="none" stroke="#000000" stroke-width="2" x1="19.5" x2="81.5" y1="53.5" y2="53.5" /><line fill="none" stroke="#000000" stroke-width="2" x1="18.5" x2="81.5" y1="21" y2="21" /><line fill="none" stroke="#000000" stroke-width="2" x1="50" x2="50" y1="11" y2="2" /><line fill="none" stroke="#000000" stroke-width="2" x1="50" x2="50" y1="21" y2="36" /><polyline fill="none" points="18.5,43.5 18.5,75.5 81.5,75.5 81.5,42.5 24,42.5" stroke="#000000" stroke-width="2" /><polyline fill="none" points="89.5,28 89.5,12 10.5,12 10.5,28" stroke="#000000" stroke-width="2" /><path d="M8,92 c13.08,-3.282 24.369,-7.771 31,-12" fill="none" stroke="#000000" stroke-width="2" /><path d="M92,93 c-7.982,-4.208 -19.018,-8.679 -31,-12.5" fill="none" stroke="#000000" stroke-width="2" /><path d="M9,39 c11.084,-3.834 20.375,-9.048 26,-14" fill="none" stroke="#000000" stroke-width="2" /><path d="M91,39 c-7.045,-4.8 -15.838,-9.69 -25.5,-14" fill="none" stroke="#000000" stroke-width="2" /><path d="M65,29.5 c-12.419,6.568 -30.816,12.001 -59,16" fill="none" stroke="#000000" stroke-width="2" /></svg>