<?xml version='1.0' encoding='utf-8'?>
<svg xmlns="http://www.w3.org/2000/svg" height="100px" version="1.0" viewBox="0 0 100 100" width="100px" x="0px" y="0px">
<line fill="none" stroke="#000000" stroke-width="2" x1="9.5" x2="30" y1="48" y2="48" /><line fill="none" stroke="#000000" stroke-width="2" x1="9.5" x2="30" y1="29" y2="29" /><line fill="none" stroke="#000000" stroke-width="2" x1="37" x2="96.5" y1="27.5" y2="27.5" /><line fill="none" stroke="#000000" stroke-width="2" x1="60" x2="60" y1="33.5" y2="85" /><line fill="none" stroke="#000000" stroke-width="2" x1="43.5" x2="43.5" y1="44" y2="89" /><line fill="none" stroke="#000000" stroke-width="2" x1="69.5" x2="41.5" y1="13.5" y2="13.5" /><line fill="none" stroke="#000000" stroke-width="2" x1="76" x2="60" y1="52.5" y2="52.5" /><polyline fill="none" points="9.5,67.5 31,67.5 31,10.5 8.5,10.5 8.5,68.5" stroke="#000000" stroke-width="2" /><path d="M4.5,92 c4.852,-4.872 9.363,-11.837 12,-18.5" fill="none" stroke="#000000" stroke-width="2" /><path d="M35,85.5 c-3.182,-3.965 -7.387,-8.021 -12,-11.5" fill="none" stroke="#000000" stroke-width="2" /><path d="M77,4.5 c0,59.849 10.627,86.5 15,86.5 c1.917,0 3.994,-2.614 5.5,-23" fill="none" stroke="#000000" stroke-width="2" /><path d="M82,8.5 c4.041,3.437 8.211,7.608 12,12" fill="none" stroke="#000000" stroke-width="2" /><path d="M35.5,90.5 c18.156,-3.317 33.804,-7.906 43,-12" fill="none" stroke="#000000" stroke-width="2" /></svg>