<?xml version='1.0' encoding='utf-8'?>
<svg xmlns="http://www.w3.org/2000/svg" height="100px" version="1.0" viewBox="0 0 100 100" width="100px" x="0px" y="0px">
<line fill="none" stroke="#000000" stroke-width="2" x1="50" x2="50" y1="11.5" y2="2.5" /><line fill="none" stroke="#000000" stroke-width="2" x1="7" x2="93" y1="40.5" y2="40.5" /><line fill="none" stroke="#000000" stroke-width="2" x1="16" x2="84" y1="31" y2="31" /><line fill="none" stroke="#000000" stroke-width="2" x1="15" x2="85" y1="21.5" y2="21.5" /><line fill="none" stroke="#000000" stroke-width="2" x1="36" x2="36" y1="40.5" y2="14.5" /><line fill="none" stroke="#000000" stroke-width="2" x1="64" x2="64" y1="40.5" y2="14.5" /><line fill="none" stroke="#000000" stroke-width="2" x1="80.5" x2="19.5" y1="51" y2="51" /><line fill="none" stroke="#000000" stroke-width="2" x1="19.5" x2="81.5" y1="70" y2="70" /><line fill="none" stroke="#000000" stroke-width="2" x1="19.5" x2="81.5" y1="60.5" y2="60.5" /><polyline fill="none" points="90,25 90,11.5 10,11.5 10,25" stroke="#000000" stroke-width="2" /><polyline fill="none" points="18.5,51.5 18.5,79.5 81.5,79.5 81.5,51.5" stroke="#000000" stroke-width="2" /><path d="M36,40.5 c-6.815,5.97 -16.99,11.493 -31,16" fill="none" stroke="#000000" stroke-width="2" /><path d="M8,93.5 c13.095,-2.804 24.369,-6.801 31,-10.5" fill="none" stroke="#000000" stroke-width="2" /><path d="M92,94 c-7.982,-3.702 -19.006,-7.679 -31,-11" fill="none" stroke="#000000" stroke-width="2" /><path d="M64,40.5 c6.815,5.97 16.99,11.493 31,16" fill="none" stroke="#000000" stroke-width="2" /></svg>