<?xml version='1.0' encoding='utf-8'?>
<svg xmlns="http://www.w3.org/2000/svg" height="100px" version="1.0" viewBox="0 0 100 100" width="100px" x="0px" y="0px">
<line fill="none" stroke="#000000" stroke-width="2" x1="22.5" x2="36.5" y1="54" y2="54" /><line fill="none" stroke="#000000" stroke-width="2" x1="22.5" x2="22.5" y1="84.5" y2="36" /><line fill="none" stroke="#000000" stroke-width="2" x1="11" x2="11" y1="89.5" y2="45" /><line fill="none" stroke="#000000" stroke-width="2" x1="93" x2="48" y1="19" y2="19" /><line fill="none" stroke="#000000" stroke-width="2" x1="95.5" x2="39" y1="46" y2="46" /><polyline fill="none" points="8.5,35 36.5,35 36.5,10 7.5,10 7.5,36" stroke="#000000" stroke-width="2" /><path d="M5,92 c10.431,-3.853 21.85,-8.979 33.5,-15" fill="none" stroke="#000000" stroke-width="2" /><path d="M39,40 c5.201,-9.067 9.465,-20.618 12,-33" fill="none" stroke="#000000" stroke-width="2" /><path d="M34,90 c19.949,-8.535 33,-27.166 33,-48.5 V5.0" fill="none" stroke="#000000" stroke-width="2" /><path d="M96,90 c-18.162,-8.825 -29,-26.903 -29,-48.5" fill="none" stroke="#000000" stroke-width="2" /></svg>