<?xml version='1.0' encoding='utf-8'?>
<svg xmlns="http://www.w3.org/2000/svg" height="100px" version="1.0" viewBox="0 0 100 100" width="100px" x="0px" y="0px">
<line fill="none" stroke="#000000" stroke-width="2" x1="25.5" x2="43.5" y1="54" y2="54" /><line fill="none" stroke="#000000" stroke-width="2" x1="25.5" x2="25.5" y1="84.5" y2="36" /><line fill="none" stroke="#000000" stroke-width="2" x1="12" x2="12" y1="90" y2="45" /><line fill="none" stroke="#000000" stroke-width="2" x1="95.5" x2="44" y1="12.5" y2="12.5" /><line fill="none" stroke="#000000" stroke-width="2" x1="52.5" x2="52.5" y1="93.5" y2="48" /><line fill="none" stroke="#000000" stroke-width="2" x1="52.5" x2="91" y1="86.5" y2="86.5" /><polyline fill="none" points="10,35 40.5,35 40.5,10 9,10 9,36" stroke="#000000" stroke-width="2" /><polyline fill="none" points="53,47.5 91,47.5 91,93.5" stroke="#000000" stroke-width="2" /><path d="M6,92 c11.833,-3.853 24.791,-8.97 38,-15" fill="none" stroke="#000000" stroke-width="2" /><path d="M38.5,67.5 c12.43,-11.827 19.943,-27.785 23.5,-55" fill="none" stroke="#000000" stroke-width="2" /></svg>