<?xml version='1.0' encoding='utf-8'?>
<svg xmlns="http://www.w3.org/2000/svg" height="100px" version="1.0" viewBox="0 0 100 100" width="100px" x="0px" y="0px">
<line fill="none" stroke="#000000" stroke-width="2" x1="20.5" x2="33" y1="53" y2="53" /><line fill="none" stroke="#000000" stroke-width="2" x1="20.5" x2="20.5" y1="85" y2="35" /><line fill="none" stroke="#000000" stroke-width="2" x1="9.5" x2="9.5" y1="90" y2="45" /><line fill="none" stroke="#000000" stroke-width="2" x1="56.5" x2="56.5" y1="11" y2="88" /><line fill="none" stroke="#000000" stroke-width="2" x1="74" x2="74" y1="11" y2="88" /><line fill="none" stroke="#000000" stroke-width="2" x1="32.5" x2="98" y1="46.5" y2="46.5" /><polyline fill="none" points="7.5,35 31.5,35 31.5,10 6.5,10 6.5,36" stroke="#000000" stroke-width="2" /><path d="M4.5,92 c8.873,-3.596 18.588,-8.381 28.5,-14" fill="none" stroke="#000000" stroke-width="2" /><path d="M80,88.5 c3.959,0.349 6.686,0.5 7.5,0.5 c3.619,0 4,-0.406 4,-4.5 V11.0 H39.0 v80.0" fill="none" stroke="#000000" stroke-width="2" /></svg>