<?xml version='1.0' encoding='utf-8'?>
<svg xmlns="http://www.w3.org/2000/svg" height="100px" version="1.0" viewBox="0 0 100 100" width="100px" x="0px" y="0px">
<line fill="none" stroke="#000000" stroke-width="2" x1="23" x2="39" y1="54" y2="54" /><line fill="none" stroke="#000000" stroke-width="2" x1="23" x2="23" y1="84.5" y2="36" /><line fill="none" stroke="#000000" stroke-width="2" x1="11.5" x2="11.5" y1="89.5" y2="45" /><line fill="none" stroke="#000000" stroke-width="2" x1="46.5" x2="88.5" y1="29" y2="29" /><polyline fill="none" points="9.5,35 37.5,35 37.5,10 8.5,10 8.5,36" stroke="#000000" stroke-width="2" /><polyline fill="none" points="46.5,49 89.5,49 89.5,10.5 45.5,10.5 45.5,89.5" stroke="#000000" stroke-width="2" /><path d="M5.5,92 c10.587,-3.853 22.182,-8.97 34,-15" fill="none" stroke="#000000" stroke-width="2" /><path d="M61.5,49 c5.864,18.978 19.003,34.684 35,42.5" fill="none" stroke="#000000" stroke-width="2" /><path d="M32,91.5 c13.719,-1.968 25.807,-4.552 40,-8.5" fill="none" stroke="#000000" stroke-width="2" /><path d="M73.246,72 c7.556,-5.439 15.311,-13.25 21.5,-21.5" fill="none" stroke="#000000" stroke-width="2" /></svg>