<?xml version='1.0' encoding='utf-8'?>
<svg xmlns="http://www.w3.org/2000/svg" height="100px" version="1.0" viewBox="0 0 100 100" width="100px" x="0px" y="0px">
<line fill="none" stroke="#000000" stroke-width="2" x1="22" x2="35.5" y1="55.5" y2="55.5" /><line fill="none" stroke="#000000" stroke-width="2" x1="22" x2="22" y1="84.5" y2="36" /><line fill="none" stroke="#000000" stroke-width="2" x1="11" x2="11" y1="89.5" y2="45" /><line fill="none" stroke="#000000" stroke-width="2" x1="96" x2="37" y1="29" y2="29" /><line fill="none" stroke="#000000" stroke-width="2" x1="40.5" x2="91.5" y1="10" y2="10" /><line fill="none" stroke="#000000" stroke-width="2" x1="65" x2="65" y1="93.5" y2="51.5" /><line fill="none" stroke="#000000" stroke-width="2" x1="96" x2="35.5" y1="60.5" y2="60.5" /><polyline fill="none" points="8.5,35 32.5,35 32.5,10 7.5,10 7.5,36" stroke="#000000" stroke-width="2" /><path d="M5,92 c10.119,-3.853 21.197,-8.979 32.5,-15" fill="none" stroke="#000000" stroke-width="2" /><path d="M34,51 c12.166,-5.356 23.365,-12.772 33.5,-22" fill="none" stroke="#000000" stroke-width="2" /><path d="M47.5,14.5 c6.938,3.989 14.219,8.916 21.5,14.5" fill="none" stroke="#000000" stroke-width="2" /><path d="M95.237,29.353 c-5.062,5.966 -11.009,11.096 -18.237,15.647" fill="none" stroke="#000000" stroke-width="2" /><path d="M32.5,89.5 c13.26,-7.058 24.285,-17.337 31.5,-29" fill="none" stroke="#000000" stroke-width="2" /><path d="M97.5,89.5 c-13.26,-7.059 -24.285,-17.337 -31.5,-29" fill="none" stroke="#000000" stroke-width="2" /><path d="M68.5,29 v17.25 c0,4.321 -0.873,5.25 -5.5,5.25 c-2.076,0 -6.381,-0.167 -11.5,-0.5" fill="none" stroke="#000000" stroke-width="2" /><path d="M90.901,10.199 c-8.121,6.065 -16.763,11.038 -26.901,15.301" fill="none" stroke="#000000" stroke-width="2" /></svg>