<?xml version='1.0' encoding='utf-8'?>
<svg xmlns="http://www.w3.org/2000/svg" height="100px" version="1.0" viewBox="0 0 100 100" width="100px" x="0px" y="0px">
<line fill="none" stroke="#000000" stroke-width="2" x1="20.5" x2="33" y1="53" y2="53" /><line fill="none" stroke="#000000" stroke-width="2" x1="20.5" x2="20.5" y1="85" y2="35" /><line fill="none" stroke="#000000" stroke-width="2" x1="9.5" x2="9.5" y1="90" y2="45" /><line fill="none" stroke="#000000" stroke-width="2" x1="96" x2="65.5" y1="26" y2="26" /><line fill="none" stroke="#000000" stroke-width="2" x1="50.5" x2="50.5" y1="17" y2="5" /><line fill="none" stroke="#000000" stroke-width="2" x1="34" x2="67" y1="17" y2="17" /><polyline fill="none" points="7.5,35 30.5,35 30.5,10 6.5,10 6.5,36" stroke="#000000" stroke-width="2" /><polyline fill="none" points="39.5,52 62.5,52 62.5,28 38.5,28 38.5,53" stroke="#000000" stroke-width="2" /><path d="M4.5,92 c8.873,-3.596 18.588,-8.381 28.5,-14" fill="none" stroke="#000000" stroke-width="2" /><path d="M85.5,4 c2.868,5.278 5.297,10.144 8,16" fill="none" stroke="#000000" stroke-width="2" /><path d="M60,91 c11.096,-11.968 18.5,-34.179 18.5,-62 v-23.0" fill="none" stroke="#000000" stroke-width="2" /><path d="M82,35 v51.0 c0,4.558 0.488,5 6,5 c7.482,0 7.661,-0.185 8,-29" fill="none" stroke="#000000" stroke-width="2" /><path d="M51,52 v31.5 c0,6.974 -0.473,7.5 -4,7.5 c-1.533,0 -4.102,-0.144 -7.5,-0.5" fill="none" stroke="#000000" stroke-width="2" /><path d="M33.5,84 c3.969,-6.359 7.713,-15.505 10,-25" fill="none" stroke="#000000" stroke-width="2" /><path d="M65,77.5 c-2.298,-6.824 -5.074,-13.476 -8,-19" fill="none" stroke="#000000" stroke-width="2" /></svg>