<?xml version='1.0' encoding='utf-8'?>
<svg xmlns="http://www.w3.org/2000/svg" height="100px" version="1.0" viewBox="0 0 100 100" width="100px" x="0px" y="0px">
<line fill="none" stroke="#000000" stroke-width="2" x1="13" x2="43" y1="47.5" y2="47.5" /><line fill="none" stroke="#000000" stroke-width="2" x1="13" x2="43" y1="32" y2="32" /><path d="M30,4 c-1.086,4.979 -2.4,9.368 -4,13.5" fill="none" stroke="#000000" stroke-width="2" /><path d="M4,89.5 c21.772,-11.42 38.143,-26.199 48.5,-43" fill="none" stroke="#000000" stroke-width="2" /><path d="M3.5,65 c17.063,-1.497 30.281,-3.728 40.5,-6.5" fill="none" stroke="#000000" stroke-width="2" /><path d="M25.5,91 c5.811,0.331 10.646,0.5 12.5,0.5 c5.314,0 6,-0.643 6,-9 v-65.0 h-32.0 v46.5" fill="none" stroke="#000000" stroke-width="2" /><path d="M52.5,12 h38.5 v23.0 h-32.5 c-0.994,11.548 -2.711,22.38 -5,32" fill="none" stroke="#000000" stroke-width="2" /><path d="M55.5,57.5 h36.0 c-2.889,31.542 -4.65,34 -11.5,34 c-3.624,0 -12.438,-0.451 -19.5,-1" fill="none" stroke="#000000" stroke-width="2" /></svg>