<?xml version='1.0' encoding='utf-8'?>
<svg xmlns="http://www.w3.org/2000/svg" height="100px" version="1.0" viewBox="0 0 100 100" width="100px" x="0px" y="0px">
<line fill="none" stroke="#000000" stroke-width="2" x1="12.5" x2="42.5" y1="47.5" y2="47.5" /><line fill="none" stroke="#000000" stroke-width="2" x1="12.5" x2="42.5" y1="32" y2="32" /><line fill="none" stroke="#000000" stroke-width="2" x1="52" x2="95" y1="85.5" y2="85.5" /><polyline fill="none" points="94.5,12.5 52,12.5 52,93.5" stroke="#000000" stroke-width="2" /><path d="M29.5,4 c-1.086,4.979 -2.4,9.368 -4,13.5" fill="none" stroke="#000000" stroke-width="2" /><path d="M3.5,89.5 c21.772,-11.42 38.143,-26.199 48.5,-43" fill="none" stroke="#000000" stroke-width="2" /><path d="M3,65 c17.063,-1.497 30.281,-3.728 40.5,-6.5" fill="none" stroke="#000000" stroke-width="2" /><path d="M25,91 c5.811,0.331 10.646,0.5 12.5,0.5 c5.314,0 6,-0.643 6,-9 v-65.0 h-32.0 v46.5" fill="none" stroke="#000000" stroke-width="2" /><path d="M57,78.5 c12.475,-12.376 25.043,-35.519 31,-59" fill="none" stroke="#000000" stroke-width="2" /><path d="M59.5,25.5 c13.107,15.608 21.994,30.085 31,50" fill="none" stroke="#000000" stroke-width="2" /></svg>