<?xml version='1.0' encoding='utf-8'?>
<svg xmlns="http://www.w3.org/2000/svg" height="100px" version="1.0" viewBox="0 0 100 100" width="100px" x="0px" y="0px">
<line fill="none" stroke="#000000" stroke-width="2" x1="10.5" x2="37.5" y1="47.5" y2="47.5" /><line fill="none" stroke="#000000" stroke-width="2" x1="10.5" x2="37.5" y1="32" y2="32" /><line fill="none" stroke="#000000" stroke-width="2" x1="87.5" x2="51.5" y1="73" y2="73" /><line fill="none" stroke="#000000" stroke-width="2" x1="70.5" x2="70.5" y1="94" y2="6" /><line fill="none" stroke="#000000" stroke-width="2" x1="97" x2="43.5" y1="25.5" y2="25.5" /><path d="M25.5,4 c-1.086,4.979 -2.4,9.368 -4,13.5" fill="none" stroke="#000000" stroke-width="2" /><path d="M3.5,89.5 c18.289,-11.42 32.301,-26.199 41,-43" fill="none" stroke="#000000" stroke-width="2" /><path d="M3,65 c14.333,-1.497 25.902,-3.772 34.5,-6.5" fill="none" stroke="#000000" stroke-width="2" /><path d="M20,91 c5.418,0.331 10.271,0.5 12,0.5 c4.956,0 5.5,-0.643 5.5,-9 v-65.0 h-28.0 V64.0" fill="none" stroke="#000000" stroke-width="2" /><path d="M40.5,78 c13.871,-17.218 23.914,-35.462 29,-52.5" fill="none" stroke="#000000" stroke-width="2" /><path d="M97.5,78 c-12.316,-17.468 -21.361,-35.827 -26,-53" fill="none" stroke="#000000" stroke-width="2" /></svg>