<?xml version='1.0' encoding='utf-8'?>
<svg xmlns="http://www.w3.org/2000/svg" height="100px" version="1.0" viewBox="0 0 100 100" width="100px" x="0px" y="0px">
<line fill="none" stroke="#000000" stroke-width="2" x1="9" x2="38" y1="47" y2="47" /><line fill="none" stroke="#000000" stroke-width="2" x1="4" x2="42.5" y1="78" y2="78" /><line fill="none" stroke="#000000" stroke-width="2" x1="23.5" x2="23.5" y1="95" y2="5" /><line fill="none" stroke="#000000" stroke-width="2" x1="4" x2="42.5" y1="17" y2="17" /><line fill="none" stroke="#000000" stroke-width="2" x1="93" x2="52" y1="20" y2="20" /><line fill="none" stroke="#000000" stroke-width="2" x1="95.5" x2="43" y1="47" y2="47" /><polyline fill="none" points="9,65 39,65 39,30 8,30 8,66" stroke="#000000" stroke-width="2" /><path d="M43,41 c5.201,-9.067 9.465,-20.618 12,-33" fill="none" stroke="#000000" stroke-width="2" /><path d="M38,91 c18.662,-8.535 31,-27.166 31,-48.5 V6.0" fill="none" stroke="#000000" stroke-width="2" /><path d="M96,91 C79.166,81.879 69,64.097 69,42.5" fill="none" stroke="#000000" stroke-width="2" /></svg>