<?xml version='1.0' encoding='utf-8'?>
<svg xmlns="http://www.w3.org/2000/svg" height="100px" version="1.0" viewBox="0 0 100 100" width="100px" x="0px" y="0px">
<line fill="none" stroke="#000000" stroke-width="2" x1="9" x2="38" y1="47" y2="47" /><line fill="none" stroke="#000000" stroke-width="2" x1="4" x2="42.5" y1="78" y2="78" /><line fill="none" stroke="#000000" stroke-width="2" x1="23.5" x2="23.5" y1="95" y2="5" /><line fill="none" stroke="#000000" stroke-width="2" x1="4" x2="42.5" y1="17" y2="17" /><line fill="none" stroke="#000000" stroke-width="2" x1="42.5" x2="93.5" y1="12" y2="12" /><line fill="none" stroke="#000000" stroke-width="2" x1="92.5" x2="44.5" y1="61.5" y2="61.5" /><line fill="none" stroke="#000000" stroke-width="2" x1="96" x2="39.5" y1="88.5" y2="88.5" /><line fill="none" stroke="#000000" stroke-width="2" x1="68.5" x2="68.5" y1="88.5" y2="46" /><polyline fill="none" points="9,65 39,65 39,30 8,30 8,66" stroke="#000000" stroke-width="2" /><path d="M94.5,49 c-4.227,-8.726 -10.68,-19.695 -16.5,-28" fill="none" stroke="#000000" stroke-width="2" /><path d="M44,43.5 c13.152,-1.29 28.458,-3.927 43.5,-7.5" fill="none" stroke="#000000" stroke-width="2" /><path d="M51,42.5 c4.18,-9.094 8.102,-19.003 12,-30.5" fill="none" stroke="#000000" stroke-width="2" /></svg>