<?xml version='1.0' encoding='utf-8'?>
<svg xmlns="http://www.w3.org/2000/svg" height="100px" version="1.0" viewBox="0 0 100 100" width="100px" x="0px" y="0px">
<line fill="none" stroke="#000000" stroke-width="2" x1="43.5" x2="43.5" y1="10.5" y2="81" /><line fill="none" stroke="#000000" stroke-width="2" x1="65" x2="65" y1="95" y2="10.5" /><line fill="none" stroke="#000000" stroke-width="2" x1="97" x2="37" y1="10.5" y2="10.5" /><line fill="none" stroke="#000000" stroke-width="2" x1="44.5" x2="65" y1="56" y2="56" /><line fill="none" stroke="#000000" stroke-width="2" x1="44.5" x2="65" y1="32.5" y2="32.5" /><line fill="none" stroke="#000000" stroke-width="2" x1="65" x2="95.5" y1="25.5" y2="25.5" /><line fill="none" stroke="#000000" stroke-width="2" x1="8" x2="34" y1="47" y2="47" /><line fill="none" stroke="#000000" stroke-width="2" x1="3" x2="37.5" y1="78" y2="78" /><line fill="none" stroke="#000000" stroke-width="2" x1="21" x2="21" y1="95" y2="5" /><line fill="none" stroke="#000000" stroke-width="2" x1="3" x2="37.5" y1="17" y2="17" /><polyline fill="none" points="8,65 35,65 35,30 7,30 7,66" stroke="#000000" stroke-width="2" /><path d="M37,82 c8.753,-1.308 18.584,-3.407 28,-6" fill="none" stroke="#000000" stroke-width="2" /><path d="M68.5,93 c12.213,-11.991 21.65,-33.811 26.009,-66.632" fill="none" stroke="#000000" stroke-width="2" /><path d="M96.5,93 c-12.762,-12.81 -21.268,-32.31 -25,-62.5" fill="none" stroke="#000000" stroke-width="2" /></svg>