<?xml version='1.0' encoding='utf-8'?>
<svg xmlns="http://www.w3.org/2000/svg" height="100px" version="1.0" viewBox="0 0 100 100" width="100px" x="0px" y="0px">
<line fill="none" stroke="#000000" stroke-width="2" x1="38" x2="63.5" y1="50" y2="50" /><line fill="none" stroke="#000000" stroke-width="2" x1="36" x2="63.5" y1="10" y2="10" /><line fill="none" stroke="#000000" stroke-width="2" x1="66" x2="95" y1="10" y2="10" /><line fill="none" stroke="#000000" stroke-width="2" x1="66" x2="95" y1="50" y2="50" /><line fill="none" stroke="#000000" stroke-width="2" x1="8" x2="34" y1="47" y2="47" /><line fill="none" stroke="#000000" stroke-width="2" x1="3" x2="37.5" y1="78" y2="78" /><line fill="none" stroke="#000000" stroke-width="2" x1="21" x2="21" y1="95" y2="5" /><line fill="none" stroke="#000000" stroke-width="2" x1="3" x2="37.5" y1="17" y2="17" /><polyline fill="none" points="8,65 35,65 35,30 7,30 7,66" stroke="#000000" stroke-width="2" /><path d="M64.5,38.5 c-7.18,-8.479 -16.453,-16.809 -24.5,-22" fill="none" stroke="#000000" stroke-width="2" /><path d="M33.5,91 c14.594,-6.545 25.822,-21.621 29.015,-40.17" fill="none" stroke="#000000" stroke-width="2" /><path d="M64.5,82.5 c-7.217,-9.856 -16.52,-19.533 -24.5,-25.5" fill="none" stroke="#000000" stroke-width="2" /><path d="M37.5,45 c12.48,-6.117 21.854,-18.797 25.021,-34.202" fill="none" stroke="#000000" stroke-width="2" /><path d="M63.5,45 c15.451,-5.875 26.539,-18.273 30.529,-34.243" fill="none" stroke="#000000" stroke-width="2" /><path d="M59.5,91 c17.677,-6.203 30.611,-21.387 34.521,-40.203" fill="none" stroke="#000000" stroke-width="2" /><path d="M96.5,45 c-14.543,-6.261 -23.854,-16.762 -27,-31" fill="none" stroke="#000000" stroke-width="2" /><path d="M96.5,91 c-14.152,-7.2 -23.756,-19.956 -27,-37" fill="none" stroke="#000000" stroke-width="2" /></svg>