<?xml version='1.0' encoding='utf-8'?>
<svg xmlns="http://www.w3.org/2000/svg" height="100px" version="1.0" viewBox="0 0 100 100" width="100px" x="0px" y="0px">
<line fill="none" stroke="#000000" stroke-width="2" x1="7.5" x2="33.5" y1="47" y2="47" /><line fill="none" stroke="#000000" stroke-width="2" x1="2.5" x2="37" y1="78" y2="78" /><line fill="none" stroke="#000000" stroke-width="2" x1="20.5" x2="20.5" y1="95" y2="5" /><line fill="none" stroke="#000000" stroke-width="2" x1="2.5" x2="37" y1="17" y2="17" /><line fill="none" stroke="#000000" stroke-width="2" x1="67" x2="67" y1="46.5" y2="10" /><line fill="none" stroke="#000000" stroke-width="2" x1="41" x2="93" y1="10" y2="10" /><line fill="none" stroke="#000000" stroke-width="2" x1="46" x2="60.5" y1="30" y2="30" /><line fill="none" stroke="#000000" stroke-width="2" x1="46" x2="60.5" y1="40.5" y2="40.5" /><line fill="none" stroke="#000000" stroke-width="2" x1="73.5" x2="88" y1="30" y2="30" /><line fill="none" stroke="#000000" stroke-width="2" x1="73.5" x2="88" y1="40.5" y2="40.5" /><line fill="none" stroke="#000000" stroke-width="2" x1="95.5" x2="38.5" y1="50.5" y2="50.5" /><line fill="none" stroke="#000000" stroke-width="2" x1="58.5" x2="58.5" y1="61.5" y2="90.5" /><line fill="none" stroke="#000000" stroke-width="2" x1="75.5" x2="75.5" y1="61.5" y2="90.5" /><polyline fill="none" points="7.5,65 34.5,65 34.5,30 6.5,30 6.5,66" stroke="#000000" stroke-width="2" /><polyline fill="none" points="94,40.5 94,21 40,21 40,40.5" stroke="#000000" stroke-width="2" /><path d="M80,90.5 c4.289,0.366 7.348,0.5 8.5,0.5 c3.65,0 4,-0.396 4,-6 V61.5 h-51.0 v31.0" fill="none" stroke="#000000" stroke-width="2" /><path d="M67.5,50.5 c-1.285,4.079 -2.926,7.679 -5,11" fill="none" stroke="#000000" stroke-width="2" /></svg>