<?xml version='1.0' encoding='utf-8'?>
<svg xmlns="http://www.w3.org/2000/svg" height="100px" version="1.0" viewBox="0 0 100 100" width="100px" x="0px" y="0px">
<line fill="none" stroke="#000000" stroke-width="2" x1="8" x2="32" y1="47" y2="47" /><line fill="none" stroke="#000000" stroke-width="2" x1="3" x2="35.5" y1="78" y2="78" /><line fill="none" stroke="#000000" stroke-width="2" x1="20" x2="20" y1="95" y2="5" /><line fill="none" stroke="#000000" stroke-width="2" x1="3" x2="35.5" y1="17" y2="17" /><line fill="none" stroke="#000000" stroke-width="2" x1="57" x2="74" y1="32.5" y2="32.5" /><line fill="none" stroke="#000000" stroke-width="2" x1="95.5" x2="36" y1="62" y2="62" /><line fill="none" stroke="#000000" stroke-width="2" x1="65" x2="65" y1="94" y2="51.5" /><line fill="none" stroke="#000000" stroke-width="2" x1="53.5" x2="33.5" y1="48.5" y2="51.5" /><line fill="none" stroke="#000000" stroke-width="2" x1="95.5" x2="76" y1="48.5" y2="51.5" /><polyline fill="none" points="8,65 33,65 33,30 7,30 7,66" stroke="#000000" stroke-width="2" /><polyline fill="none" points="57,51.5 74,51.5 74,15.5 56,15.5 56,52.5" stroke="#000000" stroke-width="2" /><path d="M67,4 c-1.16,4.222 -2.449,7.964 -4,11.5" fill="none" stroke="#000000" stroke-width="2" /><path d="M31.5,91 c16.048,-9.321 26.46,-18.798 33,-29" fill="none" stroke="#000000" stroke-width="2" /><path d="M96.5,91 c-15.053,-9.366 -24.857,-18.798 -31,-29" fill="none" stroke="#000000" stroke-width="2" /><path d="M36,24.5 c2.973,-5.858 5.6,-11.737 8,-18" fill="none" stroke="#000000" stroke-width="2" /><path d="M43.5,37 c-2.936,-5.331 -6.751,-12.003 -10,-17.5" fill="none" stroke="#000000" stroke-width="2" /><path d="M36,51.5 c5.99,-11.231 11.847,-23.937 16.5,-36.5" fill="none" stroke="#000000" stroke-width="2" /><path d="M55,56.5 c-1.43,-7.474 -3.59,-17.114 -5.5,-24.5" fill="none" stroke="#000000" stroke-width="2" /><path d="M78,24.5 c2.973,-5.858 5.6,-11.737 8,-18" fill="none" stroke="#000000" stroke-width="2" /><path d="M85.5,37 c-2.936,-5.331 -6.751,-12.003 -10,-17.5" fill="none" stroke="#000000" stroke-width="2" /><path d="M78,51.5 c5.99,-11.231 11.847,-23.937 16.5,-36.5" fill="none" stroke="#000000" stroke-width="2" /><path d="M97,56.5 c-1.43,-7.474 -3.59,-17.114 -5.5,-24.5" fill="none" stroke="#000000" stroke-width="2" /></svg>