<?xml version='1.0' encoding='utf-8'?>
<svg xmlns="http://www.w3.org/2000/svg" height="100px" version="1.0" viewBox="0 0 100 100" width="100px" x="0px" y="0px">
<line fill="none" stroke="#000000" stroke-width="2" x1="89" x2="41" y1="20.5" y2="20.5" /><line fill="none" stroke="#000000" stroke-width="2" x1="91" x2="32" y1="44" y2="44" /><polyline fill="none" points="23,75 23,45 6,45" stroke="#000000" stroke-width="2" /><path d="M9,10 c5.725,5.621 10.574,10.782 16,17" fill="none" stroke="#000000" stroke-width="2" /><path d="M6,92 c8.029,-5.713 13.36,-11.114 17,-17" fill="none" stroke="#000000" stroke-width="2" /><path d="M93,90 h-34.0 c-21.543,0 -30.148,-3.961 -36,-15" fill="none" stroke="#000000" stroke-width="2" /><path d="M32,35.5 c5.615,-7.441 10.215,-16.878 13,-27" fill="none" stroke="#000000" stroke-width="2" /><path d="M33,79 c18.136,-7.039 30,-22.405 30,-40 v-33.5" fill="none" stroke="#000000" stroke-width="2" /><path d="M92,79 c-18.162,-7.278 -29,-22.188 -29,-40" fill="none" stroke="#000000" stroke-width="2" /></svg>