<?xml version='1.0' encoding='utf-8'?>
<svg xmlns="http://www.w3.org/2000/svg" height="100px" version="1.0" viewBox="0 0 100 100" width="100px" x="0px" y="0px">
<line fill="none" stroke="#000000" stroke-width="2" x1="28.5" x2="93" y1="74" y2="74" /><line fill="none" stroke="#000000" stroke-width="2" x1="27" x2="93" y1="10.5" y2="10.5" /><polyline fill="none" points="23,75 23,45 6,45" stroke="#000000" stroke-width="2" /><polyline fill="none" points="36.5,45.5 36.5,23 86.5,23 86.5,44.5 37.5,44.5" stroke="#000000" stroke-width="2" /><path d="M9,10 c5.725,5.621 10.574,10.782 16,17" fill="none" stroke="#000000" stroke-width="2" /><path d="M6,92 c8.029,-5.713 13.36,-11.114 17,-17" fill="none" stroke="#000000" stroke-width="2" /><path d="M93,90 h-34.0 c-21.543,0 -30.148,-3.961 -36,-15" fill="none" stroke="#000000" stroke-width="2" /><path d="M67,74 c5.482,-6.811 10.152,-15.401 13,-24.5" fill="none" stroke="#000000" stroke-width="2" /><path d="M52,70 c-2.643,-6.784 -5.918,-13.917 -9.5,-20.5" fill="none" stroke="#000000" stroke-width="2" /></svg>