<?xml version='1.0' encoding='utf-8'?>
<svg xmlns="http://www.w3.org/2000/svg" height="100px" version="1.0" viewBox="0 0 100 100" width="100px" x="0px" y="0px">
<line fill="none" stroke="#000000" stroke-width="2" x1="57.5" x2="28" y1="22.5" y2="22.5" /><line fill="none" stroke="#000000" stroke-width="2" x1="62.5" x2="93.5" y1="33" y2="33" /><line fill="none" stroke="#000000" stroke-width="2" x1="83" x2="83" y1="81.5" y2="33" /><polyline fill="none" points="22,75 22,45 5,45" stroke="#000000" stroke-width="2" /><path d="M7.5,10 c5.725,5.621 10.574,10.782 16,17" fill="none" stroke="#000000" stroke-width="2" /><path d="M5,92 c8.029,-5.713 13.36,-11.114 17,-17" fill="none" stroke="#000000" stroke-width="2" /><path d="M93.5,90 H58.0 c-21.543,0 -30.148,-3.961 -36,-15" fill="none" stroke="#000000" stroke-width="2" /><path d="M43,5 v68.0 c0,6.258 -0.255,6.5 -4.5,6.5 c-2.098,0 -4.953,-0.15 -9,-0.5" fill="none" stroke="#000000" stroke-width="2" /><path d="M57.5,44 c-9.962,4.476 -19.486,7.758 -29,10" fill="none" stroke="#000000" stroke-width="2" /><path d="M62.092,12.998 c11.434,-1.062 20.658,-3.326 27.908,-6.498" fill="none" stroke="#000000" stroke-width="2" /><path d="M51,79.5 c8.6,-12.449 12,-26.514 12,-67.5" fill="none" stroke="#000000" stroke-width="2" /></svg>