<?xml version='1.0' encoding='utf-8'?>
<svg xmlns="http://www.w3.org/2000/svg" height="100px" version="1.0" viewBox="0 0 100 100" width="100px" x="0px" y="0px">
<line fill="none" stroke="#000000" stroke-width="2" x1="91" x2="49" y1="49" y2="52.5" /><line fill="none" stroke="#000000" stroke-width="2" x1="72" x2="72" y1="50.5" y2="83.5" /><line fill="none" stroke="#000000" stroke-width="2" x1="26.5" x2="55.5" y1="47" y2="40" /><line fill="none" stroke="#000000" stroke-width="2" x1="55" x2="27" y1="10.5" y2="10.5" /><polyline fill="none" points="22,75 22,45 5,45" stroke="#000000" stroke-width="2" /><path d="M7.5,10 c5.725,5.621 10.574,10.782 16,17" fill="none" stroke="#000000" stroke-width="2" /><path d="M5,92 c8.029,-5.713 13.36,-11.114 17,-17" fill="none" stroke="#000000" stroke-width="2" /><path d="M93.5,90 H58.0 c-21.543,0 -30.148,-3.961 -36,-15" fill="none" stroke="#000000" stroke-width="2" /><path d="M67,45.5 c-4.064,-6.114 -9.848,-14.306 -14.5,-20.5" fill="none" stroke="#000000" stroke-width="2" /><path d="M61.5,51.5 c9.49,-10.612 17.119,-20.101 25,-31" fill="none" stroke="#000000" stroke-width="2" /><path d="M58,32.5 c5.756,-6.644 10.734,-13.077 15.5,-20" fill="none" stroke="#000000" stroke-width="2" /><path d="M49.5,79 c6.432,-6.312 11.611,-13.053 15.5,-20" fill="none" stroke="#000000" stroke-width="2" /><path d="M94.5,58 c-2.793,-7.271 -6.7,-16.603 -10,-24" fill="none" stroke="#000000" stroke-width="2" /><path d="M93.5,80 c-4.33,-6.845 -9.514,-13.902 -15.5,-21" fill="none" stroke="#000000" stroke-width="2" /><path d="M57,13.5 c12.887,0 25.145,-1.82 35,-5" fill="none" stroke="#000000" stroke-width="2" /><path d="M40.5,27.5 v47.0 c0,5.565 -0.412,6 -3.5,6 c-1.582,0 -3.803,-0.139 -6.5,-0.5" fill="none" stroke="#000000" stroke-width="2" /><path d="M54.131,11.007 c-4.086,7.195 -8.279,12.702 -13.631,17.993" fill="none" stroke="#000000" stroke-width="2" /></svg>