<?xml version='1.0' encoding='utf-8'?>
<svg xmlns="http://www.w3.org/2000/svg" height="100px" version="1.0" viewBox="0 0 100 100" width="100px" x="0px" y="0px">
<line fill="none" stroke="#000000" stroke-width="2" x1="28" x2="63.5" y1="23.5" y2="23.5" /><line fill="none" stroke="#000000" stroke-width="2" x1="32.5" x2="32.5" y1="30.5" y2="64" /><line fill="none" stroke="#000000" stroke-width="2" x1="59.5" x2="59.5" y1="60" y2="30" /><line fill="none" stroke="#000000" stroke-width="2" x1="32.5" x2="59.5" y1="55" y2="55" /><line fill="none" stroke="#000000" stroke-width="2" x1="67" x2="91.5" y1="52" y2="52" /><line fill="none" stroke="#000000" stroke-width="2" x1="68.5" x2="91.5" y1="30" y2="30" /><polyline fill="none" points="22,75 22,45 5,45" stroke="#000000" stroke-width="2" /><path d="M7.5,10 c5.725,5.621 10.574,10.782 16,17" fill="none" stroke="#000000" stroke-width="2" /><path d="M5,92 c8.029,-5.713 13.36,-11.114 17,-17" fill="none" stroke="#000000" stroke-width="2" /><path d="M93.5,90 H58.0 c-21.543,0 -30.148,-3.961 -36,-15" fill="none" stroke="#000000" stroke-width="2" /><path d="M41.5,20.5 c-2.701,-4.804 -5.645,-9.509 -8.5,-13.5" fill="none" stroke="#000000" stroke-width="2" /><path d="M50.5,23.5 c3.211,-5.603 6.254,-11.718 8.5,-17" fill="none" stroke="#000000" stroke-width="2" /><path d="M33,80.5 c10.384,-8.792 13.5,-16.308 13.5,-37 v-20.0" fill="none" stroke="#000000" stroke-width="2" /><path d="M58.5,81 c6.149,-9.371 9,-20.503 9,-40.5 v-31.0 h24.0 v63.0 c0,6.687 -0.275,7 -5,7 c-1.819,0 -5.607,-0.137 -11,-0.5" fill="none" stroke="#000000" stroke-width="2" /></svg>