<?xml version='1.0' encoding='utf-8'?>
<svg xmlns="http://www.w3.org/2000/svg" height="100px" version="1.0" viewBox="0 0 100 100" width="100px" x="0px" y="0px">
<line fill="none" stroke="#000000" stroke-width="2" x1="27" x2="94" y1="14" y2="14" /><line fill="none" stroke="#000000" stroke-width="2" x1="79" x2="42" y1="33.5" y2="33.5" /><line fill="none" stroke="#000000" stroke-width="2" x1="42.5" x2="79.5" y1="46.5" y2="46.5" /><polyline fill="none" points="41.5,34 41.5,60 79.5,60 79.5,34" stroke="#000000" stroke-width="2" /><polyline fill="none" points="21.5,75 21.5,45 4.5,45" stroke="#000000" stroke-width="2" /><path d="M96,45.5 c-14.1,-7.253 -25.777,-19.212 -31,-31.5" fill="none" stroke="#000000" stroke-width="2" /><path d="M25,45.5 c16.862,-8.634 32.739,-26.472 37,-41" fill="none" stroke="#000000" stroke-width="2" /><path d="M89.5,17.5 c-3.731,4.673 -8.748,9.488 -13.5,13" fill="none" stroke="#000000" stroke-width="2" /><path d="M45,30.5 c-4.133,-4.573 -8.766,-9.032 -13.5,-13" fill="none" stroke="#000000" stroke-width="2" /><path d="M29,79.5 c8.041,-3.621 15.333,-9.021 20,-14.5" fill="none" stroke="#000000" stroke-width="2" /><path d="M96,80 c-5.764,-5.368 -12.706,-10.62 -20,-15" fill="none" stroke="#000000" stroke-width="2" /><path d="M63.5,60 v17.0 c0,4.855 -0.594,5.5 -6.5,5.5 c-2.654,0 -6.986,-0.153 -12.5,-0.5" fill="none" stroke="#000000" stroke-width="2" /><path d="M7,10 c5.725,5.621 10.574,10.782 16,17" fill="none" stroke="#000000" stroke-width="2" /><path d="M4.5,92 c8.029,-5.713 13.36,-11.114 17,-17" fill="none" stroke="#000000" stroke-width="2" /><path d="M94,90 h-36.5 c-21.543,0 -30.148,-3.961 -36,-15" fill="none" stroke="#000000" stroke-width="2" /></svg>