<?xml version='1.0' encoding='utf-8'?>
<svg xmlns="http://www.w3.org/2000/svg" height="100px" version="1.0" viewBox="0 0 100 100" width="100px" x="0px" y="0px">
<line fill="none" stroke="#000000" stroke-width="2" x1="7" x2="57" y1="88" y2="88" /><line fill="none" stroke="#000000" stroke-width="2" x1="12.5" x2="58" y1="39" y2="39" /><line fill="none" stroke="#000000" stroke-width="2" x1="11.5" x2="11.5" y1="75.5" y2="13.5" /><polyline fill="none" points="96,10 66.5,10 66.5,93" stroke="#000000" stroke-width="2" /><path d="M10.5,14.5 c14.072,0 29.492,-2.44 42,-6.5" fill="none" stroke="#000000" stroke-width="2" /><path d="M3.5,78 c11.082,-2.812 20.543,-6.347 32,-12" fill="none" stroke="#000000" stroke-width="2" /><path d="M35.5,12.5 c0,42.911 11.533,65.5 18.5,65.5 c1.863,0 4.313,-4.024 5.5,-18.5" fill="none" stroke="#000000" stroke-width="2" /><path d="M74,81 h6.0 c10.607,0 15.5,-4.166 15.5,-13 c0,-10.241 -5.379,-20.147 -16,-27.5 c6.075,-9.587 11.531,-20.068 15.576,-29.881" fill="none" stroke="#000000" stroke-width="2" /></svg>