<?xml version='1.0' encoding='utf-8'?>
<svg xmlns="http://www.w3.org/2000/svg" height="100px" version="1.0" viewBox="0 0 100 100" width="100px" x="0px" y="0px">
<line fill="none" stroke="#000000" stroke-width="2" x1="56" x2="5" y1="16" y2="16" /><line fill="none" stroke="#000000" stroke-width="2" x1="15.5" x2="15.5" y1="93" y2="34" /><line fill="none" stroke="#000000" stroke-width="2" x1="15.5" x2="49.5" y1="70" y2="70" /><line fill="none" stroke="#000000" stroke-width="2" x1="16.5" x2="49.5" y1="51.5" y2="51.5" /><polyline fill="none" points="95.5,10 61,10 61,93" stroke="#000000" stroke-width="2" /><path d="M2.5,50.5 c11.588,-11.392 19.448,-25.579 24.5,-46" fill="none" stroke="#000000" stroke-width="2" /><path d="M16,33.5 h33.5 v53.46 c0,4.178 -0.381,4.54 -6,4.54 c-2.174,0 -5.705,-0.159 -12,-0.5" fill="none" stroke="#000000" stroke-width="2" /><path d="M70.5,81 h9.0 c10.607,0 15.5,-4.166 15.5,-13 c0,-10.241 -5.379,-20.147 -16,-27.5 c6.075,-9.587 11.531,-20.068 15.576,-29.881" fill="none" stroke="#000000" stroke-width="2" /></svg>