<?xml version='1.0' encoding='utf-8'?>
<svg xmlns="http://www.w3.org/2000/svg" height="100px" version="1.0" viewBox="0 0 100 100" width="100px" x="0px" y="0px">
<line fill="none" stroke="#000000" stroke-width="2" x1="62" x2="4" y1="54.5" y2="54.5" /><line fill="none" stroke="#000000" stroke-width="2" x1="55.5" x2="10.5" y1="41.5" y2="41.5" /><polyline fill="none" points="96,10 66.5,10 66.5,93" stroke="#000000" stroke-width="2" /><polyline fill="none" points="9,30 29.5,30 29.5,10 8,10 8,31" stroke="#000000" stroke-width="2" /><polyline fill="none" points="37.5,30 58,30 58,10 36.5,10 36.5,31" stroke="#000000" stroke-width="2" /><path d="M74,81 h6.0 c10.607,0 15.5,-4.166 15.5,-13 c0,-10.241 -5.379,-20.147 -16,-27.5 c6.075,-9.587 11.531,-20.068 15.576,-29.881" fill="none" stroke="#000000" stroke-width="2" /><path d="M18,54.5 c-1.833,8.478 -4.874,18.228 -8,25.5" fill="none" stroke="#000000" stroke-width="2" /><path d="M14.5,67.5 h40.0 c-2.152,22.13 -3.471,24 -8.5,24 c-2.699,0 -9.744,-0.433 -15,-1" fill="none" stroke="#000000" stroke-width="2" /></svg>