<?xml version='1.0' encoding='utf-8'?>
<svg xmlns="http://www.w3.org/2000/svg" height="100px" version="1.0" viewBox="0 0 100 100" width="100px" x="0px" y="0px">
<line fill="none" stroke="#000000" stroke-width="2" x1="46" x2="96" y1="34" y2="34" /><line fill="none" stroke="#000000" stroke-width="2" x1="46" x2="96" y1="69" y2="69" /><line fill="none" stroke="#000000" stroke-width="2" x1="86.5" x2="49.5" y1="15" y2="15" /><line fill="none" stroke="#000000" stroke-width="2" x1="68.5" x2="68.5" y1="34" y2="4.5" /><line fill="none" stroke="#000000" stroke-width="2" x1="92" x2="51" y1="49.5" y2="49.5" /><line fill="none" stroke="#000000" stroke-width="2" x1="10" x2="41" y1="70" y2="70" /><line fill="none" stroke="#000000" stroke-width="2" x1="5.5" x2="45" y1="11" y2="11" /><polyline fill="none" points="10,86 42,86 42,28 9,28 9,93" stroke="#000000" stroke-width="2" /><path d="M74.5,61.5 v21.0 c0,7.345 -0.508,8 -6,8 c-3.299,0 -7.354,-0.137 -12,-0.5" fill="none" stroke="#000000" stroke-width="2" /><path d="M91.299,49.788 c-5.468,5.378 -9.989,8.818 -16.799,12.712" fill="none" stroke="#000000" stroke-width="2" /><path d="M45.5,64 c19.989,-12.603 38.183,-32.831 49,-55" fill="none" stroke="#000000" stroke-width="2" /><path d="M20.5,12 v17.0 c0,20.538 -1.387,24.464 -10,33" fill="none" stroke="#000000" stroke-width="2" /><path d="M30,12 v36.0 c0,5.49 0.593,6 4.5,6 h6.5" fill="none" stroke="#000000" stroke-width="2" /></svg>