<?xml version='1.0' encoding='utf-8'?>
<svg xmlns="http://www.w3.org/2000/svg" height="100px" version="1.0" viewBox="0 0 100 100" width="100px" x="0px" y="0px">
<line fill="none" stroke="#000000" stroke-width="2" x1="14" x2="87" y1="89" y2="89" /><line fill="none" stroke="#000000" stroke-width="2" x1="14" x2="87" y1="79.5" y2="79.5" /><line fill="none" stroke="#000000" stroke-width="2" x1="5" x2="95" y1="51" y2="51" /><line fill="none" stroke="#000000" stroke-width="2" x1="25" x2="25" y1="47.5" y2="6.5" /><line fill="none" stroke="#000000" stroke-width="2" x1="95" x2="31" y1="29.5" y2="29.5" /><polyline fill="none" points="87,94 87,60 13,60 13,94" stroke="#000000" stroke-width="2" /><path d="M40,52 v9.0 c0,7.088 -5.146,11.443 -22,14.5" fill="none" stroke="#000000" stroke-width="2" /><path d="M57.5,51 v15.0 c0,4.762 0.998,5.5 11,5.5 h17.5" fill="none" stroke="#000000" stroke-width="2" /><path d="M7.5,11 c4.061,4.698 7.621,9.412 11,14.5" fill="none" stroke="#000000" stroke-width="2" /><path d="M25,30.5 c-6.69,2.941 -12.756,5.378 -20,8" fill="none" stroke="#000000" stroke-width="2" /><path d="M84,23 v18.0 c0,3.989 -0.531,4.5 -6.5,4.5 c-2.103,0 -7.92,-0.173 -14.5,-0.5" fill="none" stroke="#000000" stroke-width="2" /><path d="M60,43 c-4.439,-3.253 -10.625,-6.935 -17,-10" fill="none" stroke="#000000" stroke-width="2" /><path d="M42,26 c-2.895,-4.152 -6.027,-7.802 -9,-10.5" fill="none" stroke="#000000" stroke-width="2" /><path d="M64,25 c-2.775,-4.278 -5.824,-7.995 -9,-11" fill="none" stroke="#000000" stroke-width="2" /><path d="M75,25 c5.78,-3.453 11.383,-8.179 16,-13.5" fill="none" stroke="#000000" stroke-width="2" /><path d="M32,11.5 c22.26,-0.226 41.973,-1.439 59,-3.5" fill="none" stroke="#000000" stroke-width="2" /></svg>