<?xml version='1.0' encoding='utf-8'?>
<svg xmlns="http://www.w3.org/2000/svg" height="100px" version="1.0" viewBox="0 0 100 100" width="100px" x="0px" y="0px">
<line fill="none" stroke="#000000" stroke-width="2" x1="96" x2="47" y1="12.5" y2="12.5" /><line fill="none" stroke="#000000" stroke-width="2" x1="56.5" x2="56.5" y1="93.5" y2="48" /><line fill="none" stroke="#000000" stroke-width="2" x1="56.5" x2="91.5" y1="86.5" y2="86.5" /><line fill="none" stroke="#000000" stroke-width="2" x1="45.5" x2="6.5" y1="47" y2="47" /><line fill="none" stroke="#000000" stroke-width="2" x1="43.5" x2="11.5" y1="28" y2="28" /><line fill="none" stroke="#000000" stroke-width="2" x1="27" x2="27" y1="84.5" y2="28" /><polyline fill="none" points="57,47.5 91.5,47.5 91.5,93.5" stroke="#000000" stroke-width="2" /><path d="M45,64 c11.107,-11.074 17.821,-26.017 21,-51.5" fill="none" stroke="#000000" stroke-width="2" /><path d="M5.5,89.5 c15.053,-2.877 27.354,-6.513 41,-12" fill="none" stroke="#000000" stroke-width="2" /><path d="M47,23 c-7.589,-4.952 -13.869,-10.14 -20,-16.5 c-6.849,8.159 -14.079,15.12 -22.5,21.5" fill="none" stroke="#000000" stroke-width="2" /><path d="M17.5,76 c-2.387,-7.582 -4.948,-14.762 -7.5,-21" fill="none" stroke="#000000" stroke-width="2" /><path d="M36.5,73 c2.857,-6.433 5.416,-12.93 7.5,-19" fill="none" stroke="#000000" stroke-width="2" /></svg>