<?xml version='1.0' encoding='utf-8'?>
<svg xmlns="http://www.w3.org/2000/svg" height="100px" version="1.0" viewBox="0 0 100 100" width="100px" x="0px" y="0px">
<line fill="none" stroke="#000000" stroke-width="2" x1="43" x2="6" y1="47" y2="47" /><line fill="none" stroke="#000000" stroke-width="2" x1="40.5" x2="10.5" y1="28" y2="28" /><line fill="none" stroke="#000000" stroke-width="2" x1="24.5" x2="24.5" y1="85" y2="28" /><line fill="none" stroke="#000000" stroke-width="2" x1="88" x2="54" y1="73" y2="73" /><line fill="none" stroke="#000000" stroke-width="2" x1="72" x2="72" y1="94" y2="6" /><line fill="none" stroke="#000000" stroke-width="2" x1="97" x2="46" y1="25.5" y2="25.5" /><path d="M5,89.5 c13.4,-2.397 24.352,-5.427 36.5,-10" fill="none" stroke="#000000" stroke-width="2" /><path d="M44,23 c-7.143,-4.952 -13.203,-10.167 -19,-16.5 c-6.445,8.159 -13.143,15.038 -21,21.5" fill="none" stroke="#000000" stroke-width="2" /><path d="M17,76 c-2.387,-7.582 -4.948,-14.762 -7.5,-21" fill="none" stroke="#000000" stroke-width="2" /><path d="M32.5,73 c2.857,-6.433 5.416,-12.93 7.5,-19" fill="none" stroke="#000000" stroke-width="2" /><path d="M43.5,78 c13.141,-17.218 22.593,-35.487 27.5,-52.5" fill="none" stroke="#000000" stroke-width="2" /><path d="M97.5,78 c-11.668,-17.468 -20.076,-35.835 -24.5,-53" fill="none" stroke="#000000" stroke-width="2" /></svg>