<?xml version='1.0' encoding='utf-8'?>
<svg xmlns="http://www.w3.org/2000/svg" height="100px" version="1.0" viewBox="0 0 100 100" width="100px" x="0px" y="0px">
<line fill="none" stroke="#000000" stroke-width="2" x1="42" x2="6.5" y1="47" y2="47" /><line fill="none" stroke="#000000" stroke-width="2" x1="41" x2="11" y1="28" y2="28" /><line fill="none" stroke="#000000" stroke-width="2" x1="25" x2="25" y1="84.5" y2="28" /><line fill="none" stroke="#000000" stroke-width="2" x1="97" x2="42.5" y1="70.5" y2="70.5" /><line fill="none" stroke="#000000" stroke-width="2" x1="51.5" x2="95.5" y1="49.5" y2="49.5" /><line fill="none" stroke="#000000" stroke-width="2" x1="75" x2="75" y1="94" y2="33.5" /><path d="M5.5,89.5 c14.318,-2.877 26.02,-6.513 39,-12" fill="none" stroke="#000000" stroke-width="2" /><path d="M43,23 c-6.578,-4.952 -12.16,-10.167 -17.5,-16.5 c-6.445,8.159 -13.143,15.038 -21,21.5" fill="none" stroke="#000000" stroke-width="2" /><path d="M17.5,76 c-2.387,-7.582 -4.948,-14.762 -7.5,-21" fill="none" stroke="#000000" stroke-width="2" /><path d="M33,73 c2.857,-6.433 5.416,-12.93 7.5,-19" fill="none" stroke="#000000" stroke-width="2" /><path d="M96,35.5 c-3.986,-6.851 -9.807,-15.397 -15,-22" fill="none" stroke="#000000" stroke-width="2" /><path d="M45,31 c13.361,-0.437 30.266,-1.921 45.5,-4" fill="none" stroke="#000000" stroke-width="2" /><path d="M53,30.5 c4.547,-7.271 9.139,-16.259 13,-25.5" fill="none" stroke="#000000" stroke-width="2" /><path d="M43.5,64 c5.573,-7.747 10.211,-17.515 13,-28" fill="none" stroke="#000000" stroke-width="2" /></svg>