<?xml version='1.0' encoding='utf-8'?>
<svg xmlns="http://www.w3.org/2000/svg" height="100px" version="1.0" viewBox="0 0 100 100" width="100px" x="0px" y="0px">
<line fill="none" stroke="#000000" stroke-width="2" x1="34" x2="5" y1="47" y2="47" /><line fill="none" stroke="#000000" stroke-width="2" x1="33" x2="9" y1="28" y2="28" /><line fill="none" stroke="#000000" stroke-width="2" x1="21" x2="21" y1="84.5" y2="28" /><line fill="none" stroke="#000000" stroke-width="2" x1="36.5" x2="63.5" y1="50" y2="50" /><line fill="none" stroke="#000000" stroke-width="2" x1="34.5" x2="63.5" y1="10" y2="10" /><line fill="none" stroke="#000000" stroke-width="2" x1="66" x2="95" y1="10" y2="10" /><line fill="none" stroke="#000000" stroke-width="2" x1="66" x2="95" y1="50" y2="50" /><path d="M4.5,89.5 c11.376,-2.657 20.682,-5.97 31,-11" fill="none" stroke="#000000" stroke-width="2" /><path d="M36.5,23 c-5.84,-5.014 -10.718,-10.167 -15.5,-16.5 c-5.317,8.159 -10.951,15.108 -17.5,21.5" fill="none" stroke="#000000" stroke-width="2" /><path d="M14.5,76 c-2.068,-7.582 -4.289,-14.762 -6.5,-21" fill="none" stroke="#000000" stroke-width="2" /><path d="M26.5,73 c2.477,-6.433 4.693,-12.93 6.5,-19" fill="none" stroke="#000000" stroke-width="2" /><path d="M64.5,38.5 c-7.18,-8.479 -16.453,-16.809 -24.5,-22" fill="none" stroke="#000000" stroke-width="2" /><path d="M33.5,91 c14.594,-6.545 25.822,-21.621 29.015,-40.17" fill="none" stroke="#000000" stroke-width="2" /><path d="M64.5,82.5 c-7.217,-9.856 -16.52,-19.533 -24.5,-25.5" fill="none" stroke="#000000" stroke-width="2" /><path d="M37.5,45 c12.48,-6.117 21.854,-18.797 25.021,-34.202" fill="none" stroke="#000000" stroke-width="2" /><path d="M63.5,45 c15.451,-5.875 26.539,-18.273 30.529,-34.243" fill="none" stroke="#000000" stroke-width="2" /><path d="M59.5,91 c17.677,-6.203 30.611,-21.387 34.521,-40.203" fill="none" stroke="#000000" stroke-width="2" /><path d="M96.5,45 c-14.543,-6.261 -23.854,-16.762 -27,-31" fill="none" stroke="#000000" stroke-width="2" /><path d="M96.5,91 c-14.152,-7.2 -23.756,-19.956 -27,-37" fill="none" stroke="#000000" stroke-width="2" /></svg>