<?xml version='1.0' encoding='utf-8'?>
<svg xmlns="http://www.w3.org/2000/svg" height="100px" version="1.0" viewBox="0 0 100 100" width="100px" x="0px" y="0px">
<line fill="none" stroke="#000000" stroke-width="2" x1="35" x2="4.5" y1="47" y2="47" /><line fill="none" stroke="#000000" stroke-width="2" x1="34" x2="8.5" y1="28" y2="28" /><line fill="none" stroke="#000000" stroke-width="2" x1="20.5" x2="20.5" y1="85" y2="28" /><line fill="none" stroke="#000000" stroke-width="2" x1="38" x2="96.5" y1="27.5" y2="27.5" /><line fill="none" stroke="#000000" stroke-width="2" x1="59" x2="59" y1="33.5" y2="85" /><line fill="none" stroke="#000000" stroke-width="2" x1="42.5" x2="42.5" y1="44" y2="89" /><line fill="none" stroke="#000000" stroke-width="2" x1="70" x2="42" y1="13.5" y2="13.5" /><line fill="none" stroke="#000000" stroke-width="2" x1="75.5" x2="59" y1="52.5" y2="52.5" /><path d="M4,89.5 c11.743,-2.657 21.349,-5.97 32,-11" fill="none" stroke="#000000" stroke-width="2" /><path d="M36,23 c-5.84,-5.014 -10.718,-10.167 -15.5,-16.5 c-5.317,8.159 -10.951,15.108 -17.5,21.5" fill="none" stroke="#000000" stroke-width="2" /><path d="M14,76 c-2.068,-7.582 -4.289,-14.762 -6.5,-21" fill="none" stroke="#000000" stroke-width="2" /><path d="M26,73 c2.477,-6.433 4.693,-12.93 6.5,-19" fill="none" stroke="#000000" stroke-width="2" /><path d="M77,4.5 c0,59.849 10.627,86.5 15,86.5 c1.917,0 3.994,-2.614 5.5,-23" fill="none" stroke="#000000" stroke-width="2" /><path d="M82,8.5 c4.041,3.437 8.211,7.608 12,12" fill="none" stroke="#000000" stroke-width="2" /><path d="M34.5,90.5 c18.578,-3.317 34.59,-7.906 44,-12" fill="none" stroke="#000000" stroke-width="2" /></svg>