<?xml version='1.0' encoding='utf-8'?>
<svg xmlns="http://www.w3.org/2000/svg" height="100px" version="1.0" viewBox="0 0 100 100" width="100px" x="0px" y="0px">
<line fill="none" stroke="#000000" stroke-width="2" x1="38.5" x2="5" y1="47" y2="47" /><line fill="none" stroke="#000000" stroke-width="2" x1="36.5" x2="9.5" y1="28" y2="28" /><line fill="none" stroke="#000000" stroke-width="2" x1="23" x2="23" y1="84.5" y2="28" /><line fill="none" stroke="#000000" stroke-width="2" x1="45" x2="90" y1="29.5" y2="29.5" /><line fill="none" stroke="#000000" stroke-width="2" x1="96" x2="37" y1="89.5" y2="89.5" /><line fill="none" stroke="#000000" stroke-width="2" x1="94" x2="40" y1="57" y2="57" /><line fill="none" stroke="#000000" stroke-width="2" x1="91" x2="43" y1="72.5" y2="72.5" /><line fill="none" stroke="#000000" stroke-width="2" x1="67" x2="67" y1="89.5" y2="57" /><polyline fill="none" points="45,46 90,46 90,14 44,14 44,47" stroke="#000000" stroke-width="2" /><path d="M4,89.5 c12.85,-2.638 23.35,-5.97 35,-11" fill="none" stroke="#000000" stroke-width="2" /><path d="M41,23 c-6.785,-4.952 -12.493,-10.167 -18,-16.5 c-6.123,8.159 -12.523,15.052 -20,21.5" fill="none" stroke="#000000" stroke-width="2" /><path d="M16,76 c-2.387,-7.582 -4.948,-14.762 -7.5,-21" fill="none" stroke="#000000" stroke-width="2" /><path d="M29.5,73 c2.857,-6.433 5.416,-12.93 7.5,-19" fill="none" stroke="#000000" stroke-width="2" /><path d="M68,3 c-1.629,4.058 -3.594,7.636 -6,11" fill="none" stroke="#000000" stroke-width="2" /></svg>