<?xml version='1.0' encoding='utf-8'?>
<svg xmlns="http://www.w3.org/2000/svg" height="100px" version="1.0" viewBox="0 0 100 100" width="100px" x="0px" y="0px">
<line fill="none" stroke="#000000" stroke-width="2" x1="34" x2="5" y1="47" y2="47" /><line fill="none" stroke="#000000" stroke-width="2" x1="33" x2="9" y1="28" y2="28" /><line fill="none" stroke="#000000" stroke-width="2" x1="21" x2="21" y1="84.5" y2="28" /><line fill="none" stroke="#000000" stroke-width="2" x1="52.5" x2="34.5" y1="42" y2="42" /><line fill="none" stroke="#000000" stroke-width="2" x1="51.5" x2="34.5" y1="12" y2="12" /><line fill="none" stroke="#000000" stroke-width="2" x1="51" x2="97.5" y1="27" y2="27" /><line fill="none" stroke="#000000" stroke-width="2" x1="51.5" x2="95" y1="72" y2="72" /><line fill="none" stroke="#000000" stroke-width="2" x1="54.5" x2="93.5" y1="56.5" y2="56.5" /><line fill="none" stroke="#000000" stroke-width="2" x1="75" x2="75" y1="85" y2="5" /><polyline fill="none" points="56,42 91,42 91,13 55.5,13" stroke="#000000" stroke-width="2" /><path d="M4.5,89.5 c11.376,-2.657 20.682,-5.97 31,-11" fill="none" stroke="#000000" stroke-width="2" /><path d="M36.5,23 c-5.84,-5.014 -10.718,-10.167 -15.5,-16.5 c-5.317,8.159 -10.951,15.108 -17.5,21.5" fill="none" stroke="#000000" stroke-width="2" /><path d="M14.5,76 c-2.068,-7.582 -4.289,-14.762 -6.5,-21" fill="none" stroke="#000000" stroke-width="2" /><path d="M26.5,73 c2.477,-6.433 4.693,-12.93 6.5,-19" fill="none" stroke="#000000" stroke-width="2" /><path d="M33,92 c9.466,-12.163 16.241,-29.219 18.506,-49.113" fill="none" stroke="#000000" stroke-width="2" /><path d="M35.33,41.563 c6.347,-9.323 11.24,-18.642 15.235,-28.924" fill="none" stroke="#000000" stroke-width="2" /><path d="M96,90 h-18.0 c-23.674,0 -33.934,-8.208 -40,-39" fill="none" stroke="#000000" stroke-width="2" /></svg>