<?xml version='1.0' encoding='utf-8'?>
<svg xmlns="http://www.w3.org/2000/svg" height="100px" version="1.0" viewBox="0 0 100 100" width="100px" x="0px" y="0px">
<line fill="none" stroke="#000000" stroke-width="2" x1="35" x2="65" y1="58" y2="58" /><line fill="none" stroke="#000000" stroke-width="2" x1="55" x2="89" y1="25" y2="25" /><line fill="none" stroke="#000000" stroke-width="2" x1="44" x2="11" y1="25" y2="25" /><polyline fill="none" points="31,85 70,85 70,68 30,68 30,89.5" stroke="#000000" stroke-width="2" /><polyline fill="none" points="10,92.5 10,10 44,10 44,41.5 11,41.5" stroke="#000000" stroke-width="2" /><path d="M78.5,63 c-11.157,-6.278 -19.807,-12.728 -28.5,-21 c-8.69,8.272 -17.341,14.722 -28.5,21" fill="none" stroke="#000000" stroke-width="2" /><path d="M69,90 c6.263,0.361 10.218,0.5 13,0.5 c7.188,0 8,-0.666 8,-8 V10.0 h-35.0 v31.5 h34.0" fill="none" stroke="#000000" stroke-width="2" /></svg>