<?xml version='1.0' encoding='utf-8'?>
<svg xmlns="http://www.w3.org/2000/svg" height="100px" version="1.0" viewBox="0 0 100 100" width="100px" x="0px" y="0px">
<line fill="none" stroke="#000000" stroke-width="2" x1="28" x2="28" y1="90" y2="56.5" /><line fill="none" stroke="#000000" stroke-width="2" x1="33.5" x2="80" y1="59" y2="55" /><line fill="none" stroke="#000000" stroke-width="2" x1="56" x2="89" y1="24" y2="24" /><line fill="none" stroke="#000000" stroke-width="2" x1="43" x2="11" y1="24" y2="24" /><polyline fill="none" points="10,92.5 10,10 44,10 44,39.5 11,39.5" stroke="#000000" stroke-width="2" /><path d="M66,43 c3.943,2.97 7.27,5.71 11,9" fill="none" stroke="#000000" stroke-width="2" /><path d="M35,43.5 c-3.838,10.118 -10.438,19.042 -19,26" fill="none" stroke="#000000" stroke-width="2" /><path d="M74,60 c-6.927,12.449 -20.443,22.257 -40,27.5" fill="none" stroke="#000000" stroke-width="2" /><path d="M52.5,42.5 c0,27.4 16.334,43 22,43 c2.268,0 4.612,-2.835 6,-11.5" fill="none" stroke="#000000" stroke-width="2" /><path d="M72,90 c5.387,0.343 9.107,0.5 11.5,0.5 c6.027,0 6.5,-0.449 6.5,-8 V10.0 h-35.0 v29.5 h34.0" fill="none" stroke="#000000" stroke-width="2" /></svg>