<?xml version='1.0' encoding='utf-8'?>
<svg xmlns="http://www.w3.org/2000/svg" height="100px" version="1.0" viewBox="0 0 100 100" width="100px" x="0px" y="0px">
<line fill="none" stroke="#000000" stroke-width="2" x1="31.5" x2="69.5" y1="76.5" y2="76.5" /><line fill="none" stroke="#000000" stroke-width="2" x1="21" x2="79" y1="59" y2="59" /><line fill="none" stroke="#000000" stroke-width="2" x1="23" x2="77" y1="46.5" y2="46.5" /><line fill="none" stroke="#000000" stroke-width="2" x1="50" x2="50" y1="46.5" y2="37.5" /><line fill="none" stroke="#000000" stroke-width="2" x1="56" x2="89" y1="24" y2="24" /><line fill="none" stroke="#000000" stroke-width="2" x1="43" x2="11" y1="24" y2="24" /><polyline fill="none" points="31.5,87 69.5,87 69.5,66 30.5,66 30.5,91" stroke="#000000" stroke-width="2" /><polyline fill="none" points="10,92.5 10,10 44,10 44,39.5 11,39.5" stroke="#000000" stroke-width="2" /><path d="M58.5,59 c2.971,-3.501 5.402,-7.782 7,-12.5" fill="none" stroke="#000000" stroke-width="2" /><path d="M41,59 c-1.974,-4.219 -4.297,-8.411 -7,-12.5" fill="none" stroke="#000000" stroke-width="2" /><path d="M72,90 c5.387,0.343 9.107,0.5 11.5,0.5 c6.027,0 6.5,-0.449 6.5,-8 V10.0 h-35.0 v29.5 h34.0" fill="none" stroke="#000000" stroke-width="2" /></svg>