<?xml version='1.0' encoding='utf-8'?>
<svg xmlns="http://www.w3.org/2000/svg" height="100px" version="1.0" viewBox="0 0 100 100" width="100px" x="0px" y="0px">
<line fill="none" stroke="#000000" stroke-width="2" x1="93.5" x2="34" y1="38" y2="38" /><line fill="none" stroke="#000000" stroke-width="2" x1="89.5" x2="40" y1="11" y2="11" /><polyline fill="none" points="35.5,10 9.5,10 9.5,93" stroke="#000000" stroke-width="2" /><path d="M15.5,71 h5.0 c7.789,0 11,-2.928 11,-10.5 c0,-8.302 -2.023,-13.576 -10,-23.5 c5.083,-8.09 9.91,-17.88 13.063,-26.349" fill="none" stroke="#000000" stroke-width="2" /><path d="M73,38 v45.5 c0,6.769 0.227,7 10.5,7 c10.75,0 10.987,-0.271 11.5,-28" fill="none" stroke="#000000" stroke-width="2" /><path d="M26,91.5 c19.018,-8.272 26,-20.602 26,-53.5" fill="none" stroke="#000000" stroke-width="2" /></svg>