<?xml version='1.0' encoding='utf-8'?>
<svg xmlns="http://www.w3.org/2000/svg" height="100px" version="1.0" viewBox="0 0 100 100" width="100px" x="0px" y="0px">
<line fill="none" stroke="#000000" stroke-width="2" x1="64.5" x2="64.5" y1="16" y2="4" /><polyline fill="none" points="34,10 10,10 10,93" stroke="#000000" stroke-width="2" /><polyline fill="none" points="93,34 93,16 36,16 36,34" stroke="#000000" stroke-width="2" /><path d="M15,71 h4.0 c7.789,0 11,-2.928 11,-10.5 c0,-8.302 -2.023,-13.576 -10,-23.5 c5.083,-8.09 9.91,-17.88 13.063,-26.349" fill="none" stroke="#000000" stroke-width="2" /><path d="M45.5,24.5 V79.0 c0,10.958 0.781,11.5 21.5,11.5 c23.571,0 23.831,-0.208 25.5,-25" fill="none" stroke="#000000" stroke-width="2" /><path d="M45.5,59 c14.471,-5.243 27.771,-12.728 42.5,-24" fill="none" stroke="#000000" stroke-width="2" /></svg>