<?xml version='1.0' encoding='utf-8'?>
<svg xmlns="http://www.w3.org/2000/svg" height="100px" version="1.0" viewBox="0 0 100 100" width="100px" x="0px" y="0px">
<line fill="none" stroke="#000000" stroke-width="2" x1="96" x2="33.5" y1="16.5" y2="16.5" /><line fill="none" stroke="#000000" stroke-width="2" x1="44" x2="44" y1="93" y2="35" /><line fill="none" stroke="#000000" stroke-width="2" x1="44" x2="90.5" y1="72" y2="72" /><line fill="none" stroke="#000000" stroke-width="2" x1="45" x2="90.5" y1="53" y2="53" /><polyline fill="none" points="32,10 9,10 9,94" stroke="#000000" stroke-width="2" /><path d="M13,71 h4.0 c7.789,0 11,-2.928 11,-10.5 c0,-8.302 -2.023,-13.576 -10,-23.5 c5.083,-8.09 9.91,-17.88 13.063,-26.349" fill="none" stroke="#000000" stroke-width="2" /><path d="M30.5,53 c11.258,-11.702 18.767,-26.421 23.5,-48" fill="none" stroke="#000000" stroke-width="2" /><path d="M44.5,34.5 h46.0 v52.46 c0,4.177 -0.381,4.54 -7,4.54 c-2.174,0 -5.705,-0.159 -12,-0.5" fill="none" stroke="#000000" stroke-width="2" /></svg>