<?xml version='1.0' encoding='utf-8'?>
<svg xmlns="http://www.w3.org/2000/svg" height="100px" version="1.0" viewBox="0 0 100 100" width="100px" x="0px" y="0px">
<line fill="none" stroke="#000000" stroke-width="2" x1="31" x2="95.5" y1="44" y2="44" /><line fill="none" stroke="#000000" stroke-width="2" x1="94" x2="34.5" y1="13" y2="13" /><line fill="none" stroke="#000000" stroke-width="2" x1="91" x2="36" y1="28" y2="28" /><line fill="none" stroke="#000000" stroke-width="2" x1="95" x2="32" y1="61.5" y2="61.5" /><polyline fill="none" points="32.5,10 9.5,10 9.5,93" stroke="#000000" stroke-width="2" /><path d="M13.5,71 h4.0 c7.789,0 11,-2.928 11,-10.5 c0,-8.302 -2.023,-13.576 -10,-23.5 c5.083,-8.09 9.91,-17.88 13.063,-26.349" fill="none" stroke="#000000" stroke-width="2" /><path d="M31,86 c16.037,-15.329 28.951,-47.116 31,-83" fill="none" stroke="#000000" stroke-width="2" /><path d="M66.5,85 c-3.916,-5.855 -9.374,-12.482 -15,-18" fill="none" stroke="#000000" stroke-width="2" /><path d="M84,44 v40.5 c0,6.414 -0.625,7 -6,7 c-1.853,0 -6.696,-0.169 -12.5,-0.5" fill="none" stroke="#000000" stroke-width="2" /></svg>