<?xml version='1.0' encoding='utf-8'?>
<svg xmlns="http://www.w3.org/2000/svg" height="100px" version="1.0" viewBox="0 0 100 100" width="100px" x="0px" y="0px">
<line fill="none" stroke="#000000" stroke-width="2" x1="37" x2="37" y1="10.5" y2="81" /><line fill="none" stroke="#000000" stroke-width="2" x1="60" x2="60" y1="95" y2="10.5" /><line fill="none" stroke="#000000" stroke-width="2" x1="95.5" x2="32.5" y1="10.5" y2="10.5" /><line fill="none" stroke="#000000" stroke-width="2" x1="38" x2="60" y1="56" y2="56" /><line fill="none" stroke="#000000" stroke-width="2" x1="38" x2="60" y1="32.5" y2="32.5" /><line fill="none" stroke="#000000" stroke-width="2" x1="60" x2="94" y1="25.5" y2="25.5" /><polyline fill="none" points="31,10 8.5,10 8.5,93" stroke="#000000" stroke-width="2" /><path d="M12.5,71 h3.5 c9.313,0 13,-2.928 13,-10.5 c0,-8.302 -2.463,-13.576 -12,-23.5 c5.083,-8.09 9.91,-17.88 13.063,-26.349" fill="none" stroke="#000000" stroke-width="2" /><path d="M29,82 c9.69,-1.308 20.576,-3.407 31,-6" fill="none" stroke="#000000" stroke-width="2" /><path d="M65.5,93 c12.918,-11.993 22.899,-33.815 27.51,-66.64" fill="none" stroke="#000000" stroke-width="2" /><path d="M95,93 c-13.527,-12.81 -22.543,-32.31 -26.5,-62.5" fill="none" stroke="#000000" stroke-width="2" /></svg>