<?xml version='1.0' encoding='utf-8'?>
<svg xmlns="http://www.w3.org/2000/svg" height="100px" version="1.0" viewBox="0 0 100 100" width="100px" x="0px" y="0px">
<line fill="none" stroke="#000000" stroke-width="2" x1="40.5" x2="90" y1="76" y2="76" /><line fill="none" stroke="#000000" stroke-width="2" x1="40.5" x2="90" y1="63" y2="63" /><line fill="none" stroke="#000000" stroke-width="2" x1="95.5" x2="42" y1="40" y2="40" /><line fill="none" stroke="#000000" stroke-width="2" x1="68.5" x2="68.5" y1="25" y2="40" /><line fill="none" stroke="#000000" stroke-width="2" x1="45" x2="92.5" y1="25" y2="25" /><line fill="none" stroke="#000000" stroke-width="2" x1="95" x2="33.5" y1="13.5" y2="13.5" /><polyline fill="none" points="31.5,10 8.5,10 8.5,93" stroke="#000000" stroke-width="2" /><path d="M12.5,71 h4.0 c7.789,0 11,-2.928 11,-10.5 c0,-8.302 -2.023,-13.576 -10,-23.5 c5.083,-8.09 9.91,-17.88 13.063,-26.349" fill="none" stroke="#000000" stroke-width="2" /><path d="M30,51.5 c10.361,-12.487 17.24,-28.413 20,-47.5" fill="none" stroke="#000000" stroke-width="2" /><path d="M39.5,93 v-43.0 h50.5 v36.96 c0,4.303 -0.299,4.54 -7,4.54 c-2.265,0 -5.941,-0.159 -12.5,-0.5" fill="none" stroke="#000000" stroke-width="2" /></svg>