<?xml version='1.0' encoding='utf-8'?>
<svg xmlns="http://www.w3.org/2000/svg" height="100px" version="1.0" viewBox="0 0 100 100" width="100px" x="0px" y="0px">
<line fill="none" stroke="#000000" stroke-width="2" x1="39" x2="89" y1="29.5" y2="29.5" /><line fill="none" stroke="#000000" stroke-width="2" x1="96" x2="31" y1="89.5" y2="89.5" /><line fill="none" stroke="#000000" stroke-width="2" x1="93.5" x2="33.5" y1="57" y2="57" /><line fill="none" stroke="#000000" stroke-width="2" x1="90.5" x2="36.5" y1="72.5" y2="72.5" /><line fill="none" stroke="#000000" stroke-width="2" x1="63.5" x2="63.5" y1="89.5" y2="57" /><polyline fill="none" points="34.5,10 10.5,10 10.5,93" stroke="#000000" stroke-width="2" /><polyline fill="none" points="39,46 89,46 89,14 38,14 38,47" stroke="#000000" stroke-width="2" /><path d="M14.5,71 h5.0 c7.789,0 11,-2.928 11,-10.5 c0,-8.302 -2.023,-13.576 -10,-23.5 c5.083,-8.09 9.91,-17.88 13.063,-26.349" fill="none" stroke="#000000" stroke-width="2" /><path d="M64.5,3 c-1.629,4.058 -3.594,7.636 -6,11" fill="none" stroke="#000000" stroke-width="2" /></svg>