<?xml version='1.0' encoding='utf-8'?>
<svg xmlns="http://www.w3.org/2000/svg" height="100px" version="1.0" viewBox="0 0 100 100" width="100px" x="0px" y="0px">
<line fill="none" stroke="#000000" stroke-width="2" x1="37.5" x2="86.5" y1="47" y2="47" /><line fill="none" stroke="#000000" stroke-width="2" x1="61.5" x2="61.5" y1="32" y2="7" /><polyline fill="none" points="33,10 10,10 10,93" stroke="#000000" stroke-width="2" /><polyline fill="none" points="36.5,31 36.5,62.5 86.5,62.5 86.5,32 37.5,32" stroke="#000000" stroke-width="2" /><path d="M14,71 h4.0 c7.789,0 11,-2.928 11,-10.5 c0,-8.302 -2.023,-13.576 -10,-23.5 c5.083,-8.09 9.91,-17.88 13.063,-26.349" fill="none" stroke="#000000" stroke-width="2" /><path d="M29.5,27.5 c7.841,-4.247 14.977,-10.548 19.5,-17" fill="none" stroke="#000000" stroke-width="2" /><path d="M95,27.5 c-6.031,-6.105 -13.342,-12.037 -21,-17" fill="none" stroke="#000000" stroke-width="2" /><path d="M23.5,88 c8.846,-5.122 16.91,-12.711 22,-20.5" fill="none" stroke="#000000" stroke-width="2" /><path d="M96,89 c-6.318,-7.543 -13.966,-14.884 -22,-21" fill="none" stroke="#000000" stroke-width="2" /><path d="M61.5,62.5 v22.5 c0,5.473 -0.544,6 -7,6 c-2.863,0 -7.549,-0.174 -13.5,-0.5" fill="none" stroke="#000000" stroke-width="2" /></svg>