<?xml version='1.0' encoding='utf-8'?>
<svg xmlns="http://www.w3.org/2000/svg" height="100px" version="1.0" viewBox="0 0 100 100" width="100px" x="0px" y="0px">
<line fill="none" stroke="#000000" stroke-width="2" x1="7.5" x2="44.5" y1="30.5" y2="30.5" /><line fill="none" stroke="#000000" stroke-width="2" x1="47" x2="5" y1="16" y2="16" /><line fill="none" stroke="#000000" stroke-width="2" x1="26" x2="26" y1="30.5" y2="6" /><line fill="none" stroke="#000000" stroke-width="2" x1="45" x2="4" y1="56.5" y2="56.5" /><line fill="none" stroke="#000000" stroke-width="2" x1="42.5" x2="8.5" y1="43.5" y2="43.5" /><line fill="none" stroke="#000000" stroke-width="2" x1="47.5" x2="97" y1="30.5" y2="30.5" /><line fill="none" stroke="#000000" stroke-width="2" x1="49" x2="89" y1="45" y2="45" /><polyline fill="none" points="90,46 90,16 50,16" stroke="#000000" stroke-width="2" /><path d="M26,56.5 V86.0 c0,4.521 -0.41,5 -4,5 c-2.01,0 -4.992,-0.139 -9,-0.5" fill="none" stroke="#000000" stroke-width="2" /><path d="M5,85 c4.57,-6.198 8.297,-14.063 10.5,-22.5" fill="none" stroke="#000000" stroke-width="2" /><path d="M43.5,80.5 c-2.25,-5.946 -5.219,-12.303 -8.5,-18" fill="none" stroke="#000000" stroke-width="2" /><path d="M70.5,6 v75.5 c0,8.412 -0.975,9.5 -5.5,9.5 c-2.14,0 -6.034,-0.173 -10.5,-0.5" fill="none" stroke="#000000" stroke-width="2" /><path d="M70.5,47 c4.354,16.438 14.51,32.804 26,42.5" fill="none" stroke="#000000" stroke-width="2" /><path d="M94.5,50.5 c-4.025,7.375 -8.851,13.678 -14.5,19" fill="none" stroke="#000000" stroke-width="2" /><path d="M42.5,87.5 c8.652,-5.403 16.428,-12.179 21.5,-18.5" fill="none" stroke="#000000" stroke-width="2" /><path d="M62.5,65.5 c-3.921,-4.125 -9.26,-8.958 -15,-13.5" fill="none" stroke="#000000" stroke-width="2" /></svg>