<?xml version='1.0' encoding='utf-8'?>
<svg xmlns="http://www.w3.org/2000/svg" height="100px" version="1.0" viewBox="0 0 100 100" width="100px" x="0px" y="0px">
<line fill="none" stroke="#000000" stroke-width="2" x1="5.5" x2="34.5" y1="68.5" y2="63" /><line fill="none" stroke="#000000" stroke-width="2" x1="50" x2="50" y1="14.5" y2="4" /><line fill="none" stroke="#000000" stroke-width="2" x1="5.5" x2="94.5" y1="14.5" y2="14.5" /><line fill="none" stroke="#000000" stroke-width="2" x1="45" x2="45" y1="33.5" y2="94.5" /><line fill="none" stroke="#000000" stroke-width="2" x1="92.5" x2="45.5" y1="33" y2="33" /><line fill="none" stroke="#000000" stroke-width="2" x1="70" x2="70" y1="88.5" y2="33" /><line fill="none" stroke="#000000" stroke-width="2" x1="46" x2="94.5" y1="88.5" y2="88.5" /><line fill="none" stroke="#000000" stroke-width="2" x1="45" x2="90.5" y1="69.5" y2="69.5" /><line fill="none" stroke="#000000" stroke-width="2" x1="45" x2="90.5" y1="51" y2="51" /><path d="M10.5,67.5 c9.301,-10.728 17.752,-22.524 25,-35" fill="none" stroke="#000000" stroke-width="2" /><path d="M23.5,51.5 c-4.607,-5.901 -10.845,-13.304 -16,-19" fill="none" stroke="#000000" stroke-width="2" /><path d="M13,39 c4.68,-6.46 8.686,-12.86 12.5,-20" fill="none" stroke="#000000" stroke-width="2" /><path d="M7.5,93.5 c13.889,-8.189 25.507,-22.874 30,-38.5" fill="none" stroke="#000000" stroke-width="2" /><path d="M77.5,19 c-2.172,5.163 -4.801,9.714 -8,14" fill="none" stroke="#000000" stroke-width="2" /><path d="M32.5,52.5 c7.897,-8.892 13.931,-20.011 18,-33.5" fill="none" stroke="#000000" stroke-width="2" /></svg>