<?xml version='1.0' encoding='utf-8'?>
<svg xmlns="http://www.w3.org/2000/svg" height="100px" version="1.0" viewBox="0 0 100 100" width="100px" x="0px" y="0px">
<line fill="none" stroke="#000000" stroke-width="2" x1="55" x2="55" y1="20.5" y2="94" /><line fill="none" stroke="#000000" stroke-width="2" x1="94.5" x2="55.5" y1="20" y2="20" /><line fill="none" stroke="#000000" stroke-width="2" x1="76" x2="76" y1="87" y2="20" /><line fill="none" stroke="#000000" stroke-width="2" x1="56" x2="96" y1="87" y2="87" /><line fill="none" stroke="#000000" stroke-width="2" x1="55" x2="93" y1="64" y2="64" /><line fill="none" stroke="#000000" stroke-width="2" x1="55" x2="93" y1="41.5" y2="41.5" /><polyline fill="none" points="10.5,64 10.5,76.5 37.5,76.5 37.5,64" stroke="#000000" stroke-width="2" /><polyline fill="none" points="10.5,23 10.5,35 36.5,35 36.5,23" stroke="#000000" stroke-width="2" /><path d="M82,4 c-1.638,5.899 -3.596,11.101 -6,16" fill="none" stroke="#000000" stroke-width="2" /><path d="M46.5,34 c6.116,-7.41 11.057,-17.736 14,-30" fill="none" stroke="#000000" stroke-width="2" /><path d="M14,55 h31.5 c0,29.242 -3.054,35.5 -7.5,35.5 c-2.203,0 -5.723,-0.175 -9.5,-0.5" fill="none" stroke="#000000" stroke-width="2" /><path d="M14,14 h30.5 c0,27.204 -3.055,33.5 -7.5,33.5 c-2.203,0 -5.723,-0.175 -9.5,-0.5" fill="none" stroke="#000000" stroke-width="2" /><path d="M4,68 c5.818,-5.501 12.289,-15.556 15,-23" fill="none" stroke="#000000" stroke-width="2" /><path d="M4,27 c5.818,-5.501 12.289,-15.556 15,-23" fill="none" stroke="#000000" stroke-width="2" /><path d="M6,92.5 c11.492,-3.448 18.5,-13.085 18.5,-28 v-6.0" fill="none" stroke="#000000" stroke-width="2" /><path d="M6,49.5 c11.182,-3.448 18,-13.085 18,-28 v-4.0" fill="none" stroke="#000000" stroke-width="2" /></svg>