<?xml version='1.0' encoding='utf-8'?>
<svg xmlns="http://www.w3.org/2000/svg" height="100px" version="1.0" viewBox="0 0 100 100" width="100px" x="0px" y="0px">
<line fill="none" stroke="#000000" stroke-width="2" x1="50" x2="50" y1="42.5" y2="9.5" /><line fill="none" stroke="#000000" stroke-width="2" x1="12" x2="88" y1="9.5" y2="9.5" /><line fill="none" stroke="#000000" stroke-width="2" x1="18" x2="42" y1="28" y2="28" /><line fill="none" stroke="#000000" stroke-width="2" x1="18" x2="42" y1="37.5" y2="37.5" /><line fill="none" stroke="#000000" stroke-width="2" x1="58" x2="82" y1="28" y2="28" /><line fill="none" stroke="#000000" stroke-width="2" x1="58" x2="82" y1="37.5" y2="37.5" /><line fill="none" stroke="#000000" stroke-width="2" x1="51" x2="90" y1="68" y2="68" /><line fill="none" stroke="#000000" stroke-width="2" x1="12" x2="47.5" y1="71" y2="71" /><line fill="none" stroke="#000000" stroke-width="2" x1="12" x2="47.5" y1="83" y2="83" /><polyline fill="none" points="90,37.5 90,19.5 10,19.5 10,37.5" stroke="#000000" stroke-width="2" /><polyline fill="none" points="13,59.5 45.5,59.5 45.5,46 12,46 12,94.5" stroke="#000000" stroke-width="2" /><polyline fill="none" points="54,59.5 88,59.5 88,46 54,46" stroke="#000000" stroke-width="2" /><path d="M44.5,93 c23.938,-5.441 36.608,-13.227 44.686,-24.579" fill="none" stroke="#000000" stroke-width="2" /><path d="M94,93 c-15.486,-4.684 -29.568,-12.897 -38,-22" fill="none" stroke="#000000" stroke-width="2" /></svg>