<?xml version='1.0' encoding='utf-8'?>
<svg xmlns="http://www.w3.org/2000/svg" height="100px" version="1.0" viewBox="0 0 100 100" width="100px" x="0px" y="0px">
<line fill="none" stroke="#000000" stroke-width="2" x1="4.5" x2="48.5" y1="18" y2="18" /><line fill="none" stroke="#000000" stroke-width="2" x1="10" x2="43" y1="63" y2="63" /><line fill="none" stroke="#000000" stroke-width="2" x1="4" x2="48" y1="75.5" y2="75.5" /><line fill="none" stroke="#000000" stroke-width="2" x1="26.5" x2="26.5" y1="94" y2="30.5" /><polyline fill="none" points="38.5,6.5 38.5,30.5 14.5,30.5 14.5,6.5" stroke="#000000" stroke-width="2" /><polyline fill="none" points="44,64 44,41 9,41 9,64" stroke="#000000" stroke-width="2" /><path d="M42.5,91 c17.021,-15.548 23,-31.894 23,-79" fill="none" stroke="#000000" stroke-width="2" /><path d="M49,12 h43.5 c0,71.537 -2.684,77 -10,77 c-3.222,0 -9.236,-0.354 -16,-1" fill="none" stroke="#000000" stroke-width="2" /><path d="M48,32 c10.193,7.458 19.461,16.554 32,32" fill="none" stroke="#000000" stroke-width="2" /></svg>