<?xml version='1.0' encoding='utf-8'?>
<svg xmlns="http://www.w3.org/2000/svg" height="100px" version="1.0" viewBox="0 0 100 100" width="100px" x="0px" y="0px">
<line fill="none" stroke="#000000" stroke-width="2" x1="3.5" x2="45.5" y1="18" y2="18" /><line fill="none" stroke="#000000" stroke-width="2" x1="9" x2="40" y1="63" y2="63" /><line fill="none" stroke="#000000" stroke-width="2" x1="3" x2="44.5" y1="75.5" y2="75.5" /><line fill="none" stroke="#000000" stroke-width="2" x1="24.5" x2="24.5" y1="94" y2="30.5" /><line fill="none" stroke="#000000" stroke-width="2" x1="96.5" x2="45" y1="29" y2="29" /><line fill="none" stroke="#000000" stroke-width="2" x1="48.5" x2="92.5" y1="10" y2="10" /><line fill="none" stroke="#000000" stroke-width="2" x1="69.5" x2="69.5" y1="93.5" y2="51.5" /><line fill="none" stroke="#000000" stroke-width="2" x1="96.5" x2="44.5" y1="60.5" y2="60.5" /><polyline fill="none" points="35.5,6.5 35.5,30.5 13.5,30.5 13.5,6.5" stroke="#000000" stroke-width="2" /><polyline fill="none" points="41,64 41,41 8,41 8,64" stroke="#000000" stroke-width="2" /><path d="M44.5,51 c9.805,-5.356 18.831,-12.772 27,-22" fill="none" stroke="#000000" stroke-width="2" /><path d="M54.5,14.5 c5.971,3.989 12.234,8.916 18.5,14.5" fill="none" stroke="#000000" stroke-width="2" /><path d="M95.693,29.408 c-4.355,5.944 -9.473,11.056 -15.693,15.592" fill="none" stroke="#000000" stroke-width="2" /><path d="M41.5,89.5 c11.374,-7.137 20.784,-17.337 27,-29" fill="none" stroke="#000000" stroke-width="2" /><path d="M97.5,89.5 c-11.374,-7.138 -20.784,-17.337 -27,-29" fill="none" stroke="#000000" stroke-width="2" /><path d="M73,29 v17.25 c0,4.321 -0.859,5.25 -5,5.25 c-1.832,0 -5.482,-0.167 -10,-0.5" fill="none" stroke="#000000" stroke-width="2" /><path d="M91.841,10.248 c-6.896,6.046 -14.231,11.004 -22.841,15.252" fill="none" stroke="#000000" stroke-width="2" /></svg>