<?xml version='1.0' encoding='utf-8'?>
<svg xmlns="http://www.w3.org/2000/svg" height="100px" version="1.0" viewBox="0 0 100 100" width="100px" x="0px" y="0px">
<line fill="none" stroke="#000000" stroke-width="2" x1="5.5" x2="43.5" y1="18" y2="18" /><line fill="none" stroke="#000000" stroke-width="2" x1="45" x2="96" y1="10.5" y2="10.5" /><line fill="none" stroke="#000000" stroke-width="2" x1="51" x2="91" y1="57" y2="57" /><line fill="none" stroke="#000000" stroke-width="2" x1="51" x2="91" y1="41" y2="41" /><polyline fill="none" points="51,73.5 92,73.5 92,25.5 50,25.5 50,74.5" stroke="#000000" stroke-width="2" /><path d="M3.5,89 c13.224,-10.446 21,-28.368 21,-55 v-29.0" fill="none" stroke="#000000" stroke-width="2" /><path d="M44,84.5 c-5.507,-9.496 -13.439,-20.511 -21.081,-29.101" fill="none" stroke="#000000" stroke-width="2" /><path d="M70,10.5 c-0.84,5.553 -1.835,10.448 -3,15" fill="none" stroke="#000000" stroke-width="2" /><path d="M43,92.5 c8.577,-3.901 15.798,-9.151 20,-14" fill="none" stroke="#000000" stroke-width="2" /><path d="M96.5,93 c-4.77,-4.89 -11.318,-10.108 -18.5,-14.5" fill="none" stroke="#000000" stroke-width="2" /><path d="M3.5,62 c5.587,-10.071 9.525,-23.592 11,-39" fill="none" stroke="#000000" stroke-width="2" /><path d="M19,55.5 c-1.736,-6.35 -4.349,-12.452 -7,-16.5" fill="none" stroke="#000000" stroke-width="2" /><path d="M27.5,56.5 c5.033,-9.272 8.581,-20.714 10,-33.5" fill="none" stroke="#000000" stroke-width="2" /><path d="M46.5,62 c-3.478,-9.487 -7.657,-17.762 -12,-24" fill="none" stroke="#000000" stroke-width="2" /></svg>