<?xml version='1.0' encoding='utf-8'?>
<svg xmlns="http://www.w3.org/2000/svg" height="100px" version="1.0" viewBox="0 0 100 100" width="100px" x="0px" y="0px">
<line fill="none" stroke="#000000" stroke-width="2" x1="54" x2="95.5" y1="10.5" y2="10.5" /><line fill="none" stroke="#000000" stroke-width="2" x1="57.5" x2="90.5" y1="57" y2="57" /><line fill="none" stroke="#000000" stroke-width="2" x1="57.5" x2="90.5" y1="41" y2="41" /><line fill="none" stroke="#000000" stroke-width="2" x1="52.5" x2="3.5" y1="54.5" y2="54.5" /><line fill="none" stroke="#000000" stroke-width="2" x1="47.5" x2="8.5" y1="41.5" y2="41.5" /><polyline fill="none" points="57.5,73.5 91.5,73.5 91.5,25.5 56.5,25.5 56.5,74.5" stroke="#000000" stroke-width="2" /><polyline fill="none" points="7.5,30 24.5,30 24.5,10 6.5,10 6.5,31" stroke="#000000" stroke-width="2" /><polyline fill="none" points="32.5,30 49.5,30 49.5,10 31.5,10 31.5,31" stroke="#000000" stroke-width="2" /><path d="M50.5,92.5 c7.165,-3.835 13.354,-9.067 17,-14" fill="none" stroke="#000000" stroke-width="2" /><path d="M96,93 c-4.391,-4.882 -10.4,-10.108 -17,-14.5" fill="none" stroke="#000000" stroke-width="2" /><path d="M73,10.5 c-0.84,5.553 -1.835,10.448 -3,15" fill="none" stroke="#000000" stroke-width="2" /><path d="M15.5,54.5 c-1.573,8.483 -4.266,18.228 -7,25.5" fill="none" stroke="#000000" stroke-width="2" /><path d="M12.5,67.5 h33.5 c-1.989,22.13 -3.353,24 -8,24 c-2.494,0 -9.144,-0.433 -14,-1" fill="none" stroke="#000000" stroke-width="2" /></svg>