<?xml version='1.0' encoding='utf-8'?>
<svg xmlns="http://www.w3.org/2000/svg" height="100px" version="1.0" viewBox="0 0 100 100" width="100px" x="0px" y="0px">
<line fill="none" stroke="#000000" stroke-width="2" x1="12" x2="38" y1="72.5" y2="72.5" /><line fill="none" stroke="#000000" stroke-width="2" x1="12" x2="38" y1="59" y2="59" /><line fill="none" stroke="#000000" stroke-width="2" x1="44" x2="96.5" y1="16.5" y2="16.5" /><line fill="none" stroke="#000000" stroke-width="2" x1="70" x2="70" y1="16.5" y2="4" /><polyline fill="none" points="39,35 39,9.5 10,9.5 10,34" stroke="#000000" stroke-width="2" /><polyline fill="none" points="5.5,53.5 5.5,35 43.5,35 43.5,53.5" stroke="#000000" stroke-width="2" /><polyline fill="none" points="39,21 21.5,21 21.5,34" stroke="#000000" stroke-width="2" /><path d="M11,92 v-46.5 h27.0 v40.5 c0,4.177 -0.281,4.5 -3.5,4.5 c-1.494,0 -4.179,-0.142 -8.5,-0.5" fill="none" stroke="#000000" stroke-width="2" /><path d="M45,69.5 c17.669,-9.105 32.424,-24.201 42,-43" fill="none" stroke="#000000" stroke-width="2" /><path d="M44,91 c20.285,-7.318 38.711,-22.928 50,-42" fill="none" stroke="#000000" stroke-width="2" /><path d="M69.5,51 c-6.766,-6.858 -16.549,-15.007 -24.5,-20.5" fill="none" stroke="#000000" stroke-width="2" /><path d="M55,38 c5.256,-5.642 10.178,-12.621 15,-21.5" fill="none" stroke="#000000" stroke-width="2" /><path d="M96,91.5 c-4.633,-7.718 -10.525,-14.491 -19,-21.5" fill="none" stroke="#000000" stroke-width="2" /></svg>