<?xml version='1.0' encoding='utf-8'?>
<svg xmlns="http://www.w3.org/2000/svg" height="100px" version="1.0" viewBox="0 0 100 100" width="100px" x="0px" y="0px">
<line fill="none" stroke="#000000" stroke-width="2" x1="96" x2="46" y1="12.5" y2="12.5" /><line fill="none" stroke="#000000" stroke-width="2" x1="56.5" x2="56.5" y1="93.5" y2="48" /><line fill="none" stroke="#000000" stroke-width="2" x1="56.5" x2="91.5" y1="86.5" y2="86.5" /><line fill="none" stroke="#000000" stroke-width="2" x1="15.5" x2="33" y1="11" y2="11" /><line fill="none" stroke="#000000" stroke-width="2" x1="10" x2="41" y1="45" y2="45" /><line fill="none" stroke="#000000" stroke-width="2" x1="25.5" x2="25.5" y1="27" y2="64" /><polyline fill="none" points="57,47.5 91.5,47.5 91.5,93.5" stroke="#000000" stroke-width="2" /><polyline fill="none" points="9,66 9,26 42,26 42,65 10,65" stroke="#000000" stroke-width="2" /><path d="M45,64 c11.107,-11.074 17.821,-26.017 21,-51.5" fill="none" stroke="#000000" stroke-width="2" /><path d="M25.5,26 c2.311,-4.407 4.655,-9.57 6.57,-14.37" fill="none" stroke="#000000" stroke-width="2" /><path d="M3.5,33.5 c6.199,-8.898 11.051,-19.157 14.5,-31" fill="none" stroke="#000000" stroke-width="2" /><path d="M46,88 c-1.662,-5.851 -4.031,-12.286 -7,-19" fill="none" stroke="#000000" stroke-width="2" /><path d="M33,90.75 c-0.899,-6.479 -2.397,-13.441 -4.5,-21" fill="none" stroke="#000000" stroke-width="2" /><path d="M20,93.5 c-0.137,-7.107 -0.764,-14.597 -2,-23" fill="none" stroke="#000000" stroke-width="2" /><path d="M4,94.5 c2.512,-7.089 4.387,-15.212 5.5,-24.5" fill="none" stroke="#000000" stroke-width="2" /></svg>