<?xml version='1.0' encoding='utf-8'?>
<svg xmlns="http://www.w3.org/2000/svg" height="100px" version="1.0" viewBox="0 0 100 100" width="100px" x="0px" y="0px">
<line fill="none" stroke="#000000" stroke-width="2" x1="15.5" x2="31.5" y1="11" y2="11" /><line fill="none" stroke="#000000" stroke-width="2" x1="10" x2="38" y1="45" y2="45" /><line fill="none" stroke="#000000" stroke-width="2" x1="24" x2="24" y1="27" y2="64" /><line fill="none" stroke="#000000" stroke-width="2" x1="97" x2="41.5" y1="16.5" y2="16.5" /><line fill="none" stroke="#000000" stroke-width="2" x1="52" x2="52" y1="93" y2="35" /><line fill="none" stroke="#000000" stroke-width="2" x1="52" x2="91.5" y1="72" y2="72" /><line fill="none" stroke="#000000" stroke-width="2" x1="53" x2="91.5" y1="53" y2="53" /><polyline fill="none" points="9,66 9,26 39,26 39,65 10,65" stroke="#000000" stroke-width="2" /><path d="M24,26 c2.311,-4.407 4.655,-9.57 6.57,-14.37" fill="none" stroke="#000000" stroke-width="2" /><path d="M3.5,33.5 c6.199,-8.898 11.051,-19.157 14.5,-31" fill="none" stroke="#000000" stroke-width="2" /><path d="M42.5,87.5 c-1.178,-5.596 -2.902,-12.039 -5,-18.5" fill="none" stroke="#000000" stroke-width="2" /><path d="M31,90.5 c-0.657,-6.352 -1.833,-13.317 -3.5,-20.75" fill="none" stroke="#000000" stroke-width="2" /><path d="M19.5,93.5 c-0.137,-7.107 -0.764,-14.597 -2,-23" fill="none" stroke="#000000" stroke-width="2" /><path d="M4,94.5 c2.512,-7.089 4.387,-15.212 5.5,-24.5" fill="none" stroke="#000000" stroke-width="2" /><path d="M39,51 c11.588,-11.392 19.448,-25.579 24.5,-46" fill="none" stroke="#000000" stroke-width="2" /><path d="M52.5,34.5 h39.0 v52.46 c0,4.178 -0.381,4.54 -6,4.54 c-2.174,0 -5.705,-0.159 -12,-0.5" fill="none" stroke="#000000" stroke-width="2" /></svg>