<?xml version='1.0' encoding='utf-8'?>
<svg xmlns="http://www.w3.org/2000/svg" height="100px" version="1.0" viewBox="0 0 100 100" width="100px" x="0px" y="0px">
<line fill="none" stroke="#000000" stroke-width="2" x1="14.5" x2="28.5" y1="11" y2="11" /><line fill="none" stroke="#000000" stroke-width="2" x1="9" x2="34" y1="45" y2="45" /><line fill="none" stroke="#000000" stroke-width="2" x1="21.5" x2="21.5" y1="27" y2="64" /><line fill="none" stroke="#000000" stroke-width="2" x1="96" x2="38" y1="62" y2="62" /><line fill="none" stroke="#000000" stroke-width="2" x1="96.5" x2="36.5" y1="17" y2="17" /><line fill="none" stroke="#000000" stroke-width="2" x1="66" x2="66" y1="94" y2="49.5" /><line fill="none" stroke="#000000" stroke-width="2" x1="86" x2="86" y1="37.5" y2="6" /><polyline fill="none" points="8,66 8,26 35,26 35,65 9,65" stroke="#000000" stroke-width="2" /><polyline fill="none" points="44.5,6 44.5,49.5 93.5,49.5" stroke="#000000" stroke-width="2" /><polyline fill="none" points="62,6 62,36.5 85,36.5" stroke="#000000" stroke-width="2" /><path d="M21,26 c2.311,-4.407 4.655,-9.57 6.57,-14.37" fill="none" stroke="#000000" stroke-width="2" /><path d="M3.5,32.5 c5.917,-9.088 10.051,-18.157 13.5,-30" fill="none" stroke="#000000" stroke-width="2" /><path d="M38.5,83.5 c-0.941,-4.386 -2.322,-9.436 -4,-14.5" fill="none" stroke="#000000" stroke-width="2" /><path d="M28,90.5 c-0.521,-6.352 -1.447,-13.317 -2.75,-20.75" fill="none" stroke="#000000" stroke-width="2" /><path d="M17.5,93.5 c-0.103,-7.107 -0.572,-14.597 -1.5,-23" fill="none" stroke="#000000" stroke-width="2" /><path d="M4,94.5 c2.512,-7.089 4.387,-15.212 5.5,-24.5" fill="none" stroke="#000000" stroke-width="2" /><path d="M35,91 c14.587,-9.494 23.99,-18.809 30,-29" fill="none" stroke="#000000" stroke-width="2" /><path d="M97,91 c-14.587,-9.494 -23.99,-18.808 -30,-29" fill="none" stroke="#000000" stroke-width="2" /></svg>