<?xml version='1.0' encoding='utf-8'?>
<svg xmlns="http://www.w3.org/2000/svg" height="100px" version="1.0" viewBox="0 0 100 100" width="100px" x="0px" y="0px">
<line fill="none" stroke="#000000" stroke-width="2" x1="15.5" x2="32" y1="11" y2="11" /><line fill="none" stroke="#000000" stroke-width="2" x1="10" x2="39" y1="45" y2="45" /><line fill="none" stroke="#000000" stroke-width="2" x1="24.5" x2="24.5" y1="27" y2="64" /><line fill="none" stroke="#000000" stroke-width="2" x1="47.5" x2="90.5" y1="29.5" y2="29.5" /><line fill="none" stroke="#000000" stroke-width="2" x1="96" x2="40" y1="89.5" y2="89.5" /><line fill="none" stroke="#000000" stroke-width="2" x1="94" x2="44" y1="57" y2="57" /><line fill="none" stroke="#000000" stroke-width="2" x1="91.5" x2="46.5" y1="72.5" y2="72.5" /><line fill="none" stroke="#000000" stroke-width="2" x1="68.5" x2="68.5" y1="89.5" y2="57" /><polyline fill="none" points="9,66 9,26 40,26 40,65 10,65" stroke="#000000" stroke-width="2" /><polyline fill="none" points="47.5,46 90.5,46 90.5,14 46.5,14 46.5,47" stroke="#000000" stroke-width="2" /><path d="M24.5,26 c2.311,-4.407 4.655,-9.57 6.57,-14.37" fill="none" stroke="#000000" stroke-width="2" /><path d="M3.5,33.5 c6.199,-8.898 11.051,-19.157 14.5,-31" fill="none" stroke="#000000" stroke-width="2" /><path d="M45,85 c-1.425,-4.927 -3.455,-10.347 -6,-16" fill="none" stroke="#000000" stroke-width="2" /><path d="M33,90.75 c-0.899,-6.479 -2.397,-13.441 -4.5,-21" fill="none" stroke="#000000" stroke-width="2" /><path d="M20,93.5 c-0.137,-7.107 -0.764,-14.597 -2,-23" fill="none" stroke="#000000" stroke-width="2" /><path d="M4,94.5 c2.512,-7.089 4.387,-15.212 5.5,-24.5" fill="none" stroke="#000000" stroke-width="2" /><path d="M69.5,3 c-1.629,4.058 -3.594,7.636 -6,11" fill="none" stroke="#000000" stroke-width="2" /></svg>