<?xml version='1.0' encoding='utf-8'?>
<svg xmlns="http://www.w3.org/2000/svg" height="100px" version="1.0" viewBox="0 0 100 100" width="100px" x="0px" y="0px">
<line fill="none" stroke="#000000" stroke-width="2" x1="14.5" x2="28.5" y1="11" y2="11" /><line fill="none" stroke="#000000" stroke-width="2" x1="9" x2="34" y1="45" y2="45" /><line fill="none" stroke="#000000" stroke-width="2" x1="21.5" x2="21.5" y1="27" y2="64" /><line fill="none" stroke="#000000" stroke-width="2" x1="67" x2="67" y1="11.5" y2="50.5" /><line fill="none" stroke="#000000" stroke-width="2" x1="43" x2="92" y1="30" y2="30" /><polyline fill="none" points="8,66 8,26 35,26 35,65 9,65" stroke="#000000" stroke-width="2" /><polyline fill="none" points="43,50.5 92,50.5 92,10.5 42,10.5 42,51.5" stroke="#000000" stroke-width="2" /><path d="M21,26 c2.311,-4.407 4.655,-9.57 6.57,-14.37" fill="none" stroke="#000000" stroke-width="2" /><path d="M3.5,32.5 c5.917,-9.088 10.051,-18.157 13.5,-30" fill="none" stroke="#000000" stroke-width="2" /><path d="M38.5,81.5 c-0.941,-3.78 -2.322,-8.134 -4,-12.5" fill="none" stroke="#000000" stroke-width="2" /><path d="M28,90.5 c-0.521,-6.352 -1.447,-13.317 -2.75,-20.75" fill="none" stroke="#000000" stroke-width="2" /><path d="M17.5,93.5 c-0.103,-7.107 -0.572,-14.597 -1.5,-23" fill="none" stroke="#000000" stroke-width="2" /><path d="M4,94.5 c2.512,-7.089 4.387,-15.212 5.5,-24.5" fill="none" stroke="#000000" stroke-width="2" /><path d="M54,58.5 v21.0 c0,11.755 0.297,12 14,12 c16.203,0 16.492,-0.224 17.5,-18.5" fill="none" stroke="#000000" stroke-width="2" /><path d="M35.5,87.5 c4.342,-7.342 7.979,-17.042 10,-27" fill="none" stroke="#000000" stroke-width="2" /><path d="M97,88 c-2.934,-9.656 -6.709,-19.713 -11,-29" fill="none" stroke="#000000" stroke-width="2" /><path d="M75.5,76.5 c-4.018,-6.058 -8.734,-12.142 -14,-18" fill="none" stroke="#000000" stroke-width="2" /></svg>