<?xml version='1.0' encoding='utf-8'?>
<svg xmlns="http://www.w3.org/2000/svg" height="100px" version="1.0" viewBox="0 0 100 100" width="100px" x="0px" y="0px">
<line fill="none" stroke="#000000" stroke-width="2" x1="14.5" x2="28.5" y1="11" y2="11" /><line fill="none" stroke="#000000" stroke-width="2" x1="9" x2="34" y1="45" y2="45" /><line fill="none" stroke="#000000" stroke-width="2" x1="21.5" x2="21.5" y1="27" y2="64" /><line fill="none" stroke="#000000" stroke-width="2" x1="42.74" x2="96" y1="38.5" y2="38.5" /><line fill="none" stroke="#000000" stroke-width="2" x1="68" x2="68" y1="13.5" y2="3" /><polyline fill="none" points="8,66 8,26 35,26 35,65 9,65" stroke="#000000" stroke-width="2" /><polyline fill="none" points="48,53 91,53 91,24.5 48,24.5" stroke="#000000" stroke-width="2" /><path d="M28,90.5 c-0.521,-6.352 -1.447,-13.317 -2.75,-20.75" fill="none" stroke="#000000" stroke-width="2" /><path d="M21,26 c2.311,-4.407 4.655,-9.57 6.57,-14.37" fill="none" stroke="#000000" stroke-width="2" /><path d="M3.5,32.5 c5.917,-9.088 10.051,-18.157 13.5,-30" fill="none" stroke="#000000" stroke-width="2" /><path d="M37,81 c-0.691,-3.929 -1.504,-7.838 -2.5,-12" fill="none" stroke="#000000" stroke-width="2" /><path d="M17.5,93.5 c-0.103,-7.107 -0.572,-14.597 -1.5,-23" fill="none" stroke="#000000" stroke-width="2" /><path d="M4,94.5 c2.512,-7.089 4.387,-15.212 5.5,-24.5" fill="none" stroke="#000000" stroke-width="2" /><path d="M70.5,13.5 v70.5 c0,6.687 -1.109,8 -5,8 c-1.766,0 -4.818,-0.169 -8.5,-0.5" fill="none" stroke="#000000" stroke-width="2" /><path d="M70.5,55.5 c4.369,12.632 14.27,25.729 25.5,33.5" fill="none" stroke="#000000" stroke-width="2" /><path d="M92.5,57.5 c-3.587,5.704 -8.174,10.98 -13,15" fill="none" stroke="#000000" stroke-width="2" /><path d="M43,87.5 c10.557,-5.765 20.404,-13.319 27.5,-21" fill="none" stroke="#000000" stroke-width="2" /><path d="M58.5,72 c-2.652,-4.096 -6.403,-9.115 -10.5,-14" fill="none" stroke="#000000" stroke-width="2" /><path d="M35.889,92 c3.598,-10.415 6.611,-30.94 6.611,-47 v-31.5 h52.5" fill="none" stroke="#000000" stroke-width="2" /></svg>