<?xml version='1.0' encoding='utf-8'?>
<svg xmlns="http://www.w3.org/2000/svg" height="100px" version="1.0" viewBox="0 0 100 100" width="100px" x="0px" y="0px">
<line fill="none" stroke="#000000" stroke-width="2" x1="14.5" x2="28.5" y1="11" y2="11" /><line fill="none" stroke="#000000" stroke-width="2" x1="9" x2="34" y1="45" y2="45" /><line fill="none" stroke="#000000" stroke-width="2" x1="21.5" x2="21.5" y1="27" y2="64" /><line fill="none" stroke="#000000" stroke-width="2" x1="42.5" x2="92" y1="49" y2="49" /><line fill="none" stroke="#000000" stroke-width="2" x1="37" x2="97" y1="14" y2="14" /><line fill="none" stroke="#000000" stroke-width="2" x1="97" x2="39" y1="70.5" y2="70.5" /><polyline fill="none" points="8,66 8,26 35,26 35,65 9,65" stroke="#000000" stroke-width="2" /><polyline fill="none" points="42.5,60 92,60 92,24.5 41.5,24.5 41.5,61" stroke="#000000" stroke-width="2" /><path d="M21,26 c2.311,-4.407 4.655,-9.57 6.57,-14.37" fill="none" stroke="#000000" stroke-width="2" /><path d="M3.5,32.5 c5.917,-9.088 10.051,-18.157 13.5,-30" fill="none" stroke="#000000" stroke-width="2" /><path d="M38.5,87.5 c-0.941,-5.596 -2.322,-12.039 -4,-18.5" fill="none" stroke="#000000" stroke-width="2" /><path d="M28,90.5 c-0.521,-6.352 -1.447,-13.317 -2.75,-20.75" fill="none" stroke="#000000" stroke-width="2" /><path d="M17.5,93.5 c-0.103,-7.107 -0.572,-14.597 -1.5,-23" fill="none" stroke="#000000" stroke-width="2" /><path d="M4,94.5 c2.512,-7.089 4.387,-15.212 5.5,-24.5" fill="none" stroke="#000000" stroke-width="2" /><path d="M58.5,15 v10.5 c0,9.692 -4.695,15.778 -14,19" fill="none" stroke="#000000" stroke-width="2" /><path d="M71.5,14 v19.5 c0,5.782 0.828,6.5 7.5,6.5 h12.0" fill="none" stroke="#000000" stroke-width="2" /><path d="M57.5,14 c-1.91,-3.378 -3.995,-6.685 -6,-9.5" fill="none" stroke="#000000" stroke-width="2" /><path d="M75,14 c2.271,-3.126 4.423,-6.544 6,-9.5" fill="none" stroke="#000000" stroke-width="2" /><path d="M62.5,90 c-3.848,-4.959 -9.109,-10.474 -14.5,-15" fill="none" stroke="#000000" stroke-width="2" /><path d="M85,60 v24.0 c0,7.005 -0.462,7.5 -6,7.5 c-1.803,0 -6.354,-0.169 -12,-0.5" fill="none" stroke="#000000" stroke-width="2" /></svg>