<?xml version='1.0' encoding='utf-8'?>
<svg xmlns="http://www.w3.org/2000/svg" height="100px" version="1.0" viewBox="0 0 100 100" width="100px" x="0px" y="0px">
<line fill="none" stroke="#000000" stroke-width="2" x1="44" x2="87.5" y1="27" y2="27" /><line fill="none" stroke="#000000" stroke-width="2" x1="44" x2="96.5" y1="51" y2="51" /><path d="M84,81.5 c-1.74,-4.006 -3.701,-8.256 -6,-13" fill="none" stroke="#000000" stroke-width="2" /><path d="M69,85.5 c-1.184,-4.938 -2.643,-10.145 -4.5,-16" fill="none" stroke="#000000" stroke-width="2" /><path d="M54,89.5 c-0.627,-5.871 -1.585,-12.033 -3,-19" fill="none" stroke="#000000" stroke-width="2" /><path d="M33.5,92 c2.822,-6.483 5.301,-13.668 7.5,-22" fill="none" stroke="#000000" stroke-width="2" /><path d="M44,40.5 h44.5 V14.0 H43.0 v49.0 h50.5 c0,23.392 -3.272,28.5 -8,28.5 c-2.361,0 -5.755,-0.328 -10,-1" fill="none" stroke="#000000" stroke-width="2" /><path d="M63,2.5 c-0.881,4.218 -1.853,7.964 -3,11.5" fill="none" stroke="#000000" stroke-width="2" /><path d="M2.5,90 c7.275,-12.095 12,-33.464 12,-63 v-23.0" fill="none" stroke="#000000" stroke-width="2" /><path d="M3,24 h24.5 l0.5,42.5 c0,4.724 0.275,5 4,5 c4.549,0 4.797,-0.336 5,-22.5" fill="none" stroke="#000000" stroke-width="2" /></svg>