<?xml version='1.0' encoding='utf-8'?>
<svg xmlns="http://www.w3.org/2000/svg" height="100px" version="1.0" viewBox="0 0 100 100" width="100px" x="0px" y="0px">
<line fill="none" stroke="#000000" stroke-width="2" x1="27.5" x2="71" y1="38.5" y2="38.5" /><line fill="none" stroke="#000000" stroke-width="2" x1="26.5" x2="79.5" y1="58.5" y2="58.5" /><line fill="none" stroke="#000000" stroke-width="2" x1="21" x2="77" y1="19" y2="19" /><path d="M4.5,92.5 c6.738,-10.179 10.5,-25.519 10.5,-50.5 v-32.0 h68.0 c0,64.188 4.436,82 8,82 c1.634,0 3.873,-4.224 5,-22" fill="none" stroke="#000000" stroke-width="2" /><path d="M68,84.5 c-1.74,-3.853 -3.693,-7.942 -6,-12.5" fill="none" stroke="#000000" stroke-width="2" /><path d="M53,87.25 c-1.184,-4.476 -2.639,-9.196 -4.5,-14.5" fill="none" stroke="#000000" stroke-width="2" /><path d="M38,90 c-0.627,-5.098 -1.585,-10.449 -3,-16.5" fill="none" stroke="#000000" stroke-width="2" /><path d="M17.5,92 c2.822,-5.6 5.301,-11.805 7.5,-19" fill="none" stroke="#000000" stroke-width="2" /><path d="M27.5,49 h43.5 v-21.0 h-44.5 v40.0 h51.0 c0,18.618 -3.022,23.5 -8,23.5 c-2.361,0 -5.775,-0.308 -10,-1" fill="none" stroke="#000000" stroke-width="2" /><path d="M47.5,19 c-0.881,3.301 -1.853,6.233 -3,9" fill="none" stroke="#000000" stroke-width="2" /></svg>