<?xml version='1.0' encoding='utf-8'?>
<svg xmlns="http://www.w3.org/2000/svg" height="100px" version="1.0" viewBox="0 0 100 100" width="100px" x="0px" y="0px">
<line fill="none" stroke="#000000" stroke-width="2" x1="51" x2="89.5" y1="27" y2="27" /><line fill="none" stroke="#000000" stroke-width="2" x1="51" x2="96" y1="51" y2="51" /><line fill="none" stroke="#000000" stroke-width="2" x1="24.5" x2="24.5" y1="94" y2="18.5" /><path d="M86.5,81.5 c-1.595,-4.006 -3.402,-8.252 -5.5,-13" fill="none" stroke="#000000" stroke-width="2" /><path d="M74.5,85.5 c-1.111,-4.938 -2.499,-10.142 -4.25,-16" fill="none" stroke="#000000" stroke-width="2" /><path d="M62.5,89.5 c-0.627,-5.871 -1.596,-12.03 -3,-19" fill="none" stroke="#000000" stroke-width="2" /><path d="M46,92 c2.445,-6.483 4.594,-13.668 6.5,-22" fill="none" stroke="#000000" stroke-width="2" /><path d="M51,40.5 h39.5 V14.0 H50.0 v49.0 h43.5 c0,22.796 -3.273,28.5 -8.5,28.5 c-2.529,0 -6.451,-0.328 -11,-1" fill="none" stroke="#000000" stroke-width="2" /><path d="M67.5,2.5 c-0.889,4.216 -1.853,7.964 -3,11.5" fill="none" stroke="#000000" stroke-width="2" /><path d="M18.5,18.5 c-1.913,-4.796 -3.995,-9.498 -6,-13.5" fill="none" stroke="#000000" stroke-width="2" /><path d="M30.5,18.5 c2.266,-4.448 4.43,-9.299 6,-13.5" fill="none" stroke="#000000" stroke-width="2" /><path d="M7,57 h37.0 c0,27.763 -0.842,29.5 -4.5,29.5 c-1.615,0 -5.154,-0.341 -9,-1" fill="none" stroke="#000000" stroke-width="2" /><path d="M5.5,18.5 h37.0 v19.5 H9.0 c-0.682,9.927 -1.922,19.277 -3.5,27.5" fill="none" stroke="#000000" stroke-width="2" /><path d="M3,90.5 c9.077,-9.544 15.951,-20.712 20.5,-33.5" fill="none" stroke="#000000" stroke-width="2" /></svg>