<?xml version='1.0' encoding='utf-8'?>
<svg xmlns="http://www.w3.org/2000/svg" height="100px" version="1.0" viewBox="0 0 100 100" width="100px" x="0px" y="0px">
<line fill="none" stroke="#000000" stroke-width="2" x1="51" x2="89.5" y1="27" y2="27" /><line fill="none" stroke="#000000" stroke-width="2" x1="51" x2="96" y1="51" y2="51" /><line fill="none" stroke="#000000" stroke-width="2" x1="45.5" x2="3.5" y1="54.5" y2="54.5" /><line fill="none" stroke="#000000" stroke-width="2" x1="42.5" x2="7.5" y1="41.5" y2="41.5" /><polyline fill="none" points="7,30 22,30 22,10 6,10 6,31" stroke="#000000" stroke-width="2" /><polyline fill="none" points="29,30 44,30 44,10 28,10 28,31" stroke="#000000" stroke-width="2" /><path d="M85.5,81.5 c-1.595,-4.006 -3.402,-8.252 -5.5,-13" fill="none" stroke="#000000" stroke-width="2" /><path d="M72.5,85.5 c-1.111,-4.938 -2.499,-10.142 -4.25,-16" fill="none" stroke="#000000" stroke-width="2" /><path d="M59.5,89.5 c-0.627,-5.871 -1.596,-12.03 -3,-19" fill="none" stroke="#000000" stroke-width="2" /><path d="M42,92 c2.445,-6.483 4.594,-13.668 6.5,-22" fill="none" stroke="#000000" stroke-width="2" /><path d="M51,40.5 h39.5 V14.0 H50.0 v49.0 h43.5 c0,22.796 -3.273,28.5 -8.5,28.5 c-2.529,0 -6.451,-0.328 -11,-1" fill="none" stroke="#000000" stroke-width="2" /><path d="M67.5,2.5 c-0.889,4.216 -1.853,7.964 -3,11.5" fill="none" stroke="#000000" stroke-width="2" /><path d="M14.5,54.5 c-1.573,8.483 -4.266,18.228 -7,25.5" fill="none" stroke="#000000" stroke-width="2" /><path d="M11.5,67.5 h28.0 c-1.989,22.13 -3.353,24 -8,24 c-2.494,0 -9.144,-0.433 -14,-1" fill="none" stroke="#000000" stroke-width="2" /></svg>