<?xml version='1.0' encoding='utf-8'?>
<svg xmlns="http://www.w3.org/2000/svg" height="100px" version="1.0" viewBox="0 0 100 100" width="100px" x="0px" y="0px">
<line fill="none" stroke="#000000" stroke-width="2" x1="19" x2="79.5" y1="53" y2="53" /><line fill="none" stroke="#000000" stroke-width="2" x1="18" x2="93" y1="68" y2="68" /><line fill="none" stroke="#000000" stroke-width="2" x1="93" x2="52" y1="14.5" y2="14.5" /><line fill="none" stroke="#000000" stroke-width="2" x1="29" x2="29" y1="11" y2="4.5" /><line fill="none" stroke="#000000" stroke-width="2" x1="6" x2="51" y1="11" y2="11" /><polyline fill="none" points="13.5,27 45.5,27 45.5,16.5 12.5,16.5 12.5,28" stroke="#000000" stroke-width="2" /><path d="M76,87.5 c-2.305,-2.783 -4.887,-5.723 -8,-9" fill="none" stroke="#000000" stroke-width="2" /><path d="M55,89.75 c-1.569,-3.323 -3.487,-6.819 -6,-10.75" fill="none" stroke="#000000" stroke-width="2" /><path d="M34,92 c-0.834,-3.863 -2.088,-7.917 -4,-12.5" fill="none" stroke="#000000" stroke-width="2" /><path d="M6,93 c3.813,-4.272 7.107,-8.999 10,-14.5" fill="none" stroke="#000000" stroke-width="2" /><path d="M19,61 h60.5 v-16.0 H18.0 v30.0 h71.0 c0,11.852 -4.155,17.5 -10.5,17.5 c-3.191,0 -7.793,-0.141 -13.5,-0.5" fill="none" stroke="#000000" stroke-width="2" /><path d="M41.5,37.5 c-1.16,2.753 -2.449,5.194 -4,7.5" fill="none" stroke="#000000" stroke-width="2" /><path d="M77,4.5 c4.301,2.309 7.939,4.425 12,7" fill="none" stroke="#000000" stroke-width="2" /><path d="M50,41 c12.315,-5.261 19.5,-14.992 19.5,-26 v-10.0" fill="none" stroke="#000000" stroke-width="2" /><path d="M74,18.5 v17.5 c0,3.222 0.381,3.5 8,3.5 c10.262,0 10.541,-0.206 11,-12" fill="none" stroke="#000000" stroke-width="2" /><path d="M30,27 v9.5 c0,2.923 -0.557,3.5 -4.5,3.5 c-1.668,0 -4.33,-0.154 -8,-0.5" fill="none" stroke="#000000" stroke-width="2" /><path d="M6.5,41.5 c5.158,-2.926 9.906,-7.189 13,-11.5" fill="none" stroke="#000000" stroke-width="2" /><path d="M47.5,37.5 c-2.872,-2.693 -6.343,-5.319 -10,-7.5" fill="none" stroke="#000000" stroke-width="2" /></svg>