<?xml version='1.0' encoding='utf-8'?>
<svg xmlns="http://www.w3.org/2000/svg" height="100px" version="1.0" viewBox="0 0 100 100" width="100px" x="0px" y="0px">
<line fill="none" stroke="#000000" stroke-width="2" x1="23.5" x2="23.5" y1="3.5" y2="28" /><line fill="none" stroke="#000000" stroke-width="2" x1="42.5" x2="23.5" y1="13" y2="13" /><line fill="none" stroke="#000000" stroke-width="2" x1="8" x2="39" y1="88.5" y2="88.5" /><line fill="none" stroke="#000000" stroke-width="2" x1="86.5" x2="52.5" y1="26" y2="26" /><polyline fill="none" points="40,89.5 40,28 8,28 8,94.5" stroke="#000000" stroke-width="2" /><polyline fill="none" points="48,62 48,38 91,38 91,61 49,61" stroke="#000000" stroke-width="2" /><path d="M96.5,30 c-10.502,-7.564 -18.766,-15.2 -27,-25 c-8.234,9.8 -16.498,17.436 -27,25" fill="none" stroke="#000000" stroke-width="2" /><path d="M42.5,92 c16.392,-6.803 27,-21.03 27,-35.5 V27.0" fill="none" stroke="#000000" stroke-width="2" /><path d="M96.5,92 c-16.393,-6.805 -27,-21.029 -27,-35.5" fill="none" stroke="#000000" stroke-width="2" /><path d="M36.5,78 c-9.925,-16.97 -17.676,-28.789 -25,-38.5" fill="none" stroke="#000000" stroke-width="2" /><path d="M11,83.5 c10.404,-15.055 18.154,-31.843 23,-50.5" fill="none" stroke="#000000" stroke-width="2" /><path d="M25,44 c-2.026,-4.388 -4.299,-8.751 -6.5,-12.5" fill="none" stroke="#000000" stroke-width="2" /><path d="M29.5,85 c-2.026,-4.388 -4.299,-8.751 -6.5,-12.5" fill="none" stroke="#000000" stroke-width="2" /><path d="M16.5,67 c-1.715,-5.088 -3.637,-10.149 -5.5,-14.5" fill="none" stroke="#000000" stroke-width="2" /><path d="M37,65 c-1.715,-5.088 -3.637,-10.149 -5.5,-14.5" fill="none" stroke="#000000" stroke-width="2" /></svg>