<?xml version='1.0' encoding='utf-8'?>
<svg xmlns="http://www.w3.org/2000/svg" height="100px" version="1.0" viewBox="0 0 100 100" width="100px" x="0px" y="0px">
<line fill="none" stroke="#000000" stroke-width="2" x1="73" x2="73" y1="48" y2="4" /><line fill="none" stroke="#000000" stroke-width="2" x1="95.5" x2="50.5" y1="25.5" y2="25.5" /><line fill="none" stroke="#000000" stroke-width="2" x1="58.5" x2="72.5" y1="50.5" y2="50.5" /><line fill="none" stroke="#000000" stroke-width="2" x1="87" x2="87" y1="94" y2="42.5" /><line fill="none" stroke="#000000" stroke-width="2" x1="71.5" x2="95.5" y1="55.5" y2="55.5" /><line fill="none" stroke="#000000" stroke-width="2" x1="76" x2="76" y1="78" y2="56.5" /><line fill="none" stroke="#000000" stroke-width="2" x1="96.5" x2="68" y1="78" y2="78" /><line fill="none" stroke="#000000" stroke-width="2" x1="34" x2="34" y1="14.5" y2="47" /><line fill="none" stroke="#000000" stroke-width="2" x1="21" x2="21" y1="14.5" y2="47" /><line fill="none" stroke="#000000" stroke-width="2" x1="28" x2="28" y1="13.5" y2="3" /><line fill="none" stroke="#000000" stroke-width="2" x1="16" x2="29.5" y1="65.5" y2="65.5" /><line fill="none" stroke="#000000" stroke-width="2" x1="16" x2="16" y1="90.5" y2="52.5" /><polyline fill="none" points="8.5,48 46.5,48 46.5,28 8.5,28" stroke="#000000" stroke-width="2" /><path d="M64.5,21 c-3.811,-4.995 -7.988,-9.862 -12,-14" fill="none" stroke="#000000" stroke-width="2" /><path d="M81.5,21 c4.816,-4.448 9.131,-9.551 12,-14" fill="none" stroke="#000000" stroke-width="2" /><path d="M96,47 c-10.5,-6.993 -17.503,-14.011 -22,-21.5" fill="none" stroke="#000000" stroke-width="2" /><path d="M48,69 c5.896,-7.314 10.266,-16.166 13,-26.5" fill="none" stroke="#000000" stroke-width="2" /><path d="M71.501,51.457 c-0.81,18.768 -11.036,35.099 -25.001,41.543" fill="none" stroke="#000000" stroke-width="2" /><path d="M66.5,72 c-3.296,-3.236 -7.428,-6.818 -11,-9.5" fill="none" stroke="#000000" stroke-width="2" /><path d="M50,47 c10.512,-6.975 17.504,-14.011 22,-21.5" fill="none" stroke="#000000" stroke-width="2" /><path d="M4,92 c2.421,-10.294 4.5,-30.815 4.5,-47 v-31.5 H48.0" fill="none" stroke="#000000" stroke-width="2" /><path d="M33,52.5 v30.0 c0,4.739 0.26,5 6.5,5 c8.129,0 8.334,-0.192 9,-14" fill="none" stroke="#000000" stroke-width="2" /><path d="M33,68 c5.399,-2.563 10.152,-5.914 15.5,-11" fill="none" stroke="#000000" stroke-width="2" /><path d="M8.5,92.5 c7.329,-1.764 13.941,-4.195 21.5,-8" fill="none" stroke="#000000" stroke-width="2" /></svg>