<?xml version='1.0' encoding='utf-8'?>
<svg xmlns="http://www.w3.org/2000/svg" height="100px" version="1.0" viewBox="0 0 100 100" width="100px" x="0px" y="0px">
<line fill="none" stroke="#000000" stroke-width="2" x1="18.5" x2="81.5" y1="45" y2="45" /><line fill="none" stroke="#000000" stroke-width="2" x1="17.5" x2="83" y1="67" y2="67" /><line fill="none" stroke="#000000" stroke-width="2" x1="49" x2="49" y1="24" y2="93.5" /><path d="M4.5,93 c8.947,-7.81 14,-19.89 14,-39 v-31.0 h62.5 c0,56.104 5.545,69.5 10,69.5 c1.766,0 3.627,-3.679 5,-20.5" fill="none" stroke="#000000" stroke-width="2" /><path d="M30,23 c-3.097,-6.308 -6.549,-12.341 -10,-17.5" fill="none" stroke="#000000" stroke-width="2" /><path d="M53,23 c-3.098,-6.667 -6.549,-13.046 -10,-18.5" fill="none" stroke="#000000" stroke-width="2" /><path d="M68,23 c4.654,-6.196 8.771,-12.591 12,-18.5" fill="none" stroke="#000000" stroke-width="2" /></svg>