<?xml version='1.0' encoding='utf-8'?>
<svg xmlns="http://www.w3.org/2000/svg" height="100px" version="1.0" viewBox="0 0 100 100" width="100px" x="0px" y="0px">
<line fill="none" stroke="#000000" stroke-width="2" x1="6" x2="87.5" y1="40" y2="25.5" /><path d="M87,81.5 c-9.897,1.891 -26.917,3.5 -38,3.5 c-13.062,0 -16,-2.871 -16,-16 v-59.0" fill="none" stroke="#000000" stroke-width="2" /><path d="M84,82.5 c-9.965,1.492 -23.917,2.5 -35,2.5 c-13.062,0 -16,-2.871 -16,-16 v-59.0" fill="none" stroke="#000000" stroke-width="2" /><path d="M86.701,26.26 C83.584,39.81 73.96,52.462 62,59" fill="none" stroke="#000000" stroke-width="2" /><path d="M85.6,2 c3.182,4.768 6.711,10.565 9.4,15.4" fill="none" stroke="#000000" stroke-width="2" /><path d="M73.5,4 c3.143,4.655 6.564,10.262 9.2,15" fill="none" stroke="#000000" stroke-width="2" /></svg>